<?xml version="1.0" encoding="UTF-8" standalone="no"?>
<!DOCTYPE svg PUBLIC "-//W3C//DTD SVG 1.1//EN"
 "http://www.w3.org/Graphics/SVG/1.1/DTD/svg11.dtd">
<!-- Generated by graphviz version 2.43.0 (0)
 -->
<!-- Title: javolution.io.Struct.Signed64.get Pages: 1 -->
<svg width="907pt" height="212pt"
 viewBox="0.00 0.00 907.00 211.50" xmlns="http://www.w3.org/2000/svg" xmlns:xlink="http://www.w3.org/1999/xlink">
<g id="graph0" class="graph" transform="scale(1 1) rotate(0) translate(4 207.5)">
<title>javolution.io.Struct.Signed64.get</title>
<polygon fill="white" stroke="transparent" points="-4,4 -4,-207.5 903,-207.5 903,4 -4,4"/>
<!-- Node1 -->
<g id="node1" class="node">
<title>Node1</title>
<g id="a_node1"><a xlink:title=" ">
<polygon fill="#bfbfbf" stroke="black" points="0,-77.5 0,-96.5 176,-96.5 176,-77.5 0,-77.5"/>
<text text-anchor="middle" x="88" y="-84.5" font-family="Helvetica,sans-Serif" font-size="10.00">javolution.io.Struct.Signed64.get</text>
</a>
</g>
</g>
<!-- Node2 -->
<g id="node2" class="node">
<title>Node2</title>
<g id="a_node2"><a xlink:href="../../d2/d46/classjavolution_1_1io_1_1Struct_1_1Member.html#a75be2230f62956649aa5dbdea3c6f4ac" target="_top" xlink:title=" ">
<polygon fill="white" stroke="black" points="219.5,-173 219.5,-203 386.5,-203 386.5,-173 219.5,-173"/>
<text text-anchor="start" x="227.5" y="-191" font-family="Helvetica,sans-Serif" font-size="10.00">javolution.io.Struct.Member.bit</text>
<text text-anchor="middle" x="303" y="-180" font-family="Helvetica,sans-Serif" font-size="10.00">Length</text>
</a>
</g>
</g>
<!-- Node1&#45;&gt;Node2 -->
<g id="edge1" class="edge">
<title>Node1&#45;&gt;Node2</title>
<path fill="none" stroke="midnightblue" d="M101.57,-96.67C123.08,-112.79 168.79,-145.22 212,-164 216.7,-166.04 221.61,-167.95 226.62,-169.72"/>
<polygon fill="midnightblue" stroke="midnightblue" points="225.73,-173.11 236.32,-172.95 227.94,-166.47 225.73,-173.11"/>
</g>
<!-- Node3 -->
<g id="node3" class="node">
<title>Node3</title>
<g id="a_node3"><a xlink:href="../../d7/d99/classjavolution_1_1io_1_1Struct.html#a7e750810b50675d99a38aec0e4ef0e1f" target="_top" xlink:title=" ">
<polygon fill="white" stroke="black" points="239,-106 239,-136 367,-136 367,-106 239,-106"/>
<text text-anchor="start" x="247" y="-124" font-family="Helvetica,sans-Serif" font-size="10.00">javolution.io.Struct.get</text>
<text text-anchor="middle" x="303" y="-113" font-family="Helvetica,sans-Serif" font-size="10.00">ByteBuffer</text>
</a>
</g>
</g>
<!-- Node1&#45;&gt;Node3 -->
<g id="edge2" class="edge">
<title>Node1&#45;&gt;Node3</title>
<path fill="none" stroke="midnightblue" d="M148.62,-96.52C173.39,-100.47 202.39,-105.1 228.46,-109.26"/>
<polygon fill="midnightblue" stroke="midnightblue" points="228.25,-112.77 238.68,-110.89 229.35,-105.86 228.25,-112.77"/>
</g>
<!-- Node8 -->
<g id="node8" class="node">
<title>Node8</title>
<g id="a_node8"><a xlink:href="../../d7/d99/classjavolution_1_1io_1_1Struct.html#af409d73a3cf8dbd3939fcb7d5cf386e3" target="_top" xlink:title=" ">
<polygon fill="white" stroke="black" points="239,-39 239,-69 367,-69 367,-39 239,-39"/>
<text text-anchor="start" x="247" y="-57" font-family="Helvetica,sans-Serif" font-size="10.00">javolution.io.Struct.get</text>
<text text-anchor="middle" x="303" y="-46" font-family="Helvetica,sans-Serif" font-size="10.00">ByteBufferPosition</text>
</a>
</g>
</g>
<!-- Node1&#45;&gt;Node8 -->
<g id="edge10" class="edge">
<title>Node1&#45;&gt;Node8</title>
<path fill="none" stroke="midnightblue" d="M150.32,-77.5C174.84,-73.7 203.29,-69.29 228.87,-65.33"/>
<polygon fill="midnightblue" stroke="midnightblue" points="229.54,-68.77 238.89,-63.78 228.47,-61.85 229.54,-68.77"/>
</g>
<!-- Node9 -->
<g id="node9" class="node">
<title>Node9</title>
<g id="a_node9"><a xlink:href="../../d2/d46/classjavolution_1_1io_1_1Struct_1_1Member.html#a0055f0a4d71892a2eead00baf426d96c" target="_top" xlink:title=" ">
<polygon fill="white" stroke="black" points="212,-0.5 212,-19.5 394,-19.5 394,-0.5 212,-0.5"/>
<text text-anchor="middle" x="303" y="-7.5" font-family="Helvetica,sans-Serif" font-size="10.00">javolution.io.Struct.Member.offset</text>
</a>
</g>
</g>
<!-- Node1&#45;&gt;Node9 -->
<g id="edge12" class="edge">
<title>Node1&#45;&gt;Node9</title>
<path fill="none" stroke="midnightblue" d="M105.99,-77.43C129.25,-64.69 172.61,-42.24 212,-29 219.94,-26.33 228.41,-23.96 236.85,-21.87"/>
<polygon fill="midnightblue" stroke="midnightblue" points="237.79,-25.25 246.72,-19.55 236.19,-18.43 237.79,-25.25"/>
</g>
<!-- Node3&#45;&gt;Node3 -->
<g id="edge3" class="edge">
<title>Node3&#45;&gt;Node3</title>
<path fill="none" stroke="midnightblue" d="M269.54,-136.16C261.47,-145.56 272.62,-154.5 303,-154.5 321.51,-154.5 332.88,-151.18 337.12,-146.46"/>
<polygon fill="midnightblue" stroke="midnightblue" points="340.59,-145.92 336.46,-136.16 333.6,-146.36 340.59,-145.92"/>
</g>
<!-- Node4 -->
<g id="node4" class="node">
<title>Node4</title>
<g id="a_node4"><a xlink:href="../../d7/d99/classjavolution_1_1io_1_1Struct.html#aed9aed0fbd20e6523e215d990cbe5740" target="_top" xlink:title=" ">
<polygon fill="white" stroke="black" points="430,-106 430,-136 562,-136 562,-106 430,-106"/>
<text text-anchor="start" x="438" y="-124" font-family="Helvetica,sans-Serif" font-size="10.00">javolution.io.Struct.new</text>
<text text-anchor="middle" x="496" y="-113" font-family="Helvetica,sans-Serif" font-size="10.00">Buffer</text>
</a>
</g>
</g>
<!-- Node3&#45;&gt;Node4 -->
<g id="edge4" class="edge">
<title>Node3&#45;&gt;Node4</title>
<path fill="none" stroke="midnightblue" d="M367.07,-121C383.87,-121 402.2,-121 419.59,-121"/>
<polygon fill="midnightblue" stroke="midnightblue" points="419.71,-124.5 429.71,-121 419.71,-117.5 419.71,-124.5"/>
</g>
<!-- Node5 -->
<g id="node5" class="node">
<title>Node5</title>
<g id="a_node5"><a xlink:href="../../d7/d99/classjavolution_1_1io_1_1Struct.html#a81fd85611da71c484375e2c0ef9124e6" target="_top" xlink:title=" ">
<polygon fill="white" stroke="black" points="765,-128 765,-158 899,-158 899,-128 765,-128"/>
<text text-anchor="start" x="773" y="-146" font-family="Helvetica,sans-Serif" font-size="10.00">javolution.io.Struct.byte</text>
<text text-anchor="middle" x="832" y="-135" font-family="Helvetica,sans-Serif" font-size="10.00">Order</text>
</a>
</g>
</g>
<!-- Node4&#45;&gt;Node5 -->
<g id="edge5" class="edge">
<title>Node4&#45;&gt;Node5</title>
<path fill="none" stroke="midnightblue" d="M547.41,-136.03C563.43,-140.11 581.32,-143.97 598,-146 650.08,-152.35 709.19,-151.5 754.84,-149.11"/>
<polygon fill="midnightblue" stroke="midnightblue" points="755.17,-152.59 764.96,-148.54 754.78,-145.61 755.17,-152.59"/>
</g>
<!-- Node6 -->
<g id="node6" class="node">
<title>Node6</title>
<g id="a_node6"><a xlink:href="../../d7/d99/classjavolution_1_1io_1_1Struct.html#a27767d656cd1f1d9079c309a86912237" target="_top" xlink:title=" ">
<polygon fill="white" stroke="black" points="600,-106 600,-136 727,-136 727,-106 600,-106"/>
<text text-anchor="start" x="608" y="-124" font-family="Helvetica,sans-Serif" font-size="10.00">javolution.io.Struct.set</text>
<text text-anchor="middle" x="663.5" y="-113" font-family="Helvetica,sans-Serif" font-size="10.00">ByteBuffer</text>
</a>
</g>
</g>
<!-- Node4&#45;&gt;Node6 -->
<g id="edge7" class="edge">
<title>Node4&#45;&gt;Node6</title>
<path fill="none" stroke="midnightblue" d="M562.41,-121C571.4,-121 580.68,-121 589.8,-121"/>
<polygon fill="midnightblue" stroke="midnightblue" points="589.99,-124.5 599.99,-121 589.99,-117.5 589.99,-124.5"/>
</g>
<!-- Node7 -->
<g id="node7" class="node">
<title>Node7</title>
<g id="a_node7"><a xlink:href="../../d7/d99/classjavolution_1_1io_1_1Struct.html#a6c5b77be973f699a4f0a80b360de5d42" target="_top" xlink:title=" ">
<polygon fill="white" stroke="black" points="598,-67.5 598,-86.5 729,-86.5 729,-67.5 598,-67.5"/>
<text text-anchor="middle" x="663.5" y="-74.5" font-family="Helvetica,sans-Serif" font-size="10.00">javolution.io.Struct.size</text>
</a>
</g>
</g>
<!-- Node4&#45;&gt;Node7 -->
<g id="edge9" class="edge">
<title>Node4&#45;&gt;Node7</title>
<path fill="none" stroke="midnightblue" d="M553.49,-105.98C574.07,-100.51 597.05,-94.4 616.6,-89.2"/>
<polygon fill="midnightblue" stroke="midnightblue" points="617.71,-92.53 626.47,-86.58 615.91,-85.77 617.71,-92.53"/>
</g>
<!-- Node5&#45;&gt;Node5 -->
<g id="edge6" class="edge">
<title>Node5&#45;&gt;Node5</title>
<path fill="none" stroke="midnightblue" d="M802.72,-158.16C795.66,-167.56 805.42,-176.5 832,-176.5 848.2,-176.5 858.15,-173.18 861.85,-168.46"/>
<polygon fill="midnightblue" stroke="midnightblue" points="865.33,-167.95 861.28,-158.16 858.34,-168.34 865.33,-167.95"/>
</g>
<!-- Node6&#45;&gt;Node5 -->
<g id="edge8" class="edge">
<title>Node6&#45;&gt;Node5</title>
<path fill="none" stroke="midnightblue" d="M727.45,-129.32C736.44,-130.51 745.77,-131.74 754.98,-132.96"/>
<polygon fill="midnightblue" stroke="midnightblue" points="754.54,-136.43 764.91,-134.27 755.46,-129.49 754.54,-136.43"/>
</g>
<!-- Node8&#45;&gt;Node8 -->
<g id="edge11" class="edge">
<title>Node8&#45;&gt;Node8</title>
<path fill="none" stroke="midnightblue" d="M269.54,-69.16C261.47,-78.56 272.62,-87.5 303,-87.5 321.51,-87.5 332.88,-84.18 337.12,-79.46"/>
<polygon fill="midnightblue" stroke="midnightblue" points="340.59,-78.92 336.46,-69.16 333.6,-79.36 340.59,-78.92"/>
</g>
</g>
</svg>
