<?xml version="1.0" encoding="UTF-8" standalone="no"?>
<!DOCTYPE svg PUBLIC "-//W3C//DTD SVG 1.1//EN"
 "http://www.w3.org/Graphics/SVG/1.1/DTD/svg11.dtd">
<!-- Generated by graphviz version 2.43.0 (0)
 -->
<!-- Title: javolution.xml.stream.XMLStreamReader.getLocalName Pages: 1 -->
<svg width="592pt" height="61pt"
 viewBox="0.00 0.00 592.00 61.00" xmlns="http://www.w3.org/2000/svg" xmlns:xlink="http://www.w3.org/1999/xlink">
<g id="graph0" class="graph" transform="scale(1 1) rotate(0) translate(4 57)">
<title>javolution.xml.stream.XMLStreamReader.getLocalName</title>
<polygon fill="white" stroke="transparent" points="-4,4 -4,-57 588,-57 588,4 -4,4"/>
<!-- Node1 -->
<g id="node1" class="node">
<title>Node1</title>
<g id="a_node1"><a xlink:title=" ">
<polygon fill="#bfbfbf" stroke="black" points="400,-22.5 400,-52.5 584,-52.5 584,-22.5 400,-22.5"/>
<text text-anchor="start" x="408" y="-40.5" font-family="Helvetica,sans-Serif" font-size="10.00">javolution.xml.stream.XMLStream</text>
<text text-anchor="middle" x="492" y="-29.5" font-family="Helvetica,sans-Serif" font-size="10.00">Reader.getLocalName</text>
</a>
</g>
</g>
<!-- Node2 -->
<g id="node2" class="node">
<title>Node2</title>
<g id="a_node2"><a xlink:href="../../d4/d1c/classjavolution_1_1xml_1_1ws_1_1WebServiceClient.html#a88666595aac04e971c68330c1aea9646" target="_top" xlink:title=" ">
<polygon fill="white" stroke="black" points="0,-22.5 0,-52.5 164,-52.5 164,-22.5 0,-22.5"/>
<text text-anchor="start" x="8" y="-40.5" font-family="Helvetica,sans-Serif" font-size="10.00">javolution.xml.ws.WebService</text>
<text text-anchor="middle" x="82" y="-29.5" font-family="Helvetica,sans-Serif" font-size="10.00">Client.invoke</text>
</a>
</g>
</g>
<!-- Node1&#45;&gt;Node2 -->
<g id="edge1" class="edge">
<title>Node1&#45;&gt;Node2</title>
<path fill="none" stroke="midnightblue" d="M389.61,-40.11C380.95,-40.27 372.32,-40.4 364,-40.5 291.12,-41.36 272.88,-41.43 200,-40.5 188.42,-40.35 176.19,-40.12 164.19,-39.85"/>
<polygon fill="midnightblue" stroke="midnightblue" points="389.85,-43.61 399.78,-39.91 389.72,-36.61 389.85,-43.61"/>
</g>
<!-- Node3 -->
<g id="node3" class="node">
<title>Node3</title>
<g id="a_node3"><a xlink:href="../../d4/d1c/classjavolution_1_1xml_1_1ws_1_1WebServiceClient.html#a0c1241cc3ca6af429bc9cc8648805786" target="_top" xlink:title=" ">
<polygon fill="white" stroke="black" points="200,-0.5 200,-30.5 364,-30.5 364,-0.5 200,-0.5"/>
<text text-anchor="start" x="208" y="-18.5" font-family="Helvetica,sans-Serif" font-size="10.00">javolution.xml.ws.WebService</text>
<text text-anchor="middle" x="282" y="-7.5" font-family="Helvetica,sans-Serif" font-size="10.00">Client.readResponse</text>
</a>
</g>
</g>
<!-- Node1&#45;&gt;Node3 -->
<g id="edge2" class="edge">
<title>Node1&#45;&gt;Node3</title>
<path fill="none" stroke="midnightblue" d="M389.69,-26.78C381.08,-25.87 372.45,-24.96 364.03,-24.07"/>
<polygon fill="midnightblue" stroke="midnightblue" points="389.46,-30.28 399.77,-27.85 390.19,-23.32 389.46,-30.28"/>
</g>
<!-- Node3&#45;&gt;Node2 -->
<g id="edge3" class="edge">
<title>Node3&#45;&gt;Node2</title>
<path fill="none" stroke="midnightblue" d="M189.92,-25.62C181.37,-26.57 172.75,-27.53 164.3,-28.47"/>
<polygon fill="midnightblue" stroke="midnightblue" points="190.34,-29.09 199.89,-24.51 189.57,-22.14 190.34,-29.09"/>
</g>
</g>
</svg>
