<?xml version="1.0" encoding="UTF-8" standalone="no"?>
<!DOCTYPE svg PUBLIC "-//W3C//DTD SVG 1.1//EN"
 "http://www.w3.org/Graphics/SVG/1.1/DTD/svg11.dtd">
<!-- Generated by graphviz version 2.43.0 (0)
 -->
<!-- Title: javolution.util.internal.map.sorted.UnmodifiableSortedMapImpl&lt; K, V &gt; Pages: 1 -->
<svg width="1100pt" height="251pt"
 viewBox="0.00 0.00 1100.00 251.31" xmlns="http://www.w3.org/2000/svg" xmlns:xlink="http://www.w3.org/1999/xlink">
<g id="graph0" class="graph" transform="scale(1 1) rotate(0) translate(4 247.31)">
<title>javolution.util.internal.map.sorted.UnmodifiableSortedMapImpl&lt; K, V &gt;</title>
<polygon fill="white" stroke="transparent" points="-4,4 -4,-247.31 1096,-247.31 1096,4 -4,4"/>
<!-- Node1 -->
<g id="node1" class="node">
<title>Node1</title>
<g id="a_node1"><a xlink:title=" ">
<polygon fill="#bfbfbf" stroke="black" points="894,-26.31 894,-56.31 1092,-56.31 1092,-26.31 894,-26.31"/>
<text text-anchor="start" x="902" y="-44.31" font-family="Helvetica,sans-Serif" font-size="10.00">javolution.util.internal.map.sorted.</text>
<text text-anchor="middle" x="993" y="-33.31" font-family="Helvetica,sans-Serif" font-size="10.00">UnmodifiableSortedMapImpl&lt; K, V &gt;</text>
</a>
</g>
</g>
<!-- Node2 -->
<g id="node2" class="node">
<title>Node2</title>
<g id="a_node2"><a xlink:href="../../d0/d9e/classjavolution_1_1util_1_1internal_1_1map_1_1UnmodifiableMapImpl.html" target="_top" xlink:title=" ">
<polygon fill="white" stroke="black" points="699,-20.81 699,-61.81 857,-61.81 857,-20.81 699,-20.81"/>
<text text-anchor="start" x="707" y="-49.81" font-family="Helvetica,sans-Serif" font-size="10.00">javolution::util::internal</text>
<text text-anchor="start" x="707" y="-38.81" font-family="Helvetica,sans-Serif" font-size="10.00">::map::UnmodifiableMapImpl</text>
<text text-anchor="middle" x="778" y="-27.81" font-family="Helvetica,sans-Serif" font-size="10.00">&lt; K, V &gt;</text>
</a>
</g>
</g>
<!-- Node2&#45;&gt;Node1 -->
<g id="edge1" class="edge">
<title>Node2&#45;&gt;Node1</title>
<path fill="none" stroke="midnightblue" d="M867.33,-41.31C876.12,-41.31 885.08,-41.31 893.96,-41.31"/>
<polygon fill="midnightblue" stroke="midnightblue" points="867.1,-37.81 857.1,-41.31 867.1,-44.81 867.1,-37.81"/>
</g>
<!-- Node3 -->
<g id="node3" class="node">
<title>Node3</title>
<g id="a_node3"><a xlink:href="../../d0/d83/classjavolution_1_1util_1_1internal_1_1map_1_1MapView.html" target="_top" xlink:title=" ">
<polygon fill="white" stroke="black" points="433,-64.31 433,-94.31 570,-94.31 570,-64.31 433,-64.31"/>
<text text-anchor="start" x="441" y="-82.31" font-family="Helvetica,sans-Serif" font-size="10.00">javolution::util::internal</text>
<text text-anchor="middle" x="501.5" y="-71.31" font-family="Helvetica,sans-Serif" font-size="10.00">::map::MapView&lt; K, V &gt;</text>
</a>
</g>
</g>
<!-- Node3&#45;&gt;Node2 -->
<g id="edge2" class="edge">
<title>Node3&#45;&gt;Node2</title>
<path fill="none" stroke="midnightblue" d="M580.24,-68.55C617.27,-63.42 661.45,-57.3 698.56,-52.17"/>
<polygon fill="midnightblue" stroke="midnightblue" points="579.43,-65.13 570,-69.96 580.39,-72.06 579.43,-65.13"/>
</g>
<!-- Node4 -->
<g id="node4" class="node">
<title>Node4</title>
<g id="a_node4"><a xlink:href="../../d7/d30/interfacejavolution_1_1util_1_1service_1_1MapService.html" target="_top" xlink:title=" ">
<polygon fill="white" stroke="black" points="176,-119.31 176,-149.31 304,-149.31 304,-119.31 176,-119.31"/>
<text text-anchor="start" x="184" y="-137.31" font-family="Helvetica,sans-Serif" font-size="10.00">javolution::util::service</text>
<text text-anchor="middle" x="240" y="-126.31" font-family="Helvetica,sans-Serif" font-size="10.00">::MapService&lt; K, V &gt;</text>
</a>
</g>
</g>
<!-- Node4&#45;&gt;Node3 -->
<g id="edge3" class="edge">
<title>Node4&#45;&gt;Node3</title>
<path fill="none" stroke="midnightblue" d="M314.2,-120.33C343.15,-114.65 376.69,-107.89 407,-101.31 417.02,-99.13 427.63,-96.73 437.95,-94.34"/>
<polygon fill="midnightblue" stroke="midnightblue" points="313.31,-116.94 304.17,-122.29 314.65,-123.81 313.31,-116.94"/>
</g>
<!-- Node12 -->
<g id="node12" class="node">
<title>Node12</title>
<g id="a_node12"><a xlink:href="../../de/dc6/interfacejavolution_1_1util_1_1service_1_1SortedMapService.html" target="_top" xlink:title=" ">
<polygon fill="white" stroke="black" points="425,-126.31 425,-156.31 578,-156.31 578,-126.31 425,-126.31"/>
<text text-anchor="start" x="433" y="-144.31" font-family="Helvetica,sans-Serif" font-size="10.00">javolution::util::service</text>
<text text-anchor="middle" x="501.5" y="-133.31" font-family="Helvetica,sans-Serif" font-size="10.00">::SortedMapService&lt; K, V &gt;</text>
</a>
</g>
</g>
<!-- Node4&#45;&gt;Node12 -->
<g id="edge13" class="edge">
<title>Node4&#45;&gt;Node12</title>
<path fill="none" stroke="midnightblue" d="M314.15,-136.28C348.63,-137.21 389.74,-138.32 424.57,-139.26"/>
<polygon fill="midnightblue" stroke="midnightblue" points="314.24,-132.78 304.15,-136.01 314.05,-139.78 314.24,-132.78"/>
</g>
<!-- Node5 -->
<g id="node5" class="node">
<title>Node5</title>
<g id="a_node5"><a xlink:title=" ">
<polygon fill="white" stroke="#bfbfbf" points="5.5,-223.81 5.5,-242.81 133.5,-242.81 133.5,-223.81 5.5,-223.81"/>
<text text-anchor="middle" x="69.5" y="-230.81" font-family="Helvetica,sans-Serif" font-size="10.00">java::util::Map&lt; K, V &gt;</text>
</a>
</g>
</g>
<!-- Node5&#45;&gt;Node4 -->
<g id="edge4" class="edge">
<title>Node5&#45;&gt;Node4</title>
<path fill="none" stroke="midnightblue" d="M130.39,-219.58C133.4,-218.01 136.3,-216.26 139,-214.31 162.9,-197.08 153.06,-177.79 176,-159.31 180.76,-155.47 186.19,-152.16 191.82,-149.32"/>
<polygon fill="midnightblue" stroke="midnightblue" points="128.74,-216.48 121.04,-223.77 131.6,-222.87 128.74,-216.48"/>
</g>
<!-- Node6 -->
<g id="node6" class="node">
<title>Node6</title>
<g id="a_node6"><a xlink:title=" ">
<polygon fill="white" stroke="#bfbfbf" points="0,-174.31 0,-204.31 139,-204.31 139,-174.31 0,-174.31"/>
<text text-anchor="start" x="8" y="-192.31" font-family="Helvetica,sans-Serif" font-size="10.00">java::util::concurrent</text>
<text text-anchor="middle" x="69.5" y="-181.31" font-family="Helvetica,sans-Serif" font-size="10.00">::ConcurrentMap&lt; K, V &gt;</text>
</a>
</g>
</g>
<!-- Node6&#45;&gt;Node4 -->
<g id="edge5" class="edge">
<title>Node6&#45;&gt;Node4</title>
<path fill="none" stroke="midnightblue" d="M126.26,-171.11C147.91,-164.04 172.4,-156.05 193.01,-149.32"/>
<polygon fill="midnightblue" stroke="midnightblue" points="124.96,-167.85 116.54,-174.28 127.14,-174.5 124.96,-167.85"/>
</g>
<!-- Node7 -->
<g id="node7" class="node">
<title>Node7</title>
<g id="a_node7"><a xlink:href="../../dd/ded/interfacejavolution_1_1util_1_1function_1_1Splittable.html" target="_top" xlink:title=" ">
<polygon fill="white" stroke="black" points="1,-113.81 1,-154.81 138,-154.81 138,-113.81 1,-113.81"/>
<text text-anchor="start" x="9" y="-142.81" font-family="Helvetica,sans-Serif" font-size="10.00">javolution::util::function</text>
<text text-anchor="start" x="9" y="-131.81" font-family="Helvetica,sans-Serif" font-size="10.00">::Splittable&lt; MapService</text>
<text text-anchor="middle" x="69.5" y="-120.81" font-family="Helvetica,sans-Serif" font-size="10.00">&lt; K, V &gt; &gt;</text>
</a>
</g>
</g>
<!-- Node7&#45;&gt;Node4 -->
<g id="edge6" class="edge">
<title>Node7&#45;&gt;Node4</title>
<path fill="none" stroke="midnightblue" d="M148.07,-134.31C157.36,-134.31 166.75,-134.31 175.79,-134.31"/>
<polygon fill="midnightblue" stroke="midnightblue" points="148.06,-130.81 138.06,-134.31 148.06,-137.81 148.06,-130.81"/>
</g>
<!-- Node8 -->
<g id="node8" class="node">
<title>Node8</title>
<g id="a_node8"><a xlink:title=" ">
<polygon fill="white" stroke="#bfbfbf" points="32.5,-75.81 32.5,-94.81 106.5,-94.81 106.5,-75.81 32.5,-75.81"/>
<text text-anchor="middle" x="69.5" y="-82.81" font-family="Helvetica,sans-Serif" font-size="10.00">Serializable</text>
</a>
</g>
</g>
<!-- Node8&#45;&gt;Node4 -->
<g id="edge7" class="edge">
<title>Node8&#45;&gt;Node4</title>
<path fill="none" stroke="midnightblue" d="M115.24,-97.57C123.16,-99.79 131.33,-102.09 139,-104.31 155.54,-109.08 173.58,-114.45 189.72,-119.3"/>
<polygon fill="midnightblue" stroke="midnightblue" points="115.96,-94.14 105.39,-94.83 114.08,-100.88 115.96,-94.14"/>
</g>
<!-- Node9 -->
<g id="node9" class="node">
<title>Node9</title>
<g id="a_node9"><a xlink:href="../../d5/d48/classCloneable.html" target="_top" xlink:title=" ">
<polygon fill="white" stroke="black" points="37,-37.81 37,-56.81 102,-56.81 102,-37.81 37,-37.81"/>
<text text-anchor="middle" x="69.5" y="-44.81" font-family="Helvetica,sans-Serif" font-size="10.00">Cloneable</text>
</a>
</g>
</g>
<!-- Node9&#45;&gt;Node4 -->
<g id="edge8" class="edge">
<title>Node9&#45;&gt;Node4</title>
<path fill="none" stroke="midnightblue" d="M112.06,-54.63C121.38,-57.39 130.89,-61.16 139,-66.31 160.29,-79.82 155.47,-94.68 176,-109.31 181.27,-113.06 187.19,-116.36 193.22,-119.22"/>
<polygon fill="midnightblue" stroke="midnightblue" points="112.68,-51.17 102.12,-52.01 110.9,-57.94 112.68,-51.17"/>
</g>
<!-- Node10 -->
<g id="node10" class="node">
<title>Node10</title>
<g id="a_node10"><a xlink:title=" ">
<polygon fill="white" stroke="#bfbfbf" points="182,-80.81 182,-99.81 298,-99.81 298,-80.81 182,-80.81"/>
<text text-anchor="middle" x="240" y="-87.81" font-family="Helvetica,sans-Serif" font-size="10.00">MapService&lt; K, V &gt;</text>
</a>
</g>
</g>
<!-- Node10&#45;&gt;Node3 -->
<g id="edge9" class="edge">
<title>Node10&#45;&gt;Node3</title>
<path fill="none" stroke="#9a32cd" stroke-dasharray="5,2" d="M308.3,-87.46C346.6,-85.83 394.43,-83.8 432.8,-82.18"/>
<polygon fill="#9a32cd" stroke="#9a32cd" points="308.11,-83.96 298.27,-87.88 308.41,-90.95 308.11,-83.96"/>
<text text-anchor="middle" x="364.5" y="-89.31" font-family="Helvetica,sans-Serif" font-size="10.00"> target</text>
</g>
<!-- Node11 -->
<g id="node11" class="node">
<title>Node11</title>
<g id="a_node11"><a xlink:title=" ">
<polygon fill="white" stroke="#bfbfbf" points="194,-13.81 194,-32.81 286,-32.81 286,-13.81 194,-13.81"/>
<text text-anchor="middle" x="240" y="-20.81" font-family="Helvetica,sans-Serif" font-size="10.00">static final long</text>
</a>
</g>
</g>
<!-- Node11&#45;&gt;Node1 -->
<g id="edge15" class="edge">
<title>Node11&#45;&gt;Node1</title>
<path fill="none" stroke="#9a32cd" stroke-dasharray="5,2" d="M296.01,-17.51C403.97,-7.18 650.99,11.31 857,-11.31 883.73,-14.24 912.91,-20.35 937.28,-26.3"/>
<polygon fill="#9a32cd" stroke="#9a32cd" points="295.62,-14.04 286.01,-18.49 296.3,-21 295.62,-14.04"/>
<text text-anchor="middle" x="638.5" y="-4.31" font-family="Helvetica,sans-Serif" font-size="10.00"> serialVersionUID</text>
</g>
<!-- Node11&#45;&gt;Node2 -->
<g id="edge11" class="edge">
<title>Node11&#45;&gt;Node2</title>
<path fill="none" stroke="#9a32cd" stroke-dasharray="5,2" d="M296.29,-25.17C392.08,-28.38 589.1,-35 698.84,-38.68"/>
<polygon fill="#9a32cd" stroke="#9a32cd" points="296.35,-21.67 286.24,-24.83 296.11,-28.66 296.35,-21.67"/>
<text text-anchor="middle" x="501.5" y="-37.31" font-family="Helvetica,sans-Serif" font-size="10.00"> serialVersionUID</text>
</g>
<!-- Node11&#45;&gt;Node3 -->
<g id="edge10" class="edge">
<title>Node11&#45;&gt;Node3</title>
<path fill="none" stroke="#9a32cd" stroke-dasharray="5,2" d="M295.16,-35C335.22,-43.64 390.04,-55.47 432.96,-64.73"/>
<polygon fill="#9a32cd" stroke="#9a32cd" points="295.83,-31.56 285.31,-32.87 294.35,-38.4 295.83,-31.56"/>
<text text-anchor="middle" x="364.5" y="-60.31" font-family="Helvetica,sans-Serif" font-size="10.00"> serialVersionUID</text>
</g>
<!-- Node12&#45;&gt;Node1 -->
<g id="edge12" class="edge">
<title>Node12&#45;&gt;Node1</title>
<path fill="none" stroke="midnightblue" d="M588.24,-124.97C660.11,-111.13 765.38,-90.53 857,-71.31 879.44,-66.6 903.93,-61.23 925.81,-56.35"/>
<polygon fill="midnightblue" stroke="midnightblue" points="587.49,-121.55 578.33,-126.87 588.81,-128.42 587.49,-121.55"/>
</g>
<!-- Node13 -->
<g id="node13" class="node">
<title>Node13</title>
<g id="a_node13"><a xlink:title=" ">
<polygon fill="white" stroke="#bfbfbf" points="181,-168.31 181,-198.31 299,-198.31 299,-168.31 181,-168.31"/>
<text text-anchor="start" x="189" y="-186.31" font-family="Helvetica,sans-Serif" font-size="10.00">java::util::SortedMap</text>
<text text-anchor="middle" x="240" y="-175.31" font-family="Helvetica,sans-Serif" font-size="10.00">&lt; K, V &gt;</text>
</a>
</g>
</g>
<!-- Node13&#45;&gt;Node12 -->
<g id="edge14" class="edge">
<title>Node13&#45;&gt;Node12</title>
<path fill="none" stroke="midnightblue" d="M309.49,-172.22C344.92,-166.49 388.27,-159.47 424.71,-153.57"/>
<polygon fill="midnightblue" stroke="midnightblue" points="308.55,-168.83 299.24,-173.88 309.67,-175.74 308.55,-168.83"/>
</g>
</g>
</svg>
