<?xml version="1.0" encoding="UTF-8" standalone="no"?>
<!DOCTYPE svg PUBLIC "-//W3C//DTD SVG 1.1//EN"
 "http://www.w3.org/Graphics/SVG/1.1/DTD/svg11.dtd">
<!-- Generated by graphviz version 2.43.0 (0)
 -->
<!-- Title: javolution.xml.stream.XMLStreamReader Pages: 1 -->
<svg width="198pt" height="284pt"
 viewBox="0.00 0.00 198.00 284.00" xmlns="http://www.w3.org/2000/svg" xmlns:xlink="http://www.w3.org/1999/xlink">
<g id="graph0" class="graph" transform="scale(1 1) rotate(0) translate(4 280)">
<title>javolution.xml.stream.XMLStreamReader</title>
<polygon fill="white" stroke="transparent" points="-4,4 -4,-280 194,-280 194,4 -4,4"/>
<!-- Node1 -->
<g id="node1" class="node">
<title>Node1</title>
<g id="a_node1"><a xlink:title=" ">
<polygon fill="#bfbfbf" stroke="black" points="0,-0.5 0,-30.5 184,-30.5 184,-0.5 0,-0.5"/>
<text text-anchor="start" x="8" y="-18.5" font-family="Helvetica,sans-Serif" font-size="10.00">javolution.xml.stream.XMLStream</text>
<text text-anchor="middle" x="92" y="-7.5" font-family="Helvetica,sans-Serif" font-size="10.00">Reader</text>
</a>
</g>
</g>
<!-- Node2 -->
<g id="node2" class="node">
<title>Node2</title>
<g id="a_node2"><a xlink:href="../../dc/d6e/interfacejavolution_1_1xml_1_1stream_1_1XMLStreamConstants.html" target="_top" xlink:title=" ">
<polygon fill="white" stroke="black" points="0,-68.5 0,-98.5 184,-98.5 184,-68.5 0,-68.5"/>
<text text-anchor="start" x="8" y="-86.5" font-family="Helvetica,sans-Serif" font-size="10.00">javolution.xml.stream.XMLStream</text>
<text text-anchor="middle" x="92" y="-75.5" font-family="Helvetica,sans-Serif" font-size="10.00">Constants</text>
</a>
</g>
</g>
<!-- Node2&#45;&gt;Node1 -->
<g id="edge1" class="edge">
<title>Node2&#45;&gt;Node1</title>
<path fill="none" stroke="midnightblue" d="M92,-58.03C92,-48.86 92,-38.74 92,-30.79"/>
<polygon fill="midnightblue" stroke="midnightblue" points="88.5,-58.18 92,-68.18 95.5,-58.18 88.5,-58.18"/>
</g>
<!-- Node3 -->
<g id="node3" class="node">
<title>Node3</title>
<g id="a_node3"><a xlink:title=" ">
<polygon fill="white" stroke="#bfbfbf" points="77.5,-256.5 77.5,-275.5 106.5,-275.5 106.5,-256.5 77.5,-256.5"/>
<text text-anchor="middle" x="92" y="-263.5" font-family="Helvetica,sans-Serif" font-size="10.00">int</text>
</a>
</g>
</g>
<!-- Node3&#45;&gt;Node2 -->
<g id="edge2" class="edge">
<title>Node3&#45;&gt;Node2</title>
<path fill="none" stroke="#9a32cd" stroke-dasharray="5,2" d="M92,-246.09C92,-209.7 92,-130.69 92,-98.54"/>
<polygon fill="#9a32cd" stroke="#9a32cd" points="88.5,-246.29 92,-256.29 95.5,-246.29 88.5,-246.29"/>
<text text-anchor="middle" x="141" y="-230" font-family="Helvetica,sans-Serif" font-size="10.00"> DTD</text>
<text text-anchor="middle" x="141" y="-219" font-family="Helvetica,sans-Serif" font-size="10.00">START_DOCUMENT</text>
<text text-anchor="middle" x="141" y="-208" font-family="Helvetica,sans-Serif" font-size="10.00">SPACE</text>
<text text-anchor="middle" x="141" y="-197" font-family="Helvetica,sans-Serif" font-size="10.00">CHARACTERS</text>
<text text-anchor="middle" x="141" y="-186" font-family="Helvetica,sans-Serif" font-size="10.00">START_ELEMENT</text>
<text text-anchor="middle" x="141" y="-175" font-family="Helvetica,sans-Serif" font-size="10.00">NAMESPACE</text>
<text text-anchor="middle" x="141" y="-164" font-family="Helvetica,sans-Serif" font-size="10.00">CDATA</text>
<text text-anchor="middle" x="141" y="-153" font-family="Helvetica,sans-Serif" font-size="10.00">END_DOCUMENT</text>
<text text-anchor="middle" x="141" y="-142" font-family="Helvetica,sans-Serif" font-size="10.00">ATTRIBUTE</text>
<text text-anchor="middle" x="141" y="-131" font-family="Helvetica,sans-Serif" font-size="10.00">ENTITY_REFERENCE</text>
<text text-anchor="middle" x="141" y="-120" font-family="Helvetica,sans-Serif" font-size="10.00">...</text>
</g>
</g>
</svg>
