<?xml version="1.0" encoding="UTF-8" standalone="no"?>
<!DOCTYPE svg PUBLIC "-//W3C//DTD SVG 1.1//EN"
 "http://www.w3.org/Graphics/SVG/1.1/DTD/svg11.dtd">
<!-- Generated by graphviz version 2.43.0 (0)
 -->
<!-- Title: javolution.io.Struct.Signed8.get Pages: 1 -->
<!--zoomable 212 -->
<svg id="main" version="1.1" xmlns="http://www.w3.org/2000/svg" xmlns:xlink="http://www.w3.org/1999/xlink" xml:space="preserve" onload="init(evt)">
<style type="text/css"><![CDATA[
.edge:hover path { stroke: red; }
.edge:hover polygon { stroke: red; fill: red; }
]]></style>
<script type="text/javascript"><![CDATA[
var edges = document.getElementsByTagName('g');
if (edges && edges.length) {
  for (var i=0;i<edges.length;i++) {
    if (edges[i].id.substr(0,4)=='edge') {
      edges[i].setAttribute('class','edge');
    }
  }
}
]]></script>
        <defs>
                <circle id="rim" cx="0" cy="0" r="7"/>
                <circle id="rim2" cx="0" cy="0" r="3.5"/>
                <g id="zoomPlus">
                        <use xlink:href="#rim" fill="#404040">
                                <set attributeName="fill" to="#808080" begin="zoomplus.mouseover" end="zoomplus.mouseout"/>
                        </use>
                        <path d="M-4,0h8M0,-4v8" fill="none" stroke="white" stroke-width="1.5" pointer-events="none"/>
                </g>
                <g id="zoomMin">
                        <use xlink:href="#rim" fill="#404040">
                                <set attributeName="fill" to="#808080" begin="zoomminus.mouseover" end="zoomminus.mouseout"/>
                        </use>
                        <path d="M-4,0h8" fill="none" stroke="white" stroke-width="1.5" pointer-events="none"/>
                </g>
                <g id="dirArrow">
                        <path fill="none" stroke="white" stroke-width="1.5" d="M0,-3.0v7 M-2.5,-0.5L0,-3.0L2.5,-0.5"/>
                </g>
               <g id="resetDef">
                       <use xlink:href="#rim2" fill="#404040">
                               <set attributeName="fill" to="#808080" begin="reset.mouseover" end="reset.mouseout"/>
                       </use>
               </g>
        </defs>

<script type="text/javascript">
var viewWidth = 901;
var viewHeight = 212;
var sectionId = 'dynsection-4';
</script>
<script xlink:href="../../svgpan.js"/>
<svg id="graph" class="graph">
<g id="viewport">
<title>javolution.io.Struct.Signed8.get</title>
<polygon fill="white" stroke="transparent" points="-4,4 -4,-207.5 897,-207.5 897,4 -4,4"/>
<!-- Node1 -->
<g id="node1" class="node">
<title>Node1</title>
<g id="a_node1"><a xlink:title=" ">
<polygon fill="#bfbfbf" stroke="black" points="0,-77.5 0,-96.5 170,-96.5 170,-77.5 0,-77.5"/>
<text text-anchor="middle" x="85" y="-84.5" font-family="Helvetica,sans-Serif" font-size="10.00">javolution.io.Struct.Signed8.get</text>
</a>
</g>
</g>
<!-- Node2 -->
<g id="node2" class="node">
<title>Node2</title>
<g id="a_node2"><a xlink:href="../../d2/d46/classjavolution_1_1io_1_1Struct_1_1Member.html#a75be2230f62956649aa5dbdea3c6f4ac" target="_top" xlink:title=" ">
<polygon fill="white" stroke="black" points="213.5,-173 213.5,-203 380.5,-203 380.5,-173 213.5,-173"/>
<text text-anchor="start" x="221.5" y="-191" font-family="Helvetica,sans-Serif" font-size="10.00">javolution.io.Struct.Member.bit</text>
<text text-anchor="middle" x="297" y="-180" font-family="Helvetica,sans-Serif" font-size="10.00">Length</text>
</a>
</g>
</g>
<!-- Node1&#45;&gt;Node2 -->
<g id="edge1" class="edge">
<title>Node1&#45;&gt;Node2</title>
<path fill="none" stroke="midnightblue" d="M98.22,-96.69C119.14,-112.84 163.65,-145.31 206,-164 210.6,-166.03 215.41,-167.92 220.31,-169.67"/>
<polygon fill="midnightblue" stroke="midnightblue" points="219.21,-173 229.81,-172.88 221.45,-166.37 219.21,-173"/>
</g>
<!-- Node3 -->
<g id="node3" class="node">
<title>Node3</title>
<g id="a_node3"><a xlink:href="../../d7/d99/classjavolution_1_1io_1_1Struct.html#a7e750810b50675d99a38aec0e4ef0e1f" target="_top" xlink:title=" ">
<polygon fill="white" stroke="black" points="233,-106 233,-136 361,-136 361,-106 233,-106"/>
<text text-anchor="start" x="241" y="-124" font-family="Helvetica,sans-Serif" font-size="10.00">javolution.io.Struct.get</text>
<text text-anchor="middle" x="297" y="-113" font-family="Helvetica,sans-Serif" font-size="10.00">ByteBuffer</text>
</a>
</g>
</g>
<!-- Node1&#45;&gt;Node3 -->
<g id="edge2" class="edge">
<title>Node1&#45;&gt;Node3</title>
<path fill="none" stroke="midnightblue" d="M144.78,-96.52C168.98,-100.44 197.29,-105.02 222.82,-109.15"/>
<polygon fill="midnightblue" stroke="midnightblue" points="222.4,-112.63 232.83,-110.77 223.52,-105.72 222.4,-112.63"/>
</g>
<!-- Node8 -->
<g id="node8" class="node">
<title>Node8</title>
<g id="a_node8"><a xlink:href="../../d7/d99/classjavolution_1_1io_1_1Struct.html#af409d73a3cf8dbd3939fcb7d5cf386e3" target="_top" xlink:title=" ">
<polygon fill="white" stroke="black" points="233,-39 233,-69 361,-69 361,-39 233,-39"/>
<text text-anchor="start" x="241" y="-57" font-family="Helvetica,sans-Serif" font-size="10.00">javolution.io.Struct.get</text>
<text text-anchor="middle" x="297" y="-46" font-family="Helvetica,sans-Serif" font-size="10.00">ByteBufferPosition</text>
</a>
</g>
</g>
<!-- Node1&#45;&gt;Node8 -->
<g id="edge10" class="edge">
<title>Node1&#45;&gt;Node8</title>
<path fill="none" stroke="midnightblue" d="M146.46,-77.5C170.21,-73.77 197.69,-69.45 222.56,-65.54"/>
<polygon fill="midnightblue" stroke="midnightblue" points="223.34,-68.96 232.68,-63.95 222.26,-62.05 223.34,-68.96"/>
</g>
<!-- Node9 -->
<g id="node9" class="node">
<title>Node9</title>
<g id="a_node9"><a xlink:href="../../d2/d46/classjavolution_1_1io_1_1Struct_1_1Member.html#a0055f0a4d71892a2eead00baf426d96c" target="_top" xlink:title=" ">
<polygon fill="white" stroke="black" points="206,-0.5 206,-19.5 388,-19.5 388,-0.5 206,-0.5"/>
<text text-anchor="middle" x="297" y="-7.5" font-family="Helvetica,sans-Serif" font-size="10.00">javolution.io.Struct.Member.offset</text>
</a>
</g>
</g>
<!-- Node1&#45;&gt;Node9 -->
<g id="edge12" class="edge">
<title>Node1&#45;&gt;Node9</title>
<path fill="none" stroke="midnightblue" d="M102.54,-77.4C125.19,-64.64 167.46,-42.16 206,-29 213.82,-26.33 222.16,-23.96 230.48,-21.88"/>
<polygon fill="midnightblue" stroke="midnightblue" points="231.29,-25.29 240.22,-19.58 229.68,-18.48 231.29,-25.29"/>
</g>
<!-- Node3&#45;&gt;Node3 -->
<g id="edge3" class="edge">
<title>Node3&#45;&gt;Node3</title>
<path fill="none" stroke="midnightblue" d="M263.54,-136.16C255.47,-145.56 266.62,-154.5 297,-154.5 315.51,-154.5 326.88,-151.18 331.12,-146.46"/>
<polygon fill="midnightblue" stroke="midnightblue" points="334.59,-145.92 330.46,-136.16 327.6,-146.36 334.59,-145.92"/>
</g>
<!-- Node4 -->
<g id="node4" class="node">
<title>Node4</title>
<g id="a_node4"><a xlink:href="../../d7/d99/classjavolution_1_1io_1_1Struct.html#aed9aed0fbd20e6523e215d990cbe5740" target="_top" xlink:title=" ">
<polygon fill="white" stroke="black" points="424,-106 424,-136 556,-136 556,-106 424,-106"/>
<text text-anchor="start" x="432" y="-124" font-family="Helvetica,sans-Serif" font-size="10.00">javolution.io.Struct.new</text>
<text text-anchor="middle" x="490" y="-113" font-family="Helvetica,sans-Serif" font-size="10.00">Buffer</text>
</a>
</g>
</g>
<!-- Node3&#45;&gt;Node4 -->
<g id="edge4" class="edge">
<title>Node3&#45;&gt;Node4</title>
<path fill="none" stroke="midnightblue" d="M361.07,-121C377.87,-121 396.2,-121 413.59,-121"/>
<polygon fill="midnightblue" stroke="midnightblue" points="413.71,-124.5 423.71,-121 413.71,-117.5 413.71,-124.5"/>
</g>
<!-- Node5 -->
<g id="node5" class="node">
<title>Node5</title>
<g id="a_node5"><a xlink:href="../../d7/d99/classjavolution_1_1io_1_1Struct.html#a81fd85611da71c484375e2c0ef9124e6" target="_top" xlink:title=" ">
<polygon fill="white" stroke="black" points="759,-128 759,-158 893,-158 893,-128 759,-128"/>
<text text-anchor="start" x="767" y="-146" font-family="Helvetica,sans-Serif" font-size="10.00">javolution.io.Struct.byte</text>
<text text-anchor="middle" x="826" y="-135" font-family="Helvetica,sans-Serif" font-size="10.00">Order</text>
</a>
</g>
</g>
<!-- Node4&#45;&gt;Node5 -->
<g id="edge5" class="edge">
<title>Node4&#45;&gt;Node5</title>
<path fill="none" stroke="midnightblue" d="M541.41,-136.03C557.43,-140.11 575.32,-143.97 592,-146 644.08,-152.35 703.19,-151.5 748.84,-149.11"/>
<polygon fill="midnightblue" stroke="midnightblue" points="749.17,-152.59 758.96,-148.54 748.78,-145.61 749.17,-152.59"/>
</g>
<!-- Node6 -->
<g id="node6" class="node">
<title>Node6</title>
<g id="a_node6"><a xlink:href="../../d7/d99/classjavolution_1_1io_1_1Struct.html#a27767d656cd1f1d9079c309a86912237" target="_top" xlink:title=" ">
<polygon fill="white" stroke="black" points="594,-106 594,-136 721,-136 721,-106 594,-106"/>
<text text-anchor="start" x="602" y="-124" font-family="Helvetica,sans-Serif" font-size="10.00">javolution.io.Struct.set</text>
<text text-anchor="middle" x="657.5" y="-113" font-family="Helvetica,sans-Serif" font-size="10.00">ByteBuffer</text>
</a>
</g>
</g>
<!-- Node4&#45;&gt;Node6 -->
<g id="edge7" class="edge">
<title>Node4&#45;&gt;Node6</title>
<path fill="none" stroke="midnightblue" d="M556.41,-121C565.4,-121 574.68,-121 583.8,-121"/>
<polygon fill="midnightblue" stroke="midnightblue" points="583.99,-124.5 593.99,-121 583.99,-117.5 583.99,-124.5"/>
</g>
<!-- Node7 -->
<g id="node7" class="node">
<title>Node7</title>
<g id="a_node7"><a xlink:href="../../d7/d99/classjavolution_1_1io_1_1Struct.html#a6c5b77be973f699a4f0a80b360de5d42" target="_top" xlink:title=" ">
<polygon fill="white" stroke="black" points="592,-67.5 592,-86.5 723,-86.5 723,-67.5 592,-67.5"/>
<text text-anchor="middle" x="657.5" y="-74.5" font-family="Helvetica,sans-Serif" font-size="10.00">javolution.io.Struct.size</text>
</a>
</g>
</g>
<!-- Node4&#45;&gt;Node7 -->
<g id="edge9" class="edge">
<title>Node4&#45;&gt;Node7</title>
<path fill="none" stroke="midnightblue" d="M547.49,-105.98C568.07,-100.51 591.05,-94.4 610.6,-89.2"/>
<polygon fill="midnightblue" stroke="midnightblue" points="611.71,-92.53 620.47,-86.58 609.91,-85.77 611.71,-92.53"/>
</g>
<!-- Node5&#45;&gt;Node5 -->
<g id="edge6" class="edge">
<title>Node5&#45;&gt;Node5</title>
<path fill="none" stroke="midnightblue" d="M796.72,-158.16C789.66,-167.56 799.42,-176.5 826,-176.5 842.2,-176.5 852.15,-173.18 855.85,-168.46"/>
<polygon fill="midnightblue" stroke="midnightblue" points="859.33,-167.95 855.28,-158.16 852.34,-168.34 859.33,-167.95"/>
</g>
<!-- Node6&#45;&gt;Node5 -->
<g id="edge8" class="edge">
<title>Node6&#45;&gt;Node5</title>
<path fill="none" stroke="midnightblue" d="M721.45,-129.32C730.44,-130.51 739.77,-131.74 748.98,-132.96"/>
<polygon fill="midnightblue" stroke="midnightblue" points="748.54,-136.43 758.91,-134.27 749.46,-129.49 748.54,-136.43"/>
</g>
<!-- Node8&#45;&gt;Node8 -->
<g id="edge11" class="edge">
<title>Node8&#45;&gt;Node8</title>
<path fill="none" stroke="midnightblue" d="M263.54,-69.16C255.47,-78.56 266.62,-87.5 297,-87.5 315.51,-87.5 326.88,-84.18 331.12,-79.46"/>
<polygon fill="midnightblue" stroke="midnightblue" points="334.59,-78.92 330.46,-69.16 327.6,-79.36 334.59,-78.92"/>
</g>
</g>
</svg>
        <g id="navigator" transform="translate(0 0)" fill="#404254">
                <rect fill="#f2f5e9" fill-opacity="0.5" stroke="#606060" stroke-width=".5" x="0" y="0" width="60" height="60"/>
                <use id="zoomplus" xlink:href="#zoomPlus" x="17" y="9" onmousedown="handleZoom(evt,'in')"/>
                <use id="zoomminus" xlink:href="#zoomMin" x="42" y="9" onmousedown="handleZoom(evt,'out')"/>
                <use id="reset" xlink:href="#resetDef" x="30" y="36" onmousedown="handleReset()"/>
                <g id="arrowUp" xlink:href="#dirArrow" transform="translate(30 24)" onmousedown="handlePan(0,-1)">
                  <use xlink:href="#rim" fill="#404040">
                        <set attributeName="fill" to="#808080" begin="arrowUp.mouseover" end="arrowUp.mouseout"/>
                  </use>
                  <path fill="none" stroke="white" stroke-width="1.5" d="M0,-3.0v7 M-2.5,-0.5L0,-3.0L2.5,-0.5"/>
                </g>
                <g id="arrowRight" xlink:href="#dirArrow" transform="rotate(90) translate(36 -43)" onmousedown="handlePan(1,0)">
                  <use xlink:href="#rim" fill="#404040">
                        <set attributeName="fill" to="#808080" begin="arrowRight.mouseover" end="arrowRight.mouseout"/>
                  </use>
                  <path fill="none" stroke="white" stroke-width="1.5" d="M0,-3.0v7 M-2.5,-0.5L0,-3.0L2.5,-0.5"/>
                </g>
                <g id="arrowDown" xlink:href="#dirArrow" transform="rotate(180) translate(-30 -48)" onmousedown="handlePan(0,1)">
                  <use xlink:href="#rim" fill="#404040">
                        <set attributeName="fill" to="#808080" begin="arrowDown.mouseover" end="arrowDown.mouseout"/>
                  </use>
                  <path fill="none" stroke="white" stroke-width="1.5" d="M0,-3.0v7 M-2.5,-0.5L0,-3.0L2.5,-0.5"/>
                </g>
                <g id="arrowLeft" xlink:href="#dirArrow" transform="rotate(270) translate(-36 17)" onmousedown="handlePan(-1,0)">
                  <use xlink:href="#rim" fill="#404040">
                        <set attributeName="fill" to="#808080" begin="arrowLeft.mouseover" end="arrowLeft.mouseout"/>
                  </use>
                  <path fill="none" stroke="white" stroke-width="1.5" d="M0,-3.0v7 M-2.5,-0.5L0,-3.0L2.5,-0.5"/>
                </g>
        </g>
        <svg viewBox="0 0 15 15" width="100%" height="30px" preserveAspectRatio="xMaxYMin meet">
         <g id="arrow_out" transform="scale(0.3 0.3)">
          <a xlink:href="classjavolution_1_1io_1_1Struct_1_1Signed8_a0b2e361ec4cf28a3e3161f106d82dc81_cgraph_org.svg" target="_base">
           <rect id="button" ry="5" rx="5" y="6" x="6" height="38" width="38"
                fill="#f2f5e9" fill-opacity="0.5" stroke="#606060" stroke-width="1.0"/>
           <path id="arrow"
             d="M 11.500037,31.436501 C 11.940474,20.09759 22.043105,11.32322 32.158766,21.979434 L 37.068811,17.246167 C 37.068811,17.246167 37.088388,32 37.088388,32 L 22.160133,31.978069 C 22.160133,31.978069 26.997745,27.140456 26.997745,27.140456 C 18.528582,18.264221 13.291696,25.230495 11.500037,31.436501 z"
             style="fill:#404040;"/>
          </a>
         </g>
        </svg>
</svg>
