<?xml version="1.0" encoding="UTF-8" standalone="no"?>
<!DOCTYPE svg PUBLIC "-//W3C//DTD SVG 1.1//EN"
 "http://www.w3.org/Graphics/SVG/1.1/DTD/svg11.dtd">
<!-- Generated by graphviz version 2.43.0 (0)
 -->
<!-- Title: javolution.util.internal.table.sorted.SortedTableView.addIfAbsent Pages: 1 -->
<svg width="793pt" height="186pt"
 viewBox="0.00 0.00 793.00 186.00" xmlns="http://www.w3.org/2000/svg" xmlns:xlink="http://www.w3.org/1999/xlink">
<g id="graph0" class="graph" transform="scale(1 1) rotate(0) translate(4 182)">
<title>javolution.util.internal.table.sorted.SortedTableView.addIfAbsent</title>
<polygon fill="white" stroke="transparent" points="-4,4 -4,-182 789,-182 789,4 -4,4"/>
<!-- Node1 -->
<g id="node1" class="node">
<title>Node1</title>
<g id="a_node1"><a xlink:title=" ">
<polygon fill="#bfbfbf" stroke="black" points="0,-98.5 0,-128.5 189,-128.5 189,-98.5 0,-98.5"/>
<text text-anchor="start" x="8" y="-116.5" font-family="Helvetica,sans-Serif" font-size="10.00">javolution.util.internal.table.sorted.</text>
<text text-anchor="middle" x="94.5" y="-105.5" font-family="Helvetica,sans-Serif" font-size="10.00">SortedTableView.addIfAbsent</text>
</a>
</g>
</g>
<!-- Node2 -->
<g id="node2" class="node">
<title>Node2</title>
<g id="a_node2"><a xlink:href="../../d8/d86/classjavolution_1_1util_1_1internal_1_1table_1_1TableView.html#a1b3e5e7fba77e785c230712c013a6aa3" target="_top" xlink:title=" ">
<polygon fill="white" stroke="black" points="225,-147.5 225,-177.5 380,-177.5 380,-147.5 225,-147.5"/>
<text text-anchor="start" x="233" y="-165.5" font-family="Helvetica,sans-Serif" font-size="10.00">javolution.util.internal.table.</text>
<text text-anchor="middle" x="302.5" y="-154.5" font-family="Helvetica,sans-Serif" font-size="10.00">TableView.add</text>
</a>
</g>
</g>
<!-- Node1&#45;&gt;Node2 -->
<g id="edge1" class="edge">
<title>Node1&#45;&gt;Node2</title>
<path fill="none" stroke="midnightblue" d="M158.71,-128.53C180.75,-133.78 205.68,-139.71 228.46,-145.13"/>
<polygon fill="midnightblue" stroke="midnightblue" points="227.87,-148.58 238.41,-147.49 229.49,-141.77 227.87,-148.58"/>
</g>
<!-- Node3 -->
<g id="node3" class="node">
<title>Node3</title>
<g id="a_node3"><a xlink:href="../../d8/d86/classjavolution_1_1util_1_1internal_1_1table_1_1TableView.html#ae102e59b342f440ad005f71370766a9b" target="_top" xlink:title=" ">
<polygon fill="white" stroke="black" points="225,-98.5 225,-128.5 380,-128.5 380,-98.5 225,-98.5"/>
<text text-anchor="start" x="233" y="-116.5" font-family="Helvetica,sans-Serif" font-size="10.00">javolution.util.internal.table.</text>
<text text-anchor="middle" x="302.5" y="-105.5" font-family="Helvetica,sans-Serif" font-size="10.00">TableView.contains</text>
</a>
</g>
</g>
<!-- Node1&#45;&gt;Node3 -->
<g id="edge2" class="edge">
<title>Node1&#45;&gt;Node3</title>
<path fill="none" stroke="midnightblue" d="M189.16,-113.5C197.62,-113.5 206.17,-113.5 214.57,-113.5"/>
<polygon fill="midnightblue" stroke="midnightblue" points="214.73,-117 224.73,-113.5 214.73,-110 214.73,-117"/>
</g>
<!-- Node8 -->
<g id="node8" class="node">
<title>Node8</title>
<g id="a_node8"><a xlink:href="../../d8/d86/classjavolution_1_1util_1_1internal_1_1table_1_1TableView.html#a69e7425b9e4c16f94a60ffdce48ef118" target="_top" xlink:title=" ">
<polygon fill="white" stroke="black" points="225,-49.5 225,-79.5 380,-79.5 380,-49.5 225,-49.5"/>
<text text-anchor="start" x="233" y="-67.5" font-family="Helvetica,sans-Serif" font-size="10.00">javolution.util.internal.table.</text>
<text text-anchor="middle" x="302.5" y="-56.5" font-family="Helvetica,sans-Serif" font-size="10.00">TableView.element</text>
</a>
</g>
</g>
<!-- Node1&#45;&gt;Node8 -->
<g id="edge7" class="edge">
<title>Node1&#45;&gt;Node8</title>
<path fill="none" stroke="midnightblue" d="M158.71,-98.47C180.75,-93.22 205.68,-87.29 228.46,-81.87"/>
<polygon fill="midnightblue" stroke="midnightblue" points="229.49,-85.23 238.41,-79.51 227.87,-78.42 229.49,-85.23"/>
</g>
<!-- Node4 -->
<g id="node4" class="node">
<title>Node4</title>
<g id="a_node4"><a xlink:href="../../d8/d86/classjavolution_1_1util_1_1internal_1_1table_1_1TableView.html#a29f873d160ba31918e4b8828eb860099" target="_top" xlink:title=" ">
<polygon fill="white" stroke="black" points="416,-98.5 416,-128.5 571,-128.5 571,-98.5 416,-98.5"/>
<text text-anchor="start" x="424" y="-116.5" font-family="Helvetica,sans-Serif" font-size="10.00">javolution.util.internal.table.</text>
<text text-anchor="middle" x="493.5" y="-105.5" font-family="Helvetica,sans-Serif" font-size="10.00">TableView.indexOf</text>
</a>
</g>
</g>
<!-- Node3&#45;&gt;Node4 -->
<g id="edge3" class="edge">
<title>Node3&#45;&gt;Node4</title>
<path fill="none" stroke="midnightblue" d="M380.1,-113.5C388.56,-113.5 397.22,-113.5 405.79,-113.5"/>
<polygon fill="midnightblue" stroke="midnightblue" points="405.79,-117 415.79,-113.5 405.79,-110 405.79,-117"/>
</g>
<!-- Node5 -->
<g id="node5" class="node">
<title>Node5</title>
<g id="a_node5"><a xlink:href="../../de/d72/interfacejavolution_1_1util_1_1function_1_1Equality.html#a70831c35ee00dc470c9cadc2b5f36869" target="_top" xlink:title=" ">
<polygon fill="white" stroke="black" points="631,-147.5 631,-177.5 761,-177.5 761,-147.5 631,-147.5"/>
<text text-anchor="start" x="639" y="-165.5" font-family="Helvetica,sans-Serif" font-size="10.00">javolution.util.function.</text>
<text text-anchor="middle" x="696" y="-154.5" font-family="Helvetica,sans-Serif" font-size="10.00">Equality.areEqual</text>
</a>
</g>
</g>
<!-- Node4&#45;&gt;Node5 -->
<g id="edge4" class="edge">
<title>Node4&#45;&gt;Node5</title>
<path fill="none" stroke="midnightblue" d="M556.02,-128.53C577.38,-133.76 601.52,-139.65 623.61,-145.05"/>
<polygon fill="midnightblue" stroke="midnightblue" points="623.05,-148.52 633.6,-147.49 624.71,-141.72 623.05,-148.52"/>
</g>
<!-- Node6 -->
<g id="node6" class="node">
<title>Node6</title>
<g id="a_node6"><a xlink:href="../../d1/d40/classjavolution_1_1util_1_1internal_1_1collection_1_1CollectionView.html#aa5eacb4180ca8fd90e6b2b4a0cdb833d" target="_top" xlink:title=" ">
<polygon fill="white" stroke="black" points="607,-98.5 607,-128.5 785,-128.5 785,-98.5 607,-98.5"/>
<text text-anchor="start" x="615" y="-116.5" font-family="Helvetica,sans-Serif" font-size="10.00">javolution.util.internal.collection.</text>
<text text-anchor="middle" x="696" y="-105.5" font-family="Helvetica,sans-Serif" font-size="10.00">CollectionView.comparator</text>
</a>
</g>
</g>
<!-- Node4&#45;&gt;Node6 -->
<g id="edge5" class="edge">
<title>Node4&#45;&gt;Node6</title>
<path fill="none" stroke="midnightblue" d="M571.16,-113.5C579.58,-113.5 588.24,-113.5 596.88,-113.5"/>
<polygon fill="midnightblue" stroke="midnightblue" points="596.99,-117 606.99,-113.5 596.99,-110 596.99,-117"/>
</g>
<!-- Node7 -->
<g id="node7" class="node">
<title>Node7</title>
<g id="a_node7"><a xlink:href="../../d8/d86/classjavolution_1_1util_1_1internal_1_1table_1_1TableView.html#a0879bdae86718d45952dc02671673e57" target="_top" xlink:title=" ">
<polygon fill="white" stroke="black" points="618.5,-49.5 618.5,-79.5 773.5,-79.5 773.5,-49.5 618.5,-49.5"/>
<text text-anchor="start" x="626.5" y="-67.5" font-family="Helvetica,sans-Serif" font-size="10.00">javolution.util.internal.table.</text>
<text text-anchor="middle" x="696" y="-56.5" font-family="Helvetica,sans-Serif" font-size="10.00">TableView.size</text>
</a>
</g>
</g>
<!-- Node4&#45;&gt;Node7 -->
<g id="edge6" class="edge">
<title>Node4&#45;&gt;Node7</title>
<path fill="none" stroke="midnightblue" d="M556.02,-98.47C577.38,-93.24 601.52,-87.35 623.61,-81.95"/>
<polygon fill="midnightblue" stroke="midnightblue" points="624.71,-85.28 633.6,-79.51 623.05,-78.48 624.71,-85.28"/>
</g>
<!-- Node9 -->
<g id="node9" class="node">
<title>Node9</title>
<g id="a_node9"><a xlink:href="../../d8/d86/classjavolution_1_1util_1_1internal_1_1table_1_1TableView.html#a771eeb8439c2be68d63ad450e50eeca4" target="_top" xlink:title=" ">
<polygon fill="white" stroke="black" points="416,-49.5 416,-79.5 571,-79.5 571,-49.5 416,-49.5"/>
<text text-anchor="start" x="424" y="-67.5" font-family="Helvetica,sans-Serif" font-size="10.00">javolution.util.internal.table.</text>
<text text-anchor="middle" x="493.5" y="-56.5" font-family="Helvetica,sans-Serif" font-size="10.00">TableView.getFirst</text>
</a>
</g>
</g>
<!-- Node8&#45;&gt;Node9 -->
<g id="edge8" class="edge">
<title>Node8&#45;&gt;Node9</title>
<path fill="none" stroke="midnightblue" d="M380.1,-64.5C388.56,-64.5 397.22,-64.5 405.79,-64.5"/>
<polygon fill="midnightblue" stroke="midnightblue" points="405.79,-68 415.79,-64.5 405.79,-61 405.79,-68"/>
</g>
<!-- Node9&#45;&gt;Node7 -->
<g id="edge10" class="edge">
<title>Node9&#45;&gt;Node7</title>
<path fill="none" stroke="midnightblue" d="M571.16,-64.5C583.25,-64.5 595.83,-64.5 608.13,-64.5"/>
<polygon fill="midnightblue" stroke="midnightblue" points="608.38,-68 618.38,-64.5 608.38,-61 608.38,-68"/>
</g>
<!-- Node10 -->
<g id="node10" class="node">
<title>Node10</title>
<g id="a_node10"><a xlink:href="../../d8/d86/classjavolution_1_1util_1_1internal_1_1table_1_1TableView.html#a40823a9bd3a29acd5896306e62a335d0" target="_top" xlink:title=" ">
<polygon fill="white" stroke="black" points="618.5,-0.5 618.5,-30.5 773.5,-30.5 773.5,-0.5 618.5,-0.5"/>
<text text-anchor="start" x="626.5" y="-18.5" font-family="Helvetica,sans-Serif" font-size="10.00">javolution.util.internal.table.</text>
<text text-anchor="middle" x="696" y="-7.5" font-family="Helvetica,sans-Serif" font-size="10.00">TableView.emptyError</text>
</a>
</g>
</g>
<!-- Node9&#45;&gt;Node10 -->
<g id="edge9" class="edge">
<title>Node9&#45;&gt;Node10</title>
<path fill="none" stroke="midnightblue" d="M556.02,-49.47C577.38,-44.24 601.52,-38.35 623.61,-32.95"/>
<polygon fill="midnightblue" stroke="midnightblue" points="624.71,-36.28 633.6,-30.51 623.05,-29.48 624.71,-36.28"/>
</g>
</g>
</svg>
