<?xml version="1.0" encoding="UTF-8" standalone="no"?>
<!DOCTYPE svg PUBLIC "-//W3C//DTD SVG 1.1//EN"
 "http://www.w3.org/Graphics/SVG/1.1/DTD/svg11.dtd">
<!-- Generated by graphviz version 2.43.0 (0)
 -->
<!-- Title: javolution.xml.XMLObjectWriter.reset Pages: 1 -->
<svg width="530pt" height="61pt"
 viewBox="0.00 0.00 530.00 61.00" xmlns="http://www.w3.org/2000/svg" xmlns:xlink="http://www.w3.org/1999/xlink">
<g id="graph0" class="graph" transform="scale(1 1) rotate(0) translate(4 57)">
<title>javolution.xml.XMLObjectWriter.reset</title>
<polygon fill="white" stroke="transparent" points="-4,4 -4,-57 526,-57 526,4 -4,4"/>
<!-- Node1 -->
<g id="node1" class="node">
<title>Node1</title>
<g id="a_node1"><a xlink:title=" ">
<polygon fill="#bfbfbf" stroke="black" points="379,-0.5 379,-30.5 522,-30.5 522,-0.5 379,-0.5"/>
<text text-anchor="start" x="387" y="-18.5" font-family="Helvetica,sans-Serif" font-size="10.00">javolution.xml.XMLObject</text>
<text text-anchor="middle" x="450.5" y="-7.5" font-family="Helvetica,sans-Serif" font-size="10.00">Writer.reset</text>
</a>
</g>
</g>
<!-- Node2 -->
<g id="node2" class="node">
<title>Node2</title>
<g id="a_node2"><a xlink:href="../../d1/dfa/classjavolution_1_1xml_1_1XMLObjectWriter.html#a9087308ec56f139680f9e81f4d2628e4" target="_top" xlink:title=" ">
<polygon fill="white" stroke="black" points="200,-22.5 200,-52.5 343,-52.5 343,-22.5 200,-22.5"/>
<text text-anchor="start" x="208" y="-40.5" font-family="Helvetica,sans-Serif" font-size="10.00">javolution.xml.XMLObject</text>
<text text-anchor="middle" x="271.5" y="-29.5" font-family="Helvetica,sans-Serif" font-size="10.00">Writer.close</text>
</a>
</g>
</g>
<!-- Node1&#45;&gt;Node2 -->
<g id="edge1" class="edge">
<title>Node1&#45;&gt;Node2</title>
<path fill="none" stroke="midnightblue" d="M368.79,-25.53C360.22,-26.6 351.55,-27.67 343.11,-28.72"/>
<polygon fill="midnightblue" stroke="midnightblue" points="369.29,-29 378.78,-24.29 368.43,-22.05 369.29,-29"/>
</g>
<!-- Node3 -->
<g id="node3" class="node">
<title>Node3</title>
<g id="a_node3"><a xlink:href="../../d4/d1c/classjavolution_1_1xml_1_1ws_1_1WebServiceClient.html#a88666595aac04e971c68330c1aea9646" target="_top" xlink:title=" ">
<polygon fill="white" stroke="black" points="0,-0.5 0,-30.5 164,-30.5 164,-0.5 0,-0.5"/>
<text text-anchor="start" x="8" y="-18.5" font-family="Helvetica,sans-Serif" font-size="10.00">javolution.xml.ws.WebService</text>
<text text-anchor="middle" x="82" y="-7.5" font-family="Helvetica,sans-Serif" font-size="10.00">Client.invoke</text>
</a>
</g>
</g>
<!-- Node1&#45;&gt;Node3 -->
<g id="edge3" class="edge">
<title>Node1&#45;&gt;Node3</title>
<path fill="none" stroke="midnightblue" d="M368.63,-13.82C359.98,-13.69 351.31,-13.58 343,-13.5 279.45,-12.9 263.55,-12.96 200,-13.5 188.42,-13.6 176.2,-13.75 164.19,-13.93"/>
<polygon fill="midnightblue" stroke="midnightblue" points="368.7,-17.32 378.75,-13.99 368.81,-10.32 368.7,-17.32"/>
</g>
<!-- Node2&#45;&gt;Node3 -->
<g id="edge2" class="edge">
<title>Node2&#45;&gt;Node3</title>
<path fill="none" stroke="midnightblue" d="M189.69,-28.02C181.26,-27.03 172.69,-26.02 164.26,-25.03"/>
<polygon fill="midnightblue" stroke="midnightblue" points="189.54,-31.52 199.88,-29.21 190.36,-24.57 189.54,-31.52"/>
</g>
</g>
</svg>
