<?xml version="1.0" encoding="UTF-8" standalone="no"?>
<!DOCTYPE svg PUBLIC "-//W3C//DTD SVG 1.1//EN"
 "http://www.w3.org/Graphics/SVG/1.1/DTD/svg11.dtd">
<!-- Generated by graphviz version 2.43.0 (0)
 -->
<!-- Title: javolution.util.function.Equality.compare Pages: 1 -->
<svg width="617pt" height="557pt"
 viewBox="0.00 0.00 617.00 557.00" xmlns="http://www.w3.org/2000/svg" xmlns:xlink="http://www.w3.org/1999/xlink">
<g id="graph0" class="graph" transform="scale(1 1) rotate(0) translate(4 553)">
<title>javolution.util.function.Equality.compare</title>
<polygon fill="white" stroke="transparent" points="-4,4 -4,-553 613,-553 613,4 -4,4"/>
<!-- Node1 -->
<g id="node1" class="node">
<title>Node1</title>
<g id="a_node1"><a xlink:title=" ">
<polygon fill="#bfbfbf" stroke="black" points="479,-269.5 479,-299.5 609,-299.5 609,-269.5 479,-269.5"/>
<text text-anchor="start" x="487" y="-287.5" font-family="Helvetica,sans-Serif" font-size="10.00">javolution.util.function.</text>
<text text-anchor="middle" x="544" y="-276.5" font-family="Helvetica,sans-Serif" font-size="10.00">Equality.compare</text>
</a>
</g>
</g>
<!-- Node2 -->
<g id="node2" class="node">
<title>Node2</title>
<g id="a_node2"><a xlink:href="../../d6/de2/classjavolution_1_1util_1_1internal_1_1set_1_1sorted_1_1SubSortedSetImpl.html#a5cfb7c219d64f5a334b8c28615f52978" target="_top" xlink:title=" ">
<polygon fill="white" stroke="black" points="247,-518.5 247,-548.5 426,-548.5 426,-518.5 247,-518.5"/>
<text text-anchor="start" x="255" y="-536.5" font-family="Helvetica,sans-Serif" font-size="10.00">javolution.util.internal.set.sorted.</text>
<text text-anchor="middle" x="336.5" y="-525.5" font-family="Helvetica,sans-Serif" font-size="10.00">SubSortedSetImpl.add</text>
</a>
</g>
</g>
<!-- Node1&#45;&gt;Node2 -->
<g id="edge1" class="edge">
<title>Node1&#45;&gt;Node2</title>
<path fill="none" stroke="midnightblue" d="M539.33,-309.51C531.08,-356.35 506.56,-457.24 443,-509.5 437.85,-513.73 432.1,-517.26 426.01,-520.18"/>
<polygon fill="midnightblue" stroke="midnightblue" points="542.79,-310.04 540.97,-299.6 535.88,-308.89 542.79,-310.04"/>
</g>
<!-- Node3 -->
<g id="node3" class="node">
<title>Node3</title>
<g id="a_node3"><a xlink:href="../../d1/db0/classjavolution_1_1util_1_1internal_1_1map_1_1MapView_1_1EntryComparator.html#aae5b4c8bf5b7d407305805fb5c6c1b47" target="_top" xlink:title=" ">
<polygon fill="white" stroke="black" points="240.5,-469.5 240.5,-499.5 432.5,-499.5 432.5,-469.5 240.5,-469.5"/>
<text text-anchor="start" x="248.5" y="-487.5" font-family="Helvetica,sans-Serif" font-size="10.00">javolution.util.internal.map.</text>
<text text-anchor="middle" x="336.5" y="-476.5" font-family="Helvetica,sans-Serif" font-size="10.00">MapView.EntryComparator.compare</text>
</a>
</g>
</g>
<!-- Node1&#45;&gt;Node3 -->
<g id="edge2" class="edge">
<title>Node1&#45;&gt;Node3</title>
<path fill="none" stroke="midnightblue" d="M535.81,-309.55C523.43,-347.99 494.36,-421.09 443,-459.5 437.8,-463.39 432.08,-466.68 426.09,-469.48"/>
<polygon fill="midnightblue" stroke="midnightblue" points="539.25,-310.27 538.86,-299.68 532.56,-308.2 539.25,-310.27"/>
</g>
<!-- Node4 -->
<g id="node4" class="node">
<title>Node4</title>
<g id="a_node4"><a xlink:href="../../d0/d36/classjavolution_1_1text_1_1CharArray.html#a42193e229b6ce8f3f1ceaf8f2a2d3d0b" target="_top" xlink:title=" ">
<polygon fill="white" stroke="black" points="239.5,-431 239.5,-450 433.5,-450 433.5,-431 239.5,-431"/>
<text text-anchor="middle" x="336.5" y="-438" font-family="Helvetica,sans-Serif" font-size="10.00">javolution.text.CharArray.compareTo</text>
</a>
</g>
</g>
<!-- Node1&#45;&gt;Node4 -->
<g id="edge3" class="edge">
<title>Node1&#45;&gt;Node4</title>
<path fill="none" stroke="midnightblue" d="M532.2,-309.21C517.07,-340.7 486.47,-394.29 443,-421.5 436.85,-425.35 430.12,-428.47 423.14,-430.99"/>
<polygon fill="midnightblue" stroke="midnightblue" points="535.52,-310.37 536.56,-299.83 529.17,-307.42 535.52,-310.37"/>
</g>
<!-- Node5 -->
<g id="node5" class="node">
<title>Node5</title>
<g id="a_node5"><a xlink:href="../../dc/d6d/classjavolution_1_1text_1_1Text.html#abff2e687aa9ba892b3590c6289f0ca22" target="_top" xlink:title=" ">
<polygon fill="white" stroke="black" points="253,-393 253,-412 420,-412 420,-393 253,-393"/>
<text text-anchor="middle" x="336.5" y="-400" font-family="Helvetica,sans-Serif" font-size="10.00">javolution.text.Text.compareTo</text>
</a>
</g>
</g>
<!-- Node1&#45;&gt;Node5 -->
<g id="edge4" class="edge">
<title>Node1&#45;&gt;Node5</title>
<path fill="none" stroke="midnightblue" d="M526.16,-308.01C508.26,-331.1 477.79,-365.42 443,-383.5 435.57,-387.36 427.49,-390.45 419.22,-392.93"/>
<polygon fill="midnightblue" stroke="midnightblue" points="529.15,-309.85 532.38,-299.76 523.56,-305.63 529.15,-309.85"/>
</g>
<!-- Node6 -->
<g id="node6" class="node">
<title>Node6</title>
<g id="a_node6"><a xlink:href="../../d6/de2/classjavolution_1_1util_1_1internal_1_1set_1_1sorted_1_1SubSortedSetImpl.html#a0f2862035def53b2b10d41ea7b928043" target="_top" xlink:title=" ">
<polygon fill="white" stroke="black" points="247,-343.5 247,-373.5 426,-373.5 426,-343.5 247,-343.5"/>
<text text-anchor="start" x="255" y="-361.5" font-family="Helvetica,sans-Serif" font-size="10.00">javolution.util.internal.set.sorted.</text>
<text text-anchor="middle" x="336.5" y="-350.5" font-family="Helvetica,sans-Serif" font-size="10.00">SubSortedSetImpl.contains</text>
</a>
</g>
</g>
<!-- Node1&#45;&gt;Node6 -->
<g id="edge5" class="edge">
<title>Node1&#45;&gt;Node6</title>
<path fill="none" stroke="midnightblue" d="M508.22,-304.48C489.4,-314.62 465.46,-326.46 443,-334.5 433.63,-337.85 423.61,-340.85 413.62,-343.49"/>
<polygon fill="midnightblue" stroke="midnightblue" points="509.93,-307.53 517.02,-299.66 506.57,-301.39 509.93,-307.53"/>
</g>
<!-- Node7 -->
<g id="node7" class="node">
<title>Node7</title>
<g id="a_node7"><a xlink:href="../../d3/d09/classjavolution_1_1util_1_1internal_1_1map_1_1sorted_1_1SubSortedMapImpl.html#a902e129d440315f773a8b6c97b4bb244" target="_top" xlink:title=" ">
<polygon fill="white" stroke="black" points="243.5,-294.5 243.5,-324.5 429.5,-324.5 429.5,-294.5 243.5,-294.5"/>
<text text-anchor="start" x="251.5" y="-312.5" font-family="Helvetica,sans-Serif" font-size="10.00">javolution.util.internal.map.sorted.</text>
<text text-anchor="middle" x="336.5" y="-301.5" font-family="Helvetica,sans-Serif" font-size="10.00">SubSortedMapImpl.containsKey</text>
</a>
</g>
</g>
<!-- Node1&#45;&gt;Node7 -->
<g id="edge6" class="edge">
<title>Node1&#45;&gt;Node7</title>
<path fill="none" stroke="midnightblue" d="M468.82,-293.52C456.16,-295.07 442.86,-296.68 429.8,-298.27"/>
<polygon fill="midnightblue" stroke="midnightblue" points="469.32,-296.99 478.82,-292.31 468.47,-290.04 469.32,-296.99"/>
</g>
<!-- Node8 -->
<g id="node8" class="node">
<title>Node8</title>
<g id="a_node8"><a xlink:href="../../d3/d09/classjavolution_1_1util_1_1internal_1_1map_1_1sorted_1_1SubSortedMapImpl.html#a2a54d63cf0b0b427edea355c69ee5977" target="_top" xlink:title=" ">
<polygon fill="white" stroke="black" points="243.5,-245.5 243.5,-275.5 429.5,-275.5 429.5,-245.5 243.5,-245.5"/>
<text text-anchor="start" x="251.5" y="-263.5" font-family="Helvetica,sans-Serif" font-size="10.00">javolution.util.internal.map.sorted.</text>
<text text-anchor="middle" x="336.5" y="-252.5" font-family="Helvetica,sans-Serif" font-size="10.00">SubSortedMapImpl.get</text>
</a>
</g>
</g>
<!-- Node1&#45;&gt;Node8 -->
<g id="edge7" class="edge">
<title>Node1&#45;&gt;Node8</title>
<path fill="none" stroke="midnightblue" d="M468.82,-275.84C456.16,-274.36 442.86,-272.81 429.8,-271.28"/>
<polygon fill="midnightblue" stroke="midnightblue" points="468.49,-279.32 478.82,-277 469.3,-272.37 468.49,-279.32"/>
</g>
<!-- Node9 -->
<g id="node9" class="node">
<title>Node9</title>
<g id="a_node9"><a xlink:href="../../d9/d5c/classjavolution_1_1util_1_1internal_1_1set_1_1sorted_1_1SubSortedSetImpl_1_1IteratorImpl.html#a466cf48c1ba0a43204b692dbb373d516" target="_top" xlink:title=" ">
<polygon fill="white" stroke="black" points="232.5,-196.5 232.5,-226.5 440.5,-226.5 440.5,-196.5 232.5,-196.5"/>
<text text-anchor="start" x="240.5" y="-214.5" font-family="Helvetica,sans-Serif" font-size="10.00">javolution.util.internal.set.sorted.</text>
<text text-anchor="middle" x="336.5" y="-203.5" font-family="Helvetica,sans-Serif" font-size="10.00">SubSortedSetImpl.IteratorImpl.hasNext</text>
</a>
</g>
</g>
<!-- Node1&#45;&gt;Node9 -->
<g id="edge8" class="edge">
<title>Node1&#45;&gt;Node9</title>
<path fill="none" stroke="midnightblue" d="M506.65,-264.72C488.03,-255.19 464.74,-244.19 443,-236.5 432.53,-232.8 421.28,-229.47 410.17,-226.55"/>
<polygon fill="midnightblue" stroke="midnightblue" points="505.18,-267.9 515.67,-269.4 508.41,-261.69 505.18,-267.9"/>
</g>
<!-- Node11 -->
<g id="node11" class="node">
<title>Node11</title>
<g id="a_node11"><a xlink:href="../../d3/de8/classjavolution_1_1util_1_1internal_1_1map_1_1sorted_1_1SubSortedMapImpl_1_1IteratorImpl.html#ad386807aaf2f37ede4ea3ee574c9cf1b" target="_top" xlink:title=" ">
<polygon fill="white" stroke="black" points="230,-147.5 230,-177.5 443,-177.5 443,-147.5 230,-147.5"/>
<text text-anchor="start" x="238" y="-165.5" font-family="Helvetica,sans-Serif" font-size="10.00">javolution.util.internal.map.sorted.</text>
<text text-anchor="middle" x="336.5" y="-154.5" font-family="Helvetica,sans-Serif" font-size="10.00">SubSortedMapImpl.IteratorImpl.hasNext</text>
</a>
</g>
</g>
<!-- Node1&#45;&gt;Node11 -->
<g id="edge10" class="edge">
<title>Node1&#45;&gt;Node11</title>
<path fill="none" stroke="midnightblue" d="M525.63,-261.19C507.52,-238.59 477.06,-205.08 443,-186.5 436.65,-183.04 429.83,-180.07 422.81,-177.53"/>
<polygon fill="midnightblue" stroke="midnightblue" points="523.03,-263.54 531.95,-269.26 528.54,-259.23 523.03,-263.54"/>
</g>
<!-- Node13 -->
<g id="node13" class="node">
<title>Node13</title>
<g id="a_node13"><a xlink:href="../../d3/d09/classjavolution_1_1util_1_1internal_1_1map_1_1sorted_1_1SubSortedMapImpl.html#a4a811cd6e5e4e11f6fb648db153794d2" target="_top" xlink:title=" ">
<polygon fill="white" stroke="black" points="243.5,-98.5 243.5,-128.5 429.5,-128.5 429.5,-98.5 243.5,-98.5"/>
<text text-anchor="start" x="251.5" y="-116.5" font-family="Helvetica,sans-Serif" font-size="10.00">javolution.util.internal.map.sorted.</text>
<text text-anchor="middle" x="336.5" y="-105.5" font-family="Helvetica,sans-Serif" font-size="10.00">SubSortedMapImpl.put</text>
</a>
</g>
</g>
<!-- Node1&#45;&gt;Node13 -->
<g id="edge12" class="edge">
<title>Node1&#45;&gt;Node13</title>
<path fill="none" stroke="midnightblue" d="M533.13,-259.78C518.56,-226.59 488.06,-168.23 443,-137.5 437.96,-134.06 432.49,-131.11 426.8,-128.57"/>
<polygon fill="midnightblue" stroke="midnightblue" points="530.01,-261.38 537.14,-269.22 536.45,-258.64 530.01,-261.38"/>
</g>
<!-- Node14 -->
<g id="node14" class="node">
<title>Node14</title>
<g id="a_node14"><a xlink:href="../../d6/de2/classjavolution_1_1util_1_1internal_1_1set_1_1sorted_1_1SubSortedSetImpl.html#a07e8d11b6667ee91df8c576352d4783f" target="_top" xlink:title=" ">
<polygon fill="white" stroke="black" points="247,-49.5 247,-79.5 426,-79.5 426,-49.5 247,-49.5"/>
<text text-anchor="start" x="255" y="-67.5" font-family="Helvetica,sans-Serif" font-size="10.00">javolution.util.internal.set.sorted.</text>
<text text-anchor="middle" x="336.5" y="-56.5" font-family="Helvetica,sans-Serif" font-size="10.00">SubSortedSetImpl.remove</text>
</a>
</g>
</g>
<!-- Node1&#45;&gt;Node14 -->
<g id="edge13" class="edge">
<title>Node1&#45;&gt;Node14</title>
<path fill="none" stroke="midnightblue" d="M537.52,-259.47C526.94,-217.33 499.57,-132.53 443,-88.5 437.81,-84.46 432.07,-81.08 426.02,-78.25"/>
<polygon fill="midnightblue" stroke="midnightblue" points="534.18,-260.54 539.91,-269.45 540.99,-258.91 534.18,-260.54"/>
</g>
<!-- Node15 -->
<g id="node15" class="node">
<title>Node15</title>
<g id="a_node15"><a xlink:href="../../d3/d09/classjavolution_1_1util_1_1internal_1_1map_1_1sorted_1_1SubSortedMapImpl.html#aa752624ec12cb3a12b6163f069a576d4" target="_top" xlink:title=" ">
<polygon fill="white" stroke="black" points="243.5,-0.5 243.5,-30.5 429.5,-30.5 429.5,-0.5 243.5,-0.5"/>
<text text-anchor="start" x="251.5" y="-18.5" font-family="Helvetica,sans-Serif" font-size="10.00">javolution.util.internal.map.sorted.</text>
<text text-anchor="middle" x="336.5" y="-7.5" font-family="Helvetica,sans-Serif" font-size="10.00">SubSortedMapImpl.remove</text>
</a>
</g>
</g>
<!-- Node1&#45;&gt;Node15 -->
<g id="edge14" class="edge">
<title>Node1&#45;&gt;Node15</title>
<path fill="none" stroke="midnightblue" d="M540.33,-259.41C533.62,-209.47 511.38,-97.5 443,-39.5 438.92,-36.04 434.44,-33.05 429.7,-30.47"/>
<polygon fill="midnightblue" stroke="midnightblue" points="536.86,-259.86 541.57,-269.35 543.8,-258.99 536.86,-259.86"/>
</g>
<!-- Node10 -->
<g id="node10" class="node">
<title>Node10</title>
<g id="a_node10"><a xlink:href="../../d9/d5c/classjavolution_1_1util_1_1internal_1_1set_1_1sorted_1_1SubSortedSetImpl_1_1IteratorImpl.html#ae7077fc1db8a1d61cbb16645ebdba9d1" target="_top" xlink:title=" ">
<polygon fill="white" stroke="black" points="2.5,-196.5 2.5,-226.5 191.5,-226.5 191.5,-196.5 2.5,-196.5"/>
<text text-anchor="start" x="10.5" y="-214.5" font-family="Helvetica,sans-Serif" font-size="10.00">javolution.util.internal.set.sorted.</text>
<text text-anchor="middle" x="97" y="-203.5" font-family="Helvetica,sans-Serif" font-size="10.00">SubSortedSetImpl.IteratorImpl.next</text>
</a>
</g>
</g>
<!-- Node9&#45;&gt;Node10 -->
<g id="edge9" class="edge">
<title>Node9&#45;&gt;Node10</title>
<path fill="none" stroke="midnightblue" d="M222.18,-211.5C211.98,-211.5 201.71,-211.5 191.7,-211.5"/>
<polygon fill="midnightblue" stroke="midnightblue" points="222.37,-215 232.37,-211.5 222.37,-208 222.37,-215"/>
</g>
<!-- Node12 -->
<g id="node12" class="node">
<title>Node12</title>
<g id="a_node12"><a xlink:href="../../d3/de8/classjavolution_1_1util_1_1internal_1_1map_1_1sorted_1_1SubSortedMapImpl_1_1IteratorImpl.html#a497097f03adbe7a44e7499389bb9d3fa" target="_top" xlink:title=" ">
<polygon fill="white" stroke="black" points="0,-147.5 0,-177.5 194,-177.5 194,-147.5 0,-147.5"/>
<text text-anchor="start" x="8" y="-165.5" font-family="Helvetica,sans-Serif" font-size="10.00">javolution.util.internal.map.sorted.</text>
<text text-anchor="middle" x="97" y="-154.5" font-family="Helvetica,sans-Serif" font-size="10.00">SubSortedMapImpl.IteratorImpl.next</text>
</a>
</g>
</g>
<!-- Node11&#45;&gt;Node12 -->
<g id="edge11" class="edge">
<title>Node11&#45;&gt;Node12</title>
<path fill="none" stroke="midnightblue" d="M219.88,-162.5C211.29,-162.5 202.67,-162.5 194.22,-162.5"/>
<polygon fill="midnightblue" stroke="midnightblue" points="219.95,-166 229.95,-162.5 219.95,-159 219.95,-166"/>
</g>
</g>
</svg>
