<?xml version="1.0" encoding="UTF-8" standalone="no"?>
<!DOCTYPE svg PUBLIC "-//W3C//DTD SVG 1.1//EN"
 "http://www.w3.org/Graphics/SVG/1.1/DTD/svg11.dtd">
<!-- Generated by graphviz version 2.43.0 (0)
 -->
<!-- Title: javolution.util.service.SortedSetService&lt; E &gt; Pages: 1 -->
<svg width="726pt" height="160pt"
 viewBox="0.00 0.00 726.00 160.00" xmlns="http://www.w3.org/2000/svg" xmlns:xlink="http://www.w3.org/1999/xlink">
<g id="graph0" class="graph" transform="scale(1 1) rotate(0) translate(4 156)">
<title>javolution.util.service.SortedSetService&lt; E &gt;</title>
<polygon fill="white" stroke="transparent" points="-4,4 -4,-156 722,-156 722,4 -4,4"/>
<!-- Node1 -->
<g id="node1" class="node">
<title>Node1</title>
<g id="a_node1"><a xlink:title=" ">
<polygon fill="#bfbfbf" stroke="black" points="590,-17 590,-47 718,-47 718,-17 590,-17"/>
<text text-anchor="start" x="598" y="-35" font-family="Helvetica,sans-Serif" font-size="10.00">javolution.util.service.</text>
<text text-anchor="middle" x="654" y="-24" font-family="Helvetica,sans-Serif" font-size="10.00">SortedSetService&lt; E &gt;</text>
</a>
</g>
</g>
<!-- Node2 -->
<g id="node2" class="node">
<title>Node2</title>
<g id="a_node2"><a xlink:href="../../d6/d3e/interfacejavolution_1_1util_1_1service_1_1SetService.html" target="_top" xlink:title=" ">
<polygon fill="white" stroke="black" points="419.5,-39 419.5,-69 547.5,-69 547.5,-39 419.5,-39"/>
<text text-anchor="start" x="427.5" y="-57" font-family="Helvetica,sans-Serif" font-size="10.00">javolution::util::service</text>
<text text-anchor="middle" x="483.5" y="-46" font-family="Helvetica,sans-Serif" font-size="10.00">::SetService&lt; E &gt;</text>
</a>
</g>
</g>
<!-- Node2&#45;&gt;Node1 -->
<g id="edge1" class="edge">
<title>Node2&#45;&gt;Node1</title>
<path fill="none" stroke="midnightblue" d="M557.88,-44.42C568.58,-43.02 579.52,-41.59 589.98,-40.23"/>
<polygon fill="midnightblue" stroke="midnightblue" points="557.19,-40.98 547.72,-45.75 558.09,-47.92 557.19,-40.98"/>
</g>
<!-- Node3 -->
<g id="node3" class="node">
<title>Node3</title>
<g id="a_node3"><a xlink:href="../../dd/d6c/interfacejavolution_1_1util_1_1service_1_1CollectionService.html" target="_top" xlink:title=" ">
<polygon fill="white" stroke="black" points="241,-61 241,-91 377,-91 377,-61 241,-61"/>
<text text-anchor="start" x="249" y="-79" font-family="Helvetica,sans-Serif" font-size="10.00">javolution::util::service</text>
<text text-anchor="middle" x="309" y="-68" font-family="Helvetica,sans-Serif" font-size="10.00">::CollectionService&lt; E &gt;</text>
</a>
</g>
</g>
<!-- Node3&#45;&gt;Node2 -->
<g id="edge2" class="edge">
<title>Node3&#45;&gt;Node2</title>
<path fill="none" stroke="midnightblue" d="M387.39,-66.13C398.12,-64.76 409.03,-63.37 419.45,-62.04"/>
<polygon fill="midnightblue" stroke="midnightblue" points="386.66,-62.69 377.19,-67.43 387.55,-69.64 386.66,-62.69"/>
</g>
<!-- Node4 -->
<g id="node4" class="node">
<title>Node4</title>
<g id="a_node4"><a xlink:title=" ">
<polygon fill="white" stroke="#bfbfbf" points="31,-132.5 31,-151.5 174,-151.5 174,-132.5 31,-132.5"/>
<text text-anchor="middle" x="102.5" y="-139.5" font-family="Helvetica,sans-Serif" font-size="10.00">java::util::Collection&lt; E &gt;</text>
</a>
</g>
</g>
<!-- Node4&#45;&gt;Node3 -->
<g id="edge3" class="edge">
<title>Node4&#45;&gt;Node3</title>
<path fill="none" stroke="midnightblue" d="M177.23,-130.39C186.66,-128.26 196.12,-125.81 205,-123 231.23,-114.7 259.58,-101.42 279.88,-91.09"/>
<polygon fill="midnightblue" stroke="midnightblue" points="176.48,-126.97 167.44,-132.48 177.95,-133.81 176.48,-126.97"/>
</g>
<!-- Node5 -->
<g id="node5" class="node">
<title>Node5</title>
<g id="a_node5"><a xlink:href="../../dd/ded/interfacejavolution_1_1util_1_1function_1_1Splittable.html" target="_top" xlink:title=" ">
<polygon fill="white" stroke="black" points="0,-83 0,-113 205,-113 205,-83 0,-83"/>
<text text-anchor="start" x="8" y="-101" font-family="Helvetica,sans-Serif" font-size="10.00">javolution::util::function</text>
<text text-anchor="middle" x="102.5" y="-90" font-family="Helvetica,sans-Serif" font-size="10.00">::Splittable&lt; CollectionService&lt; E &gt; &gt;</text>
</a>
</g>
</g>
<!-- Node5&#45;&gt;Node3 -->
<g id="edge4" class="edge">
<title>Node5&#45;&gt;Node3</title>
<path fill="none" stroke="midnightblue" d="M215.37,-85.96C224.06,-85.03 232.65,-84.11 240.89,-83.22"/>
<polygon fill="midnightblue" stroke="midnightblue" points="214.72,-82.51 205.15,-87.06 215.47,-89.47 214.72,-82.51"/>
</g>
<!-- Node6 -->
<g id="node6" class="node">
<title>Node6</title>
<g id="a_node6"><a xlink:title=" ">
<polygon fill="white" stroke="#bfbfbf" points="65.5,-44.5 65.5,-63.5 139.5,-63.5 139.5,-44.5 65.5,-44.5"/>
<text text-anchor="middle" x="102.5" y="-51.5" font-family="Helvetica,sans-Serif" font-size="10.00">Serializable</text>
</a>
</g>
</g>
<!-- Node6&#45;&gt;Node3 -->
<g id="edge5" class="edge">
<title>Node6&#45;&gt;Node3</title>
<path fill="none" stroke="midnightblue" d="M149.87,-58.99C176.76,-61.88 211.08,-65.57 240.88,-68.78"/>
<polygon fill="midnightblue" stroke="midnightblue" points="149.91,-55.47 139.59,-57.88 149.16,-62.43 149.91,-55.47"/>
</g>
<!-- Node7 -->
<g id="node7" class="node">
<title>Node7</title>
<g id="a_node7"><a xlink:href="../../d5/d48/classCloneable.html" target="_top" xlink:title=" ">
<polygon fill="white" stroke="black" points="70,-6.5 70,-25.5 135,-25.5 135,-6.5 70,-6.5"/>
<text text-anchor="middle" x="102.5" y="-13.5" font-family="Helvetica,sans-Serif" font-size="10.00">Cloneable</text>
</a>
</g>
</g>
<!-- Node7&#45;&gt;Node3 -->
<g id="edge6" class="edge">
<title>Node7&#45;&gt;Node3</title>
<path fill="none" stroke="midnightblue" d="M144.99,-21.52C163.59,-24.57 185.65,-28.98 205,-35 221.72,-40.2 224.79,-44.38 241,-51 249.16,-54.33 257.95,-57.74 266.39,-60.92"/>
<polygon fill="midnightblue" stroke="midnightblue" points="145.48,-18.06 135.06,-19.97 144.39,-24.97 145.48,-18.06"/>
</g>
<!-- Node8 -->
<g id="node8" class="node">
<title>Node8</title>
<g id="a_node8"><a xlink:title=" ">
<polygon fill="white" stroke="#bfbfbf" points="254,-22.5 254,-41.5 364,-41.5 364,-22.5 254,-22.5"/>
<text text-anchor="middle" x="309" y="-29.5" font-family="Helvetica,sans-Serif" font-size="10.00">java::util::Set&lt; E &gt;</text>
</a>
</g>
</g>
<!-- Node8&#45;&gt;Node2 -->
<g id="edge7" class="edge">
<title>Node8&#45;&gt;Node2</title>
<path fill="none" stroke="midnightblue" d="M374.14,-40.18C388.87,-42.06 404.53,-44.06 419.23,-45.93"/>
<polygon fill="midnightblue" stroke="midnightblue" points="374.47,-36.69 364.11,-38.9 373.58,-43.64 374.47,-36.69"/>
</g>
<!-- Node9 -->
<g id="node9" class="node">
<title>Node9</title>
<g id="a_node9"><a xlink:title=" ">
<polygon fill="white" stroke="#bfbfbf" points="413,-0.5 413,-19.5 554,-19.5 554,-0.5 413,-0.5"/>
<text text-anchor="middle" x="483.5" y="-7.5" font-family="Helvetica,sans-Serif" font-size="10.00">java::util::SortedSet&lt; E &gt;</text>
</a>
</g>
</g>
<!-- Node9&#45;&gt;Node1 -->
<g id="edge8" class="edge">
<title>Node9&#45;&gt;Node1</title>
<path fill="none" stroke="midnightblue" d="M564.1,-20.39C572.75,-21.52 581.45,-22.66 589.86,-23.76"/>
<polygon fill="midnightblue" stroke="midnightblue" points="564.38,-16.9 554.01,-19.08 563.47,-23.84 564.38,-16.9"/>
</g>
</g>
</svg>
