<?xml version="1.0" encoding="UTF-8" standalone="no"?>
<!DOCTYPE svg PUBLIC "-//W3C//DTD SVG 1.1//EN"
 "http://www.w3.org/Graphics/SVG/1.1/DTD/svg11.dtd">
<!-- Generated by graphviz version 2.43.0 (0)
 -->
<!-- Title: javolution.util.service.TableService&lt; E &gt; Pages: 1 -->
<!--zoomable 465 -->
<svg id="main" version="1.1" xmlns="http://www.w3.org/2000/svg" xmlns:xlink="http://www.w3.org/1999/xlink" xml:space="preserve" onload="init(evt)">
<style type="text/css"><![CDATA[
.edge:hover path { stroke: red; }
.edge:hover polygon { stroke: red; fill: red; }
]]></style>
<script type="text/javascript"><![CDATA[
var edges = document.getElementsByTagName('g');
if (edges && edges.length) {
  for (var i=0;i<edges.length;i++) {
    if (edges[i].id.substr(0,4)=='edge') {
      edges[i].setAttribute('class','edge');
    }
  }
}
]]></script>
        <defs>
                <circle id="rim" cx="0" cy="0" r="7"/>
                <circle id="rim2" cx="0" cy="0" r="3.5"/>
                <g id="zoomPlus">
                        <use xlink:href="#rim" fill="#404040">
                                <set attributeName="fill" to="#808080" begin="zoomplus.mouseover" end="zoomplus.mouseout"/>
                        </use>
                        <path d="M-4,0h8M0,-4v8" fill="none" stroke="white" stroke-width="1.5" pointer-events="none"/>
                </g>
                <g id="zoomMin">
                        <use xlink:href="#rim" fill="#404040">
                                <set attributeName="fill" to="#808080" begin="zoomminus.mouseover" end="zoomminus.mouseout"/>
                        </use>
                        <path d="M-4,0h8" fill="none" stroke="white" stroke-width="1.5" pointer-events="none"/>
                </g>
                <g id="dirArrow">
                        <path fill="none" stroke="white" stroke-width="1.5" d="M0,-3.0v7 M-2.5,-0.5L0,-3.0L2.5,-0.5"/>
                </g>
               <g id="resetDef">
                       <use xlink:href="#rim2" fill="#404040">
                               <set attributeName="fill" to="#808080" begin="reset.mouseover" end="reset.mouseout"/>
                       </use>
               </g>
        </defs>

<script type="text/javascript">
var viewWidth = 1205;
var viewHeight = 465;
var sectionId = 'dynsection-0';
</script>
<script xlink:href="../../svgpan.js"/>
<svg id="graph" class="graph">
<g id="viewport">
<title>javolution.util.service.TableService&lt; E &gt;</title>
<polygon fill="white" stroke="transparent" points="-4,4 -4,-460.5 1201,-460.5 1201,4 -4,4"/>
<!-- Node1 -->
<g id="node1" class="node">
<title>Node1</title>
<g id="a_node1"><a xlink:title=" ">
<polygon fill="#bfbfbf" stroke="black" points="413,-302.5 413,-332.5 538,-332.5 538,-302.5 413,-302.5"/>
<text text-anchor="start" x="421" y="-320.5" font-family="Helvetica,sans-Serif" font-size="10.00">javolution.util.service.</text>
<text text-anchor="middle" x="475.5" y="-309.5" font-family="Helvetica,sans-Serif" font-size="10.00">TableService&lt; E &gt;</text>
</a>
</g>
</g>
<!-- Node10 -->
<g id="node10" class="node">
<title>Node10</title>
<g id="a_node10"><a xlink:href="../../db/da7/classjavolution_1_1util_1_1internal_1_1table_1_1AtomicTableImpl.html" target="_top" xlink:title=" ">
<polygon fill="white" stroke="black" points="574,-381.5 574,-411.5 738,-411.5 738,-381.5 574,-381.5"/>
<text text-anchor="start" x="582" y="-399.5" font-family="Helvetica,sans-Serif" font-size="10.00">javolution::util::internal</text>
<text text-anchor="middle" x="656" y="-388.5" font-family="Helvetica,sans-Serif" font-size="10.00">::table::AtomicTableImpl&lt; E &gt;</text>
</a>
</g>
</g>
<!-- Node1&#45;&gt;Node10 -->
<g id="edge9" class="edge">
<title>Node1&#45;&gt;Node10</title>
<path fill="none" stroke="midnightblue" d="M512.83,-337.55C530.94,-347.19 553.34,-358.55 574,-367.5 585.38,-372.43 597.89,-377.21 609.61,-381.42"/>
<polygon fill="midnightblue" stroke="midnightblue" points="514.24,-334.34 503.78,-332.7 510.93,-340.51 514.24,-334.34"/>
</g>
<!-- Node12 -->
<g id="node12" class="node">
<title>Node12</title>
<g id="a_node12"><a xlink:href="../../d9/d51/classjavolution_1_1util_1_1internal_1_1table_1_1SharedTableImpl.html" target="_top" xlink:title=" ">
<polygon fill="white" stroke="black" points="574.5,-327.5 574.5,-357.5 737.5,-357.5 737.5,-327.5 574.5,-327.5"/>
<text text-anchor="start" x="582.5" y="-345.5" font-family="Helvetica,sans-Serif" font-size="10.00">javolution::util::internal</text>
<text text-anchor="middle" x="656" y="-334.5" font-family="Helvetica,sans-Serif" font-size="10.00">::table::SharedTableImpl&lt; E &gt;</text>
</a>
</g>
</g>
<!-- Node1&#45;&gt;Node12 -->
<g id="edge11" class="edge">
<title>Node1&#45;&gt;Node12</title>
<path fill="none" stroke="midnightblue" d="M548.19,-327.54C556.82,-328.75 565.68,-329.99 574.43,-331.22"/>
<polygon fill="midnightblue" stroke="midnightblue" points="548.57,-324.06 538.18,-326.14 547.6,-330.99 548.57,-324.06"/>
</g>
<!-- Node14 -->
<g id="node14" class="node">
<title>Node14</title>
<g id="a_node14"><a xlink:href="../../d8/d86/classjavolution_1_1util_1_1internal_1_1table_1_1TableView.html" target="_top" xlink:title=" ">
<polygon fill="white" stroke="black" points="590.5,-123.5 590.5,-153.5 721.5,-153.5 721.5,-123.5 590.5,-123.5"/>
<text text-anchor="start" x="598.5" y="-141.5" font-family="Helvetica,sans-Serif" font-size="10.00">javolution::util::internal</text>
<text text-anchor="middle" x="656" y="-130.5" font-family="Helvetica,sans-Serif" font-size="10.00">::table::TableView&lt; E &gt;</text>
</a>
</g>
</g>
<!-- Node1&#45;&gt;Node14 -->
<g id="edge13" class="edge">
<title>Node1&#45;&gt;Node14</title>
<path fill="none" stroke="midnightblue" d="M499.03,-294.91C535.95,-257.88 608.37,-185.26 639.82,-153.72"/>
<polygon fill="midnightblue" stroke="midnightblue" points="496.3,-292.69 491.72,-302.24 501.26,-297.63 496.3,-292.69"/>
</g>
<!-- Node22 -->
<g id="node22" class="node">
<title>Node22</title>
<g id="a_node22"><a xlink:href="../../d4/dcb/interfacejavolution_1_1util_1_1service_1_1SortedTableService.html" target="_top" xlink:title=" ">
<polygon fill="white" stroke="black" points="584,-278.5 584,-308.5 728,-308.5 728,-278.5 584,-278.5"/>
<text text-anchor="start" x="592" y="-296.5" font-family="Helvetica,sans-Serif" font-size="10.00">javolution::util::service</text>
<text text-anchor="middle" x="656" y="-285.5" font-family="Helvetica,sans-Serif" font-size="10.00">::SortedTableService&lt; E &gt;</text>
</a>
</g>
</g>
<!-- Node1&#45;&gt;Node22 -->
<g id="edge21" class="edge">
<title>Node1&#45;&gt;Node22</title>
<path fill="none" stroke="midnightblue" d="M548.33,-307.84C560.02,-306.27 572.13,-304.64 583.81,-303.07"/>
<polygon fill="midnightblue" stroke="midnightblue" points="547.62,-304.41 538.18,-309.21 548.56,-311.34 547.62,-304.41"/>
</g>
<!-- Node2 -->
<g id="node2" class="node">
<title>Node2</title>
<g id="a_node2"><a xlink:href="../../dd/d6c/interfacejavolution_1_1util_1_1service_1_1CollectionService.html" target="_top" xlink:title=" ">
<polygon fill="white" stroke="black" points="241,-365.5 241,-395.5 377,-395.5 377,-365.5 241,-365.5"/>
<text text-anchor="start" x="249" y="-383.5" font-family="Helvetica,sans-Serif" font-size="10.00">javolution::util::service</text>
<text text-anchor="middle" x="309" y="-372.5" font-family="Helvetica,sans-Serif" font-size="10.00">::CollectionService&lt; E &gt;</text>
</a>
</g>
</g>
<!-- Node2&#45;&gt;Node1 -->
<g id="edge1" class="edge">
<title>Node2&#45;&gt;Node1</title>
<path fill="none" stroke="midnightblue" d="M360.24,-361.84C365.9,-359.72 371.58,-357.57 377,-355.5 396.52,-348.05 418.18,-339.63 436.11,-332.61"/>
<polygon fill="midnightblue" stroke="midnightblue" points="358.92,-358.6 350.78,-365.39 361.37,-365.16 358.92,-358.6"/>
</g>
<!-- Node3 -->
<g id="node3" class="node">
<title>Node3</title>
<g id="a_node3"><a xlink:title=" ">
<polygon fill="white" stroke="#bfbfbf" points="31,-437 31,-456 174,-456 174,-437 31,-437"/>
<text text-anchor="middle" x="102.5" y="-444" font-family="Helvetica,sans-Serif" font-size="10.00">java::util::Collection&lt; E &gt;</text>
</a>
</g>
</g>
<!-- Node3&#45;&gt;Node2 -->
<g id="edge2" class="edge">
<title>Node3&#45;&gt;Node2</title>
<path fill="none" stroke="midnightblue" d="M177.23,-434.89C186.66,-432.76 196.12,-430.31 205,-427.5 231.23,-419.2 259.58,-405.92 279.88,-395.59"/>
<polygon fill="midnightblue" stroke="midnightblue" points="176.48,-431.47 167.44,-436.98 177.95,-438.31 176.48,-431.47"/>
</g>
<!-- Node4 -->
<g id="node4" class="node">
<title>Node4</title>
<g id="a_node4"><a xlink:href="../../dd/ded/interfacejavolution_1_1util_1_1function_1_1Splittable.html" target="_top" xlink:title=" ">
<polygon fill="white" stroke="black" points="0,-387.5 0,-417.5 205,-417.5 205,-387.5 0,-387.5"/>
<text text-anchor="start" x="8" y="-405.5" font-family="Helvetica,sans-Serif" font-size="10.00">javolution::util::function</text>
<text text-anchor="middle" x="102.5" y="-394.5" font-family="Helvetica,sans-Serif" font-size="10.00">::Splittable&lt; CollectionService&lt; E &gt; &gt;</text>
</a>
</g>
</g>
<!-- Node4&#45;&gt;Node2 -->
<g id="edge3" class="edge">
<title>Node4&#45;&gt;Node2</title>
<path fill="none" stroke="midnightblue" d="M215.37,-390.46C224.06,-389.53 232.65,-388.61 240.89,-387.72"/>
<polygon fill="midnightblue" stroke="midnightblue" points="214.72,-387.01 205.15,-391.56 215.47,-393.97 214.72,-387.01"/>
</g>
<!-- Node5 -->
<g id="node5" class="node">
<title>Node5</title>
<g id="a_node5"><a xlink:title=" ">
<polygon fill="white" stroke="#bfbfbf" points="65.5,-349 65.5,-368 139.5,-368 139.5,-349 65.5,-349"/>
<text text-anchor="middle" x="102.5" y="-356" font-family="Helvetica,sans-Serif" font-size="10.00">Serializable</text>
</a>
</g>
</g>
<!-- Node5&#45;&gt;Node2 -->
<g id="edge4" class="edge">
<title>Node5&#45;&gt;Node2</title>
<path fill="none" stroke="midnightblue" d="M149.87,-363.49C176.76,-366.38 211.08,-370.07 240.88,-373.28"/>
<polygon fill="midnightblue" stroke="midnightblue" points="149.91,-359.97 139.59,-362.38 149.16,-366.93 149.91,-359.97"/>
</g>
<!-- Node6 -->
<g id="node6" class="node">
<title>Node6</title>
<g id="a_node6"><a xlink:href="../../d5/d48/classCloneable.html" target="_top" xlink:title=" ">
<polygon fill="white" stroke="black" points="70,-311 70,-330 135,-330 135,-311 70,-311"/>
<text text-anchor="middle" x="102.5" y="-318" font-family="Helvetica,sans-Serif" font-size="10.00">Cloneable</text>
</a>
</g>
</g>
<!-- Node6&#45;&gt;Node2 -->
<g id="edge5" class="edge">
<title>Node6&#45;&gt;Node2</title>
<path fill="none" stroke="midnightblue" d="M144.99,-326.02C163.59,-329.07 185.65,-333.48 205,-339.5 221.72,-344.7 224.79,-348.88 241,-355.5 249.16,-358.83 257.95,-362.24 266.39,-365.42"/>
<polygon fill="midnightblue" stroke="midnightblue" points="145.48,-322.56 135.06,-324.47 144.39,-329.47 145.48,-322.56"/>
</g>
<!-- Node7 -->
<g id="node7" class="node">
<title>Node7</title>
<g id="a_node7"><a xlink:title=" ">
<polygon fill="white" stroke="#bfbfbf" points="253.5,-327 253.5,-346 364.5,-346 364.5,-327 253.5,-327"/>
<text text-anchor="middle" x="309" y="-334" font-family="Helvetica,sans-Serif" font-size="10.00">java::util::List&lt; E &gt;</text>
</a>
</g>
</g>
<!-- Node7&#45;&gt;Node1 -->
<g id="edge6" class="edge">
<title>Node7&#45;&gt;Node1</title>
<path fill="none" stroke="midnightblue" d="M375.08,-328.98C387.53,-327.55 400.53,-326.04 412.87,-324.62"/>
<polygon fill="midnightblue" stroke="midnightblue" points="374.31,-325.55 364.78,-330.17 375.11,-332.5 374.31,-325.55"/>
</g>
<!-- Node8 -->
<g id="node8" class="node">
<title>Node8</title>
<g id="a_node8"><a xlink:title=" ">
<polygon fill="white" stroke="#bfbfbf" points="246.5,-289 246.5,-308 371.5,-308 371.5,-289 246.5,-289"/>
<text text-anchor="middle" x="309" y="-296" font-family="Helvetica,sans-Serif" font-size="10.00">java::util::Deque&lt; E &gt;</text>
</a>
</g>
</g>
<!-- Node8&#45;&gt;Node1 -->
<g id="edge7" class="edge">
<title>Node8&#45;&gt;Node1</title>
<path fill="none" stroke="midnightblue" d="M381.96,-306.81C392.3,-308.01 402.87,-309.23 412.98,-310.39"/>
<polygon fill="midnightblue" stroke="midnightblue" points="382.06,-303.3 371.72,-305.63 381.25,-310.25 382.06,-303.3"/>
</g>
<!-- Node9 -->
<g id="node9" class="node">
<title>Node9</title>
<g id="a_node9"><a xlink:title=" ">
<polygon fill="white" stroke="#bfbfbf" points="263.5,-251 263.5,-270 354.5,-270 354.5,-251 263.5,-251"/>
<text text-anchor="middle" x="309" y="-258" font-family="Helvetica,sans-Serif" font-size="10.00">RandomAccess</text>
</a>
</g>
</g>
<!-- Node9&#45;&gt;Node1 -->
<g id="edge8" class="edge">
<title>Node9&#45;&gt;Node1</title>
<path fill="none" stroke="midnightblue" d="M355.66,-272.82C362.84,-274.93 370.14,-277.2 377,-279.5 397.49,-286.38 420,-295.08 438.23,-302.41"/>
<polygon fill="midnightblue" stroke="midnightblue" points="356.59,-269.44 346.01,-270.03 354.64,-276.17 356.59,-269.44"/>
</g>
<!-- Node11 -->
<g id="node11" class="node">
<title>Node11</title>
<g id="a_node11"><a xlink:href="../../d9/d49/classjavolution_1_1util_1_1internal_1_1table_1_1sorted_1_1AtomicSortedTableImpl.html" target="_top" xlink:title=" ">
<polygon fill="white" stroke="black" points="783,-382 783,-423 965,-423 965,-382 783,-382"/>
<text text-anchor="start" x="791" y="-411" font-family="Helvetica,sans-Serif" font-size="10.00">javolution::util::internal</text>
<text text-anchor="start" x="791" y="-400" font-family="Helvetica,sans-Serif" font-size="10.00">::table::sorted::AtomicSortedTable</text>
<text text-anchor="middle" x="874" y="-389" font-family="Helvetica,sans-Serif" font-size="10.00">Impl&lt; E &gt;</text>
</a>
</g>
</g>
<!-- Node10&#45;&gt;Node11 -->
<g id="edge10" class="edge">
<title>Node10&#45;&gt;Node11</title>
<path fill="none" stroke="midnightblue" d="M748.07,-399.03C759.56,-399.35 771.32,-399.68 782.8,-399.99"/>
<polygon fill="midnightblue" stroke="midnightblue" points="748.14,-395.53 738.04,-398.75 747.94,-402.53 748.14,-395.53"/>
</g>
<!-- Node13 -->
<g id="node13" class="node">
<title>Node13</title>
<g id="a_node13"><a xlink:href="../../d0/d57/classjavolution_1_1util_1_1internal_1_1table_1_1sorted_1_1SharedSortedTableImpl.html" target="_top" xlink:title=" ">
<polygon fill="white" stroke="black" points="783.5,-322 783.5,-363 964.5,-363 964.5,-322 783.5,-322"/>
<text text-anchor="start" x="791.5" y="-351" font-family="Helvetica,sans-Serif" font-size="10.00">javolution::util::internal</text>
<text text-anchor="start" x="791.5" y="-340" font-family="Helvetica,sans-Serif" font-size="10.00">::table::sorted::SharedSortedTable</text>
<text text-anchor="middle" x="874" y="-329" font-family="Helvetica,sans-Serif" font-size="10.00">Impl&lt; E &gt;</text>
</a>
</g>
</g>
<!-- Node12&#45;&gt;Node13 -->
<g id="edge12" class="edge">
<title>Node12&#45;&gt;Node13</title>
<path fill="none" stroke="midnightblue" d="M747.94,-342.5C759.64,-342.5 771.61,-342.5 783.3,-342.5"/>
<polygon fill="midnightblue" stroke="midnightblue" points="747.74,-339 737.74,-342.5 747.74,-346 747.74,-339"/>
</g>
<!-- Node15 -->
<g id="node15" class="node">
<title>Node15</title>
<g id="a_node15"><a xlink:href="../../d9/d7a/classjavolution_1_1util_1_1internal_1_1table_1_1FastTableImpl.html" target="_top" xlink:title=" ">
<polygon fill="white" stroke="black" points="799.5,-147.5 799.5,-177.5 948.5,-177.5 948.5,-147.5 799.5,-147.5"/>
<text text-anchor="start" x="807.5" y="-165.5" font-family="Helvetica,sans-Serif" font-size="10.00">javolution::util::internal</text>
<text text-anchor="middle" x="874" y="-154.5" font-family="Helvetica,sans-Serif" font-size="10.00">::table::FastTableImpl&lt; E &gt;</text>
</a>
</g>
</g>
<!-- Node14&#45;&gt;Node15 -->
<g id="edge14" class="edge">
<title>Node14&#45;&gt;Node15</title>
<path fill="none" stroke="midnightblue" d="M731.74,-146.8C753.63,-149.24 777.53,-151.89 799.35,-154.32"/>
<polygon fill="midnightblue" stroke="midnightblue" points="731.84,-143.29 721.51,-145.67 731.07,-150.25 731.84,-143.29"/>
</g>
<!-- Node17 -->
<g id="node17" class="node">
<title>Node17</title>
<g id="a_node17"><a xlink:href="../../df/d83/classjavolution_1_1util_1_1internal_1_1table_1_1ReversedTableImpl.html" target="_top" xlink:title=" ">
<polygon fill="white" stroke="black" points="786.5,-98.5 786.5,-128.5 961.5,-128.5 961.5,-98.5 786.5,-98.5"/>
<text text-anchor="start" x="794.5" y="-116.5" font-family="Helvetica,sans-Serif" font-size="10.00">javolution::util::internal</text>
<text text-anchor="middle" x="874" y="-105.5" font-family="Helvetica,sans-Serif" font-size="10.00">::table::ReversedTableImpl&lt; E &gt;</text>
</a>
</g>
</g>
<!-- Node14&#45;&gt;Node17 -->
<g id="edge16" class="edge">
<title>Node14&#45;&gt;Node17</title>
<path fill="none" stroke="midnightblue" d="M731.73,-129.85C749.37,-127.81 768.33,-125.62 786.44,-123.52"/>
<polygon fill="midnightblue" stroke="midnightblue" points="731.05,-126.41 721.51,-131.03 731.85,-133.36 731.05,-126.41"/>
</g>
<!-- Node18 -->
<g id="node18" class="node">
<title>Node18</title>
<g id="a_node18"><a xlink:href="../../dc/d36/classjavolution_1_1util_1_1internal_1_1table_1_1sorted_1_1SortedTableView.html" target="_top" xlink:title=" ">
<polygon fill="white" stroke="black" points="774,-196.5 774,-226.5 974,-226.5 974,-196.5 774,-196.5"/>
<text text-anchor="start" x="782" y="-214.5" font-family="Helvetica,sans-Serif" font-size="10.00">javolution::util::internal</text>
<text text-anchor="middle" x="874" y="-203.5" font-family="Helvetica,sans-Serif" font-size="10.00">::table::sorted::SortedTableView&lt; E &gt;</text>
</a>
</g>
</g>
<!-- Node14&#45;&gt;Node18 -->
<g id="edge17" class="edge">
<title>Node14&#45;&gt;Node18</title>
<path fill="none" stroke="midnightblue" d="M699.44,-157.61C721.41,-167.07 748.84,-178.21 774,-186.5 784.86,-190.08 796.53,-193.44 807.92,-196.47"/>
<polygon fill="midnightblue" stroke="midnightblue" points="700.63,-154.32 690.07,-153.54 697.84,-160.74 700.63,-154.32"/>
</g>
<!-- Node19 -->
<g id="node19" class="node">
<title>Node19</title>
<g id="a_node19"><a xlink:href="../../d4/d5c/classjavolution_1_1util_1_1internal_1_1table_1_1SubTableImpl.html" target="_top" xlink:title=" ">
<polygon fill="white" stroke="black" points="800.5,-0.5 800.5,-30.5 947.5,-30.5 947.5,-0.5 800.5,-0.5"/>
<text text-anchor="start" x="808.5" y="-18.5" font-family="Helvetica,sans-Serif" font-size="10.00">javolution::util::internal</text>
<text text-anchor="middle" x="874" y="-7.5" font-family="Helvetica,sans-Serif" font-size="10.00">::table::SubTableImpl&lt; E &gt;</text>
</a>
</g>
</g>
<!-- Node14&#45;&gt;Node19 -->
<g id="edge18" class="edge">
<title>Node14&#45;&gt;Node19</title>
<path fill="none" stroke="midnightblue" d="M677.59,-115.74C699.37,-93.06 735.8,-58.91 774,-39.5 782.28,-35.29 791.32,-31.8 800.48,-28.91"/>
<polygon fill="midnightblue" stroke="midnightblue" points="674.84,-113.56 670.52,-123.24 679.93,-118.37 674.84,-113.56"/>
</g>
<!-- Node20 -->
<g id="node20" class="node">
<title>Node20</title>
<g id="a_node20"><a xlink:href="../../df/d33/classjavolution_1_1util_1_1internal_1_1table_1_1UnmodifiableTableImpl.html" target="_top" xlink:title=" ">
<polygon fill="white" stroke="black" points="777,-49.5 777,-79.5 971,-79.5 971,-49.5 777,-49.5"/>
<text text-anchor="start" x="785" y="-67.5" font-family="Helvetica,sans-Serif" font-size="10.00">javolution::util::internal</text>
<text text-anchor="middle" x="874" y="-56.5" font-family="Helvetica,sans-Serif" font-size="10.00">::table::UnmodifiableTableImpl&lt; E &gt;</text>
</a>
</g>
</g>
<!-- Node14&#45;&gt;Node20 -->
<g id="edge19" class="edge">
<title>Node14&#45;&gt;Node20</title>
<path fill="none" stroke="midnightblue" d="M697.37,-119.28C719.63,-109.19 747.95,-97.16 774,-88.5 783.73,-85.27 794.14,-82.26 804.41,-79.56"/>
<polygon fill="midnightblue" stroke="midnightblue" points="695.86,-116.12 688.23,-123.47 698.78,-122.48 695.86,-116.12"/>
</g>
<!-- Node16 -->
<g id="node16" class="node">
<title>Node16</title>
<g id="a_node16"><a xlink:href="../../d4/d6c/classjavolution_1_1util_1_1internal_1_1table_1_1sorted_1_1FastSortedTableImpl.html" target="_top" xlink:title=" ">
<polygon fill="white" stroke="black" points="1020,-207 1020,-248 1187,-248 1187,-207 1020,-207"/>
<text text-anchor="start" x="1028" y="-236" font-family="Helvetica,sans-Serif" font-size="10.00">javolution::util::internal</text>
<text text-anchor="start" x="1028" y="-225" font-family="Helvetica,sans-Serif" font-size="10.00">::table::sorted::FastSortedTable</text>
<text text-anchor="middle" x="1103.5" y="-214" font-family="Helvetica,sans-Serif" font-size="10.00">Impl&lt; E &gt;</text>
</a>
</g>
</g>
<!-- Node15&#45;&gt;Node16 -->
<g id="edge15" class="edge">
<title>Node15&#45;&gt;Node16</title>
<path fill="none" stroke="midnightblue" d="M949.82,-180.04C958,-182.14 966.19,-184.31 974,-186.5 995.98,-192.66 1019.86,-200.08 1041,-206.9"/>
<polygon fill="midnightblue" stroke="midnightblue" points="950.43,-176.58 939.87,-177.53 948.71,-183.37 950.43,-176.58"/>
</g>
<!-- Node21 -->
<g id="node21" class="node">
<title>Node21</title>
<g id="a_node21"><a xlink:href="../../d3/dad/classjavolution_1_1util_1_1internal_1_1table_1_1sorted_1_1UnmodifiableSortedTableImpl.html" target="_top" xlink:title=" ">
<polygon fill="white" stroke="black" points="1010,-128 1010,-169 1197,-169 1197,-128 1010,-128"/>
<text text-anchor="start" x="1018" y="-157" font-family="Helvetica,sans-Serif" font-size="10.00">javolution::util::internal</text>
<text text-anchor="start" x="1018" y="-146" font-family="Helvetica,sans-Serif" font-size="10.00">::table::sorted::UnmodifiableSorted</text>
<text text-anchor="middle" x="1103.5" y="-135" font-family="Helvetica,sans-Serif" font-size="10.00">TableImpl&lt; E &gt;</text>
</a>
</g>
</g>
<!-- Node20&#45;&gt;Node21 -->
<g id="edge20" class="edge">
<title>Node20&#45;&gt;Node21</title>
<path fill="none" stroke="midnightblue" d="M954.51,-82.29C961.15,-84.22 967.72,-86.3 974,-88.5 1005.02,-99.38 1038.63,-115.23 1063.69,-127.91"/>
<polygon fill="midnightblue" stroke="midnightblue" points="955.32,-78.88 944.75,-79.56 953.43,-85.62 955.32,-78.88"/>
</g>
<!-- Node22&#45;&gt;Node11 -->
<g id="edge22" class="edge">
<title>Node22&#45;&gt;Node11</title>
<path fill="none" stroke="midnightblue" d="M730.07,-313.28C732.83,-314.89 735.49,-316.62 738,-318.5 761.12,-335.75 750.84,-355.31 774,-372.5 778.76,-376.03 783.94,-379.15 789.34,-381.91"/>
<polygon fill="midnightblue" stroke="midnightblue" points="731.46,-310.06 720.97,-308.57 728.24,-316.27 731.46,-310.06"/>
</g>
<!-- Node22&#45;&gt;Node13 -->
<g id="edge24" class="edge">
<title>Node22&#45;&gt;Node13</title>
<path fill="none" stroke="midnightblue" d="M733.22,-310.79C749.44,-314.47 766.71,-318.39 783.38,-322.17"/>
<polygon fill="midnightblue" stroke="midnightblue" points="733.8,-307.33 723.28,-308.53 732.25,-314.16 733.8,-307.33"/>
</g>
<!-- Node22&#45;&gt;Node16 -->
<g id="edge23" class="edge">
<title>Node22&#45;&gt;Node16</title>
<path fill="none" stroke="midnightblue" d="M738.27,-292.7C802.74,-290.79 894.86,-285.19 974,-269.5 999.32,-264.48 1026.61,-256.02 1049.5,-248"/>
<polygon fill="midnightblue" stroke="midnightblue" points="738.06,-289.21 728.16,-292.98 738.26,-296.2 738.06,-289.21"/>
</g>
<!-- Node22&#45;&gt;Node18 -->
<g id="edge25" class="edge">
<title>Node22&#45;&gt;Node18</title>
<path fill="none" stroke="midnightblue" d="M697.5,-274.01C719.8,-263.66 748.12,-251.13 774,-241.5 788.39,-236.14 804.21,-231.02 818.9,-226.57"/>
<polygon fill="midnightblue" stroke="midnightblue" points="695.92,-270.89 688.34,-278.3 698.88,-277.23 695.92,-270.89"/>
</g>
<!-- Node22&#45;&gt;Node21 -->
<g id="edge26" class="edge">
<title>Node22&#45;&gt;Node21</title>
<path fill="none" stroke="midnightblue" d="M738.1,-276.49C750.13,-274.08 762.38,-271.68 774,-269.5 862.62,-252.88 894.46,-277.97 974,-235.5 994.52,-224.54 991.48,-211.58 1010,-197.5 1024.18,-186.72 1041.06,-177.02 1056.49,-169.14"/>
<polygon fill="midnightblue" stroke="midnightblue" points="737.19,-273.11 728.08,-278.52 738.57,-279.97 737.19,-273.11"/>
</g>
</g>
</svg>
        <g id="navigator" transform="translate(0 0)" fill="#404254">
                <rect fill="#f2f5e9" fill-opacity="0.5" stroke="#606060" stroke-width=".5" x="0" y="0" width="60" height="60"/>
                <use id="zoomplus" xlink:href="#zoomPlus" x="17" y="9" onmousedown="handleZoom(evt,'in')"/>
                <use id="zoomminus" xlink:href="#zoomMin" x="42" y="9" onmousedown="handleZoom(evt,'out')"/>
                <use id="reset" xlink:href="#resetDef" x="30" y="36" onmousedown="handleReset()"/>
                <g id="arrowUp" xlink:href="#dirArrow" transform="translate(30 24)" onmousedown="handlePan(0,-1)">
                  <use xlink:href="#rim" fill="#404040">
                        <set attributeName="fill" to="#808080" begin="arrowUp.mouseover" end="arrowUp.mouseout"/>
                  </use>
                  <path fill="none" stroke="white" stroke-width="1.5" d="M0,-3.0v7 M-2.5,-0.5L0,-3.0L2.5,-0.5"/>
                </g>
                <g id="arrowRight" xlink:href="#dirArrow" transform="rotate(90) translate(36 -43)" onmousedown="handlePan(1,0)">
                  <use xlink:href="#rim" fill="#404040">
                        <set attributeName="fill" to="#808080" begin="arrowRight.mouseover" end="arrowRight.mouseout"/>
                  </use>
                  <path fill="none" stroke="white" stroke-width="1.5" d="M0,-3.0v7 M-2.5,-0.5L0,-3.0L2.5,-0.5"/>
                </g>
                <g id="arrowDown" xlink:href="#dirArrow" transform="rotate(180) translate(-30 -48)" onmousedown="handlePan(0,1)">
                  <use xlink:href="#rim" fill="#404040">
                        <set attributeName="fill" to="#808080" begin="arrowDown.mouseover" end="arrowDown.mouseout"/>
                  </use>
                  <path fill="none" stroke="white" stroke-width="1.5" d="M0,-3.0v7 M-2.5,-0.5L0,-3.0L2.5,-0.5"/>
                </g>
                <g id="arrowLeft" xlink:href="#dirArrow" transform="rotate(270) translate(-36 17)" onmousedown="handlePan(-1,0)">
                  <use xlink:href="#rim" fill="#404040">
                        <set attributeName="fill" to="#808080" begin="arrowLeft.mouseover" end="arrowLeft.mouseout"/>
                  </use>
                  <path fill="none" stroke="white" stroke-width="1.5" d="M0,-3.0v7 M-2.5,-0.5L0,-3.0L2.5,-0.5"/>
                </g>
        </g>
        <svg viewBox="0 0 15 15" width="100%" height="30px" preserveAspectRatio="xMaxYMin meet">
         <g id="arrow_out" transform="scale(0.3 0.3)">
          <a xlink:href="interfacejavolution_1_1util_1_1service_1_1TableService__inherit__graph_org.svg" target="_base">
           <rect id="button" ry="5" rx="5" y="6" x="6" height="38" width="38"
                fill="#f2f5e9" fill-opacity="0.5" stroke="#606060" stroke-width="1.0"/>
           <path id="arrow"
             d="M 11.500037,31.436501 C 11.940474,20.09759 22.043105,11.32322 32.158766,21.979434 L 37.068811,17.246167 C 37.068811,17.246167 37.088388,32 37.088388,32 L 22.160133,31.978069 C 22.160133,31.978069 26.997745,27.140456 26.997745,27.140456 C 18.528582,18.264221 13.291696,25.230495 11.500037,31.436501 z"
             style="fill:#404040;"/>
          </a>
         </g>
        </svg>
</svg>
