<?xml version="1.0" encoding="UTF-8" standalone="no"?>
<!DOCTYPE svg PUBLIC "-//W3C//DTD SVG 1.1//EN"
 "http://www.w3.org/Graphics/SVG/1.1/DTD/svg11.dtd">
<!-- Generated by graphviz version 2.43.0 (0)
 -->
<!-- Title: javolution.util.internal.set.sorted.SharedSortedSetImpl&lt; E &gt; Pages: 1 -->
<svg width="1549pt" height="607pt"
 viewBox="0.00 0.00 1549.00 606.73" xmlns="http://www.w3.org/2000/svg" xmlns:xlink="http://www.w3.org/1999/xlink">
<g id="graph0" class="graph" transform="scale(1 1) rotate(0) translate(4 602.73)">
<title>javolution.util.internal.set.sorted.SharedSortedSetImpl&lt; E &gt;</title>
<polygon fill="white" stroke="transparent" points="-4,4 -4,-602.73 1545,-602.73 1545,4 -4,4"/>
<!-- Node1 -->
<g id="node1" class="node">
<title>Node1</title>
<g id="a_node1"><a xlink:title=" ">
<polygon fill="#bfbfbf" stroke="black" points="1362,-94.5 1362,-124.5 1541,-124.5 1541,-94.5 1362,-94.5"/>
<text text-anchor="start" x="1370" y="-112.5" font-family="Helvetica,sans-Serif" font-size="10.00">javolution.util.internal.set.sorted.</text>
<text text-anchor="middle" x="1451.5" y="-101.5" font-family="Helvetica,sans-Serif" font-size="10.00">SharedSortedSetImpl&lt; E &gt;</text>
</a>
</g>
</g>
<!-- Node2 -->
<g id="node2" class="node">
<title>Node2</title>
<g id="a_node2"><a xlink:href="../../d8/d9b/classjavolution_1_1util_1_1internal_1_1set_1_1SharedSetImpl.html" target="_top" xlink:title=" ">
<polygon fill="white" stroke="black" points="1182,-94.5 1182,-124.5 1325,-124.5 1325,-94.5 1182,-94.5"/>
<text text-anchor="start" x="1190" y="-112.5" font-family="Helvetica,sans-Serif" font-size="10.00">javolution::util::internal</text>
<text text-anchor="middle" x="1253.5" y="-101.5" font-family="Helvetica,sans-Serif" font-size="10.00">::set::SharedSetImpl&lt; E &gt;</text>
</a>
</g>
</g>
<!-- Node2&#45;&gt;Node1 -->
<g id="edge1" class="edge">
<title>Node2&#45;&gt;Node1</title>
<path fill="none" stroke="midnightblue" d="M1335.37,-109.5C1344.07,-109.5 1352.96,-109.5 1361.75,-109.5"/>
<polygon fill="midnightblue" stroke="midnightblue" points="1335.26,-106 1325.26,-109.5 1335.26,-113 1335.26,-106"/>
</g>
<!-- Node3 -->
<g id="node3" class="node">
<title>Node3</title>
<g id="a_node3"><a xlink:href="../../d4/dd1/classjavolution_1_1util_1_1internal_1_1collection_1_1SharedCollectionImpl.html" target="_top" xlink:title=" ">
<polygon fill="white" stroke="black" points="936,-172.5 936,-202.5 1145,-202.5 1145,-172.5 936,-172.5"/>
<text text-anchor="start" x="944" y="-190.5" font-family="Helvetica,sans-Serif" font-size="10.00">javolution::util::internal</text>
<text text-anchor="middle" x="1040.5" y="-179.5" font-family="Helvetica,sans-Serif" font-size="10.00">::collection::SharedCollectionImpl&lt; E &gt;</text>
</a>
</g>
</g>
<!-- Node3&#45;&gt;Node2 -->
<g id="edge2" class="edge">
<title>Node3&#45;&gt;Node2</title>
<path fill="none" stroke="midnightblue" d="M1091.68,-168.95C1128.31,-155.41 1177.33,-137.29 1211.58,-124.63"/>
<polygon fill="midnightblue" stroke="midnightblue" points="1090.35,-165.71 1082.18,-172.46 1092.78,-172.28 1090.35,-165.71"/>
</g>
<!-- Node4 -->
<g id="node4" class="node">
<title>Node4</title>
<g id="a_node4"><a xlink:href="../../d1/d40/classjavolution_1_1util_1_1internal_1_1collection_1_1CollectionView.html" target="_top" xlink:title=" ">
<polygon fill="white" stroke="black" points="637.5,-196.5 637.5,-226.5 814.5,-226.5 814.5,-196.5 637.5,-196.5"/>
<text text-anchor="start" x="645.5" y="-214.5" font-family="Helvetica,sans-Serif" font-size="10.00">javolution::util::internal</text>
<text text-anchor="middle" x="726" y="-203.5" font-family="Helvetica,sans-Serif" font-size="10.00">::collection::CollectionView&lt; E &gt;</text>
</a>
</g>
</g>
<!-- Node4&#45;&gt;Node3 -->
<g id="edge3" class="edge">
<title>Node4&#45;&gt;Node3</title>
<path fill="none" stroke="midnightblue" d="M825.18,-203.96C860.43,-201.25 900.28,-198.19 935.97,-195.45"/>
<polygon fill="midnightblue" stroke="midnightblue" points="824.58,-200.5 814.88,-204.75 825.12,-207.47 824.58,-200.5"/>
</g>
<!-- Node5 -->
<g id="node5" class="node">
<title>Node5</title>
<g id="a_node5"><a xlink:href="../../dc/d19/classjavolution_1_1util_1_1FastCollection.html" target="_top" xlink:title=" ">
<polygon fill="white" stroke="black" points="326,-261 326,-280 516,-280 516,-261 326,-261"/>
<text text-anchor="middle" x="421" y="-268" font-family="Helvetica,sans-Serif" font-size="10.00">javolution::util::FastCollection&lt; E &gt;</text>
</a>
</g>
</g>
<!-- Node5&#45;&gt;Node4 -->
<g id="edge4" class="edge">
<title>Node5&#45;&gt;Node4</title>
<path fill="none" stroke="midnightblue" d="M526.4,-260.88C556.48,-257.13 589.21,-252.11 619,-245.5 640.89,-240.64 664.7,-233.21 684.21,-226.53"/>
<polygon fill="midnightblue" stroke="midnightblue" points="525.81,-257.43 516.3,-262.11 526.65,-264.38 525.81,-257.43"/>
</g>
<!-- Node6 -->
<g id="node6" class="node">
<title>Node6</title>
<g id="a_node6"><a xlink:title=" ">
<polygon fill="white" stroke="#bfbfbf" points="31,-168 31,-187 174,-187 174,-168 31,-168"/>
<text text-anchor="middle" x="102.5" y="-175" font-family="Helvetica,sans-Serif" font-size="10.00">java::util::Collection&lt; E &gt;</text>
</a>
</g>
</g>
<!-- Node6&#45;&gt;Node5 -->
<g id="edge5" class="edge">
<title>Node6&#45;&gt;Node5</title>
<path fill="none" stroke="midnightblue" d="M142.29,-190.18C186.54,-204.5 261.19,-228.19 326,-246.5 343.83,-251.54 363.69,-256.68 380.55,-260.9"/>
<polygon fill="midnightblue" stroke="midnightblue" points="143.11,-186.77 132.52,-187.01 140.95,-193.43 143.11,-186.77"/>
</g>
<!-- Node9 -->
<g id="node9" class="node">
<title>Node9</title>
<g id="a_node9"><a xlink:href="../../dd/d6c/interfacejavolution_1_1util_1_1service_1_1CollectionService.html" target="_top" xlink:title=" ">
<polygon fill="white" stroke="black" points="353,-49.5 353,-79.5 489,-79.5 489,-49.5 353,-49.5"/>
<text text-anchor="start" x="361" y="-67.5" font-family="Helvetica,sans-Serif" font-size="10.00">javolution::util::service</text>
<text text-anchor="middle" x="421" y="-56.5" font-family="Helvetica,sans-Serif" font-size="10.00">::CollectionService&lt; E &gt;</text>
</a>
</g>
</g>
<!-- Node6&#45;&gt;Node9 -->
<g id="edge9" class="edge">
<title>Node6&#45;&gt;Node9</title>
<path fill="none" stroke="midnightblue" d="M122.19,-161.53C144.61,-143.28 184.05,-113.95 223,-98.5 264.46,-82.06 313.93,-73.56 352.93,-69.17"/>
<polygon fill="midnightblue" stroke="midnightblue" points="119.94,-158.85 114.47,-167.93 124.41,-164.24 119.94,-158.85"/>
</g>
<!-- Node7 -->
<g id="node7" class="node">
<title>Node7</title>
<g id="a_node7"><a xlink:title=" ">
<polygon fill="white" stroke="#bfbfbf" points="65.5,-500 65.5,-519 139.5,-519 139.5,-500 65.5,-500"/>
<text text-anchor="middle" x="102.5" y="-507" font-family="Helvetica,sans-Serif" font-size="10.00">Serializable</text>
</a>
</g>
</g>
<!-- Node7&#45;&gt;Node5 -->
<g id="edge6" class="edge">
<title>Node7&#45;&gt;Node5</title>
<path fill="none" stroke="midnightblue" d="M137.74,-496.17C161.56,-487 194.1,-474.7 223,-464.5 260.51,-451.27 282.13,-466.71 308,-436.5 339.94,-399.2 298.49,-368.17 326,-327.5 341.72,-304.26 370.38,-288.92 391.94,-280.06"/>
<polygon fill="midnightblue" stroke="midnightblue" points="136.18,-493.02 128.11,-499.89 138.7,-499.55 136.18,-493.02"/>
</g>
<!-- Node7&#45;&gt;Node9 -->
<g id="edge11" class="edge">
<title>Node7&#45;&gt;Node9</title>
<path fill="none" stroke="midnightblue" d="M115.33,-491.01C135.44,-459.12 176.82,-391.31 205,-330.5 214.75,-309.45 211.05,-301.38 223,-281.5 258.35,-222.69 279.86,-217.28 326,-166.5 354.18,-135.49 387.48,-99.51 405.92,-79.65"/>
<polygon fill="midnightblue" stroke="midnightblue" points="112.22,-489.39 109.81,-499.71 118.13,-493.14 112.22,-489.39"/>
</g>
<!-- Node13 -->
<g id="node13" class="node">
<title>Node13</title>
<g id="a_node13"><a xlink:href="../../db/d38/classjavolution_1_1util_1_1internal_1_1collection_1_1ReadWriteLockImpl.html" target="_top" xlink:title=" ">
<polygon fill="white" stroke="black" points="637,-434.5 637,-464.5 815,-464.5 815,-434.5 637,-434.5"/>
<text text-anchor="start" x="645" y="-452.5" font-family="Helvetica,sans-Serif" font-size="10.00">javolution.util.internal.collection.</text>
<text text-anchor="middle" x="726" y="-441.5" font-family="Helvetica,sans-Serif" font-size="10.00">ReadWriteLockImpl</text>
</a>
</g>
</g>
<!-- Node7&#45;&gt;Node13 -->
<g id="edge17" class="edge">
<title>Node7&#45;&gt;Node13</title>
<path fill="none" stroke="midnightblue" d="M139.76,-522.57C200.34,-544.35 316.49,-585.88 326,-587.5 409.25,-601.67 433,-603.05 516,-587.5 564.27,-578.46 577.35,-573.52 619,-547.5 656.84,-523.87 693.3,-485.72 712.01,-464.67"/>
<polygon fill="midnightblue" stroke="midnightblue" points="140.78,-519.22 130.19,-519.12 138.41,-525.8 140.78,-519.22"/>
</g>
<!-- Node17 -->
<g id="node17" class="node">
<title>Node17</title>
<g id="a_node17"><a xlink:href="../../d8/dd0/classjavolution_1_1util_1_1internal_1_1collection_1_1ReadWriteLockImpl_1_1WriteLock.html" target="_top" xlink:title=" ">
<polygon fill="white" stroke="black" points="332,-547.5 332,-577.5 510,-577.5 510,-547.5 332,-547.5"/>
<text text-anchor="start" x="340" y="-565.5" font-family="Helvetica,sans-Serif" font-size="10.00">javolution.util.internal.collection.</text>
<text text-anchor="middle" x="421" y="-554.5" font-family="Helvetica,sans-Serif" font-size="10.00">ReadWriteLockImpl.WriteLock</text>
</a>
</g>
</g>
<!-- Node7&#45;&gt;Node17 -->
<g id="edge23" class="edge">
<title>Node7&#45;&gt;Node17</title>
<path fill="none" stroke="midnightblue" d="M149.83,-517.26C197.48,-525.24 272.85,-537.86 331.89,-547.75"/>
<polygon fill="midnightblue" stroke="midnightblue" points="150.25,-513.78 139.81,-515.58 149.09,-520.68 150.25,-513.78"/>
</g>
<!-- Node19 -->
<g id="node19" class="node">
<title>Node19</title>
<g id="a_node19"><a xlink:href="../../d4/d2b/classjavolution_1_1util_1_1internal_1_1collection_1_1ReadWriteLockImpl_1_1ReadLock.html" target="_top" xlink:title=" ">
<polygon fill="white" stroke="black" points="332,-498.5 332,-528.5 510,-528.5 510,-498.5 332,-498.5"/>
<text text-anchor="start" x="340" y="-516.5" font-family="Helvetica,sans-Serif" font-size="10.00">javolution.util.internal.collection.</text>
<text text-anchor="middle" x="421" y="-505.5" font-family="Helvetica,sans-Serif" font-size="10.00">ReadWriteLockImpl.ReadLock</text>
</a>
</g>
</g>
<!-- Node7&#45;&gt;Node19 -->
<g id="edge27" class="edge">
<title>Node7&#45;&gt;Node19</title>
<path fill="none" stroke="midnightblue" d="M149.83,-510.09C197.48,-510.69 272.85,-511.64 331.89,-512.39"/>
<polygon fill="midnightblue" stroke="midnightblue" points="149.85,-506.59 139.81,-509.96 149.76,-513.59 149.85,-506.59"/>
</g>
<!-- Node8 -->
<g id="node8" class="node">
<title>Node8</title>
<g id="a_node8"><a xlink:title=" ">
<polygon fill="white" stroke="#bfbfbf" points="56.5,-302 56.5,-321 148.5,-321 148.5,-302 56.5,-302"/>
<text text-anchor="middle" x="102.5" y="-309" font-family="Helvetica,sans-Serif" font-size="10.00">static final long</text>
</a>
</g>
</g>
<!-- Node8&#45;&gt;Node1 -->
<g id="edge37" class="edge">
<title>Node8&#45;&gt;Node1</title>
<path fill="none" stroke="#9a32cd" stroke-dasharray="5,2" d="M158.68,-311.27C199.83,-311.09 257.43,-310.81 308,-310.5 426.89,-309.76 456.61,-308.5 575.5,-308.5 575.5,-308.5 575.5,-308.5 1254.5,-308.5 1357.55,-308.5 1424.57,-171.38 1444.37,-124.78"/>
<polygon fill="#9a32cd" stroke="#9a32cd" points="158.57,-307.77 148.58,-311.31 158.6,-314.77 158.57,-307.77"/>
<text text-anchor="middle" x="875.5" y="-311.5" font-family="Helvetica,sans-Serif" font-size="10.00"> serialVersionUID</text>
</g>
<!-- Node8&#45;&gt;Node2 -->
<g id="edge33" class="edge">
<title>Node8&#45;&gt;Node2</title>
<path fill="none" stroke="#9a32cd" stroke-dasharray="5,2" d="M120.09,-294.22C140.85,-272.25 177.07,-232.81 205,-196.5 213.79,-185.07 211.68,-178.43 223,-169.5 294.85,-112.8 328.47,-109.5 420,-109.5 420,-109.5 420,-109.5 1041.5,-109.5 1088.21,-109.5 1140.73,-109.5 1181.69,-109.5"/>
<polygon fill="#9a32cd" stroke="#9a32cd" points="117.29,-292.08 112.94,-301.74 122.36,-296.9 117.29,-292.08"/>
<text text-anchor="middle" x="726" y="-112.5" font-family="Helvetica,sans-Serif" font-size="10.00"> serialVersionUID</text>
</g>
<!-- Node8&#45;&gt;Node3 -->
<g id="edge29" class="edge">
<title>Node8&#45;&gt;Node3</title>
<path fill="none" stroke="#9a32cd" stroke-dasharray="5,2" d="M121.02,-294.79C156.33,-262.41 240.07,-192.03 326,-166.5 556.76,-97.95 848.13,-145.52 975.27,-172.46"/>
<polygon fill="#9a32cd" stroke="#9a32cd" points="118.42,-292.43 113.48,-301.81 123.18,-297.56 118.42,-292.43"/>
<text text-anchor="middle" x="576.5" y="-136.5" font-family="Helvetica,sans-Serif" font-size="10.00"> serialVersionUID</text>
</g>
<!-- Node8&#45;&gt;Node4 -->
<g id="edge14" class="edge">
<title>Node8&#45;&gt;Node4</title>
<path fill="none" stroke="#9a32cd" stroke-dasharray="5,2" d="M136.42,-298.28C179.29,-281.7 256.93,-253.83 326,-240.5 355.62,-234.78 528.83,-223.47 637.08,-216.79"/>
<polygon fill="#9a32cd" stroke="#9a32cd" points="135.1,-295.04 127.05,-301.94 137.64,-301.56 135.1,-295.04"/>
<text text-anchor="middle" x="421" y="-243.5" font-family="Helvetica,sans-Serif" font-size="10.00"> serialVersionUID</text>
</g>
<!-- Node8&#45;&gt;Node5 -->
<g id="edge7" class="edge">
<title>Node8&#45;&gt;Node5</title>
<path fill="none" stroke="#9a32cd" stroke-dasharray="5,2" d="M158.55,-304.37C210.61,-297.63 289.07,-287.46 346.46,-280.03"/>
<polygon fill="#9a32cd" stroke="#9a32cd" points="157.98,-300.91 148.51,-305.67 158.88,-307.86 157.98,-300.91"/>
<text text-anchor="middle" x="265.5" y="-298.5" font-family="Helvetica,sans-Serif" font-size="10.00"> serialVersionUID</text>
</g>
<!-- Node8&#45;&gt;Node13 -->
<g id="edge20" class="edge">
<title>Node8&#45;&gt;Node13</title>
<path fill="none" stroke="#9a32cd" stroke-dasharray="5,2" d="M130.75,-325.68C171.87,-346.4 252.76,-384.53 326,-403.5 430.8,-430.64 555.23,-441.78 636.94,-446.35"/>
<polygon fill="#9a32cd" stroke="#9a32cd" points="132.15,-322.47 121.65,-321.05 128.98,-328.71 132.15,-322.47"/>
<text text-anchor="middle" x="421" y="-438.5" font-family="Helvetica,sans-Serif" font-size="10.00"> serialVersionUID</text>
</g>
<!-- Node8&#45;&gt;Node17 -->
<g id="edge24" class="edge">
<title>Node8&#45;&gt;Node17</title>
<path fill="none" stroke="#9a32cd" stroke-dasharray="5,2" d="M115.08,-329.83C134.68,-359.86 176.79,-420.33 223,-461.5 256.24,-491.12 275.2,-484.4 308,-514.5 317.82,-523.51 314.91,-531.1 326,-538.5 331.18,-541.96 336.83,-544.92 342.7,-547.46"/>
<polygon fill="#9a32cd" stroke="#9a32cd" points="117.89,-327.72 109.53,-321.21 112.01,-331.51 117.89,-327.72"/>
<text text-anchor="middle" x="265.5" y="-517.5" font-family="Helvetica,sans-Serif" font-size="10.00"> serialVersionUID</text>
</g>
<!-- Node8&#45;&gt;Node19 -->
<g id="edge28" class="edge">
<title>Node8&#45;&gt;Node19</title>
<path fill="none" stroke="#9a32cd" stroke-dasharray="5,2" d="M122.99,-327.66C146.16,-346.56 186.31,-378.33 223,-402.5 259.23,-426.36 278.44,-418.74 308,-450.5 320.73,-464.18 311.64,-476.54 326,-488.5 330.67,-492.39 335.89,-495.68 341.41,-498.46"/>
<polygon fill="#9a32cd" stroke="#9a32cd" points="124.93,-324.73 114.98,-321.09 120.49,-330.14 124.93,-324.73"/>
<text text-anchor="middle" x="265.5" y="-453.5" font-family="Helvetica,sans-Serif" font-size="10.00"> serialVersionUID</text>
</g>
<!-- Node9&#45;&gt;Node4 -->
<g id="edge8" class="edge">
<title>Node9&#45;&gt;Node4</title>
<path fill="none" stroke="midnightblue" d="M470.92,-83.25C511.29,-99.22 569.74,-123.5 619,-148.5 648.21,-163.32 680.37,-182.93 701.51,-196.31"/>
<polygon fill="midnightblue" stroke="midnightblue" points="472.16,-79.98 461.58,-79.57 469.6,-86.49 472.16,-79.98"/>
</g>
<!-- Node20 -->
<g id="node20" class="node">
<title>Node20</title>
<g id="a_node20"><a xlink:href="../../d6/d3e/interfacejavolution_1_1util_1_1service_1_1SetService.html" target="_top" xlink:title=" ">
<polygon fill="white" stroke="black" points="976.5,-48.5 976.5,-78.5 1104.5,-78.5 1104.5,-48.5 976.5,-48.5"/>
<text text-anchor="start" x="984.5" y="-66.5" font-family="Helvetica,sans-Serif" font-size="10.00">javolution::util::service</text>
<text text-anchor="middle" x="1040.5" y="-55.5" font-family="Helvetica,sans-Serif" font-size="10.00">::SetService&lt; E &gt;</text>
</a>
</g>
</g>
<!-- Node9&#45;&gt;Node20 -->
<g id="edge31" class="edge">
<title>Node9&#45;&gt;Node20</title>
<path fill="none" stroke="midnightblue" d="M499.4,-64.37C623.02,-64.17 862.64,-63.79 976.49,-63.6"/>
<polygon fill="midnightblue" stroke="midnightblue" points="499.25,-60.87 489.26,-64.39 499.26,-67.87 499.25,-60.87"/>
</g>
<!-- Node10 -->
<g id="node10" class="node">
<title>Node10</title>
<g id="a_node10"><a xlink:href="../../dd/ded/interfacejavolution_1_1util_1_1function_1_1Splittable.html" target="_top" xlink:title=" ">
<polygon fill="white" stroke="black" points="0,-0.5 0,-30.5 205,-30.5 205,-0.5 0,-0.5"/>
<text text-anchor="start" x="8" y="-18.5" font-family="Helvetica,sans-Serif" font-size="10.00">javolution::util::function</text>
<text text-anchor="middle" x="102.5" y="-7.5" font-family="Helvetica,sans-Serif" font-size="10.00">::Splittable&lt; CollectionService&lt; E &gt; &gt;</text>
</a>
</g>
</g>
<!-- Node10&#45;&gt;Node9 -->
<g id="edge10" class="edge">
<title>Node10&#45;&gt;Node9</title>
<path fill="none" stroke="midnightblue" d="M210.54,-32.07C257.57,-39.35 311.37,-47.68 352.67,-54.08"/>
<polygon fill="midnightblue" stroke="midnightblue" points="211.03,-28.61 200.61,-30.53 209.96,-35.52 211.03,-28.61"/>
</g>
<!-- Node11 -->
<g id="node11" class="node">
<title>Node11</title>
<g id="a_node11"><a xlink:href="../../d5/d48/classCloneable.html" target="_top" xlink:title=" ">
<polygon fill="white" stroke="black" points="70,-50 70,-69 135,-69 135,-50 70,-50"/>
<text text-anchor="middle" x="102.5" y="-57" font-family="Helvetica,sans-Serif" font-size="10.00">Cloneable</text>
</a>
</g>
</g>
<!-- Node11&#45;&gt;Node9 -->
<g id="edge12" class="edge">
<title>Node11&#45;&gt;Node9</title>
<path fill="none" stroke="midnightblue" d="M145.04,-60.16C197.9,-60.99 289.91,-62.44 352.81,-63.44"/>
<polygon fill="midnightblue" stroke="midnightblue" points="145.06,-56.66 135,-60 144.95,-63.66 145.06,-56.66"/>
</g>
<!-- Node12 -->
<g id="node12" class="node">
<title>Node12</title>
<g id="a_node12"><a xlink:title=" ">
<polygon fill="white" stroke="#bfbfbf" points="356,-176 356,-195 486,-195 486,-176 356,-176"/>
<text text-anchor="middle" x="421" y="-183" font-family="Helvetica,sans-Serif" font-size="10.00">CollectionService&lt; E &gt;</text>
</a>
</g>
</g>
<!-- Node12&#45;&gt;Node4 -->
<g id="edge13" class="edge">
<title>Node12&#45;&gt;Node4</title>
<path fill="none" stroke="#9a32cd" stroke-dasharray="5,2" d="M496.28,-191.87C538.88,-195.53 592.6,-200.14 637.27,-203.97"/>
<polygon fill="#9a32cd" stroke="#9a32cd" points="496.52,-188.38 486.26,-191.01 495.92,-195.36 496.52,-188.38"/>
<text text-anchor="middle" x="576.5" y="-204.5" font-family="Helvetica,sans-Serif" font-size="10.00"> target</text>
</g>
<!-- Node13&#45;&gt;Node3 -->
<g id="edge15" class="edge">
<title>Node13&#45;&gt;Node3</title>
<path fill="none" stroke="#9a32cd" stroke-dasharray="5,2" d="M736.27,-424.79C751.31,-387.72 784.34,-317.6 833,-275.5 875,-239.17 934.22,-216.01 978.48,-202.63"/>
<polygon fill="#9a32cd" stroke="#9a32cd" points="732.93,-423.73 732.51,-434.31 739.44,-426.3 732.93,-423.73"/>
<text text-anchor="middle" x="875.5" y="-278.5" font-family="Helvetica,sans-Serif" font-size="10.00"> lock</text>
</g>
<!-- Node14 -->
<g id="node14" class="node">
<title>Node14</title>
<g id="a_node14"><a xlink:title=" ">
<polygon fill="white" stroke="#bfbfbf" points="376,-375 376,-394 466,-394 466,-375 376,-375"/>
<text text-anchor="middle" x="421" y="-382" font-family="Helvetica,sans-Serif" font-size="10.00">ReadWriteLock</text>
</a>
</g>
</g>
<!-- Node14&#45;&gt;Node13 -->
<g id="edge16" class="edge">
<title>Node14&#45;&gt;Node13</title>
<path fill="none" stroke="midnightblue" d="M476.19,-391.21C515.99,-396.64 571.22,-405.24 619,-416.5 639.82,-421.41 662.52,-428.26 681.55,-434.45"/>
<polygon fill="midnightblue" stroke="midnightblue" points="476.54,-387.73 466.17,-389.86 475.61,-394.66 476.54,-387.73"/>
</g>
<!-- Node15 -->
<g id="node15" class="node">
<title>Node15</title>
<g id="a_node15"><a xlink:title=" ">
<polygon fill="white" stroke="#bfbfbf" points="406.5,-337 406.5,-356 435.5,-356 435.5,-337 406.5,-337"/>
<text text-anchor="middle" x="421" y="-344" font-family="Helvetica,sans-Serif" font-size="10.00">int</text>
</a>
</g>
</g>
<!-- Node15&#45;&gt;Node13 -->
<g id="edge18" class="edge">
<title>Node15&#45;&gt;Node13</title>
<path fill="none" stroke="#9a32cd" stroke-dasharray="5,2" d="M446.06,-346.33C484.13,-346.83 559.98,-351.03 619,-374.5 654.4,-388.58 689.26,-416.75 708.86,-434.28"/>
<polygon fill="#9a32cd" stroke="#9a32cd" points="445.96,-342.83 435.94,-346.27 445.92,-349.83 445.96,-342.83"/>
<text text-anchor="middle" x="576.5" y="-388.5" font-family="Helvetica,sans-Serif" font-size="10.00"> givenLocks</text>
<text text-anchor="middle" x="576.5" y="-377.5" font-family="Helvetica,sans-Serif" font-size="10.00">waitingWriters</text>
</g>
<!-- Node16 -->
<g id="node16" class="node">
<title>Node16</title>
<g id="a_node16"><a xlink:title=" ">
<polygon fill="white" stroke="#bfbfbf" points="372.5,-460 372.5,-479 469.5,-479 469.5,-460 372.5,-460"/>
<text text-anchor="middle" x="421" y="-467" font-family="Helvetica,sans-Serif" font-size="10.00">transient Thread</text>
</a>
</g>
</g>
<!-- Node16&#45;&gt;Node13 -->
<g id="edge19" class="edge">
<title>Node16&#45;&gt;Node13</title>
<path fill="none" stroke="#9a32cd" stroke-dasharray="5,2" d="M479.71,-465.69C524.08,-462.76 586.14,-458.67 636.74,-455.33"/>
<polygon fill="#9a32cd" stroke="#9a32cd" points="479.42,-462.2 469.68,-466.35 479.89,-469.19 479.42,-462.2"/>
<text text-anchor="middle" x="576.5" y="-464.5" font-family="Helvetica,sans-Serif" font-size="10.00"> writerThread</text>
</g>
<!-- Node17&#45;&gt;Node13 -->
<g id="edge21" class="edge">
<title>Node17&#45;&gt;Node13</title>
<path fill="none" stroke="#9a32cd" stroke-dasharray="5,2" d="M492.27,-544.91C500.28,-542.8 508.33,-540.63 516,-538.5 562.06,-525.7 574.9,-525.96 619,-507.5 648.22,-495.27 679.85,-477.29 700.88,-464.59"/>
<polygon fill="#9a32cd" stroke="#9a32cd" points="491.32,-541.54 482.53,-547.45 493.09,-548.31 491.32,-541.54"/>
<text text-anchor="middle" x="576.5" y="-535.5" font-family="Helvetica,sans-Serif" font-size="10.00"> writeLock</text>
</g>
<!-- Node18 -->
<g id="node18" class="node">
<title>Node18</title>
<g id="a_node18"><a xlink:title=" ">
<polygon fill="white" stroke="#bfbfbf" points="83,-556 83,-575 122,-575 122,-556 83,-556"/>
<text text-anchor="middle" x="102.5" y="-563" font-family="Helvetica,sans-Serif" font-size="10.00">Lock</text>
</a>
</g>
</g>
<!-- Node18&#45;&gt;Node17 -->
<g id="edge22" class="edge">
<title>Node18&#45;&gt;Node17</title>
<path fill="none" stroke="midnightblue" d="M132.1,-567.28C171.64,-569.5 245.25,-572.74 308,-570.5 315.79,-570.22 323.88,-569.84 331.99,-569.38"/>
<polygon fill="midnightblue" stroke="midnightblue" points="132.3,-563.79 122.11,-566.7 131.89,-570.78 132.3,-563.79"/>
</g>
<!-- Node18&#45;&gt;Node19 -->
<g id="edge26" class="edge">
<title>Node18&#45;&gt;Node19</title>
<path fill="none" stroke="midnightblue" d="M132.23,-560.78C176.91,-553.44 264.88,-538.99 331.86,-527.98"/>
<polygon fill="midnightblue" stroke="midnightblue" points="131.65,-557.33 122.35,-562.4 132.79,-564.24 131.65,-557.33"/>
</g>
<!-- Node19&#45;&gt;Node13 -->
<g id="edge25" class="edge">
<title>Node19&#45;&gt;Node13</title>
<path fill="none" stroke="#9a32cd" stroke-dasharray="5,2" d="M518.79,-496.59C550.78,-490.66 586.5,-483.68 619,-476.5 635.22,-472.91 652.74,-468.62 668.77,-464.53"/>
<polygon fill="#9a32cd" stroke="#9a32cd" points="517.75,-493.22 508.55,-498.48 519.02,-500.11 517.75,-493.22"/>
<text text-anchor="middle" x="576.5" y="-495.5" font-family="Helvetica,sans-Serif" font-size="10.00"> readLock</text>
</g>
<!-- Node20&#45;&gt;Node2 -->
<g id="edge30" class="edge">
<title>Node20&#45;&gt;Node2</title>
<path fill="none" stroke="midnightblue" d="M1114.32,-79.38C1136.76,-84.27 1161.38,-89.63 1183.54,-94.47"/>
<polygon fill="midnightblue" stroke="midnightblue" points="1115.04,-75.95 1104.52,-77.24 1113.55,-82.79 1115.04,-75.95"/>
</g>
<!-- Node22 -->
<g id="node22" class="node">
<title>Node22</title>
<g id="a_node22"><a xlink:href="../../de/da6/interfacejavolution_1_1util_1_1service_1_1SortedSetService.html" target="_top" xlink:title=" ">
<polygon fill="white" stroke="black" points="1186.5,-44.5 1186.5,-74.5 1320.5,-74.5 1320.5,-44.5 1186.5,-44.5"/>
<text text-anchor="start" x="1194.5" y="-62.5" font-family="Helvetica,sans-Serif" font-size="10.00">javolution::util::service</text>
<text text-anchor="middle" x="1253.5" y="-51.5" font-family="Helvetica,sans-Serif" font-size="10.00">::SortedSetService&lt; E &gt;</text>
</a>
</g>
</g>
<!-- Node20&#45;&gt;Node22 -->
<g id="edge35" class="edge">
<title>Node20&#45;&gt;Node22</title>
<path fill="none" stroke="midnightblue" d="M1114.66,-62.11C1137.89,-61.67 1163.42,-61.19 1186.14,-60.76"/>
<polygon fill="midnightblue" stroke="midnightblue" points="1114.45,-58.62 1104.52,-62.31 1114.59,-65.62 1114.45,-58.62"/>
</g>
<!-- Node21 -->
<g id="node21" class="node">
<title>Node21</title>
<g id="a_node21"><a xlink:title=" ">
<polygon fill="white" stroke="#bfbfbf" points="671,-16 671,-35 781,-35 781,-16 671,-16"/>
<text text-anchor="middle" x="726" y="-23" font-family="Helvetica,sans-Serif" font-size="10.00">java::util::Set&lt; E &gt;</text>
</a>
</g>
</g>
<!-- Node21&#45;&gt;Node20 -->
<g id="edge32" class="edge">
<title>Node21&#45;&gt;Node20</title>
<path fill="none" stroke="midnightblue" d="M791.26,-33.31C845.44,-39.9 922.55,-49.28 976.41,-55.83"/>
<polygon fill="midnightblue" stroke="midnightblue" points="791.43,-29.81 781.08,-32.08 790.58,-36.76 791.43,-29.81"/>
</g>
<!-- Node22&#45;&gt;Node1 -->
<g id="edge34" class="edge">
<title>Node22&#45;&gt;Node1</title>
<path fill="none" stroke="midnightblue" d="M1323.04,-76.98C1345.33,-82.67 1369.86,-88.93 1391.4,-94.42"/>
<polygon fill="midnightblue" stroke="midnightblue" points="1323.86,-73.58 1313.31,-74.5 1322.13,-80.36 1323.86,-73.58"/>
</g>
<!-- Node23 -->
<g id="node23" class="node">
<title>Node23</title>
<g id="a_node23"><a xlink:title=" ">
<polygon fill="white" stroke="#bfbfbf" points="970,-10 970,-29 1111,-29 1111,-10 970,-10"/>
<text text-anchor="middle" x="1040.5" y="-17" font-family="Helvetica,sans-Serif" font-size="10.00">java::util::SortedSet&lt; E &gt;</text>
</a>
</g>
</g>
<!-- Node23&#45;&gt;Node22 -->
<g id="edge36" class="edge">
<title>Node23&#45;&gt;Node22</title>
<path fill="none" stroke="midnightblue" d="M1104.07,-30.87C1117.58,-33.35 1131.77,-35.99 1145,-38.5 1158.36,-41.03 1172.64,-43.79 1186.29,-46.44"/>
<polygon fill="midnightblue" stroke="midnightblue" points="1104.38,-27.37 1093.91,-29 1103.11,-34.25 1104.38,-27.37"/>
</g>
</g>
</svg>
