<?xml version="1.0" encoding="UTF-8" standalone="no"?>
<!DOCTYPE svg PUBLIC "-//W3C//DTD SVG 1.1//EN"
 "http://www.w3.org/Graphics/SVG/1.1/DTD/svg11.dtd">
<!-- Generated by graphviz version 2.43.0 (0)
 -->
<!-- Title: javolution.util.function.Reducer&lt; E &gt; Pages: 1 -->
<svg width="539pt" height="137pt"
 viewBox="0.00 0.00 539.00 137.00" xmlns="http://www.w3.org/2000/svg" xmlns:xlink="http://www.w3.org/1999/xlink">
<g id="graph0" class="graph" transform="scale(1 1) rotate(0) translate(4 133)">
<title>javolution.util.function.Reducer&lt; E &gt;</title>
<polygon fill="white" stroke="transparent" points="-4,4 -4,-133 535,-133 535,4 -4,4"/>
<!-- Node1 -->
<g id="node1" class="node">
<title>Node1</title>
<g id="a_node1"><a xlink:title=" ">
<polygon fill="#bfbfbf" stroke="black" points="202,-49.5 202,-79.5 332,-79.5 332,-49.5 202,-49.5"/>
<text text-anchor="start" x="210" y="-67.5" font-family="Helvetica,sans-Serif" font-size="10.00">javolution.util.function.</text>
<text text-anchor="middle" x="267" y="-56.5" font-family="Helvetica,sans-Serif" font-size="10.00">Reducer&lt; E &gt;</text>
</a>
</g>
</g>
<!-- Node4 -->
<g id="node4" class="node">
<title>Node4</title>
<g id="a_node4"><a xlink:href="../../d5/d37/classjavolution_1_1util_1_1function_1_1Reducers_1_1AnyReducer.html" target="_top" xlink:title=" ">
<polygon fill="white" stroke="black" points="369,-98.5 369,-128.5 530,-128.5 530,-98.5 369,-98.5"/>
<text text-anchor="start" x="377" y="-116.5" font-family="Helvetica,sans-Serif" font-size="10.00">javolution::util::function</text>
<text text-anchor="middle" x="449.5" y="-105.5" font-family="Helvetica,sans-Serif" font-size="10.00">::Reducers::AnyReducer&lt; E &gt;</text>
</a>
</g>
</g>
<!-- Node1&#45;&gt;Node4 -->
<g id="edge3" class="edge">
<title>Node1&#45;&gt;Node4</title>
<path fill="none" stroke="midnightblue" d="M333.38,-82.25C352.94,-87.56 374.2,-93.33 393.05,-98.45"/>
<polygon fill="midnightblue" stroke="midnightblue" points="334.2,-78.84 323.63,-79.6 332.36,-85.6 334.2,-78.84"/>
</g>
<!-- Node5 -->
<g id="node5" class="node">
<title>Node5</title>
<g id="a_node5"><a xlink:href="../../dc/d16/classjavolution_1_1util_1_1function_1_1Reducers_1_1MaxReducer.html" target="_top" xlink:title=" ">
<polygon fill="white" stroke="black" points="368,-49.5 368,-79.5 531,-79.5 531,-49.5 368,-49.5"/>
<text text-anchor="start" x="376" y="-67.5" font-family="Helvetica,sans-Serif" font-size="10.00">javolution::util::function</text>
<text text-anchor="middle" x="449.5" y="-56.5" font-family="Helvetica,sans-Serif" font-size="10.00">::Reducers::MaxReducer&lt; E &gt;</text>
</a>
</g>
</g>
<!-- Node1&#45;&gt;Node5 -->
<g id="edge4" class="edge">
<title>Node1&#45;&gt;Node5</title>
<path fill="none" stroke="midnightblue" d="M342.3,-64.5C350.72,-64.5 359.33,-64.5 367.82,-64.5"/>
<polygon fill="midnightblue" stroke="midnightblue" points="342.15,-61 332.15,-64.5 342.15,-68 342.15,-61"/>
</g>
<!-- Node6 -->
<g id="node6" class="node">
<title>Node6</title>
<g id="a_node6"><a xlink:href="../../d3/dbb/classjavolution_1_1util_1_1function_1_1Reducers_1_1MinReducer.html" target="_top" xlink:title=" ">
<polygon fill="white" stroke="black" points="369.5,-0.5 369.5,-30.5 529.5,-30.5 529.5,-0.5 369.5,-0.5"/>
<text text-anchor="start" x="377.5" y="-18.5" font-family="Helvetica,sans-Serif" font-size="10.00">javolution::util::function</text>
<text text-anchor="middle" x="449.5" y="-7.5" font-family="Helvetica,sans-Serif" font-size="10.00">::Reducers::MinReducer&lt; E &gt;</text>
</a>
</g>
</g>
<!-- Node1&#45;&gt;Node6 -->
<g id="edge5" class="edge">
<title>Node1&#45;&gt;Node6</title>
<path fill="none" stroke="midnightblue" d="M333.38,-46.75C352.94,-41.44 374.2,-35.67 393.05,-30.55"/>
<polygon fill="midnightblue" stroke="midnightblue" points="332.36,-43.4 323.63,-49.4 334.2,-50.16 332.36,-43.4"/>
</g>
<!-- Node2 -->
<g id="node2" class="node">
<title>Node2</title>
<g id="a_node2"><a xlink:href="../../d4/d5a/interfacejavolution_1_1util_1_1function_1_1Consumer.html" target="_top" xlink:title=" ">
<polygon fill="white" stroke="black" points="0,-74.5 0,-104.5 166,-104.5 166,-74.5 0,-74.5"/>
<text text-anchor="start" x="8" y="-92.5" font-family="Helvetica,sans-Serif" font-size="10.00">javolution.util.function.</text>
<text text-anchor="middle" x="83" y="-81.5" font-family="Helvetica,sans-Serif" font-size="10.00">Consumer&lt; Collection&lt; E &gt; &gt;</text>
</a>
</g>
</g>
<!-- Node2&#45;&gt;Node1 -->
<g id="edge1" class="edge">
<title>Node2&#45;&gt;Node1</title>
<path fill="none" stroke="midnightblue" d="M176.34,-76.82C184.97,-75.63 193.59,-74.45 201.88,-73.31"/>
<polygon fill="midnightblue" stroke="midnightblue" points="175.64,-73.38 166.21,-78.21 176.6,-80.31 175.64,-73.38"/>
</g>
<!-- Node3 -->
<g id="node3" class="node">
<title>Node3</title>
<g id="a_node3"><a xlink:href="../../d6/dd3/interfacejavolution_1_1util_1_1function_1_1Supplier.html" target="_top" xlink:title=" ">
<polygon fill="white" stroke="black" points="18,-25.5 18,-55.5 148,-55.5 148,-25.5 18,-25.5"/>
<text text-anchor="start" x="26" y="-43.5" font-family="Helvetica,sans-Serif" font-size="10.00">javolution.util.function.</text>
<text text-anchor="middle" x="83" y="-32.5" font-family="Helvetica,sans-Serif" font-size="10.00">Supplier&lt; E &gt;</text>
</a>
</g>
</g>
<!-- Node3&#45;&gt;Node1 -->
<g id="edge2" class="edge">
<title>Node3&#45;&gt;Node1</title>
<path fill="none" stroke="midnightblue" d="M158.09,-50.27C172.58,-52.18 187.66,-54.17 201.8,-56.03"/>
<polygon fill="midnightblue" stroke="midnightblue" points="158.54,-46.8 148.17,-48.96 157.62,-53.74 158.54,-46.8"/>
</g>
</g>
</svg>
