<?xml version="1.0" encoding="UTF-8" standalone="no"?>
<!DOCTYPE svg PUBLIC "-//W3C//DTD SVG 1.1//EN"
 "http://www.w3.org/Graphics/SVG/1.1/DTD/svg11.dtd">
<!-- Generated by graphviz version 2.43.0 (0)
 -->
<!-- Title: javolution.util.internal.map.AtomicMapImpl.IteratorImpl.remove Pages: 1 -->
<svg width="609pt" height="88pt"
 viewBox="0.00 0.00 609.00 88.00" xmlns="http://www.w3.org/2000/svg" xmlns:xlink="http://www.w3.org/1999/xlink">
<g id="graph0" class="graph" transform="scale(1 1) rotate(0) translate(4 84)">
<title>javolution.util.internal.map.AtomicMapImpl.IteratorImpl.remove</title>
<polygon fill="white" stroke="transparent" points="-4,4 -4,-84 605,-84 605,4 -4,4"/>
<!-- Node1 -->
<g id="node1" class="node">
<title>Node1</title>
<g id="a_node1"><a xlink:title=" ">
<polygon fill="#bfbfbf" stroke="black" points="0,-24.5 0,-54.5 195,-54.5 195,-24.5 0,-24.5"/>
<text text-anchor="start" x="8" y="-42.5" font-family="Helvetica,sans-Serif" font-size="10.00">javolution.util.internal.map.</text>
<text text-anchor="middle" x="97.5" y="-31.5" font-family="Helvetica,sans-Serif" font-size="10.00">AtomicMapImpl.IteratorImpl.remove</text>
</a>
</g>
</g>
<!-- Node2 -->
<g id="node2" class="node">
<title>Node2</title>
<g id="a_node2"><a xlink:href="../../d8/d68/classjavolution_1_1util_1_1internal_1_1map_1_1AtomicMapImpl.html#a6d95665e02b6b326d8514fe5fb0062d7" target="_top" xlink:title=" ">
<polygon fill="white" stroke="black" points="231,-24.5 231,-54.5 383,-54.5 383,-24.5 231,-24.5"/>
<text text-anchor="start" x="239" y="-42.5" font-family="Helvetica,sans-Serif" font-size="10.00">javolution.util.internal.map.</text>
<text text-anchor="middle" x="307" y="-31.5" font-family="Helvetica,sans-Serif" font-size="10.00">AtomicMapImpl.remove</text>
</a>
</g>
</g>
<!-- Node1&#45;&gt;Node2 -->
<g id="edge1" class="edge">
<title>Node1&#45;&gt;Node2</title>
<path fill="none" stroke="midnightblue" d="M195.26,-39.5C203.75,-39.5 212.3,-39.5 220.69,-39.5"/>
<polygon fill="midnightblue" stroke="midnightblue" points="220.82,-43 230.82,-39.5 220.82,-36 220.82,-43"/>
</g>
<!-- Node3 -->
<g id="node3" class="node">
<title>Node3</title>
<g id="a_node3"><a xlink:href="../../d8/d68/classjavolution_1_1util_1_1internal_1_1map_1_1AtomicMapImpl.html#aa822dfaea49fc52b730eee6544c6f70c" target="_top" xlink:title=" ">
<polygon fill="white" stroke="black" points="433.5,-49.5 433.5,-79.5 586.5,-79.5 586.5,-49.5 433.5,-49.5"/>
<text text-anchor="start" x="441.5" y="-67.5" font-family="Helvetica,sans-Serif" font-size="10.00">javolution.util.internal.map.</text>
<text text-anchor="middle" x="510" y="-56.5" font-family="Helvetica,sans-Serif" font-size="10.00">AtomicMapImpl.cloneTarget</text>
</a>
</g>
</g>
<!-- Node2&#45;&gt;Node3 -->
<g id="edge2" class="edge">
<title>Node2&#45;&gt;Node3</title>
<path fill="none" stroke="midnightblue" d="M383.13,-48.84C396.19,-50.47 409.87,-52.17 423.19,-53.83"/>
<polygon fill="midnightblue" stroke="midnightblue" points="422.94,-57.32 433.29,-55.08 423.8,-50.38 422.94,-57.32"/>
</g>
<!-- Node4 -->
<g id="node4" class="node">
<title>Node4</title>
<g id="a_node4"><a xlink:href="../../d8/d68/classjavolution_1_1util_1_1internal_1_1map_1_1AtomicMapImpl.html#af2aa1c46f794694d1c84aae21a90f7b8" target="_top" xlink:title=" ">
<polygon fill="white" stroke="black" points="419,-0.5 419,-30.5 601,-30.5 601,-0.5 419,-0.5"/>
<text text-anchor="start" x="427" y="-18.5" font-family="Helvetica,sans-Serif" font-size="10.00">javolution.util.internal.map.</text>
<text text-anchor="middle" x="510" y="-7.5" font-family="Helvetica,sans-Serif" font-size="10.00">AtomicMapImpl.updateInProgress</text>
</a>
</g>
</g>
<!-- Node2&#45;&gt;Node4 -->
<g id="edge3" class="edge">
<title>Node2&#45;&gt;Node4</title>
<path fill="none" stroke="midnightblue" d="M383.13,-30.53C391.47,-29.53 400.05,-28.51 408.63,-27.48"/>
<polygon fill="midnightblue" stroke="midnightblue" points="409.18,-30.94 418.69,-26.28 408.35,-23.99 409.18,-30.94"/>
</g>
</g>
</svg>
