<?xml version="1.0" encoding="UTF-8" standalone="no"?>
<!DOCTYPE svg PUBLIC "-//W3C//DTD SVG 1.1//EN"
 "http://www.w3.org/Graphics/SVG/1.1/DTD/svg11.dtd">
<!-- Generated by graphviz version 2.43.0 (0)
 -->
<!-- Title: javolution.text.TextFormat.parse Pages: 1 -->
<svg width="382pt" height="137pt"
 viewBox="0.00 0.00 382.00 137.00" xmlns="http://www.w3.org/2000/svg" xmlns:xlink="http://www.w3.org/1999/xlink">
<g id="graph0" class="graph" transform="scale(1 1) rotate(0) translate(4 133)">
<title>javolution.text.TextFormat.parse</title>
<polygon fill="white" stroke="transparent" points="-4,4 -4,-133 378,-133 378,4 -4,4"/>
<!-- Node1 -->
<g id="node1" class="node">
<title>Node1</title>
<g id="a_node1"><a xlink:title=" ">
<polygon fill="#bfbfbf" stroke="black" points="198,-55 198,-74 374,-74 374,-55 198,-55"/>
<text text-anchor="middle" x="286" y="-62" font-family="Helvetica,sans-Serif" font-size="10.00">javolution.text.TextFormat.parse</text>
</a>
</g>
</g>
<!-- Node2 -->
<g id="node2" class="node">
<title>Node2</title>
<g id="a_node2"><a xlink:href="../../d9/d60/classjavolution_1_1xml_1_1XMLFormat_1_1InputElement.html#a7f1a95b2e2d76418f0640b6dc7a0ffe8" target="_top" xlink:title=" ">
<polygon fill="white" stroke="black" points="6.5,-98.5 6.5,-128.5 155.5,-128.5 155.5,-98.5 6.5,-98.5"/>
<text text-anchor="start" x="14.5" y="-116.5" font-family="Helvetica,sans-Serif" font-size="10.00">javolution.xml.XMLFormat.</text>
<text text-anchor="middle" x="81" y="-105.5" font-family="Helvetica,sans-Serif" font-size="10.00">InputElement.getAttribute</text>
</a>
</g>
</g>
<!-- Node1&#45;&gt;Node2 -->
<g id="edge1" class="edge">
<title>Node1&#45;&gt;Node2</title>
<path fill="none" stroke="midnightblue" d="M235.59,-76.43C208.1,-83.06 173.62,-91.39 144.3,-98.46"/>
<polygon fill="midnightblue" stroke="midnightblue" points="236.48,-79.81 245.38,-74.06 234.84,-73.01 236.48,-79.81"/>
</g>
<!-- Node3 -->
<g id="node3" class="node">
<title>Node3</title>
<g id="a_node3"><a xlink:href="../../d2/d5a/classjavolution_1_1xml_1_1XMLFormat_1_1Default.html#ad5bb84c69a28f44b1f9117d4c744c7df" target="_top" xlink:title=" ">
<polygon fill="white" stroke="black" points="6.5,-49.5 6.5,-79.5 155.5,-79.5 155.5,-49.5 6.5,-49.5"/>
<text text-anchor="start" x="14.5" y="-67.5" font-family="Helvetica,sans-Serif" font-size="10.00">javolution.xml.XMLFormat.</text>
<text text-anchor="middle" x="81" y="-56.5" font-family="Helvetica,sans-Serif" font-size="10.00">Default.newInstance</text>
</a>
</g>
</g>
<!-- Node1&#45;&gt;Node3 -->
<g id="edge2" class="edge">
<title>Node1&#45;&gt;Node3</title>
<path fill="none" stroke="midnightblue" d="M187.53,-64.5C176.86,-64.5 166.13,-64.5 155.81,-64.5"/>
<polygon fill="midnightblue" stroke="midnightblue" points="187.73,-68 197.73,-64.5 187.73,-61 187.73,-68"/>
</g>
<!-- Node4 -->
<g id="node4" class="node">
<title>Node4</title>
<g id="a_node4"><a xlink:href="../../d3/d4f/classjavolution_1_1text_1_1TextFormat.html#a7830be90142d7e7d71c2a972b685bb15" target="_top" xlink:title=" ">
<polygon fill="white" stroke="black" points="0,-0.5 0,-30.5 162,-30.5 162,-0.5 0,-0.5"/>
<text text-anchor="start" x="8" y="-18.5" font-family="Helvetica,sans-Serif" font-size="10.00">javolution.text.TextFormat</text>
<text text-anchor="middle" x="81" y="-7.5" font-family="Helvetica,sans-Serif" font-size="10.00">&lt; FastCollection&lt;?&gt; &gt;::parse</text>
</a>
</g>
</g>
<!-- Node1&#45;&gt;Node4 -->
<g id="edge3" class="edge">
<title>Node1&#45;&gt;Node4</title>
<path fill="none" stroke="midnightblue" d="M235.59,-52.57C208.1,-45.94 173.62,-37.61 144.3,-30.54"/>
<polygon fill="midnightblue" stroke="midnightblue" points="234.84,-55.99 245.38,-54.94 236.48,-49.19 234.84,-55.99"/>
</g>
</g>
</svg>
