<?xml version="1.0" encoding="UTF-8" standalone="no"?>
<!DOCTYPE svg PUBLIC "-//W3C//DTD SVG 1.1//EN"
 "http://www.w3.org/Graphics/SVG/1.1/DTD/svg11.dtd">
<!-- Generated by graphviz version 2.43.0 (0)
 -->
<!-- Title: javolution.text.TextFormat.format Pages: 1 -->
<svg width="410pt" height="127pt"
 viewBox="0.00 0.00 410.00 126.50" xmlns="http://www.w3.org/2000/svg" xmlns:xlink="http://www.w3.org/1999/xlink">
<g id="graph0" class="graph" transform="scale(1 1) rotate(0) translate(4 122.5)">
<title>javolution.text.TextFormat.format</title>
<polygon fill="white" stroke="transparent" points="-4,4 -4,-122.5 406,-122.5 406,4 -4,4"/>
<!-- Node1 -->
<g id="node1" class="node">
<title>Node1</title>
<g id="a_node1"><a xlink:title=" ">
<polygon fill="#bfbfbf" stroke="black" points="220,-55 220,-74 402,-74 402,-55 220,-55"/>
<text text-anchor="middle" x="311" y="-62" font-family="Helvetica,sans-Serif" font-size="10.00">javolution.text.TextFormat.format</text>
</a>
</g>
</g>
<!-- Node2 -->
<g id="node2" class="node">
<title>Node2</title>
<g id="a_node2"><a xlink:href="../../d2/d7a/classjavolution_1_1text_1_1TextBuilder.html#a3cdd6b3a2de8eb20ab6d562339e34853" target="_top" xlink:title=" ">
<polygon fill="white" stroke="black" points="0,-99 0,-118 184,-118 184,-99 0,-99"/>
<text text-anchor="middle" x="92" y="-106" font-family="Helvetica,sans-Serif" font-size="10.00">javolution.text.TextBuilder.append</text>
</a>
</g>
</g>
<!-- Node1&#45;&gt;Node2 -->
<g id="edge1" class="edge">
<title>Node1&#45;&gt;Node2</title>
<path fill="none" stroke="midnightblue" d="M252.79,-76.1C217.62,-83.23 173.1,-92.26 139.99,-98.97"/>
<polygon fill="midnightblue" stroke="midnightblue" points="253.81,-79.46 262.91,-74.05 252.42,-72.6 253.81,-79.46"/>
</g>
<!-- Node3 -->
<g id="node3" class="node">
<title>Node3</title>
<g id="a_node3"><a xlink:href="../../d3/d4f/classjavolution_1_1text_1_1TextFormat.html#aaa166155fa2a3657b967b6f59c0ca085" target="_top" xlink:title=" ">
<polygon fill="white" stroke="black" points="8,-49.5 8,-79.5 176,-79.5 176,-49.5 8,-49.5"/>
<text text-anchor="start" x="16" y="-67.5" font-family="Helvetica,sans-Serif" font-size="10.00">javolution.text.TextFormat</text>
<text text-anchor="middle" x="92" y="-56.5" font-family="Helvetica,sans-Serif" font-size="10.00">&lt; FastCollection&lt;?&gt; &gt;::format</text>
</a>
</g>
</g>
<!-- Node1&#45;&gt;Node3 -->
<g id="edge2" class="edge">
<title>Node1&#45;&gt;Node3</title>
<path fill="none" stroke="midnightblue" d="M209.65,-64.5C198.47,-64.5 187.19,-64.5 176.26,-64.5"/>
<polygon fill="midnightblue" stroke="midnightblue" points="209.86,-68 219.86,-64.5 209.86,-61 209.86,-68"/>
</g>
<!-- Node4 -->
<g id="node4" class="node">
<title>Node4</title>
<g id="a_node4"><a xlink:href="../../d3/d10/classjavolution_1_1util_1_1FastCollection_1_1Format.html#a67d2fd76f610f9a78084725f705adf8b" target="_top" xlink:title=" ">
<polygon fill="white" stroke="black" points="13,-0.5 13,-30.5 171,-30.5 171,-0.5 13,-0.5"/>
<text text-anchor="start" x="21" y="-18.5" font-family="Helvetica,sans-Serif" font-size="10.00">javolution.util.FastCollection.</text>
<text text-anchor="middle" x="92" y="-7.5" font-family="Helvetica,sans-Serif" font-size="10.00">Format.format</text>
</a>
</g>
</g>
<!-- Node1&#45;&gt;Node4 -->
<g id="edge3" class="edge">
<title>Node1&#45;&gt;Node4</title>
<path fill="none" stroke="midnightblue" d="M257.83,-52.72C228.39,-46.07 191.29,-37.69 159.74,-30.57"/>
<polygon fill="midnightblue" stroke="midnightblue" points="257.38,-56.21 267.9,-54.99 258.92,-49.38 257.38,-56.21"/>
</g>
</g>
</svg>
