<?xml version="1.0" encoding="UTF-8" standalone="no"?>
<!DOCTYPE svg PUBLIC "-//W3C//DTD SVG 1.1//EN"
 "http://www.w3.org/Graphics/SVG/1.1/DTD/svg11.dtd">
<!-- Generated by graphviz version 2.43.0 (0)
 -->
<!-- Title: javolution.xml.QName Pages: 1 -->
<svg width="450pt" height="151pt"
 viewBox="0.00 0.00 450.00 151.00" xmlns="http://www.w3.org/2000/svg" xmlns:xlink="http://www.w3.org/1999/xlink">
<g id="graph0" class="graph" transform="scale(1 1) rotate(0) translate(4 147)">
<title>javolution.xml.QName</title>
<polygon fill="white" stroke="transparent" points="-4,4 -4,-147 446,-147 446,4 -4,4"/>
<!-- Node1 -->
<g id="node1" class="node">
<title>Node1</title>
<g id="a_node1"><a xlink:title=" ">
<polygon fill="#bfbfbf" stroke="black" points="198.5,-0.5 198.5,-19.5 325.5,-19.5 325.5,-0.5 198.5,-0.5"/>
<text text-anchor="middle" x="262" y="-7.5" font-family="Helvetica,sans-Serif" font-size="10.00">javolution.xml.QName</text>
</a>
</g>
</g>
<!-- Node2 -->
<g id="node2" class="node">
<title>Node2</title>
<g id="a_node2"><a xlink:href="../../d7/d2f/interfacejavolution_1_1xml_1_1XMLSerializable.html" target="_top" xlink:title=" ">
<polygon fill="white" stroke="black" points="0,-62 0,-81 168,-81 168,-62 0,-62"/>
<text text-anchor="middle" x="84" y="-69" font-family="Helvetica,sans-Serif" font-size="10.00">javolution.xml.XMLSerializable</text>
</a>
</g>
</g>
<!-- Node2&#45;&gt;Node1 -->
<g id="edge1" class="edge">
<title>Node2&#45;&gt;Node1</title>
<path fill="none" stroke="midnightblue" d="M119.21,-58.73C153.81,-47.17 205.77,-29.8 236.54,-19.51"/>
<polygon fill="midnightblue" stroke="midnightblue" points="117.88,-55.49 109.5,-61.98 120.1,-62.12 117.88,-55.49"/>
</g>
<!-- Node3 -->
<g id="node3" class="node">
<title>Node3</title>
<g id="a_node3"><a xlink:title=" ">
<polygon fill="white" stroke="#bfbfbf" points="47,-123.5 47,-142.5 121,-142.5 121,-123.5 47,-123.5"/>
<text text-anchor="middle" x="84" y="-130.5" font-family="Helvetica,sans-Serif" font-size="10.00">Serializable</text>
</a>
</g>
</g>
<!-- Node3&#45;&gt;Node2 -->
<g id="edge2" class="edge">
<title>Node3&#45;&gt;Node2</title>
<path fill="none" stroke="midnightblue" d="M84,-113.32C84,-102.5 84,-89.4 84,-81.01"/>
<polygon fill="midnightblue" stroke="midnightblue" points="80.5,-113.48 84,-123.48 87.5,-113.48 80.5,-113.48"/>
</g>
<!-- Node4 -->
<g id="node4" class="node">
<title>Node4</title>
<g id="a_node4"><a xlink:href="../../d1/de3/interfacejavolution_1_1lang_1_1Immutable.html" target="_top" xlink:title=" ">
<polygon fill="white" stroke="black" points="186,-56.5 186,-86.5 338,-86.5 338,-56.5 186,-56.5"/>
<text text-anchor="start" x="194" y="-74.5" font-family="Helvetica,sans-Serif" font-size="10.00">javolution::lang::Immutable</text>
<text text-anchor="middle" x="262" y="-63.5" font-family="Helvetica,sans-Serif" font-size="10.00">&lt; QName &gt;</text>
</a>
</g>
</g>
<!-- Node4&#45;&gt;Node1 -->
<g id="edge3" class="edge">
<title>Node4&#45;&gt;Node1</title>
<path fill="none" stroke="midnightblue" d="M262,-46.29C262,-36.86 262,-26.65 262,-19.66"/>
<polygon fill="midnightblue" stroke="midnightblue" points="258.5,-46.4 262,-56.4 265.5,-46.4 258.5,-46.4"/>
</g>
<!-- Node5 -->
<g id="node5" class="node">
<title>Node5</title>
<g id="a_node5"><a xlink:title=" ">
<polygon fill="white" stroke="#bfbfbf" points="356,-62 356,-81 442,-81 442,-62 356,-62"/>
<text text-anchor="middle" x="399" y="-69" font-family="Helvetica,sans-Serif" font-size="10.00">CharSequence</text>
</a>
</g>
</g>
<!-- Node5&#45;&gt;Node1 -->
<g id="edge4" class="edge">
<title>Node5&#45;&gt;Node1</title>
<path fill="none" stroke="midnightblue" d="M370.17,-57.98C343.56,-46.42 304.77,-29.58 281.59,-19.51"/>
<polygon fill="midnightblue" stroke="midnightblue" points="368.8,-61.2 379.37,-61.98 371.59,-54.78 368.8,-61.2"/>
</g>
</g>
</svg>
