<?xml version="1.0" encoding="UTF-8" standalone="no"?>
<!DOCTYPE svg PUBLIC "-//W3C//DTD SVG 1.1//EN"
 "http://www.w3.org/Graphics/SVG/1.1/DTD/svg11.dtd">
<!-- Generated by graphviz version 2.43.0 (0)
 -->
<!-- Title: javolution.osgi.internal.JavolutionActivator.start Pages: 1 -->
<!--zoomable 189 -->
<svg id="main" version="1.1" xmlns="http://www.w3.org/2000/svg" xmlns:xlink="http://www.w3.org/1999/xlink" xml:space="preserve" onload="init(evt)">
<style type="text/css"><![CDATA[
.edge:hover path { stroke: red; }
.edge:hover polygon { stroke: red; fill: red; }
]]></style>
<script type="text/javascript"><![CDATA[
var edges = document.getElementsByTagName('g');
if (edges && edges.length) {
  for (var i=0;i<edges.length;i++) {
    if (edges[i].id.substr(0,4)=='edge') {
      edges[i].setAttribute('class','edge');
    }
  }
}
]]></script>
        <defs>
                <circle id="rim" cx="0" cy="0" r="7"/>
                <circle id="rim2" cx="0" cy="0" r="3.5"/>
                <g id="zoomPlus">
                        <use xlink:href="#rim" fill="#404040">
                                <set attributeName="fill" to="#808080" begin="zoomplus.mouseover" end="zoomplus.mouseout"/>
                        </use>
                        <path d="M-4,0h8M0,-4v8" fill="none" stroke="white" stroke-width="1.5" pointer-events="none"/>
                </g>
                <g id="zoomMin">
                        <use xlink:href="#rim" fill="#404040">
                                <set attributeName="fill" to="#808080" begin="zoomminus.mouseover" end="zoomminus.mouseout"/>
                        </use>
                        <path d="M-4,0h8" fill="none" stroke="white" stroke-width="1.5" pointer-events="none"/>
                </g>
                <g id="dirArrow">
                        <path fill="none" stroke="white" stroke-width="1.5" d="M0,-3.0v7 M-2.5,-0.5L0,-3.0L2.5,-0.5"/>
                </g>
               <g id="resetDef">
                       <use xlink:href="#rim2" fill="#404040">
                               <set attributeName="fill" to="#808080" begin="reset.mouseover" end="reset.mouseout"/>
                       </use>
               </g>
        </defs>

<script type="text/javascript">
var viewWidth = 1229;
var viewHeight = 189;
var sectionId = 'dynsection-2';
</script>
<script xlink:href="../../svgpan.js"/>
<svg id="graph" class="graph">
<g id="viewport">
<title>javolution.osgi.internal.JavolutionActivator.start</title>
<polygon fill="white" stroke="transparent" points="-4,4 -4,-185 1225,-185 1225,4 -4,4"/>
<!-- Node1 -->
<g id="node1" class="node">
<title>Node1</title>
<g id="a_node1"><a xlink:title=" ">
<polygon fill="#bfbfbf" stroke="black" points="0,-122.5 0,-152.5 134,-152.5 134,-122.5 0,-122.5"/>
<text text-anchor="start" x="8" y="-140.5" font-family="Helvetica,sans-Serif" font-size="10.00">javolution.osgi.internal.</text>
<text text-anchor="middle" x="67" y="-129.5" font-family="Helvetica,sans-Serif" font-size="10.00">JavolutionActivator.start</text>
</a>
</g>
</g>
<!-- Node2 -->
<g id="node2" class="node">
<title>Node2</title>
<g id="a_node2"><a xlink:href="../../d4/d3c/classjavolution_1_1osgi_1_1internal_1_1ServiceTrackerImpl.html#a76056c6e98c79cfb24b76498c8aabf76" target="_top" xlink:title=" ">
<polygon fill="white" stroke="black" points="179.5,-150.5 179.5,-180.5 331.5,-180.5 331.5,-150.5 179.5,-150.5"/>
<text text-anchor="start" x="187.5" y="-168.5" font-family="Helvetica,sans-Serif" font-size="10.00">javolution.osgi.internal.</text>
<text text-anchor="middle" x="255.5" y="-157.5" font-family="Helvetica,sans-Serif" font-size="10.00">ServiceTrackerImpl.activate</text>
</a>
</g>
</g>
<!-- Node1&#45;&gt;Node2 -->
<g id="edge1" class="edge">
<title>Node1&#45;&gt;Node2</title>
<path fill="none" stroke="midnightblue" d="M134.02,-147.41C145.48,-149.13 157.54,-150.94 169.42,-152.73"/>
<polygon fill="midnightblue" stroke="midnightblue" points="168.94,-156.19 179.35,-154.22 169.98,-149.27 168.94,-156.19"/>
</g>
<!-- Node3 -->
<g id="node3" class="node">
<title>Node3</title>
<g id="a_node3"><a xlink:href="../../d8/d20/classjavolution_1_1osgi_1_1internal_1_1OSGiServices.html#acb73fa260ca4cdc4056c3b16d69694b6" target="_top" xlink:title=" ">
<polygon fill="white" stroke="black" points="170,-90 170,-131 341,-131 341,-90 170,-90"/>
<text text-anchor="start" x="178" y="-119" font-family="Helvetica,sans-Serif" font-size="10.00">javolution.osgi.internal.</text>
<text text-anchor="start" x="178" y="-108" font-family="Helvetica,sans-Serif" font-size="10.00">OSGiServices.initializeRealtime</text>
<text text-anchor="middle" x="255.5" y="-97" font-family="Helvetica,sans-Serif" font-size="10.00">Classes</text>
</a>
</g>
</g>
<!-- Node1&#45;&gt;Node3 -->
<g id="edge2" class="edge">
<title>Node1&#45;&gt;Node3</title>
<path fill="none" stroke="midnightblue" d="M134.02,-127.94C142.47,-126.72 151.24,-125.45 160.04,-124.18"/>
<polygon fill="midnightblue" stroke="midnightblue" points="160.56,-127.64 169.95,-122.74 159.55,-120.71 160.56,-127.64"/>
</g>
<!-- Node4 -->
<g id="node4" class="node">
<title>Node4</title>
<g id="a_node4"><a xlink:href="../../d2/dc3/classjavolution_1_1lang_1_1Initializer.html#a9b0b912560d37b4b80ee61416ffa1503" target="_top" xlink:title=" ">
<polygon fill="white" stroke="black" points="377,-71.5 377,-101.5 559,-101.5 559,-71.5 377,-71.5"/>
<text text-anchor="start" x="385" y="-89.5" font-family="Helvetica,sans-Serif" font-size="10.00">javolution.lang.Initializer.initialize</text>
<text text-anchor="middle" x="468" y="-78.5" font-family="Helvetica,sans-Serif" font-size="10.00">LoadedClasses</text>
</a>
</g>
</g>
<!-- Node3&#45;&gt;Node4 -->
<g id="edge3" class="edge">
<title>Node3&#45;&gt;Node4</title>
<path fill="none" stroke="midnightblue" d="M341.21,-100.84C349.67,-99.88 358.31,-98.89 366.9,-97.91"/>
<polygon fill="midnightblue" stroke="midnightblue" points="367.42,-101.38 376.96,-96.77 366.63,-94.42 367.42,-101.38"/>
</g>
<!-- Node13 -->
<g id="node13" class="node">
<title>Node13</title>
<g id="a_node13"><a xlink:href="../../d2/dc3/classjavolution_1_1lang_1_1Initializer.html#a3762b5ff0428c43024b98863e8674864" target="_top" xlink:title=" ">
<polygon fill="white" stroke="black" points="387.5,-120.5 387.5,-150.5 548.5,-150.5 548.5,-120.5 387.5,-120.5"/>
<text text-anchor="start" x="395.5" y="-138.5" font-family="Helvetica,sans-Serif" font-size="10.00">javolution.lang.Initializer.load</text>
<text text-anchor="middle" x="468" y="-127.5" font-family="Helvetica,sans-Serif" font-size="10.00">Class</text>
</a>
</g>
</g>
<!-- Node3&#45;&gt;Node13 -->
<g id="edge14" class="edge">
<title>Node3&#45;&gt;Node13</title>
<path fill="none" stroke="midnightblue" d="M341.21,-120.56C353.08,-121.97 365.31,-123.42 377.27,-124.84"/>
<polygon fill="midnightblue" stroke="midnightblue" points="376.9,-128.32 387.24,-126.03 377.72,-121.37 376.9,-128.32"/>
</g>
<!-- Node5 -->
<g id="node5" class="node">
<title>Node5</title>
<g id="a_node5"><a xlink:href="../../db/de8/classjavolution_1_1context_1_1LogContext.html#af5f74866879390693180e6f5edec892b" target="_top" xlink:title=" ">
<polygon fill="white" stroke="black" points="595,-126 595,-145 792,-145 792,-126 595,-126"/>
<text text-anchor="middle" x="693.5" y="-133" font-family="Helvetica,sans-Serif" font-size="10.00">javolution.context.LogContext.debug</text>
</a>
</g>
</g>
<!-- Node4&#45;&gt;Node5 -->
<g id="edge4" class="edge">
<title>Node4&#45;&gt;Node5</title>
<path fill="none" stroke="midnightblue" d="M529.77,-101.5C550.43,-106.46 573.68,-111.89 595,-116.5 606.79,-119.05 619.41,-121.62 631.53,-124.02"/>
<polygon fill="midnightblue" stroke="midnightblue" points="631.08,-127.5 641.56,-125.99 632.42,-120.63 631.08,-127.5"/>
</g>
<!-- Node10 -->
<g id="node10" class="node">
<title>Node10</title>
<g id="a_node10"><a xlink:href="../../db/de8/classjavolution_1_1context_1_1LogContext.html#aad30fc061509a1c2df28a7d1eb45683a" target="_top" xlink:title=" ">
<polygon fill="white" stroke="black" points="598.5,-88 598.5,-107 788.5,-107 788.5,-88 598.5,-88"/>
<text text-anchor="middle" x="693.5" y="-95" font-family="Helvetica,sans-Serif" font-size="10.00">javolution.context.LogContext.error</text>
</a>
</g>
</g>
<!-- Node4&#45;&gt;Node10 -->
<g id="edge9" class="edge">
<title>Node4&#45;&gt;Node10</title>
<path fill="none" stroke="midnightblue" d="M559.26,-90.94C568.79,-91.41 578.54,-91.89 588.21,-92.37"/>
<polygon fill="midnightblue" stroke="midnightblue" points="588.09,-95.87 598.25,-92.86 588.44,-88.87 588.09,-95.87"/>
</g>
<!-- Node11 -->
<g id="node11" class="node">
<title>Node11</title>
<g id="a_node11"><a xlink:href="../../d5/dc7/classjavolution_1_1lang_1_1Configurable.html#acfc73c1a51100496669475671eabf46e" target="_top" xlink:title=" ">
<polygon fill="white" stroke="black" points="607,-50 607,-69 780,-69 780,-50 607,-50"/>
<text text-anchor="middle" x="693.5" y="-57" font-family="Helvetica,sans-Serif" font-size="10.00">javolution.lang.Configurable.get</text>
</a>
</g>
</g>
<!-- Node4&#45;&gt;Node11 -->
<g id="edge12" class="edge">
<title>Node4&#45;&gt;Node11</title>
<path fill="none" stroke="midnightblue" d="M559.26,-75.6C573.93,-73.82 589.11,-71.99 603.74,-70.22"/>
<polygon fill="midnightblue" stroke="midnightblue" points="604.26,-73.69 613.77,-69.01 603.42,-66.74 604.26,-73.69"/>
</g>
<!-- Node12 -->
<g id="node12" class="node">
<title>Node12</title>
<g id="a_node12"><a xlink:href="../../d2/dc3/classjavolution_1_1lang_1_1Initializer.html#a68256b55c09275866d2caa7d8a7edcc5" target="_top" xlink:title=" ">
<polygon fill="white" stroke="black" points="607,-0.5 607,-30.5 780,-30.5 780,-0.5 607,-0.5"/>
<text text-anchor="start" x="615" y="-18.5" font-family="Helvetica,sans-Serif" font-size="10.00">javolution.lang.Initializer.loaded</text>
<text text-anchor="middle" x="693.5" y="-7.5" font-family="Helvetica,sans-Serif" font-size="10.00">Classes</text>
</a>
</g>
</g>
<!-- Node4&#45;&gt;Node12 -->
<g id="edge13" class="edge">
<title>Node4&#45;&gt;Node12</title>
<path fill="none" stroke="midnightblue" d="M507.27,-71.41C532.07,-61.91 565.19,-49.74 595,-40.5 603.19,-37.96 611.81,-35.48 620.41,-33.12"/>
<polygon fill="midnightblue" stroke="midnightblue" points="621.34,-36.5 630.09,-30.52 619.52,-29.74 621.34,-36.5"/>
</g>
<!-- Node6 -->
<g id="node6" class="node">
<title>Node6</title>
<g id="a_node6"><a xlink:href="../../db/de8/classjavolution_1_1context_1_1LogContext.html#a3ad63f63b01950647a13c980c14c111a" target="_top" xlink:title=" ">
<polygon fill="white" stroke="black" points="828,-123.5 828,-153.5 1029,-153.5 1029,-123.5 828,-123.5"/>
<text text-anchor="start" x="836" y="-141.5" font-family="Helvetica,sans-Serif" font-size="10.00">javolution.context.LogContext.current</text>
<text text-anchor="middle" x="928.5" y="-130.5" font-family="Helvetica,sans-Serif" font-size="10.00">LogContext</text>
</a>
</g>
</g>
<!-- Node5&#45;&gt;Node6 -->
<g id="edge5" class="edge">
<title>Node5&#45;&gt;Node6</title>
<path fill="none" stroke="midnightblue" d="M792.3,-136.76C800.62,-136.87 809.08,-136.98 817.48,-137.08"/>
<polygon fill="midnightblue" stroke="midnightblue" points="817.66,-140.59 827.71,-137.22 817.75,-133.59 817.66,-140.59"/>
</g>
<!-- Node9 -->
<g id="node9" class="node">
<title>Node9</title>
<g id="a_node9"><a xlink:href="../../db/de8/classjavolution_1_1context_1_1LogContext.html#a1f213be4946618a105225786df8210b1" target="_top" xlink:title=" ">
<polygon fill="white" stroke="black" points="837.5,-85 837.5,-104 1019.5,-104 1019.5,-85 837.5,-85"/>
<text text-anchor="middle" x="928.5" y="-92" font-family="Helvetica,sans-Serif" font-size="10.00">javolution.context.LogContext.log</text>
</a>
</g>
</g>
<!-- Node5&#45;&gt;Node9 -->
<g id="edge8" class="edge">
<title>Node5&#45;&gt;Node9</title>
<path fill="none" stroke="midnightblue" d="M748.54,-125.99C782.82,-119.96 827.35,-112.12 863.42,-105.78"/>
<polygon fill="midnightblue" stroke="midnightblue" points="864.11,-109.21 873.35,-104.03 862.89,-102.31 864.11,-109.21"/>
</g>
<!-- Node7 -->
<g id="node7" class="node">
<title>Node7</title>
<g id="a_node7"><a xlink:href="../../d3/d0f/classjavolution_1_1context_1_1AbstractContext.html#a39804b0188cf822819d88f43715deaba" target="_top" xlink:title=" ">
<polygon fill="white" stroke="black" points="1068.5,-148.5 1068.5,-178.5 1217.5,-178.5 1217.5,-148.5 1068.5,-148.5"/>
<text text-anchor="start" x="1076.5" y="-166.5" font-family="Helvetica,sans-Serif" font-size="10.00">javolution.context.Abstract</text>
<text text-anchor="middle" x="1143" y="-155.5" font-family="Helvetica,sans-Serif" font-size="10.00">Context.current</text>
</a>
</g>
</g>
<!-- Node6&#45;&gt;Node7 -->
<g id="edge6" class="edge">
<title>Node6&#45;&gt;Node7</title>
<path fill="none" stroke="midnightblue" d="M1029.22,-150.23C1038.88,-151.37 1048.61,-152.51 1058.1,-153.63"/>
<polygon fill="midnightblue" stroke="midnightblue" points="1057.93,-157.13 1068.28,-154.83 1058.75,-150.18 1057.93,-157.13"/>
</g>
<!-- Node8 -->
<g id="node8" class="node">
<title>Node8</title>
<g id="a_node8"><a xlink:href="../../d8/d20/classjavolution_1_1osgi_1_1internal_1_1OSGiServices.html#a2a13065b92db2d08ab44d0005a3421a4" target="_top" xlink:title=" ">
<polygon fill="white" stroke="black" points="1065,-99.5 1065,-129.5 1221,-129.5 1221,-99.5 1065,-99.5"/>
<text text-anchor="start" x="1073" y="-117.5" font-family="Helvetica,sans-Serif" font-size="10.00">javolution.osgi.internal.</text>
<text text-anchor="middle" x="1143" y="-106.5" font-family="Helvetica,sans-Serif" font-size="10.00">OSGiServices.getLogContext</text>
</a>
</g>
</g>
<!-- Node6&#45;&gt;Node8 -->
<g id="edge7" class="edge">
<title>Node6&#45;&gt;Node8</title>
<path fill="none" stroke="midnightblue" d="M1029.22,-127.24C1037.73,-126.28 1046.29,-125.31 1054.69,-124.36"/>
<polygon fill="midnightblue" stroke="midnightblue" points="1055.3,-127.81 1064.85,-123.21 1054.52,-120.86 1055.3,-127.81"/>
</g>
<!-- Node10&#45;&gt;Node6 -->
<g id="edge10" class="edge">
<title>Node10&#45;&gt;Node6</title>
<path fill="none" stroke="midnightblue" d="M748.54,-107.01C773.31,-111.37 803.44,-116.67 831.85,-121.67"/>
<polygon fill="midnightblue" stroke="midnightblue" points="831.36,-125.14 841.81,-123.42 832.57,-118.24 831.36,-125.14"/>
</g>
<!-- Node10&#45;&gt;Node9 -->
<g id="edge11" class="edge">
<title>Node10&#45;&gt;Node9</title>
<path fill="none" stroke="midnightblue" d="M788.6,-96.29C801.26,-96.13 814.28,-95.96 827.04,-95.79"/>
<polygon fill="midnightblue" stroke="midnightblue" points="827.25,-99.29 837.21,-95.66 827.16,-92.29 827.25,-99.29"/>
</g>
<!-- Node13&#45;&gt;Node5 -->
<g id="edge15" class="edge">
<title>Node13&#45;&gt;Node5</title>
<path fill="none" stroke="midnightblue" d="M548.74,-135.5C560.4,-135.5 572.56,-135.5 584.66,-135.5"/>
<polygon fill="midnightblue" stroke="midnightblue" points="584.8,-139 594.8,-135.5 584.8,-132 584.8,-139"/>
</g>
</g>
</svg>
        <g id="navigator" transform="translate(0 0)" fill="#404254">
                <rect fill="#f2f5e9" fill-opacity="0.5" stroke="#606060" stroke-width=".5" x="0" y="0" width="60" height="60"/>
                <use id="zoomplus" xlink:href="#zoomPlus" x="17" y="9" onmousedown="handleZoom(evt,'in')"/>
                <use id="zoomminus" xlink:href="#zoomMin" x="42" y="9" onmousedown="handleZoom(evt,'out')"/>
                <use id="reset" xlink:href="#resetDef" x="30" y="36" onmousedown="handleReset()"/>
                <g id="arrowUp" xlink:href="#dirArrow" transform="translate(30 24)" onmousedown="handlePan(0,-1)">
                  <use xlink:href="#rim" fill="#404040">
                        <set attributeName="fill" to="#808080" begin="arrowUp.mouseover" end="arrowUp.mouseout"/>
                  </use>
                  <path fill="none" stroke="white" stroke-width="1.5" d="M0,-3.0v7 M-2.5,-0.5L0,-3.0L2.5,-0.5"/>
                </g>
                <g id="arrowRight" xlink:href="#dirArrow" transform="rotate(90) translate(36 -43)" onmousedown="handlePan(1,0)">
                  <use xlink:href="#rim" fill="#404040">
                        <set attributeName="fill" to="#808080" begin="arrowRight.mouseover" end="arrowRight.mouseout"/>
                  </use>
                  <path fill="none" stroke="white" stroke-width="1.5" d="M0,-3.0v7 M-2.5,-0.5L0,-3.0L2.5,-0.5"/>
                </g>
                <g id="arrowDown" xlink:href="#dirArrow" transform="rotate(180) translate(-30 -48)" onmousedown="handlePan(0,1)">
                  <use xlink:href="#rim" fill="#404040">
                        <set attributeName="fill" to="#808080" begin="arrowDown.mouseover" end="arrowDown.mouseout"/>
                  </use>
                  <path fill="none" stroke="white" stroke-width="1.5" d="M0,-3.0v7 M-2.5,-0.5L0,-3.0L2.5,-0.5"/>
                </g>
                <g id="arrowLeft" xlink:href="#dirArrow" transform="rotate(270) translate(-36 17)" onmousedown="handlePan(-1,0)">
                  <use xlink:href="#rim" fill="#404040">
                        <set attributeName="fill" to="#808080" begin="arrowLeft.mouseover" end="arrowLeft.mouseout"/>
                  </use>
                  <path fill="none" stroke="white" stroke-width="1.5" d="M0,-3.0v7 M-2.5,-0.5L0,-3.0L2.5,-0.5"/>
                </g>
        </g>
        <svg viewBox="0 0 15 15" width="100%" height="30px" preserveAspectRatio="xMaxYMin meet">
         <g id="arrow_out" transform="scale(0.3 0.3)">
          <a xlink:href="classjavolution_1_1osgi_1_1internal_1_1JavolutionActivator_a073a569fac72d21f478798745b026435_cgraph_org.svg" target="_base">
           <rect id="button" ry="5" rx="5" y="6" x="6" height="38" width="38"
                fill="#f2f5e9" fill-opacity="0.5" stroke="#606060" stroke-width="1.0"/>
           <path id="arrow"
             d="M 11.500037,31.436501 C 11.940474,20.09759 22.043105,11.32322 32.158766,21.979434 L 37.068811,17.246167 C 37.068811,17.246167 37.088388,32 37.088388,32 L 22.160133,31.978069 C 22.160133,31.978069 26.997745,27.140456 26.997745,27.140456 C 18.528582,18.264221 13.291696,25.230495 11.500037,31.436501 z"
             style="fill:#404040;"/>
          </a>
         </g>
        </svg>
</svg>
