<?xml version="1.0" encoding="UTF-8" standalone="no"?>
<!DOCTYPE svg PUBLIC "-//W3C//DTD SVG 1.1//EN"
 "http://www.w3.org/Graphics/SVG/1.1/DTD/svg11.dtd">
<!-- Generated by graphviz version 2.43.0 (0)
 -->
<!-- Title: javolution.lang.Immutable&lt; T &gt; Pages: 1 -->
<svg width="550pt" height="156pt"
 viewBox="0.00 0.00 550.00 156.00" xmlns="http://www.w3.org/2000/svg" xmlns:xlink="http://www.w3.org/1999/xlink">
<g id="graph0" class="graph" transform="scale(1 1) rotate(0) translate(4 152)">
<title>javolution.lang.Immutable&lt; T &gt;</title>
<polygon fill="white" stroke="transparent" points="-4,4 -4,-152 546,-152 546,4 -4,4"/>
<!-- Node1 -->
<g id="node1" class="node">
<title>Node1</title>
<g id="a_node1"><a xlink:title=" ">
<polygon fill="#bfbfbf" stroke="black" points="0,-55 0,-74 174,-74 174,-55 0,-55"/>
<text text-anchor="middle" x="87" y="-62" font-family="Helvetica,sans-Serif" font-size="10.00">javolution.lang.Immutable&lt; T &gt;</text>
</a>
</g>
</g>
<!-- Node2 -->
<g id="node2" class="node">
<title>Node2</title>
<g id="a_node2"><a xlink:href="../../d0/dc3/interfacejavolution_1_1lang_1_1ValueType.html" target="_top" xlink:title=" ">
<polygon fill="white" stroke="black" points="210,-99 210,-118 386,-118 386,-99 210,-99"/>
<text text-anchor="middle" x="298" y="-106" font-family="Helvetica,sans-Serif" font-size="10.00">javolution::lang::ValueType&lt; T &gt;</text>
</a>
</g>
</g>
<!-- Node1&#45;&gt;Node2 -->
<g id="edge1" class="edge">
<title>Node1&#45;&gt;Node2</title>
<path fill="none" stroke="midnightblue" d="M143.54,-76.19C177.35,-83.31 219.99,-92.29 251.74,-98.97"/>
<polygon fill="midnightblue" stroke="midnightblue" points="143.86,-72.68 133.35,-74.05 142.41,-79.53 143.86,-72.68"/>
</g>
<!-- Node5 -->
<g id="node5" class="node">
<title>Node5</title>
<g id="a_node5"><a xlink:href="../../dc/d34/classjavolution_1_1text_1_1CharSet.html" target="_top" xlink:title=" ">
<polygon fill="white" stroke="black" points="230.5,-49.5 230.5,-79.5 365.5,-79.5 365.5,-49.5 230.5,-49.5"/>
<text text-anchor="start" x="238.5" y="-67.5" font-family="Helvetica,sans-Serif" font-size="10.00">javolution::text::CharSet</text>
<text text-anchor="middle" x="298" y="-56.5" font-family="Helvetica,sans-Serif" font-size="10.00">&lt; CharSet &gt;</text>
</a>
</g>
</g>
<!-- Node1&#45;&gt;Node5 -->
<g id="edge4" class="edge">
<title>Node1&#45;&gt;Node5</title>
<path fill="none" stroke="midnightblue" d="M184.4,-64.5C199.98,-64.5 215.8,-64.5 230.46,-64.5"/>
<polygon fill="midnightblue" stroke="midnightblue" points="184.21,-61 174.21,-64.5 184.21,-68 184.21,-61"/>
</g>
<!-- Node6 -->
<g id="node6" class="node">
<title>Node6</title>
<g id="a_node6"><a xlink:href="../../d0/dc4/classjavolution_1_1xml_1_1QName.html" target="_top" xlink:title=" ">
<polygon fill="white" stroke="black" points="231.5,-0.5 231.5,-30.5 364.5,-30.5 364.5,-0.5 231.5,-0.5"/>
<text text-anchor="start" x="239.5" y="-18.5" font-family="Helvetica,sans-Serif" font-size="10.00">javolution::xml::QName</text>
<text text-anchor="middle" x="298" y="-7.5" font-family="Helvetica,sans-Serif" font-size="10.00">&lt; QName &gt;</text>
</a>
</g>
</g>
<!-- Node1&#45;&gt;Node6 -->
<g id="edge5" class="edge">
<title>Node1&#45;&gt;Node6</title>
<path fill="none" stroke="midnightblue" d="M138.87,-52.57C167.17,-45.94 202.67,-37.61 232.86,-30.54"/>
<polygon fill="midnightblue" stroke="midnightblue" points="137.73,-49.25 128.79,-54.94 139.33,-56.06 137.73,-49.25"/>
</g>
<!-- Node3 -->
<g id="node3" class="node">
<title>Node3</title>
<g id="a_node3"><a xlink:href="../../dc/d6d/classjavolution_1_1text_1_1Text.html" target="_top" xlink:title=" ">
<polygon fill="white" stroke="black" points="423.5,-117.5 423.5,-147.5 540.5,-147.5 540.5,-117.5 423.5,-117.5"/>
<text text-anchor="start" x="431.5" y="-135.5" font-family="Helvetica,sans-Serif" font-size="10.00">javolution::text::Text</text>
<text text-anchor="middle" x="482" y="-124.5" font-family="Helvetica,sans-Serif" font-size="10.00">&lt; Text &gt;</text>
</a>
</g>
</g>
<!-- Node2&#45;&gt;Node3 -->
<g id="edge2" class="edge">
<title>Node2&#45;&gt;Node3</title>
<path fill="none" stroke="midnightblue" d="M381.46,-119.37C395.65,-121.25 410.13,-123.15 423.48,-124.92"/>
<polygon fill="midnightblue" stroke="midnightblue" points="381.56,-115.86 371.19,-118.02 380.65,-122.8 381.56,-115.86"/>
</g>
<!-- Node4 -->
<g id="node4" class="node">
<title>Node4</title>
<g id="a_node4"><a xlink:href="../../d4/d60/classjavolution_1_1util_1_1Index.html" target="_top" xlink:title=" ">
<polygon fill="white" stroke="black" points="422,-68.5 422,-98.5 542,-98.5 542,-68.5 422,-68.5"/>
<text text-anchor="start" x="430" y="-86.5" font-family="Helvetica,sans-Serif" font-size="10.00">javolution::util::Index</text>
<text text-anchor="middle" x="482" y="-75.5" font-family="Helvetica,sans-Serif" font-size="10.00">&lt; Index &gt;</text>
</a>
</g>
</g>
<!-- Node2&#45;&gt;Node4 -->
<g id="edge3" class="edge">
<title>Node2&#45;&gt;Node4</title>
<path fill="none" stroke="midnightblue" d="M378.37,-97.6C393.01,-95.59 408.05,-93.52 421.96,-91.61"/>
<polygon fill="midnightblue" stroke="midnightblue" points="377.76,-94.15 368.33,-98.98 378.71,-101.08 377.76,-94.15"/>
</g>
</g>
</svg>
