<?xml version="1.0" encoding="UTF-8" standalone="no"?>
<!DOCTYPE svg PUBLIC "-//W3C//DTD SVG 1.1//EN"
 "http://www.w3.org/Graphics/SVG/1.1/DTD/svg11.dtd">
<!-- Generated by graphviz version 2.43.0 (0)
 -->
<!-- Title: javolution.io.UTF8StreamReader.setInput Pages: 1 -->
<svg width="357pt" height="88pt"
 viewBox="0.00 0.00 357.00 88.00" xmlns="http://www.w3.org/2000/svg" xmlns:xlink="http://www.w3.org/1999/xlink">
<g id="graph0" class="graph" transform="scale(1 1) rotate(0) translate(4 84)">
<title>javolution.io.UTF8StreamReader.setInput</title>
<polygon fill="white" stroke="transparent" points="-4,4 -4,-84 353,-84 353,4 -4,4"/>
<!-- Node1 -->
<g id="node1" class="node">
<title>Node1</title>
<g id="a_node1"><a xlink:title=" ">
<polygon fill="#bfbfbf" stroke="black" points="208,-24.5 208,-54.5 349,-54.5 349,-24.5 208,-24.5"/>
<text text-anchor="start" x="216" y="-42.5" font-family="Helvetica,sans-Serif" font-size="10.00">javolution.io.UTF8Stream</text>
<text text-anchor="middle" x="278.5" y="-31.5" font-family="Helvetica,sans-Serif" font-size="10.00">Reader.setInput</text>
</a>
</g>
</g>
<!-- Node2 -->
<g id="node2" class="node">
<title>Node2</title>
<g id="a_node2"><a xlink:href="../../d0/d65/classjavolution_1_1xml_1_1internal_1_1stream_1_1XMLStreamReaderImpl.html#aee8c1ea975e36aaa3d5f3ee31c15c02f" target="_top" xlink:title=" ">
<polygon fill="white" stroke="black" points="0,-49.5 0,-79.5 172,-79.5 172,-49.5 0,-49.5"/>
<text text-anchor="start" x="8" y="-67.5" font-family="Helvetica,sans-Serif" font-size="10.00">javolution.xml.internal.stream.</text>
<text text-anchor="middle" x="86" y="-56.5" font-family="Helvetica,sans-Serif" font-size="10.00">XMLStreamReaderImpl.setInput</text>
</a>
</g>
</g>
<!-- Node1&#45;&gt;Node2 -->
<g id="edge1" class="edge">
<title>Node1&#45;&gt;Node2</title>
<path fill="none" stroke="midnightblue" d="M197.75,-49.97C189.33,-51.07 180.75,-52.2 172.28,-53.31"/>
<polygon fill="midnightblue" stroke="midnightblue" points="198.46,-53.4 207.92,-48.63 197.55,-46.46 198.46,-53.4"/>
</g>
<!-- Node3 -->
<g id="node3" class="node">
<title>Node3</title>
<g id="a_node3"><a xlink:href="../../d6/da9/classjavolution_1_1io_1_1UTF8StreamReader.html#af41fa4aa0ef5cf673e83be98eafc8064" target="_top" xlink:title=" ">
<polygon fill="white" stroke="black" points="15.5,-0.5 15.5,-30.5 156.5,-30.5 156.5,-0.5 15.5,-0.5"/>
<text text-anchor="start" x="23.5" y="-18.5" font-family="Helvetica,sans-Serif" font-size="10.00">javolution.io.UTF8Stream</text>
<text text-anchor="middle" x="86" y="-7.5" font-family="Helvetica,sans-Serif" font-size="10.00">Reader.setInputStream</text>
</a>
</g>
</g>
<!-- Node1&#45;&gt;Node3 -->
<g id="edge2" class="edge">
<title>Node1&#45;&gt;Node3</title>
<path fill="none" stroke="midnightblue" d="M197.63,-29.44C184.04,-27.72 170.02,-25.96 156.71,-24.28"/>
<polygon fill="midnightblue" stroke="midnightblue" points="197.56,-32.96 207.92,-30.73 198.43,-26.01 197.56,-32.96"/>
</g>
</g>
</svg>
