<?xml version="1.0" encoding="UTF-8" standalone="no"?>
<!DOCTYPE svg PUBLIC "-//W3C//DTD SVG 1.1//EN"
 "http://www.w3.org/Graphics/SVG/1.1/DTD/svg11.dtd">
<!-- Generated by graphviz version 2.43.0 (0)
 -->
<!-- Title: javolution.util.function.Reducers.AndReducer Pages: 1 -->
<svg width="212pt" height="117pt"
 viewBox="0.00 0.00 212.00 117.00" xmlns="http://www.w3.org/2000/svg" xmlns:xlink="http://www.w3.org/1999/xlink">
<g id="graph0" class="graph" transform="scale(1 1) rotate(0) translate(4 113)">
<title>javolution.util.function.Reducers.AndReducer</title>
<polygon fill="white" stroke="transparent" points="-4,4 -4,-113 208,-113 208,4 -4,4"/>
<!-- Node1 -->
<g id="node1" class="node">
<title>Node1</title>
<g id="a_node1"><a xlink:title=" ">
<polygon fill="#bfbfbf" stroke="black" points="55,-0.5 55,-30.5 185,-30.5 185,-0.5 55,-0.5"/>
<text text-anchor="start" x="63" y="-18.5" font-family="Helvetica,sans-Serif" font-size="10.00">javolution.util.function.</text>
<text text-anchor="middle" x="120" y="-7.5" font-family="Helvetica,sans-Serif" font-size="10.00">Reducers.AndReducer</text>
</a>
</g>
</g>
<!-- Node2 -->
<g id="node2" class="node">
<title>Node2</title>
<g id="a_node2"><a xlink:href="../../d4/dae/interfacejavolution_1_1util_1_1function_1_1Reducer.html" target="_top" xlink:title=" ">
<polygon fill="white" stroke="black" points="0,-78.5 0,-108.5 130,-108.5 130,-78.5 0,-78.5"/>
<text text-anchor="start" x="8" y="-96.5" font-family="Helvetica,sans-Serif" font-size="10.00">javolution.util.function.</text>
<text text-anchor="middle" x="65" y="-85.5" font-family="Helvetica,sans-Serif" font-size="10.00">Reducer&lt; Boolean &gt;</text>
</a>
</g>
</g>
<!-- Node2&#45;&gt;Node1 -->
<g id="edge1" class="edge">
<title>Node2&#45;&gt;Node1</title>
<path fill="none" stroke="midnightblue" d="M81.33,-69.94C90.52,-57.23 101.72,-41.75 109.7,-30.73"/>
<polygon fill="midnightblue" stroke="midnightblue" points="78.37,-68.05 75.35,-78.2 84.04,-72.16 78.37,-68.05"/>
</g>
<!-- Node3 -->
<g id="node3" class="node">
<title>Node3</title>
<g id="a_node3"><a xlink:title=" ">
<polygon fill="white" stroke="#bfbfbf" points="148,-84 148,-103 204,-103 204,-84 148,-84"/>
<text text-anchor="middle" x="176" y="-91" font-family="Helvetica,sans-Serif" font-size="10.00">boolean</text>
</a>
</g>
</g>
<!-- Node3&#45;&gt;Node1 -->
<g id="edge2" class="edge">
<title>Node3&#45;&gt;Node1</title>
<path fill="none" stroke="#9a32cd" stroke-dasharray="5,2" d="M163.37,-75.37C153.4,-61.83 139.66,-43.17 130.33,-30.52"/>
<polygon fill="#9a32cd" stroke="#9a32cd" points="160.83,-77.81 169.58,-83.78 166.46,-73.66 160.83,-77.81"/>
<text text-anchor="middle" x="166.5" y="-52" font-family="Helvetica,sans-Serif" font-size="10.00"> result</text>
</g>
</g>
</svg>
