<?xml version="1.0" encoding="UTF-8" standalone="no"?>
<!DOCTYPE svg PUBLIC "-//W3C//DTD SVG 1.1//EN"
 "http://www.w3.org/Graphics/SVG/1.1/DTD/svg11.dtd">
<!-- Generated by graphviz version 2.43.0 (0)
 -->
<!-- Title: Graphical Class Hierarchy Pages: 1 -->
<svg width="373pt" height="219pt"
 viewBox="0.00 0.00 373.00 218.50" xmlns="http://www.w3.org/2000/svg" xmlns:xlink="http://www.w3.org/1999/xlink">
<g id="graph0" class="graph" transform="scale(1 1) rotate(0) translate(4 214.5)">
<title>Graphical Class Hierarchy</title>
<polygon fill="white" stroke="transparent" points="-4,4 -4,-214.5 369,-214.5 369,4 -4,4"/>
<!-- Node325 -->
<g id="node1" class="node">
<title>Node325</title>
<g id="a_node1"><a xlink:title=" ">
<polygon fill="white" stroke="#bfbfbf" points="41,-153 41,-172 117,-172 117,-153 41,-153"/>
<text text-anchor="middle" x="79" y="-160" font-family="Helvetica,sans-Serif" font-size="10.00">DTDHandler</text>
</a>
</g>
</g>
<!-- Node3 -->
<g id="node2" class="node">
<title>Node3</title>
<g id="a_node2"><a xlink:href="d1/de4/classjavolution_1_1xml_1_1sax_1_1SAX2ReaderImpl_1_1Sax2DefaultHandler.html" target="_top" xlink:title=" ">
<polygon fill="white" stroke="black" points="194,-147.5 194,-177.5 365,-177.5 365,-147.5 194,-147.5"/>
<text text-anchor="start" x="202" y="-165.5" font-family="Helvetica,sans-Serif" font-size="10.00">javolution.xml.sax.SAX2Reader</text>
<text text-anchor="middle" x="279.5" y="-154.5" font-family="Helvetica,sans-Serif" font-size="10.00">Impl.Sax2DefaultHandler</text>
</a>
</g>
</g>
<!-- Node325&#45;&gt;Node3 -->
<g id="edge1" class="edge">
<title>Node325&#45;&gt;Node3</title>
<path fill="none" stroke="midnightblue" d="M127.34,-162.5C147.2,-162.5 170.91,-162.5 193.6,-162.5"/>
<polygon fill="midnightblue" stroke="midnightblue" points="127.34,-159 117.34,-162.5 127.34,-166 127.34,-159"/>
</g>
<!-- Node324 -->
<g id="node3" class="node">
<title>Node324</title>
<g id="a_node3"><a xlink:title=" ">
<polygon fill="white" stroke="#bfbfbf" points="35,-191 35,-210 123,-210 123,-191 35,-191"/>
<text text-anchor="middle" x="79" y="-198" font-family="Helvetica,sans-Serif" font-size="10.00">EntityResolver</text>
</a>
</g>
</g>
<!-- Node324&#45;&gt;Node3 -->
<g id="edge2" class="edge">
<title>Node324&#45;&gt;Node3</title>
<path fill="none" stroke="midnightblue" d="M133.15,-190.33C153.64,-186.4 177.51,-181.83 199.9,-177.55"/>
<polygon fill="midnightblue" stroke="midnightblue" points="132.24,-186.94 123.07,-192.25 133.55,-193.81 132.24,-186.94"/>
</g>
<!-- Node322 -->
<g id="node4" class="node">
<title>Node322</title>
<g id="a_node4"><a xlink:title=" ">
<polygon fill="white" stroke="#bfbfbf" points="40,-115 40,-134 118,-134 118,-115 40,-115"/>
<text text-anchor="middle" x="79" y="-122" font-family="Helvetica,sans-Serif" font-size="10.00">ErrorHandler</text>
</a>
</g>
</g>
<!-- Node322&#45;&gt;Node3 -->
<g id="edge4" class="edge">
<title>Node322&#45;&gt;Node3</title>
<path fill="none" stroke="midnightblue" d="M128.17,-133.72C149.77,-137.86 175.8,-142.84 200.08,-147.49"/>
<polygon fill="midnightblue" stroke="midnightblue" points="128.75,-130.27 118.27,-131.83 127.44,-137.14 128.75,-130.27"/>
</g>
<!-- Node1 -->
<g id="node5" class="node">
<title>Node1</title>
<g id="a_node5"><a xlink:href="d8/de2/classjavolution_1_1xml_1_1sax_1_1DefaultHandler.html" target="_top" xlink:title=" ">
<polygon fill="white" stroke="black" points="206.5,-98.5 206.5,-128.5 352.5,-128.5 352.5,-98.5 206.5,-98.5"/>
<text text-anchor="start" x="214.5" y="-116.5" font-family="Helvetica,sans-Serif" font-size="10.00">javolution.xml.sax.Default</text>
<text text-anchor="middle" x="279.5" y="-105.5" font-family="Helvetica,sans-Serif" font-size="10.00">Handler</text>
</a>
</g>
</g>
<!-- Node322&#45;&gt;Node1 -->
<g id="edge3" class="edge">
<title>Node322&#45;&gt;Node1</title>
<path fill="none" stroke="midnightblue" d="M128.29,-121.82C151.69,-120.53 180.26,-118.94 206.19,-117.51"/>
<polygon fill="midnightblue" stroke="midnightblue" points="128.06,-118.33 118.27,-122.38 128.45,-125.32 128.06,-118.33"/>
</g>
<!-- Node245 -->
<g id="node6" class="node">
<title>Node245</title>
<g id="a_node6"><a xlink:href="d4/d5e/interfacejavolution_1_1xml_1_1sax_1_1Attributes.html" target="_top" xlink:title=" ">
<polygon fill="white" stroke="black" points="0,-17 0,-36 158,-36 158,-17 0,-17"/>
<text text-anchor="middle" x="79" y="-24" font-family="Helvetica,sans-Serif" font-size="10.00">javolution.xml.sax.Attributes</text>
</a>
</g>
</g>
<!-- Node246 -->
<g id="node7" class="node">
<title>Node246</title>
<g id="a_node7"><a xlink:href="de/d89/classjavolution_1_1xml_1_1internal_1_1stream_1_1AttributesImpl.html" target="_top" xlink:title=" ">
<polygon fill="white" stroke="black" points="195.5,-0.5 195.5,-30.5 363.5,-30.5 363.5,-0.5 195.5,-0.5"/>
<text text-anchor="start" x="203.5" y="-18.5" font-family="Helvetica,sans-Serif" font-size="10.00">javolution.xml.internal.stream.</text>
<text text-anchor="middle" x="279.5" y="-7.5" font-family="Helvetica,sans-Serif" font-size="10.00">AttributesImpl</text>
</a>
</g>
</g>
<!-- Node245&#45;&gt;Node246 -->
<g id="edge5" class="edge">
<title>Node245&#45;&gt;Node246</title>
<path fill="none" stroke="midnightblue" d="M168.22,-21.61C177.18,-21.11 186.26,-20.61 195.17,-20.12"/>
<polygon fill="midnightblue" stroke="midnightblue" points="167.96,-18.12 158.17,-22.17 168.35,-25.11 167.96,-18.12"/>
</g>
<!-- Node2 -->
<g id="node8" class="node">
<title>Node2</title>
<g id="a_node8"><a xlink:href="dc/d8f/classjavolution_1_1xml_1_1sax_1_1SAX2ReaderImpl_1_1Proxy.html" target="_top" xlink:title=" ">
<polygon fill="white" stroke="black" points="194,-49.5 194,-79.5 365,-79.5 365,-49.5 194,-49.5"/>
<text text-anchor="start" x="202" y="-67.5" font-family="Helvetica,sans-Serif" font-size="10.00">javolution.xml.sax.SAX2Reader</text>
<text text-anchor="middle" x="279.5" y="-56.5" font-family="Helvetica,sans-Serif" font-size="10.00">Impl.Proxy</text>
</a>
</g>
</g>
<!-- Node245&#45;&gt;Node2 -->
<g id="edge6" class="edge">
<title>Node245&#45;&gt;Node2</title>
<path fill="none" stroke="midnightblue" d="M139.81,-37.95C158.75,-41.58 179.99,-45.64 200.03,-49.48"/>
<polygon fill="midnightblue" stroke="midnightblue" points="140.31,-34.48 129.83,-36.04 139,-41.36 140.31,-34.48"/>
</g>
<!-- Node0 -->
<g id="node9" class="node">
<title>Node0</title>
<g id="a_node9"><a xlink:href="d7/d7d/interfacejavolution_1_1xml_1_1sax_1_1ContentHandler.html" target="_top" xlink:title=" ">
<polygon fill="white" stroke="black" points="4.5,-65.5 4.5,-95.5 153.5,-95.5 153.5,-65.5 4.5,-65.5"/>
<text text-anchor="start" x="12.5" y="-83.5" font-family="Helvetica,sans-Serif" font-size="10.00">javolution.xml.sax.Content</text>
<text text-anchor="middle" x="79" y="-72.5" font-family="Helvetica,sans-Serif" font-size="10.00">Handler</text>
</a>
</g>
</g>
<!-- Node0&#45;&gt;Node3 -->
<g id="edge9" class="edge">
<title>Node0&#45;&gt;Node3</title>
<path fill="none" stroke="midnightblue" d="M146.49,-99.58C150.46,-101.4 154.33,-103.37 158,-105.5 176.77,-116.4 175.05,-127.92 194,-138.5 200.12,-141.92 206.78,-144.89 213.57,-147.45"/>
<polygon fill="midnightblue" stroke="midnightblue" points="147.63,-96.26 137.06,-95.59 144.91,-102.71 147.63,-96.26"/>
</g>
<!-- Node0&#45;&gt;Node1 -->
<g id="edge7" class="edge">
<title>Node0&#45;&gt;Node1</title>
<path fill="none" stroke="midnightblue" d="M163.83,-94.44C177.95,-96.78 192.51,-99.2 206.31,-101.5"/>
<polygon fill="midnightblue" stroke="midnightblue" points="164.07,-90.93 153.63,-92.74 162.92,-97.83 164.07,-90.93"/>
</g>
<!-- Node0&#45;&gt;Node2 -->
<g id="edge8" class="edge">
<title>Node0&#45;&gt;Node2</title>
<path fill="none" stroke="midnightblue" d="M163.9,-73.74C173.84,-72.94 183.99,-72.12 193.94,-71.32"/>
<polygon fill="midnightblue" stroke="midnightblue" points="163.32,-70.27 153.63,-74.56 163.88,-77.25 163.32,-70.27"/>
</g>
</g>
</svg>
