<?xml version="1.0" encoding="UTF-8" standalone="no"?>
<!DOCTYPE svg PUBLIC "-//W3C//DTD SVG 1.1//EN"
 "http://www.w3.org/Graphics/SVG/1.1/DTD/svg11.dtd">
<!-- Generated by graphviz version 2.43.0 (0)
 -->
<!-- Title: Graphical Class Hierarchy Pages: 1 -->
<svg width="468pt" height="83pt"
 viewBox="0.00 0.00 468.00 83.00" xmlns="http://www.w3.org/2000/svg" xmlns:xlink="http://www.w3.org/1999/xlink">
<g id="graph0" class="graph" transform="scale(1 1) rotate(0) translate(4 79)">
<title>Graphical Class Hierarchy</title>
<polygon fill="white" stroke="transparent" points="-4,4 -4,-79 464,-79 464,4 -4,4"/>
<!-- Node301 -->
<g id="node1" class="node">
<title>Node301</title>
<g id="a_node1"><a xlink:title=" ">
<polygon fill="white" stroke="#bfbfbf" points="0,-50 0,-69 70,-69 70,-50 0,-50"/>
<text text-anchor="middle" x="35" y="-57" font-family="Helvetica,sans-Serif" font-size="10.00">LogService</text>
</a>
</g>
</g>
<!-- Node3 -->
<g id="node2" class="node">
<title>Node3</title>
<g id="a_node2"><a xlink:href="d4/dcc/classjavolution_1_1osgi_1_1internal_1_1LogServiceImpl.html" target="_top" xlink:title=" ">
<polygon fill="white" stroke="black" points="124.5,-44.5 124.5,-74.5 256.5,-74.5 256.5,-44.5 124.5,-44.5"/>
<text text-anchor="start" x="132.5" y="-62.5" font-family="Helvetica,sans-Serif" font-size="10.00">javolution.osgi.internal.</text>
<text text-anchor="middle" x="190.5" y="-51.5" font-family="Helvetica,sans-Serif" font-size="10.00">LogServiceImpl</text>
</a>
</g>
</g>
<!-- Node301&#45;&gt;Node3 -->
<g id="edge1" class="edge">
<title>Node301&#45;&gt;Node3</title>
<path fill="none" stroke="midnightblue" d="M80.22,-59.5C93.98,-59.5 109.46,-59.5 124.34,-59.5"/>
<polygon fill="midnightblue" stroke="midnightblue" points="80.07,-56 70.07,-59.5 80.07,-63 80.07,-56"/>
</g>
<!-- Node0 -->
<g id="node3" class="node">
<title>Node0</title>
<g id="a_node3"><a xlink:href="d0/d51/classThread.html" target="_top" xlink:title=" ">
<polygon fill="white" stroke="black" points="10,-9 10,-28 60,-28 60,-9 10,-9"/>
<text text-anchor="middle" x="35" y="-16" font-family="Helvetica,sans-Serif" font-size="10.00">Thread</text>
</a>
</g>
</g>
<!-- Node0&#45;&gt;Node3 -->
<g id="edge4" class="edge">
<title>Node0&#45;&gt;Node3</title>
<path fill="none" stroke="midnightblue" d="M70.07,-27.6C88.59,-32.55 111.97,-38.79 133.13,-44.44"/>
<polygon fill="midnightblue" stroke="midnightblue" points="70.89,-24.2 60.32,-25 69.08,-30.96 70.89,-24.2"/>
</g>
<!-- Node1 -->
<g id="node4" class="node">
<title>Node1</title>
<g id="a_node4"><a xlink:href="d7/df2/classjavax_1_1realtime_1_1RealtimeThread.html" target="_top" xlink:title=" ">
<polygon fill="white" stroke="black" points="106,-6 106,-25 275,-25 275,-6 106,-6"/>
<text text-anchor="middle" x="190.5" y="-13" font-family="Helvetica,sans-Serif" font-size="10.00">javax.realtime.RealtimeThread</text>
</a>
</g>
</g>
<!-- Node0&#45;&gt;Node1 -->
<g id="edge2" class="edge">
<title>Node0&#45;&gt;Node1</title>
<path fill="none" stroke="midnightblue" d="M70.4,-17.83C81.05,-17.62 93.28,-17.38 105.77,-17.14"/>
<polygon fill="midnightblue" stroke="midnightblue" points="70.25,-14.33 60.32,-18.02 70.39,-21.33 70.25,-14.33"/>
</g>
<!-- Node2 -->
<g id="node5" class="node">
<title>Node2</title>
<g id="a_node5"><a xlink:href="db/d4f/classjavolution_1_1context_1_1internal_1_1ConcurrentThreadImpl.html" target="_top" xlink:title=" ">
<polygon fill="white" stroke="black" points="311,-0.5 311,-30.5 460,-30.5 460,-0.5 311,-0.5"/>
<text text-anchor="start" x="319" y="-18.5" font-family="Helvetica,sans-Serif" font-size="10.00">javolution.context.internal.</text>
<text text-anchor="middle" x="385.5" y="-7.5" font-family="Helvetica,sans-Serif" font-size="10.00">ConcurrentThreadImpl</text>
</a>
</g>
</g>
<!-- Node1&#45;&gt;Node2 -->
<g id="edge3" class="edge">
<title>Node1&#45;&gt;Node2</title>
<path fill="none" stroke="midnightblue" d="M285.13,-15.5C293.77,-15.5 302.43,-15.5 310.85,-15.5"/>
<polygon fill="midnightblue" stroke="midnightblue" points="285.03,-12 275.03,-15.5 285.03,-19 285.03,-12"/>
</g>
</g>
</svg>
