<?xml version="1.0" encoding="UTF-8" standalone="no"?>
<!DOCTYPE svg PUBLIC "-//W3C//DTD SVG 1.1//EN"
 "http://www.w3.org/Graphics/SVG/1.1/DTD/svg11.dtd">
<!-- Generated by graphviz version 2.43.0 (0)
 -->
<!-- Title: Graphical Class Hierarchy Pages: 1 -->
<svg width="253pt" height="137pt"
 viewBox="0.00 0.00 253.00 137.00" xmlns="http://www.w3.org/2000/svg" xmlns:xlink="http://www.w3.org/1999/xlink">
<g id="graph0" class="graph" transform="scale(1 1) rotate(0) translate(4 133)">
<title>Graphical Class Hierarchy</title>
<polygon fill="white" stroke="transparent" points="-4,4 -4,-133 249,-133 249,4 -4,4"/>
<!-- Node295 -->
<g id="node1" class="node">
<title>Node295</title>
<g id="a_node1"><a xlink:title=" ">
<polygon fill="white" stroke="#bfbfbf" points="0,-55 0,-74 51,-74 51,-55 0,-55"/>
<text text-anchor="middle" x="25.5" y="-62" font-family="Helvetica,sans-Serif" font-size="10.00">Reader</text>
</a>
</g>
</g>
<!-- Node0 -->
<g id="node2" class="node">
<title>Node0</title>
<g id="a_node2"><a xlink:href="df/d02/classjavolution_1_1io_1_1CharSequenceReader.html" target="_top" xlink:title=" ">
<polygon fill="white" stroke="black" points="91,-98.5 91,-128.5 241,-128.5 241,-98.5 91,-98.5"/>
<text text-anchor="start" x="99" y="-116.5" font-family="Helvetica,sans-Serif" font-size="10.00">javolution.io.CharSequence</text>
<text text-anchor="middle" x="166" y="-105.5" font-family="Helvetica,sans-Serif" font-size="10.00">Reader</text>
</a>
</g>
</g>
<!-- Node295&#45;&gt;Node0 -->
<g id="edge1" class="edge">
<title>Node295&#45;&gt;Node0</title>
<path fill="none" stroke="midnightblue" d="M57.51,-77.97C66.91,-81.87 77.32,-86.02 87,-89.5 95.53,-92.57 104.67,-95.6 113.59,-98.43"/>
<polygon fill="midnightblue" stroke="midnightblue" points="58.73,-74.68 48.15,-74.02 56.01,-81.13 58.73,-74.68"/>
</g>
<!-- Node297 -->
<g id="node3" class="node">
<title>Node297</title>
<g id="a_node3"><a xlink:href="dd/d55/classjavolution_1_1io_1_1UTF8ByteBufferReader.html" target="_top" xlink:title=" ">
<polygon fill="white" stroke="black" points="87,-49.5 87,-79.5 245,-79.5 245,-49.5 87,-49.5"/>
<text text-anchor="start" x="95" y="-67.5" font-family="Helvetica,sans-Serif" font-size="10.00">javolution.io.UTF8ByteBuffer</text>
<text text-anchor="middle" x="166" y="-56.5" font-family="Helvetica,sans-Serif" font-size="10.00">Reader</text>
</a>
</g>
</g>
<!-- Node295&#45;&gt;Node297 -->
<g id="edge2" class="edge">
<title>Node295&#45;&gt;Node297</title>
<path fill="none" stroke="midnightblue" d="M61.41,-64.5C69.26,-64.5 77.89,-64.5 86.72,-64.5"/>
<polygon fill="midnightblue" stroke="midnightblue" points="61.26,-61 51.26,-64.5 61.26,-68 61.26,-61"/>
</g>
<!-- Node298 -->
<g id="node4" class="node">
<title>Node298</title>
<g id="a_node4"><a xlink:href="d6/da9/classjavolution_1_1io_1_1UTF8StreamReader.html" target="_top" xlink:title=" ">
<polygon fill="white" stroke="black" points="95.5,-0.5 95.5,-30.5 236.5,-30.5 236.5,-0.5 95.5,-0.5"/>
<text text-anchor="start" x="103.5" y="-18.5" font-family="Helvetica,sans-Serif" font-size="10.00">javolution.io.UTF8Stream</text>
<text text-anchor="middle" x="166" y="-7.5" font-family="Helvetica,sans-Serif" font-size="10.00">Reader</text>
</a>
</g>
</g>
<!-- Node295&#45;&gt;Node298 -->
<g id="edge3" class="edge">
<title>Node295&#45;&gt;Node298</title>
<path fill="none" stroke="midnightblue" d="M59.03,-51.13C68.04,-47.55 77.86,-43.77 87,-40.5 96.37,-37.14 106.45,-33.75 116.15,-30.6"/>
<polygon fill="midnightblue" stroke="midnightblue" points="57.61,-47.93 49.63,-54.9 60.22,-54.42 57.61,-47.93"/>
</g>
</g>
</svg>
