<?xml version="1.0" encoding="UTF-8" standalone="no"?>
<!DOCTYPE svg PUBLIC "-//W3C//DTD SVG 1.1//EN"
 "http://www.w3.org/Graphics/SVG/1.1/DTD/svg11.dtd">
<!-- Generated by graphviz version 2.43.0 (0)
 -->
<!-- Title: Graphical Class Hierarchy Pages: 1 -->
<svg width="278pt" height="88pt"
 viewBox="0.00 0.00 278.00 88.00" xmlns="http://www.w3.org/2000/svg" xmlns:xlink="http://www.w3.org/1999/xlink">
<g id="graph0" class="graph" transform="scale(1 1) rotate(0) translate(4 84)">
<title>Graphical Class Hierarchy</title>
<polygon fill="white" stroke="transparent" points="-4,4 -4,-84 274,-84 274,4 -4,4"/>
<!-- Node273 -->
<g id="node1" class="node">
<title>Node273</title>
<g id="a_node1"><a xlink:title=" ">
<polygon fill="white" stroke="#bfbfbf" points="0,-30 0,-49 88,-49 88,-30 0,-30"/>
<text text-anchor="middle" x="44" y="-37" font-family="Helvetica,sans-Serif" font-size="10.00">ServiceFactory</text>
</a>
</g>
</g>
<!-- Node0 -->
<g id="node2" class="node">
<title>Node0</title>
<g id="a_node2"><a xlink:href="d5/d3b/classjavolution_1_1osgi_1_1internal_1_1XMLInputFactoryProvider.html" target="_top" xlink:title=" ">
<polygon fill="white" stroke="black" points="128,-49.5 128,-79.5 266,-79.5 266,-49.5 128,-49.5"/>
<text text-anchor="start" x="136" y="-67.5" font-family="Helvetica,sans-Serif" font-size="10.00">javolution.osgi.internal.</text>
<text text-anchor="middle" x="197" y="-56.5" font-family="Helvetica,sans-Serif" font-size="10.00">XMLInputFactoryProvider</text>
</a>
</g>
</g>
<!-- Node273&#45;&gt;Node0 -->
<g id="edge1" class="edge">
<title>Node273&#45;&gt;Node0</title>
<path fill="none" stroke="midnightblue" d="M98.4,-48.34C107.95,-49.92 118.02,-51.59 127.92,-53.23"/>
<polygon fill="midnightblue" stroke="midnightblue" points="98.71,-44.84 88.27,-46.66 97.56,-51.75 98.71,-44.84"/>
</g>
<!-- Node275 -->
<g id="node3" class="node">
<title>Node275</title>
<g id="a_node3"><a xlink:href="d3/dbb/classjavolution_1_1osgi_1_1internal_1_1XMLOutputFactoryProvider.html" target="_top" xlink:title=" ">
<polygon fill="white" stroke="black" points="124,-0.5 124,-30.5 270,-30.5 270,-0.5 124,-0.5"/>
<text text-anchor="start" x="132" y="-18.5" font-family="Helvetica,sans-Serif" font-size="10.00">javolution.osgi.internal.</text>
<text text-anchor="middle" x="197" y="-7.5" font-family="Helvetica,sans-Serif" font-size="10.00">XMLOutputFactoryProvider</text>
</a>
</g>
</g>
<!-- Node273&#45;&gt;Node275 -->
<g id="edge2" class="edge">
<title>Node273&#45;&gt;Node275</title>
<path fill="none" stroke="midnightblue" d="M98.2,-31.04C106.53,-29.72 115.26,-28.33 123.93,-26.96"/>
<polygon fill="midnightblue" stroke="midnightblue" points="97.6,-27.6 88.27,-32.62 98.7,-34.51 97.6,-27.6"/>
</g>
</g>
</svg>
