<?xml version="1.0" encoding="UTF-8" standalone="no"?>
<!DOCTYPE svg PUBLIC "-//W3C//DTD SVG 1.1//EN"
 "http://www.w3.org/Graphics/SVG/1.1/DTD/svg11.dtd">
<!-- Generated by graphviz version 2.43.0 (0)
 -->
<!-- Title: Graphical Class Hierarchy Pages: 1 -->
<svg width="319pt" height="761pt"
 viewBox="0.00 0.00 319.00 761.00" xmlns="http://www.w3.org/2000/svg" xmlns:xlink="http://www.w3.org/1999/xlink">
<g id="graph0" class="graph" transform="scale(1 1) rotate(0) translate(4 757)">
<title>Graphical Class Hierarchy</title>
<polygon fill="white" stroke="transparent" points="-4,4 -4,-757 315,-757 315,4 -4,4"/>
<!-- Node306 -->
<g id="node1" class="node">
<title>Node306</title>
<g id="a_node1"><a xlink:title=" ">
<polygon fill="white" stroke="#bfbfbf" points="0,-373 0,-392 53,-392 53,-373 0,-373"/>
<text text-anchor="middle" x="26.5" y="-380" font-family="Helvetica,sans-Serif" font-size="10.00">Iterator</text>
</a>
</g>
</g>
<!-- Node0 -->
<g id="node2" class="node">
<title>Node0</title>
<g id="a_node2"><a xlink:href="df/d50/classjavolution_1_1util_1_1internal_1_1bitset_1_1BitSetIteratorImpl.html" target="_top" xlink:title=" ">
<polygon fill="white" stroke="black" points="121,-722.5 121,-752.5 279,-752.5 279,-722.5 121,-722.5"/>
<text text-anchor="start" x="129" y="-740.5" font-family="Helvetica,sans-Serif" font-size="10.00">javolution.util.internal.bitset.</text>
<text text-anchor="middle" x="200" y="-729.5" font-family="Helvetica,sans-Serif" font-size="10.00">BitSetIteratorImpl</text>
</a>
</g>
</g>
<!-- Node306&#45;&gt;Node0 -->
<g id="edge1" class="edge">
<title>Node306&#45;&gt;Node0</title>
<path fill="none" stroke="midnightblue" d="M28.38,-402.12C31.66,-466.31 45.35,-668.47 89,-713.5 97.71,-722.48 108.94,-728.47 120.88,-732.41"/>
<polygon fill="midnightblue" stroke="midnightblue" points="31.87,-401.94 27.9,-392.12 24.88,-402.28 31.87,-401.94"/>
</g>
<!-- Node308 -->
<g id="node3" class="node">
<title>Node308</title>
<g id="a_node3"><a xlink:href="d6/da6/classjavolution_1_1util_1_1internal_1_1collection_1_1AtomicCollectionImpl_1_1IteratorImpl.html" target="_top" xlink:title=" ">
<polygon fill="white" stroke="black" points="94.5,-673.5 94.5,-703.5 305.5,-703.5 305.5,-673.5 94.5,-673.5"/>
<text text-anchor="start" x="102.5" y="-691.5" font-family="Helvetica,sans-Serif" font-size="10.00">javolution.util.internal.collection.</text>
<text text-anchor="middle" x="200" y="-680.5" font-family="Helvetica,sans-Serif" font-size="10.00">AtomicCollectionImpl&lt; E &gt;.IteratorImpl</text>
</a>
</g>
</g>
<!-- Node306&#45;&gt;Node308 -->
<g id="edge2" class="edge">
<title>Node306&#45;&gt;Node308</title>
<path fill="none" stroke="midnightblue" d="M29.07,-402.16C34.09,-459.88 51.63,-627.13 89,-664.5 92.32,-667.82 95.98,-670.72 99.89,-673.27"/>
<polygon fill="midnightblue" stroke="midnightblue" points="32.56,-401.82 28.23,-392.15 25.58,-402.41 32.56,-401.82"/>
</g>
<!-- Node309 -->
<g id="node4" class="node">
<title>Node309</title>
<g id="a_node4"><a xlink:href="d1/d83/classjavolution_1_1util_1_1internal_1_1collection_1_1DistinctCollectionImpl_1_1IteratorImpl.html" target="_top" xlink:title=" ">
<polygon fill="white" stroke="black" points="93,-624.5 93,-654.5 307,-654.5 307,-624.5 93,-624.5"/>
<text text-anchor="start" x="101" y="-642.5" font-family="Helvetica,sans-Serif" font-size="10.00">javolution.util.internal.collection.</text>
<text text-anchor="middle" x="200" y="-631.5" font-family="Helvetica,sans-Serif" font-size="10.00">DistinctCollectionImpl&lt; E &gt;.IteratorImpl</text>
</a>
</g>
</g>
<!-- Node306&#45;&gt;Node309 -->
<g id="edge3" class="edge">
<title>Node306&#45;&gt;Node309</title>
<path fill="none" stroke="midnightblue" d="M30.02,-401.99C36.94,-452.48 57.82,-585.64 89,-615.5 92.53,-618.88 96.42,-621.83 100.56,-624.4"/>
<polygon fill="midnightblue" stroke="midnightblue" points="33.48,-401.49 28.69,-392.04 26.55,-402.41 33.48,-401.49"/>
</g>
<!-- Node310 -->
<g id="node5" class="node">
<title>Node310</title>
<g id="a_node5"><a xlink:href="da/d33/classjavolution_1_1util_1_1internal_1_1collection_1_1FilteredCollectionImpl_1_1IteratorImpl.html" target="_top" xlink:title=" ">
<polygon fill="white" stroke="black" points="93.5,-575.5 93.5,-605.5 306.5,-605.5 306.5,-575.5 93.5,-575.5"/>
<text text-anchor="start" x="101.5" y="-593.5" font-family="Helvetica,sans-Serif" font-size="10.00">javolution.util.internal.collection.</text>
<text text-anchor="middle" x="200" y="-582.5" font-family="Helvetica,sans-Serif" font-size="10.00">FilteredCollectionImpl&lt; E &gt;.IteratorImpl</text>
</a>
</g>
</g>
<!-- Node306&#45;&gt;Node310 -->
<g id="edge4" class="edge">
<title>Node306&#45;&gt;Node310</title>
<path fill="none" stroke="midnightblue" d="M28.12,-402.39C30.42,-440.11 41.01,-522.11 89,-565.5 93.21,-569.31 97.88,-572.58 102.85,-575.37"/>
<polygon fill="midnightblue" stroke="midnightblue" points="31.61,-402.03 27.64,-392.2 24.62,-402.36 31.61,-402.03"/>
</g>
<!-- Node311 -->
<g id="node6" class="node">
<title>Node311</title>
<g id="a_node6"><a xlink:href="d4/d79/classjavolution_1_1util_1_1internal_1_1collection_1_1MappedCollectionImpl_1_1IteratorImpl.html" target="_top" xlink:title=" ">
<polygon fill="white" stroke="black" points="111,-515 111,-556 289,-556 289,-515 111,-515"/>
<text text-anchor="start" x="119" y="-544" font-family="Helvetica,sans-Serif" font-size="10.00">javolution.util.internal.collection.</text>
<text text-anchor="start" x="119" y="-533" font-family="Helvetica,sans-Serif" font-size="10.00">MappedCollectionImpl&lt; E, R &gt;</text>
<text text-anchor="middle" x="200" y="-522" font-family="Helvetica,sans-Serif" font-size="10.00">.IteratorImpl</text>
</a>
</g>
</g>
<!-- Node306&#45;&gt;Node311 -->
<g id="edge5" class="edge">
<title>Node306&#45;&gt;Node311</title>
<path fill="none" stroke="midnightblue" d="M31.95,-402.1C39.16,-429.39 56.06,-478.49 89,-505.5 95.58,-510.9 103.06,-515.33 110.94,-518.96"/>
<polygon fill="midnightblue" stroke="midnightblue" points="35.29,-401.05 29.5,-392.18 28.49,-402.73 35.29,-401.05"/>
</g>
<!-- Node312 -->
<g id="node7" class="node">
<title>Node312</title>
<g id="a_node7"><a xlink:href="df/d09/classjavolution_1_1util_1_1internal_1_1collection_1_1ReversedCollectionImpl_1_1IteratorImpl.html" target="_top" xlink:title=" ">
<polygon fill="white" stroke="black" points="89,-465.5 89,-495.5 311,-495.5 311,-465.5 89,-465.5"/>
<text text-anchor="start" x="97" y="-483.5" font-family="Helvetica,sans-Serif" font-size="10.00">javolution.util.internal.collection.</text>
<text text-anchor="middle" x="200" y="-472.5" font-family="Helvetica,sans-Serif" font-size="10.00">ReversedCollectionImpl&lt; E &gt;.IteratorImpl</text>
</a>
</g>
</g>
<!-- Node306&#45;&gt;Node312 -->
<g id="edge6" class="edge">
<title>Node306&#45;&gt;Node312</title>
<path fill="none" stroke="midnightblue" d="M38.06,-401.25C48.69,-418.35 66.68,-442.94 89,-456.5 94.68,-459.95 100.79,-462.91 107.12,-465.44"/>
<polygon fill="midnightblue" stroke="midnightblue" points="40.8,-399 32.68,-392.19 34.78,-402.58 40.8,-399"/>
</g>
<!-- Node313 -->
<g id="node8" class="node">
<title>Node313</title>
<g id="a_node8"><a xlink:href="df/d63/classjavolution_1_1util_1_1internal_1_1collection_1_1SharedCollectionImpl_1_1IteratorImpl.html" target="_top" xlink:title=" ">
<polygon fill="white" stroke="black" points="95,-416.5 95,-446.5 305,-446.5 305,-416.5 95,-416.5"/>
<text text-anchor="start" x="103" y="-434.5" font-family="Helvetica,sans-Serif" font-size="10.00">javolution.util.internal.collection.</text>
<text text-anchor="middle" x="200" y="-423.5" font-family="Helvetica,sans-Serif" font-size="10.00">SharedCollectionImpl&lt; E &gt;.IteratorImpl</text>
</a>
</g>
</g>
<!-- Node306&#45;&gt;Node313 -->
<g id="edge7" class="edge">
<title>Node306&#45;&gt;Node313</title>
<path fill="none" stroke="midnightblue" d="M57.86,-396.04C67.67,-400.09 78.68,-404.3 89,-407.5 99.55,-410.77 110.8,-413.76 121.93,-416.45"/>
<polygon fill="midnightblue" stroke="midnightblue" points="59.09,-392.77 48.52,-392.09 56.36,-399.21 59.09,-392.77"/>
</g>
<!-- Node314 -->
<g id="node9" class="node">
<title>Node314</title>
<g id="a_node9"><a xlink:href="d1/d89/classjavolution_1_1util_1_1internal_1_1collection_1_1SortedCollectionImpl_1_1IteratorImpl.html" target="_top" xlink:title=" ">
<polygon fill="white" stroke="black" points="96,-367.5 96,-397.5 304,-397.5 304,-367.5 96,-367.5"/>
<text text-anchor="start" x="104" y="-385.5" font-family="Helvetica,sans-Serif" font-size="10.00">javolution.util.internal.collection.</text>
<text text-anchor="middle" x="200" y="-374.5" font-family="Helvetica,sans-Serif" font-size="10.00">SortedCollectionImpl&lt; E &gt;.IteratorImpl</text>
</a>
</g>
</g>
<!-- Node306&#45;&gt;Node314 -->
<g id="edge8" class="edge">
<title>Node306&#45;&gt;Node314</title>
<path fill="none" stroke="midnightblue" d="M63.24,-382.5C73.04,-382.5 84.19,-382.5 95.77,-382.5"/>
<polygon fill="midnightblue" stroke="midnightblue" points="63.18,-379 53.18,-382.5 63.18,-386 63.18,-379"/>
</g>
<!-- Node315 -->
<g id="node10" class="node">
<title>Node315</title>
<g id="a_node10"><a xlink:href="d3/d84/classjavolution_1_1util_1_1internal_1_1collection_1_1UnmodifiableCollectionImpl_1_1IteratorImpl.html" target="_top" xlink:title=" ">
<polygon fill="white" stroke="black" points="111,-307 111,-348 289,-348 289,-307 111,-307"/>
<text text-anchor="start" x="119" y="-336" font-family="Helvetica,sans-Serif" font-size="10.00">javolution.util.internal.collection.</text>
<text text-anchor="start" x="119" y="-325" font-family="Helvetica,sans-Serif" font-size="10.00">UnmodifiableCollectionImpl&lt;</text>
<text text-anchor="middle" x="200" y="-314" font-family="Helvetica,sans-Serif" font-size="10.00"> E &gt;.IteratorImpl</text>
</a>
</g>
</g>
<!-- Node306&#45;&gt;Node315 -->
<g id="edge9" class="edge">
<title>Node306&#45;&gt;Node315</title>
<path fill="none" stroke="midnightblue" d="M59.74,-369.24C69.11,-365.57 79.4,-361.72 89,-358.5 99.72,-354.91 111.12,-351.38 122.37,-348.06"/>
<polygon fill="midnightblue" stroke="midnightblue" points="58.38,-366.01 50.38,-372.96 60.96,-372.52 58.38,-366.01"/>
</g>
<!-- Node316 -->
<g id="node11" class="node">
<title>Node316</title>
<g id="a_node11"><a xlink:href="d2/d95/classjavolution_1_1util_1_1internal_1_1map_1_1AtomicMapImpl_1_1IteratorImpl.html" target="_top" xlink:title=" ">
<polygon fill="white" stroke="black" points="101.5,-257.5 101.5,-287.5 298.5,-287.5 298.5,-257.5 101.5,-257.5"/>
<text text-anchor="start" x="109.5" y="-275.5" font-family="Helvetica,sans-Serif" font-size="10.00">javolution.util.internal.map.</text>
<text text-anchor="middle" x="200" y="-264.5" font-family="Helvetica,sans-Serif" font-size="10.00">AtomicMapImpl&lt; K, V &gt;.IteratorImpl</text>
</a>
</g>
</g>
<!-- Node306&#45;&gt;Node316 -->
<g id="edge10" class="edge">
<title>Node306&#45;&gt;Node316</title>
<path fill="none" stroke="midnightblue" d="M36.05,-363.66C45.96,-344.04 64.15,-313.92 89,-297.5 94.88,-293.61 101.28,-290.32 107.95,-287.54"/>
<polygon fill="midnightblue" stroke="midnightblue" points="32.82,-362.31 31.64,-372.83 39.13,-365.34 32.82,-362.31"/>
</g>
<!-- Node317 -->
<g id="node12" class="node">
<title>Node317</title>
<g id="a_node12"><a xlink:href="da/dc4/classjavolution_1_1util_1_1internal_1_1map_1_1SharedMapImpl_1_1IteratorImpl.html" target="_top" xlink:title=" ">
<polygon fill="white" stroke="black" points="102,-208.5 102,-238.5 298,-238.5 298,-208.5 102,-208.5"/>
<text text-anchor="start" x="110" y="-226.5" font-family="Helvetica,sans-Serif" font-size="10.00">javolution.util.internal.map.</text>
<text text-anchor="middle" x="200" y="-215.5" font-family="Helvetica,sans-Serif" font-size="10.00">SharedMapImpl&lt; K, V &gt;.IteratorImpl</text>
</a>
</g>
</g>
<!-- Node306&#45;&gt;Node317 -->
<g id="edge11" class="edge">
<title>Node306&#45;&gt;Node317</title>
<path fill="none" stroke="midnightblue" d="M30.81,-363.07C36.89,-333.61 52.7,-277.97 89,-248.5 93.71,-244.67 98.9,-241.41 104.37,-238.62"/>
<polygon fill="midnightblue" stroke="midnightblue" points="27.36,-362.49 28.94,-372.97 34.24,-363.79 27.36,-362.49"/>
</g>
<!-- Node318 -->
<g id="node13" class="node">
<title>Node318</title>
<g id="a_node13"><a xlink:href="d3/de8/classjavolution_1_1util_1_1internal_1_1map_1_1sorted_1_1SubSortedMapImpl_1_1IteratorImpl.html" target="_top" xlink:title=" ">
<polygon fill="white" stroke="black" points="94,-159.5 94,-189.5 306,-189.5 306,-159.5 94,-159.5"/>
<text text-anchor="start" x="102" y="-177.5" font-family="Helvetica,sans-Serif" font-size="10.00">javolution.util.internal.map.sorted.</text>
<text text-anchor="middle" x="200" y="-166.5" font-family="Helvetica,sans-Serif" font-size="10.00">SubSortedMapImpl&lt; K, V &gt;.IteratorImpl</text>
</a>
</g>
</g>
<!-- Node306&#45;&gt;Node318 -->
<g id="edge12" class="edge">
<title>Node306&#45;&gt;Node318</title>
<path fill="none" stroke="midnightblue" d="M28.12,-362.61C30.42,-324.89 41.01,-242.89 89,-199.5 93.21,-195.69 97.88,-192.42 102.85,-189.63"/>
<polygon fill="midnightblue" stroke="midnightblue" points="24.62,-362.64 27.64,-372.8 31.61,-362.97 24.62,-362.64"/>
</g>
<!-- Node319 -->
<g id="node14" class="node">
<title>Node319</title>
<g id="a_node14"><a xlink:href="d1/d63/classjavolution_1_1util_1_1internal_1_1map_1_1UnmodifiableMapImpl_1_1IteratorImpl.html" target="_top" xlink:title=" ">
<polygon fill="white" stroke="black" points="122.5,-99 122.5,-140 277.5,-140 277.5,-99 122.5,-99"/>
<text text-anchor="start" x="130.5" y="-128" font-family="Helvetica,sans-Serif" font-size="10.00">javolution.util.internal.map.</text>
<text text-anchor="start" x="130.5" y="-117" font-family="Helvetica,sans-Serif" font-size="10.00">UnmodifiableMapImpl&lt; K, V</text>
<text text-anchor="middle" x="200" y="-106" font-family="Helvetica,sans-Serif" font-size="10.00"> &gt;.IteratorImpl</text>
</a>
</g>
</g>
<!-- Node306&#45;&gt;Node319 -->
<g id="edge13" class="edge">
<title>Node306&#45;&gt;Node319</title>
<path fill="none" stroke="midnightblue" d="M26.65,-362.94C25.86,-318.67 30.37,-210.05 89,-150.5 98.19,-141.17 109.95,-134.59 122.35,-129.96"/>
<polygon fill="midnightblue" stroke="midnightblue" points="23.16,-363.07 26.95,-372.96 30.15,-362.86 23.16,-363.07"/>
</g>
<!-- Node320 -->
<g id="node15" class="node">
<title>Node320</title>
<g id="a_node15"><a xlink:href="d9/d5c/classjavolution_1_1util_1_1internal_1_1set_1_1sorted_1_1SubSortedSetImpl_1_1IteratorImpl.html" target="_top" xlink:title=" ">
<polygon fill="white" stroke="black" points="103.5,-49.5 103.5,-79.5 296.5,-79.5 296.5,-49.5 103.5,-49.5"/>
<text text-anchor="start" x="111.5" y="-67.5" font-family="Helvetica,sans-Serif" font-size="10.00">javolution.util.internal.set.sorted.</text>
<text text-anchor="middle" x="200" y="-56.5" font-family="Helvetica,sans-Serif" font-size="10.00">SubSortedSetImpl&lt; E &gt;.IteratorImpl</text>
</a>
</g>
</g>
<!-- Node306&#45;&gt;Node320 -->
<g id="edge14" class="edge">
<title>Node306&#45;&gt;Node320</title>
<path fill="none" stroke="midnightblue" d="M28.94,-362.49C33.64,-302.96 50.47,-128.67 89,-89.5 93.26,-85.17 98.1,-81.52 103.31,-78.46"/>
<polygon fill="midnightblue" stroke="midnightblue" points="25.43,-362.56 28.16,-372.79 32.41,-363.09 25.43,-362.56"/>
</g>
<!-- Node321 -->
<g id="node16" class="node">
<title>Node321</title>
<g id="a_node16"><a xlink:href="d1/d45/classjavolution_1_1util_1_1internal_1_1table_1_1FastTableImpl_1_1IteratorImpl.html" target="_top" xlink:title=" ">
<polygon fill="white" stroke="black" points="113.5,-0.5 113.5,-30.5 286.5,-30.5 286.5,-0.5 113.5,-0.5"/>
<text text-anchor="start" x="121.5" y="-18.5" font-family="Helvetica,sans-Serif" font-size="10.00">javolution.util.internal.table.</text>
<text text-anchor="middle" x="200" y="-7.5" font-family="Helvetica,sans-Serif" font-size="10.00">FastTableImpl&lt; E &gt;.IteratorImpl</text>
</a>
</g>
</g>
<!-- Node306&#45;&gt;Node321 -->
<g id="edge15" class="edge">
<title>Node306&#45;&gt;Node321</title>
<path fill="none" stroke="midnightblue" d="M28.28,-362.68C31.26,-296.91 44.18,-87.41 89,-40.5 95.83,-33.35 104.25,-28.05 113.36,-24.14"/>
<polygon fill="midnightblue" stroke="midnightblue" points="24.77,-362.77 27.84,-372.91 31.76,-363.06 24.77,-362.77"/>
</g>
</g>
</svg>
