<?xml version="1.0" encoding="UTF-8" standalone="no"?>
<!DOCTYPE svg PUBLIC "-//W3C//DTD SVG 1.1//EN"
 "http://www.w3.org/Graphics/SVG/1.1/DTD/svg11.dtd">
<!-- Generated by graphviz version 2.43.0 (0)
 -->
<!-- Title: javolution.util.internal.map.FractalMapImpl Pages: 1 -->
<svg width="467pt" height="230pt"
 viewBox="0.00 0.00 466.50 230.00" xmlns="http://www.w3.org/2000/svg" xmlns:xlink="http://www.w3.org/1999/xlink">
<g id="graph0" class="graph" transform="scale(1 1) rotate(0) translate(4 226)">
<title>javolution.util.internal.map.FractalMapImpl</title>
<polygon fill="white" stroke="transparent" points="-4,4 -4,-226 462.5,-226 462.5,4 -4,4"/>
<!-- Node1 -->
<g id="node1" class="node">
<title>Node1</title>
<g id="a_node1"><a xlink:title=" ">
<polygon fill="#bfbfbf" stroke="black" points="0,-0.5 0,-30.5 152,-30.5 152,-0.5 0,-0.5"/>
<text text-anchor="start" x="8" y="-18.5" font-family="Helvetica,sans-Serif" font-size="10.00">javolution.util.internal.map.</text>
<text text-anchor="middle" x="76" y="-7.5" font-family="Helvetica,sans-Serif" font-size="10.00">FractalMapImpl</text>
</a>
</g>
</g>
<!-- Node2 -->
<g id="node2" class="node">
<title>Node2</title>
<g id="a_node2"><a xlink:title=" ">
<polygon fill="white" stroke="#bfbfbf" points="51.5,-202.5 51.5,-221.5 80.5,-221.5 80.5,-202.5 51.5,-202.5"/>
<text text-anchor="middle" x="66" y="-209.5" font-family="Helvetica,sans-Serif" font-size="10.00">int</text>
</a>
</g>
</g>
<!-- Node2&#45;&gt;Node1 -->
<g id="edge1" class="edge">
<title>Node2&#45;&gt;Node1</title>
<path fill="none" stroke="#9a32cd" stroke-dasharray="5,2" d="M65.89,-192.05C65.86,-166.23 66.24,-118.56 69,-78 70.11,-61.7 72.37,-43.08 74.02,-30.63"/>
<polygon fill="#9a32cd" stroke="#9a32cd" points="62.39,-192.29 65.92,-202.27 69.39,-192.26 62.39,-192.29"/>
<text text-anchor="middle" x="116" y="-136" font-family="Helvetica,sans-Serif" font-size="10.00"> EMPTINESS_LEVEL</text>
<text text-anchor="middle" x="116" y="-125" font-family="Helvetica,sans-Serif" font-size="10.00">count</text>
<text text-anchor="middle" x="116" y="-114" font-family="Helvetica,sans-Serif" font-size="10.00">shift</text>
<text text-anchor="middle" x="116" y="-103" font-family="Helvetica,sans-Serif" font-size="10.00">SHIFT</text>
<text text-anchor="start" x="69" y="-92" font-family="Helvetica,sans-Serif" font-size="10.00">INITIAL_BLOCK</text>
<text text-anchor="middle" x="116" y="-81" font-family="Helvetica,sans-Serif" font-size="10.00">_CAPACITY</text>
</g>
<!-- Node3 -->
<g id="node3" class="node">
<title>Node3</title>
<g id="a_node3"><a xlink:href="../../d8/df5/classjavolution_1_1util_1_1internal_1_1map_1_1MapEntryImpl.html" target="_top" xlink:title=" ">
<polygon fill="white" stroke="black" points="172,-96 172,-126 324,-126 324,-96 172,-96"/>
<text text-anchor="start" x="180" y="-114" font-family="Helvetica,sans-Serif" font-size="10.00">javolution.util.internal.map.</text>
<text text-anchor="middle" x="248" y="-103" font-family="Helvetica,sans-Serif" font-size="10.00">MapEntryImpl&lt; K, V &gt;</text>
</a>
</g>
</g>
<!-- Node2&#45;&gt;Node3 -->
<g id="edge6" class="edge">
<title>Node2&#45;&gt;Node3</title>
<path fill="none" stroke="#9a32cd" stroke-dasharray="5,2" d="M89.62,-197.46C107.06,-187.51 131.42,-173.75 153,-162 175.75,-149.61 201.8,-135.93 220.86,-126.02"/>
<polygon fill="#9a32cd" stroke="#9a32cd" points="87.65,-194.55 80.71,-202.55 91.13,-200.63 87.65,-194.55"/>
<text text-anchor="middle" x="166.5" y="-170.5" font-family="Helvetica,sans-Serif" font-size="10.00"> hash</text>
</g>
<!-- Node3&#45;&gt;Node1 -->
<g id="edge2" class="edge">
<title>Node3&#45;&gt;Node1</title>
<path fill="none" stroke="#9a32cd" stroke-dasharray="5,2" d="M213.02,-90.98C180.04,-73.06 131.39,-46.61 101.81,-30.53"/>
<polygon fill="#9a32cd" stroke="#9a32cd" points="211.42,-94.1 221.88,-95.8 214.76,-87.95 211.42,-94.1"/>
<text text-anchor="middle" x="170.5" y="-52" font-family="Helvetica,sans-Serif" font-size="10.00"> entries</text>
</g>
<!-- Node4 -->
<g id="node4" class="node">
<title>Node4</title>
<g id="a_node4"><a xlink:title=" ">
<polygon fill="white" stroke="#bfbfbf" points="101.5,-202.5 101.5,-221.5 212.5,-221.5 212.5,-202.5 101.5,-202.5"/>
<text text-anchor="middle" x="157" y="-209.5" font-family="Helvetica,sans-Serif" font-size="10.00">Map&lt; K, V &gt;::Entry</text>
</a>
</g>
</g>
<!-- Node4&#45;&gt;Node3 -->
<g id="edge3" class="edge">
<title>Node4&#45;&gt;Node3</title>
<path fill="none" stroke="midnightblue" d="M172.05,-194.63C189.57,-175.57 218.22,-144.4 234.87,-126.28"/>
<polygon fill="midnightblue" stroke="midnightblue" points="169.27,-192.48 165.08,-202.21 174.42,-197.22 169.27,-192.48"/>
</g>
<!-- Node5 -->
<g id="node5" class="node">
<title>Node5</title>
<g id="a_node5"><a xlink:title=" ">
<polygon fill="white" stroke="#bfbfbf" points="230.5,-202.5 230.5,-221.5 259.5,-221.5 259.5,-202.5 230.5,-202.5"/>
<text text-anchor="middle" x="245" y="-209.5" font-family="Helvetica,sans-Serif" font-size="10.00">V</text>
</a>
</g>
</g>
<!-- Node5&#45;&gt;Node3 -->
<g id="edge4" class="edge">
<title>Node5&#45;&gt;Node3</title>
<path fill="none" stroke="#9a32cd" stroke-dasharray="5,2" d="M245.3,-192.08C245.47,-182.99 245.7,-171.93 246,-162 246.37,-149.84 246.93,-136.03 247.37,-126.01"/>
<polygon fill="#9a32cd" stroke="#9a32cd" points="241.8,-192.27 245.13,-202.32 248.8,-192.39 241.8,-192.27"/>
<text text-anchor="middle" x="261.5" y="-170.5" font-family="Helvetica,sans-Serif" font-size="10.00"> value</text>
</g>
<!-- Node6 -->
<g id="node6" class="node">
<title>Node6</title>
<g id="a_node6"><a xlink:title=" ">
<polygon fill="white" stroke="#bfbfbf" points="284.5,-202.5 284.5,-221.5 313.5,-221.5 313.5,-202.5 284.5,-202.5"/>
<text text-anchor="middle" x="299" y="-209.5" font-family="Helvetica,sans-Serif" font-size="10.00">K</text>
</a>
</g>
</g>
<!-- Node6&#45;&gt;Node3 -->
<g id="edge5" class="edge">
<title>Node6&#45;&gt;Node3</title>
<path fill="none" stroke="#9a32cd" stroke-dasharray="5,2" d="M291.35,-192.78C287.31,-183.46 282.13,-172.01 277,-162 270.68,-149.68 262.75,-136.11 256.78,-126.22"/>
<polygon fill="#9a32cd" stroke="#9a32cd" points="288.23,-194.37 295.37,-202.2 294.67,-191.63 288.23,-194.37"/>
<text text-anchor="middle" x="297.5" y="-170.5" font-family="Helvetica,sans-Serif" font-size="10.00"> key</text>
</g>
<!-- Node7 -->
<g id="node7" class="node">
<title>Node7</title>
<g id="a_node7"><a xlink:title=" ">
<polygon fill="white" stroke="#bfbfbf" points="331.5,-202.5 331.5,-221.5 458.5,-221.5 458.5,-202.5 331.5,-202.5"/>
<text text-anchor="middle" x="395" y="-209.5" font-family="Helvetica,sans-Serif" font-size="10.00">MapEntryImpl&lt; K, V &gt;</text>
</a>
</g>
</g>
<!-- Node7&#45;&gt;Node3 -->
<g id="edge7" class="edge">
<title>Node7&#45;&gt;Node3</title>
<path fill="none" stroke="#9a32cd" stroke-dasharray="5,2" d="M373.57,-196.57C345.57,-177.71 296.85,-144.9 269.04,-126.17"/>
<polygon fill="#9a32cd" stroke="#9a32cd" points="371.96,-199.7 382.21,-202.39 375.87,-193.9 371.96,-199.7"/>
<text text-anchor="middle" x="374" y="-176" font-family="Helvetica,sans-Serif" font-size="10.00"> previous</text>
<text text-anchor="middle" x="374" y="-165" font-family="Helvetica,sans-Serif" font-size="10.00">next</text>
</g>
</g>
</svg>
