<?xml version="1.0" encoding="UTF-8" standalone="no"?>
<!DOCTYPE svg PUBLIC "-//W3C//DTD SVG 1.1//EN"
 "http://www.w3.org/Graphics/SVG/1.1/DTD/svg11.dtd">
<!-- Generated by graphviz version 2.43.0 (0)
 -->
<!-- Title: javolution.util.internal.map.MapView&lt; K, V &gt; Pages: 1 -->
<!--zoomable 214 -->
<svg id="main" version="1.1" xmlns="http://www.w3.org/2000/svg" xmlns:xlink="http://www.w3.org/1999/xlink" xml:space="preserve" onload="init(evt)">
<style type="text/css"><![CDATA[
.edge:hover path { stroke: red; }
.edge:hover polygon { stroke: red; fill: red; }
]]></style>
<script type="text/javascript"><![CDATA[
var edges = document.getElementsByTagName('g');
if (edges && edges.length) {
  for (var i=0;i<edges.length;i++) {
    if (edges[i].id.substr(0,4)=='edge') {
      edges[i].setAttribute('class','edge');
    }
  }
}
]]></script>
        <defs>
                <circle id="rim" cx="0" cy="0" r="7"/>
                <circle id="rim2" cx="0" cy="0" r="3.5"/>
                <g id="zoomPlus">
                        <use xlink:href="#rim" fill="#404040">
                                <set attributeName="fill" to="#808080" begin="zoomplus.mouseover" end="zoomplus.mouseout"/>
                        </use>
                        <path d="M-4,0h8M0,-4v8" fill="none" stroke="white" stroke-width="1.5" pointer-events="none"/>
                </g>
                <g id="zoomMin">
                        <use xlink:href="#rim" fill="#404040">
                                <set attributeName="fill" to="#808080" begin="zoomminus.mouseover" end="zoomminus.mouseout"/>
                        </use>
                        <path d="M-4,0h8" fill="none" stroke="white" stroke-width="1.5" pointer-events="none"/>
                </g>
                <g id="dirArrow">
                        <path fill="none" stroke="white" stroke-width="1.5" d="M0,-3.0v7 M-2.5,-0.5L0,-3.0L2.5,-0.5"/>
                </g>
               <g id="resetDef">
                       <use xlink:href="#rim2" fill="#404040">
                               <set attributeName="fill" to="#808080" begin="reset.mouseover" end="reset.mouseout"/>
                       </use>
               </g>
        </defs>

<script type="text/javascript">
var viewWidth = 585;
var viewHeight = 214;
var sectionId = 'dynsection-1';
</script>
<script xlink:href="../../svgpan.js"/>
<svg id="graph" class="graph">
<g id="viewport">
<title>javolution.util.internal.map.MapView&lt; K, V &gt;</title>
<polygon fill="white" stroke="transparent" points="-4,4 -4,-210 581,-210 581,4 -4,4"/>
<!-- Node1 -->
<g id="node1" class="node">
<title>Node1</title>
<g id="a_node1"><a xlink:title=" ">
<polygon fill="#bfbfbf" stroke="black" points="425,-38 425,-68 577,-68 577,-38 425,-38"/>
<text text-anchor="start" x="433" y="-56" font-family="Helvetica,sans-Serif" font-size="10.00">javolution.util.internal.map.</text>
<text text-anchor="middle" x="501" y="-45" font-family="Helvetica,sans-Serif" font-size="10.00">MapView&lt; K, V &gt;</text>
</a>
</g>
</g>
<!-- Node2 -->
<g id="node2" class="node">
<title>Node2</title>
<g id="a_node2"><a xlink:href="../../d7/d30/interfacejavolution_1_1util_1_1service_1_1MapService.html" target="_top" xlink:title=" ">
<polygon fill="white" stroke="black" points="176,-82 176,-112 304,-112 304,-82 176,-82"/>
<text text-anchor="start" x="184" y="-100" font-family="Helvetica,sans-Serif" font-size="10.00">javolution::util::service</text>
<text text-anchor="middle" x="240" y="-89" font-family="Helvetica,sans-Serif" font-size="10.00">::MapService&lt; K, V &gt;</text>
</a>
</g>
</g>
<!-- Node2&#45;&gt;Node1 -->
<g id="edge1" class="edge">
<title>Node2&#45;&gt;Node1</title>
<path fill="none" stroke="midnightblue" d="M314.05,-84.59C348.61,-78.72 389.84,-71.71 424.69,-65.79"/>
<polygon fill="midnightblue" stroke="midnightblue" points="313.3,-81.17 304.03,-86.29 314.47,-88.07 313.3,-81.17"/>
</g>
<!-- Node3 -->
<g id="node3" class="node">
<title>Node3</title>
<g id="a_node3"><a xlink:title=" ">
<polygon fill="white" stroke="#bfbfbf" points="5.5,-186.5 5.5,-205.5 133.5,-205.5 133.5,-186.5 5.5,-186.5"/>
<text text-anchor="middle" x="69.5" y="-193.5" font-family="Helvetica,sans-Serif" font-size="10.00">java::util::Map&lt; K, V &gt;</text>
</a>
</g>
</g>
<!-- Node3&#45;&gt;Node2 -->
<g id="edge2" class="edge">
<title>Node3&#45;&gt;Node2</title>
<path fill="none" stroke="midnightblue" d="M124.6,-183.24C129.57,-181.4 134.45,-179.33 139,-177 172.65,-159.79 205.71,-130.16 224.12,-112.19"/>
<polygon fill="midnightblue" stroke="midnightblue" points="123.33,-179.97 114.98,-186.49 125.57,-186.6 123.33,-179.97"/>
</g>
<!-- Node4 -->
<g id="node4" class="node">
<title>Node4</title>
<g id="a_node4"><a xlink:title=" ">
<polygon fill="white" stroke="#bfbfbf" points="0,-137 0,-167 139,-167 139,-137 0,-137"/>
<text text-anchor="start" x="8" y="-155" font-family="Helvetica,sans-Serif" font-size="10.00">java::util::concurrent</text>
<text text-anchor="middle" x="69.5" y="-144" font-family="Helvetica,sans-Serif" font-size="10.00">::ConcurrentMap&lt; K, V &gt;</text>
</a>
</g>
</g>
<!-- Node4&#45;&gt;Node2 -->
<g id="edge3" class="edge">
<title>Node4&#45;&gt;Node2</title>
<path fill="none" stroke="midnightblue" d="M126.26,-133.8C147.91,-126.73 172.4,-118.74 193.01,-112.01"/>
<polygon fill="midnightblue" stroke="midnightblue" points="124.96,-130.54 116.54,-136.97 127.14,-137.2 124.96,-130.54"/>
</g>
<!-- Node5 -->
<g id="node5" class="node">
<title>Node5</title>
<g id="a_node5"><a xlink:href="../../dd/ded/interfacejavolution_1_1util_1_1function_1_1Splittable.html" target="_top" xlink:title=" ">
<polygon fill="white" stroke="black" points="1,-76.5 1,-117.5 138,-117.5 138,-76.5 1,-76.5"/>
<text text-anchor="start" x="9" y="-105.5" font-family="Helvetica,sans-Serif" font-size="10.00">javolution::util::function</text>
<text text-anchor="start" x="9" y="-94.5" font-family="Helvetica,sans-Serif" font-size="10.00">::Splittable&lt; MapService</text>
<text text-anchor="middle" x="69.5" y="-83.5" font-family="Helvetica,sans-Serif" font-size="10.00">&lt; K, V &gt; &gt;</text>
</a>
</g>
</g>
<!-- Node5&#45;&gt;Node2 -->
<g id="edge4" class="edge">
<title>Node5&#45;&gt;Node2</title>
<path fill="none" stroke="midnightblue" d="M148.07,-97C157.36,-97 166.75,-97 175.79,-97"/>
<polygon fill="midnightblue" stroke="midnightblue" points="148.06,-93.5 138.06,-97 148.06,-100.5 148.06,-93.5"/>
</g>
<!-- Node6 -->
<g id="node6" class="node">
<title>Node6</title>
<g id="a_node6"><a xlink:title=" ">
<polygon fill="white" stroke="#bfbfbf" points="32.5,-38.5 32.5,-57.5 106.5,-57.5 106.5,-38.5 32.5,-38.5"/>
<text text-anchor="middle" x="69.5" y="-45.5" font-family="Helvetica,sans-Serif" font-size="10.00">Serializable</text>
</a>
</g>
</g>
<!-- Node6&#45;&gt;Node2 -->
<g id="edge5" class="edge">
<title>Node6&#45;&gt;Node2</title>
<path fill="none" stroke="midnightblue" d="M115.24,-60.26C123.16,-62.48 131.33,-64.79 139,-67 155.54,-71.78 173.58,-77.14 189.72,-81.99"/>
<polygon fill="midnightblue" stroke="midnightblue" points="115.96,-56.83 105.39,-57.53 114.08,-63.58 115.96,-56.83"/>
</g>
<!-- Node7 -->
<g id="node7" class="node">
<title>Node7</title>
<g id="a_node7"><a xlink:href="../../d5/d48/classCloneable.html" target="_top" xlink:title=" ">
<polygon fill="white" stroke="black" points="37,-0.5 37,-19.5 102,-19.5 102,-0.5 37,-0.5"/>
<text text-anchor="middle" x="69.5" y="-7.5" font-family="Helvetica,sans-Serif" font-size="10.00">Cloneable</text>
</a>
</g>
</g>
<!-- Node7&#45;&gt;Node2 -->
<g id="edge6" class="edge">
<title>Node7&#45;&gt;Node2</title>
<path fill="none" stroke="midnightblue" d="M112.06,-17.32C121.38,-20.08 130.89,-23.85 139,-29 160.29,-42.51 155.47,-57.37 176,-72 181.27,-75.76 187.19,-79.05 193.22,-81.91"/>
<polygon fill="midnightblue" stroke="midnightblue" points="112.68,-13.86 102.12,-14.71 110.9,-20.63 112.68,-13.86"/>
</g>
<!-- Node8 -->
<g id="node8" class="node">
<title>Node8</title>
<g id="a_node8"><a xlink:title=" ">
<polygon fill="white" stroke="#bfbfbf" points="182,-43.5 182,-62.5 298,-62.5 298,-43.5 182,-43.5"/>
<text text-anchor="middle" x="240" y="-50.5" font-family="Helvetica,sans-Serif" font-size="10.00">MapService&lt; K, V &gt;</text>
</a>
</g>
</g>
<!-- Node8&#45;&gt;Node1 -->
<g id="edge7" class="edge">
<title>Node8&#45;&gt;Node1</title>
<path fill="none" stroke="#9a32cd" stroke-dasharray="5,2" d="M308.47,-53C344.14,-53 388.03,-53 424.79,-53"/>
<polygon fill="#9a32cd" stroke="#9a32cd" points="308.16,-49.5 298.16,-53 308.16,-56.5 308.16,-49.5"/>
<text text-anchor="middle" x="364.5" y="-56" font-family="Helvetica,sans-Serif" font-size="10.00"> target</text>
</g>
<!-- Node9 -->
<g id="node9" class="node">
<title>Node9</title>
<g id="a_node9"><a xlink:title=" ">
<polygon fill="white" stroke="#bfbfbf" points="194,-5.5 194,-24.5 286,-24.5 286,-5.5 194,-5.5"/>
<text text-anchor="middle" x="240" y="-12.5" font-family="Helvetica,sans-Serif" font-size="10.00">static final long</text>
</a>
</g>
</g>
<!-- Node9&#45;&gt;Node1 -->
<g id="edge8" class="edge">
<title>Node9&#45;&gt;Node1</title>
<path fill="none" stroke="#9a32cd" stroke-dasharray="5,2" d="M296.28,-22.35C328.58,-26.72 370.13,-32.47 407,-38 412.82,-38.87 418.85,-39.8 424.9,-40.74"/>
<polygon fill="#9a32cd" stroke="#9a32cd" points="296.51,-18.85 286.13,-20.98 295.57,-25.78 296.51,-18.85"/>
<text text-anchor="middle" x="364.5" y="-41" font-family="Helvetica,sans-Serif" font-size="10.00"> serialVersionUID</text>
</g>
</g>
</svg>
        <g id="navigator" transform="translate(0 0)" fill="#404254">
                <rect fill="#f2f5e9" fill-opacity="0.5" stroke="#606060" stroke-width=".5" x="0" y="0" width="60" height="60"/>
                <use id="zoomplus" xlink:href="#zoomPlus" x="17" y="9" onmousedown="handleZoom(evt,'in')"/>
                <use id="zoomminus" xlink:href="#zoomMin" x="42" y="9" onmousedown="handleZoom(evt,'out')"/>
                <use id="reset" xlink:href="#resetDef" x="30" y="36" onmousedown="handleReset()"/>
                <g id="arrowUp" xlink:href="#dirArrow" transform="translate(30 24)" onmousedown="handlePan(0,-1)">
                  <use xlink:href="#rim" fill="#404040">
                        <set attributeName="fill" to="#808080" begin="arrowUp.mouseover" end="arrowUp.mouseout"/>
                  </use>
                  <path fill="none" stroke="white" stroke-width="1.5" d="M0,-3.0v7 M-2.5,-0.5L0,-3.0L2.5,-0.5"/>
                </g>
                <g id="arrowRight" xlink:href="#dirArrow" transform="rotate(90) translate(36 -43)" onmousedown="handlePan(1,0)">
                  <use xlink:href="#rim" fill="#404040">
                        <set attributeName="fill" to="#808080" begin="arrowRight.mouseover" end="arrowRight.mouseout"/>
                  </use>
                  <path fill="none" stroke="white" stroke-width="1.5" d="M0,-3.0v7 M-2.5,-0.5L0,-3.0L2.5,-0.5"/>
                </g>
                <g id="arrowDown" xlink:href="#dirArrow" transform="rotate(180) translate(-30 -48)" onmousedown="handlePan(0,1)">
                  <use xlink:href="#rim" fill="#404040">
                        <set attributeName="fill" to="#808080" begin="arrowDown.mouseover" end="arrowDown.mouseout"/>
                  </use>
                  <path fill="none" stroke="white" stroke-width="1.5" d="M0,-3.0v7 M-2.5,-0.5L0,-3.0L2.5,-0.5"/>
                </g>
                <g id="arrowLeft" xlink:href="#dirArrow" transform="rotate(270) translate(-36 17)" onmousedown="handlePan(-1,0)">
                  <use xlink:href="#rim" fill="#404040">
                        <set attributeName="fill" to="#808080" begin="arrowLeft.mouseover" end="arrowLeft.mouseout"/>
                  </use>
                  <path fill="none" stroke="white" stroke-width="1.5" d="M0,-3.0v7 M-2.5,-0.5L0,-3.0L2.5,-0.5"/>
                </g>
        </g>
        <svg viewBox="0 0 15 15" width="100%" height="30px" preserveAspectRatio="xMaxYMin meet">
         <g id="arrow_out" transform="scale(0.3 0.3)">
          <a xlink:href="classjavolution_1_1util_1_1internal_1_1map_1_1MapView__coll__graph_org.svg" target="_base">
           <rect id="button" ry="5" rx="5" y="6" x="6" height="38" width="38"
                fill="#f2f5e9" fill-opacity="0.5" stroke="#606060" stroke-width="1.0"/>
           <path id="arrow"
             d="M 11.500037,31.436501 C 11.940474,20.09759 22.043105,11.32322 32.158766,21.979434 L 37.068811,17.246167 C 37.068811,17.246167 37.088388,32 37.088388,32 L 22.160133,31.978069 C 22.160133,31.978069 26.997745,27.140456 26.997745,27.140456 C 18.528582,18.264221 13.291696,25.230495 11.500037,31.436501 z"
             style="fill:#404040;"/>
          </a>
         </g>
        </svg>
</svg>
