<?xml version="1.0" encoding="UTF-8" standalone="no"?>
<!DOCTYPE svg PUBLIC "-//W3C//DTD SVG 1.1//EN"
 "http://www.w3.org/Graphics/SVG/1.1/DTD/svg11.dtd">
<!-- Generated by graphviz version 2.43.0 (0)
 -->
<!-- Title: javolution.util.FastCollection&lt; E &gt; Pages: 1 -->
<svg width="1313pt" height="965pt"
 viewBox="0.00 0.00 1313.00 964.50" xmlns="http://www.w3.org/2000/svg" xmlns:xlink="http://www.w3.org/1999/xlink">
<g id="graph0" class="graph" transform="scale(1 1) rotate(0) translate(4 960.5)">
<title>javolution.util.FastCollection&lt; E &gt;</title>
<polygon fill="white" stroke="transparent" points="-4,4 -4,-960.5 1309,-960.5 1309,4 -4,4"/>
<!-- Node1 -->
<g id="node1" class="node">
<title>Node1</title>
<g id="a_node1"><a xlink:title=" ">
<polygon fill="#bfbfbf" stroke="black" points="179,-882.5 179,-901.5 363,-901.5 363,-882.5 179,-882.5"/>
<text text-anchor="middle" x="271" y="-889.5" font-family="Helvetica,sans-Serif" font-size="10.00">javolution.util.FastCollection&lt; E &gt;</text>
</a>
</g>
</g>
<!-- Node4 -->
<g id="node4" class="node">
<title>Node4</title>
<g id="a_node4"><a xlink:href="../../d1/da7/classjavolution_1_1util_1_1FastSet.html" target="_top" xlink:title=" ">
<polygon fill="white" stroke="black" points="409,-925.5 409,-944.5 566,-944.5 566,-925.5 409,-925.5"/>
<text text-anchor="middle" x="487.5" y="-932.5" font-family="Helvetica,sans-Serif" font-size="10.00">javolution::util::FastSet&lt; E &gt;</text>
</a>
</g>
</g>
<!-- Node1&#45;&gt;Node4 -->
<g id="edge3" class="edge">
<title>Node1&#45;&gt;Node4</title>
<path fill="none" stroke="midnightblue" d="M329.48,-903.52C363.74,-910.39 406.71,-919 439.03,-925.48"/>
<polygon fill="midnightblue" stroke="midnightblue" points="330.1,-900.08 319.6,-901.54 328.72,-906.94 330.1,-900.08"/>
</g>
<!-- Node6 -->
<g id="node6" class="node">
<title>Node6</title>
<g id="a_node6"><a xlink:href="../../da/dd1/classjavolution_1_1util_1_1FastTable.html" target="_top" xlink:title=" ">
<polygon fill="white" stroke="black" points="404,-882.5 404,-901.5 571,-901.5 571,-882.5 404,-882.5"/>
<text text-anchor="middle" x="487.5" y="-889.5" font-family="Helvetica,sans-Serif" font-size="10.00">javolution::util::FastTable&lt; E &gt;</text>
</a>
</g>
</g>
<!-- Node1&#45;&gt;Node6 -->
<g id="edge5" class="edge">
<title>Node1&#45;&gt;Node6</title>
<path fill="none" stroke="midnightblue" d="M373.42,-892C383.6,-892 393.85,-892 403.8,-892"/>
<polygon fill="midnightblue" stroke="midnightblue" points="373.28,-888.5 363.28,-892 373.28,-895.5 373.28,-888.5"/>
</g>
<!-- Node8 -->
<g id="node8" class="node">
<title>Node8</title>
<g id="a_node8"><a xlink:href="../../d1/d40/classjavolution_1_1util_1_1internal_1_1collection_1_1CollectionView.html" target="_top" xlink:title=" ">
<polygon fill="white" stroke="black" points="399,-563 399,-593 576,-593 576,-563 399,-563"/>
<text text-anchor="start" x="407" y="-581" font-family="Helvetica,sans-Serif" font-size="10.00">javolution::util::internal</text>
<text text-anchor="middle" x="487.5" y="-570" font-family="Helvetica,sans-Serif" font-size="10.00">::collection::CollectionView&lt; E &gt;</text>
</a>
</g>
</g>
<!-- Node1&#45;&gt;Node8 -->
<g id="edge7" class="edge">
<title>Node1&#45;&gt;Node8</title>
<path fill="none" stroke="midnightblue" d="M284.32,-873.96C322.84,-817.57 440.51,-645.32 476.16,-593.14"/>
<polygon fill="midnightblue" stroke="midnightblue" points="281.41,-872.03 278.65,-882.26 287.19,-875.98 281.41,-872.03"/>
</g>
<!-- Node2 -->
<g id="node2" class="node">
<title>Node2</title>
<g id="a_node2"><a xlink:title=" ">
<polygon fill="white" stroke="#bfbfbf" points="0,-901.5 0,-920.5 143,-920.5 143,-901.5 0,-901.5"/>
<text text-anchor="middle" x="71.5" y="-908.5" font-family="Helvetica,sans-Serif" font-size="10.00">java::util::Collection&lt; E &gt;</text>
</a>
</g>
</g>
<!-- Node2&#45;&gt;Node1 -->
<g id="edge1" class="edge">
<title>Node2&#45;&gt;Node1</title>
<path fill="none" stroke="midnightblue" d="M153.35,-903.22C161.72,-902.42 170.27,-901.59 178.74,-900.78"/>
<polygon fill="midnightblue" stroke="midnightblue" points="152.86,-899.75 143.24,-904.19 153.53,-906.72 152.86,-899.75"/>
</g>
<!-- Node3 -->
<g id="node3" class="node">
<title>Node3</title>
<g id="a_node3"><a xlink:title=" ">
<polygon fill="white" stroke="#bfbfbf" points="34.5,-863.5 34.5,-882.5 108.5,-882.5 108.5,-863.5 34.5,-863.5"/>
<text text-anchor="middle" x="71.5" y="-870.5" font-family="Helvetica,sans-Serif" font-size="10.00">Serializable</text>
</a>
</g>
</g>
<!-- Node3&#45;&gt;Node1 -->
<g id="edge2" class="edge">
<title>Node3&#45;&gt;Node1</title>
<path fill="none" stroke="midnightblue" d="M118.91,-877.47C136.91,-879.2 158.16,-881.24 178.95,-883.24"/>
<polygon fill="midnightblue" stroke="midnightblue" points="119.01,-873.96 108.72,-876.48 118.34,-880.93 119.01,-873.96"/>
</g>
<!-- Node5 -->
<g id="node5" class="node">
<title>Node5</title>
<g id="a_node5"><a xlink:href="../../de/d0b/classjavolution_1_1util_1_1FastSortedSet.html" target="_top" xlink:title=" ">
<polygon fill="white" stroke="black" points="644.5,-926 644.5,-956 788.5,-956 788.5,-926 644.5,-926"/>
<text text-anchor="start" x="652.5" y="-944" font-family="Helvetica,sans-Serif" font-size="10.00">javolution::util::FastSorted</text>
<text text-anchor="middle" x="716.5" y="-933" font-family="Helvetica,sans-Serif" font-size="10.00">Set&lt; E &gt;</text>
</a>
</g>
</g>
<!-- Node4&#45;&gt;Node5 -->
<g id="edge4" class="edge">
<title>Node4&#45;&gt;Node5</title>
<path fill="none" stroke="midnightblue" d="M576.5,-937.33C598.95,-937.92 622.79,-938.55 644.28,-939.12"/>
<polygon fill="midnightblue" stroke="midnightblue" points="576.39,-933.82 566.3,-937.06 576.21,-940.82 576.39,-933.82"/>
</g>
<!-- Node7 -->
<g id="node7" class="node">
<title>Node7</title>
<g id="a_node7"><a xlink:href="../../d8/d64/classjavolution_1_1util_1_1FastSortedTable.html" target="_top" xlink:title=" ">
<polygon fill="white" stroke="black" points="644.5,-877 644.5,-907 788.5,-907 788.5,-877 644.5,-877"/>
<text text-anchor="start" x="652.5" y="-895" font-family="Helvetica,sans-Serif" font-size="10.00">javolution::util::FastSorted</text>
<text text-anchor="middle" x="716.5" y="-884" font-family="Helvetica,sans-Serif" font-size="10.00">Table&lt; E &gt;</text>
</a>
</g>
</g>
<!-- Node6&#45;&gt;Node7 -->
<g id="edge6" class="edge">
<title>Node6&#45;&gt;Node7</title>
<path fill="none" stroke="midnightblue" d="M581.31,-892C602.3,-892 624.26,-892 644.21,-892"/>
<polygon fill="midnightblue" stroke="midnightblue" points="581.09,-888.5 571.09,-892 581.09,-895.5 581.09,-888.5"/>
</g>
<!-- Node9 -->
<g id="node9" class="node">
<title>Node9</title>
<g id="a_node9"><a xlink:href="../../d3/d15/classjavolution_1_1util_1_1internal_1_1collection_1_1AtomicCollectionImpl.html" target="_top" xlink:title=" ">
<polygon fill="white" stroke="black" points="612,-828 612,-858 821,-858 821,-828 612,-828"/>
<text text-anchor="start" x="620" y="-846" font-family="Helvetica,sans-Serif" font-size="10.00">javolution::util::internal</text>
<text text-anchor="middle" x="716.5" y="-835" font-family="Helvetica,sans-Serif" font-size="10.00">::collection::AtomicCollectionImpl&lt; E &gt;</text>
</a>
</g>
</g>
<!-- Node8&#45;&gt;Node9 -->
<g id="edge8" class="edge">
<title>Node8&#45;&gt;Node9</title>
<path fill="none" stroke="midnightblue" d="M494.01,-602.98C506.21,-652.16 540.27,-761.61 612,-818 616.94,-821.88 622.39,-825.18 628.14,-827.97"/>
<polygon fill="midnightblue" stroke="midnightblue" points="497.4,-602.09 491.67,-593.18 490.59,-603.72 497.4,-602.09"/>
</g>
<!-- Node14 -->
<g id="node14" class="node">
<title>Node14</title>
<g id="a_node14"><a xlink:href="../../de/dfd/classjavolution_1_1util_1_1internal_1_1collection_1_1DistinctCollectionImpl.html" target="_top" xlink:title=" ">
<polygon fill="white" stroke="black" points="635.5,-767.5 635.5,-808.5 797.5,-808.5 797.5,-767.5 635.5,-767.5"/>
<text text-anchor="start" x="643.5" y="-796.5" font-family="Helvetica,sans-Serif" font-size="10.00">javolution::util::internal</text>
<text text-anchor="start" x="643.5" y="-785.5" font-family="Helvetica,sans-Serif" font-size="10.00">::collection::DistinctCollection</text>
<text text-anchor="middle" x="716.5" y="-774.5" font-family="Helvetica,sans-Serif" font-size="10.00">Impl&lt; E &gt;</text>
</a>
</g>
</g>
<!-- Node8&#45;&gt;Node14 -->
<g id="edge13" class="edge">
<title>Node8&#45;&gt;Node14</title>
<path fill="none" stroke="midnightblue" d="M498.75,-602.69C516.19,-641.62 555.32,-717.04 612,-758 619.13,-763.15 627.13,-767.42 635.44,-770.96"/>
<polygon fill="midnightblue" stroke="midnightblue" points="501.81,-600.94 494.6,-593.18 495.4,-603.74 501.81,-600.94"/>
</g>
<!-- Node15 -->
<g id="node15" class="node">
<title>Node15</title>
<g id="a_node15"><a xlink:href="../../d0/d88/classjavolution_1_1util_1_1internal_1_1collection_1_1FilteredCollectionImpl.html" target="_top" xlink:title=" ">
<polygon fill="white" stroke="black" points="636,-707.5 636,-748.5 797,-748.5 797,-707.5 636,-707.5"/>
<text text-anchor="start" x="644" y="-736.5" font-family="Helvetica,sans-Serif" font-size="10.00">javolution::util::internal</text>
<text text-anchor="start" x="644" y="-725.5" font-family="Helvetica,sans-Serif" font-size="10.00">::collection::FilteredCollection</text>
<text text-anchor="middle" x="716.5" y="-714.5" font-family="Helvetica,sans-Serif" font-size="10.00">Impl&lt; E &gt;</text>
</a>
</g>
</g>
<!-- Node8&#45;&gt;Node15 -->
<g id="edge14" class="edge">
<title>Node8&#45;&gt;Node15</title>
<path fill="none" stroke="midnightblue" d="M506.56,-601.49C528.61,-628.58 568.39,-672.65 612,-698 619.44,-702.33 627.55,-706.06 635.84,-709.29"/>
<polygon fill="midnightblue" stroke="midnightblue" points="509.02,-598.96 500.05,-593.33 503.56,-603.33 509.02,-598.96"/>
</g>
<!-- Node17 -->
<g id="node17" class="node">
<title>Node17</title>
<g id="a_node17"><a xlink:href="../../d5/dc1/classjavolution_1_1util_1_1internal_1_1collection_1_1ParallelCollectionImpl.html" target="_top" xlink:title=" ">
<polygon fill="white" stroke="black" points="636,-647.5 636,-688.5 797,-688.5 797,-647.5 636,-647.5"/>
<text text-anchor="start" x="644" y="-676.5" font-family="Helvetica,sans-Serif" font-size="10.00">javolution::util::internal</text>
<text text-anchor="start" x="644" y="-665.5" font-family="Helvetica,sans-Serif" font-size="10.00">::collection::ParallelCollection</text>
<text text-anchor="middle" x="716.5" y="-654.5" font-family="Helvetica,sans-Serif" font-size="10.00">Impl&lt; E &gt;</text>
</a>
</g>
</g>
<!-- Node8&#45;&gt;Node17 -->
<g id="edge16" class="edge">
<title>Node8&#45;&gt;Node17</title>
<path fill="none" stroke="midnightblue" d="M525.5,-598.03C549.66,-610.59 582.15,-626.52 612,-638 620.64,-641.32 629.81,-644.48 638.98,-647.42"/>
<polygon fill="midnightblue" stroke="midnightblue" points="526.82,-594.77 516.34,-593.22 523.57,-600.97 526.82,-594.77"/>
</g>
<!-- Node18 -->
<g id="node18" class="node">
<title>Node18</title>
<g id="a_node18"><a xlink:href="../../dc/d5e/classjavolution_1_1util_1_1internal_1_1collection_1_1ReversedCollectionImpl.html" target="_top" xlink:title=" ">
<polygon fill="white" stroke="black" points="631.5,-587.5 631.5,-628.5 801.5,-628.5 801.5,-587.5 631.5,-587.5"/>
<text text-anchor="start" x="639.5" y="-616.5" font-family="Helvetica,sans-Serif" font-size="10.00">javolution::util::internal</text>
<text text-anchor="start" x="639.5" y="-605.5" font-family="Helvetica,sans-Serif" font-size="10.00">::collection::ReversedCollection</text>
<text text-anchor="middle" x="716.5" y="-594.5" font-family="Helvetica,sans-Serif" font-size="10.00">Impl&lt; E &gt;</text>
</a>
</g>
</g>
<!-- Node8&#45;&gt;Node18 -->
<g id="edge17" class="edge">
<title>Node8&#45;&gt;Node18</title>
<path fill="none" stroke="midnightblue" d="M586.52,-590.95C601.45,-592.93 616.73,-594.95 631.33,-596.88"/>
<polygon fill="midnightblue" stroke="midnightblue" points="586.64,-587.44 576.26,-589.6 585.72,-594.38 586.64,-587.44"/>
</g>
<!-- Node19 -->
<g id="node19" class="node">
<title>Node19</title>
<g id="a_node19"><a xlink:href="../../da/d02/classjavolution_1_1util_1_1internal_1_1collection_1_1SequentialCollectionImpl.html" target="_top" xlink:title=" ">
<polygon fill="white" stroke="black" points="628.5,-527.5 628.5,-568.5 804.5,-568.5 804.5,-527.5 628.5,-527.5"/>
<text text-anchor="start" x="636.5" y="-556.5" font-family="Helvetica,sans-Serif" font-size="10.00">javolution::util::internal</text>
<text text-anchor="start" x="636.5" y="-545.5" font-family="Helvetica,sans-Serif" font-size="10.00">::collection::SequentialCollection</text>
<text text-anchor="middle" x="716.5" y="-534.5" font-family="Helvetica,sans-Serif" font-size="10.00">Impl&lt; E &gt;</text>
</a>
</g>
</g>
<!-- Node8&#45;&gt;Node19 -->
<g id="edge18" class="edge">
<title>Node8&#45;&gt;Node19</title>
<path fill="none" stroke="midnightblue" d="M586.36,-565.07C600.32,-563.22 614.61,-561.33 628.34,-559.52"/>
<polygon fill="midnightblue" stroke="midnightblue" points="585.72,-561.62 576.26,-566.4 586.64,-568.56 585.72,-561.62"/>
</g>
<!-- Node20 -->
<g id="node20" class="node">
<title>Node20</title>
<g id="a_node20"><a xlink:href="../../d4/dd1/classjavolution_1_1util_1_1internal_1_1collection_1_1SharedCollectionImpl.html" target="_top" xlink:title=" ">
<polygon fill="white" stroke="black" points="612,-478 612,-508 821,-508 821,-478 612,-478"/>
<text text-anchor="start" x="620" y="-496" font-family="Helvetica,sans-Serif" font-size="10.00">javolution::util::internal</text>
<text text-anchor="middle" x="716.5" y="-485" font-family="Helvetica,sans-Serif" font-size="10.00">::collection::SharedCollectionImpl&lt; E &gt;</text>
</a>
</g>
</g>
<!-- Node8&#45;&gt;Node20 -->
<g id="edge19" class="edge">
<title>Node8&#45;&gt;Node20</title>
<path fill="none" stroke="midnightblue" d="M524.06,-558.19C548.27,-545.33 581.36,-529 612,-518 622.35,-514.28 633.48,-510.94 644.47,-508.01"/>
<polygon fill="midnightblue" stroke="midnightblue" points="522.39,-555.11 515.24,-562.92 525.71,-561.27 522.39,-555.11"/>
</g>
<!-- Node25 -->
<g id="node25" class="node">
<title>Node25</title>
<g id="a_node25"><a xlink:href="../../d8/daf/classjavolution_1_1util_1_1internal_1_1collection_1_1SortedCollectionImpl.html" target="_top" xlink:title=" ">
<polygon fill="white" stroke="black" points="613.5,-429 613.5,-459 819.5,-459 819.5,-429 613.5,-429"/>
<text text-anchor="start" x="621.5" y="-447" font-family="Helvetica,sans-Serif" font-size="10.00">javolution::util::internal</text>
<text text-anchor="middle" x="716.5" y="-436" font-family="Helvetica,sans-Serif" font-size="10.00">::collection::SortedCollectionImpl&lt; E &gt;</text>
</a>
</g>
</g>
<!-- Node8&#45;&gt;Node25 -->
<g id="edge24" class="edge">
<title>Node8&#45;&gt;Node25</title>
<path fill="none" stroke="midnightblue" d="M507.49,-555.32C529.87,-530.11 569.44,-490.04 612,-468 618.63,-464.57 625.76,-461.62 633.05,-459.09"/>
<polygon fill="midnightblue" stroke="midnightblue" points="504.78,-553.11 500.84,-562.95 510.05,-557.71 504.78,-553.11"/>
</g>
<!-- Node26 -->
<g id="node26" class="node">
<title>Node26</title>
<g id="a_node26"><a xlink:href="../../d5/dee/classjavolution_1_1util_1_1internal_1_1collection_1_1UnmodifiableCollectionImpl.html" target="_top" xlink:title=" ">
<polygon fill="white" stroke="black" points="621.5,-368.5 621.5,-409.5 811.5,-409.5 811.5,-368.5 621.5,-368.5"/>
<text text-anchor="start" x="629.5" y="-397.5" font-family="Helvetica,sans-Serif" font-size="10.00">javolution::util::internal</text>
<text text-anchor="start" x="629.5" y="-386.5" font-family="Helvetica,sans-Serif" font-size="10.00">::collection::UnmodifiableCollection</text>
<text text-anchor="middle" x="716.5" y="-375.5" font-family="Helvetica,sans-Serif" font-size="10.00">Impl&lt; E &gt;</text>
</a>
</g>
</g>
<!-- Node8&#45;&gt;Node26 -->
<g id="edge25" class="edge">
<title>Node8&#45;&gt;Node26</title>
<path fill="none" stroke="midnightblue" d="M500.9,-553.66C520,-518.63 559.92,-454.34 612,-419 617.19,-415.48 622.79,-412.37 628.61,-409.62"/>
<polygon fill="midnightblue" stroke="midnightblue" points="497.69,-552.25 496.08,-562.72 503.87,-555.54 497.69,-552.25"/>
</g>
<!-- Node29 -->
<g id="node29" class="node">
<title>Node29</title>
<g id="a_node29"><a xlink:href="../../db/dea/classjavolution_1_1util_1_1internal_1_1set_1_1SetView.html" target="_top" xlink:title=" ">
<polygon fill="white" stroke="black" points="651,-314 651,-344 782,-344 782,-314 651,-314"/>
<text text-anchor="start" x="659" y="-332" font-family="Helvetica,sans-Serif" font-size="10.00">javolution::util::internal</text>
<text text-anchor="middle" x="716.5" y="-321" font-family="Helvetica,sans-Serif" font-size="10.00">::set::SetView&lt; E &gt;</text>
</a>
</g>
</g>
<!-- Node8&#45;&gt;Node29 -->
<g id="edge28" class="edge">
<title>Node8&#45;&gt;Node29</title>
<path fill="none" stroke="midnightblue" d="M495.57,-553.24C509.84,-507.77 546.44,-410.91 612,-359 623.22,-350.12 636.98,-343.86 650.75,-339.46"/>
<polygon fill="midnightblue" stroke="midnightblue" points="492.2,-552.29 492.64,-562.88 498.9,-554.33 492.2,-552.29"/>
</g>
<!-- Node34 -->
<g id="node34" class="node">
<title>Node34</title>
<g id="a_node34"><a xlink:href="../../d8/d86/classjavolution_1_1util_1_1internal_1_1table_1_1TableView.html" target="_top" xlink:title=" ">
<polygon fill="white" stroke="black" points="651,-129 651,-159 782,-159 782,-129 651,-129"/>
<text text-anchor="start" x="659" y="-147" font-family="Helvetica,sans-Serif" font-size="10.00">javolution::util::internal</text>
<text text-anchor="middle" x="716.5" y="-136" font-family="Helvetica,sans-Serif" font-size="10.00">::table::TableView&lt; E &gt;</text>
</a>
</g>
</g>
<!-- Node8&#45;&gt;Node34 -->
<g id="edge33" class="edge">
<title>Node8&#45;&gt;Node34</title>
<path fill="none" stroke="midnightblue" d="M498.15,-553.35C517.53,-504.62 563.53,-392.98 612,-304 642.07,-248.8 684.52,-187.4 704.41,-159.41"/>
<polygon fill="midnightblue" stroke="midnightblue" points="494.85,-552.18 494.42,-562.77 501.36,-554.75 494.85,-552.18"/>
</g>
<!-- Node10 -->
<g id="node10" class="node">
<title>Node10</title>
<g id="a_node10"><a xlink:href="../../da/df2/classjavolution_1_1util_1_1internal_1_1set_1_1AtomicSetImpl.html" target="_top" xlink:title=" ">
<polygon fill="white" stroke="black" points="885,-852 885,-882 1029,-882 1029,-852 885,-852"/>
<text text-anchor="start" x="893" y="-870" font-family="Helvetica,sans-Serif" font-size="10.00">javolution::util::internal</text>
<text text-anchor="middle" x="957" y="-859" font-family="Helvetica,sans-Serif" font-size="10.00">::set::AtomicSetImpl&lt; E &gt;</text>
</a>
</g>
</g>
<!-- Node9&#45;&gt;Node10 -->
<g id="edge9" class="edge">
<title>Node9&#45;&gt;Node10</title>
<path fill="none" stroke="midnightblue" d="M831.19,-854.44C849.45,-856.28 867.88,-858.13 884.77,-859.83"/>
<polygon fill="midnightblue" stroke="midnightblue" points="831.37,-850.94 821.07,-853.42 830.67,-857.91 831.37,-850.94"/>
</g>
<!-- Node12 -->
<g id="node12" class="node">
<title>Node12</title>
<g id="a_node12"><a xlink:href="../../db/da7/classjavolution_1_1util_1_1internal_1_1table_1_1AtomicTableImpl.html" target="_top" xlink:title=" ">
<polygon fill="white" stroke="black" points="875,-800 875,-830 1039,-830 1039,-800 875,-800"/>
<text text-anchor="start" x="883" y="-818" font-family="Helvetica,sans-Serif" font-size="10.00">javolution::util::internal</text>
<text text-anchor="middle" x="957" y="-807" font-family="Helvetica,sans-Serif" font-size="10.00">::table::AtomicTableImpl&lt; E &gt;</text>
</a>
</g>
</g>
<!-- Node9&#45;&gt;Node12 -->
<g id="edge11" class="edge">
<title>Node9&#45;&gt;Node12</title>
<path fill="none" stroke="midnightblue" d="M831.22,-829.65C845.93,-827.92 860.74,-826.18 874.78,-824.54"/>
<polygon fill="midnightblue" stroke="midnightblue" points="830.59,-826.2 821.07,-830.84 831.41,-833.15 830.59,-826.2"/>
</g>
<!-- Node11 -->
<g id="node11" class="node">
<title>Node11</title>
<g id="a_node11"><a xlink:href="../../d3/d35/classjavolution_1_1util_1_1internal_1_1set_1_1sorted_1_1AtomicSortedSetImpl.html" target="_top" xlink:title=" ">
<polygon fill="white" stroke="black" points="1093,-853 1093,-883 1305,-883 1305,-853 1093,-853"/>
<text text-anchor="start" x="1101" y="-871" font-family="Helvetica,sans-Serif" font-size="10.00">javolution::util::internal</text>
<text text-anchor="middle" x="1199" y="-860" font-family="Helvetica,sans-Serif" font-size="10.00">::set::sorted::AtomicSortedSetImpl&lt; E &gt;</text>
</a>
</g>
</g>
<!-- Node10&#45;&gt;Node11 -->
<g id="edge10" class="edge">
<title>Node10&#45;&gt;Node11</title>
<path fill="none" stroke="midnightblue" d="M1039.06,-867.34C1056.36,-867.41 1074.86,-867.49 1092.91,-867.56"/>
<polygon fill="midnightblue" stroke="midnightblue" points="1039.05,-863.84 1029.03,-867.3 1039.02,-870.84 1039.05,-863.84"/>
</g>
<!-- Node13 -->
<g id="node13" class="node">
<title>Node13</title>
<g id="a_node13"><a xlink:href="../../d9/d49/classjavolution_1_1util_1_1internal_1_1table_1_1sorted_1_1AtomicSortedTableImpl.html" target="_top" xlink:title=" ">
<polygon fill="white" stroke="black" points="1108,-792.5 1108,-833.5 1290,-833.5 1290,-792.5 1108,-792.5"/>
<text text-anchor="start" x="1116" y="-821.5" font-family="Helvetica,sans-Serif" font-size="10.00">javolution::util::internal</text>
<text text-anchor="start" x="1116" y="-810.5" font-family="Helvetica,sans-Serif" font-size="10.00">::table::sorted::AtomicSortedTable</text>
<text text-anchor="middle" x="1199" y="-799.5" font-family="Helvetica,sans-Serif" font-size="10.00">Impl&lt; E &gt;</text>
</a>
</g>
</g>
<!-- Node12&#45;&gt;Node13 -->
<g id="edge12" class="edge">
<title>Node12&#45;&gt;Node13</title>
<path fill="none" stroke="midnightblue" d="M1049.45,-814.24C1068.56,-814.08 1088.69,-813.91 1107.76,-813.75"/>
<polygon fill="midnightblue" stroke="midnightblue" points="1049.22,-810.74 1039.25,-814.32 1049.28,-817.74 1049.22,-810.74"/>
</g>
<!-- Node16 -->
<g id="node16" class="node">
<title>Node16</title>
<g id="a_node16"><a xlink:href="../../d9/d34/classjavolution_1_1util_1_1internal_1_1set_1_1FilteredSetImpl.html" target="_top" xlink:title=" ">
<polygon fill="white" stroke="black" points="884,-713 884,-743 1030,-743 1030,-713 884,-713"/>
<text text-anchor="start" x="892" y="-731" font-family="Helvetica,sans-Serif" font-size="10.00">javolution::util::internal</text>
<text text-anchor="middle" x="957" y="-720" font-family="Helvetica,sans-Serif" font-size="10.00">::set::FilteredSetImpl&lt; E &gt;</text>
</a>
</g>
</g>
<!-- Node15&#45;&gt;Node16 -->
<g id="edge15" class="edge">
<title>Node15&#45;&gt;Node16</title>
<path fill="none" stroke="midnightblue" d="M807.56,-728C832.81,-728 859.91,-728 883.95,-728"/>
<polygon fill="midnightblue" stroke="midnightblue" points="807.25,-724.5 797.25,-728 807.25,-731.5 807.25,-724.5"/>
</g>
<!-- Node21 -->
<g id="node21" class="node">
<title>Node21</title>
<g id="a_node21"><a xlink:href="../../d8/d9b/classjavolution_1_1util_1_1internal_1_1set_1_1SharedSetImpl.html" target="_top" xlink:title=" ">
<polygon fill="white" stroke="black" points="885.5,-530 885.5,-560 1028.5,-560 1028.5,-530 885.5,-530"/>
<text text-anchor="start" x="893.5" y="-548" font-family="Helvetica,sans-Serif" font-size="10.00">javolution::util::internal</text>
<text text-anchor="middle" x="957" y="-537" font-family="Helvetica,sans-Serif" font-size="10.00">::set::SharedSetImpl&lt; E &gt;</text>
</a>
</g>
</g>
<!-- Node20&#45;&gt;Node21 -->
<g id="edge20" class="edge">
<title>Node20&#45;&gt;Node21</title>
<path fill="none" stroke="midnightblue" d="M796.29,-510.18C825.67,-516.58 858.76,-523.8 887.17,-529.99"/>
<polygon fill="midnightblue" stroke="midnightblue" points="797,-506.75 786.48,-508.04 795.51,-513.59 797,-506.75"/>
</g>
<!-- Node23 -->
<g id="node23" class="node">
<title>Node23</title>
<g id="a_node23"><a xlink:href="../../d9/d51/classjavolution_1_1util_1_1internal_1_1table_1_1SharedTableImpl.html" target="_top" xlink:title=" ">
<polygon fill="white" stroke="black" points="875.5,-478 875.5,-508 1038.5,-508 1038.5,-478 875.5,-478"/>
<text text-anchor="start" x="883.5" y="-496" font-family="Helvetica,sans-Serif" font-size="10.00">javolution::util::internal</text>
<text text-anchor="middle" x="957" y="-485" font-family="Helvetica,sans-Serif" font-size="10.00">::table::SharedTableImpl&lt; E &gt;</text>
</a>
</g>
</g>
<!-- Node20&#45;&gt;Node23 -->
<g id="edge22" class="edge">
<title>Node20&#45;&gt;Node23</title>
<path fill="none" stroke="midnightblue" d="M831.29,-493C846.1,-493 861.02,-493 875.14,-493"/>
<polygon fill="midnightblue" stroke="midnightblue" points="831.07,-489.5 821.07,-493 831.07,-496.5 831.07,-489.5"/>
</g>
<!-- Node22 -->
<g id="node22" class="node">
<title>Node22</title>
<g id="a_node22"><a xlink:href="../../df/d5f/classjavolution_1_1util_1_1internal_1_1set_1_1sorted_1_1SharedSortedSetImpl.html" target="_top" xlink:title=" ">
<polygon fill="white" stroke="black" points="1093,-533 1093,-563 1305,-563 1305,-533 1093,-533"/>
<text text-anchor="start" x="1101" y="-551" font-family="Helvetica,sans-Serif" font-size="10.00">javolution::util::internal</text>
<text text-anchor="middle" x="1199" y="-540" font-family="Helvetica,sans-Serif" font-size="10.00">::set::sorted::SharedSortedSetImpl&lt; E &gt;</text>
</a>
</g>
</g>
<!-- Node21&#45;&gt;Node22 -->
<g id="edge21" class="edge">
<title>Node21&#45;&gt;Node22</title>
<path fill="none" stroke="midnightblue" d="M1038.74,-546.01C1056.05,-546.23 1074.58,-546.46 1092.66,-546.68"/>
<polygon fill="midnightblue" stroke="midnightblue" points="1038.75,-542.51 1028.71,-545.88 1038.67,-549.51 1038.75,-542.51"/>
</g>
<!-- Node24 -->
<g id="node24" class="node">
<title>Node24</title>
<g id="a_node24"><a xlink:href="../../d0/d57/classjavolution_1_1util_1_1internal_1_1table_1_1sorted_1_1SharedSortedTableImpl.html" target="_top" xlink:title=" ">
<polygon fill="white" stroke="black" points="1108.5,-472.5 1108.5,-513.5 1289.5,-513.5 1289.5,-472.5 1108.5,-472.5"/>
<text text-anchor="start" x="1116.5" y="-501.5" font-family="Helvetica,sans-Serif" font-size="10.00">javolution::util::internal</text>
<text text-anchor="start" x="1116.5" y="-490.5" font-family="Helvetica,sans-Serif" font-size="10.00">::table::sorted::SharedSortedTable</text>
<text text-anchor="middle" x="1199" y="-479.5" font-family="Helvetica,sans-Serif" font-size="10.00">Impl&lt; E &gt;</text>
</a>
</g>
</g>
<!-- Node23&#45;&gt;Node24 -->
<g id="edge23" class="edge">
<title>Node23&#45;&gt;Node24</title>
<path fill="none" stroke="midnightblue" d="M1048.65,-493C1068.12,-493 1088.69,-493 1108.13,-493"/>
<polygon fill="midnightblue" stroke="midnightblue" points="1048.58,-489.5 1038.58,-493 1048.58,-496.5 1048.58,-489.5"/>
</g>
<!-- Node27 -->
<g id="node27" class="node">
<title>Node27</title>
<g id="a_node27"><a xlink:href="../../d8/dd0/classjavolution_1_1util_1_1internal_1_1set_1_1UnmodifiableSetImpl.html" target="_top" xlink:title=" ">
<polygon fill="white" stroke="black" points="869.5,-424 869.5,-454 1044.5,-454 1044.5,-424 869.5,-424"/>
<text text-anchor="start" x="877.5" y="-442" font-family="Helvetica,sans-Serif" font-size="10.00">javolution::util::internal</text>
<text text-anchor="middle" x="957" y="-431" font-family="Helvetica,sans-Serif" font-size="10.00">::set::UnmodifiableSetImpl&lt; E &gt;</text>
</a>
</g>
</g>
<!-- Node26&#45;&gt;Node27 -->
<g id="edge26" class="edge">
<title>Node26&#45;&gt;Node27</title>
<path fill="none" stroke="midnightblue" d="M821.71,-410.85C842.77,-415.26 864.47,-419.81 884.12,-423.93"/>
<polygon fill="midnightblue" stroke="midnightblue" points="822.27,-407.39 811.76,-408.76 820.83,-414.24 822.27,-407.39"/>
</g>
<!-- Node28 -->
<g id="node28" class="node">
<title>Node28</title>
<g id="a_node28"><a xlink:href="../../d4/d19/classjavolution_1_1util_1_1internal_1_1set_1_1sorted_1_1UnmodifiableSortedSetImpl.html" target="_top" xlink:title=" ">
<polygon fill="white" stroke="black" points="1110.5,-412.5 1110.5,-453.5 1287.5,-453.5 1287.5,-412.5 1110.5,-412.5"/>
<text text-anchor="start" x="1118.5" y="-441.5" font-family="Helvetica,sans-Serif" font-size="10.00">javolution::util::internal</text>
<text text-anchor="start" x="1118.5" y="-430.5" font-family="Helvetica,sans-Serif" font-size="10.00">::set::sorted::UnmodifiableSorted</text>
<text text-anchor="middle" x="1199" y="-419.5" font-family="Helvetica,sans-Serif" font-size="10.00">SetImpl&lt; E &gt;</text>
</a>
</g>
</g>
<!-- Node27&#45;&gt;Node28 -->
<g id="edge27" class="edge">
<title>Node27&#45;&gt;Node28</title>
<path fill="none" stroke="midnightblue" d="M1054.75,-436.58C1073.11,-436.12 1092.22,-435.64 1110.27,-435.19"/>
<polygon fill="midnightblue" stroke="midnightblue" points="1054.55,-433.08 1044.65,-436.83 1054.73,-440.08 1054.55,-433.08"/>
</g>
<!-- Node30 -->
<g id="node30" class="node">
<title>Node30</title>
<g id="a_node30"><a xlink:href="../../d9/da2/classjavolution_1_1util_1_1internal_1_1bitset_1_1BitSetServiceImpl.html" target="_top" xlink:title=" ">
<polygon fill="white" stroke="black" points="885.5,-363.5 885.5,-404.5 1028.5,-404.5 1028.5,-363.5 885.5,-363.5"/>
<text text-anchor="start" x="893.5" y="-392.5" font-family="Helvetica,sans-Serif" font-size="10.00">javolution::util::internal</text>
<text text-anchor="start" x="893.5" y="-381.5" font-family="Helvetica,sans-Serif" font-size="10.00">::bitset::BitSetServiceImpl</text>
<text text-anchor="middle" x="957" y="-370.5" font-family="Helvetica,sans-Serif" font-size="10.00">&lt; Index &gt;</text>
</a>
</g>
</g>
<!-- Node29&#45;&gt;Node30 -->
<g id="edge29" class="edge">
<title>Node29&#45;&gt;Node30</title>
<path fill="none" stroke="midnightblue" d="M791.94,-346.17C821.67,-353.02 855.75,-360.88 885.12,-367.65"/>
<polygon fill="midnightblue" stroke="midnightblue" points="792.57,-342.72 782.04,-343.88 791,-349.54 792.57,-342.72"/>
</g>
<!-- Node31 -->
<g id="node31" class="node">
<title>Node31</title>
<g id="a_node31"><a xlink:href="../../dd/df9/classjavolution_1_1util_1_1internal_1_1map_1_1MapView_1_1EntrySet.html" target="_top" xlink:title=" ">
<polygon fill="white" stroke="black" points="880.5,-303.5 880.5,-344.5 1033.5,-344.5 1033.5,-303.5 880.5,-303.5"/>
<text text-anchor="start" x="888.5" y="-332.5" font-family="Helvetica,sans-Serif" font-size="10.00">javolution::util::internal</text>
<text text-anchor="start" x="888.5" y="-321.5" font-family="Helvetica,sans-Serif" font-size="10.00">::map::MapView&lt; Entry&lt; K,</text>
<text text-anchor="middle" x="957" y="-310.5" font-family="Helvetica,sans-Serif" font-size="10.00"> V &gt; &gt;::EntrySet</text>
</a>
</g>
</g>
<!-- Node29&#45;&gt;Node31 -->
<g id="edge30" class="edge">
<title>Node29&#45;&gt;Node31</title>
<path fill="none" stroke="midnightblue" d="M792.2,-327.43C820.29,-326.84 852.24,-326.18 880.41,-325.58"/>
<polygon fill="midnightblue" stroke="midnightblue" points="791.97,-323.94 782.04,-327.65 792.11,-330.94 791.97,-323.94"/>
</g>
<!-- Node32 -->
<g id="node32" class="node">
<title>Node32</title>
<g id="a_node32"><a xlink:href="../../dd/d26/classjavolution_1_1util_1_1internal_1_1set_1_1sorted_1_1SortedSetView.html" target="_top" xlink:title=" ">
<polygon fill="white" stroke="black" points="867,-254 867,-284 1047,-284 1047,-254 867,-254"/>
<text text-anchor="start" x="875" y="-272" font-family="Helvetica,sans-Serif" font-size="10.00">javolution::util::internal</text>
<text text-anchor="middle" x="957" y="-261" font-family="Helvetica,sans-Serif" font-size="10.00">::set::sorted::SortedSetView&lt; E &gt;</text>
</a>
</g>
</g>
<!-- Node29&#45;&gt;Node32 -->
<g id="edge31" class="edge">
<title>Node29&#45;&gt;Node32</title>
<path fill="none" stroke="midnightblue" d="M787.38,-311.42C821.88,-302.74 863.07,-292.38 896.1,-284.07"/>
<polygon fill="midnightblue" stroke="midnightblue" points="786.22,-308.1 777.38,-313.94 787.93,-314.89 786.22,-308.1"/>
</g>
<!-- Node33 -->
<g id="node33" class="node">
<title>Node33</title>
<g id="a_node33"><a xlink:href="../../d6/de2/classjavolution_1_1util_1_1internal_1_1set_1_1sorted_1_1SubSortedSetImpl.html" target="_top" xlink:title=" ">
<polygon fill="white" stroke="black" points="1101,-255 1101,-285 1297,-285 1297,-255 1101,-255"/>
<text text-anchor="start" x="1109" y="-273" font-family="Helvetica,sans-Serif" font-size="10.00">javolution::util::internal</text>
<text text-anchor="middle" x="1199" y="-262" font-family="Helvetica,sans-Serif" font-size="10.00">::set::sorted::SubSortedSetImpl&lt; E &gt;</text>
</a>
</g>
</g>
<!-- Node32&#45;&gt;Node33 -->
<g id="edge32" class="edge">
<title>Node32&#45;&gt;Node33</title>
<path fill="none" stroke="midnightblue" d="M1057.36,-269.41C1071.67,-269.47 1086.38,-269.53 1100.65,-269.59"/>
<polygon fill="midnightblue" stroke="midnightblue" points="1057.04,-265.91 1047.03,-269.37 1057.01,-272.91 1057.04,-265.91"/>
</g>
<!-- Node35 -->
<g id="node35" class="node">
<title>Node35</title>
<g id="a_node35"><a xlink:href="../../d9/d7a/classjavolution_1_1util_1_1internal_1_1table_1_1FastTableImpl.html" target="_top" xlink:title=" ">
<polygon fill="white" stroke="black" points="882.5,-202 882.5,-232 1031.5,-232 1031.5,-202 882.5,-202"/>
<text text-anchor="start" x="890.5" y="-220" font-family="Helvetica,sans-Serif" font-size="10.00">javolution::util::internal</text>
<text text-anchor="middle" x="957" y="-209" font-family="Helvetica,sans-Serif" font-size="10.00">::table::FastTableImpl&lt; E &gt;</text>
</a>
</g>
</g>
<!-- Node34&#45;&gt;Node35 -->
<g id="edge34" class="edge">
<title>Node34&#45;&gt;Node35</title>
<path fill="none" stroke="midnightblue" d="M768.16,-162.58C794.49,-171.94 827.29,-183.15 857,-192 868.64,-195.47 881.14,-198.87 893.2,-201.99"/>
<polygon fill="midnightblue" stroke="midnightblue" points="769,-159.16 758.41,-159.09 766.65,-165.76 769,-159.16"/>
</g>
<!-- Node37 -->
<g id="node37" class="node">
<title>Node37</title>
<g id="a_node37"><a xlink:href="../../df/d83/classjavolution_1_1util_1_1internal_1_1table_1_1ReversedTableImpl.html" target="_top" xlink:title=" ">
<polygon fill="white" stroke="black" points="869.5,-153 869.5,-183 1044.5,-183 1044.5,-153 869.5,-153"/>
<text text-anchor="start" x="877.5" y="-171" font-family="Helvetica,sans-Serif" font-size="10.00">javolution::util::internal</text>
<text text-anchor="middle" x="957" y="-160" font-family="Helvetica,sans-Serif" font-size="10.00">::table::ReversedTableImpl&lt; E &gt;</text>
</a>
</g>
</g>
<!-- Node34&#45;&gt;Node37 -->
<g id="edge36" class="edge">
<title>Node34&#45;&gt;Node37</title>
<path fill="none" stroke="midnightblue" d="M792.01,-151.5C816.57,-153.97 844.08,-156.74 869.46,-159.29"/>
<polygon fill="midnightblue" stroke="midnightblue" points="792.34,-148.01 782.04,-150.49 791.64,-154.98 792.34,-148.01"/>
</g>
<!-- Node38 -->
<g id="node38" class="node">
<title>Node38</title>
<g id="a_node38"><a xlink:href="../../dc/d36/classjavolution_1_1util_1_1internal_1_1table_1_1sorted_1_1SortedTableView.html" target="_top" xlink:title=" ">
<polygon fill="white" stroke="black" points="857,-104 857,-134 1057,-134 1057,-104 857,-104"/>
<text text-anchor="start" x="865" y="-122" font-family="Helvetica,sans-Serif" font-size="10.00">javolution::util::internal</text>
<text text-anchor="middle" x="957" y="-111" font-family="Helvetica,sans-Serif" font-size="10.00">::table::sorted::SortedTableView&lt; E &gt;</text>
</a>
</g>
</g>
<!-- Node34&#45;&gt;Node38 -->
<g id="edge37" class="edge">
<title>Node34&#45;&gt;Node38</title>
<path fill="none" stroke="midnightblue" d="M792.23,-136.17C812.72,-134.02 835.25,-131.66 856.87,-129.39"/>
<polygon fill="midnightblue" stroke="midnightblue" points="791.62,-132.71 782.04,-137.23 792.35,-139.67 791.62,-132.71"/>
</g>
<!-- Node39 -->
<g id="node39" class="node">
<title>Node39</title>
<g id="a_node39"><a xlink:href="../../d4/d5c/classjavolution_1_1util_1_1internal_1_1table_1_1SubTableImpl.html" target="_top" xlink:title=" ">
<polygon fill="white" stroke="black" points="883.5,-55 883.5,-85 1030.5,-85 1030.5,-55 883.5,-55"/>
<text text-anchor="start" x="891.5" y="-73" font-family="Helvetica,sans-Serif" font-size="10.00">javolution::util::internal</text>
<text text-anchor="middle" x="957" y="-62" font-family="Helvetica,sans-Serif" font-size="10.00">::table::SubTableImpl&lt; E &gt;</text>
</a>
</g>
</g>
<!-- Node34&#45;&gt;Node39 -->
<g id="edge38" class="edge">
<title>Node34&#45;&gt;Node39</title>
<path fill="none" stroke="midnightblue" d="M765.42,-125.4C792.14,-115.39 826.16,-103.24 857,-94 867.5,-90.85 878.73,-87.82 889.7,-85.04"/>
<polygon fill="midnightblue" stroke="midnightblue" points="764.04,-122.18 755.92,-128.98 766.51,-128.73 764.04,-122.18"/>
</g>
<!-- Node40 -->
<g id="node40" class="node">
<title>Node40</title>
<g id="a_node40"><a xlink:href="../../df/d33/classjavolution_1_1util_1_1internal_1_1table_1_1UnmodifiableTableImpl.html" target="_top" xlink:title=" ">
<polygon fill="white" stroke="black" points="860,-6 860,-36 1054,-36 1054,-6 860,-6"/>
<text text-anchor="start" x="868" y="-24" font-family="Helvetica,sans-Serif" font-size="10.00">javolution::util::internal</text>
<text text-anchor="middle" x="957" y="-13" font-family="Helvetica,sans-Serif" font-size="10.00">::table::UnmodifiableTableImpl&lt; E &gt;</text>
</a>
</g>
</g>
<!-- Node34&#45;&gt;Node40 -->
<g id="edge39" class="edge">
<title>Node34&#45;&gt;Node40</title>
<path fill="none" stroke="midnightblue" d="M741.85,-122.29C768.37,-99.77 812.92,-65.09 857,-45 864.48,-41.59 872.51,-38.63 880.65,-36.06"/>
<polygon fill="midnightblue" stroke="midnightblue" points="739.52,-119.69 734.22,-128.86 744.08,-124.99 739.52,-119.69"/>
</g>
<!-- Node36 -->
<g id="node36" class="node">
<title>Node36</title>
<g id="a_node36"><a xlink:href="../../d4/d6c/classjavolution_1_1util_1_1internal_1_1table_1_1sorted_1_1FastSortedTableImpl.html" target="_top" xlink:title=" ">
<polygon fill="white" stroke="black" points="1115.5,-194.5 1115.5,-235.5 1282.5,-235.5 1282.5,-194.5 1115.5,-194.5"/>
<text text-anchor="start" x="1123.5" y="-223.5" font-family="Helvetica,sans-Serif" font-size="10.00">javolution::util::internal</text>
<text text-anchor="start" x="1123.5" y="-212.5" font-family="Helvetica,sans-Serif" font-size="10.00">::table::sorted::FastSortedTable</text>
<text text-anchor="middle" x="1199" y="-201.5" font-family="Helvetica,sans-Serif" font-size="10.00">Impl&lt; E &gt;</text>
</a>
</g>
</g>
<!-- Node35&#45;&gt;Node36 -->
<g id="edge35" class="edge">
<title>Node35&#45;&gt;Node36</title>
<path fill="none" stroke="midnightblue" d="M1041.71,-216.3C1065.55,-216.1 1091.5,-215.89 1115.28,-215.69"/>
<polygon fill="midnightblue" stroke="midnightblue" points="1041.61,-212.8 1031.64,-216.39 1041.67,-219.8 1041.61,-212.8"/>
</g>
<!-- Node41 -->
<g id="node41" class="node">
<title>Node41</title>
<g id="a_node41"><a xlink:href="../../d3/dad/classjavolution_1_1util_1_1internal_1_1table_1_1sorted_1_1UnmodifiableSortedTableImpl.html" target="_top" xlink:title=" ">
<polygon fill="white" stroke="black" points="1105.5,-0.5 1105.5,-41.5 1292.5,-41.5 1292.5,-0.5 1105.5,-0.5"/>
<text text-anchor="start" x="1113.5" y="-29.5" font-family="Helvetica,sans-Serif" font-size="10.00">javolution::util::internal</text>
<text text-anchor="start" x="1113.5" y="-18.5" font-family="Helvetica,sans-Serif" font-size="10.00">::table::sorted::UnmodifiableSorted</text>
<text text-anchor="middle" x="1199" y="-7.5" font-family="Helvetica,sans-Serif" font-size="10.00">TableImpl&lt; E &gt;</text>
</a>
</g>
</g>
<!-- Node40&#45;&gt;Node41 -->
<g id="edge40" class="edge">
<title>Node40&#45;&gt;Node41</title>
<path fill="none" stroke="midnightblue" d="M1064.55,-21C1078.12,-21 1091.93,-21 1105.26,-21"/>
<polygon fill="midnightblue" stroke="midnightblue" points="1064.23,-17.5 1054.23,-21 1064.23,-24.5 1064.23,-17.5"/>
</g>
</g>
</svg>
