<?xml version="1.0" encoding="UTF-8" standalone="no"?>
<!DOCTYPE svg PUBLIC "-//W3C//DTD SVG 1.1//EN"
 "http://www.w3.org/Graphics/SVG/1.1/DTD/svg11.dtd">
<!-- Generated by graphviz version 2.43.0 (0)
 -->
<!-- Title: javolution.io.Struct.Signed16 Pages: 1 -->
<svg width="165pt" height="174pt"
 viewBox="0.00 0.00 165.00 174.00" xmlns="http://www.w3.org/2000/svg" xmlns:xlink="http://www.w3.org/1999/xlink">
<g id="graph0" class="graph" transform="scale(1 1) rotate(0) translate(4 170)">
<title>javolution.io.Struct.Signed16</title>
<polygon fill="white" stroke="transparent" points="-4,4 -4,-170 161,-170 161,4 -4,4"/>
<!-- Node1 -->
<g id="node1" class="node">
<title>Node1</title>
<g id="a_node1"><a xlink:title=" ">
<polygon fill="#bfbfbf" stroke="black" points="0,-0.5 0,-19.5 157,-19.5 157,-0.5 0,-0.5"/>
<text text-anchor="middle" x="78.5" y="-7.5" font-family="Helvetica,sans-Serif" font-size="10.00">javolution.io.Struct.Signed16</text>
</a>
</g>
</g>
<!-- Node2 -->
<g id="node2" class="node">
<title>Node2</title>
<g id="a_node2"><a xlink:href="../../d2/d46/classjavolution_1_1io_1_1Struct_1_1Member.html" target="_top" xlink:title=" ">
<polygon fill="white" stroke="black" points="2.5,-57.5 2.5,-76.5 154.5,-76.5 154.5,-57.5 2.5,-57.5"/>
<text text-anchor="middle" x="78.5" y="-64.5" font-family="Helvetica,sans-Serif" font-size="10.00">javolution.io.Struct.Member</text>
</a>
</g>
</g>
<!-- Node2&#45;&gt;Node1 -->
<g id="edge1" class="edge">
<title>Node2&#45;&gt;Node1</title>
<path fill="none" stroke="midnightblue" d="M78.5,-47.12C78.5,-37.82 78.5,-27.06 78.5,-19.71"/>
<polygon fill="midnightblue" stroke="midnightblue" points="75,-47.41 78.5,-57.41 82,-47.41 75,-47.41"/>
</g>
<!-- Node3 -->
<g id="node3" class="node">
<title>Node3</title>
<g id="a_node3"><a xlink:title=" ">
<polygon fill="white" stroke="#bfbfbf" points="64,-146.5 64,-165.5 93,-165.5 93,-146.5 64,-146.5"/>
<text text-anchor="middle" x="78.5" y="-153.5" font-family="Helvetica,sans-Serif" font-size="10.00">int</text>
</a>
</g>
</g>
<!-- Node3&#45;&gt;Node2 -->
<g id="edge2" class="edge">
<title>Node3&#45;&gt;Node2</title>
<path fill="none" stroke="#9a32cd" stroke-dasharray="5,2" d="M78.5,-136.19C78.5,-117.74 78.5,-90.41 78.5,-76.62"/>
<polygon fill="#9a32cd" stroke="#9a32cd" points="75,-136.34 78.5,-146.34 82,-136.34 75,-136.34"/>
<text text-anchor="middle" x="104.5" y="-120" font-family="Helvetica,sans-Serif" font-size="10.00"> _offset</text>
<text text-anchor="middle" x="104.5" y="-109" font-family="Helvetica,sans-Serif" font-size="10.00">_bitIndex</text>
<text text-anchor="middle" x="104.5" y="-98" font-family="Helvetica,sans-Serif" font-size="10.00">_bitLength</text>
</g>
</g>
</svg>
