<?xml version="1.0" encoding="UTF-8" standalone="no"?>
<!DOCTYPE svg PUBLIC "-//W3C//DTD SVG 1.1//EN"
 "http://www.w3.org/Graphics/SVG/1.1/DTD/svg11.dtd">
<!-- Generated by graphviz version 2.43.0 (0)
 -->
<!-- Title: javolution.io.Struct.UTF8String Pages: 1 -->
<!--zoomable 270 -->
<svg id="main" version="1.1" xmlns="http://www.w3.org/2000/svg" xmlns:xlink="http://www.w3.org/1999/xlink" xml:space="preserve" onload="init(evt)">
<style type="text/css"><![CDATA[
.edge:hover path { stroke: red; }
.edge:hover polygon { stroke: red; fill: red; }
]]></style>
<script type="text/javascript"><![CDATA[
var edges = document.getElementsByTagName('g');
if (edges && edges.length) {
  for (var i=0;i<edges.length;i++) {
    if (edges[i].id.substr(0,4)=='edge') {
      edges[i].setAttribute('class','edge');
    }
  }
}
]]></script>
        <defs>
                <circle id="rim" cx="0" cy="0" r="7"/>
                <circle id="rim2" cx="0" cy="0" r="3.5"/>
                <g id="zoomPlus">
                        <use xlink:href="#rim" fill="#404040">
                                <set attributeName="fill" to="#808080" begin="zoomplus.mouseover" end="zoomplus.mouseout"/>
                        </use>
                        <path d="M-4,0h8M0,-4v8" fill="none" stroke="white" stroke-width="1.5" pointer-events="none"/>
                </g>
                <g id="zoomMin">
                        <use xlink:href="#rim" fill="#404040">
                                <set attributeName="fill" to="#808080" begin="zoomminus.mouseover" end="zoomminus.mouseout"/>
                        </use>
                        <path d="M-4,0h8" fill="none" stroke="white" stroke-width="1.5" pointer-events="none"/>
                </g>
                <g id="dirArrow">
                        <path fill="none" stroke="white" stroke-width="1.5" d="M0,-3.0v7 M-2.5,-0.5L0,-3.0L2.5,-0.5"/>
                </g>
               <g id="resetDef">
                       <use xlink:href="#rim2" fill="#404040">
                               <set attributeName="fill" to="#808080" begin="reset.mouseover" end="reset.mouseout"/>
                       </use>
               </g>
        </defs>

<script type="text/javascript">
var viewWidth = 560;
var viewHeight = 270;
var sectionId = 'dynsection-1';
</script>
<script xlink:href="../../svgpan.js"/>
<svg id="graph" class="graph">
<g id="viewport">
<title>javolution.io.Struct.UTF8String</title>
<polygon fill="white" stroke="transparent" points="-4,4 -4,-266 556,-266 556,4 -4,4"/>
<!-- Node1 -->
<g id="node1" class="node">
<title>Node1</title>
<g id="a_node1"><a xlink:title=" ">
<polygon fill="#bfbfbf" stroke="black" points="415,-172 415,-202 552,-202 552,-172 415,-172"/>
<text text-anchor="start" x="423" y="-190" font-family="Helvetica,sans-Serif" font-size="10.00">javolution.io.Struct.UTF8</text>
<text text-anchor="middle" x="483.5" y="-179" font-family="Helvetica,sans-Serif" font-size="10.00">String</text>
</a>
</g>
</g>
<!-- Node2 -->
<g id="node2" class="node">
<title>Node2</title>
<g id="a_node2"><a xlink:href="../../d2/d46/classjavolution_1_1io_1_1Struct_1_1Member.html" target="_top" xlink:title=" ">
<polygon fill="white" stroke="black" points="184,-199.5 184,-218.5 336,-218.5 336,-199.5 184,-199.5"/>
<text text-anchor="middle" x="260" y="-206.5" font-family="Helvetica,sans-Serif" font-size="10.00">javolution.io.Struct.Member</text>
</a>
</g>
</g>
<!-- Node2&#45;&gt;Node1 -->
<g id="edge1" class="edge">
<title>Node2&#45;&gt;Node1</title>
<path fill="none" stroke="midnightblue" d="M346.27,-200.53C368.99,-198.27 393.21,-195.87 414.84,-193.72"/>
<polygon fill="midnightblue" stroke="midnightblue" points="345.9,-197.05 336.3,-201.52 346.6,-204.02 345.9,-197.05"/>
</g>
<!-- Node3 -->
<g id="node3" class="node">
<title>Node3</title>
<g id="a_node3"><a xlink:title=" ">
<polygon fill="white" stroke="#bfbfbf" points="19.5,-209.5 19.5,-228.5 48.5,-228.5 48.5,-209.5 19.5,-209.5"/>
<text text-anchor="middle" x="34" y="-216.5" font-family="Helvetica,sans-Serif" font-size="10.00">int</text>
</a>
</g>
</g>
<!-- Node3&#45;&gt;Node1 -->
<g id="edge7" class="edge">
<title>Node3&#45;&gt;Node1</title>
<path fill="none" stroke="#9a32cd" stroke-dasharray="5,2" d="M53.31,-235.05C62.47,-242.02 74.11,-249.4 86,-253 118.75,-262.92 128.86,-255.41 163,-253 241.81,-247.43 261.72,-244.45 339,-228 371.82,-221.02 408.15,-210.61 436.05,-202.02"/>
<polygon fill="#9a32cd" stroke="#9a32cd" points="55.35,-232.19 45.37,-228.63 50.95,-237.64 55.35,-232.19"/>
<text text-anchor="middle" x="260" y="-254" font-family="Helvetica,sans-Serif" font-size="10.00"> _length</text>
</g>
<!-- Node3&#45;&gt;Node2 -->
<g id="edge2" class="edge">
<title>Node3&#45;&gt;Node2</title>
<path fill="none" stroke="#9a32cd" stroke-dasharray="5,2" d="M58.87,-217.93C88.48,-216.61 140.38,-214.3 183.91,-212.35"/>
<polygon fill="#9a32cd" stroke="#9a32cd" points="58.51,-214.45 48.68,-218.39 58.82,-221.44 58.51,-214.45"/>
<text text-anchor="middle" x="124.5" y="-241" font-family="Helvetica,sans-Serif" font-size="10.00"> _offset</text>
<text text-anchor="middle" x="124.5" y="-230" font-family="Helvetica,sans-Serif" font-size="10.00">_bitIndex</text>
<text text-anchor="middle" x="124.5" y="-219" font-family="Helvetica,sans-Serif" font-size="10.00">_bitLength</text>
</g>
<!-- Node4 -->
<g id="node4" class="node">
<title>Node4</title>
<g id="a_node4"><a xlink:href="../../dd/d55/classjavolution_1_1io_1_1UTF8ByteBufferReader.html" target="_top" xlink:title=" ">
<polygon fill="white" stroke="black" points="181,-128 181,-158 339,-158 339,-128 181,-128"/>
<text text-anchor="start" x="189" y="-146" font-family="Helvetica,sans-Serif" font-size="10.00">javolution.io.UTF8ByteBuffer</text>
<text text-anchor="middle" x="260" y="-135" font-family="Helvetica,sans-Serif" font-size="10.00">Reader</text>
</a>
</g>
</g>
<!-- Node3&#45;&gt;Node4 -->
<g id="edge6" class="edge">
<title>Node3&#45;&gt;Node4</title>
<path fill="none" stroke="#9a32cd" stroke-dasharray="5,2" d="M56.3,-203.55C65.15,-197.7 75.73,-191.4 86,-187 115.91,-174.19 150.39,-164.48 180.66,-157.49"/>
<polygon fill="#9a32cd" stroke="#9a32cd" points="54.06,-200.84 47.8,-209.39 58.02,-206.62 54.06,-200.84"/>
<text text-anchor="middle" x="124.5" y="-201" font-family="Helvetica,sans-Serif" font-size="10.00"> _code</text>
<text text-anchor="middle" x="124.5" y="-190" font-family="Helvetica,sans-Serif" font-size="10.00">_moreBytes</text>
</g>
<!-- Node4&#45;&gt;Node1 -->
<g id="edge3" class="edge">
<title>Node4&#45;&gt;Node1</title>
<path fill="none" stroke="#9a32cd" stroke-dasharray="5,2" d="M346.52,-159.99C369.1,-164.47 393.15,-169.25 414.66,-173.52"/>
<polygon fill="#9a32cd" stroke="#9a32cd" points="347.1,-156.53 336.61,-158.02 345.73,-163.4 347.1,-156.53"/>
<text text-anchor="middle" x="377" y="-171" font-family="Helvetica,sans-Serif" font-size="10.00"> _reader</text>
</g>
<!-- Node5 -->
<g id="node5" class="node">
<title>Node5</title>
<g id="a_node5"><a xlink:title=" ">
<polygon fill="white" stroke="#bfbfbf" points="8.5,-131.5 8.5,-150.5 59.5,-150.5 59.5,-131.5 8.5,-131.5"/>
<text text-anchor="middle" x="34" y="-138.5" font-family="Helvetica,sans-Serif" font-size="10.00">Reader</text>
</a>
</g>
</g>
<!-- Node5&#45;&gt;Node4 -->
<g id="edge4" class="edge">
<title>Node5&#45;&gt;Node4</title>
<path fill="none" stroke="midnightblue" d="M70.06,-141.31C99.62,-141.58 143.03,-141.96 180.79,-142.3"/>
<polygon fill="midnightblue" stroke="midnightblue" points="69.86,-137.81 59.83,-141.22 69.8,-144.81 69.86,-137.81"/>
</g>
<!-- Node6 -->
<g id="node6" class="node">
<title>Node6</title>
<g id="a_node6"><a xlink:title=" ">
<polygon fill="white" stroke="#bfbfbf" points="0,-85.5 0,-104.5 68,-104.5 68,-85.5 0,-85.5"/>
<text text-anchor="middle" x="34" y="-92.5" font-family="Helvetica,sans-Serif" font-size="10.00">ByteBuffer</text>
</a>
</g>
</g>
<!-- Node6&#45;&gt;Node4 -->
<g id="edge5" class="edge">
<title>Node6&#45;&gt;Node4</title>
<path fill="none" stroke="#9a32cd" stroke-dasharray="5,2" d="M78.2,-104.26C109.51,-110.97 152.53,-120.19 188.76,-127.95"/>
<polygon fill="#9a32cd" stroke="#9a32cd" points="78.56,-100.76 68.05,-102.08 77.1,-107.6 78.56,-100.76"/>
<text text-anchor="middle" x="124.5" y="-124" font-family="Helvetica,sans-Serif" font-size="10.00"> _byteBuffer</text>
</g>
<!-- Node7 -->
<g id="node7" class="node">
<title>Node7</title>
<g id="a_node7"><a xlink:href="../../d6/d9e/classjavolution_1_1io_1_1UTF8ByteBufferWriter.html" target="_top" xlink:title=" ">
<polygon fill="white" stroke="black" points="181,-50 181,-80 339,-80 339,-50 181,-50"/>
<text text-anchor="start" x="189" y="-68" font-family="Helvetica,sans-Serif" font-size="10.00">javolution.io.UTF8ByteBuffer</text>
<text text-anchor="middle" x="260" y="-57" font-family="Helvetica,sans-Serif" font-size="10.00">Writer</text>
</a>
</g>
</g>
<!-- Node6&#45;&gt;Node7 -->
<g id="edge10" class="edge">
<title>Node6&#45;&gt;Node7</title>
<path fill="none" stroke="#9a32cd" stroke-dasharray="5,2" d="M77.9,-83.57C80.63,-83 83.35,-82.47 86,-82 116.77,-76.6 150.93,-72.79 180.72,-70.16"/>
<polygon fill="#9a32cd" stroke="#9a32cd" points="77.02,-80.18 68.04,-85.8 78.56,-87.01 77.02,-80.18"/>
<text text-anchor="middle" x="124.5" y="-85" font-family="Helvetica,sans-Serif" font-size="10.00"> _byteBuffer</text>
</g>
<!-- Node7&#45;&gt;Node1 -->
<g id="edge8" class="edge">
<title>Node7&#45;&gt;Node1</title>
<path fill="none" stroke="#9a32cd" stroke-dasharray="5,2" d="M297.6,-85.16C341.93,-109.58 415.6,-150.15 455.24,-171.99"/>
<polygon fill="#9a32cd" stroke="#9a32cd" points="299.05,-81.96 288.61,-80.2 295.68,-88.09 299.05,-81.96"/>
<text text-anchor="middle" x="377" y="-139" font-family="Helvetica,sans-Serif" font-size="10.00"> _writer</text>
</g>
<!-- Node8 -->
<g id="node8" class="node">
<title>Node8</title>
<g id="a_node8"><a xlink:title=" ">
<polygon fill="white" stroke="#bfbfbf" points="10.5,-38.5 10.5,-57.5 57.5,-57.5 57.5,-38.5 10.5,-38.5"/>
<text text-anchor="middle" x="34" y="-45.5" font-family="Helvetica,sans-Serif" font-size="10.00">Writer</text>
</a>
</g>
</g>
<!-- Node8&#45;&gt;Node7 -->
<g id="edge9" class="edge">
<title>Node8&#45;&gt;Node7</title>
<path fill="none" stroke="midnightblue" d="M67.91,-50.5C97.54,-52.75 142.25,-56.14 180.97,-59.08"/>
<polygon fill="midnightblue" stroke="midnightblue" points="67.95,-46.99 57.71,-49.72 67.42,-53.97 67.95,-46.99"/>
</g>
<!-- Node9 -->
<g id="node9" class="node">
<title>Node9</title>
<g id="a_node9"><a xlink:title=" ">
<polygon fill="white" stroke="#bfbfbf" points="15,-0.5 15,-19.5 53,-19.5 53,-0.5 15,-0.5"/>
<text text-anchor="middle" x="34" y="-7.5" font-family="Helvetica,sans-Serif" font-size="10.00">char</text>
</a>
</g>
</g>
<!-- Node9&#45;&gt;Node7 -->
<g id="edge11" class="edge">
<title>Node9&#45;&gt;Node7</title>
<path fill="none" stroke="#9a32cd" stroke-dasharray="5,2" d="M63.26,-15.32C89.29,-20.37 128.92,-28.45 163,-37 178.32,-40.84 194.88,-45.49 209.86,-49.89"/>
<polygon fill="#9a32cd" stroke="#9a32cd" points="63.81,-11.86 53.33,-13.41 62.49,-18.74 63.81,-11.86"/>
<text text-anchor="middle" x="124.5" y="-40" font-family="Helvetica,sans-Serif" font-size="10.00"> _highSurrogate</text>
</g>
</g>
</svg>
        <g id="navigator" transform="translate(0 0)" fill="#404254">
                <rect fill="#f2f5e9" fill-opacity="0.5" stroke="#606060" stroke-width=".5" x="0" y="0" width="60" height="60"/>
                <use id="zoomplus" xlink:href="#zoomPlus" x="17" y="9" onmousedown="handleZoom(evt,'in')"/>
                <use id="zoomminus" xlink:href="#zoomMin" x="42" y="9" onmousedown="handleZoom(evt,'out')"/>
                <use id="reset" xlink:href="#resetDef" x="30" y="36" onmousedown="handleReset()"/>
                <g id="arrowUp" xlink:href="#dirArrow" transform="translate(30 24)" onmousedown="handlePan(0,-1)">
                  <use xlink:href="#rim" fill="#404040">
                        <set attributeName="fill" to="#808080" begin="arrowUp.mouseover" end="arrowUp.mouseout"/>
                  </use>
                  <path fill="none" stroke="white" stroke-width="1.5" d="M0,-3.0v7 M-2.5,-0.5L0,-3.0L2.5,-0.5"/>
                </g>
                <g id="arrowRight" xlink:href="#dirArrow" transform="rotate(90) translate(36 -43)" onmousedown="handlePan(1,0)">
                  <use xlink:href="#rim" fill="#404040">
                        <set attributeName="fill" to="#808080" begin="arrowRight.mouseover" end="arrowRight.mouseout"/>
                  </use>
                  <path fill="none" stroke="white" stroke-width="1.5" d="M0,-3.0v7 M-2.5,-0.5L0,-3.0L2.5,-0.5"/>
                </g>
                <g id="arrowDown" xlink:href="#dirArrow" transform="rotate(180) translate(-30 -48)" onmousedown="handlePan(0,1)">
                  <use xlink:href="#rim" fill="#404040">
                        <set attributeName="fill" to="#808080" begin="arrowDown.mouseover" end="arrowDown.mouseout"/>
                  </use>
                  <path fill="none" stroke="white" stroke-width="1.5" d="M0,-3.0v7 M-2.5,-0.5L0,-3.0L2.5,-0.5"/>
                </g>
                <g id="arrowLeft" xlink:href="#dirArrow" transform="rotate(270) translate(-36 17)" onmousedown="handlePan(-1,0)">
                  <use xlink:href="#rim" fill="#404040">
                        <set attributeName="fill" to="#808080" begin="arrowLeft.mouseover" end="arrowLeft.mouseout"/>
                  </use>
                  <path fill="none" stroke="white" stroke-width="1.5" d="M0,-3.0v7 M-2.5,-0.5L0,-3.0L2.5,-0.5"/>
                </g>
        </g>
        <svg viewBox="0 0 15 15" width="100%" height="30px" preserveAspectRatio="xMaxYMin meet">
         <g id="arrow_out" transform="scale(0.3 0.3)">
          <a xlink:href="classjavolution_1_1io_1_1Struct_1_1UTF8String__coll__graph_org.svg" target="_base">
           <rect id="button" ry="5" rx="5" y="6" x="6" height="38" width="38"
                fill="#f2f5e9" fill-opacity="0.5" stroke="#606060" stroke-width="1.0"/>
           <path id="arrow"
             d="M 11.500037,31.436501 C 11.940474,20.09759 22.043105,11.32322 32.158766,21.979434 L 37.068811,17.246167 C 37.068811,17.246167 37.088388,32 37.088388,32 L 22.160133,31.978069 C 22.160133,31.978069 26.997745,27.140456 26.997745,27.140456 C 18.528582,18.264221 13.291696,25.230495 11.500037,31.436501 z"
             style="fill:#404040;"/>
          </a>
         </g>
        </svg>
</svg>
