<?xml version="1.0" encoding="UTF-8" standalone="no"?>
<!DOCTYPE svg PUBLIC "-//W3C//DTD SVG 1.1//EN"
 "http://www.w3.org/Graphics/SVG/1.1/DTD/svg11.dtd">
<!-- Generated by graphviz version 2.43.0 (0)
 -->
<!-- Title: javolution.util.internal.table.FastTableImpl.add Pages: 1 -->
<!--zoomable 340 -->
<svg id="main" version="1.1" xmlns="http://www.w3.org/2000/svg" xmlns:xlink="http://www.w3.org/1999/xlink" xml:space="preserve" onload="init(evt)">
<style type="text/css"><![CDATA[
.edge:hover path { stroke: red; }
.edge:hover polygon { stroke: red; fill: red; }
]]></style>
<script type="text/javascript"><![CDATA[
var edges = document.getElementsByTagName('g');
if (edges && edges.length) {
  for (var i=0;i<edges.length;i++) {
    if (edges[i].id.substr(0,4)=='edge') {
      edges[i].setAttribute('class','edge');
    }
  }
}
]]></script>
        <defs>
                <circle id="rim" cx="0" cy="0" r="7"/>
                <circle id="rim2" cx="0" cy="0" r="3.5"/>
                <g id="zoomPlus">
                        <use xlink:href="#rim" fill="#404040">
                                <set attributeName="fill" to="#808080" begin="zoomplus.mouseover" end="zoomplus.mouseout"/>
                        </use>
                        <path d="M-4,0h8M0,-4v8" fill="none" stroke="white" stroke-width="1.5" pointer-events="none"/>
                </g>
                <g id="zoomMin">
                        <use xlink:href="#rim" fill="#404040">
                                <set attributeName="fill" to="#808080" begin="zoomminus.mouseover" end="zoomminus.mouseout"/>
                        </use>
                        <path d="M-4,0h8" fill="none" stroke="white" stroke-width="1.5" pointer-events="none"/>
                </g>
                <g id="dirArrow">
                        <path fill="none" stroke="white" stroke-width="1.5" d="M0,-3.0v7 M-2.5,-0.5L0,-3.0L2.5,-0.5"/>
                </g>
               <g id="resetDef">
                       <use xlink:href="#rim2" fill="#404040">
                               <set attributeName="fill" to="#808080" begin="reset.mouseover" end="reset.mouseout"/>
                       </use>
               </g>
        </defs>

<script type="text/javascript">
var viewWidth = 1334;
var viewHeight = 340;
var sectionId = 'dynsection-3';
</script>
<script xlink:href="../../svgpan.js"/>
<svg id="graph" class="graph">
<g id="viewport">
<title>javolution.util.internal.table.FastTableImpl.add</title>
<polygon fill="white" stroke="transparent" points="-4,4 -4,-335.55 1330,-335.55 1330,4 -4,4"/>
<!-- Node1 -->
<g id="node1" class="node">
<title>Node1</title>
<g id="a_node1"><a xlink:title=" ">
<polygon fill="#bfbfbf" stroke="black" points="0,-152.05 0,-182.05 155,-182.05 155,-152.05 0,-152.05"/>
<text text-anchor="start" x="8" y="-170.05" font-family="Helvetica,sans-Serif" font-size="10.00">javolution.util.internal.table.</text>
<text text-anchor="middle" x="77.5" y="-159.05" font-family="Helvetica,sans-Serif" font-size="10.00">FastTableImpl.add</text>
</a>
</g>
</g>
<!-- Node2 -->
<g id="node2" class="node">
<title>Node2</title>
<g id="a_node2"><a xlink:href="../../d9/d7a/classjavolution_1_1util_1_1internal_1_1table_1_1FastTableImpl.html#a56f359b38a339adb917107ce305d9cf1" target="_top" xlink:title=" ">
<polygon fill="white" stroke="black" points="191,-250.05 191,-280.05 346,-280.05 346,-250.05 191,-250.05"/>
<text text-anchor="start" x="199" y="-268.05" font-family="Helvetica,sans-Serif" font-size="10.00">javolution.util.internal.table.</text>
<text text-anchor="middle" x="268.5" y="-257.05" font-family="Helvetica,sans-Serif" font-size="10.00">FastTableImpl.checkUpsize</text>
</a>
</g>
</g>
<!-- Node1&#45;&gt;Node2 -->
<g id="edge1" class="edge">
<title>Node1&#45;&gt;Node2</title>
<path fill="none" stroke="midnightblue" d="M97.83,-182.19C119.49,-198.55 156.15,-224.52 191,-241.05 195,-242.95 199.18,-244.74 203.45,-246.43"/>
<polygon fill="midnightblue" stroke="midnightblue" points="202.28,-249.73 212.87,-249.96 204.73,-243.18 202.28,-249.73"/>
</g>
<!-- Node11 -->
<g id="node11" class="node">
<title>Node11</title>
<g id="a_node11"><a xlink:href="../../d8/d86/classjavolution_1_1util_1_1internal_1_1table_1_1TableView.html#a69e7425b9e4c16f94a60ffdce48ef118" target="_top" xlink:title=" ">
<polygon fill="white" stroke="black" points="191,-201.05 191,-231.05 346,-231.05 346,-201.05 191,-201.05"/>
<text text-anchor="start" x="199" y="-219.05" font-family="Helvetica,sans-Serif" font-size="10.00">javolution.util.internal.table.</text>
<text text-anchor="middle" x="268.5" y="-208.05" font-family="Helvetica,sans-Serif" font-size="10.00">TableView.element</text>
</a>
</g>
</g>
<!-- Node1&#45;&gt;Node11 -->
<g id="edge12" class="edge">
<title>Node1&#45;&gt;Node11</title>
<path fill="none" stroke="midnightblue" d="M136.49,-182.08C156.54,-187.28 179.17,-193.15 199.92,-198.53"/>
<polygon fill="midnightblue" stroke="midnightblue" points="199.06,-201.92 209.62,-201.04 200.82,-195.14 199.06,-201.92"/>
</g>
<!-- Node15 -->
<g id="node15" class="node">
<title>Node15</title>
<g id="a_node15"><a xlink:href="../../d8/d86/classjavolution_1_1util_1_1internal_1_1table_1_1TableView.html#a52cb740436aa95a6b9f3733ce6962061" target="_top" xlink:title=" ">
<polygon fill="white" stroke="black" points="191,-152.05 191,-182.05 346,-182.05 346,-152.05 191,-152.05"/>
<text text-anchor="start" x="199" y="-170.05" font-family="Helvetica,sans-Serif" font-size="10.00">javolution.util.internal.table.</text>
<text text-anchor="middle" x="268.5" y="-159.05" font-family="Helvetica,sans-Serif" font-size="10.00">TableView.indexError</text>
</a>
</g>
</g>
<!-- Node1&#45;&gt;Node15 -->
<g id="edge16" class="edge">
<title>Node1&#45;&gt;Node15</title>
<path fill="none" stroke="midnightblue" d="M155.1,-167.05C163.56,-167.05 172.22,-167.05 180.79,-167.05"/>
<polygon fill="midnightblue" stroke="midnightblue" points="180.79,-170.55 190.79,-167.05 180.79,-163.55 180.79,-170.55"/>
</g>
<!-- Node16 -->
<g id="node16" class="node">
<title>Node16</title>
<g id="a_node16"><a xlink:href="../../d0/dd9/classjavolution_1_1util_1_1internal_1_1table_1_1FractalTableImpl.html#a1d1eb4fc3de5ea84356dc01475a4fab7" target="_top" xlink:title=" ">
<polygon fill="white" stroke="black" points="382,-92.05 382,-122.05 537,-122.05 537,-92.05 382,-92.05"/>
<text text-anchor="start" x="390" y="-110.05" font-family="Helvetica,sans-Serif" font-size="10.00">javolution.util.internal.table.</text>
<text text-anchor="middle" x="459.5" y="-99.05" font-family="Helvetica,sans-Serif" font-size="10.00">FractalTableImpl.shiftLeft</text>
</a>
</g>
</g>
<!-- Node1&#45;&gt;Node16 -->
<g id="edge18" class="edge">
<title>Node1&#45;&gt;Node16</title>
<path fill="none" stroke="midnightblue" d="M141.37,-152.05C157.49,-148.48 174.84,-144.9 191,-142.05 251.13,-131.46 319.37,-122.58 371.89,-116.41"/>
<polygon fill="midnightblue" stroke="midnightblue" points="372.31,-119.89 381.84,-115.25 371.5,-112.93 372.31,-119.89"/>
</g>
<!-- Node18 -->
<g id="node18" class="node">
<title>Node18</title>
<g id="a_node18"><a xlink:href="../../d0/dd9/classjavolution_1_1util_1_1internal_1_1table_1_1FractalTableImpl.html#aaf1d7f4ec659b31a33f597b47e76c94a" target="_top" xlink:title=" ">
<polygon fill="white" stroke="black" points="382,-15.05 382,-45.05 537,-45.05 537,-15.05 382,-15.05"/>
<text text-anchor="start" x="390" y="-33.05" font-family="Helvetica,sans-Serif" font-size="10.00">javolution.util.internal.table.</text>
<text text-anchor="middle" x="459.5" y="-22.05" font-family="Helvetica,sans-Serif" font-size="10.00">FractalTableImpl.shiftRight</text>
</a>
</g>
</g>
<!-- Node1&#45;&gt;Node18 -->
<g id="edge24" class="edge">
<title>Node1&#45;&gt;Node18</title>
<path fill="none" stroke="midnightblue" d="M109.13,-152.01C131.53,-141.3 162.79,-126.94 191,-116.05 259.98,-89.43 341.05,-64.18 395.71,-48.02"/>
<polygon fill="midnightblue" stroke="midnightblue" points="396.99,-51.29 405.6,-45.11 395.02,-44.57 396.99,-51.29"/>
</g>
<!-- Node3 -->
<g id="node3" class="node">
<title>Node3</title>
<g id="a_node3"><a xlink:href="../../d9/d7a/classjavolution_1_1util_1_1internal_1_1table_1_1FastTableImpl.html#a2aebcee341c5b1d2a43a676e61b20a9a" target="_top" xlink:title=" ">
<polygon fill="white" stroke="black" points="382,-252.05 382,-282.05 537,-282.05 537,-252.05 382,-252.05"/>
<text text-anchor="start" x="390" y="-270.05" font-family="Helvetica,sans-Serif" font-size="10.00">javolution.util.internal.table.</text>
<text text-anchor="middle" x="459.5" y="-259.05" font-family="Helvetica,sans-Serif" font-size="10.00">FastTableImpl.upsize</text>
</a>
</g>
</g>
<!-- Node2&#45;&gt;Node3 -->
<g id="edge2" class="edge">
<title>Node2&#45;&gt;Node3</title>
<path fill="none" stroke="midnightblue" d="M346.1,-265.86C354.56,-265.95 363.22,-266.04 371.79,-266.13"/>
<polygon fill="midnightblue" stroke="midnightblue" points="371.75,-269.63 381.79,-266.24 371.83,-262.63 371.75,-269.63"/>
</g>
<!-- Node4 -->
<g id="node4" class="node">
<title>Node4</title>
<g id="a_node4"><a xlink:href="../../d0/dd9/classjavolution_1_1util_1_1internal_1_1table_1_1FractalTableImpl.html#a39f2375f6ce014c7f89d01b3f5f2ac61" target="_top" xlink:title=" ">
<polygon fill="white" stroke="black" points="573,-301.05 573,-331.05 728,-331.05 728,-301.05 573,-301.05"/>
<text text-anchor="start" x="581" y="-319.05" font-family="Helvetica,sans-Serif" font-size="10.00">javolution.util.internal.table.</text>
<text text-anchor="middle" x="650.5" y="-308.05" font-family="Helvetica,sans-Serif" font-size="10.00">FractalTableImpl.capacity</text>
</a>
</g>
</g>
<!-- Node3&#45;&gt;Node4 -->
<g id="edge3" class="edge">
<title>Node3&#45;&gt;Node4</title>
<path fill="none" stroke="midnightblue" d="M518.49,-282.08C538.54,-287.28 561.17,-293.15 581.92,-298.53"/>
<polygon fill="midnightblue" stroke="midnightblue" points="581.06,-301.92 591.62,-301.04 582.82,-295.14 581.06,-301.92"/>
</g>
<!-- Node5 -->
<g id="node5" class="node">
<title>Node5</title>
<g id="a_node5"><a xlink:href="../../d0/dd9/classjavolution_1_1util_1_1internal_1_1table_1_1FractalTableImpl.html#a5fc27e08895e1c5929fe2d2125ebb619" target="_top" xlink:title=" ">
<polygon fill="white" stroke="black" points="573,-252.05 573,-282.05 728,-282.05 728,-252.05 573,-252.05"/>
<text text-anchor="start" x="581" y="-270.05" font-family="Helvetica,sans-Serif" font-size="10.00">javolution.util.internal.table.</text>
<text text-anchor="middle" x="650.5" y="-259.05" font-family="Helvetica,sans-Serif" font-size="10.00">FractalTableImpl.upsize</text>
</a>
</g>
</g>
<!-- Node3&#45;&gt;Node5 -->
<g id="edge4" class="edge">
<title>Node3&#45;&gt;Node5</title>
<path fill="none" stroke="midnightblue" d="M537.1,-267.05C545.56,-267.05 554.22,-267.05 562.79,-267.05"/>
<polygon fill="midnightblue" stroke="midnightblue" points="562.79,-270.55 572.79,-267.05 562.79,-263.55 562.79,-270.55"/>
</g>
<!-- Node6 -->
<g id="node6" class="node">
<title>Node6</title>
<g id="a_node6"><a xlink:href="../../d0/dd9/classjavolution_1_1util_1_1internal_1_1table_1_1FractalTableImpl.html#a4e3ce37cbb96f069312dc088643ce844" target="_top" xlink:title=" ">
<polygon fill="white" stroke="black" points="764,-252.05 764,-282.05 919,-282.05 919,-252.05 764,-252.05"/>
<text text-anchor="start" x="772" y="-270.05" font-family="Helvetica,sans-Serif" font-size="10.00">javolution.util.internal.table.</text>
<text text-anchor="middle" x="841.5" y="-259.05" font-family="Helvetica,sans-Serif" font-size="10.00">FractalTableImpl.copyTo</text>
</a>
</g>
</g>
<!-- Node5&#45;&gt;Node6 -->
<g id="edge5" class="edge">
<title>Node5&#45;&gt;Node6</title>
<path fill="none" stroke="midnightblue" d="M728.1,-267.05C736.56,-267.05 745.22,-267.05 753.79,-267.05"/>
<polygon fill="midnightblue" stroke="midnightblue" points="753.79,-270.55 763.79,-267.05 753.79,-263.55 753.79,-270.55"/>
</g>
<!-- Node8 -->
<g id="node8" class="node">
<title>Node8</title>
<g id="a_node8"><a xlink:href="../../d0/dd9/classjavolution_1_1util_1_1internal_1_1table_1_1FractalTableImpl.html#ade85a910199ccbb9e60804b6b7a68b13" target="_top" xlink:title=" ">
<polygon fill="white" stroke="black" points="764,-73.05 764,-103.05 919,-103.05 919,-73.05 764,-73.05"/>
<text text-anchor="start" x="772" y="-91.05" font-family="Helvetica,sans-Serif" font-size="10.00">javolution.util.internal.table.</text>
<text text-anchor="middle" x="841.5" y="-80.05" font-family="Helvetica,sans-Serif" font-size="10.00">FractalTableImpl.F</text>
</a>
</g>
</g>
<!-- Node5&#45;&gt;Node8 -->
<g id="edge7" class="edge">
<title>Node5&#45;&gt;Node8</title>
<path fill="none" stroke="midnightblue" d="M715.28,-251.99C719.86,-249.46 724.18,-246.5 728,-243.05 758.13,-215.81 740.61,-192.25 764,-159.05 777.33,-140.13 796.4,-122.41 812.17,-109.41"/>
<polygon fill="midnightblue" stroke="midnightblue" points="814.47,-112.05 820.07,-103.06 810.08,-106.6 814.47,-112.05"/>
</g>
<!-- Node10 -->
<g id="node10" class="node">
<title>Node10</title>
<g id="a_node10"><a xlink:href="../../d0/dd9/classjavolution_1_1util_1_1internal_1_1table_1_1FractalTableImpl.html#afb7c67513eecf10757bfd0fde7c6a0a0" target="_top" xlink:title=" ">
<polygon fill="white" stroke="black" points="1146,-67.05 1146,-97.05 1326,-97.05 1326,-67.05 1146,-67.05"/>
<text text-anchor="start" x="1154" y="-85.05" font-family="Helvetica,sans-Serif" font-size="10.00">javolution.util.internal.table.</text>
<text text-anchor="middle" x="1236" y="-74.05" font-family="Helvetica,sans-Serif" font-size="10.00">FractalTableImpl.FractalTableImpl</text>
</a>
</g>
</g>
<!-- Node5&#45;&gt;Node10 -->
<g id="edge11" class="edge">
<title>Node5&#45;&gt;Node10</title>
<path fill="none" stroke="midnightblue" d="M704.77,-251.99C790.57,-227.5 964.5,-176.83 1110,-128.05 1135.32,-119.56 1163.24,-109.37 1186.26,-100.74"/>
<polygon fill="midnightblue" stroke="midnightblue" points="1187.67,-103.94 1195.8,-97.14 1185.21,-97.39 1187.67,-103.94"/>
</g>
<!-- Node7 -->
<g id="node7" class="node">
<title>Node7</title>
<g id="a_node7"><a xlink:href="../../d4/d14/classjavolution_1_1lang_1_1MathLib.html#a61d82d4ab96ea86fb7868daf1c203048" target="_top" xlink:title=" ">
<polygon fill="white" stroke="black" points="956,-257.55 956,-276.55 1109,-276.55 1109,-257.55 956,-257.55"/>
<text text-anchor="middle" x="1032.5" y="-264.55" font-family="Helvetica,sans-Serif" font-size="10.00">javolution.lang.MathLib.min</text>
</a>
</g>
</g>
<!-- Node6&#45;&gt;Node7 -->
<g id="edge6" class="edge">
<title>Node6&#45;&gt;Node7</title>
<path fill="none" stroke="midnightblue" d="M919.1,-267.05C927.78,-267.05 936.67,-267.05 945.46,-267.05"/>
<polygon fill="midnightblue" stroke="midnightblue" points="945.71,-270.55 955.71,-267.05 945.71,-263.55 945.71,-270.55"/>
</g>
<!-- Node9 -->
<g id="node9" class="node">
<title>Node9</title>
<g id="a_node9"><a xlink:href="../../d0/dd9/classjavolution_1_1util_1_1internal_1_1table_1_1FractalTableImpl.html#a75450af34f8dbb7210888bdc874f424c" target="_top" xlink:title=" ">
<polygon fill="white" stroke="black" points="955,-89.05 955,-119.05 1110,-119.05 1110,-89.05 955,-89.05"/>
<text text-anchor="start" x="963" y="-107.05" font-family="Helvetica,sans-Serif" font-size="10.00">javolution.util.internal.table.</text>
<text text-anchor="middle" x="1032.5" y="-96.05" font-family="Helvetica,sans-Serif" font-size="10.00">FractalTableImpl.allocate</text>
</a>
</g>
</g>
<!-- Node8&#45;&gt;Node9 -->
<g id="edge8" class="edge">
<title>Node8&#45;&gt;Node9</title>
<path fill="none" stroke="midnightblue" d="M919.1,-94.53C927.56,-95.25 936.22,-95.98 944.79,-96.71"/>
<polygon fill="midnightblue" stroke="midnightblue" points="944.53,-100.2 954.79,-97.55 945.12,-93.22 944.53,-100.2"/>
</g>
<!-- Node8&#45;&gt;Node10 -->
<g id="edge10" class="edge">
<title>Node8&#45;&gt;Node10</title>
<path fill="none" stroke="midnightblue" d="M919,-81.1C931.04,-80.25 943.35,-79.51 955,-79.05 1014.89,-76.66 1082.05,-77.26 1135.58,-78.54"/>
<polygon fill="midnightblue" stroke="midnightblue" points="1135.67,-82.04 1145.75,-78.79 1135.84,-75.04 1135.67,-82.04"/>
</g>
<!-- Node9&#45;&gt;Node10 -->
<g id="edge9" class="edge">
<title>Node9&#45;&gt;Node10</title>
<path fill="none" stroke="midnightblue" d="M1110.25,-95.67C1118.65,-94.75 1127.28,-93.81 1135.89,-92.87"/>
<polygon fill="midnightblue" stroke="midnightblue" points="1136.42,-96.33 1145.98,-91.77 1135.66,-89.37 1136.42,-96.33"/>
</g>
<!-- Node12 -->
<g id="node12" class="node">
<title>Node12</title>
<g id="a_node12"><a xlink:href="../../d8/d86/classjavolution_1_1util_1_1internal_1_1table_1_1TableView.html#a771eeb8439c2be68d63ad450e50eeca4" target="_top" xlink:title=" ">
<polygon fill="white" stroke="black" points="382,-201.05 382,-231.05 537,-231.05 537,-201.05 382,-201.05"/>
<text text-anchor="start" x="390" y="-219.05" font-family="Helvetica,sans-Serif" font-size="10.00">javolution.util.internal.table.</text>
<text text-anchor="middle" x="459.5" y="-208.05" font-family="Helvetica,sans-Serif" font-size="10.00">TableView.getFirst</text>
</a>
</g>
</g>
<!-- Node11&#45;&gt;Node12 -->
<g id="edge13" class="edge">
<title>Node11&#45;&gt;Node12</title>
<path fill="none" stroke="midnightblue" d="M346.1,-216.05C354.56,-216.05 363.22,-216.05 371.79,-216.05"/>
<polygon fill="midnightblue" stroke="midnightblue" points="371.79,-219.55 381.79,-216.05 371.79,-212.55 371.79,-219.55"/>
</g>
<!-- Node13 -->
<g id="node13" class="node">
<title>Node13</title>
<g id="a_node13"><a xlink:href="../../d8/d86/classjavolution_1_1util_1_1internal_1_1table_1_1TableView.html#a40823a9bd3a29acd5896306e62a335d0" target="_top" xlink:title=" ">
<polygon fill="white" stroke="black" points="573,-203.05 573,-233.05 728,-233.05 728,-203.05 573,-203.05"/>
<text text-anchor="start" x="581" y="-221.05" font-family="Helvetica,sans-Serif" font-size="10.00">javolution.util.internal.table.</text>
<text text-anchor="middle" x="650.5" y="-210.05" font-family="Helvetica,sans-Serif" font-size="10.00">TableView.emptyError</text>
</a>
</g>
</g>
<!-- Node12&#45;&gt;Node13 -->
<g id="edge14" class="edge">
<title>Node12&#45;&gt;Node13</title>
<path fill="none" stroke="midnightblue" d="M537.1,-216.86C545.56,-216.95 554.22,-217.04 562.79,-217.13"/>
<polygon fill="midnightblue" stroke="midnightblue" points="562.75,-220.63 572.79,-217.24 562.83,-213.63 562.75,-220.63"/>
</g>
<!-- Node14 -->
<g id="node14" class="node">
<title>Node14</title>
<g id="a_node14"><a xlink:href="../../d8/d86/classjavolution_1_1util_1_1internal_1_1table_1_1TableView.html#a0879bdae86718d45952dc02671673e57" target="_top" xlink:title=" ">
<polygon fill="white" stroke="black" points="573,-154.05 573,-184.05 728,-184.05 728,-154.05 573,-154.05"/>
<text text-anchor="start" x="581" y="-172.05" font-family="Helvetica,sans-Serif" font-size="10.00">javolution.util.internal.table.</text>
<text text-anchor="middle" x="650.5" y="-161.05" font-family="Helvetica,sans-Serif" font-size="10.00">TableView.size</text>
</a>
</g>
</g>
<!-- Node12&#45;&gt;Node14 -->
<g id="edge15" class="edge">
<title>Node12&#45;&gt;Node14</title>
<path fill="none" stroke="midnightblue" d="M520.82,-201.05C539.4,-196.43 560.02,-191.3 579.22,-186.53"/>
<polygon fill="midnightblue" stroke="midnightblue" points="580.24,-189.88 589.1,-184.07 578.56,-183.08 580.24,-189.88"/>
</g>
<!-- Node15&#45;&gt;Node14 -->
<g id="edge17" class="edge">
<title>Node15&#45;&gt;Node14</title>
<path fill="none" stroke="midnightblue" d="M346.4,-167.45C408.98,-167.78 497.3,-168.25 562.46,-168.59"/>
<polygon fill="midnightblue" stroke="midnightblue" points="562.7,-172.09 572.72,-168.64 562.73,-165.09 562.7,-172.09"/>
</g>
<!-- Node16&#45;&gt;Node8 -->
<g id="edge19" class="edge">
<title>Node16&#45;&gt;Node8</title>
<path fill="none" stroke="midnightblue" d="M537.01,-109.36C590.58,-110.28 663.76,-110.12 728,-105.05 736.35,-104.39 745.02,-103.48 753.68,-102.43"/>
<polygon fill="midnightblue" stroke="midnightblue" points="754.34,-105.87 763.81,-101.13 753.45,-98.93 754.34,-105.87"/>
</g>
<!-- Node16&#45;&gt;Node16 -->
<g id="edge23" class="edge">
<title>Node16&#45;&gt;Node16</title>
<path fill="none" stroke="midnightblue" d="M426.39,-122.21C418.4,-131.61 429.44,-140.55 459.5,-140.55 477.82,-140.55 489.07,-137.23 493.26,-132.51"/>
<polygon fill="midnightblue" stroke="midnightblue" points="496.73,-131.97 492.61,-122.21 489.75,-132.41 496.73,-131.97"/>
</g>
<!-- Node17 -->
<g id="node17" class="node">
<title>Node17</title>
<g id="a_node17"><a xlink:href="../../d0/dd9/classjavolution_1_1util_1_1internal_1_1table_1_1FractalTableImpl.html#a3fcca6fb9b975132778bfc13b304308b" target="_top" xlink:title=" ">
<polygon fill="white" stroke="black" points="573,-48.05 573,-78.05 728,-78.05 728,-48.05 573,-48.05"/>
<text text-anchor="start" x="581" y="-66.05" font-family="Helvetica,sans-Serif" font-size="10.00">javolution.util.internal.table.</text>
<text text-anchor="middle" x="650.5" y="-55.05" font-family="Helvetica,sans-Serif" font-size="10.00">FractalTableImpl.set</text>
</a>
</g>
</g>
<!-- Node16&#45;&gt;Node17 -->
<g id="edge20" class="edge">
<title>Node16&#45;&gt;Node17</title>
<path fill="none" stroke="midnightblue" d="M525.01,-92.03C541.04,-88.3 558.36,-84.27 574.83,-80.43"/>
<polygon fill="midnightblue" stroke="midnightblue" points="576.01,-83.75 584.96,-78.07 574.42,-76.93 576.01,-83.75"/>
</g>
<!-- Node17&#45;&gt;Node8 -->
<g id="edge21" class="edge">
<title>Node17&#45;&gt;Node8</title>
<path fill="none" stroke="midnightblue" d="M728.1,-73.18C736.56,-74.3 745.22,-75.44 753.79,-76.58"/>
<polygon fill="midnightblue" stroke="midnightblue" points="753.42,-80.06 763.79,-77.9 754.34,-73.12 753.42,-80.06"/>
</g>
<!-- Node17&#45;&gt;Node17 -->
<g id="edge22" class="edge">
<title>Node17&#45;&gt;Node17</title>
<path fill="none" stroke="midnightblue" d="M617.39,-78.21C609.4,-87.61 620.44,-96.55 650.5,-96.55 668.82,-96.55 680.07,-93.23 684.26,-88.51"/>
<polygon fill="midnightblue" stroke="midnightblue" points="687.73,-87.97 683.61,-78.21 680.75,-88.41 687.73,-87.97"/>
</g>
<!-- Node18&#45;&gt;Node8 -->
<g id="edge25" class="edge">
<title>Node18&#45;&gt;Node8</title>
<path fill="none" stroke="midnightblue" d="M537.01,-24.56C591.05,-22.57 664.81,-23.65 728,-38.05 755.05,-44.21 783.59,-56.98 805.15,-68.07"/>
<polygon fill="midnightblue" stroke="midnightblue" points="803.76,-71.29 814.24,-72.85 807.02,-65.1 803.76,-71.29"/>
</g>
<!-- Node18&#45;&gt;Node17 -->
<g id="edge28" class="edge">
<title>Node18&#45;&gt;Node17</title>
<path fill="none" stroke="midnightblue" d="M537.1,-43.42C545.56,-44.9 554.22,-46.41 562.79,-47.91"/>
<polygon fill="midnightblue" stroke="midnightblue" points="562.34,-51.38 572.79,-49.65 563.54,-44.49 562.34,-51.38"/>
</g>
<!-- Node18&#45;&gt;Node18 -->
<g id="edge29" class="edge">
<title>Node18&#45;&gt;Node18</title>
<path fill="none" stroke="midnightblue" d="M426.39,-45.21C418.4,-54.61 429.44,-63.55 459.5,-63.55 477.82,-63.55 489.07,-60.23 493.26,-55.51"/>
<polygon fill="midnightblue" stroke="midnightblue" points="496.73,-54.97 492.61,-45.21 489.75,-55.41 496.73,-54.97"/>
</g>
<!-- Node19 -->
<g id="node19" class="node">
<title>Node19</title>
<g id="a_node19"><a xlink:href="../../d0/dd9/classjavolution_1_1util_1_1internal_1_1table_1_1FractalTableImpl.html#abc2a171d8a1890aa4c5e8d36111a109c" target="_top" xlink:title=" ">
<polygon fill="white" stroke="black" points="764,-7.05 764,-37.05 919,-37.05 919,-7.05 764,-7.05"/>
<text text-anchor="start" x="772" y="-25.05" font-family="Helvetica,sans-Serif" font-size="10.00">javolution.util.internal.table.</text>
<text text-anchor="middle" x="841.5" y="-14.05" font-family="Helvetica,sans-Serif" font-size="10.00">FractalTableImpl.get</text>
</a>
</g>
</g>
<!-- Node18&#45;&gt;Node19 -->
<g id="edge26" class="edge">
<title>Node18&#45;&gt;Node19</title>
<path fill="none" stroke="midnightblue" d="M516.75,-15.02C534.6,-10.93 554.5,-7.08 573,-5.05 641.48,2.47 659.3,0.11 728,-5.05 736.35,-5.68 745.03,-6.56 753.68,-7.6"/>
<polygon fill="midnightblue" stroke="midnightblue" points="753.46,-11.1 763.82,-8.89 754.34,-4.16 753.46,-11.1"/>
</g>
<!-- Node19&#45;&gt;Node10 -->
<g id="edge27" class="edge">
<title>Node19&#45;&gt;Node10</title>
<path fill="none" stroke="midnightblue" d="M919.11,-33.76C980.97,-43.22 1068.47,-56.59 1135.7,-66.87"/>
<polygon fill="midnightblue" stroke="midnightblue" points="1135.47,-70.37 1145.88,-68.43 1136.53,-63.45 1135.47,-70.37"/>
</g>
</g>
</svg>
        <g id="navigator" transform="translate(0 0)" fill="#404254">
                <rect fill="#f2f5e9" fill-opacity="0.5" stroke="#606060" stroke-width=".5" x="0" y="0" width="60" height="60"/>
                <use id="zoomplus" xlink:href="#zoomPlus" x="17" y="9" onmousedown="handleZoom(evt,'in')"/>
                <use id="zoomminus" xlink:href="#zoomMin" x="42" y="9" onmousedown="handleZoom(evt,'out')"/>
                <use id="reset" xlink:href="#resetDef" x="30" y="36" onmousedown="handleReset()"/>
                <g id="arrowUp" xlink:href="#dirArrow" transform="translate(30 24)" onmousedown="handlePan(0,-1)">
                  <use xlink:href="#rim" fill="#404040">
                        <set attributeName="fill" to="#808080" begin="arrowUp.mouseover" end="arrowUp.mouseout"/>
                  </use>
                  <path fill="none" stroke="white" stroke-width="1.5" d="M0,-3.0v7 M-2.5,-0.5L0,-3.0L2.5,-0.5"/>
                </g>
                <g id="arrowRight" xlink:href="#dirArrow" transform="rotate(90) translate(36 -43)" onmousedown="handlePan(1,0)">
                  <use xlink:href="#rim" fill="#404040">
                        <set attributeName="fill" to="#808080" begin="arrowRight.mouseover" end="arrowRight.mouseout"/>
                  </use>
                  <path fill="none" stroke="white" stroke-width="1.5" d="M0,-3.0v7 M-2.5,-0.5L0,-3.0L2.5,-0.5"/>
                </g>
                <g id="arrowDown" xlink:href="#dirArrow" transform="rotate(180) translate(-30 -48)" onmousedown="handlePan(0,1)">
                  <use xlink:href="#rim" fill="#404040">
                        <set attributeName="fill" to="#808080" begin="arrowDown.mouseover" end="arrowDown.mouseout"/>
                  </use>
                  <path fill="none" stroke="white" stroke-width="1.5" d="M0,-3.0v7 M-2.5,-0.5L0,-3.0L2.5,-0.5"/>
                </g>
                <g id="arrowLeft" xlink:href="#dirArrow" transform="rotate(270) translate(-36 17)" onmousedown="handlePan(-1,0)">
                  <use xlink:href="#rim" fill="#404040">
                        <set attributeName="fill" to="#808080" begin="arrowLeft.mouseover" end="arrowLeft.mouseout"/>
                  </use>
                  <path fill="none" stroke="white" stroke-width="1.5" d="M0,-3.0v7 M-2.5,-0.5L0,-3.0L2.5,-0.5"/>
                </g>
        </g>
        <svg viewBox="0 0 15 15" width="100%" height="30px" preserveAspectRatio="xMaxYMin meet">
         <g id="arrow_out" transform="scale(0.3 0.3)">
          <a xlink:href="classjavolution_1_1util_1_1internal_1_1table_1_1FastTableImpl_ae3172f9ea652c78e78d265d080dcd321_cgraph_org.svg" target="_base">
           <rect id="button" ry="5" rx="5" y="6" x="6" height="38" width="38"
                fill="#f2f5e9" fill-opacity="0.5" stroke="#606060" stroke-width="1.0"/>
           <path id="arrow"
             d="M 11.500037,31.436501 C 11.940474,20.09759 22.043105,11.32322 32.158766,21.979434 L 37.068811,17.246167 C 37.068811,17.246167 37.088388,32 37.088388,32 L 22.160133,31.978069 C 22.160133,31.978069 26.997745,27.140456 26.997745,27.140456 C 18.528582,18.264221 13.291696,25.230495 11.500037,31.436501 z"
             style="fill:#404040;"/>
          </a>
         </g>
        </svg>
</svg>
