<?xml version="1.0" encoding="UTF-8" standalone="no"?>
<!DOCTYPE svg PUBLIC "-//W3C//DTD SVG 1.1//EN"
 "http://www.w3.org/Graphics/SVG/1.1/DTD/svg11.dtd">
<!-- Generated by graphviz version 2.43.0 (0)
 -->
<!-- Title: javolution.util.internal.table.FastTableImpl.readObject Pages: 1 -->
<!--zoomable 228 -->
<svg id="main" version="1.1" xmlns="http://www.w3.org/2000/svg" xmlns:xlink="http://www.w3.org/1999/xlink" xml:space="preserve" onload="init(evt)">
<style type="text/css"><![CDATA[
.edge:hover path { stroke: red; }
.edge:hover polygon { stroke: red; fill: red; }
]]></style>
<script type="text/javascript"><![CDATA[
var edges = document.getElementsByTagName('g');
if (edges && edges.length) {
  for (var i=0;i<edges.length;i++) {
    if (edges[i].id.substr(0,4)=='edge') {
      edges[i].setAttribute('class','edge');
    }
  }
}
]]></script>
        <defs>
                <circle id="rim" cx="0" cy="0" r="7"/>
                <circle id="rim2" cx="0" cy="0" r="3.5"/>
                <g id="zoomPlus">
                        <use xlink:href="#rim" fill="#404040">
                                <set attributeName="fill" to="#808080" begin="zoomplus.mouseover" end="zoomplus.mouseout"/>
                        </use>
                        <path d="M-4,0h8M0,-4v8" fill="none" stroke="white" stroke-width="1.5" pointer-events="none"/>
                </g>
                <g id="zoomMin">
                        <use xlink:href="#rim" fill="#404040">
                                <set attributeName="fill" to="#808080" begin="zoomminus.mouseover" end="zoomminus.mouseout"/>
                        </use>
                        <path d="M-4,0h8" fill="none" stroke="white" stroke-width="1.5" pointer-events="none"/>
                </g>
                <g id="dirArrow">
                        <path fill="none" stroke="white" stroke-width="1.5" d="M0,-3.0v7 M-2.5,-0.5L0,-3.0L2.5,-0.5"/>
                </g>
               <g id="resetDef">
                       <use xlink:href="#rim2" fill="#404040">
                               <set attributeName="fill" to="#808080" begin="reset.mouseover" end="reset.mouseout"/>
                       </use>
               </g>
        </defs>

<script type="text/javascript">
var viewWidth = 1525;
var viewHeight = 228;
var sectionId = 'dynsection-50';
</script>
<script xlink:href="../../svgpan.js"/>
<svg id="graph" class="graph">
<g id="viewport">
<title>javolution.util.internal.table.FastTableImpl.readObject</title>
<polygon fill="white" stroke="transparent" points="-4,4 -4,-224.45 1521,-224.45 1521,4 -4,4"/>
<!-- Node1 -->
<g id="node1" class="node">
<title>Node1</title>
<g id="a_node1"><a xlink:title=" ">
<polygon fill="#bfbfbf" stroke="black" points="0,-70.5 0,-100.5 155,-100.5 155,-70.5 0,-70.5"/>
<text text-anchor="start" x="8" y="-88.5" font-family="Helvetica,sans-Serif" font-size="10.00">javolution.util.internal.table.</text>
<text text-anchor="middle" x="77.5" y="-77.5" font-family="Helvetica,sans-Serif" font-size="10.00">FastTableImpl.readObject</text>
</a>
</g>
</g>
<!-- Node2 -->
<g id="node2" class="node">
<title>Node2</title>
<g id="a_node2"><a xlink:href="../../d9/d7a/classjavolution_1_1util_1_1internal_1_1table_1_1FastTableImpl.html#aaba641e6bd1d2d0cfb35e58043ff8495" target="_top" xlink:title=" ">
<polygon fill="white" stroke="black" points="191,-70.5 191,-100.5 346,-100.5 346,-70.5 191,-70.5"/>
<text text-anchor="start" x="199" y="-88.5" font-family="Helvetica,sans-Serif" font-size="10.00">javolution.util.internal.table.</text>
<text text-anchor="middle" x="268.5" y="-77.5" font-family="Helvetica,sans-Serif" font-size="10.00">FastTableImpl.addLast</text>
</a>
</g>
</g>
<!-- Node1&#45;&gt;Node2 -->
<g id="edge1" class="edge">
<title>Node1&#45;&gt;Node2</title>
<path fill="none" stroke="midnightblue" d="M155.1,-85.5C163.56,-85.5 172.22,-85.5 180.79,-85.5"/>
<polygon fill="midnightblue" stroke="midnightblue" points="180.79,-89 190.79,-85.5 180.79,-82 180.79,-89"/>
</g>
<!-- Node3 -->
<g id="node3" class="node">
<title>Node3</title>
<g id="a_node3"><a xlink:href="../../d9/d7a/classjavolution_1_1util_1_1internal_1_1table_1_1FastTableImpl.html#a56f359b38a339adb917107ce305d9cf1" target="_top" xlink:title=" ">
<polygon fill="white" stroke="black" points="382,-132.5 382,-162.5 537,-162.5 537,-132.5 382,-132.5"/>
<text text-anchor="start" x="390" y="-150.5" font-family="Helvetica,sans-Serif" font-size="10.00">javolution.util.internal.table.</text>
<text text-anchor="middle" x="459.5" y="-139.5" font-family="Helvetica,sans-Serif" font-size="10.00">FastTableImpl.checkUpsize</text>
</a>
</g>
</g>
<!-- Node2&#45;&gt;Node3 -->
<g id="edge2" class="edge">
<title>Node2&#45;&gt;Node3</title>
<path fill="none" stroke="midnightblue" d="M315.25,-100.51C341.64,-109.16 375.01,-120.11 402.9,-129.26"/>
<polygon fill="midnightblue" stroke="midnightblue" points="401.92,-132.62 412.51,-132.41 404.1,-125.97 401.92,-132.62"/>
</g>
<!-- Node12 -->
<g id="node12" class="node">
<title>Node12</title>
<g id="a_node12"><a xlink:href="../../d8/d86/classjavolution_1_1util_1_1internal_1_1table_1_1TableView.html#a69e7425b9e4c16f94a60ffdce48ef118" target="_top" xlink:title=" ">
<polygon fill="white" stroke="black" points="382,-70.5 382,-100.5 537,-100.5 537,-70.5 382,-70.5"/>
<text text-anchor="start" x="390" y="-88.5" font-family="Helvetica,sans-Serif" font-size="10.00">javolution.util.internal.table.</text>
<text text-anchor="middle" x="459.5" y="-77.5" font-family="Helvetica,sans-Serif" font-size="10.00">TableView.element</text>
</a>
</g>
</g>
<!-- Node2&#45;&gt;Node12 -->
<g id="edge13" class="edge">
<title>Node2&#45;&gt;Node12</title>
<path fill="none" stroke="midnightblue" d="M346.1,-85.5C354.56,-85.5 363.22,-85.5 371.79,-85.5"/>
<polygon fill="midnightblue" stroke="midnightblue" points="371.79,-89 381.79,-85.5 371.79,-82 371.79,-89"/>
</g>
<!-- Node16 -->
<g id="node16" class="node">
<title>Node16</title>
<g id="a_node16"><a xlink:href="../../d0/dd9/classjavolution_1_1util_1_1internal_1_1table_1_1FractalTableImpl.html#a3fcca6fb9b975132778bfc13b304308b" target="_top" xlink:title=" ">
<polygon fill="white" stroke="black" points="573,-0.5 573,-30.5 728,-30.5 728,-0.5 573,-0.5"/>
<text text-anchor="start" x="581" y="-18.5" font-family="Helvetica,sans-Serif" font-size="10.00">javolution.util.internal.table.</text>
<text text-anchor="middle" x="650.5" y="-7.5" font-family="Helvetica,sans-Serif" font-size="10.00">FractalTableImpl.set</text>
</a>
</g>
</g>
<!-- Node2&#45;&gt;Node16 -->
<g id="edge17" class="edge">
<title>Node2&#45;&gt;Node16</title>
<path fill="none" stroke="midnightblue" d="M337.83,-70.47C352.39,-67.39 367.68,-64.26 382,-61.5 442.32,-49.89 510.56,-38.17 563.02,-29.47"/>
<polygon fill="midnightblue" stroke="midnightblue" points="563.67,-32.91 572.96,-27.83 562.53,-26.01 563.67,-32.91"/>
</g>
<!-- Node4 -->
<g id="node4" class="node">
<title>Node4</title>
<g id="a_node4"><a xlink:href="../../d9/d7a/classjavolution_1_1util_1_1internal_1_1table_1_1FastTableImpl.html#a2aebcee341c5b1d2a43a676e61b20a9a" target="_top" xlink:title=" ">
<polygon fill="white" stroke="black" points="573,-136.5 573,-166.5 728,-166.5 728,-136.5 573,-136.5"/>
<text text-anchor="start" x="581" y="-154.5" font-family="Helvetica,sans-Serif" font-size="10.00">javolution.util.internal.table.</text>
<text text-anchor="middle" x="650.5" y="-143.5" font-family="Helvetica,sans-Serif" font-size="10.00">FastTableImpl.upsize</text>
</a>
</g>
</g>
<!-- Node3&#45;&gt;Node4 -->
<g id="edge3" class="edge">
<title>Node3&#45;&gt;Node4</title>
<path fill="none" stroke="midnightblue" d="M537.1,-149.12C545.56,-149.3 554.22,-149.48 562.79,-149.66"/>
<polygon fill="midnightblue" stroke="midnightblue" points="562.72,-153.16 572.79,-149.88 562.87,-146.17 562.72,-153.16"/>
</g>
<!-- Node5 -->
<g id="node5" class="node">
<title>Node5</title>
<g id="a_node5"><a xlink:href="../../d0/dd9/classjavolution_1_1util_1_1internal_1_1table_1_1FractalTableImpl.html#a39f2375f6ce014c7f89d01b3f5f2ac61" target="_top" xlink:title=" ">
<polygon fill="white" stroke="black" points="764,-136.5 764,-166.5 919,-166.5 919,-136.5 764,-136.5"/>
<text text-anchor="start" x="772" y="-154.5" font-family="Helvetica,sans-Serif" font-size="10.00">javolution.util.internal.table.</text>
<text text-anchor="middle" x="841.5" y="-143.5" font-family="Helvetica,sans-Serif" font-size="10.00">FractalTableImpl.capacity</text>
</a>
</g>
</g>
<!-- Node4&#45;&gt;Node5 -->
<g id="edge4" class="edge">
<title>Node4&#45;&gt;Node5</title>
<path fill="none" stroke="midnightblue" d="M728.1,-151.5C736.56,-151.5 745.22,-151.5 753.79,-151.5"/>
<polygon fill="midnightblue" stroke="midnightblue" points="753.79,-155 763.79,-151.5 753.79,-148 753.79,-155"/>
</g>
<!-- Node6 -->
<g id="node6" class="node">
<title>Node6</title>
<g id="a_node6"><a xlink:href="../../d0/dd9/classjavolution_1_1util_1_1internal_1_1table_1_1FractalTableImpl.html#a5fc27e08895e1c5929fe2d2125ebb619" target="_top" xlink:title=" ">
<polygon fill="white" stroke="black" points="764,-185.5 764,-215.5 919,-215.5 919,-185.5 764,-185.5"/>
<text text-anchor="start" x="772" y="-203.5" font-family="Helvetica,sans-Serif" font-size="10.00">javolution.util.internal.table.</text>
<text text-anchor="middle" x="841.5" y="-192.5" font-family="Helvetica,sans-Serif" font-size="10.00">FractalTableImpl.upsize</text>
</a>
</g>
</g>
<!-- Node4&#45;&gt;Node6 -->
<g id="edge5" class="edge">
<title>Node4&#45;&gt;Node6</title>
<path fill="none" stroke="midnightblue" d="M709.49,-166.53C729.54,-171.73 752.17,-177.6 772.92,-182.98"/>
<polygon fill="midnightblue" stroke="midnightblue" points="772.06,-186.37 782.62,-185.49 773.82,-179.6 772.06,-186.37"/>
</g>
<!-- Node7 -->
<g id="node7" class="node">
<title>Node7</title>
<g id="a_node7"><a xlink:href="../../d0/dd9/classjavolution_1_1util_1_1internal_1_1table_1_1FractalTableImpl.html#a4e3ce37cbb96f069312dc088643ce844" target="_top" xlink:title=" ">
<polygon fill="white" stroke="black" points="955,-163.5 955,-193.5 1110,-193.5 1110,-163.5 955,-163.5"/>
<text text-anchor="start" x="963" y="-181.5" font-family="Helvetica,sans-Serif" font-size="10.00">javolution.util.internal.table.</text>
<text text-anchor="middle" x="1032.5" y="-170.5" font-family="Helvetica,sans-Serif" font-size="10.00">FractalTableImpl.copyTo</text>
</a>
</g>
</g>
<!-- Node6&#45;&gt;Node7 -->
<g id="edge6" class="edge">
<title>Node6&#45;&gt;Node7</title>
<path fill="none" stroke="midnightblue" d="M919.1,-191.58C927.56,-190.6 936.22,-189.59 944.79,-188.59"/>
<polygon fill="midnightblue" stroke="midnightblue" points="945.26,-192.06 954.79,-187.43 944.45,-185.11 945.26,-192.06"/>
</g>
<!-- Node9 -->
<g id="node9" class="node">
<title>Node9</title>
<g id="a_node9"><a xlink:href="../../d0/dd9/classjavolution_1_1util_1_1internal_1_1table_1_1FractalTableImpl.html#ade85a910199ccbb9e60804b6b7a68b13" target="_top" xlink:title=" ">
<polygon fill="white" stroke="black" points="955,-97.5 955,-127.5 1110,-127.5 1110,-97.5 955,-97.5"/>
<text text-anchor="start" x="963" y="-115.5" font-family="Helvetica,sans-Serif" font-size="10.00">javolution.util.internal.table.</text>
<text text-anchor="middle" x="1032.5" y="-104.5" font-family="Helvetica,sans-Serif" font-size="10.00">FractalTableImpl.F</text>
</a>
</g>
</g>
<!-- Node6&#45;&gt;Node9 -->
<g id="edge8" class="edge">
<title>Node6&#45;&gt;Node9</title>
<path fill="none" stroke="midnightblue" d="M896.22,-185.49C903.98,-182.79 911.78,-179.78 919,-176.5 936.07,-168.75 938.78,-163.9 955,-154.5 967.76,-147.1 981.88,-139.26 994.48,-132.37"/>
<polygon fill="midnightblue" stroke="midnightblue" points="996.24,-135.4 1003.35,-127.55 992.89,-129.25 996.24,-135.4"/>
</g>
<!-- Node11 -->
<g id="node11" class="node">
<title>Node11</title>
<g id="a_node11"><a xlink:href="../../d0/dd9/classjavolution_1_1util_1_1internal_1_1table_1_1FractalTableImpl.html#afb7c67513eecf10757bfd0fde7c6a0a0" target="_top" xlink:title=" ">
<polygon fill="white" stroke="black" points="1337,-128.5 1337,-158.5 1517,-158.5 1517,-128.5 1337,-128.5"/>
<text text-anchor="start" x="1345" y="-146.5" font-family="Helvetica,sans-Serif" font-size="10.00">javolution.util.internal.table.</text>
<text text-anchor="middle" x="1427" y="-135.5" font-family="Helvetica,sans-Serif" font-size="10.00">FractalTableImpl.FractalTableImpl</text>
</a>
</g>
</g>
<!-- Node6&#45;&gt;Node11 -->
<g id="edge12" class="edge">
<title>Node6&#45;&gt;Node11</title>
<path fill="none" stroke="midnightblue" d="M919.09,-210.66C1011.05,-220.56 1169.38,-230.18 1301,-200.5 1333.6,-193.15 1367.95,-176.77 1392.38,-163.45"/>
<polygon fill="midnightblue" stroke="midnightblue" points="1394.2,-166.44 1401.23,-158.52 1390.79,-160.33 1394.2,-166.44"/>
</g>
<!-- Node8 -->
<g id="node8" class="node">
<title>Node8</title>
<g id="a_node8"><a xlink:href="../../d4/d14/classjavolution_1_1lang_1_1MathLib.html#a61d82d4ab96ea86fb7868daf1c203048" target="_top" xlink:title=" ">
<polygon fill="white" stroke="black" points="1147,-172 1147,-191 1300,-191 1300,-172 1147,-172"/>
<text text-anchor="middle" x="1223.5" y="-179" font-family="Helvetica,sans-Serif" font-size="10.00">javolution.lang.MathLib.min</text>
</a>
</g>
</g>
<!-- Node7&#45;&gt;Node8 -->
<g id="edge7" class="edge">
<title>Node7&#45;&gt;Node8</title>
<path fill="none" stroke="midnightblue" d="M1110.1,-179.72C1118.78,-179.85 1127.67,-179.99 1136.46,-180.13"/>
<polygon fill="midnightblue" stroke="midnightblue" points="1136.66,-183.64 1146.71,-180.3 1136.77,-176.64 1136.66,-183.64"/>
</g>
<!-- Node10 -->
<g id="node10" class="node">
<title>Node10</title>
<g id="a_node10"><a xlink:href="../../d0/dd9/classjavolution_1_1util_1_1internal_1_1table_1_1FractalTableImpl.html#a75450af34f8dbb7210888bdc874f424c" target="_top" xlink:title=" ">
<polygon fill="white" stroke="black" points="1146,-84.5 1146,-114.5 1301,-114.5 1301,-84.5 1146,-84.5"/>
<text text-anchor="start" x="1154" y="-102.5" font-family="Helvetica,sans-Serif" font-size="10.00">javolution.util.internal.table.</text>
<text text-anchor="middle" x="1223.5" y="-91.5" font-family="Helvetica,sans-Serif" font-size="10.00">FractalTableImpl.allocate</text>
</a>
</g>
</g>
<!-- Node9&#45;&gt;Node10 -->
<g id="edge9" class="edge">
<title>Node9&#45;&gt;Node10</title>
<path fill="none" stroke="midnightblue" d="M1110.1,-107.23C1118.56,-106.65 1127.22,-106.05 1135.79,-105.46"/>
<polygon fill="midnightblue" stroke="midnightblue" points="1136.05,-108.95 1145.79,-104.78 1135.57,-101.97 1136.05,-108.95"/>
</g>
<!-- Node9&#45;&gt;Node11 -->
<g id="edge11" class="edge">
<title>Node9&#45;&gt;Node11</title>
<path fill="none" stroke="midnightblue" d="M1110.01,-121.06C1122.05,-122.29 1134.36,-123.48 1146,-124.5 1205.85,-129.72 1273,-134.32 1326.54,-137.69"/>
<polygon fill="midnightblue" stroke="midnightblue" points="1326.52,-141.19 1336.72,-138.32 1326.95,-134.2 1326.52,-141.19"/>
</g>
<!-- Node10&#45;&gt;Node11 -->
<g id="edge10" class="edge">
<title>Node10&#45;&gt;Node11</title>
<path fill="none" stroke="midnightblue" d="M1293.28,-114.52C1310.69,-118.32 1329.53,-122.43 1347.38,-126.33"/>
<polygon fill="midnightblue" stroke="midnightblue" points="1346.67,-129.76 1357.19,-128.47 1348.16,-122.92 1346.67,-129.76"/>
</g>
<!-- Node13 -->
<g id="node13" class="node">
<title>Node13</title>
<g id="a_node13"><a xlink:href="../../d8/d86/classjavolution_1_1util_1_1internal_1_1table_1_1TableView.html#a771eeb8439c2be68d63ad450e50eeca4" target="_top" xlink:title=" ">
<polygon fill="white" stroke="black" points="573,-70.5 573,-100.5 728,-100.5 728,-70.5 573,-70.5"/>
<text text-anchor="start" x="581" y="-88.5" font-family="Helvetica,sans-Serif" font-size="10.00">javolution.util.internal.table.</text>
<text text-anchor="middle" x="650.5" y="-77.5" font-family="Helvetica,sans-Serif" font-size="10.00">TableView.getFirst</text>
</a>
</g>
</g>
<!-- Node12&#45;&gt;Node13 -->
<g id="edge14" class="edge">
<title>Node12&#45;&gt;Node13</title>
<path fill="none" stroke="midnightblue" d="M537.1,-85.5C545.56,-85.5 554.22,-85.5 562.79,-85.5"/>
<polygon fill="midnightblue" stroke="midnightblue" points="562.79,-89 572.79,-85.5 562.79,-82 562.79,-89"/>
</g>
<!-- Node14 -->
<g id="node14" class="node">
<title>Node14</title>
<g id="a_node14"><a xlink:href="../../d8/d86/classjavolution_1_1util_1_1internal_1_1table_1_1TableView.html#a40823a9bd3a29acd5896306e62a335d0" target="_top" xlink:title=" ">
<polygon fill="white" stroke="black" points="764,-38.5 764,-68.5 919,-68.5 919,-38.5 764,-38.5"/>
<text text-anchor="start" x="772" y="-56.5" font-family="Helvetica,sans-Serif" font-size="10.00">javolution.util.internal.table.</text>
<text text-anchor="middle" x="841.5" y="-45.5" font-family="Helvetica,sans-Serif" font-size="10.00">TableView.emptyError</text>
</a>
</g>
</g>
<!-- Node13&#45;&gt;Node14 -->
<g id="edge15" class="edge">
<title>Node13&#45;&gt;Node14</title>
<path fill="none" stroke="midnightblue" d="M728.1,-72.53C736.56,-71.1 745.22,-69.63 753.79,-68.18"/>
<polygon fill="midnightblue" stroke="midnightblue" points="754.51,-71.61 763.79,-66.49 753.35,-64.71 754.51,-71.61"/>
</g>
<!-- Node15 -->
<g id="node15" class="node">
<title>Node15</title>
<g id="a_node15"><a xlink:href="../../d8/d86/classjavolution_1_1util_1_1internal_1_1table_1_1TableView.html#a0879bdae86718d45952dc02671673e57" target="_top" xlink:title=" ">
<polygon fill="white" stroke="black" points="764,-87.5 764,-117.5 919,-117.5 919,-87.5 764,-87.5"/>
<text text-anchor="start" x="772" y="-105.5" font-family="Helvetica,sans-Serif" font-size="10.00">javolution.util.internal.table.</text>
<text text-anchor="middle" x="841.5" y="-94.5" font-family="Helvetica,sans-Serif" font-size="10.00">TableView.size</text>
</a>
</g>
</g>
<!-- Node13&#45;&gt;Node15 -->
<g id="edge16" class="edge">
<title>Node13&#45;&gt;Node15</title>
<path fill="none" stroke="midnightblue" d="M728.1,-92.39C736.56,-93.15 745.22,-93.93 753.79,-94.7"/>
<polygon fill="midnightblue" stroke="midnightblue" points="753.52,-98.19 763.79,-95.6 754.14,-91.22 753.52,-98.19"/>
</g>
<!-- Node16&#45;&gt;Node9 -->
<g id="edge18" class="edge">
<title>Node16&#45;&gt;Node9</title>
<path fill="none" stroke="midnightblue" d="M728.18,-7.56C782.95,-4.65 857.52,-6.41 919,-28.5 954.96,-41.42 989.06,-70.01 1010.1,-90.24"/>
<polygon fill="midnightblue" stroke="midnightblue" points="1007.65,-92.75 1017.24,-97.27 1012.57,-87.76 1007.65,-92.75"/>
</g>
<!-- Node16&#45;&gt;Node16 -->
<g id="edge19" class="edge">
<title>Node16&#45;&gt;Node16</title>
<path fill="none" stroke="midnightblue" d="M617.39,-30.66C609.4,-40.06 620.44,-49 650.5,-49 668.82,-49 680.07,-45.68 684.26,-40.96"/>
<polygon fill="midnightblue" stroke="midnightblue" points="687.73,-40.42 683.61,-30.66 680.75,-40.86 687.73,-40.42"/>
</g>
</g>
</svg>
        <g id="navigator" transform="translate(0 0)" fill="#404254">
                <rect fill="#f2f5e9" fill-opacity="0.5" stroke="#606060" stroke-width=".5" x="0" y="0" width="60" height="60"/>
                <use id="zoomplus" xlink:href="#zoomPlus" x="17" y="9" onmousedown="handleZoom(evt,'in')"/>
                <use id="zoomminus" xlink:href="#zoomMin" x="42" y="9" onmousedown="handleZoom(evt,'out')"/>
                <use id="reset" xlink:href="#resetDef" x="30" y="36" onmousedown="handleReset()"/>
                <g id="arrowUp" xlink:href="#dirArrow" transform="translate(30 24)" onmousedown="handlePan(0,-1)">
                  <use xlink:href="#rim" fill="#404040">
                        <set attributeName="fill" to="#808080" begin="arrowUp.mouseover" end="arrowUp.mouseout"/>
                  </use>
                  <path fill="none" stroke="white" stroke-width="1.5" d="M0,-3.0v7 M-2.5,-0.5L0,-3.0L2.5,-0.5"/>
                </g>
                <g id="arrowRight" xlink:href="#dirArrow" transform="rotate(90) translate(36 -43)" onmousedown="handlePan(1,0)">
                  <use xlink:href="#rim" fill="#404040">
                        <set attributeName="fill" to="#808080" begin="arrowRight.mouseover" end="arrowRight.mouseout"/>
                  </use>
                  <path fill="none" stroke="white" stroke-width="1.5" d="M0,-3.0v7 M-2.5,-0.5L0,-3.0L2.5,-0.5"/>
                </g>
                <g id="arrowDown" xlink:href="#dirArrow" transform="rotate(180) translate(-30 -48)" onmousedown="handlePan(0,1)">
                  <use xlink:href="#rim" fill="#404040">
                        <set attributeName="fill" to="#808080" begin="arrowDown.mouseover" end="arrowDown.mouseout"/>
                  </use>
                  <path fill="none" stroke="white" stroke-width="1.5" d="M0,-3.0v7 M-2.5,-0.5L0,-3.0L2.5,-0.5"/>
                </g>
                <g id="arrowLeft" xlink:href="#dirArrow" transform="rotate(270) translate(-36 17)" onmousedown="handlePan(-1,0)">
                  <use xlink:href="#rim" fill="#404040">
                        <set attributeName="fill" to="#808080" begin="arrowLeft.mouseover" end="arrowLeft.mouseout"/>
                  </use>
                  <path fill="none" stroke="white" stroke-width="1.5" d="M0,-3.0v7 M-2.5,-0.5L0,-3.0L2.5,-0.5"/>
                </g>
        </g>
        <svg viewBox="0 0 15 15" width="100%" height="30px" preserveAspectRatio="xMaxYMin meet">
         <g id="arrow_out" transform="scale(0.3 0.3)">
          <a xlink:href="classjavolution_1_1util_1_1internal_1_1table_1_1FastTableImpl_ac6df68538a497b1a3dc01cee2c1f4f66_cgraph_org.svg" target="_base">
           <rect id="button" ry="5" rx="5" y="6" x="6" height="38" width="38"
                fill="#f2f5e9" fill-opacity="0.5" stroke="#606060" stroke-width="1.0"/>
           <path id="arrow"
             d="M 11.500037,31.436501 C 11.940474,20.09759 22.043105,11.32322 32.158766,21.979434 L 37.068811,17.246167 C 37.068811,17.246167 37.088388,32 37.088388,32 L 22.160133,31.978069 C 22.160133,31.978069 26.997745,27.140456 26.997745,27.140456 C 18.528582,18.264221 13.291696,25.230495 11.500037,31.436501 z"
             style="fill:#404040;"/>
          </a>
         </g>
        </svg>
</svg>
