<?xml version="1.0" encoding="UTF-8" standalone="no"?>
<!DOCTYPE svg PUBLIC "-//W3C//DTD SVG 1.1//EN"
 "http://www.w3.org/Graphics/SVG/1.1/DTD/svg11.dtd">
<!-- Generated by graphviz version 2.43.0 (0)
 -->
<!-- Title: javolution.util.internal.table.FastTableImpl.get Pages: 1 -->
<svg width="570pt" height="88pt"
 viewBox="0.00 0.00 570.00 88.00" xmlns="http://www.w3.org/2000/svg" xmlns:xlink="http://www.w3.org/1999/xlink">
<g id="graph0" class="graph" transform="scale(1 1) rotate(0) translate(4 84)">
<title>javolution.util.internal.table.FastTableImpl.get</title>
<polygon fill="white" stroke="transparent" points="-4,4 -4,-84 566,-84 566,4 -4,4"/>
<!-- Node1 -->
<g id="node1" class="node">
<title>Node1</title>
<g id="a_node1"><a xlink:title=" ">
<polygon fill="#bfbfbf" stroke="black" points="0,-24.5 0,-54.5 155,-54.5 155,-24.5 0,-24.5"/>
<text text-anchor="start" x="8" y="-42.5" font-family="Helvetica,sans-Serif" font-size="10.00">javolution.util.internal.table.</text>
<text text-anchor="middle" x="77.5" y="-31.5" font-family="Helvetica,sans-Serif" font-size="10.00">FastTableImpl.get</text>
</a>
</g>
</g>
<!-- Node2 -->
<g id="node2" class="node">
<title>Node2</title>
<g id="a_node2"><a xlink:href="../../d0/dd9/classjavolution_1_1util_1_1internal_1_1table_1_1FractalTableImpl.html#abc2a171d8a1890aa4c5e8d36111a109c" target="_top" xlink:title=" ">
<polygon fill="white" stroke="black" points="191,-49.5 191,-79.5 346,-79.5 346,-49.5 191,-49.5"/>
<text text-anchor="start" x="199" y="-67.5" font-family="Helvetica,sans-Serif" font-size="10.00">javolution.util.internal.table.</text>
<text text-anchor="middle" x="268.5" y="-56.5" font-family="Helvetica,sans-Serif" font-size="10.00">FractalTableImpl.get</text>
</a>
</g>
</g>
<!-- Node1&#45;&gt;Node2 -->
<g id="edge1" class="edge">
<title>Node1&#45;&gt;Node2</title>
<path fill="none" stroke="midnightblue" d="M155.1,-49.63C163.56,-50.75 172.22,-51.9 180.79,-53.03"/>
<polygon fill="midnightblue" stroke="midnightblue" points="180.42,-56.51 190.79,-54.35 181.34,-49.57 180.42,-56.51"/>
</g>
<!-- Node4 -->
<g id="node4" class="node">
<title>Node4</title>
<g id="a_node4"><a xlink:href="../../d8/d86/classjavolution_1_1util_1_1internal_1_1table_1_1TableView.html#a52cb740436aa95a6b9f3733ce6962061" target="_top" xlink:title=" ">
<polygon fill="white" stroke="black" points="191,-0.5 191,-30.5 346,-30.5 346,-0.5 191,-0.5"/>
<text text-anchor="start" x="199" y="-18.5" font-family="Helvetica,sans-Serif" font-size="10.00">javolution.util.internal.table.</text>
<text text-anchor="middle" x="268.5" y="-7.5" font-family="Helvetica,sans-Serif" font-size="10.00">TableView.indexError</text>
</a>
</g>
</g>
<!-- Node1&#45;&gt;Node4 -->
<g id="edge3" class="edge">
<title>Node1&#45;&gt;Node4</title>
<path fill="none" stroke="midnightblue" d="M155.1,-29.77C163.56,-28.7 172.22,-27.6 180.79,-26.51"/>
<polygon fill="midnightblue" stroke="midnightblue" points="181.31,-29.97 190.79,-25.24 180.43,-23.03 181.31,-29.97"/>
</g>
<!-- Node3 -->
<g id="node3" class="node">
<title>Node3</title>
<g id="a_node3"><a xlink:href="../../d0/dd9/classjavolution_1_1util_1_1internal_1_1table_1_1FractalTableImpl.html#afb7c67513eecf10757bfd0fde7c6a0a0" target="_top" xlink:title=" ">
<polygon fill="white" stroke="black" points="382,-49.5 382,-79.5 562,-79.5 562,-49.5 382,-49.5"/>
<text text-anchor="start" x="390" y="-67.5" font-family="Helvetica,sans-Serif" font-size="10.00">javolution.util.internal.table.</text>
<text text-anchor="middle" x="472" y="-56.5" font-family="Helvetica,sans-Serif" font-size="10.00">FractalTableImpl.FractalTableImpl</text>
</a>
</g>
</g>
<!-- Node2&#45;&gt;Node3 -->
<g id="edge2" class="edge">
<title>Node2&#45;&gt;Node3</title>
<path fill="none" stroke="midnightblue" d="M346.25,-64.5C354.65,-64.5 363.28,-64.5 371.89,-64.5"/>
<polygon fill="midnightblue" stroke="midnightblue" points="371.98,-68 381.98,-64.5 371.98,-61 371.98,-68"/>
</g>
<!-- Node5 -->
<g id="node5" class="node">
<title>Node5</title>
<g id="a_node5"><a xlink:href="../../d8/d86/classjavolution_1_1util_1_1internal_1_1table_1_1TableView.html#a0879bdae86718d45952dc02671673e57" target="_top" xlink:title=" ">
<polygon fill="white" stroke="black" points="394.5,-0.5 394.5,-30.5 549.5,-30.5 549.5,-0.5 394.5,-0.5"/>
<text text-anchor="start" x="402.5" y="-18.5" font-family="Helvetica,sans-Serif" font-size="10.00">javolution.util.internal.table.</text>
<text text-anchor="middle" x="472" y="-7.5" font-family="Helvetica,sans-Serif" font-size="10.00">TableView.size</text>
</a>
</g>
</g>
<!-- Node4&#45;&gt;Node5 -->
<g id="edge4" class="edge">
<title>Node4&#45;&gt;Node5</title>
<path fill="none" stroke="midnightblue" d="M346.25,-15.5C358.71,-15.5 371.7,-15.5 384.37,-15.5"/>
<polygon fill="midnightblue" stroke="midnightblue" points="384.46,-19 394.46,-15.5 384.46,-12 384.46,-19"/>
</g>
</g>
</svg>
