<?xml version="1.0" encoding="UTF-8" standalone="no"?>
<!DOCTYPE svg PUBLIC "-//W3C//DTD SVG 1.1//EN"
 "http://www.w3.org/Graphics/SVG/1.1/DTD/svg11.dtd">
<!-- Generated by graphviz version 2.43.0 (0)
 -->
<!-- Title: javolution.util.internal.table.FastTableImpl.remove Pages: 1 -->
<!--zoomable 213 -->
<svg id="main" version="1.1" xmlns="http://www.w3.org/2000/svg" xmlns:xlink="http://www.w3.org/1999/xlink" xml:space="preserve" onload="init(evt)">
<style type="text/css"><![CDATA[
.edge:hover path { stroke: red; }
.edge:hover polygon { stroke: red; fill: red; }
]]></style>
<script type="text/javascript"><![CDATA[
var edges = document.getElementsByTagName('g');
if (edges && edges.length) {
  for (var i=0;i<edges.length;i++) {
    if (edges[i].id.substr(0,4)=='edge') {
      edges[i].setAttribute('class','edge');
    }
  }
}
]]></script>
        <defs>
                <circle id="rim" cx="0" cy="0" r="7"/>
                <circle id="rim2" cx="0" cy="0" r="3.5"/>
                <g id="zoomPlus">
                        <use xlink:href="#rim" fill="#404040">
                                <set attributeName="fill" to="#808080" begin="zoomplus.mouseover" end="zoomplus.mouseout"/>
                        </use>
                        <path d="M-4,0h8M0,-4v8" fill="none" stroke="white" stroke-width="1.5" pointer-events="none"/>
                </g>
                <g id="zoomMin">
                        <use xlink:href="#rim" fill="#404040">
                                <set attributeName="fill" to="#808080" begin="zoomminus.mouseover" end="zoomminus.mouseout"/>
                        </use>
                        <path d="M-4,0h8" fill="none" stroke="white" stroke-width="1.5" pointer-events="none"/>
                </g>
                <g id="dirArrow">
                        <path fill="none" stroke="white" stroke-width="1.5" d="M0,-3.0v7 M-2.5,-0.5L0,-3.0L2.5,-0.5"/>
                </g>
               <g id="resetDef">
                       <use xlink:href="#rim2" fill="#404040">
                               <set attributeName="fill" to="#808080" begin="reset.mouseover" end="reset.mouseout"/>
                       </use>
               </g>
        </defs>

<script type="text/javascript">
var viewWidth = 1143;
var viewHeight = 213;
var sectionId = 'dynsection-52';
</script>
<script xlink:href="../../svgpan.js"/>
<svg id="graph" class="graph">
<g id="viewport">
<title>javolution.util.internal.table.FastTableImpl.remove</title>
<polygon fill="white" stroke="transparent" points="-4,4 -4,-208.96 1139,-208.96 1139,4 -4,4"/>
<!-- Node1 -->
<g id="node1" class="node">
<title>Node1</title>
<g id="a_node1"><a xlink:title=" ">
<polygon fill="#bfbfbf" stroke="black" points="0,-99.46 0,-129.46 155,-129.46 155,-99.46 0,-99.46"/>
<text text-anchor="start" x="8" y="-117.46" font-family="Helvetica,sans-Serif" font-size="10.00">javolution.util.internal.table.</text>
<text text-anchor="middle" x="77.5" y="-106.46" font-family="Helvetica,sans-Serif" font-size="10.00">FastTableImpl.remove</text>
</a>
</g>
</g>
<!-- Node2 -->
<g id="node2" class="node">
<title>Node2</title>
<g id="a_node2"><a xlink:href="../../d0/dd9/classjavolution_1_1util_1_1internal_1_1table_1_1FractalTableImpl.html#abc2a171d8a1890aa4c5e8d36111a109c" target="_top" xlink:title=" ">
<polygon fill="white" stroke="black" points="382,-119.46 382,-149.46 537,-149.46 537,-119.46 382,-119.46"/>
<text text-anchor="start" x="390" y="-137.46" font-family="Helvetica,sans-Serif" font-size="10.00">javolution.util.internal.table.</text>
<text text-anchor="middle" x="459.5" y="-126.46" font-family="Helvetica,sans-Serif" font-size="10.00">FractalTableImpl.get</text>
</a>
</g>
</g>
<!-- Node1&#45;&gt;Node2 -->
<g id="edge1" class="edge">
<title>Node1&#45;&gt;Node2</title>
<path fill="none" stroke="midnightblue" d="M155.29,-123.45C167.23,-124.61 179.44,-125.68 191,-126.46 251.19,-130.57 319.14,-132.57 371.49,-133.54"/>
<polygon fill="midnightblue" stroke="midnightblue" points="371.68,-137.04 381.75,-133.72 371.81,-130.05 371.68,-137.04"/>
</g>
<!-- Node4 -->
<g id="node4" class="node">
<title>Node4</title>
<g id="a_node4"><a xlink:href="../../d8/d86/classjavolution_1_1util_1_1internal_1_1table_1_1TableView.html#a52cb740436aa95a6b9f3733ce6962061" target="_top" xlink:title=" ">
<polygon fill="white" stroke="black" points="191,-174.46 191,-204.46 346,-204.46 346,-174.46 191,-174.46"/>
<text text-anchor="start" x="199" y="-192.46" font-family="Helvetica,sans-Serif" font-size="10.00">javolution.util.internal.table.</text>
<text text-anchor="middle" x="268.5" y="-181.46" font-family="Helvetica,sans-Serif" font-size="10.00">TableView.indexError</text>
</a>
</g>
</g>
<!-- Node1&#45;&gt;Node4 -->
<g id="edge3" class="edge">
<title>Node1&#45;&gt;Node4</title>
<path fill="none" stroke="midnightblue" d="M115.97,-129.53C137.84,-138.3 165.97,-149.55 191,-159.46 200.25,-163.13 210.14,-167.02 219.63,-170.75"/>
<polygon fill="midnightblue" stroke="midnightblue" points="218.37,-174.01 228.95,-174.41 220.92,-167.5 218.37,-174.01"/>
</g>
<!-- Node6 -->
<g id="node6" class="node">
<title>Node6</title>
<g id="a_node6"><a xlink:href="../../d0/dd9/classjavolution_1_1util_1_1internal_1_1table_1_1FractalTableImpl.html#a1d1eb4fc3de5ea84356dc01475a4fab7" target="_top" xlink:title=" ">
<polygon fill="white" stroke="black" points="191,-1.46 191,-31.46 346,-31.46 346,-1.46 191,-1.46"/>
<text text-anchor="start" x="199" y="-19.46" font-family="Helvetica,sans-Serif" font-size="10.00">javolution.util.internal.table.</text>
<text text-anchor="middle" x="268.5" y="-8.46" font-family="Helvetica,sans-Serif" font-size="10.00">FractalTableImpl.shiftLeft</text>
</a>
</g>
</g>
<!-- Node1&#45;&gt;Node6 -->
<g id="edge5" class="edge">
<title>Node1&#45;&gt;Node6</title>
<path fill="none" stroke="midnightblue" d="M107.62,-99.37C140.22,-82.46 193.19,-55 229.14,-36.35"/>
<polygon fill="midnightblue" stroke="midnightblue" points="231.08,-39.29 238.35,-31.58 227.86,-33.08 231.08,-39.29"/>
</g>
<!-- Node10 -->
<g id="node10" class="node">
<title>Node10</title>
<g id="a_node10"><a xlink:href="../../d0/dd9/classjavolution_1_1util_1_1internal_1_1table_1_1FractalTableImpl.html#aaf1d7f4ec659b31a33f597b47e76c94a" target="_top" xlink:title=" ">
<polygon fill="white" stroke="black" points="191,-68.46 191,-98.46 346,-98.46 346,-68.46 191,-68.46"/>
<text text-anchor="start" x="199" y="-86.46" font-family="Helvetica,sans-Serif" font-size="10.00">javolution.util.internal.table.</text>
<text text-anchor="middle" x="268.5" y="-75.46" font-family="Helvetica,sans-Serif" font-size="10.00">FractalTableImpl.shiftRight</text>
</a>
</g>
</g>
<!-- Node1&#45;&gt;Node10 -->
<g id="edge14" class="edge">
<title>Node1&#45;&gt;Node10</title>
<path fill="none" stroke="midnightblue" d="M155.1,-101.9C163.56,-100.51 172.22,-99.09 180.79,-97.69"/>
<polygon fill="midnightblue" stroke="midnightblue" points="181.49,-101.12 190.79,-96.05 180.36,-94.21 181.49,-101.12"/>
</g>
<!-- Node3 -->
<g id="node3" class="node">
<title>Node3</title>
<g id="a_node3"><a xlink:href="../../d0/dd9/classjavolution_1_1util_1_1internal_1_1table_1_1FractalTableImpl.html#afb7c67513eecf10757bfd0fde7c6a0a0" target="_top" xlink:title=" ">
<polygon fill="white" stroke="black" points="955,-61.46 955,-91.46 1135,-91.46 1135,-61.46 955,-61.46"/>
<text text-anchor="start" x="963" y="-79.46" font-family="Helvetica,sans-Serif" font-size="10.00">javolution.util.internal.table.</text>
<text text-anchor="middle" x="1045" y="-68.46" font-family="Helvetica,sans-Serif" font-size="10.00">FractalTableImpl.FractalTableImpl</text>
</a>
</g>
</g>
<!-- Node2&#45;&gt;Node3 -->
<g id="edge2" class="edge">
<title>Node2&#45;&gt;Node3</title>
<path fill="none" stroke="midnightblue" d="M537.06,-131.89C628.34,-128.15 785.35,-119.57 919,-101.46 934.47,-99.37 950.91,-96.53 966.6,-93.52"/>
<polygon fill="midnightblue" stroke="midnightblue" points="967.65,-96.88 976.79,-91.52 966.31,-90.01 967.65,-96.88"/>
</g>
<!-- Node5 -->
<g id="node5" class="node">
<title>Node5</title>
<g id="a_node5"><a xlink:href="../../d8/d86/classjavolution_1_1util_1_1internal_1_1table_1_1TableView.html#a0879bdae86718d45952dc02671673e57" target="_top" xlink:title=" ">
<polygon fill="white" stroke="black" points="382,-174.46 382,-204.46 537,-204.46 537,-174.46 382,-174.46"/>
<text text-anchor="start" x="390" y="-192.46" font-family="Helvetica,sans-Serif" font-size="10.00">javolution.util.internal.table.</text>
<text text-anchor="middle" x="459.5" y="-181.46" font-family="Helvetica,sans-Serif" font-size="10.00">TableView.size</text>
</a>
</g>
</g>
<!-- Node4&#45;&gt;Node5 -->
<g id="edge4" class="edge">
<title>Node4&#45;&gt;Node5</title>
<path fill="none" stroke="midnightblue" d="M346.1,-189.46C354.56,-189.46 363.22,-189.46 371.79,-189.46"/>
<polygon fill="midnightblue" stroke="midnightblue" points="371.79,-192.96 381.79,-189.46 371.79,-185.96 371.79,-192.96"/>
</g>
<!-- Node6&#45;&gt;Node6 -->
<g id="edge13" class="edge">
<title>Node6&#45;&gt;Node6</title>
<path fill="none" stroke="midnightblue" d="M235.39,-31.62C227.4,-41.02 238.44,-49.96 268.5,-49.96 286.82,-49.96 298.07,-46.64 302.26,-41.92"/>
<polygon fill="midnightblue" stroke="midnightblue" points="305.73,-41.38 301.61,-31.62 298.75,-41.82 305.73,-41.38"/>
</g>
<!-- Node7 -->
<g id="node7" class="node">
<title>Node7</title>
<g id="a_node7"><a xlink:href="../../d0/dd9/classjavolution_1_1util_1_1internal_1_1table_1_1FractalTableImpl.html#ade85a910199ccbb9e60804b6b7a68b13" target="_top" xlink:title=" ">
<polygon fill="white" stroke="black" points="573,-17.46 573,-47.46 728,-47.46 728,-17.46 573,-17.46"/>
<text text-anchor="start" x="581" y="-35.46" font-family="Helvetica,sans-Serif" font-size="10.00">javolution.util.internal.table.</text>
<text text-anchor="middle" x="650.5" y="-24.46" font-family="Helvetica,sans-Serif" font-size="10.00">FractalTableImpl.F</text>
</a>
</g>
</g>
<!-- Node6&#45;&gt;Node7 -->
<g id="edge6" class="edge">
<title>Node6&#45;&gt;Node7</title>
<path fill="none" stroke="midnightblue" d="M346.15,-6.28C399.77,-0.8 472.98,3.38 537,-4.46 554.54,-6.61 573.27,-10.58 590.32,-14.87"/>
<polygon fill="midnightblue" stroke="midnightblue" points="589.59,-18.29 600.15,-17.42 591.35,-11.52 589.59,-18.29"/>
</g>
<!-- Node9 -->
<g id="node9" class="node">
<title>Node9</title>
<g id="a_node9"><a xlink:href="../../d0/dd9/classjavolution_1_1util_1_1internal_1_1table_1_1FractalTableImpl.html#a3fcca6fb9b975132778bfc13b304308b" target="_top" xlink:title=" ">
<polygon fill="white" stroke="black" points="382,-13.46 382,-43.46 537,-43.46 537,-13.46 382,-13.46"/>
<text text-anchor="start" x="390" y="-31.46" font-family="Helvetica,sans-Serif" font-size="10.00">javolution.util.internal.table.</text>
<text text-anchor="middle" x="459.5" y="-20.46" font-family="Helvetica,sans-Serif" font-size="10.00">FractalTableImpl.set</text>
</a>
</g>
</g>
<!-- Node6&#45;&gt;Node9 -->
<g id="edge10" class="edge">
<title>Node6&#45;&gt;Node9</title>
<path fill="none" stroke="midnightblue" d="M346.1,-21.33C354.56,-21.87 363.22,-22.41 371.79,-22.96"/>
<polygon fill="midnightblue" stroke="midnightblue" points="371.59,-26.45 381.79,-23.59 372.03,-19.47 371.59,-26.45"/>
</g>
<!-- Node7&#45;&gt;Node3 -->
<g id="edge9" class="edge">
<title>Node7&#45;&gt;Node3</title>
<path fill="none" stroke="midnightblue" d="M728.13,-35.85C781.75,-38.79 854.95,-43.95 919,-52.46 933.42,-54.38 948.68,-56.9 963.41,-59.58"/>
<polygon fill="midnightblue" stroke="midnightblue" points="963.03,-63.07 973.5,-61.46 964.31,-56.19 963.03,-63.07"/>
</g>
<!-- Node8 -->
<g id="node8" class="node">
<title>Node8</title>
<g id="a_node8"><a xlink:href="../../d0/dd9/classjavolution_1_1util_1_1internal_1_1table_1_1FractalTableImpl.html#a75450af34f8dbb7210888bdc874f424c" target="_top" xlink:title=" ">
<polygon fill="white" stroke="black" points="764,-61.46 764,-91.46 919,-91.46 919,-61.46 764,-61.46"/>
<text text-anchor="start" x="772" y="-79.46" font-family="Helvetica,sans-Serif" font-size="10.00">javolution.util.internal.table.</text>
<text text-anchor="middle" x="841.5" y="-68.46" font-family="Helvetica,sans-Serif" font-size="10.00">FractalTableImpl.allocate</text>
</a>
</g>
</g>
<!-- Node7&#45;&gt;Node8 -->
<g id="edge7" class="edge">
<title>Node7&#45;&gt;Node8</title>
<path fill="none" stroke="midnightblue" d="M716.01,-47.48C732.04,-51.22 749.36,-55.25 765.83,-59.08"/>
<polygon fill="midnightblue" stroke="midnightblue" points="765.42,-62.58 775.96,-61.44 767.01,-55.76 765.42,-62.58"/>
</g>
<!-- Node8&#45;&gt;Node3 -->
<g id="edge8" class="edge">
<title>Node8&#45;&gt;Node3</title>
<path fill="none" stroke="midnightblue" d="M919.25,-76.46C927.65,-76.46 936.28,-76.46 944.89,-76.46"/>
<polygon fill="midnightblue" stroke="midnightblue" points="944.98,-79.96 954.98,-76.46 944.98,-72.96 944.98,-79.96"/>
</g>
<!-- Node9&#45;&gt;Node7 -->
<g id="edge11" class="edge">
<title>Node9&#45;&gt;Node7</title>
<path fill="none" stroke="midnightblue" d="M537.1,-30.09C545.56,-30.26 554.22,-30.45 562.79,-30.63"/>
<polygon fill="midnightblue" stroke="midnightblue" points="562.72,-34.13 572.79,-30.84 562.87,-27.13 562.72,-34.13"/>
</g>
<!-- Node9&#45;&gt;Node9 -->
<g id="edge12" class="edge">
<title>Node9&#45;&gt;Node9</title>
<path fill="none" stroke="midnightblue" d="M426.39,-43.62C418.4,-53.02 429.44,-61.96 459.5,-61.96 477.82,-61.96 489.07,-58.64 493.26,-53.92"/>
<polygon fill="midnightblue" stroke="midnightblue" points="496.73,-53.38 492.61,-43.62 489.75,-53.82 496.73,-53.38"/>
</g>
<!-- Node10&#45;&gt;Node2 -->
<g id="edge16" class="edge">
<title>Node10&#45;&gt;Node2</title>
<path fill="none" stroke="midnightblue" d="M325.18,-98.49C346.53,-104.25 371.06,-110.87 393.22,-116.85"/>
<polygon fill="midnightblue" stroke="midnightblue" points="392.32,-120.23 402.89,-119.46 394.14,-113.47 392.32,-120.23"/>
</g>
<!-- Node10&#45;&gt;Node7 -->
<g id="edge15" class="edge">
<title>Node10&#45;&gt;Node7</title>
<path fill="none" stroke="midnightblue" d="M346.28,-85.85C400.13,-86.11 473.54,-83.62 537,-71.46 560.05,-67.05 584.78,-58.88 605.16,-51.16"/>
<polygon fill="midnightblue" stroke="midnightblue" points="606.44,-54.42 614.5,-47.54 603.91,-47.89 606.44,-54.42"/>
</g>
<!-- Node10&#45;&gt;Node9 -->
<g id="edge17" class="edge">
<title>Node10&#45;&gt;Node9</title>
<path fill="none" stroke="midnightblue" d="M321.15,-68.44C344.58,-61.61 372.49,-53.5 397,-46.36"/>
<polygon fill="midnightblue" stroke="midnightblue" points="398.29,-49.63 406.92,-43.48 396.34,-42.91 398.29,-49.63"/>
</g>
<!-- Node10&#45;&gt;Node10 -->
<g id="edge18" class="edge">
<title>Node10&#45;&gt;Node10</title>
<path fill="none" stroke="midnightblue" d="M235.39,-98.62C227.4,-108.02 238.44,-116.96 268.5,-116.96 286.82,-116.96 298.07,-113.64 302.26,-108.92"/>
<polygon fill="midnightblue" stroke="midnightblue" points="305.73,-108.38 301.61,-98.62 298.75,-108.82 305.73,-108.38"/>
</g>
</g>
</svg>
        <g id="navigator" transform="translate(0 0)" fill="#404254">
                <rect fill="#f2f5e9" fill-opacity="0.5" stroke="#606060" stroke-width=".5" x="0" y="0" width="60" height="60"/>
                <use id="zoomplus" xlink:href="#zoomPlus" x="17" y="9" onmousedown="handleZoom(evt,'in')"/>
                <use id="zoomminus" xlink:href="#zoomMin" x="42" y="9" onmousedown="handleZoom(evt,'out')"/>
                <use id="reset" xlink:href="#resetDef" x="30" y="36" onmousedown="handleReset()"/>
                <g id="arrowUp" xlink:href="#dirArrow" transform="translate(30 24)" onmousedown="handlePan(0,-1)">
                  <use xlink:href="#rim" fill="#404040">
                        <set attributeName="fill" to="#808080" begin="arrowUp.mouseover" end="arrowUp.mouseout"/>
                  </use>
                  <path fill="none" stroke="white" stroke-width="1.5" d="M0,-3.0v7 M-2.5,-0.5L0,-3.0L2.5,-0.5"/>
                </g>
                <g id="arrowRight" xlink:href="#dirArrow" transform="rotate(90) translate(36 -43)" onmousedown="handlePan(1,0)">
                  <use xlink:href="#rim" fill="#404040">
                        <set attributeName="fill" to="#808080" begin="arrowRight.mouseover" end="arrowRight.mouseout"/>
                  </use>
                  <path fill="none" stroke="white" stroke-width="1.5" d="M0,-3.0v7 M-2.5,-0.5L0,-3.0L2.5,-0.5"/>
                </g>
                <g id="arrowDown" xlink:href="#dirArrow" transform="rotate(180) translate(-30 -48)" onmousedown="handlePan(0,1)">
                  <use xlink:href="#rim" fill="#404040">
                        <set attributeName="fill" to="#808080" begin="arrowDown.mouseover" end="arrowDown.mouseout"/>
                  </use>
                  <path fill="none" stroke="white" stroke-width="1.5" d="M0,-3.0v7 M-2.5,-0.5L0,-3.0L2.5,-0.5"/>
                </g>
                <g id="arrowLeft" xlink:href="#dirArrow" transform="rotate(270) translate(-36 17)" onmousedown="handlePan(-1,0)">
                  <use xlink:href="#rim" fill="#404040">
                        <set attributeName="fill" to="#808080" begin="arrowLeft.mouseover" end="arrowLeft.mouseout"/>
                  </use>
                  <path fill="none" stroke="white" stroke-width="1.5" d="M0,-3.0v7 M-2.5,-0.5L0,-3.0L2.5,-0.5"/>
                </g>
        </g>
        <svg viewBox="0 0 15 15" width="100%" height="30px" preserveAspectRatio="xMaxYMin meet">
         <g id="arrow_out" transform="scale(0.3 0.3)">
          <a xlink:href="classjavolution_1_1util_1_1internal_1_1table_1_1FastTableImpl_a6ca79dd7969c936ae1dbdc778f00a4d2_cgraph_org.svg" target="_base">
           <rect id="button" ry="5" rx="5" y="6" x="6" height="38" width="38"
                fill="#f2f5e9" fill-opacity="0.5" stroke="#606060" stroke-width="1.0"/>
           <path id="arrow"
             d="M 11.500037,31.436501 C 11.940474,20.09759 22.043105,11.32322 32.158766,21.979434 L 37.068811,17.246167 C 37.068811,17.246167 37.088388,32 37.088388,32 L 22.160133,31.978069 C 22.160133,31.978069 26.997745,27.140456 26.997745,27.140456 C 18.528582,18.264221 13.291696,25.230495 11.500037,31.436501 z"
             style="fill:#404040;"/>
          </a>
         </g>
        </svg>
</svg>
