<?xml version="1.0" encoding="UTF-8" standalone="no"?>
<!DOCTYPE svg PUBLIC "-//W3C//DTD SVG 1.1//EN"
 "http://www.w3.org/Graphics/SVG/1.1/DTD/svg11.dtd">
<!-- Generated by graphviz version 2.43.0 (0)
 -->
<!-- Title: javolution.util.internal.table.FastTableImpl.set Pages: 1 -->
<!--zoomable 164 -->
<svg id="main" version="1.1" xmlns="http://www.w3.org/2000/svg" xmlns:xlink="http://www.w3.org/1999/xlink" xml:space="preserve" onload="init(evt)">
<style type="text/css"><![CDATA[
.edge:hover path { stroke: red; }
.edge:hover polygon { stroke: red; fill: red; }
]]></style>
<script type="text/javascript"><![CDATA[
var edges = document.getElementsByTagName('g');
if (edges && edges.length) {
  for (var i=0;i<edges.length;i++) {
    if (edges[i].id.substr(0,4)=='edge') {
      edges[i].setAttribute('class','edge');
    }
  }
}
]]></script>
        <defs>
                <circle id="rim" cx="0" cy="0" r="7"/>
                <circle id="rim2" cx="0" cy="0" r="3.5"/>
                <g id="zoomPlus">
                        <use xlink:href="#rim" fill="#404040">
                                <set attributeName="fill" to="#808080" begin="zoomplus.mouseover" end="zoomplus.mouseout"/>
                        </use>
                        <path d="M-4,0h8M0,-4v8" fill="none" stroke="white" stroke-width="1.5" pointer-events="none"/>
                </g>
                <g id="zoomMin">
                        <use xlink:href="#rim" fill="#404040">
                                <set attributeName="fill" to="#808080" begin="zoomminus.mouseover" end="zoomminus.mouseout"/>
                        </use>
                        <path d="M-4,0h8" fill="none" stroke="white" stroke-width="1.5" pointer-events="none"/>
                </g>
                <g id="dirArrow">
                        <path fill="none" stroke="white" stroke-width="1.5" d="M0,-3.0v7 M-2.5,-0.5L0,-3.0L2.5,-0.5"/>
                </g>
               <g id="resetDef">
                       <use xlink:href="#rim2" fill="#404040">
                               <set attributeName="fill" to="#808080" begin="reset.mouseover" end="reset.mouseout"/>
                       </use>
               </g>
        </defs>

<script type="text/javascript">
var viewWidth = 952;
var viewHeight = 164;
var sectionId = 'dynsection-60';
</script>
<script xlink:href="../../svgpan.js"/>
<svg id="graph" class="graph">
<g id="viewport">
<title>javolution.util.internal.table.FastTableImpl.set</title>
<polygon fill="white" stroke="transparent" points="-4,4 -4,-160 948,-160 948,4 -4,4"/>
<!-- Node1 -->
<g id="node1" class="node">
<title>Node1</title>
<g id="a_node1"><a xlink:title=" ">
<polygon fill="#bfbfbf" stroke="black" points="0,-78.5 0,-108.5 155,-108.5 155,-78.5 0,-78.5"/>
<text text-anchor="start" x="8" y="-96.5" font-family="Helvetica,sans-Serif" font-size="10.00">javolution.util.internal.table.</text>
<text text-anchor="middle" x="77.5" y="-85.5" font-family="Helvetica,sans-Serif" font-size="10.00">FastTableImpl.set</text>
</a>
</g>
</g>
<!-- Node2 -->
<g id="node2" class="node">
<title>Node2</title>
<g id="a_node2"><a xlink:href="../../d8/d86/classjavolution_1_1util_1_1internal_1_1table_1_1TableView.html#a69e7425b9e4c16f94a60ffdce48ef118" target="_top" xlink:title=" ">
<polygon fill="white" stroke="black" points="191,-124.5 191,-154.5 346,-154.5 346,-124.5 191,-124.5"/>
<text text-anchor="start" x="199" y="-142.5" font-family="Helvetica,sans-Serif" font-size="10.00">javolution.util.internal.table.</text>
<text text-anchor="middle" x="268.5" y="-131.5" font-family="Helvetica,sans-Serif" font-size="10.00">TableView.element</text>
</a>
</g>
</g>
<!-- Node1&#45;&gt;Node2 -->
<g id="edge1" class="edge">
<title>Node1&#45;&gt;Node2</title>
<path fill="none" stroke="midnightblue" d="M140.39,-108.56C158.18,-112.89 177.73,-117.65 196.06,-122.11"/>
<polygon fill="midnightblue" stroke="midnightblue" points="195.25,-125.52 205.8,-124.48 196.91,-118.72 195.25,-125.52"/>
</g>
<!-- Node6 -->
<g id="node6" class="node">
<title>Node6</title>
<g id="a_node6"><a xlink:href="../../d8/d86/classjavolution_1_1util_1_1internal_1_1table_1_1TableView.html#a52cb740436aa95a6b9f3733ce6962061" target="_top" xlink:title=" ">
<polygon fill="white" stroke="black" points="382,-76.5 382,-106.5 537,-106.5 537,-76.5 382,-76.5"/>
<text text-anchor="start" x="390" y="-94.5" font-family="Helvetica,sans-Serif" font-size="10.00">javolution.util.internal.table.</text>
<text text-anchor="middle" x="459.5" y="-83.5" font-family="Helvetica,sans-Serif" font-size="10.00">TableView.indexError</text>
</a>
</g>
</g>
<!-- Node1&#45;&gt;Node6 -->
<g id="edge5" class="edge">
<title>Node1&#45;&gt;Node6</title>
<path fill="none" stroke="midnightblue" d="M155.4,-93.1C217.98,-92.77 306.3,-92.3 371.46,-91.96"/>
<polygon fill="midnightblue" stroke="midnightblue" points="371.73,-95.46 381.72,-91.9 371.7,-88.46 371.73,-95.46"/>
</g>
<!-- Node7 -->
<g id="node7" class="node">
<title>Node7</title>
<g id="a_node7"><a xlink:href="../../d0/dd9/classjavolution_1_1util_1_1internal_1_1table_1_1FractalTableImpl.html#a3fcca6fb9b975132778bfc13b304308b" target="_top" xlink:title=" ">
<polygon fill="white" stroke="black" points="191,-16.5 191,-46.5 346,-46.5 346,-16.5 191,-16.5"/>
<text text-anchor="start" x="199" y="-34.5" font-family="Helvetica,sans-Serif" font-size="10.00">javolution.util.internal.table.</text>
<text text-anchor="middle" x="268.5" y="-23.5" font-family="Helvetica,sans-Serif" font-size="10.00">FractalTableImpl.set</text>
</a>
</g>
</g>
<!-- Node1&#45;&gt;Node7 -->
<g id="edge7" class="edge">
<title>Node1&#45;&gt;Node7</title>
<path fill="none" stroke="midnightblue" d="M124.25,-78.49C150.64,-69.84 184.01,-58.89 211.9,-49.74"/>
<polygon fill="midnightblue" stroke="midnightblue" points="213.1,-53.03 221.51,-46.59 210.92,-46.38 213.1,-53.03"/>
</g>
<!-- Node3 -->
<g id="node3" class="node">
<title>Node3</title>
<g id="a_node3"><a xlink:href="../../d8/d86/classjavolution_1_1util_1_1internal_1_1table_1_1TableView.html#a771eeb8439c2be68d63ad450e50eeca4" target="_top" xlink:title=" ">
<polygon fill="white" stroke="black" points="382,-125.5 382,-155.5 537,-155.5 537,-125.5 382,-125.5"/>
<text text-anchor="start" x="390" y="-143.5" font-family="Helvetica,sans-Serif" font-size="10.00">javolution.util.internal.table.</text>
<text text-anchor="middle" x="459.5" y="-132.5" font-family="Helvetica,sans-Serif" font-size="10.00">TableView.getFirst</text>
</a>
</g>
</g>
<!-- Node2&#45;&gt;Node3 -->
<g id="edge2" class="edge">
<title>Node2&#45;&gt;Node3</title>
<path fill="none" stroke="midnightblue" d="M346.1,-139.91C354.56,-139.95 363.22,-140 371.79,-140.04"/>
<polygon fill="midnightblue" stroke="midnightblue" points="371.77,-143.54 381.79,-140.09 371.81,-136.54 371.77,-143.54"/>
</g>
<!-- Node4 -->
<g id="node4" class="node">
<title>Node4</title>
<g id="a_node4"><a xlink:href="../../d8/d86/classjavolution_1_1util_1_1internal_1_1table_1_1TableView.html#a40823a9bd3a29acd5896306e62a335d0" target="_top" xlink:title=" ">
<polygon fill="white" stroke="black" points="573,-125.5 573,-155.5 728,-155.5 728,-125.5 573,-125.5"/>
<text text-anchor="start" x="581" y="-143.5" font-family="Helvetica,sans-Serif" font-size="10.00">javolution.util.internal.table.</text>
<text text-anchor="middle" x="650.5" y="-132.5" font-family="Helvetica,sans-Serif" font-size="10.00">TableView.emptyError</text>
</a>
</g>
</g>
<!-- Node3&#45;&gt;Node4 -->
<g id="edge3" class="edge">
<title>Node3&#45;&gt;Node4</title>
<path fill="none" stroke="midnightblue" d="M537.1,-140.5C545.56,-140.5 554.22,-140.5 562.79,-140.5"/>
<polygon fill="midnightblue" stroke="midnightblue" points="562.79,-144 572.79,-140.5 562.79,-137 562.79,-144"/>
</g>
<!-- Node5 -->
<g id="node5" class="node">
<title>Node5</title>
<g id="a_node5"><a xlink:href="../../d8/d86/classjavolution_1_1util_1_1internal_1_1table_1_1TableView.html#a0879bdae86718d45952dc02671673e57" target="_top" xlink:title=" ">
<polygon fill="white" stroke="black" points="573,-76.5 573,-106.5 728,-106.5 728,-76.5 573,-76.5"/>
<text text-anchor="start" x="581" y="-94.5" font-family="Helvetica,sans-Serif" font-size="10.00">javolution.util.internal.table.</text>
<text text-anchor="middle" x="650.5" y="-83.5" font-family="Helvetica,sans-Serif" font-size="10.00">TableView.size</text>
</a>
</g>
</g>
<!-- Node3&#45;&gt;Node5 -->
<g id="edge4" class="edge">
<title>Node3&#45;&gt;Node5</title>
<path fill="none" stroke="midnightblue" d="M518.49,-125.47C538.54,-120.27 561.17,-114.4 581.92,-109.02"/>
<polygon fill="midnightblue" stroke="midnightblue" points="582.82,-112.4 591.62,-106.51 581.06,-105.63 582.82,-112.4"/>
</g>
<!-- Node6&#45;&gt;Node5 -->
<g id="edge6" class="edge">
<title>Node6&#45;&gt;Node5</title>
<path fill="none" stroke="midnightblue" d="M537.1,-91.5C545.56,-91.5 554.22,-91.5 562.79,-91.5"/>
<polygon fill="midnightblue" stroke="midnightblue" points="562.79,-95 572.79,-91.5 562.79,-88 562.79,-95"/>
</g>
<!-- Node7&#45;&gt;Node7 -->
<g id="edge12" class="edge">
<title>Node7&#45;&gt;Node7</title>
<path fill="none" stroke="midnightblue" d="M235.39,-46.66C227.4,-56.06 238.44,-65 268.5,-65 286.82,-65 298.07,-61.68 302.26,-56.96"/>
<polygon fill="midnightblue" stroke="midnightblue" points="305.73,-56.42 301.61,-46.66 298.75,-56.86 305.73,-56.42"/>
</g>
<!-- Node8 -->
<g id="node8" class="node">
<title>Node8</title>
<g id="a_node8"><a xlink:href="../../d0/dd9/classjavolution_1_1util_1_1internal_1_1table_1_1FractalTableImpl.html#ade85a910199ccbb9e60804b6b7a68b13" target="_top" xlink:title=" ">
<polygon fill="white" stroke="black" points="382,-16.5 382,-46.5 537,-46.5 537,-16.5 382,-16.5"/>
<text text-anchor="start" x="390" y="-34.5" font-family="Helvetica,sans-Serif" font-size="10.00">javolution.util.internal.table.</text>
<text text-anchor="middle" x="459.5" y="-23.5" font-family="Helvetica,sans-Serif" font-size="10.00">FractalTableImpl.F</text>
</a>
</g>
</g>
<!-- Node7&#45;&gt;Node8 -->
<g id="edge8" class="edge">
<title>Node7&#45;&gt;Node8</title>
<path fill="none" stroke="midnightblue" d="M346.1,-31.5C354.56,-31.5 363.22,-31.5 371.79,-31.5"/>
<polygon fill="midnightblue" stroke="midnightblue" points="371.79,-35 381.79,-31.5 371.79,-28 371.79,-35"/>
</g>
<!-- Node9 -->
<g id="node9" class="node">
<title>Node9</title>
<g id="a_node9"><a xlink:href="../../d0/dd9/classjavolution_1_1util_1_1internal_1_1table_1_1FractalTableImpl.html#a75450af34f8dbb7210888bdc874f424c" target="_top" xlink:title=" ">
<polygon fill="white" stroke="black" points="573,-22.5 573,-52.5 728,-52.5 728,-22.5 573,-22.5"/>
<text text-anchor="start" x="581" y="-40.5" font-family="Helvetica,sans-Serif" font-size="10.00">javolution.util.internal.table.</text>
<text text-anchor="middle" x="650.5" y="-29.5" font-family="Helvetica,sans-Serif" font-size="10.00">FractalTableImpl.allocate</text>
</a>
</g>
</g>
<!-- Node8&#45;&gt;Node9 -->
<g id="edge9" class="edge">
<title>Node8&#45;&gt;Node9</title>
<path fill="none" stroke="midnightblue" d="M537.1,-33.93C545.56,-34.2 554.22,-34.48 562.79,-34.75"/>
<polygon fill="midnightblue" stroke="midnightblue" points="562.68,-38.25 572.79,-35.06 562.91,-31.25 562.68,-38.25"/>
</g>
<!-- Node10 -->
<g id="node10" class="node">
<title>Node10</title>
<g id="a_node10"><a xlink:href="../../d0/dd9/classjavolution_1_1util_1_1internal_1_1table_1_1FractalTableImpl.html#afb7c67513eecf10757bfd0fde7c6a0a0" target="_top" xlink:title=" ">
<polygon fill="white" stroke="black" points="764,-0.5 764,-30.5 944,-30.5 944,-0.5 764,-0.5"/>
<text text-anchor="start" x="772" y="-18.5" font-family="Helvetica,sans-Serif" font-size="10.00">javolution.util.internal.table.</text>
<text text-anchor="middle" x="854" y="-7.5" font-family="Helvetica,sans-Serif" font-size="10.00">FractalTableImpl.FractalTableImpl</text>
</a>
</g>
</g>
<!-- Node8&#45;&gt;Node10 -->
<g id="edge11" class="edge">
<title>Node8&#45;&gt;Node10</title>
<path fill="none" stroke="midnightblue" d="M537.14,-16.8C549.1,-15.01 561.35,-13.48 573,-12.5 632.85,-7.48 700.14,-8.01 753.75,-9.89"/>
<polygon fill="midnightblue" stroke="midnightblue" points="753.82,-13.4 763.94,-10.27 754.08,-6.4 753.82,-13.4"/>
</g>
<!-- Node9&#45;&gt;Node10 -->
<g id="edge10" class="edge">
<title>Node9&#45;&gt;Node10</title>
<path fill="none" stroke="midnightblue" d="M728.25,-29.12C736.65,-28.2 745.28,-27.26 753.89,-26.32"/>
<polygon fill="midnightblue" stroke="midnightblue" points="754.42,-29.78 763.98,-25.22 753.66,-22.83 754.42,-29.78"/>
</g>
</g>
</svg>
        <g id="navigator" transform="translate(0 0)" fill="#404254">
                <rect fill="#f2f5e9" fill-opacity="0.5" stroke="#606060" stroke-width=".5" x="0" y="0" width="60" height="60"/>
                <use id="zoomplus" xlink:href="#zoomPlus" x="17" y="9" onmousedown="handleZoom(evt,'in')"/>
                <use id="zoomminus" xlink:href="#zoomMin" x="42" y="9" onmousedown="handleZoom(evt,'out')"/>
                <use id="reset" xlink:href="#resetDef" x="30" y="36" onmousedown="handleReset()"/>
                <g id="arrowUp" xlink:href="#dirArrow" transform="translate(30 24)" onmousedown="handlePan(0,-1)">
                  <use xlink:href="#rim" fill="#404040">
                        <set attributeName="fill" to="#808080" begin="arrowUp.mouseover" end="arrowUp.mouseout"/>
                  </use>
                  <path fill="none" stroke="white" stroke-width="1.5" d="M0,-3.0v7 M-2.5,-0.5L0,-3.0L2.5,-0.5"/>
                </g>
                <g id="arrowRight" xlink:href="#dirArrow" transform="rotate(90) translate(36 -43)" onmousedown="handlePan(1,0)">
                  <use xlink:href="#rim" fill="#404040">
                        <set attributeName="fill" to="#808080" begin="arrowRight.mouseover" end="arrowRight.mouseout"/>
                  </use>
                  <path fill="none" stroke="white" stroke-width="1.5" d="M0,-3.0v7 M-2.5,-0.5L0,-3.0L2.5,-0.5"/>
                </g>
                <g id="arrowDown" xlink:href="#dirArrow" transform="rotate(180) translate(-30 -48)" onmousedown="handlePan(0,1)">
                  <use xlink:href="#rim" fill="#404040">
                        <set attributeName="fill" to="#808080" begin="arrowDown.mouseover" end="arrowDown.mouseout"/>
                  </use>
                  <path fill="none" stroke="white" stroke-width="1.5" d="M0,-3.0v7 M-2.5,-0.5L0,-3.0L2.5,-0.5"/>
                </g>
                <g id="arrowLeft" xlink:href="#dirArrow" transform="rotate(270) translate(-36 17)" onmousedown="handlePan(-1,0)">
                  <use xlink:href="#rim" fill="#404040">
                        <set attributeName="fill" to="#808080" begin="arrowLeft.mouseover" end="arrowLeft.mouseout"/>
                  </use>
                  <path fill="none" stroke="white" stroke-width="1.5" d="M0,-3.0v7 M-2.5,-0.5L0,-3.0L2.5,-0.5"/>
                </g>
        </g>
        <svg viewBox="0 0 15 15" width="100%" height="30px" preserveAspectRatio="xMaxYMin meet">
         <g id="arrow_out" transform="scale(0.3 0.3)">
          <a xlink:href="classjavolution_1_1util_1_1internal_1_1table_1_1FastTableImpl_a97c8a1a0a296c16b45dd3a73fe28fa01_cgraph_org.svg" target="_base">
           <rect id="button" ry="5" rx="5" y="6" x="6" height="38" width="38"
                fill="#f2f5e9" fill-opacity="0.5" stroke="#606060" stroke-width="1.0"/>
           <path id="arrow"
             d="M 11.500037,31.436501 C 11.940474,20.09759 22.043105,11.32322 32.158766,21.979434 L 37.068811,17.246167 C 37.068811,17.246167 37.088388,32 37.088388,32 L 22.160133,31.978069 C 22.160133,31.978069 26.997745,27.140456 26.997745,27.140456 C 18.528582,18.264221 13.291696,25.230495 11.500037,31.436501 z"
             style="fill:#404040;"/>
          </a>
         </g>
        </svg>
</svg>
