<?xml version="1.0" encoding="UTF-8" standalone="no"?>
<!DOCTYPE svg PUBLIC "-//W3C//DTD SVG 1.1//EN"
 "http://www.w3.org/Graphics/SVG/1.1/DTD/svg11.dtd">
<!-- Generated by graphviz version 2.43.0 (0)
 -->
<!-- Title: javolution.util.internal.table.FastTableImpl.add Pages: 1 -->
<!--zoomable 237 -->
<svg id="main" version="1.1" xmlns="http://www.w3.org/2000/svg" xmlns:xlink="http://www.w3.org/1999/xlink" xml:space="preserve" onload="init(evt)">
<style type="text/css"><![CDATA[
.edge:hover path { stroke: red; }
.edge:hover polygon { stroke: red; fill: red; }
]]></style>
<script type="text/javascript"><![CDATA[
var edges = document.getElementsByTagName('g');
if (edges && edges.length) {
  for (var i=0;i<edges.length;i++) {
    if (edges[i].id.substr(0,4)=='edge') {
      edges[i].setAttribute('class','edge');
    }
  }
}
]]></script>
        <defs>
                <circle id="rim" cx="0" cy="0" r="7"/>
                <circle id="rim2" cx="0" cy="0" r="3.5"/>
                <g id="zoomPlus">
                        <use xlink:href="#rim" fill="#404040">
                                <set attributeName="fill" to="#808080" begin="zoomplus.mouseover" end="zoomplus.mouseout"/>
                        </use>
                        <path d="M-4,0h8M0,-4v8" fill="none" stroke="white" stroke-width="1.5" pointer-events="none"/>
                </g>
                <g id="zoomMin">
                        <use xlink:href="#rim" fill="#404040">
                                <set attributeName="fill" to="#808080" begin="zoomminus.mouseover" end="zoomminus.mouseout"/>
                        </use>
                        <path d="M-4,0h8" fill="none" stroke="white" stroke-width="1.5" pointer-events="none"/>
                </g>
                <g id="dirArrow">
                        <path fill="none" stroke="white" stroke-width="1.5" d="M0,-3.0v7 M-2.5,-0.5L0,-3.0L2.5,-0.5"/>
                </g>
               <g id="resetDef">
                       <use xlink:href="#rim2" fill="#404040">
                               <set attributeName="fill" to="#808080" begin="reset.mouseover" end="reset.mouseout"/>
                       </use>
               </g>
        </defs>

<script type="text/javascript">
var viewWidth = 1525;
var viewHeight = 237;
var sectionId = 'dynsection-2';
</script>
<script xlink:href="../../svgpan.js"/>
<svg id="graph" class="graph">
<g id="viewport">
<title>javolution.util.internal.table.FastTableImpl.add</title>
<polygon fill="white" stroke="transparent" points="-4,4 -4,-233 1521,-233 1521,4 -4,4"/>
<!-- Node1 -->
<g id="node1" class="node">
<title>Node1</title>
<g id="a_node1"><a xlink:title=" ">
<polygon fill="#bfbfbf" stroke="black" points="0,-84.5 0,-114.5 155,-114.5 155,-84.5 0,-84.5"/>
<text text-anchor="start" x="8" y="-102.5" font-family="Helvetica,sans-Serif" font-size="10.00">javolution.util.internal.table.</text>
<text text-anchor="middle" x="77.5" y="-91.5" font-family="Helvetica,sans-Serif" font-size="10.00">FastTableImpl.add</text>
</a>
</g>
</g>
<!-- Node2 -->
<g id="node2" class="node">
<title>Node2</title>
<g id="a_node2"><a xlink:href="../../d9/d7a/classjavolution_1_1util_1_1internal_1_1table_1_1FastTableImpl.html#aaba641e6bd1d2d0cfb35e58043ff8495" target="_top" xlink:title=" ">
<polygon fill="white" stroke="black" points="191,-107.5 191,-137.5 346,-137.5 346,-107.5 191,-107.5"/>
<text text-anchor="start" x="199" y="-125.5" font-family="Helvetica,sans-Serif" font-size="10.00">javolution.util.internal.table.</text>
<text text-anchor="middle" x="268.5" y="-114.5" font-family="Helvetica,sans-Serif" font-size="10.00">FastTableImpl.addLast</text>
</a>
</g>
</g>
<!-- Node1&#45;&gt;Node2 -->
<g id="edge1" class="edge">
<title>Node1&#45;&gt;Node2</title>
<path fill="none" stroke="midnightblue" d="M155.1,-108.82C163.56,-109.85 172.22,-110.9 180.79,-111.95"/>
<polygon fill="midnightblue" stroke="midnightblue" points="180.44,-115.43 190.79,-113.16 181.29,-108.48 180.44,-115.43"/>
</g>
<!-- Node12 -->
<g id="node12" class="node">
<title>Node12</title>
<g id="a_node12"><a xlink:href="../../d8/d86/classjavolution_1_1util_1_1internal_1_1table_1_1TableView.html#a69e7425b9e4c16f94a60ffdce48ef118" target="_top" xlink:title=" ">
<polygon fill="white" stroke="black" points="382,-60.5 382,-90.5 537,-90.5 537,-60.5 382,-60.5"/>
<text text-anchor="start" x="390" y="-78.5" font-family="Helvetica,sans-Serif" font-size="10.00">javolution.util.internal.table.</text>
<text text-anchor="middle" x="459.5" y="-67.5" font-family="Helvetica,sans-Serif" font-size="10.00">TableView.element</text>
</a>
</g>
</g>
<!-- Node1&#45;&gt;Node12 -->
<g id="edge20" class="edge">
<title>Node1&#45;&gt;Node12</title>
<path fill="none" stroke="midnightblue" d="M155.4,-94.64C217.98,-90.69 306.3,-85.11 371.46,-81"/>
<polygon fill="midnightblue" stroke="midnightblue" points="371.96,-84.47 381.72,-80.35 371.51,-77.49 371.96,-84.47"/>
</g>
<!-- Node3 -->
<g id="node3" class="node">
<title>Node3</title>
<g id="a_node3"><a xlink:href="../../d9/d7a/classjavolution_1_1util_1_1internal_1_1table_1_1FastTableImpl.html#a56f359b38a339adb917107ce305d9cf1" target="_top" xlink:title=" ">
<polygon fill="white" stroke="black" points="382,-109.5 382,-139.5 537,-139.5 537,-109.5 382,-109.5"/>
<text text-anchor="start" x="390" y="-127.5" font-family="Helvetica,sans-Serif" font-size="10.00">javolution.util.internal.table.</text>
<text text-anchor="middle" x="459.5" y="-116.5" font-family="Helvetica,sans-Serif" font-size="10.00">FastTableImpl.checkUpsize</text>
</a>
</g>
</g>
<!-- Node2&#45;&gt;Node3 -->
<g id="edge2" class="edge">
<title>Node2&#45;&gt;Node3</title>
<path fill="none" stroke="midnightblue" d="M346.1,-123.31C354.56,-123.4 363.22,-123.49 371.79,-123.58"/>
<polygon fill="midnightblue" stroke="midnightblue" points="371.75,-127.08 381.79,-123.69 371.83,-120.08 371.75,-127.08"/>
</g>
<!-- Node2&#45;&gt;Node12 -->
<g id="edge13" class="edge">
<title>Node2&#45;&gt;Node12</title>
<path fill="none" stroke="midnightblue" d="M329.82,-107.5C348.4,-102.88 369.02,-97.75 388.22,-92.98"/>
<polygon fill="midnightblue" stroke="midnightblue" points="389.24,-96.33 398.1,-90.52 387.56,-89.54 389.24,-96.33"/>
</g>
<!-- Node16 -->
<g id="node16" class="node">
<title>Node16</title>
<g id="a_node16"><a xlink:href="../../d0/dd9/classjavolution_1_1util_1_1internal_1_1table_1_1FractalTableImpl.html#a3fcca6fb9b975132778bfc13b304308b" target="_top" xlink:title=" ">
<polygon fill="white" stroke="black" points="573,-180.5 573,-210.5 728,-210.5 728,-180.5 573,-180.5"/>
<text text-anchor="start" x="581" y="-198.5" font-family="Helvetica,sans-Serif" font-size="10.00">javolution.util.internal.table.</text>
<text text-anchor="middle" x="650.5" y="-187.5" font-family="Helvetica,sans-Serif" font-size="10.00">FractalTableImpl.set</text>
</a>
</g>
</g>
<!-- Node2&#45;&gt;Node16 -->
<g id="edge17" class="edge">
<title>Node2&#45;&gt;Node16</title>
<path fill="none" stroke="midnightblue" d="M331.85,-137.53C348.14,-141.29 365.7,-145.19 382,-148.5 442.23,-160.74 510.48,-172.7 562.96,-181.49"/>
<polygon fill="midnightblue" stroke="midnightblue" points="562.47,-184.96 572.91,-183.15 563.62,-178.06 562.47,-184.96"/>
</g>
<!-- Node4 -->
<g id="node4" class="node">
<title>Node4</title>
<g id="a_node4"><a xlink:href="../../d9/d7a/classjavolution_1_1util_1_1internal_1_1table_1_1FastTableImpl.html#a2aebcee341c5b1d2a43a676e61b20a9a" target="_top" xlink:title=" ">
<polygon fill="white" stroke="black" points="573,-109.5 573,-139.5 728,-139.5 728,-109.5 573,-109.5"/>
<text text-anchor="start" x="581" y="-127.5" font-family="Helvetica,sans-Serif" font-size="10.00">javolution.util.internal.table.</text>
<text text-anchor="middle" x="650.5" y="-116.5" font-family="Helvetica,sans-Serif" font-size="10.00">FastTableImpl.upsize</text>
</a>
</g>
</g>
<!-- Node3&#45;&gt;Node4 -->
<g id="edge3" class="edge">
<title>Node3&#45;&gt;Node4</title>
<path fill="none" stroke="midnightblue" d="M537.1,-124.5C545.56,-124.5 554.22,-124.5 562.79,-124.5"/>
<polygon fill="midnightblue" stroke="midnightblue" points="562.79,-128 572.79,-124.5 562.79,-121 562.79,-128"/>
</g>
<!-- Node5 -->
<g id="node5" class="node">
<title>Node5</title>
<g id="a_node5"><a xlink:href="../../d0/dd9/classjavolution_1_1util_1_1internal_1_1table_1_1FractalTableImpl.html#a39f2375f6ce014c7f89d01b3f5f2ac61" target="_top" xlink:title=" ">
<polygon fill="white" stroke="black" points="764,-147.5 764,-177.5 919,-177.5 919,-147.5 764,-147.5"/>
<text text-anchor="start" x="772" y="-165.5" font-family="Helvetica,sans-Serif" font-size="10.00">javolution.util.internal.table.</text>
<text text-anchor="middle" x="841.5" y="-154.5" font-family="Helvetica,sans-Serif" font-size="10.00">FractalTableImpl.capacity</text>
</a>
</g>
</g>
<!-- Node4&#45;&gt;Node5 -->
<g id="edge4" class="edge">
<title>Node4&#45;&gt;Node5</title>
<path fill="none" stroke="midnightblue" d="M726.2,-139.52C735.95,-141.48 745.99,-143.5 755.89,-145.49"/>
<polygon fill="midnightblue" stroke="midnightblue" points="755.23,-148.93 765.73,-147.47 756.61,-142.06 755.23,-148.93"/>
</g>
<!-- Node6 -->
<g id="node6" class="node">
<title>Node6</title>
<g id="a_node6"><a xlink:href="../../d0/dd9/classjavolution_1_1util_1_1internal_1_1table_1_1FractalTableImpl.html#a5fc27e08895e1c5929fe2d2125ebb619" target="_top" xlink:title=" ">
<polygon fill="white" stroke="black" points="764,-98.5 764,-128.5 919,-128.5 919,-98.5 764,-98.5"/>
<text text-anchor="start" x="772" y="-116.5" font-family="Helvetica,sans-Serif" font-size="10.00">javolution.util.internal.table.</text>
<text text-anchor="middle" x="841.5" y="-105.5" font-family="Helvetica,sans-Serif" font-size="10.00">FractalTableImpl.upsize</text>
</a>
</g>
</g>
<!-- Node4&#45;&gt;Node6 -->
<g id="edge5" class="edge">
<title>Node4&#45;&gt;Node6</title>
<path fill="none" stroke="midnightblue" d="M728.1,-120.04C736.56,-119.55 745.22,-119.05 753.79,-118.55"/>
<polygon fill="midnightblue" stroke="midnightblue" points="754.01,-122.04 763.79,-117.96 753.6,-115.05 754.01,-122.04"/>
</g>
<!-- Node7 -->
<g id="node7" class="node">
<title>Node7</title>
<g id="a_node7"><a xlink:href="../../d0/dd9/classjavolution_1_1util_1_1internal_1_1table_1_1FractalTableImpl.html#a4e3ce37cbb96f069312dc088643ce844" target="_top" xlink:title=" ">
<polygon fill="white" stroke="black" points="955,-114.5 955,-144.5 1110,-144.5 1110,-114.5 955,-114.5"/>
<text text-anchor="start" x="963" y="-132.5" font-family="Helvetica,sans-Serif" font-size="10.00">javolution.util.internal.table.</text>
<text text-anchor="middle" x="1032.5" y="-121.5" font-family="Helvetica,sans-Serif" font-size="10.00">FractalTableImpl.copyTo</text>
</a>
</g>
</g>
<!-- Node6&#45;&gt;Node7 -->
<g id="edge6" class="edge">
<title>Node6&#45;&gt;Node7</title>
<path fill="none" stroke="midnightblue" d="M919.1,-119.98C927.56,-120.7 936.22,-121.43 944.79,-122.16"/>
<polygon fill="midnightblue" stroke="midnightblue" points="944.53,-125.65 954.79,-123.01 945.12,-118.67 944.53,-125.65"/>
</g>
<!-- Node9 -->
<g id="node9" class="node">
<title>Node9</title>
<g id="a_node9"><a xlink:href="../../d0/dd9/classjavolution_1_1util_1_1internal_1_1table_1_1FractalTableImpl.html#ade85a910199ccbb9e60804b6b7a68b13" target="_top" xlink:title=" ">
<polygon fill="white" stroke="black" points="955,-176.5 955,-206.5 1110,-206.5 1110,-176.5 955,-176.5"/>
<text text-anchor="start" x="963" y="-194.5" font-family="Helvetica,sans-Serif" font-size="10.00">javolution.util.internal.table.</text>
<text text-anchor="middle" x="1032.5" y="-183.5" font-family="Helvetica,sans-Serif" font-size="10.00">FractalTableImpl.F</text>
</a>
</g>
</g>
<!-- Node6&#45;&gt;Node9 -->
<g id="edge8" class="edge">
<title>Node6&#45;&gt;Node9</title>
<path fill="none" stroke="midnightblue" d="M893.88,-128.5C902.35,-131.29 910.97,-134.33 919,-137.5 933.2,-143.1 965.84,-158.89 992.33,-171.96"/>
<polygon fill="midnightblue" stroke="midnightblue" points="990.89,-175.15 1001.4,-176.45 993.99,-168.88 990.89,-175.15"/>
</g>
<!-- Node11 -->
<g id="node11" class="node">
<title>Node11</title>
<g id="a_node11"><a xlink:href="../../d0/dd9/classjavolution_1_1util_1_1internal_1_1table_1_1FractalTableImpl.html#afb7c67513eecf10757bfd0fde7c6a0a0" target="_top" xlink:title=" ">
<polygon fill="white" stroke="black" points="1337,-149.5 1337,-179.5 1517,-179.5 1517,-149.5 1337,-149.5"/>
<text text-anchor="start" x="1345" y="-167.5" font-family="Helvetica,sans-Serif" font-size="10.00">javolution.util.internal.table.</text>
<text text-anchor="middle" x="1427" y="-156.5" font-family="Helvetica,sans-Serif" font-size="10.00">FractalTableImpl.FractalTableImpl</text>
</a>
</g>
</g>
<!-- Node6&#45;&gt;Node11 -->
<g id="edge12" class="edge">
<title>Node6&#45;&gt;Node11</title>
<path fill="none" stroke="midnightblue" d="M919.08,-101.74C1011.05,-90.07 1169.37,-77.82 1301,-107.5 1333.6,-114.85 1367.95,-131.23 1392.38,-144.55"/>
<polygon fill="midnightblue" stroke="midnightblue" points="1390.79,-147.67 1401.23,-149.48 1394.2,-141.56 1390.79,-147.67"/>
</g>
<!-- Node8 -->
<g id="node8" class="node">
<title>Node8</title>
<g id="a_node8"><a xlink:href="../../d4/d14/classjavolution_1_1lang_1_1MathLib.html#a61d82d4ab96ea86fb7868daf1c203048" target="_top" xlink:title=" ">
<polygon fill="white" stroke="black" points="1147,-117 1147,-136 1300,-136 1300,-117 1147,-117"/>
<text text-anchor="middle" x="1223.5" y="-124" font-family="Helvetica,sans-Serif" font-size="10.00">javolution.lang.MathLib.min</text>
</a>
</g>
</g>
<!-- Node7&#45;&gt;Node8 -->
<g id="edge7" class="edge">
<title>Node7&#45;&gt;Node8</title>
<path fill="none" stroke="midnightblue" d="M1110.1,-128.28C1118.78,-128.15 1127.67,-128.01 1136.46,-127.87"/>
<polygon fill="midnightblue" stroke="midnightblue" points="1136.77,-131.36 1146.71,-127.7 1136.66,-124.36 1136.77,-131.36"/>
</g>
<!-- Node10 -->
<g id="node10" class="node">
<title>Node10</title>
<g id="a_node10"><a xlink:href="../../d0/dd9/classjavolution_1_1util_1_1internal_1_1table_1_1FractalTableImpl.html#a75450af34f8dbb7210888bdc874f424c" target="_top" xlink:title=" ">
<polygon fill="white" stroke="black" points="1146,-193.5 1146,-223.5 1301,-223.5 1301,-193.5 1146,-193.5"/>
<text text-anchor="start" x="1154" y="-211.5" font-family="Helvetica,sans-Serif" font-size="10.00">javolution.util.internal.table.</text>
<text text-anchor="middle" x="1223.5" y="-200.5" font-family="Helvetica,sans-Serif" font-size="10.00">FractalTableImpl.allocate</text>
</a>
</g>
</g>
<!-- Node9&#45;&gt;Node10 -->
<g id="edge9" class="edge">
<title>Node9&#45;&gt;Node10</title>
<path fill="none" stroke="midnightblue" d="M1110.1,-198.39C1118.56,-199.15 1127.22,-199.93 1135.79,-200.7"/>
<polygon fill="midnightblue" stroke="midnightblue" points="1135.52,-204.19 1145.79,-201.6 1136.14,-197.22 1135.52,-204.19"/>
</g>
<!-- Node9&#45;&gt;Node11 -->
<g id="edge11" class="edge">
<title>Node9&#45;&gt;Node11</title>
<path fill="none" stroke="midnightblue" d="M1110.11,-186.23C1171.97,-181.97 1259.47,-175.96 1326.7,-171.33"/>
<polygon fill="midnightblue" stroke="midnightblue" points="1327.15,-174.81 1336.88,-170.63 1326.67,-167.82 1327.15,-174.81"/>
</g>
<!-- Node10&#45;&gt;Node11 -->
<g id="edge10" class="edge">
<title>Node10&#45;&gt;Node11</title>
<path fill="none" stroke="midnightblue" d="M1293.28,-193.48C1310.69,-189.68 1329.53,-185.57 1347.38,-181.67"/>
<polygon fill="midnightblue" stroke="midnightblue" points="1348.16,-185.08 1357.19,-179.53 1346.67,-178.24 1348.16,-185.08"/>
</g>
<!-- Node13 -->
<g id="node13" class="node">
<title>Node13</title>
<g id="a_node13"><a xlink:href="../../d8/d86/classjavolution_1_1util_1_1internal_1_1table_1_1TableView.html#a771eeb8439c2be68d63ad450e50eeca4" target="_top" xlink:title=" ">
<polygon fill="white" stroke="black" points="573,-49.5 573,-79.5 728,-79.5 728,-49.5 573,-49.5"/>
<text text-anchor="start" x="581" y="-67.5" font-family="Helvetica,sans-Serif" font-size="10.00">javolution.util.internal.table.</text>
<text text-anchor="middle" x="650.5" y="-56.5" font-family="Helvetica,sans-Serif" font-size="10.00">TableView.getFirst</text>
</a>
</g>
</g>
<!-- Node12&#45;&gt;Node13 -->
<g id="edge14" class="edge">
<title>Node12&#45;&gt;Node13</title>
<path fill="none" stroke="midnightblue" d="M537.1,-71.04C545.56,-70.55 554.22,-70.05 562.79,-69.55"/>
<polygon fill="midnightblue" stroke="midnightblue" points="563.01,-73.04 572.79,-68.96 562.6,-66.05 563.01,-73.04"/>
</g>
<!-- Node14 -->
<g id="node14" class="node">
<title>Node14</title>
<g id="a_node14"><a xlink:href="../../d8/d86/classjavolution_1_1util_1_1internal_1_1table_1_1TableView.html#a40823a9bd3a29acd5896306e62a335d0" target="_top" xlink:title=" ">
<polygon fill="white" stroke="black" points="764,-49.5 764,-79.5 919,-79.5 919,-49.5 764,-49.5"/>
<text text-anchor="start" x="772" y="-67.5" font-family="Helvetica,sans-Serif" font-size="10.00">javolution.util.internal.table.</text>
<text text-anchor="middle" x="841.5" y="-56.5" font-family="Helvetica,sans-Serif" font-size="10.00">TableView.emptyError</text>
</a>
</g>
</g>
<!-- Node13&#45;&gt;Node14 -->
<g id="edge15" class="edge">
<title>Node13&#45;&gt;Node14</title>
<path fill="none" stroke="midnightblue" d="M728.1,-64.5C736.56,-64.5 745.22,-64.5 753.79,-64.5"/>
<polygon fill="midnightblue" stroke="midnightblue" points="753.79,-68 763.79,-64.5 753.79,-61 753.79,-68"/>
</g>
<!-- Node15 -->
<g id="node15" class="node">
<title>Node15</title>
<g id="a_node15"><a xlink:href="../../d8/d86/classjavolution_1_1util_1_1internal_1_1table_1_1TableView.html#a0879bdae86718d45952dc02671673e57" target="_top" xlink:title=" ">
<polygon fill="white" stroke="black" points="764,-0.5 764,-30.5 919,-30.5 919,-0.5 764,-0.5"/>
<text text-anchor="start" x="772" y="-18.5" font-family="Helvetica,sans-Serif" font-size="10.00">javolution.util.internal.table.</text>
<text text-anchor="middle" x="841.5" y="-7.5" font-family="Helvetica,sans-Serif" font-size="10.00">TableView.size</text>
</a>
</g>
</g>
<!-- Node13&#45;&gt;Node15 -->
<g id="edge16" class="edge">
<title>Node13&#45;&gt;Node15</title>
<path fill="none" stroke="midnightblue" d="M709.49,-49.47C729.54,-44.27 752.17,-38.4 772.92,-33.02"/>
<polygon fill="midnightblue" stroke="midnightblue" points="773.82,-36.4 782.62,-30.51 772.06,-29.63 773.82,-36.4"/>
</g>
<!-- Node16&#45;&gt;Node9 -->
<g id="edge18" class="edge">
<title>Node16&#45;&gt;Node9</title>
<path fill="none" stroke="midnightblue" d="M728.4,-194.69C790.98,-194.03 879.3,-193.1 944.46,-192.42"/>
<polygon fill="midnightblue" stroke="midnightblue" points="944.75,-195.91 954.72,-192.31 944.68,-188.91 944.75,-195.91"/>
</g>
<!-- Node16&#45;&gt;Node16 -->
<g id="edge19" class="edge">
<title>Node16&#45;&gt;Node16</title>
<path fill="none" stroke="midnightblue" d="M617.39,-210.66C609.4,-220.06 620.44,-229 650.5,-229 668.82,-229 680.07,-225.68 684.26,-220.96"/>
<polygon fill="midnightblue" stroke="midnightblue" points="687.73,-220.42 683.61,-210.66 680.75,-220.86 687.73,-220.42"/>
</g>
</g>
</svg>
        <g id="navigator" transform="translate(0 0)" fill="#404254">
                <rect fill="#f2f5e9" fill-opacity="0.5" stroke="#606060" stroke-width=".5" x="0" y="0" width="60" height="60"/>
                <use id="zoomplus" xlink:href="#zoomPlus" x="17" y="9" onmousedown="handleZoom(evt,'in')"/>
                <use id="zoomminus" xlink:href="#zoomMin" x="42" y="9" onmousedown="handleZoom(evt,'out')"/>
                <use id="reset" xlink:href="#resetDef" x="30" y="36" onmousedown="handleReset()"/>
                <g id="arrowUp" xlink:href="#dirArrow" transform="translate(30 24)" onmousedown="handlePan(0,-1)">
                  <use xlink:href="#rim" fill="#404040">
                        <set attributeName="fill" to="#808080" begin="arrowUp.mouseover" end="arrowUp.mouseout"/>
                  </use>
                  <path fill="none" stroke="white" stroke-width="1.5" d="M0,-3.0v7 M-2.5,-0.5L0,-3.0L2.5,-0.5"/>
                </g>
                <g id="arrowRight" xlink:href="#dirArrow" transform="rotate(90) translate(36 -43)" onmousedown="handlePan(1,0)">
                  <use xlink:href="#rim" fill="#404040">
                        <set attributeName="fill" to="#808080" begin="arrowRight.mouseover" end="arrowRight.mouseout"/>
                  </use>
                  <path fill="none" stroke="white" stroke-width="1.5" d="M0,-3.0v7 M-2.5,-0.5L0,-3.0L2.5,-0.5"/>
                </g>
                <g id="arrowDown" xlink:href="#dirArrow" transform="rotate(180) translate(-30 -48)" onmousedown="handlePan(0,1)">
                  <use xlink:href="#rim" fill="#404040">
                        <set attributeName="fill" to="#808080" begin="arrowDown.mouseover" end="arrowDown.mouseout"/>
                  </use>
                  <path fill="none" stroke="white" stroke-width="1.5" d="M0,-3.0v7 M-2.5,-0.5L0,-3.0L2.5,-0.5"/>
                </g>
                <g id="arrowLeft" xlink:href="#dirArrow" transform="rotate(270) translate(-36 17)" onmousedown="handlePan(-1,0)">
                  <use xlink:href="#rim" fill="#404040">
                        <set attributeName="fill" to="#808080" begin="arrowLeft.mouseover" end="arrowLeft.mouseout"/>
                  </use>
                  <path fill="none" stroke="white" stroke-width="1.5" d="M0,-3.0v7 M-2.5,-0.5L0,-3.0L2.5,-0.5"/>
                </g>
        </g>
        <svg viewBox="0 0 15 15" width="100%" height="30px" preserveAspectRatio="xMaxYMin meet">
         <g id="arrow_out" transform="scale(0.3 0.3)">
          <a xlink:href="classjavolution_1_1util_1_1internal_1_1table_1_1FastTableImpl_a3ef1cbcb3342302359defd9104eebec3_cgraph_org.svg" target="_base">
           <rect id="button" ry="5" rx="5" y="6" x="6" height="38" width="38"
                fill="#f2f5e9" fill-opacity="0.5" stroke="#606060" stroke-width="1.0"/>
           <path id="arrow"
             d="M 11.500037,31.436501 C 11.940474,20.09759 22.043105,11.32322 32.158766,21.979434 L 37.068811,17.246167 C 37.068811,17.246167 37.088388,32 37.088388,32 L 22.160133,31.978069 C 22.160133,31.978069 26.997745,27.140456 26.997745,27.140456 C 18.528582,18.264221 13.291696,25.230495 11.500037,31.436501 z"
             style="fill:#404040;"/>
          </a>
         </g>
        </svg>
</svg>
