<?xml version="1.0" encoding="UTF-8" standalone="no"?>
<!DOCTYPE svg PUBLIC "-//W3C//DTD SVG 1.1//EN"
 "http://www.w3.org/Graphics/SVG/1.1/DTD/svg11.dtd">
<!-- Generated by graphviz version 2.43.0 (0)
 -->
<!-- Title: javolution.osgi.internal.ServiceTrackerImpl&lt; C &gt; Pages: 1 -->
<svg width="460pt" height="106pt"
 viewBox="0.00 0.00 460.00 106.00" xmlns="http://www.w3.org/2000/svg" xmlns:xlink="http://www.w3.org/1999/xlink">
<g id="graph0" class="graph" transform="scale(1 1) rotate(0) translate(4 102)">
<title>javolution.osgi.internal.ServiceTrackerImpl&lt; C &gt;</title>
<polygon fill="white" stroke="transparent" points="-4,4 -4,-102 456,-102 456,4 -4,4"/>
<!-- Node1 -->
<g id="node1" class="node">
<title>Node1</title>
<g id="a_node1"><a xlink:title=" ">
<polygon fill="#bfbfbf" stroke="black" points="205.5,-0.5 205.5,-30.5 343.5,-30.5 343.5,-0.5 205.5,-0.5"/>
<text text-anchor="start" x="213.5" y="-18.5" font-family="Helvetica,sans-Serif" font-size="10.00">javolution.osgi.internal.</text>
<text text-anchor="middle" x="274.5" y="-7.5" font-family="Helvetica,sans-Serif" font-size="10.00">ServiceTrackerImpl&lt; C &gt;</text>
</a>
</g>
</g>
<!-- Node2 -->
<g id="node2" class="node">
<title>Node2</title>
<g id="a_node2"><a xlink:title=" ">
<polygon fill="white" stroke="#bfbfbf" points="0,-78.5 0,-97.5 143,-97.5 143,-78.5 0,-78.5"/>
<text text-anchor="middle" x="71.5" y="-85.5" font-family="Helvetica,sans-Serif" font-size="10.00">final Class&lt;? extends C &gt;</text>
</a>
</g>
</g>
<!-- Node2&#45;&gt;Node1 -->
<g id="edge1" class="edge">
<title>Node2&#45;&gt;Node1</title>
<path fill="none" stroke="#9a32cd" stroke-dasharray="5,2" d="M94.87,-73.26C109.12,-65.32 127.93,-55.62 145.5,-49 164.95,-41.67 186.67,-35.47 206.65,-30.52"/>
<polygon fill="#9a32cd" stroke="#9a32cd" points="92.76,-70.43 85.79,-78.42 96.22,-76.52 92.76,-70.43"/>
<text text-anchor="middle" x="188.5" y="-52" font-family="Helvetica,sans-Serif" font-size="10.00"> defaultImplClass</text>
</g>
<!-- Node3 -->
<g id="node3" class="node">
<title>Node3</title>
<g id="a_node3"><a xlink:title=" ">
<polygon fill="white" stroke="#bfbfbf" points="161.5,-78.5 161.5,-97.5 257.5,-97.5 257.5,-78.5 161.5,-78.5"/>
<text text-anchor="middle" x="209.5" y="-85.5" font-family="Helvetica,sans-Serif" font-size="10.00">final Class&lt; C &gt;</text>
</a>
</g>
</g>
<!-- Node3&#45;&gt;Node1 -->
<g id="edge2" class="edge">
<title>Node3&#45;&gt;Node1</title>
<path fill="none" stroke="#9a32cd" stroke-dasharray="5,2" d="M224.49,-70.74C235.69,-58.6 250.84,-42.16 261.52,-30.58"/>
<polygon fill="#9a32cd" stroke="#9a32cd" points="221.68,-68.63 217.47,-78.36 226.82,-73.38 221.68,-68.63"/>
<text text-anchor="middle" x="256" y="-52" font-family="Helvetica,sans-Serif" font-size="10.00"> type</text>
</g>
<!-- Node4 -->
<g id="node4" class="node">
<title>Node4</title>
<g id="a_node4"><a xlink:title=" ">
<polygon fill="white" stroke="#bfbfbf" points="276,-78.5 276,-97.5 405,-97.5 405,-78.5 276,-78.5"/>
<text text-anchor="middle" x="340.5" y="-85.5" font-family="Helvetica,sans-Serif" font-size="10.00">ServiceTracker&lt; C, C &gt;</text>
</a>
</g>
</g>
<!-- Node4&#45;&gt;Node1 -->
<g id="edge3" class="edge">
<title>Node4&#45;&gt;Node1</title>
<path fill="none" stroke="#9a32cd" stroke-dasharray="5,2" d="M325.28,-70.74C313.91,-58.6 298.52,-42.16 287.68,-30.58"/>
<polygon fill="#9a32cd" stroke="#9a32cd" points="323.02,-73.45 332.41,-78.36 328.13,-68.66 323.02,-73.45"/>
<text text-anchor="middle" x="331" y="-52" font-family="Helvetica,sans-Serif" font-size="10.00"> tracker</text>
</g>
<!-- Node5 -->
<g id="node5" class="node">
<title>Node5</title>
<g id="a_node5"><a xlink:title=" ">
<polygon fill="white" stroke="#bfbfbf" points="423,-78.5 423,-97.5 452,-97.5 452,-78.5 423,-78.5"/>
<text text-anchor="middle" x="437.5" y="-85.5" font-family="Helvetica,sans-Serif" font-size="10.00">C</text>
</a>
</g>
</g>
<!-- Node5&#45;&gt;Node1 -->
<g id="edge4" class="edge">
<title>Node5&#45;&gt;Node1</title>
<path fill="none" stroke="#9a32cd" stroke-dasharray="5,2" d="M413.92,-76.07C397.13,-68.35 374.01,-57.86 353.5,-49 339.2,-42.83 323.34,-36.25 309.61,-30.64"/>
<polygon fill="#9a32cd" stroke="#9a32cd" points="412.45,-79.25 423,-80.26 415.38,-72.89 412.45,-79.25"/>
<text text-anchor="middle" x="406.5" y="-52" font-family="Helvetica,sans-Serif" font-size="10.00"> defaultImpl</text>
</g>
</g>
</svg>
