<?xml version="1.0" encoding="UTF-8" standalone="no"?>
<!DOCTYPE svg PUBLIC "-//W3C//DTD SVG 1.1//EN"
 "http://www.w3.org/Graphics/SVG/1.1/DTD/svg11.dtd">
<!-- Generated by graphviz version 2.43.0 (0)
 -->
<!-- Title: javolution.util.internal.comparator.ArrayComparatorImpl Pages: 1 -->
<svg width="509pt" height="78pt"
 viewBox="0.00 0.00 509.00 77.50" xmlns="http://www.w3.org/2000/svg" xmlns:xlink="http://www.w3.org/1999/xlink">
<g id="graph0" class="graph" transform="scale(1 1) rotate(0) translate(4 73.5)">
<title>javolution.util.internal.comparator.ArrayComparatorImpl</title>
<polygon fill="white" stroke="transparent" points="-4,4 -4,-73.5 505,-73.5 505,4 -4,4"/>
<!-- Node1 -->
<g id="node1" class="node">
<title>Node1</title>
<g id="a_node1"><a xlink:title=" ">
<polygon fill="#bfbfbf" stroke="black" points="315,-17 315,-47 501,-47 501,-17 315,-17"/>
<text text-anchor="start" x="323" y="-35" font-family="Helvetica,sans-Serif" font-size="10.00">javolution.util.internal.comparator.</text>
<text text-anchor="middle" x="408" y="-24" font-family="Helvetica,sans-Serif" font-size="10.00">ArrayComparatorImpl</text>
</a>
</g>
</g>
<!-- Node2 -->
<g id="node2" class="node">
<title>Node2</title>
<g id="a_node2"><a xlink:href="../../db/d53/classjavolution_1_1util_1_1internal_1_1comparator_1_1StandardComparatorImpl.html" target="_top" xlink:title=" ">
<polygon fill="white" stroke="black" points="0,-39 0,-69 194,-69 194,-39 0,-39"/>
<text text-anchor="start" x="8" y="-57" font-family="Helvetica,sans-Serif" font-size="10.00">javolution.util.internal.comparator.</text>
<text text-anchor="middle" x="97" y="-46" font-family="Helvetica,sans-Serif" font-size="10.00">StandardComparatorImpl&lt; Object &gt;</text>
</a>
</g>
</g>
<!-- Node2&#45;&gt;Node1 -->
<g id="edge1" class="edge">
<title>Node2&#45;&gt;Node1</title>
<path fill="none" stroke="midnightblue" d="M204.13,-46.44C240.16,-43.88 280.1,-41.03 314.95,-38.55"/>
<polygon fill="midnightblue" stroke="midnightblue" points="203.8,-42.96 194.08,-47.16 204.3,-49.94 203.8,-42.96"/>
</g>
<!-- Node3 -->
<g id="node3" class="node">
<title>Node3</title>
<g id="a_node3"><a xlink:title=" ">
<polygon fill="white" stroke="#bfbfbf" points="51,-0.5 51,-19.5 143,-19.5 143,-0.5 51,-0.5"/>
<text text-anchor="middle" x="97" y="-7.5" font-family="Helvetica,sans-Serif" font-size="10.00">static final long</text>
</a>
</g>
</g>
<!-- Node3&#45;&gt;Node1 -->
<g id="edge2" class="edge">
<title>Node3&#45;&gt;Node1</title>
<path fill="none" stroke="#9a32cd" stroke-dasharray="5,2" d="M153.36,-13.94C198.15,-17.13 262.17,-21.69 314.69,-25.43"/>
<polygon fill="#9a32cd" stroke="#9a32cd" points="153.49,-10.44 143.26,-13.22 152.99,-17.42 153.49,-10.44"/>
<text text-anchor="middle" x="254.5" y="-27" font-family="Helvetica,sans-Serif" font-size="10.00"> serialVersionUID</text>
</g>
</g>
</svg>
