<?xml version="1.0" encoding="UTF-8" standalone="no"?>
<!DOCTYPE svg PUBLIC "-//W3C//DTD SVG 1.1//EN"
 "http://www.w3.org/Graphics/SVG/1.1/DTD/svg11.dtd">
<!-- Generated by graphviz version 2.43.0 (0)
 -->
<!-- Title: javolution.util.internal.map.AtomicMapImpl&lt; K, V &gt; Pages: 1 -->
<svg width="838pt" height="334pt"
 viewBox="0.00 0.00 838.00 334.00" xmlns="http://www.w3.org/2000/svg" xmlns:xlink="http://www.w3.org/1999/xlink">
<g id="graph0" class="graph" transform="scale(1 1) rotate(0) translate(4 330)">
<title>javolution.util.internal.map.AtomicMapImpl&lt; K, V &gt;</title>
<polygon fill="white" stroke="transparent" points="-4,4 -4,-330 834,-330 834,4 -4,4"/>
<!-- Node1 -->
<g id="node1" class="node">
<title>Node1</title>
<g id="a_node1"><a xlink:title=" ">
<polygon fill="#bfbfbf" stroke="black" points="678,-65 678,-95 830,-95 830,-65 678,-65"/>
<text text-anchor="start" x="686" y="-83" font-family="Helvetica,sans-Serif" font-size="10.00">javolution.util.internal.map.</text>
<text text-anchor="middle" x="754" y="-72" font-family="Helvetica,sans-Serif" font-size="10.00">AtomicMapImpl&lt; K, V &gt;</text>
</a>
</g>
</g>
<!-- Node2 -->
<g id="node2" class="node">
<title>Node2</title>
<g id="a_node2"><a xlink:href="../../d0/d83/classjavolution_1_1util_1_1internal_1_1map_1_1MapView.html" target="_top" xlink:title=" ">
<polygon fill="white" stroke="black" points="425,-148 425,-178 562,-178 562,-148 425,-148"/>
<text text-anchor="start" x="433" y="-166" font-family="Helvetica,sans-Serif" font-size="10.00">javolution::util::internal</text>
<text text-anchor="middle" x="493.5" y="-155" font-family="Helvetica,sans-Serif" font-size="10.00">::map::MapView&lt; K, V &gt;</text>
</a>
</g>
</g>
<!-- Node2&#45;&gt;Node1 -->
<g id="edge1" class="edge">
<title>Node2&#45;&gt;Node1</title>
<path fill="none" stroke="midnightblue" d="M571.78,-145.51C599.84,-138.48 631.61,-129.73 660,-120 680.78,-112.88 703.44,-103.17 721.19,-95.11"/>
<polygon fill="midnightblue" stroke="midnightblue" points="570.89,-142.12 562.02,-147.92 572.57,-148.92 570.89,-142.12"/>
</g>
<!-- Node3 -->
<g id="node3" class="node">
<title>Node3</title>
<g id="a_node3"><a xlink:href="../../d7/d30/interfacejavolution_1_1util_1_1service_1_1MapService.html" target="_top" xlink:title=" ">
<polygon fill="white" stroke="black" points="176,-202 176,-232 304,-232 304,-202 176,-202"/>
<text text-anchor="start" x="184" y="-220" font-family="Helvetica,sans-Serif" font-size="10.00">javolution::util::service</text>
<text text-anchor="middle" x="240" y="-209" font-family="Helvetica,sans-Serif" font-size="10.00">::MapService&lt; K, V &gt;</text>
</a>
</g>
</g>
<!-- Node3&#45;&gt;Node2 -->
<g id="edge2" class="edge">
<title>Node3&#45;&gt;Node2</title>
<path fill="none" stroke="midnightblue" d="M314.24,-203.17C343.19,-197.51 376.72,-190.72 407,-184 415.36,-182.14 424.15,-180.1 432.78,-178.03"/>
<polygon fill="midnightblue" stroke="midnightblue" points="313.35,-199.78 304.2,-205.12 314.68,-206.65 313.35,-199.78"/>
</g>
<!-- Node4 -->
<g id="node4" class="node">
<title>Node4</title>
<g id="a_node4"><a xlink:title=" ">
<polygon fill="white" stroke="#bfbfbf" points="5.5,-306.5 5.5,-325.5 133.5,-325.5 133.5,-306.5 5.5,-306.5"/>
<text text-anchor="middle" x="69.5" y="-313.5" font-family="Helvetica,sans-Serif" font-size="10.00">java::util::Map&lt; K, V &gt;</text>
</a>
</g>
</g>
<!-- Node4&#45;&gt;Node3 -->
<g id="edge3" class="edge">
<title>Node4&#45;&gt;Node3</title>
<path fill="none" stroke="midnightblue" d="M124.6,-303.24C129.57,-301.4 134.45,-299.33 139,-297 172.65,-279.79 205.71,-250.16 224.12,-232.19"/>
<polygon fill="midnightblue" stroke="midnightblue" points="123.33,-299.97 114.98,-306.49 125.57,-306.6 123.33,-299.97"/>
</g>
<!-- Node5 -->
<g id="node5" class="node">
<title>Node5</title>
<g id="a_node5"><a xlink:title=" ">
<polygon fill="white" stroke="#bfbfbf" points="0,-257 0,-287 139,-287 139,-257 0,-257"/>
<text text-anchor="start" x="8" y="-275" font-family="Helvetica,sans-Serif" font-size="10.00">java::util::concurrent</text>
<text text-anchor="middle" x="69.5" y="-264" font-family="Helvetica,sans-Serif" font-size="10.00">::ConcurrentMap&lt; K, V &gt;</text>
</a>
</g>
</g>
<!-- Node5&#45;&gt;Node3 -->
<g id="edge4" class="edge">
<title>Node5&#45;&gt;Node3</title>
<path fill="none" stroke="midnightblue" d="M126.26,-253.8C147.91,-246.73 172.4,-238.74 193.01,-232.01"/>
<polygon fill="midnightblue" stroke="midnightblue" points="124.96,-250.54 116.54,-256.97 127.14,-257.2 124.96,-250.54"/>
</g>
<!-- Node6 -->
<g id="node6" class="node">
<title>Node6</title>
<g id="a_node6"><a xlink:href="../../dd/ded/interfacejavolution_1_1util_1_1function_1_1Splittable.html" target="_top" xlink:title=" ">
<polygon fill="white" stroke="black" points="1,-196.5 1,-237.5 138,-237.5 138,-196.5 1,-196.5"/>
<text text-anchor="start" x="9" y="-225.5" font-family="Helvetica,sans-Serif" font-size="10.00">javolution::util::function</text>
<text text-anchor="start" x="9" y="-214.5" font-family="Helvetica,sans-Serif" font-size="10.00">::Splittable&lt; MapService</text>
<text text-anchor="middle" x="69.5" y="-203.5" font-family="Helvetica,sans-Serif" font-size="10.00">&lt; K, V &gt; &gt;</text>
</a>
</g>
</g>
<!-- Node6&#45;&gt;Node3 -->
<g id="edge5" class="edge">
<title>Node6&#45;&gt;Node3</title>
<path fill="none" stroke="midnightblue" d="M148.07,-217C157.36,-217 166.75,-217 175.79,-217"/>
<polygon fill="midnightblue" stroke="midnightblue" points="148.06,-213.5 138.06,-217 148.06,-220.5 148.06,-213.5"/>
</g>
<!-- Node7 -->
<g id="node7" class="node">
<title>Node7</title>
<g id="a_node7"><a xlink:title=" ">
<polygon fill="white" stroke="#bfbfbf" points="32.5,-158.5 32.5,-177.5 106.5,-177.5 106.5,-158.5 32.5,-158.5"/>
<text text-anchor="middle" x="69.5" y="-165.5" font-family="Helvetica,sans-Serif" font-size="10.00">Serializable</text>
</a>
</g>
</g>
<!-- Node7&#45;&gt;Node3 -->
<g id="edge6" class="edge">
<title>Node7&#45;&gt;Node3</title>
<path fill="none" stroke="midnightblue" d="M115.24,-180.26C123.16,-182.48 131.33,-184.79 139,-187 155.54,-191.78 173.58,-197.14 189.72,-201.99"/>
<polygon fill="midnightblue" stroke="midnightblue" points="115.96,-176.83 105.39,-177.53 114.08,-183.58 115.96,-176.83"/>
</g>
<!-- Node8 -->
<g id="node8" class="node">
<title>Node8</title>
<g id="a_node8"><a xlink:href="../../d5/d48/classCloneable.html" target="_top" xlink:title=" ">
<polygon fill="white" stroke="black" points="37,-120.5 37,-139.5 102,-139.5 102,-120.5 37,-120.5"/>
<text text-anchor="middle" x="69.5" y="-127.5" font-family="Helvetica,sans-Serif" font-size="10.00">Cloneable</text>
</a>
</g>
</g>
<!-- Node8&#45;&gt;Node3 -->
<g id="edge7" class="edge">
<title>Node8&#45;&gt;Node3</title>
<path fill="none" stroke="midnightblue" d="M112.06,-137.32C121.38,-140.08 130.89,-143.85 139,-149 160.29,-162.51 155.47,-177.37 176,-192 181.27,-195.76 187.19,-199.05 193.22,-201.91"/>
<polygon fill="midnightblue" stroke="midnightblue" points="112.68,-133.86 102.12,-134.71 110.9,-140.63 112.68,-133.86"/>
</g>
<!-- Node9 -->
<g id="node9" class="node">
<title>Node9</title>
<g id="a_node9"><a xlink:title=" ">
<polygon fill="white" stroke="#bfbfbf" points="182,-163.5 182,-182.5 298,-182.5 298,-163.5 182,-163.5"/>
<text text-anchor="middle" x="240" y="-170.5" font-family="Helvetica,sans-Serif" font-size="10.00">MapService&lt; K, V &gt;</text>
</a>
</g>
</g>
<!-- Node9&#45;&gt;Node2 -->
<g id="edge8" class="edge">
<title>Node9&#45;&gt;Node2</title>
<path fill="none" stroke="#9a32cd" stroke-dasharray="5,2" d="M308.5,-170.32C344.57,-168.88 388.86,-167.12 424.95,-165.69"/>
<polygon fill="#9a32cd" stroke="#9a32cd" points="307.92,-166.84 298.07,-170.73 308.2,-173.83 307.92,-166.84"/>
<text text-anchor="middle" x="364.5" y="-172" font-family="Helvetica,sans-Serif" font-size="10.00"> target</text>
</g>
<!-- Node10 -->
<g id="node10" class="node">
<title>Node10</title>
<g id="a_node10"><a xlink:title=" ">
<polygon fill="white" stroke="#bfbfbf" points="194,-111.5 194,-130.5 286,-130.5 286,-111.5 194,-111.5"/>
<text text-anchor="middle" x="240" y="-118.5" font-family="Helvetica,sans-Serif" font-size="10.00">static final long</text>
</a>
</g>
</g>
<!-- Node10&#45;&gt;Node1 -->
<g id="edge12" class="edge">
<title>Node10&#45;&gt;Node1</title>
<path fill="none" stroke="#9a32cd" stroke-dasharray="5,2" d="M296.41,-116.56C388.66,-109.18 573.85,-94.35 677.8,-86.02"/>
<polygon fill="#9a32cd" stroke="#9a32cd" points="296.13,-113.07 286.44,-117.36 296.68,-120.05 296.13,-113.07"/>
<text text-anchor="middle" x="493.5" y="-108" font-family="Helvetica,sans-Serif" font-size="10.00"> serialVersionUID</text>
</g>
<!-- Node10&#45;&gt;Node2 -->
<g id="edge9" class="edge">
<title>Node10&#45;&gt;Node2</title>
<path fill="none" stroke="#9a32cd" stroke-dasharray="5,2" d="M296.58,-130.28C334.41,-136.6 384.71,-145 424.87,-151.71"/>
<polygon fill="#9a32cd" stroke="#9a32cd" points="296.69,-126.75 286.25,-128.56 295.54,-133.66 296.69,-126.75"/>
<text text-anchor="middle" x="364.5" y="-151" font-family="Helvetica,sans-Serif" font-size="10.00"> serialVersionUID</text>
</g>
<!-- Node11 -->
<g id="node11" class="node">
<title>Node11</title>
<g id="a_node11"><a xlink:title=" ">
<polygon fill="white" stroke="#bfbfbf" points="437,-39 437,-69 550,-69 550,-39 437,-39"/>
<text text-anchor="start" x="445" y="-57" font-family="Helvetica,sans-Serif" font-size="10.00">volatile MapService</text>
<text text-anchor="middle" x="493.5" y="-46" font-family="Helvetica,sans-Serif" font-size="10.00">&lt; K, V &gt;</text>
</a>
</g>
</g>
<!-- Node11&#45;&gt;Node1 -->
<g id="edge10" class="edge">
<title>Node11&#45;&gt;Node1</title>
<path fill="none" stroke="#9a32cd" stroke-dasharray="5,2" d="M560.59,-60.65C596.34,-64.24 640.64,-68.7 677.71,-72.43"/>
<polygon fill="#9a32cd" stroke="#9a32cd" points="560.57,-57.13 550.27,-59.61 559.87,-64.09 560.57,-57.13"/>
<text text-anchor="middle" x="620" y="-73" font-family="Helvetica,sans-Serif" font-size="10.00"> immutable</text>
</g>
<!-- Node12 -->
<g id="node12" class="node">
<title>Node12</title>
<g id="a_node12"><a xlink:title=" ">
<polygon fill="white" stroke="#bfbfbf" points="445,-0.5 445,-19.5 542,-19.5 542,-0.5 445,-0.5"/>
<text text-anchor="middle" x="493.5" y="-7.5" font-family="Helvetica,sans-Serif" font-size="10.00">transient Thread</text>
</a>
</g>
</g>
<!-- Node12&#45;&gt;Node1 -->
<g id="edge11" class="edge">
<title>Node12&#45;&gt;Node1</title>
<path fill="none" stroke="#9a32cd" stroke-dasharray="5,2" d="M552.35,-21.71C584.3,-28.57 624.58,-37.87 660,-48 677.24,-52.93 695.98,-59.2 712.09,-64.88"/>
<polygon fill="#9a32cd" stroke="#9a32cd" points="552.79,-18.23 542.28,-19.57 551.33,-25.08 552.79,-18.23"/>
<text text-anchor="middle" x="620" y="-51" font-family="Helvetica,sans-Serif" font-size="10.00"> updatingThread</text>
</g>
</g>
</svg>
