<?xml version="1.0" encoding="UTF-8" standalone="no"?>
<!DOCTYPE svg PUBLIC "-//W3C//DTD SVG 1.1//EN"
 "http://www.w3.org/Graphics/SVG/1.1/DTD/svg11.dtd">
<!-- Generated by graphviz version 2.43.0 (0)
 -->
<!-- Title: javolution.text.Text.replace Pages: 1 -->
<svg width="1147pt" height="416pt"
 viewBox="0.00 0.00 1147.00 415.50" xmlns="http://www.w3.org/2000/svg" xmlns:xlink="http://www.w3.org/1999/xlink">
<g id="graph0" class="graph" transform="scale(1 1) rotate(0) translate(4 411.5)">
<title>javolution.text.Text.replace</title>
<polygon fill="white" stroke="transparent" points="-4,4 -4,-411.5 1143,-411.5 1143,4 -4,4"/>
<!-- Node1 -->
<g id="node1" class="node">
<title>Node1</title>
<g id="a_node1"><a xlink:title=" ">
<polygon fill="#bfbfbf" stroke="black" points="0,-258.5 0,-277.5 150,-277.5 150,-258.5 0,-258.5"/>
<text text-anchor="middle" x="75" y="-265.5" font-family="Helvetica,sans-Serif" font-size="10.00">javolution.text.Text.replace</text>
</a>
</g>
</g>
<!-- Node2 -->
<g id="node2" class="node">
<title>Node2</title>
<g id="a_node2"><a xlink:href="../../dc/d6d/classjavolution_1_1text_1_1Text.html#a8b3994e5aae2b7d193a409d82333f86f" target="_top" xlink:title=" ">
<polygon fill="white" stroke="black" points="375,-220.5 375,-239.5 521,-239.5 521,-220.5 375,-220.5"/>
<text text-anchor="middle" x="448" y="-227.5" font-family="Helvetica,sans-Serif" font-size="10.00">javolution.text.Text.concat</text>
</a>
</g>
</g>
<!-- Node1&#45;&gt;Node2 -->
<g id="edge1" class="edge">
<title>Node1&#45;&gt;Node2</title>
<path fill="none" stroke="midnightblue" d="M124.86,-258.5C143.88,-255.08 165.9,-251.46 186,-249 245.61,-241.7 313.25,-236.87 364.73,-233.91"/>
<polygon fill="midnightblue" stroke="midnightblue" points="365.02,-237.4 374.81,-233.34 364.63,-230.41 365.02,-237.4"/>
</g>
<!-- Node10 -->
<g id="node10" class="node">
<title>Node10</title>
<g id="a_node10"><a xlink:href="../../dc/d6d/classjavolution_1_1text_1_1Text.html#abfee9f3c78464f086a8fd9159ee7745e" target="_top" xlink:title=" ">
<polygon fill="white" stroke="black" points="190.5,-377 190.5,-407 331.5,-407 331.5,-377 190.5,-377"/>
<text text-anchor="start" x="198.5" y="-395" font-family="Helvetica,sans-Serif" font-size="10.00">javolution.text.Text.index</text>
<text text-anchor="middle" x="261" y="-384" font-family="Helvetica,sans-Serif" font-size="10.00">OfAny</text>
</a>
</g>
</g>
<!-- Node1&#45;&gt;Node10 -->
<g id="edge15" class="edge">
<title>Node1&#45;&gt;Node10</title>
<path fill="none" stroke="midnightblue" d="M90.13,-277.52C119.77,-297.5 189,-344.15 229.34,-371.33"/>
<polygon fill="midnightblue" stroke="midnightblue" points="227.47,-374.3 237.72,-376.99 231.38,-368.49 227.47,-374.3"/>
</g>
<!-- Node11 -->
<g id="node11" class="node">
<title>Node11</title>
<g id="a_node11"><a xlink:href="../../dc/d6d/classjavolution_1_1text_1_1Text.html#a29d88e2c5e0fe812c983600d26d72f3d" target="_top" xlink:title=" ">
<polygon fill="white" stroke="black" points="186,-258.5 186,-277.5 336,-277.5 336,-258.5 186,-258.5"/>
<text text-anchor="middle" x="261" y="-265.5" font-family="Helvetica,sans-Serif" font-size="10.00">javolution.text.Text.replace</text>
</a>
</g>
</g>
<!-- Node1&#45;&gt;Node11 -->
<g id="edge17" class="edge">
<title>Node1&#45;&gt;Node11</title>
<path fill="none" stroke="midnightblue" d="M150.04,-268C158.51,-268 167.19,-268 175.78,-268"/>
<polygon fill="midnightblue" stroke="midnightblue" points="175.81,-271.5 185.81,-268 175.81,-264.5 175.81,-271.5"/>
</g>
<!-- Node13 -->
<g id="node13" class="node">
<title>Node13</title>
<g id="a_node13"><a xlink:href="../../dc/d6d/classjavolution_1_1text_1_1Text.html#a92855be8cd5c93d0c7de87fbb4656630" target="_top" xlink:title=" ">
<polygon fill="white" stroke="black" points="372.5,-314.5 372.5,-333.5 523.5,-333.5 523.5,-314.5 372.5,-314.5"/>
<text text-anchor="middle" x="448" y="-321.5" font-family="Helvetica,sans-Serif" font-size="10.00">javolution.text.Text.subtext</text>
</a>
</g>
</g>
<!-- Node1&#45;&gt;Node13 -->
<g id="edge28" class="edge">
<title>Node1&#45;&gt;Node13</title>
<path fill="none" stroke="midnightblue" d="M98.71,-277.52C120.64,-286.26 154.99,-298.76 186,-305 244.15,-316.7 310.86,-321.41 362.29,-323.21"/>
<polygon fill="midnightblue" stroke="midnightblue" points="362.25,-326.71 372.36,-323.54 362.48,-319.72 362.25,-326.71"/>
</g>
<!-- Node14 -->
<g id="node14" class="node">
<title>Node14</title>
<g id="a_node14"><a xlink:href="../../dc/d6d/classjavolution_1_1text_1_1Text.html#ac51238a5b10c199fc942f17c6a2c94c5" target="_top" xlink:title=" ">
<polygon fill="white" stroke="black" points="372,-38.5 372,-57.5 524,-57.5 524,-38.5 372,-38.5"/>
<text text-anchor="middle" x="448" y="-45.5" font-family="Helvetica,sans-Serif" font-size="10.00">javolution.text.Text.valueOf</text>
</a>
</g>
</g>
<!-- Node1&#45;&gt;Node14 -->
<g id="edge29" class="edge">
<title>Node1&#45;&gt;Node14</title>
<path fill="none" stroke="midnightblue" d="M92.42,-258.26C151.2,-223.41 351.4,-104.69 422.06,-62.79"/>
<polygon fill="midnightblue" stroke="midnightblue" points="423.95,-65.74 430.77,-57.62 420.38,-59.71 423.95,-65.74"/>
</g>
<!-- Node2&#45;&gt;Node2 -->
<g id="edge2" class="edge">
<title>Node2&#45;&gt;Node2</title>
<path fill="none" stroke="midnightblue" d="M419.33,-239.76C405.39,-248.57 414.94,-258 448,-258 470.73,-258 482.35,-253.54 482.86,-247.89"/>
<polygon fill="midnightblue" stroke="midnightblue" points="485.51,-245.6 476.67,-239.76 479.94,-249.83 485.51,-245.6"/>
</g>
<!-- Node3 -->
<g id="node3" class="node">
<title>Node3</title>
<g id="a_node3"><a xlink:href="../../dc/d6d/classjavolution_1_1text_1_1Text.html#a5ebc6a09946ae53d0f4ef5ace0831bc2" target="_top" xlink:title=" ">
<polygon fill="white" stroke="black" points="587,-77 587,-107 717,-107 717,-77 587,-77"/>
<text text-anchor="start" x="595" y="-95" font-family="Helvetica,sans-Serif" font-size="10.00">javolution.text.Text.get</text>
<text text-anchor="middle" x="652" y="-84" font-family="Helvetica,sans-Serif" font-size="10.00">Chars</text>
</a>
</g>
</g>
<!-- Node2&#45;&gt;Node3 -->
<g id="edge3" class="edge">
<title>Node2&#45;&gt;Node3</title>
<path fill="none" stroke="midnightblue" d="M458.35,-220.26C476.57,-201.68 518.67,-160.65 560,-134 573.32,-125.41 588.67,-117.62 602.93,-111.15"/>
<polygon fill="midnightblue" stroke="midnightblue" points="604.38,-114.33 612.11,-107.09 601.55,-107.93 604.38,-114.33"/>
</g>
<!-- Node4 -->
<g id="node4" class="node">
<title>Node4</title>
<g id="a_node4"><a xlink:href="../../dc/d6d/classjavolution_1_1text_1_1Text.html#a5545cd98010d50156e8f48b5112c22a3" target="_top" xlink:title=" ">
<polygon fill="white" stroke="black" points="587,-193 587,-223 717,-223 717,-193 587,-193"/>
<text text-anchor="start" x="595" y="-211" font-family="Helvetica,sans-Serif" font-size="10.00">javolution.text.Text.left</text>
<text text-anchor="middle" x="652" y="-200" font-family="Helvetica,sans-Serif" font-size="10.00">Rotation</text>
</a>
</g>
</g>
<!-- Node2&#45;&gt;Node4 -->
<g id="edge5" class="edge">
<title>Node2&#45;&gt;Node4</title>
<path fill="none" stroke="midnightblue" d="M521.07,-222.15C539.14,-220.18 558.56,-218.07 576.73,-216.09"/>
<polygon fill="midnightblue" stroke="midnightblue" points="577.12,-219.57 586.68,-215 576.36,-212.61 577.12,-219.57"/>
</g>
<!-- Node5 -->
<g id="node5" class="node">
<title>Node5</title>
<g id="a_node5"><a xlink:href="../../dc/d6d/classjavolution_1_1text_1_1Text.html#a71b1cf384add94cc256ab5e07b410702" target="_top" xlink:title=" ">
<polygon fill="white" stroke="black" points="807.5,-215 807.5,-245 941.5,-245 941.5,-215 807.5,-215"/>
<text text-anchor="start" x="815.5" y="-233" font-family="Helvetica,sans-Serif" font-size="10.00">javolution.text.Text.new</text>
<text text-anchor="middle" x="874.5" y="-222" font-family="Helvetica,sans-Serif" font-size="10.00">Composite</text>
</a>
</g>
</g>
<!-- Node2&#45;&gt;Node5 -->
<g id="edge9" class="edge">
<title>Node2&#45;&gt;Node5</title>
<path fill="none" stroke="midnightblue" d="M521.24,-232.24C534.15,-232.55 547.47,-232.83 560,-233 641.77,-234.1 662.23,-233.95 744,-233 761.2,-232.8 779.68,-232.45 797.15,-232.06"/>
<polygon fill="midnightblue" stroke="midnightblue" points="797.38,-235.56 807.29,-231.83 797.21,-228.56 797.38,-235.56"/>
</g>
<!-- Node7 -->
<g id="node7" class="node">
<title>Node7</title>
<g id="a_node7"><a xlink:href="../../dc/d6d/classjavolution_1_1text_1_1Text.html#ae20f0d750950188da8be25b4aa950895" target="_top" xlink:title=" ">
<polygon fill="white" stroke="black" points="802,-349.5 802,-368.5 947,-368.5 947,-349.5 802,-349.5"/>
<text text-anchor="middle" x="874.5" y="-356.5" font-family="Helvetica,sans-Serif" font-size="10.00">javolution.text.Text.length</text>
</a>
</g>
</g>
<!-- Node2&#45;&gt;Node7 -->
<g id="edge8" class="edge">
<title>Node2&#45;&gt;Node7</title>
<path fill="none" stroke="midnightblue" d="M476.74,-239.6C491.87,-245.78 510.25,-254.93 524,-267 545.67,-286.03 535.44,-305.88 560,-321 579.37,-332.92 705.34,-345.35 791.58,-352.63"/>
<polygon fill="midnightblue" stroke="midnightblue" points="791.37,-356.12 801.63,-353.46 791.95,-349.14 791.37,-356.12"/>
</g>
<!-- Node8 -->
<g id="node8" class="node">
<title>Node8</title>
<g id="a_node8"><a xlink:href="../../dc/d6d/classjavolution_1_1text_1_1Text.html#a2f1c719dbe335c77cfaf05795f807c13" target="_top" xlink:title=" ">
<polygon fill="white" stroke="black" points="585,-281 585,-311 719,-311 719,-281 585,-281"/>
<text text-anchor="start" x="593" y="-299" font-family="Helvetica,sans-Serif" font-size="10.00">javolution.text.Text.new</text>
<text text-anchor="middle" x="652" y="-288" font-family="Helvetica,sans-Serif" font-size="10.00">Primitive</text>
</a>
</g>
</g>
<!-- Node2&#45;&gt;Node8 -->
<g id="edge10" class="edge">
<title>Node2&#45;&gt;Node8</title>
<path fill="none" stroke="midnightblue" d="M478.37,-239.6C508.81,-249.54 557.12,-265.33 594.91,-277.67"/>
<polygon fill="midnightblue" stroke="midnightblue" points="594.17,-281.11 604.76,-280.89 596.34,-274.46 594.17,-281.11"/>
</g>
<!-- Node9 -->
<g id="node9" class="node">
<title>Node9</title>
<g id="a_node9"><a xlink:href="../../dc/d6d/classjavolution_1_1text_1_1Text.html#a8f432b9cedb3d9d2a05eb9688ecb6ebc" target="_top" xlink:title=" ">
<polygon fill="white" stroke="black" points="583.5,-144 583.5,-174 720.5,-174 720.5,-144 583.5,-144"/>
<text text-anchor="start" x="591.5" y="-162" font-family="Helvetica,sans-Serif" font-size="10.00">javolution.text.Text.right</text>
<text text-anchor="middle" x="652" y="-151" font-family="Helvetica,sans-Serif" font-size="10.00">Rotation</text>
</a>
</g>
</g>
<!-- Node2&#45;&gt;Node9 -->
<g id="edge13" class="edge">
<title>Node2&#45;&gt;Node9</title>
<path fill="none" stroke="midnightblue" d="M469.98,-220.38C492.08,-210.47 528.04,-194.97 560,-184 567.11,-181.56 574.6,-179.19 582.1,-176.95"/>
<polygon fill="midnightblue" stroke="midnightblue" points="583.31,-180.24 591.93,-174.07 581.35,-173.52 583.31,-180.24"/>
</g>
<!-- Node3&#45;&gt;Node3 -->
<g id="edge4" class="edge">
<title>Node3&#45;&gt;Node3</title>
<path fill="none" stroke="midnightblue" d="M616.45,-107.16C607.88,-116.56 619.73,-125.5 652,-125.5 671.67,-125.5 683.75,-122.18 688.25,-117.46"/>
<polygon fill="midnightblue" stroke="midnightblue" points="691.72,-116.9 687.55,-107.16 684.73,-117.37 691.72,-116.9"/>
</g>
<!-- Node4&#45;&gt;Node5 -->
<g id="edge6" class="edge">
<title>Node4&#45;&gt;Node5</title>
<path fill="none" stroke="midnightblue" d="M717.07,-214.39C742.11,-216.89 771.02,-219.77 797.12,-222.38"/>
<polygon fill="midnightblue" stroke="midnightblue" points="797.05,-225.89 807.35,-223.4 797.75,-218.92 797.05,-225.89"/>
</g>
<!-- Node6 -->
<g id="node6" class="node">
<title>Node6</title>
<g id="a_node6"><a xlink:href="../../dc/d6d/classjavolution_1_1text_1_1Text.html#ad23b912b5d8c43b6620281af8d0f93d3" target="_top" xlink:title=" ">
<polygon fill="white" stroke="black" points="1005,-264.5 1005,-283.5 1139,-283.5 1139,-264.5 1005,-264.5"/>
<text text-anchor="middle" x="1072" y="-271.5" font-family="Helvetica,sans-Serif" font-size="10.00">javolution.text.Text.Text</text>
</a>
</g>
</g>
<!-- Node5&#45;&gt;Node6 -->
<g id="edge7" class="edge">
<title>Node5&#45;&gt;Node6</title>
<path fill="none" stroke="midnightblue" d="M941.69,-244.9C966.79,-250.55 995.01,-256.9 1018.66,-262.22"/>
<polygon fill="midnightblue" stroke="midnightblue" points="1017.97,-265.65 1028.5,-264.43 1019.51,-258.82 1017.97,-265.65"/>
</g>
<!-- Node8&#45;&gt;Node6 -->
<g id="edge12" class="edge">
<title>Node8&#45;&gt;Node6</title>
<path fill="none" stroke="midnightblue" d="M719.23,-292.51C794.03,-288.58 915.56,-282.18 994.38,-278.03"/>
<polygon fill="midnightblue" stroke="midnightblue" points="994.93,-281.51 1004.73,-277.49 994.56,-274.52 994.93,-281.51"/>
</g>
<!-- Node8&#45;&gt;Node7 -->
<g id="edge11" class="edge">
<title>Node8&#45;&gt;Node7</title>
<path fill="none" stroke="midnightblue" d="M705.54,-311.01C743.73,-321.92 794.78,-336.51 830.54,-346.73"/>
<polygon fill="midnightblue" stroke="midnightblue" points="829.62,-350.1 840.2,-349.49 831.55,-343.37 829.62,-350.1"/>
</g>
<!-- Node9&#45;&gt;Node5 -->
<g id="edge14" class="edge">
<title>Node9&#45;&gt;Node5</title>
<path fill="none" stroke="midnightblue" d="M710.47,-174.1C721.63,-177.23 733.22,-180.61 744,-184 770.6,-192.37 799.91,-202.68 823.91,-211.43"/>
<polygon fill="midnightblue" stroke="midnightblue" points="822.91,-214.79 833.51,-214.94 825.32,-208.21 822.91,-214.79"/>
</g>
<!-- Node10&#45;&gt;Node7 -->
<g id="edge16" class="edge">
<title>Node10&#45;&gt;Node7</title>
<path fill="none" stroke="midnightblue" d="M331.53,-390.75C425.29,-388.72 597.42,-383.8 744,-373 759.45,-371.86 775.9,-370.33 791.71,-368.7"/>
<polygon fill="midnightblue" stroke="midnightblue" points="792.42,-372.14 802,-367.61 791.68,-365.18 792.42,-372.14"/>
</g>
<!-- Node11&#45;&gt;Node2 -->
<g id="edge18" class="edge">
<title>Node11&#45;&gt;Node2</title>
<path fill="none" stroke="midnightblue" d="M308.68,-258.41C333.65,-253.28 364.56,-246.93 390.83,-241.54"/>
<polygon fill="midnightblue" stroke="midnightblue" points="391.56,-244.96 400.65,-239.52 390.15,-238.1 391.56,-244.96"/>
</g>
<!-- Node11&#45;&gt;Node11 -->
<g id="edge20" class="edge">
<title>Node11&#45;&gt;Node11</title>
<path fill="none" stroke="midnightblue" d="M232.33,-277.76C218.39,-286.57 227.94,-296 261,-296 283.73,-296 295.35,-291.54 295.86,-285.89"/>
<polygon fill="midnightblue" stroke="midnightblue" points="298.51,-283.6 289.67,-277.76 292.94,-287.83 298.51,-283.6"/>
</g>
<!-- Node12 -->
<g id="node12" class="node">
<title>Node12</title>
<g id="a_node12"><a xlink:href="../../dc/d6d/classjavolution_1_1text_1_1Text.html#a9cecbcde5f84d0feff969eaeb4f90af6" target="_top" xlink:title=" ">
<polygon fill="white" stroke="black" points="372,-276.5 372,-295.5 524,-295.5 524,-276.5 372,-276.5"/>
<text text-anchor="middle" x="448" y="-283.5" font-family="Helvetica,sans-Serif" font-size="10.00">javolution.text.Text.indexOf</text>
</a>
</g>
</g>
<!-- Node11&#45;&gt;Node12 -->
<g id="edge19" class="edge">
<title>Node11&#45;&gt;Node12</title>
<path fill="none" stroke="midnightblue" d="M336.18,-275.22C344.63,-276.04 353.3,-276.88 361.88,-277.72"/>
<polygon fill="midnightblue" stroke="midnightblue" points="361.61,-281.21 371.9,-278.69 362.28,-274.24 361.61,-281.21"/>
</g>
<!-- Node11&#45;&gt;Node13 -->
<g id="edge21" class="edge">
<title>Node11&#45;&gt;Node13</title>
<path fill="none" stroke="midnightblue" d="M288.49,-277.54C310.66,-285.38 343.2,-296.52 372,-305 380.06,-307.37 388.65,-309.72 397.04,-311.91"/>
<polygon fill="midnightblue" stroke="midnightblue" points="396.2,-315.31 406.76,-314.41 397.94,-308.53 396.2,-315.31"/>
</g>
<!-- Node11&#45;&gt;Node14 -->
<g id="edge23" class="edge">
<title>Node11&#45;&gt;Node14</title>
<path fill="none" stroke="midnightblue" d="M270.19,-258.26C298.9,-224.12 395.29,-109.5 432.33,-65.45"/>
<polygon fill="midnightblue" stroke="midnightblue" points="435.15,-67.53 438.91,-57.62 429.79,-63.03 435.15,-67.53"/>
</g>
<!-- Node13&#45;&gt;Node7 -->
<g id="edge22" class="edge">
<title>Node13&#45;&gt;Node7</title>
<path fill="none" stroke="midnightblue" d="M476.88,-333.6C499.1,-340.75 531.14,-349.93 560,-354 637.99,-364.99 727.97,-365.15 791.47,-363.22"/>
<polygon fill="midnightblue" stroke="midnightblue" points="791.95,-366.7 801.83,-362.88 791.72,-359.71 791.95,-366.7"/>
</g>
<!-- Node15 -->
<g id="node15" class="node">
<title>Node15</title>
<g id="a_node15"><a xlink:href="../../d2/d7a/classjavolution_1_1text_1_1TextBuilder.html#a5b6d5e22b7b33b3188569bbaf6112c95" target="_top" xlink:title=" ">
<polygon fill="white" stroke="black" points="560,-38.5 560,-57.5 744,-57.5 744,-38.5 560,-38.5"/>
<text text-anchor="middle" x="652" y="-45.5" font-family="Helvetica,sans-Serif" font-size="10.00">javolution.text.TextBuilder.append</text>
</a>
</g>
</g>
<!-- Node14&#45;&gt;Node15 -->
<g id="edge24" class="edge">
<title>Node14&#45;&gt;Node15</title>
<path fill="none" stroke="midnightblue" d="M524.22,-48C532.52,-48 541.07,-48 549.63,-48"/>
<polygon fill="midnightblue" stroke="midnightblue" points="549.66,-51.5 559.66,-48 549.66,-44.5 549.66,-51.5"/>
</g>
<!-- Node17 -->
<g id="node17" class="node">
<title>Node17</title>
<g id="a_node17"><a xlink:href="../../d2/d7a/classjavolution_1_1text_1_1TextBuilder.html#ab4f4039de4ba13421b725da699b02f58" target="_top" xlink:title=" ">
<polygon fill="white" stroke="black" points="563,-0.5 563,-19.5 741,-19.5 741,-0.5 563,-0.5"/>
<text text-anchor="middle" x="652" y="-7.5" font-family="Helvetica,sans-Serif" font-size="10.00">javolution.text.TextBuilder.toText</text>
</a>
</g>
</g>
<!-- Node14&#45;&gt;Node17 -->
<g id="edge26" class="edge">
<title>Node14&#45;&gt;Node17</title>
<path fill="none" stroke="midnightblue" d="M474.99,-38.41C495.48,-33.11 525.4,-26.8 554.78,-21.36"/>
<polygon fill="midnightblue" stroke="midnightblue" points="555.5,-24.78 564.71,-19.55 554.24,-17.9 555.5,-24.78"/>
</g>
<!-- Node16 -->
<g id="node16" class="node">
<title>Node16</title>
<g id="a_node16"><a xlink:href="../../d2/d7a/classjavolution_1_1text_1_1TextBuilder.html#a6d79c3b6adfe6c04f80f940904d181b4" target="_top" xlink:title=" ">
<polygon fill="white" stroke="black" points="780,-33 780,-63 969,-63 969,-33 780,-33"/>
<text text-anchor="start" x="788" y="-51" font-family="Helvetica,sans-Serif" font-size="10.00">javolution.text.TextBuilder.increase</text>
<text text-anchor="middle" x="874.5" y="-40" font-family="Helvetica,sans-Serif" font-size="10.00">Capacity</text>
</a>
</g>
</g>
<!-- Node15&#45;&gt;Node16 -->
<g id="edge25" class="edge">
<title>Node15&#45;&gt;Node16</title>
<path fill="none" stroke="midnightblue" d="M744.28,-48C752.62,-48 761.1,-48 769.54,-48"/>
<polygon fill="midnightblue" stroke="midnightblue" points="769.8,-51.5 779.8,-48 769.8,-44.5 769.8,-51.5"/>
</g>
<!-- Node17&#45;&gt;Node14 -->
<g id="edge27" class="edge">
<title>Node17&#45;&gt;Node14</title>
<path fill="none" stroke="midnightblue" d="M625.07,-19.58C602.03,-25.54 567.03,-32.78 534.29,-38.63"/>
<polygon fill="midnightblue" stroke="midnightblue" points="533.46,-35.22 524.22,-40.4 534.67,-42.12 533.46,-35.22"/>
</g>
</g>
</svg>
