<?xml version="1.0" encoding="UTF-8" standalone="no"?>
<!DOCTYPE svg PUBLIC "-//W3C//DTD SVG 1.1//EN"
 "http://www.w3.org/Graphics/SVG/1.1/DTD/svg11.dtd">
<!-- Generated by graphviz version 2.43.0 (0)
 -->
<!-- Title: javolution.text.Text.replace Pages: 1 -->
<!--zoomable 374 -->
<svg id="main" version="1.1" xmlns="http://www.w3.org/2000/svg" xmlns:xlink="http://www.w3.org/1999/xlink" xml:space="preserve" onload="init(evt)">
<style type="text/css"><![CDATA[
.edge:hover path { stroke: red; }
.edge:hover polygon { stroke: red; fill: red; }
]]></style>
<script type="text/javascript"><![CDATA[
var edges = document.getElementsByTagName('g');
if (edges && edges.length) {
  for (var i=0;i<edges.length;i++) {
    if (edges[i].id.substr(0,4)=='edge') {
      edges[i].setAttribute('class','edge');
    }
  }
}
]]></script>
        <defs>
                <circle id="rim" cx="0" cy="0" r="7"/>
                <circle id="rim2" cx="0" cy="0" r="3.5"/>
                <g id="zoomPlus">
                        <use xlink:href="#rim" fill="#404040">
                                <set attributeName="fill" to="#808080" begin="zoomplus.mouseover" end="zoomplus.mouseout"/>
                        </use>
                        <path d="M-4,0h8M0,-4v8" fill="none" stroke="white" stroke-width="1.5" pointer-events="none"/>
                </g>
                <g id="zoomMin">
                        <use xlink:href="#rim" fill="#404040">
                                <set attributeName="fill" to="#808080" begin="zoomminus.mouseover" end="zoomminus.mouseout"/>
                        </use>
                        <path d="M-4,0h8" fill="none" stroke="white" stroke-width="1.5" pointer-events="none"/>
                </g>
                <g id="dirArrow">
                        <path fill="none" stroke="white" stroke-width="1.5" d="M0,-3.0v7 M-2.5,-0.5L0,-3.0L2.5,-0.5"/>
                </g>
               <g id="resetDef">
                       <use xlink:href="#rim2" fill="#404040">
                               <set attributeName="fill" to="#808080" begin="reset.mouseover" end="reset.mouseout"/>
                       </use>
               </g>
        </defs>

<script type="text/javascript">
var viewWidth = 961;
var viewHeight = 374;
var sectionId = 'dynsection-59';
</script>
<script xlink:href="../../svgpan.js"/>
<svg id="graph" class="graph">
<g id="viewport">
<title>javolution.text.Text.replace</title>
<polygon fill="white" stroke="transparent" points="-4,4 -4,-369.5 957,-369.5 957,4 -4,4"/>
<!-- Node1 -->
<g id="node1" class="node">
<title>Node1</title>
<g id="a_node1"><a xlink:title=" ">
<polygon fill="#bfbfbf" stroke="black" points="0,-228 0,-247 150,-247 150,-228 0,-228"/>
<text text-anchor="middle" x="75" y="-235" font-family="Helvetica,sans-Serif" font-size="10.00">javolution.text.Text.replace</text>
</a>
</g>
</g>
<!-- Node1&#45;&gt;Node1 -->
<g id="edge16" class="edge">
<title>Node1&#45;&gt;Node1</title>
<path fill="none" stroke="midnightblue" d="M46.33,-247.26C32.39,-256.07 41.94,-265.5 75,-265.5 97.73,-265.5 109.35,-261.04 109.86,-255.39"/>
<polygon fill="midnightblue" stroke="midnightblue" points="112.51,-253.1 103.67,-247.26 106.94,-257.33 112.51,-253.1"/>
</g>
<!-- Node2 -->
<g id="node2" class="node">
<title>Node2</title>
<g id="a_node2"><a xlink:href="../../dc/d6d/classjavolution_1_1text_1_1Text.html#a8b3994e5aae2b7d193a409d82333f86f" target="_top" xlink:title=" ">
<polygon fill="white" stroke="black" points="189,-200 189,-219 335,-219 335,-200 189,-200"/>
<text text-anchor="middle" x="262" y="-207" font-family="Helvetica,sans-Serif" font-size="10.00">javolution.text.Text.concat</text>
</a>
</g>
</g>
<!-- Node1&#45;&gt;Node2 -->
<g id="edge1" class="edge">
<title>Node1&#45;&gt;Node2</title>
<path fill="none" stroke="midnightblue" d="M138.89,-227.98C154.68,-225.59 171.75,-223.01 187.99,-220.55"/>
<polygon fill="midnightblue" stroke="midnightblue" points="188.61,-224 197.97,-219.04 187.56,-217.08 188.61,-224"/>
</g>
<!-- Node10 -->
<g id="node10" class="node">
<title>Node10</title>
<g id="a_node10"><a xlink:href="../../dc/d6d/classjavolution_1_1text_1_1Text.html#a9cecbcde5f84d0feff969eaeb4f90af6" target="_top" xlink:title=" ">
<polygon fill="white" stroke="black" points="186,-256 186,-275 338,-275 338,-256 186,-256"/>
<text text-anchor="middle" x="262" y="-263" font-family="Helvetica,sans-Serif" font-size="10.00">javolution.text.Text.indexOf</text>
</a>
</g>
</g>
<!-- Node1&#45;&gt;Node10 -->
<g id="edge15" class="edge">
<title>Node1&#45;&gt;Node10</title>
<path fill="none" stroke="midnightblue" d="M138.89,-247.02C154.68,-249.41 171.75,-251.99 187.99,-254.45"/>
<polygon fill="midnightblue" stroke="midnightblue" points="187.56,-257.92 197.97,-255.96 188.61,-251 187.56,-257.92"/>
</g>
<!-- Node11 -->
<g id="node11" class="node">
<title>Node11</title>
<g id="a_node11"><a xlink:href="../../dc/d6d/classjavolution_1_1text_1_1Text.html#a92855be8cd5c93d0c7de87fbb4656630" target="_top" xlink:title=" ">
<polygon fill="white" stroke="black" points="186.5,-346 186.5,-365 337.5,-365 337.5,-346 186.5,-346"/>
<text text-anchor="middle" x="262" y="-353" font-family="Helvetica,sans-Serif" font-size="10.00">javolution.text.Text.subtext</text>
</a>
</g>
</g>
<!-- Node1&#45;&gt;Node11 -->
<g id="edge17" class="edge">
<title>Node1&#45;&gt;Node11</title>
<path fill="none" stroke="midnightblue" d="M91.14,-247.16C123.34,-267.69 198.8,-315.83 237.38,-340.44"/>
<polygon fill="midnightblue" stroke="midnightblue" points="235.6,-343.45 245.91,-345.88 239.36,-337.55 235.6,-343.45"/>
</g>
<!-- Node12 -->
<g id="node12" class="node">
<title>Node12</title>
<g id="a_node12"><a xlink:href="../../dc/d6d/classjavolution_1_1text_1_1Text.html#ac51238a5b10c199fc942f17c6a2c94c5" target="_top" xlink:title=" ">
<polygon fill="white" stroke="black" points="186,-44 186,-63 338,-63 338,-44 186,-44"/>
<text text-anchor="middle" x="262" y="-51" font-family="Helvetica,sans-Serif" font-size="10.00">javolution.text.Text.valueOf</text>
</a>
</g>
</g>
<!-- Node1&#45;&gt;Node12 -->
<g id="edge19" class="edge">
<title>Node1&#45;&gt;Node12</title>
<path fill="none" stroke="midnightblue" d="M85.69,-227.87C115.53,-198.18 206.35,-107.85 244.18,-70.23"/>
<polygon fill="midnightblue" stroke="midnightblue" points="246.79,-72.57 251.41,-63.04 241.85,-67.61 246.79,-72.57"/>
</g>
<!-- Node2&#45;&gt;Node2 -->
<g id="edge2" class="edge">
<title>Node2&#45;&gt;Node2</title>
<path fill="none" stroke="midnightblue" d="M233.33,-219.26C219.39,-228.07 228.94,-237.5 262,-237.5 284.73,-237.5 296.35,-233.04 296.86,-227.39"/>
<polygon fill="midnightblue" stroke="midnightblue" points="299.51,-225.1 290.67,-219.26 293.94,-229.33 299.51,-225.1"/>
</g>
<!-- Node3 -->
<g id="node3" class="node">
<title>Node3</title>
<g id="a_node3"><a xlink:href="../../dc/d6d/classjavolution_1_1text_1_1Text.html#a5ebc6a09946ae53d0f4ef5ace0831bc2" target="_top" xlink:title=" ">
<polygon fill="white" stroke="black" points="401,-219.5 401,-249.5 531,-249.5 531,-219.5 401,-219.5"/>
<text text-anchor="start" x="409" y="-237.5" font-family="Helvetica,sans-Serif" font-size="10.00">javolution.text.Text.get</text>
<text text-anchor="middle" x="466" y="-226.5" font-family="Helvetica,sans-Serif" font-size="10.00">Chars</text>
</a>
</g>
</g>
<!-- Node2&#45;&gt;Node3 -->
<g id="edge3" class="edge">
<title>Node2&#45;&gt;Node3</title>
<path fill="none" stroke="midnightblue" d="M335.07,-218.42C353.14,-220.66 372.56,-223.06 390.73,-225.31"/>
<polygon fill="midnightblue" stroke="midnightblue" points="390.33,-228.79 400.68,-226.54 391.19,-221.84 390.33,-228.79"/>
</g>
<!-- Node4 -->
<g id="node4" class="node">
<title>Node4</title>
<g id="a_node4"><a xlink:href="../../dc/d6d/classjavolution_1_1text_1_1Text.html#a5545cd98010d50156e8f48b5112c22a3" target="_top" xlink:title=" ">
<polygon fill="white" stroke="black" points="401,-170.5 401,-200.5 531,-200.5 531,-170.5 401,-170.5"/>
<text text-anchor="start" x="409" y="-188.5" font-family="Helvetica,sans-Serif" font-size="10.00">javolution.text.Text.left</text>
<text text-anchor="middle" x="466" y="-177.5" font-family="Helvetica,sans-Serif" font-size="10.00">Rotation</text>
</a>
</g>
</g>
<!-- Node2&#45;&gt;Node4 -->
<g id="edge5" class="edge">
<title>Node2&#45;&gt;Node4</title>
<path fill="none" stroke="midnightblue" d="M335.07,-200.94C353.14,-198.79 372.56,-196.48 390.73,-194.32"/>
<polygon fill="midnightblue" stroke="midnightblue" points="391.16,-197.8 400.68,-193.14 390.34,-190.85 391.16,-197.8"/>
</g>
<!-- Node5 -->
<g id="node5" class="node">
<title>Node5</title>
<g id="a_node5"><a xlink:href="../../dc/d6d/classjavolution_1_1text_1_1Text.html#a71b1cf384add94cc256ab5e07b410702" target="_top" xlink:title=" ">
<polygon fill="white" stroke="black" points="621.5,-148.5 621.5,-178.5 755.5,-178.5 755.5,-148.5 621.5,-148.5"/>
<text text-anchor="start" x="629.5" y="-166.5" font-family="Helvetica,sans-Serif" font-size="10.00">javolution.text.Text.new</text>
<text text-anchor="middle" x="688.5" y="-155.5" font-family="Helvetica,sans-Serif" font-size="10.00">Composite</text>
</a>
</g>
</g>
<!-- Node2&#45;&gt;Node5 -->
<g id="edge9" class="edge">
<title>Node2&#45;&gt;Node5</title>
<path fill="none" stroke="midnightblue" d="M279.22,-199.96C300.24,-188.19 338.43,-168.86 374,-161.5 453.68,-145.01 547.22,-148.46 611.25,-154.19"/>
<polygon fill="midnightblue" stroke="midnightblue" points="610.98,-157.68 621.26,-155.12 611.63,-150.71 610.98,-157.68"/>
</g>
<!-- Node7 -->
<g id="node7" class="node">
<title>Node7</title>
<g id="a_node7"><a xlink:href="../../dc/d6d/classjavolution_1_1text_1_1Text.html#ae20f0d750950188da8be25b4aa950895" target="_top" xlink:title=" ">
<polygon fill="white" stroke="black" points="616,-336 616,-355 761,-355 761,-336 616,-336"/>
<text text-anchor="middle" x="688.5" y="-343" font-family="Helvetica,sans-Serif" font-size="10.00">javolution.text.Text.length</text>
</a>
</g>
</g>
<!-- Node2&#45;&gt;Node7 -->
<g id="edge8" class="edge">
<title>Node2&#45;&gt;Node7</title>
<path fill="none" stroke="midnightblue" d="M293.77,-219.12C308.66,-225.05 325.9,-233.96 338,-246.5 365.08,-274.55 341.91,-304.35 374,-326.5 410.25,-351.53 525.65,-352.53 605.83,-349.87"/>
<polygon fill="midnightblue" stroke="midnightblue" points="606.04,-353.36 615.91,-349.51 605.79,-346.37 606.04,-353.36"/>
</g>
<!-- Node8 -->
<g id="node8" class="node">
<title>Node8</title>
<g id="a_node8"><a xlink:href="../../dc/d6d/classjavolution_1_1text_1_1Text.html#a2f1c719dbe335c77cfaf05795f807c13" target="_top" xlink:title=" ">
<polygon fill="white" stroke="black" points="399,-286.5 399,-316.5 533,-316.5 533,-286.5 399,-286.5"/>
<text text-anchor="start" x="407" y="-304.5" font-family="Helvetica,sans-Serif" font-size="10.00">javolution.text.Text.new</text>
<text text-anchor="middle" x="466" y="-293.5" font-family="Helvetica,sans-Serif" font-size="10.00">Primitive</text>
</a>
</g>
</g>
<!-- Node2&#45;&gt;Node8 -->
<g id="edge10" class="edge">
<title>Node2&#45;&gt;Node8</title>
<path fill="none" stroke="midnightblue" d="M286.13,-219.08C301.4,-225.84 321.53,-235.6 338,-246.5 355.61,-258.15 355.31,-267.67 374,-277.5 378.79,-280.02 383.86,-282.29 389.07,-284.33"/>
<polygon fill="midnightblue" stroke="midnightblue" points="387.95,-287.65 398.54,-287.77 390.33,-281.07 387.95,-287.65"/>
</g>
<!-- Node9 -->
<g id="node9" class="node">
<title>Node9</title>
<g id="a_node9"><a xlink:href="../../dc/d6d/classjavolution_1_1text_1_1Text.html#a8f432b9cedb3d9d2a05eb9688ecb6ebc" target="_top" xlink:title=" ">
<polygon fill="white" stroke="black" points="397.5,-82.5 397.5,-112.5 534.5,-112.5 534.5,-82.5 397.5,-82.5"/>
<text text-anchor="start" x="405.5" y="-100.5" font-family="Helvetica,sans-Serif" font-size="10.00">javolution.text.Text.right</text>
<text text-anchor="middle" x="466" y="-89.5" font-family="Helvetica,sans-Serif" font-size="10.00">Rotation</text>
</a>
</g>
</g>
<!-- Node2&#45;&gt;Node9 -->
<g id="edge13" class="edge">
<title>Node2&#45;&gt;Node9</title>
<path fill="none" stroke="midnightblue" d="M273.56,-199.86C292.45,-183.08 333.78,-148.3 374,-127.5 382.33,-123.19 391.41,-119.32 400.51,-115.91"/>
<polygon fill="midnightblue" stroke="midnightblue" points="401.72,-119.19 409.95,-112.52 399.36,-112.6 401.72,-119.19"/>
</g>
<!-- Node3&#45;&gt;Node3 -->
<g id="edge4" class="edge">
<title>Node3&#45;&gt;Node3</title>
<path fill="none" stroke="midnightblue" d="M430.45,-249.66C421.88,-259.06 433.73,-268 466,-268 485.67,-268 497.75,-264.68 502.25,-259.96"/>
<polygon fill="midnightblue" stroke="midnightblue" points="505.72,-259.4 501.55,-249.66 498.73,-259.87 505.72,-259.4"/>
</g>
<!-- Node4&#45;&gt;Node5 -->
<g id="edge6" class="edge">
<title>Node4&#45;&gt;Node5</title>
<path fill="none" stroke="midnightblue" d="M531.07,-179.11C556.11,-176.61 585.02,-173.73 611.12,-171.12"/>
<polygon fill="midnightblue" stroke="midnightblue" points="611.75,-174.58 621.35,-170.1 611.05,-167.61 611.75,-174.58"/>
</g>
<!-- Node6 -->
<g id="node6" class="node">
<title>Node6</title>
<g id="a_node6"><a xlink:href="../../dc/d6d/classjavolution_1_1text_1_1Text.html#ad23b912b5d8c43b6620281af8d0f93d3" target="_top" xlink:title=" ">
<polygon fill="white" stroke="black" points="819,-234 819,-253 953,-253 953,-234 819,-234"/>
<text text-anchor="middle" x="886" y="-241" font-family="Helvetica,sans-Serif" font-size="10.00">javolution.text.Text.Text</text>
</a>
</g>
</g>
<!-- Node5&#45;&gt;Node6 -->
<g id="edge7" class="edge">
<title>Node5&#45;&gt;Node6</title>
<path fill="none" stroke="midnightblue" d="M726.27,-178.55C762.41,-193.34 817.07,-215.7 851.89,-229.95"/>
<polygon fill="midnightblue" stroke="midnightblue" points="851.01,-233.37 861.59,-233.92 853.66,-226.89 851.01,-233.37"/>
</g>
<!-- Node8&#45;&gt;Node6 -->
<g id="edge12" class="edge">
<title>Node8&#45;&gt;Node6</title>
<path fill="none" stroke="midnightblue" d="M533.23,-292.31C608.03,-281.93 729.56,-265.07 808.38,-254.13"/>
<polygon fill="midnightblue" stroke="midnightblue" points="809.31,-257.54 818.73,-252.7 808.35,-250.6 809.31,-257.54"/>
</g>
<!-- Node8&#45;&gt;Node7 -->
<g id="edge11" class="edge">
<title>Node8&#45;&gt;Node7</title>
<path fill="none" stroke="midnightblue" d="M533.16,-314.7C563.8,-320.82 599.87,-328.01 629.44,-333.91"/>
<polygon fill="midnightblue" stroke="midnightblue" points="629.12,-337.42 639.61,-335.94 630.49,-330.55 629.12,-337.42"/>
</g>
<!-- Node9&#45;&gt;Node5 -->
<g id="edge14" class="edge">
<title>Node9&#45;&gt;Node5</title>
<path fill="none" stroke="midnightblue" d="M517.31,-112.56C549.93,-122.32 592.62,-135.1 627.08,-145.41"/>
<polygon fill="midnightblue" stroke="midnightblue" points="626.44,-148.88 637.02,-148.39 628.45,-142.17 626.44,-148.88"/>
</g>
<!-- Node11&#45;&gt;Node7 -->
<g id="edge18" class="edge">
<title>Node11&#45;&gt;Node7</title>
<path fill="none" stroke="midnightblue" d="M337.62,-358.56C349.78,-358.95 362.24,-359.29 374,-359.5 455.76,-360.97 476.34,-363.9 558,-359.5 573.37,-358.67 589.73,-357.29 605.46,-355.72"/>
<polygon fill="midnightblue" stroke="midnightblue" points="606.1,-359.17 615.69,-354.66 605.38,-352.21 606.1,-359.17"/>
</g>
<!-- Node13 -->
<g id="node13" class="node">
<title>Node13</title>
<g id="a_node13"><a xlink:href="../../d2/d7a/classjavolution_1_1text_1_1TextBuilder.html#a5b6d5e22b7b33b3188569bbaf6112c95" target="_top" xlink:title=" ">
<polygon fill="white" stroke="black" points="374,-6 374,-25 558,-25 558,-6 374,-6"/>
<text text-anchor="middle" x="466" y="-13" font-family="Helvetica,sans-Serif" font-size="10.00">javolution.text.TextBuilder.append</text>
</a>
</g>
</g>
<!-- Node12&#45;&gt;Node13 -->
<g id="edge20" class="edge">
<title>Node12&#45;&gt;Node13</title>
<path fill="none" stroke="midnightblue" d="M313.71,-43.96C341.21,-38.79 375.38,-32.36 404.28,-26.92"/>
<polygon fill="midnightblue" stroke="midnightblue" points="405.09,-30.33 414.27,-25.04 403.79,-23.45 405.09,-30.33"/>
</g>
<!-- Node15 -->
<g id="node15" class="node">
<title>Node15</title>
<g id="a_node15"><a xlink:href="../../d2/d7a/classjavolution_1_1text_1_1TextBuilder.html#ab4f4039de4ba13421b725da699b02f58" target="_top" xlink:title=" ">
<polygon fill="white" stroke="black" points="377,-44 377,-63 555,-63 555,-44 377,-44"/>
<text text-anchor="middle" x="466" y="-51" font-family="Helvetica,sans-Serif" font-size="10.00">javolution.text.TextBuilder.toText</text>
</a>
</g>
</g>
<!-- Node12&#45;&gt;Node15 -->
<g id="edge22" class="edge">
<title>Node12&#45;&gt;Node15</title>
<path fill="none" stroke="midnightblue" d="M338.22,-46.95C347.44,-46.8 356.98,-46.74 366.48,-46.75"/>
<polygon fill="midnightblue" stroke="midnightblue" points="366.75,-50.25 376.77,-46.8 366.78,-43.25 366.75,-50.25"/>
</g>
<!-- Node14 -->
<g id="node14" class="node">
<title>Node14</title>
<g id="a_node14"><a xlink:href="../../d2/d7a/classjavolution_1_1text_1_1TextBuilder.html#a6d79c3b6adfe6c04f80f940904d181b4" target="_top" xlink:title=" ">
<polygon fill="white" stroke="black" points="594,-0.5 594,-30.5 783,-30.5 783,-0.5 594,-0.5"/>
<text text-anchor="start" x="602" y="-18.5" font-family="Helvetica,sans-Serif" font-size="10.00">javolution.text.TextBuilder.increase</text>
<text text-anchor="middle" x="688.5" y="-7.5" font-family="Helvetica,sans-Serif" font-size="10.00">Capacity</text>
</a>
</g>
</g>
<!-- Node13&#45;&gt;Node14 -->
<g id="edge21" class="edge">
<title>Node13&#45;&gt;Node14</title>
<path fill="none" stroke="midnightblue" d="M558.28,-15.5C566.62,-15.5 575.1,-15.5 583.54,-15.5"/>
<polygon fill="midnightblue" stroke="midnightblue" points="583.8,-19 593.8,-15.5 583.8,-12 583.8,-19"/>
</g>
<!-- Node15&#45;&gt;Node12 -->
<g id="edge23" class="edge">
<title>Node15&#45;&gt;Node12</title>
<path fill="none" stroke="midnightblue" d="M376.77,-60.2C367.33,-60.27 357.74,-60.27 348.33,-60.18"/>
<polygon fill="midnightblue" stroke="midnightblue" points="348.26,-56.68 338.22,-60.05 348.17,-63.68 348.26,-56.68"/>
</g>
</g>
</svg>
        <g id="navigator" transform="translate(0 0)" fill="#404254">
                <rect fill="#f2f5e9" fill-opacity="0.5" stroke="#606060" stroke-width=".5" x="0" y="0" width="60" height="60"/>
                <use id="zoomplus" xlink:href="#zoomPlus" x="17" y="9" onmousedown="handleZoom(evt,'in')"/>
                <use id="zoomminus" xlink:href="#zoomMin" x="42" y="9" onmousedown="handleZoom(evt,'out')"/>
                <use id="reset" xlink:href="#resetDef" x="30" y="36" onmousedown="handleReset()"/>
                <g id="arrowUp" xlink:href="#dirArrow" transform="translate(30 24)" onmousedown="handlePan(0,-1)">
                  <use xlink:href="#rim" fill="#404040">
                        <set attributeName="fill" to="#808080" begin="arrowUp.mouseover" end="arrowUp.mouseout"/>
                  </use>
                  <path fill="none" stroke="white" stroke-width="1.5" d="M0,-3.0v7 M-2.5,-0.5L0,-3.0L2.5,-0.5"/>
                </g>
                <g id="arrowRight" xlink:href="#dirArrow" transform="rotate(90) translate(36 -43)" onmousedown="handlePan(1,0)">
                  <use xlink:href="#rim" fill="#404040">
                        <set attributeName="fill" to="#808080" begin="arrowRight.mouseover" end="arrowRight.mouseout"/>
                  </use>
                  <path fill="none" stroke="white" stroke-width="1.5" d="M0,-3.0v7 M-2.5,-0.5L0,-3.0L2.5,-0.5"/>
                </g>
                <g id="arrowDown" xlink:href="#dirArrow" transform="rotate(180) translate(-30 -48)" onmousedown="handlePan(0,1)">
                  <use xlink:href="#rim" fill="#404040">
                        <set attributeName="fill" to="#808080" begin="arrowDown.mouseover" end="arrowDown.mouseout"/>
                  </use>
                  <path fill="none" stroke="white" stroke-width="1.5" d="M0,-3.0v7 M-2.5,-0.5L0,-3.0L2.5,-0.5"/>
                </g>
                <g id="arrowLeft" xlink:href="#dirArrow" transform="rotate(270) translate(-36 17)" onmousedown="handlePan(-1,0)">
                  <use xlink:href="#rim" fill="#404040">
                        <set attributeName="fill" to="#808080" begin="arrowLeft.mouseover" end="arrowLeft.mouseout"/>
                  </use>
                  <path fill="none" stroke="white" stroke-width="1.5" d="M0,-3.0v7 M-2.5,-0.5L0,-3.0L2.5,-0.5"/>
                </g>
        </g>
        <svg viewBox="0 0 15 15" width="100%" height="30px" preserveAspectRatio="xMaxYMin meet">
         <g id="arrow_out" transform="scale(0.3 0.3)">
          <a xlink:href="classjavolution_1_1text_1_1Text_a29d88e2c5e0fe812c983600d26d72f3d_cgraph_org.svg" target="_base">
           <rect id="button" ry="5" rx="5" y="6" x="6" height="38" width="38"
                fill="#f2f5e9" fill-opacity="0.5" stroke="#606060" stroke-width="1.0"/>
           <path id="arrow"
             d="M 11.500037,31.436501 C 11.940474,20.09759 22.043105,11.32322 32.158766,21.979434 L 37.068811,17.246167 C 37.068811,17.246167 37.088388,32 37.088388,32 L 22.160133,31.978069 C 22.160133,31.978069 26.997745,27.140456 26.997745,27.140456 C 18.528582,18.264221 13.291696,25.230495 11.500037,31.436501 z"
             style="fill:#404040;"/>
          </a>
         </g>
        </svg>
</svg>
