<?xml version="1.0" encoding="UTF-8" standalone="no"?>
<!DOCTYPE svg PUBLIC "-//W3C//DTD SVG 1.1//EN"
 "http://www.w3.org/Graphics/SVG/1.1/DTD/svg11.dtd">
<!-- Generated by graphviz version 2.43.0 (0)
 -->
<!-- Title: javolution.text.Text.indexOfAny Pages: 1 -->
<svg width="335pt" height="78pt"
 viewBox="0.00 0.00 335.00 77.50" xmlns="http://www.w3.org/2000/svg" xmlns:xlink="http://www.w3.org/1999/xlink">
<g id="graph0" class="graph" transform="scale(1 1) rotate(0) translate(4 73.5)">
<title>javolution.text.Text.indexOfAny</title>
<polygon fill="white" stroke="transparent" points="-4,4 -4,-73.5 331,-73.5 331,4 -4,4"/>
<!-- Node1 -->
<g id="node1" class="node">
<title>Node1</title>
<g id="a_node1"><a xlink:title=" ">
<polygon fill="#bfbfbf" stroke="black" points="186,-17 186,-47 327,-47 327,-17 186,-17"/>
<text text-anchor="start" x="194" y="-35" font-family="Helvetica,sans-Serif" font-size="10.00">javolution.text.Text.index</text>
<text text-anchor="middle" x="256.5" y="-24" font-family="Helvetica,sans-Serif" font-size="10.00">OfAny</text>
</a>
</g>
</g>
<!-- Node2 -->
<g id="node2" class="node">
<title>Node2</title>
<g id="a_node2"><a xlink:href="../../dc/d6d/classjavolution_1_1text_1_1Text.html#af27548b87e6c8c24a97f2064ffde36ed" target="_top" xlink:title=" ">
<polygon fill="white" stroke="black" points="4.5,-39 4.5,-69 145.5,-69 145.5,-39 4.5,-39"/>
<text text-anchor="start" x="12.5" y="-57" font-family="Helvetica,sans-Serif" font-size="10.00">javolution.text.Text.index</text>
<text text-anchor="middle" x="75" y="-46" font-family="Helvetica,sans-Serif" font-size="10.00">OfAny</text>
</a>
</g>
</g>
<!-- Node1&#45;&gt;Node2 -->
<g id="edge1" class="edge">
<title>Node1&#45;&gt;Node2</title>
<path fill="none" stroke="midnightblue" d="M175.84,-41.76C165.77,-43 155.52,-44.25 145.62,-45.47"/>
<polygon fill="midnightblue" stroke="midnightblue" points="176.34,-45.23 185.84,-40.54 175.49,-38.28 176.34,-45.23"/>
</g>
<!-- Node3 -->
<g id="node3" class="node">
<title>Node3</title>
<g id="a_node3"><a xlink:href="../../dc/d6d/classjavolution_1_1text_1_1Text.html#af5435eb66177693e5d1379456b9aaa7b" target="_top" xlink:title=" ">
<polygon fill="white" stroke="black" points="0,-0.5 0,-19.5 150,-19.5 150,-0.5 0,-0.5"/>
<text text-anchor="middle" x="75" y="-7.5" font-family="Helvetica,sans-Serif" font-size="10.00">javolution.text.Text.replace</text>
</a>
</g>
</g>
<!-- Node1&#45;&gt;Node3 -->
<g id="edge2" class="edge">
<title>Node1&#45;&gt;Node3</title>
<path fill="none" stroke="midnightblue" d="M175.85,-22.24C167.28,-21.19 158.58,-20.12 150.07,-19.08"/>
<polygon fill="midnightblue" stroke="midnightblue" points="175.49,-25.72 185.84,-23.46 176.34,-18.77 175.49,-25.72"/>
</g>
</g>
</svg>
