<?xml version="1.0" encoding="UTF-8" standalone="no"?>
<!DOCTYPE svg PUBLIC "-//W3C//DTD SVG 1.1//EN"
 "http://www.w3.org/Graphics/SVG/1.1/DTD/svg11.dtd">
<!-- Generated by graphviz version 2.43.0 (0)
 -->
<!-- Title: javolution.text.Text.rightRotation Pages: 1 -->
<!--zoomable 248 -->
<svg id="main" version="1.1" xmlns="http://www.w3.org/2000/svg" xmlns:xlink="http://www.w3.org/1999/xlink" xml:space="preserve" onload="init(evt)">
<style type="text/css"><![CDATA[
.edge:hover path { stroke: red; }
.edge:hover polygon { stroke: red; fill: red; }
]]></style>
<script type="text/javascript"><![CDATA[
var edges = document.getElementsByTagName('g');
if (edges && edges.length) {
  for (var i=0;i<edges.length;i++) {
    if (edges[i].id.substr(0,4)=='edge') {
      edges[i].setAttribute('class','edge');
    }
  }
}
]]></script>
        <defs>
                <circle id="rim" cx="0" cy="0" r="7"/>
                <circle id="rim2" cx="0" cy="0" r="3.5"/>
                <g id="zoomPlus">
                        <use xlink:href="#rim" fill="#404040">
                                <set attributeName="fill" to="#808080" begin="zoomplus.mouseover" end="zoomplus.mouseout"/>
                        </use>
                        <path d="M-4,0h8M0,-4v8" fill="none" stroke="white" stroke-width="1.5" pointer-events="none"/>
                </g>
                <g id="zoomMin">
                        <use xlink:href="#rim" fill="#404040">
                                <set attributeName="fill" to="#808080" begin="zoomminus.mouseover" end="zoomminus.mouseout"/>
                        </use>
                        <path d="M-4,0h8" fill="none" stroke="white" stroke-width="1.5" pointer-events="none"/>
                </g>
                <g id="dirArrow">
                        <path fill="none" stroke="white" stroke-width="1.5" d="M0,-3.0v7 M-2.5,-0.5L0,-3.0L2.5,-0.5"/>
                </g>
               <g id="resetDef">
                       <use xlink:href="#rim2" fill="#404040">
                               <set attributeName="fill" to="#808080" begin="reset.mouseover" end="reset.mouseout"/>
                       </use>
               </g>
        </defs>

<script type="text/javascript">
var viewWidth = 700;
var viewHeight = 248;
var sectionId = 'dynsection-62';
</script>
<script xlink:href="../../svgpan.js"/>
<svg id="graph" class="graph">
<g id="viewport">
<title>javolution.text.Text.rightRotation</title>
<polygon fill="white" stroke="transparent" points="-4,4 -4,-244 696,-244 696,4 -4,4"/>
<!-- Node1 -->
<g id="node1" class="node">
<title>Node1</title>
<g id="a_node1"><a xlink:title=" ">
<polygon fill="#bfbfbf" stroke="black" points="555,-111 555,-141 692,-141 692,-111 555,-111"/>
<text text-anchor="start" x="563" y="-129" font-family="Helvetica,sans-Serif" font-size="10.00">javolution.text.Text.right</text>
<text text-anchor="middle" x="623.5" y="-118" font-family="Helvetica,sans-Serif" font-size="10.00">Rotation</text>
</a>
</g>
</g>
<!-- Node2 -->
<g id="node2" class="node">
<title>Node2</title>
<g id="a_node2"><a xlink:href="../../dc/d6d/classjavolution_1_1text_1_1Text.html#a8b3994e5aae2b7d193a409d82333f86f" target="_top" xlink:title=" ">
<polygon fill="white" stroke="black" points="373,-116.5 373,-135.5 519,-135.5 519,-116.5 373,-116.5"/>
<text text-anchor="middle" x="446" y="-123.5" font-family="Helvetica,sans-Serif" font-size="10.00">javolution.text.Text.concat</text>
</a>
</g>
</g>
<!-- Node1&#45;&gt;Node2 -->
<g id="edge1" class="edge">
<title>Node1&#45;&gt;Node2</title>
<path fill="none" stroke="midnightblue" d="M544.66,-126C536.2,-126 527.62,-126 519.23,-126"/>
<polygon fill="midnightblue" stroke="midnightblue" points="544.9,-129.5 554.9,-126 544.9,-122.5 544.9,-129.5"/>
</g>
<!-- Node2&#45;&gt;Node2 -->
<g id="edge2" class="edge">
<title>Node2&#45;&gt;Node2</title>
<path fill="none" stroke="midnightblue" d="M478.98,-143.89C478.5,-149.54 467.51,-154 446,-154 414.72,-154 405.68,-144.57 418.87,-135.76"/>
<polygon fill="midnightblue" stroke="midnightblue" points="481.81,-141.83 473.13,-135.76 476.13,-145.92 481.81,-141.83"/>
</g>
<!-- Node3 -->
<g id="node3" class="node">
<title>Node3</title>
<g id="a_node3"><a xlink:href="../../dc/d6d/classjavolution_1_1text_1_1Text.html#adcc6b215bbc196426149d1ac61c505d1" target="_top" xlink:title=" ">
<polygon fill="white" stroke="black" points="189,-220.5 189,-239.5 334,-239.5 334,-220.5 189,-220.5"/>
<text text-anchor="middle" x="261.5" y="-227.5" font-family="Helvetica,sans-Serif" font-size="10.00">javolution.text.Text.delete</text>
</a>
</g>
</g>
<!-- Node2&#45;&gt;Node3 -->
<g id="edge3" class="edge">
<title>Node2&#45;&gt;Node3</title>
<path fill="none" stroke="midnightblue" d="M428.19,-142.98C408.17,-162.25 372.92,-193.28 337,-211 329.22,-214.84 320.59,-217.95 312.04,-220.46"/>
<polygon fill="midnightblue" stroke="midnightblue" points="430.87,-145.26 435.55,-135.76 425.96,-140.26 430.87,-145.26"/>
</g>
<!-- Node4 -->
<g id="node4" class="node">
<title>Node4</title>
<g id="a_node4"><a xlink:href="../../dc/d6d/classjavolution_1_1text_1_1Text.html#ae30bf7c893909fbd0e64b4f955000d0f" target="_top" xlink:title=" ">
<polygon fill="white" stroke="black" points="190.5,-182.5 190.5,-201.5 332.5,-201.5 332.5,-182.5 190.5,-182.5"/>
<text text-anchor="middle" x="261.5" y="-189.5" font-family="Helvetica,sans-Serif" font-size="10.00">javolution.text.Text.insert</text>
</a>
</g>
</g>
<!-- Node2&#45;&gt;Node4 -->
<g id="edge4" class="edge">
<title>Node2&#45;&gt;Node4</title>
<path fill="none" stroke="midnightblue" d="M416.27,-140.01C394.79,-150.12 364.51,-163.57 337,-173 326.77,-176.5 315.56,-179.69 305.01,-182.42"/>
<polygon fill="midnightblue" stroke="midnightblue" points="417.94,-143.09 425.47,-135.64 414.94,-136.77 417.94,-143.09"/>
</g>
<!-- Node6 -->
<g id="node6" class="node">
<title>Node6</title>
<g id="a_node6"><a xlink:href="../../dc/d6d/classjavolution_1_1text_1_1Text.html#aef7e50bfcb70206543c4f02cb2c17984" target="_top" xlink:title=" ">
<polygon fill="white" stroke="black" points="195.5,-133 195.5,-163 327.5,-163 327.5,-133 195.5,-133"/>
<text text-anchor="start" x="203.5" y="-151" font-family="Helvetica,sans-Serif" font-size="10.00">javolution.text.Text.pad</text>
<text text-anchor="middle" x="261.5" y="-140" font-family="Helvetica,sans-Serif" font-size="10.00">Right</text>
</a>
</g>
</g>
<!-- Node2&#45;&gt;Node6 -->
<g id="edge6" class="edge">
<title>Node2&#45;&gt;Node6</title>
<path fill="none" stroke="midnightblue" d="M362.62,-135.93C350.88,-137.35 338.94,-138.79 327.59,-140.15"/>
<polygon fill="midnightblue" stroke="midnightblue" points="363.36,-139.37 372.87,-134.69 362.52,-132.42 363.36,-139.37"/>
</g>
<!-- Node7 -->
<g id="node7" class="node">
<title>Node7</title>
<g id="a_node7"><a xlink:href="../../dc/d6d/classjavolution_1_1text_1_1Text.html#a726e13b001235cf751915f150eff9cfe" target="_top" xlink:title=" ">
<polygon fill="white" stroke="black" points="194.5,-94.5 194.5,-113.5 328.5,-113.5 328.5,-94.5 194.5,-94.5"/>
<text text-anchor="middle" x="261.5" y="-101.5" font-family="Helvetica,sans-Serif" font-size="10.00">javolution.text.Text.plus</text>
</a>
</g>
</g>
<!-- Node2&#45;&gt;Node7 -->
<g id="edge7" class="edge">
<title>Node2&#45;&gt;Node7</title>
<path fill="none" stroke="midnightblue" d="M362.9,-116.1C351.47,-114.73 339.85,-113.32 328.77,-111.99"/>
<polygon fill="midnightblue" stroke="midnightblue" points="362.52,-119.58 372.87,-117.31 363.36,-112.63 362.52,-119.58"/>
</g>
<!-- Node8 -->
<g id="node8" class="node">
<title>Node8</title>
<g id="a_node8"><a xlink:href="../../dc/d6d/classjavolution_1_1text_1_1Text.html#a29d88e2c5e0fe812c983600d26d72f3d" target="_top" xlink:title=" ">
<polygon fill="white" stroke="black" points="186.5,-38.5 186.5,-57.5 336.5,-57.5 336.5,-38.5 186.5,-38.5"/>
<text text-anchor="middle" x="261.5" y="-45.5" font-family="Helvetica,sans-Serif" font-size="10.00">javolution.text.Text.replace</text>
</a>
</g>
</g>
<!-- Node2&#45;&gt;Node8 -->
<g id="edge8" class="edge">
<title>Node2&#45;&gt;Node8</title>
<path fill="none" stroke="midnightblue" d="M413.36,-112.48C376.62,-96.77 316.96,-71.28 284.78,-57.52"/>
<polygon fill="midnightblue" stroke="midnightblue" points="412.05,-115.72 422.62,-116.44 414.8,-109.29 412.05,-115.72"/>
</g>
<!-- Node9 -->
<g id="node9" class="node">
<title>Node9</title>
<g id="a_node9"><a xlink:href="../../dc/d6d/classjavolution_1_1text_1_1Text.html#a5c6353e6afab67a3040d2db954074e1a" target="_top" xlink:title=" ">
<polygon fill="white" stroke="black" points="186,-0.5 186,-19.5 337,-19.5 337,-0.5 186,-0.5"/>
<text text-anchor="middle" x="261.5" y="-7.5" font-family="Helvetica,sans-Serif" font-size="10.00">javolution.text.Text.subtext</text>
</a>
</g>
</g>
<!-- Node2&#45;&gt;Node9 -->
<g id="edge10" class="edge">
<title>Node2&#45;&gt;Node9</title>
<path fill="none" stroke="midnightblue" d="M430.44,-108.51C411.27,-86.64 375.46,-49.55 337,-29 329.82,-25.16 321.83,-22.08 313.83,-19.6"/>
<polygon fill="midnightblue" stroke="midnightblue" points="427.99,-111.04 437.16,-116.35 433.31,-106.48 427.99,-111.04"/>
</g>
<!-- Node5 -->
<g id="node5" class="node">
<title>Node5</title>
<g id="a_node5"><a xlink:href="../../dc/d6d/classjavolution_1_1text_1_1Text.html#afd9b654ac4b4c8b162ab3ad07873ad0f" target="_top" xlink:title=" ">
<polygon fill="white" stroke="black" points="0,-182.5 0,-201.5 150,-201.5 150,-182.5 0,-182.5"/>
<text text-anchor="middle" x="75" y="-189.5" font-family="Helvetica,sans-Serif" font-size="10.00">javolution.text.Text.padLeft</text>
</a>
</g>
</g>
<!-- Node4&#45;&gt;Node5 -->
<g id="edge5" class="edge">
<title>Node4&#45;&gt;Node5</title>
<path fill="none" stroke="midnightblue" d="M180.21,-192C170.26,-192 160.12,-192 150.27,-192"/>
<polygon fill="midnightblue" stroke="midnightblue" points="180.49,-195.5 190.49,-192 180.49,-188.5 180.49,-195.5"/>
</g>
<!-- Node8&#45;&gt;Node8 -->
<g id="edge9" class="edge">
<title>Node8&#45;&gt;Node8</title>
<path fill="none" stroke="midnightblue" d="M295.98,-65.89C295.48,-71.54 283.98,-76 261.5,-76 228.8,-76 219.34,-66.57 233.14,-57.76"/>
<polygon fill="midnightblue" stroke="midnightblue" points="298.67,-63.64 289.86,-57.76 293.08,-67.85 298.67,-63.64"/>
</g>
</g>
</svg>
        <g id="navigator" transform="translate(0 0)" fill="#404254">
                <rect fill="#f2f5e9" fill-opacity="0.5" stroke="#606060" stroke-width=".5" x="0" y="0" width="60" height="60"/>
                <use id="zoomplus" xlink:href="#zoomPlus" x="17" y="9" onmousedown="handleZoom(evt,'in')"/>
                <use id="zoomminus" xlink:href="#zoomMin" x="42" y="9" onmousedown="handleZoom(evt,'out')"/>
                <use id="reset" xlink:href="#resetDef" x="30" y="36" onmousedown="handleReset()"/>
                <g id="arrowUp" xlink:href="#dirArrow" transform="translate(30 24)" onmousedown="handlePan(0,-1)">
                  <use xlink:href="#rim" fill="#404040">
                        <set attributeName="fill" to="#808080" begin="arrowUp.mouseover" end="arrowUp.mouseout"/>
                  </use>
                  <path fill="none" stroke="white" stroke-width="1.5" d="M0,-3.0v7 M-2.5,-0.5L0,-3.0L2.5,-0.5"/>
                </g>
                <g id="arrowRight" xlink:href="#dirArrow" transform="rotate(90) translate(36 -43)" onmousedown="handlePan(1,0)">
                  <use xlink:href="#rim" fill="#404040">
                        <set attributeName="fill" to="#808080" begin="arrowRight.mouseover" end="arrowRight.mouseout"/>
                  </use>
                  <path fill="none" stroke="white" stroke-width="1.5" d="M0,-3.0v7 M-2.5,-0.5L0,-3.0L2.5,-0.5"/>
                </g>
                <g id="arrowDown" xlink:href="#dirArrow" transform="rotate(180) translate(-30 -48)" onmousedown="handlePan(0,1)">
                  <use xlink:href="#rim" fill="#404040">
                        <set attributeName="fill" to="#808080" begin="arrowDown.mouseover" end="arrowDown.mouseout"/>
                  </use>
                  <path fill="none" stroke="white" stroke-width="1.5" d="M0,-3.0v7 M-2.5,-0.5L0,-3.0L2.5,-0.5"/>
                </g>
                <g id="arrowLeft" xlink:href="#dirArrow" transform="rotate(270) translate(-36 17)" onmousedown="handlePan(-1,0)">
                  <use xlink:href="#rim" fill="#404040">
                        <set attributeName="fill" to="#808080" begin="arrowLeft.mouseover" end="arrowLeft.mouseout"/>
                  </use>
                  <path fill="none" stroke="white" stroke-width="1.5" d="M0,-3.0v7 M-2.5,-0.5L0,-3.0L2.5,-0.5"/>
                </g>
        </g>
        <svg viewBox="0 0 15 15" width="100%" height="30px" preserveAspectRatio="xMaxYMin meet">
         <g id="arrow_out" transform="scale(0.3 0.3)">
          <a xlink:href="classjavolution_1_1text_1_1Text_a8f432b9cedb3d9d2a05eb9688ecb6ebc_icgraph_org.svg" target="_base">
           <rect id="button" ry="5" rx="5" y="6" x="6" height="38" width="38"
                fill="#f2f5e9" fill-opacity="0.5" stroke="#606060" stroke-width="1.0"/>
           <path id="arrow"
             d="M 11.500037,31.436501 C 11.940474,20.09759 22.043105,11.32322 32.158766,21.979434 L 37.068811,17.246167 C 37.068811,17.246167 37.088388,32 37.088388,32 L 22.160133,31.978069 C 22.160133,31.978069 26.997745,27.140456 26.997745,27.140456 C 18.528582,18.264221 13.291696,25.230495 11.500037,31.436501 z"
             style="fill:#404040;"/>
          </a>
         </g>
        </svg>
</svg>
