<?xml version="1.0" encoding="UTF-8" standalone="no"?>
<!DOCTYPE svg PUBLIC "-//W3C//DTD SVG 1.1//EN"
 "http://www.w3.org/Graphics/SVG/1.1/DTD/svg11.dtd">
<!-- Generated by graphviz version 2.43.0 (0)
 -->
<!-- Title: javolution.text.Text.lastIndexOf Pages: 1 -->
<svg width="322pt" height="96pt"
 viewBox="0.00 0.00 322.00 95.50" xmlns="http://www.w3.org/2000/svg" xmlns:xlink="http://www.w3.org/1999/xlink">
<g id="graph0" class="graph" transform="scale(1 1) rotate(0) translate(4 91.5)">
<title>javolution.text.Text.lastIndexOf</title>
<polygon fill="white" stroke="transparent" points="-4,4 -4,-91.5 318,-91.5 318,4 -4,4"/>
<!-- Node1 -->
<g id="node1" class="node">
<title>Node1</title>
<g id="a_node1"><a xlink:title=" ">
<polygon fill="#bfbfbf" stroke="black" points="0,-22.5 0,-52.5 132,-52.5 132,-22.5 0,-22.5"/>
<text text-anchor="start" x="8" y="-40.5" font-family="Helvetica,sans-Serif" font-size="10.00">javolution.text.Text.last</text>
<text text-anchor="middle" x="66" y="-29.5" font-family="Helvetica,sans-Serif" font-size="10.00">IndexOf</text>
</a>
</g>
</g>
<!-- Node2 -->
<g id="node2" class="node">
<title>Node2</title>
<g id="a_node2"><a xlink:href="../../dc/d6d/classjavolution_1_1text_1_1Text.html#aff336ffd1fd0f4dc5d8338f5fb12e84d" target="_top" xlink:title=" ">
<polygon fill="white" stroke="black" points="168,-50 168,-69 314,-69 314,-50 168,-50"/>
<text text-anchor="middle" x="241" y="-57" font-family="Helvetica,sans-Serif" font-size="10.00">javolution.text.Text.charAt</text>
</a>
</g>
</g>
<!-- Node1&#45;&gt;Node2 -->
<g id="edge1" class="edge">
<title>Node1&#45;&gt;Node2</title>
<path fill="none" stroke="midnightblue" d="M132.4,-45.82C140.73,-46.88 149.32,-47.97 157.87,-49.06"/>
<polygon fill="midnightblue" stroke="midnightblue" points="157.49,-52.54 167.85,-50.32 158.37,-45.59 157.49,-52.54"/>
</g>
<!-- Node3 -->
<g id="node3" class="node">
<title>Node3</title>
<g id="a_node3"><a xlink:href="../../dc/d6d/classjavolution_1_1text_1_1Text.html#a39369abf37bcd9945cb4e06d9de0aede" target="_top" xlink:title=" ">
<polygon fill="white" stroke="black" points="175,-0.5 175,-30.5 307,-30.5 307,-0.5 175,-0.5"/>
<text text-anchor="start" x="183" y="-18.5" font-family="Helvetica,sans-Serif" font-size="10.00">javolution.text.Text.last</text>
<text text-anchor="middle" x="241" y="-7.5" font-family="Helvetica,sans-Serif" font-size="10.00">IndexOf</text>
</a>
</g>
</g>
<!-- Node1&#45;&gt;Node3 -->
<g id="edge3" class="edge">
<title>Node1&#45;&gt;Node3</title>
<path fill="none" stroke="midnightblue" d="M132.4,-29.18C142.92,-27.85 153.87,-26.45 164.6,-25.09"/>
<polygon fill="midnightblue" stroke="midnightblue" points="165.31,-28.53 174.79,-23.79 164.43,-21.58 165.31,-28.53"/>
</g>
<!-- Node2&#45;&gt;Node2 -->
<g id="edge2" class="edge">
<title>Node2&#45;&gt;Node2</title>
<path fill="none" stroke="midnightblue" d="M214.18,-69.26C201.13,-78.07 210.07,-87.5 241,-87.5 261.78,-87.5 272.63,-83.24 273.56,-77.77"/>
<polygon fill="midnightblue" stroke="midnightblue" points="276.31,-75.59 267.82,-69.26 270.51,-79.51 276.31,-75.59"/>
</g>
</g>
</svg>
