<?xml version="1.0" encoding="UTF-8" standalone="no"?>
<!DOCTYPE svg PUBLIC "-//W3C//DTD SVG 1.1//EN"
 "http://www.w3.org/Graphics/SVG/1.1/DTD/svg11.dtd">
<!-- Generated by graphviz version 2.43.0 (0)
 -->
<!-- Title: javolution.text.Text.newPrimitive Pages: 1 -->
<svg width="728pt" height="414pt"
 viewBox="0.00 0.00 728.00 414.00" xmlns="http://www.w3.org/2000/svg" xmlns:xlink="http://www.w3.org/1999/xlink">
<g id="graph0" class="graph" transform="scale(1 1) rotate(0) translate(4 410)">
<title>javolution.text.Text.newPrimitive</title>
<polygon fill="white" stroke="transparent" points="-4,4 -4,-410 724,-410 724,4 -4,4"/>
<!-- Node1 -->
<g id="node1" class="node">
<title>Node1</title>
<g id="a_node1"><a xlink:title=" ">
<polygon fill="#bfbfbf" stroke="black" points="586,-145 586,-175 720,-175 720,-145 586,-145"/>
<text text-anchor="start" x="594" y="-163" font-family="Helvetica,sans-Serif" font-size="10.00">javolution.text.Text.new</text>
<text text-anchor="middle" x="653" y="-152" font-family="Helvetica,sans-Serif" font-size="10.00">Primitive</text>
</a>
</g>
</g>
<!-- Node2 -->
<g id="node2" class="node">
<title>Node2</title>
<g id="a_node2"><a xlink:href="../../dc/d6d/classjavolution_1_1text_1_1Text.html#a3b3e743f59560242f119853208d8d162" target="_top" xlink:title=" ">
<polygon fill="white" stroke="black" points="386.5,-354.5 386.5,-373.5 536.5,-373.5 536.5,-354.5 386.5,-354.5"/>
<text text-anchor="middle" x="461.5" y="-361.5" font-family="Helvetica,sans-Serif" font-size="10.00">javolution.text.Text.append</text>
</a>
</g>
</g>
<!-- Node1&#45;&gt;Node2 -->
<g id="edge1" class="edge">
<title>Node1&#45;&gt;Node2</title>
<path fill="none" stroke="midnightblue" d="M635.76,-183.89C616.71,-211.13 583.48,-256.37 550,-291 525.8,-316.03 493.52,-341.15 475.7,-354.4"/>
<polygon fill="midnightblue" stroke="midnightblue" points="638.83,-185.6 641.65,-175.38 633.08,-181.61 638.83,-185.6"/>
</g>
<!-- Node4 -->
<g id="node4" class="node">
<title>Node4</title>
<g id="a_node4"><a xlink:href="../../dc/d6d/classjavolution_1_1text_1_1Text.html#a8b3994e5aae2b7d193a409d82333f86f" target="_top" xlink:title=" ">
<polygon fill="white" stroke="black" points="388.5,-244.5 388.5,-263.5 534.5,-263.5 534.5,-244.5 388.5,-244.5"/>
<text text-anchor="middle" x="461.5" y="-251.5" font-family="Helvetica,sans-Serif" font-size="10.00">javolution.text.Text.concat</text>
</a>
</g>
</g>
<!-- Node1&#45;&gt;Node4 -->
<g id="edge4" class="edge">
<title>Node1&#45;&gt;Node4</title>
<path fill="none" stroke="midnightblue" d="M626.05,-181.44C606.27,-196.85 577.78,-217.1 550,-230 537,-236.04 522.18,-240.81 508.49,-244.46"/>
<polygon fill="midnightblue" stroke="midnightblue" points="628.3,-184.12 633.97,-175.17 623.96,-178.63 628.3,-184.12"/>
</g>
<!-- Node11 -->
<g id="node11" class="node">
<title>Node11</title>
<g id="a_node11"><a xlink:href="../../dc/d6d/classjavolution_1_1text_1_1Text.html#a5c6353e6afab67a3040d2db954074e1a" target="_top" xlink:title=" ">
<polygon fill="white" stroke="black" points="186,-128.5 186,-147.5 337,-147.5 337,-128.5 186,-128.5"/>
<text text-anchor="middle" x="261.5" y="-135.5" font-family="Helvetica,sans-Serif" font-size="10.00">javolution.text.Text.subtext</text>
</a>
</g>
</g>
<!-- Node1&#45;&gt;Node11 -->
<g id="edge16" class="edge">
<title>Node1&#45;&gt;Node11</title>
<path fill="none" stroke="midnightblue" d="M610.14,-178.9C553.77,-201.44 451.48,-231.95 373,-197 351.15,-187.27 357.47,-169.38 337,-157 330.6,-153.13 323.44,-150.05 316.15,-147.59"/>
<polygon fill="midnightblue" stroke="midnightblue" points="611.53,-182.11 619.45,-175.08 608.87,-175.64 611.53,-182.11"/>
</g>
<!-- Node12 -->
<g id="node12" class="node">
<title>Node12</title>
<g id="a_node12"><a xlink:href="../../dc/d6d/classjavolution_1_1text_1_1Text.html#a10999ecf08b96aa886f7715d062dbc2e" target="_top" xlink:title=" ">
<polygon fill="white" stroke="black" points="393,-150.5 393,-169.5 530,-169.5 530,-150.5 393,-150.5"/>
<text text-anchor="middle" x="461.5" y="-157.5" font-family="Helvetica,sans-Serif" font-size="10.00">javolution.text.Text.copy</text>
</a>
</g>
</g>
<!-- Node1&#45;&gt;Node12 -->
<g id="edge14" class="edge">
<title>Node1&#45;&gt;Node12</title>
<path fill="none" stroke="midnightblue" d="M575.69,-160C560.64,-160 544.95,-160 530.2,-160"/>
<polygon fill="midnightblue" stroke="midnightblue" points="575.99,-163.5 585.99,-160 575.99,-156.5 575.99,-163.5"/>
</g>
<!-- Node13 -->
<g id="node13" class="node">
<title>Node13</title>
<g id="a_node13"><a xlink:href="../../dc/d6d/classjavolution_1_1text_1_1Text.html#addc54f3ae1081837575d2b4a7ea3c94d" target="_top" xlink:title=" ">
<polygon fill="white" stroke="black" points="373,-94.5 373,-113.5 550,-113.5 550,-94.5 373,-94.5"/>
<text text-anchor="middle" x="461.5" y="-101.5" font-family="Helvetica,sans-Serif" font-size="10.00">javolution.text.Text.toLowerCase</text>
</a>
</g>
</g>
<!-- Node1&#45;&gt;Node13 -->
<g id="edge17" class="edge">
<title>Node1&#45;&gt;Node13</title>
<path fill="none" stroke="midnightblue" d="M591.46,-142.11C559.31,-132.61 521.09,-121.32 494.65,-113.5"/>
<polygon fill="midnightblue" stroke="midnightblue" points="590.64,-145.52 601.22,-144.99 592.62,-138.8 590.64,-145.52"/>
</g>
<!-- Node14 -->
<g id="node14" class="node">
<title>Node14</title>
<g id="a_node14"><a xlink:href="../../dc/d6d/classjavolution_1_1text_1_1Text.html#a73fa7171173659c7935795bc4c286cd2" target="_top" xlink:title=" ">
<polygon fill="white" stroke="black" points="373,-38.5 373,-57.5 550,-57.5 550,-38.5 373,-38.5"/>
<text text-anchor="middle" x="461.5" y="-45.5" font-family="Helvetica,sans-Serif" font-size="10.00">javolution.text.Text.toUpperCase</text>
</a>
</g>
</g>
<!-- Node1&#45;&gt;Node14 -->
<g id="edge19" class="edge">
<title>Node1&#45;&gt;Node14</title>
<path fill="none" stroke="midnightblue" d="M626.1,-138.31C606.15,-122.27 577.42,-100.59 550,-85 530.64,-73.99 507.37,-64.31 489.69,-57.61"/>
<polygon fill="midnightblue" stroke="midnightblue" points="624.12,-141.21 634.09,-144.81 628.54,-135.78 624.12,-141.21"/>
</g>
<!-- Node15 -->
<g id="node15" class="node">
<title>Node15</title>
<g id="a_node15"><a xlink:href="../../dc/d6d/classjavolution_1_1text_1_1Text.html#a5b2faeca50af66af0c90aee8b9c8fd4a" target="_top" xlink:title=" ">
<polygon fill="white" stroke="black" points="385.5,-0.5 385.5,-19.5 537.5,-19.5 537.5,-0.5 385.5,-0.5"/>
<text text-anchor="middle" x="461.5" y="-7.5" font-family="Helvetica,sans-Serif" font-size="10.00">javolution.text.Text.valueOf</text>
</a>
</g>
</g>
<!-- Node1&#45;&gt;Node15 -->
<g id="edge21" class="edge">
<title>Node1&#45;&gt;Node15</title>
<path fill="none" stroke="midnightblue" d="M639.91,-135.65C623.71,-105.66 592.05,-55.45 550,-29 543.82,-25.11 536.95,-22.01 529.87,-19.53"/>
<polygon fill="midnightblue" stroke="midnightblue" points="636.88,-137.4 644.62,-144.62 643.07,-134.14 636.88,-137.4"/>
</g>
<!-- Node2&#45;&gt;Node2 -->
<g id="edge2" class="edge">
<title>Node2&#45;&gt;Node2</title>
<path fill="none" stroke="midnightblue" d="M497.12,-381.5C497.12,-387.34 485.24,-392 461.5,-392 427.73,-392 417.97,-382.57 432.22,-373.76"/>
<polygon fill="midnightblue" stroke="midnightblue" points="499.83,-379.28 490.78,-373.76 494.41,-383.71 499.83,-379.28"/>
</g>
<!-- Node3 -->
<g id="node3" class="node">
<title>Node3</title>
<g id="a_node3"><a xlink:href="../../dc/d6d/classjavolution_1_1text_1_1Text.html#a0a912728e43d6b58c2cb01178952eaaf" target="_top" xlink:title=" ">
<polygon fill="white" stroke="black" points="194.5,-386.5 194.5,-405.5 328.5,-405.5 328.5,-386.5 194.5,-386.5"/>
<text text-anchor="middle" x="261.5" y="-393.5" font-family="Helvetica,sans-Serif" font-size="10.00">javolution.text.Text.plus</text>
</a>
</g>
</g>
<!-- Node2&#45;&gt;Node3 -->
<g id="edge3" class="edge">
<title>Node2&#45;&gt;Node3</title>
<path fill="none" stroke="midnightblue" d="M391.65,-375.13C368.78,-378.82 343.54,-382.9 321.49,-386.47"/>
<polygon fill="midnightblue" stroke="midnightblue" points="392.32,-378.57 401.63,-373.51 391.2,-371.65 392.32,-378.57"/>
</g>
<!-- Node4&#45;&gt;Node4 -->
<g id="edge5" class="edge">
<title>Node4&#45;&gt;Node4</title>
<path fill="none" stroke="midnightblue" d="M497.12,-271.5C497.12,-277.34 485.24,-282 461.5,-282 427.73,-282 417.97,-272.57 432.22,-263.76"/>
<polygon fill="midnightblue" stroke="midnightblue" points="499.83,-269.28 490.78,-263.76 494.41,-273.71 499.83,-269.28"/>
</g>
<!-- Node5 -->
<g id="node5" class="node">
<title>Node5</title>
<g id="a_node5"><a xlink:href="../../dc/d6d/classjavolution_1_1text_1_1Text.html#adcc6b215bbc196426149d1ac61c505d1" target="_top" xlink:title=" ">
<polygon fill="white" stroke="black" points="189,-348.5 189,-367.5 334,-367.5 334,-348.5 189,-348.5"/>
<text text-anchor="middle" x="261.5" y="-355.5" font-family="Helvetica,sans-Serif" font-size="10.00">javolution.text.Text.delete</text>
</a>
</g>
</g>
<!-- Node4&#45;&gt;Node5 -->
<g id="edge6" class="edge">
<title>Node4&#45;&gt;Node5</title>
<path fill="none" stroke="midnightblue" d="M441.74,-270.1C418.58,-289.18 377.32,-320.69 337,-339 328.61,-342.81 319.34,-345.94 310.26,-348.49"/>
<polygon fill="midnightblue" stroke="midnightblue" points="443.99,-272.78 449.41,-263.68 439.5,-267.41 443.99,-272.78"/>
</g>
<!-- Node6 -->
<g id="node6" class="node">
<title>Node6</title>
<g id="a_node6"><a xlink:href="../../dc/d6d/classjavolution_1_1text_1_1Text.html#ae30bf7c893909fbd0e64b4f955000d0f" target="_top" xlink:title=" ">
<polygon fill="white" stroke="black" points="190.5,-310.5 190.5,-329.5 332.5,-329.5 332.5,-310.5 190.5,-310.5"/>
<text text-anchor="middle" x="261.5" y="-317.5" font-family="Helvetica,sans-Serif" font-size="10.00">javolution.text.Text.insert</text>
</a>
</g>
</g>
<!-- Node4&#45;&gt;Node6 -->
<g id="edge7" class="edge">
<title>Node4&#45;&gt;Node6</title>
<path fill="none" stroke="midnightblue" d="M426.99,-267.46C402.32,-277.13 367.84,-290.14 337,-300 325.39,-303.71 312.62,-307.31 300.98,-310.41"/>
<polygon fill="midnightblue" stroke="midnightblue" points="428.58,-270.59 436.6,-263.67 426.01,-264.08 428.58,-270.59"/>
</g>
<!-- Node8 -->
<g id="node8" class="node">
<title>Node8</title>
<g id="a_node8"><a xlink:href="../../dc/d6d/classjavolution_1_1text_1_1Text.html#aef7e50bfcb70206543c4f02cb2c17984" target="_top" xlink:title=" ">
<polygon fill="white" stroke="black" points="195.5,-261 195.5,-291 327.5,-291 327.5,-261 195.5,-261"/>
<text text-anchor="start" x="203.5" y="-279" font-family="Helvetica,sans-Serif" font-size="10.00">javolution.text.Text.pad</text>
<text text-anchor="middle" x="261.5" y="-268" font-family="Helvetica,sans-Serif" font-size="10.00">Right</text>
</a>
</g>
</g>
<!-- Node4&#45;&gt;Node8 -->
<g id="edge9" class="edge">
<title>Node4&#45;&gt;Node8</title>
<path fill="none" stroke="midnightblue" d="M378.07,-263.16C361.23,-265.03 343.73,-266.97 327.59,-268.77"/>
<polygon fill="midnightblue" stroke="midnightblue" points="378.91,-266.59 388.46,-262 378.13,-259.63 378.91,-266.59"/>
</g>
<!-- Node9 -->
<g id="node9" class="node">
<title>Node9</title>
<g id="a_node9"><a xlink:href="../../dc/d6d/classjavolution_1_1text_1_1Text.html#a726e13b001235cf751915f150eff9cfe" target="_top" xlink:title=" ">
<polygon fill="white" stroke="black" points="194.5,-222.5 194.5,-241.5 328.5,-241.5 328.5,-222.5 194.5,-222.5"/>
<text text-anchor="middle" x="261.5" y="-229.5" font-family="Helvetica,sans-Serif" font-size="10.00">javolution.text.Text.plus</text>
</a>
</g>
</g>
<!-- Node4&#45;&gt;Node9 -->
<g id="edge10" class="edge">
<title>Node4&#45;&gt;Node9</title>
<path fill="none" stroke="midnightblue" d="M378.25,-244.86C361.69,-243.02 344.49,-241.11 328.57,-239.34"/>
<polygon fill="midnightblue" stroke="midnightblue" points="378.13,-248.37 388.46,-246 378.91,-241.41 378.13,-248.37"/>
</g>
<!-- Node10 -->
<g id="node10" class="node">
<title>Node10</title>
<g id="a_node10"><a xlink:href="../../dc/d6d/classjavolution_1_1text_1_1Text.html#a29d88e2c5e0fe812c983600d26d72f3d" target="_top" xlink:title=" ">
<polygon fill="white" stroke="black" points="186.5,-166.5 186.5,-185.5 336.5,-185.5 336.5,-166.5 186.5,-166.5"/>
<text text-anchor="middle" x="261.5" y="-173.5" font-family="Helvetica,sans-Serif" font-size="10.00">javolution.text.Text.replace</text>
</a>
</g>
</g>
<!-- Node4&#45;&gt;Node10 -->
<g id="edge11" class="edge">
<title>Node4&#45;&gt;Node10</title>
<path fill="none" stroke="midnightblue" d="M409.51,-241.74C397.4,-238.36 384.63,-234.39 373,-230 368.36,-228.25 312.13,-200.53 281.73,-185.51"/>
<polygon fill="midnightblue" stroke="midnightblue" points="408.91,-245.2 419.48,-244.44 410.74,-238.45 408.91,-245.2"/>
</g>
<!-- Node4&#45;&gt;Node11 -->
<g id="edge13" class="edge">
<title>Node4&#45;&gt;Node11</title>
<path fill="none" stroke="midnightblue" d="M389.7,-240.42C383.7,-237.58 378.02,-234.15 373,-230 345.1,-206.97 365.1,-179.78 337,-157 332.23,-153.13 326.77,-150.04 321.02,-147.57"/>
<polygon fill="midnightblue" stroke="midnightblue" points="388.76,-243.82 399.34,-244.42 391.44,-237.35 388.76,-243.82"/>
</g>
<!-- Node7 -->
<g id="node7" class="node">
<title>Node7</title>
<g id="a_node7"><a xlink:href="../../dc/d6d/classjavolution_1_1text_1_1Text.html#afd9b654ac4b4c8b162ab3ad07873ad0f" target="_top" xlink:title=" ">
<polygon fill="white" stroke="black" points="0,-310.5 0,-329.5 150,-329.5 150,-310.5 0,-310.5"/>
<text text-anchor="middle" x="75" y="-317.5" font-family="Helvetica,sans-Serif" font-size="10.00">javolution.text.Text.padLeft</text>
</a>
</g>
</g>
<!-- Node6&#45;&gt;Node7 -->
<g id="edge8" class="edge">
<title>Node6&#45;&gt;Node7</title>
<path fill="none" stroke="midnightblue" d="M180.21,-320C170.26,-320 160.12,-320 150.27,-320"/>
<polygon fill="midnightblue" stroke="midnightblue" points="180.49,-323.5 190.49,-320 180.49,-316.5 180.49,-323.5"/>
</g>
<!-- Node10&#45;&gt;Node10 -->
<g id="edge12" class="edge">
<title>Node10&#45;&gt;Node10</title>
<path fill="none" stroke="midnightblue" d="M296.36,-193.89C295.85,-199.54 284.23,-204 261.5,-204 228.44,-204 218.89,-194.57 232.83,-185.76"/>
<polygon fill="midnightblue" stroke="midnightblue" points="299.01,-191.6 290.17,-185.76 293.44,-195.83 299.01,-191.6"/>
</g>
<!-- Node12&#45;&gt;Node12 -->
<g id="edge15" class="edge">
<title>Node12&#45;&gt;Node12</title>
<path fill="none" stroke="midnightblue" d="M497.12,-177.5C497.12,-183.34 485.24,-188 461.5,-188 427.73,-188 417.97,-178.57 432.22,-169.76"/>
<polygon fill="midnightblue" stroke="midnightblue" points="499.83,-175.28 490.78,-169.76 494.41,-179.71 499.83,-175.28"/>
</g>
<!-- Node13&#45;&gt;Node13 -->
<g id="edge18" class="edge">
<title>Node13&#45;&gt;Node13</title>
<path fill="none" stroke="midnightblue" d="M497.12,-121.5C497.12,-127.34 485.24,-132 461.5,-132 427.73,-132 417.97,-122.57 432.22,-113.76"/>
<polygon fill="midnightblue" stroke="midnightblue" points="499.83,-119.28 490.78,-113.76 494.41,-123.71 499.83,-119.28"/>
</g>
<!-- Node14&#45;&gt;Node14 -->
<g id="edge20" class="edge">
<title>Node14&#45;&gt;Node14</title>
<path fill="none" stroke="midnightblue" d="M497.12,-65.5C497.12,-71.34 485.24,-76 461.5,-76 427.73,-76 417.97,-66.57 432.22,-57.76"/>
<polygon fill="midnightblue" stroke="midnightblue" points="499.83,-63.28 490.78,-57.76 494.41,-67.71 499.83,-63.28"/>
</g>
</g>
</svg>
