<?xml version="1.0" encoding="UTF-8" standalone="no"?>
<!DOCTYPE svg PUBLIC "-//W3C//DTD SVG 1.1//EN"
 "http://www.w3.org/Graphics/SVG/1.1/DTD/svg11.dtd">
<!-- Generated by graphviz version 2.43.0 (0)
 -->
<!-- Title: javolution.text.Text.plus Pages: 1 -->
<svg width="945pt" height="423pt"
 viewBox="0.00 0.00 945.00 422.56" xmlns="http://www.w3.org/2000/svg" xmlns:xlink="http://www.w3.org/1999/xlink">
<g id="graph0" class="graph" transform="scale(1 1) rotate(0) translate(4 418.56)">
<title>javolution.text.Text.plus</title>
<polygon fill="white" stroke="transparent" points="-4,4 -4,-418.56 941,-418.56 941,4 -4,4"/>
<!-- Node1 -->
<g id="node1" class="node">
<title>Node1</title>
<g id="a_node1"><a xlink:title=" ">
<polygon fill="#bfbfbf" stroke="black" points="0,-192.5 0,-211.5 134,-211.5 134,-192.5 0,-192.5"/>
<text text-anchor="middle" x="67" y="-199.5" font-family="Helvetica,sans-Serif" font-size="10.00">javolution.text.Text.plus</text>
</a>
</g>
</g>
<!-- Node2 -->
<g id="node2" class="node">
<title>Node2</title>
<g id="a_node2"><a xlink:href="../../dc/d6d/classjavolution_1_1text_1_1Text.html#a3b3e743f59560242f119853208d8d162" target="_top" xlink:title=" ">
<polygon fill="white" stroke="black" points="171,-320.5 171,-339.5 321,-339.5 321,-320.5 171,-320.5"/>
<text text-anchor="middle" x="246" y="-327.5" font-family="Helvetica,sans-Serif" font-size="10.00">javolution.text.Text.append</text>
</a>
</g>
</g>
<!-- Node1&#45;&gt;Node2 -->
<g id="edge1" class="edge">
<title>Node1&#45;&gt;Node2</title>
<path fill="none" stroke="midnightblue" d="M81.3,-211.62C111.67,-233.58 186.32,-287.57 223.39,-314.37"/>
<polygon fill="midnightblue" stroke="midnightblue" points="221.39,-317.24 231.54,-320.27 225.49,-311.57 221.39,-317.24"/>
</g>
<!-- Node8 -->
<g id="node8" class="node">
<title>Node8</title>
<g id="a_node8"><a xlink:href="../../dc/d6d/classjavolution_1_1text_1_1Text.html#a8b3994e5aae2b7d193a409d82333f86f" target="_top" xlink:title=" ">
<polygon fill="white" stroke="black" points="173,-192.5 173,-211.5 319,-211.5 319,-192.5 173,-192.5"/>
<text text-anchor="middle" x="246" y="-199.5" font-family="Helvetica,sans-Serif" font-size="10.00">javolution.text.Text.concat</text>
</a>
</g>
</g>
<!-- Node1&#45;&gt;Node8 -->
<g id="edge11" class="edge">
<title>Node1&#45;&gt;Node8</title>
<path fill="none" stroke="midnightblue" d="M134.16,-202C143.56,-202 153.32,-202 162.98,-202"/>
<polygon fill="midnightblue" stroke="midnightblue" points="162.99,-205.5 172.99,-202 162.99,-198.5 162.99,-205.5"/>
</g>
<!-- Node11 -->
<g id="node11" class="node">
<title>Node11</title>
<g id="a_node11"><a xlink:href="../../dc/d6d/classjavolution_1_1text_1_1Text.html#ac51238a5b10c199fc942f17c6a2c94c5" target="_top" xlink:title=" ">
<polygon fill="white" stroke="black" points="170,-19.5 170,-38.5 322,-38.5 322,-19.5 170,-19.5"/>
<text text-anchor="middle" x="246" y="-26.5" font-family="Helvetica,sans-Serif" font-size="10.00">javolution.text.Text.valueOf</text>
</a>
</g>
</g>
<!-- Node1&#45;&gt;Node11 -->
<g id="edge21" class="edge">
<title>Node1&#45;&gt;Node11</title>
<path fill="none" stroke="midnightblue" d="M77.77,-192.45C106.47,-164.4 190.83,-81.94 227.57,-46.04"/>
<polygon fill="midnightblue" stroke="midnightblue" points="230.34,-48.22 235.04,-38.73 225.45,-43.22 230.34,-48.22"/>
</g>
<!-- Node2&#45;&gt;Node2 -->
<g id="edge2" class="edge">
<title>Node2&#45;&gt;Node2</title>
<path fill="none" stroke="midnightblue" d="M218.57,-339.76C205.22,-348.57 214.36,-358 246,-358 267.75,-358 278.87,-353.54 279.36,-347.89"/>
<polygon fill="midnightblue" stroke="midnightblue" points="282.15,-345.78 273.43,-339.76 276.49,-349.9 282.15,-345.78"/>
</g>
<!-- Node3 -->
<g id="node3" class="node">
<title>Node3</title>
<g id="a_node3"><a xlink:href="../../dc/d6d/classjavolution_1_1text_1_1Text.html#a5ebc6a09946ae53d0f4ef5ace0831bc2" target="_top" xlink:title=" ">
<polygon fill="white" stroke="black" points="385,-253 385,-283 515,-283 515,-253 385,-253"/>
<text text-anchor="start" x="393" y="-271" font-family="Helvetica,sans-Serif" font-size="10.00">javolution.text.Text.get</text>
<text text-anchor="middle" x="450" y="-260" font-family="Helvetica,sans-Serif" font-size="10.00">Chars</text>
</a>
</g>
</g>
<!-- Node2&#45;&gt;Node3 -->
<g id="edge3" class="edge">
<title>Node2&#45;&gt;Node3</title>
<path fill="none" stroke="midnightblue" d="M278.12,-320.45C307.89,-311.31 353.54,-297.3 390.17,-286.06"/>
<polygon fill="midnightblue" stroke="midnightblue" points="391.22,-289.4 399.75,-283.12 389.16,-282.7 391.22,-289.4"/>
</g>
<!-- Node4 -->
<g id="node4" class="node">
<title>Node4</title>
<g id="a_node4"><a xlink:href="../../dc/d6d/classjavolution_1_1text_1_1Text.html#ae20f0d750950188da8be25b4aa950895" target="_top" xlink:title=" ">
<polygon fill="white" stroke="black" points="600,-326.5 600,-345.5 745,-345.5 745,-326.5 600,-326.5"/>
<text text-anchor="middle" x="672.5" y="-333.5" font-family="Helvetica,sans-Serif" font-size="10.00">javolution.text.Text.length</text>
</a>
</g>
</g>
<!-- Node2&#45;&gt;Node4 -->
<g id="edge5" class="edge">
<title>Node2&#45;&gt;Node4</title>
<path fill="none" stroke="midnightblue" d="M257.65,-339.54C276.35,-355.57 316.98,-387.29 358,-399 436.64,-421.45 462.31,-417.36 542,-399 581.75,-389.84 623.43,-366.77 648.44,-351.24"/>
<polygon fill="midnightblue" stroke="midnightblue" points="650.6,-354.01 657.17,-345.7 646.85,-348.1 650.6,-354.01"/>
</g>
<!-- Node5 -->
<g id="node5" class="node">
<title>Node5</title>
<g id="a_node5"><a xlink:href="../../dc/d6d/classjavolution_1_1text_1_1Text.html#a71b1cf384add94cc256ab5e07b410702" target="_top" xlink:title=" ">
<polygon fill="white" stroke="black" points="605.5,-165 605.5,-195 739.5,-195 739.5,-165 605.5,-165"/>
<text text-anchor="start" x="613.5" y="-183" font-family="Helvetica,sans-Serif" font-size="10.00">javolution.text.Text.new</text>
<text text-anchor="middle" x="672.5" y="-172" font-family="Helvetica,sans-Serif" font-size="10.00">Composite</text>
</a>
</g>
</g>
<!-- Node2&#45;&gt;Node5 -->
<g id="edge6" class="edge">
<title>Node2&#45;&gt;Node5</title>
<path fill="none" stroke="midnightblue" d="M321.13,-339.37C383.01,-343.96 472.07,-342.88 542,-311 593.11,-287.7 635.06,-234.69 656.35,-203.72"/>
<polygon fill="midnightblue" stroke="midnightblue" points="659.37,-205.5 662.04,-195.24 653.56,-201.6 659.37,-205.5"/>
</g>
<!-- Node7 -->
<g id="node7" class="node">
<title>Node7</title>
<g id="a_node7"><a xlink:href="../../dc/d6d/classjavolution_1_1text_1_1Text.html#a2f1c719dbe335c77cfaf05795f807c13" target="_top" xlink:title=" ">
<polygon fill="white" stroke="black" points="383,-359 383,-389 517,-389 517,-359 383,-359"/>
<text text-anchor="start" x="391" y="-377" font-family="Helvetica,sans-Serif" font-size="10.00">javolution.text.Text.new</text>
<text text-anchor="middle" x="450" y="-366" font-family="Helvetica,sans-Serif" font-size="10.00">Primitive</text>
</a>
</g>
</g>
<!-- Node2&#45;&gt;Node7 -->
<g id="edge8" class="edge">
<title>Node2&#45;&gt;Node7</title>
<path fill="none" stroke="midnightblue" d="M290.83,-339.55C314.81,-344.77 345.19,-351.39 372.91,-357.43"/>
<polygon fill="midnightblue" stroke="midnightblue" points="372.46,-360.91 382.98,-359.62 373.95,-354.07 372.46,-360.91"/>
</g>
<!-- Node3&#45;&gt;Node3 -->
<g id="edge4" class="edge">
<title>Node3&#45;&gt;Node3</title>
<path fill="none" stroke="midnightblue" d="M414.45,-283.16C405.88,-292.56 417.73,-301.5 450,-301.5 469.67,-301.5 481.75,-298.18 486.25,-293.46"/>
<polygon fill="midnightblue" stroke="midnightblue" points="489.72,-292.9 485.55,-283.16 482.73,-293.37 489.72,-292.9"/>
</g>
<!-- Node6 -->
<g id="node6" class="node">
<title>Node6</title>
<g id="a_node6"><a xlink:href="../../dc/d6d/classjavolution_1_1text_1_1Text.html#ad23b912b5d8c43b6620281af8d0f93d3" target="_top" xlink:title=" ">
<polygon fill="white" stroke="black" points="803,-267.5 803,-286.5 937,-286.5 937,-267.5 803,-267.5"/>
<text text-anchor="middle" x="870" y="-274.5" font-family="Helvetica,sans-Serif" font-size="10.00">javolution.text.Text.Text</text>
</a>
</g>
</g>
<!-- Node5&#45;&gt;Node6 -->
<g id="edge7" class="edge">
<title>Node5&#45;&gt;Node6</title>
<path fill="none" stroke="midnightblue" d="M704.05,-195.16C741.41,-213.69 804.16,-244.83 840.54,-262.88"/>
<polygon fill="midnightblue" stroke="midnightblue" points="839.12,-266.08 849.63,-267.39 842.23,-259.81 839.12,-266.08"/>
</g>
<!-- Node7&#45;&gt;Node4 -->
<g id="edge9" class="edge">
<title>Node7&#45;&gt;Node4</title>
<path fill="none" stroke="midnightblue" d="M517.16,-362.6C545.29,-357.75 578.01,-352.11 606.06,-347.28"/>
<polygon fill="midnightblue" stroke="midnightblue" points="606.91,-350.68 616.17,-345.54 605.72,-343.78 606.91,-350.68"/>
</g>
<!-- Node7&#45;&gt;Node6 -->
<g id="edge10" class="edge">
<title>Node7&#45;&gt;Node6</title>
<path fill="none" stroke="midnightblue" d="M517.14,-381C582.72,-385.44 684.98,-385.54 767,-355 801.91,-342 834.71,-312.73 853.28,-293.97"/>
<polygon fill="midnightblue" stroke="midnightblue" points="855.91,-296.29 860.33,-286.66 850.87,-291.43 855.91,-296.29"/>
</g>
<!-- Node8&#45;&gt;Node3 -->
<g id="edge13" class="edge">
<title>Node8&#45;&gt;Node3</title>
<path fill="none" stroke="midnightblue" d="M276.37,-211.6C306.81,-221.54 355.12,-237.33 392.91,-249.67"/>
<polygon fill="midnightblue" stroke="midnightblue" points="392.17,-253.11 402.76,-252.89 394.34,-246.46 392.17,-253.11"/>
</g>
<!-- Node8&#45;&gt;Node4 -->
<g id="edge16" class="edge">
<title>Node8&#45;&gt;Node4</title>
<path fill="none" stroke="midnightblue" d="M319.16,-202.82C380.44,-205.71 469.68,-215.15 542,-244 586.68,-261.82 630.6,-298.07 654.05,-319.36"/>
<polygon fill="midnightblue" stroke="midnightblue" points="651.74,-321.99 661.45,-326.21 656.49,-316.85 651.74,-321.99"/>
</g>
<!-- Node8&#45;&gt;Node5 -->
<g id="edge17" class="edge">
<title>Node8&#45;&gt;Node5</title>
<path fill="none" stroke="midnightblue" d="M264.01,-192.46C285.24,-181.15 323.02,-162.96 358,-156 438.8,-139.92 533.29,-151.14 597.25,-163.06"/>
<polygon fill="midnightblue" stroke="midnightblue" points="596.76,-166.53 607.24,-164.98 598.08,-159.66 596.76,-166.53"/>
</g>
<!-- Node8&#45;&gt;Node7 -->
<g id="edge18" class="edge">
<title>Node8&#45;&gt;Node7</title>
<path fill="none" stroke="midnightblue" d="M255.71,-211.6C273.81,-231.29 317.2,-277.27 358,-311 376.28,-326.12 398.1,-341.31 415.79,-352.99"/>
<polygon fill="midnightblue" stroke="midnightblue" points="414.33,-356.22 424.62,-358.75 418.16,-350.36 414.33,-356.22"/>
</g>
<!-- Node8&#45;&gt;Node8 -->
<g id="edge12" class="edge">
<title>Node8&#45;&gt;Node8</title>
<path fill="none" stroke="midnightblue" d="M218.57,-211.76C205.22,-220.57 214.36,-230 246,-230 267.75,-230 278.87,-225.54 279.36,-219.89"/>
<polygon fill="midnightblue" stroke="midnightblue" points="282.15,-217.78 273.43,-211.76 276.49,-221.9 282.15,-217.78"/>
</g>
<!-- Node9 -->
<g id="node9" class="node">
<title>Node9</title>
<g id="a_node9"><a xlink:href="../../dc/d6d/classjavolution_1_1text_1_1Text.html#a5545cd98010d50156e8f48b5112c22a3" target="_top" xlink:title=" ">
<polygon fill="white" stroke="black" points="385,-77 385,-107 515,-107 515,-77 385,-77"/>
<text text-anchor="start" x="393" y="-95" font-family="Helvetica,sans-Serif" font-size="10.00">javolution.text.Text.left</text>
<text text-anchor="middle" x="450" y="-84" font-family="Helvetica,sans-Serif" font-size="10.00">Rotation</text>
</a>
</g>
</g>
<!-- Node8&#45;&gt;Node9 -->
<g id="edge14" class="edge">
<title>Node8&#45;&gt;Node9</title>
<path fill="none" stroke="midnightblue" d="M257.91,-192.36C277,-175.92 318.21,-142.28 358,-122 366.36,-117.74 375.45,-113.9 384.55,-110.5"/>
<polygon fill="midnightblue" stroke="midnightblue" points="385.77,-113.78 394,-107.12 383.41,-107.19 385.77,-113.78"/>
</g>
<!-- Node10 -->
<g id="node10" class="node">
<title>Node10</title>
<g id="a_node10"><a xlink:href="../../dc/d6d/classjavolution_1_1text_1_1Text.html#a8f432b9cedb3d9d2a05eb9688ecb6ebc" target="_top" xlink:title=" ">
<polygon fill="white" stroke="black" points="381.5,-165 381.5,-195 518.5,-195 518.5,-165 381.5,-165"/>
<text text-anchor="start" x="389.5" y="-183" font-family="Helvetica,sans-Serif" font-size="10.00">javolution.text.Text.right</text>
<text text-anchor="middle" x="450" y="-172" font-family="Helvetica,sans-Serif" font-size="10.00">Rotation</text>
</a>
</g>
</g>
<!-- Node8&#45;&gt;Node10 -->
<g id="edge19" class="edge">
<title>Node8&#45;&gt;Node10</title>
<path fill="none" stroke="midnightblue" d="M319.07,-194.15C336.03,-192.3 354.17,-190.33 371.35,-188.46"/>
<polygon fill="midnightblue" stroke="midnightblue" points="371.78,-191.93 381.35,-187.37 371.03,-184.97 371.78,-191.93"/>
</g>
<!-- Node9&#45;&gt;Node5 -->
<g id="edge15" class="edge">
<title>Node9&#45;&gt;Node5</title>
<path fill="none" stroke="midnightblue" d="M499.97,-107.12C513.67,-111.63 528.51,-116.77 542,-122 572.25,-133.72 605.64,-148.73 630.94,-160.54"/>
<polygon fill="midnightblue" stroke="midnightblue" points="629.68,-163.82 640.22,-164.9 632.65,-157.48 629.68,-163.82"/>
</g>
<!-- Node10&#45;&gt;Node5 -->
<g id="edge20" class="edge">
<title>Node10&#45;&gt;Node5</title>
<path fill="none" stroke="midnightblue" d="M518.66,-180C542.91,-180 570.42,-180 595.35,-180"/>
<polygon fill="midnightblue" stroke="midnightblue" points="595.49,-183.5 605.49,-180 595.49,-176.5 595.49,-183.5"/>
</g>
<!-- Node12 -->
<g id="node12" class="node">
<title>Node12</title>
<g id="a_node12"><a xlink:href="../../d2/d7a/classjavolution_1_1text_1_1TextBuilder.html#a5b6d5e22b7b33b3188569bbaf6112c95" target="_top" xlink:title=" ">
<polygon fill="white" stroke="black" points="358,-38.5 358,-57.5 542,-57.5 542,-38.5 358,-38.5"/>
<text text-anchor="middle" x="450" y="-45.5" font-family="Helvetica,sans-Serif" font-size="10.00">javolution.text.TextBuilder.append</text>
</a>
</g>
</g>
<!-- Node11&#45;&gt;Node12 -->
<g id="edge22" class="edge">
<title>Node11&#45;&gt;Node12</title>
<path fill="none" stroke="midnightblue" d="M322.22,-36.07C330.52,-36.86 339.07,-37.66 347.63,-38.47"/>
<polygon fill="midnightblue" stroke="midnightblue" points="347.38,-41.96 357.66,-39.41 348.04,-34.99 347.38,-41.96"/>
</g>
<!-- Node14 -->
<g id="node14" class="node">
<title>Node14</title>
<g id="a_node14"><a xlink:href="../../d2/d7a/classjavolution_1_1text_1_1TextBuilder.html#ab4f4039de4ba13421b725da699b02f58" target="_top" xlink:title=" ">
<polygon fill="white" stroke="black" points="361,-0.5 361,-19.5 539,-19.5 539,-0.5 361,-0.5"/>
<text text-anchor="middle" x="450" y="-7.5" font-family="Helvetica,sans-Serif" font-size="10.00">javolution.text.TextBuilder.toText</text>
</a>
</g>
</g>
<!-- Node11&#45;&gt;Node14 -->
<g id="edge24" class="edge">
<title>Node11&#45;&gt;Node14</title>
<path fill="none" stroke="midnightblue" d="M288.85,-19.47C306.99,-16.96 329.06,-14.5 350.94,-12.48"/>
<polygon fill="midnightblue" stroke="midnightblue" points="351.32,-15.96 360.97,-11.58 350.7,-8.98 351.32,-15.96"/>
</g>
<!-- Node13 -->
<g id="node13" class="node">
<title>Node13</title>
<g id="a_node13"><a xlink:href="../../d2/d7a/classjavolution_1_1text_1_1TextBuilder.html#a6d79c3b6adfe6c04f80f940904d181b4" target="_top" xlink:title=" ">
<polygon fill="white" stroke="black" points="578,-33 578,-63 767,-63 767,-33 578,-33"/>
<text text-anchor="start" x="586" y="-51" font-family="Helvetica,sans-Serif" font-size="10.00">javolution.text.TextBuilder.increase</text>
<text text-anchor="middle" x="672.5" y="-40" font-family="Helvetica,sans-Serif" font-size="10.00">Capacity</text>
</a>
</g>
</g>
<!-- Node12&#45;&gt;Node13 -->
<g id="edge23" class="edge">
<title>Node12&#45;&gt;Node13</title>
<path fill="none" stroke="midnightblue" d="M542.28,-48C550.62,-48 559.1,-48 567.54,-48"/>
<polygon fill="midnightblue" stroke="midnightblue" points="567.8,-51.5 577.8,-48 567.8,-44.5 567.8,-51.5"/>
</g>
<!-- Node14&#45;&gt;Node11 -->
<g id="edge25" class="edge">
<title>Node14&#45;&gt;Node11</title>
<path fill="none" stroke="midnightblue" d="M407.15,-19.53C385.5,-22.53 358.26,-25.45 332.42,-27.64"/>
<polygon fill="midnightblue" stroke="midnightblue" points="331.9,-24.17 322.22,-28.48 332.47,-31.15 331.9,-24.17"/>
</g>
</g>
</svg>
