<?xml version="1.0" encoding="UTF-8" standalone="no"?>
<!DOCTYPE svg PUBLIC "-//W3C//DTD SVG 1.1//EN"
 "http://www.w3.org/Graphics/SVG/1.1/DTD/svg11.dtd">
<!-- Generated by graphviz version 2.43.0 (0)
 -->
<!-- Title: javolution.text.Text.subtext Pages: 1 -->
<svg width="533pt" height="336pt"
 viewBox="0.00 0.00 533.00 335.50" xmlns="http://www.w3.org/2000/svg" xmlns:xlink="http://www.w3.org/1999/xlink">
<g id="graph0" class="graph" transform="scale(1 1) rotate(0) translate(4 331.5)">
<title>javolution.text.Text.subtext</title>
<polygon fill="white" stroke="transparent" points="-4,4 -4,-331.5 529,-331.5 529,4 -4,4"/>
<!-- Node1 -->
<g id="node1" class="node">
<title>Node1</title>
<g id="a_node1"><a xlink:title=" ">
<polygon fill="#bfbfbf" stroke="black" points="374,-148 374,-167 525,-167 525,-148 374,-148"/>
<text text-anchor="middle" x="449.5" y="-155" font-family="Helvetica,sans-Serif" font-size="10.00">javolution.text.Text.subtext</text>
</a>
</g>
</g>
<!-- Node2 -->
<g id="node2" class="node">
<title>Node2</title>
<g id="a_node2"><a xlink:href="../../dc/d6d/classjavolution_1_1text_1_1Text.html#adcc6b215bbc196426149d1ac61c505d1" target="_top" xlink:title=" ">
<polygon fill="white" stroke="black" points="189.5,-308 189.5,-327 334.5,-327 334.5,-308 189.5,-308"/>
<text text-anchor="middle" x="262" y="-315" font-family="Helvetica,sans-Serif" font-size="10.00">javolution.text.Text.delete</text>
</a>
</g>
</g>
<!-- Node1&#45;&gt;Node2 -->
<g id="edge1" class="edge">
<title>Node1&#45;&gt;Node2</title>
<path fill="none" stroke="midnightblue" d="M439.1,-176.29C422.83,-206.82 386.47,-266.94 338,-298.5 332.03,-302.38 325.32,-305.47 318.43,-307.93"/>
<polygon fill="midnightblue" stroke="midnightblue" points="442.34,-177.65 443.83,-167.16 436.13,-174.43 442.34,-177.65"/>
</g>
<!-- Node3 -->
<g id="node3" class="node">
<title>Node3</title>
<g id="a_node3"><a xlink:href="../../dc/d6d/classjavolution_1_1text_1_1Text.html#ae30bf7c893909fbd0e64b4f955000d0f" target="_top" xlink:title=" ">
<polygon fill="white" stroke="black" points="191,-270 191,-289 333,-289 333,-270 191,-270"/>
<text text-anchor="middle" x="262" y="-277" font-family="Helvetica,sans-Serif" font-size="10.00">javolution.text.Text.insert</text>
</a>
</g>
</g>
<!-- Node1&#45;&gt;Node3 -->
<g id="edge2" class="edge">
<title>Node1&#45;&gt;Node3</title>
<path fill="none" stroke="midnightblue" d="M434.6,-175.08C415.38,-198.2 378.43,-238.46 338,-260.5 330.92,-264.36 323.05,-267.45 315.13,-269.93"/>
<polygon fill="midnightblue" stroke="midnightblue" points="437.47,-177.1 441.07,-167.14 432.05,-172.68 437.47,-177.1"/>
</g>
<!-- Node5 -->
<g id="node5" class="node">
<title>Node5</title>
<g id="a_node5"><a xlink:href="../../dc/d6d/classjavolution_1_1text_1_1Text.html#a29d88e2c5e0fe812c983600d26d72f3d" target="_top" xlink:title=" ">
<polygon fill="white" stroke="black" points="187,-214 187,-233 337,-233 337,-214 187,-214"/>
<text text-anchor="middle" x="262" y="-221" font-family="Helvetica,sans-Serif" font-size="10.00">javolution.text.Text.replace</text>
</a>
</g>
</g>
<!-- Node1&#45;&gt;Node5 -->
<g id="edge4" class="edge">
<title>Node1&#45;&gt;Node5</title>
<path fill="none" stroke="midnightblue" d="M419.36,-171.35C397.36,-181.45 366.22,-194.99 338,-204.5 327.56,-208.02 316.12,-211.23 305.38,-213.98"/>
<polygon fill="midnightblue" stroke="midnightblue" points="420.9,-174.5 428.5,-167.12 417.95,-168.15 420.9,-174.5"/>
</g>
<!-- Node6 -->
<g id="node6" class="node">
<title>Node6</title>
<g id="a_node6"><a xlink:href="../../dc/d6d/classjavolution_1_1text_1_1Text.html#a4d2a45e3a51571837a5aa93878bbfda8" target="_top" xlink:title=" ">
<polygon fill="white" stroke="black" points="196.5,-164.5 196.5,-194.5 327.5,-194.5 327.5,-164.5 196.5,-164.5"/>
<text text-anchor="start" x="204.5" y="-182.5" font-family="Helvetica,sans-Serif" font-size="10.00">javolution.text.Text.sub</text>
<text text-anchor="middle" x="262" y="-171.5" font-family="Helvetica,sans-Serif" font-size="10.00">Sequence</text>
</a>
</g>
</g>
<!-- Node1&#45;&gt;Node6 -->
<g id="edge6" class="edge">
<title>Node1&#45;&gt;Node6</title>
<path fill="none" stroke="midnightblue" d="M363.73,-167.55C351.61,-168.99 339.3,-170.45 327.65,-171.83"/>
<polygon fill="midnightblue" stroke="midnightblue" points="364.33,-171.01 373.85,-166.35 363.51,-164.06 364.33,-171.01"/>
</g>
<!-- Node7 -->
<g id="node7" class="node">
<title>Node7</title>
<g id="a_node7"><a xlink:href="../../dc/d6d/classjavolution_1_1text_1_1Text.html#a5c6353e6afab67a3040d2db954074e1a" target="_top" xlink:title=" ">
<polygon fill="white" stroke="black" points="186.5,-126 186.5,-145 337.5,-145 337.5,-126 186.5,-126"/>
<text text-anchor="middle" x="262" y="-133" font-family="Helvetica,sans-Serif" font-size="10.00">javolution.text.Text.subtext</text>
</a>
</g>
</g>
<!-- Node1&#45;&gt;Node7 -->
<g id="edge7" class="edge">
<title>Node1&#45;&gt;Node7</title>
<path fill="none" stroke="midnightblue" d="M363.75,-147.45C355.09,-146.42 346.34,-145.38 337.8,-144.37"/>
<polygon fill="midnightblue" stroke="midnightblue" points="363.51,-150.94 373.85,-148.65 364.33,-143.99 363.51,-150.94"/>
</g>
<!-- Node8 -->
<g id="node8" class="node">
<title>Node8</title>
<g id="a_node8"><a xlink:href="../../dc/d6d/classjavolution_1_1text_1_1Text.html#af7e0b749b93fdbd1bc1840b1ee1c7a1c" target="_top" xlink:title=" ">
<polygon fill="white" stroke="black" points="195,-88 195,-107 329,-107 329,-88 195,-88"/>
<text text-anchor="middle" x="262" y="-95" font-family="Helvetica,sans-Serif" font-size="10.00">javolution.text.Text.trim</text>
</a>
</g>
</g>
<!-- Node1&#45;&gt;Node8 -->
<g id="edge8" class="edge">
<title>Node1&#45;&gt;Node8</title>
<path fill="none" stroke="midnightblue" d="M415.59,-144.23C393.78,-135.71 364.43,-124.73 338,-116.5 327.1,-113.11 315.17,-109.87 304.09,-107.07"/>
<polygon fill="midnightblue" stroke="midnightblue" points="414.46,-147.55 425.04,-147.96 417.02,-141.04 414.46,-147.55"/>
</g>
<!-- Node9 -->
<g id="node9" class="node">
<title>Node9</title>
<g id="a_node9"><a xlink:href="../../dc/d6d/classjavolution_1_1text_1_1Text.html#a0af62cea2835822a6c9be930d5e446da" target="_top" xlink:title=" ">
<polygon fill="white" stroke="black" points="186,-50 186,-69 338,-69 338,-50 186,-50"/>
<text text-anchor="middle" x="262" y="-57" font-family="Helvetica,sans-Serif" font-size="10.00">javolution.text.Text.trimEnd</text>
</a>
</g>
</g>
<!-- Node1&#45;&gt;Node9 -->
<g id="edge9" class="edge">
<title>Node1&#45;&gt;Node9</title>
<path fill="none" stroke="midnightblue" d="M430.34,-141.22C409.48,-123.34 373.54,-94.99 338,-78.5 329.84,-74.71 320.81,-71.61 311.93,-69.08"/>
<polygon fill="midnightblue" stroke="midnightblue" points="428.23,-144.02 438.06,-147.95 432.83,-138.74 428.23,-144.02"/>
</g>
<!-- Node10 -->
<g id="node10" class="node">
<title>Node10</title>
<g id="a_node10"><a xlink:href="../../dc/d6d/classjavolution_1_1text_1_1Text.html#a578069a3e6e5c04c2382dc3e6e9c60b5" target="_top" xlink:title=" ">
<polygon fill="white" stroke="black" points="195,-0.5 195,-30.5 329,-30.5 329,-0.5 195,-0.5"/>
<text text-anchor="start" x="203" y="-18.5" font-family="Helvetica,sans-Serif" font-size="10.00">javolution.text.Text.trim</text>
<text text-anchor="middle" x="262" y="-7.5" font-family="Helvetica,sans-Serif" font-size="10.00">Start</text>
</a>
</g>
</g>
<!-- Node1&#45;&gt;Node10 -->
<g id="edge10" class="edge">
<title>Node1&#45;&gt;Node10</title>
<path fill="none" stroke="midnightblue" d="M435.97,-139.42C417.39,-113.89 380.17,-67.4 338,-40.5 331.98,-36.66 325.32,-33.35 318.51,-30.51"/>
<polygon fill="midnightblue" stroke="midnightblue" points="433.29,-141.69 441.95,-147.8 438.99,-137.63 433.29,-141.69"/>
</g>
<!-- Node4 -->
<g id="node4" class="node">
<title>Node4</title>
<g id="a_node4"><a xlink:href="../../dc/d6d/classjavolution_1_1text_1_1Text.html#afd9b654ac4b4c8b162ab3ad07873ad0f" target="_top" xlink:title=" ">
<polygon fill="white" stroke="black" points="0,-270 0,-289 150,-289 150,-270 0,-270"/>
<text text-anchor="middle" x="75" y="-277" font-family="Helvetica,sans-Serif" font-size="10.00">javolution.text.Text.padLeft</text>
</a>
</g>
</g>
<!-- Node3&#45;&gt;Node4 -->
<g id="edge3" class="edge">
<title>Node3&#45;&gt;Node4</title>
<path fill="none" stroke="midnightblue" d="M180.73,-279.5C170.57,-279.5 160.22,-279.5 150.16,-279.5"/>
<polygon fill="midnightblue" stroke="midnightblue" points="180.8,-283 190.8,-279.5 180.8,-276 180.8,-283"/>
</g>
<!-- Node5&#45;&gt;Node5 -->
<g id="edge5" class="edge">
<title>Node5&#45;&gt;Node5</title>
<path fill="none" stroke="midnightblue" d="M296.86,-241.39C296.35,-247.04 284.73,-251.5 262,-251.5 228.94,-251.5 219.39,-242.07 233.33,-233.26"/>
<polygon fill="midnightblue" stroke="midnightblue" points="299.51,-239.1 290.67,-233.26 293.94,-243.33 299.51,-239.1"/>
</g>
</g>
</svg>
