<?xml version="1.0" encoding="UTF-8" standalone="no"?>
<!DOCTYPE svg PUBLIC "-//W3C//DTD SVG 1.1//EN"
 "http://www.w3.org/Graphics/SVG/1.1/DTD/svg11.dtd">
<!-- Generated by graphviz version 2.43.0 (0)
 -->
<!-- Title: javolution.text.Text.indexOf Pages: 1 -->
<svg width="352pt" height="66pt"
 viewBox="0.00 0.00 352.00 66.00" xmlns="http://www.w3.org/2000/svg" xmlns:xlink="http://www.w3.org/1999/xlink">
<g id="graph0" class="graph" transform="scale(1 1) rotate(0) translate(4 62)">
<title>javolution.text.Text.indexOf</title>
<polygon fill="white" stroke="transparent" points="-4,4 -4,-62 348,-62 348,4 -4,4"/>
<!-- Node1 -->
<g id="node1" class="node">
<title>Node1</title>
<g id="a_node1"><a xlink:title=" ">
<polygon fill="#bfbfbf" stroke="black" points="0,-19.5 0,-38.5 152,-38.5 152,-19.5 0,-19.5"/>
<text text-anchor="middle" x="76" y="-26.5" font-family="Helvetica,sans-Serif" font-size="10.00">javolution.text.Text.indexOf</text>
</a>
</g>
</g>
<!-- Node2 -->
<g id="node2" class="node">
<title>Node2</title>
<g id="a_node2"><a xlink:href="../../dc/d6d/classjavolution_1_1text_1_1Text.html#a9cecbcde5f84d0feff969eaeb4f90af6" target="_top" xlink:title=" ">
<polygon fill="white" stroke="black" points="190,-38.5 190,-57.5 342,-57.5 342,-38.5 190,-38.5"/>
<text text-anchor="middle" x="266" y="-45.5" font-family="Helvetica,sans-Serif" font-size="10.00">javolution.text.Text.indexOf</text>
</a>
</g>
</g>
<!-- Node1&#45;&gt;Node2 -->
<g id="edge1" class="edge">
<title>Node1&#45;&gt;Node2</title>
<path fill="none" stroke="midnightblue" d="M152.11,-36.59C161.1,-37.5 170.34,-38.43 179.46,-39.36"/>
<polygon fill="midnightblue" stroke="midnightblue" points="179.4,-42.87 189.7,-40.39 180.1,-35.9 179.4,-42.87"/>
</g>
<!-- Node3 -->
<g id="node3" class="node">
<title>Node3</title>
<g id="a_node3"><a xlink:href="../../d4/d14/classjavolution_1_1lang_1_1MathLib.html#ad9de726f7e211f74e59ed91c59675841" target="_top" xlink:title=" ">
<polygon fill="white" stroke="black" points="188,-0.5 188,-19.5 344,-19.5 344,-0.5 188,-0.5"/>
<text text-anchor="middle" x="266" y="-7.5" font-family="Helvetica,sans-Serif" font-size="10.00">javolution.lang.MathLib.max</text>
</a>
</g>
</g>
<!-- Node1&#45;&gt;Node3 -->
<g id="edge2" class="edge">
<title>Node1&#45;&gt;Node3</title>
<path fill="none" stroke="midnightblue" d="M152.11,-21.41C160.57,-20.55 169.23,-19.68 177.82,-18.81"/>
<polygon fill="midnightblue" stroke="midnightblue" points="178.26,-22.28 187.85,-17.8 177.55,-15.32 178.26,-22.28"/>
</g>
</g>
</svg>
