<?xml version="1.0" encoding="UTF-8" standalone="no"?>
<!DOCTYPE svg PUBLIC "-//W3C//DTD SVG 1.1//EN"
 "http://www.w3.org/Graphics/SVG/1.1/DTD/svg11.dtd">
<!-- Generated by graphviz version 2.43.0 (0)
 -->
<!-- Title: javolution.text.Text.getChars Pages: 1 -->
<!--zoomable 286 -->
<svg id="main" version="1.1" xmlns="http://www.w3.org/2000/svg" xmlns:xlink="http://www.w3.org/1999/xlink" xml:space="preserve" onload="init(evt)">
<style type="text/css"><![CDATA[
.edge:hover path { stroke: red; }
.edge:hover polygon { stroke: red; fill: red; }
]]></style>
<script type="text/javascript"><![CDATA[
var edges = document.getElementsByTagName('g');
if (edges && edges.length) {
  for (var i=0;i<edges.length;i++) {
    if (edges[i].id.substr(0,4)=='edge') {
      edges[i].setAttribute('class','edge');
    }
  }
}
]]></script>
        <defs>
                <circle id="rim" cx="0" cy="0" r="7"/>
                <circle id="rim2" cx="0" cy="0" r="3.5"/>
                <g id="zoomPlus">
                        <use xlink:href="#rim" fill="#404040">
                                <set attributeName="fill" to="#808080" begin="zoomplus.mouseover" end="zoomplus.mouseout"/>
                        </use>
                        <path d="M-4,0h8M0,-4v8" fill="none" stroke="white" stroke-width="1.5" pointer-events="none"/>
                </g>
                <g id="zoomMin">
                        <use xlink:href="#rim" fill="#404040">
                                <set attributeName="fill" to="#808080" begin="zoomminus.mouseover" end="zoomminus.mouseout"/>
                        </use>
                        <path d="M-4,0h8" fill="none" stroke="white" stroke-width="1.5" pointer-events="none"/>
                </g>
                <g id="dirArrow">
                        <path fill="none" stroke="white" stroke-width="1.5" d="M0,-3.0v7 M-2.5,-0.5L0,-3.0L2.5,-0.5"/>
                </g>
               <g id="resetDef">
                       <use xlink:href="#rim2" fill="#404040">
                               <set attributeName="fill" to="#808080" begin="reset.mouseover" end="reset.mouseout"/>
                       </use>
               </g>
        </defs>

<script type="text/javascript">
var viewWidth = 731;
var viewHeight = 286;
var sectionId = 'dynsection-19';
</script>
<script xlink:href="../../svgpan.js"/>
<svg id="graph" class="graph">
<g id="viewport">
<title>javolution.text.Text.getChars</title>
<polygon fill="white" stroke="transparent" points="-4,4 -4,-282 727,-282 727,4 -4,4"/>
<!-- Node1 -->
<g id="node1" class="node">
<title>Node1</title>
<g id="a_node1"><a xlink:title=" ">
<polygon fill="#bfbfbf" stroke="black" points="593,-133 593,-163 723,-163 723,-133 593,-133"/>
<text text-anchor="start" x="601" y="-151" font-family="Helvetica,sans-Serif" font-size="10.00">javolution.text.Text.get</text>
<text text-anchor="middle" x="658" y="-140" font-family="Helvetica,sans-Serif" font-size="10.00">Chars</text>
</a>
</g>
</g>
<!-- Node1&#45;&gt;Node1 -->
<g id="edge15" class="edge">
<title>Node1&#45;&gt;Node1</title>
<path fill="none" stroke="midnightblue" d="M692.12,-173.46C687.88,-178.18 676.51,-181.5 658,-181.5 627.62,-181.5 616.47,-172.56 624.54,-163.16"/>
<polygon fill="midnightblue" stroke="midnightblue" points="695.59,-172.92 691.46,-163.16 688.6,-173.36 695.59,-172.92"/>
</g>
<!-- Node2 -->
<g id="node2" class="node">
<title>Node2</title>
<g id="a_node2"><a xlink:href="../../d2/d7a/classjavolution_1_1text_1_1TextBuilder.html#a467df7939eb2b4b459bcc032c23a81e4" target="_top" xlink:title=" ">
<polygon fill="white" stroke="black" points="373,-250.5 373,-269.5 557,-269.5 557,-250.5 373,-250.5"/>
<text text-anchor="middle" x="465" y="-257.5" font-family="Helvetica,sans-Serif" font-size="10.00">javolution.text.TextBuilder.append</text>
</a>
</g>
</g>
<!-- Node1&#45;&gt;Node2 -->
<g id="edge1" class="edge">
<title>Node1&#45;&gt;Node2</title>
<path fill="none" stroke="midnightblue" d="M638.83,-170.95C620.5,-192.46 590.24,-223.8 557,-241 549.55,-244.86 541.37,-247.93 533.06,-250.38"/>
<polygon fill="midnightblue" stroke="midnightblue" points="641.54,-173.16 645.25,-163.24 636.16,-168.69 641.54,-173.16"/>
</g>
<!-- Node3 -->
<g id="node3" class="node">
<title>Node3</title>
<g id="a_node3"><a xlink:href="../../dc/d6d/classjavolution_1_1text_1_1Text.html#a3b3e743f59560242f119853208d8d162" target="_top" xlink:title=" ">
<polygon fill="white" stroke="black" points="390,-194.5 390,-213.5 540,-213.5 540,-194.5 390,-194.5"/>
<text text-anchor="middle" x="465" y="-201.5" font-family="Helvetica,sans-Serif" font-size="10.00">javolution.text.Text.append</text>
</a>
</g>
</g>
<!-- Node1&#45;&gt;Node3 -->
<g id="edge2" class="edge">
<title>Node1&#45;&gt;Node3</title>
<path fill="none" stroke="midnightblue" d="M610.83,-166.71C594.06,-173.07 574.85,-179.87 557,-185 544.59,-188.57 531.05,-191.76 518.3,-194.47"/>
<polygon fill="midnightblue" stroke="midnightblue" points="612.32,-169.89 620.39,-163.03 609.8,-163.36 612.32,-169.89"/>
</g>
<!-- Node5 -->
<g id="node5" class="node">
<title>Node5</title>
<g id="a_node5"><a xlink:href="../../dc/d6d/classjavolution_1_1text_1_1Text.html#a8b3994e5aae2b7d193a409d82333f86f" target="_top" xlink:title=" ">
<polygon fill="white" stroke="black" points="392,-138.5 392,-157.5 538,-157.5 538,-138.5 392,-138.5"/>
<text text-anchor="middle" x="465" y="-145.5" font-family="Helvetica,sans-Serif" font-size="10.00">javolution.text.Text.concat</text>
</a>
</g>
</g>
<!-- Node1&#45;&gt;Node5 -->
<g id="edge5" class="edge">
<title>Node1&#45;&gt;Node5</title>
<path fill="none" stroke="midnightblue" d="M582.84,-148C568.17,-148 552.79,-148 538.19,-148"/>
<polygon fill="midnightblue" stroke="midnightblue" points="582.87,-151.5 592.87,-148 582.87,-144.5 582.87,-151.5"/>
</g>
<!-- Node13 -->
<g id="node13" class="node">
<title>Node13</title>
<g id="a_node13"><a xlink:href="../../df/d02/classjavolution_1_1io_1_1CharSequenceReader.html#a108b42ff83f67bedecceb55c3a6984f3" target="_top" xlink:title=" ">
<polygon fill="white" stroke="black" points="390,-89 390,-119 540,-119 540,-89 390,-89"/>
<text text-anchor="start" x="398" y="-107" font-family="Helvetica,sans-Serif" font-size="10.00">javolution.io.CharSequence</text>
<text text-anchor="middle" x="465" y="-96" font-family="Helvetica,sans-Serif" font-size="10.00">Reader.read</text>
</a>
</g>
</g>
<!-- Node1&#45;&gt;Node13 -->
<g id="edge16" class="edge">
<title>Node1&#45;&gt;Node13</title>
<path fill="none" stroke="midnightblue" d="M582.96,-130.94C565.91,-127.02 547.91,-122.87 531.26,-119.03"/>
<polygon fill="midnightblue" stroke="midnightblue" points="582.34,-134.39 592.87,-133.23 583.91,-127.57 582.34,-134.39"/>
</g>
<!-- Node14 -->
<g id="node14" class="node">
<title>Node14</title>
<g id="a_node14"><a xlink:href="../../dc/d6d/classjavolution_1_1text_1_1Text.html#a73c6e800df4b65f8ca9b0b7de2432438" target="_top" xlink:title=" ">
<polygon fill="white" stroke="black" points="389,-50.5 389,-69.5 541,-69.5 541,-50.5 389,-50.5"/>
<text text-anchor="middle" x="465" y="-57.5" font-family="Helvetica,sans-Serif" font-size="10.00">javolution.text.Text.toString</text>
</a>
</g>
</g>
<!-- Node1&#45;&gt;Node14 -->
<g id="edge17" class="edge">
<title>Node1&#45;&gt;Node14</title>
<path fill="none" stroke="midnightblue" d="M631.45,-126.57C612.15,-111.42 584.38,-91.79 557,-80 547.05,-75.71 536.07,-72.3 525.29,-69.6"/>
<polygon fill="midnightblue" stroke="midnightblue" points="629.45,-129.44 639.44,-132.96 633.82,-123.98 629.45,-129.44"/>
</g>
<!-- Node3&#45;&gt;Node3 -->
<g id="edge3" class="edge">
<title>Node3&#45;&gt;Node3</title>
<path fill="none" stroke="midnightblue" d="M501,-221.5C500.99,-227.34 488.99,-232 465,-232 430.88,-232 421.01,-222.57 435.41,-213.76"/>
<polygon fill="midnightblue" stroke="midnightblue" points="503.66,-219.23 494.59,-213.76 498.27,-223.69 503.66,-219.23"/>
</g>
<!-- Node4 -->
<g id="node4" class="node">
<title>Node4</title>
<g id="a_node4"><a xlink:href="../../dc/d6d/classjavolution_1_1text_1_1Text.html#a0a912728e43d6b58c2cb01178952eaaf" target="_top" xlink:title=" ">
<polygon fill="white" stroke="black" points="194.5,-258.5 194.5,-277.5 328.5,-277.5 328.5,-258.5 194.5,-258.5"/>
<text text-anchor="middle" x="261.5" y="-265.5" font-family="Helvetica,sans-Serif" font-size="10.00">javolution.text.Text.plus</text>
</a>
</g>
</g>
<!-- Node3&#45;&gt;Node4 -->
<g id="edge4" class="edge">
<title>Node3&#45;&gt;Node4</title>
<path fill="none" stroke="midnightblue" d="M429.38,-217.23C404,-226.69 368.61,-239.39 337,-249 326.02,-252.34 314.01,-255.58 302.9,-258.41"/>
<polygon fill="midnightblue" stroke="midnightblue" points="430.79,-220.44 438.92,-213.65 428.33,-213.88 430.79,-220.44"/>
</g>
<!-- Node5&#45;&gt;Node5 -->
<g id="edge6" class="edge">
<title>Node5&#45;&gt;Node5</title>
<path fill="none" stroke="midnightblue" d="M501,-165.5C500.99,-171.34 488.99,-176 465,-176 430.88,-176 421.01,-166.57 435.41,-157.76"/>
<polygon fill="midnightblue" stroke="midnightblue" points="503.66,-163.23 494.59,-157.76 498.27,-167.69 503.66,-163.23"/>
</g>
<!-- Node6 -->
<g id="node6" class="node">
<title>Node6</title>
<g id="a_node6"><a xlink:href="../../dc/d6d/classjavolution_1_1text_1_1Text.html#adcc6b215bbc196426149d1ac61c505d1" target="_top" xlink:title=" ">
<polygon fill="white" stroke="black" points="189,-220.5 189,-239.5 334,-239.5 334,-220.5 189,-220.5"/>
<text text-anchor="middle" x="261.5" y="-227.5" font-family="Helvetica,sans-Serif" font-size="10.00">javolution.text.Text.delete</text>
</a>
</g>
</g>
<!-- Node5&#45;&gt;Node6 -->
<g id="edge7" class="edge">
<title>Node5&#45;&gt;Node6</title>
<path fill="none" stroke="midnightblue" d="M426.25,-161.02C409.51,-167.38 389.84,-175.67 373,-185 355.74,-194.56 354.88,-202.64 337,-211 328.9,-214.79 319.94,-217.9 311.12,-220.42"/>
<polygon fill="midnightblue" stroke="midnightblue" points="427.57,-164.27 435.73,-157.51 425.13,-157.7 427.57,-164.27"/>
</g>
<!-- Node7 -->
<g id="node7" class="node">
<title>Node7</title>
<g id="a_node7"><a xlink:href="../../dc/d6d/classjavolution_1_1text_1_1Text.html#ae30bf7c893909fbd0e64b4f955000d0f" target="_top" xlink:title=" ">
<polygon fill="white" stroke="black" points="190.5,-182.5 190.5,-201.5 332.5,-201.5 332.5,-182.5 190.5,-182.5"/>
<text text-anchor="middle" x="261.5" y="-189.5" font-family="Helvetica,sans-Serif" font-size="10.00">javolution.text.Text.insert</text>
</a>
</g>
</g>
<!-- Node5&#45;&gt;Node7 -->
<g id="edge8" class="edge">
<title>Node5&#45;&gt;Node7</title>
<path fill="none" stroke="midnightblue" d="M410.46,-159.69C377.86,-166.81 336.75,-175.79 306.14,-182.47"/>
<polygon fill="midnightblue" stroke="midnightblue" points="411.25,-163.1 420.28,-157.55 409.76,-156.26 411.25,-163.1"/>
</g>
<!-- Node9 -->
<g id="node9" class="node">
<title>Node9</title>
<g id="a_node9"><a xlink:href="../../dc/d6d/classjavolution_1_1text_1_1Text.html#aef7e50bfcb70206543c4f02cb2c17984" target="_top" xlink:title=" ">
<polygon fill="white" stroke="black" points="195.5,-133 195.5,-163 327.5,-163 327.5,-133 195.5,-133"/>
<text text-anchor="start" x="203.5" y="-151" font-family="Helvetica,sans-Serif" font-size="10.00">javolution.text.Text.pad</text>
<text text-anchor="middle" x="261.5" y="-140" font-family="Helvetica,sans-Serif" font-size="10.00">Right</text>
</a>
</g>
</g>
<!-- Node5&#45;&gt;Node9 -->
<g id="edge10" class="edge">
<title>Node5&#45;&gt;Node9</title>
<path fill="none" stroke="midnightblue" d="M381.66,-148C363.72,-148 344.98,-148 327.81,-148"/>
<polygon fill="midnightblue" stroke="midnightblue" points="381.82,-151.5 391.82,-148 381.82,-144.5 381.82,-151.5"/>
</g>
<!-- Node10 -->
<g id="node10" class="node">
<title>Node10</title>
<g id="a_node10"><a xlink:href="../../dc/d6d/classjavolution_1_1text_1_1Text.html#a726e13b001235cf751915f150eff9cfe" target="_top" xlink:title=" ">
<polygon fill="white" stroke="black" points="194.5,-94.5 194.5,-113.5 328.5,-113.5 328.5,-94.5 194.5,-94.5"/>
<text text-anchor="middle" x="261.5" y="-101.5" font-family="Helvetica,sans-Serif" font-size="10.00">javolution.text.Text.plus</text>
</a>
</g>
</g>
<!-- Node5&#45;&gt;Node10 -->
<g id="edge11" class="edge">
<title>Node5&#45;&gt;Node10</title>
<path fill="none" stroke="midnightblue" d="M407.73,-136.41C396.24,-133.99 384.22,-131.44 373,-129 350.13,-124.03 324.64,-118.27 303.92,-113.54"/>
<polygon fill="midnightblue" stroke="midnightblue" points="407.17,-139.86 417.67,-138.48 408.6,-133.01 407.17,-139.86"/>
</g>
<!-- Node11 -->
<g id="node11" class="node">
<title>Node11</title>
<g id="a_node11"><a xlink:href="../../dc/d6d/classjavolution_1_1text_1_1Text.html#a29d88e2c5e0fe812c983600d26d72f3d" target="_top" xlink:title=" ">
<polygon fill="white" stroke="black" points="186.5,-38.5 186.5,-57.5 336.5,-57.5 336.5,-38.5 186.5,-38.5"/>
<text text-anchor="middle" x="261.5" y="-45.5" font-family="Helvetica,sans-Serif" font-size="10.00">javolution.text.Text.replace</text>
</a>
</g>
</g>
<!-- Node5&#45;&gt;Node11 -->
<g id="edge12" class="edge">
<title>Node5&#45;&gt;Node11</title>
<path fill="none" stroke="midnightblue" d="M383.93,-134.65C380.14,-132.98 376.47,-131.11 373,-129 351.4,-115.89 356.76,-100.75 337,-85 322.32,-73.3 303.34,-63.94 288.21,-57.56"/>
<polygon fill="midnightblue" stroke="midnightblue" points="382.98,-138.04 393.57,-138.4 385.52,-131.51 382.98,-138.04"/>
</g>
<!-- Node12 -->
<g id="node12" class="node">
<title>Node12</title>
<g id="a_node12"><a xlink:href="../../dc/d6d/classjavolution_1_1text_1_1Text.html#a5c6353e6afab67a3040d2db954074e1a" target="_top" xlink:title=" ">
<polygon fill="white" stroke="black" points="186,-0.5 186,-19.5 337,-19.5 337,-0.5 186,-0.5"/>
<text text-anchor="middle" x="261.5" y="-7.5" font-family="Helvetica,sans-Serif" font-size="10.00">javolution.text.Text.subtext</text>
</a>
</g>
</g>
<!-- Node5&#45;&gt;Node12 -->
<g id="edge14" class="edge">
<title>Node5&#45;&gt;Node12</title>
<path fill="none" stroke="midnightblue" d="M382.41,-135.71C379.07,-133.76 375.91,-131.53 373,-129 337.35,-98.01 371.96,-60.76 337,-29 332.75,-25.14 327.83,-22.04 322.58,-19.56"/>
<polygon fill="midnightblue" stroke="midnightblue" points="381.1,-138.96 391.62,-140.26 384.21,-132.69 381.1,-138.96"/>
</g>
<!-- Node8 -->
<g id="node8" class="node">
<title>Node8</title>
<g id="a_node8"><a xlink:href="../../dc/d6d/classjavolution_1_1text_1_1Text.html#afd9b654ac4b4c8b162ab3ad07873ad0f" target="_top" xlink:title=" ">
<polygon fill="white" stroke="black" points="0,-182.5 0,-201.5 150,-201.5 150,-182.5 0,-182.5"/>
<text text-anchor="middle" x="75" y="-189.5" font-family="Helvetica,sans-Serif" font-size="10.00">javolution.text.Text.padLeft</text>
</a>
</g>
</g>
<!-- Node7&#45;&gt;Node8 -->
<g id="edge9" class="edge">
<title>Node7&#45;&gt;Node8</title>
<path fill="none" stroke="midnightblue" d="M180.21,-192C170.26,-192 160.12,-192 150.27,-192"/>
<polygon fill="midnightblue" stroke="midnightblue" points="180.49,-195.5 190.49,-192 180.49,-188.5 180.49,-195.5"/>
</g>
<!-- Node11&#45;&gt;Node11 -->
<g id="edge13" class="edge">
<title>Node11&#45;&gt;Node11</title>
<path fill="none" stroke="midnightblue" d="M296.36,-65.89C295.85,-71.54 284.23,-76 261.5,-76 228.44,-76 218.89,-66.57 232.83,-57.76"/>
<polygon fill="midnightblue" stroke="midnightblue" points="299.01,-63.6 290.17,-57.76 293.44,-67.83 299.01,-63.6"/>
</g>
</g>
</svg>
        <g id="navigator" transform="translate(0 0)" fill="#404254">
                <rect fill="#f2f5e9" fill-opacity="0.5" stroke="#606060" stroke-width=".5" x="0" y="0" width="60" height="60"/>
                <use id="zoomplus" xlink:href="#zoomPlus" x="17" y="9" onmousedown="handleZoom(evt,'in')"/>
                <use id="zoomminus" xlink:href="#zoomMin" x="42" y="9" onmousedown="handleZoom(evt,'out')"/>
                <use id="reset" xlink:href="#resetDef" x="30" y="36" onmousedown="handleReset()"/>
                <g id="arrowUp" xlink:href="#dirArrow" transform="translate(30 24)" onmousedown="handlePan(0,-1)">
                  <use xlink:href="#rim" fill="#404040">
                        <set attributeName="fill" to="#808080" begin="arrowUp.mouseover" end="arrowUp.mouseout"/>
                  </use>
                  <path fill="none" stroke="white" stroke-width="1.5" d="M0,-3.0v7 M-2.5,-0.5L0,-3.0L2.5,-0.5"/>
                </g>
                <g id="arrowRight" xlink:href="#dirArrow" transform="rotate(90) translate(36 -43)" onmousedown="handlePan(1,0)">
                  <use xlink:href="#rim" fill="#404040">
                        <set attributeName="fill" to="#808080" begin="arrowRight.mouseover" end="arrowRight.mouseout"/>
                  </use>
                  <path fill="none" stroke="white" stroke-width="1.5" d="M0,-3.0v7 M-2.5,-0.5L0,-3.0L2.5,-0.5"/>
                </g>
                <g id="arrowDown" xlink:href="#dirArrow" transform="rotate(180) translate(-30 -48)" onmousedown="handlePan(0,1)">
                  <use xlink:href="#rim" fill="#404040">
                        <set attributeName="fill" to="#808080" begin="arrowDown.mouseover" end="arrowDown.mouseout"/>
                  </use>
                  <path fill="none" stroke="white" stroke-width="1.5" d="M0,-3.0v7 M-2.5,-0.5L0,-3.0L2.5,-0.5"/>
                </g>
                <g id="arrowLeft" xlink:href="#dirArrow" transform="rotate(270) translate(-36 17)" onmousedown="handlePan(-1,0)">
                  <use xlink:href="#rim" fill="#404040">
                        <set attributeName="fill" to="#808080" begin="arrowLeft.mouseover" end="arrowLeft.mouseout"/>
                  </use>
                  <path fill="none" stroke="white" stroke-width="1.5" d="M0,-3.0v7 M-2.5,-0.5L0,-3.0L2.5,-0.5"/>
                </g>
        </g>
        <svg viewBox="0 0 15 15" width="100%" height="30px" preserveAspectRatio="xMaxYMin meet">
         <g id="arrow_out" transform="scale(0.3 0.3)">
          <a xlink:href="classjavolution_1_1text_1_1Text_a5ebc6a09946ae53d0f4ef5ace0831bc2_icgraph_org.svg" target="_base">
           <rect id="button" ry="5" rx="5" y="6" x="6" height="38" width="38"
                fill="#f2f5e9" fill-opacity="0.5" stroke="#606060" stroke-width="1.0"/>
           <path id="arrow"
             d="M 11.500037,31.436501 C 11.940474,20.09759 22.043105,11.32322 32.158766,21.979434 L 37.068811,17.246167 C 37.068811,17.246167 37.088388,32 37.088388,32 L 22.160133,31.978069 C 22.160133,31.978069 26.997745,27.140456 26.997745,27.140456 C 18.528582,18.264221 13.291696,25.230495 11.500037,31.436501 z"
             style="fill:#404040;"/>
          </a>
         </g>
        </svg>
</svg>
