<?xml version="1.0" encoding="UTF-8" standalone="no"?>
<!DOCTYPE svg PUBLIC "-//W3C//DTD SVG 1.1//EN"
 "http://www.w3.org/Graphics/SVG/1.1/DTD/svg11.dtd">
<!-- Generated by graphviz version 2.43.0 (0)
 -->
<!-- Title: javolution.text.Text.trimStart Pages: 1 -->
<svg width="510pt" height="122pt"
 viewBox="0.00 0.00 510.00 122.00" xmlns="http://www.w3.org/2000/svg" xmlns:xlink="http://www.w3.org/1999/xlink">
<g id="graph0" class="graph" transform="scale(1 1) rotate(0) translate(4 118)">
<title>javolution.text.Text.trimStart</title>
<polygon fill="white" stroke="transparent" points="-4,4 -4,-118 506,-118 506,4 -4,4"/>
<!-- Node1 -->
<g id="node1" class="node">
<title>Node1</title>
<g id="a_node1"><a xlink:title=" ">
<polygon fill="#bfbfbf" stroke="black" points="0,-33 0,-63 134,-63 134,-33 0,-33"/>
<text text-anchor="start" x="8" y="-51" font-family="Helvetica,sans-Serif" font-size="10.00">javolution.text.Text.trim</text>
<text text-anchor="middle" x="67" y="-40" font-family="Helvetica,sans-Serif" font-size="10.00">Start</text>
</a>
</g>
</g>
<!-- Node2 -->
<g id="node2" class="node">
<title>Node2</title>
<g id="a_node2"><a xlink:href="../../dc/d6d/classjavolution_1_1text_1_1Text.html#aff336ffd1fd0f4dc5d8338f5fb12e84d" target="_top" xlink:title=" ">
<polygon fill="white" stroke="black" points="172.5,-76.5 172.5,-95.5 318.5,-95.5 318.5,-76.5 172.5,-76.5"/>
<text text-anchor="middle" x="245.5" y="-83.5" font-family="Helvetica,sans-Serif" font-size="10.00">javolution.text.Text.charAt</text>
</a>
</g>
</g>
<!-- Node1&#45;&gt;Node2 -->
<g id="edge1" class="edge">
<title>Node1&#45;&gt;Node2</title>
<path fill="none" stroke="midnightblue" d="M134.22,-62.26C152.62,-66.22 172.38,-70.47 190.03,-74.27"/>
<polygon fill="midnightblue" stroke="midnightblue" points="189.63,-77.77 200.14,-76.45 191.1,-70.92 189.63,-77.77"/>
</g>
<!-- Node3 -->
<g id="node3" class="node">
<title>Node3</title>
<g id="a_node3"><a xlink:href="../../dc/d6d/classjavolution_1_1text_1_1Text.html#ae20f0d750950188da8be25b4aa950895" target="_top" xlink:title=" ">
<polygon fill="white" stroke="black" points="357,-19.5 357,-38.5 502,-38.5 502,-19.5 357,-19.5"/>
<text text-anchor="middle" x="429.5" y="-26.5" font-family="Helvetica,sans-Serif" font-size="10.00">javolution.text.Text.length</text>
</a>
</g>
</g>
<!-- Node1&#45;&gt;Node3 -->
<g id="edge3" class="edge">
<title>Node1&#45;&gt;Node3</title>
<path fill="none" stroke="midnightblue" d="M134.12,-44.52C194.03,-41.36 282.52,-36.69 346.82,-33.3"/>
<polygon fill="midnightblue" stroke="midnightblue" points="347.13,-36.79 356.93,-32.77 346.76,-29.8 347.13,-36.79"/>
</g>
<!-- Node4 -->
<g id="node4" class="node">
<title>Node4</title>
<g id="a_node4"><a xlink:href="../../dc/d6d/classjavolution_1_1text_1_1Text.html#a92855be8cd5c93d0c7de87fbb4656630" target="_top" xlink:title=" ">
<polygon fill="white" stroke="black" points="170,-0.5 170,-19.5 321,-19.5 321,-0.5 170,-0.5"/>
<text text-anchor="middle" x="245.5" y="-7.5" font-family="Helvetica,sans-Serif" font-size="10.00">javolution.text.Text.subtext</text>
</a>
</g>
</g>
<!-- Node1&#45;&gt;Node4 -->
<g id="edge4" class="edge">
<title>Node1&#45;&gt;Node4</title>
<path fill="none" stroke="midnightblue" d="M134.22,-33.74C152.62,-29.78 172.38,-25.53 190.03,-21.73"/>
<polygon fill="midnightblue" stroke="midnightblue" points="191.1,-25.08 200.14,-19.55 189.63,-18.23 191.1,-25.08"/>
</g>
<!-- Node2&#45;&gt;Node2 -->
<g id="edge2" class="edge">
<title>Node2&#45;&gt;Node2</title>
<path fill="none" stroke="midnightblue" d="M218.07,-95.76C204.72,-104.57 213.86,-114 245.5,-114 267.25,-114 278.37,-109.54 278.86,-103.89"/>
<polygon fill="midnightblue" stroke="midnightblue" points="281.65,-101.78 272.93,-95.76 275.99,-105.9 281.65,-101.78"/>
</g>
<!-- Node4&#45;&gt;Node3 -->
<g id="edge5" class="edge">
<title>Node4&#45;&gt;Node3</title>
<path fill="none" stroke="midnightblue" d="M321.05,-17.78C329.52,-18.67 338.18,-19.57 346.74,-20.46"/>
<polygon fill="midnightblue" stroke="midnightblue" points="346.4,-23.95 356.71,-21.51 347.13,-16.99 346.4,-23.95"/>
</g>
</g>
</svg>
