<?xml version="1.0" encoding="UTF-8" standalone="no"?>
<!DOCTYPE svg PUBLIC "-//W3C//DTD SVG 1.1//EN"
 "http://www.w3.org/Graphics/SVG/1.1/DTD/svg11.dtd">
<!-- Generated by graphviz version 2.43.0 (0)
 -->
<!-- Title: javolution.text.Text.getDepth Pages: 1 -->
<svg width="330pt" height="57pt"
 viewBox="0.00 0.00 330.00 57.00" xmlns="http://www.w3.org/2000/svg" xmlns:xlink="http://www.w3.org/1999/xlink">
<g id="graph0" class="graph" transform="scale(1 1) rotate(0) translate(4 53)">
<title>javolution.text.Text.getDepth</title>
<polygon fill="white" stroke="transparent" points="-4,4 -4,-53 326,-53 326,4 -4,4"/>
<!-- Node1 -->
<g id="node1" class="node">
<title>Node1</title>
<g id="a_node1"><a xlink:title=" ">
<polygon fill="#bfbfbf" stroke="black" points="0,-0.5 0,-30.5 130,-30.5 130,-0.5 0,-0.5"/>
<text text-anchor="start" x="8" y="-18.5" font-family="Helvetica,sans-Serif" font-size="10.00">javolution.text.Text.get</text>
<text text-anchor="middle" x="65" y="-7.5" font-family="Helvetica,sans-Serif" font-size="10.00">Depth</text>
</a>
</g>
</g>
<!-- Node1&#45;&gt;Node1 -->
<g id="edge1" class="edge">
<title>Node1&#45;&gt;Node1</title>
<path fill="none" stroke="midnightblue" d="M33.98,-30.66C26.5,-40.06 36.84,-49 65,-49 82.16,-49 92.7,-45.68 96.63,-40.96"/>
<polygon fill="midnightblue" stroke="midnightblue" points="100.1,-40.44 96.02,-30.66 93.12,-40.85 100.1,-40.44"/>
</g>
<!-- Node2 -->
<g id="node2" class="node">
<title>Node2</title>
<g id="a_node2"><a xlink:href="../../d4/d14/classjavolution_1_1lang_1_1MathLib.html#ad9de726f7e211f74e59ed91c59675841" target="_top" xlink:title=" ">
<polygon fill="white" stroke="black" points="166,-6 166,-25 322,-25 322,-6 166,-6"/>
<text text-anchor="middle" x="244" y="-13" font-family="Helvetica,sans-Serif" font-size="10.00">javolution.lang.MathLib.max</text>
</a>
</g>
</g>
<!-- Node1&#45;&gt;Node2 -->
<g id="edge2" class="edge">
<title>Node1&#45;&gt;Node2</title>
<path fill="none" stroke="midnightblue" d="M130.15,-15.5C138.47,-15.5 147.1,-15.5 155.72,-15.5"/>
<polygon fill="midnightblue" stroke="midnightblue" points="155.81,-19 165.81,-15.5 155.81,-12 155.81,-19"/>
</g>
</g>
</svg>
