<?xml version="1.0" encoding="UTF-8" standalone="no"?>
<!DOCTYPE svg PUBLIC "-//W3C//DTD SVG 1.1//EN"
 "http://www.w3.org/Graphics/SVG/1.1/DTD/svg11.dtd">
<!-- Generated by graphviz version 2.43.0 (0)
 -->
<!-- Title: javolution.text.Text.padLeft Pages: 1 -->
<!--zoomable 437 -->
<svg id="main" version="1.1" xmlns="http://www.w3.org/2000/svg" xmlns:xlink="http://www.w3.org/1999/xlink" xml:space="preserve" onload="init(evt)">
<style type="text/css"><![CDATA[
.edge:hover path { stroke: red; }
.edge:hover polygon { stroke: red; fill: red; }
]]></style>
<script type="text/javascript"><![CDATA[
var edges = document.getElementsByTagName('g');
if (edges && edges.length) {
  for (var i=0;i<edges.length;i++) {
    if (edges[i].id.substr(0,4)=='edge') {
      edges[i].setAttribute('class','edge');
    }
  }
}
]]></script>
        <defs>
                <circle id="rim" cx="0" cy="0" r="7"/>
                <circle id="rim2" cx="0" cy="0" r="3.5"/>
                <g id="zoomPlus">
                        <use xlink:href="#rim" fill="#404040">
                                <set attributeName="fill" to="#808080" begin="zoomplus.mouseover" end="zoomplus.mouseout"/>
                        </use>
                        <path d="M-4,0h8M0,-4v8" fill="none" stroke="white" stroke-width="1.5" pointer-events="none"/>
                </g>
                <g id="zoomMin">
                        <use xlink:href="#rim" fill="#404040">
                                <set attributeName="fill" to="#808080" begin="zoomminus.mouseover" end="zoomminus.mouseout"/>
                        </use>
                        <path d="M-4,0h8" fill="none" stroke="white" stroke-width="1.5" pointer-events="none"/>
                </g>
                <g id="dirArrow">
                        <path fill="none" stroke="white" stroke-width="1.5" d="M0,-3.0v7 M-2.5,-0.5L0,-3.0L2.5,-0.5"/>
                </g>
               <g id="resetDef">
                       <use xlink:href="#rim2" fill="#404040">
                               <set attributeName="fill" to="#808080" begin="reset.mouseover" end="reset.mouseout"/>
                       </use>
               </g>
        </defs>

<script type="text/javascript">
var viewWidth = 1142;
var viewHeight = 437;
var sectionId = 'dynsection-53';
</script>
<script xlink:href="../../svgpan.js"/>
<svg id="graph" class="graph">
<g id="viewport">
<title>javolution.text.Text.padLeft</title>
<polygon fill="white" stroke="transparent" points="-4,4 -4,-432.5 1138,-432.5 1138,4 -4,4"/>
<!-- Node1 -->
<g id="node1" class="node">
<title>Node1</title>
<g id="a_node1"><a xlink:title=" ">
<polygon fill="#bfbfbf" stroke="black" points="0,-79.5 0,-98.5 150,-98.5 150,-79.5 0,-79.5"/>
<text text-anchor="middle" x="75" y="-86.5" font-family="Helvetica,sans-Serif" font-size="10.00">javolution.text.Text.padLeft</text>
</a>
</g>
</g>
<!-- Node2 -->
<g id="node2" class="node">
<title>Node2</title>
<g id="a_node2"><a xlink:href="../../dc/d6d/classjavolution_1_1text_1_1Text.html#ae30bf7c893909fbd0e64b4f955000d0f" target="_top" xlink:title=" ">
<polygon fill="white" stroke="black" points="191,-117.5 191,-136.5 333,-136.5 333,-117.5 191,-117.5"/>
<text text-anchor="middle" x="262" y="-124.5" font-family="Helvetica,sans-Serif" font-size="10.00">javolution.text.Text.insert</text>
</a>
</g>
</g>
<!-- Node1&#45;&gt;Node2 -->
<g id="edge1" class="edge">
<title>Node1&#45;&gt;Node2</title>
<path fill="none" stroke="midnightblue" d="M122.68,-98.59C147.65,-103.72 178.56,-110.07 204.83,-115.46"/>
<polygon fill="midnightblue" stroke="midnightblue" points="204.15,-118.9 214.65,-117.48 205.56,-112.04 204.15,-118.9"/>
</g>
<!-- Node8 -->
<g id="node8" class="node">
<title>Node8</title>
<g id="a_node8"><a xlink:href="../../dc/d6d/classjavolution_1_1text_1_1Text.html#ae20f0d750950188da8be25b4aa950895" target="_top" xlink:title=" ">
<polygon fill="white" stroke="black" points="819,-136.5 819,-155.5 964,-155.5 964,-136.5 819,-136.5"/>
<text text-anchor="middle" x="891.5" y="-143.5" font-family="Helvetica,sans-Serif" font-size="10.00">javolution.text.Text.length</text>
</a>
</g>
</g>
<!-- Node1&#45;&gt;Node8 -->
<g id="edge18" class="edge">
<title>Node1&#45;&gt;Node8</title>
<path fill="none" stroke="midnightblue" d="M150.09,-89.86C279.15,-92.1 553.37,-100.16 783,-129 796.58,-130.71 811.08,-132.81 824.89,-134.94"/>
<polygon fill="midnightblue" stroke="midnightblue" points="824.38,-138.41 834.8,-136.5 825.47,-131.49 824.38,-138.41"/>
</g>
<!-- Node12 -->
<g id="node12" class="node">
<title>Node12</title>
<g id="a_node12"><a xlink:href="../../dc/d6d/classjavolution_1_1text_1_1Text.html#ac51238a5b10c199fc942f17c6a2c94c5" target="_top" xlink:title=" ">
<polygon fill="white" stroke="black" points="186,-19.5 186,-38.5 338,-38.5 338,-19.5 186,-19.5"/>
<text text-anchor="middle" x="262" y="-26.5" font-family="Helvetica,sans-Serif" font-size="10.00">javolution.text.Text.valueOf</text>
</a>
</g>
</g>
<!-- Node1&#45;&gt;Node12 -->
<g id="edge19" class="edge">
<title>Node1&#45;&gt;Node12</title>
<path fill="none" stroke="midnightblue" d="M105.31,-79.49C136.75,-69.3 186.84,-53.05 221.68,-41.75"/>
<polygon fill="midnightblue" stroke="midnightblue" points="223.09,-44.98 231.52,-38.56 220.93,-38.32 223.09,-44.98"/>
</g>
<!-- Node3 -->
<g id="node3" class="node">
<title>Node3</title>
<g id="a_node3"><a xlink:href="../../dc/d6d/classjavolution_1_1text_1_1Text.html#a8b3994e5aae2b7d193a409d82333f86f" target="_top" xlink:title=" ">
<polygon fill="white" stroke="black" points="393,-248.5 393,-267.5 539,-267.5 539,-248.5 393,-248.5"/>
<text text-anchor="middle" x="466" y="-255.5" font-family="Helvetica,sans-Serif" font-size="10.00">javolution.text.Text.concat</text>
</a>
</g>
</g>
<!-- Node2&#45;&gt;Node3 -->
<g id="edge2" class="edge">
<title>Node2&#45;&gt;Node3</title>
<path fill="none" stroke="midnightblue" d="M277.85,-136.63C312.66,-159.2 399.69,-215.65 441.65,-242.86"/>
<polygon fill="midnightblue" stroke="midnightblue" points="439.83,-245.85 450.12,-248.35 443.64,-239.98 439.83,-245.85"/>
</g>
<!-- Node11 -->
<g id="node11" class="node">
<title>Node11</title>
<g id="a_node11"><a xlink:href="../../dc/d6d/classjavolution_1_1text_1_1Text.html#a92855be8cd5c93d0c7de87fbb4656630" target="_top" xlink:title=" ">
<polygon fill="white" stroke="black" points="390.5,-117.5 390.5,-136.5 541.5,-136.5 541.5,-117.5 390.5,-117.5"/>
<text text-anchor="middle" x="466" y="-124.5" font-family="Helvetica,sans-Serif" font-size="10.00">javolution.text.Text.subtext</text>
</a>
</g>
</g>
<!-- Node2&#45;&gt;Node11 -->
<g id="edge16" class="edge">
<title>Node2&#45;&gt;Node11</title>
<path fill="none" stroke="midnightblue" d="M333.08,-127C348.23,-127 364.39,-127 380.04,-127"/>
<polygon fill="midnightblue" stroke="midnightblue" points="380.22,-130.5 390.22,-127 380.22,-123.5 380.22,-130.5"/>
</g>
<!-- Node3&#45;&gt;Node3 -->
<g id="edge3" class="edge">
<title>Node3&#45;&gt;Node3</title>
<path fill="none" stroke="midnightblue" d="M434.56,-267.76C419.26,-276.57 429.74,-286 466,-286 492.06,-286 504.8,-281.13 504.23,-275.11"/>
<polygon fill="midnightblue" stroke="midnightblue" points="506.8,-272.73 497.44,-267.76 501.65,-277.48 506.8,-272.73"/>
</g>
<!-- Node4 -->
<g id="node4" class="node">
<title>Node4</title>
<g id="a_node4"><a xlink:href="../../dc/d6d/classjavolution_1_1text_1_1Text.html#a5ebc6a09946ae53d0f4ef5ace0831bc2" target="_top" xlink:title=" ">
<polygon fill="white" stroke="black" points="623.5,-380 623.5,-410 753.5,-410 753.5,-380 623.5,-380"/>
<text text-anchor="start" x="631.5" y="-398" font-family="Helvetica,sans-Serif" font-size="10.00">javolution.text.Text.get</text>
<text text-anchor="middle" x="688.5" y="-387" font-family="Helvetica,sans-Serif" font-size="10.00">Chars</text>
</a>
</g>
</g>
<!-- Node3&#45;&gt;Node4 -->
<g id="edge4" class="edge">
<title>Node3&#45;&gt;Node4</title>
<path fill="none" stroke="midnightblue" d="M474.82,-267.55C493.21,-289.36 541.64,-343.12 594,-371 600.06,-374.23 606.58,-377.04 613.25,-379.48"/>
<polygon fill="midnightblue" stroke="midnightblue" points="612.51,-382.92 623.1,-382.8 614.75,-376.29 612.51,-382.92"/>
</g>
<!-- Node5 -->
<g id="node5" class="node">
<title>Node5</title>
<g id="a_node5"><a xlink:href="../../dc/d6d/classjavolution_1_1text_1_1Text.html#a5545cd98010d50156e8f48b5112c22a3" target="_top" xlink:title=" ">
<polygon fill="white" stroke="black" points="623.5,-331 623.5,-361 753.5,-361 753.5,-331 623.5,-331"/>
<text text-anchor="start" x="631.5" y="-349" font-family="Helvetica,sans-Serif" font-size="10.00">javolution.text.Text.left</text>
<text text-anchor="middle" x="688.5" y="-338" font-family="Helvetica,sans-Serif" font-size="10.00">Rotation</text>
</a>
</g>
</g>
<!-- Node3&#45;&gt;Node5 -->
<g id="edge6" class="edge">
<title>Node3&#45;&gt;Node5</title>
<path fill="none" stroke="midnightblue" d="M486.06,-267.56C510.64,-279.69 554.9,-300.86 594,-316 604.57,-320.09 615.97,-324.09 627.04,-327.75"/>
<polygon fill="midnightblue" stroke="midnightblue" points="626.06,-331.12 636.65,-330.89 628.23,-324.46 626.06,-331.12"/>
</g>
<!-- Node6 -->
<g id="node6" class="node">
<title>Node6</title>
<g id="a_node6"><a xlink:href="../../dc/d6d/classjavolution_1_1text_1_1Text.html#a71b1cf384add94cc256ab5e07b410702" target="_top" xlink:title=" ">
<polygon fill="white" stroke="black" points="824.5,-265 824.5,-295 958.5,-295 958.5,-265 824.5,-265"/>
<text text-anchor="start" x="832.5" y="-283" font-family="Helvetica,sans-Serif" font-size="10.00">javolution.text.Text.new</text>
<text text-anchor="middle" x="891.5" y="-272" font-family="Helvetica,sans-Serif" font-size="10.00">Composite</text>
</a>
</g>
</g>
<!-- Node3&#45;&gt;Node6 -->
<g id="edge10" class="edge">
<title>Node3&#45;&gt;Node6</title>
<path fill="none" stroke="midnightblue" d="M505.06,-267.5C530.14,-273.27 563.81,-280.06 594,-283 677.6,-291.15 699.01,-284.17 783,-283 793.12,-282.86 803.76,-282.64 814.27,-282.39"/>
<polygon fill="midnightblue" stroke="midnightblue" points="814.36,-285.89 824.27,-282.14 814.19,-278.89 814.36,-285.89"/>
</g>
<!-- Node3&#45;&gt;Node8 -->
<g id="edge9" class="edge">
<title>Node3&#45;&gt;Node8</title>
<path fill="none" stroke="midnightblue" d="M479.89,-248.27C501.95,-232.17 548.95,-200.24 594,-185 632.52,-171.97 734.9,-160.28 808.57,-153.18"/>
<polygon fill="midnightblue" stroke="midnightblue" points="809.15,-156.64 818.77,-152.2 808.48,-149.67 809.15,-156.64"/>
</g>
<!-- Node9 -->
<g id="node9" class="node">
<title>Node9</title>
<g id="a_node9"><a xlink:href="../../dc/d6d/classjavolution_1_1text_1_1Text.html#a2f1c719dbe335c77cfaf05795f807c13" target="_top" xlink:title=" ">
<polygon fill="white" stroke="black" points="621.5,-194 621.5,-224 755.5,-224 755.5,-194 621.5,-194"/>
<text text-anchor="start" x="629.5" y="-212" font-family="Helvetica,sans-Serif" font-size="10.00">javolution.text.Text.new</text>
<text text-anchor="middle" x="688.5" y="-201" font-family="Helvetica,sans-Serif" font-size="10.00">Primitive</text>
</a>
</g>
</g>
<!-- Node3&#45;&gt;Node9 -->
<g id="edge11" class="edge">
<title>Node3&#45;&gt;Node9</title>
<path fill="none" stroke="midnightblue" d="M509.78,-248.49C538.61,-242.09 577.46,-233.45 611.48,-225.89"/>
<polygon fill="midnightblue" stroke="midnightblue" points="612.4,-229.27 621.4,-223.69 610.88,-222.44 612.4,-229.27"/>
</g>
<!-- Node10 -->
<g id="node10" class="node">
<title>Node10</title>
<g id="a_node10"><a xlink:href="../../dc/d6d/classjavolution_1_1text_1_1Text.html#a8f432b9cedb3d9d2a05eb9688ecb6ebc" target="_top" xlink:title=" ">
<polygon fill="white" stroke="black" points="620,-243 620,-273 757,-273 757,-243 620,-243"/>
<text text-anchor="start" x="628" y="-261" font-family="Helvetica,sans-Serif" font-size="10.00">javolution.text.Text.right</text>
<text text-anchor="middle" x="688.5" y="-250" font-family="Helvetica,sans-Serif" font-size="10.00">Rotation</text>
</a>
</g>
</g>
<!-- Node3&#45;&gt;Node10 -->
<g id="edge14" class="edge">
<title>Node3&#45;&gt;Node10</title>
<path fill="none" stroke="midnightblue" d="M539.2,-258C561.85,-258 586.94,-258 609.94,-258"/>
<polygon fill="midnightblue" stroke="midnightblue" points="610,-261.5 620,-258 610,-254.5 610,-261.5"/>
</g>
<!-- Node4&#45;&gt;Node4 -->
<g id="edge5" class="edge">
<title>Node4&#45;&gt;Node4</title>
<path fill="none" stroke="midnightblue" d="M653.3,-410.16C644.81,-419.56 656.54,-428.5 688.5,-428.5 707.97,-428.5 719.94,-425.18 724.39,-420.46"/>
<polygon fill="midnightblue" stroke="midnightblue" points="727.86,-419.9 723.7,-410.16 720.88,-420.37 727.86,-419.9"/>
</g>
<!-- Node5&#45;&gt;Node6 -->
<g id="edge7" class="edge">
<title>Node5&#45;&gt;Node6</title>
<path fill="none" stroke="midnightblue" d="M737.1,-330.85C751.83,-326.13 768.1,-320.89 783,-316 800.35,-310.31 819.25,-304.02 836.29,-298.3"/>
<polygon fill="midnightblue" stroke="midnightblue" points="837.72,-301.52 846.09,-295.01 835.49,-294.88 837.72,-301.52"/>
</g>
<!-- Node7 -->
<g id="node7" class="node">
<title>Node7</title>
<g id="a_node7"><a xlink:href="../../dc/d6d/classjavolution_1_1text_1_1Text.html#ad23b912b5d8c43b6620281af8d0f93d3" target="_top" xlink:title=" ">
<polygon fill="white" stroke="black" points="1000,-236.5 1000,-255.5 1134,-255.5 1134,-236.5 1000,-236.5"/>
<text text-anchor="middle" x="1067" y="-243.5" font-family="Helvetica,sans-Serif" font-size="10.00">javolution.text.Text.Text</text>
</a>
</g>
</g>
<!-- Node6&#45;&gt;Node7 -->
<g id="edge8" class="edge">
<title>Node6&#45;&gt;Node7</title>
<path fill="none" stroke="midnightblue" d="M958.59,-267.05C974.61,-263.91 991.64,-260.57 1007.3,-257.5"/>
<polygon fill="midnightblue" stroke="midnightblue" points="1008.22,-260.89 1017.36,-255.53 1006.88,-254.02 1008.22,-260.89"/>
</g>
<!-- Node9&#45;&gt;Node7 -->
<g id="edge13" class="edge">
<title>Node9&#45;&gt;Node7</title>
<path fill="none" stroke="midnightblue" d="M755.51,-215.49C820.81,-221.9 920.67,-231.72 989.41,-238.47"/>
<polygon fill="midnightblue" stroke="midnightblue" points="989.45,-241.99 999.75,-239.49 990.14,-235.03 989.45,-241.99"/>
</g>
<!-- Node9&#45;&gt;Node8 -->
<g id="edge12" class="edge">
<title>Node9&#45;&gt;Node8</title>
<path fill="none" stroke="midnightblue" d="M737.39,-193.99C771.9,-183.17 817.95,-168.74 850.5,-158.54"/>
<polygon fill="midnightblue" stroke="midnightblue" points="851.65,-161.84 860.15,-155.51 849.56,-155.16 851.65,-161.84"/>
</g>
<!-- Node10&#45;&gt;Node6 -->
<g id="edge15" class="edge">
<title>Node10&#45;&gt;Node6</title>
<path fill="none" stroke="midnightblue" d="M757.27,-265.42C775.62,-267.43 795.62,-269.61 814.4,-271.67"/>
<polygon fill="midnightblue" stroke="midnightblue" points="814.07,-275.15 824.39,-272.76 814.83,-268.2 814.07,-275.15"/>
</g>
<!-- Node11&#45;&gt;Node8 -->
<g id="edge17" class="edge">
<title>Node11&#45;&gt;Node8</title>
<path fill="none" stroke="midnightblue" d="M541.74,-130.35C616.62,-133.71 731.56,-138.87 808.81,-142.33"/>
<polygon fill="midnightblue" stroke="midnightblue" points="808.83,-145.84 818.98,-142.79 809.15,-138.85 808.83,-145.84"/>
</g>
<!-- Node13 -->
<g id="node13" class="node">
<title>Node13</title>
<g id="a_node13"><a xlink:href="../../d2/d7a/classjavolution_1_1text_1_1TextBuilder.html#a5b6d5e22b7b33b3188569bbaf6112c95" target="_top" xlink:title=" ">
<polygon fill="white" stroke="black" points="374,-38.5 374,-57.5 558,-57.5 558,-38.5 374,-38.5"/>
<text text-anchor="middle" x="466" y="-45.5" font-family="Helvetica,sans-Serif" font-size="10.00">javolution.text.TextBuilder.append</text>
</a>
</g>
</g>
<!-- Node12&#45;&gt;Node13 -->
<g id="edge20" class="edge">
<title>Node12&#45;&gt;Node13</title>
<path fill="none" stroke="midnightblue" d="M338.22,-36.07C346.52,-36.86 355.07,-37.66 363.63,-38.47"/>
<polygon fill="midnightblue" stroke="midnightblue" points="363.38,-41.96 373.66,-39.41 364.04,-34.99 363.38,-41.96"/>
</g>
<!-- Node15 -->
<g id="node15" class="node">
<title>Node15</title>
<g id="a_node15"><a xlink:href="../../d2/d7a/classjavolution_1_1text_1_1TextBuilder.html#ab4f4039de4ba13421b725da699b02f58" target="_top" xlink:title=" ">
<polygon fill="white" stroke="black" points="377,-0.5 377,-19.5 555,-19.5 555,-0.5 377,-0.5"/>
<text text-anchor="middle" x="466" y="-7.5" font-family="Helvetica,sans-Serif" font-size="10.00">javolution.text.TextBuilder.toText</text>
</a>
</g>
</g>
<!-- Node12&#45;&gt;Node15 -->
<g id="edge22" class="edge">
<title>Node12&#45;&gt;Node15</title>
<path fill="none" stroke="midnightblue" d="M304.85,-19.47C322.99,-16.96 345.06,-14.5 366.94,-12.48"/>
<polygon fill="midnightblue" stroke="midnightblue" points="367.32,-15.96 376.97,-11.58 366.7,-8.98 367.32,-15.96"/>
</g>
<!-- Node14 -->
<g id="node14" class="node">
<title>Node14</title>
<g id="a_node14"><a xlink:href="../../d2/d7a/classjavolution_1_1text_1_1TextBuilder.html#a6d79c3b6adfe6c04f80f940904d181b4" target="_top" xlink:title=" ">
<polygon fill="white" stroke="black" points="594,-30 594,-60 783,-60 783,-30 594,-30"/>
<text text-anchor="start" x="602" y="-48" font-family="Helvetica,sans-Serif" font-size="10.00">javolution.text.TextBuilder.increase</text>
<text text-anchor="middle" x="688.5" y="-37" font-family="Helvetica,sans-Serif" font-size="10.00">Capacity</text>
</a>
</g>
</g>
<!-- Node13&#45;&gt;Node14 -->
<g id="edge21" class="edge">
<title>Node13&#45;&gt;Node14</title>
<path fill="none" stroke="midnightblue" d="M558.28,-46.76C566.62,-46.64 575.1,-46.53 583.54,-46.41"/>
<polygon fill="midnightblue" stroke="midnightblue" points="583.85,-49.91 593.8,-46.27 583.75,-42.91 583.85,-49.91"/>
</g>
<!-- Node15&#45;&gt;Node12 -->
<g id="edge23" class="edge">
<title>Node15&#45;&gt;Node12</title>
<path fill="none" stroke="midnightblue" d="M423.15,-19.53C401.5,-22.53 374.26,-25.45 348.42,-27.64"/>
<polygon fill="midnightblue" stroke="midnightblue" points="347.9,-24.17 338.22,-28.48 348.47,-31.15 347.9,-24.17"/>
</g>
</g>
</svg>
        <g id="navigator" transform="translate(0 0)" fill="#404254">
                <rect fill="#f2f5e9" fill-opacity="0.5" stroke="#606060" stroke-width=".5" x="0" y="0" width="60" height="60"/>
                <use id="zoomplus" xlink:href="#zoomPlus" x="17" y="9" onmousedown="handleZoom(evt,'in')"/>
                <use id="zoomminus" xlink:href="#zoomMin" x="42" y="9" onmousedown="handleZoom(evt,'out')"/>
                <use id="reset" xlink:href="#resetDef" x="30" y="36" onmousedown="handleReset()"/>
                <g id="arrowUp" xlink:href="#dirArrow" transform="translate(30 24)" onmousedown="handlePan(0,-1)">
                  <use xlink:href="#rim" fill="#404040">
                        <set attributeName="fill" to="#808080" begin="arrowUp.mouseover" end="arrowUp.mouseout"/>
                  </use>
                  <path fill="none" stroke="white" stroke-width="1.5" d="M0,-3.0v7 M-2.5,-0.5L0,-3.0L2.5,-0.5"/>
                </g>
                <g id="arrowRight" xlink:href="#dirArrow" transform="rotate(90) translate(36 -43)" onmousedown="handlePan(1,0)">
                  <use xlink:href="#rim" fill="#404040">
                        <set attributeName="fill" to="#808080" begin="arrowRight.mouseover" end="arrowRight.mouseout"/>
                  </use>
                  <path fill="none" stroke="white" stroke-width="1.5" d="M0,-3.0v7 M-2.5,-0.5L0,-3.0L2.5,-0.5"/>
                </g>
                <g id="arrowDown" xlink:href="#dirArrow" transform="rotate(180) translate(-30 -48)" onmousedown="handlePan(0,1)">
                  <use xlink:href="#rim" fill="#404040">
                        <set attributeName="fill" to="#808080" begin="arrowDown.mouseover" end="arrowDown.mouseout"/>
                  </use>
                  <path fill="none" stroke="white" stroke-width="1.5" d="M0,-3.0v7 M-2.5,-0.5L0,-3.0L2.5,-0.5"/>
                </g>
                <g id="arrowLeft" xlink:href="#dirArrow" transform="rotate(270) translate(-36 17)" onmousedown="handlePan(-1,0)">
                  <use xlink:href="#rim" fill="#404040">
                        <set attributeName="fill" to="#808080" begin="arrowLeft.mouseover" end="arrowLeft.mouseout"/>
                  </use>
                  <path fill="none" stroke="white" stroke-width="1.5" d="M0,-3.0v7 M-2.5,-0.5L0,-3.0L2.5,-0.5"/>
                </g>
        </g>
        <svg viewBox="0 0 15 15" width="100%" height="30px" preserveAspectRatio="xMaxYMin meet">
         <g id="arrow_out" transform="scale(0.3 0.3)">
          <a xlink:href="classjavolution_1_1text_1_1Text_afd9b654ac4b4c8b162ab3ad07873ad0f_cgraph_org.svg" target="_base">
           <rect id="button" ry="5" rx="5" y="6" x="6" height="38" width="38"
                fill="#f2f5e9" fill-opacity="0.5" stroke="#606060" stroke-width="1.0"/>
           <path id="arrow"
             d="M 11.500037,31.436501 C 11.940474,20.09759 22.043105,11.32322 32.158766,21.979434 L 37.068811,17.246167 C 37.068811,17.246167 37.088388,32 37.088388,32 L 22.160133,31.978069 C 22.160133,31.978069 26.997745,27.140456 26.997745,27.140456 C 18.528582,18.264221 13.291696,25.230495 11.500037,31.436501 z"
             style="fill:#404040;"/>
          </a>
         </g>
        </svg>
</svg>
