<?xml version="1.0" encoding="UTF-8" standalone="no"?>
<!DOCTYPE svg PUBLIC "-//W3C//DTD SVG 1.1//EN"
 "http://www.w3.org/Graphics/SVG/1.1/DTD/svg11.dtd">
<!-- Generated by graphviz version 2.43.0 (0)
 -->
<!-- Title: javolution.text.Text.concat Pages: 1 -->
<!--zoomable 282 -->
<svg id="main" version="1.1" xmlns="http://www.w3.org/2000/svg" xmlns:xlink="http://www.w3.org/1999/xlink" xml:space="preserve" onload="init(evt)">
<style type="text/css"><![CDATA[
.edge:hover path { stroke: red; }
.edge:hover polygon { stroke: red; fill: red; }
]]></style>
<script type="text/javascript"><![CDATA[
var edges = document.getElementsByTagName('g');
if (edges && edges.length) {
  for (var i=0;i<edges.length;i++) {
    if (edges[i].id.substr(0,4)=='edge') {
      edges[i].setAttribute('class','edge');
    }
  }
}
]]></script>
        <defs>
                <circle id="rim" cx="0" cy="0" r="7"/>
                <circle id="rim2" cx="0" cy="0" r="3.5"/>
                <g id="zoomPlus">
                        <use xlink:href="#rim" fill="#404040">
                                <set attributeName="fill" to="#808080" begin="zoomplus.mouseover" end="zoomplus.mouseout"/>
                        </use>
                        <path d="M-4,0h8M0,-4v8" fill="none" stroke="white" stroke-width="1.5" pointer-events="none"/>
                </g>
                <g id="zoomMin">
                        <use xlink:href="#rim" fill="#404040">
                                <set attributeName="fill" to="#808080" begin="zoomminus.mouseover" end="zoomminus.mouseout"/>
                        </use>
                        <path d="M-4,0h8" fill="none" stroke="white" stroke-width="1.5" pointer-events="none"/>
                </g>
                <g id="dirArrow">
                        <path fill="none" stroke="white" stroke-width="1.5" d="M0,-3.0v7 M-2.5,-0.5L0,-3.0L2.5,-0.5"/>
                </g>
               <g id="resetDef">
                       <use xlink:href="#rim2" fill="#404040">
                               <set attributeName="fill" to="#808080" begin="reset.mouseover" end="reset.mouseout"/>
                       </use>
               </g>
        </defs>

<script type="text/javascript">
var viewWidth = 678;
var viewHeight = 282;
var sectionId = 'dynsection-9';
</script>
<script xlink:href="../../svgpan.js"/>
<svg id="graph" class="graph">
<g id="viewport">
<title>javolution.text.Text.concat</title>
<polygon fill="white" stroke="transparent" points="-4,4 -4,-278 674,-278 674,4 -4,4"/>
<!-- Node1 -->
<g id="node1" class="node">
<title>Node1</title>
<g id="a_node1"><a xlink:title=" ">
<polygon fill="#bfbfbf" stroke="black" points="0,-116 0,-135 146,-135 146,-116 0,-116"/>
<text text-anchor="middle" x="73" y="-123" font-family="Helvetica,sans-Serif" font-size="10.00">javolution.text.Text.concat</text>
</a>
</g>
</g>
<!-- Node1&#45;&gt;Node1 -->
<g id="edge1" class="edge">
<title>Node1&#45;&gt;Node1</title>
<path fill="none" stroke="midnightblue" d="M45.87,-135.26C32.68,-144.07 41.72,-153.5 73,-153.5 94.51,-153.5 105.5,-149.04 105.98,-143.39"/>
<polygon fill="midnightblue" stroke="midnightblue" points="108.81,-141.33 100.13,-135.26 103.13,-145.42 108.81,-141.33"/>
</g>
<!-- Node2 -->
<g id="node2" class="node">
<title>Node2</title>
<g id="a_node2"><a xlink:href="../../dc/d6d/classjavolution_1_1text_1_1Text.html#a5ebc6a09946ae53d0f4ef5ace0831bc2" target="_top" xlink:title=" ">
<polygon fill="white" stroke="black" points="185.5,-225.5 185.5,-255.5 315.5,-255.5 315.5,-225.5 185.5,-225.5"/>
<text text-anchor="start" x="193.5" y="-243.5" font-family="Helvetica,sans-Serif" font-size="10.00">javolution.text.Text.get</text>
<text text-anchor="middle" x="250.5" y="-232.5" font-family="Helvetica,sans-Serif" font-size="10.00">Chars</text>
</a>
</g>
</g>
<!-- Node1&#45;&gt;Node2 -->
<g id="edge2" class="edge">
<title>Node1&#45;&gt;Node2</title>
<path fill="none" stroke="midnightblue" d="M82.95,-135.04C100.41,-153.19 140.96,-192.95 182,-216.5 185,-218.22 188.15,-219.86 191.38,-221.4"/>
<polygon fill="midnightblue" stroke="midnightblue" points="190.06,-224.64 200.62,-225.5 192.9,-218.24 190.06,-224.64"/>
</g>
<!-- Node3 -->
<g id="node3" class="node">
<title>Node3</title>
<g id="a_node3"><a xlink:href="../../dc/d6d/classjavolution_1_1text_1_1Text.html#a5545cd98010d50156e8f48b5112c22a3" target="_top" xlink:title=" ">
<polygon fill="white" stroke="black" points="185.5,-176.5 185.5,-206.5 315.5,-206.5 315.5,-176.5 185.5,-176.5"/>
<text text-anchor="start" x="193.5" y="-194.5" font-family="Helvetica,sans-Serif" font-size="10.00">javolution.text.Text.left</text>
<text text-anchor="middle" x="250.5" y="-183.5" font-family="Helvetica,sans-Serif" font-size="10.00">Rotation</text>
</a>
</g>
</g>
<!-- Node1&#45;&gt;Node3 -->
<g id="edge4" class="edge">
<title>Node1&#45;&gt;Node3</title>
<path fill="none" stroke="midnightblue" d="M99.52,-135.1C125.74,-144.96 167.22,-160.56 199.92,-172.86"/>
<polygon fill="midnightblue" stroke="midnightblue" points="198.74,-176.15 209.33,-176.39 201.2,-169.6 198.74,-176.15"/>
</g>
<!-- Node4 -->
<g id="node4" class="node">
<title>Node4</title>
<g id="a_node4"><a xlink:href="../../dc/d6d/classjavolution_1_1text_1_1Text.html#a71b1cf384add94cc256ab5e07b410702" target="_top" xlink:title=" ">
<polygon fill="white" stroke="black" points="360.5,-110.5 360.5,-140.5 494.5,-140.5 494.5,-110.5 360.5,-110.5"/>
<text text-anchor="start" x="368.5" y="-128.5" font-family="Helvetica,sans-Serif" font-size="10.00">javolution.text.Text.new</text>
<text text-anchor="middle" x="427.5" y="-117.5" font-family="Helvetica,sans-Serif" font-size="10.00">Composite</text>
</a>
</g>
</g>
<!-- Node1&#45;&gt;Node4 -->
<g id="edge8" class="edge">
<title>Node1&#45;&gt;Node4</title>
<path fill="none" stroke="midnightblue" d="M146.03,-127.78C158.04,-128.08 170.37,-128.34 182,-128.5 242.88,-129.35 258.12,-129.35 319,-128.5 329.12,-128.36 339.76,-128.14 350.27,-127.89"/>
<polygon fill="midnightblue" stroke="midnightblue" points="350.36,-131.39 360.27,-127.64 350.19,-124.39 350.36,-131.39"/>
</g>
<!-- Node6 -->
<g id="node6" class="node">
<title>Node6</title>
<g id="a_node6"><a xlink:href="../../dc/d6d/classjavolution_1_1text_1_1Text.html#ae20f0d750950188da8be25b4aa950895" target="_top" xlink:title=" ">
<polygon fill="white" stroke="black" points="355,-47 355,-66 500,-66 500,-47 355,-47"/>
<text text-anchor="middle" x="427.5" y="-54" font-family="Helvetica,sans-Serif" font-size="10.00">javolution.text.Text.length</text>
</a>
</g>
</g>
<!-- Node1&#45;&gt;Node6 -->
<g id="edge7" class="edge">
<title>Node1&#45;&gt;Node6</title>
<path fill="none" stroke="midnightblue" d="M91.34,-115.87C112.18,-104.8 148.52,-87.05 182,-78.5 235.2,-64.91 296.78,-59.43 344.83,-57.33"/>
<polygon fill="midnightblue" stroke="midnightblue" points="345.01,-60.83 354.87,-56.94 344.74,-53.83 345.01,-60.83"/>
</g>
<!-- Node7 -->
<g id="node7" class="node">
<title>Node7</title>
<g id="a_node7"><a xlink:href="../../dc/d6d/classjavolution_1_1text_1_1Text.html#a2f1c719dbe335c77cfaf05795f807c13" target="_top" xlink:title=" ">
<polygon fill="white" stroke="black" points="183.5,-0.5 183.5,-30.5 317.5,-30.5 317.5,-0.5 183.5,-0.5"/>
<text text-anchor="start" x="191.5" y="-18.5" font-family="Helvetica,sans-Serif" font-size="10.00">javolution.text.Text.new</text>
<text text-anchor="middle" x="250.5" y="-7.5" font-family="Helvetica,sans-Serif" font-size="10.00">Primitive</text>
</a>
</g>
</g>
<!-- Node1&#45;&gt;Node7 -->
<g id="edge9" class="edge">
<title>Node1&#45;&gt;Node7</title>
<path fill="none" stroke="midnightblue" d="M85.09,-115.99C104.05,-100.03 144.31,-67.48 182,-45.5 188.4,-41.77 195.34,-38.2 202.27,-34.9"/>
<polygon fill="midnightblue" stroke="midnightblue" points="204.02,-37.94 211.64,-30.58 201.09,-31.59 204.02,-37.94"/>
</g>
<!-- Node8 -->
<g id="node8" class="node">
<title>Node8</title>
<g id="a_node8"><a xlink:href="../../dc/d6d/classjavolution_1_1text_1_1Text.html#a8f432b9cedb3d9d2a05eb9688ecb6ebc" target="_top" xlink:title=" ">
<polygon fill="white" stroke="black" points="182,-88.5 182,-118.5 319,-118.5 319,-88.5 182,-88.5"/>
<text text-anchor="start" x="190" y="-106.5" font-family="Helvetica,sans-Serif" font-size="10.00">javolution.text.Text.right</text>
<text text-anchor="middle" x="250.5" y="-95.5" font-family="Helvetica,sans-Serif" font-size="10.00">Rotation</text>
</a>
</g>
</g>
<!-- Node1&#45;&gt;Node8 -->
<g id="edge12" class="edge">
<title>Node1&#45;&gt;Node8</title>
<path fill="none" stroke="midnightblue" d="M146.14,-116.46C154.64,-115.39 163.33,-114.3 171.9,-113.23"/>
<polygon fill="midnightblue" stroke="midnightblue" points="172.38,-116.69 181.87,-111.98 171.51,-109.75 172.38,-116.69"/>
</g>
<!-- Node2&#45;&gt;Node2 -->
<g id="edge3" class="edge">
<title>Node2&#45;&gt;Node2</title>
<path fill="none" stroke="midnightblue" d="M219.83,-255.66C212.43,-265.06 222.66,-274 250.5,-274 267.47,-274 277.89,-270.68 281.77,-265.96"/>
<polygon fill="midnightblue" stroke="midnightblue" points="285.25,-265.44 281.17,-255.66 278.26,-265.85 285.25,-265.44"/>
</g>
<!-- Node3&#45;&gt;Node4 -->
<g id="edge5" class="edge">
<title>Node3&#45;&gt;Node4</title>
<path fill="none" stroke="midnightblue" d="M291.65,-176.36C316.99,-166.8 349.92,-154.38 376.9,-144.21"/>
<polygon fill="midnightblue" stroke="midnightblue" points="378.42,-147.37 386.54,-140.57 375.95,-140.83 378.42,-147.37"/>
</g>
<!-- Node5 -->
<g id="node5" class="node">
<title>Node5</title>
<g id="a_node5"><a xlink:href="../../dc/d6d/classjavolution_1_1text_1_1Text.html#ad23b912b5d8c43b6620281af8d0f93d3" target="_top" xlink:title=" ">
<polygon fill="white" stroke="black" points="536,-50 536,-69 670,-69 670,-50 536,-50"/>
<text text-anchor="middle" x="603" y="-57" font-family="Helvetica,sans-Serif" font-size="10.00">javolution.text.Text.Text</text>
</a>
</g>
</g>
<!-- Node4&#45;&gt;Node5 -->
<g id="edge6" class="edge">
<title>Node4&#45;&gt;Node5</title>
<path fill="none" stroke="midnightblue" d="M468.3,-110.36C498.2,-98.99 538.73,-83.57 567.3,-72.7"/>
<polygon fill="midnightblue" stroke="midnightblue" points="568.77,-75.88 576.87,-69.06 566.28,-69.34 568.77,-75.88"/>
</g>
<!-- Node7&#45;&gt;Node5 -->
<g id="edge11" class="edge">
<title>Node7&#45;&gt;Node5</title>
<path fill="none" stroke="midnightblue" d="M317.69,-19.12C367.91,-22.4 438.55,-28.19 500,-37.5 517.35,-40.13 536.18,-43.92 552.88,-47.62"/>
<polygon fill="midnightblue" stroke="midnightblue" points="552.45,-51.11 562.98,-49.89 553.99,-44.28 552.45,-51.11"/>
</g>
<!-- Node7&#45;&gt;Node6 -->
<g id="edge10" class="edge">
<title>Node7&#45;&gt;Node6</title>
<path fill="none" stroke="midnightblue" d="M315.67,-30.53C335.51,-35.18 357.09,-40.24 375.88,-44.64"/>
<polygon fill="midnightblue" stroke="midnightblue" points="375.18,-48.07 385.72,-46.95 376.78,-41.26 375.18,-48.07"/>
</g>
<!-- Node8&#45;&gt;Node4 -->
<g id="edge13" class="edge">
<title>Node8&#45;&gt;Node4</title>
<path fill="none" stroke="midnightblue" d="M319.16,-112.01C329.33,-113.28 339.88,-114.61 350.22,-115.91"/>
<polygon fill="midnightblue" stroke="midnightblue" points="350.1,-119.42 360.46,-117.2 350.97,-112.48 350.1,-119.42"/>
</g>
</g>
</svg>
        <g id="navigator" transform="translate(0 0)" fill="#404254">
                <rect fill="#f2f5e9" fill-opacity="0.5" stroke="#606060" stroke-width=".5" x="0" y="0" width="60" height="60"/>
                <use id="zoomplus" xlink:href="#zoomPlus" x="17" y="9" onmousedown="handleZoom(evt,'in')"/>
                <use id="zoomminus" xlink:href="#zoomMin" x="42" y="9" onmousedown="handleZoom(evt,'out')"/>
                <use id="reset" xlink:href="#resetDef" x="30" y="36" onmousedown="handleReset()"/>
                <g id="arrowUp" xlink:href="#dirArrow" transform="translate(30 24)" onmousedown="handlePan(0,-1)">
                  <use xlink:href="#rim" fill="#404040">
                        <set attributeName="fill" to="#808080" begin="arrowUp.mouseover" end="arrowUp.mouseout"/>
                  </use>
                  <path fill="none" stroke="white" stroke-width="1.5" d="M0,-3.0v7 M-2.5,-0.5L0,-3.0L2.5,-0.5"/>
                </g>
                <g id="arrowRight" xlink:href="#dirArrow" transform="rotate(90) translate(36 -43)" onmousedown="handlePan(1,0)">
                  <use xlink:href="#rim" fill="#404040">
                        <set attributeName="fill" to="#808080" begin="arrowRight.mouseover" end="arrowRight.mouseout"/>
                  </use>
                  <path fill="none" stroke="white" stroke-width="1.5" d="M0,-3.0v7 M-2.5,-0.5L0,-3.0L2.5,-0.5"/>
                </g>
                <g id="arrowDown" xlink:href="#dirArrow" transform="rotate(180) translate(-30 -48)" onmousedown="handlePan(0,1)">
                  <use xlink:href="#rim" fill="#404040">
                        <set attributeName="fill" to="#808080" begin="arrowDown.mouseover" end="arrowDown.mouseout"/>
                  </use>
                  <path fill="none" stroke="white" stroke-width="1.5" d="M0,-3.0v7 M-2.5,-0.5L0,-3.0L2.5,-0.5"/>
                </g>
                <g id="arrowLeft" xlink:href="#dirArrow" transform="rotate(270) translate(-36 17)" onmousedown="handlePan(-1,0)">
                  <use xlink:href="#rim" fill="#404040">
                        <set attributeName="fill" to="#808080" begin="arrowLeft.mouseover" end="arrowLeft.mouseout"/>
                  </use>
                  <path fill="none" stroke="white" stroke-width="1.5" d="M0,-3.0v7 M-2.5,-0.5L0,-3.0L2.5,-0.5"/>
                </g>
        </g>
        <svg viewBox="0 0 15 15" width="100%" height="30px" preserveAspectRatio="xMaxYMin meet">
         <g id="arrow_out" transform="scale(0.3 0.3)">
          <a xlink:href="classjavolution_1_1text_1_1Text_a8b3994e5aae2b7d193a409d82333f86f_cgraph_org.svg" target="_base">
           <rect id="button" ry="5" rx="5" y="6" x="6" height="38" width="38"
                fill="#f2f5e9" fill-opacity="0.5" stroke="#606060" stroke-width="1.0"/>
           <path id="arrow"
             d="M 11.500037,31.436501 C 11.940474,20.09759 22.043105,11.32322 32.158766,21.979434 L 37.068811,17.246167 C 37.068811,17.246167 37.088388,32 37.088388,32 L 22.160133,31.978069 C 22.160133,31.978069 26.997745,27.140456 26.997745,27.140456 C 18.528582,18.264221 13.291696,25.230495 11.500037,31.436501 z"
             style="fill:#404040;"/>
          </a>
         </g>
        </svg>
</svg>
