<?xml version="1.0" encoding="UTF-8" standalone="no"?>
<!DOCTYPE svg PUBLIC "-//W3C//DTD SVG 1.1//EN"
 "http://www.w3.org/Graphics/SVG/1.1/DTD/svg11.dtd">
<!-- Generated by graphviz version 2.43.0 (0)
 -->
<!-- Title: javolution.text.Text.newComposite Pages: 1 -->
<!--zoomable 389 -->
<svg id="main" version="1.1" xmlns="http://www.w3.org/2000/svg" xmlns:xlink="http://www.w3.org/1999/xlink" xml:space="preserve" onload="init(evt)">
<style type="text/css"><![CDATA[
.edge:hover path { stroke: red; }
.edge:hover polygon { stroke: red; fill: red; }
]]></style>
<script type="text/javascript"><![CDATA[
var edges = document.getElementsByTagName('g');
if (edges && edges.length) {
  for (var i=0;i<edges.length;i++) {
    if (edges[i].id.substr(0,4)=='edge') {
      edges[i].setAttribute('class','edge');
    }
  }
}
]]></script>
        <defs>
                <circle id="rim" cx="0" cy="0" r="7"/>
                <circle id="rim2" cx="0" cy="0" r="3.5"/>
                <g id="zoomPlus">
                        <use xlink:href="#rim" fill="#404040">
                                <set attributeName="fill" to="#808080" begin="zoomplus.mouseover" end="zoomplus.mouseout"/>
                        </use>
                        <path d="M-4,0h8M0,-4v8" fill="none" stroke="white" stroke-width="1.5" pointer-events="none"/>
                </g>
                <g id="zoomMin">
                        <use xlink:href="#rim" fill="#404040">
                                <set attributeName="fill" to="#808080" begin="zoomminus.mouseover" end="zoomminus.mouseout"/>
                        </use>
                        <path d="M-4,0h8" fill="none" stroke="white" stroke-width="1.5" pointer-events="none"/>
                </g>
                <g id="dirArrow">
                        <path fill="none" stroke="white" stroke-width="1.5" d="M0,-3.0v7 M-2.5,-0.5L0,-3.0L2.5,-0.5"/>
                </g>
               <g id="resetDef">
                       <use xlink:href="#rim2" fill="#404040">
                               <set attributeName="fill" to="#808080" begin="reset.mouseover" end="reset.mouseout"/>
                       </use>
               </g>
        </defs>

<script type="text/javascript">
var viewWidth = 910;
var viewHeight = 389;
var sectionId = 'dynsection-50';
</script>
<script xlink:href="../../svgpan.js"/>
<svg id="graph" class="graph">
<g id="viewport">
<title>javolution.text.Text.newComposite</title>
<polygon fill="white" stroke="transparent" points="-4,4 -4,-385 906,-385 906,4 -4,4"/>
<!-- Node1 -->
<g id="node1" class="node">
<title>Node1</title>
<g id="a_node1"><a xlink:title=" ">
<polygon fill="#bfbfbf" stroke="black" points="768,-175 768,-205 902,-205 902,-175 768,-175"/>
<text text-anchor="start" x="776" y="-193" font-family="Helvetica,sans-Serif" font-size="10.00">javolution.text.Text.new</text>
<text text-anchor="middle" x="835" y="-182" font-family="Helvetica,sans-Serif" font-size="10.00">Composite</text>
</a>
</g>
</g>
<!-- Node2 -->
<g id="node2" class="node">
<title>Node2</title>
<g id="a_node2"><a xlink:href="../../dc/d6d/classjavolution_1_1text_1_1Text.html#a3b3e743f59560242f119853208d8d162" target="_top" xlink:title=" ">
<polygon fill="white" stroke="black" points="568.5,-343.5 568.5,-362.5 718.5,-362.5 718.5,-343.5 568.5,-343.5"/>
<text text-anchor="middle" x="643.5" y="-350.5" font-family="Helvetica,sans-Serif" font-size="10.00">javolution.text.Text.append</text>
</a>
</g>
</g>
<!-- Node1&#45;&gt;Node2 -->
<g id="edge1" class="edge">
<title>Node1&#45;&gt;Node2</title>
<path fill="none" stroke="midnightblue" d="M822.56,-214.48C806.66,-245.78 774.94,-299.45 732,-329 722.79,-335.34 711.95,-340.01 701.11,-343.45"/>
<polygon fill="midnightblue" stroke="midnightblue" points="825.87,-215.68 827.15,-205.16 819.59,-212.58 825.87,-215.68"/>
</g>
<!-- Node4 -->
<g id="node4" class="node">
<title>Node4</title>
<g id="a_node4"><a xlink:href="../../dc/d6d/classjavolution_1_1text_1_1Text.html#a8b3994e5aae2b7d193a409d82333f86f" target="_top" xlink:title=" ">
<polygon fill="white" stroke="black" points="373,-205.5 373,-224.5 519,-224.5 519,-205.5 373,-205.5"/>
<text text-anchor="middle" x="446" y="-212.5" font-family="Helvetica,sans-Serif" font-size="10.00">javolution.text.Text.concat</text>
</a>
</g>
</g>
<!-- Node1&#45;&gt;Node4 -->
<g id="edge4" class="edge">
<title>Node1&#45;&gt;Node4</title>
<path fill="none" stroke="midnightblue" d="M819.63,-213.76C802.46,-239.58 771.1,-279.36 732,-296 659.61,-326.8 629.63,-320.88 555,-296 512.09,-281.7 472.49,-242.92 455.61,-224.7"/>
<polygon fill="midnightblue" stroke="midnightblue" points="822.62,-215.57 825.1,-205.27 816.74,-211.78 822.62,-215.57"/>
</g>
<!-- Node12 -->
<g id="node12" class="node">
<title>Node12</title>
<g id="a_node12"><a xlink:href="../../dc/d6d/classjavolution_1_1text_1_1Text.html#a10999ecf08b96aa886f7715d062dbc2e" target="_top" xlink:title=" ">
<polygon fill="white" stroke="black" points="575,-249.5 575,-268.5 712,-268.5 712,-249.5 575,-249.5"/>
<text text-anchor="middle" x="643.5" y="-256.5" font-family="Helvetica,sans-Serif" font-size="10.00">javolution.text.Text.copy</text>
</a>
</g>
</g>
<!-- Node1&#45;&gt;Node12 -->
<g id="edge14" class="edge">
<title>Node1&#45;&gt;Node12</title>
<path fill="none" stroke="midnightblue" d="M798.03,-209.71C778.86,-219.59 754.63,-231.09 732,-239 720.23,-243.11 707.27,-246.61 695.02,-249.47"/>
<polygon fill="midnightblue" stroke="midnightblue" points="799.76,-212.76 807,-205.02 796.52,-206.55 799.76,-212.76"/>
</g>
<!-- Node13 -->
<g id="node13" class="node">
<title>Node13</title>
<g id="a_node13"><a xlink:href="../../dc/d6d/classjavolution_1_1text_1_1Text.html#a5545cd98010d50156e8f48b5112c22a3" target="_top" xlink:title=" ">
<polygon fill="white" stroke="black" points="578.5,-200 578.5,-230 708.5,-230 708.5,-200 578.5,-200"/>
<text text-anchor="start" x="586.5" y="-218" font-family="Helvetica,sans-Serif" font-size="10.00">javolution.text.Text.left</text>
<text text-anchor="middle" x="643.5" y="-207" font-family="Helvetica,sans-Serif" font-size="10.00">Rotation</text>
</a>
</g>
</g>
<!-- Node1&#45;&gt;Node13 -->
<g id="edge16" class="edge">
<title>Node1&#45;&gt;Node13</title>
<path fill="none" stroke="midnightblue" d="M757.94,-200.03C741.61,-202.19 724.51,-204.45 708.68,-206.53"/>
<polygon fill="midnightblue" stroke="midnightblue" points="758.53,-203.49 767.99,-198.71 757.62,-196.55 758.53,-203.49"/>
</g>
<!-- Node14 -->
<g id="node14" class="node">
<title>Node14</title>
<g id="a_node14"><a xlink:href="../../dc/d6d/classjavolution_1_1text_1_1Text.html#a8f432b9cedb3d9d2a05eb9688ecb6ebc" target="_top" xlink:title=" ">
<polygon fill="white" stroke="black" points="575,-151 575,-181 712,-181 712,-151 575,-151"/>
<text text-anchor="start" x="583" y="-169" font-family="Helvetica,sans-Serif" font-size="10.00">javolution.text.Text.right</text>
<text text-anchor="middle" x="643.5" y="-158" font-family="Helvetica,sans-Serif" font-size="10.00">Rotation</text>
</a>
</g>
</g>
<!-- Node1&#45;&gt;Node14 -->
<g id="edge18" class="edge">
<title>Node1&#45;&gt;Node14</title>
<path fill="none" stroke="midnightblue" d="M757.69,-180.34C742.64,-178.43 726.95,-176.44 712.2,-174.57"/>
<polygon fill="midnightblue" stroke="midnightblue" points="757.63,-183.86 767.99,-181.64 758.51,-176.91 757.63,-183.86"/>
</g>
<!-- Node15 -->
<g id="node15" class="node">
<title>Node15</title>
<g id="a_node15"><a xlink:href="../../dc/d6d/classjavolution_1_1text_1_1Text.html#addc54f3ae1081837575d2b4a7ea3c94d" target="_top" xlink:title=" ">
<polygon fill="white" stroke="black" points="555,-94.5 555,-113.5 732,-113.5 732,-94.5 555,-94.5"/>
<text text-anchor="middle" x="643.5" y="-101.5" font-family="Helvetica,sans-Serif" font-size="10.00">javolution.text.Text.toLowerCase</text>
</a>
</g>
</g>
<!-- Node1&#45;&gt;Node15 -->
<g id="edge20" class="edge">
<title>Node1&#45;&gt;Node15</title>
<path fill="none" stroke="midnightblue" d="M794.24,-170.35C775.46,-161.22 752.68,-150.33 732,-141 710.5,-131.3 685.72,-120.89 668.03,-113.59"/>
<polygon fill="midnightblue" stroke="midnightblue" points="792.86,-173.58 803.38,-174.82 795.93,-167.29 792.86,-173.58"/>
</g>
<!-- Node16 -->
<g id="node16" class="node">
<title>Node16</title>
<g id="a_node16"><a xlink:href="../../dc/d6d/classjavolution_1_1text_1_1Text.html#a73fa7171173659c7935795bc4c286cd2" target="_top" xlink:title=" ">
<polygon fill="white" stroke="black" points="555,-38.5 555,-57.5 732,-57.5 732,-38.5 555,-38.5"/>
<text text-anchor="middle" x="643.5" y="-45.5" font-family="Helvetica,sans-Serif" font-size="10.00">javolution.text.Text.toUpperCase</text>
</a>
</g>
</g>
<!-- Node1&#45;&gt;Node16 -->
<g id="edge22" class="edge">
<title>Node1&#45;&gt;Node16</title>
<path fill="none" stroke="midnightblue" d="M816.31,-166.99C797.49,-143.77 765.81,-108.13 732,-85 714.58,-73.08 692.7,-63.83 675.18,-57.56"/>
<polygon fill="midnightblue" stroke="midnightblue" points="813.67,-169.29 822.64,-174.93 819.15,-164.93 813.67,-169.29"/>
</g>
<!-- Node17 -->
<g id="node17" class="node">
<title>Node17</title>
<g id="a_node17"><a xlink:href="../../dc/d6d/classjavolution_1_1text_1_1Text.html#a5b2faeca50af66af0c90aee8b9c8fd4a" target="_top" xlink:title=" ">
<polygon fill="white" stroke="black" points="567.5,-0.5 567.5,-19.5 719.5,-19.5 719.5,-0.5 567.5,-0.5"/>
<text text-anchor="middle" x="643.5" y="-7.5" font-family="Helvetica,sans-Serif" font-size="10.00">javolution.text.Text.valueOf</text>
</a>
</g>
</g>
<!-- Node1&#45;&gt;Node17 -->
<g id="edge24" class="edge">
<title>Node1&#45;&gt;Node17</title>
<path fill="none" stroke="midnightblue" d="M825.33,-165C811.49,-129.01 780.88,-63.16 732,-29 726.52,-25.17 720.41,-22.09 714.04,-19.62"/>
<polygon fill="midnightblue" stroke="midnightblue" points="822.17,-166.57 828.93,-174.73 828.74,-164.14 822.17,-166.57"/>
</g>
<!-- Node2&#45;&gt;Node2 -->
<g id="edge2" class="edge">
<title>Node2&#45;&gt;Node2</title>
<path fill="none" stroke="midnightblue" d="M679.12,-370.5C679.12,-376.34 667.24,-381 643.5,-381 609.73,-381 599.97,-371.57 614.22,-362.76"/>
<polygon fill="midnightblue" stroke="midnightblue" points="681.83,-368.28 672.78,-362.76 676.41,-372.71 681.83,-368.28"/>
</g>
<!-- Node3 -->
<g id="node3" class="node">
<title>Node3</title>
<g id="a_node3"><a xlink:href="../../dc/d6d/classjavolution_1_1text_1_1Text.html#a0a912728e43d6b58c2cb01178952eaaf" target="_top" xlink:title=" ">
<polygon fill="white" stroke="black" points="379,-343.5 379,-362.5 513,-362.5 513,-343.5 379,-343.5"/>
<text text-anchor="middle" x="446" y="-350.5" font-family="Helvetica,sans-Serif" font-size="10.00">javolution.text.Text.plus</text>
</a>
</g>
</g>
<!-- Node2&#45;&gt;Node3 -->
<g id="edge3" class="edge">
<title>Node2&#45;&gt;Node3</title>
<path fill="none" stroke="midnightblue" d="M558,-353C542.98,-353 527.54,-353 513.12,-353"/>
<polygon fill="midnightblue" stroke="midnightblue" points="558.31,-356.5 568.31,-353 558.31,-349.5 558.31,-356.5"/>
</g>
<!-- Node4&#45;&gt;Node4 -->
<g id="edge5" class="edge">
<title>Node4&#45;&gt;Node4</title>
<path fill="none" stroke="midnightblue" d="M480.48,-232.89C479.98,-238.54 468.48,-243 446,-243 413.3,-243 403.84,-233.57 417.64,-224.76"/>
<polygon fill="midnightblue" stroke="midnightblue" points="483.17,-230.64 474.36,-224.76 477.58,-234.85 483.17,-230.64"/>
</g>
<!-- Node5 -->
<g id="node5" class="node">
<title>Node5</title>
<g id="a_node5"><a xlink:href="../../dc/d6d/classjavolution_1_1text_1_1Text.html#adcc6b215bbc196426149d1ac61c505d1" target="_top" xlink:title=" ">
<polygon fill="white" stroke="black" points="189,-309.5 189,-328.5 334,-328.5 334,-309.5 189,-309.5"/>
<text text-anchor="middle" x="261.5" y="-316.5" font-family="Helvetica,sans-Serif" font-size="10.00">javolution.text.Text.delete</text>
</a>
</g>
</g>
<!-- Node4&#45;&gt;Node5 -->
<g id="edge6" class="edge">
<title>Node4&#45;&gt;Node5</title>
<path fill="none" stroke="midnightblue" d="M428.19,-231.98C408.17,-251.25 372.92,-282.28 337,-300 329.22,-303.84 320.59,-306.95 312.04,-309.46"/>
<polygon fill="midnightblue" stroke="midnightblue" points="430.87,-234.26 435.55,-224.76 425.96,-229.26 430.87,-234.26"/>
</g>
<!-- Node6 -->
<g id="node6" class="node">
<title>Node6</title>
<g id="a_node6"><a xlink:href="../../dc/d6d/classjavolution_1_1text_1_1Text.html#ae30bf7c893909fbd0e64b4f955000d0f" target="_top" xlink:title=" ">
<polygon fill="white" stroke="black" points="190.5,-271.5 190.5,-290.5 332.5,-290.5 332.5,-271.5 190.5,-271.5"/>
<text text-anchor="middle" x="261.5" y="-278.5" font-family="Helvetica,sans-Serif" font-size="10.00">javolution.text.Text.insert</text>
</a>
</g>
</g>
<!-- Node4&#45;&gt;Node6 -->
<g id="edge7" class="edge">
<title>Node4&#45;&gt;Node6</title>
<path fill="none" stroke="midnightblue" d="M415.8,-228.76C394.32,-238.55 364.23,-251.6 337,-261 325.86,-264.85 313.58,-268.41 302.25,-271.43"/>
<polygon fill="midnightblue" stroke="midnightblue" points="417.41,-231.87 425.03,-224.51 414.48,-225.51 417.41,-231.87"/>
</g>
<!-- Node8 -->
<g id="node8" class="node">
<title>Node8</title>
<g id="a_node8"><a xlink:href="../../dc/d6d/classjavolution_1_1text_1_1Text.html#aef7e50bfcb70206543c4f02cb2c17984" target="_top" xlink:title=" ">
<polygon fill="white" stroke="black" points="195.5,-222 195.5,-252 327.5,-252 327.5,-222 195.5,-222"/>
<text text-anchor="start" x="203.5" y="-240" font-family="Helvetica,sans-Serif" font-size="10.00">javolution.text.Text.pad</text>
<text text-anchor="middle" x="261.5" y="-229" font-family="Helvetica,sans-Serif" font-size="10.00">Right</text>
</a>
</g>
</g>
<!-- Node4&#45;&gt;Node8 -->
<g id="edge9" class="edge">
<title>Node4&#45;&gt;Node8</title>
<path fill="none" stroke="midnightblue" d="M362.62,-224.93C350.88,-226.35 338.94,-227.79 327.59,-229.15"/>
<polygon fill="midnightblue" stroke="midnightblue" points="363.36,-228.37 372.87,-223.69 362.52,-221.42 363.36,-228.37"/>
</g>
<!-- Node9 -->
<g id="node9" class="node">
<title>Node9</title>
<g id="a_node9"><a xlink:href="../../dc/d6d/classjavolution_1_1text_1_1Text.html#a726e13b001235cf751915f150eff9cfe" target="_top" xlink:title=" ">
<polygon fill="white" stroke="black" points="194.5,-183.5 194.5,-202.5 328.5,-202.5 328.5,-183.5 194.5,-183.5"/>
<text text-anchor="middle" x="261.5" y="-190.5" font-family="Helvetica,sans-Serif" font-size="10.00">javolution.text.Text.plus</text>
</a>
</g>
</g>
<!-- Node4&#45;&gt;Node9 -->
<g id="edge10" class="edge">
<title>Node4&#45;&gt;Node9</title>
<path fill="none" stroke="midnightblue" d="M362.9,-205.1C351.47,-203.73 339.85,-202.32 328.77,-200.99"/>
<polygon fill="midnightblue" stroke="midnightblue" points="362.52,-208.58 372.87,-206.31 363.36,-201.63 362.52,-208.58"/>
</g>
<!-- Node10 -->
<g id="node10" class="node">
<title>Node10</title>
<g id="a_node10"><a xlink:href="../../dc/d6d/classjavolution_1_1text_1_1Text.html#a29d88e2c5e0fe812c983600d26d72f3d" target="_top" xlink:title=" ">
<polygon fill="white" stroke="black" points="186.5,-127.5 186.5,-146.5 336.5,-146.5 336.5,-127.5 186.5,-127.5"/>
<text text-anchor="middle" x="261.5" y="-134.5" font-family="Helvetica,sans-Serif" font-size="10.00">javolution.text.Text.replace</text>
</a>
</g>
</g>
<!-- Node4&#45;&gt;Node10 -->
<g id="edge11" class="edge">
<title>Node4&#45;&gt;Node10</title>
<path fill="none" stroke="midnightblue" d="M413.36,-201.48C376.62,-185.77 316.96,-160.28 284.78,-146.52"/>
<polygon fill="midnightblue" stroke="midnightblue" points="412.05,-204.72 422.62,-205.44 414.8,-198.29 412.05,-204.72"/>
</g>
<!-- Node11 -->
<g id="node11" class="node">
<title>Node11</title>
<g id="a_node11"><a xlink:href="../../dc/d6d/classjavolution_1_1text_1_1Text.html#a5c6353e6afab67a3040d2db954074e1a" target="_top" xlink:title=" ">
<polygon fill="white" stroke="black" points="186,-89.5 186,-108.5 337,-108.5 337,-89.5 186,-89.5"/>
<text text-anchor="middle" x="261.5" y="-96.5" font-family="Helvetica,sans-Serif" font-size="10.00">javolution.text.Text.subtext</text>
</a>
</g>
</g>
<!-- Node4&#45;&gt;Node11 -->
<g id="edge13" class="edge">
<title>Node4&#45;&gt;Node11</title>
<path fill="none" stroke="midnightblue" d="M430.44,-197.51C411.27,-175.64 375.46,-138.55 337,-118 329.82,-114.16 321.83,-111.08 313.83,-108.6"/>
<polygon fill="midnightblue" stroke="midnightblue" points="427.99,-200.04 437.16,-205.35 433.31,-195.48 427.99,-200.04"/>
</g>
<!-- Node7 -->
<g id="node7" class="node">
<title>Node7</title>
<g id="a_node7"><a xlink:href="../../dc/d6d/classjavolution_1_1text_1_1Text.html#afd9b654ac4b4c8b162ab3ad07873ad0f" target="_top" xlink:title=" ">
<polygon fill="white" stroke="black" points="0,-271.5 0,-290.5 150,-290.5 150,-271.5 0,-271.5"/>
<text text-anchor="middle" x="75" y="-278.5" font-family="Helvetica,sans-Serif" font-size="10.00">javolution.text.Text.padLeft</text>
</a>
</g>
</g>
<!-- Node6&#45;&gt;Node7 -->
<g id="edge8" class="edge">
<title>Node6&#45;&gt;Node7</title>
<path fill="none" stroke="midnightblue" d="M180.21,-281C170.26,-281 160.12,-281 150.27,-281"/>
<polygon fill="midnightblue" stroke="midnightblue" points="180.49,-284.5 190.49,-281 180.49,-277.5 180.49,-284.5"/>
</g>
<!-- Node10&#45;&gt;Node10 -->
<g id="edge12" class="edge">
<title>Node10&#45;&gt;Node10</title>
<path fill="none" stroke="midnightblue" d="M295.98,-154.89C295.48,-160.54 283.98,-165 261.5,-165 228.8,-165 219.34,-155.57 233.14,-146.76"/>
<polygon fill="midnightblue" stroke="midnightblue" points="298.67,-152.64 289.86,-146.76 293.08,-156.85 298.67,-152.64"/>
</g>
<!-- Node12&#45;&gt;Node12 -->
<g id="edge15" class="edge">
<title>Node12&#45;&gt;Node12</title>
<path fill="none" stroke="midnightblue" d="M679.12,-276.5C679.12,-282.34 667.24,-287 643.5,-287 609.73,-287 599.97,-277.57 614.22,-268.76"/>
<polygon fill="midnightblue" stroke="midnightblue" points="681.83,-274.28 672.78,-268.76 676.41,-278.71 681.83,-274.28"/>
</g>
<!-- Node13&#45;&gt;Node4 -->
<g id="edge17" class="edge">
<title>Node13&#45;&gt;Node4</title>
<path fill="none" stroke="midnightblue" d="M568.11,-215C552.11,-215 535.21,-215 519.28,-215"/>
<polygon fill="midnightblue" stroke="midnightblue" points="568.49,-218.5 578.49,-215 568.49,-211.5 568.49,-218.5"/>
</g>
<!-- Node14&#45;&gt;Node4 -->
<g id="edge19" class="edge">
<title>Node14&#45;&gt;Node4</title>
<path fill="none" stroke="midnightblue" d="M572.66,-183.5C543.13,-190.91 509.89,-199.24 485.01,-205.47"/>
<polygon fill="midnightblue" stroke="midnightblue" points="573.67,-186.86 582.51,-181.03 571.96,-180.07 573.67,-186.86"/>
</g>
<!-- Node15&#45;&gt;Node15 -->
<g id="edge21" class="edge">
<title>Node15&#45;&gt;Node15</title>
<path fill="none" stroke="midnightblue" d="M679.12,-121.5C679.12,-127.34 667.24,-132 643.5,-132 609.73,-132 599.97,-122.57 614.22,-113.76"/>
<polygon fill="midnightblue" stroke="midnightblue" points="681.83,-119.28 672.78,-113.76 676.41,-123.71 681.83,-119.28"/>
</g>
<!-- Node16&#45;&gt;Node16 -->
<g id="edge23" class="edge">
<title>Node16&#45;&gt;Node16</title>
<path fill="none" stroke="midnightblue" d="M679.12,-65.5C679.12,-71.34 667.24,-76 643.5,-76 609.73,-76 599.97,-66.57 614.22,-57.76"/>
<polygon fill="midnightblue" stroke="midnightblue" points="681.83,-63.28 672.78,-57.76 676.41,-67.71 681.83,-63.28"/>
</g>
</g>
</svg>
        <g id="navigator" transform="translate(0 0)" fill="#404254">
                <rect fill="#f2f5e9" fill-opacity="0.5" stroke="#606060" stroke-width=".5" x="0" y="0" width="60" height="60"/>
                <use id="zoomplus" xlink:href="#zoomPlus" x="17" y="9" onmousedown="handleZoom(evt,'in')"/>
                <use id="zoomminus" xlink:href="#zoomMin" x="42" y="9" onmousedown="handleZoom(evt,'out')"/>
                <use id="reset" xlink:href="#resetDef" x="30" y="36" onmousedown="handleReset()"/>
                <g id="arrowUp" xlink:href="#dirArrow" transform="translate(30 24)" onmousedown="handlePan(0,-1)">
                  <use xlink:href="#rim" fill="#404040">
                        <set attributeName="fill" to="#808080" begin="arrowUp.mouseover" end="arrowUp.mouseout"/>
                  </use>
                  <path fill="none" stroke="white" stroke-width="1.5" d="M0,-3.0v7 M-2.5,-0.5L0,-3.0L2.5,-0.5"/>
                </g>
                <g id="arrowRight" xlink:href="#dirArrow" transform="rotate(90) translate(36 -43)" onmousedown="handlePan(1,0)">
                  <use xlink:href="#rim" fill="#404040">
                        <set attributeName="fill" to="#808080" begin="arrowRight.mouseover" end="arrowRight.mouseout"/>
                  </use>
                  <path fill="none" stroke="white" stroke-width="1.5" d="M0,-3.0v7 M-2.5,-0.5L0,-3.0L2.5,-0.5"/>
                </g>
                <g id="arrowDown" xlink:href="#dirArrow" transform="rotate(180) translate(-30 -48)" onmousedown="handlePan(0,1)">
                  <use xlink:href="#rim" fill="#404040">
                        <set attributeName="fill" to="#808080" begin="arrowDown.mouseover" end="arrowDown.mouseout"/>
                  </use>
                  <path fill="none" stroke="white" stroke-width="1.5" d="M0,-3.0v7 M-2.5,-0.5L0,-3.0L2.5,-0.5"/>
                </g>
                <g id="arrowLeft" xlink:href="#dirArrow" transform="rotate(270) translate(-36 17)" onmousedown="handlePan(-1,0)">
                  <use xlink:href="#rim" fill="#404040">
                        <set attributeName="fill" to="#808080" begin="arrowLeft.mouseover" end="arrowLeft.mouseout"/>
                  </use>
                  <path fill="none" stroke="white" stroke-width="1.5" d="M0,-3.0v7 M-2.5,-0.5L0,-3.0L2.5,-0.5"/>
                </g>
        </g>
        <svg viewBox="0 0 15 15" width="100%" height="30px" preserveAspectRatio="xMaxYMin meet">
         <g id="arrow_out" transform="scale(0.3 0.3)">
          <a xlink:href="classjavolution_1_1text_1_1Text_a71b1cf384add94cc256ab5e07b410702_icgraph_org.svg" target="_base">
           <rect id="button" ry="5" rx="5" y="6" x="6" height="38" width="38"
                fill="#f2f5e9" fill-opacity="0.5" stroke="#606060" stroke-width="1.0"/>
           <path id="arrow"
             d="M 11.500037,31.436501 C 11.940474,20.09759 22.043105,11.32322 32.158766,21.979434 L 37.068811,17.246167 C 37.068811,17.246167 37.088388,32 37.088388,32 L 22.160133,31.978069 C 22.160133,31.978069 26.997745,27.140456 26.997745,27.140456 C 18.528582,18.264221 13.291696,25.230495 11.500037,31.436501 z"
             style="fill:#404040;"/>
          </a>
         </g>
        </svg>
</svg>
