<?xml version="1.0" encoding="UTF-8" standalone="no"?>
<!DOCTYPE svg PUBLIC "-//W3C//DTD SVG 1.1//EN"
 "http://www.w3.org/Graphics/SVG/1.1/DTD/svg11.dtd">
<!-- Generated by graphviz version 2.43.0 (0)
 -->
<!-- Title: javolution.text.Text.lastIndexOfAny Pages: 1 -->
<svg width="349pt" height="122pt"
 viewBox="0.00 0.00 349.00 122.00" xmlns="http://www.w3.org/2000/svg" xmlns:xlink="http://www.w3.org/1999/xlink">
<g id="graph0" class="graph" transform="scale(1 1) rotate(0) translate(4 118)">
<title>javolution.text.Text.lastIndexOfAny</title>
<polygon fill="white" stroke="transparent" points="-4,4 -4,-118 345,-118 345,4 -4,4"/>
<!-- Node1 -->
<g id="node1" class="node">
<title>Node1</title>
<g id="a_node1"><a xlink:title=" ">
<polygon fill="#bfbfbf" stroke="black" points="0,-33 0,-63 132,-63 132,-33 0,-33"/>
<text text-anchor="start" x="8" y="-51" font-family="Helvetica,sans-Serif" font-size="10.00">javolution.text.Text.last</text>
<text text-anchor="middle" x="66" y="-40" font-family="Helvetica,sans-Serif" font-size="10.00">IndexOfAny</text>
</a>
</g>
</g>
<!-- Node2 -->
<g id="node2" class="node">
<title>Node2</title>
<g id="a_node2"><a xlink:href="../../dc/d6d/classjavolution_1_1text_1_1Text.html#aff336ffd1fd0f4dc5d8338f5fb12e84d" target="_top" xlink:title=" ">
<polygon fill="white" stroke="black" points="181.5,-76.5 181.5,-95.5 327.5,-95.5 327.5,-76.5 181.5,-76.5"/>
<text text-anchor="middle" x="254.5" y="-83.5" font-family="Helvetica,sans-Serif" font-size="10.00">javolution.text.Text.charAt</text>
</a>
</g>
</g>
<!-- Node1&#45;&gt;Node2 -->
<g id="edge1" class="edge">
<title>Node1&#45;&gt;Node2</title>
<path fill="none" stroke="midnightblue" d="M132.23,-61.29C153.26,-65.57 176.38,-70.29 196.74,-74.44"/>
<polygon fill="midnightblue" stroke="midnightblue" points="196.31,-77.92 206.81,-76.49 197.71,-71.06 196.31,-77.92"/>
</g>
<!-- Node3 -->
<g id="node3" class="node">
<title>Node3</title>
<g id="a_node3"><a xlink:href="../../dc/d34/classjavolution_1_1text_1_1CharSet.html#ac1d4a4289936bd0a1fc8dc4ac00a28e2" target="_top" xlink:title=" ">
<polygon fill="white" stroke="black" points="168,-38.5 168,-57.5 341,-57.5 341,-38.5 168,-38.5"/>
<text text-anchor="middle" x="254.5" y="-45.5" font-family="Helvetica,sans-Serif" font-size="10.00">javolution.text.CharSet.contains</text>
</a>
</g>
</g>
<!-- Node1&#45;&gt;Node3 -->
<g id="edge3" class="edge">
<title>Node1&#45;&gt;Node3</title>
<path fill="none" stroke="midnightblue" d="M132.23,-48C140.53,-48 149.17,-48 157.82,-48"/>
<polygon fill="midnightblue" stroke="midnightblue" points="157.99,-51.5 167.99,-48 157.99,-44.5 157.99,-51.5"/>
</g>
<!-- Node4 -->
<g id="node4" class="node">
<title>Node4</title>
<g id="a_node4"><a xlink:href="../../dc/d6d/classjavolution_1_1text_1_1Text.html#ae20f0d750950188da8be25b4aa950895" target="_top" xlink:title=" ">
<polygon fill="white" stroke="black" points="182,-0.5 182,-19.5 327,-19.5 327,-0.5 182,-0.5"/>
<text text-anchor="middle" x="254.5" y="-7.5" font-family="Helvetica,sans-Serif" font-size="10.00">javolution.text.Text.length</text>
</a>
</g>
</g>
<!-- Node1&#45;&gt;Node4 -->
<g id="edge4" class="edge">
<title>Node1&#45;&gt;Node4</title>
<path fill="none" stroke="midnightblue" d="M132.23,-34.71C153.26,-30.43 176.38,-25.71 196.74,-21.56"/>
<polygon fill="midnightblue" stroke="midnightblue" points="197.71,-24.94 206.81,-19.51 196.31,-18.08 197.71,-24.94"/>
</g>
<!-- Node2&#45;&gt;Node2 -->
<g id="edge2" class="edge">
<title>Node2&#45;&gt;Node2</title>
<path fill="none" stroke="midnightblue" d="M225.52,-95.76C211.43,-104.57 221.09,-114 254.5,-114 277.47,-114 289.22,-109.54 289.73,-103.89"/>
<polygon fill="midnightblue" stroke="midnightblue" points="292.35,-101.55 283.48,-95.76 286.8,-105.82 292.35,-101.55"/>
</g>
</g>
</svg>
