<?xml version="1.0" encoding="UTF-8" standalone="no"?>
<!DOCTYPE svg PUBLIC "-//W3C//DTD SVG 1.1//EN"
 "http://www.w3.org/Graphics/SVG/1.1/DTD/svg11.dtd">
<!-- Generated by graphviz version 2.43.0 (0)
 -->
<!-- Title: javolution.text.Text.insert Pages: 1 -->
<svg width="861pt" height="289pt"
 viewBox="0.00 0.00 861.00 289.21" xmlns="http://www.w3.org/2000/svg" xmlns:xlink="http://www.w3.org/1999/xlink">
<g id="graph0" class="graph" transform="scale(1 1) rotate(0) translate(4 285.21)">
<title>javolution.text.Text.insert</title>
<polygon fill="white" stroke="transparent" points="-4,4 -4,-285.21 857,-285.21 857,4 -4,4"/>
<!-- Node1 -->
<g id="node1" class="node">
<title>Node1</title>
<g id="a_node1"><a xlink:title=" ">
<polygon fill="#bfbfbf" stroke="black" points="0,-33.21 0,-52.21 142,-52.21 142,-33.21 0,-33.21"/>
<text text-anchor="middle" x="71" y="-40.21" font-family="Helvetica,sans-Serif" font-size="10.00">javolution.text.Text.insert</text>
</a>
</g>
</g>
<!-- Node2 -->
<g id="node2" class="node">
<title>Node2</title>
<g id="a_node2"><a xlink:href="../../dc/d6d/classjavolution_1_1text_1_1Text.html#a8b3994e5aae2b7d193a409d82333f86f" target="_top" xlink:title=" ">
<polygon fill="white" stroke="black" points="180.5,-96.21 180.5,-115.21 326.5,-115.21 326.5,-96.21 180.5,-96.21"/>
<text text-anchor="middle" x="253.5" y="-103.21" font-family="Helvetica,sans-Serif" font-size="10.00">javolution.text.Text.concat</text>
</a>
</g>
</g>
<!-- Node1&#45;&gt;Node2 -->
<g id="edge1" class="edge">
<title>Node1&#45;&gt;Node2</title>
<path fill="none" stroke="midnightblue" d="M99.41,-52.28C130.38,-63.08 180.94,-80.73 215.42,-92.76"/>
<polygon fill="midnightblue" stroke="midnightblue" points="214.53,-96.16 225.12,-96.15 216.84,-89.55 214.53,-96.16"/>
</g>
<!-- Node10 -->
<g id="node10" class="node">
<title>Node10</title>
<g id="a_node10"><a xlink:href="../../dc/d6d/classjavolution_1_1text_1_1Text.html#a92855be8cd5c93d0c7de87fbb4656630" target="_top" xlink:title=" ">
<polygon fill="white" stroke="black" points="178,-14.21 178,-33.21 329,-33.21 329,-14.21 178,-14.21"/>
<text text-anchor="middle" x="253.5" y="-21.21" font-family="Helvetica,sans-Serif" font-size="10.00">javolution.text.Text.subtext</text>
</a>
</g>
</g>
<!-- Node1&#45;&gt;Node10 -->
<g id="edge15" class="edge">
<title>Node1&#45;&gt;Node10</title>
<path fill="none" stroke="midnightblue" d="M142.04,-35.33C150.45,-34.45 159.1,-33.54 167.69,-32.63"/>
<polygon fill="midnightblue" stroke="midnightblue" points="168.14,-36.11 177.71,-31.58 167.4,-29.15 168.14,-36.11"/>
</g>
<!-- Node2&#45;&gt;Node2 -->
<g id="edge2" class="edge">
<title>Node2&#45;&gt;Node2</title>
<path fill="none" stroke="midnightblue" d="M225.76,-115.46C212.26,-124.27 221.51,-133.71 253.5,-133.71 275.49,-133.71 286.74,-129.25 287.23,-123.6"/>
<polygon fill="midnightblue" stroke="midnightblue" points="289.99,-121.44 281.24,-115.46 284.35,-125.59 289.99,-121.44"/>
</g>
<!-- Node3 -->
<g id="node3" class="node">
<title>Node3</title>
<g id="a_node3"><a xlink:href="../../dc/d6d/classjavolution_1_1text_1_1Text.html#a5ebc6a09946ae53d0f4ef5ace0831bc2" target="_top" xlink:title=" ">
<polygon fill="white" stroke="black" points="368.5,-183.71 368.5,-213.71 498.5,-213.71 498.5,-183.71 368.5,-183.71"/>
<text text-anchor="start" x="376.5" y="-201.71" font-family="Helvetica,sans-Serif" font-size="10.00">javolution.text.Text.get</text>
<text text-anchor="middle" x="433.5" y="-190.71" font-family="Helvetica,sans-Serif" font-size="10.00">Chars</text>
</a>
</g>
</g>
<!-- Node2&#45;&gt;Node3 -->
<g id="edge3" class="edge">
<title>Node2&#45;&gt;Node3</title>
<path fill="none" stroke="midnightblue" d="M267.9,-115.42C288.16,-129.78 328.14,-156.9 365,-174.71 368.72,-176.5 372.6,-178.24 376.56,-179.89"/>
<polygon fill="midnightblue" stroke="midnightblue" points="375.26,-183.14 385.84,-183.61 377.86,-176.64 375.26,-183.14"/>
</g>
<!-- Node4 -->
<g id="node4" class="node">
<title>Node4</title>
<g id="a_node4"><a xlink:href="../../dc/d6d/classjavolution_1_1text_1_1Text.html#a5545cd98010d50156e8f48b5112c22a3" target="_top" xlink:title=" ">
<polygon fill="white" stroke="black" points="368.5,-134.71 368.5,-164.71 498.5,-164.71 498.5,-134.71 368.5,-134.71"/>
<text text-anchor="start" x="376.5" y="-152.71" font-family="Helvetica,sans-Serif" font-size="10.00">javolution.text.Text.left</text>
<text text-anchor="middle" x="433.5" y="-141.71" font-family="Helvetica,sans-Serif" font-size="10.00">Rotation</text>
</a>
</g>
</g>
<!-- Node2&#45;&gt;Node4 -->
<g id="edge5" class="edge">
<title>Node2&#45;&gt;Node4</title>
<path fill="none" stroke="midnightblue" d="M293.12,-115.25C313.16,-120.21 338.29,-126.42 361.66,-132.2"/>
<polygon fill="midnightblue" stroke="midnightblue" points="361.01,-135.64 371.55,-134.64 362.69,-128.84 361.01,-135.64"/>
</g>
<!-- Node5 -->
<g id="node5" class="node">
<title>Node5</title>
<g id="a_node5"><a xlink:href="../../dc/d6d/classjavolution_1_1text_1_1Text.html#a71b1cf384add94cc256ab5e07b410702" target="_top" xlink:title=" ">
<polygon fill="white" stroke="black" points="543.5,-112.71 543.5,-142.71 677.5,-142.71 677.5,-112.71 543.5,-112.71"/>
<text text-anchor="start" x="551.5" y="-130.71" font-family="Helvetica,sans-Serif" font-size="10.00">javolution.text.Text.new</text>
<text text-anchor="middle" x="610.5" y="-119.71" font-family="Helvetica,sans-Serif" font-size="10.00">Composite</text>
</a>
</g>
</g>
<!-- Node2&#45;&gt;Node5 -->
<g id="edge9" class="edge">
<title>Node2&#45;&gt;Node5</title>
<path fill="none" stroke="midnightblue" d="M326.77,-110.19C386.88,-113.91 472.18,-119.2 533.34,-122.99"/>
<polygon fill="midnightblue" stroke="midnightblue" points="533.13,-126.48 543.32,-123.61 533.56,-119.49 533.13,-126.48"/>
</g>
<!-- Node7 -->
<g id="node7" class="node">
<title>Node7</title>
<g id="a_node7"><a xlink:href="../../dc/d6d/classjavolution_1_1text_1_1Text.html#ae20f0d750950188da8be25b4aa950895" target="_top" xlink:title=" ">
<polygon fill="white" stroke="black" points="538,-8.21 538,-27.21 683,-27.21 683,-8.21 538,-8.21"/>
<text text-anchor="middle" x="610.5" y="-15.21" font-family="Helvetica,sans-Serif" font-size="10.00">javolution.text.Text.length</text>
</a>
</g>
</g>
<!-- Node2&#45;&gt;Node7 -->
<g id="edge8" class="edge">
<title>Node2&#45;&gt;Node7</title>
<path fill="none" stroke="midnightblue" d="M265.8,-96C284.81,-80.32 325.04,-49.86 365,-36.71 417.39,-19.47 479.36,-14.81 527.8,-14.42"/>
<polygon fill="midnightblue" stroke="midnightblue" points="527.94,-17.92 537.93,-14.39 527.92,-10.92 527.94,-17.92"/>
</g>
<!-- Node8 -->
<g id="node8" class="node">
<title>Node8</title>
<g id="a_node8"><a xlink:href="../../dc/d6d/classjavolution_1_1text_1_1Text.html#a2f1c719dbe335c77cfaf05795f807c13" target="_top" xlink:title=" ">
<polygon fill="white" stroke="black" points="366.5,-46.71 366.5,-76.71 500.5,-76.71 500.5,-46.71 366.5,-46.71"/>
<text text-anchor="start" x="374.5" y="-64.71" font-family="Helvetica,sans-Serif" font-size="10.00">javolution.text.Text.new</text>
<text text-anchor="middle" x="433.5" y="-53.71" font-family="Helvetica,sans-Serif" font-size="10.00">Primitive</text>
</a>
</g>
</g>
<!-- Node2&#45;&gt;Node8 -->
<g id="edge10" class="edge">
<title>Node2&#45;&gt;Node8</title>
<path fill="none" stroke="midnightblue" d="M293.12,-96.16C313.16,-91.21 338.29,-85 361.66,-79.22"/>
<polygon fill="midnightblue" stroke="midnightblue" points="362.69,-82.57 371.55,-76.77 361.01,-75.77 362.69,-82.57"/>
</g>
<!-- Node9 -->
<g id="node9" class="node">
<title>Node9</title>
<g id="a_node9"><a xlink:href="../../dc/d6d/classjavolution_1_1text_1_1Text.html#a8f432b9cedb3d9d2a05eb9688ecb6ebc" target="_top" xlink:title=" ">
<polygon fill="white" stroke="black" points="365,-250.71 365,-280.71 502,-280.71 502,-250.71 365,-250.71"/>
<text text-anchor="start" x="373" y="-268.71" font-family="Helvetica,sans-Serif" font-size="10.00">javolution.text.Text.right</text>
<text text-anchor="middle" x="433.5" y="-257.71" font-family="Helvetica,sans-Serif" font-size="10.00">Rotation</text>
</a>
</g>
</g>
<!-- Node2&#45;&gt;Node9 -->
<g id="edge13" class="edge">
<title>Node2&#45;&gt;Node9</title>
<path fill="none" stroke="midnightblue" d="M259.84,-115.46C273.85,-140.16 314.06,-205.72 365,-241.71 367.09,-243.18 369.28,-244.58 371.54,-245.89"/>
<polygon fill="midnightblue" stroke="midnightblue" points="370.05,-249.06 380.54,-250.58 373.29,-242.86 370.05,-249.06"/>
</g>
<!-- Node3&#45;&gt;Node3 -->
<g id="edge4" class="edge">
<title>Node3&#45;&gt;Node3</title>
<path fill="none" stroke="midnightblue" d="M402.83,-213.87C395.43,-223.26 405.66,-232.21 433.5,-232.21 450.47,-232.21 460.89,-228.89 464.77,-224.16"/>
<polygon fill="midnightblue" stroke="midnightblue" points="468.25,-223.64 464.17,-213.87 461.26,-224.05 468.25,-223.64"/>
</g>
<!-- Node4&#45;&gt;Node5 -->
<g id="edge6" class="edge">
<title>Node4&#45;&gt;Node5</title>
<path fill="none" stroke="midnightblue" d="M498.67,-141.64C509.91,-140.23 521.71,-138.74 533.24,-137.29"/>
<polygon fill="midnightblue" stroke="midnightblue" points="533.8,-140.75 543.28,-136.03 532.92,-133.81 533.8,-140.75"/>
</g>
<!-- Node6 -->
<g id="node6" class="node">
<title>Node6</title>
<g id="a_node6"><a xlink:href="../../dc/d6d/classjavolution_1_1text_1_1Text.html#ad23b912b5d8c43b6620281af8d0f93d3" target="_top" xlink:title=" ">
<polygon fill="white" stroke="black" points="719,-74.21 719,-93.21 853,-93.21 853,-74.21 719,-74.21"/>
<text text-anchor="middle" x="786" y="-81.21" font-family="Helvetica,sans-Serif" font-size="10.00">javolution.text.Text.Text</text>
</a>
</g>
</g>
<!-- Node5&#45;&gt;Node6 -->
<g id="edge7" class="edge">
<title>Node5&#45;&gt;Node6</title>
<path fill="none" stroke="midnightblue" d="M670.72,-112.69C692.57,-107.15 717.02,-100.95 737.68,-95.71"/>
<polygon fill="midnightblue" stroke="midnightblue" points="738.66,-99.07 747.49,-93.22 736.94,-92.29 738.66,-99.07"/>
</g>
<!-- Node8&#45;&gt;Node6 -->
<g id="edge12" class="edge">
<title>Node8&#45;&gt;Node6</title>
<path fill="none" stroke="midnightblue" d="M500.84,-65.87C560.06,-69.59 646.77,-75.03 708.81,-78.92"/>
<polygon fill="midnightblue" stroke="midnightblue" points="708.73,-82.43 718.93,-79.56 709.17,-75.44 708.73,-82.43"/>
</g>
<!-- Node8&#45;&gt;Node7 -->
<g id="edge11" class="edge">
<title>Node8&#45;&gt;Node7</title>
<path fill="none" stroke="midnightblue" d="M494.24,-46.69C516.27,-41.15 540.93,-34.95 561.77,-29.71"/>
<polygon fill="midnightblue" stroke="midnightblue" points="562.82,-33.05 571.67,-27.22 561.11,-26.26 562.82,-33.05"/>
</g>
<!-- Node9&#45;&gt;Node5 -->
<g id="edge14" class="edge">
<title>Node9&#45;&gt;Node5</title>
<path fill="none" stroke="midnightblue" d="M485.16,-250.7C491.04,-248.09 496.79,-245.11 502,-241.71 539.7,-217.1 573.58,-176.67 592.83,-151.16"/>
<polygon fill="midnightblue" stroke="midnightblue" points="595.87,-152.92 599.01,-142.8 590.24,-148.76 595.87,-152.92"/>
</g>
<!-- Node10&#45;&gt;Node7 -->
<g id="edge16" class="edge">
<title>Node10&#45;&gt;Node7</title>
<path fill="none" stroke="midnightblue" d="M297.02,-14.17C317.46,-10.06 342.38,-5.74 365,-3.71 425.65,1.74 441.24,0.23 502,-3.71 513.33,-4.44 525.29,-5.61 536.95,-6.96"/>
<polygon fill="midnightblue" stroke="midnightblue" points="536.76,-10.46 547.1,-8.19 537.6,-3.51 536.76,-10.46"/>
</g>
</g>
</svg>
