<?xml version="1.0" encoding="UTF-8" standalone="no"?>
<!DOCTYPE svg PUBLIC "-//W3C//DTD SVG 1.1//EN"
 "http://www.w3.org/Graphics/SVG/1.1/DTD/svg11.dtd">
<!-- Generated by graphviz version 2.43.0 (0)
 -->
<!-- Title: javolution.text.Text.indexOfAny Pages: 1 -->
<svg width="507pt" height="61pt"
 viewBox="0.00 0.00 507.00 61.00" xmlns="http://www.w3.org/2000/svg" xmlns:xlink="http://www.w3.org/1999/xlink">
<g id="graph0" class="graph" transform="scale(1 1) rotate(0) translate(4 57)">
<title>javolution.text.Text.indexOfAny</title>
<polygon fill="white" stroke="transparent" points="-4,4 -4,-57 503,-57 503,4 -4,4"/>
<!-- Node1 -->
<g id="node1" class="node">
<title>Node1</title>
<g id="a_node1"><a xlink:title=" ">
<polygon fill="#bfbfbf" stroke="black" points="0,-0.5 0,-30.5 141,-30.5 141,-0.5 0,-0.5"/>
<text text-anchor="start" x="8" y="-18.5" font-family="Helvetica,sans-Serif" font-size="10.00">javolution.text.Text.index</text>
<text text-anchor="middle" x="70.5" y="-7.5" font-family="Helvetica,sans-Serif" font-size="10.00">OfAny</text>
</a>
</g>
</g>
<!-- Node2 -->
<g id="node2" class="node">
<title>Node2</title>
<g id="a_node2"><a xlink:href="../../dc/d6d/classjavolution_1_1text_1_1Text.html#abfee9f3c78464f086a8fd9159ee7745e" target="_top" xlink:title=" ">
<polygon fill="white" stroke="black" points="177,-22.5 177,-52.5 318,-52.5 318,-22.5 177,-22.5"/>
<text text-anchor="start" x="185" y="-40.5" font-family="Helvetica,sans-Serif" font-size="10.00">javolution.text.Text.index</text>
<text text-anchor="middle" x="247.5" y="-29.5" font-family="Helvetica,sans-Serif" font-size="10.00">OfAny</text>
</a>
</g>
</g>
<!-- Node1&#45;&gt;Node2 -->
<g id="edge1" class="edge">
<title>Node1&#45;&gt;Node2</title>
<path fill="none" stroke="midnightblue" d="M141.17,-24.26C149.59,-25.32 158.25,-26.41 166.81,-27.48"/>
<polygon fill="midnightblue" stroke="midnightblue" points="166.43,-30.96 176.79,-28.74 167.3,-24.02 166.43,-30.96"/>
</g>
<!-- Node3 -->
<g id="node3" class="node">
<title>Node3</title>
<g id="a_node3"><a xlink:href="../../dc/d6d/classjavolution_1_1text_1_1Text.html#ae20f0d750950188da8be25b4aa950895" target="_top" xlink:title=" ">
<polygon fill="white" stroke="black" points="354,-6 354,-25 499,-25 499,-6 354,-6"/>
<text text-anchor="middle" x="426.5" y="-13" font-family="Helvetica,sans-Serif" font-size="10.00">javolution.text.Text.length</text>
</a>
</g>
</g>
<!-- Node1&#45;&gt;Node3 -->
<g id="edge3" class="edge">
<title>Node1&#45;&gt;Node3</title>
<path fill="none" stroke="midnightblue" d="M141.02,-14C153.02,-13.79 165.37,-13.61 177,-13.5 239.66,-12.91 255.34,-12.92 318,-13.5 326.32,-13.58 335,-13.69 343.66,-13.82"/>
<polygon fill="midnightblue" stroke="midnightblue" points="343.75,-17.32 353.8,-13.98 343.86,-10.32 343.75,-17.32"/>
</g>
<!-- Node2&#45;&gt;Node3 -->
<g id="edge2" class="edge">
<title>Node2&#45;&gt;Node3</title>
<path fill="none" stroke="midnightblue" d="M318.2,-28.84C326.61,-27.79 335.27,-26.72 343.83,-25.65"/>
<polygon fill="midnightblue" stroke="midnightblue" points="344.33,-29.12 353.83,-24.41 343.47,-22.17 344.33,-29.12"/>
</g>
</g>
</svg>
