<?xml version="1.0" encoding="UTF-8" standalone="no"?>
<!DOCTYPE svg PUBLIC "-//W3C//DTD SVG 1.1//EN"
 "http://www.w3.org/Graphics/SVG/1.1/DTD/svg11.dtd">
<!-- Generated by graphviz version 2.43.0 (0)
 -->
<!-- Title: javolution.text.Text.charAt Pages: 1 -->
<!--zoomable 515 -->
<svg id="main" version="1.1" xmlns="http://www.w3.org/2000/svg" xmlns:xlink="http://www.w3.org/1999/xlink" xml:space="preserve" onload="init(evt)">
<style type="text/css"><![CDATA[
.edge:hover path { stroke: red; }
.edge:hover polygon { stroke: red; fill: red; }
]]></style>
<script type="text/javascript"><![CDATA[
var edges = document.getElementsByTagName('g');
if (edges && edges.length) {
  for (var i=0;i<edges.length;i++) {
    if (edges[i].id.substr(0,4)=='edge') {
      edges[i].setAttribute('class','edge');
    }
  }
}
]]></script>
        <defs>
                <circle id="rim" cx="0" cy="0" r="7"/>
                <circle id="rim2" cx="0" cy="0" r="3.5"/>
                <g id="zoomPlus">
                        <use xlink:href="#rim" fill="#404040">
                                <set attributeName="fill" to="#808080" begin="zoomplus.mouseover" end="zoomplus.mouseout"/>
                        </use>
                        <path d="M-4,0h8M0,-4v8" fill="none" stroke="white" stroke-width="1.5" pointer-events="none"/>
                </g>
                <g id="zoomMin">
                        <use xlink:href="#rim" fill="#404040">
                                <set attributeName="fill" to="#808080" begin="zoomminus.mouseover" end="zoomminus.mouseout"/>
                        </use>
                        <path d="M-4,0h8" fill="none" stroke="white" stroke-width="1.5" pointer-events="none"/>
                </g>
                <g id="dirArrow">
                        <path fill="none" stroke="white" stroke-width="1.5" d="M0,-3.0v7 M-2.5,-0.5L0,-3.0L2.5,-0.5"/>
                </g>
               <g id="resetDef">
                       <use xlink:href="#rim2" fill="#404040">
                               <set attributeName="fill" to="#808080" begin="reset.mouseover" end="reset.mouseout"/>
                       </use>
               </g>
        </defs>

<script type="text/javascript">
var viewWidth = 352;
var viewHeight = 515;
var sectionId = 'dynsection-7';
</script>
<script xlink:href="../../svgpan.js"/>
<svg id="graph" class="graph">
<g id="viewport">
<title>javolution.text.Text.charAt</title>
<polygon fill="white" stroke="transparent" points="-4,4 -4,-511 348,-511 348,4 -4,4"/>
<!-- Node1 -->
<g id="node1" class="node">
<title>Node1</title>
<g id="a_node1"><a xlink:title=" ">
<polygon fill="#bfbfbf" stroke="black" points="198,-247 198,-266 344,-266 344,-247 198,-247"/>
<text text-anchor="middle" x="271" y="-254" font-family="Helvetica,sans-Serif" font-size="10.00">javolution.text.Text.charAt</text>
</a>
</g>
</g>
<!-- Node1&#45;&gt;Node1 -->
<g id="edge1" class="edge">
<title>Node1&#45;&gt;Node1</title>
<path fill="none" stroke="midnightblue" d="M306.62,-274C306.62,-279.84 294.74,-284.5 271,-284.5 237.23,-284.5 227.47,-275.07 241.72,-266.26"/>
<polygon fill="midnightblue" stroke="midnightblue" points="309.33,-271.78 300.28,-266.26 303.91,-276.21 309.33,-271.78"/>
</g>
<!-- Node2 -->
<g id="node2" class="node">
<title>Node2</title>
<g id="a_node2"><a xlink:href="../../dc/d6d/classjavolution_1_1text_1_1Text.html#ae602b660d336fdfb12ccdab8fc3c6cc2" target="_top" xlink:title=" ">
<polygon fill="white" stroke="black" points="5.5,-476.5 5.5,-506.5 156.5,-506.5 156.5,-476.5 5.5,-476.5"/>
<text text-anchor="start" x="13.5" y="-494.5" font-family="Helvetica,sans-Serif" font-size="10.00">javolution.text.Text.content</text>
<text text-anchor="middle" x="81" y="-483.5" font-family="Helvetica,sans-Serif" font-size="10.00">Equals</text>
</a>
</g>
</g>
<!-- Node1&#45;&gt;Node2 -->
<g id="edge2" class="edge">
<title>Node1&#45;&gt;Node2</title>
<path fill="none" stroke="midnightblue" d="M265.5,-276.14C254.93,-317.79 224.56,-415.38 162,-467.5 157.88,-470.93 153.28,-473.88 148.42,-476.4"/>
<polygon fill="midnightblue" stroke="midnightblue" points="268.96,-276.72 267.92,-266.18 262.16,-275.07 268.96,-276.72"/>
</g>
<!-- Node3 -->
<g id="node3" class="node">
<title>Node3</title>
<g id="a_node3"><a xlink:href="../../dc/d6d/classjavolution_1_1text_1_1Text.html#ae3951f4c2cf84a65acac3f936a9064f9" target="_top" xlink:title=" ">
<polygon fill="white" stroke="black" points="5.5,-427.5 5.5,-457.5 156.5,-457.5 156.5,-427.5 5.5,-427.5"/>
<text text-anchor="start" x="13.5" y="-445.5" font-family="Helvetica,sans-Serif" font-size="10.00">javolution.text.Text.content</text>
<text text-anchor="middle" x="81" y="-434.5" font-family="Helvetica,sans-Serif" font-size="10.00">EqualsIgnoreCase</text>
</a>
</g>
</g>
<!-- Node1&#45;&gt;Node3 -->
<g id="edge3" class="edge">
<title>Node1&#45;&gt;Node3</title>
<path fill="none" stroke="midnightblue" d="M262.27,-275.73C247.73,-309.46 213.1,-379.34 162,-417.5 156.87,-421.33 151.14,-424.58 145.17,-427.34"/>
<polygon fill="midnightblue" stroke="midnightblue" points="265.65,-276.71 266.28,-266.13 259.19,-274.01 265.65,-276.71"/>
</g>
<!-- Node4 -->
<g id="node4" class="node">
<title>Node4</title>
<g id="a_node4"><a xlink:href="../../dc/d6d/classjavolution_1_1text_1_1Text.html#a751d516e3df9188220e8ce220960803c" target="_top" xlink:title=" ">
<polygon fill="white" stroke="black" points="8,-389 8,-408 154,-408 154,-389 8,-389"/>
<text text-anchor="middle" x="81" y="-396" font-family="Helvetica,sans-Serif" font-size="10.00">javolution.text.Text.equals</text>
</a>
</g>
</g>
<!-- Node1&#45;&gt;Node4 -->
<g id="edge4" class="edge">
<title>Node1&#45;&gt;Node4</title>
<path fill="none" stroke="midnightblue" d="M259.14,-274.89C242.04,-302.14 206.22,-352.89 162,-379.5 155.52,-383.4 148.29,-386.5 140.9,-388.96"/>
<polygon fill="midnightblue" stroke="midnightblue" points="262.15,-276.67 264.39,-266.31 256.18,-273.01 262.15,-276.67"/>
</g>
<!-- Node5 -->
<g id="node5" class="node">
<title>Node5</title>
<g id="a_node5"><a xlink:href="../../dc/d6d/classjavolution_1_1text_1_1Text.html#a4ce1f4ddd17feb3e6c981739270b870a" target="_top" xlink:title=" ">
<polygon fill="white" stroke="black" points="0,-351 0,-370 162,-370 162,-351 0,-351"/>
<text text-anchor="middle" x="81" y="-358" font-family="Helvetica,sans-Serif" font-size="10.00">javolution.text.Text.hashCode</text>
</a>
</g>
</g>
<!-- Node1&#45;&gt;Node5 -->
<g id="edge5" class="edge">
<title>Node1&#45;&gt;Node5</title>
<path fill="none" stroke="midnightblue" d="M253.55,-273.29C233.64,-292.63 198.26,-323.99 162,-341.5 154.03,-345.35 145.23,-348.45 136.47,-350.94"/>
<polygon fill="midnightblue" stroke="midnightblue" points="256.22,-275.57 260.86,-266.05 251.29,-270.6 256.22,-275.57"/>
</g>
<!-- Node6 -->
<g id="node6" class="node">
<title>Node6</title>
<g id="a_node6"><a xlink:href="../../dc/d6d/classjavolution_1_1text_1_1Text.html#a01aa0f3eb18bee0ced2148b51f8be3b3" target="_top" xlink:title=" ">
<polygon fill="white" stroke="black" points="5,-313 5,-332 157,-332 157,-313 5,-313"/>
<text text-anchor="middle" x="81" y="-320" font-family="Helvetica,sans-Serif" font-size="10.00">javolution.text.Text.indexOf</text>
</a>
</g>
</g>
<!-- Node1&#45;&gt;Node6 -->
<g id="edge6" class="edge">
<title>Node1&#45;&gt;Node6</title>
<path fill="none" stroke="midnightblue" d="M241.7,-270.46C220.22,-280.65 189.76,-294.25 162,-303.5 151.3,-307.07 139.59,-310.24 128.5,-312.93"/>
<polygon fill="midnightblue" stroke="midnightblue" points="243.4,-273.53 250.9,-266.05 240.37,-267.22 243.4,-273.53"/>
</g>
<!-- Node7 -->
<g id="node7" class="node">
<title>Node7</title>
<g id="a_node7"><a xlink:href="../../dc/d6d/classjavolution_1_1text_1_1Text.html#ad5afaa729cb2551de5922417094c7b2b" target="_top" xlink:title=" ">
<polygon fill="white" stroke="black" points="10.5,-263.5 10.5,-293.5 151.5,-293.5 151.5,-263.5 10.5,-263.5"/>
<text text-anchor="start" x="18.5" y="-281.5" font-family="Helvetica,sans-Serif" font-size="10.00">javolution.text.Text.index</text>
<text text-anchor="middle" x="81" y="-270.5" font-family="Helvetica,sans-Serif" font-size="10.00">OfAny</text>
</a>
</g>
</g>
<!-- Node1&#45;&gt;Node7 -->
<g id="edge7" class="edge">
<title>Node1&#45;&gt;Node7</title>
<path fill="none" stroke="midnightblue" d="M187.83,-266.12C175.81,-267.52 163.53,-268.96 151.79,-270.33"/>
<polygon fill="midnightblue" stroke="midnightblue" points="188.33,-269.58 197.85,-264.94 187.51,-262.63 188.33,-269.58"/>
</g>
<!-- Node8 -->
<g id="node8" class="node">
<title>Node8</title>
<g id="a_node8"><a xlink:href="../../dc/d6d/classjavolution_1_1text_1_1Text.html#ad1ef81d81cc677c388be6d12fe060965" target="_top" xlink:title=" ">
<polygon fill="white" stroke="black" points="6,-225 6,-244 156,-244 156,-225 6,-225"/>
<text text-anchor="middle" x="81" y="-232" font-family="Helvetica,sans-Serif" font-size="10.00">javolution.text.Text.isBlank</text>
</a>
</g>
</g>
<!-- Node1&#45;&gt;Node8 -->
<g id="edge8" class="edge">
<title>Node1&#45;&gt;Node8</title>
<path fill="none" stroke="midnightblue" d="M187.82,-246.88C177.28,-245.65 166.54,-244.39 156.13,-243.18"/>
<polygon fill="midnightblue" stroke="midnightblue" points="187.51,-250.37 197.85,-248.06 188.33,-243.42 187.51,-250.37"/>
</g>
<!-- Node9 -->
<g id="node9" class="node">
<title>Node9</title>
<g id="a_node9"><a xlink:href="../../dc/d6d/classjavolution_1_1text_1_1Text.html#a93c7581fecfa7a9b6c33b7244e1fd61f" target="_top" xlink:title=" ">
<polygon fill="white" stroke="black" points="15,-175.5 15,-205.5 147,-205.5 147,-175.5 15,-175.5"/>
<text text-anchor="start" x="23" y="-193.5" font-family="Helvetica,sans-Serif" font-size="10.00">javolution.text.Text.last</text>
<text text-anchor="middle" x="81" y="-182.5" font-family="Helvetica,sans-Serif" font-size="10.00">IndexOf</text>
</a>
</g>
</g>
<!-- Node1&#45;&gt;Node9 -->
<g id="edge9" class="edge">
<title>Node1&#45;&gt;Node9</title>
<path fill="none" stroke="midnightblue" d="M236.6,-243.23C215.35,-234.93 187.2,-224.21 162,-215.5 152.24,-212.12 141.73,-208.7 131.65,-205.51"/>
<polygon fill="midnightblue" stroke="midnightblue" points="235.54,-246.57 246.13,-246.97 238.1,-240.06 235.54,-246.57"/>
</g>
<!-- Node10 -->
<g id="node10" class="node">
<title>Node10</title>
<g id="a_node10"><a xlink:href="../../dc/d6d/classjavolution_1_1text_1_1Text.html#a938f4fea8df644226c1bf780c03ffb8e" target="_top" xlink:title=" ">
<polygon fill="white" stroke="black" points="15,-126.5 15,-156.5 147,-156.5 147,-126.5 15,-126.5"/>
<text text-anchor="start" x="23" y="-144.5" font-family="Helvetica,sans-Serif" font-size="10.00">javolution.text.Text.last</text>
<text text-anchor="middle" x="81" y="-133.5" font-family="Helvetica,sans-Serif" font-size="10.00">IndexOfAny</text>
</a>
</g>
</g>
<!-- Node1&#45;&gt;Node10 -->
<g id="edge10" class="edge">
<title>Node1&#45;&gt;Node10</title>
<path fill="none" stroke="midnightblue" d="M254.09,-239.71C234.27,-219.67 198.52,-186.39 162,-166.5 155.1,-162.74 147.55,-159.46 139.93,-156.61"/>
<polygon fill="midnightblue" stroke="midnightblue" points="251.63,-242.2 261.11,-246.93 256.65,-237.32 251.63,-242.2"/>
</g>
<!-- Node11 -->
<g id="node11" class="node">
<title>Node11</title>
<g id="a_node11"><a xlink:href="../../dc/d6d/classjavolution_1_1text_1_1Text.html#af7e0b749b93fdbd1bc1840b1ee1c7a1c" target="_top" xlink:title=" ">
<polygon fill="white" stroke="black" points="14,-88 14,-107 148,-107 148,-88 14,-88"/>
<text text-anchor="middle" x="81" y="-95" font-family="Helvetica,sans-Serif" font-size="10.00">javolution.text.Text.trim</text>
</a>
</g>
</g>
<!-- Node1&#45;&gt;Node11 -->
<g id="edge11" class="edge">
<title>Node1&#45;&gt;Node11</title>
<path fill="none" stroke="midnightblue" d="M260.87,-237.96C245.05,-207.84 209.61,-148.53 162,-117.5 155.28,-113.12 147.68,-109.7 139.89,-107.03"/>
<polygon fill="midnightblue" stroke="midnightblue" points="257.8,-239.65 265.47,-246.97 264.04,-236.47 257.8,-239.65"/>
</g>
<!-- Node12 -->
<g id="node12" class="node">
<title>Node12</title>
<g id="a_node12"><a xlink:href="../../dc/d6d/classjavolution_1_1text_1_1Text.html#a0af62cea2835822a6c9be930d5e446da" target="_top" xlink:title=" ">
<polygon fill="white" stroke="black" points="5,-50 5,-69 157,-69 157,-50 5,-50"/>
<text text-anchor="middle" x="81" y="-57" font-family="Helvetica,sans-Serif" font-size="10.00">javolution.text.Text.trimEnd</text>
</a>
</g>
</g>
<!-- Node1&#45;&gt;Node12 -->
<g id="edge12" class="edge">
<title>Node1&#45;&gt;Node12</title>
<path fill="none" stroke="midnightblue" d="M264.01,-237.42C251.44,-200.6 218.65,-119.74 162,-78.5 156.69,-74.63 150.71,-71.55 144.46,-69.08"/>
<polygon fill="midnightblue" stroke="midnightblue" points="260.7,-238.55 267.15,-246.96 267.35,-236.36 260.7,-238.55"/>
</g>
<!-- Node13 -->
<g id="node13" class="node">
<title>Node13</title>
<g id="a_node13"><a xlink:href="../../dc/d6d/classjavolution_1_1text_1_1Text.html#a578069a3e6e5c04c2382dc3e6e9c60b5" target="_top" xlink:title=" ">
<polygon fill="white" stroke="black" points="14,-0.5 14,-30.5 148,-30.5 148,-0.5 14,-0.5"/>
<text text-anchor="start" x="22" y="-18.5" font-family="Helvetica,sans-Serif" font-size="10.00">javolution.text.Text.trim</text>
<text text-anchor="middle" x="81" y="-7.5" font-family="Helvetica,sans-Serif" font-size="10.00">Start</text>
</a>
</g>
</g>
<!-- Node1&#45;&gt;Node13 -->
<g id="edge13" class="edge">
<title>Node1&#45;&gt;Node13</title>
<path fill="none" stroke="midnightblue" d="M265.66,-236.73C255.34,-194.37 225.31,-94.37 162,-40.5 157.46,-36.63 152.32,-33.36 146.89,-30.6"/>
<polygon fill="midnightblue" stroke="midnightblue" points="262.29,-237.68 267.97,-246.63 269.11,-236.09 262.29,-237.68"/>
</g>
</g>
</svg>
        <g id="navigator" transform="translate(0 0)" fill="#404254">
                <rect fill="#f2f5e9" fill-opacity="0.5" stroke="#606060" stroke-width=".5" x="0" y="0" width="60" height="60"/>
                <use id="zoomplus" xlink:href="#zoomPlus" x="17" y="9" onmousedown="handleZoom(evt,'in')"/>
                <use id="zoomminus" xlink:href="#zoomMin" x="42" y="9" onmousedown="handleZoom(evt,'out')"/>
                <use id="reset" xlink:href="#resetDef" x="30" y="36" onmousedown="handleReset()"/>
                <g id="arrowUp" xlink:href="#dirArrow" transform="translate(30 24)" onmousedown="handlePan(0,-1)">
                  <use xlink:href="#rim" fill="#404040">
                        <set attributeName="fill" to="#808080" begin="arrowUp.mouseover" end="arrowUp.mouseout"/>
                  </use>
                  <path fill="none" stroke="white" stroke-width="1.5" d="M0,-3.0v7 M-2.5,-0.5L0,-3.0L2.5,-0.5"/>
                </g>
                <g id="arrowRight" xlink:href="#dirArrow" transform="rotate(90) translate(36 -43)" onmousedown="handlePan(1,0)">
                  <use xlink:href="#rim" fill="#404040">
                        <set attributeName="fill" to="#808080" begin="arrowRight.mouseover" end="arrowRight.mouseout"/>
                  </use>
                  <path fill="none" stroke="white" stroke-width="1.5" d="M0,-3.0v7 M-2.5,-0.5L0,-3.0L2.5,-0.5"/>
                </g>
                <g id="arrowDown" xlink:href="#dirArrow" transform="rotate(180) translate(-30 -48)" onmousedown="handlePan(0,1)">
                  <use xlink:href="#rim" fill="#404040">
                        <set attributeName="fill" to="#808080" begin="arrowDown.mouseover" end="arrowDown.mouseout"/>
                  </use>
                  <path fill="none" stroke="white" stroke-width="1.5" d="M0,-3.0v7 M-2.5,-0.5L0,-3.0L2.5,-0.5"/>
                </g>
                <g id="arrowLeft" xlink:href="#dirArrow" transform="rotate(270) translate(-36 17)" onmousedown="handlePan(-1,0)">
                  <use xlink:href="#rim" fill="#404040">
                        <set attributeName="fill" to="#808080" begin="arrowLeft.mouseover" end="arrowLeft.mouseout"/>
                  </use>
                  <path fill="none" stroke="white" stroke-width="1.5" d="M0,-3.0v7 M-2.5,-0.5L0,-3.0L2.5,-0.5"/>
                </g>
        </g>
        <svg viewBox="0 0 15 15" width="100%" height="30px" preserveAspectRatio="xMaxYMin meet">
         <g id="arrow_out" transform="scale(0.3 0.3)">
          <a xlink:href="classjavolution_1_1text_1_1Text_aff336ffd1fd0f4dc5d8338f5fb12e84d_icgraph_org.svg" target="_base">
           <rect id="button" ry="5" rx="5" y="6" x="6" height="38" width="38"
                fill="#f2f5e9" fill-opacity="0.5" stroke="#606060" stroke-width="1.0"/>
           <path id="arrow"
             d="M 11.500037,31.436501 C 11.940474,20.09759 22.043105,11.32322 32.158766,21.979434 L 37.068811,17.246167 C 37.068811,17.246167 37.088388,32 37.088388,32 L 22.160133,31.978069 C 22.160133,31.978069 26.997745,27.140456 26.997745,27.140456 C 18.528582,18.264221 13.291696,25.230495 11.500037,31.436501 z"
             style="fill:#404040;"/>
          </a>
         </g>
        </svg>
</svg>
