<?xml version="1.0" encoding="UTF-8" standalone="no"?>
<!DOCTYPE svg PUBLIC "-//W3C//DTD SVG 1.1//EN"
 "http://www.w3.org/Graphics/SVG/1.1/DTD/svg11.dtd">
<!-- Generated by graphviz version 2.43.0 (0)
 -->
<!-- Title: javolution.text.Text.printStatistics Pages: 1 -->
<svg width="518pt" height="230pt"
 viewBox="0.00 0.00 518.00 229.50" xmlns="http://www.w3.org/2000/svg" xmlns:xlink="http://www.w3.org/1999/xlink">
<g id="graph0" class="graph" transform="scale(1 1) rotate(0) translate(4 225.5)">
<title>javolution.text.Text.printStatistics</title>
<polygon fill="white" stroke="transparent" points="-4,4 -4,-225.5 514,-225.5 514,4 -4,4"/>
<!-- Node1 -->
<g id="node1" class="node">
<title>Node1</title>
<g id="a_node1"><a xlink:title=" ">
<polygon fill="#bfbfbf" stroke="black" points="0,-72 0,-102 137,-102 137,-72 0,-72"/>
<text text-anchor="start" x="8" y="-90" font-family="Helvetica,sans-Serif" font-size="10.00">javolution.text.Text.print</text>
<text text-anchor="middle" x="68.5" y="-79" font-family="Helvetica,sans-Serif" font-size="10.00">Statistics</text>
</a>
</g>
</g>
<!-- Node2 -->
<g id="node2" class="node">
<title>Node2</title>
<g id="a_node2"><a xlink:href="../../dc/d6d/classjavolution_1_1text_1_1Text.html#af0a37030fabec6b8bb3535e797aed167" target="_top" xlink:title=" ">
<polygon fill="white" stroke="black" points="180.5,-173 180.5,-203 310.5,-203 310.5,-173 180.5,-173"/>
<text text-anchor="start" x="188.5" y="-191" font-family="Helvetica,sans-Serif" font-size="10.00">javolution.text.Text.get</text>
<text text-anchor="middle" x="245.5" y="-180" font-family="Helvetica,sans-Serif" font-size="10.00">Depth</text>
</a>
</g>
</g>
<!-- Node1&#45;&gt;Node2 -->
<g id="edge1" class="edge">
<title>Node1&#45;&gt;Node2</title>
<path fill="none" stroke="midnightblue" d="M86.31,-102.17C105.91,-119.18 139.86,-146.67 173,-164 176.33,-165.74 179.81,-167.39 183.37,-168.95"/>
<polygon fill="midnightblue" stroke="midnightblue" points="182.33,-172.31 192.91,-172.87 184.99,-165.83 182.33,-172.31"/>
</g>
<!-- Node4 -->
<g id="node4" class="node">
<title>Node4</title>
<g id="a_node4"><a xlink:href="../../dc/d6d/classjavolution_1_1text_1_1Text.html#ad462332f2e0264b199300af9fcb41395" target="_top" xlink:title=" ">
<polygon fill="white" stroke="black" points="180.5,-106 180.5,-136 310.5,-136 310.5,-106 180.5,-106"/>
<text text-anchor="start" x="188.5" y="-124" font-family="Helvetica,sans-Serif" font-size="10.00">javolution.text.Text.get</text>
<text text-anchor="middle" x="245.5" y="-113" font-family="Helvetica,sans-Serif" font-size="10.00">NbrOfBranches</text>
</a>
</g>
</g>
<!-- Node1&#45;&gt;Node4 -->
<g id="edge4" class="edge">
<title>Node1&#45;&gt;Node4</title>
<path fill="none" stroke="midnightblue" d="M137.16,-100.15C148.06,-102.26 159.39,-104.46 170.43,-106.61"/>
<polygon fill="midnightblue" stroke="midnightblue" points="169.98,-110.09 180.47,-108.56 171.32,-103.22 169.98,-110.09"/>
</g>
<!-- Node5 -->
<g id="node5" class="node">
<title>Node5</title>
<g id="a_node5"><a xlink:href="../../dc/d6d/classjavolution_1_1text_1_1Text.html#aacb9be841c96163f4041cd4e67ecb7b6" target="_top" xlink:title=" ">
<polygon fill="white" stroke="black" points="180.5,-39 180.5,-69 310.5,-69 310.5,-39 180.5,-39"/>
<text text-anchor="start" x="188.5" y="-57" font-family="Helvetica,sans-Serif" font-size="10.00">javolution.text.Text.get</text>
<text text-anchor="middle" x="245.5" y="-46" font-family="Helvetica,sans-Serif" font-size="10.00">NbrOfLeaves</text>
</a>
</g>
</g>
<!-- Node1&#45;&gt;Node5 -->
<g id="edge6" class="edge">
<title>Node1&#45;&gt;Node5</title>
<path fill="none" stroke="midnightblue" d="M137.16,-74.24C148.06,-72.19 159.39,-70.05 170.43,-67.97"/>
<polygon fill="midnightblue" stroke="midnightblue" points="171.29,-71.37 180.47,-66.08 169.99,-64.49 171.29,-71.37"/>
</g>
<!-- Node6 -->
<g id="node6" class="node">
<title>Node6</title>
<g id="a_node6"><a xlink:href="../../dc/d6d/classjavolution_1_1text_1_1Text.html#ae20f0d750950188da8be25b4aa950895" target="_top" xlink:title=" ">
<polygon fill="white" stroke="black" points="173,-0.5 173,-19.5 318,-19.5 318,-0.5 173,-0.5"/>
<text text-anchor="middle" x="245.5" y="-7.5" font-family="Helvetica,sans-Serif" font-size="10.00">javolution.text.Text.length</text>
</a>
</g>
</g>
<!-- Node1&#45;&gt;Node6 -->
<g id="edge8" class="edge">
<title>Node1&#45;&gt;Node6</title>
<path fill="none" stroke="midnightblue" d="M93.39,-71.76C113.88,-59.21 144.52,-41.64 173,-30 179.81,-27.22 187.13,-24.68 194.41,-22.42"/>
<polygon fill="midnightblue" stroke="midnightblue" points="195.65,-25.7 204.24,-19.51 193.66,-18.99 195.65,-25.7"/>
</g>
<!-- Node2&#45;&gt;Node2 -->
<g id="edge2" class="edge">
<title>Node2&#45;&gt;Node2</title>
<path fill="none" stroke="midnightblue" d="M214.83,-203.16C207.43,-212.56 217.66,-221.5 245.5,-221.5 262.47,-221.5 272.89,-218.18 276.77,-213.46"/>
<polygon fill="midnightblue" stroke="midnightblue" points="280.25,-212.94 276.17,-203.16 273.26,-213.35 280.25,-212.94"/>
</g>
<!-- Node3 -->
<g id="node3" class="node">
<title>Node3</title>
<g id="a_node3"><a xlink:href="../../d4/d14/classjavolution_1_1lang_1_1MathLib.html#ad9de726f7e211f74e59ed91c59675841" target="_top" xlink:title=" ">
<polygon fill="white" stroke="black" points="354,-178.5 354,-197.5 510,-197.5 510,-178.5 354,-178.5"/>
<text text-anchor="middle" x="432" y="-185.5" font-family="Helvetica,sans-Serif" font-size="10.00">javolution.lang.MathLib.max</text>
</a>
</g>
</g>
<!-- Node2&#45;&gt;Node3 -->
<g id="edge3" class="edge">
<title>Node2&#45;&gt;Node3</title>
<path fill="none" stroke="midnightblue" d="M310.51,-188C321.19,-188 332.43,-188 343.57,-188"/>
<polygon fill="midnightblue" stroke="midnightblue" points="343.76,-191.5 353.76,-188 343.76,-184.5 343.76,-191.5"/>
</g>
<!-- Node4&#45;&gt;Node4 -->
<g id="edge5" class="edge">
<title>Node4&#45;&gt;Node4</title>
<path fill="none" stroke="midnightblue" d="M214.83,-136.16C207.43,-145.56 217.66,-154.5 245.5,-154.5 262.47,-154.5 272.89,-151.18 276.77,-146.46"/>
<polygon fill="midnightblue" stroke="midnightblue" points="280.25,-145.94 276.17,-136.16 273.26,-146.35 280.25,-145.94"/>
</g>
<!-- Node5&#45;&gt;Node5 -->
<g id="edge7" class="edge">
<title>Node5&#45;&gt;Node5</title>
<path fill="none" stroke="midnightblue" d="M214.83,-69.16C207.43,-78.56 217.66,-87.5 245.5,-87.5 262.47,-87.5 272.89,-84.18 276.77,-79.46"/>
<polygon fill="midnightblue" stroke="midnightblue" points="280.25,-78.94 276.17,-69.16 273.26,-79.35 280.25,-78.94"/>
</g>
</g>
</svg>
