<?xml version="1.0" encoding="UTF-8" standalone="no"?>
<!DOCTYPE svg PUBLIC "-//W3C//DTD SVG 1.1//EN"
 "http://www.w3.org/Graphics/SVG/1.1/DTD/svg11.dtd">
<!-- Generated by graphviz version 2.43.0 (0)
 -->
<!-- Title: javolution.util.internal.set.sorted.SortedSetView.target Pages: 1 -->
<!--zoomable 343 -->
<svg id="main" version="1.1" xmlns="http://www.w3.org/2000/svg" xmlns:xlink="http://www.w3.org/1999/xlink" xml:space="preserve" onload="init(evt)">
<style type="text/css"><![CDATA[
.edge:hover path { stroke: red; }
.edge:hover polygon { stroke: red; fill: red; }
]]></style>
<script type="text/javascript"><![CDATA[
var edges = document.getElementsByTagName('g');
if (edges && edges.length) {
  for (var i=0;i<edges.length;i++) {
    if (edges[i].id.substr(0,4)=='edge') {
      edges[i].setAttribute('class','edge');
    }
  }
}
]]></script>
        <defs>
                <circle id="rim" cx="0" cy="0" r="7"/>
                <circle id="rim2" cx="0" cy="0" r="3.5"/>
                <g id="zoomPlus">
                        <use xlink:href="#rim" fill="#404040">
                                <set attributeName="fill" to="#808080" begin="zoomplus.mouseover" end="zoomplus.mouseout"/>
                        </use>
                        <path d="M-4,0h8M0,-4v8" fill="none" stroke="white" stroke-width="1.5" pointer-events="none"/>
                </g>
                <g id="zoomMin">
                        <use xlink:href="#rim" fill="#404040">
                                <set attributeName="fill" to="#808080" begin="zoomminus.mouseover" end="zoomminus.mouseout"/>
                        </use>
                        <path d="M-4,0h8" fill="none" stroke="white" stroke-width="1.5" pointer-events="none"/>
                </g>
                <g id="dirArrow">
                        <path fill="none" stroke="white" stroke-width="1.5" d="M0,-3.0v7 M-2.5,-0.5L0,-3.0L2.5,-0.5"/>
                </g>
               <g id="resetDef">
                       <use xlink:href="#rim2" fill="#404040">
                               <set attributeName="fill" to="#808080" begin="reset.mouseover" end="reset.mouseout"/>
                       </use>
               </g>
        </defs>

<script type="text/javascript">
var viewWidth = 632;
var viewHeight = 343;
var sectionId = 'dynsection-16';
</script>
<script xlink:href="../../svgpan.js"/>
<svg id="graph" class="graph">
<g id="viewport">
<title>javolution.util.internal.set.sorted.SortedSetView.target</title>
<polygon fill="white" stroke="transparent" points="-4,4 -4,-339 628,-339 628,4 -4,4"/>
<!-- Node1 -->
<g id="node1" class="node">
<title>Node1</title>
<g id="a_node1"><a xlink:title=" ">
<polygon fill="#bfbfbf" stroke="black" points="445,-161.5 445,-191.5 624,-191.5 624,-161.5 445,-161.5"/>
<text text-anchor="start" x="453" y="-179.5" font-family="Helvetica,sans-Serif" font-size="10.00">javolution.util.internal.set.sorted.</text>
<text text-anchor="middle" x="534.5" y="-168.5" font-family="Helvetica,sans-Serif" font-size="10.00">SortedSetView.target</text>
</a>
</g>
</g>
<!-- Node2 -->
<g id="node2" class="node">
<title>Node2</title>
<g id="a_node2"><a xlink:href="../../d6/de2/classjavolution_1_1util_1_1internal_1_1set_1_1sorted_1_1SubSortedSetImpl.html#a5cfb7c219d64f5a334b8c28615f52978" target="_top" xlink:title=" ">
<polygon fill="white" stroke="black" points="7.5,-304.5 7.5,-334.5 186.5,-334.5 186.5,-304.5 7.5,-304.5"/>
<text text-anchor="start" x="15.5" y="-322.5" font-family="Helvetica,sans-Serif" font-size="10.00">javolution.util.internal.set.sorted.</text>
<text text-anchor="middle" x="97" y="-311.5" font-family="Helvetica,sans-Serif" font-size="10.00">SubSortedSetImpl.add</text>
</a>
</g>
</g>
<!-- Node1&#45;&gt;Node2 -->
<g id="edge1" class="edge">
<title>Node1&#45;&gt;Node2</title>
<path fill="none" stroke="midnightblue" d="M515.55,-199.53C493.57,-225.83 453.71,-267.78 409,-287.5 338.73,-318.49 251.12,-325 186.82,-324.62"/>
<polygon fill="midnightblue" stroke="midnightblue" points="518.42,-201.54 522.04,-191.58 513,-197.11 518.42,-201.54"/>
</g>
<!-- Node3 -->
<g id="node3" class="node">
<title>Node3</title>
<g id="a_node3"><a xlink:href="../../d6/de2/classjavolution_1_1util_1_1internal_1_1set_1_1sorted_1_1SubSortedSetImpl.html#a1435c18ca04cf035389eda5d13fd86e0" target="_top" xlink:title=" ">
<polygon fill="white" stroke="black" points="230,-224.5 230,-254.5 409,-254.5 409,-224.5 230,-224.5"/>
<text text-anchor="start" x="238" y="-242.5" font-family="Helvetica,sans-Serif" font-size="10.00">javolution.util.internal.set.sorted.</text>
<text text-anchor="middle" x="319.5" y="-231.5" font-family="Helvetica,sans-Serif" font-size="10.00">SubSortedSetImpl.comparator</text>
</a>
</g>
</g>
<!-- Node1&#45;&gt;Node3 -->
<g id="edge2" class="edge">
<title>Node1&#45;&gt;Node3</title>
<path fill="none" stroke="midnightblue" d="M473.01,-194.39C440.86,-203.9 401.78,-215.46 371.23,-224.5"/>
<polygon fill="midnightblue" stroke="midnightblue" points="474.16,-197.7 482.75,-191.51 472.17,-190.99 474.16,-197.7"/>
</g>
<!-- Node4 -->
<g id="node4" class="node">
<title>Node4</title>
<g id="a_node4"><a xlink:href="../../d6/de2/classjavolution_1_1util_1_1internal_1_1set_1_1sorted_1_1SubSortedSetImpl.html#a0f2862035def53b2b10d41ea7b928043" target="_top" xlink:title=" ">
<polygon fill="white" stroke="black" points="7.5,-254.5 7.5,-284.5 186.5,-284.5 186.5,-254.5 7.5,-254.5"/>
<text text-anchor="start" x="15.5" y="-272.5" font-family="Helvetica,sans-Serif" font-size="10.00">javolution.util.internal.set.sorted.</text>
<text text-anchor="middle" x="97" y="-261.5" font-family="Helvetica,sans-Serif" font-size="10.00">SubSortedSetImpl.contains</text>
</a>
</g>
</g>
<!-- Node1&#45;&gt;Node4 -->
<g id="edge7" class="edge">
<title>Node1&#45;&gt;Node4</title>
<path fill="none" stroke="midnightblue" d="M510.69,-198.83C487.35,-220.02 448.93,-250.51 409,-263.5 336.85,-286.98 250.22,-286.49 186.73,-281.28"/>
<polygon fill="midnightblue" stroke="midnightblue" points="513.35,-201.13 518.3,-191.76 508.59,-196 513.35,-201.13"/>
</g>
<!-- Node5 -->
<g id="node5" class="node">
<title>Node5</title>
<g id="a_node5"><a xlink:href="../../d6/de2/classjavolution_1_1util_1_1internal_1_1set_1_1sorted_1_1SubSortedSetImpl.html#a07e8d11b6667ee91df8c576352d4783f" target="_top" xlink:title=" ">
<polygon fill="white" stroke="black" points="7.5,-203.5 7.5,-233.5 186.5,-233.5 186.5,-203.5 7.5,-203.5"/>
<text text-anchor="start" x="15.5" y="-221.5" font-family="Helvetica,sans-Serif" font-size="10.00">javolution.util.internal.set.sorted.</text>
<text text-anchor="middle" x="97" y="-210.5" font-family="Helvetica,sans-Serif" font-size="10.00">SubSortedSetImpl.remove</text>
</a>
</g>
</g>
<!-- Node1&#45;&gt;Node5 -->
<g id="edge10" class="edge">
<title>Node1&#45;&gt;Node5</title>
<path fill="none" stroke="midnightblue" d="M434.5,-186.05C359.88,-193.24 258.47,-203.02 186.53,-209.96"/>
<polygon fill="midnightblue" stroke="midnightblue" points="435.23,-189.49 444.85,-185.05 434.56,-182.53 435.23,-189.49"/>
</g>
<!-- Node6 -->
<g id="node6" class="node">
<title>Node6</title>
<g id="a_node6"><a xlink:href="../../d6/de2/classjavolution_1_1util_1_1internal_1_1set_1_1sorted_1_1SubSortedSetImpl.html#ae8d831877033f53a8893d4d7908a7c76" target="_top" xlink:title=" ">
<polygon fill="white" stroke="black" points="0,-150.5 0,-180.5 194,-180.5 194,-150.5 0,-150.5"/>
<text text-anchor="start" x="8" y="-168.5" font-family="Helvetica,sans-Serif" font-size="10.00">javolution.util.internal.set.sorted.</text>
<text text-anchor="middle" x="97" y="-157.5" font-family="Helvetica,sans-Serif" font-size="10.00">SubSortedSetImpl.SubSortedSetImpl</text>
</a>
</g>
</g>
<!-- Node1&#45;&gt;Node6 -->
<g id="edge12" class="edge">
<title>Node1&#45;&gt;Node6</title>
<path fill="none" stroke="midnightblue" d="M434.85,-174.01C362.77,-172.19 265.56,-169.73 194.09,-167.93"/>
<polygon fill="midnightblue" stroke="midnightblue" points="434.76,-177.51 444.85,-174.26 434.94,-170.51 434.76,-177.51"/>
</g>
<!-- Node7 -->
<g id="node7" class="node">
<title>Node7</title>
<g id="a_node7"><a xlink:href="../../d6/de2/classjavolution_1_1util_1_1internal_1_1set_1_1sorted_1_1SubSortedSetImpl.html#a57be6b3af58bc0f760bd26c1754f38e8" target="_top" xlink:title=" ">
<polygon fill="white" stroke="black" points="230,-98.5 230,-128.5 409,-128.5 409,-98.5 230,-98.5"/>
<text text-anchor="start" x="238" y="-116.5" font-family="Helvetica,sans-Serif" font-size="10.00">javolution.util.internal.set.sorted.</text>
<text text-anchor="middle" x="319.5" y="-105.5" font-family="Helvetica,sans-Serif" font-size="10.00">SubSortedSetImpl.first</text>
</a>
</g>
</g>
<!-- Node1&#45;&gt;Node7 -->
<g id="edge8" class="edge">
<title>Node1&#45;&gt;Node7</title>
<path fill="none" stroke="midnightblue" d="M473.01,-158.61C440.86,-149.1 401.78,-137.54 371.23,-128.5"/>
<polygon fill="midnightblue" stroke="midnightblue" points="472.17,-162.01 482.75,-161.49 474.16,-155.3 472.17,-162.01"/>
</g>
<!-- Node8 -->
<g id="node8" class="node">
<title>Node8</title>
<g id="a_node8"><a xlink:href="../../d6/de2/classjavolution_1_1util_1_1internal_1_1set_1_1sorted_1_1SubSortedSetImpl.html#ad91af69980db57604c11e9abd395e1f6" target="_top" xlink:title=" ">
<polygon fill="white" stroke="black" points="230,-49.5 230,-79.5 409,-79.5 409,-49.5 230,-49.5"/>
<text text-anchor="start" x="238" y="-67.5" font-family="Helvetica,sans-Serif" font-size="10.00">javolution.util.internal.set.sorted.</text>
<text text-anchor="middle" x="319.5" y="-56.5" font-family="Helvetica,sans-Serif" font-size="10.00">SubSortedSetImpl.last</text>
</a>
</g>
</g>
<!-- Node1&#45;&gt;Node8 -->
<g id="edge9" class="edge">
<title>Node1&#45;&gt;Node8</title>
<path fill="none" stroke="midnightblue" d="M508.29,-154.62C484.25,-134.79 446.27,-106.05 409,-88.5 401.8,-85.11 394.03,-82.13 386.2,-79.52"/>
<polygon fill="midnightblue" stroke="midnightblue" points="506.27,-157.5 516.19,-161.24 510.77,-152.13 506.27,-157.5"/>
</g>
<!-- Node9 -->
<g id="node9" class="node">
<title>Node9</title>
<g id="a_node9"><a xlink:href="../../dd/d26/classjavolution_1_1util_1_1internal_1_1set_1_1sorted_1_1SortedSetView.html#a3cb073c07b792c86d40e2630f1b69084" target="_top" xlink:title=" ">
<polygon fill="white" stroke="black" points="230,-0.5 230,-30.5 409,-30.5 409,-0.5 230,-0.5"/>
<text text-anchor="start" x="238" y="-18.5" font-family="Helvetica,sans-Serif" font-size="10.00">javolution.util.internal.set.sorted.</text>
<text text-anchor="middle" x="319.5" y="-7.5" font-family="Helvetica,sans-Serif" font-size="10.00">SortedSetView.SortedSetView</text>
</a>
</g>
</g>
<!-- Node1&#45;&gt;Node9 -->
<g id="edge11" class="edge">
<title>Node1&#45;&gt;Node9</title>
<path fill="none" stroke="midnightblue" d="M518.32,-152.72C497.42,-121.94 456.91,-68.81 409,-39.5 403.43,-36.09 397.38,-33.16 391.14,-30.64"/>
<polygon fill="midnightblue" stroke="midnightblue" points="515.46,-154.75 523.92,-161.13 521.29,-150.87 515.46,-154.75"/>
</g>
<!-- Node3&#45;&gt;Node2 -->
<g id="edge3" class="edge">
<title>Node3&#45;&gt;Node2</title>
<path fill="none" stroke="midnightblue" d="M278.91,-258.95C254.76,-270.32 223.06,-284.37 194,-294.5 183.67,-298.1 172.56,-301.45 161.69,-304.46"/>
<polygon fill="midnightblue" stroke="midnightblue" points="280.57,-262.04 288.1,-254.58 277.57,-255.71 280.57,-262.04"/>
</g>
<!-- Node3&#45;&gt;Node4 -->
<g id="edge4" class="edge">
<title>Node3&#45;&gt;Node4</title>
<path fill="none" stroke="midnightblue" d="M219.69,-252.94C208.65,-254.45 197.45,-255.97 186.55,-257.45"/>
<polygon fill="midnightblue" stroke="midnightblue" points="220.33,-256.39 229.77,-251.57 219.39,-249.45 220.33,-256.39"/>
</g>
<!-- Node3&#45;&gt;Node5 -->
<g id="edge5" class="edge">
<title>Node3&#45;&gt;Node5</title>
<path fill="none" stroke="midnightblue" d="M219.69,-230.09C208.65,-229.04 197.45,-227.97 186.55,-226.93"/>
<polygon fill="midnightblue" stroke="midnightblue" points="219.48,-233.59 229.77,-231.05 220.14,-226.62 219.48,-233.59"/>
</g>
<!-- Node3&#45;&gt;Node6 -->
<g id="edge6" class="edge">
<title>Node3&#45;&gt;Node6</title>
<path fill="none" stroke="midnightblue" d="M270.26,-220.78C247.29,-212.1 219.37,-201.87 194,-193.5 180.48,-189.04 165.77,-184.56 152.03,-180.54"/>
<polygon fill="midnightblue" stroke="midnightblue" points="269.18,-224.11 279.77,-224.39 271.67,-217.57 269.18,-224.11"/>
</g>
</g>
</svg>
        <g id="navigator" transform="translate(0 0)" fill="#404254">
                <rect fill="#f2f5e9" fill-opacity="0.5" stroke="#606060" stroke-width=".5" x="0" y="0" width="60" height="60"/>
                <use id="zoomplus" xlink:href="#zoomPlus" x="17" y="9" onmousedown="handleZoom(evt,'in')"/>
                <use id="zoomminus" xlink:href="#zoomMin" x="42" y="9" onmousedown="handleZoom(evt,'out')"/>
                <use id="reset" xlink:href="#resetDef" x="30" y="36" onmousedown="handleReset()"/>
                <g id="arrowUp" xlink:href="#dirArrow" transform="translate(30 24)" onmousedown="handlePan(0,-1)">
                  <use xlink:href="#rim" fill="#404040">
                        <set attributeName="fill" to="#808080" begin="arrowUp.mouseover" end="arrowUp.mouseout"/>
                  </use>
                  <path fill="none" stroke="white" stroke-width="1.5" d="M0,-3.0v7 M-2.5,-0.5L0,-3.0L2.5,-0.5"/>
                </g>
                <g id="arrowRight" xlink:href="#dirArrow" transform="rotate(90) translate(36 -43)" onmousedown="handlePan(1,0)">
                  <use xlink:href="#rim" fill="#404040">
                        <set attributeName="fill" to="#808080" begin="arrowRight.mouseover" end="arrowRight.mouseout"/>
                  </use>
                  <path fill="none" stroke="white" stroke-width="1.5" d="M0,-3.0v7 M-2.5,-0.5L0,-3.0L2.5,-0.5"/>
                </g>
                <g id="arrowDown" xlink:href="#dirArrow" transform="rotate(180) translate(-30 -48)" onmousedown="handlePan(0,1)">
                  <use xlink:href="#rim" fill="#404040">
                        <set attributeName="fill" to="#808080" begin="arrowDown.mouseover" end="arrowDown.mouseout"/>
                  </use>
                  <path fill="none" stroke="white" stroke-width="1.5" d="M0,-3.0v7 M-2.5,-0.5L0,-3.0L2.5,-0.5"/>
                </g>
                <g id="arrowLeft" xlink:href="#dirArrow" transform="rotate(270) translate(-36 17)" onmousedown="handlePan(-1,0)">
                  <use xlink:href="#rim" fill="#404040">
                        <set attributeName="fill" to="#808080" begin="arrowLeft.mouseover" end="arrowLeft.mouseout"/>
                  </use>
                  <path fill="none" stroke="white" stroke-width="1.5" d="M0,-3.0v7 M-2.5,-0.5L0,-3.0L2.5,-0.5"/>
                </g>
        </g>
        <svg viewBox="0 0 15 15" width="100%" height="30px" preserveAspectRatio="xMaxYMin meet">
         <g id="arrow_out" transform="scale(0.3 0.3)">
          <a xlink:href="classjavolution_1_1util_1_1internal_1_1set_1_1sorted_1_1SortedSetView_aac56cc04b391e29fb62f6c856bf2f6c5_icgraph_org.svg" target="_base">
           <rect id="button" ry="5" rx="5" y="6" x="6" height="38" width="38"
                fill="#f2f5e9" fill-opacity="0.5" stroke="#606060" stroke-width="1.0"/>
           <path id="arrow"
             d="M 11.500037,31.436501 C 11.940474,20.09759 22.043105,11.32322 32.158766,21.979434 L 37.068811,17.246167 C 37.068811,17.246167 37.088388,32 37.088388,32 L 22.160133,31.978069 C 22.160133,31.978069 26.997745,27.140456 26.997745,27.140456 C 18.528582,18.264221 13.291696,25.230495 11.500037,31.436501 z"
             style="fill:#404040;"/>
          </a>
         </g>
        </svg>
</svg>
