<?xml version="1.0" encoding="UTF-8" standalone="no"?>
<!DOCTYPE svg PUBLIC "-//W3C//DTD SVG 1.1//EN"
 "http://www.w3.org/Graphics/SVG/1.1/DTD/svg11.dtd">
<!-- Generated by graphviz version 2.43.0 (0)
 -->
<!-- Title: javolution.util.internal.table.TableView&lt; E &gt; Pages: 1 -->
<svg width="1302pt" height="246pt"
 viewBox="0.00 0.00 1302.00 246.00" xmlns="http://www.w3.org/2000/svg" xmlns:xlink="http://www.w3.org/1999/xlink">
<g id="graph0" class="graph" transform="scale(1 1) rotate(0) translate(4 242)">
<title>javolution.util.internal.table.TableView&lt; E &gt;</title>
<polygon fill="white" stroke="transparent" points="-4,4 -4,-242 1298,-242 1298,4 -4,4"/>
<!-- Node1 -->
<g id="node1" class="node">
<title>Node1</title>
<g id="a_node1"><a xlink:title=" ">
<polygon fill="#bfbfbf" stroke="black" points="680,-104 680,-134 835,-134 835,-104 680,-104"/>
<text text-anchor="start" x="688" y="-122" font-family="Helvetica,sans-Serif" font-size="10.00">javolution.util.internal.table.</text>
<text text-anchor="middle" x="757.5" y="-111" font-family="Helvetica,sans-Serif" font-size="10.00">TableView&lt; E &gt;</text>
</a>
</g>
</g>
<!-- Node13 -->
<g id="node13" class="node">
<title>Node13</title>
<g id="a_node13"><a xlink:href="../../d9/d7a/classjavolution_1_1util_1_1internal_1_1table_1_1FastTableImpl.html" target="_top" xlink:title=" ">
<polygon fill="white" stroke="black" points="896.5,-202 896.5,-232 1045.5,-232 1045.5,-202 896.5,-202"/>
<text text-anchor="start" x="904.5" y="-220" font-family="Helvetica,sans-Serif" font-size="10.00">javolution::util::internal</text>
<text text-anchor="middle" x="971" y="-209" font-family="Helvetica,sans-Serif" font-size="10.00">::table::FastTableImpl&lt; E &gt;</text>
</a>
</g>
</g>
<!-- Node1&#45;&gt;Node13 -->
<g id="edge15" class="edge">
<title>Node1&#45;&gt;Node13</title>
<path fill="none" stroke="midnightblue" d="M785.38,-140.53C807.26,-157.08 839.58,-179.35 871,-193 879.03,-196.49 887.65,-199.52 896.35,-202.15"/>
<polygon fill="midnightblue" stroke="midnightblue" points="787.3,-137.59 777.24,-134.27 783.04,-143.14 787.3,-137.59"/>
</g>
<!-- Node15 -->
<g id="node15" class="node">
<title>Node15</title>
<g id="a_node15"><a xlink:href="../../df/d83/classjavolution_1_1util_1_1internal_1_1table_1_1ReversedTableImpl.html" target="_top" xlink:title=" ">
<polygon fill="white" stroke="black" points="883.5,-153 883.5,-183 1058.5,-183 1058.5,-153 883.5,-153"/>
<text text-anchor="start" x="891.5" y="-171" font-family="Helvetica,sans-Serif" font-size="10.00">javolution::util::internal</text>
<text text-anchor="middle" x="971" y="-160" font-family="Helvetica,sans-Serif" font-size="10.00">::table::ReversedTableImpl&lt; E &gt;</text>
</a>
</g>
</g>
<!-- Node1&#45;&gt;Node15 -->
<g id="edge17" class="edge">
<title>Node1&#45;&gt;Node15</title>
<path fill="none" stroke="midnightblue" d="M833.31,-136.33C856.79,-141.77 882.5,-147.73 905.23,-152.99"/>
<polygon fill="midnightblue" stroke="midnightblue" points="833.93,-132.88 823.39,-134.03 832.35,-139.7 833.93,-132.88"/>
</g>
<!-- Node16 -->
<g id="node16" class="node">
<title>Node16</title>
<g id="a_node16"><a xlink:href="../../dc/d36/classjavolution_1_1util_1_1internal_1_1table_1_1sorted_1_1SortedTableView.html" target="_top" xlink:title=" ">
<polygon fill="white" stroke="black" points="871,-104 871,-134 1071,-134 1071,-104 871,-104"/>
<text text-anchor="start" x="879" y="-122" font-family="Helvetica,sans-Serif" font-size="10.00">javolution::util::internal</text>
<text text-anchor="middle" x="971" y="-111" font-family="Helvetica,sans-Serif" font-size="10.00">::table::sorted::SortedTableView&lt; E &gt;</text>
</a>
</g>
</g>
<!-- Node1&#45;&gt;Node16 -->
<g id="edge18" class="edge">
<title>Node1&#45;&gt;Node16</title>
<path fill="none" stroke="midnightblue" d="M845.31,-119C853.72,-119 862.29,-119 870.81,-119"/>
<polygon fill="midnightblue" stroke="midnightblue" points="845.16,-115.5 835.16,-119 845.16,-122.5 845.16,-115.5"/>
</g>
<!-- Node17 -->
<g id="node17" class="node">
<title>Node17</title>
<g id="a_node17"><a xlink:href="../../d4/d5c/classjavolution_1_1util_1_1internal_1_1table_1_1SubTableImpl.html" target="_top" xlink:title=" ">
<polygon fill="white" stroke="black" points="897.5,-55 897.5,-85 1044.5,-85 1044.5,-55 897.5,-55"/>
<text text-anchor="start" x="905.5" y="-73" font-family="Helvetica,sans-Serif" font-size="10.00">javolution::util::internal</text>
<text text-anchor="middle" x="971" y="-62" font-family="Helvetica,sans-Serif" font-size="10.00">::table::SubTableImpl&lt; E &gt;</text>
</a>
</g>
</g>
<!-- Node1&#45;&gt;Node17 -->
<g id="edge19" class="edge">
<title>Node1&#45;&gt;Node17</title>
<path fill="none" stroke="midnightblue" d="M833.31,-101.67C856.79,-96.23 882.5,-90.27 905.23,-85.01"/>
<polygon fill="midnightblue" stroke="midnightblue" points="832.35,-98.3 823.39,-103.97 833.93,-105.12 832.35,-98.3"/>
</g>
<!-- Node18 -->
<g id="node18" class="node">
<title>Node18</title>
<g id="a_node18"><a xlink:href="../../df/d33/classjavolution_1_1util_1_1internal_1_1table_1_1UnmodifiableTableImpl.html" target="_top" xlink:title=" ">
<polygon fill="white" stroke="black" points="874,-6 874,-36 1068,-36 1068,-6 874,-6"/>
<text text-anchor="start" x="882" y="-24" font-family="Helvetica,sans-Serif" font-size="10.00">javolution::util::internal</text>
<text text-anchor="middle" x="971" y="-13" font-family="Helvetica,sans-Serif" font-size="10.00">::table::UnmodifiableTableImpl&lt; E &gt;</text>
</a>
</g>
</g>
<!-- Node1&#45;&gt;Node18 -->
<g id="edge20" class="edge">
<title>Node1&#45;&gt;Node18</title>
<path fill="none" stroke="midnightblue" d="M785.38,-97.47C807.26,-80.92 839.58,-58.65 871,-45 878.87,-41.58 887.31,-38.6 895.82,-36.01"/>
<polygon fill="midnightblue" stroke="midnightblue" points="783.04,-94.86 777.24,-103.73 787.3,-100.41 783.04,-94.86"/>
</g>
<!-- Node2 -->
<g id="node2" class="node">
<title>Node2</title>
<g id="a_node2"><a xlink:href="../../d1/d40/classjavolution_1_1util_1_1internal_1_1collection_1_1CollectionView.html" target="_top" xlink:title=" ">
<polygon fill="white" stroke="black" points="467,-129 467,-159 644,-159 644,-129 467,-129"/>
<text text-anchor="start" x="475" y="-147" font-family="Helvetica,sans-Serif" font-size="10.00">javolution::util::internal</text>
<text text-anchor="middle" x="555.5" y="-136" font-family="Helvetica,sans-Serif" font-size="10.00">::collection::CollectionView&lt; E &gt;</text>
</a>
</g>
</g>
<!-- Node2&#45;&gt;Node1 -->
<g id="edge1" class="edge">
<title>Node2&#45;&gt;Node1</title>
<path fill="none" stroke="midnightblue" d="M654.27,-131.78C662.85,-130.71 671.45,-129.63 679.82,-128.58"/>
<polygon fill="midnightblue" stroke="midnightblue" points="653.71,-128.32 644.22,-133.03 654.58,-135.27 653.71,-128.32"/>
</g>
<!-- Node3 -->
<g id="node3" class="node">
<title>Node3</title>
<g id="a_node3"><a xlink:href="../../dc/d19/classjavolution_1_1util_1_1FastCollection.html" target="_top" xlink:title=" ">
<polygon fill="white" stroke="black" points="241,-176.5 241,-195.5 431,-195.5 431,-176.5 241,-176.5"/>
<text text-anchor="middle" x="336" y="-183.5" font-family="Helvetica,sans-Serif" font-size="10.00">javolution::util::FastCollection&lt; E &gt;</text>
</a>
</g>
</g>
<!-- Node3&#45;&gt;Node2 -->
<g id="edge2" class="edge">
<title>Node3&#45;&gt;Node2</title>
<path fill="none" stroke="midnightblue" d="M396.34,-174.54C421.13,-169.75 450.28,-164.12 476.76,-159.01"/>
<polygon fill="midnightblue" stroke="midnightblue" points="395.51,-171.14 386.35,-176.47 396.84,-178.01 395.51,-171.14"/>
</g>
<!-- Node4 -->
<g id="node4" class="node">
<title>Node4</title>
<g id="a_node4"><a xlink:title=" ">
<polygon fill="white" stroke="#bfbfbf" points="31,-195.5 31,-214.5 174,-214.5 174,-195.5 31,-195.5"/>
<text text-anchor="middle" x="102.5" y="-202.5" font-family="Helvetica,sans-Serif" font-size="10.00">java::util::Collection&lt; E &gt;</text>
</a>
</g>
</g>
<!-- Node4&#45;&gt;Node3 -->
<g id="edge3" class="edge">
<title>Node4&#45;&gt;Node3</title>
<path fill="none" stroke="midnightblue" d="M184.22,-198.37C202.5,-196.88 222.06,-195.27 240.83,-193.73"/>
<polygon fill="midnightblue" stroke="midnightblue" points="183.9,-194.89 174.22,-199.2 184.47,-201.87 183.9,-194.89"/>
</g>
<!-- Node6 -->
<g id="node6" class="node">
<title>Node6</title>
<g id="a_node6"><a xlink:href="../../dd/d6c/interfacejavolution_1_1util_1_1service_1_1CollectionService.html" target="_top" xlink:title=" ">
<polygon fill="white" stroke="black" points="268,-127 268,-157 404,-157 404,-127 268,-127"/>
<text text-anchor="start" x="276" y="-145" font-family="Helvetica,sans-Serif" font-size="10.00">javolution::util::service</text>
<text text-anchor="middle" x="336" y="-134" font-family="Helvetica,sans-Serif" font-size="10.00">::CollectionService&lt; E &gt;</text>
</a>
</g>
</g>
<!-- Node4&#45;&gt;Node6 -->
<g id="edge6" class="edge">
<title>Node4&#45;&gt;Node6</title>
<path fill="none" stroke="midnightblue" d="M180.24,-193.19C188.69,-191.14 197.09,-188.76 205,-186 222.08,-180.05 224.15,-173.59 241,-167 250.44,-163.31 260.61,-159.98 270.66,-157.03"/>
<polygon fill="midnightblue" stroke="midnightblue" points="179.29,-189.82 170.32,-195.46 180.84,-196.64 179.29,-189.82"/>
</g>
<!-- Node5 -->
<g id="node5" class="node">
<title>Node5</title>
<g id="a_node5"><a xlink:title=" ">
<polygon fill="white" stroke="#bfbfbf" points="65.5,-157.5 65.5,-176.5 139.5,-176.5 139.5,-157.5 65.5,-157.5"/>
<text text-anchor="middle" x="102.5" y="-164.5" font-family="Helvetica,sans-Serif" font-size="10.00">Serializable</text>
</a>
</g>
</g>
<!-- Node5&#45;&gt;Node3 -->
<g id="edge4" class="edge">
<title>Node5&#45;&gt;Node3</title>
<path fill="none" stroke="midnightblue" d="M149.66,-170.79C175.8,-172.93 209.47,-175.7 240.92,-178.28"/>
<polygon fill="midnightblue" stroke="midnightblue" points="149.92,-167.3 139.67,-169.97 149.35,-174.28 149.92,-167.3"/>
</g>
<!-- Node5&#45;&gt;Node6 -->
<g id="edge8" class="edge">
<title>Node5&#45;&gt;Node6</title>
<path fill="none" stroke="midnightblue" d="M149.74,-162.01C183.57,-158.35 229.98,-153.34 267.89,-149.25"/>
<polygon fill="midnightblue" stroke="midnightblue" points="149.24,-158.54 139.67,-163.09 149.99,-165.5 149.24,-158.54"/>
</g>
<!-- Node6&#45;&gt;Node2 -->
<g id="edge5" class="edge">
<title>Node6&#45;&gt;Node2</title>
<path fill="none" stroke="midnightblue" d="M414.44,-142.71C431.42,-142.87 449.51,-143.03 466.85,-143.19"/>
<polygon fill="midnightblue" stroke="midnightblue" points="414.06,-139.21 404.03,-142.62 414,-146.21 414.06,-139.21"/>
</g>
<!-- Node9 -->
<g id="node9" class="node">
<title>Node9</title>
<g id="a_node9"><a xlink:href="../../df/d88/interfacejavolution_1_1util_1_1service_1_1TableService.html" target="_top" xlink:title=" ">
<polygon fill="white" stroke="black" points="491.5,-80 491.5,-110 619.5,-110 619.5,-80 491.5,-80"/>
<text text-anchor="start" x="499.5" y="-98" font-family="Helvetica,sans-Serif" font-size="10.00">javolution::util::service</text>
<text text-anchor="middle" x="555.5" y="-87" font-family="Helvetica,sans-Serif" font-size="10.00">::TableService&lt; E &gt;</text>
</a>
</g>
</g>
<!-- Node6&#45;&gt;Node9 -->
<g id="edge11" class="edge">
<title>Node6&#45;&gt;Node9</title>
<path fill="none" stroke="midnightblue" d="M413.98,-125.37C439.33,-119.89 467.21,-113.86 491.4,-108.63"/>
<polygon fill="midnightblue" stroke="midnightblue" points="413.07,-121.98 404.03,-127.51 414.55,-128.82 413.07,-121.98"/>
</g>
<!-- Node7 -->
<g id="node7" class="node">
<title>Node7</title>
<g id="a_node7"><a xlink:href="../../dd/ded/interfacejavolution_1_1util_1_1function_1_1Splittable.html" target="_top" xlink:title=" ">
<polygon fill="white" stroke="black" points="0,-108 0,-138 205,-138 205,-108 0,-108"/>
<text text-anchor="start" x="8" y="-126" font-family="Helvetica,sans-Serif" font-size="10.00">javolution::util::function</text>
<text text-anchor="middle" x="102.5" y="-115" font-family="Helvetica,sans-Serif" font-size="10.00">::Splittable&lt; CollectionService&lt; E &gt; &gt;</text>
</a>
</g>
</g>
<!-- Node7&#45;&gt;Node6 -->
<g id="edge7" class="edge">
<title>Node7&#45;&gt;Node6</title>
<path fill="none" stroke="midnightblue" d="M215.04,-132.15C233.09,-133.64 251.28,-135.13 267.84,-136.49"/>
<polygon fill="midnightblue" stroke="midnightblue" points="215.29,-128.66 205.04,-131.33 214.72,-135.64 215.29,-128.66"/>
</g>
<!-- Node8 -->
<g id="node8" class="node">
<title>Node8</title>
<g id="a_node8"><a xlink:href="../../d5/d48/classCloneable.html" target="_top" xlink:title=" ">
<polygon fill="white" stroke="black" points="70,-69.5 70,-88.5 135,-88.5 135,-69.5 70,-69.5"/>
<text text-anchor="middle" x="102.5" y="-76.5" font-family="Helvetica,sans-Serif" font-size="10.00">Cloneable</text>
</a>
</g>
</g>
<!-- Node8&#45;&gt;Node6 -->
<g id="edge9" class="edge">
<title>Node8&#45;&gt;Node6</title>
<path fill="none" stroke="midnightblue" d="M145.19,-83.92C163.83,-86.85 185.86,-91.33 205,-98 222.08,-103.95 224.15,-110.41 241,-117 250.44,-120.69 260.61,-124.02 270.66,-126.97"/>
<polygon fill="midnightblue" stroke="midnightblue" points="145.63,-80.44 135.23,-82.45 144.61,-87.37 145.63,-80.44"/>
</g>
<!-- Node9&#45;&gt;Node1 -->
<g id="edge10" class="edge">
<title>Node9&#45;&gt;Node1</title>
<path fill="none" stroke="midnightblue" d="M629.54,-103.76C645.88,-105.73 663.27,-107.81 679.77,-109.79"/>
<polygon fill="midnightblue" stroke="midnightblue" points="629.85,-100.28 619.51,-102.56 629.02,-107.23 629.85,-100.28"/>
</g>
<!-- Node10 -->
<g id="node10" class="node">
<title>Node10</title>
<g id="a_node10"><a xlink:title=" ">
<polygon fill="white" stroke="#bfbfbf" points="280.5,-88.5 280.5,-107.5 391.5,-107.5 391.5,-88.5 280.5,-88.5"/>
<text text-anchor="middle" x="336" y="-95.5" font-family="Helvetica,sans-Serif" font-size="10.00">java::util::List&lt; E &gt;</text>
</a>
</g>
</g>
<!-- Node10&#45;&gt;Node9 -->
<g id="edge12" class="edge">
<title>Node10&#45;&gt;Node9</title>
<path fill="none" stroke="midnightblue" d="M401.81,-97.11C430.14,-96.72 463.25,-96.26 491.39,-95.87"/>
<polygon fill="midnightblue" stroke="midnightblue" points="401.55,-93.61 391.6,-97.25 401.65,-100.61 401.55,-93.61"/>
</g>
<!-- Node11 -->
<g id="node11" class="node">
<title>Node11</title>
<g id="a_node11"><a xlink:title=" ">
<polygon fill="white" stroke="#bfbfbf" points="273.5,-50.5 273.5,-69.5 398.5,-69.5 398.5,-50.5 273.5,-50.5"/>
<text text-anchor="middle" x="336" y="-57.5" font-family="Helvetica,sans-Serif" font-size="10.00">java::util::Deque&lt; E &gt;</text>
</a>
</g>
</g>
<!-- Node11&#45;&gt;Node9 -->
<g id="edge13" class="edge">
<title>Node11&#45;&gt;Node9</title>
<path fill="none" stroke="midnightblue" d="M406.37,-71.16C433.58,-75.54 464.58,-80.53 491.18,-84.81"/>
<polygon fill="midnightblue" stroke="midnightblue" points="406.57,-67.65 396.15,-69.52 405.46,-74.56 406.57,-67.65"/>
</g>
<!-- Node12 -->
<g id="node12" class="node">
<title>Node12</title>
<g id="a_node12"><a xlink:title=" ">
<polygon fill="white" stroke="#bfbfbf" points="290.5,-12.5 290.5,-31.5 381.5,-31.5 381.5,-12.5 290.5,-12.5"/>
<text text-anchor="middle" x="336" y="-19.5" font-family="Helvetica,sans-Serif" font-size="10.00">RandomAccess</text>
</a>
</g>
</g>
<!-- Node12&#45;&gt;Node9 -->
<g id="edge14" class="edge">
<title>Node12&#45;&gt;Node9</title>
<path fill="none" stroke="midnightblue" d="M392.12,-31.1C405.01,-33.79 418.6,-37.08 431,-41 464.03,-51.43 500.14,-67.85 524.74,-79.84"/>
<polygon fill="midnightblue" stroke="midnightblue" points="392.46,-27.6 381.96,-29.07 391.09,-34.46 392.46,-27.6"/>
</g>
<!-- Node14 -->
<g id="node14" class="node">
<title>Node14</title>
<g id="a_node14"><a xlink:href="../../d4/d6c/classjavolution_1_1util_1_1internal_1_1table_1_1sorted_1_1FastSortedTableImpl.html" target="_top" xlink:title=" ">
<polygon fill="white" stroke="black" points="1117,-196.5 1117,-237.5 1284,-237.5 1284,-196.5 1117,-196.5"/>
<text text-anchor="start" x="1125" y="-225.5" font-family="Helvetica,sans-Serif" font-size="10.00">javolution::util::internal</text>
<text text-anchor="start" x="1125" y="-214.5" font-family="Helvetica,sans-Serif" font-size="10.00">::table::sorted::FastSortedTable</text>
<text text-anchor="middle" x="1200.5" y="-203.5" font-family="Helvetica,sans-Serif" font-size="10.00">Impl&lt; E &gt;</text>
</a>
</g>
</g>
<!-- Node13&#45;&gt;Node14 -->
<g id="edge16" class="edge">
<title>Node13&#45;&gt;Node14</title>
<path fill="none" stroke="midnightblue" d="M1055.81,-217C1075.7,-217 1096.9,-217 1116.74,-217"/>
<polygon fill="midnightblue" stroke="midnightblue" points="1055.55,-213.5 1045.55,-217 1055.55,-220.5 1055.55,-213.5"/>
</g>
<!-- Node19 -->
<g id="node19" class="node">
<title>Node19</title>
<g id="a_node19"><a xlink:href="../../d3/dad/classjavolution_1_1util_1_1internal_1_1table_1_1sorted_1_1UnmodifiableSortedTableImpl.html" target="_top" xlink:title=" ">
<polygon fill="white" stroke="black" points="1107,-0.5 1107,-41.5 1294,-41.5 1294,-0.5 1107,-0.5"/>
<text text-anchor="start" x="1115" y="-29.5" font-family="Helvetica,sans-Serif" font-size="10.00">javolution::util::internal</text>
<text text-anchor="start" x="1115" y="-18.5" font-family="Helvetica,sans-Serif" font-size="10.00">::table::sorted::UnmodifiableSorted</text>
<text text-anchor="middle" x="1200.5" y="-7.5" font-family="Helvetica,sans-Serif" font-size="10.00">TableImpl&lt; E &gt;</text>
</a>
</g>
</g>
<!-- Node18&#45;&gt;Node19 -->
<g id="edge21" class="edge">
<title>Node18&#45;&gt;Node19</title>
<path fill="none" stroke="midnightblue" d="M1078.45,-21C1087.97,-21 1097.56,-21 1106.96,-21"/>
<polygon fill="midnightblue" stroke="midnightblue" points="1078.15,-17.5 1068.15,-21 1078.15,-24.5 1078.15,-17.5"/>
</g>
</g>
</svg>
