<?xml version="1.0" encoding="UTF-8" standalone="no"?>
<!DOCTYPE svg PUBLIC "-//W3C//DTD SVG 1.1//EN"
 "http://www.w3.org/Graphics/SVG/1.1/DTD/svg11.dtd">
<!-- Generated by graphviz version 2.43.0 (0)
 -->
<!-- Title: javolution.util.FastCollection.Format.format Pages: 1 -->
<svg width="802pt" height="113pt"
 viewBox="0.00 0.00 802.00 113.00" xmlns="http://www.w3.org/2000/svg" xmlns:xlink="http://www.w3.org/1999/xlink">
<g id="graph0" class="graph" transform="scale(1 1) rotate(0) translate(4 109)">
<title>javolution.util.FastCollection.Format.format</title>
<polygon fill="white" stroke="transparent" points="-4,4 -4,-109 798,-109 798,4 -4,4"/>
<!-- Node1 -->
<g id="node1" class="node">
<title>Node1</title>
<g id="a_node1"><a xlink:title=" ">
<polygon fill="#bfbfbf" stroke="black" points="0,-46.5 0,-76.5 158,-76.5 158,-46.5 0,-46.5"/>
<text text-anchor="start" x="8" y="-64.5" font-family="Helvetica,sans-Serif" font-size="10.00">javolution.util.FastCollection.</text>
<text text-anchor="middle" x="79" y="-53.5" font-family="Helvetica,sans-Serif" font-size="10.00">Format.format</text>
</a>
</g>
</g>
<!-- Node2 -->
<g id="node2" class="node">
<title>Node2</title>
<g id="a_node2"><a xlink:href="../../d3/d4f/classjavolution_1_1text_1_1TextFormat.html#a376516ed40cc6f144c9d5f17c180a762" target="_top" xlink:title=" ">
<polygon fill="white" stroke="black" points="194,-74 194,-93 376,-93 376,-74 194,-74"/>
<text text-anchor="middle" x="285" y="-81" font-family="Helvetica,sans-Serif" font-size="10.00">javolution.text.TextFormat.format</text>
</a>
</g>
</g>
<!-- Node1&#45;&gt;Node2 -->
<g id="edge1" class="edge">
<title>Node1&#45;&gt;Node2</title>
<path fill="none" stroke="midnightblue" d="M158.29,-69.94C167.28,-70.91 176.54,-71.91 185.75,-72.9"/>
<polygon fill="midnightblue" stroke="midnightblue" points="185.4,-76.39 195.72,-73.98 186.15,-69.43 185.4,-76.39"/>
</g>
<!-- Node3 -->
<g id="node3" class="node">
<title>Node3</title>
<g id="a_node3"><a xlink:href="../../de/d60/classjavolution_1_1text_1_1TextContext.html#aa84f4f13ceb88b9aadd66a8caec6b333" target="_top" xlink:title=" ">
<polygon fill="white" stroke="black" points="201,-24.5 201,-54.5 369,-54.5 369,-24.5 201,-24.5"/>
<text text-anchor="start" x="209" y="-42.5" font-family="Helvetica,sans-Serif" font-size="10.00">javolution.text.TextContext.get</text>
<text text-anchor="middle" x="285" y="-31.5" font-family="Helvetica,sans-Serif" font-size="10.00">Format</text>
</a>
</g>
</g>
<!-- Node1&#45;&gt;Node3 -->
<g id="edge2" class="edge">
<title>Node1&#45;&gt;Node3</title>
<path fill="none" stroke="midnightblue" d="M158.29,-53.06C168.96,-51.91 179.99,-50.72 190.89,-49.54"/>
<polygon fill="midnightblue" stroke="midnightblue" points="191.27,-53.02 200.84,-48.47 190.52,-46.06 191.27,-53.02"/>
</g>
<!-- Node4 -->
<g id="node4" class="node">
<title>Node4</title>
<g id="a_node4"><a xlink:href="../../de/d60/classjavolution_1_1text_1_1TextContext.html#aca9706d5c011b67755b1e162a5858d61" target="_top" xlink:title=" ">
<polygon fill="white" stroke="black" points="412,-49.5 412,-79.5 599,-79.5 599,-49.5 412,-49.5"/>
<text text-anchor="start" x="420" y="-67.5" font-family="Helvetica,sans-Serif" font-size="10.00">javolution.text.TextContext.current</text>
<text text-anchor="middle" x="505.5" y="-56.5" font-family="Helvetica,sans-Serif" font-size="10.00">TextContext</text>
</a>
</g>
</g>
<!-- Node3&#45;&gt;Node4 -->
<g id="edge3" class="edge">
<title>Node3&#45;&gt;Node4</title>
<path fill="none" stroke="midnightblue" d="M369.23,-49.02C379.85,-50.24 390.81,-51.49 401.7,-52.74"/>
<polygon fill="midnightblue" stroke="midnightblue" points="401.32,-56.22 411.65,-53.88 402.11,-49.26 401.32,-56.22"/>
</g>
<!-- Node7 -->
<g id="node7" class="node">
<title>Node7</title>
<g id="a_node7"><a xlink:href="../../de/d60/classjavolution_1_1text_1_1TextContext.html#aa42396fe47eb1c99f793a6c5339c5fe6" target="_top" xlink:title=" ">
<polygon fill="white" stroke="black" points="413,-0.5 413,-30.5 598,-30.5 598,-0.5 413,-0.5"/>
<text text-anchor="start" x="421" y="-18.5" font-family="Helvetica,sans-Serif" font-size="10.00">javolution.text.TextContext.search</text>
<text text-anchor="middle" x="505.5" y="-7.5" font-family="Helvetica,sans-Serif" font-size="10.00">Format</text>
</a>
</g>
</g>
<!-- Node3&#45;&gt;Node7 -->
<g id="edge6" class="edge">
<title>Node3&#45;&gt;Node7</title>
<path fill="none" stroke="midnightblue" d="M369.23,-30.36C380.12,-29.16 391.39,-27.92 402.55,-26.7"/>
<polygon fill="midnightblue" stroke="midnightblue" points="403.2,-30.15 412.75,-25.58 402.43,-23.19 403.2,-30.15"/>
</g>
<!-- Node5 -->
<g id="node5" class="node">
<title>Node5</title>
<g id="a_node5"><a xlink:href="../../d3/d0f/classjavolution_1_1context_1_1AbstractContext.html#a39804b0188cf822819d88f43715deaba" target="_top" xlink:title=" ">
<polygon fill="white" stroke="black" points="640,-74.5 640,-104.5 789,-104.5 789,-74.5 640,-74.5"/>
<text text-anchor="start" x="648" y="-92.5" font-family="Helvetica,sans-Serif" font-size="10.00">javolution.context.Abstract</text>
<text text-anchor="middle" x="714.5" y="-81.5" font-family="Helvetica,sans-Serif" font-size="10.00">Context.current</text>
</a>
</g>
</g>
<!-- Node4&#45;&gt;Node5 -->
<g id="edge4" class="edge">
<title>Node4&#45;&gt;Node5</title>
<path fill="none" stroke="midnightblue" d="M599.1,-75.68C609.36,-76.92 619.75,-78.18 629.89,-79.4"/>
<polygon fill="midnightblue" stroke="midnightblue" points="629.57,-82.89 639.92,-80.61 630.41,-75.94 629.57,-82.89"/>
</g>
<!-- Node6 -->
<g id="node6" class="node">
<title>Node6</title>
<g id="a_node6"><a xlink:href="../../d8/d20/classjavolution_1_1osgi_1_1internal_1_1OSGiServices.html#a31df875a20f78682380317e651cdaf47" target="_top" xlink:title=" ">
<polygon fill="white" stroke="black" points="635,-25.5 635,-55.5 794,-55.5 794,-25.5 635,-25.5"/>
<text text-anchor="start" x="643" y="-43.5" font-family="Helvetica,sans-Serif" font-size="10.00">javolution.osgi.internal.</text>
<text text-anchor="middle" x="714.5" y="-32.5" font-family="Helvetica,sans-Serif" font-size="10.00">OSGiServices.getTextContext</text>
</a>
</g>
</g>
<!-- Node4&#45;&gt;Node6 -->
<g id="edge5" class="edge">
<title>Node4&#45;&gt;Node6</title>
<path fill="none" stroke="midnightblue" d="M599.1,-53.76C607.69,-52.77 616.38,-51.76 624.93,-50.77"/>
<polygon fill="midnightblue" stroke="midnightblue" points="625.36,-54.24 634.89,-49.61 624.55,-47.29 625.36,-54.24"/>
</g>
</g>
</svg>
