<?xml version="1.0" encoding="UTF-8" standalone="no"?>
<!DOCTYPE svg PUBLIC "-//W3C//DTD SVG 1.1//EN"
 "http://www.w3.org/Graphics/SVG/1.1/DTD/svg11.dtd">
<!-- Generated by graphviz version 2.43.0 (0)
 -->
<!-- Title: javolution.io.Struct.Member Pages: 1 -->
<svg width="369pt" height="765pt"
 viewBox="0.00 0.00 369.00 765.00" xmlns="http://www.w3.org/2000/svg" xmlns:xlink="http://www.w3.org/1999/xlink">
<g id="graph0" class="graph" transform="scale(1 1) rotate(0) translate(4 761)">
<title>javolution.io.Struct.Member</title>
<polygon fill="white" stroke="transparent" points="-4,4 -4,-761 365,-761 365,4 -4,4"/>
<!-- Node1 -->
<g id="node1" class="node">
<title>Node1</title>
<g id="a_node1"><a xlink:title=" ">
<polygon fill="#bfbfbf" stroke="black" points="0,-346 0,-365 152,-365 152,-346 0,-346"/>
<text text-anchor="middle" x="76" y="-353" font-family="Helvetica,sans-Serif" font-size="10.00">javolution.io.Struct.Member</text>
</a>
</g>
</g>
<!-- Node2 -->
<g id="node2" class="node">
<title>Node2</title>
<g id="a_node2"><a xlink:href="../../d7/d70/classjavolution_1_1io_1_1Struct_1_1BitField.html" target="_top" xlink:title=" ">
<polygon fill="white" stroke="black" points="212,-726.5 212,-756.5 337,-756.5 337,-726.5 212,-726.5"/>
<text text-anchor="start" x="220" y="-744.5" font-family="Helvetica,sans-Serif" font-size="10.00">javolution.io.Struct.Bit</text>
<text text-anchor="middle" x="274.5" y="-733.5" font-family="Helvetica,sans-Serif" font-size="10.00">Field</text>
</a>
</g>
</g>
<!-- Node1&#45;&gt;Node2 -->
<g id="edge1" class="edge">
<title>Node1&#45;&gt;Node2</title>
<path fill="none" stroke="midnightblue" d="M76.94,-375.31C77.87,-435.64 89.1,-618.96 188,-716.5 194.72,-723.12 203.09,-728.01 211.94,-731.61"/>
<polygon fill="midnightblue" stroke="midnightblue" points="80.44,-375.2 76.87,-365.23 73.44,-375.26 80.44,-375.2"/>
</g>
<!-- Node3 -->
<g id="node3" class="node">
<title>Node3</title>
<g id="a_node3"><a xlink:href="../../db/db9/classjavolution_1_1io_1_1Struct_1_1Bool.html" target="_top" xlink:title=" ">
<polygon fill="white" stroke="black" points="207.5,-688 207.5,-707 341.5,-707 341.5,-688 207.5,-688"/>
<text text-anchor="middle" x="274.5" y="-695" font-family="Helvetica,sans-Serif" font-size="10.00">javolution.io.Struct.Bool</text>
</a>
</g>
</g>
<!-- Node1&#45;&gt;Node3 -->
<g id="edge2" class="edge">
<title>Node1&#45;&gt;Node3</title>
<path fill="none" stroke="midnightblue" d="M77.49,-375.36C80,-432.02 95.34,-595.71 188,-678.5 193.56,-683.46 200.12,-687.22 207.1,-690.06"/>
<polygon fill="midnightblue" stroke="midnightblue" points="80.98,-375.1 77.13,-365.23 73.98,-375.35 80.98,-375.1"/>
</g>
<!-- Node4 -->
<g id="node4" class="node">
<title>Node4</title>
<g id="a_node4"><a xlink:href="../../d3/dca/classjavolution_1_1io_1_1Struct_1_1Enum16.html" target="_top" xlink:title=" ">
<polygon fill="white" stroke="black" points="198.5,-638.5 198.5,-668.5 350.5,-668.5 350.5,-638.5 198.5,-638.5"/>
<text text-anchor="start" x="206.5" y="-656.5" font-family="Helvetica,sans-Serif" font-size="10.00">javolution.io.Struct.Enum16</text>
<text text-anchor="middle" x="274.5" y="-645.5" font-family="Helvetica,sans-Serif" font-size="10.00">&lt; T extends Enum&lt; T &gt;</text>
</a>
</g>
</g>
<!-- Node1&#45;&gt;Node4 -->
<g id="edge3" class="edge">
<title>Node1&#45;&gt;Node4</title>
<path fill="none" stroke="midnightblue" d="M79.12,-375.42C85.57,-425.81 109.57,-559.34 188,-629.5 191.79,-632.89 196.03,-635.81 200.53,-638.32"/>
<polygon fill="midnightblue" stroke="midnightblue" points="82.57,-374.74 77.92,-365.22 75.61,-375.57 82.57,-374.74"/>
</g>
<!-- Node5 -->
<g id="node5" class="node">
<title>Node5</title>
<g id="a_node5"><a xlink:href="../../db/d49/classjavolution_1_1io_1_1Struct_1_1Enum32.html" target="_top" xlink:title=" ">
<polygon fill="white" stroke="black" points="198.5,-589.5 198.5,-619.5 350.5,-619.5 350.5,-589.5 198.5,-589.5"/>
<text text-anchor="start" x="206.5" y="-607.5" font-family="Helvetica,sans-Serif" font-size="10.00">javolution.io.Struct.Enum32</text>
<text text-anchor="middle" x="274.5" y="-596.5" font-family="Helvetica,sans-Serif" font-size="10.00">&lt; T extends Enum&lt; T &gt;</text>
</a>
</g>
</g>
<!-- Node1&#45;&gt;Node5 -->
<g id="edge4" class="edge">
<title>Node1&#45;&gt;Node5</title>
<path fill="none" stroke="midnightblue" d="M81.05,-375.35C91.04,-419.22 121.11,-524.95 188,-580.5 192.15,-583.95 196.77,-586.9 201.64,-589.43"/>
<polygon fill="midnightblue" stroke="midnightblue" points="84.42,-374.4 78.88,-365.37 77.58,-375.89 84.42,-374.4"/>
</g>
<!-- Node6 -->
<g id="node6" class="node">
<title>Node6</title>
<g id="a_node6"><a xlink:href="../../d6/d40/classjavolution_1_1io_1_1Struct_1_1Enum64.html" target="_top" xlink:title=" ">
<polygon fill="white" stroke="black" points="198.5,-540.5 198.5,-570.5 350.5,-570.5 350.5,-540.5 198.5,-540.5"/>
<text text-anchor="start" x="206.5" y="-558.5" font-family="Helvetica,sans-Serif" font-size="10.00">javolution.io.Struct.Enum64</text>
<text text-anchor="middle" x="274.5" y="-547.5" font-family="Helvetica,sans-Serif" font-size="10.00">&lt; T extends Enum&lt; T &gt;</text>
</a>
</g>
</g>
<!-- Node1&#45;&gt;Node6 -->
<g id="edge5" class="edge">
<title>Node1&#45;&gt;Node6</title>
<path fill="none" stroke="midnightblue" d="M83.71,-374.68C97.42,-410.99 132.13,-489.82 188,-531.5 192.57,-534.91 197.61,-537.84 202.88,-540.35"/>
<polygon fill="midnightblue" stroke="midnightblue" points="86.99,-373.44 80.27,-365.25 80.41,-375.85 86.99,-373.44"/>
</g>
<!-- Node7 -->
<g id="node7" class="node">
<title>Node7</title>
<g id="a_node7"><a xlink:href="../../d6/d14/classjavolution_1_1io_1_1Struct_1_1Enum8.html" target="_top" xlink:title=" ">
<polygon fill="white" stroke="black" points="201.5,-491.5 201.5,-521.5 347.5,-521.5 347.5,-491.5 201.5,-491.5"/>
<text text-anchor="start" x="209.5" y="-509.5" font-family="Helvetica,sans-Serif" font-size="10.00">javolution.io.Struct.Enum8</text>
<text text-anchor="middle" x="274.5" y="-498.5" font-family="Helvetica,sans-Serif" font-size="10.00">&lt; T extends Enum&lt; T &gt;</text>
</a>
</g>
</g>
<!-- Node1&#45;&gt;Node7 -->
<g id="edge6" class="edge">
<title>Node1&#45;&gt;Node7</title>
<path fill="none" stroke="midnightblue" d="M88.1,-373.64C105.82,-401.08 143.11,-452.95 188,-481.5 194,-485.32 200.61,-488.57 207.41,-491.34"/>
<polygon fill="midnightblue" stroke="midnightblue" points="90.96,-371.62 82.67,-365.03 85.04,-375.36 90.96,-371.62"/>
</g>
<!-- Node8 -->
<g id="node8" class="node">
<title>Node8</title>
<g id="a_node8"><a xlink:href="../../d0/d46/classjavolution_1_1io_1_1Struct_1_1Float32.html" target="_top" xlink:title=" ">
<polygon fill="white" stroke="black" points="200,-453 200,-472 349,-472 349,-453 200,-453"/>
<text text-anchor="middle" x="274.5" y="-460" font-family="Helvetica,sans-Serif" font-size="10.00">javolution.io.Struct.Float32</text>
</a>
</g>
</g>
<!-- Node1&#45;&gt;Node8 -->
<g id="edge7" class="edge">
<title>Node1&#45;&gt;Node8</title>
<path fill="none" stroke="midnightblue" d="M93.25,-372.4C113.53,-392.47 150.17,-425.48 188,-443.5 196.1,-447.36 205.01,-450.45 213.92,-452.92"/>
<polygon fill="midnightblue" stroke="midnightblue" points="95.6,-369.8 86.07,-365.16 90.63,-374.72 95.6,-369.8"/>
</g>
<!-- Node9 -->
<g id="node9" class="node">
<title>Node9</title>
<g id="a_node9"><a xlink:href="../../da/dc9/classjavolution_1_1io_1_1Struct_1_1Float64.html" target="_top" xlink:title=" ">
<polygon fill="white" stroke="black" points="200,-415 200,-434 349,-434 349,-415 200,-415"/>
<text text-anchor="middle" x="274.5" y="-422" font-family="Helvetica,sans-Serif" font-size="10.00">javolution.io.Struct.Float64</text>
</a>
</g>
</g>
<!-- Node1&#45;&gt;Node9 -->
<g id="edge8" class="edge">
<title>Node1&#45;&gt;Node9</title>
<path fill="none" stroke="midnightblue" d="M104.5,-369.79C126.58,-380.8 158.65,-395.74 188,-405.5 198.97,-409.15 210.96,-412.3 222.4,-414.94"/>
<polygon fill="midnightblue" stroke="midnightblue" points="105.89,-366.58 95.39,-365.19 102.74,-372.82 105.89,-366.58"/>
</g>
<!-- Node10 -->
<g id="node10" class="node">
<title>Node10</title>
<g id="a_node10"><a xlink:href="../../d3/dd9/classjavolution_1_1io_1_1Struct_1_1Reference32.html" target="_top" xlink:title=" ">
<polygon fill="white" stroke="black" points="188,-365.5 188,-395.5 361,-395.5 361,-365.5 188,-365.5"/>
<text text-anchor="start" x="196" y="-383.5" font-family="Helvetica,sans-Serif" font-size="10.00">javolution.io.Struct.Reference32</text>
<text text-anchor="middle" x="274.5" y="-372.5" font-family="Helvetica,sans-Serif" font-size="10.00">&lt; S extends Struct &gt;</text>
</a>
</g>
</g>
<!-- Node1&#45;&gt;Node10 -->
<g id="edge9" class="edge">
<title>Node1&#45;&gt;Node10</title>
<path fill="none" stroke="midnightblue" d="M161.83,-366.29C170.4,-367.38 179.1,-368.49 187.68,-369.58"/>
<polygon fill="midnightblue" stroke="midnightblue" points="162.21,-362.81 151.85,-365.02 161.33,-369.76 162.21,-362.81"/>
</g>
<!-- Node11 -->
<g id="node11" class="node">
<title>Node11</title>
<g id="a_node11"><a xlink:href="../../df/d25/classjavolution_1_1io_1_1Struct_1_1Reference64.html" target="_top" xlink:title=" ">
<polygon fill="white" stroke="black" points="188,-316.5 188,-346.5 361,-346.5 361,-316.5 188,-316.5"/>
<text text-anchor="start" x="196" y="-334.5" font-family="Helvetica,sans-Serif" font-size="10.00">javolution.io.Struct.Reference64</text>
<text text-anchor="middle" x="274.5" y="-323.5" font-family="Helvetica,sans-Serif" font-size="10.00">&lt; S extends Struct &gt;</text>
</a>
</g>
</g>
<!-- Node1&#45;&gt;Node11 -->
<g id="edge10" class="edge">
<title>Node1&#45;&gt;Node11</title>
<path fill="none" stroke="midnightblue" d="M162.1,-345.11C170.65,-344.06 179.35,-343 187.91,-341.95"/>
<polygon fill="midnightblue" stroke="midnightblue" points="161.63,-341.64 152.13,-346.32 162.48,-348.59 161.63,-341.64"/>
</g>
<!-- Node12 -->
<g id="node12" class="node">
<title>Node12</title>
<g id="a_node12"><a xlink:href="../../d5/d1a/classjavolution_1_1io_1_1Struct_1_1Signed16.html" target="_top" xlink:title=" ">
<polygon fill="white" stroke="black" points="196,-278 196,-297 353,-297 353,-278 196,-278"/>
<text text-anchor="middle" x="274.5" y="-285" font-family="Helvetica,sans-Serif" font-size="10.00">javolution.io.Struct.Signed16</text>
</a>
</g>
</g>
<!-- Node1&#45;&gt;Node12 -->
<g id="edge11" class="edge">
<title>Node1&#45;&gt;Node12</title>
<path fill="none" stroke="midnightblue" d="M105.39,-341.55C127.5,-331.1 159.17,-317.02 188,-307.5 200.16,-303.48 213.54,-299.95 226.04,-297.02"/>
<polygon fill="midnightblue" stroke="midnightblue" points="103.75,-338.45 96.24,-345.93 106.77,-344.77 103.75,-338.45"/>
</g>
<!-- Node13 -->
<g id="node13" class="node">
<title>Node13</title>
<g id="a_node13"><a xlink:href="../../d1/df8/classjavolution_1_1io_1_1Struct_1_1Signed32.html" target="_top" xlink:title=" ">
<polygon fill="white" stroke="black" points="196,-240 196,-259 353,-259 353,-240 196,-240"/>
<text text-anchor="middle" x="274.5" y="-247" font-family="Helvetica,sans-Serif" font-size="10.00">javolution.io.Struct.Signed32</text>
</a>
</g>
</g>
<!-- Node1&#45;&gt;Node13 -->
<g id="edge12" class="edge">
<title>Node1&#45;&gt;Node13</title>
<path fill="none" stroke="midnightblue" d="M93.29,-338.8C113.6,-318.97 150.29,-286.33 188,-268.5 196.11,-264.66 205.02,-261.59 213.94,-259.12"/>
<polygon fill="midnightblue" stroke="midnightblue" points="90.72,-336.42 86.1,-345.96 95.65,-341.38 90.72,-336.42"/>
</g>
<!-- Node14 -->
<g id="node14" class="node">
<title>Node14</title>
<g id="a_node14"><a xlink:href="../../d0/d8b/classjavolution_1_1io_1_1Struct_1_1Signed64.html" target="_top" xlink:title=" ">
<polygon fill="white" stroke="black" points="196,-202 196,-221 353,-221 353,-202 196,-202"/>
<text text-anchor="middle" x="274.5" y="-209" font-family="Helvetica,sans-Serif" font-size="10.00">javolution.io.Struct.Signed64</text>
</a>
</g>
</g>
<!-- Node1&#45;&gt;Node14 -->
<g id="edge13" class="edge">
<title>Node1&#45;&gt;Node14</title>
<path fill="none" stroke="midnightblue" d="M87.91,-337.14C105.38,-309.44 142.35,-257.35 188,-230.5 194.55,-226.65 201.81,-223.57 209.24,-221.12"/>
<polygon fill="midnightblue" stroke="midnightblue" points="84.82,-335.49 82.56,-345.84 90.78,-339.15 84.82,-335.49"/>
</g>
<!-- Node15 -->
<g id="node15" class="node">
<title>Node15</title>
<g id="a_node15"><a xlink:href="../../df/d82/classjavolution_1_1io_1_1Struct_1_1Signed8.html" target="_top" xlink:title=" ">
<polygon fill="white" stroke="black" points="199,-164 199,-183 350,-183 350,-164 199,-164"/>
<text text-anchor="middle" x="274.5" y="-171" font-family="Helvetica,sans-Serif" font-size="10.00">javolution.io.Struct.Signed8</text>
</a>
</g>
</g>
<!-- Node1&#45;&gt;Node15 -->
<g id="edge14" class="edge">
<title>Node1&#45;&gt;Node15</title>
<path fill="none" stroke="midnightblue" d="M84.32,-336.53C98.65,-302.04 133.81,-229.24 188,-192.5 193.66,-188.66 199.98,-185.58 206.54,-183.12"/>
<polygon fill="midnightblue" stroke="midnightblue" points="81.02,-335.34 80.54,-345.92 87.52,-337.95 81.02,-335.34"/>
</g>
<!-- Node16 -->
<g id="node16" class="node">
<title>Node16</title>
<g id="a_node16"><a xlink:href="../../de/d04/classjavolution_1_1io_1_1Struct_1_1Unsigned16.html" target="_top" xlink:title=" ">
<polygon fill="white" stroke="black" points="189.5,-126 189.5,-145 359.5,-145 359.5,-126 189.5,-126"/>
<text text-anchor="middle" x="274.5" y="-133" font-family="Helvetica,sans-Serif" font-size="10.00">javolution.io.Struct.Unsigned16</text>
</a>
</g>
</g>
<!-- Node1&#45;&gt;Node16 -->
<g id="edge15" class="edge">
<title>Node1&#45;&gt;Node16</title>
<path fill="none" stroke="midnightblue" d="M81.96,-335.85C93.31,-295.16 125.14,-201.54 188,-154.5 193.11,-150.67 198.85,-147.59 204.87,-145.11"/>
<polygon fill="midnightblue" stroke="midnightblue" points="78.55,-335.07 79.35,-345.64 85.31,-336.88 78.55,-335.07"/>
</g>
<!-- Node17 -->
<g id="node17" class="node">
<title>Node17</title>
<g id="a_node17"><a xlink:href="../../db/de1/classjavolution_1_1io_1_1Struct_1_1Unsigned32.html" target="_top" xlink:title=" ">
<polygon fill="white" stroke="black" points="189.5,-88 189.5,-107 359.5,-107 359.5,-88 189.5,-88"/>
<text text-anchor="middle" x="274.5" y="-95" font-family="Helvetica,sans-Serif" font-size="10.00">javolution.io.Struct.Unsigned32</text>
</a>
</g>
</g>
<!-- Node1&#45;&gt;Node17 -->
<g id="edge16" class="edge">
<title>Node1&#45;&gt;Node17</title>
<path fill="none" stroke="midnightblue" d="M80.08,-336.03C88.42,-290.1 115.87,-174.51 188,-116.5 192.74,-112.69 198.09,-109.6 203.73,-107.11"/>
<polygon fill="midnightblue" stroke="midnightblue" points="76.63,-335.45 78.39,-345.9 83.53,-336.63 76.63,-335.45"/>
</g>
<!-- Node18 -->
<g id="node18" class="node">
<title>Node18</title>
<g id="a_node18"><a xlink:href="../../d1/dd3/classjavolution_1_1io_1_1Struct_1_1Unsigned8.html" target="_top" xlink:title=" ">
<polygon fill="white" stroke="black" points="192.5,-50 192.5,-69 356.5,-69 356.5,-50 192.5,-50"/>
<text text-anchor="middle" x="274.5" y="-57" font-family="Helvetica,sans-Serif" font-size="10.00">javolution.io.Struct.Unsigned8</text>
</a>
</g>
</g>
<!-- Node1&#45;&gt;Node18 -->
<g id="edge17" class="edge">
<title>Node1&#45;&gt;Node18</title>
<path fill="none" stroke="midnightblue" d="M78.75,-335.78C84.37,-284.75 106.69,-147.57 188,-78.5 192.52,-74.66 197.65,-71.55 203.09,-69.04"/>
<polygon fill="midnightblue" stroke="midnightblue" points="75.26,-335.51 77.74,-345.81 82.22,-336.21 75.26,-335.51"/>
</g>
<!-- Node19 -->
<g id="node19" class="node">
<title>Node19</title>
<g id="a_node19"><a xlink:href="../../df/d0c/classjavolution_1_1io_1_1Struct_1_1UTF8String.html" target="_top" xlink:title=" ">
<polygon fill="white" stroke="black" points="206,-0.5 206,-30.5 343,-30.5 343,-0.5 206,-0.5"/>
<text text-anchor="start" x="214" y="-18.5" font-family="Helvetica,sans-Serif" font-size="10.00">javolution.io.Struct.UTF8</text>
<text text-anchor="middle" x="274.5" y="-7.5" font-family="Helvetica,sans-Serif" font-size="10.00">String</text>
</a>
</g>
</g>
<!-- Node1&#45;&gt;Node19 -->
<g id="edge18" class="edge">
<title>Node1&#45;&gt;Node19</title>
<path fill="none" stroke="midnightblue" d="M77.97,-335.7C81.77,-280.54 100.16,-123.7 188,-40.5 193.17,-35.61 199.23,-31.67 205.72,-28.49"/>
<polygon fill="midnightblue" stroke="midnightblue" points="74.47,-335.68 77.36,-345.87 81.45,-336.09 74.47,-335.68"/>
</g>
</g>
</svg>
