<?xml version="1.0" encoding="UTF-8" standalone="no"?>
<!DOCTYPE svg PUBLIC "-//W3C//DTD SVG 1.1//EN"
 "http://www.w3.org/Graphics/SVG/1.1/DTD/svg11.dtd">
<!-- Generated by graphviz version 2.43.0 (0)
 -->
<!-- Title: javolution.io.Struct.BitField.longValue Pages: 1 -->
<svg width="1218pt" height="227pt"
 viewBox="0.00 0.00 1218.00 226.67" xmlns="http://www.w3.org/2000/svg" xmlns:xlink="http://www.w3.org/1999/xlink">
<g id="graph0" class="graph" transform="scale(1 1) rotate(0) translate(4 222.67)">
<title>javolution.io.Struct.BitField.longValue</title>
<polygon fill="white" stroke="transparent" points="-4,4 -4,-222.67 1214,-222.67 1214,4 -4,4"/>
<!-- Node1 -->
<g id="node1" class="node">
<title>Node1</title>
<g id="a_node1"><a xlink:title=" ">
<polygon fill="#bfbfbf" stroke="black" points="0,-117.17 0,-147.17 125,-147.17 125,-117.17 0,-117.17"/>
<text text-anchor="start" x="8" y="-135.17" font-family="Helvetica,sans-Serif" font-size="10.00">javolution.io.Struct.Bit</text>
<text text-anchor="middle" x="62.5" y="-124.17" font-family="Helvetica,sans-Serif" font-size="10.00">Field.longValue</text>
</a>
</g>
</g>
<!-- Node2 -->
<g id="node2" class="node">
<title>Node2</title>
<g id="a_node2"><a xlink:href="../../d2/d46/classjavolution_1_1io_1_1Struct_1_1Member.html#a854e3e15857ae39ac53a6c33211faf22" target="_top" xlink:title=" ">
<polygon fill="white" stroke="black" points="168.5,-188.17 168.5,-218.17 335.5,-218.17 335.5,-188.17 168.5,-188.17"/>
<text text-anchor="start" x="176.5" y="-206.17" font-family="Helvetica,sans-Serif" font-size="10.00">javolution.io.Struct.Member.bit</text>
<text text-anchor="middle" x="252" y="-195.17" font-family="Helvetica,sans-Serif" font-size="10.00">Index</text>
</a>
</g>
</g>
<!-- Node1&#45;&gt;Node2 -->
<g id="edge1" class="edge">
<title>Node1&#45;&gt;Node2</title>
<path fill="none" stroke="midnightblue" d="M91.05,-147.18C110.25,-157.21 136.68,-170.16 161,-179.17 166.77,-181.31 172.82,-183.34 178.93,-185.26"/>
<polygon fill="midnightblue" stroke="midnightblue" points="177.96,-188.62 188.55,-188.16 179.99,-181.92 177.96,-188.62"/>
</g>
<!-- Node3 -->
<g id="node3" class="node">
<title>Node3</title>
<g id="a_node3"><a xlink:href="../../d2/d46/classjavolution_1_1io_1_1Struct_1_1Member.html#a75be2230f62956649aa5dbdea3c6f4ac" target="_top" xlink:title=" ">
<polygon fill="white" stroke="black" points="168.5,-139.17 168.5,-169.17 335.5,-169.17 335.5,-139.17 168.5,-139.17"/>
<text text-anchor="start" x="176.5" y="-157.17" font-family="Helvetica,sans-Serif" font-size="10.00">javolution.io.Struct.Member.bit</text>
<text text-anchor="middle" x="252" y="-146.17" font-family="Helvetica,sans-Serif" font-size="10.00">Length</text>
</a>
</g>
</g>
<!-- Node1&#45;&gt;Node3 -->
<g id="edge2" class="edge">
<title>Node1&#45;&gt;Node3</title>
<path fill="none" stroke="midnightblue" d="M125.15,-139.41C135.7,-140.64 146.85,-141.95 158,-143.26"/>
<polygon fill="midnightblue" stroke="midnightblue" points="157.87,-146.77 168.21,-144.46 158.69,-139.82 157.87,-146.77"/>
</g>
<!-- Node4 -->
<g id="node4" class="node">
<title>Node4</title>
<g id="a_node4"><a xlink:href="../../d2/d46/classjavolution_1_1io_1_1Struct_1_1Member.html#a0055f0a4d71892a2eead00baf426d96c" target="_top" xlink:title=" ">
<polygon fill="white" stroke="black" points="161,-100.67 161,-119.67 343,-119.67 343,-100.67 161,-100.67"/>
<text text-anchor="middle" x="252" y="-107.67" font-family="Helvetica,sans-Serif" font-size="10.00">javolution.io.Struct.Member.offset</text>
</a>
</g>
</g>
<!-- Node1&#45;&gt;Node4 -->
<g id="edge3" class="edge">
<title>Node1&#45;&gt;Node4</title>
<path fill="none" stroke="midnightblue" d="M125.15,-124.94C136.22,-123.64 147.96,-122.26 159.65,-120.89"/>
<polygon fill="midnightblue" stroke="midnightblue" points="160.37,-124.33 169.89,-119.69 159.55,-117.38 160.37,-124.33"/>
</g>
<!-- Node5 -->
<g id="node5" class="node">
<title>Node5</title>
<g id="a_node5"><a xlink:href="../../d7/d99/classjavolution_1_1io_1_1Struct.html#af6e43916021c55b6d151992d99c0f56e" target="_top" xlink:title=" ">
<polygon fill="white" stroke="black" points="176,-62.67 176,-81.67 328,-81.67 328,-62.67 176,-62.67"/>
<text text-anchor="middle" x="252" y="-69.67" font-family="Helvetica,sans-Serif" font-size="10.00">javolution.io.Struct.readBits</text>
</a>
</g>
</g>
<!-- Node1&#45;&gt;Node5 -->
<g id="edge4" class="edge">
<title>Node1&#45;&gt;Node5</title>
<path fill="none" stroke="midnightblue" d="M94.99,-117.13C113.81,-108.6 138.39,-98.24 161,-91.17 169.42,-88.54 178.39,-86.16 187.29,-84.04"/>
<polygon fill="midnightblue" stroke="midnightblue" points="188.29,-87.4 197.27,-81.77 186.74,-80.58 188.29,-87.4"/>
</g>
<!-- Node6 -->
<g id="node6" class="node">
<title>Node6</title>
<g id="a_node6"><a xlink:href="../../d7/d99/classjavolution_1_1io_1_1Struct.html#a81fd85611da71c484375e2c0ef9124e6" target="_top" xlink:title=" ">
<polygon fill="white" stroke="black" points="1076,-106.17 1076,-136.17 1210,-136.17 1210,-106.17 1076,-106.17"/>
<text text-anchor="start" x="1084" y="-124.17" font-family="Helvetica,sans-Serif" font-size="10.00">javolution.io.Struct.byte</text>
<text text-anchor="middle" x="1143" y="-113.17" font-family="Helvetica,sans-Serif" font-size="10.00">Order</text>
</a>
</g>
</g>
<!-- Node5&#45;&gt;Node6 -->
<g id="edge5" class="edge">
<title>Node5&#45;&gt;Node6</title>
<path fill="none" stroke="midnightblue" d="M323.33,-81.68C330.26,-84.17 336.96,-87.28 343,-91.17 365.71,-105.81 355.38,-127.05 379,-140.17 475.25,-193.63 515.9,-159.17 626,-159.17 626,-159.17 626,-159.17 808,-159.17 896.82,-159.17 998.07,-145.74 1065.59,-134.85"/>
<polygon fill="midnightblue" stroke="midnightblue" points="1066.41,-138.26 1075.71,-133.19 1065.28,-131.35 1066.41,-138.26"/>
</g>
<!-- Node7 -->
<g id="node7" class="node">
<title>Node7</title>
<g id="a_node7"><a xlink:href="../../d7/d99/classjavolution_1_1io_1_1Struct.html#af409d73a3cf8dbd3939fcb7d5cf386e3" target="_top" xlink:title=" ">
<polygon fill="white" stroke="black" points="382,-82.17 382,-112.17 510,-112.17 510,-82.17 382,-82.17"/>
<text text-anchor="start" x="390" y="-100.17" font-family="Helvetica,sans-Serif" font-size="10.00">javolution.io.Struct.get</text>
<text text-anchor="middle" x="446" y="-89.17" font-family="Helvetica,sans-Serif" font-size="10.00">ByteBufferPosition</text>
</a>
</g>
</g>
<!-- Node5&#45;&gt;Node7 -->
<g id="edge7" class="edge">
<title>Node5&#45;&gt;Node7</title>
<path fill="none" stroke="midnightblue" d="M326.13,-81.69C341.03,-83.63 356.71,-85.67 371.61,-87.62"/>
<polygon fill="midnightblue" stroke="midnightblue" points="371.42,-91.12 381.79,-88.94 372.32,-84.18 371.42,-91.12"/>
</g>
<!-- Node8 -->
<g id="node8" class="node">
<title>Node8</title>
<g id="a_node8"><a xlink:href="../../d7/d99/classjavolution_1_1io_1_1Struct.html#aff5639c67f68988cb6444101d0c500f4" target="_top" xlink:title=" ">
<polygon fill="white" stroke="black" points="379,-33.17 379,-63.17 513,-63.17 513,-33.17 379,-33.17"/>
<text text-anchor="start" x="387" y="-51.17" font-family="Helvetica,sans-Serif" font-size="10.00">javolution.io.Struct.read</text>
<text text-anchor="middle" x="446" y="-40.17" font-family="Helvetica,sans-Serif" font-size="10.00">ByteBufferLong</text>
</a>
</g>
</g>
<!-- Node5&#45;&gt;Node8 -->
<g id="edge9" class="edge">
<title>Node5&#45;&gt;Node8</title>
<path fill="none" stroke="midnightblue" d="M328.06,-62.79C341.38,-61.12 355.28,-59.39 368.64,-57.72"/>
<polygon fill="midnightblue" stroke="midnightblue" points="369.25,-61.17 378.73,-56.45 368.38,-54.22 369.25,-61.17"/>
</g>
<!-- Node12 -->
<g id="node12" class="node">
<title>Node12</title>
<g id="a_node12"><a xlink:href="../../d7/d99/classjavolution_1_1io_1_1Struct.html#a6c5b77be973f699a4f0a80b360de5d42" target="_top" xlink:title=" ">
<polygon fill="white" stroke="black" points="909,-9.67 909,-28.67 1040,-28.67 1040,-9.67 909,-9.67"/>
<text text-anchor="middle" x="974.5" y="-16.67" font-family="Helvetica,sans-Serif" font-size="10.00">javolution.io.Struct.size</text>
</a>
</g>
</g>
<!-- Node5&#45;&gt;Node12 -->
<g id="edge18" class="edge">
<title>Node5&#45;&gt;Node12</title>
<path fill="none" stroke="midnightblue" d="M271.15,-62.67C295.09,-50.72 338.89,-30.84 379,-23.17 563.27,12.04 785.57,-0.73 899,-11.1"/>
<polygon fill="midnightblue" stroke="midnightblue" points="898.69,-14.59 908.97,-12.03 899.34,-7.62 898.69,-14.59"/>
</g>
<!-- Node6&#45;&gt;Node6 -->
<g id="edge6" class="edge">
<title>Node6&#45;&gt;Node6</title>
<path fill="none" stroke="midnightblue" d="M1113.72,-136.33C1106.66,-145.73 1116.42,-154.67 1143,-154.67 1159.2,-154.67 1169.15,-151.35 1172.85,-146.63"/>
<polygon fill="midnightblue" stroke="midnightblue" points="1176.33,-146.12 1172.28,-136.33 1169.34,-146.51 1176.33,-146.12"/>
</g>
<!-- Node7&#45;&gt;Node7 -->
<g id="edge8" class="edge">
<title>Node7&#45;&gt;Node7</title>
<path fill="none" stroke="midnightblue" d="M414.63,-112.33C407.07,-121.73 417.52,-130.67 446,-130.67 463.35,-130.67 474.01,-127.35 477.98,-122.63"/>
<polygon fill="midnightblue" stroke="midnightblue" points="481.46,-122.1 477.37,-112.33 474.47,-122.52 481.46,-122.1"/>
</g>
<!-- Node9 -->
<g id="node9" class="node">
<title>Node9</title>
<g id="a_node9"><a xlink:href="../../d7/d99/classjavolution_1_1io_1_1Struct.html#a7e750810b50675d99a38aec0e4ef0e1f" target="_top" xlink:title=" ">
<polygon fill="white" stroke="black" points="563,-71.17 563,-101.17 691,-101.17 691,-71.17 563,-71.17"/>
<text text-anchor="start" x="571" y="-89.17" font-family="Helvetica,sans-Serif" font-size="10.00">javolution.io.Struct.get</text>
<text text-anchor="middle" x="627" y="-78.17" font-family="Helvetica,sans-Serif" font-size="10.00">ByteBuffer</text>
</a>
</g>
</g>
<!-- Node8&#45;&gt;Node9 -->
<g id="edge10" class="edge">
<title>Node8&#45;&gt;Node9</title>
<path fill="none" stroke="midnightblue" d="M513.14,-62.21C526.08,-64.96 539.72,-67.85 552.86,-70.65"/>
<polygon fill="midnightblue" stroke="midnightblue" points="552.29,-74.1 562.8,-72.76 553.75,-67.26 552.29,-74.1"/>
</g>
<!-- Node13 -->
<g id="node13" class="node">
<title>Node13</title>
<g id="a_node13"><a xlink:href="../../d7/d99/classjavolution_1_1io_1_1Struct.html#a8f10eb188d14f458b2f2735c07b88b38" target="_top" xlink:title=" ">
<polygon fill="white" stroke="black" points="549,-32.67 549,-51.67 705,-51.67 705,-32.67 549,-32.67"/>
<text text-anchor="middle" x="627" y="-39.67" font-family="Helvetica,sans-Serif" font-size="10.00">javolution.io.Struct.readByte</text>
</a>
</g>
</g>
<!-- Node8&#45;&gt;Node13 -->
<g id="edge17" class="edge">
<title>Node8&#45;&gt;Node13</title>
<path fill="none" stroke="midnightblue" d="M513.14,-45.95C521.52,-45.67 530.19,-45.38 538.83,-45.09"/>
<polygon fill="midnightblue" stroke="midnightblue" points="539.06,-48.59 548.94,-44.75 538.82,-41.59 539.06,-48.59"/>
</g>
<!-- Node9&#45;&gt;Node9 -->
<g id="edge11" class="edge">
<title>Node9&#45;&gt;Node9</title>
<path fill="none" stroke="midnightblue" d="M595.63,-101.33C588.07,-110.73 598.52,-119.67 627,-119.67 644.35,-119.67 655.01,-116.35 658.98,-111.63"/>
<polygon fill="midnightblue" stroke="midnightblue" points="662.46,-111.1 658.37,-101.33 655.47,-111.52 662.46,-111.1"/>
</g>
<!-- Node10 -->
<g id="node10" class="node">
<title>Node10</title>
<g id="a_node10"><a xlink:href="../../d7/d99/classjavolution_1_1io_1_1Struct.html#aed9aed0fbd20e6523e215d990cbe5740" target="_top" xlink:title=" ">
<polygon fill="white" stroke="black" points="741,-66.17 741,-96.17 873,-96.17 873,-66.17 741,-66.17"/>
<text text-anchor="start" x="749" y="-84.17" font-family="Helvetica,sans-Serif" font-size="10.00">javolution.io.Struct.new</text>
<text text-anchor="middle" x="807" y="-73.17" font-family="Helvetica,sans-Serif" font-size="10.00">Buffer</text>
</a>
</g>
</g>
<!-- Node9&#45;&gt;Node10 -->
<g id="edge12" class="edge">
<title>Node9&#45;&gt;Node10</title>
<path fill="none" stroke="midnightblue" d="M691.01,-84.4C703.92,-84.04 717.63,-83.65 730.91,-83.28"/>
<polygon fill="midnightblue" stroke="midnightblue" points="731.07,-86.78 740.97,-83 730.88,-79.78 731.07,-86.78"/>
</g>
<!-- Node10&#45;&gt;Node6 -->
<g id="edge13" class="edge">
<title>Node10&#45;&gt;Node6</title>
<path fill="none" stroke="midnightblue" d="M873.26,-95.97C885.11,-98.31 897.39,-100.5 909,-102.17 961.1,-109.68 1020.21,-114.46 1065.86,-117.34"/>
<polygon fill="midnightblue" stroke="midnightblue" points="1065.78,-120.85 1075.97,-117.97 1066.21,-113.86 1065.78,-120.85"/>
</g>
<!-- Node11 -->
<g id="node11" class="node">
<title>Node11</title>
<g id="a_node11"><a xlink:href="../../d7/d99/classjavolution_1_1io_1_1Struct.html#a27767d656cd1f1d9079c309a86912237" target="_top" xlink:title=" ">
<polygon fill="white" stroke="black" points="911,-62.17 911,-92.17 1038,-92.17 1038,-62.17 911,-62.17"/>
<text text-anchor="start" x="919" y="-80.17" font-family="Helvetica,sans-Serif" font-size="10.00">javolution.io.Struct.set</text>
<text text-anchor="middle" x="974.5" y="-69.17" font-family="Helvetica,sans-Serif" font-size="10.00">ByteBuffer</text>
</a>
</g>
</g>
<!-- Node10&#45;&gt;Node11 -->
<g id="edge14" class="edge">
<title>Node10&#45;&gt;Node11</title>
<path fill="none" stroke="midnightblue" d="M873.41,-79.59C882.4,-79.37 891.68,-79.15 900.8,-78.93"/>
<polygon fill="midnightblue" stroke="midnightblue" points="901.08,-82.42 910.99,-78.68 900.91,-75.42 901.08,-82.42"/>
</g>
<!-- Node10&#45;&gt;Node12 -->
<g id="edge16" class="edge">
<title>Node10&#45;&gt;Node12</title>
<path fill="none" stroke="midnightblue" d="M848.06,-66.16C875.55,-55.87 911.68,-42.33 938.11,-32.43"/>
<polygon fill="midnightblue" stroke="midnightblue" points="939.58,-35.61 947.72,-28.83 937.13,-29.06 939.58,-35.61"/>
</g>
<!-- Node11&#45;&gt;Node6 -->
<g id="edge15" class="edge">
<title>Node11&#45;&gt;Node6</title>
<path fill="none" stroke="midnightblue" d="M1032.33,-92.19C1046.19,-95.85 1061.13,-99.8 1075.4,-103.57"/>
<polygon fill="midnightblue" stroke="midnightblue" points="1074.58,-106.97 1085.14,-106.15 1076.37,-100.21 1074.58,-106.97"/>
</g>
</g>
</svg>
