<?xml version="1.0" encoding="UTF-8" standalone="no"?>
<!DOCTYPE svg PUBLIC "-//W3C//DTD SVG 1.1//EN"
 "http://www.w3.org/Graphics/SVG/1.1/DTD/svg11.dtd">
<!-- Generated by graphviz version 2.43.0 (0)
 -->
<!-- Title: javolution.io.Struct.BitField.byteValue Pages: 1 -->
<!--zoomable 227 -->
<svg id="main" version="1.1" xmlns="http://www.w3.org/2000/svg" xmlns:xlink="http://www.w3.org/1999/xlink" xml:space="preserve" onload="init(evt)">
<style type="text/css"><![CDATA[
.edge:hover path { stroke: red; }
.edge:hover polygon { stroke: red; fill: red; }
]]></style>
<script type="text/javascript"><![CDATA[
var edges = document.getElementsByTagName('g');
if (edges && edges.length) {
  for (var i=0;i<edges.length;i++) {
    if (edges[i].id.substr(0,4)=='edge') {
      edges[i].setAttribute('class','edge');
    }
  }
}
]]></script>
        <defs>
                <circle id="rim" cx="0" cy="0" r="7"/>
                <circle id="rim2" cx="0" cy="0" r="3.5"/>
                <g id="zoomPlus">
                        <use xlink:href="#rim" fill="#404040">
                                <set attributeName="fill" to="#808080" begin="zoomplus.mouseover" end="zoomplus.mouseout"/>
                        </use>
                        <path d="M-4,0h8M0,-4v8" fill="none" stroke="white" stroke-width="1.5" pointer-events="none"/>
                </g>
                <g id="zoomMin">
                        <use xlink:href="#rim" fill="#404040">
                                <set attributeName="fill" to="#808080" begin="zoomminus.mouseover" end="zoomminus.mouseout"/>
                        </use>
                        <path d="M-4,0h8" fill="none" stroke="white" stroke-width="1.5" pointer-events="none"/>
                </g>
                <g id="dirArrow">
                        <path fill="none" stroke="white" stroke-width="1.5" d="M0,-3.0v7 M-2.5,-0.5L0,-3.0L2.5,-0.5"/>
                </g>
               <g id="resetDef">
                       <use xlink:href="#rim2" fill="#404040">
                               <set attributeName="fill" to="#808080" begin="reset.mouseover" end="reset.mouseout"/>
                       </use>
               </g>
        </defs>

<script type="text/javascript">
var viewWidth = 1379;
var viewHeight = 227;
var sectionId = 'dynsection-4';
</script>
<script xlink:href="../../svgpan.js"/>
<svg id="graph" class="graph">
<g id="viewport">
<title>javolution.io.Struct.BitField.byteValue</title>
<polygon fill="white" stroke="transparent" points="-4,4 -4,-222.67 1375,-222.67 1375,4 -4,4"/>
<!-- Node1 -->
<g id="node1" class="node">
<title>Node1</title>
<g id="a_node1"><a xlink:title=" ">
<polygon fill="#bfbfbf" stroke="black" points="0,-117.17 0,-147.17 125,-147.17 125,-117.17 0,-117.17"/>
<text text-anchor="start" x="8" y="-135.17" font-family="Helvetica,sans-Serif" font-size="10.00">javolution.io.Struct.Bit</text>
<text text-anchor="middle" x="62.5" y="-124.17" font-family="Helvetica,sans-Serif" font-size="10.00">Field.byteValue</text>
</a>
</g>
</g>
<!-- Node2 -->
<g id="node2" class="node">
<title>Node2</title>
<g id="a_node2"><a xlink:href="../../d7/d70/classjavolution_1_1io_1_1Struct_1_1BitField.html#a579b86e1a44a8b13f1a7b1cac6a3f2b9" target="_top" xlink:title=" ">
<polygon fill="white" stroke="black" points="161,-117.17 161,-147.17 286,-147.17 286,-117.17 161,-117.17"/>
<text text-anchor="start" x="169" y="-135.17" font-family="Helvetica,sans-Serif" font-size="10.00">javolution.io.Struct.Bit</text>
<text text-anchor="middle" x="223.5" y="-124.17" font-family="Helvetica,sans-Serif" font-size="10.00">Field.longValue</text>
</a>
</g>
</g>
<!-- Node1&#45;&gt;Node2 -->
<g id="edge1" class="edge">
<title>Node1&#45;&gt;Node2</title>
<path fill="none" stroke="midnightblue" d="M125.43,-132.17C133.67,-132.17 142.18,-132.17 150.58,-132.17"/>
<polygon fill="midnightblue" stroke="midnightblue" points="150.74,-135.67 160.74,-132.17 150.74,-128.67 150.74,-135.67"/>
</g>
<!-- Node3 -->
<g id="node3" class="node">
<title>Node3</title>
<g id="a_node3"><a xlink:href="../../d2/d46/classjavolution_1_1io_1_1Struct_1_1Member.html#a854e3e15857ae39ac53a6c33211faf22" target="_top" xlink:title=" ">
<polygon fill="white" stroke="black" points="329.5,-188.17 329.5,-218.17 496.5,-218.17 496.5,-188.17 329.5,-188.17"/>
<text text-anchor="start" x="337.5" y="-206.17" font-family="Helvetica,sans-Serif" font-size="10.00">javolution.io.Struct.Member.bit</text>
<text text-anchor="middle" x="413" y="-195.17" font-family="Helvetica,sans-Serif" font-size="10.00">Index</text>
</a>
</g>
</g>
<!-- Node2&#45;&gt;Node3 -->
<g id="edge2" class="edge">
<title>Node2&#45;&gt;Node3</title>
<path fill="none" stroke="midnightblue" d="M252.05,-147.18C271.25,-157.21 297.68,-170.16 322,-179.17 327.77,-181.31 333.82,-183.34 339.93,-185.26"/>
<polygon fill="midnightblue" stroke="midnightblue" points="338.96,-188.62 349.55,-188.16 340.99,-181.92 338.96,-188.62"/>
</g>
<!-- Node4 -->
<g id="node4" class="node">
<title>Node4</title>
<g id="a_node4"><a xlink:href="../../d2/d46/classjavolution_1_1io_1_1Struct_1_1Member.html#a75be2230f62956649aa5dbdea3c6f4ac" target="_top" xlink:title=" ">
<polygon fill="white" stroke="black" points="329.5,-139.17 329.5,-169.17 496.5,-169.17 496.5,-139.17 329.5,-139.17"/>
<text text-anchor="start" x="337.5" y="-157.17" font-family="Helvetica,sans-Serif" font-size="10.00">javolution.io.Struct.Member.bit</text>
<text text-anchor="middle" x="413" y="-146.17" font-family="Helvetica,sans-Serif" font-size="10.00">Length</text>
</a>
</g>
</g>
<!-- Node2&#45;&gt;Node4 -->
<g id="edge3" class="edge">
<title>Node2&#45;&gt;Node4</title>
<path fill="none" stroke="midnightblue" d="M286.15,-139.41C296.7,-140.64 307.85,-141.95 319,-143.26"/>
<polygon fill="midnightblue" stroke="midnightblue" points="318.87,-146.77 329.21,-144.46 319.69,-139.82 318.87,-146.77"/>
</g>
<!-- Node5 -->
<g id="node5" class="node">
<title>Node5</title>
<g id="a_node5"><a xlink:href="../../d2/d46/classjavolution_1_1io_1_1Struct_1_1Member.html#a0055f0a4d71892a2eead00baf426d96c" target="_top" xlink:title=" ">
<polygon fill="white" stroke="black" points="322,-100.67 322,-119.67 504,-119.67 504,-100.67 322,-100.67"/>
<text text-anchor="middle" x="413" y="-107.67" font-family="Helvetica,sans-Serif" font-size="10.00">javolution.io.Struct.Member.offset</text>
</a>
</g>
</g>
<!-- Node2&#45;&gt;Node5 -->
<g id="edge4" class="edge">
<title>Node2&#45;&gt;Node5</title>
<path fill="none" stroke="midnightblue" d="M286.15,-124.94C297.22,-123.64 308.96,-122.26 320.65,-120.89"/>
<polygon fill="midnightblue" stroke="midnightblue" points="321.37,-124.33 330.89,-119.69 320.55,-117.38 321.37,-124.33"/>
</g>
<!-- Node6 -->
<g id="node6" class="node">
<title>Node6</title>
<g id="a_node6"><a xlink:href="../../d7/d99/classjavolution_1_1io_1_1Struct.html#af6e43916021c55b6d151992d99c0f56e" target="_top" xlink:title=" ">
<polygon fill="white" stroke="black" points="337,-62.67 337,-81.67 489,-81.67 489,-62.67 337,-62.67"/>
<text text-anchor="middle" x="413" y="-69.67" font-family="Helvetica,sans-Serif" font-size="10.00">javolution.io.Struct.readBits</text>
</a>
</g>
</g>
<!-- Node2&#45;&gt;Node6 -->
<g id="edge5" class="edge">
<title>Node2&#45;&gt;Node6</title>
<path fill="none" stroke="midnightblue" d="M255.99,-117.13C274.81,-108.6 299.39,-98.24 322,-91.17 330.42,-88.54 339.39,-86.16 348.29,-84.04"/>
<polygon fill="midnightblue" stroke="midnightblue" points="349.29,-87.4 358.27,-81.77 347.74,-80.58 349.29,-87.4"/>
</g>
<!-- Node7 -->
<g id="node7" class="node">
<title>Node7</title>
<g id="a_node7"><a xlink:href="../../d7/d99/classjavolution_1_1io_1_1Struct.html#a81fd85611da71c484375e2c0ef9124e6" target="_top" xlink:title=" ">
<polygon fill="white" stroke="black" points="1237,-106.17 1237,-136.17 1371,-136.17 1371,-106.17 1237,-106.17"/>
<text text-anchor="start" x="1245" y="-124.17" font-family="Helvetica,sans-Serif" font-size="10.00">javolution.io.Struct.byte</text>
<text text-anchor="middle" x="1304" y="-113.17" font-family="Helvetica,sans-Serif" font-size="10.00">Order</text>
</a>
</g>
</g>
<!-- Node6&#45;&gt;Node7 -->
<g id="edge6" class="edge">
<title>Node6&#45;&gt;Node7</title>
<path fill="none" stroke="midnightblue" d="M484.33,-81.68C491.26,-84.17 497.96,-87.28 504,-91.17 526.71,-105.81 516.38,-127.05 540,-140.17 636.25,-193.63 676.9,-159.17 787,-159.17 787,-159.17 787,-159.17 969,-159.17 1057.82,-159.17 1159.07,-145.74 1226.59,-134.85"/>
<polygon fill="midnightblue" stroke="midnightblue" points="1227.41,-138.26 1236.71,-133.19 1226.28,-131.35 1227.41,-138.26"/>
</g>
<!-- Node8 -->
<g id="node8" class="node">
<title>Node8</title>
<g id="a_node8"><a xlink:href="../../d7/d99/classjavolution_1_1io_1_1Struct.html#af409d73a3cf8dbd3939fcb7d5cf386e3" target="_top" xlink:title=" ">
<polygon fill="white" stroke="black" points="543,-82.17 543,-112.17 671,-112.17 671,-82.17 543,-82.17"/>
<text text-anchor="start" x="551" y="-100.17" font-family="Helvetica,sans-Serif" font-size="10.00">javolution.io.Struct.get</text>
<text text-anchor="middle" x="607" y="-89.17" font-family="Helvetica,sans-Serif" font-size="10.00">ByteBufferPosition</text>
</a>
</g>
</g>
<!-- Node6&#45;&gt;Node8 -->
<g id="edge8" class="edge">
<title>Node6&#45;&gt;Node8</title>
<path fill="none" stroke="midnightblue" d="M487.13,-81.69C502.03,-83.63 517.71,-85.67 532.61,-87.62"/>
<polygon fill="midnightblue" stroke="midnightblue" points="532.42,-91.12 542.79,-88.94 533.32,-84.18 532.42,-91.12"/>
</g>
<!-- Node9 -->
<g id="node9" class="node">
<title>Node9</title>
<g id="a_node9"><a xlink:href="../../d7/d99/classjavolution_1_1io_1_1Struct.html#aff5639c67f68988cb6444101d0c500f4" target="_top" xlink:title=" ">
<polygon fill="white" stroke="black" points="540,-33.17 540,-63.17 674,-63.17 674,-33.17 540,-33.17"/>
<text text-anchor="start" x="548" y="-51.17" font-family="Helvetica,sans-Serif" font-size="10.00">javolution.io.Struct.read</text>
<text text-anchor="middle" x="607" y="-40.17" font-family="Helvetica,sans-Serif" font-size="10.00">ByteBufferLong</text>
</a>
</g>
</g>
<!-- Node6&#45;&gt;Node9 -->
<g id="edge10" class="edge">
<title>Node6&#45;&gt;Node9</title>
<path fill="none" stroke="midnightblue" d="M489.06,-62.79C502.38,-61.12 516.28,-59.39 529.64,-57.72"/>
<polygon fill="midnightblue" stroke="midnightblue" points="530.25,-61.17 539.73,-56.45 529.38,-54.22 530.25,-61.17"/>
</g>
<!-- Node13 -->
<g id="node13" class="node">
<title>Node13</title>
<g id="a_node13"><a xlink:href="../../d7/d99/classjavolution_1_1io_1_1Struct.html#a6c5b77be973f699a4f0a80b360de5d42" target="_top" xlink:title=" ">
<polygon fill="white" stroke="black" points="1070,-9.67 1070,-28.67 1201,-28.67 1201,-9.67 1070,-9.67"/>
<text text-anchor="middle" x="1135.5" y="-16.67" font-family="Helvetica,sans-Serif" font-size="10.00">javolution.io.Struct.size</text>
</a>
</g>
</g>
<!-- Node6&#45;&gt;Node13 -->
<g id="edge19" class="edge">
<title>Node6&#45;&gt;Node13</title>
<path fill="none" stroke="midnightblue" d="M432.15,-62.67C456.09,-50.72 499.89,-30.84 540,-23.17 724.27,12.04 946.57,-0.73 1060,-11.1"/>
<polygon fill="midnightblue" stroke="midnightblue" points="1059.69,-14.59 1069.97,-12.03 1060.34,-7.62 1059.69,-14.59"/>
</g>
<!-- Node7&#45;&gt;Node7 -->
<g id="edge7" class="edge">
<title>Node7&#45;&gt;Node7</title>
<path fill="none" stroke="midnightblue" d="M1274.72,-136.33C1267.66,-145.73 1277.42,-154.67 1304,-154.67 1320.2,-154.67 1330.15,-151.35 1333.85,-146.63"/>
<polygon fill="midnightblue" stroke="midnightblue" points="1337.33,-146.12 1333.28,-136.33 1330.34,-146.51 1337.33,-146.12"/>
</g>
<!-- Node8&#45;&gt;Node8 -->
<g id="edge9" class="edge">
<title>Node8&#45;&gt;Node8</title>
<path fill="none" stroke="midnightblue" d="M575.63,-112.33C568.07,-121.73 578.52,-130.67 607,-130.67 624.35,-130.67 635.01,-127.35 638.98,-122.63"/>
<polygon fill="midnightblue" stroke="midnightblue" points="642.46,-122.1 638.37,-112.33 635.47,-122.52 642.46,-122.1"/>
</g>
<!-- Node10 -->
<g id="node10" class="node">
<title>Node10</title>
<g id="a_node10"><a xlink:href="../../d7/d99/classjavolution_1_1io_1_1Struct.html#a7e750810b50675d99a38aec0e4ef0e1f" target="_top" xlink:title=" ">
<polygon fill="white" stroke="black" points="724,-71.17 724,-101.17 852,-101.17 852,-71.17 724,-71.17"/>
<text text-anchor="start" x="732" y="-89.17" font-family="Helvetica,sans-Serif" font-size="10.00">javolution.io.Struct.get</text>
<text text-anchor="middle" x="788" y="-78.17" font-family="Helvetica,sans-Serif" font-size="10.00">ByteBuffer</text>
</a>
</g>
</g>
<!-- Node9&#45;&gt;Node10 -->
<g id="edge11" class="edge">
<title>Node9&#45;&gt;Node10</title>
<path fill="none" stroke="midnightblue" d="M674.14,-62.21C687.08,-64.96 700.72,-67.85 713.86,-70.65"/>
<polygon fill="midnightblue" stroke="midnightblue" points="713.29,-74.1 723.8,-72.76 714.75,-67.26 713.29,-74.1"/>
</g>
<!-- Node14 -->
<g id="node14" class="node">
<title>Node14</title>
<g id="a_node14"><a xlink:href="../../d7/d99/classjavolution_1_1io_1_1Struct.html#a8f10eb188d14f458b2f2735c07b88b38" target="_top" xlink:title=" ">
<polygon fill="white" stroke="black" points="710,-32.67 710,-51.67 866,-51.67 866,-32.67 710,-32.67"/>
<text text-anchor="middle" x="788" y="-39.67" font-family="Helvetica,sans-Serif" font-size="10.00">javolution.io.Struct.readByte</text>
</a>
</g>
</g>
<!-- Node9&#45;&gt;Node14 -->
<g id="edge18" class="edge">
<title>Node9&#45;&gt;Node14</title>
<path fill="none" stroke="midnightblue" d="M674.14,-45.95C682.52,-45.67 691.19,-45.38 699.83,-45.09"/>
<polygon fill="midnightblue" stroke="midnightblue" points="700.06,-48.59 709.94,-44.75 699.82,-41.59 700.06,-48.59"/>
</g>
<!-- Node10&#45;&gt;Node10 -->
<g id="edge12" class="edge">
<title>Node10&#45;&gt;Node10</title>
<path fill="none" stroke="midnightblue" d="M756.63,-101.33C749.07,-110.73 759.52,-119.67 788,-119.67 805.35,-119.67 816.01,-116.35 819.98,-111.63"/>
<polygon fill="midnightblue" stroke="midnightblue" points="823.46,-111.1 819.37,-101.33 816.47,-111.52 823.46,-111.1"/>
</g>
<!-- Node11 -->
<g id="node11" class="node">
<title>Node11</title>
<g id="a_node11"><a xlink:href="../../d7/d99/classjavolution_1_1io_1_1Struct.html#aed9aed0fbd20e6523e215d990cbe5740" target="_top" xlink:title=" ">
<polygon fill="white" stroke="black" points="902,-66.17 902,-96.17 1034,-96.17 1034,-66.17 902,-66.17"/>
<text text-anchor="start" x="910" y="-84.17" font-family="Helvetica,sans-Serif" font-size="10.00">javolution.io.Struct.new</text>
<text text-anchor="middle" x="968" y="-73.17" font-family="Helvetica,sans-Serif" font-size="10.00">Buffer</text>
</a>
</g>
</g>
<!-- Node10&#45;&gt;Node11 -->
<g id="edge13" class="edge">
<title>Node10&#45;&gt;Node11</title>
<path fill="none" stroke="midnightblue" d="M852.01,-84.4C864.92,-84.04 878.63,-83.65 891.91,-83.28"/>
<polygon fill="midnightblue" stroke="midnightblue" points="892.07,-86.78 901.97,-83 891.88,-79.78 892.07,-86.78"/>
</g>
<!-- Node11&#45;&gt;Node7 -->
<g id="edge14" class="edge">
<title>Node11&#45;&gt;Node7</title>
<path fill="none" stroke="midnightblue" d="M1034.26,-95.97C1046.11,-98.31 1058.39,-100.5 1070,-102.17 1122.1,-109.68 1181.21,-114.46 1226.86,-117.34"/>
<polygon fill="midnightblue" stroke="midnightblue" points="1226.78,-120.85 1236.97,-117.97 1227.21,-113.86 1226.78,-120.85"/>
</g>
<!-- Node12 -->
<g id="node12" class="node">
<title>Node12</title>
<g id="a_node12"><a xlink:href="../../d7/d99/classjavolution_1_1io_1_1Struct.html#a27767d656cd1f1d9079c309a86912237" target="_top" xlink:title=" ">
<polygon fill="white" stroke="black" points="1072,-62.17 1072,-92.17 1199,-92.17 1199,-62.17 1072,-62.17"/>
<text text-anchor="start" x="1080" y="-80.17" font-family="Helvetica,sans-Serif" font-size="10.00">javolution.io.Struct.set</text>
<text text-anchor="middle" x="1135.5" y="-69.17" font-family="Helvetica,sans-Serif" font-size="10.00">ByteBuffer</text>
</a>
</g>
</g>
<!-- Node11&#45;&gt;Node12 -->
<g id="edge15" class="edge">
<title>Node11&#45;&gt;Node12</title>
<path fill="none" stroke="midnightblue" d="M1034.41,-79.59C1043.4,-79.37 1052.68,-79.15 1061.8,-78.93"/>
<polygon fill="midnightblue" stroke="midnightblue" points="1062.08,-82.42 1071.99,-78.68 1061.91,-75.42 1062.08,-82.42"/>
</g>
<!-- Node11&#45;&gt;Node13 -->
<g id="edge17" class="edge">
<title>Node11&#45;&gt;Node13</title>
<path fill="none" stroke="midnightblue" d="M1009.06,-66.16C1036.55,-55.87 1072.68,-42.33 1099.11,-32.43"/>
<polygon fill="midnightblue" stroke="midnightblue" points="1100.58,-35.61 1108.72,-28.83 1098.13,-29.06 1100.58,-35.61"/>
</g>
<!-- Node12&#45;&gt;Node7 -->
<g id="edge16" class="edge">
<title>Node12&#45;&gt;Node7</title>
<path fill="none" stroke="midnightblue" d="M1193.33,-92.19C1207.19,-95.85 1222.13,-99.8 1236.4,-103.57"/>
<polygon fill="midnightblue" stroke="midnightblue" points="1235.58,-106.97 1246.14,-106.15 1237.37,-100.21 1235.58,-106.97"/>
</g>
</g>
</svg>
        <g id="navigator" transform="translate(0 0)" fill="#404254">
                <rect fill="#f2f5e9" fill-opacity="0.5" stroke="#606060" stroke-width=".5" x="0" y="0" width="60" height="60"/>
                <use id="zoomplus" xlink:href="#zoomPlus" x="17" y="9" onmousedown="handleZoom(evt,'in')"/>
                <use id="zoomminus" xlink:href="#zoomMin" x="42" y="9" onmousedown="handleZoom(evt,'out')"/>
                <use id="reset" xlink:href="#resetDef" x="30" y="36" onmousedown="handleReset()"/>
                <g id="arrowUp" xlink:href="#dirArrow" transform="translate(30 24)" onmousedown="handlePan(0,-1)">
                  <use xlink:href="#rim" fill="#404040">
                        <set attributeName="fill" to="#808080" begin="arrowUp.mouseover" end="arrowUp.mouseout"/>
                  </use>
                  <path fill="none" stroke="white" stroke-width="1.5" d="M0,-3.0v7 M-2.5,-0.5L0,-3.0L2.5,-0.5"/>
                </g>
                <g id="arrowRight" xlink:href="#dirArrow" transform="rotate(90) translate(36 -43)" onmousedown="handlePan(1,0)">
                  <use xlink:href="#rim" fill="#404040">
                        <set attributeName="fill" to="#808080" begin="arrowRight.mouseover" end="arrowRight.mouseout"/>
                  </use>
                  <path fill="none" stroke="white" stroke-width="1.5" d="M0,-3.0v7 M-2.5,-0.5L0,-3.0L2.5,-0.5"/>
                </g>
                <g id="arrowDown" xlink:href="#dirArrow" transform="rotate(180) translate(-30 -48)" onmousedown="handlePan(0,1)">
                  <use xlink:href="#rim" fill="#404040">
                        <set attributeName="fill" to="#808080" begin="arrowDown.mouseover" end="arrowDown.mouseout"/>
                  </use>
                  <path fill="none" stroke="white" stroke-width="1.5" d="M0,-3.0v7 M-2.5,-0.5L0,-3.0L2.5,-0.5"/>
                </g>
                <g id="arrowLeft" xlink:href="#dirArrow" transform="rotate(270) translate(-36 17)" onmousedown="handlePan(-1,0)">
                  <use xlink:href="#rim" fill="#404040">
                        <set attributeName="fill" to="#808080" begin="arrowLeft.mouseover" end="arrowLeft.mouseout"/>
                  </use>
                  <path fill="none" stroke="white" stroke-width="1.5" d="M0,-3.0v7 M-2.5,-0.5L0,-3.0L2.5,-0.5"/>
                </g>
        </g>
        <svg viewBox="0 0 15 15" width="100%" height="30px" preserveAspectRatio="xMaxYMin meet">
         <g id="arrow_out" transform="scale(0.3 0.3)">
          <a xlink:href="classjavolution_1_1io_1_1Struct_1_1BitField_ab41640eddb2e34867880496147a40f5e_cgraph_org.svg" target="_base">
           <rect id="button" ry="5" rx="5" y="6" x="6" height="38" width="38"
                fill="#f2f5e9" fill-opacity="0.5" stroke="#606060" stroke-width="1.0"/>
           <path id="arrow"
             d="M 11.500037,31.436501 C 11.940474,20.09759 22.043105,11.32322 32.158766,21.979434 L 37.068811,17.246167 C 37.068811,17.246167 37.088388,32 37.088388,32 L 22.160133,31.978069 C 22.160133,31.978069 26.997745,27.140456 26.997745,27.140456 C 18.528582,18.264221 13.291696,25.230495 11.500037,31.436501 z"
             style="fill:#404040;"/>
          </a>
         </g>
        </svg>
</svg>
