<?xml version="1.0" encoding="UTF-8" standalone="no"?>
<!DOCTYPE svg PUBLIC "-//W3C//DTD SVG 1.1//EN"
 "http://www.w3.org/Graphics/SVG/1.1/DTD/svg11.dtd">
<!-- Generated by graphviz version 2.43.0 (0)
 -->
<!-- Title: javolution.util.internal.map.MapView&lt; K, V &gt; Pages: 1 -->
<!--zoomable 418 -->
<svg id="main" version="1.1" xmlns="http://www.w3.org/2000/svg" xmlns:xlink="http://www.w3.org/1999/xlink" xml:space="preserve" onload="init(evt)">
<style type="text/css"><![CDATA[
.edge:hover path { stroke: red; }
.edge:hover polygon { stroke: red; fill: red; }
]]></style>
<script type="text/javascript"><![CDATA[
var edges = document.getElementsByTagName('g');
if (edges && edges.length) {
  for (var i=0;i<edges.length;i++) {
    if (edges[i].id.substr(0,4)=='edge') {
      edges[i].setAttribute('class','edge');
    }
  }
}
]]></script>
        <defs>
                <circle id="rim" cx="0" cy="0" r="7"/>
                <circle id="rim2" cx="0" cy="0" r="3.5"/>
                <g id="zoomPlus">
                        <use xlink:href="#rim" fill="#404040">
                                <set attributeName="fill" to="#808080" begin="zoomplus.mouseover" end="zoomplus.mouseout"/>
                        </use>
                        <path d="M-4,0h8M0,-4v8" fill="none" stroke="white" stroke-width="1.5" pointer-events="none"/>
                </g>
                <g id="zoomMin">
                        <use xlink:href="#rim" fill="#404040">
                                <set attributeName="fill" to="#808080" begin="zoomminus.mouseover" end="zoomminus.mouseout"/>
                        </use>
                        <path d="M-4,0h8" fill="none" stroke="white" stroke-width="1.5" pointer-events="none"/>
                </g>
                <g id="dirArrow">
                        <path fill="none" stroke="white" stroke-width="1.5" d="M0,-3.0v7 M-2.5,-0.5L0,-3.0L2.5,-0.5"/>
                </g>
               <g id="resetDef">
                       <use xlink:href="#rim2" fill="#404040">
                               <set attributeName="fill" to="#808080" begin="reset.mouseover" end="reset.mouseout"/>
                       </use>
               </g>
        </defs>

<script type="text/javascript">
var viewWidth = 938;
var viewHeight = 418;
var sectionId = 'dynsection-0';
</script>
<script xlink:href="../../svgpan.js"/>
<svg id="graph" class="graph">
<g id="viewport">
<title>javolution.util.internal.map.MapView&lt; K, V &gt;</title>
<polygon fill="white" stroke="transparent" points="-4,4 -4,-414 934,-414 934,4 -4,4"/>
<!-- Node1 -->
<g id="node1" class="node">
<title>Node1</title>
<g id="a_node1"><a xlink:title=" ">
<polygon fill="#bfbfbf" stroke="black" points="339,-221 339,-251 491,-251 491,-221 339,-221"/>
<text text-anchor="start" x="347" y="-239" font-family="Helvetica,sans-Serif" font-size="10.00">javolution.util.internal.map.</text>
<text text-anchor="middle" x="415" y="-228" font-family="Helvetica,sans-Serif" font-size="10.00">MapView&lt; K, V &gt;</text>
</a>
</g>
</g>
<!-- Node8 -->
<g id="node8" class="node">
<title>Node8</title>
<g id="a_node8"><a xlink:href="../../d8/d68/classjavolution_1_1util_1_1internal_1_1map_1_1AtomicMapImpl.html" target="_top" xlink:title=" ">
<polygon fill="white" stroke="black" points="527.5,-374 527.5,-404 697.5,-404 697.5,-374 527.5,-374"/>
<text text-anchor="start" x="535.5" y="-392" font-family="Helvetica,sans-Serif" font-size="10.00">javolution::util::internal</text>
<text text-anchor="middle" x="612.5" y="-381" font-family="Helvetica,sans-Serif" font-size="10.00">::map::AtomicMapImpl&lt; K, V &gt;</text>
</a>
</g>
</g>
<!-- Node1&#45;&gt;Node8 -->
<g id="edge7" class="edge">
<title>Node1&#45;&gt;Node8</title>
<path fill="none" stroke="midnightblue" d="M430.36,-260C449.02,-289.13 484.31,-337.73 527,-365 532.4,-368.45 538.3,-371.41 544.39,-373.95"/>
<polygon fill="midnightblue" stroke="midnightblue" points="433.17,-257.89 424.9,-251.28 427.24,-261.61 433.17,-257.89"/>
</g>
<!-- Node10 -->
<g id="node10" class="node">
<title>Node10</title>
<g id="a_node10"><a xlink:href="../../dd/d8f/classjavolution_1_1util_1_1internal_1_1map_1_1FastMapImpl.html" target="_top" xlink:title=" ">
<polygon fill="white" stroke="black" points="535,-325 535,-355 690,-355 690,-325 535,-325"/>
<text text-anchor="start" x="543" y="-343" font-family="Helvetica,sans-Serif" font-size="10.00">javolution::util::internal</text>
<text text-anchor="middle" x="612.5" y="-332" font-family="Helvetica,sans-Serif" font-size="10.00">::map::FastMapImpl&lt; K, V &gt;</text>
</a>
</g>
</g>
<!-- Node1&#45;&gt;Node10 -->
<g id="edge9" class="edge">
<title>Node1&#45;&gt;Node10</title>
<path fill="none" stroke="midnightblue" d="M440.52,-257.54C462.01,-275.44 494.77,-300.4 527,-316 534,-319.39 541.57,-322.38 549.19,-324.99"/>
<polygon fill="midnightblue" stroke="midnightblue" points="442.75,-254.85 432.86,-251.06 438.23,-260.19 442.75,-254.85"/>
</g>
<!-- Node11 -->
<g id="node11" class="node">
<title>Node11</title>
<g id="a_node11"><a xlink:href="../../d7/d98/classjavolution_1_1util_1_1internal_1_1map_1_1ParallelMapImpl.html" target="_top" xlink:title=" ">
<polygon fill="white" stroke="black" points="527,-276 527,-306 698,-306 698,-276 527,-276"/>
<text text-anchor="start" x="535" y="-294" font-family="Helvetica,sans-Serif" font-size="10.00">javolution::util::internal</text>
<text text-anchor="middle" x="612.5" y="-283" font-family="Helvetica,sans-Serif" font-size="10.00">::map::ParallelMapImpl&lt; K, V &gt;</text>
</a>
</g>
</g>
<!-- Node1&#45;&gt;Node11 -->
<g id="edge10" class="edge">
<title>Node1&#45;&gt;Node11</title>
<path fill="none" stroke="midnightblue" d="M479.35,-253.82C504.79,-260.98 533.8,-269.14 558.14,-275.99"/>
<polygon fill="midnightblue" stroke="midnightblue" points="480,-250.37 469.42,-251.03 478.1,-257.11 480,-250.37"/>
</g>
<!-- Node12 -->
<g id="node12" class="node">
<title>Node12</title>
<g id="a_node12"><a xlink:href="../../de/d11/classjavolution_1_1util_1_1internal_1_1map_1_1SequentialMapImpl.html" target="_top" xlink:title=" ">
<polygon fill="white" stroke="black" points="540,-215.5 540,-256.5 685,-256.5 685,-215.5 540,-215.5"/>
<text text-anchor="start" x="548" y="-244.5" font-family="Helvetica,sans-Serif" font-size="10.00">javolution::util::internal</text>
<text text-anchor="start" x="548" y="-233.5" font-family="Helvetica,sans-Serif" font-size="10.00">::map::SequentialMapImpl</text>
<text text-anchor="middle" x="612.5" y="-222.5" font-family="Helvetica,sans-Serif" font-size="10.00">&lt; K, V &gt;</text>
</a>
</g>
</g>
<!-- Node1&#45;&gt;Node12 -->
<g id="edge11" class="edge">
<title>Node1&#45;&gt;Node12</title>
<path fill="none" stroke="midnightblue" d="M501.28,-236C514.16,-236 527.34,-236 539.89,-236"/>
<polygon fill="midnightblue" stroke="midnightblue" points="501.03,-232.5 491.03,-236 501.03,-239.5 501.03,-232.5"/>
</g>
<!-- Node13 -->
<g id="node13" class="node">
<title>Node13</title>
<g id="a_node13"><a xlink:href="../../d5/db2/classjavolution_1_1util_1_1internal_1_1map_1_1SharedMapImpl.html" target="_top" xlink:title=" ">
<polygon fill="white" stroke="black" points="528,-166 528,-196 697,-196 697,-166 528,-166"/>
<text text-anchor="start" x="536" y="-184" font-family="Helvetica,sans-Serif" font-size="10.00">javolution::util::internal</text>
<text text-anchor="middle" x="612.5" y="-173" font-family="Helvetica,sans-Serif" font-size="10.00">::map::SharedMapImpl&lt; K, V &gt;</text>
</a>
</g>
</g>
<!-- Node1&#45;&gt;Node13 -->
<g id="edge12" class="edge">
<title>Node1&#45;&gt;Node13</title>
<path fill="none" stroke="midnightblue" d="M479.35,-218.18C504.79,-211.02 533.8,-202.86 558.14,-196.01"/>
<polygon fill="midnightblue" stroke="midnightblue" points="478.1,-214.89 469.42,-220.97 480,-221.63 478.1,-214.89"/>
</g>
<!-- Node15 -->
<g id="node15" class="node">
<title>Node15</title>
<g id="a_node15"><a xlink:href="../../d1/d0a/classjavolution_1_1util_1_1internal_1_1map_1_1sorted_1_1SortedMapView.html" target="_top" xlink:title=" ">
<polygon fill="white" stroke="black" points="530.5,-105.5 530.5,-146.5 694.5,-146.5 694.5,-105.5 530.5,-105.5"/>
<text text-anchor="start" x="538.5" y="-134.5" font-family="Helvetica,sans-Serif" font-size="10.00">javolution::util::internal</text>
<text text-anchor="start" x="538.5" y="-123.5" font-family="Helvetica,sans-Serif" font-size="10.00">::map::sorted::SortedMapView</text>
<text text-anchor="middle" x="612.5" y="-112.5" font-family="Helvetica,sans-Serif" font-size="10.00">&lt; K, V &gt;</text>
</a>
</g>
</g>
<!-- Node1&#45;&gt;Node15 -->
<g id="edge14" class="edge">
<title>Node1&#45;&gt;Node15</title>
<path fill="none" stroke="midnightblue" d="M441.55,-214.36C463.21,-196.83 495.66,-172.43 527,-156 533.48,-152.6 540.43,-149.44 547.46,-146.55"/>
<polygon fill="midnightblue" stroke="midnightblue" points="439.32,-211.66 433.8,-220.71 443.75,-217.07 439.32,-211.66"/>
</g>
<!-- Node18 -->
<g id="node18" class="node">
<title>Node18</title>
<g id="a_node18"><a xlink:href="../../d0/d9e/classjavolution_1_1util_1_1internal_1_1map_1_1UnmodifiableMapImpl.html" target="_top" xlink:title=" ">
<polygon fill="white" stroke="black" points="533.5,-30.5 533.5,-71.5 691.5,-71.5 691.5,-30.5 533.5,-30.5"/>
<text text-anchor="start" x="541.5" y="-59.5" font-family="Helvetica,sans-Serif" font-size="10.00">javolution::util::internal</text>
<text text-anchor="start" x="541.5" y="-48.5" font-family="Helvetica,sans-Serif" font-size="10.00">::map::UnmodifiableMapImpl</text>
<text text-anchor="middle" x="612.5" y="-37.5" font-family="Helvetica,sans-Serif" font-size="10.00">&lt; K, V &gt;</text>
</a>
</g>
</g>
<!-- Node1&#45;&gt;Node18 -->
<g id="edge17" class="edge">
<title>Node1&#45;&gt;Node18</title>
<path fill="none" stroke="midnightblue" d="M430.41,-212.28C449.54,-182.27 485.76,-130.38 527,-96 538.23,-86.63 551.73,-78.39 564.61,-71.6"/>
<polygon fill="midnightblue" stroke="midnightblue" points="427.38,-210.51 425.03,-220.84 433.31,-214.23 427.38,-210.51"/>
</g>
<!-- Node2 -->
<g id="node2" class="node">
<title>Node2</title>
<g id="a_node2"><a xlink:href="../../d7/d30/interfacejavolution_1_1util_1_1service_1_1MapService.html" target="_top" xlink:title=" ">
<polygon fill="white" stroke="black" points="175,-221 175,-251 303,-251 303,-221 175,-221"/>
<text text-anchor="start" x="183" y="-239" font-family="Helvetica,sans-Serif" font-size="10.00">javolution::util::service</text>
<text text-anchor="middle" x="239" y="-228" font-family="Helvetica,sans-Serif" font-size="10.00">::MapService&lt; K, V &gt;</text>
</a>
</g>
</g>
<!-- Node2&#45;&gt;Node1 -->
<g id="edge1" class="edge">
<title>Node2&#45;&gt;Node1</title>
<path fill="none" stroke="midnightblue" d="M313.47,-236C321.88,-236 330.47,-236 338.91,-236"/>
<polygon fill="midnightblue" stroke="midnightblue" points="313.31,-232.5 303.31,-236 313.31,-239.5 313.31,-232.5"/>
</g>
<!-- Node3 -->
<g id="node3" class="node">
<title>Node3</title>
<g id="a_node3"><a xlink:title=" ">
<polygon fill="white" stroke="#bfbfbf" points="5.5,-325.5 5.5,-344.5 133.5,-344.5 133.5,-325.5 5.5,-325.5"/>
<text text-anchor="middle" x="69.5" y="-332.5" font-family="Helvetica,sans-Serif" font-size="10.00">java::util::Map&lt; K, V &gt;</text>
</a>
</g>
</g>
<!-- Node3&#45;&gt;Node2 -->
<g id="edge2" class="edge">
<title>Node3&#45;&gt;Node2</title>
<path fill="none" stroke="midnightblue" d="M124.83,-322.18C129.73,-320.36 134.52,-318.3 139,-316 172.41,-298.82 205.1,-269.18 223.3,-251.2"/>
<polygon fill="midnightblue" stroke="midnightblue" points="123.69,-318.87 115.36,-325.41 125.95,-325.5 123.69,-318.87"/>
</g>
<!-- Node4 -->
<g id="node4" class="node">
<title>Node4</title>
<g id="a_node4"><a xlink:title=" ">
<polygon fill="white" stroke="#bfbfbf" points="0,-276 0,-306 139,-306 139,-276 0,-276"/>
<text text-anchor="start" x="8" y="-294" font-family="Helvetica,sans-Serif" font-size="10.00">java::util::concurrent</text>
<text text-anchor="middle" x="69.5" y="-283" font-family="Helvetica,sans-Serif" font-size="10.00">::ConcurrentMap&lt; K, V &gt;</text>
</a>
</g>
</g>
<!-- Node4&#45;&gt;Node2 -->
<g id="edge3" class="edge">
<title>Node4&#45;&gt;Node2</title>
<path fill="none" stroke="midnightblue" d="M125.93,-272.8C147.45,-265.73 171.8,-257.74 192.29,-251.01"/>
<polygon fill="midnightblue" stroke="midnightblue" points="124.68,-269.53 116.27,-275.97 126.86,-276.18 124.68,-269.53"/>
</g>
<!-- Node5 -->
<g id="node5" class="node">
<title>Node5</title>
<g id="a_node5"><a xlink:href="../../dd/ded/interfacejavolution_1_1util_1_1function_1_1Splittable.html" target="_top" xlink:title=" ">
<polygon fill="white" stroke="black" points="1,-215.5 1,-256.5 138,-256.5 138,-215.5 1,-215.5"/>
<text text-anchor="start" x="9" y="-244.5" font-family="Helvetica,sans-Serif" font-size="10.00">javolution::util::function</text>
<text text-anchor="start" x="9" y="-233.5" font-family="Helvetica,sans-Serif" font-size="10.00">::Splittable&lt; MapService</text>
<text text-anchor="middle" x="69.5" y="-222.5" font-family="Helvetica,sans-Serif" font-size="10.00">&lt; K, V &gt; &gt;</text>
</a>
</g>
</g>
<!-- Node5&#45;&gt;Node2 -->
<g id="edge4" class="edge">
<title>Node5&#45;&gt;Node2</title>
<path fill="none" stroke="midnightblue" d="M148.21,-236C157.18,-236 166.24,-236 174.98,-236"/>
<polygon fill="midnightblue" stroke="midnightblue" points="148.15,-232.5 138.15,-236 148.15,-239.5 148.15,-232.5"/>
</g>
<!-- Node6 -->
<g id="node6" class="node">
<title>Node6</title>
<g id="a_node6"><a xlink:title=" ">
<polygon fill="white" stroke="#bfbfbf" points="32.5,-177.5 32.5,-196.5 106.5,-196.5 106.5,-177.5 32.5,-177.5"/>
<text text-anchor="middle" x="69.5" y="-184.5" font-family="Helvetica,sans-Serif" font-size="10.00">Serializable</text>
</a>
</g>
</g>
<!-- Node6&#45;&gt;Node2 -->
<g id="edge5" class="edge">
<title>Node6&#45;&gt;Node2</title>
<path fill="none" stroke="midnightblue" d="M115.24,-199.25C123.17,-201.46 131.33,-203.78 139,-206 155.39,-210.75 173.24,-216.11 189.22,-220.97"/>
<polygon fill="midnightblue" stroke="midnightblue" points="115.97,-195.81 105.39,-196.51 114.09,-202.56 115.97,-195.81"/>
</g>
<!-- Node7 -->
<g id="node7" class="node">
<title>Node7</title>
<g id="a_node7"><a xlink:href="../../d5/d48/classCloneable.html" target="_top" xlink:title=" ">
<polygon fill="white" stroke="black" points="37,-139.5 37,-158.5 102,-158.5 102,-139.5 37,-139.5"/>
<text text-anchor="middle" x="69.5" y="-146.5" font-family="Helvetica,sans-Serif" font-size="10.00">Cloneable</text>
</a>
</g>
</g>
<!-- Node7&#45;&gt;Node2 -->
<g id="edge6" class="edge">
<title>Node7&#45;&gt;Node2</title>
<path fill="none" stroke="midnightblue" d="M111.99,-158.13C121.1,-160.78 130.54,-164.06 139,-168 169.43,-182.18 200.74,-205.42 219.79,-220.72"/>
<polygon fill="midnightblue" stroke="midnightblue" points="112.88,-154.74 102.31,-155.49 111.04,-161.5 112.88,-154.74"/>
</g>
<!-- Node9 -->
<g id="node9" class="node">
<title>Node9</title>
<g id="a_node9"><a xlink:href="../../db/dd1/classjavolution_1_1util_1_1internal_1_1map_1_1sorted_1_1AtomicSortedMapImpl.html" target="_top" xlink:title=" ">
<polygon fill="white" stroke="black" points="734,-368.5 734,-409.5 930,-409.5 930,-368.5 734,-368.5"/>
<text text-anchor="start" x="742" y="-397.5" font-family="Helvetica,sans-Serif" font-size="10.00">javolution::util::internal</text>
<text text-anchor="start" x="742" y="-386.5" font-family="Helvetica,sans-Serif" font-size="10.00">::map::sorted::AtomicSortedMapImpl</text>
<text text-anchor="middle" x="832" y="-375.5" font-family="Helvetica,sans-Serif" font-size="10.00">&lt; K, V &gt;</text>
</a>
</g>
</g>
<!-- Node8&#45;&gt;Node9 -->
<g id="edge8" class="edge">
<title>Node8&#45;&gt;Node9</title>
<path fill="none" stroke="midnightblue" d="M707.66,-389C716.3,-389 725.06,-389 733.73,-389"/>
<polygon fill="midnightblue" stroke="midnightblue" points="707.59,-385.5 697.59,-389 707.59,-392.5 707.59,-385.5"/>
</g>
<!-- Node14 -->
<g id="node14" class="node">
<title>Node14</title>
<g id="a_node14"><a xlink:href="../../d2/dcd/classjavolution_1_1util_1_1internal_1_1map_1_1sorted_1_1SharedSortedMapImpl.html" target="_top" xlink:title=" ">
<polygon fill="white" stroke="black" points="734.5,-180.5 734.5,-221.5 929.5,-221.5 929.5,-180.5 734.5,-180.5"/>
<text text-anchor="start" x="742.5" y="-209.5" font-family="Helvetica,sans-Serif" font-size="10.00">javolution::util::internal</text>
<text text-anchor="start" x="742.5" y="-198.5" font-family="Helvetica,sans-Serif" font-size="10.00">::map::sorted::SharedSortedMapImpl</text>
<text text-anchor="middle" x="832" y="-187.5" font-family="Helvetica,sans-Serif" font-size="10.00">&lt; K, V &gt;</text>
</a>
</g>
</g>
<!-- Node13&#45;&gt;Node14 -->
<g id="edge13" class="edge">
<title>Node13&#45;&gt;Node14</title>
<path fill="none" stroke="midnightblue" d="M707.28,-189.62C716.2,-190.44 725.26,-191.28 734.2,-192.1"/>
<polygon fill="midnightblue" stroke="midnightblue" points="707.56,-186.13 697.28,-188.7 706.92,-193.1 707.56,-186.13"/>
</g>
<!-- Node16 -->
<g id="node16" class="node">
<title>Node16</title>
<g id="a_node16"><a xlink:href="../../d7/d93/classjavolution_1_1util_1_1internal_1_1map_1_1sorted_1_1FastSortedMapImpl.html" target="_top" xlink:title=" ">
<polygon fill="white" stroke="black" points="741.5,-120.5 741.5,-161.5 922.5,-161.5 922.5,-120.5 741.5,-120.5"/>
<text text-anchor="start" x="749.5" y="-149.5" font-family="Helvetica,sans-Serif" font-size="10.00">javolution::util::internal</text>
<text text-anchor="start" x="749.5" y="-138.5" font-family="Helvetica,sans-Serif" font-size="10.00">::map::sorted::FastSortedMapImpl</text>
<text text-anchor="middle" x="832" y="-127.5" font-family="Helvetica,sans-Serif" font-size="10.00">&lt; K, V &gt;</text>
</a>
</g>
</g>
<!-- Node15&#45;&gt;Node16 -->
<g id="edge15" class="edge">
<title>Node15&#45;&gt;Node16</title>
<path fill="none" stroke="midnightblue" d="M704.87,-132.3C716.96,-133.14 729.35,-133.99 741.41,-134.82"/>
<polygon fill="midnightblue" stroke="midnightblue" points="705.02,-128.8 694.8,-131.61 704.53,-135.79 705.02,-128.8"/>
</g>
<!-- Node17 -->
<g id="node17" class="node">
<title>Node17</title>
<g id="a_node17"><a xlink:href="../../d3/d09/classjavolution_1_1util_1_1internal_1_1map_1_1sorted_1_1SubSortedMapImpl.html" target="_top" xlink:title=" ">
<polygon fill="white" stroke="black" points="742.5,-60.5 742.5,-101.5 921.5,-101.5 921.5,-60.5 742.5,-60.5"/>
<text text-anchor="start" x="750.5" y="-89.5" font-family="Helvetica,sans-Serif" font-size="10.00">javolution::util::internal</text>
<text text-anchor="start" x="750.5" y="-78.5" font-family="Helvetica,sans-Serif" font-size="10.00">::map::sorted::SubSortedMapImpl</text>
<text text-anchor="middle" x="832" y="-67.5" font-family="Helvetica,sans-Serif" font-size="10.00">&lt; K, V &gt;</text>
</a>
</g>
</g>
<!-- Node15&#45;&gt;Node17 -->
<g id="edge16" class="edge">
<title>Node15&#45;&gt;Node17</title>
<path fill="none" stroke="midnightblue" d="M704.66,-107.14C717.07,-104.57 729.78,-101.94 742.14,-99.38"/>
<polygon fill="midnightblue" stroke="midnightblue" points="703.88,-103.73 694.8,-109.18 705.3,-110.58 703.88,-103.73"/>
</g>
<!-- Node19 -->
<g id="node19" class="node">
<title>Node19</title>
<g id="a_node19"><a xlink:href="../../dc/d9c/classjavolution_1_1util_1_1internal_1_1map_1_1sorted_1_1UnmodifiableSortedMapImpl.html" target="_top" xlink:title=" ">
<polygon fill="white" stroke="black" points="740,-0.5 740,-41.5 924,-41.5 924,-0.5 740,-0.5"/>
<text text-anchor="start" x="748" y="-29.5" font-family="Helvetica,sans-Serif" font-size="10.00">javolution::util::internal</text>
<text text-anchor="start" x="748" y="-18.5" font-family="Helvetica,sans-Serif" font-size="10.00">::map::sorted::UnmodifiableSorted</text>
<text text-anchor="middle" x="832" y="-7.5" font-family="Helvetica,sans-Serif" font-size="10.00">MapImpl&lt; K, V &gt;</text>
</a>
</g>
</g>
<!-- Node18&#45;&gt;Node19 -->
<g id="edge18" class="edge">
<title>Node18&#45;&gt;Node19</title>
<path fill="none" stroke="midnightblue" d="M701.69,-38.84C714.24,-37.1 727.17,-35.32 739.78,-33.58"/>
<polygon fill="midnightblue" stroke="midnightblue" points="701.14,-35.38 691.72,-40.21 702.1,-42.31 701.14,-35.38"/>
</g>
</g>
</svg>
        <g id="navigator" transform="translate(0 0)" fill="#404254">
                <rect fill="#f2f5e9" fill-opacity="0.5" stroke="#606060" stroke-width=".5" x="0" y="0" width="60" height="60"/>
                <use id="zoomplus" xlink:href="#zoomPlus" x="17" y="9" onmousedown="handleZoom(evt,'in')"/>
                <use id="zoomminus" xlink:href="#zoomMin" x="42" y="9" onmousedown="handleZoom(evt,'out')"/>
                <use id="reset" xlink:href="#resetDef" x="30" y="36" onmousedown="handleReset()"/>
                <g id="arrowUp" xlink:href="#dirArrow" transform="translate(30 24)" onmousedown="handlePan(0,-1)">
                  <use xlink:href="#rim" fill="#404040">
                        <set attributeName="fill" to="#808080" begin="arrowUp.mouseover" end="arrowUp.mouseout"/>
                  </use>
                  <path fill="none" stroke="white" stroke-width="1.5" d="M0,-3.0v7 M-2.5,-0.5L0,-3.0L2.5,-0.5"/>
                </g>
                <g id="arrowRight" xlink:href="#dirArrow" transform="rotate(90) translate(36 -43)" onmousedown="handlePan(1,0)">
                  <use xlink:href="#rim" fill="#404040">
                        <set attributeName="fill" to="#808080" begin="arrowRight.mouseover" end="arrowRight.mouseout"/>
                  </use>
                  <path fill="none" stroke="white" stroke-width="1.5" d="M0,-3.0v7 M-2.5,-0.5L0,-3.0L2.5,-0.5"/>
                </g>
                <g id="arrowDown" xlink:href="#dirArrow" transform="rotate(180) translate(-30 -48)" onmousedown="handlePan(0,1)">
                  <use xlink:href="#rim" fill="#404040">
                        <set attributeName="fill" to="#808080" begin="arrowDown.mouseover" end="arrowDown.mouseout"/>
                  </use>
                  <path fill="none" stroke="white" stroke-width="1.5" d="M0,-3.0v7 M-2.5,-0.5L0,-3.0L2.5,-0.5"/>
                </g>
                <g id="arrowLeft" xlink:href="#dirArrow" transform="rotate(270) translate(-36 17)" onmousedown="handlePan(-1,0)">
                  <use xlink:href="#rim" fill="#404040">
                        <set attributeName="fill" to="#808080" begin="arrowLeft.mouseover" end="arrowLeft.mouseout"/>
                  </use>
                  <path fill="none" stroke="white" stroke-width="1.5" d="M0,-3.0v7 M-2.5,-0.5L0,-3.0L2.5,-0.5"/>
                </g>
        </g>
        <svg viewBox="0 0 15 15" width="100%" height="30px" preserveAspectRatio="xMaxYMin meet">
         <g id="arrow_out" transform="scale(0.3 0.3)">
          <a xlink:href="classjavolution_1_1util_1_1internal_1_1map_1_1MapView__inherit__graph_org.svg" target="_base">
           <rect id="button" ry="5" rx="5" y="6" x="6" height="38" width="38"
                fill="#f2f5e9" fill-opacity="0.5" stroke="#606060" stroke-width="1.0"/>
           <path id="arrow"
             d="M 11.500037,31.436501 C 11.940474,20.09759 22.043105,11.32322 32.158766,21.979434 L 37.068811,17.246167 C 37.068811,17.246167 37.088388,32 37.088388,32 L 22.160133,31.978069 C 22.160133,31.978069 26.997745,27.140456 26.997745,27.140456 C 18.528582,18.264221 13.291696,25.230495 11.500037,31.436501 z"
             style="fill:#404040;"/>
          </a>
         </g>
        </svg>
</svg>
