<?xml version="1.0" encoding="UTF-8" standalone="no"?>
<!DOCTYPE svg PUBLIC "-//W3C//DTD SVG 1.1//EN"
 "http://www.w3.org/Graphics/SVG/1.1/DTD/svg11.dtd">
<!-- Generated by graphviz version 2.43.0 (0)
 -->
<!-- Title: javolution.util.internal.table.sorted.AtomicSortedTableImpl.addIfAbsent Pages: 1 -->
<svg width="826pt" height="186pt"
 viewBox="0.00 0.00 826.00 186.00" xmlns="http://www.w3.org/2000/svg" xmlns:xlink="http://www.w3.org/1999/xlink">
<g id="graph0" class="graph" transform="scale(1 1) rotate(0) translate(4 182)">
<title>javolution.util.internal.table.sorted.AtomicSortedTableImpl.addIfAbsent</title>
<polygon fill="white" stroke="transparent" points="-4,4 -4,-182 822,-182 822,4 -4,4"/>
<!-- Node1 -->
<g id="node1" class="node">
<title>Node1</title>
<g id="a_node1"><a xlink:title=" ">
<polygon fill="#bfbfbf" stroke="black" points="0,-73.5 0,-103.5 191,-103.5 191,-73.5 0,-73.5"/>
<text text-anchor="start" x="8" y="-91.5" font-family="Helvetica,sans-Serif" font-size="10.00">javolution.util.internal.table.sorted.</text>
<text text-anchor="middle" x="95.5" y="-80.5" font-family="Helvetica,sans-Serif" font-size="10.00">AtomicSortedTableImpl.addIfAbsent</text>
</a>
</g>
</g>
<!-- Node2 -->
<g id="node2" class="node">
<title>Node2</title>
<g id="a_node2"><a xlink:href="../../d3/d15/classjavolution_1_1util_1_1internal_1_1collection_1_1AtomicCollectionImpl.html#a601550e0737dd6b11b86be2d9877c82f" target="_top" xlink:title=" ">
<polygon fill="white" stroke="black" points="241,-147.5 241,-177.5 422,-177.5 422,-147.5 241,-147.5"/>
<text text-anchor="start" x="249" y="-165.5" font-family="Helvetica,sans-Serif" font-size="10.00">javolution.util.internal.collection.</text>
<text text-anchor="middle" x="331.5" y="-154.5" font-family="Helvetica,sans-Serif" font-size="10.00">AtomicCollectionImpl.cloneTarget</text>
</a>
</g>
</g>
<!-- Node1&#45;&gt;Node2 -->
<g id="edge1" class="edge">
<title>Node1&#45;&gt;Node2</title>
<path fill="none" stroke="midnightblue" d="M131.76,-103.53C157.76,-114.24 194.17,-128.46 227,-138.5 234.38,-140.76 242.11,-142.92 249.88,-144.95"/>
<polygon fill="midnightblue" stroke="midnightblue" points="249.17,-148.38 259.72,-147.46 250.9,-141.6 249.17,-148.38"/>
</g>
<!-- Node3 -->
<g id="node3" class="node">
<title>Node3</title>
<g id="a_node3"><a xlink:href="../../db/da7/classjavolution_1_1util_1_1internal_1_1table_1_1AtomicTableImpl.html#ac740c7de0c77ad273e1f6f4434375eb4" target="_top" xlink:title=" ">
<polygon fill="white" stroke="black" points="254,-98.5 254,-128.5 409,-128.5 409,-98.5 254,-98.5"/>
<text text-anchor="start" x="262" y="-116.5" font-family="Helvetica,sans-Serif" font-size="10.00">javolution.util.internal.table.</text>
<text text-anchor="middle" x="331.5" y="-105.5" font-family="Helvetica,sans-Serif" font-size="10.00">AtomicTableImpl.element</text>
</a>
</g>
</g>
<!-- Node1&#45;&gt;Node3 -->
<g id="edge2" class="edge">
<title>Node1&#45;&gt;Node3</title>
<path fill="none" stroke="midnightblue" d="M191,-98.6C208.5,-100.47 226.69,-102.41 243.94,-104.25"/>
<polygon fill="midnightblue" stroke="midnightblue" points="243.65,-107.74 253.97,-105.32 244.4,-100.78 243.65,-107.74"/>
</g>
<!-- Node6 -->
<g id="node6" class="node">
<title>Node6</title>
<g id="a_node6"><a xlink:href="../../d9/d49/classjavolution_1_1util_1_1internal_1_1table_1_1sorted_1_1AtomicSortedTableImpl.html#ae780ba6ca34a2f0dcc4cd25f9c708683" target="_top" xlink:title=" ">
<polygon fill="white" stroke="black" points="237,-49.5 237,-79.5 426,-79.5 426,-49.5 237,-49.5"/>
<text text-anchor="start" x="245" y="-67.5" font-family="Helvetica,sans-Serif" font-size="10.00">javolution.util.internal.table.sorted.</text>
<text text-anchor="middle" x="331.5" y="-56.5" font-family="Helvetica,sans-Serif" font-size="10.00">AtomicSortedTableImpl.target</text>
</a>
</g>
</g>
<!-- Node1&#45;&gt;Node6 -->
<g id="edge5" class="edge">
<title>Node1&#45;&gt;Node6</title>
<path fill="none" stroke="midnightblue" d="M191,-78.81C202.79,-77.6 214.9,-76.36 226.83,-75.13"/>
<polygon fill="midnightblue" stroke="midnightblue" points="227.2,-78.61 236.79,-74.11 226.48,-71.65 227.2,-78.61"/>
</g>
<!-- Node7 -->
<g id="node7" class="node">
<title>Node7</title>
<g id="a_node7"><a xlink:href="../../d3/d15/classjavolution_1_1util_1_1internal_1_1collection_1_1AtomicCollectionImpl.html#aeb7c1191fea46f9623291a9ba2db3994" target="_top" xlink:title=" ">
<polygon fill="white" stroke="black" points="227,-0.5 227,-30.5 436,-30.5 436,-0.5 227,-0.5"/>
<text text-anchor="start" x="235" y="-18.5" font-family="Helvetica,sans-Serif" font-size="10.00">javolution.util.internal.collection.</text>
<text text-anchor="middle" x="331.5" y="-7.5" font-family="Helvetica,sans-Serif" font-size="10.00">AtomicCollectionImpl.updateInProgress</text>
</a>
</g>
</g>
<!-- Node1&#45;&gt;Node7 -->
<g id="edge6" class="edge">
<title>Node1&#45;&gt;Node7</title>
<path fill="none" stroke="midnightblue" d="M133.8,-73.47C159.69,-63.37 195.12,-50.18 227,-40.5 235.57,-37.9 244.61,-35.38 253.63,-33.02"/>
<polygon fill="midnightblue" stroke="midnightblue" points="254.57,-36.39 263.38,-30.52 252.83,-29.61 254.57,-36.39"/>
</g>
<!-- Node4 -->
<g id="node4" class="node">
<title>Node4</title>
<g id="a_node4"><a xlink:href="../../db/da7/classjavolution_1_1util_1_1internal_1_1table_1_1AtomicTableImpl.html#a24b432a2126374c2c20364cdb0f44273" target="_top" xlink:title=" ">
<polygon fill="white" stroke="black" points="472,-98.5 472,-128.5 627,-128.5 627,-98.5 472,-98.5"/>
<text text-anchor="start" x="480" y="-116.5" font-family="Helvetica,sans-Serif" font-size="10.00">javolution.util.internal.table.</text>
<text text-anchor="middle" x="549.5" y="-105.5" font-family="Helvetica,sans-Serif" font-size="10.00">AtomicTableImpl.getFirst</text>
</a>
</g>
</g>
<!-- Node3&#45;&gt;Node4 -->
<g id="edge3" class="edge">
<title>Node3&#45;&gt;Node4</title>
<path fill="none" stroke="midnightblue" d="M409.26,-113.5C426.29,-113.5 444.45,-113.5 461.85,-113.5"/>
<polygon fill="midnightblue" stroke="midnightblue" points="461.99,-117 471.99,-113.5 461.99,-110 461.99,-117"/>
</g>
<!-- Node5 -->
<g id="node5" class="node">
<title>Node5</title>
<g id="a_node5"><a xlink:href="../../db/da7/classjavolution_1_1util_1_1internal_1_1table_1_1AtomicTableImpl.html#af7a0dd8a4ae428ee194160884adaf113" target="_top" xlink:title=" ">
<polygon fill="white" stroke="black" points="663,-98.5 663,-128.5 818,-128.5 818,-98.5 663,-98.5"/>
<text text-anchor="start" x="671" y="-116.5" font-family="Helvetica,sans-Serif" font-size="10.00">javolution.util.internal.table.</text>
<text text-anchor="middle" x="740.5" y="-105.5" font-family="Helvetica,sans-Serif" font-size="10.00">AtomicTableImpl.targetView</text>
</a>
</g>
</g>
<!-- Node4&#45;&gt;Node5 -->
<g id="edge4" class="edge">
<title>Node4&#45;&gt;Node5</title>
<path fill="none" stroke="midnightblue" d="M627.1,-113.5C635.56,-113.5 644.22,-113.5 652.79,-113.5"/>
<polygon fill="midnightblue" stroke="midnightblue" points="652.79,-117 662.79,-113.5 652.79,-110 652.79,-117"/>
</g>
</g>
</svg>
