<?xml version="1.0" encoding="UTF-8" standalone="no"?>
<!DOCTYPE svg PUBLIC "-//W3C//DTD SVG 1.1//EN"
 "http://www.w3.org/Graphics/SVG/1.1/DTD/svg11.dtd">
<!-- Generated by graphviz version 2.43.0 (0)
 -->
<!-- Title: javolution.util.internal.table.sorted.AtomicSortedTableImpl.positionOf Pages: 1 -->
<svg width="804pt" height="88pt"
 viewBox="0.00 0.00 804.00 88.00" xmlns="http://www.w3.org/2000/svg" xmlns:xlink="http://www.w3.org/1999/xlink">
<g id="graph0" class="graph" transform="scale(1 1) rotate(0) translate(4 84)">
<title>javolution.util.internal.table.sorted.AtomicSortedTableImpl.positionOf</title>
<polygon fill="white" stroke="transparent" points="-4,4 -4,-84 800,-84 800,4 -4,4"/>
<!-- Node1 -->
<g id="node1" class="node">
<title>Node1</title>
<g id="a_node1"><a xlink:title=" ">
<polygon fill="#bfbfbf" stroke="black" points="0,-24.5 0,-54.5 189,-54.5 189,-24.5 0,-24.5"/>
<text text-anchor="start" x="8" y="-42.5" font-family="Helvetica,sans-Serif" font-size="10.00">javolution.util.internal.table.sorted.</text>
<text text-anchor="middle" x="94.5" y="-31.5" font-family="Helvetica,sans-Serif" font-size="10.00">AtomicSortedTableImpl.positionOf</text>
</a>
</g>
</g>
<!-- Node2 -->
<g id="node2" class="node">
<title>Node2</title>
<g id="a_node2"><a xlink:href="../../db/da7/classjavolution_1_1util_1_1internal_1_1table_1_1AtomicTableImpl.html#ac740c7de0c77ad273e1f6f4434375eb4" target="_top" xlink:title=" ">
<polygon fill="white" stroke="black" points="242,-49.5 242,-79.5 397,-79.5 397,-49.5 242,-49.5"/>
<text text-anchor="start" x="250" y="-67.5" font-family="Helvetica,sans-Serif" font-size="10.00">javolution.util.internal.table.</text>
<text text-anchor="middle" x="319.5" y="-56.5" font-family="Helvetica,sans-Serif" font-size="10.00">AtomicTableImpl.element</text>
</a>
</g>
</g>
<!-- Node1&#45;&gt;Node2 -->
<g id="edge1" class="edge">
<title>Node1&#45;&gt;Node2</title>
<path fill="none" stroke="midnightblue" d="M189.1,-49.99C203.2,-51.57 217.69,-53.2 231.64,-54.76"/>
<polygon fill="midnightblue" stroke="midnightblue" points="231.36,-58.25 241.69,-55.89 232.14,-51.3 231.36,-58.25"/>
</g>
<!-- Node5 -->
<g id="node5" class="node">
<title>Node5</title>
<g id="a_node5"><a xlink:href="../../d9/d49/classjavolution_1_1util_1_1internal_1_1table_1_1sorted_1_1AtomicSortedTableImpl.html#aa5bd9432c127aa2378971417298e7312" target="_top" xlink:title=" ">
<polygon fill="white" stroke="black" points="225,-0.5 225,-30.5 414,-30.5 414,-0.5 225,-0.5"/>
<text text-anchor="start" x="233" y="-18.5" font-family="Helvetica,sans-Serif" font-size="10.00">javolution.util.internal.table.sorted.</text>
<text text-anchor="middle" x="319.5" y="-7.5" font-family="Helvetica,sans-Serif" font-size="10.00">AtomicSortedTableImpl.targetView</text>
</a>
</g>
</g>
<!-- Node1&#45;&gt;Node5 -->
<g id="edge4" class="edge">
<title>Node1&#45;&gt;Node5</title>
<path fill="none" stroke="midnightblue" d="M189.1,-29.43C197.58,-28.51 206.21,-27.59 214.77,-26.66"/>
<polygon fill="midnightblue" stroke="midnightblue" points="215.21,-30.14 224.78,-25.59 214.46,-23.18 215.21,-30.14"/>
</g>
<!-- Node3 -->
<g id="node3" class="node">
<title>Node3</title>
<g id="a_node3"><a xlink:href="../../db/da7/classjavolution_1_1util_1_1internal_1_1table_1_1AtomicTableImpl.html#a24b432a2126374c2c20364cdb0f44273" target="_top" xlink:title=" ">
<polygon fill="white" stroke="black" points="450,-49.5 450,-79.5 605,-79.5 605,-49.5 450,-49.5"/>
<text text-anchor="start" x="458" y="-67.5" font-family="Helvetica,sans-Serif" font-size="10.00">javolution.util.internal.table.</text>
<text text-anchor="middle" x="527.5" y="-56.5" font-family="Helvetica,sans-Serif" font-size="10.00">AtomicTableImpl.getFirst</text>
</a>
</g>
</g>
<!-- Node2&#45;&gt;Node3 -->
<g id="edge2" class="edge">
<title>Node2&#45;&gt;Node3</title>
<path fill="none" stroke="midnightblue" d="M397.21,-64.5C411.01,-64.5 425.5,-64.5 439.57,-64.5"/>
<polygon fill="midnightblue" stroke="midnightblue" points="439.73,-68 449.73,-64.5 439.73,-61 439.73,-68"/>
</g>
<!-- Node4 -->
<g id="node4" class="node">
<title>Node4</title>
<g id="a_node4"><a xlink:href="../../db/da7/classjavolution_1_1util_1_1internal_1_1table_1_1AtomicTableImpl.html#af7a0dd8a4ae428ee194160884adaf113" target="_top" xlink:title=" ">
<polygon fill="white" stroke="black" points="641,-49.5 641,-79.5 796,-79.5 796,-49.5 641,-49.5"/>
<text text-anchor="start" x="649" y="-67.5" font-family="Helvetica,sans-Serif" font-size="10.00">javolution.util.internal.table.</text>
<text text-anchor="middle" x="718.5" y="-56.5" font-family="Helvetica,sans-Serif" font-size="10.00">AtomicTableImpl.targetView</text>
</a>
</g>
</g>
<!-- Node3&#45;&gt;Node4 -->
<g id="edge3" class="edge">
<title>Node3&#45;&gt;Node4</title>
<path fill="none" stroke="midnightblue" d="M605.1,-64.5C613.56,-64.5 622.22,-64.5 630.79,-64.5"/>
<polygon fill="midnightblue" stroke="midnightblue" points="630.79,-68 640.79,-64.5 630.79,-61 630.79,-68"/>
</g>
</g>
</svg>
