<?xml version="1.0" encoding="UTF-8" standalone="no"?>
<!DOCTYPE svg PUBLIC "-//W3C//DTD SVG 1.1//EN"
 "http://www.w3.org/Graphics/SVG/1.1/DTD/svg11.dtd">
<!-- Generated by graphviz version 2.43.0 (0)
 -->
<!-- Title: javolution.util.internal.map.FastMapImpl.remove Pages: 1 -->
<svg width="354pt" height="235pt"
 viewBox="0.00 0.00 354.00 235.00" xmlns="http://www.w3.org/2000/svg" xmlns:xlink="http://www.w3.org/1999/xlink">
<g id="graph0" class="graph" transform="scale(1 1) rotate(0) translate(4 231)">
<title>javolution.util.internal.map.FastMapImpl.remove</title>
<polygon fill="white" stroke="transparent" points="-4,4 -4,-231 350,-231 350,4 -4,4"/>
<!-- Node1 -->
<g id="node1" class="node">
<title>Node1</title>
<g id="a_node1"><a xlink:title=" ">
<polygon fill="#bfbfbf" stroke="black" points="0,-98.5 0,-128.5 152,-128.5 152,-98.5 0,-98.5"/>
<text text-anchor="start" x="8" y="-116.5" font-family="Helvetica,sans-Serif" font-size="10.00">javolution.util.internal.map.</text>
<text text-anchor="middle" x="76" y="-105.5" font-family="Helvetica,sans-Serif" font-size="10.00">FastMapImpl.remove</text>
</a>
</g>
</g>
<!-- Node2 -->
<g id="node2" class="node">
<title>Node2</title>
<g id="a_node2"><a xlink:href="../../de/d72/interfacejavolution_1_1util_1_1function_1_1Equality.html#a70831c35ee00dc470c9cadc2b5f36869" target="_top" xlink:title=" ">
<polygon fill="white" stroke="black" points="202,-196.5 202,-226.5 332,-226.5 332,-196.5 202,-196.5"/>
<text text-anchor="start" x="210" y="-214.5" font-family="Helvetica,sans-Serif" font-size="10.00">javolution.util.function.</text>
<text text-anchor="middle" x="267" y="-203.5" font-family="Helvetica,sans-Serif" font-size="10.00">Equality.areEqual</text>
</a>
</g>
</g>
<!-- Node1&#45;&gt;Node2 -->
<g id="edge1" class="edge">
<title>Node1&#45;&gt;Node2</title>
<path fill="none" stroke="midnightblue" d="M96.02,-128.69C117.35,-145.11 153.48,-171.11 188,-187.5 192,-189.4 196.18,-191.19 200.44,-192.87"/>
<polygon fill="midnightblue" stroke="midnightblue" points="199.26,-196.17 209.86,-196.38 201.71,-189.61 199.26,-196.17"/>
</g>
<!-- Node3 -->
<g id="node3" class="node">
<title>Node3</title>
<g id="a_node3"><a xlink:href="../../dd/d8f/classjavolution_1_1util_1_1internal_1_1map_1_1FastMapImpl.html#a88aea01ff5f24ce403a8f87eb1334d1c" target="_top" xlink:title=" ">
<polygon fill="white" stroke="black" points="191,-147.5 191,-177.5 343,-177.5 343,-147.5 191,-147.5"/>
<text text-anchor="start" x="199" y="-165.5" font-family="Helvetica,sans-Serif" font-size="10.00">javolution.util.internal.map.</text>
<text text-anchor="middle" x="267" y="-154.5" font-family="Helvetica,sans-Serif" font-size="10.00">FastMapImpl.detachEntry</text>
</a>
</g>
</g>
<!-- Node1&#45;&gt;Node3 -->
<g id="edge2" class="edge">
<title>Node1&#45;&gt;Node3</title>
<path fill="none" stroke="midnightblue" d="M134.99,-128.53C155.04,-133.73 177.67,-139.6 198.42,-144.98"/>
<polygon fill="midnightblue" stroke="midnightblue" points="197.56,-148.37 208.12,-147.49 199.32,-141.6 197.56,-148.37"/>
</g>
<!-- Node4 -->
<g id="node4" class="node">
<title>Node4</title>
<g id="a_node4"><a xlink:href="../../d7/df6/classjavolution_1_1util_1_1internal_1_1map_1_1FractalMapImpl.html#a2649de0c4b1df91be616e70dcafd425b" target="_top" xlink:title=" ">
<polygon fill="white" stroke="black" points="191,-98.5 191,-128.5 343,-128.5 343,-98.5 191,-98.5"/>
<text text-anchor="start" x="199" y="-116.5" font-family="Helvetica,sans-Serif" font-size="10.00">javolution.util.internal.map.</text>
<text text-anchor="middle" x="267" y="-105.5" font-family="Helvetica,sans-Serif" font-size="10.00">FractalMapImpl.getEntry</text>
</a>
</g>
</g>
<!-- Node1&#45;&gt;Node4 -->
<g id="edge3" class="edge">
<title>Node1&#45;&gt;Node4</title>
<path fill="none" stroke="midnightblue" d="M152.24,-113.5C161.54,-113.5 171.1,-113.5 180.53,-113.5"/>
<polygon fill="midnightblue" stroke="midnightblue" points="180.71,-117 190.71,-113.5 180.71,-110 180.71,-117"/>
</g>
<!-- Node5 -->
<g id="node5" class="node">
<title>Node5</title>
<g id="a_node5"><a xlink:href="../../de/d72/interfacejavolution_1_1util_1_1function_1_1Equality.html#a7caf3726931806649d0ab50bf9a3d67a" target="_top" xlink:title=" ">
<polygon fill="white" stroke="black" points="202,-49.5 202,-79.5 332,-79.5 332,-49.5 202,-49.5"/>
<text text-anchor="start" x="210" y="-67.5" font-family="Helvetica,sans-Serif" font-size="10.00">javolution.util.function.</text>
<text text-anchor="middle" x="267" y="-56.5" font-family="Helvetica,sans-Serif" font-size="10.00">Equality.hashCodeOf</text>
</a>
</g>
</g>
<!-- Node1&#45;&gt;Node5 -->
<g id="edge4" class="edge">
<title>Node1&#45;&gt;Node5</title>
<path fill="none" stroke="midnightblue" d="M134.99,-98.47C155.04,-93.27 177.67,-87.4 198.42,-82.02"/>
<polygon fill="midnightblue" stroke="midnightblue" points="199.32,-85.4 208.12,-79.51 197.56,-78.63 199.32,-85.4"/>
</g>
<!-- Node6 -->
<g id="node6" class="node">
<title>Node6</title>
<g id="a_node6"><a xlink:href="../../d7/df6/classjavolution_1_1util_1_1internal_1_1map_1_1FractalMapImpl.html#a19499ca800bf5c9574eaca1ce382dad6" target="_top" xlink:title=" ">
<polygon fill="white" stroke="black" points="188,-0.5 188,-30.5 346,-30.5 346,-0.5 188,-0.5"/>
<text text-anchor="start" x="196" y="-18.5" font-family="Helvetica,sans-Serif" font-size="10.00">javolution.util.internal.map.</text>
<text text-anchor="middle" x="267" y="-7.5" font-family="Helvetica,sans-Serif" font-size="10.00">FractalMapImpl.removeEntry</text>
</a>
</g>
</g>
<!-- Node1&#45;&gt;Node6 -->
<g id="edge5" class="edge">
<title>Node1&#45;&gt;Node6</title>
<path fill="none" stroke="midnightblue" d="M96.48,-98.31C117.92,-82.19 153.87,-56.82 188,-40.5 192.69,-38.26 197.63,-36.15 202.66,-34.17"/>
<polygon fill="midnightblue" stroke="midnightblue" points="204.23,-37.32 212.38,-30.55 201.79,-30.76 204.23,-37.32"/>
</g>
</g>
</svg>
