<?xml version="1.0" encoding="UTF-8" standalone="no"?>
<!DOCTYPE svg PUBLIC "-//W3C//DTD SVG 1.1//EN"
 "http://www.w3.org/Graphics/SVG/1.1/DTD/svg11.dtd">
<!-- Generated by graphviz version 2.43.0 (0)
 -->
<!-- Title: javolution.context.internal.LocalContextImpl Pages: 1 -->
<svg width="347pt" height="263pt"
 viewBox="0.00 0.00 347.00 263.00" xmlns="http://www.w3.org/2000/svg" xmlns:xlink="http://www.w3.org/1999/xlink">
<g id="graph0" class="graph" transform="scale(1 1) rotate(0) translate(4 259)">
<title>javolution.context.internal.LocalContextImpl</title>
<polygon fill="white" stroke="transparent" points="-4,4 -4,-259 343,-259 343,4 -4,4"/>
<!-- Node1 -->
<g id="node1" class="node">
<title>Node1</title>
<g id="a_node1"><a xlink:title=" ">
<polygon fill="#bfbfbf" stroke="black" points="110,-0.5 110,-30.5 259,-30.5 259,-0.5 110,-0.5"/>
<text text-anchor="start" x="118" y="-18.5" font-family="Helvetica,sans-Serif" font-size="10.00">javolution.context.internal.</text>
<text text-anchor="middle" x="184.5" y="-7.5" font-family="Helvetica,sans-Serif" font-size="10.00">LocalContextImpl</text>
</a>
</g>
</g>
<!-- Node1&#45;&gt;Node1 -->
<g id="edge5" class="edge">
<title>Node1&#45;&gt;Node1</title>
<path fill="none" stroke="#9a32cd" stroke-dasharray="5,2" d="M269.19,-20.35C274.08,-19.19 277,-17.57 277,-15.5 277,-12.27 269.88,-10.14 259.26,-9.11"/>
<polygon fill="#9a32cd" stroke="#9a32cd" points="268.61,-16.9 259.26,-21.89 269.68,-23.82 268.61,-16.9"/>
<text text-anchor="middle" x="294.5" y="-13" font-family="Helvetica,sans-Serif" font-size="10.00"> parent</text>
</g>
<!-- Node2 -->
<g id="node2" class="node">
<title>Node2</title>
<g id="a_node2"><a xlink:href="../../da/d02/classjavolution_1_1context_1_1LocalContext.html" target="_top" xlink:title=" ">
<polygon fill="white" stroke="black" points="37.5,-78.5 37.5,-108.5 171.5,-108.5 171.5,-78.5 37.5,-78.5"/>
<text text-anchor="start" x="45.5" y="-96.5" font-family="Helvetica,sans-Serif" font-size="10.00">javolution.context.Local</text>
<text text-anchor="middle" x="104.5" y="-85.5" font-family="Helvetica,sans-Serif" font-size="10.00">Context</text>
</a>
</g>
</g>
<!-- Node2&#45;&gt;Node1 -->
<g id="edge1" class="edge">
<title>Node2&#45;&gt;Node1</title>
<path fill="none" stroke="midnightblue" d="M127.1,-71.03C140.68,-58.13 157.58,-42.07 169.52,-30.73"/>
<polygon fill="midnightblue" stroke="midnightblue" points="124.39,-68.78 119.55,-78.2 129.21,-73.85 124.39,-68.78"/>
</g>
<!-- Node3 -->
<g id="node3" class="node">
<title>Node3</title>
<g id="a_node3"><a xlink:href="../../d3/d0f/classjavolution_1_1context_1_1AbstractContext.html" target="_top" xlink:title=" ">
<polygon fill="white" stroke="black" points="30,-146.5 30,-176.5 179,-176.5 179,-146.5 30,-146.5"/>
<text text-anchor="start" x="38" y="-164.5" font-family="Helvetica,sans-Serif" font-size="10.00">javolution.context.Abstract</text>
<text text-anchor="middle" x="104.5" y="-153.5" font-family="Helvetica,sans-Serif" font-size="10.00">Context</text>
</a>
</g>
</g>
<!-- Node3&#45;&gt;Node2 -->
<g id="edge2" class="edge">
<title>Node3&#45;&gt;Node2</title>
<path fill="none" stroke="midnightblue" d="M104.5,-136.03C104.5,-126.86 104.5,-116.74 104.5,-108.79"/>
<polygon fill="midnightblue" stroke="midnightblue" points="101,-136.18 104.5,-146.18 108,-136.18 101,-136.18"/>
</g>
<!-- Node3&#45;&gt;Node3 -->
<g id="edge4" class="edge">
<title>Node3&#45;&gt;Node3</title>
<path fill="none" stroke="#9a32cd" stroke-dasharray="5,2" d="M189.19,-165.84C194.08,-164.8 197,-163.35 197,-161.5 197,-158.61 189.88,-156.7 179.26,-155.78"/>
<polygon fill="#9a32cd" stroke="#9a32cd" points="188.69,-162.38 179.26,-167.22 189.65,-169.31 188.69,-162.38"/>
<text text-anchor="middle" x="211.5" y="-159" font-family="Helvetica,sans-Serif" font-size="10.00"> outer</text>
</g>
<!-- Node4 -->
<g id="node4" class="node">
<title>Node4</title>
<g id="a_node4"><a xlink:title=" ">
<polygon fill="white" stroke="#bfbfbf" points="0,-224.5 0,-254.5 209,-254.5 209,-224.5 0,-224.5"/>
<text text-anchor="start" x="8" y="-242.5" font-family="Helvetica,sans-Serif" font-size="10.00">static final ThreadLocal</text>
<text text-anchor="middle" x="104.5" y="-231.5" font-family="Helvetica,sans-Serif" font-size="10.00">&lt; javolution.context.AbstractContext &gt;</text>
</a>
</g>
</g>
<!-- Node4&#45;&gt;Node3 -->
<g id="edge3" class="edge">
<title>Node4&#45;&gt;Node3</title>
<path fill="none" stroke="#9a32cd" stroke-dasharray="5,2" d="M104.5,-214.09C104.5,-201.76 104.5,-187.22 104.5,-176.73"/>
<polygon fill="#9a32cd" stroke="#9a32cd" points="101,-214.2 104.5,-224.2 108,-214.21 101,-214.2"/>
<text text-anchor="middle" x="130" y="-198" font-family="Helvetica,sans-Serif" font-size="10.00"> CURRENT</text>
</g>
<!-- Node5 -->
<g id="node5" class="node">
<title>Node5</title>
<g id="a_node5"><a xlink:href="../../dd/d46/classjavolution_1_1util_1_1FastMap.html" target="_top" xlink:title=" ">
<polygon fill="white" stroke="black" points="190,-78.5 190,-108.5 339,-108.5 339,-78.5 190,-78.5"/>
<text text-anchor="start" x="198" y="-96.5" font-family="Helvetica,sans-Serif" font-size="10.00">javolution.util.FastMap</text>
<text text-anchor="middle" x="264.5" y="-85.5" font-family="Helvetica,sans-Serif" font-size="10.00">&lt; Parameter&lt;?&gt;, Object &gt;</text>
</a>
</g>
</g>
<!-- Node5&#45;&gt;Node1 -->
<g id="edge6" class="edge">
<title>Node5&#45;&gt;Node1</title>
<path fill="none" stroke="#9a32cd" stroke-dasharray="5,2" d="M241.9,-71.03C228.32,-58.13 211.42,-42.07 199.48,-30.73"/>
<polygon fill="#9a32cd" stroke="#9a32cd" points="239.79,-73.85 249.45,-78.2 244.61,-68.78 239.79,-73.85"/>
<text text-anchor="middle" x="263" y="-52" font-family="Helvetica,sans-Serif" font-size="10.00"> localSettings</text>
</g>
</g>
</svg>
