<?xml version="1.0" encoding="UTF-8" standalone="no"?>
<!DOCTYPE svg PUBLIC "-//W3C//DTD SVG 1.1//EN"
 "http://www.w3.org/Graphics/SVG/1.1/DTD/svg11.dtd">
<!-- Generated by graphviz version 2.43.0 (0)
 -->
<!-- Title: javolution.xml.stream.XMLInputFactory Pages: 1 -->
<svg width="202pt" height="128pt"
 viewBox="0.00 0.00 201.50 128.00" xmlns="http://www.w3.org/2000/svg" xmlns:xlink="http://www.w3.org/1999/xlink">
<g id="graph0" class="graph" transform="scale(1 1) rotate(0) translate(4 124)">
<title>javolution.xml.stream.XMLInputFactory</title>
<polygon fill="white" stroke="transparent" points="-4,4 -4,-124 197.5,-124 197.5,4 -4,4"/>
<!-- Node1 -->
<g id="node1" class="node">
<title>Node1</title>
<g id="a_node1"><a xlink:title=" ">
<polygon fill="#bfbfbf" stroke="black" points="0,-0.5 0,-30.5 173,-30.5 173,-0.5 0,-0.5"/>
<text text-anchor="start" x="8" y="-18.5" font-family="Helvetica,sans-Serif" font-size="10.00">javolution.xml.stream.XMLInput</text>
<text text-anchor="middle" x="86.5" y="-7.5" font-family="Helvetica,sans-Serif" font-size="10.00">Factory</text>
</a>
</g>
</g>
<!-- Node2 -->
<g id="node2" class="node">
<title>Node2</title>
<g id="a_node2"><a xlink:href="../../d5/d48/classCloneable.html" target="_top" xlink:title=" ">
<polygon fill="white" stroke="black" points="18,-100.5 18,-119.5 83,-119.5 83,-100.5 18,-100.5"/>
<text text-anchor="middle" x="50.5" y="-107.5" font-family="Helvetica,sans-Serif" font-size="10.00">Cloneable</text>
</a>
</g>
</g>
<!-- Node2&#45;&gt;Node1 -->
<g id="edge1" class="edge">
<title>Node2&#45;&gt;Node1</title>
<path fill="none" stroke="midnightblue" d="M57.59,-90.79C64.45,-73.17 74.7,-46.82 80.97,-30.7"/>
<polygon fill="midnightblue" stroke="midnightblue" points="54.19,-89.88 53.82,-100.46 60.71,-92.41 54.19,-89.88"/>
</g>
<!-- Node3 -->
<g id="node3" class="node">
<title>Node3</title>
<g id="a_node3"><a xlink:title=" ">
<polygon fill="white" stroke="#bfbfbf" points="101,-100.5 101,-119.5 146,-119.5 146,-100.5 101,-100.5"/>
<text text-anchor="middle" x="123.5" y="-107.5" font-family="Helvetica,sans-Serif" font-size="10.00">String</text>
</a>
</g>
</g>
<!-- Node3&#45;&gt;Node1 -->
<g id="edge2" class="edge">
<title>Node3&#45;&gt;Node1</title>
<path fill="none" stroke="#9a32cd" stroke-dasharray="5,2" d="M116.22,-90.79C109.17,-73.17 98.63,-46.82 92.18,-30.7"/>
<polygon fill="#9a32cd" stroke="#9a32cd" points="113.12,-92.48 120.09,-100.46 119.62,-89.88 113.12,-92.48"/>
<text text-anchor="middle" x="153" y="-74" font-family="Helvetica,sans-Serif" font-size="10.00"> IS_COALESCING</text>
<text text-anchor="middle" x="153" y="-63" font-family="Helvetica,sans-Serif" font-size="10.00">ENTITIES</text>
<text text-anchor="middle" x="153" y="-52" font-family="Helvetica,sans-Serif" font-size="10.00">IS_VALIDATING</text>
</g>
</g>
</svg>
