<?xml version="1.0" encoding="UTF-8" standalone="no"?>
<!DOCTYPE svg PUBLIC "-//W3C//DTD SVG 1.1//EN"
 "http://www.w3.org/Graphics/SVG/1.1/DTD/svg11.dtd">
<!-- Generated by graphviz version 2.43.0 (0)
 -->
<!-- Title: javolution.util.internal.map.sorted.AtomicSortedMapImpl&lt; K, V &gt; Pages: 1 -->
<svg width="1100pt" height="262pt"
 viewBox="0.00 0.00 1100.00 261.52" xmlns="http://www.w3.org/2000/svg" xmlns:xlink="http://www.w3.org/1999/xlink">
<g id="graph0" class="graph" transform="scale(1 1) rotate(0) translate(4 257.52)">
<title>javolution.util.internal.map.sorted.AtomicSortedMapImpl&lt; K, V &gt;</title>
<polygon fill="white" stroke="transparent" points="-4,4 -4,-257.52 1096,-257.52 1096,4 -4,4"/>
<!-- Node1 -->
<g id="node1" class="node">
<title>Node1</title>
<g id="a_node1"><a xlink:title=" ">
<polygon fill="#bfbfbf" stroke="black" points="906,-68.52 906,-98.52 1092,-98.52 1092,-68.52 906,-68.52"/>
<text text-anchor="start" x="914" y="-86.52" font-family="Helvetica,sans-Serif" font-size="10.00">javolution.util.internal.map.sorted.</text>
<text text-anchor="middle" x="999" y="-75.52" font-family="Helvetica,sans-Serif" font-size="10.00">AtomicSortedMapImpl&lt; K, V &gt;</text>
</a>
</g>
</g>
<!-- Node2 -->
<g id="node2" class="node">
<title>Node2</title>
<g id="a_node2"><a xlink:href="../../d8/d68/classjavolution_1_1util_1_1internal_1_1map_1_1AtomicMapImpl.html" target="_top" xlink:title=" ">
<polygon fill="white" stroke="black" points="699,-68.52 699,-98.52 869,-98.52 869,-68.52 699,-68.52"/>
<text text-anchor="start" x="707" y="-86.52" font-family="Helvetica,sans-Serif" font-size="10.00">javolution::util::internal</text>
<text text-anchor="middle" x="784" y="-75.52" font-family="Helvetica,sans-Serif" font-size="10.00">::map::AtomicMapImpl&lt; K, V &gt;</text>
</a>
</g>
</g>
<!-- Node2&#45;&gt;Node1 -->
<g id="edge1" class="edge">
<title>Node2&#45;&gt;Node1</title>
<path fill="none" stroke="midnightblue" d="M879.37,-83.52C888.1,-83.52 896.94,-83.52 905.65,-83.52"/>
<polygon fill="midnightblue" stroke="midnightblue" points="879.18,-80.02 869.18,-83.52 879.18,-87.02 879.18,-80.02"/>
</g>
<!-- Node3 -->
<g id="node3" class="node">
<title>Node3</title>
<g id="a_node3"><a xlink:href="../../d0/d83/classjavolution_1_1util_1_1internal_1_1map_1_1MapView.html" target="_top" xlink:title=" ">
<polygon fill="white" stroke="black" points="433,-41.52 433,-71.52 570,-71.52 570,-41.52 433,-41.52"/>
<text text-anchor="start" x="441" y="-59.52" font-family="Helvetica,sans-Serif" font-size="10.00">javolution::util::internal</text>
<text text-anchor="middle" x="501.5" y="-48.52" font-family="Helvetica,sans-Serif" font-size="10.00">::map::MapView&lt; K, V &gt;</text>
</a>
</g>
</g>
<!-- Node3&#45;&gt;Node2 -->
<g id="edge2" class="edge">
<title>Node3&#45;&gt;Node2</title>
<path fill="none" stroke="midnightblue" d="M580.25,-64C617.15,-67.55 661.31,-71.8 698.98,-75.43"/>
<polygon fill="midnightblue" stroke="midnightblue" points="580.33,-60.49 570.04,-63.02 579.66,-67.46 580.33,-60.49"/>
</g>
<!-- Node4 -->
<g id="node4" class="node">
<title>Node4</title>
<g id="a_node4"><a xlink:href="../../d7/d30/interfacejavolution_1_1util_1_1service_1_1MapService.html" target="_top" xlink:title=" ">
<polygon fill="white" stroke="black" points="176,-129.52 176,-159.52 304,-159.52 304,-129.52 176,-129.52"/>
<text text-anchor="start" x="184" y="-147.52" font-family="Helvetica,sans-Serif" font-size="10.00">javolution::util::service</text>
<text text-anchor="middle" x="240" y="-136.52" font-family="Helvetica,sans-Serif" font-size="10.00">::MapService&lt; K, V &gt;</text>
</a>
</g>
</g>
<!-- Node4&#45;&gt;Node3 -->
<g id="edge3" class="edge">
<title>Node4&#45;&gt;Node3</title>
<path fill="none" stroke="midnightblue" d="M293.97,-126.22C330.71,-113.57 380.79,-96.41 425,-81.52 434.55,-78.3 444.8,-74.89 454.56,-71.65"/>
<polygon fill="midnightblue" stroke="midnightblue" points="292.77,-122.93 284.45,-129.5 295.05,-129.55 292.77,-122.93"/>
</g>
<!-- Node14 -->
<g id="node14" class="node">
<title>Node14</title>
<g id="a_node14"><a xlink:href="../../de/dc6/interfacejavolution_1_1util_1_1service_1_1SortedMapService.html" target="_top" xlink:title=" ">
<polygon fill="white" stroke="black" points="425,-178.52 425,-208.52 578,-208.52 578,-178.52 425,-178.52"/>
<text text-anchor="start" x="433" y="-196.52" font-family="Helvetica,sans-Serif" font-size="10.00">javolution::util::service</text>
<text text-anchor="middle" x="501.5" y="-185.52" font-family="Helvetica,sans-Serif" font-size="10.00">::SortedMapService&lt; K, V &gt;</text>
</a>
</g>
</g>
<!-- Node4&#45;&gt;Node14 -->
<g id="edge15" class="edge">
<title>Node4&#45;&gt;Node14</title>
<path fill="none" stroke="midnightblue" d="M314.15,-158.33C348.63,-164.84 389.74,-172.6 424.57,-179.18"/>
<polygon fill="midnightblue" stroke="midnightblue" points="314.62,-154.86 304.15,-156.44 313.33,-161.74 314.62,-154.86"/>
</g>
<!-- Node5 -->
<g id="node5" class="node">
<title>Node5</title>
<g id="a_node5"><a xlink:title=" ">
<polygon fill="white" stroke="#bfbfbf" points="5.5,-234.02 5.5,-253.02 133.5,-253.02 133.5,-234.02 5.5,-234.02"/>
<text text-anchor="middle" x="69.5" y="-241.02" font-family="Helvetica,sans-Serif" font-size="10.00">java::util::Map&lt; K, V &gt;</text>
</a>
</g>
</g>
<!-- Node5&#45;&gt;Node4 -->
<g id="edge4" class="edge">
<title>Node5&#45;&gt;Node4</title>
<path fill="none" stroke="midnightblue" d="M130.39,-229.78C133.4,-228.22 136.3,-226.47 139,-224.52 162.9,-207.29 153.06,-188 176,-169.52 180.76,-165.68 186.19,-162.37 191.82,-159.53"/>
<polygon fill="midnightblue" stroke="midnightblue" points="128.74,-226.69 121.04,-233.98 131.6,-233.08 128.74,-226.69"/>
</g>
<!-- Node6 -->
<g id="node6" class="node">
<title>Node6</title>
<g id="a_node6"><a xlink:title=" ">
<polygon fill="white" stroke="#bfbfbf" points="0,-184.52 0,-214.52 139,-214.52 139,-184.52 0,-184.52"/>
<text text-anchor="start" x="8" y="-202.52" font-family="Helvetica,sans-Serif" font-size="10.00">java::util::concurrent</text>
<text text-anchor="middle" x="69.5" y="-191.52" font-family="Helvetica,sans-Serif" font-size="10.00">::ConcurrentMap&lt; K, V &gt;</text>
</a>
</g>
</g>
<!-- Node6&#45;&gt;Node4 -->
<g id="edge5" class="edge">
<title>Node6&#45;&gt;Node4</title>
<path fill="none" stroke="midnightblue" d="M126.26,-181.32C147.91,-174.25 172.4,-166.26 193.01,-159.53"/>
<polygon fill="midnightblue" stroke="midnightblue" points="124.96,-178.06 116.54,-184.49 127.14,-184.71 124.96,-178.06"/>
</g>
<!-- Node7 -->
<g id="node7" class="node">
<title>Node7</title>
<g id="a_node7"><a xlink:href="../../dd/ded/interfacejavolution_1_1util_1_1function_1_1Splittable.html" target="_top" xlink:title=" ">
<polygon fill="white" stroke="black" points="1,-124.02 1,-165.02 138,-165.02 138,-124.02 1,-124.02"/>
<text text-anchor="start" x="9" y="-153.02" font-family="Helvetica,sans-Serif" font-size="10.00">javolution::util::function</text>
<text text-anchor="start" x="9" y="-142.02" font-family="Helvetica,sans-Serif" font-size="10.00">::Splittable&lt; MapService</text>
<text text-anchor="middle" x="69.5" y="-131.02" font-family="Helvetica,sans-Serif" font-size="10.00">&lt; K, V &gt; &gt;</text>
</a>
</g>
</g>
<!-- Node7&#45;&gt;Node4 -->
<g id="edge6" class="edge">
<title>Node7&#45;&gt;Node4</title>
<path fill="none" stroke="midnightblue" d="M148.07,-144.52C157.36,-144.52 166.75,-144.52 175.79,-144.52"/>
<polygon fill="midnightblue" stroke="midnightblue" points="148.06,-141.02 138.06,-144.52 148.06,-148.02 148.06,-141.02"/>
</g>
<!-- Node8 -->
<g id="node8" class="node">
<title>Node8</title>
<g id="a_node8"><a xlink:title=" ">
<polygon fill="white" stroke="#bfbfbf" points="32.5,-86.02 32.5,-105.02 106.5,-105.02 106.5,-86.02 32.5,-86.02"/>
<text text-anchor="middle" x="69.5" y="-93.02" font-family="Helvetica,sans-Serif" font-size="10.00">Serializable</text>
</a>
</g>
</g>
<!-- Node8&#45;&gt;Node4 -->
<g id="edge7" class="edge">
<title>Node8&#45;&gt;Node4</title>
<path fill="none" stroke="midnightblue" d="M115.24,-107.78C123.16,-110 131.33,-112.3 139,-114.52 155.54,-119.29 173.58,-124.66 189.72,-129.51"/>
<polygon fill="midnightblue" stroke="midnightblue" points="115.96,-104.35 105.39,-105.04 114.08,-111.09 115.96,-104.35"/>
</g>
<!-- Node9 -->
<g id="node9" class="node">
<title>Node9</title>
<g id="a_node9"><a xlink:href="../../d5/d48/classCloneable.html" target="_top" xlink:title=" ">
<polygon fill="white" stroke="black" points="37,-48.02 37,-67.02 102,-67.02 102,-48.02 37,-48.02"/>
<text text-anchor="middle" x="69.5" y="-55.02" font-family="Helvetica,sans-Serif" font-size="10.00">Cloneable</text>
</a>
</g>
</g>
<!-- Node9&#45;&gt;Node4 -->
<g id="edge8" class="edge">
<title>Node9&#45;&gt;Node4</title>
<path fill="none" stroke="midnightblue" d="M111.98,-66.68C121.08,-69.33 130.53,-72.59 139,-76.52 155.29,-84.06 194.43,-111.87 218.63,-129.5"/>
<polygon fill="midnightblue" stroke="midnightblue" points="112.87,-63.29 102.3,-64.04 111.03,-70.05 112.87,-63.29"/>
</g>
<!-- Node10 -->
<g id="node10" class="node">
<title>Node10</title>
<g id="a_node10"><a xlink:title=" ">
<polygon fill="white" stroke="#bfbfbf" points="182,-69.02 182,-88.02 298,-88.02 298,-69.02 182,-69.02"/>
<text text-anchor="middle" x="240" y="-76.02" font-family="Helvetica,sans-Serif" font-size="10.00">MapService&lt; K, V &gt;</text>
</a>
</g>
</g>
<!-- Node10&#45;&gt;Node3 -->
<g id="edge9" class="edge">
<title>Node10&#45;&gt;Node3</title>
<path fill="none" stroke="#9a32cd" stroke-dasharray="5,2" d="M308.3,-72.81C346.6,-69.57 394.43,-65.51 432.8,-62.26"/>
<polygon fill="#9a32cd" stroke="#9a32cd" points="307.94,-69.33 298.27,-73.66 308.53,-76.31 307.94,-69.33"/>
<text text-anchor="middle" x="364.5" y="-73.52" font-family="Helvetica,sans-Serif" font-size="10.00"> target</text>
</g>
<!-- Node11 -->
<g id="node11" class="node">
<title>Node11</title>
<g id="a_node11"><a xlink:title=" ">
<polygon fill="white" stroke="#bfbfbf" points="194,-2.02 194,-21.02 286,-21.02 286,-2.02 194,-2.02"/>
<text text-anchor="middle" x="240" y="-9.02" font-family="Helvetica,sans-Serif" font-size="10.00">static final long</text>
</a>
</g>
</g>
<!-- Node11&#45;&gt;Node1 -->
<g id="edge17" class="edge">
<title>Node11&#45;&gt;Node1</title>
<path fill="none" stroke="#9a32cd" stroke-dasharray="5,2" d="M296.59,-5.3C305.09,-4.56 313.77,-3.92 322,-3.52 359.73,-1.66 369.22,-3.41 407,-3.52 528.81,-3.87 560.37,7.35 681,-9.52 776.01,-22.8 884.4,-51.01 946.65,-68.5"/>
<polygon fill="#9a32cd" stroke="#9a32cd" points="295.99,-1.84 286.35,-6.24 296.63,-8.81 295.99,-1.84"/>
<text text-anchor="middle" x="638.5" y="-12.52" font-family="Helvetica,sans-Serif" font-size="10.00"> serialVersionUID</text>
</g>
<!-- Node11&#45;&gt;Node2 -->
<g id="edge13" class="edge">
<title>Node11&#45;&gt;Node2</title>
<path fill="none" stroke="#9a32cd" stroke-dasharray="5,2" d="M296.41,-8.43C363.54,-5.74 479.86,-4.44 578,-20.52 637.89,-30.33 704.62,-53.19 745.21,-68.5"/>
<polygon fill="#9a32cd" stroke="#9a32cd" points="295.91,-4.95 286.06,-8.87 296.2,-11.94 295.91,-4.95"/>
<text text-anchor="middle" x="501.5" y="-23.52" font-family="Helvetica,sans-Serif" font-size="10.00"> serialVersionUID</text>
</g>
<!-- Node11&#45;&gt;Node3 -->
<g id="edge10" class="edge">
<title>Node11&#45;&gt;Node3</title>
<path fill="none" stroke="#9a32cd" stroke-dasharray="5,2" d="M296.29,-21.11C336.24,-28.03 390.41,-37.43 432.92,-44.8"/>
<polygon fill="#9a32cd" stroke="#9a32cd" points="296.65,-17.62 286.2,-19.36 295.46,-24.51 296.65,-17.62"/>
<text text-anchor="middle" x="364.5" y="-42.52" font-family="Helvetica,sans-Serif" font-size="10.00"> serialVersionUID</text>
</g>
<!-- Node12 -->
<g id="node12" class="node">
<title>Node12</title>
<g id="a_node12"><a xlink:title=" ">
<polygon fill="white" stroke="#bfbfbf" points="445,-129.52 445,-159.52 558,-159.52 558,-129.52 445,-129.52"/>
<text text-anchor="start" x="453" y="-147.52" font-family="Helvetica,sans-Serif" font-size="10.00">volatile MapService</text>
<text text-anchor="middle" x="501.5" y="-136.52" font-family="Helvetica,sans-Serif" font-size="10.00">&lt; K, V &gt;</text>
</a>
</g>
</g>
<!-- Node12&#45;&gt;Node2 -->
<g id="edge11" class="edge">
<title>Node12&#45;&gt;Node2</title>
<path fill="none" stroke="#9a32cd" stroke-dasharray="5,2" d="M568.36,-132.52C602.13,-126.13 643.87,-117.88 681,-109.52 695.8,-106.18 711.72,-102.28 726.49,-98.52"/>
<polygon fill="#9a32cd" stroke="#9a32cd" points="567.33,-129.15 558.15,-134.44 568.62,-136.03 567.33,-129.15"/>
<text text-anchor="middle" x="638.5" y="-129.52" font-family="Helvetica,sans-Serif" font-size="10.00"> immutable</text>
</g>
<!-- Node13 -->
<g id="node13" class="node">
<title>Node13</title>
<g id="a_node13"><a xlink:title=" ">
<polygon fill="white" stroke="#bfbfbf" points="453,-91.02 453,-110.02 550,-110.02 550,-91.02 453,-91.02"/>
<text text-anchor="middle" x="501.5" y="-98.02" font-family="Helvetica,sans-Serif" font-size="10.00">transient Thread</text>
</a>
</g>
</g>
<!-- Node13&#45;&gt;Node2 -->
<g id="edge12" class="edge">
<title>Node13&#45;&gt;Node2</title>
<path fill="none" stroke="#9a32cd" stroke-dasharray="5,2" d="M560.19,-97.02C600.17,-94.6 654.05,-91.33 698.81,-88.62"/>
<polygon fill="#9a32cd" stroke="#9a32cd" points="559.85,-93.54 550.08,-97.63 560.28,-100.52 559.85,-93.54"/>
<text text-anchor="middle" x="638.5" y="-97.52" font-family="Helvetica,sans-Serif" font-size="10.00"> updatingThread</text>
</g>
<!-- Node14&#45;&gt;Node1 -->
<g id="edge14" class="edge">
<title>Node14&#45;&gt;Node1</title>
<path fill="none" stroke="midnightblue" d="M580.05,-176.3C676.23,-154.95 838.62,-118.9 930.09,-98.59"/>
<polygon fill="midnightblue" stroke="midnightblue" points="579.1,-172.93 570.1,-178.51 580.62,-179.76 579.1,-172.93"/>
</g>
<!-- Node15 -->
<g id="node15" class="node">
<title>Node15</title>
<g id="a_node15"><a xlink:title=" ">
<polygon fill="white" stroke="#bfbfbf" points="181,-178.52 181,-208.52 299,-208.52 299,-178.52 181,-178.52"/>
<text text-anchor="start" x="189" y="-196.52" font-family="Helvetica,sans-Serif" font-size="10.00">java::util::SortedMap</text>
<text text-anchor="middle" x="240" y="-185.52" font-family="Helvetica,sans-Serif" font-size="10.00">&lt; K, V &gt;</text>
</a>
</g>
</g>
<!-- Node15&#45;&gt;Node14 -->
<g id="edge16" class="edge">
<title>Node15&#45;&gt;Node14</title>
<path fill="none" stroke="midnightblue" d="M309.49,-193.52C344.92,-193.52 388.27,-193.52 424.71,-193.52"/>
<polygon fill="midnightblue" stroke="midnightblue" points="309.24,-190.02 299.24,-193.52 309.24,-197.02 309.24,-190.02"/>
</g>
</g>
</svg>
