<?xml version="1.0" encoding="UTF-8" standalone="no"?>
<!DOCTYPE svg PUBLIC "-//W3C//DTD SVG 1.1//EN"
 "http://www.w3.org/Graphics/SVG/1.1/DTD/svg11.dtd">
<!-- Generated by graphviz version 2.43.0 (0)
 -->
<!-- Title: javolution.xml.sax.SAX2ReaderImpl.Proxy.getType Pages: 1 -->
<svg width="415pt" height="78pt"
 viewBox="0.00 0.00 415.00 77.50" xmlns="http://www.w3.org/2000/svg" xmlns:xlink="http://www.w3.org/1999/xlink">
<g id="graph0" class="graph" transform="scale(1 1) rotate(0) translate(4 73.5)">
<title>javolution.xml.sax.SAX2ReaderImpl.Proxy.getType</title>
<polygon fill="white" stroke="transparent" points="-4,4 -4,-73.5 411,-73.5 411,4 -4,4"/>
<!-- Node1 -->
<g id="node1" class="node">
<title>Node1</title>
<g id="a_node1"><a xlink:title=" ">
<polygon fill="#bfbfbf" stroke="black" points="0,-22.5 0,-52.5 171,-52.5 171,-22.5 0,-22.5"/>
<text text-anchor="start" x="8" y="-40.5" font-family="Helvetica,sans-Serif" font-size="10.00">javolution.xml.sax.SAX2Reader</text>
<text text-anchor="middle" x="85.5" y="-29.5" font-family="Helvetica,sans-Serif" font-size="10.00">Impl.Proxy.getType</text>
</a>
</g>
</g>
<!-- Node2 -->
<g id="node2" class="node">
<title>Node2</title>
<g id="a_node2"><a xlink:href="../../d4/d5e/interfacejavolution_1_1xml_1_1sax_1_1Attributes.html#a65df798068353595869153bec220a367" target="_top" xlink:title=" ">
<polygon fill="white" stroke="black" points="207,-50 207,-69 407,-69 407,-50 207,-50"/>
<text text-anchor="middle" x="307" y="-57" font-family="Helvetica,sans-Serif" font-size="10.00">javolution.xml.sax.Attributes.getType</text>
</a>
</g>
</g>
<!-- Node1&#45;&gt;Node2 -->
<g id="edge1" class="edge">
<title>Node1&#45;&gt;Node2</title>
<path fill="none" stroke="midnightblue" d="M171.05,-45.97C180.83,-46.95 190.9,-47.96 200.91,-48.97"/>
<polygon fill="midnightblue" stroke="midnightblue" points="200.59,-52.45 210.89,-49.97 201.29,-45.49 200.59,-52.45"/>
</g>
<!-- Node3 -->
<g id="node3" class="node">
<title>Node3</title>
<g id="a_node3"><a xlink:href="../../d5/de1/classjavolution_1_1xml_1_1sax_1_1SAX2ReaderImpl.html#a2beee3d6a97b85e4466a3324ea5f930e" target="_top" xlink:title=" ">
<polygon fill="white" stroke="black" points="221.5,-0.5 221.5,-30.5 392.5,-30.5 392.5,-0.5 221.5,-0.5"/>
<text text-anchor="start" x="229.5" y="-18.5" font-family="Helvetica,sans-Serif" font-size="10.00">javolution.xml.sax.SAX2Reader</text>
<text text-anchor="middle" x="307" y="-7.5" font-family="Helvetica,sans-Serif" font-size="10.00">Impl.toCharSequence</text>
</a>
</g>
</g>
<!-- Node1&#45;&gt;Node3 -->
<g id="edge2" class="edge">
<title>Node1&#45;&gt;Node3</title>
<path fill="none" stroke="midnightblue" d="M171.05,-29.03C184.24,-27.7 197.93,-26.33 211.32,-24.99"/>
<polygon fill="midnightblue" stroke="midnightblue" points="211.89,-28.45 221.49,-23.97 211.19,-21.48 211.89,-28.45"/>
</g>
</g>
</svg>
