<?xml version="1.0" encoding="UTF-8" standalone="no"?>
<!DOCTYPE svg PUBLIC "-//W3C//DTD SVG 1.1//EN"
 "http://www.w3.org/Graphics/SVG/1.1/DTD/svg11.dtd">
<!-- Generated by graphviz version 2.43.0 (0)
 -->
<!-- Title: javolution.xml.sax.SAX2ReaderImpl.Proxy.getIndex Pages: 1 -->
<svg width="593pt" height="61pt"
 viewBox="0.00 0.00 593.00 61.00" xmlns="http://www.w3.org/2000/svg" xmlns:xlink="http://www.w3.org/1999/xlink">
<g id="graph0" class="graph" transform="scale(1 1) rotate(0) translate(4 57)">
<title>javolution.xml.sax.SAX2ReaderImpl.Proxy.getIndex</title>
<polygon fill="white" stroke="transparent" points="-4,4 -4,-57 589,-57 589,4 -4,4"/>
<!-- Node1 -->
<g id="node1" class="node">
<title>Node1</title>
<g id="a_node1"><a xlink:title=" ">
<polygon fill="#bfbfbf" stroke="black" points="0,-0.5 0,-30.5 171,-30.5 171,-0.5 0,-0.5"/>
<text text-anchor="start" x="8" y="-18.5" font-family="Helvetica,sans-Serif" font-size="10.00">javolution.xml.sax.SAX2Reader</text>
<text text-anchor="middle" x="85.5" y="-7.5" font-family="Helvetica,sans-Serif" font-size="10.00">Impl.Proxy.getIndex</text>
</a>
</g>
</g>
<!-- Node2 -->
<g id="node2" class="node">
<title>Node2</title>
<g id="a_node2"><a xlink:href="../../dc/d8f/classjavolution_1_1xml_1_1sax_1_1SAX2ReaderImpl_1_1Proxy.html#a7377a735db621ee06a72adbd7e9b0606" target="_top" xlink:title=" ">
<polygon fill="white" stroke="black" points="207,-22.5 207,-52.5 378,-52.5 378,-22.5 207,-22.5"/>
<text text-anchor="start" x="215" y="-40.5" font-family="Helvetica,sans-Serif" font-size="10.00">javolution.xml.sax.SAX2Reader</text>
<text text-anchor="middle" x="292.5" y="-29.5" font-family="Helvetica,sans-Serif" font-size="10.00">Impl.Proxy.getIndex</text>
</a>
</g>
</g>
<!-- Node1&#45;&gt;Node2 -->
<g id="edge1" class="edge">
<title>Node1&#45;&gt;Node2</title>
<path fill="none" stroke="midnightblue" d="M171.06,-24.58C179.55,-25.49 188.2,-26.41 196.78,-27.33"/>
<polygon fill="midnightblue" stroke="midnightblue" points="196.48,-30.82 206.8,-28.41 197.23,-23.86 196.48,-30.82"/>
</g>
<!-- Node3 -->
<g id="node3" class="node">
<title>Node3</title>
<g id="a_node3"><a xlink:href="../../d5/de1/classjavolution_1_1xml_1_1sax_1_1SAX2ReaderImpl.html#a2beee3d6a97b85e4466a3324ea5f930e" target="_top" xlink:title=" ">
<polygon fill="white" stroke="black" points="414,-0.5 414,-30.5 585,-30.5 585,-0.5 414,-0.5"/>
<text text-anchor="start" x="422" y="-18.5" font-family="Helvetica,sans-Serif" font-size="10.00">javolution.xml.sax.SAX2Reader</text>
<text text-anchor="middle" x="499.5" y="-7.5" font-family="Helvetica,sans-Serif" font-size="10.00">Impl.toCharSequence</text>
</a>
</g>
</g>
<!-- Node1&#45;&gt;Node3 -->
<g id="edge3" class="edge">
<title>Node1&#45;&gt;Node3</title>
<path fill="none" stroke="midnightblue" d="M171.1,-13.92C183.15,-13.74 195.39,-13.6 207,-13.5 283,-12.87 302,-12.87 378,-13.5 386.35,-13.57 395.02,-13.67 403.71,-13.78"/>
<polygon fill="midnightblue" stroke="midnightblue" points="403.86,-17.28 413.9,-13.92 403.95,-10.28 403.86,-17.28"/>
</g>
<!-- Node2&#45;&gt;Node3 -->
<g id="edge2" class="edge">
<title>Node2&#45;&gt;Node3</title>
<path fill="none" stroke="midnightblue" d="M378.06,-28.42C386.55,-27.51 395.2,-26.59 403.78,-25.67"/>
<polygon fill="midnightblue" stroke="midnightblue" points="404.23,-29.14 413.8,-24.59 403.48,-22.18 404.23,-29.14"/>
</g>
</g>
</svg>
