<?xml version="1.0" encoding="UTF-8" standalone="no"?>
<!DOCTYPE svg PUBLIC "-//W3C//DTD SVG 1.1//EN"
 "http://www.w3.org/Graphics/SVG/1.1/DTD/svg11.dtd">
<!-- Generated by graphviz version 2.43.0 (0)
 -->
<!-- Title: javolution.io.CharSequenceReader.read Pages: 1 -->
<svg width="578pt" height="222pt"
 viewBox="0.00 0.00 578.00 222.00" xmlns="http://www.w3.org/2000/svg" xmlns:xlink="http://www.w3.org/1999/xlink">
<g id="graph0" class="graph" transform="scale(1 1) rotate(0) translate(4 218)">
<title>javolution.io.CharSequenceReader.read</title>
<polygon fill="white" stroke="transparent" points="-4,4 -4,-218 574,-218 574,4 -4,4"/>
<!-- Node1 -->
<g id="node1" class="node">
<title>Node1</title>
<g id="a_node1"><a xlink:title=" ">
<polygon fill="#bfbfbf" stroke="black" points="0,-101 0,-131 150,-131 150,-101 0,-101"/>
<text text-anchor="start" x="8" y="-119" font-family="Helvetica,sans-Serif" font-size="10.00">javolution.io.CharSequence</text>
<text text-anchor="middle" x="75" y="-108" font-family="Helvetica,sans-Serif" font-size="10.00">Reader.read</text>
</a>
</g>
</g>
<!-- Node2 -->
<g id="node2" class="node">
<title>Node2</title>
<g id="a_node2"><a xlink:href="../../d0/d36/classjavolution_1_1text_1_1CharArray.html#a1b743b96fd62cbec154a6ca6c5df9d03" target="_top" xlink:title=" ">
<polygon fill="white" stroke="black" points="187,-194.5 187,-213.5 354,-213.5 354,-194.5 187,-194.5"/>
<text text-anchor="middle" x="270.5" y="-201.5" font-family="Helvetica,sans-Serif" font-size="10.00">javolution.text.CharArray.array</text>
</a>
</g>
</g>
<!-- Node1&#45;&gt;Node2 -->
<g id="edge1" class="edge">
<title>Node1&#45;&gt;Node2</title>
<path fill="none" stroke="midnightblue" d="M95.56,-131.14C116.73,-146.83 152.04,-170.96 186,-185 192.18,-187.56 198.78,-189.8 205.44,-191.77"/>
<polygon fill="midnightblue" stroke="midnightblue" points="204.65,-195.18 215.22,-194.45 206.5,-188.43 204.65,-195.18"/>
</g>
<!-- Node3 -->
<g id="node3" class="node">
<title>Node3</title>
<g id="a_node3"><a xlink:href="../../d2/d7a/classjavolution_1_1text_1_1TextBuilder.html#aad9dff80172c5e04aa996be73b4374e0" target="_top" xlink:title=" ">
<polygon fill="white" stroke="black" points="188.5,-145 188.5,-175 352.5,-175 352.5,-145 188.5,-145"/>
<text text-anchor="start" x="196.5" y="-163" font-family="Helvetica,sans-Serif" font-size="10.00">javolution.text.TextBuilder.get</text>
<text text-anchor="middle" x="270.5" y="-152" font-family="Helvetica,sans-Serif" font-size="10.00">Chars</text>
</a>
</g>
</g>
<!-- Node1&#45;&gt;Node3 -->
<g id="edge2" class="edge">
<title>Node1&#45;&gt;Node3</title>
<path fill="none" stroke="midnightblue" d="M142.05,-131.02C158.62,-134.79 176.52,-138.86 193.53,-142.72"/>
<polygon fill="midnightblue" stroke="midnightblue" points="192.89,-146.17 203.42,-144.97 194.44,-139.34 192.89,-146.17"/>
</g>
<!-- Node5 -->
<g id="node5" class="node">
<title>Node5</title>
<g id="a_node5"><a xlink:href="../../d4/d14/classjavolution_1_1lang_1_1MathLib.html#a61d82d4ab96ea86fb7868daf1c203048" target="_top" xlink:title=" ">
<polygon fill="white" stroke="black" points="404,-109.5 404,-128.5 557,-128.5 557,-109.5 404,-109.5"/>
<text text-anchor="middle" x="480.5" y="-116.5" font-family="Helvetica,sans-Serif" font-size="10.00">javolution.lang.MathLib.min</text>
</a>
</g>
</g>
<!-- Node1&#45;&gt;Node5 -->
<g id="edge7" class="edge">
<title>Node1&#45;&gt;Node5</title>
<path fill="none" stroke="midnightblue" d="M150.01,-116.55C218.89,-117.06 321.52,-117.83 393.9,-118.36"/>
<polygon fill="midnightblue" stroke="midnightblue" points="393.88,-121.86 403.91,-118.44 393.93,-114.86 393.88,-121.86"/>
</g>
<!-- Node6 -->
<g id="node6" class="node">
<title>Node6</title>
<g id="a_node6"><a xlink:href="../../dc/d6d/classjavolution_1_1text_1_1Text.html#a5ebc6a09946ae53d0f4ef5ace0831bc2" target="_top" xlink:title=" ">
<polygon fill="white" stroke="black" points="205.5,-39 205.5,-69 335.5,-69 335.5,-39 205.5,-39"/>
<text text-anchor="start" x="213.5" y="-57" font-family="Helvetica,sans-Serif" font-size="10.00">javolution.text.Text.get</text>
<text text-anchor="middle" x="270.5" y="-46" font-family="Helvetica,sans-Serif" font-size="10.00">Chars</text>
</a>
</g>
</g>
<!-- Node1&#45;&gt;Node6 -->
<g id="edge5" class="edge">
<title>Node1&#45;&gt;Node6</title>
<path fill="none" stroke="midnightblue" d="M122.84,-100.99C149.86,-92.34 184.02,-81.39 212.57,-72.24"/>
<polygon fill="midnightblue" stroke="midnightblue" points="213.96,-75.47 222.42,-69.09 211.83,-68.8 213.96,-75.47"/>
</g>
<!-- Node7 -->
<g id="node7" class="node">
<title>Node7</title>
<g id="a_node7"><a xlink:href="../../d0/d36/classjavolution_1_1text_1_1CharArray.html#ad3531ca73d67202979d1b5586eab2521" target="_top" xlink:title=" ">
<polygon fill="white" stroke="black" points="186,-0.5 186,-19.5 355,-19.5 355,-0.5 186,-0.5"/>
<text text-anchor="middle" x="270.5" y="-7.5" font-family="Helvetica,sans-Serif" font-size="10.00">javolution.text.CharArray.offset</text>
</a>
</g>
</g>
<!-- Node1&#45;&gt;Node7 -->
<g id="edge8" class="edge">
<title>Node1&#45;&gt;Node7</title>
<path fill="none" stroke="midnightblue" d="M90.53,-100.91C110.28,-81.3 147.57,-47.4 186,-29 191.03,-26.59 196.38,-24.48 201.84,-22.64"/>
<polygon fill="midnightblue" stroke="midnightblue" points="203.23,-25.87 211.76,-19.59 201.17,-19.18 203.23,-25.87"/>
</g>
<!-- Node4 -->
<g id="node4" class="node">
<title>Node4</title>
<g id="a_node4"><a xlink:href="../../d2/d7a/classjavolution_1_1text_1_1TextBuilder.html#a23b59400283fe96ea47f786a896da5b1" target="_top" xlink:title=" ">
<polygon fill="white" stroke="black" points="391,-150.5 391,-169.5 570,-169.5 570,-150.5 391,-150.5"/>
<text text-anchor="middle" x="480.5" y="-157.5" font-family="Helvetica,sans-Serif" font-size="10.00">javolution.text.TextBuilder.length</text>
</a>
</g>
</g>
<!-- Node3&#45;&gt;Node4 -->
<g id="edge3" class="edge">
<title>Node3&#45;&gt;Node4</title>
<path fill="none" stroke="midnightblue" d="M352.51,-160C361.73,-160 371.2,-160 380.61,-160"/>
<polygon fill="midnightblue" stroke="midnightblue" points="380.78,-163.5 390.78,-160 380.78,-156.5 380.78,-163.5"/>
</g>
<!-- Node3&#45;&gt;Node5 -->
<g id="edge4" class="edge">
<title>Node3&#45;&gt;Node5</title>
<path fill="none" stroke="midnightblue" d="M347.77,-144.97C372.01,-140.19 398.42,-134.98 421.18,-130.5"/>
<polygon fill="midnightblue" stroke="midnightblue" points="421.89,-133.92 431.03,-128.55 420.54,-127.05 421.89,-133.92"/>
</g>
<!-- Node6&#45;&gt;Node6 -->
<g id="edge6" class="edge">
<title>Node6&#45;&gt;Node6</title>
<path fill="none" stroke="midnightblue" d="M236.69,-69.16C228.54,-78.56 239.81,-87.5 270.5,-87.5 289.2,-87.5 300.69,-84.18 304.97,-79.46"/>
<polygon fill="midnightblue" stroke="midnightblue" points="308.44,-78.91 304.31,-69.16 301.46,-79.36 308.44,-78.91"/>
</g>
</g>
</svg>
