<?xml version="1.0" encoding="UTF-8" standalone="no"?>
<!DOCTYPE svg PUBLIC "-//W3C//DTD SVG 1.1//EN"
 "http://www.w3.org/Graphics/SVG/1.1/DTD/svg11.dtd">
<!-- Generated by graphviz version 2.43.0 (0)
 -->
<!-- Title: javolution.xml.sax.ContentHandler Pages: 1 -->
<svg width="364pt" height="137pt"
 viewBox="0.00 0.00 364.00 137.00" xmlns="http://www.w3.org/2000/svg" xmlns:xlink="http://www.w3.org/1999/xlink">
<g id="graph0" class="graph" transform="scale(1 1) rotate(0) translate(4 133)">
<title>javolution.xml.sax.ContentHandler</title>
<polygon fill="white" stroke="transparent" points="-4,4 -4,-133 360,-133 360,4 -4,4"/>
<!-- Node1 -->
<g id="node1" class="node">
<title>Node1</title>
<g id="a_node1"><a xlink:title=" ">
<polygon fill="#bfbfbf" stroke="black" points="0,-49.5 0,-79.5 149,-79.5 149,-49.5 0,-49.5"/>
<text text-anchor="start" x="8" y="-67.5" font-family="Helvetica,sans-Serif" font-size="10.00">javolution.xml.sax.Content</text>
<text text-anchor="middle" x="74.5" y="-56.5" font-family="Helvetica,sans-Serif" font-size="10.00">Handler</text>
</a>
</g>
</g>
<!-- Node2 -->
<g id="node2" class="node">
<title>Node2</title>
<g id="a_node2"><a xlink:href="../../d8/de2/classjavolution_1_1xml_1_1sax_1_1DefaultHandler.html" target="_top" xlink:title=" ">
<polygon fill="white" stroke="black" points="197.5,-98.5 197.5,-128.5 343.5,-128.5 343.5,-98.5 197.5,-98.5"/>
<text text-anchor="start" x="205.5" y="-116.5" font-family="Helvetica,sans-Serif" font-size="10.00">javolution.xml.sax.Default</text>
<text text-anchor="middle" x="270.5" y="-105.5" font-family="Helvetica,sans-Serif" font-size="10.00">Handler</text>
</a>
</g>
</g>
<!-- Node1&#45;&gt;Node2 -->
<g id="edge1" class="edge">
<title>Node1&#45;&gt;Node2</title>
<path fill="none" stroke="midnightblue" d="M144.98,-82.05C166.29,-87.43 189.52,-93.3 210.09,-98.49"/>
<polygon fill="midnightblue" stroke="midnightblue" points="145.58,-78.59 135.02,-79.53 143.86,-85.38 145.58,-78.59"/>
</g>
<!-- Node3 -->
<g id="node3" class="node">
<title>Node3</title>
<g id="a_node3"><a xlink:href="../../dc/d8f/classjavolution_1_1xml_1_1sax_1_1SAX2ReaderImpl_1_1Proxy.html" target="_top" xlink:title=" ">
<polygon fill="white" stroke="black" points="185,-49.5 185,-79.5 356,-79.5 356,-49.5 185,-49.5"/>
<text text-anchor="start" x="193" y="-67.5" font-family="Helvetica,sans-Serif" font-size="10.00">javolution.xml.sax.SAX2Reader</text>
<text text-anchor="middle" x="270.5" y="-56.5" font-family="Helvetica,sans-Serif" font-size="10.00">Impl.Proxy</text>
</a>
</g>
</g>
<!-- Node1&#45;&gt;Node3 -->
<g id="edge2" class="edge">
<title>Node1&#45;&gt;Node3</title>
<path fill="none" stroke="midnightblue" d="M159.35,-64.5C167.82,-64.5 176.41,-64.5 184.88,-64.5"/>
<polygon fill="midnightblue" stroke="midnightblue" points="159.12,-61 149.12,-64.5 159.12,-68 159.12,-61"/>
</g>
<!-- Node4 -->
<g id="node4" class="node">
<title>Node4</title>
<g id="a_node4"><a xlink:href="../../d1/de4/classjavolution_1_1xml_1_1sax_1_1SAX2ReaderImpl_1_1Sax2DefaultHandler.html" target="_top" xlink:title=" ">
<polygon fill="white" stroke="black" points="185,-0.5 185,-30.5 356,-30.5 356,-0.5 185,-0.5"/>
<text text-anchor="start" x="193" y="-18.5" font-family="Helvetica,sans-Serif" font-size="10.00">javolution.xml.sax.SAX2Reader</text>
<text text-anchor="middle" x="270.5" y="-7.5" font-family="Helvetica,sans-Serif" font-size="10.00">Impl.Sax2DefaultHandler</text>
</a>
</g>
</g>
<!-- Node1&#45;&gt;Node4 -->
<g id="edge3" class="edge">
<title>Node1&#45;&gt;Node4</title>
<path fill="none" stroke="midnightblue" d="M144.98,-46.95C166.29,-41.57 189.52,-35.7 210.09,-30.51"/>
<polygon fill="midnightblue" stroke="midnightblue" points="143.86,-43.62 135.02,-49.47 145.58,-50.41 143.86,-43.62"/>
</g>
</g>
</svg>
