<?xml version="1.0" encoding="UTF-8" standalone="no"?>
<!DOCTYPE svg PUBLIC "-//W3C//DTD SVG 1.1//EN"
 "http://www.w3.org/Graphics/SVG/1.1/DTD/svg11.dtd">
<!-- Generated by graphviz version 2.43.0 (0)
 -->
<!-- Title: javolution.text.internal.TextContextImpl.storePrimitiveTypesFormats Pages: 1 -->
<svg width="601pt" height="78pt"
 viewBox="0.00 0.00 601.00 77.50" xmlns="http://www.w3.org/2000/svg" xmlns:xlink="http://www.w3.org/1999/xlink">
<g id="graph0" class="graph" transform="scale(1 1) rotate(0) translate(4 73.5)">
<title>javolution.text.internal.TextContextImpl.storePrimitiveTypesFormats</title>
<polygon fill="white" stroke="transparent" points="-4,4 -4,-73.5 597,-73.5 597,4 -4,4"/>
<!-- Node1 -->
<g id="node1" class="node">
<title>Node1</title>
<g id="a_node1"><a xlink:title=" ">
<polygon fill="#bfbfbf" stroke="black" points="0,-11.5 0,-52.5 169,-52.5 169,-11.5 0,-11.5"/>
<text text-anchor="start" x="8" y="-40.5" font-family="Helvetica,sans-Serif" font-size="10.00">javolution.text.internal.</text>
<text text-anchor="start" x="8" y="-29.5" font-family="Helvetica,sans-Serif" font-size="10.00">TextContextImpl.storePrimitive</text>
<text text-anchor="middle" x="84.5" y="-18.5" font-family="Helvetica,sans-Serif" font-size="10.00">TypesFormats</text>
</a>
</g>
</g>
<!-- Node2 -->
<g id="node2" class="node">
<title>Node2</title>
<g id="a_node2"><a xlink:href="../../d2/d86/classjavolution_1_1text_1_1TypeFormat.html#af5a4115fe004637fe8cef7142f821d05" target="_top" xlink:title=" ">
<polygon fill="white" stroke="black" points="205,-17 205,-47 383,-47 383,-17 205,-17"/>
<text text-anchor="start" x="213" y="-35" font-family="Helvetica,sans-Serif" font-size="10.00">javolution.text.TypeFormat.parse</text>
<text text-anchor="middle" x="294" y="-24" font-family="Helvetica,sans-Serif" font-size="10.00">Boolean</text>
</a>
</g>
</g>
<!-- Node1&#45;&gt;Node2 -->
<g id="edge1" class="edge">
<title>Node1&#45;&gt;Node2</title>
<path fill="none" stroke="midnightblue" d="M169,-32C177.5,-32 186.19,-32 194.82,-32"/>
<polygon fill="midnightblue" stroke="midnightblue" points="194.92,-35.5 204.92,-32 194.92,-28.5 194.92,-35.5"/>
</g>
<!-- Node3 -->
<g id="node3" class="node">
<title>Node3</title>
<g id="a_node3"><a xlink:href="../../d0/dce/classjavolution_1_1text_1_1Cursor.html#a3c05d8bae9082071d73d9ff0c2caf791" target="_top" xlink:title=" ">
<polygon fill="white" stroke="black" points="436,-39 436,-69 576,-69 576,-39 436,-39"/>
<text text-anchor="start" x="444" y="-57" font-family="Helvetica,sans-Serif" font-size="10.00">javolution.text.Cursor.get</text>
<text text-anchor="middle" x="506" y="-46" font-family="Helvetica,sans-Serif" font-size="10.00">Index</text>
</a>
</g>
</g>
<!-- Node2&#45;&gt;Node3 -->
<g id="edge2" class="edge">
<title>Node2&#45;&gt;Node3</title>
<path fill="none" stroke="midnightblue" d="M383.15,-41.23C397.33,-42.72 411.93,-44.25 425.88,-45.71"/>
<polygon fill="midnightblue" stroke="midnightblue" points="425.6,-49.2 435.91,-46.76 426.33,-42.24 425.6,-49.2"/>
</g>
<!-- Node4 -->
<g id="node4" class="node">
<title>Node4</title>
<g id="a_node4"><a xlink:href="../../d0/dce/classjavolution_1_1text_1_1Cursor.html#a021df95865b1703e8e34c6935c4a93ef" target="_top" xlink:title=" ">
<polygon fill="white" stroke="black" points="419,-0.5 419,-19.5 593,-19.5 593,-0.5 419,-0.5"/>
<text text-anchor="middle" x="506" y="-7.5" font-family="Helvetica,sans-Serif" font-size="10.00">javolution.text.Cursor.increment</text>
</a>
</g>
</g>
<!-- Node2&#45;&gt;Node4 -->
<g id="edge3" class="edge">
<title>Node2&#45;&gt;Node4</title>
<path fill="none" stroke="midnightblue" d="M383.15,-22.77C391.62,-21.88 400.24,-20.98 408.78,-20.08"/>
<polygon fill="midnightblue" stroke="midnightblue" points="409.18,-23.56 418.76,-19.03 408.45,-16.6 409.18,-23.56"/>
</g>
</g>
</svg>
