<?xml version="1.0" encoding="UTF-8" standalone="no"?>
<!DOCTYPE svg PUBLIC "-//W3C//DTD SVG 1.1//EN"
 "http://www.w3.org/Graphics/SVG/1.1/DTD/svg11.dtd">
<!-- Generated by graphviz version 2.43.0 (0)
 -->
<!-- Title: javolution.util.internal.map.sorted.SortedMapView&lt; K, V &gt;.EntrySortedSet Pages: 1 -->
<!--zoomable 197 -->
<svg id="main" version="1.1" xmlns="http://www.w3.org/2000/svg" xmlns:xlink="http://www.w3.org/1999/xlink" xml:space="preserve" onload="init(evt)">
<style type="text/css"><![CDATA[
.edge:hover path { stroke: red; }
.edge:hover polygon { stroke: red; fill: red; }
]]></style>
<script type="text/javascript"><![CDATA[
var edges = document.getElementsByTagName('g');
if (edges && edges.length) {
  for (var i=0;i<edges.length;i++) {
    if (edges[i].id.substr(0,4)=='edge') {
      edges[i].setAttribute('class','edge');
    }
  }
}
]]></script>
        <defs>
                <circle id="rim" cx="0" cy="0" r="7"/>
                <circle id="rim2" cx="0" cy="0" r="3.5"/>
                <g id="zoomPlus">
                        <use xlink:href="#rim" fill="#404040">
                                <set attributeName="fill" to="#808080" begin="zoomplus.mouseover" end="zoomplus.mouseout"/>
                        </use>
                        <path d="M-4,0h8M0,-4v8" fill="none" stroke="white" stroke-width="1.5" pointer-events="none"/>
                </g>
                <g id="zoomMin">
                        <use xlink:href="#rim" fill="#404040">
                                <set attributeName="fill" to="#808080" begin="zoomminus.mouseover" end="zoomminus.mouseout"/>
                        </use>
                        <path d="M-4,0h8" fill="none" stroke="white" stroke-width="1.5" pointer-events="none"/>
                </g>
                <g id="dirArrow">
                        <path fill="none" stroke="white" stroke-width="1.5" d="M0,-3.0v7 M-2.5,-0.5L0,-3.0L2.5,-0.5"/>
                </g>
               <g id="resetDef">
                       <use xlink:href="#rim2" fill="#404040">
                               <set attributeName="fill" to="#808080" begin="reset.mouseover" end="reset.mouseout"/>
                       </use>
               </g>
        </defs>

<script type="text/javascript">
var viewWidth = 1076;
var viewHeight = 197;
var sectionId = 'dynsection-1';
</script>
<script xlink:href="../../svgpan.js"/>
<svg id="graph" class="graph">
<g id="viewport">
<title>javolution.util.internal.map.sorted.SortedMapView&lt; K, V &gt;.EntrySortedSet</title>
<polygon fill="white" stroke="transparent" points="-4,4 -4,-193 1072,-193 1072,4 -4,4"/>
<!-- Node1 -->
<g id="node1" class="node">
<title>Node1</title>
<g id="a_node1"><a xlink:title=" ">
<polygon fill="#bfbfbf" stroke="black" points="857,-44 857,-74 1068,-74 1068,-44 857,-44"/>
<text text-anchor="start" x="865" y="-62" font-family="Helvetica,sans-Serif" font-size="10.00">javolution.util.internal.map.sorted.</text>
<text text-anchor="middle" x="962.5" y="-51" font-family="Helvetica,sans-Serif" font-size="10.00">SortedMapView&lt; K, V &gt;.EntrySortedSet</text>
</a>
</g>
</g>
<!-- Node2 -->
<g id="node2" class="node">
<title>Node2</title>
<g id="a_node2"><a xlink:href="../../dc/d8a/classEntrySet.html" target="_top" xlink:title=" ">
<polygon fill="white" stroke="black" points="635.5,-98.5 635.5,-117.5 693.5,-117.5 693.5,-98.5 635.5,-98.5"/>
<text text-anchor="middle" x="664.5" y="-105.5" font-family="Helvetica,sans-Serif" font-size="10.00">EntrySet</text>
</a>
</g>
</g>
<!-- Node2&#45;&gt;Node1 -->
<g id="edge1" class="edge">
<title>Node2&#45;&gt;Node1</title>
<path fill="none" stroke="midnightblue" d="M703.68,-101.68C745.65,-94.73 814.55,-83.33 870.57,-74.05"/>
<polygon fill="midnightblue" stroke="midnightblue" points="702.91,-98.26 693.61,-103.35 704.05,-105.17 702.91,-98.26"/>
</g>
<!-- Node3 -->
<g id="node3" class="node">
<title>Node3</title>
<g id="a_node3"><a xlink:href="../../de/da6/interfacejavolution_1_1util_1_1service_1_1SortedSetService.html" target="_top" xlink:title=" ">
<polygon fill="white" stroke="black" points="593,-38.5 593,-79.5 736,-79.5 736,-38.5 593,-38.5"/>
<text text-anchor="start" x="601" y="-67.5" font-family="Helvetica,sans-Serif" font-size="10.00">javolution::util::service</text>
<text text-anchor="start" x="601" y="-56.5" font-family="Helvetica,sans-Serif" font-size="10.00">::SortedSetService&lt; Entry</text>
<text text-anchor="middle" x="664.5" y="-45.5" font-family="Helvetica,sans-Serif" font-size="10.00">&lt; K, V &gt; &gt;</text>
</a>
</g>
</g>
<!-- Node3&#45;&gt;Node1 -->
<g id="edge2" class="edge">
<title>Node3&#45;&gt;Node1</title>
<path fill="none" stroke="midnightblue" d="M746.39,-59C780.43,-59 820.49,-59 856.75,-59"/>
<polygon fill="midnightblue" stroke="midnightblue" points="746.02,-55.5 736.02,-59 746.02,-62.5 746.02,-55.5"/>
</g>
<!-- Node4 -->
<g id="node4" class="node">
<title>Node4</title>
<g id="a_node4"><a xlink:href="../../d6/d3e/interfacejavolution_1_1util_1_1service_1_1SetService.html" target="_top" xlink:title=" ">
<polygon fill="white" stroke="black" points="421.5,-71 421.5,-101 549.5,-101 549.5,-71 421.5,-71"/>
<text text-anchor="start" x="429.5" y="-89" font-family="Helvetica,sans-Serif" font-size="10.00">javolution::util::service</text>
<text text-anchor="middle" x="485.5" y="-78" font-family="Helvetica,sans-Serif" font-size="10.00">::SetService&lt; E &gt;</text>
</a>
</g>
</g>
<!-- Node4&#45;&gt;Node3 -->
<g id="edge3" class="edge">
<title>Node4&#45;&gt;Node3</title>
<path fill="none" stroke="midnightblue" d="M559.79,-74.82C570.68,-73.16 581.89,-71.45 592.73,-69.8"/>
<polygon fill="midnightblue" stroke="midnightblue" points="559.26,-71.36 549.9,-76.33 560.31,-78.28 559.26,-71.36"/>
</g>
<!-- Node5 -->
<g id="node5" class="node">
<title>Node5</title>
<g id="a_node5"><a xlink:href="../../dd/d6c/interfacejavolution_1_1util_1_1service_1_1CollectionService.html" target="_top" xlink:title=" ">
<polygon fill="white" stroke="black" points="242,-98 242,-128 378,-128 378,-98 242,-98"/>
<text text-anchor="start" x="250" y="-116" font-family="Helvetica,sans-Serif" font-size="10.00">javolution::util::service</text>
<text text-anchor="middle" x="310" y="-105" font-family="Helvetica,sans-Serif" font-size="10.00">::CollectionService&lt; E &gt;</text>
</a>
</g>
</g>
<!-- Node5&#45;&gt;Node4 -->
<g id="edge4" class="edge">
<title>Node5&#45;&gt;Node4</title>
<path fill="none" stroke="midnightblue" d="M388.17,-100.99C399.25,-99.27 410.53,-97.51 421.3,-95.84"/>
<polygon fill="midnightblue" stroke="midnightblue" points="387.42,-97.56 378.08,-102.56 388.5,-104.48 387.42,-97.56"/>
</g>
<!-- Node6 -->
<g id="node6" class="node">
<title>Node6</title>
<g id="a_node6"><a xlink:title=" ">
<polygon fill="white" stroke="#bfbfbf" points="31,-169.5 31,-188.5 174,-188.5 174,-169.5 31,-169.5"/>
<text text-anchor="middle" x="102.5" y="-176.5" font-family="Helvetica,sans-Serif" font-size="10.00">java::util::Collection&lt; E &gt;</text>
</a>
</g>
</g>
<!-- Node6&#45;&gt;Node5 -->
<g id="edge5" class="edge">
<title>Node6&#45;&gt;Node5</title>
<path fill="none" stroke="midnightblue" d="M177.22,-167.36C186.66,-165.24 196.12,-162.79 205,-160 231.46,-151.68 260.08,-138.4 280.59,-128.08"/>
<polygon fill="midnightblue" stroke="midnightblue" points="176.47,-163.94 167.42,-169.45 177.94,-170.78 176.47,-163.94"/>
</g>
<!-- Node7 -->
<g id="node7" class="node">
<title>Node7</title>
<g id="a_node7"><a xlink:href="../../dd/ded/interfacejavolution_1_1util_1_1function_1_1Splittable.html" target="_top" xlink:title=" ">
<polygon fill="white" stroke="black" points="0,-120 0,-150 205,-150 205,-120 0,-120"/>
<text text-anchor="start" x="8" y="-138" font-family="Helvetica,sans-Serif" font-size="10.00">javolution::util::function</text>
<text text-anchor="middle" x="102.5" y="-127" font-family="Helvetica,sans-Serif" font-size="10.00">::Splittable&lt; CollectionService&lt; E &gt; &gt;</text>
</a>
</g>
</g>
<!-- Node7&#45;&gt;Node5 -->
<g id="edge6" class="edge">
<title>Node7&#45;&gt;Node5</title>
<path fill="none" stroke="midnightblue" d="M215.03,-123.06C224.21,-122.08 233.29,-121.1 241.99,-120.17"/>
<polygon fill="midnightblue" stroke="midnightblue" points="214.62,-119.58 205.05,-124.13 215.36,-126.54 214.62,-119.58"/>
</g>
<!-- Node8 -->
<g id="node8" class="node">
<title>Node8</title>
<g id="a_node8"><a xlink:title=" ">
<polygon fill="white" stroke="#bfbfbf" points="65.5,-81.5 65.5,-100.5 139.5,-100.5 139.5,-81.5 65.5,-81.5"/>
<text text-anchor="middle" x="102.5" y="-88.5" font-family="Helvetica,sans-Serif" font-size="10.00">Serializable</text>
</a>
</g>
</g>
<!-- Node8&#45;&gt;Node5 -->
<g id="edge7" class="edge">
<title>Node8&#45;&gt;Node5</title>
<path fill="none" stroke="midnightblue" d="M149.79,-95.96C176.97,-98.87 211.81,-102.6 241.96,-105.82"/>
<polygon fill="midnightblue" stroke="midnightblue" points="150.08,-92.47 139.77,-94.88 149.34,-99.43 150.08,-92.47"/>
</g>
<!-- Node9 -->
<g id="node9" class="node">
<title>Node9</title>
<g id="a_node9"><a xlink:href="../../d5/d48/classCloneable.html" target="_top" xlink:title=" ">
<polygon fill="white" stroke="black" points="70,-43.5 70,-62.5 135,-62.5 135,-43.5 70,-43.5"/>
<text text-anchor="middle" x="102.5" y="-50.5" font-family="Helvetica,sans-Serif" font-size="10.00">Cloneable</text>
</a>
</g>
</g>
<!-- Node9&#45;&gt;Node5 -->
<g id="edge8" class="edge">
<title>Node9&#45;&gt;Node5</title>
<path fill="none" stroke="midnightblue" d="M144.96,-58.61C163.56,-61.68 185.62,-66.08 205,-72 222.13,-77.24 225.38,-81.31 242,-88 250.29,-91.34 259.22,-94.78 267.77,-97.99"/>
<polygon fill="midnightblue" stroke="midnightblue" points="145.45,-55.15 135.03,-57.05 144.36,-62.06 145.45,-55.15"/>
</g>
<!-- Node10 -->
<g id="node10" class="node">
<title>Node10</title>
<g id="a_node10"><a xlink:title=" ">
<polygon fill="white" stroke="#bfbfbf" points="255,-59.5 255,-78.5 365,-78.5 365,-59.5 255,-59.5"/>
<text text-anchor="middle" x="310" y="-66.5" font-family="Helvetica,sans-Serif" font-size="10.00">java::util::Set&lt; E &gt;</text>
</a>
</g>
</g>
<!-- Node10&#45;&gt;Node4 -->
<g id="edge9" class="edge">
<title>Node10&#45;&gt;Node4</title>
<path fill="none" stroke="midnightblue" d="M375.63,-75.33C390.62,-76.8 406.56,-78.36 421.48,-79.83"/>
<polygon fill="midnightblue" stroke="midnightblue" points="375.71,-71.82 365.42,-74.33 375.03,-78.79 375.71,-71.82"/>
</g>
<!-- Node11 -->
<g id="node11" class="node">
<title>Node11</title>
<g id="a_node11"><a xlink:title=" ">
<polygon fill="white" stroke="#bfbfbf" points="415,-32.5 415,-51.5 556,-51.5 556,-32.5 415,-32.5"/>
<text text-anchor="middle" x="485.5" y="-39.5" font-family="Helvetica,sans-Serif" font-size="10.00">java::util::SortedSet&lt; E &gt;</text>
</a>
</g>
</g>
<!-- Node11&#45;&gt;Node3 -->
<g id="edge10" class="edge">
<title>Node11&#45;&gt;Node3</title>
<path fill="none" stroke="midnightblue" d="M566.21,-49.66C575.14,-50.51 584.19,-51.38 592.99,-52.23"/>
<polygon fill="midnightblue" stroke="midnightblue" points="566.49,-46.17 556.2,-48.69 565.82,-53.13 566.49,-46.17"/>
</g>
<!-- Node12 -->
<g id="node12" class="node">
<title>Node12</title>
<g id="a_node12"><a xlink:title=" ">
<polygon fill="white" stroke="#bfbfbf" points="618.5,-0.5 618.5,-19.5 710.5,-19.5 710.5,-0.5 618.5,-0.5"/>
<text text-anchor="middle" x="664.5" y="-7.5" font-family="Helvetica,sans-Serif" font-size="10.00">static final long</text>
</a>
</g>
</g>
<!-- Node12&#45;&gt;Node1 -->
<g id="edge11" class="edge">
<title>Node12&#45;&gt;Node1</title>
<path fill="none" stroke="#9a32cd" stroke-dasharray="5,2" d="M720.83,-19.16C762.89,-26.12 821.66,-35.85 870.59,-43.95"/>
<polygon fill="#9a32cd" stroke="#9a32cd" points="721.22,-15.68 710.78,-17.5 720.07,-22.58 721.22,-15.68"/>
<text text-anchor="middle" x="796.5" y="-41" font-family="Helvetica,sans-Serif" font-size="10.00"> serialVersionUID</text>
</g>
</g>
</svg>
        <g id="navigator" transform="translate(0 0)" fill="#404254">
                <rect fill="#f2f5e9" fill-opacity="0.5" stroke="#606060" stroke-width=".5" x="0" y="0" width="60" height="60"/>
                <use id="zoomplus" xlink:href="#zoomPlus" x="17" y="9" onmousedown="handleZoom(evt,'in')"/>
                <use id="zoomminus" xlink:href="#zoomMin" x="42" y="9" onmousedown="handleZoom(evt,'out')"/>
                <use id="reset" xlink:href="#resetDef" x="30" y="36" onmousedown="handleReset()"/>
                <g id="arrowUp" xlink:href="#dirArrow" transform="translate(30 24)" onmousedown="handlePan(0,-1)">
                  <use xlink:href="#rim" fill="#404040">
                        <set attributeName="fill" to="#808080" begin="arrowUp.mouseover" end="arrowUp.mouseout"/>
                  </use>
                  <path fill="none" stroke="white" stroke-width="1.5" d="M0,-3.0v7 M-2.5,-0.5L0,-3.0L2.5,-0.5"/>
                </g>
                <g id="arrowRight" xlink:href="#dirArrow" transform="rotate(90) translate(36 -43)" onmousedown="handlePan(1,0)">
                  <use xlink:href="#rim" fill="#404040">
                        <set attributeName="fill" to="#808080" begin="arrowRight.mouseover" end="arrowRight.mouseout"/>
                  </use>
                  <path fill="none" stroke="white" stroke-width="1.5" d="M0,-3.0v7 M-2.5,-0.5L0,-3.0L2.5,-0.5"/>
                </g>
                <g id="arrowDown" xlink:href="#dirArrow" transform="rotate(180) translate(-30 -48)" onmousedown="handlePan(0,1)">
                  <use xlink:href="#rim" fill="#404040">
                        <set attributeName="fill" to="#808080" begin="arrowDown.mouseover" end="arrowDown.mouseout"/>
                  </use>
                  <path fill="none" stroke="white" stroke-width="1.5" d="M0,-3.0v7 M-2.5,-0.5L0,-3.0L2.5,-0.5"/>
                </g>
                <g id="arrowLeft" xlink:href="#dirArrow" transform="rotate(270) translate(-36 17)" onmousedown="handlePan(-1,0)">
                  <use xlink:href="#rim" fill="#404040">
                        <set attributeName="fill" to="#808080" begin="arrowLeft.mouseover" end="arrowLeft.mouseout"/>
                  </use>
                  <path fill="none" stroke="white" stroke-width="1.5" d="M0,-3.0v7 M-2.5,-0.5L0,-3.0L2.5,-0.5"/>
                </g>
        </g>
        <svg viewBox="0 0 15 15" width="100%" height="30px" preserveAspectRatio="xMaxYMin meet">
         <g id="arrow_out" transform="scale(0.3 0.3)">
          <a xlink:href="classjavolution_1_1util_1_1internal_1_1map_1_1sorted_1_1SortedMapView_1_1EntrySortedSet__coll__graph_org.svg" target="_base">
           <rect id="button" ry="5" rx="5" y="6" x="6" height="38" width="38"
                fill="#f2f5e9" fill-opacity="0.5" stroke="#606060" stroke-width="1.0"/>
           <path id="arrow"
             d="M 11.500037,31.436501 C 11.940474,20.09759 22.043105,11.32322 32.158766,21.979434 L 37.068811,17.246167 C 37.068811,17.246167 37.088388,32 37.088388,32 L 22.160133,31.978069 C 22.160133,31.978069 26.997745,27.140456 26.997745,27.140456 C 18.528582,18.264221 13.291696,25.230495 11.500037,31.436501 z"
             style="fill:#404040;"/>
          </a>
         </g>
        </svg>
</svg>
