<?xml version="1.0" encoding="UTF-8" standalone="no"?>
<!DOCTYPE svg PUBLIC "-//W3C//DTD SVG 1.1//EN"
 "http://www.w3.org/Graphics/SVG/1.1/DTD/svg11.dtd">
<!-- Generated by graphviz version 2.43.0 (0)
 -->
<!-- Title: javolution.util.internal.collection.SharedCollectionImpl.IteratorImpl.IteratorImpl Pages: 1 -->
<svg width="764pt" height="137pt"
 viewBox="0.00 0.00 764.00 137.00" xmlns="http://www.w3.org/2000/svg" xmlns:xlink="http://www.w3.org/1999/xlink">
<g id="graph0" class="graph" transform="scale(1 1) rotate(0) translate(4 133)">
<title>javolution.util.internal.collection.SharedCollectionImpl.IteratorImpl.IteratorImpl</title>
<polygon fill="white" stroke="transparent" points="-4,4 -4,-133 760,-133 760,4 -4,4"/>
<!-- Node1 -->
<g id="node1" class="node">
<title>Node1</title>
<g id="a_node1"><a xlink:title=" ">
<polygon fill="#bfbfbf" stroke="black" points="0,-49.5 0,-79.5 242,-79.5 242,-49.5 0,-49.5"/>
<text text-anchor="start" x="8" y="-67.5" font-family="Helvetica,sans-Serif" font-size="10.00">javolution.util.internal.collection.</text>
<text text-anchor="middle" x="121" y="-56.5" font-family="Helvetica,sans-Serif" font-size="10.00">SharedCollectionImpl.IteratorImpl.IteratorImpl</text>
</a>
</g>
</g>
<!-- Node2 -->
<g id="node2" class="node">
<title>Node2</title>
<g id="a_node2"><a xlink:href="../../d4/dd1/classjavolution_1_1util_1_1internal_1_1collection_1_1SharedCollectionImpl.html#a8599ae66241f83bc6d9b50a92c519a0b" target="_top" xlink:title=" ">
<polygon fill="white" stroke="black" points="286.5,-98.5 286.5,-128.5 466.5,-128.5 466.5,-98.5 286.5,-98.5"/>
<text text-anchor="start" x="294.5" y="-116.5" font-family="Helvetica,sans-Serif" font-size="10.00">javolution.util.internal.collection.</text>
<text text-anchor="middle" x="376.5" y="-105.5" font-family="Helvetica,sans-Serif" font-size="10.00">SharedCollectionImpl.cloneTarget</text>
</a>
</g>
</g>
<!-- Node1&#45;&gt;Node2 -->
<g id="edge1" class="edge">
<title>Node1&#45;&gt;Node2</title>
<path fill="none" stroke="midnightblue" d="M199.78,-79.53C227.64,-84.92 259.23,-91.03 287.87,-96.56"/>
<polygon fill="midnightblue" stroke="midnightblue" points="287.38,-100.03 297.87,-98.49 288.71,-93.16 287.38,-100.03"/>
</g>
<!-- Node3 -->
<g id="node3" class="node">
<title>Node3</title>
<g id="a_node3"><a xlink:href="../../d4/d2b/classjavolution_1_1util_1_1internal_1_1collection_1_1ReadWriteLockImpl_1_1ReadLock.html#a36e93d109ab51a1f3e12da5fb08bb588" target="_top" xlink:title=" ">
<polygon fill="white" stroke="black" points="284,-49.5 284,-79.5 469,-79.5 469,-49.5 284,-49.5"/>
<text text-anchor="start" x="292" y="-67.5" font-family="Helvetica,sans-Serif" font-size="10.00">javolution.util.internal.collection.</text>
<text text-anchor="middle" x="376.5" y="-56.5" font-family="Helvetica,sans-Serif" font-size="10.00">ReadWriteLockImpl.ReadLock.lock</text>
</a>
</g>
</g>
<!-- Node1&#45;&gt;Node3 -->
<g id="edge2" class="edge">
<title>Node1&#45;&gt;Node3</title>
<path fill="none" stroke="midnightblue" d="M242.07,-64.5C252.63,-64.5 263.25,-64.5 273.63,-64.5"/>
<polygon fill="midnightblue" stroke="midnightblue" points="273.93,-68 283.93,-64.5 273.93,-61 273.93,-68"/>
</g>
<!-- Node5 -->
<g id="node5" class="node">
<title>Node5</title>
<g id="a_node5"><a xlink:href="../../d4/d2b/classjavolution_1_1util_1_1internal_1_1collection_1_1ReadWriteLockImpl_1_1ReadLock.html#a3cb27e8dc3ce552b919ef856788b0132" target="_top" xlink:title=" ">
<polygon fill="white" stroke="black" points="278,-0.5 278,-30.5 475,-30.5 475,-0.5 278,-0.5"/>
<text text-anchor="start" x="286" y="-18.5" font-family="Helvetica,sans-Serif" font-size="10.00">javolution.util.internal.collection.</text>
<text text-anchor="middle" x="376.5" y="-7.5" font-family="Helvetica,sans-Serif" font-size="10.00">ReadWriteLockImpl.ReadLock.unlock</text>
</a>
</g>
</g>
<!-- Node1&#45;&gt;Node5 -->
<g id="edge4" class="edge">
<title>Node1&#45;&gt;Node5</title>
<path fill="none" stroke="midnightblue" d="M199.78,-49.47C227.64,-44.08 259.23,-37.97 287.87,-32.44"/>
<polygon fill="midnightblue" stroke="midnightblue" points="288.71,-35.84 297.87,-30.51 287.38,-28.97 288.71,-35.84"/>
</g>
<!-- Node4 -->
<g id="node4" class="node">
<title>Node4</title>
<g id="a_node4"><a xlink:href="../../d4/d2b/classjavolution_1_1util_1_1internal_1_1collection_1_1ReadWriteLockImpl_1_1ReadLock.html#ab0f1ccdff1bb66a07d0f6bfd1d54170f" target="_top" xlink:title=" ">
<polygon fill="white" stroke="black" points="511,-49.5 511,-79.5 756,-79.5 756,-49.5 511,-49.5"/>
<text text-anchor="start" x="519" y="-67.5" font-family="Helvetica,sans-Serif" font-size="10.00">javolution.util.internal.collection.</text>
<text text-anchor="middle" x="633.5" y="-56.5" font-family="Helvetica,sans-Serif" font-size="10.00">ReadWriteLockImpl.ReadLock.lockInterruptibly</text>
</a>
</g>
</g>
<!-- Node3&#45;&gt;Node4 -->
<g id="edge3" class="edge">
<title>Node3&#45;&gt;Node4</title>
<path fill="none" stroke="midnightblue" d="M469.2,-64.5C479.48,-64.5 490.1,-64.5 500.75,-64.5"/>
<polygon fill="midnightblue" stroke="midnightblue" points="500.97,-68 510.97,-64.5 500.97,-61 500.97,-68"/>
</g>
</g>
</svg>
