<?xml version="1.0" encoding="UTF-8" standalone="no"?>
<!DOCTYPE svg PUBLIC "-//W3C//DTD SVG 1.1//EN"
 "http://www.w3.org/Graphics/SVG/1.1/DTD/svg11.dtd">
<!-- Generated by graphviz version 2.43.0 (0)
 -->
<!-- Title: javolution.util.internal.map.sorted.SortedMapView&lt; K, V &gt; Pages: 1 -->
<!--zoomable 214 -->
<svg id="main" version="1.1" xmlns="http://www.w3.org/2000/svg" xmlns:xlink="http://www.w3.org/1999/xlink" xml:space="preserve" onload="init(evt)">
<style type="text/css"><![CDATA[
.edge:hover path { stroke: red; }
.edge:hover polygon { stroke: red; fill: red; }
]]></style>
<script type="text/javascript"><![CDATA[
var edges = document.getElementsByTagName('g');
if (edges && edges.length) {
  for (var i=0;i<edges.length;i++) {
    if (edges[i].id.substr(0,4)=='edge') {
      edges[i].setAttribute('class','edge');
    }
  }
}
]]></script>
        <defs>
                <circle id="rim" cx="0" cy="0" r="7"/>
                <circle id="rim2" cx="0" cy="0" r="3.5"/>
                <g id="zoomPlus">
                        <use xlink:href="#rim" fill="#404040">
                                <set attributeName="fill" to="#808080" begin="zoomplus.mouseover" end="zoomplus.mouseout"/>
                        </use>
                        <path d="M-4,0h8M0,-4v8" fill="none" stroke="white" stroke-width="1.5" pointer-events="none"/>
                </g>
                <g id="zoomMin">
                        <use xlink:href="#rim" fill="#404040">
                                <set attributeName="fill" to="#808080" begin="zoomminus.mouseover" end="zoomminus.mouseout"/>
                        </use>
                        <path d="M-4,0h8" fill="none" stroke="white" stroke-width="1.5" pointer-events="none"/>
                </g>
                <g id="dirArrow">
                        <path fill="none" stroke="white" stroke-width="1.5" d="M0,-3.0v7 M-2.5,-0.5L0,-3.0L2.5,-0.5"/>
                </g>
               <g id="resetDef">
                       <use xlink:href="#rim2" fill="#404040">
                               <set attributeName="fill" to="#808080" begin="reset.mouseover" end="reset.mouseout"/>
                       </use>
               </g>
        </defs>

<script type="text/javascript">
var viewWidth = 939;
var viewHeight = 214;
var sectionId = 'dynsection-0';
</script>
<script xlink:href="../../svgpan.js"/>
<svg id="graph" class="graph">
<g id="viewport">
<title>javolution.util.internal.map.sorted.SortedMapView&lt; K, V &gt;</title>
<polygon fill="white" stroke="transparent" points="-4,4 -4,-210 935,-210 935,4 -4,4"/>
<!-- Node1 -->
<g id="node1" class="node">
<title>Node1</title>
<g id="a_node1"><a xlink:title=" ">
<polygon fill="#bfbfbf" stroke="black" points="528,-106 528,-136 714,-136 714,-106 528,-106"/>
<text text-anchor="start" x="536" y="-124" font-family="Helvetica,sans-Serif" font-size="10.00">javolution.util.internal.map.sorted.</text>
<text text-anchor="middle" x="621" y="-113" font-family="Helvetica,sans-Serif" font-size="10.00">SortedMapView&lt; K, V &gt;</text>
</a>
</g>
</g>
<!-- Node11 -->
<g id="node11" class="node">
<title>Node11</title>
<g id="a_node11"><a xlink:href="../../d7/d93/classjavolution_1_1util_1_1internal_1_1map_1_1sorted_1_1FastSortedMapImpl.html" target="_top" xlink:title=" ">
<polygon fill="white" stroke="black" points="750,-130.5 750,-171.5 931,-171.5 931,-130.5 750,-130.5"/>
<text text-anchor="start" x="758" y="-159.5" font-family="Helvetica,sans-Serif" font-size="10.00">javolution::util::internal</text>
<text text-anchor="start" x="758" y="-148.5" font-family="Helvetica,sans-Serif" font-size="10.00">::map::sorted::FastSortedMapImpl</text>
<text text-anchor="middle" x="840.5" y="-137.5" font-family="Helvetica,sans-Serif" font-size="10.00">&lt; K, V &gt;</text>
</a>
</g>
</g>
<!-- Node1&#45;&gt;Node11 -->
<g id="edge11" class="edge">
<title>Node1&#45;&gt;Node11</title>
<path fill="none" stroke="midnightblue" d="M724.25,-135.1C732.82,-136.29 741.43,-137.47 749.89,-138.64"/>
<polygon fill="midnightblue" stroke="midnightblue" points="724.62,-131.62 714.24,-133.72 723.67,-138.56 724.62,-131.62"/>
</g>
<!-- Node12 -->
<g id="node12" class="node">
<title>Node12</title>
<g id="a_node12"><a xlink:href="../../d3/d09/classjavolution_1_1util_1_1internal_1_1map_1_1sorted_1_1SubSortedMapImpl.html" target="_top" xlink:title=" ">
<polygon fill="white" stroke="black" points="751,-70.5 751,-111.5 930,-111.5 930,-70.5 751,-70.5"/>
<text text-anchor="start" x="759" y="-99.5" font-family="Helvetica,sans-Serif" font-size="10.00">javolution::util::internal</text>
<text text-anchor="start" x="759" y="-88.5" font-family="Helvetica,sans-Serif" font-size="10.00">::map::sorted::SubSortedMapImpl</text>
<text text-anchor="middle" x="840.5" y="-77.5" font-family="Helvetica,sans-Serif" font-size="10.00">&lt; K, V &gt;</text>
</a>
</g>
</g>
<!-- Node1&#45;&gt;Node12 -->
<g id="edge12" class="edge">
<title>Node1&#45;&gt;Node12</title>
<path fill="none" stroke="midnightblue" d="M724.26,-106.89C733.17,-105.67 742.14,-104.43 750.93,-103.22"/>
<polygon fill="midnightblue" stroke="midnightblue" points="723.67,-103.44 714.24,-108.28 724.62,-110.38 723.67,-103.44"/>
</g>
<!-- Node2 -->
<g id="node2" class="node">
<title>Node2</title>
<g id="a_node2"><a xlink:href="../../d0/d83/classjavolution_1_1util_1_1internal_1_1map_1_1MapView.html" target="_top" xlink:title=" ">
<polygon fill="white" stroke="black" points="347,-82 347,-112 484,-112 484,-82 347,-82"/>
<text text-anchor="start" x="355" y="-100" font-family="Helvetica,sans-Serif" font-size="10.00">javolution::util::internal</text>
<text text-anchor="middle" x="415.5" y="-89" font-family="Helvetica,sans-Serif" font-size="10.00">::map::MapView&lt; K, V &gt;</text>
</a>
</g>
</g>
<!-- Node2&#45;&gt;Node1 -->
<g id="edge1" class="edge">
<title>Node2&#45;&gt;Node1</title>
<path fill="none" stroke="midnightblue" d="M494.24,-106.17C505.25,-107.47 516.65,-108.81 527.9,-110.14"/>
<polygon fill="midnightblue" stroke="midnightblue" points="494.6,-102.69 484.26,-104.99 493.78,-109.64 494.6,-102.69"/>
</g>
<!-- Node3 -->
<g id="node3" class="node">
<title>Node3</title>
<g id="a_node3"><a xlink:href="../../d7/d30/interfacejavolution_1_1util_1_1service_1_1MapService.html" target="_top" xlink:title=" ">
<polygon fill="white" stroke="black" points="175,-82 175,-112 303,-112 303,-82 175,-82"/>
<text text-anchor="start" x="183" y="-100" font-family="Helvetica,sans-Serif" font-size="10.00">javolution::util::service</text>
<text text-anchor="middle" x="239" y="-89" font-family="Helvetica,sans-Serif" font-size="10.00">::MapService&lt; K, V &gt;</text>
</a>
</g>
</g>
<!-- Node3&#45;&gt;Node2 -->
<g id="edge2" class="edge">
<title>Node3&#45;&gt;Node2</title>
<path fill="none" stroke="midnightblue" d="M313.55,-97C324.63,-97 336,-97 346.94,-97"/>
<polygon fill="midnightblue" stroke="midnightblue" points="313.49,-93.5 303.49,-97 313.49,-100.5 313.49,-93.5"/>
</g>
<!-- Node9 -->
<g id="node9" class="node">
<title>Node9</title>
<g id="a_node9"><a xlink:href="../../de/dc6/interfacejavolution_1_1util_1_1service_1_1SortedMapService.html" target="_top" xlink:title=" ">
<polygon fill="white" stroke="black" points="339,-131 339,-161 492,-161 492,-131 339,-131"/>
<text text-anchor="start" x="347" y="-149" font-family="Helvetica,sans-Serif" font-size="10.00">javolution::util::service</text>
<text text-anchor="middle" x="415.5" y="-138" font-family="Helvetica,sans-Serif" font-size="10.00">::SortedMapService&lt; K, V &gt;</text>
</a>
</g>
</g>
<!-- Node3&#45;&gt;Node9 -->
<g id="edge9" class="edge">
<title>Node3&#45;&gt;Node9</title>
<path fill="none" stroke="midnightblue" d="M303.47,-114.82C322.31,-120.11 342.75,-125.85 360.9,-130.95"/>
<polygon fill="midnightblue" stroke="midnightblue" points="304.35,-111.44 293.78,-112.1 302.46,-118.17 304.35,-111.44"/>
</g>
<!-- Node4 -->
<g id="node4" class="node">
<title>Node4</title>
<g id="a_node4"><a xlink:title=" ">
<polygon fill="white" stroke="#bfbfbf" points="5.5,-186.5 5.5,-205.5 133.5,-205.5 133.5,-186.5 5.5,-186.5"/>
<text text-anchor="middle" x="69.5" y="-193.5" font-family="Helvetica,sans-Serif" font-size="10.00">java::util::Map&lt; K, V &gt;</text>
</a>
</g>
</g>
<!-- Node4&#45;&gt;Node3 -->
<g id="edge3" class="edge">
<title>Node4&#45;&gt;Node3</title>
<path fill="none" stroke="midnightblue" d="M130.58,-182.22C133.53,-180.66 136.36,-178.93 139,-177 162.59,-159.77 152.37,-140.47 175,-122 179.65,-118.21 184.95,-114.93 190.45,-112.12"/>
<polygon fill="midnightblue" stroke="midnightblue" points="129.09,-179.05 121.44,-186.38 132,-185.42 129.09,-179.05"/>
</g>
<!-- Node5 -->
<g id="node5" class="node">
<title>Node5</title>
<g id="a_node5"><a xlink:title=" ">
<polygon fill="white" stroke="#bfbfbf" points="0,-137 0,-167 139,-167 139,-137 0,-137"/>
<text text-anchor="start" x="8" y="-155" font-family="Helvetica,sans-Serif" font-size="10.00">java::util::concurrent</text>
<text text-anchor="middle" x="69.5" y="-144" font-family="Helvetica,sans-Serif" font-size="10.00">::ConcurrentMap&lt; K, V &gt;</text>
</a>
</g>
</g>
<!-- Node5&#45;&gt;Node3 -->
<g id="edge4" class="edge">
<title>Node5&#45;&gt;Node3</title>
<path fill="none" stroke="midnightblue" d="M125.93,-133.8C147.45,-126.73 171.8,-118.74 192.29,-112.01"/>
<polygon fill="midnightblue" stroke="midnightblue" points="124.68,-130.53 116.27,-136.97 126.86,-137.18 124.68,-130.53"/>
</g>
<!-- Node6 -->
<g id="node6" class="node">
<title>Node6</title>
<g id="a_node6"><a xlink:href="../../dd/ded/interfacejavolution_1_1util_1_1function_1_1Splittable.html" target="_top" xlink:title=" ">
<polygon fill="white" stroke="black" points="1,-76.5 1,-117.5 138,-117.5 138,-76.5 1,-76.5"/>
<text text-anchor="start" x="9" y="-105.5" font-family="Helvetica,sans-Serif" font-size="10.00">javolution::util::function</text>
<text text-anchor="start" x="9" y="-94.5" font-family="Helvetica,sans-Serif" font-size="10.00">::Splittable&lt; MapService</text>
<text text-anchor="middle" x="69.5" y="-83.5" font-family="Helvetica,sans-Serif" font-size="10.00">&lt; K, V &gt; &gt;</text>
</a>
</g>
</g>
<!-- Node6&#45;&gt;Node3 -->
<g id="edge5" class="edge">
<title>Node6&#45;&gt;Node3</title>
<path fill="none" stroke="midnightblue" d="M148.21,-97C157.18,-97 166.24,-97 174.98,-97"/>
<polygon fill="midnightblue" stroke="midnightblue" points="148.15,-93.5 138.15,-97 148.15,-100.5 148.15,-93.5"/>
</g>
<!-- Node7 -->
<g id="node7" class="node">
<title>Node7</title>
<g id="a_node7"><a xlink:title=" ">
<polygon fill="white" stroke="#bfbfbf" points="32.5,-38.5 32.5,-57.5 106.5,-57.5 106.5,-38.5 32.5,-38.5"/>
<text text-anchor="middle" x="69.5" y="-45.5" font-family="Helvetica,sans-Serif" font-size="10.00">Serializable</text>
</a>
</g>
</g>
<!-- Node7&#45;&gt;Node3 -->
<g id="edge6" class="edge">
<title>Node7&#45;&gt;Node3</title>
<path fill="none" stroke="midnightblue" d="M115.24,-60.25C123.17,-62.46 131.33,-64.78 139,-67 155.39,-71.75 173.24,-77.11 189.22,-81.97"/>
<polygon fill="midnightblue" stroke="midnightblue" points="115.97,-56.81 105.39,-57.51 114.09,-63.56 115.97,-56.81"/>
</g>
<!-- Node8 -->
<g id="node8" class="node">
<title>Node8</title>
<g id="a_node8"><a xlink:href="../../d5/d48/classCloneable.html" target="_top" xlink:title=" ">
<polygon fill="white" stroke="black" points="37,-0.5 37,-19.5 102,-19.5 102,-0.5 37,-0.5"/>
<text text-anchor="middle" x="69.5" y="-7.5" font-family="Helvetica,sans-Serif" font-size="10.00">Cloneable</text>
</a>
</g>
</g>
<!-- Node8&#45;&gt;Node3 -->
<g id="edge7" class="edge">
<title>Node8&#45;&gt;Node3</title>
<path fill="none" stroke="midnightblue" d="M111.99,-19.13C121.1,-21.78 130.54,-25.06 139,-29 169.43,-43.18 200.74,-66.42 219.79,-81.72"/>
<polygon fill="midnightblue" stroke="midnightblue" points="112.88,-15.74 102.31,-16.49 111.04,-22.5 112.88,-15.74"/>
</g>
<!-- Node9&#45;&gt;Node1 -->
<g id="edge8" class="edge">
<title>Node9&#45;&gt;Node1</title>
<path fill="none" stroke="midnightblue" d="M502.48,-135.44C510.91,-134.4 519.49,-133.35 527.99,-132.3"/>
<polygon fill="midnightblue" stroke="midnightblue" points="501.77,-132 492.28,-136.69 502.63,-138.95 501.77,-132"/>
</g>
<!-- Node10 -->
<g id="node10" class="node">
<title>Node10</title>
<g id="a_node10"><a xlink:title=" ">
<polygon fill="white" stroke="#bfbfbf" points="180,-131 180,-161 298,-161 298,-131 180,-131"/>
<text text-anchor="start" x="188" y="-149" font-family="Helvetica,sans-Serif" font-size="10.00">java::util::SortedMap</text>
<text text-anchor="middle" x="239" y="-138" font-family="Helvetica,sans-Serif" font-size="10.00">&lt; K, V &gt;</text>
</a>
</g>
</g>
<!-- Node10&#45;&gt;Node9 -->
<g id="edge10" class="edge">
<title>Node10&#45;&gt;Node9</title>
<path fill="none" stroke="midnightblue" d="M308.4,-146C318.42,-146 328.8,-146 338.95,-146"/>
<polygon fill="midnightblue" stroke="midnightblue" points="308.11,-142.5 298.11,-146 308.11,-149.5 308.11,-142.5"/>
</g>
</g>
</svg>
        <g id="navigator" transform="translate(0 0)" fill="#404254">
                <rect fill="#f2f5e9" fill-opacity="0.5" stroke="#606060" stroke-width=".5" x="0" y="0" width="60" height="60"/>
                <use id="zoomplus" xlink:href="#zoomPlus" x="17" y="9" onmousedown="handleZoom(evt,'in')"/>
                <use id="zoomminus" xlink:href="#zoomMin" x="42" y="9" onmousedown="handleZoom(evt,'out')"/>
                <use id="reset" xlink:href="#resetDef" x="30" y="36" onmousedown="handleReset()"/>
                <g id="arrowUp" xlink:href="#dirArrow" transform="translate(30 24)" onmousedown="handlePan(0,-1)">
                  <use xlink:href="#rim" fill="#404040">
                        <set attributeName="fill" to="#808080" begin="arrowUp.mouseover" end="arrowUp.mouseout"/>
                  </use>
                  <path fill="none" stroke="white" stroke-width="1.5" d="M0,-3.0v7 M-2.5,-0.5L0,-3.0L2.5,-0.5"/>
                </g>
                <g id="arrowRight" xlink:href="#dirArrow" transform="rotate(90) translate(36 -43)" onmousedown="handlePan(1,0)">
                  <use xlink:href="#rim" fill="#404040">
                        <set attributeName="fill" to="#808080" begin="arrowRight.mouseover" end="arrowRight.mouseout"/>
                  </use>
                  <path fill="none" stroke="white" stroke-width="1.5" d="M0,-3.0v7 M-2.5,-0.5L0,-3.0L2.5,-0.5"/>
                </g>
                <g id="arrowDown" xlink:href="#dirArrow" transform="rotate(180) translate(-30 -48)" onmousedown="handlePan(0,1)">
                  <use xlink:href="#rim" fill="#404040">
                        <set attributeName="fill" to="#808080" begin="arrowDown.mouseover" end="arrowDown.mouseout"/>
                  </use>
                  <path fill="none" stroke="white" stroke-width="1.5" d="M0,-3.0v7 M-2.5,-0.5L0,-3.0L2.5,-0.5"/>
                </g>
                <g id="arrowLeft" xlink:href="#dirArrow" transform="rotate(270) translate(-36 17)" onmousedown="handlePan(-1,0)">
                  <use xlink:href="#rim" fill="#404040">
                        <set attributeName="fill" to="#808080" begin="arrowLeft.mouseover" end="arrowLeft.mouseout"/>
                  </use>
                  <path fill="none" stroke="white" stroke-width="1.5" d="M0,-3.0v7 M-2.5,-0.5L0,-3.0L2.5,-0.5"/>
                </g>
        </g>
        <svg viewBox="0 0 15 15" width="100%" height="30px" preserveAspectRatio="xMaxYMin meet">
         <g id="arrow_out" transform="scale(0.3 0.3)">
          <a xlink:href="classjavolution_1_1util_1_1internal_1_1map_1_1sorted_1_1SortedMapView__inherit__graph_org.svg" target="_base">
           <rect id="button" ry="5" rx="5" y="6" x="6" height="38" width="38"
                fill="#f2f5e9" fill-opacity="0.5" stroke="#606060" stroke-width="1.0"/>
           <path id="arrow"
             d="M 11.500037,31.436501 C 11.940474,20.09759 22.043105,11.32322 32.158766,21.979434 L 37.068811,17.246167 C 37.068811,17.246167 37.088388,32 37.088388,32 L 22.160133,31.978069 C 22.160133,31.978069 26.997745,27.140456 26.997745,27.140456 C 18.528582,18.264221 13.291696,25.230495 11.500037,31.436501 z"
             style="fill:#404040;"/>
          </a>
         </g>
        </svg>
</svg>
