<?xml version="1.0" encoding="UTF-8" standalone="no"?>
<!DOCTYPE svg PUBLIC "-//W3C//DTD SVG 1.1//EN"
 "http://www.w3.org/Graphics/SVG/1.1/DTD/svg11.dtd">
<!-- Generated by graphviz version 2.43.0 (0)
 -->
<!-- Title: javolution.io.Struct.UTF8String.get Pages: 1 -->
<!--zoomable 417 -->
<svg id="main" version="1.1" xmlns="http://www.w3.org/2000/svg" xmlns:xlink="http://www.w3.org/1999/xlink" xml:space="preserve" onload="init(evt)">
<style type="text/css"><![CDATA[
.edge:hover path { stroke: red; }
.edge:hover polygon { stroke: red; fill: red; }
]]></style>
<script type="text/javascript"><![CDATA[
var edges = document.getElementsByTagName('g');
if (edges && edges.length) {
  for (var i=0;i<edges.length;i++) {
    if (edges[i].id.substr(0,4)=='edge') {
      edges[i].setAttribute('class','edge');
    }
  }
}
]]></script>
        <defs>
                <circle id="rim" cx="0" cy="0" r="7"/>
                <circle id="rim2" cx="0" cy="0" r="3.5"/>
                <g id="zoomPlus">
                        <use xlink:href="#rim" fill="#404040">
                                <set attributeName="fill" to="#808080" begin="zoomplus.mouseover" end="zoomplus.mouseout"/>
                        </use>
                        <path d="M-4,0h8M0,-4v8" fill="none" stroke="white" stroke-width="1.5" pointer-events="none"/>
                </g>
                <g id="zoomMin">
                        <use xlink:href="#rim" fill="#404040">
                                <set attributeName="fill" to="#808080" begin="zoomminus.mouseover" end="zoomminus.mouseout"/>
                        </use>
                        <path d="M-4,0h8" fill="none" stroke="white" stroke-width="1.5" pointer-events="none"/>
                </g>
                <g id="dirArrow">
                        <path fill="none" stroke="white" stroke-width="1.5" d="M0,-3.0v7 M-2.5,-0.5L0,-3.0L2.5,-0.5"/>
                </g>
               <g id="resetDef">
                       <use xlink:href="#rim2" fill="#404040">
                               <set attributeName="fill" to="#808080" begin="reset.mouseover" end="reset.mouseout"/>
                       </use>
               </g>
        </defs>

<script type="text/javascript">
var viewWidth = 1005;
var viewHeight = 417;
var sectionId = 'dynsection-4';
</script>
<script xlink:href="../../svgpan.js"/>
<svg id="graph" class="graph">
<g id="viewport">
<title>javolution.io.Struct.UTF8String.get</title>
<polygon fill="white" stroke="transparent" points="-4,4 -4,-412.5 1001,-412.5 1001,4 -4,4"/>
<!-- Node1 -->
<g id="node1" class="node">
<title>Node1</title>
<g id="a_node1"><a xlink:title=" ">
<polygon fill="#bfbfbf" stroke="black" points="0,-183 0,-213 137,-213 137,-183 0,-183"/>
<text text-anchor="start" x="8" y="-201" font-family="Helvetica,sans-Serif" font-size="10.00">javolution.io.Struct.UTF8</text>
<text text-anchor="middle" x="68.5" y="-190" font-family="Helvetica,sans-Serif" font-size="10.00">String.get</text>
</a>
</g>
</g>
<!-- Node2 -->
<g id="node2" class="node">
<title>Node2</title>
<g id="a_node2"><a xlink:href="../../d2/d7a/classjavolution_1_1text_1_1TextBuilder.html#a5b6d5e22b7b33b3188569bbaf6112c95" target="_top" xlink:title=" ">
<polygon fill="white" stroke="black" points="173,-383.5 173,-402.5 357,-402.5 357,-383.5 173,-383.5"/>
<text text-anchor="middle" x="265" y="-390.5" font-family="Helvetica,sans-Serif" font-size="10.00">javolution.text.TextBuilder.append</text>
</a>
</g>
</g>
<!-- Node1&#45;&gt;Node2 -->
<g id="edge1" class="edge">
<title>Node1&#45;&gt;Node2</title>
<path fill="none" stroke="midnightblue" d="M73.76,-213.13C84.32,-247.65 115.12,-332.46 173,-374 175.69,-375.93 178.53,-377.67 181.48,-379.24"/>
<polygon fill="midnightblue" stroke="midnightblue" points="180.08,-382.45 190.63,-383.47 183.02,-376.1 180.08,-382.45"/>
</g>
<!-- Node4 -->
<g id="node4" class="node">
<title>Node4</title>
<g id="a_node4"><a xlink:href="../../d7/d99/classjavolution_1_1io_1_1Struct.html#a7e750810b50675d99a38aec0e4ef0e1f" target="_top" xlink:title=" ">
<polygon fill="white" stroke="black" points="201,-316 201,-346 329,-346 329,-316 201,-316"/>
<text text-anchor="start" x="209" y="-334" font-family="Helvetica,sans-Serif" font-size="10.00">javolution.io.Struct.get</text>
<text text-anchor="middle" x="265" y="-323" font-family="Helvetica,sans-Serif" font-size="10.00">ByteBuffer</text>
</a>
</g>
</g>
<!-- Node1&#45;&gt;Node4 -->
<g id="edge3" class="edge">
<title>Node1&#45;&gt;Node4</title>
<path fill="none" stroke="midnightblue" d="M79.65,-213.21C96.29,-236.93 131.68,-282.54 173,-307 178.76,-310.41 185.01,-313.35 191.44,-315.87"/>
<polygon fill="midnightblue" stroke="midnightblue" points="190.37,-319.2 200.97,-319.28 192.73,-312.61 190.37,-319.2"/>
</g>
<!-- Node9 -->
<g id="node9" class="node">
<title>Node9</title>
<g id="a_node9"><a xlink:href="../../d7/d99/classjavolution_1_1io_1_1Struct.html#af409d73a3cf8dbd3939fcb7d5cf386e3" target="_top" xlink:title=" ">
<polygon fill="white" stroke="black" points="201,-249 201,-279 329,-279 329,-249 201,-249"/>
<text text-anchor="start" x="209" y="-267" font-family="Helvetica,sans-Serif" font-size="10.00">javolution.io.Struct.get</text>
<text text-anchor="middle" x="265" y="-256" font-family="Helvetica,sans-Serif" font-size="10.00">ByteBufferPosition</text>
</a>
</g>
</g>
<!-- Node1&#45;&gt;Node9 -->
<g id="edge11" class="edge">
<title>Node1&#45;&gt;Node9</title>
<path fill="none" stroke="midnightblue" d="M104.6,-213.01C124.47,-221.23 149.9,-231.28 173,-239 180.32,-241.45 188.03,-243.84 195.73,-246.12"/>
<polygon fill="midnightblue" stroke="midnightblue" points="194.88,-249.51 205.46,-248.93 196.83,-242.79 194.88,-249.51"/>
</g>
<!-- Node10 -->
<g id="node10" class="node">
<title>Node10</title>
<g id="a_node10"><a xlink:href="../../d2/d46/classjavolution_1_1io_1_1Struct_1_1Member.html#a0055f0a4d71892a2eead00baf426d96c" target="_top" xlink:title=" ">
<polygon fill="white" stroke="black" points="174,-210.5 174,-229.5 356,-229.5 356,-210.5 174,-210.5"/>
<text text-anchor="middle" x="265" y="-217.5" font-family="Helvetica,sans-Serif" font-size="10.00">javolution.io.Struct.Member.offset</text>
</a>
</g>
</g>
<!-- Node1&#45;&gt;Node10 -->
<g id="edge13" class="edge">
<title>Node1&#45;&gt;Node10</title>
<path fill="none" stroke="midnightblue" d="M137.25,-205.66C147.75,-206.85 158.74,-208.09 169.69,-209.33"/>
<polygon fill="midnightblue" stroke="midnightblue" points="169.39,-212.82 179.72,-210.47 170.17,-205.86 169.39,-212.82"/>
</g>
<!-- Node11 -->
<g id="node11" class="node">
<title>Node11</title>
<g id="a_node11"><a xlink:href="../../dd/d55/classjavolution_1_1io_1_1UTF8ByteBufferReader.html#a59d859bae7e37b4e8f7b1602d6bb341d" target="_top" xlink:title=" ">
<polygon fill="white" stroke="black" points="186,-161 186,-191 344,-191 344,-161 186,-161"/>
<text text-anchor="start" x="194" y="-179" font-family="Helvetica,sans-Serif" font-size="10.00">javolution.io.UTF8ByteBuffer</text>
<text text-anchor="middle" x="265" y="-168" font-family="Helvetica,sans-Serif" font-size="10.00">Reader.read</text>
</a>
</g>
</g>
<!-- Node1&#45;&gt;Node11 -->
<g id="edge14" class="edge">
<title>Node1&#45;&gt;Node11</title>
<path fill="none" stroke="midnightblue" d="M137.25,-190.34C149.62,-188.94 162.7,-187.46 175.56,-186"/>
<polygon fill="midnightblue" stroke="midnightblue" points="176.28,-189.44 185.82,-184.84 175.49,-182.49 176.28,-189.44"/>
</g>
<!-- Node13 -->
<g id="node13" class="node">
<title>Node13</title>
<g id="a_node13"><a xlink:href="../../dd/d55/classjavolution_1_1io_1_1UTF8ByteBufferReader.html#aa9f8bda1aedfb454dde695de0de08836" target="_top" xlink:title=" ">
<polygon fill="white" stroke="black" points="186,-112 186,-142 344,-142 344,-112 186,-112"/>
<text text-anchor="start" x="194" y="-130" font-family="Helvetica,sans-Serif" font-size="10.00">javolution.io.UTF8ByteBuffer</text>
<text text-anchor="middle" x="265" y="-119" font-family="Helvetica,sans-Serif" font-size="10.00">Reader.reset</text>
</a>
</g>
</g>
<!-- Node1&#45;&gt;Node13 -->
<g id="edge16" class="edge">
<title>Node1&#45;&gt;Node13</title>
<path fill="none" stroke="midnightblue" d="M100.26,-182.87C120.59,-173.24 148,-160.93 173,-152 179.79,-149.57 186.93,-147.24 194.11,-145.05"/>
<polygon fill="midnightblue" stroke="midnightblue" points="195.29,-148.35 203.88,-142.14 193.3,-141.64 195.29,-148.35"/>
</g>
<!-- Node14 -->
<g id="node14" class="node">
<title>Node14</title>
<g id="a_node14"><a xlink:href="../../dd/d55/classjavolution_1_1io_1_1UTF8ByteBufferReader.html#abe7005a02d42951638b0e130802ad805" target="_top" xlink:title=" ">
<polygon fill="white" stroke="black" points="186,-63 186,-93 344,-93 344,-63 186,-63"/>
<text text-anchor="start" x="194" y="-81" font-family="Helvetica,sans-Serif" font-size="10.00">javolution.io.UTF8ByteBuffer</text>
<text text-anchor="middle" x="265" y="-70" font-family="Helvetica,sans-Serif" font-size="10.00">Reader.setInput</text>
</a>
</g>
</g>
<!-- Node1&#45;&gt;Node14 -->
<g id="edge17" class="edge">
<title>Node1&#45;&gt;Node14</title>
<path fill="none" stroke="midnightblue" d="M81.89,-182.77C99.81,-161.74 135.01,-124.02 173,-103 176.98,-100.8 181.16,-98.78 185.46,-96.93"/>
<polygon fill="midnightblue" stroke="midnightblue" points="187.01,-100.08 195.03,-93.15 184.44,-93.57 187.01,-100.08"/>
</g>
<!-- Node15 -->
<g id="node15" class="node">
<title>Node15</title>
<g id="a_node15"><a xlink:href="../../d2/d7a/classjavolution_1_1text_1_1TextBuilder.html#ade7c6713517620ff61311eff9c50ec06" target="_top" xlink:title=" ">
<polygon fill="white" stroke="black" points="186,-14 186,-44 344,-44 344,-14 186,-14"/>
<text text-anchor="start" x="194" y="-32" font-family="Helvetica,sans-Serif" font-size="10.00">javolution.text.TextBuilder.to</text>
<text text-anchor="middle" x="265" y="-21" font-family="Helvetica,sans-Serif" font-size="10.00">String</text>
</a>
</g>
</g>
<!-- Node1&#45;&gt;Node15 -->
<g id="edge18" class="edge">
<title>Node1&#45;&gt;Node15</title>
<path fill="none" stroke="midnightblue" d="M76.14,-182.75C89.81,-153.22 123.97,-88.11 173,-54 175.76,-52.08 178.66,-50.31 181.66,-48.67"/>
<polygon fill="midnightblue" stroke="midnightblue" points="183.46,-51.69 190.92,-44.16 180.4,-45.39 183.46,-51.69"/>
</g>
<!-- Node3 -->
<g id="node3" class="node">
<title>Node3</title>
<g id="a_node3"><a xlink:href="../../d2/d7a/classjavolution_1_1text_1_1TextBuilder.html#a6d79c3b6adfe6c04f80f940904d181b4" target="_top" xlink:title=" ">
<polygon fill="white" stroke="black" points="393,-378 393,-408 582,-408 582,-378 393,-378"/>
<text text-anchor="start" x="401" y="-396" font-family="Helvetica,sans-Serif" font-size="10.00">javolution.text.TextBuilder.increase</text>
<text text-anchor="middle" x="487.5" y="-385" font-family="Helvetica,sans-Serif" font-size="10.00">Capacity</text>
</a>
</g>
</g>
<!-- Node2&#45;&gt;Node3 -->
<g id="edge2" class="edge">
<title>Node2&#45;&gt;Node3</title>
<path fill="none" stroke="midnightblue" d="M357.28,-393C365.62,-393 374.1,-393 382.54,-393"/>
<polygon fill="midnightblue" stroke="midnightblue" points="382.8,-396.5 392.8,-393 382.8,-389.5 382.8,-396.5"/>
</g>
<!-- Node4&#45;&gt;Node4 -->
<g id="edge4" class="edge">
<title>Node4&#45;&gt;Node4</title>
<path fill="none" stroke="midnightblue" d="M230.84,-346.16C222.61,-355.56 233.99,-364.5 265,-364.5 283.9,-364.5 295.5,-361.18 299.83,-356.46"/>
<polygon fill="midnightblue" stroke="midnightblue" points="303.3,-355.91 299.16,-346.16 296.31,-356.37 303.3,-355.91"/>
</g>
<!-- Node5 -->
<g id="node5" class="node">
<title>Node5</title>
<g id="a_node5"><a xlink:href="../../d7/d99/classjavolution_1_1io_1_1Struct.html#aed9aed0fbd20e6523e215d990cbe5740" target="_top" xlink:title=" ">
<polygon fill="white" stroke="black" points="421.5,-316 421.5,-346 553.5,-346 553.5,-316 421.5,-316"/>
<text text-anchor="start" x="429.5" y="-334" font-family="Helvetica,sans-Serif" font-size="10.00">javolution.io.Struct.new</text>
<text text-anchor="middle" x="487.5" y="-323" font-family="Helvetica,sans-Serif" font-size="10.00">Buffer</text>
</a>
</g>
</g>
<!-- Node4&#45;&gt;Node5 -->
<g id="edge5" class="edge">
<title>Node4&#45;&gt;Node5</title>
<path fill="none" stroke="midnightblue" d="M329.19,-331C354.8,-331 384.59,-331 411.31,-331"/>
<polygon fill="midnightblue" stroke="midnightblue" points="411.39,-334.5 421.39,-331 411.39,-327.5 411.39,-334.5"/>
</g>
<!-- Node6 -->
<g id="node6" class="node">
<title>Node6</title>
<g id="a_node6"><a xlink:href="../../d7/d99/classjavolution_1_1io_1_1Struct.html#a81fd85611da71c484375e2c0ef9124e6" target="_top" xlink:title=" ">
<polygon fill="white" stroke="black" points="840.5,-338 840.5,-368 974.5,-368 974.5,-338 840.5,-338"/>
<text text-anchor="start" x="848.5" y="-356" font-family="Helvetica,sans-Serif" font-size="10.00">javolution.io.Struct.byte</text>
<text text-anchor="middle" x="907.5" y="-345" font-family="Helvetica,sans-Serif" font-size="10.00">Order</text>
</a>
</g>
</g>
<!-- Node5&#45;&gt;Node6 -->
<g id="edge6" class="edge">
<title>Node5&#45;&gt;Node6</title>
<path fill="none" stroke="midnightblue" d="M553.36,-346.03C573.91,-350.12 596.8,-353.97 618,-356 689.73,-362.86 771.95,-361.06 830.22,-358.17"/>
<polygon fill="midnightblue" stroke="midnightblue" points="830.64,-361.65 840.45,-357.64 830.28,-354.66 830.64,-361.65"/>
</g>
<!-- Node7 -->
<g id="node7" class="node">
<title>Node7</title>
<g id="a_node7"><a xlink:href="../../d7/d99/classjavolution_1_1io_1_1Struct.html#a27767d656cd1f1d9079c309a86912237" target="_top" xlink:title=" ">
<polygon fill="white" stroke="black" points="636.5,-316 636.5,-346 763.5,-346 763.5,-316 636.5,-316"/>
<text text-anchor="start" x="644.5" y="-334" font-family="Helvetica,sans-Serif" font-size="10.00">javolution.io.Struct.set</text>
<text text-anchor="middle" x="700" y="-323" font-family="Helvetica,sans-Serif" font-size="10.00">ByteBuffer</text>
</a>
</g>
</g>
<!-- Node5&#45;&gt;Node7 -->
<g id="edge8" class="edge">
<title>Node5&#45;&gt;Node7</title>
<path fill="none" stroke="midnightblue" d="M553.66,-331C576.59,-331 602.51,-331 626.04,-331"/>
<polygon fill="midnightblue" stroke="midnightblue" points="626.31,-334.5 636.31,-331 626.31,-327.5 626.31,-334.5"/>
</g>
<!-- Node8 -->
<g id="node8" class="node">
<title>Node8</title>
<g id="a_node8"><a xlink:href="../../d7/d99/classjavolution_1_1io_1_1Struct.html#a6c5b77be973f699a4f0a80b360de5d42" target="_top" xlink:title=" ">
<polygon fill="white" stroke="black" points="634.5,-277.5 634.5,-296.5 765.5,-296.5 765.5,-277.5 634.5,-277.5"/>
<text text-anchor="middle" x="700" y="-284.5" font-family="Helvetica,sans-Serif" font-size="10.00">javolution.io.Struct.size</text>
</a>
</g>
</g>
<!-- Node5&#45;&gt;Node8 -->
<g id="edge10" class="edge">
<title>Node5&#45;&gt;Node8</title>
<path fill="none" stroke="midnightblue" d="M553.66,-317.38C582.48,-311.36 616.02,-304.35 643.61,-298.58"/>
<polygon fill="midnightblue" stroke="midnightblue" points="644.41,-301.99 653.48,-296.51 642.98,-295.13 644.41,-301.99"/>
</g>
<!-- Node6&#45;&gt;Node6 -->
<g id="edge7" class="edge">
<title>Node6&#45;&gt;Node6</title>
<path fill="none" stroke="midnightblue" d="M871.6,-368.16C862.94,-377.56 874.91,-386.5 907.5,-386.5 927.36,-386.5 939.56,-383.18 944.1,-378.46"/>
<polygon fill="midnightblue" stroke="midnightblue" points="947.57,-377.9 943.4,-368.16 940.59,-378.37 947.57,-377.9"/>
</g>
<!-- Node7&#45;&gt;Node6 -->
<g id="edge9" class="edge">
<title>Node7&#45;&gt;Node6</title>
<path fill="none" stroke="midnightblue" d="M763.77,-337.72C784.66,-339.96 808.16,-342.47 829.97,-344.81"/>
<polygon fill="midnightblue" stroke="midnightblue" points="829.88,-348.32 840.19,-345.9 830.62,-341.36 829.88,-348.32"/>
</g>
<!-- Node9&#45;&gt;Node9 -->
<g id="edge12" class="edge">
<title>Node9&#45;&gt;Node9</title>
<path fill="none" stroke="midnightblue" d="M230.84,-279.16C222.61,-288.56 233.99,-297.5 265,-297.5 283.9,-297.5 295.5,-294.18 299.83,-289.46"/>
<polygon fill="midnightblue" stroke="midnightblue" points="303.3,-288.91 299.16,-279.16 296.31,-289.37 303.3,-288.91"/>
</g>
<!-- Node12 -->
<g id="node12" class="node">
<title>Node12</title>
<g id="a_node12"><a xlink:href="../../dd/d55/classjavolution_1_1io_1_1UTF8ByteBufferReader.html#a8d3008926e56932dfb8c3a1d7b2865d4" target="_top" xlink:title=" ">
<polygon fill="white" stroke="black" points="408.5,-161 408.5,-191 566.5,-191 566.5,-161 408.5,-161"/>
<text text-anchor="start" x="416.5" y="-179" font-family="Helvetica,sans-Serif" font-size="10.00">javolution.io.UTF8ByteBuffer</text>
<text text-anchor="middle" x="487.5" y="-168" font-family="Helvetica,sans-Serif" font-size="10.00">Reader.read2</text>
</a>
</g>
</g>
<!-- Node11&#45;&gt;Node12 -->
<g id="edge15" class="edge">
<title>Node11&#45;&gt;Node12</title>
<path fill="none" stroke="midnightblue" d="M344.05,-176C361.45,-176 380.02,-176 397.81,-176"/>
<polygon fill="midnightblue" stroke="midnightblue" points="398.18,-179.5 408.18,-176 398.18,-172.5 398.18,-179.5"/>
</g>
<!-- Node16 -->
<g id="node16" class="node">
<title>Node16</title>
<g id="a_node16"><a xlink:href="../../d2/d7a/classjavolution_1_1text_1_1TextBuilder.html#a50ba5b22d004b1e9d9d0ceaa19f5c4e3" target="_top" xlink:title=" ">
<polygon fill="white" stroke="black" points="408.5,-14 408.5,-44 566.5,-44 566.5,-14 408.5,-14"/>
<text text-anchor="start" x="416.5" y="-32" font-family="Helvetica,sans-Serif" font-size="10.00">javolution.text.TextBuilder.to</text>
<text text-anchor="middle" x="487.5" y="-21" font-family="Helvetica,sans-Serif" font-size="10.00">LargeString</text>
</a>
</g>
</g>
<!-- Node15&#45;&gt;Node16 -->
<g id="edge19" class="edge">
<title>Node15&#45;&gt;Node16</title>
<path fill="none" stroke="midnightblue" d="M344.05,-29C361.45,-29 380.02,-29 397.81,-29"/>
<polygon fill="midnightblue" stroke="midnightblue" points="398.18,-32.5 408.18,-29 398.18,-25.5 398.18,-32.5"/>
</g>
<!-- Node17 -->
<g id="node17" class="node">
<title>Node17</title>
<g id="a_node17"><a xlink:href="../../d2/d7a/classjavolution_1_1text_1_1TextBuilder.html#aad9dff80172c5e04aa996be73b4374e0" target="_top" xlink:title=" ">
<polygon fill="white" stroke="black" points="618,-14 618,-44 782,-44 782,-14 618,-14"/>
<text text-anchor="start" x="626" y="-32" font-family="Helvetica,sans-Serif" font-size="10.00">javolution.text.TextBuilder.get</text>
<text text-anchor="middle" x="700" y="-21" font-family="Helvetica,sans-Serif" font-size="10.00">Chars</text>
</a>
</g>
</g>
<!-- Node16&#45;&gt;Node17 -->
<g id="edge20" class="edge">
<title>Node16&#45;&gt;Node17</title>
<path fill="none" stroke="midnightblue" d="M566.58,-29C579.92,-29 593.87,-29 607.52,-29"/>
<polygon fill="midnightblue" stroke="midnightblue" points="607.87,-32.5 617.87,-29 607.87,-25.5 607.87,-32.5"/>
</g>
<!-- Node18 -->
<g id="node18" class="node">
<title>Node18</title>
<g id="a_node18"><a xlink:href="../../d2/d7a/classjavolution_1_1text_1_1TextBuilder.html#a23b59400283fe96ea47f786a896da5b1" target="_top" xlink:title=" ">
<polygon fill="white" stroke="black" points="818,-38.5 818,-57.5 997,-57.5 997,-38.5 818,-38.5"/>
<text text-anchor="middle" x="907.5" y="-45.5" font-family="Helvetica,sans-Serif" font-size="10.00">javolution.text.TextBuilder.length</text>
</a>
</g>
</g>
<!-- Node17&#45;&gt;Node18 -->
<g id="edge21" class="edge">
<title>Node17&#45;&gt;Node18</title>
<path fill="none" stroke="midnightblue" d="M782.22,-36.51C790.61,-37.28 799.19,-38.08 807.74,-38.87"/>
<polygon fill="midnightblue" stroke="midnightblue" points="807.47,-42.36 817.75,-39.79 808.11,-35.39 807.47,-42.36"/>
</g>
<!-- Node19 -->
<g id="node19" class="node">
<title>Node19</title>
<g id="a_node19"><a xlink:href="../../d4/d14/classjavolution_1_1lang_1_1MathLib.html#a61d82d4ab96ea86fb7868daf1c203048" target="_top" xlink:title=" ">
<polygon fill="white" stroke="black" points="831,-0.5 831,-19.5 984,-19.5 984,-0.5 831,-0.5"/>
<text text-anchor="middle" x="907.5" y="-7.5" font-family="Helvetica,sans-Serif" font-size="10.00">javolution.lang.MathLib.min</text>
</a>
</g>
</g>
<!-- Node17&#45;&gt;Node19 -->
<g id="edge22" class="edge">
<title>Node17&#45;&gt;Node19</title>
<path fill="none" stroke="midnightblue" d="M782.22,-21.49C794.88,-20.32 807.99,-19.11 820.75,-17.93"/>
<polygon fill="midnightblue" stroke="midnightblue" points="821.25,-21.4 830.89,-16.99 820.61,-14.43 821.25,-21.4"/>
</g>
</g>
</svg>
        <g id="navigator" transform="translate(0 0)" fill="#404254">
                <rect fill="#f2f5e9" fill-opacity="0.5" stroke="#606060" stroke-width=".5" x="0" y="0" width="60" height="60"/>
                <use id="zoomplus" xlink:href="#zoomPlus" x="17" y="9" onmousedown="handleZoom(evt,'in')"/>
                <use id="zoomminus" xlink:href="#zoomMin" x="42" y="9" onmousedown="handleZoom(evt,'out')"/>
                <use id="reset" xlink:href="#resetDef" x="30" y="36" onmousedown="handleReset()"/>
                <g id="arrowUp" xlink:href="#dirArrow" transform="translate(30 24)" onmousedown="handlePan(0,-1)">
                  <use xlink:href="#rim" fill="#404040">
                        <set attributeName="fill" to="#808080" begin="arrowUp.mouseover" end="arrowUp.mouseout"/>
                  </use>
                  <path fill="none" stroke="white" stroke-width="1.5" d="M0,-3.0v7 M-2.5,-0.5L0,-3.0L2.5,-0.5"/>
                </g>
                <g id="arrowRight" xlink:href="#dirArrow" transform="rotate(90) translate(36 -43)" onmousedown="handlePan(1,0)">
                  <use xlink:href="#rim" fill="#404040">
                        <set attributeName="fill" to="#808080" begin="arrowRight.mouseover" end="arrowRight.mouseout"/>
                  </use>
                  <path fill="none" stroke="white" stroke-width="1.5" d="M0,-3.0v7 M-2.5,-0.5L0,-3.0L2.5,-0.5"/>
                </g>
                <g id="arrowDown" xlink:href="#dirArrow" transform="rotate(180) translate(-30 -48)" onmousedown="handlePan(0,1)">
                  <use xlink:href="#rim" fill="#404040">
                        <set attributeName="fill" to="#808080" begin="arrowDown.mouseover" end="arrowDown.mouseout"/>
                  </use>
                  <path fill="none" stroke="white" stroke-width="1.5" d="M0,-3.0v7 M-2.5,-0.5L0,-3.0L2.5,-0.5"/>
                </g>
                <g id="arrowLeft" xlink:href="#dirArrow" transform="rotate(270) translate(-36 17)" onmousedown="handlePan(-1,0)">
                  <use xlink:href="#rim" fill="#404040">
                        <set attributeName="fill" to="#808080" begin="arrowLeft.mouseover" end="arrowLeft.mouseout"/>
                  </use>
                  <path fill="none" stroke="white" stroke-width="1.5" d="M0,-3.0v7 M-2.5,-0.5L0,-3.0L2.5,-0.5"/>
                </g>
        </g>
        <svg viewBox="0 0 15 15" width="100%" height="30px" preserveAspectRatio="xMaxYMin meet">
         <g id="arrow_out" transform="scale(0.3 0.3)">
          <a xlink:href="classjavolution_1_1io_1_1Struct_1_1UTF8String_a746422a2f474c589e30538cd8f3be028_cgraph_org.svg" target="_base">
           <rect id="button" ry="5" rx="5" y="6" x="6" height="38" width="38"
                fill="#f2f5e9" fill-opacity="0.5" stroke="#606060" stroke-width="1.0"/>
           <path id="arrow"
             d="M 11.500037,31.436501 C 11.940474,20.09759 22.043105,11.32322 32.158766,21.979434 L 37.068811,17.246167 C 37.068811,17.246167 37.088388,32 37.088388,32 L 22.160133,31.978069 C 22.160133,31.978069 26.997745,27.140456 26.997745,27.140456 C 18.528582,18.264221 13.291696,25.230495 11.500037,31.436501 z"
             style="fill:#404040;"/>
          </a>
         </g>
        </svg>
</svg>
