<?xml version="1.0" encoding="UTF-8" standalone="no"?>
<!DOCTYPE svg PUBLIC "-//W3C//DTD SVG 1.1//EN"
 "http://www.w3.org/Graphics/SVG/1.1/DTD/svg11.dtd">
<!-- Generated by graphviz version 2.43.0 (0)
 -->
<!-- Title: javolution.io.Struct.UTF8String.set Pages: 1 -->
<!--zoomable 332 -->
<svg id="main" version="1.1" xmlns="http://www.w3.org/2000/svg" xmlns:xlink="http://www.w3.org/1999/xlink" xml:space="preserve" onload="init(evt)">
<style type="text/css"><![CDATA[
.edge:hover path { stroke: red; }
.edge:hover polygon { stroke: red; fill: red; }
]]></style>
<script type="text/javascript"><![CDATA[
var edges = document.getElementsByTagName('g');
if (edges && edges.length) {
  for (var i=0;i<edges.length;i++) {
    if (edges[i].id.substr(0,4)=='edge') {
      edges[i].setAttribute('class','edge');
    }
  }
}
]]></script>
        <defs>
                <circle id="rim" cx="0" cy="0" r="7"/>
                <circle id="rim2" cx="0" cy="0" r="3.5"/>
                <g id="zoomPlus">
                        <use xlink:href="#rim" fill="#404040">
                                <set attributeName="fill" to="#808080" begin="zoomplus.mouseover" end="zoomplus.mouseout"/>
                        </use>
                        <path d="M-4,0h8M0,-4v8" fill="none" stroke="white" stroke-width="1.5" pointer-events="none"/>
                </g>
                <g id="zoomMin">
                        <use xlink:href="#rim" fill="#404040">
                                <set attributeName="fill" to="#808080" begin="zoomminus.mouseover" end="zoomminus.mouseout"/>
                        </use>
                        <path d="M-4,0h8" fill="none" stroke="white" stroke-width="1.5" pointer-events="none"/>
                </g>
                <g id="dirArrow">
                        <path fill="none" stroke="white" stroke-width="1.5" d="M0,-3.0v7 M-2.5,-0.5L0,-3.0L2.5,-0.5"/>
                </g>
               <g id="resetDef">
                       <use xlink:href="#rim2" fill="#404040">
                               <set attributeName="fill" to="#808080" begin="reset.mouseover" end="reset.mouseout"/>
                       </use>
               </g>
        </defs>

<script type="text/javascript">
var viewWidth = 868;
var viewHeight = 332;
var sectionId = 'dynsection-10';
</script>
<script xlink:href="../../svgpan.js"/>
<svg id="graph" class="graph">
<g id="viewport">
<title>javolution.io.Struct.UTF8String.set</title>
<polygon fill="white" stroke="transparent" points="-4,4 -4,-328 864,-328 864,4 -4,4"/>
<!-- Node1 -->
<g id="node1" class="node">
<title>Node1</title>
<g id="a_node1"><a xlink:title=" ">
<polygon fill="#bfbfbf" stroke="black" points="0,-120.5 0,-150.5 137,-150.5 137,-120.5 0,-120.5"/>
<text text-anchor="start" x="8" y="-138.5" font-family="Helvetica,sans-Serif" font-size="10.00">javolution.io.Struct.UTF8</text>
<text text-anchor="middle" x="68.5" y="-127.5" font-family="Helvetica,sans-Serif" font-size="10.00">String.set</text>
</a>
</g>
</g>
<!-- Node2 -->
<g id="node2" class="node">
<title>Node2</title>
<g id="a_node2"><a xlink:href="../../d7/d99/classjavolution_1_1io_1_1Struct.html#a7e750810b50675d99a38aec0e4ef0e1f" target="_top" xlink:title=" ">
<polygon fill="white" stroke="black" points="200,-253.5 200,-283.5 328,-283.5 328,-253.5 200,-253.5"/>
<text text-anchor="start" x="208" y="-271.5" font-family="Helvetica,sans-Serif" font-size="10.00">javolution.io.Struct.get</text>
<text text-anchor="middle" x="264" y="-260.5" font-family="Helvetica,sans-Serif" font-size="10.00">ByteBuffer</text>
</a>
</g>
</g>
<!-- Node1&#45;&gt;Node2 -->
<g id="edge1" class="edge">
<title>Node1&#45;&gt;Node2</title>
<path fill="none" stroke="midnightblue" d="M79.66,-150.7C96.31,-174.4 131.72,-219.98 173,-244.5 178.38,-247.7 184.2,-250.48 190.19,-252.89"/>
<polygon fill="midnightblue" stroke="midnightblue" points="189.12,-256.23 199.71,-256.39 191.53,-249.66 189.12,-256.23"/>
</g>
<!-- Node7 -->
<g id="node7" class="node">
<title>Node7</title>
<g id="a_node7"><a xlink:href="../../d7/d99/classjavolution_1_1io_1_1Struct.html#af409d73a3cf8dbd3939fcb7d5cf386e3" target="_top" xlink:title=" ">
<polygon fill="white" stroke="black" points="200,-186.5 200,-216.5 328,-216.5 328,-186.5 200,-186.5"/>
<text text-anchor="start" x="208" y="-204.5" font-family="Helvetica,sans-Serif" font-size="10.00">javolution.io.Struct.get</text>
<text text-anchor="middle" x="264" y="-193.5" font-family="Helvetica,sans-Serif" font-size="10.00">ByteBufferPosition</text>
</a>
</g>
</g>
<!-- Node1&#45;&gt;Node7 -->
<g id="edge9" class="edge">
<title>Node1&#45;&gt;Node7</title>
<path fill="none" stroke="midnightblue" d="M105.08,-150.68C124.89,-158.85 150.1,-168.81 173,-176.5 180.24,-178.93 187.87,-181.32 195.49,-183.59"/>
<polygon fill="midnightblue" stroke="midnightblue" points="194.53,-186.95 205.11,-186.4 196.49,-180.23 194.53,-186.95"/>
</g>
<!-- Node8 -->
<g id="node8" class="node">
<title>Node8</title>
<g id="a_node8"><a xlink:href="../../d2/d46/classjavolution_1_1io_1_1Struct_1_1Member.html#a0055f0a4d71892a2eead00baf426d96c" target="_top" xlink:title=" ">
<polygon fill="white" stroke="black" points="173,-148 173,-167 355,-167 355,-148 173,-148"/>
<text text-anchor="middle" x="264" y="-155" font-family="Helvetica,sans-Serif" font-size="10.00">javolution.io.Struct.Member.offset</text>
</a>
</g>
</g>
<!-- Node1&#45;&gt;Node8 -->
<g id="edge11" class="edge">
<title>Node1&#45;&gt;Node8</title>
<path fill="none" stroke="midnightblue" d="M137.18,-143.19C147.61,-144.38 158.53,-145.62 169.41,-146.86"/>
<polygon fill="midnightblue" stroke="midnightblue" points="169.03,-150.34 179.36,-147.99 169.82,-143.38 169.03,-150.34"/>
</g>
<!-- Node9 -->
<g id="node9" class="node">
<title>Node9</title>
<g id="a_node9"><a xlink:href="../../d6/d9e/classjavolution_1_1io_1_1UTF8ByteBufferWriter.html#a4852948573a69153718df590f7ad8c03" target="_top" xlink:title=" ">
<polygon fill="white" stroke="black" points="185,-98.5 185,-128.5 343,-128.5 343,-98.5 185,-98.5"/>
<text text-anchor="start" x="193" y="-116.5" font-family="Helvetica,sans-Serif" font-size="10.00">javolution.io.UTF8ByteBuffer</text>
<text text-anchor="middle" x="264" y="-105.5" font-family="Helvetica,sans-Serif" font-size="10.00">Writer.reset</text>
</a>
</g>
</g>
<!-- Node1&#45;&gt;Node9 -->
<g id="edge12" class="edge">
<title>Node1&#45;&gt;Node9</title>
<path fill="none" stroke="midnightblue" d="M137.18,-127.81C149.3,-126.43 162.1,-124.97 174.7,-123.54"/>
<polygon fill="midnightblue" stroke="midnightblue" points="175.21,-127 184.75,-122.4 174.42,-120.05 175.21,-127"/>
</g>
<!-- Node10 -->
<g id="node10" class="node">
<title>Node10</title>
<g id="a_node10"><a xlink:href="../../d6/d9e/classjavolution_1_1io_1_1UTF8ByteBufferWriter.html#a7c798e5580b661e96bac7303c27bc527" target="_top" xlink:title=" ">
<polygon fill="white" stroke="black" points="185,-49.5 185,-79.5 343,-79.5 343,-49.5 185,-49.5"/>
<text text-anchor="start" x="193" y="-67.5" font-family="Helvetica,sans-Serif" font-size="10.00">javolution.io.UTF8ByteBuffer</text>
<text text-anchor="middle" x="264" y="-56.5" font-family="Helvetica,sans-Serif" font-size="10.00">Writer.setOutput</text>
</a>
</g>
</g>
<!-- Node1&#45;&gt;Node10 -->
<g id="edge13" class="edge">
<title>Node1&#45;&gt;Node10</title>
<path fill="none" stroke="midnightblue" d="M99.3,-120.38C119.69,-110.42 147.54,-97.6 173,-88.5 178.9,-86.39 185.07,-84.37 191.29,-82.46"/>
<polygon fill="midnightblue" stroke="midnightblue" points="192.51,-85.75 201.1,-79.56 190.52,-79.04 192.51,-85.75"/>
</g>
<!-- Node11 -->
<g id="node11" class="node">
<title>Node11</title>
<g id="a_node11"><a xlink:href="../../d6/d9e/classjavolution_1_1io_1_1UTF8ByteBufferWriter.html#a96cd5c7d098b1ebcc065461462a280f0" target="_top" xlink:title=" ">
<polygon fill="white" stroke="black" points="185,-0.5 185,-30.5 343,-30.5 343,-0.5 185,-0.5"/>
<text text-anchor="start" x="193" y="-18.5" font-family="Helvetica,sans-Serif" font-size="10.00">javolution.io.UTF8ByteBuffer</text>
<text text-anchor="middle" x="264" y="-7.5" font-family="Helvetica,sans-Serif" font-size="10.00">Writer.write</text>
</a>
</g>
</g>
<!-- Node1&#45;&gt;Node11 -->
<g id="edge14" class="edge">
<title>Node1&#45;&gt;Node11</title>
<path fill="none" stroke="midnightblue" d="M81.53,-120.42C99.29,-99.18 134.59,-60.69 173,-39.5 176.31,-37.67 179.77,-35.98 183.31,-34.41"/>
<polygon fill="midnightblue" stroke="midnightblue" points="184.92,-37.54 192.88,-30.54 182.3,-31.05 184.92,-37.54"/>
</g>
<!-- Node2&#45;&gt;Node2 -->
<g id="edge2" class="edge">
<title>Node2&#45;&gt;Node2</title>
<path fill="none" stroke="midnightblue" d="M230.54,-283.66C222.47,-293.06 233.62,-302 264,-302 282.51,-302 293.88,-298.68 298.12,-293.96"/>
<polygon fill="midnightblue" stroke="midnightblue" points="301.59,-293.42 297.46,-283.66 294.6,-293.86 301.59,-293.42"/>
</g>
<!-- Node3 -->
<g id="node3" class="node">
<title>Node3</title>
<g id="a_node3"><a xlink:href="../../d7/d99/classjavolution_1_1io_1_1Struct.html#aed9aed0fbd20e6523e215d990cbe5740" target="_top" xlink:title=" ">
<polygon fill="white" stroke="black" points="391,-253.5 391,-283.5 523,-283.5 523,-253.5 391,-253.5"/>
<text text-anchor="start" x="399" y="-271.5" font-family="Helvetica,sans-Serif" font-size="10.00">javolution.io.Struct.new</text>
<text text-anchor="middle" x="457" y="-260.5" font-family="Helvetica,sans-Serif" font-size="10.00">Buffer</text>
</a>
</g>
</g>
<!-- Node2&#45;&gt;Node3 -->
<g id="edge3" class="edge">
<title>Node2&#45;&gt;Node3</title>
<path fill="none" stroke="midnightblue" d="M328.07,-268.5C344.87,-268.5 363.2,-268.5 380.59,-268.5"/>
<polygon fill="midnightblue" stroke="midnightblue" points="380.71,-272 390.71,-268.5 380.71,-265 380.71,-272"/>
</g>
<!-- Node4 -->
<g id="node4" class="node">
<title>Node4</title>
<g id="a_node4"><a xlink:href="../../d7/d99/classjavolution_1_1io_1_1Struct.html#a81fd85611da71c484375e2c0ef9124e6" target="_top" xlink:title=" ">
<polygon fill="white" stroke="black" points="726,-275.5 726,-305.5 860,-305.5 860,-275.5 726,-275.5"/>
<text text-anchor="start" x="734" y="-293.5" font-family="Helvetica,sans-Serif" font-size="10.00">javolution.io.Struct.byte</text>
<text text-anchor="middle" x="793" y="-282.5" font-family="Helvetica,sans-Serif" font-size="10.00">Order</text>
</a>
</g>
</g>
<!-- Node3&#45;&gt;Node4 -->
<g id="edge4" class="edge">
<title>Node3&#45;&gt;Node4</title>
<path fill="none" stroke="midnightblue" d="M508.41,-283.53C524.43,-287.61 542.32,-291.47 559,-293.5 611.08,-299.85 670.19,-299 715.84,-296.61"/>
<polygon fill="midnightblue" stroke="midnightblue" points="716.17,-300.09 725.96,-296.04 715.78,-293.11 716.17,-300.09"/>
</g>
<!-- Node5 -->
<g id="node5" class="node">
<title>Node5</title>
<g id="a_node5"><a xlink:href="../../d7/d99/classjavolution_1_1io_1_1Struct.html#a27767d656cd1f1d9079c309a86912237" target="_top" xlink:title=" ">
<polygon fill="white" stroke="black" points="561,-253.5 561,-283.5 688,-283.5 688,-253.5 561,-253.5"/>
<text text-anchor="start" x="569" y="-271.5" font-family="Helvetica,sans-Serif" font-size="10.00">javolution.io.Struct.set</text>
<text text-anchor="middle" x="624.5" y="-260.5" font-family="Helvetica,sans-Serif" font-size="10.00">ByteBuffer</text>
</a>
</g>
</g>
<!-- Node3&#45;&gt;Node5 -->
<g id="edge6" class="edge">
<title>Node3&#45;&gt;Node5</title>
<path fill="none" stroke="midnightblue" d="M523.41,-268.5C532.4,-268.5 541.68,-268.5 550.8,-268.5"/>
<polygon fill="midnightblue" stroke="midnightblue" points="550.99,-272 560.99,-268.5 550.99,-265 550.99,-272"/>
</g>
<!-- Node6 -->
<g id="node6" class="node">
<title>Node6</title>
<g id="a_node6"><a xlink:href="../../d7/d99/classjavolution_1_1io_1_1Struct.html#a6c5b77be973f699a4f0a80b360de5d42" target="_top" xlink:title=" ">
<polygon fill="white" stroke="black" points="559,-215 559,-234 690,-234 690,-215 559,-215"/>
<text text-anchor="middle" x="624.5" y="-222" font-family="Helvetica,sans-Serif" font-size="10.00">javolution.io.Struct.size</text>
</a>
</g>
</g>
<!-- Node3&#45;&gt;Node6 -->
<g id="edge8" class="edge">
<title>Node3&#45;&gt;Node6</title>
<path fill="none" stroke="midnightblue" d="M514.49,-253.48C535.07,-248.01 558.05,-241.9 577.6,-236.7"/>
<polygon fill="midnightblue" stroke="midnightblue" points="578.71,-240.03 587.47,-234.08 576.91,-233.27 578.71,-240.03"/>
</g>
<!-- Node4&#45;&gt;Node4 -->
<g id="edge5" class="edge">
<title>Node4&#45;&gt;Node4</title>
<path fill="none" stroke="midnightblue" d="M763.72,-305.66C756.66,-315.06 766.42,-324 793,-324 809.2,-324 819.15,-320.68 822.85,-315.96"/>
<polygon fill="midnightblue" stroke="midnightblue" points="826.33,-315.45 822.28,-305.66 819.34,-315.84 826.33,-315.45"/>
</g>
<!-- Node5&#45;&gt;Node4 -->
<g id="edge7" class="edge">
<title>Node5&#45;&gt;Node4</title>
<path fill="none" stroke="midnightblue" d="M688.45,-276.82C697.44,-278.01 706.77,-279.24 715.98,-280.46"/>
<polygon fill="midnightblue" stroke="midnightblue" points="715.54,-283.93 725.91,-281.77 716.46,-276.99 715.54,-283.93"/>
</g>
<!-- Node7&#45;&gt;Node7 -->
<g id="edge10" class="edge">
<title>Node7&#45;&gt;Node7</title>
<path fill="none" stroke="midnightblue" d="M230.54,-216.66C222.47,-226.06 233.62,-235 264,-235 282.51,-235 293.88,-231.68 298.12,-226.96"/>
<polygon fill="midnightblue" stroke="midnightblue" points="301.59,-226.42 297.46,-216.66 294.6,-226.86 301.59,-226.42"/>
</g>
</g>
</svg>
        <g id="navigator" transform="translate(0 0)" fill="#404254">
                <rect fill="#f2f5e9" fill-opacity="0.5" stroke="#606060" stroke-width=".5" x="0" y="0" width="60" height="60"/>
                <use id="zoomplus" xlink:href="#zoomPlus" x="17" y="9" onmousedown="handleZoom(evt,'in')"/>
                <use id="zoomminus" xlink:href="#zoomMin" x="42" y="9" onmousedown="handleZoom(evt,'out')"/>
                <use id="reset" xlink:href="#resetDef" x="30" y="36" onmousedown="handleReset()"/>
                <g id="arrowUp" xlink:href="#dirArrow" transform="translate(30 24)" onmousedown="handlePan(0,-1)">
                  <use xlink:href="#rim" fill="#404040">
                        <set attributeName="fill" to="#808080" begin="arrowUp.mouseover" end="arrowUp.mouseout"/>
                  </use>
                  <path fill="none" stroke="white" stroke-width="1.5" d="M0,-3.0v7 M-2.5,-0.5L0,-3.0L2.5,-0.5"/>
                </g>
                <g id="arrowRight" xlink:href="#dirArrow" transform="rotate(90) translate(36 -43)" onmousedown="handlePan(1,0)">
                  <use xlink:href="#rim" fill="#404040">
                        <set attributeName="fill" to="#808080" begin="arrowRight.mouseover" end="arrowRight.mouseout"/>
                  </use>
                  <path fill="none" stroke="white" stroke-width="1.5" d="M0,-3.0v7 M-2.5,-0.5L0,-3.0L2.5,-0.5"/>
                </g>
                <g id="arrowDown" xlink:href="#dirArrow" transform="rotate(180) translate(-30 -48)" onmousedown="handlePan(0,1)">
                  <use xlink:href="#rim" fill="#404040">
                        <set attributeName="fill" to="#808080" begin="arrowDown.mouseover" end="arrowDown.mouseout"/>
                  </use>
                  <path fill="none" stroke="white" stroke-width="1.5" d="M0,-3.0v7 M-2.5,-0.5L0,-3.0L2.5,-0.5"/>
                </g>
                <g id="arrowLeft" xlink:href="#dirArrow" transform="rotate(270) translate(-36 17)" onmousedown="handlePan(-1,0)">
                  <use xlink:href="#rim" fill="#404040">
                        <set attributeName="fill" to="#808080" begin="arrowLeft.mouseover" end="arrowLeft.mouseout"/>
                  </use>
                  <path fill="none" stroke="white" stroke-width="1.5" d="M0,-3.0v7 M-2.5,-0.5L0,-3.0L2.5,-0.5"/>
                </g>
        </g>
        <svg viewBox="0 0 15 15" width="100%" height="30px" preserveAspectRatio="xMaxYMin meet">
         <g id="arrow_out" transform="scale(0.3 0.3)">
          <a xlink:href="classjavolution_1_1io_1_1Struct_1_1UTF8String_ab941bbe254b0b1ed8862a1ef17a554c2_cgraph_org.svg" target="_base">
           <rect id="button" ry="5" rx="5" y="6" x="6" height="38" width="38"
                fill="#f2f5e9" fill-opacity="0.5" stroke="#606060" stroke-width="1.0"/>
           <path id="arrow"
             d="M 11.500037,31.436501 C 11.940474,20.09759 22.043105,11.32322 32.158766,21.979434 L 37.068811,17.246167 C 37.068811,17.246167 37.088388,32 37.088388,32 L 22.160133,31.978069 C 22.160133,31.978069 26.997745,27.140456 26.997745,27.140456 C 18.528582,18.264221 13.291696,25.230495 11.500037,31.436501 z"
             style="fill:#404040;"/>
          </a>
         </g>
        </svg>
</svg>
