<?xml version="1.0" encoding="UTF-8" standalone="no"?>
<!DOCTYPE svg PUBLIC "-//W3C//DTD SVG 1.1//EN"
 "http://www.w3.org/Graphics/SVG/1.1/DTD/svg11.dtd">
<!-- Generated by graphviz version 2.43.0 (0)
 -->
<!-- Title: javolution.xml.XMLBinding.writeClass Pages: 1 -->
<svg width="388pt" height="127pt"
 viewBox="0.00 0.00 388.00 126.50" xmlns="http://www.w3.org/2000/svg" xmlns:xlink="http://www.w3.org/1999/xlink">
<g id="graph0" class="graph" transform="scale(1 1) rotate(0) translate(4 122.5)">
<title>javolution.xml.XMLBinding.writeClass</title>
<polygon fill="white" stroke="transparent" points="-4,4 -4,-122.5 384,-122.5 384,4 -4,4"/>
<!-- Node1 -->
<g id="node1" class="node">
<title>Node1</title>
<g id="a_node1"><a xlink:title=" ">
<polygon fill="#bfbfbf" stroke="black" points="0,-39 0,-69 176,-69 176,-39 0,-39"/>
<text text-anchor="start" x="8" y="-57" font-family="Helvetica,sans-Serif" font-size="10.00">javolution.xml.XMLBinding.write</text>
<text text-anchor="middle" x="88" y="-46" font-family="Helvetica,sans-Serif" font-size="10.00">Class</text>
</a>
</g>
</g>
<!-- Node2 -->
<g id="node2" class="node">
<title>Node2</title>
<g id="a_node2"><a xlink:href="../../d0/dc4/classjavolution_1_1xml_1_1QName.html#ad22b79fa18cd3590c652b98b79ac977b" target="_top" xlink:title=" ">
<polygon fill="white" stroke="black" points="223,-88 223,-118 369,-118 369,-88 223,-88"/>
<text text-anchor="start" x="231" y="-106" font-family="Helvetica,sans-Serif" font-size="10.00">javolution.xml.QName.get</text>
<text text-anchor="middle" x="296" y="-95" font-family="Helvetica,sans-Serif" font-size="10.00">LocalName</text>
</a>
</g>
</g>
<!-- Node1&#45;&gt;Node2 -->
<g id="edge1" class="edge">
<title>Node1&#45;&gt;Node2</title>
<path fill="none" stroke="midnightblue" d="M152.21,-69.03C174.25,-74.28 199.18,-80.21 221.96,-85.63"/>
<polygon fill="midnightblue" stroke="midnightblue" points="221.37,-89.08 231.91,-87.99 222.99,-82.27 221.37,-89.08"/>
</g>
<!-- Node3 -->
<g id="node3" class="node">
<title>Node3</title>
<g id="a_node3"><a xlink:href="../../d0/dc4/classjavolution_1_1xml_1_1QName.html#a9ec5828eccdd7619e9d69b33d1b4ab99" target="_top" xlink:title=" ">
<polygon fill="white" stroke="black" points="223,-39 223,-69 369,-69 369,-39 223,-39"/>
<text text-anchor="start" x="231" y="-57" font-family="Helvetica,sans-Serif" font-size="10.00">javolution.xml.QName.get</text>
<text text-anchor="middle" x="296" y="-46" font-family="Helvetica,sans-Serif" font-size="10.00">NamespaceURI</text>
</a>
</g>
</g>
<!-- Node1&#45;&gt;Node3 -->
<g id="edge2" class="edge">
<title>Node1&#45;&gt;Node3</title>
<path fill="none" stroke="midnightblue" d="M176.06,-54C188.25,-54 200.73,-54 212.82,-54"/>
<polygon fill="midnightblue" stroke="midnightblue" points="212.86,-57.5 222.86,-54 212.86,-50.5 212.86,-57.5"/>
</g>
<!-- Node4 -->
<g id="node4" class="node">
<title>Node4</title>
<g id="a_node4"><a xlink:href="../../d0/dc4/classjavolution_1_1xml_1_1QName.html#ad25f28efea4ffc493cac269fffba93b0" target="_top" xlink:title=" ">
<polygon fill="white" stroke="black" points="212,-0.5 212,-19.5 380,-19.5 380,-0.5 212,-0.5"/>
<text text-anchor="middle" x="296" y="-7.5" font-family="Helvetica,sans-Serif" font-size="10.00">javolution.xml.QName.toString</text>
</a>
</g>
</g>
<!-- Node1&#45;&gt;Node4 -->
<g id="edge3" class="edge">
<title>Node1&#45;&gt;Node4</title>
<path fill="none" stroke="midnightblue" d="M159.32,-38.98C185.85,-33.31 215.61,-26.96 240.48,-21.64"/>
<polygon fill="midnightblue" stroke="midnightblue" points="241.42,-25.02 250.46,-19.51 239.95,-18.18 241.42,-25.02"/>
</g>
</g>
</svg>
