<?xml version="1.0" encoding="UTF-8" standalone="no"?>
<!DOCTYPE svg PUBLIC "-//W3C//DTD SVG 1.1//EN"
 "http://www.w3.org/Graphics/SVG/1.1/DTD/svg11.dtd">
<!-- Generated by graphviz version 2.43.0 (0)
 -->
<!-- Title: javolution.xml.XMLBinding.getFormat Pages: 1 -->
<svg width="798pt" height="112pt"
 viewBox="0.00 0.00 798.00 112.00" xmlns="http://www.w3.org/2000/svg" xmlns:xlink="http://www.w3.org/1999/xlink">
<g id="graph0" class="graph" transform="scale(1 1) rotate(0) translate(4 108)">
<title>javolution.xml.XMLBinding.getFormat</title>
<polygon fill="white" stroke="transparent" points="-4,4 -4,-108 794,-108 794,4 -4,4"/>
<!-- Node1 -->
<g id="node1" class="node">
<title>Node1</title>
<g id="a_node1"><a xlink:title=" ">
<polygon fill="#bfbfbf" stroke="black" points="0,-24.5 0,-54.5 167,-54.5 167,-24.5 0,-24.5"/>
<text text-anchor="start" x="8" y="-42.5" font-family="Helvetica,sans-Serif" font-size="10.00">javolution.xml.XMLBinding.get</text>
<text text-anchor="middle" x="83.5" y="-31.5" font-family="Helvetica,sans-Serif" font-size="10.00">Format</text>
</a>
</g>
</g>
<!-- Node2 -->
<g id="node2" class="node">
<title>Node2</title>
<g id="a_node2"><a xlink:href="../../d8/db0/classjavolution_1_1xml_1_1XMLContext.html#a1754743cdfc47aac71b7d3983afcf72f" target="_top" xlink:title=" ">
<polygon fill="white" stroke="black" points="203,-24.5 203,-54.5 371,-54.5 371,-24.5 203,-24.5"/>
<text text-anchor="start" x="211" y="-42.5" font-family="Helvetica,sans-Serif" font-size="10.00">javolution.xml.XMLContext.get</text>
<text text-anchor="middle" x="287" y="-31.5" font-family="Helvetica,sans-Serif" font-size="10.00">Format</text>
</a>
</g>
</g>
<!-- Node1&#45;&gt;Node2 -->
<g id="edge1" class="edge">
<title>Node1&#45;&gt;Node2</title>
<path fill="none" stroke="midnightblue" d="M167.04,-39.5C175.55,-39.5 184.25,-39.5 192.87,-39.5"/>
<polygon fill="midnightblue" stroke="midnightblue" points="192.94,-43 202.94,-39.5 192.94,-36 192.94,-43"/>
</g>
<!-- Node3 -->
<g id="node3" class="node">
<title>Node3</title>
<g id="a_node3"><a xlink:href="../../d8/db0/classjavolution_1_1xml_1_1XMLContext.html#a93672831d863cf79bd391083417835e2" target="_top" xlink:title=" ">
<polygon fill="white" stroke="black" points="407,-49.5 407,-79.5 594,-79.5 594,-49.5 407,-49.5"/>
<text text-anchor="start" x="415" y="-67.5" font-family="Helvetica,sans-Serif" font-size="10.00">javolution.xml.XMLContext.current</text>
<text text-anchor="middle" x="500.5" y="-56.5" font-family="Helvetica,sans-Serif" font-size="10.00">XMLContext</text>
</a>
</g>
</g>
<!-- Node2&#45;&gt;Node3 -->
<g id="edge2" class="edge">
<title>Node2&#45;&gt;Node3</title>
<path fill="none" stroke="midnightblue" d="M371.29,-49.34C379.68,-50.34 388.27,-51.35 396.83,-52.36"/>
<polygon fill="midnightblue" stroke="midnightblue" points="396.51,-55.85 406.86,-53.55 397.34,-48.9 396.51,-55.85"/>
</g>
<!-- Node6 -->
<g id="node6" class="node">
<title>Node6</title>
<g id="a_node6"><a xlink:href="../../d8/db0/classjavolution_1_1xml_1_1XMLContext.html#a5e85df846285e451b965649609a3b96e" target="_top" xlink:title=" ">
<polygon fill="white" stroke="black" points="408,-0.5 408,-30.5 593,-30.5 593,-0.5 408,-0.5"/>
<text text-anchor="start" x="416" y="-18.5" font-family="Helvetica,sans-Serif" font-size="10.00">javolution.xml.XMLContext.search</text>
<text text-anchor="middle" x="500.5" y="-7.5" font-family="Helvetica,sans-Serif" font-size="10.00">Format</text>
</a>
</g>
</g>
<!-- Node2&#45;&gt;Node6 -->
<g id="edge5" class="edge">
<title>Node2&#45;&gt;Node6</title>
<path fill="none" stroke="midnightblue" d="M371.29,-30.05C380.02,-29.06 388.97,-28.04 397.88,-27.03"/>
<polygon fill="midnightblue" stroke="midnightblue" points="398.37,-30.5 407.91,-25.89 397.58,-23.54 398.37,-30.5"/>
</g>
<!-- Node4 -->
<g id="node4" class="node">
<title>Node4</title>
<g id="a_node4"><a xlink:href="../../d3/d0f/classjavolution_1_1context_1_1AbstractContext.html#a39804b0188cf822819d88f43715deaba" target="_top" xlink:title=" ">
<polygon fill="white" stroke="black" points="635.5,-73.5 635.5,-103.5 784.5,-103.5 784.5,-73.5 635.5,-73.5"/>
<text text-anchor="start" x="643.5" y="-91.5" font-family="Helvetica,sans-Serif" font-size="10.00">javolution.context.Abstract</text>
<text text-anchor="middle" x="710" y="-80.5" font-family="Helvetica,sans-Serif" font-size="10.00">Context.current</text>
</a>
</g>
</g>
<!-- Node3&#45;&gt;Node4 -->
<g id="edge3" class="edge">
<title>Node3&#45;&gt;Node4</title>
<path fill="none" stroke="midnightblue" d="M594.02,-75.2C604.4,-76.4 614.92,-77.62 625.18,-78.81"/>
<polygon fill="midnightblue" stroke="midnightblue" points="625,-82.31 635.33,-79.98 625.8,-75.35 625,-82.31"/>
</g>
<!-- Node5 -->
<g id="node5" class="node">
<title>Node5</title>
<g id="a_node5"><a xlink:href="../../d8/d20/classjavolution_1_1osgi_1_1internal_1_1OSGiServices.html#a8a591ccbb1664edfa43316b61a512438" target="_top" xlink:title=" ">
<polygon fill="white" stroke="black" points="630,-24.5 630,-54.5 790,-54.5 790,-24.5 630,-24.5"/>
<text text-anchor="start" x="638" y="-42.5" font-family="Helvetica,sans-Serif" font-size="10.00">javolution.osgi.internal.</text>
<text text-anchor="middle" x="710" y="-31.5" font-family="Helvetica,sans-Serif" font-size="10.00">OSGiServices.getXMLContext</text>
</a>
</g>
</g>
<!-- Node3&#45;&gt;Node5 -->
<g id="edge4" class="edge">
<title>Node3&#45;&gt;Node5</title>
<path fill="none" stroke="midnightblue" d="M594.02,-53.35C602.65,-52.31 611.37,-51.26 619.96,-50.23"/>
<polygon fill="midnightblue" stroke="midnightblue" points="620.46,-53.69 629.97,-49.02 619.62,-46.74 620.46,-53.69"/>
</g>
</g>
</svg>
