<?xml version="1.0" encoding="UTF-8" standalone="no"?>
<!DOCTYPE svg PUBLIC "-//W3C//DTD SVG 1.1//EN"
 "http://www.w3.org/Graphics/SVG/1.1/DTD/svg11.dtd">
<!-- Generated by graphviz version 2.43.0 (0)
 -->
<!-- Title: javolution.xml.XMLBinding.setClassAttribute Pages: 1 -->
<!--zoomable 97 -->
<svg id="main" version="1.1" xmlns="http://www.w3.org/2000/svg" xmlns:xlink="http://www.w3.org/1999/xlink" xml:space="preserve" onload="init(evt)">
<style type="text/css"><![CDATA[
.edge:hover path { stroke: red; }
.edge:hover polygon { stroke: red; fill: red; }
]]></style>
<script type="text/javascript"><![CDATA[
var edges = document.getElementsByTagName('g');
if (edges && edges.length) {
  for (var i=0;i<edges.length;i++) {
    if (edges[i].id.substr(0,4)=='edge') {
      edges[i].setAttribute('class','edge');
    }
  }
}
]]></script>
        <defs>
                <circle id="rim" cx="0" cy="0" r="7"/>
                <circle id="rim2" cx="0" cy="0" r="3.5"/>
                <g id="zoomPlus">
                        <use xlink:href="#rim" fill="#404040">
                                <set attributeName="fill" to="#808080" begin="zoomplus.mouseover" end="zoomplus.mouseout"/>
                        </use>
                        <path d="M-4,0h8M0,-4v8" fill="none" stroke="white" stroke-width="1.5" pointer-events="none"/>
                </g>
                <g id="zoomMin">
                        <use xlink:href="#rim" fill="#404040">
                                <set attributeName="fill" to="#808080" begin="zoomminus.mouseover" end="zoomminus.mouseout"/>
                        </use>
                        <path d="M-4,0h8" fill="none" stroke="white" stroke-width="1.5" pointer-events="none"/>
                </g>
                <g id="dirArrow">
                        <path fill="none" stroke="white" stroke-width="1.5" d="M0,-3.0v7 M-2.5,-0.5L0,-3.0L2.5,-0.5"/>
                </g>
               <g id="resetDef">
                       <use xlink:href="#rim2" fill="#404040">
                               <set attributeName="fill" to="#808080" begin="reset.mouseover" end="reset.mouseout"/>
                       </use>
               </g>
        </defs>

<script type="text/javascript">
var viewWidth = 982;
var viewHeight = 97;
var sectionId = 'dynsection-10';
</script>
<script xlink:href="../../svgpan.js"/>
<svg id="graph" class="graph">
<g id="viewport">
<title>javolution.xml.XMLBinding.setClassAttribute</title>
<polygon fill="white" stroke="transparent" points="-4,4 -4,-92.5 978,-92.5 978,4 -4,4"/>
<!-- Node1 -->
<g id="node1" class="node">
<title>Node1</title>
<g id="a_node1"><a xlink:title=" ">
<polygon fill="#bfbfbf" stroke="black" points="0,-36 0,-66 166,-66 166,-36 0,-36"/>
<text text-anchor="start" x="8" y="-54" font-family="Helvetica,sans-Serif" font-size="10.00">javolution.xml.XMLBinding.set</text>
<text text-anchor="middle" x="83" y="-43" font-family="Helvetica,sans-Serif" font-size="10.00">ClassAttribute</text>
</a>
</g>
</g>
<!-- Node2 -->
<g id="node2" class="node">
<title>Node2</title>
<g id="a_node2"><a xlink:href="../../d2/d42/classjavolution_1_1xml_1_1XMLBinding.html#a33584d8966d0a41689142eb70c0ac5ac" target="_top" xlink:title=" ">
<polygon fill="white" stroke="black" points="203,-58 203,-88 369,-88 369,-58 203,-58"/>
<text text-anchor="start" x="211" y="-76" font-family="Helvetica,sans-Serif" font-size="10.00">javolution.xml.XMLBinding.set</text>
<text text-anchor="middle" x="286" y="-65" font-family="Helvetica,sans-Serif" font-size="10.00">ClassAttribute</text>
</a>
</g>
</g>
<!-- Node1&#45;&gt;Node2 -->
<g id="edge1" class="edge">
<title>Node1&#45;&gt;Node2</title>
<path fill="none" stroke="midnightblue" d="M166.04,-59.98C174.88,-60.95 183.91,-61.94 192.85,-62.91"/>
<polygon fill="midnightblue" stroke="midnightblue" points="192.57,-66.4 202.89,-64.01 193.33,-59.45 192.57,-66.4"/>
</g>
<!-- Node3 -->
<g id="node3" class="node">
<title>Node3</title>
<g id="a_node3"><a xlink:href="../../d0/dc4/classjavolution_1_1xml_1_1QName.html#a41d330e516b0c040456ab7730ce54394" target="_top" xlink:title=" ">
<polygon fill="white" stroke="black" points="202,-19.5 202,-38.5 370,-38.5 370,-19.5 202,-19.5"/>
<text text-anchor="middle" x="286" y="-26.5" font-family="Helvetica,sans-Serif" font-size="10.00">javolution.xml.QName.valueOf</text>
</a>
</g>
</g>
<!-- Node1&#45;&gt;Node3 -->
<g id="edge2" class="edge">
<title>Node1&#45;&gt;Node3</title>
<path fill="none" stroke="midnightblue" d="M166.04,-42.02C174.55,-41.09 183.24,-40.14 191.85,-39.2"/>
<polygon fill="midnightblue" stroke="midnightblue" points="192.35,-42.66 201.91,-38.09 191.59,-35.7 192.35,-42.66"/>
</g>
<!-- Node4 -->
<g id="node4" class="node">
<title>Node4</title>
<g id="a_node4"><a xlink:href="../../d0/dc4/classjavolution_1_1xml_1_1QName.html#aad0b37db47b51c65188feffbb0a3491c" target="_top" xlink:title=" ">
<polygon fill="white" stroke="black" points="406,-58 406,-88 567,-88 567,-58 406,-58"/>
<text text-anchor="start" x="414" y="-76" font-family="Helvetica,sans-Serif" font-size="10.00">javolution.xml.QName.create</text>
<text text-anchor="middle" x="486.5" y="-65" font-family="Helvetica,sans-Serif" font-size="10.00">NoNamespace</text>
</a>
</g>
</g>
<!-- Node3&#45;&gt;Node4 -->
<g id="edge3" class="edge">
<title>Node3&#45;&gt;Node4</title>
<path fill="none" stroke="midnightblue" d="M330.07,-38.55C352.72,-43.57 381.19,-49.88 407.55,-55.72"/>
<polygon fill="midnightblue" stroke="midnightblue" points="407.01,-59.19 417.53,-57.93 408.53,-52.35 407.01,-59.19"/>
</g>
<!-- Node5 -->
<g id="node5" class="node">
<title>Node5</title>
<g id="a_node5"><a xlink:href="../../d0/dc4/classjavolution_1_1xml_1_1QName.html#a74290325df829082764dafc52ed44a1f" target="_top" xlink:title=" ">
<polygon fill="white" stroke="black" points="603,-19.5 603,-38.5 770,-38.5 770,-19.5 603,-19.5"/>
<text text-anchor="middle" x="686.5" y="-26.5" font-family="Helvetica,sans-Serif" font-size="10.00">javolution.xml.QName.QName</text>
</a>
</g>
</g>
<!-- Node3&#45;&gt;Node5 -->
<g id="edge6" class="edge">
<title>Node3&#45;&gt;Node5</title>
<path fill="none" stroke="midnightblue" d="M370.05,-29C435.03,-29 525.36,-29 592.71,-29"/>
<polygon fill="midnightblue" stroke="midnightblue" points="592.9,-32.5 602.9,-29 592.9,-25.5 592.9,-32.5"/>
</g>
<!-- Node6 -->
<g id="node6" class="node">
<title>Node6</title>
<g id="a_node6"><a xlink:href="../../d0/dc4/classjavolution_1_1xml_1_1QName.html#ad25f28efea4ffc493cac269fffba93b0" target="_top" xlink:title=" ">
<polygon fill="white" stroke="black" points="806,-0.5 806,-19.5 974,-19.5 974,-0.5 806,-0.5"/>
<text text-anchor="middle" x="890" y="-7.5" font-family="Helvetica,sans-Serif" font-size="10.00">javolution.xml.QName.toString</text>
</a>
</g>
</g>
<!-- Node3&#45;&gt;Node6 -->
<g id="edge7" class="edge">
<title>Node3&#45;&gt;Node6</title>
<path fill="none" stroke="midnightblue" d="M370.1,-22.64C433.8,-18.09 523.89,-12.38 603,-10 667.24,-8.07 739.64,-8.09 795.52,-8.59"/>
<polygon fill="midnightblue" stroke="midnightblue" points="795.72,-12.09 805.76,-8.68 795.79,-5.09 795.72,-12.09"/>
</g>
<!-- Node4&#45;&gt;Node5 -->
<g id="edge4" class="edge">
<title>Node4&#45;&gt;Node5</title>
<path fill="none" stroke="midnightblue" d="M555.09,-57.98C580.48,-52.34 608.94,-46.01 632.78,-40.72"/>
<polygon fill="midnightblue" stroke="midnightblue" points="633.69,-44.1 642.69,-38.51 632.17,-37.27 633.69,-44.1"/>
</g>
<!-- Node5&#45;&gt;Node6 -->
<g id="edge5" class="edge">
<title>Node5&#45;&gt;Node6</title>
<path fill="none" stroke="midnightblue" d="M770.04,-21.22C778.55,-20.41 787.25,-19.59 795.87,-18.78"/>
<polygon fill="midnightblue" stroke="midnightblue" points="796.31,-22.26 805.94,-17.83 795.65,-15.29 796.31,-22.26"/>
</g>
</g>
</svg>
        <g id="navigator" transform="translate(0 0)" fill="#404254">
                <rect fill="#f2f5e9" fill-opacity="0.5" stroke="#606060" stroke-width=".5" x="0" y="0" width="60" height="60"/>
                <use id="zoomplus" xlink:href="#zoomPlus" x="17" y="9" onmousedown="handleZoom(evt,'in')"/>
                <use id="zoomminus" xlink:href="#zoomMin" x="42" y="9" onmousedown="handleZoom(evt,'out')"/>
                <use id="reset" xlink:href="#resetDef" x="30" y="36" onmousedown="handleReset()"/>
                <g id="arrowUp" xlink:href="#dirArrow" transform="translate(30 24)" onmousedown="handlePan(0,-1)">
                  <use xlink:href="#rim" fill="#404040">
                        <set attributeName="fill" to="#808080" begin="arrowUp.mouseover" end="arrowUp.mouseout"/>
                  </use>
                  <path fill="none" stroke="white" stroke-width="1.5" d="M0,-3.0v7 M-2.5,-0.5L0,-3.0L2.5,-0.5"/>
                </g>
                <g id="arrowRight" xlink:href="#dirArrow" transform="rotate(90) translate(36 -43)" onmousedown="handlePan(1,0)">
                  <use xlink:href="#rim" fill="#404040">
                        <set attributeName="fill" to="#808080" begin="arrowRight.mouseover" end="arrowRight.mouseout"/>
                  </use>
                  <path fill="none" stroke="white" stroke-width="1.5" d="M0,-3.0v7 M-2.5,-0.5L0,-3.0L2.5,-0.5"/>
                </g>
                <g id="arrowDown" xlink:href="#dirArrow" transform="rotate(180) translate(-30 -48)" onmousedown="handlePan(0,1)">
                  <use xlink:href="#rim" fill="#404040">
                        <set attributeName="fill" to="#808080" begin="arrowDown.mouseover" end="arrowDown.mouseout"/>
                  </use>
                  <path fill="none" stroke="white" stroke-width="1.5" d="M0,-3.0v7 M-2.5,-0.5L0,-3.0L2.5,-0.5"/>
                </g>
                <g id="arrowLeft" xlink:href="#dirArrow" transform="rotate(270) translate(-36 17)" onmousedown="handlePan(-1,0)">
                  <use xlink:href="#rim" fill="#404040">
                        <set attributeName="fill" to="#808080" begin="arrowLeft.mouseover" end="arrowLeft.mouseout"/>
                  </use>
                  <path fill="none" stroke="white" stroke-width="1.5" d="M0,-3.0v7 M-2.5,-0.5L0,-3.0L2.5,-0.5"/>
                </g>
        </g>
        <svg viewBox="0 0 15 15" width="100%" height="30px" preserveAspectRatio="xMaxYMin meet">
         <g id="arrow_out" transform="scale(0.3 0.3)">
          <a xlink:href="classjavolution_1_1xml_1_1XMLBinding_a21ba15347d6cc8001b2e7006042e5591_cgraph_org.svg" target="_base">
           <rect id="button" ry="5" rx="5" y="6" x="6" height="38" width="38"
                fill="#f2f5e9" fill-opacity="0.5" stroke="#606060" stroke-width="1.0"/>
           <path id="arrow"
             d="M 11.500037,31.436501 C 11.940474,20.09759 22.043105,11.32322 32.158766,21.979434 L 37.068811,17.246167 C 37.068811,17.246167 37.088388,32 37.088388,32 L 22.160133,31.978069 C 22.160133,31.978069 26.997745,27.140456 26.997745,27.140456 C 18.528582,18.264221 13.291696,25.230495 11.500037,31.436501 z"
             style="fill:#404040;"/>
          </a>
         </g>
        </svg>
</svg>
