<?xml version="1.0" encoding="UTF-8" standalone="no"?>
<!DOCTYPE svg PUBLIC "-//W3C//DTD SVG 1.1//EN"
 "http://www.w3.org/Graphics/SVG/1.1/DTD/svg11.dtd">
<!-- Generated by graphviz version 2.43.0 (0)
 -->
<!-- Title: javolution.util.internal.set.FilteredSetImpl&lt; E &gt; Pages: 1 -->
<!--zoomable 154 -->
<svg id="main" version="1.1" xmlns="http://www.w3.org/2000/svg" xmlns:xlink="http://www.w3.org/1999/xlink" xml:space="preserve" onload="init(evt)">
<style type="text/css"><![CDATA[
.edge:hover path { stroke: red; }
.edge:hover polygon { stroke: red; fill: red; }
]]></style>
<script type="text/javascript"><![CDATA[
var edges = document.getElementsByTagName('g');
if (edges && edges.length) {
  for (var i=0;i<edges.length;i++) {
    if (edges[i].id.substr(0,4)=='edge') {
      edges[i].setAttribute('class','edge');
    }
  }
}
]]></script>
        <defs>
                <circle id="rim" cx="0" cy="0" r="7"/>
                <circle id="rim2" cx="0" cy="0" r="3.5"/>
                <g id="zoomPlus">
                        <use xlink:href="#rim" fill="#404040">
                                <set attributeName="fill" to="#808080" begin="zoomplus.mouseover" end="zoomplus.mouseout"/>
                        </use>
                        <path d="M-4,0h8M0,-4v8" fill="none" stroke="white" stroke-width="1.5" pointer-events="none"/>
                </g>
                <g id="zoomMin">
                        <use xlink:href="#rim" fill="#404040">
                                <set attributeName="fill" to="#808080" begin="zoomminus.mouseover" end="zoomminus.mouseout"/>
                        </use>
                        <path d="M-4,0h8" fill="none" stroke="white" stroke-width="1.5" pointer-events="none"/>
                </g>
                <g id="dirArrow">
                        <path fill="none" stroke="white" stroke-width="1.5" d="M0,-3.0v7 M-2.5,-0.5L0,-3.0L2.5,-0.5"/>
                </g>
               <g id="resetDef">
                       <use xlink:href="#rim2" fill="#404040">
                               <set attributeName="fill" to="#808080" begin="reset.mouseover" end="reset.mouseout"/>
                       </use>
               </g>
        </defs>

<script type="text/javascript">
var viewWidth = 1031;
var viewHeight = 154;
var sectionId = 'dynsection-0';
</script>
<script xlink:href="../../svgpan.js"/>
<svg id="graph" class="graph">
<g id="viewport">
<title>javolution.util.internal.set.FilteredSetImpl&lt; E &gt;</title>
<polygon fill="white" stroke="transparent" points="-4,4 -4,-150 1027,-150 1027,4 -4,4"/>
<!-- Node1 -->
<g id="node1" class="node">
<title>Node1</title>
<g id="a_node1"><a xlink:title=" ">
<polygon fill="#bfbfbf" stroke="black" points="877,-57 877,-87 1023,-87 1023,-57 877,-57"/>
<text text-anchor="start" x="885" y="-75" font-family="Helvetica,sans-Serif" font-size="10.00">javolution.util.internal.set.</text>
<text text-anchor="middle" x="950" y="-64" font-family="Helvetica,sans-Serif" font-size="10.00">FilteredSetImpl&lt; E &gt;</text>
</a>
</g>
</g>
<!-- Node2 -->
<g id="node2" class="node">
<title>Node2</title>
<g id="a_node2"><a xlink:href="../../d0/d88/classjavolution_1_1util_1_1internal_1_1collection_1_1FilteredCollectionImpl.html" target="_top" xlink:title=" ">
<polygon fill="white" stroke="black" points="680,-76.5 680,-117.5 841,-117.5 841,-76.5 680,-76.5"/>
<text text-anchor="start" x="688" y="-105.5" font-family="Helvetica,sans-Serif" font-size="10.00">javolution::util::internal</text>
<text text-anchor="start" x="688" y="-94.5" font-family="Helvetica,sans-Serif" font-size="10.00">::collection::FilteredCollection</text>
<text text-anchor="middle" x="760.5" y="-83.5" font-family="Helvetica,sans-Serif" font-size="10.00">Impl&lt; E &gt;</text>
</a>
</g>
</g>
<!-- Node2&#45;&gt;Node1 -->
<g id="edge1" class="edge">
<title>Node2&#45;&gt;Node1</title>
<path fill="none" stroke="midnightblue" d="M851.1,-85.05C859.71,-83.9 868.38,-82.75 876.8,-81.63"/>
<polygon fill="midnightblue" stroke="midnightblue" points="850.47,-81.61 841.02,-86.4 851.39,-88.55 850.47,-81.61"/>
</g>
<!-- Node3 -->
<g id="node3" class="node">
<title>Node3</title>
<g id="a_node3"><a xlink:href="../../d1/d40/classjavolution_1_1util_1_1internal_1_1collection_1_1CollectionView.html" target="_top" xlink:title=" ">
<polygon fill="white" stroke="black" points="467,-82 467,-112 644,-112 644,-82 467,-82"/>
<text text-anchor="start" x="475" y="-100" font-family="Helvetica,sans-Serif" font-size="10.00">javolution::util::internal</text>
<text text-anchor="middle" x="555.5" y="-89" font-family="Helvetica,sans-Serif" font-size="10.00">::collection::CollectionView&lt; E &gt;</text>
</a>
</g>
</g>
<!-- Node3&#45;&gt;Node2 -->
<g id="edge2" class="edge">
<title>Node3&#45;&gt;Node2</title>
<path fill="none" stroke="midnightblue" d="M654.16,-97C662.79,-97 671.45,-97 679.91,-97"/>
<polygon fill="midnightblue" stroke="midnightblue" points="654.06,-93.5 644.06,-97 654.06,-100.5 654.06,-93.5"/>
</g>
<!-- Node4 -->
<g id="node4" class="node">
<title>Node4</title>
<g id="a_node4"><a xlink:href="../../dc/d19/classjavolution_1_1util_1_1FastCollection.html" target="_top" xlink:title=" ">
<polygon fill="white" stroke="black" points="241,-107.5 241,-126.5 431,-126.5 431,-107.5 241,-107.5"/>
<text text-anchor="middle" x="336" y="-114.5" font-family="Helvetica,sans-Serif" font-size="10.00">javolution::util::FastCollection&lt; E &gt;</text>
</a>
</g>
</g>
<!-- Node4&#45;&gt;Node3 -->
<g id="edge3" class="edge">
<title>Node4&#45;&gt;Node3</title>
<path fill="none" stroke="midnightblue" d="M441.15,-107.42C449.72,-106.64 458.32,-105.84 466.74,-105.07"/>
<polygon fill="midnightblue" stroke="midnightblue" points="440.77,-103.94 431.13,-108.34 441.41,-110.91 440.77,-103.94"/>
</g>
<!-- Node5 -->
<g id="node5" class="node">
<title>Node5</title>
<g id="a_node5"><a xlink:title=" ">
<polygon fill="white" stroke="#bfbfbf" points="31,-126.5 31,-145.5 174,-145.5 174,-126.5 31,-126.5"/>
<text text-anchor="middle" x="102.5" y="-133.5" font-family="Helvetica,sans-Serif" font-size="10.00">java::util::Collection&lt; E &gt;</text>
</a>
</g>
</g>
<!-- Node5&#45;&gt;Node4 -->
<g id="edge4" class="edge">
<title>Node5&#45;&gt;Node4</title>
<path fill="none" stroke="midnightblue" d="M184.22,-129.37C202.5,-127.88 222.06,-126.27 240.83,-124.73"/>
<polygon fill="midnightblue" stroke="midnightblue" points="183.9,-125.89 174.22,-130.2 184.47,-132.87 183.9,-125.89"/>
</g>
<!-- Node7 -->
<g id="node7" class="node">
<title>Node7</title>
<g id="a_node7"><a xlink:href="../../dd/d6c/interfacejavolution_1_1util_1_1service_1_1CollectionService.html" target="_top" xlink:title=" ">
<polygon fill="white" stroke="black" points="268,-58 268,-88 404,-88 404,-58 268,-58"/>
<text text-anchor="start" x="276" y="-76" font-family="Helvetica,sans-Serif" font-size="10.00">javolution::util::service</text>
<text text-anchor="middle" x="336" y="-65" font-family="Helvetica,sans-Serif" font-size="10.00">::CollectionService&lt; E &gt;</text>
</a>
</g>
</g>
<!-- Node5&#45;&gt;Node7 -->
<g id="edge7" class="edge">
<title>Node5&#45;&gt;Node7</title>
<path fill="none" stroke="midnightblue" d="M180.24,-124.19C188.69,-122.14 197.09,-119.76 205,-117 222.08,-111.05 224.15,-104.59 241,-98 250.44,-94.31 260.61,-90.98 270.66,-88.03"/>
<polygon fill="midnightblue" stroke="midnightblue" points="179.29,-120.82 170.32,-126.46 180.84,-127.64 179.29,-120.82"/>
</g>
<!-- Node6 -->
<g id="node6" class="node">
<title>Node6</title>
<g id="a_node6"><a xlink:title=" ">
<polygon fill="white" stroke="#bfbfbf" points="65.5,-88.5 65.5,-107.5 139.5,-107.5 139.5,-88.5 65.5,-88.5"/>
<text text-anchor="middle" x="102.5" y="-95.5" font-family="Helvetica,sans-Serif" font-size="10.00">Serializable</text>
</a>
</g>
</g>
<!-- Node6&#45;&gt;Node4 -->
<g id="edge5" class="edge">
<title>Node6&#45;&gt;Node4</title>
<path fill="none" stroke="midnightblue" d="M149.66,-101.79C175.8,-103.93 209.47,-106.7 240.92,-109.28"/>
<polygon fill="midnightblue" stroke="midnightblue" points="149.92,-98.3 139.67,-100.97 149.35,-105.28 149.92,-98.3"/>
</g>
<!-- Node6&#45;&gt;Node7 -->
<g id="edge9" class="edge">
<title>Node6&#45;&gt;Node7</title>
<path fill="none" stroke="midnightblue" d="M149.74,-93.01C183.57,-89.35 229.98,-84.34 267.89,-80.25"/>
<polygon fill="midnightblue" stroke="midnightblue" points="149.24,-89.54 139.67,-94.09 149.99,-96.5 149.24,-89.54"/>
</g>
<!-- Node7&#45;&gt;Node3 -->
<g id="edge6" class="edge">
<title>Node7&#45;&gt;Node3</title>
<path fill="none" stroke="midnightblue" d="M414.44,-81.55C431.42,-83.42 449.51,-85.41 466.85,-87.33"/>
<polygon fill="midnightblue" stroke="midnightblue" points="414.36,-78.01 404.03,-80.4 413.59,-84.97 414.36,-78.01"/>
</g>
<!-- Node10 -->
<g id="node10" class="node">
<title>Node10</title>
<g id="a_node10"><a xlink:href="../../d6/d3e/interfacejavolution_1_1util_1_1service_1_1SetService.html" target="_top" xlink:title=" ">
<polygon fill="white" stroke="black" points="491.5,-33 491.5,-63 619.5,-63 619.5,-33 491.5,-33"/>
<text text-anchor="start" x="499.5" y="-51" font-family="Helvetica,sans-Serif" font-size="10.00">javolution::util::service</text>
<text text-anchor="middle" x="555.5" y="-40" font-family="Helvetica,sans-Serif" font-size="10.00">::SetService&lt; E &gt;</text>
</a>
</g>
</g>
<!-- Node7&#45;&gt;Node10 -->
<g id="edge12" class="edge">
<title>Node7&#45;&gt;Node10</title>
<path fill="none" stroke="midnightblue" d="M413.98,-64.15C439.33,-61.24 467.21,-58.03 491.4,-55.25"/>
<polygon fill="midnightblue" stroke="midnightblue" points="413.57,-60.68 404.03,-65.3 414.37,-67.63 413.57,-60.68"/>
</g>
<!-- Node8 -->
<g id="node8" class="node">
<title>Node8</title>
<g id="a_node8"><a xlink:href="../../dd/ded/interfacejavolution_1_1util_1_1function_1_1Splittable.html" target="_top" xlink:title=" ">
<polygon fill="white" stroke="black" points="0,-39 0,-69 205,-69 205,-39 0,-39"/>
<text text-anchor="start" x="8" y="-57" font-family="Helvetica,sans-Serif" font-size="10.00">javolution::util::function</text>
<text text-anchor="middle" x="102.5" y="-46" font-family="Helvetica,sans-Serif" font-size="10.00">::Splittable&lt; CollectionService&lt; E &gt; &gt;</text>
</a>
</g>
</g>
<!-- Node8&#45;&gt;Node7 -->
<g id="edge8" class="edge">
<title>Node8&#45;&gt;Node7</title>
<path fill="none" stroke="midnightblue" d="M215.04,-63.15C233.09,-64.64 251.28,-66.13 267.84,-67.49"/>
<polygon fill="midnightblue" stroke="midnightblue" points="215.29,-59.66 205.04,-62.33 214.72,-66.64 215.29,-59.66"/>
</g>
<!-- Node9 -->
<g id="node9" class="node">
<title>Node9</title>
<g id="a_node9"><a xlink:href="../../d5/d48/classCloneable.html" target="_top" xlink:title=" ">
<polygon fill="white" stroke="black" points="70,-0.5 70,-19.5 135,-19.5 135,-0.5 70,-0.5"/>
<text text-anchor="middle" x="102.5" y="-7.5" font-family="Helvetica,sans-Serif" font-size="10.00">Cloneable</text>
</a>
</g>
</g>
<!-- Node9&#45;&gt;Node7 -->
<g id="edge10" class="edge">
<title>Node9&#45;&gt;Node7</title>
<path fill="none" stroke="midnightblue" d="M145.19,-14.92C163.83,-17.85 185.86,-22.33 205,-29 222.08,-34.95 224.15,-41.41 241,-48 250.44,-51.69 260.61,-55.02 270.66,-57.97"/>
<polygon fill="midnightblue" stroke="midnightblue" points="145.63,-11.44 135.23,-13.45 144.61,-18.37 145.63,-11.44"/>
</g>
<!-- Node10&#45;&gt;Node1 -->
<g id="edge11" class="edge">
<title>Node10&#45;&gt;Node1</title>
<path fill="none" stroke="midnightblue" d="M629.71,-52.48C700.31,-56.79 806.5,-63.29 876.77,-67.58"/>
<polygon fill="midnightblue" stroke="midnightblue" points="629.76,-48.97 619.56,-51.86 629.33,-55.96 629.76,-48.97"/>
</g>
<!-- Node11 -->
<g id="node11" class="node">
<title>Node11</title>
<g id="a_node11"><a xlink:title=" ">
<polygon fill="white" stroke="#bfbfbf" points="281,-19.5 281,-38.5 391,-38.5 391,-19.5 281,-19.5"/>
<text text-anchor="middle" x="336" y="-26.5" font-family="Helvetica,sans-Serif" font-size="10.00">java::util::Set&lt; E &gt;</text>
</a>
</g>
</g>
<!-- Node11&#45;&gt;Node10 -->
<g id="edge13" class="edge">
<title>Node11&#45;&gt;Node10</title>
<path fill="none" stroke="midnightblue" d="M401.29,-34.62C429.77,-37.1 463.15,-40.02 491.47,-42.49"/>
<polygon fill="midnightblue" stroke="midnightblue" points="401.31,-31.1 391.04,-33.72 400.7,-38.08 401.31,-31.1"/>
</g>
</g>
</svg>
        <g id="navigator" transform="translate(0 0)" fill="#404254">
                <rect fill="#f2f5e9" fill-opacity="0.5" stroke="#606060" stroke-width=".5" x="0" y="0" width="60" height="60"/>
                <use id="zoomplus" xlink:href="#zoomPlus" x="17" y="9" onmousedown="handleZoom(evt,'in')"/>
                <use id="zoomminus" xlink:href="#zoomMin" x="42" y="9" onmousedown="handleZoom(evt,'out')"/>
                <use id="reset" xlink:href="#resetDef" x="30" y="36" onmousedown="handleReset()"/>
                <g id="arrowUp" xlink:href="#dirArrow" transform="translate(30 24)" onmousedown="handlePan(0,-1)">
                  <use xlink:href="#rim" fill="#404040">
                        <set attributeName="fill" to="#808080" begin="arrowUp.mouseover" end="arrowUp.mouseout"/>
                  </use>
                  <path fill="none" stroke="white" stroke-width="1.5" d="M0,-3.0v7 M-2.5,-0.5L0,-3.0L2.5,-0.5"/>
                </g>
                <g id="arrowRight" xlink:href="#dirArrow" transform="rotate(90) translate(36 -43)" onmousedown="handlePan(1,0)">
                  <use xlink:href="#rim" fill="#404040">
                        <set attributeName="fill" to="#808080" begin="arrowRight.mouseover" end="arrowRight.mouseout"/>
                  </use>
                  <path fill="none" stroke="white" stroke-width="1.5" d="M0,-3.0v7 M-2.5,-0.5L0,-3.0L2.5,-0.5"/>
                </g>
                <g id="arrowDown" xlink:href="#dirArrow" transform="rotate(180) translate(-30 -48)" onmousedown="handlePan(0,1)">
                  <use xlink:href="#rim" fill="#404040">
                        <set attributeName="fill" to="#808080" begin="arrowDown.mouseover" end="arrowDown.mouseout"/>
                  </use>
                  <path fill="none" stroke="white" stroke-width="1.5" d="M0,-3.0v7 M-2.5,-0.5L0,-3.0L2.5,-0.5"/>
                </g>
                <g id="arrowLeft" xlink:href="#dirArrow" transform="rotate(270) translate(-36 17)" onmousedown="handlePan(-1,0)">
                  <use xlink:href="#rim" fill="#404040">
                        <set attributeName="fill" to="#808080" begin="arrowLeft.mouseover" end="arrowLeft.mouseout"/>
                  </use>
                  <path fill="none" stroke="white" stroke-width="1.5" d="M0,-3.0v7 M-2.5,-0.5L0,-3.0L2.5,-0.5"/>
                </g>
        </g>
        <svg viewBox="0 0 15 15" width="100%" height="30px" preserveAspectRatio="xMaxYMin meet">
         <g id="arrow_out" transform="scale(0.3 0.3)">
          <a xlink:href="classjavolution_1_1util_1_1internal_1_1set_1_1FilteredSetImpl__inherit__graph_org.svg" target="_base">
           <rect id="button" ry="5" rx="5" y="6" x="6" height="38" width="38"
                fill="#f2f5e9" fill-opacity="0.5" stroke="#606060" stroke-width="1.0"/>
           <path id="arrow"
             d="M 11.500037,31.436501 C 11.940474,20.09759 22.043105,11.32322 32.158766,21.979434 L 37.068811,17.246167 C 37.068811,17.246167 37.088388,32 37.088388,32 L 22.160133,31.978069 C 22.160133,31.978069 26.997745,27.140456 26.997745,27.140456 C 18.528582,18.264221 13.291696,25.230495 11.500037,31.436501 z"
             style="fill:#404040;"/>
          </a>
         </g>
        </svg>
</svg>
