<?xml version="1.0" encoding="UTF-8" standalone="no"?>
<!DOCTYPE svg PUBLIC "-//W3C//DTD SVG 1.1//EN"
 "http://www.w3.org/Graphics/SVG/1.1/DTD/svg11.dtd">
<!-- Generated by graphviz version 2.43.0 (0)
 -->
<!-- Title: javolution.util.internal.map.MapView.clone Pages: 1 -->
<svg width="536pt" height="57pt"
 viewBox="0.00 0.00 536.00 57.00" xmlns="http://www.w3.org/2000/svg" xmlns:xlink="http://www.w3.org/1999/xlink">
<g id="graph0" class="graph" transform="scale(1 1) rotate(0) translate(4 53)">
<title>javolution.util.internal.map.MapView.clone</title>
<polygon fill="white" stroke="transparent" points="-4,4 -4,-53 532,-53 532,4 -4,4"/>
<!-- Node1 -->
<g id="node1" class="node">
<title>Node1</title>
<g id="a_node1"><a xlink:title=" ">
<polygon fill="#bfbfbf" stroke="black" points="376,-0.5 376,-30.5 528,-30.5 528,-0.5 376,-0.5"/>
<text text-anchor="start" x="384" y="-18.5" font-family="Helvetica,sans-Serif" font-size="10.00">javolution.util.internal.map.</text>
<text text-anchor="middle" x="452" y="-7.5" font-family="Helvetica,sans-Serif" font-size="10.00">MapView.clone</text>
</a>
</g>
</g>
<!-- Node1&#45;&gt;Node1 -->
<g id="edge1" class="edge">
<title>Node1&#45;&gt;Node1</title>
<path fill="none" stroke="midnightblue" d="M485.41,-40.96C481.26,-45.68 470.12,-49 452,-49 422.26,-49 411.34,-40.06 419.24,-30.66"/>
<polygon fill="midnightblue" stroke="midnightblue" points="488.88,-40.42 484.76,-30.66 481.89,-40.86 488.88,-40.42"/>
</g>
<!-- Node2 -->
<g id="node2" class="node">
<title>Node2</title>
<g id="a_node2"><a xlink:href="../../d0/d83/classjavolution_1_1util_1_1internal_1_1map_1_1MapView.html#aa8b2a280e595f1553411eb0e76530fe1" target="_top" xlink:title=" ">
<polygon fill="white" stroke="black" points="188,-0.5 188,-30.5 340,-30.5 340,-0.5 188,-0.5"/>
<text text-anchor="start" x="196" y="-18.5" font-family="Helvetica,sans-Serif" font-size="10.00">javolution.util.internal.map.</text>
<text text-anchor="middle" x="264" y="-7.5" font-family="Helvetica,sans-Serif" font-size="10.00">MapView.split</text>
</a>
</g>
</g>
<!-- Node1&#45;&gt;Node2 -->
<g id="edge2" class="edge">
<title>Node1&#45;&gt;Node2</title>
<path fill="none" stroke="midnightblue" d="M365.85,-15.5C357.26,-15.5 348.57,-15.5 340.1,-15.5"/>
<polygon fill="midnightblue" stroke="midnightblue" points="365.88,-19 375.88,-15.5 365.88,-12 365.88,-19"/>
</g>
<!-- Node3 -->
<g id="node3" class="node">
<title>Node3</title>
<g id="a_node3"><a xlink:href="../../dd/df9/classjavolution_1_1util_1_1internal_1_1map_1_1MapView_1_1EntrySet.html#aa0db5db7235a06c3ae07e3a1ba6afe81" target="_top" xlink:title=" ">
<polygon fill="white" stroke="black" points="0,-0.5 0,-30.5 152,-30.5 152,-0.5 0,-0.5"/>
<text text-anchor="start" x="8" y="-18.5" font-family="Helvetica,sans-Serif" font-size="10.00">javolution.util.internal.map.</text>
<text text-anchor="middle" x="76" y="-7.5" font-family="Helvetica,sans-Serif" font-size="10.00">MapView.EntrySet.split</text>
</a>
</g>
</g>
<!-- Node2&#45;&gt;Node3 -->
<g id="edge3" class="edge">
<title>Node2&#45;&gt;Node3</title>
<path fill="none" stroke="midnightblue" d="M177.85,-15.5C169.26,-15.5 160.57,-15.5 152.1,-15.5"/>
<polygon fill="midnightblue" stroke="midnightblue" points="177.88,-19 187.88,-15.5 177.88,-12 177.88,-19"/>
</g>
</g>
</svg>
