<?xml version="1.0" encoding="UTF-8" standalone="no"?>
<!DOCTYPE svg PUBLIC "-//W3C//DTD SVG 1.1//EN"
 "http://www.w3.org/Graphics/SVG/1.1/DTD/svg11.dtd">
<!-- Generated by graphviz version 2.43.0 (0)
 -->
<!-- Title: javolution.util.internal.map.MapView.get Pages: 1 -->
<svg width="386pt" height="88pt"
 viewBox="0.00 0.00 386.00 88.00" xmlns="http://www.w3.org/2000/svg" xmlns:xlink="http://www.w3.org/1999/xlink">
<g id="graph0" class="graph" transform="scale(1 1) rotate(0) translate(4 84)">
<title>javolution.util.internal.map.MapView.get</title>
<polygon fill="white" stroke="transparent" points="-4,4 -4,-84 382,-84 382,4 -4,4"/>
<!-- Node1 -->
<g id="node1" class="node">
<title>Node1</title>
<g id="a_node1"><a xlink:title=" ">
<polygon fill="#bfbfbf" stroke="black" points="226,-24.5 226,-54.5 378,-54.5 378,-24.5 226,-24.5"/>
<text text-anchor="start" x="234" y="-42.5" font-family="Helvetica,sans-Serif" font-size="10.00">javolution.util.internal.map.</text>
<text text-anchor="middle" x="302" y="-31.5" font-family="Helvetica,sans-Serif" font-size="10.00">MapView.get</text>
</a>
</g>
</g>
<!-- Node2 -->
<g id="node2" class="node">
<title>Node2</title>
<g id="a_node2"><a xlink:href="../../d8/dc6/classjavolution_1_1util_1_1internal_1_1map_1_1sorted_1_1SortedMapView_1_1EntrySortedSet.html#a693bbe6180c2c2ca002552be56933f0b" target="_top" xlink:title=" ">
<polygon fill="white" stroke="black" points="0,-49.5 0,-79.5 190,-79.5 190,-49.5 0,-49.5"/>
<text text-anchor="start" x="8" y="-67.5" font-family="Helvetica,sans-Serif" font-size="10.00">javolution.util.internal.map.sorted.</text>
<text text-anchor="middle" x="95" y="-56.5" font-family="Helvetica,sans-Serif" font-size="10.00">SortedMapView.EntrySortedSet.first</text>
</a>
</g>
</g>
<!-- Node1&#45;&gt;Node2 -->
<g id="edge1" class="edge">
<title>Node1&#45;&gt;Node2</title>
<path fill="none" stroke="midnightblue" d="M215.89,-49.88C207.34,-50.92 198.63,-51.98 190,-53.04"/>
<polygon fill="midnightblue" stroke="midnightblue" points="216.33,-53.35 225.83,-48.67 215.48,-46.4 216.33,-53.35"/>
</g>
<!-- Node3 -->
<g id="node3" class="node">
<title>Node3</title>
<g id="a_node3"><a xlink:href="../../d8/dc6/classjavolution_1_1util_1_1internal_1_1map_1_1sorted_1_1SortedMapView_1_1EntrySortedSet.html#a274b88ff0aea2be300911c14c2e9262e" target="_top" xlink:title=" ">
<polygon fill="white" stroke="black" points="0.5,-0.5 0.5,-30.5 189.5,-30.5 189.5,-0.5 0.5,-0.5"/>
<text text-anchor="start" x="8.5" y="-18.5" font-family="Helvetica,sans-Serif" font-size="10.00">javolution.util.internal.map.sorted.</text>
<text text-anchor="middle" x="95" y="-7.5" font-family="Helvetica,sans-Serif" font-size="10.00">SortedMapView.EntrySortedSet.last</text>
</a>
</g>
</g>
<!-- Node1&#45;&gt;Node3 -->
<g id="edge2" class="edge">
<title>Node1&#45;&gt;Node3</title>
<path fill="none" stroke="midnightblue" d="M215.79,-29.52C207.16,-28.51 198.36,-27.48 189.65,-26.46"/>
<polygon fill="midnightblue" stroke="midnightblue" points="215.49,-33.01 225.83,-30.7 216.3,-26.06 215.49,-33.01"/>
</g>
</g>
</svg>
