<?xml version="1.0" encoding="UTF-8" standalone="no"?>
<!DOCTYPE svg PUBLIC "-//W3C//DTD SVG 1.1//EN"
 "http://www.w3.org/Graphics/SVG/1.1/DTD/svg11.dtd">
<!-- Generated by graphviz version 2.43.0 (0)
 -->
<!-- Title: javolution.util.internal.bitset.BitSetServiceImpl Pages: 1 -->
<svg width="1015pt" height="176pt"
 viewBox="0.00 0.00 1015.00 175.50" xmlns="http://www.w3.org/2000/svg" xmlns:xlink="http://www.w3.org/1999/xlink">
<g id="graph0" class="graph" transform="scale(1 1) rotate(0) translate(4 171.5)">
<title>javolution.util.internal.bitset.BitSetServiceImpl</title>
<polygon fill="white" stroke="transparent" points="-4,4 -4,-171.5 1011,-171.5 1011,4 -4,4"/>
<!-- Node1 -->
<g id="node1" class="node">
<title>Node1</title>
<g id="a_node1"><a xlink:title=" ">
<polygon fill="#bfbfbf" stroke="black" points="849,-86.5 849,-116.5 1007,-116.5 1007,-86.5 849,-86.5"/>
<text text-anchor="start" x="857" y="-104.5" font-family="Helvetica,sans-Serif" font-size="10.00">javolution.util.internal.bitset.</text>
<text text-anchor="middle" x="928" y="-93.5" font-family="Helvetica,sans-Serif" font-size="10.00">BitSetServiceImpl</text>
</a>
</g>
</g>
<!-- Node2 -->
<g id="node2" class="node">
<title>Node2</title>
<g id="a_node2"><a xlink:href="../../db/dea/classjavolution_1_1util_1_1internal_1_1set_1_1SetView.html" target="_top" xlink:title=" ">
<polygon fill="white" stroke="black" points="680,-86.5 680,-116.5 813,-116.5 813,-86.5 680,-86.5"/>
<text text-anchor="start" x="688" y="-104.5" font-family="Helvetica,sans-Serif" font-size="10.00">javolution::util::internal</text>
<text text-anchor="middle" x="746.5" y="-93.5" font-family="Helvetica,sans-Serif" font-size="10.00">::set::SetView&lt; Index &gt;</text>
</a>
</g>
</g>
<!-- Node2&#45;&gt;Node1 -->
<g id="edge1" class="edge">
<title>Node2&#45;&gt;Node1</title>
<path fill="none" stroke="midnightblue" d="M823.27,-101.5C831.71,-101.5 840.33,-101.5 848.81,-101.5"/>
<polygon fill="midnightblue" stroke="midnightblue" points="823.07,-98 813.07,-101.5 823.07,-105 823.07,-98"/>
</g>
<!-- Node3 -->
<g id="node3" class="node">
<title>Node3</title>
<g id="a_node3"><a xlink:href="../../d1/d40/classjavolution_1_1util_1_1internal_1_1collection_1_1CollectionView.html" target="_top" xlink:title=" ">
<polygon fill="white" stroke="black" points="467,-98.5 467,-128.5 644,-128.5 644,-98.5 467,-98.5"/>
<text text-anchor="start" x="475" y="-116.5" font-family="Helvetica,sans-Serif" font-size="10.00">javolution::util::internal</text>
<text text-anchor="middle" x="555.5" y="-105.5" font-family="Helvetica,sans-Serif" font-size="10.00">::collection::CollectionView&lt; E &gt;</text>
</a>
</g>
</g>
<!-- Node3&#45;&gt;Node2 -->
<g id="edge2" class="edge">
<title>Node3&#45;&gt;Node2</title>
<path fill="none" stroke="midnightblue" d="M654.29,-107.29C662.98,-106.74 671.63,-106.19 679.95,-105.66"/>
<polygon fill="midnightblue" stroke="midnightblue" points="653.84,-103.81 644.08,-107.94 654.29,-110.8 653.84,-103.81"/>
</g>
<!-- Node4 -->
<g id="node4" class="node">
<title>Node4</title>
<g id="a_node4"><a xlink:href="../../dc/d19/classjavolution_1_1util_1_1FastCollection.html" target="_top" xlink:title=" ">
<polygon fill="white" stroke="black" points="241,-110 241,-129 431,-129 431,-110 241,-110"/>
<text text-anchor="middle" x="336" y="-117" font-family="Helvetica,sans-Serif" font-size="10.00">javolution::util::FastCollection&lt; E &gt;</text>
</a>
</g>
</g>
<!-- Node4&#45;&gt;Node3 -->
<g id="edge3" class="edge">
<title>Node4&#45;&gt;Node3</title>
<path fill="none" stroke="midnightblue" d="M441.15,-116.63C449.72,-116.39 458.32,-116.15 466.74,-115.92"/>
<polygon fill="midnightblue" stroke="midnightblue" points="441.03,-113.13 431.13,-116.9 441.23,-120.13 441.03,-113.13"/>
</g>
<!-- Node5 -->
<g id="node5" class="node">
<title>Node5</title>
<g id="a_node5"><a xlink:title=" ">
<polygon fill="white" stroke="#bfbfbf" points="31,-110 31,-129 174,-129 174,-110 31,-110"/>
<text text-anchor="middle" x="102.5" y="-117" font-family="Helvetica,sans-Serif" font-size="10.00">java::util::Collection&lt; E &gt;</text>
</a>
</g>
</g>
<!-- Node5&#45;&gt;Node4 -->
<g id="edge4" class="edge">
<title>Node5&#45;&gt;Node4</title>
<path fill="none" stroke="midnightblue" d="M184.22,-119.5C202.5,-119.5 222.06,-119.5 240.83,-119.5"/>
<polygon fill="midnightblue" stroke="midnightblue" points="184.22,-116 174.22,-119.5 184.22,-123 184.22,-116"/>
</g>
<!-- Node7 -->
<g id="node7" class="node">
<title>Node7</title>
<g id="a_node7"><a xlink:href="../../dd/d6c/interfacejavolution_1_1util_1_1service_1_1CollectionService.html" target="_top" xlink:title=" ">
<polygon fill="white" stroke="black" points="268,-60.5 268,-90.5 404,-90.5 404,-60.5 268,-60.5"/>
<text text-anchor="start" x="276" y="-78.5" font-family="Helvetica,sans-Serif" font-size="10.00">javolution::util::service</text>
<text text-anchor="middle" x="336" y="-67.5" font-family="Helvetica,sans-Serif" font-size="10.00">::CollectionService&lt; E &gt;</text>
</a>
</g>
</g>
<!-- Node5&#45;&gt;Node7 -->
<g id="edge7" class="edge">
<title>Node5&#45;&gt;Node7</title>
<path fill="none" stroke="midnightblue" d="M164.64,-108.11C177.95,-105.61 191.95,-102.98 205,-100.5 225.43,-96.62 247.67,-92.36 267.87,-88.47"/>
<polygon fill="midnightblue" stroke="midnightblue" points="163.81,-104.7 154.62,-109.98 165.1,-111.58 163.81,-104.7"/>
</g>
<!-- Node6 -->
<g id="node6" class="node">
<title>Node6</title>
<g id="a_node6"><a xlink:title=" ">
<polygon fill="white" stroke="#bfbfbf" points="65.5,-148 65.5,-167 139.5,-167 139.5,-148 65.5,-148"/>
<text text-anchor="middle" x="102.5" y="-155" font-family="Helvetica,sans-Serif" font-size="10.00">Serializable</text>
</a>
</g>
</g>
<!-- Node6&#45;&gt;Node1 -->
<g id="edge16" class="edge">
<title>Node6&#45;&gt;Node1</title>
<path fill="none" stroke="midnightblue" d="M149.61,-158.65C263.11,-160.8 564.79,-162.33 813,-126.5 830.45,-123.98 849.2,-120.29 866.36,-116.51"/>
<polygon fill="midnightblue" stroke="midnightblue" points="149.61,-155.15 139.54,-158.45 149.47,-162.15 149.61,-155.15"/>
</g>
<!-- Node6&#45;&gt;Node4 -->
<g id="edge5" class="edge">
<title>Node6&#45;&gt;Node4</title>
<path fill="none" stroke="midnightblue" d="M149.58,-149.94C186.2,-143.93 237.62,-135.48 277.03,-129.02"/>
<polygon fill="midnightblue" stroke="midnightblue" points="148.97,-146.49 139.67,-151.56 150.11,-153.4 148.97,-146.49"/>
</g>
<!-- Node6&#45;&gt;Node7 -->
<g id="edge9" class="edge">
<title>Node6&#45;&gt;Node7</title>
<path fill="none" stroke="midnightblue" d="M149.68,-154.98C167.79,-152.47 188.21,-147.65 205,-138.5 225.43,-127.37 221,-112.38 241,-100.5 249.27,-95.58 258.52,-91.62 267.91,-88.42"/>
<polygon fill="midnightblue" stroke="midnightblue" points="149.13,-151.52 139.61,-156.18 149.96,-158.48 149.13,-151.52"/>
</g>
<!-- Node7&#45;&gt;Node3 -->
<g id="edge6" class="edge">
<title>Node7&#45;&gt;Node3</title>
<path fill="none" stroke="midnightblue" d="M414.22,-88.99C431.77,-92.06 450.53,-95.34 468.43,-98.46"/>
<polygon fill="midnightblue" stroke="midnightblue" points="414.49,-85.48 404.03,-87.21 413.28,-92.38 414.49,-85.48"/>
</g>
<!-- Node10 -->
<g id="node10" class="node">
<title>Node10</title>
<g id="a_node10"><a xlink:href="../../d6/d3e/interfacejavolution_1_1util_1_1service_1_1SetService.html" target="_top" xlink:title=" ">
<polygon fill="white" stroke="black" points="491.5,-49.5 491.5,-79.5 619.5,-79.5 619.5,-49.5 491.5,-49.5"/>
<text text-anchor="start" x="499.5" y="-67.5" font-family="Helvetica,sans-Serif" font-size="10.00">javolution::util::service</text>
<text text-anchor="middle" x="555.5" y="-56.5" font-family="Helvetica,sans-Serif" font-size="10.00">::SetService&lt; E &gt;</text>
</a>
</g>
</g>
<!-- Node7&#45;&gt;Node10 -->
<g id="edge12" class="edge">
<title>Node7&#45;&gt;Node10</title>
<path fill="none" stroke="midnightblue" d="M414.32,-71.59C439.58,-70.31 467.32,-68.91 491.4,-67.69"/>
<polygon fill="midnightblue" stroke="midnightblue" points="413.84,-68.11 404.03,-72.11 414.2,-75.1 413.84,-68.11"/>
</g>
<!-- Node8 -->
<g id="node8" class="node">
<title>Node8</title>
<g id="a_node8"><a xlink:href="../../dd/ded/interfacejavolution_1_1util_1_1function_1_1Splittable.html" target="_top" xlink:title=" ">
<polygon fill="white" stroke="black" points="0,-60.5 0,-90.5 205,-90.5 205,-60.5 0,-60.5"/>
<text text-anchor="start" x="8" y="-78.5" font-family="Helvetica,sans-Serif" font-size="10.00">javolution::util::function</text>
<text text-anchor="middle" x="102.5" y="-67.5" font-family="Helvetica,sans-Serif" font-size="10.00">::Splittable&lt; CollectionService&lt; E &gt; &gt;</text>
</a>
</g>
</g>
<!-- Node8&#45;&gt;Node7 -->
<g id="edge8" class="edge">
<title>Node8&#45;&gt;Node7</title>
<path fill="none" stroke="midnightblue" d="M215.04,-75.5C233.09,-75.5 251.28,-75.5 267.84,-75.5"/>
<polygon fill="midnightblue" stroke="midnightblue" points="215.04,-72 205.04,-75.5 215.04,-79 215.04,-72"/>
</g>
<!-- Node9 -->
<g id="node9" class="node">
<title>Node9</title>
<g id="a_node9"><a xlink:href="../../d5/d48/classCloneable.html" target="_top" xlink:title=" ">
<polygon fill="white" stroke="black" points="70,-22 70,-41 135,-41 135,-22 70,-22"/>
<text text-anchor="middle" x="102.5" y="-29" font-family="Helvetica,sans-Serif" font-size="10.00">Cloneable</text>
</a>
</g>
</g>
<!-- Node9&#45;&gt;Node7 -->
<g id="edge10" class="edge">
<title>Node9&#45;&gt;Node7</title>
<path fill="none" stroke="midnightblue" d="M145.27,-39.44C179.32,-45.91 228.06,-55.17 267.62,-62.69"/>
<polygon fill="midnightblue" stroke="midnightblue" points="145.68,-35.95 135.2,-37.53 144.37,-42.83 145.68,-35.95"/>
</g>
<!-- Node10&#45;&gt;Node2 -->
<g id="edge11" class="edge">
<title>Node10&#45;&gt;Node2</title>
<path fill="none" stroke="midnightblue" d="M629.81,-78.85C646.28,-82.08 663.64,-85.48 679.78,-88.63"/>
<polygon fill="midnightblue" stroke="midnightblue" points="630.18,-75.36 619.7,-76.87 628.84,-82.23 630.18,-75.36"/>
</g>
<!-- Node11 -->
<g id="node11" class="node">
<title>Node11</title>
<g id="a_node11"><a xlink:title=" ">
<polygon fill="white" stroke="#bfbfbf" points="281,-22 281,-41 391,-41 391,-22 281,-22"/>
<text text-anchor="middle" x="336" y="-29" font-family="Helvetica,sans-Serif" font-size="10.00">java::util::Set&lt; E &gt;</text>
</a>
</g>
</g>
<!-- Node11&#45;&gt;Node10 -->
<g id="edge13" class="edge">
<title>Node11&#45;&gt;Node10</title>
<path fill="none" stroke="midnightblue" d="M401.29,-41.25C429.77,-45.57 463.15,-50.64 491.47,-54.94"/>
<polygon fill="midnightblue" stroke="midnightblue" points="401.46,-37.74 391.04,-39.7 400.41,-44.66 401.46,-37.74"/>
</g>
<!-- Node12 -->
<g id="node12" class="node">
<title>Node12</title>
<g id="a_node12"><a xlink:href="../../d7/d3d/interfacejavolution_1_1util_1_1service_1_1BitSetService.html" target="_top" xlink:title=" ">
<polygon fill="white" stroke="black" points="684,-13.5 684,-43.5 809,-43.5 809,-13.5 684,-13.5"/>
<text text-anchor="start" x="692" y="-31.5" font-family="Helvetica,sans-Serif" font-size="10.00">javolution.util.service.</text>
<text text-anchor="middle" x="746.5" y="-20.5" font-family="Helvetica,sans-Serif" font-size="10.00">BitSetService</text>
</a>
</g>
</g>
<!-- Node12&#45;&gt;Node1 -->
<g id="edge14" class="edge">
<title>Node12&#45;&gt;Node1</title>
<path fill="none" stroke="midnightblue" d="M794.06,-47.43C823.89,-59.56 862.07,-75.09 889.86,-86.39"/>
<polygon fill="midnightblue" stroke="midnightblue" points="795.27,-44.15 784.69,-43.63 792.64,-50.64 795.27,-44.15"/>
</g>
<!-- Node13 -->
<g id="node13" class="node">
<title>Node13</title>
<g id="a_node13"><a xlink:href="../../d6/d3e/interfacejavolution_1_1util_1_1service_1_1SetService.html" target="_top" xlink:title=" ">
<polygon fill="white" stroke="black" points="493,-0.5 493,-30.5 618,-30.5 618,-0.5 493,-0.5"/>
<text text-anchor="start" x="501" y="-18.5" font-family="Helvetica,sans-Serif" font-size="10.00">javolution.util.service.</text>
<text text-anchor="middle" x="555.5" y="-7.5" font-family="Helvetica,sans-Serif" font-size="10.00">SetService&lt; Index &gt;</text>
</a>
</g>
</g>
<!-- Node13&#45;&gt;Node12 -->
<g id="edge15" class="edge">
<title>Node13&#45;&gt;Node12</title>
<path fill="none" stroke="midnightblue" d="M628.19,-20.43C646.56,-21.69 666.15,-23.04 683.96,-24.27"/>
<polygon fill="midnightblue" stroke="midnightblue" points="628.34,-16.93 618.12,-19.74 627.86,-23.92 628.34,-16.93"/>
</g>
</g>
</svg>
