<?xml version="1.0" encoding="UTF-8" standalone="no"?>
<!DOCTYPE svg PUBLIC "-//W3C//DTD SVG 1.1//EN"
 "http://www.w3.org/Graphics/SVG/1.1/DTD/svg11.dtd">
<!-- Generated by graphviz version 2.43.0 (0)
 -->
<!-- Title: javolution.context.SecurityContext.Permission&lt; T &gt; Pages: 1 -->
<svg width="404pt" height="154pt"
 viewBox="0.00 0.00 404.00 153.50" xmlns="http://www.w3.org/2000/svg" xmlns:xlink="http://www.w3.org/1999/xlink">
<g id="graph0" class="graph" transform="scale(1 1) rotate(0) translate(4 149.5)">
<title>javolution.context.SecurityContext.Permission&lt; T &gt;</title>
<polygon fill="white" stroke="transparent" points="-4,4 -4,-149.5 400,-149.5 400,4 -4,4"/>
<!-- Node1 -->
<g id="node1" class="node">
<title>Node1</title>
<g id="a_node1"><a xlink:title=" ">
<polygon fill="#bfbfbf" stroke="black" points="248,-63.5 248,-93.5 396,-93.5 396,-63.5 248,-63.5"/>
<text text-anchor="start" x="256" y="-81.5" font-family="Helvetica,sans-Serif" font-size="10.00">javolution.context.Security</text>
<text text-anchor="middle" x="322" y="-70.5" font-family="Helvetica,sans-Serif" font-size="10.00">Context.Permission&lt; T &gt;</text>
</a>
</g>
</g>
<!-- Node2 -->
<g id="node2" class="node">
<title>Node2</title>
<g id="a_node2"><a xlink:title=" ">
<polygon fill="white" stroke="#bfbfbf" points="60.5,-126 60.5,-145 105.5,-145 105.5,-126 60.5,-126"/>
<text text-anchor="middle" x="83" y="-133" font-family="Helvetica,sans-Serif" font-size="10.00">String</text>
</a>
</g>
</g>
<!-- Node2&#45;&gt;Node1 -->
<g id="edge1" class="edge">
<title>Node2&#45;&gt;Node1</title>
<path fill="none" stroke="#9a32cd" stroke-dasharray="5,2" d="M116.03,-128.98C145.68,-122.83 190.96,-113.13 230,-103.5 242.41,-100.44 255.7,-96.92 268.19,-93.51"/>
<polygon fill="#9a32cd" stroke="#9a32cd" points="114.94,-125.63 105.85,-131.08 116.35,-132.49 114.94,-125.63"/>
<text text-anchor="middle" x="207" y="-116.5" font-family="Helvetica,sans-Serif" font-size="10.00"> action</text>
</g>
<!-- Node3 -->
<g id="node3" class="node">
<title>Node3</title>
<g id="a_node3"><a xlink:title=" ">
<polygon fill="white" stroke="#bfbfbf" points="17.5,-88 17.5,-107 148.5,-107 148.5,-88 17.5,-88"/>
<text text-anchor="middle" x="83" y="-95" font-family="Helvetica,sans-Serif" font-size="10.00">final Class&lt;? super T &gt;</text>
</a>
</g>
</g>
<!-- Node3&#45;&gt;Node1 -->
<g id="edge2" class="edge">
<title>Node3&#45;&gt;Node1</title>
<path fill="none" stroke="#9a32cd" stroke-dasharray="5,2" d="M159.04,-91.48C187.45,-89.21 219.73,-86.62 247.96,-84.36"/>
<polygon fill="#9a32cd" stroke="#9a32cd" points="158.45,-88.02 148.76,-92.31 159.01,-95 158.45,-88.02"/>
<text text-anchor="middle" x="207" y="-91.5" font-family="Helvetica,sans-Serif" font-size="10.00"> category</text>
</g>
<!-- Node4 -->
<g id="node4" class="node">
<title>Node4</title>
<g id="a_node4"><a xlink:title=" ">
<polygon fill="white" stroke="#bfbfbf" points="59.5,-50 59.5,-69 106.5,-69 106.5,-50 59.5,-50"/>
<text text-anchor="middle" x="83" y="-57" font-family="Helvetica,sans-Serif" font-size="10.00">final T</text>
</a>
</g>
</g>
<!-- Node4&#45;&gt;Node1 -->
<g id="edge3" class="edge">
<title>Node4&#45;&gt;Node1</title>
<path fill="none" stroke="#9a32cd" stroke-dasharray="5,2" d="M116.95,-61.86C146.55,-64.02 191.19,-67.33 230,-70.5 235.85,-70.98 241.91,-71.48 247.99,-72"/>
<polygon fill="#9a32cd" stroke="#9a32cd" points="116.99,-58.36 106.77,-61.13 116.49,-65.34 116.99,-58.36"/>
<text text-anchor="middle" x="207" y="-73.5" font-family="Helvetica,sans-Serif" font-size="10.00"> instance</text>
</g>
<!-- Node5 -->
<g id="node5" class="node">
<title>Node5</title>
<g id="a_node5"><a xlink:href="../../d6/d3b/classjavolution_1_1context_1_1SecurityContext_1_1Permission.html" target="_top" xlink:title=" ">
<polygon fill="white" stroke="black" points="0,-0.5 0,-30.5 166,-30.5 166,-0.5 0,-0.5"/>
<text text-anchor="start" x="8" y="-18.5" font-family="Helvetica,sans-Serif" font-size="10.00">javolution.context.Security</text>
<text text-anchor="middle" x="83" y="-7.5" font-family="Helvetica,sans-Serif" font-size="10.00">Context.Permission&lt; Object &gt;</text>
</a>
</g>
</g>
<!-- Node5&#45;&gt;Node1 -->
<g id="edge4" class="edge">
<title>Node5&#45;&gt;Node1</title>
<path fill="none" stroke="#9a32cd" stroke-dasharray="5,2" d="M157.56,-32.93C180.79,-38.62 206.52,-45.13 230,-51.5 243.52,-55.17 258.09,-59.38 271.53,-63.37"/>
<polygon fill="#9a32cd" stroke="#9a32cd" points="158.31,-29.51 147.77,-30.54 156.65,-36.31 158.31,-29.51"/>
<text text-anchor="middle" x="207" y="-54.5" font-family="Helvetica,sans-Serif" font-size="10.00"> ALL</text>
</g>
</g>
</svg>
