<?xml version="1.0" encoding="UTF-8" standalone="no"?>
<!DOCTYPE svg PUBLIC "-//W3C//DTD SVG 1.1//EN"
 "http://www.w3.org/Graphics/SVG/1.1/DTD/svg11.dtd">
<!-- Generated by graphviz version 2.43.0 (0)
 -->
<!-- Title: javolution.util.FastBitSet.previousClearBit Pages: 1 -->
<svg width="391pt" height="39pt"
 viewBox="0.00 0.00 391.00 39.00" xmlns="http://www.w3.org/2000/svg" xmlns:xlink="http://www.w3.org/1999/xlink">
<g id="graph0" class="graph" transform="scale(1 1) rotate(0) translate(4 35)">
<title>javolution.util.FastBitSet.previousClearBit</title>
<polygon fill="white" stroke="transparent" points="-4,4 -4,-35 387,-35 387,4 -4,4"/>
<!-- Node1 -->
<g id="node1" class="node">
<title>Node1</title>
<g id="a_node1"><a xlink:title=" ">
<polygon fill="#bfbfbf" stroke="black" points="0,-0.5 0,-30.5 181,-30.5 181,-0.5 0,-0.5"/>
<text text-anchor="start" x="8" y="-18.5" font-family="Helvetica,sans-Serif" font-size="10.00">javolution.util.FastBitSet.previous</text>
<text text-anchor="middle" x="90.5" y="-7.5" font-family="Helvetica,sans-Serif" font-size="10.00">ClearBit</text>
</a>
</g>
</g>
<!-- Node2 -->
<g id="node2" class="node">
<title>Node2</title>
<g id="a_node2"><a xlink:href="../../d7/d3d/interfacejavolution_1_1util_1_1service_1_1BitSetService.html#a226ecfaadeeefb0f008bb8a489654437" target="_top" xlink:title=" ">
<polygon fill="white" stroke="black" points="217,-0.5 217,-30.5 383,-30.5 383,-0.5 217,-0.5"/>
<text text-anchor="start" x="225" y="-18.5" font-family="Helvetica,sans-Serif" font-size="10.00">javolution.util.service.</text>
<text text-anchor="middle" x="300" y="-7.5" font-family="Helvetica,sans-Serif" font-size="10.00">BitSetService.previousClearBit</text>
</a>
</g>
</g>
<!-- Node1&#45;&gt;Node2 -->
<g id="edge1" class="edge">
<title>Node1&#45;&gt;Node2</title>
<path fill="none" stroke="midnightblue" d="M181,-15.5C189.6,-15.5 198.32,-15.5 206.94,-15.5"/>
<polygon fill="midnightblue" stroke="midnightblue" points="206.99,-19 216.99,-15.5 206.99,-12 206.99,-19"/>
</g>
</g>
</svg>
