<?xml version="1.0" encoding="UTF-8" standalone="no"?>
<!DOCTYPE svg PUBLIC "-//W3C//DTD SVG 1.1//EN"
 "http://www.w3.org/Graphics/SVG/1.1/DTD/svg11.dtd">
<!-- Generated by graphviz version 2.43.0 (0)
 -->
<!-- Title: javolution.io.Struct.toString Pages: 1 -->
<!--zoomable 270 -->
<svg id="main" version="1.1" xmlns="http://www.w3.org/2000/svg" xmlns:xlink="http://www.w3.org/1999/xlink" xml:space="preserve" onload="init(evt)">
<style type="text/css"><![CDATA[
.edge:hover path { stroke: red; }
.edge:hover polygon { stroke: red; fill: red; }
]]></style>
<script type="text/javascript"><![CDATA[
var edges = document.getElementsByTagName('g');
if (edges && edges.length) {
  for (var i=0;i<edges.length;i++) {
    if (edges[i].id.substr(0,4)=='edge') {
      edges[i].setAttribute('class','edge');
    }
  }
}
]]></script>
        <defs>
                <circle id="rim" cx="0" cy="0" r="7"/>
                <circle id="rim2" cx="0" cy="0" r="3.5"/>
                <g id="zoomPlus">
                        <use xlink:href="#rim" fill="#404040">
                                <set attributeName="fill" to="#808080" begin="zoomplus.mouseover" end="zoomplus.mouseout"/>
                        </use>
                        <path d="M-4,0h8M0,-4v8" fill="none" stroke="white" stroke-width="1.5" pointer-events="none"/>
                </g>
                <g id="zoomMin">
                        <use xlink:href="#rim" fill="#404040">
                                <set attributeName="fill" to="#808080" begin="zoomminus.mouseover" end="zoomminus.mouseout"/>
                        </use>
                        <path d="M-4,0h8" fill="none" stroke="white" stroke-width="1.5" pointer-events="none"/>
                </g>
                <g id="dirArrow">
                        <path fill="none" stroke="white" stroke-width="1.5" d="M0,-3.0v7 M-2.5,-0.5L0,-3.0L2.5,-0.5"/>
                </g>
               <g id="resetDef">
                       <use xlink:href="#rim2" fill="#404040">
                               <set attributeName="fill" to="#808080" begin="reset.mouseover" end="reset.mouseout"/>
                       </use>
               </g>
        </defs>

<script type="text/javascript">
var viewWidth = 1018;
var viewHeight = 270;
var sectionId = 'dynsection-34';
</script>
<script xlink:href="../../svgpan.js"/>
<svg id="graph" class="graph">
<g id="viewport">
<title>javolution.io.Struct.toString</title>
<polygon fill="white" stroke="transparent" points="-4,4 -4,-265.5 1014,-265.5 1014,4 -4,4"/>
<!-- Node1 -->
<g id="node1" class="node">
<title>Node1</title>
<g id="a_node1"><a xlink:title=" ">
<polygon fill="#bfbfbf" stroke="black" points="0,-130.5 0,-149.5 150,-149.5 150,-130.5 0,-130.5"/>
<text text-anchor="middle" x="75" y="-137.5" font-family="Helvetica,sans-Serif" font-size="10.00">javolution.io.Struct.toString</text>
</a>
</g>
</g>
<!-- Node2 -->
<g id="node2" class="node">
<title>Node2</title>
<g id="a_node2"><a xlink:href="../../d2/d7a/classjavolution_1_1text_1_1TextBuilder.html#a5b6d5e22b7b33b3188569bbaf6112c95" target="_top" xlink:title=" ">
<polygon fill="white" stroke="black" points="186,-236.5 186,-255.5 370,-255.5 370,-236.5 186,-236.5"/>
<text text-anchor="middle" x="278" y="-243.5" font-family="Helvetica,sans-Serif" font-size="10.00">javolution.text.TextBuilder.append</text>
</a>
</g>
</g>
<!-- Node1&#45;&gt;Node2 -->
<g id="edge1" class="edge">
<title>Node1&#45;&gt;Node2</title>
<path fill="none" stroke="midnightblue" d="M84.97,-149.6C102.53,-167.75 143.43,-207.09 186,-227 191.34,-229.5 197.01,-231.67 202.8,-233.56"/>
<polygon fill="midnightblue" stroke="midnightblue" points="202.05,-236.98 212.63,-236.47 204.04,-230.27 202.05,-236.98"/>
</g>
<!-- Node4 -->
<g id="node4" class="node">
<title>Node4</title>
<g id="a_node4"><a xlink:href="../../d7/d99/classjavolution_1_1io_1_1Struct.html#a7e750810b50675d99a38aec0e4ef0e1f" target="_top" xlink:title=" ">
<polygon fill="white" stroke="black" points="214,-169 214,-199 342,-199 342,-169 214,-169"/>
<text text-anchor="start" x="222" y="-187" font-family="Helvetica,sans-Serif" font-size="10.00">javolution.io.Struct.get</text>
<text text-anchor="middle" x="278" y="-176" font-family="Helvetica,sans-Serif" font-size="10.00">ByteBuffer</text>
</a>
</g>
</g>
<!-- Node1&#45;&gt;Node4 -->
<g id="edge3" class="edge">
<title>Node1&#45;&gt;Node4</title>
<path fill="none" stroke="midnightblue" d="M119.61,-149.55C144.2,-154.93 175.55,-161.79 203.79,-167.97"/>
<polygon fill="midnightblue" stroke="midnightblue" points="203.11,-171.41 213.63,-170.13 204.61,-164.57 203.11,-171.41"/>
</g>
<!-- Node8 -->
<g id="node8" class="node">
<title>Node8</title>
<g id="a_node8"><a xlink:href="../../d7/d99/classjavolution_1_1io_1_1Struct.html#a6c5b77be973f699a4f0a80b360de5d42" target="_top" xlink:title=" ">
<polygon fill="white" stroke="black" points="647.5,-130.5 647.5,-149.5 778.5,-149.5 778.5,-130.5 647.5,-130.5"/>
<text text-anchor="middle" x="713" y="-137.5" font-family="Helvetica,sans-Serif" font-size="10.00">javolution.io.Struct.size</text>
</a>
</g>
</g>
<!-- Node1&#45;&gt;Node8 -->
<g id="edge13" class="edge">
<title>Node1&#45;&gt;Node8</title>
<path fill="none" stroke="midnightblue" d="M150.2,-140C272.43,-140 514.75,-140 637.3,-140"/>
<polygon fill="midnightblue" stroke="midnightblue" points="637.35,-143.5 647.35,-140 637.35,-136.5 637.35,-143.5"/>
</g>
<!-- Node9 -->
<g id="node9" class="node">
<title>Node9</title>
<g id="a_node9"><a xlink:href="../../d7/d99/classjavolution_1_1io_1_1Struct.html#af409d73a3cf8dbd3939fcb7d5cf386e3" target="_top" xlink:title=" ">
<polygon fill="white" stroke="black" points="214,-63 214,-93 342,-93 342,-63 214,-63"/>
<text text-anchor="start" x="222" y="-81" font-family="Helvetica,sans-Serif" font-size="10.00">javolution.io.Struct.get</text>
<text text-anchor="middle" x="278" y="-70" font-family="Helvetica,sans-Serif" font-size="10.00">ByteBufferPosition</text>
</a>
</g>
</g>
<!-- Node1&#45;&gt;Node9 -->
<g id="edge11" class="edge">
<title>Node1&#45;&gt;Node9</title>
<path fill="none" stroke="midnightblue" d="M106.97,-130.45C136.46,-121.35 181.62,-107.42 217.99,-96.2"/>
<polygon fill="midnightblue" stroke="midnightblue" points="219.47,-99.41 228,-93.12 217.41,-92.72 219.47,-99.41"/>
</g>
<!-- Node10 -->
<g id="node10" class="node">
<title>Node10</title>
<g id="a_node10"><a xlink:href="../../d2/d7a/classjavolution_1_1text_1_1TextBuilder.html#ade7c6713517620ff61311eff9c50ec06" target="_top" xlink:title=" ">
<polygon fill="white" stroke="black" points="199,-14 199,-44 357,-44 357,-14 199,-14"/>
<text text-anchor="start" x="207" y="-32" font-family="Helvetica,sans-Serif" font-size="10.00">javolution.text.TextBuilder.to</text>
<text text-anchor="middle" x="278" y="-21" font-family="Helvetica,sans-Serif" font-size="10.00">String</text>
</a>
</g>
</g>
<!-- Node1&#45;&gt;Node10 -->
<g id="edge14" class="edge">
<title>Node1&#45;&gt;Node10</title>
<path fill="none" stroke="midnightblue" d="M85.39,-130.48C103.33,-112.83 144.42,-74.91 186,-54 190.64,-51.67 195.52,-49.53 200.52,-47.57"/>
<polygon fill="midnightblue" stroke="midnightblue" points="202.04,-50.75 210.24,-44.03 199.65,-44.17 202.04,-50.75"/>
</g>
<!-- Node3 -->
<g id="node3" class="node">
<title>Node3</title>
<g id="a_node3"><a xlink:href="../../d2/d7a/classjavolution_1_1text_1_1TextBuilder.html#a6d79c3b6adfe6c04f80f940904d181b4" target="_top" xlink:title=" ">
<polygon fill="white" stroke="black" points="406,-231 406,-261 595,-261 595,-231 406,-231"/>
<text text-anchor="start" x="414" y="-249" font-family="Helvetica,sans-Serif" font-size="10.00">javolution.text.TextBuilder.increase</text>
<text text-anchor="middle" x="500.5" y="-238" font-family="Helvetica,sans-Serif" font-size="10.00">Capacity</text>
</a>
</g>
</g>
<!-- Node2&#45;&gt;Node3 -->
<g id="edge2" class="edge">
<title>Node2&#45;&gt;Node3</title>
<path fill="none" stroke="midnightblue" d="M370.28,-246C378.62,-246 387.1,-246 395.54,-246"/>
<polygon fill="midnightblue" stroke="midnightblue" points="395.8,-249.5 405.8,-246 395.8,-242.5 395.8,-249.5"/>
</g>
<!-- Node4&#45;&gt;Node4 -->
<g id="edge4" class="edge">
<title>Node4&#45;&gt;Node4</title>
<path fill="none" stroke="midnightblue" d="M242.8,-199.16C234.31,-208.56 246.04,-217.5 278,-217.5 297.47,-217.5 309.44,-214.18 313.89,-209.46"/>
<polygon fill="midnightblue" stroke="midnightblue" points="317.36,-208.9 313.2,-199.16 310.38,-209.37 317.36,-208.9"/>
</g>
<!-- Node5 -->
<g id="node5" class="node">
<title>Node5</title>
<g id="a_node5"><a xlink:href="../../d7/d99/classjavolution_1_1io_1_1Struct.html#aed9aed0fbd20e6523e215d990cbe5740" target="_top" xlink:title=" ">
<polygon fill="white" stroke="black" points="434.5,-169 434.5,-199 566.5,-199 566.5,-169 434.5,-169"/>
<text text-anchor="start" x="442.5" y="-187" font-family="Helvetica,sans-Serif" font-size="10.00">javolution.io.Struct.new</text>
<text text-anchor="middle" x="500.5" y="-176" font-family="Helvetica,sans-Serif" font-size="10.00">Buffer</text>
</a>
</g>
</g>
<!-- Node4&#45;&gt;Node5 -->
<g id="edge5" class="edge">
<title>Node4&#45;&gt;Node5</title>
<path fill="none" stroke="midnightblue" d="M342.19,-184C367.8,-184 397.59,-184 424.31,-184"/>
<polygon fill="midnightblue" stroke="midnightblue" points="424.39,-187.5 434.39,-184 424.39,-180.5 424.39,-187.5"/>
</g>
<!-- Node6 -->
<g id="node6" class="node">
<title>Node6</title>
<g id="a_node6"><a xlink:href="../../d7/d99/classjavolution_1_1io_1_1Struct.html#a81fd85611da71c484375e2c0ef9124e6" target="_top" xlink:title=" ">
<polygon fill="white" stroke="black" points="853.5,-191 853.5,-221 987.5,-221 987.5,-191 853.5,-191"/>
<text text-anchor="start" x="861.5" y="-209" font-family="Helvetica,sans-Serif" font-size="10.00">javolution.io.Struct.byte</text>
<text text-anchor="middle" x="920.5" y="-198" font-family="Helvetica,sans-Serif" font-size="10.00">Order</text>
</a>
</g>
</g>
<!-- Node5&#45;&gt;Node6 -->
<g id="edge6" class="edge">
<title>Node5&#45;&gt;Node6</title>
<path fill="none" stroke="midnightblue" d="M566.36,-199.03C586.91,-203.12 609.8,-206.97 631,-209 702.73,-215.86 784.95,-214.06 843.22,-211.17"/>
<polygon fill="midnightblue" stroke="midnightblue" points="843.64,-214.65 853.45,-210.64 843.28,-207.66 843.64,-214.65"/>
</g>
<!-- Node7 -->
<g id="node7" class="node">
<title>Node7</title>
<g id="a_node7"><a xlink:href="../../d7/d99/classjavolution_1_1io_1_1Struct.html#a27767d656cd1f1d9079c309a86912237" target="_top" xlink:title=" ">
<polygon fill="white" stroke="black" points="649.5,-169 649.5,-199 776.5,-199 776.5,-169 649.5,-169"/>
<text text-anchor="start" x="657.5" y="-187" font-family="Helvetica,sans-Serif" font-size="10.00">javolution.io.Struct.set</text>
<text text-anchor="middle" x="713" y="-176" font-family="Helvetica,sans-Serif" font-size="10.00">ByteBuffer</text>
</a>
</g>
</g>
<!-- Node5&#45;&gt;Node7 -->
<g id="edge8" class="edge">
<title>Node5&#45;&gt;Node7</title>
<path fill="none" stroke="midnightblue" d="M566.66,-184C589.59,-184 615.51,-184 639.04,-184"/>
<polygon fill="midnightblue" stroke="midnightblue" points="639.31,-187.5 649.31,-184 639.31,-180.5 639.31,-187.5"/>
</g>
<!-- Node5&#45;&gt;Node8 -->
<g id="edge10" class="edge">
<title>Node5&#45;&gt;Node8</title>
<path fill="none" stroke="midnightblue" d="M566.66,-170.38C595.48,-164.36 629.02,-157.35 656.61,-151.58"/>
<polygon fill="midnightblue" stroke="midnightblue" points="657.41,-154.99 666.48,-149.51 655.98,-148.13 657.41,-154.99"/>
</g>
<!-- Node6&#45;&gt;Node6 -->
<g id="edge7" class="edge">
<title>Node6&#45;&gt;Node6</title>
<path fill="none" stroke="midnightblue" d="M884.6,-221.16C875.94,-230.56 887.91,-239.5 920.5,-239.5 940.36,-239.5 952.56,-236.18 957.1,-231.46"/>
<polygon fill="midnightblue" stroke="midnightblue" points="960.57,-230.9 956.4,-221.16 953.59,-231.37 960.57,-230.9"/>
</g>
<!-- Node7&#45;&gt;Node6 -->
<g id="edge9" class="edge">
<title>Node7&#45;&gt;Node6</title>
<path fill="none" stroke="midnightblue" d="M776.77,-190.72C797.66,-192.96 821.16,-195.47 842.97,-197.81"/>
<polygon fill="midnightblue" stroke="midnightblue" points="842.88,-201.32 853.19,-198.9 843.62,-194.36 842.88,-201.32"/>
</g>
<!-- Node9&#45;&gt;Node9 -->
<g id="edge12" class="edge">
<title>Node9&#45;&gt;Node9</title>
<path fill="none" stroke="midnightblue" d="M242.8,-93.16C234.31,-102.56 246.04,-111.5 278,-111.5 297.47,-111.5 309.44,-108.18 313.89,-103.46"/>
<polygon fill="midnightblue" stroke="midnightblue" points="317.36,-102.9 313.2,-93.16 310.38,-103.37 317.36,-102.9"/>
</g>
<!-- Node11 -->
<g id="node11" class="node">
<title>Node11</title>
<g id="a_node11"><a xlink:href="../../d2/d7a/classjavolution_1_1text_1_1TextBuilder.html#a50ba5b22d004b1e9d9d0ceaa19f5c4e3" target="_top" xlink:title=" ">
<polygon fill="white" stroke="black" points="421.5,-14 421.5,-44 579.5,-44 579.5,-14 421.5,-14"/>
<text text-anchor="start" x="429.5" y="-32" font-family="Helvetica,sans-Serif" font-size="10.00">javolution.text.TextBuilder.to</text>
<text text-anchor="middle" x="500.5" y="-21" font-family="Helvetica,sans-Serif" font-size="10.00">LargeString</text>
</a>
</g>
</g>
<!-- Node10&#45;&gt;Node11 -->
<g id="edge15" class="edge">
<title>Node10&#45;&gt;Node11</title>
<path fill="none" stroke="midnightblue" d="M357.05,-29C374.45,-29 393.02,-29 410.81,-29"/>
<polygon fill="midnightblue" stroke="midnightblue" points="411.18,-32.5 421.18,-29 411.18,-25.5 411.18,-32.5"/>
</g>
<!-- Node12 -->
<g id="node12" class="node">
<title>Node12</title>
<g id="a_node12"><a xlink:href="../../d2/d7a/classjavolution_1_1text_1_1TextBuilder.html#aad9dff80172c5e04aa996be73b4374e0" target="_top" xlink:title=" ">
<polygon fill="white" stroke="black" points="631,-14 631,-44 795,-44 795,-14 631,-14"/>
<text text-anchor="start" x="639" y="-32" font-family="Helvetica,sans-Serif" font-size="10.00">javolution.text.TextBuilder.get</text>
<text text-anchor="middle" x="713" y="-21" font-family="Helvetica,sans-Serif" font-size="10.00">Chars</text>
</a>
</g>
</g>
<!-- Node11&#45;&gt;Node12 -->
<g id="edge16" class="edge">
<title>Node11&#45;&gt;Node12</title>
<path fill="none" stroke="midnightblue" d="M579.58,-29C592.92,-29 606.87,-29 620.52,-29"/>
<polygon fill="midnightblue" stroke="midnightblue" points="620.87,-32.5 630.87,-29 620.87,-25.5 620.87,-32.5"/>
</g>
<!-- Node13 -->
<g id="node13" class="node">
<title>Node13</title>
<g id="a_node13"><a xlink:href="../../d2/d7a/classjavolution_1_1text_1_1TextBuilder.html#a23b59400283fe96ea47f786a896da5b1" target="_top" xlink:title=" ">
<polygon fill="white" stroke="black" points="831,-38.5 831,-57.5 1010,-57.5 1010,-38.5 831,-38.5"/>
<text text-anchor="middle" x="920.5" y="-45.5" font-family="Helvetica,sans-Serif" font-size="10.00">javolution.text.TextBuilder.length</text>
</a>
</g>
</g>
<!-- Node12&#45;&gt;Node13 -->
<g id="edge17" class="edge">
<title>Node12&#45;&gt;Node13</title>
<path fill="none" stroke="midnightblue" d="M795.22,-36.51C803.61,-37.28 812.19,-38.08 820.74,-38.87"/>
<polygon fill="midnightblue" stroke="midnightblue" points="820.47,-42.36 830.75,-39.79 821.11,-35.39 820.47,-42.36"/>
</g>
<!-- Node14 -->
<g id="node14" class="node">
<title>Node14</title>
<g id="a_node14"><a xlink:href="../../d4/d14/classjavolution_1_1lang_1_1MathLib.html#a61d82d4ab96ea86fb7868daf1c203048" target="_top" xlink:title=" ">
<polygon fill="white" stroke="black" points="844,-0.5 844,-19.5 997,-19.5 997,-0.5 844,-0.5"/>
<text text-anchor="middle" x="920.5" y="-7.5" font-family="Helvetica,sans-Serif" font-size="10.00">javolution.lang.MathLib.min</text>
</a>
</g>
</g>
<!-- Node12&#45;&gt;Node14 -->
<g id="edge18" class="edge">
<title>Node12&#45;&gt;Node14</title>
<path fill="none" stroke="midnightblue" d="M795.22,-21.49C807.88,-20.32 820.99,-19.11 833.75,-17.93"/>
<polygon fill="midnightblue" stroke="midnightblue" points="834.25,-21.4 843.89,-16.99 833.61,-14.43 834.25,-21.4"/>
</g>
</g>
</svg>
        <g id="navigator" transform="translate(0 0)" fill="#404254">
                <rect fill="#f2f5e9" fill-opacity="0.5" stroke="#606060" stroke-width=".5" x="0" y="0" width="60" height="60"/>
                <use id="zoomplus" xlink:href="#zoomPlus" x="17" y="9" onmousedown="handleZoom(evt,'in')"/>
                <use id="zoomminus" xlink:href="#zoomMin" x="42" y="9" onmousedown="handleZoom(evt,'out')"/>
                <use id="reset" xlink:href="#resetDef" x="30" y="36" onmousedown="handleReset()"/>
                <g id="arrowUp" xlink:href="#dirArrow" transform="translate(30 24)" onmousedown="handlePan(0,-1)">
                  <use xlink:href="#rim" fill="#404040">
                        <set attributeName="fill" to="#808080" begin="arrowUp.mouseover" end="arrowUp.mouseout"/>
                  </use>
                  <path fill="none" stroke="white" stroke-width="1.5" d="M0,-3.0v7 M-2.5,-0.5L0,-3.0L2.5,-0.5"/>
                </g>
                <g id="arrowRight" xlink:href="#dirArrow" transform="rotate(90) translate(36 -43)" onmousedown="handlePan(1,0)">
                  <use xlink:href="#rim" fill="#404040">
                        <set attributeName="fill" to="#808080" begin="arrowRight.mouseover" end="arrowRight.mouseout"/>
                  </use>
                  <path fill="none" stroke="white" stroke-width="1.5" d="M0,-3.0v7 M-2.5,-0.5L0,-3.0L2.5,-0.5"/>
                </g>
                <g id="arrowDown" xlink:href="#dirArrow" transform="rotate(180) translate(-30 -48)" onmousedown="handlePan(0,1)">
                  <use xlink:href="#rim" fill="#404040">
                        <set attributeName="fill" to="#808080" begin="arrowDown.mouseover" end="arrowDown.mouseout"/>
                  </use>
                  <path fill="none" stroke="white" stroke-width="1.5" d="M0,-3.0v7 M-2.5,-0.5L0,-3.0L2.5,-0.5"/>
                </g>
                <g id="arrowLeft" xlink:href="#dirArrow" transform="rotate(270) translate(-36 17)" onmousedown="handlePan(-1,0)">
                  <use xlink:href="#rim" fill="#404040">
                        <set attributeName="fill" to="#808080" begin="arrowLeft.mouseover" end="arrowLeft.mouseout"/>
                  </use>
                  <path fill="none" stroke="white" stroke-width="1.5" d="M0,-3.0v7 M-2.5,-0.5L0,-3.0L2.5,-0.5"/>
                </g>
        </g>
        <svg viewBox="0 0 15 15" width="100%" height="30px" preserveAspectRatio="xMaxYMin meet">
         <g id="arrow_out" transform="scale(0.3 0.3)">
          <a xlink:href="classjavolution_1_1io_1_1Struct_afc743402c152a89a53944da4625f45b2_cgraph_org.svg" target="_base">
           <rect id="button" ry="5" rx="5" y="6" x="6" height="38" width="38"
                fill="#f2f5e9" fill-opacity="0.5" stroke="#606060" stroke-width="1.0"/>
           <path id="arrow"
             d="M 11.500037,31.436501 C 11.940474,20.09759 22.043105,11.32322 32.158766,21.979434 L 37.068811,17.246167 C 37.068811,17.246167 37.088388,32 37.088388,32 L 22.160133,31.978069 C 22.160133,31.978069 26.997745,27.140456 26.997745,27.140456 C 18.528582,18.264221 13.291696,25.230495 11.500037,31.436501 z"
             style="fill:#404040;"/>
          </a>
         </g>
        </svg>
</svg>
