<?xml version="1.0" encoding="UTF-8" standalone="no"?>
<!DOCTYPE svg PUBLIC "-//W3C//DTD SVG 1.1//EN"
 "http://www.w3.org/Graphics/SVG/1.1/DTD/svg11.dtd">
<!-- Generated by graphviz version 2.43.0 (0)
 -->
<!-- Title: javolution.io.Struct.readByteBufferLong Pages: 1 -->
<svg width="839pt" height="118pt"
 viewBox="0.00 0.00 839.00 117.50" xmlns="http://www.w3.org/2000/svg" xmlns:xlink="http://www.w3.org/1999/xlink">
<g id="graph0" class="graph" transform="scale(1 1) rotate(0) translate(4 113.5)">
<title>javolution.io.Struct.readByteBufferLong</title>
<polygon fill="white" stroke="transparent" points="-4,4 -4,-113.5 835,-113.5 835,4 -4,4"/>
<!-- Node1 -->
<g id="node1" class="node">
<title>Node1</title>
<g id="a_node1"><a xlink:title=" ">
<polygon fill="#bfbfbf" stroke="black" points="0,-17 0,-47 134,-47 134,-17 0,-17"/>
<text text-anchor="start" x="8" y="-35" font-family="Helvetica,sans-Serif" font-size="10.00">javolution.io.Struct.read</text>
<text text-anchor="middle" x="67" y="-24" font-family="Helvetica,sans-Serif" font-size="10.00">ByteBufferLong</text>
</a>
</g>
</g>
<!-- Node2 -->
<g id="node2" class="node">
<title>Node2</title>
<g id="a_node2"><a xlink:href="../../d7/d99/classjavolution_1_1io_1_1Struct.html#a7e750810b50675d99a38aec0e4ef0e1f" target="_top" xlink:title=" ">
<polygon fill="white" stroke="black" points="184,-39 184,-69 312,-69 312,-39 184,-39"/>
<text text-anchor="start" x="192" y="-57" font-family="Helvetica,sans-Serif" font-size="10.00">javolution.io.Struct.get</text>
<text text-anchor="middle" x="248" y="-46" font-family="Helvetica,sans-Serif" font-size="10.00">ByteBuffer</text>
</a>
</g>
</g>
<!-- Node1&#45;&gt;Node2 -->
<g id="edge1" class="edge">
<title>Node1&#45;&gt;Node2</title>
<path fill="none" stroke="midnightblue" d="M134.14,-40.13C147.08,-41.72 160.72,-43.4 173.86,-45.01"/>
<polygon fill="midnightblue" stroke="midnightblue" points="173.45,-48.49 183.8,-46.23 174.31,-41.54 173.45,-48.49"/>
</g>
<!-- Node7 -->
<g id="node7" class="node">
<title>Node7</title>
<g id="a_node7"><a xlink:href="../../d7/d99/classjavolution_1_1io_1_1Struct.html#a8f10eb188d14f458b2f2735c07b88b38" target="_top" xlink:title=" ">
<polygon fill="white" stroke="black" points="170,-0.5 170,-19.5 326,-19.5 326,-0.5 170,-0.5"/>
<text text-anchor="middle" x="248" y="-7.5" font-family="Helvetica,sans-Serif" font-size="10.00">javolution.io.Struct.readByte</text>
</a>
</g>
</g>
<!-- Node1&#45;&gt;Node7 -->
<g id="edge9" class="edge">
<title>Node1&#45;&gt;Node7</title>
<path fill="none" stroke="midnightblue" d="M134.14,-23.87C142.52,-22.84 151.19,-21.78 159.83,-20.71"/>
<polygon fill="midnightblue" stroke="midnightblue" points="160.44,-24.17 169.94,-19.47 159.58,-17.22 160.44,-24.17"/>
</g>
<!-- Node2&#45;&gt;Node2 -->
<g id="edge2" class="edge">
<title>Node2&#45;&gt;Node2</title>
<path fill="none" stroke="midnightblue" d="M216.63,-69.16C209.07,-78.56 219.52,-87.5 248,-87.5 265.35,-87.5 276.01,-84.18 279.98,-79.46"/>
<polygon fill="midnightblue" stroke="midnightblue" points="283.46,-78.93 279.37,-69.16 276.47,-79.35 283.46,-78.93"/>
</g>
<!-- Node3 -->
<g id="node3" class="node">
<title>Node3</title>
<g id="a_node3"><a xlink:href="../../d7/d99/classjavolution_1_1io_1_1Struct.html#aed9aed0fbd20e6523e215d990cbe5740" target="_top" xlink:title=" ">
<polygon fill="white" stroke="black" points="362,-39 362,-69 494,-69 494,-39 362,-39"/>
<text text-anchor="start" x="370" y="-57" font-family="Helvetica,sans-Serif" font-size="10.00">javolution.io.Struct.new</text>
<text text-anchor="middle" x="428" y="-46" font-family="Helvetica,sans-Serif" font-size="10.00">Buffer</text>
</a>
</g>
</g>
<!-- Node2&#45;&gt;Node3 -->
<g id="edge3" class="edge">
<title>Node2&#45;&gt;Node3</title>
<path fill="none" stroke="midnightblue" d="M312.01,-54C324.92,-54 338.63,-54 351.91,-54"/>
<polygon fill="midnightblue" stroke="midnightblue" points="351.97,-57.5 361.97,-54 351.97,-50.5 351.97,-57.5"/>
</g>
<!-- Node4 -->
<g id="node4" class="node">
<title>Node4</title>
<g id="a_node4"><a xlink:href="../../d7/d99/classjavolution_1_1io_1_1Struct.html#a81fd85611da71c484375e2c0ef9124e6" target="_top" xlink:title=" ">
<polygon fill="white" stroke="black" points="697,-61 697,-91 831,-91 831,-61 697,-61"/>
<text text-anchor="start" x="705" y="-79" font-family="Helvetica,sans-Serif" font-size="10.00">javolution.io.Struct.byte</text>
<text text-anchor="middle" x="764" y="-68" font-family="Helvetica,sans-Serif" font-size="10.00">Order</text>
</a>
</g>
</g>
<!-- Node3&#45;&gt;Node4 -->
<g id="edge4" class="edge">
<title>Node3&#45;&gt;Node4</title>
<path fill="none" stroke="midnightblue" d="M479.41,-69.03C495.43,-73.11 513.32,-76.97 530,-79 582.08,-85.35 641.19,-84.5 686.84,-82.11"/>
<polygon fill="midnightblue" stroke="midnightblue" points="687.17,-85.59 696.96,-81.54 686.78,-78.61 687.17,-85.59"/>
</g>
<!-- Node5 -->
<g id="node5" class="node">
<title>Node5</title>
<g id="a_node5"><a xlink:href="../../d7/d99/classjavolution_1_1io_1_1Struct.html#a27767d656cd1f1d9079c309a86912237" target="_top" xlink:title=" ">
<polygon fill="white" stroke="black" points="532,-39 532,-69 659,-69 659,-39 532,-39"/>
<text text-anchor="start" x="540" y="-57" font-family="Helvetica,sans-Serif" font-size="10.00">javolution.io.Struct.set</text>
<text text-anchor="middle" x="595.5" y="-46" font-family="Helvetica,sans-Serif" font-size="10.00">ByteBuffer</text>
</a>
</g>
</g>
<!-- Node3&#45;&gt;Node5 -->
<g id="edge6" class="edge">
<title>Node3&#45;&gt;Node5</title>
<path fill="none" stroke="midnightblue" d="M494.41,-54C503.4,-54 512.68,-54 521.8,-54"/>
<polygon fill="midnightblue" stroke="midnightblue" points="521.99,-57.5 531.99,-54 521.99,-50.5 521.99,-57.5"/>
</g>
<!-- Node6 -->
<g id="node6" class="node">
<title>Node6</title>
<g id="a_node6"><a xlink:href="../../d7/d99/classjavolution_1_1io_1_1Struct.html#a6c5b77be973f699a4f0a80b360de5d42" target="_top" xlink:title=" ">
<polygon fill="white" stroke="black" points="530,-0.5 530,-19.5 661,-19.5 661,-0.5 530,-0.5"/>
<text text-anchor="middle" x="595.5" y="-7.5" font-family="Helvetica,sans-Serif" font-size="10.00">javolution.io.Struct.size</text>
</a>
</g>
</g>
<!-- Node3&#45;&gt;Node6 -->
<g id="edge8" class="edge">
<title>Node3&#45;&gt;Node6</title>
<path fill="none" stroke="midnightblue" d="M485.49,-38.98C506.07,-33.51 529.05,-27.4 548.6,-22.2"/>
<polygon fill="midnightblue" stroke="midnightblue" points="549.71,-25.53 558.47,-19.58 547.91,-18.77 549.71,-25.53"/>
</g>
<!-- Node4&#45;&gt;Node4 -->
<g id="edge5" class="edge">
<title>Node4&#45;&gt;Node4</title>
<path fill="none" stroke="midnightblue" d="M734.72,-91.16C727.66,-100.56 737.42,-109.5 764,-109.5 780.2,-109.5 790.15,-106.18 793.85,-101.46"/>
<polygon fill="midnightblue" stroke="midnightblue" points="797.33,-100.95 793.28,-91.16 790.34,-101.34 797.33,-100.95"/>
</g>
<!-- Node5&#45;&gt;Node4 -->
<g id="edge7" class="edge">
<title>Node5&#45;&gt;Node4</title>
<path fill="none" stroke="midnightblue" d="M659.45,-62.32C668.44,-63.51 677.77,-64.74 686.98,-65.96"/>
<polygon fill="midnightblue" stroke="midnightblue" points="686.54,-69.43 696.91,-67.27 687.46,-62.49 686.54,-69.43"/>
</g>
</g>
</svg>
