<?xml version="1.0" encoding="UTF-8" standalone="no"?>
<!DOCTYPE svg PUBLIC "-//W3C//DTD SVG 1.1//EN"
 "http://www.w3.org/Graphics/SVG/1.1/DTD/svg11.dtd">
<!-- Generated by graphviz version 2.43.0 (0)
 -->
<!-- Title: javolution.io.Struct.readBits Pages: 1 -->
<svg width="482pt" height="186pt"
 viewBox="0.00 0.00 482.00 186.00" xmlns="http://www.w3.org/2000/svg" xmlns:xlink="http://www.w3.org/1999/xlink">
<g id="graph0" class="graph" transform="scale(1 1) rotate(0) translate(4 182)">
<title>javolution.io.Struct.readBits</title>
<polygon fill="white" stroke="transparent" points="-4,4 -4,-182 478,-182 478,4 -4,4"/>
<!-- Node1 -->
<g id="node1" class="node">
<title>Node1</title>
<g id="a_node1"><a xlink:title=" ">
<polygon fill="#bfbfbf" stroke="black" points="322,-79 322,-98 474,-98 474,-79 322,-79"/>
<text text-anchor="middle" x="398" y="-86" font-family="Helvetica,sans-Serif" font-size="10.00">javolution.io.Struct.readBits</text>
</a>
</g>
</g>
<!-- Node2 -->
<g id="node2" class="node">
<title>Node2</title>
<g id="a_node2"><a xlink:href="../../d7/d70/classjavolution_1_1io_1_1Struct_1_1BitField.html#a579b86e1a44a8b13f1a7b1cac6a3f2b9" target="_top" xlink:title=" ">
<polygon fill="white" stroke="black" points="161,-73.5 161,-103.5 286,-103.5 286,-73.5 161,-73.5"/>
<text text-anchor="start" x="169" y="-91.5" font-family="Helvetica,sans-Serif" font-size="10.00">javolution.io.Struct.Bit</text>
<text text-anchor="middle" x="223.5" y="-80.5" font-family="Helvetica,sans-Serif" font-size="10.00">Field.longValue</text>
</a>
</g>
</g>
<!-- Node1&#45;&gt;Node2 -->
<g id="edge1" class="edge">
<title>Node1&#45;&gt;Node2</title>
<path fill="none" stroke="midnightblue" d="M311.76,-88.5C303.15,-88.5 294.52,-88.5 286.23,-88.5"/>
<polygon fill="midnightblue" stroke="midnightblue" points="311.84,-92 321.84,-88.5 311.84,-85 311.84,-92"/>
</g>
<!-- Node3 -->
<g id="node3" class="node">
<title>Node3</title>
<g id="a_node3"><a xlink:href="../../d7/d70/classjavolution_1_1io_1_1Struct_1_1BitField.html#ab41640eddb2e34867880496147a40f5e" target="_top" xlink:title=" ">
<polygon fill="white" stroke="black" points="0,-147.5 0,-177.5 125,-177.5 125,-147.5 0,-147.5"/>
<text text-anchor="start" x="8" y="-165.5" font-family="Helvetica,sans-Serif" font-size="10.00">javolution.io.Struct.Bit</text>
<text text-anchor="middle" x="62.5" y="-154.5" font-family="Helvetica,sans-Serif" font-size="10.00">Field.byteValue</text>
</a>
</g>
</g>
<!-- Node2&#45;&gt;Node3 -->
<g id="edge2" class="edge">
<title>Node2&#45;&gt;Node3</title>
<path fill="none" stroke="midnightblue" d="M185.67,-108.51C167.6,-118.04 145.39,-129.32 125,-138.5 118.21,-141.56 110.9,-144.61 103.77,-147.46"/>
<polygon fill="midnightblue" stroke="midnightblue" points="187.52,-111.49 194.71,-103.71 184.24,-105.31 187.52,-111.49"/>
</g>
<!-- Node4 -->
<g id="node4" class="node">
<title>Node4</title>
<g id="a_node4"><a xlink:href="../../d7/d70/classjavolution_1_1io_1_1Struct_1_1BitField.html#a71dfb4641190553064d903a1d11ce1f1" target="_top" xlink:title=" ">
<polygon fill="white" stroke="black" points="0,-98.5 0,-128.5 125,-128.5 125,-98.5 0,-98.5"/>
<text text-anchor="start" x="8" y="-116.5" font-family="Helvetica,sans-Serif" font-size="10.00">javolution.io.Struct.Bit</text>
<text text-anchor="middle" x="62.5" y="-105.5" font-family="Helvetica,sans-Serif" font-size="10.00">Field.intValue</text>
</a>
</g>
</g>
<!-- Node2&#45;&gt;Node4 -->
<g id="edge3" class="edge">
<title>Node2&#45;&gt;Node4</title>
<path fill="none" stroke="midnightblue" d="M150.68,-99.79C142.2,-101.13 133.59,-102.48 125.26,-103.79"/>
<polygon fill="midnightblue" stroke="midnightblue" points="151.24,-103.25 160.57,-98.24 150.15,-96.33 151.24,-103.25"/>
</g>
<!-- Node5 -->
<g id="node5" class="node">
<title>Node5</title>
<g id="a_node5"><a xlink:href="../../d7/d70/classjavolution_1_1io_1_1Struct_1_1BitField.html#a8ff7e1969b6acf1be3ef107f83632ea3" target="_top" xlink:title=" ">
<polygon fill="white" stroke="black" points="0,-49.5 0,-79.5 125,-79.5 125,-49.5 0,-49.5"/>
<text text-anchor="start" x="8" y="-67.5" font-family="Helvetica,sans-Serif" font-size="10.00">javolution.io.Struct.Bit</text>
<text text-anchor="middle" x="62.5" y="-56.5" font-family="Helvetica,sans-Serif" font-size="10.00">Field.shortValue</text>
</a>
</g>
</g>
<!-- Node2&#45;&gt;Node5 -->
<g id="edge4" class="edge">
<title>Node2&#45;&gt;Node5</title>
<path fill="none" stroke="midnightblue" d="M150.41,-77.62C142.01,-76.35 133.5,-75.07 125.26,-73.82"/>
<polygon fill="midnightblue" stroke="midnightblue" points="150.16,-81.12 160.57,-79.15 151.21,-74.2 150.16,-81.12"/>
</g>
<!-- Node6 -->
<g id="node6" class="node">
<title>Node6</title>
<g id="a_node6"><a xlink:href="../../d7/d70/classjavolution_1_1io_1_1Struct_1_1BitField.html#a10e7a521c3228a836d79e98f4eb6c459" target="_top" xlink:title=" ">
<polygon fill="white" stroke="black" points="0,-0.5 0,-30.5 125,-30.5 125,-0.5 0,-0.5"/>
<text text-anchor="start" x="8" y="-18.5" font-family="Helvetica,sans-Serif" font-size="10.00">javolution.io.Struct.Bit</text>
<text text-anchor="middle" x="62.5" y="-7.5" font-family="Helvetica,sans-Serif" font-size="10.00">Field.toString</text>
</a>
</g>
</g>
<!-- Node2&#45;&gt;Node6 -->
<g id="edge5" class="edge">
<title>Node2&#45;&gt;Node6</title>
<path fill="none" stroke="midnightblue" d="M184.35,-68.93C166.47,-59.96 144.79,-49.38 125,-40.5 117.53,-37.15 109.48,-33.74 101.74,-30.55"/>
<polygon fill="midnightblue" stroke="midnightblue" points="182.81,-72.08 193.32,-73.46 185.97,-65.83 182.81,-72.08"/>
</g>
</g>
</svg>
