<?xml version="1.0" encoding="UTF-8" standalone="no"?>
<!DOCTYPE svg PUBLIC "-//W3C//DTD SVG 1.1//EN"
 "http://www.w3.org/Graphics/SVG/1.1/DTD/svg11.dtd">
<!-- Generated by graphviz version 2.43.0 (0)
 -->
<!-- Title: javolution.io.Struct.getByteBuffer Pages: 1 -->
<svg width="641pt" height="118pt"
 viewBox="0.00 0.00 641.00 117.50" xmlns="http://www.w3.org/2000/svg" xmlns:xlink="http://www.w3.org/1999/xlink">
<g id="graph0" class="graph" transform="scale(1 1) rotate(0) translate(4 113.5)">
<title>javolution.io.Struct.getByteBuffer</title>
<polygon fill="white" stroke="transparent" points="-4,4 -4,-113.5 637,-113.5 637,4 -4,4"/>
<!-- Node1 -->
<g id="node1" class="node">
<title>Node1</title>
<g id="a_node1"><a xlink:title=" ">
<polygon fill="#bfbfbf" stroke="black" points="0,-39 0,-69 128,-69 128,-39 0,-39"/>
<text text-anchor="start" x="8" y="-57" font-family="Helvetica,sans-Serif" font-size="10.00">javolution.io.Struct.get</text>
<text text-anchor="middle" x="64" y="-46" font-family="Helvetica,sans-Serif" font-size="10.00">ByteBuffer</text>
</a>
</g>
</g>
<!-- Node1&#45;&gt;Node1 -->
<g id="edge1" class="edge">
<title>Node1&#45;&gt;Node1</title>
<path fill="none" stroke="midnightblue" d="M35.07,-69.16C28.1,-78.56 37.74,-87.5 64,-87.5 80,-87.5 89.84,-84.18 93.5,-79.46"/>
<polygon fill="midnightblue" stroke="midnightblue" points="96.97,-78.95 92.93,-69.16 89.98,-79.34 96.97,-78.95"/>
</g>
<!-- Node2 -->
<g id="node2" class="node">
<title>Node2</title>
<g id="a_node2"><a xlink:href="../../d7/d99/classjavolution_1_1io_1_1Struct.html#aed9aed0fbd20e6523e215d990cbe5740" target="_top" xlink:title=" ">
<polygon fill="white" stroke="black" points="164,-39 164,-69 296,-69 296,-39 164,-39"/>
<text text-anchor="start" x="172" y="-57" font-family="Helvetica,sans-Serif" font-size="10.00">javolution.io.Struct.new</text>
<text text-anchor="middle" x="230" y="-46" font-family="Helvetica,sans-Serif" font-size="10.00">Buffer</text>
</a>
</g>
</g>
<!-- Node1&#45;&gt;Node2 -->
<g id="edge2" class="edge">
<title>Node1&#45;&gt;Node2</title>
<path fill="none" stroke="midnightblue" d="M128.41,-54C136.67,-54 145.21,-54 153.64,-54"/>
<polygon fill="midnightblue" stroke="midnightblue" points="153.87,-57.5 163.87,-54 153.87,-50.5 153.87,-57.5"/>
</g>
<!-- Node3 -->
<g id="node3" class="node">
<title>Node3</title>
<g id="a_node3"><a xlink:href="../../d7/d99/classjavolution_1_1io_1_1Struct.html#a81fd85611da71c484375e2c0ef9124e6" target="_top" xlink:title=" ">
<polygon fill="white" stroke="black" points="499,-61 499,-91 633,-91 633,-61 499,-61"/>
<text text-anchor="start" x="507" y="-79" font-family="Helvetica,sans-Serif" font-size="10.00">javolution.io.Struct.byte</text>
<text text-anchor="middle" x="566" y="-68" font-family="Helvetica,sans-Serif" font-size="10.00">Order</text>
</a>
</g>
</g>
<!-- Node2&#45;&gt;Node3 -->
<g id="edge3" class="edge">
<title>Node2&#45;&gt;Node3</title>
<path fill="none" stroke="midnightblue" d="M281.41,-69.03C297.43,-73.11 315.32,-76.97 332,-79 384.08,-85.35 443.19,-84.5 488.84,-82.11"/>
<polygon fill="midnightblue" stroke="midnightblue" points="489.17,-85.59 498.96,-81.54 488.78,-78.61 489.17,-85.59"/>
</g>
<!-- Node4 -->
<g id="node4" class="node">
<title>Node4</title>
<g id="a_node4"><a xlink:href="../../d7/d99/classjavolution_1_1io_1_1Struct.html#a27767d656cd1f1d9079c309a86912237" target="_top" xlink:title=" ">
<polygon fill="white" stroke="black" points="334,-39 334,-69 461,-69 461,-39 334,-39"/>
<text text-anchor="start" x="342" y="-57" font-family="Helvetica,sans-Serif" font-size="10.00">javolution.io.Struct.set</text>
<text text-anchor="middle" x="397.5" y="-46" font-family="Helvetica,sans-Serif" font-size="10.00">ByteBuffer</text>
</a>
</g>
</g>
<!-- Node2&#45;&gt;Node4 -->
<g id="edge5" class="edge">
<title>Node2&#45;&gt;Node4</title>
<path fill="none" stroke="midnightblue" d="M296.41,-54C305.4,-54 314.68,-54 323.8,-54"/>
<polygon fill="midnightblue" stroke="midnightblue" points="323.99,-57.5 333.99,-54 323.99,-50.5 323.99,-57.5"/>
</g>
<!-- Node5 -->
<g id="node5" class="node">
<title>Node5</title>
<g id="a_node5"><a xlink:href="../../d7/d99/classjavolution_1_1io_1_1Struct.html#a6c5b77be973f699a4f0a80b360de5d42" target="_top" xlink:title=" ">
<polygon fill="white" stroke="black" points="332,-0.5 332,-19.5 463,-19.5 463,-0.5 332,-0.5"/>
<text text-anchor="middle" x="397.5" y="-7.5" font-family="Helvetica,sans-Serif" font-size="10.00">javolution.io.Struct.size</text>
</a>
</g>
</g>
<!-- Node2&#45;&gt;Node5 -->
<g id="edge7" class="edge">
<title>Node2&#45;&gt;Node5</title>
<path fill="none" stroke="midnightblue" d="M287.49,-38.98C308.07,-33.51 331.05,-27.4 350.6,-22.2"/>
<polygon fill="midnightblue" stroke="midnightblue" points="351.71,-25.53 360.47,-19.58 349.91,-18.77 351.71,-25.53"/>
</g>
<!-- Node3&#45;&gt;Node3 -->
<g id="edge4" class="edge">
<title>Node3&#45;&gt;Node3</title>
<path fill="none" stroke="midnightblue" d="M536.72,-91.16C529.66,-100.56 539.42,-109.5 566,-109.5 582.2,-109.5 592.15,-106.18 595.85,-101.46"/>
<polygon fill="midnightblue" stroke="midnightblue" points="599.33,-100.95 595.28,-91.16 592.34,-101.34 599.33,-100.95"/>
</g>
<!-- Node4&#45;&gt;Node3 -->
<g id="edge6" class="edge">
<title>Node4&#45;&gt;Node3</title>
<path fill="none" stroke="midnightblue" d="M461.45,-62.32C470.44,-63.51 479.77,-64.74 488.98,-65.96"/>
<polygon fill="midnightblue" stroke="midnightblue" points="488.54,-69.43 498.91,-67.27 489.46,-62.49 488.54,-69.43"/>
</g>
</g>
</svg>
