<?xml version="1.0" encoding="UTF-8" standalone="no"?>
<!DOCTYPE svg PUBLIC "-//W3C//DTD SVG 1.1//EN"
 "http://www.w3.org/Graphics/SVG/1.1/DTD/svg11.dtd">
<!-- Generated by graphviz version 2.43.0 (0)
 -->
<!-- Title: javolution.io.Struct.newBuffer Pages: 1 -->
<svg width="477pt" height="118pt"
 viewBox="0.00 0.00 477.00 117.50" xmlns="http://www.w3.org/2000/svg" xmlns:xlink="http://www.w3.org/1999/xlink">
<g id="graph0" class="graph" transform="scale(1 1) rotate(0) translate(4 113.5)">
<title>javolution.io.Struct.newBuffer</title>
<polygon fill="white" stroke="transparent" points="-4,4 -4,-113.5 473,-113.5 473,4 -4,4"/>
<!-- Node1 -->
<g id="node1" class="node">
<title>Node1</title>
<g id="a_node1"><a xlink:title=" ">
<polygon fill="#bfbfbf" stroke="black" points="0,-39 0,-69 132,-69 132,-39 0,-39"/>
<text text-anchor="start" x="8" y="-57" font-family="Helvetica,sans-Serif" font-size="10.00">javolution.io.Struct.new</text>
<text text-anchor="middle" x="66" y="-46" font-family="Helvetica,sans-Serif" font-size="10.00">Buffer</text>
</a>
</g>
</g>
<!-- Node2 -->
<g id="node2" class="node">
<title>Node2</title>
<g id="a_node2"><a xlink:href="../../d7/d99/classjavolution_1_1io_1_1Struct.html#a81fd85611da71c484375e2c0ef9124e6" target="_top" xlink:title=" ">
<polygon fill="white" stroke="black" points="335,-61 335,-91 469,-91 469,-61 335,-61"/>
<text text-anchor="start" x="343" y="-79" font-family="Helvetica,sans-Serif" font-size="10.00">javolution.io.Struct.byte</text>
<text text-anchor="middle" x="402" y="-68" font-family="Helvetica,sans-Serif" font-size="10.00">Order</text>
</a>
</g>
</g>
<!-- Node1&#45;&gt;Node2 -->
<g id="edge1" class="edge">
<title>Node1&#45;&gt;Node2</title>
<path fill="none" stroke="midnightblue" d="M117.41,-69.03C133.43,-73.11 151.32,-76.97 168,-79 220.08,-85.35 279.19,-84.5 324.84,-82.11"/>
<polygon fill="midnightblue" stroke="midnightblue" points="325.17,-85.59 334.96,-81.54 324.78,-78.61 325.17,-85.59"/>
</g>
<!-- Node3 -->
<g id="node3" class="node">
<title>Node3</title>
<g id="a_node3"><a xlink:href="../../d7/d99/classjavolution_1_1io_1_1Struct.html#a27767d656cd1f1d9079c309a86912237" target="_top" xlink:title=" ">
<polygon fill="white" stroke="black" points="170,-39 170,-69 297,-69 297,-39 170,-39"/>
<text text-anchor="start" x="178" y="-57" font-family="Helvetica,sans-Serif" font-size="10.00">javolution.io.Struct.set</text>
<text text-anchor="middle" x="233.5" y="-46" font-family="Helvetica,sans-Serif" font-size="10.00">ByteBuffer</text>
</a>
</g>
</g>
<!-- Node1&#45;&gt;Node3 -->
<g id="edge3" class="edge">
<title>Node1&#45;&gt;Node3</title>
<path fill="none" stroke="midnightblue" d="M132.41,-54C141.4,-54 150.68,-54 159.8,-54"/>
<polygon fill="midnightblue" stroke="midnightblue" points="159.99,-57.5 169.99,-54 159.99,-50.5 159.99,-57.5"/>
</g>
<!-- Node4 -->
<g id="node4" class="node">
<title>Node4</title>
<g id="a_node4"><a xlink:href="../../d7/d99/classjavolution_1_1io_1_1Struct.html#a6c5b77be973f699a4f0a80b360de5d42" target="_top" xlink:title=" ">
<polygon fill="white" stroke="black" points="168,-0.5 168,-19.5 299,-19.5 299,-0.5 168,-0.5"/>
<text text-anchor="middle" x="233.5" y="-7.5" font-family="Helvetica,sans-Serif" font-size="10.00">javolution.io.Struct.size</text>
</a>
</g>
</g>
<!-- Node1&#45;&gt;Node4 -->
<g id="edge5" class="edge">
<title>Node1&#45;&gt;Node4</title>
<path fill="none" stroke="midnightblue" d="M123.49,-38.98C144.07,-33.51 167.05,-27.4 186.6,-22.2"/>
<polygon fill="midnightblue" stroke="midnightblue" points="187.71,-25.53 196.47,-19.58 185.91,-18.77 187.71,-25.53"/>
</g>
<!-- Node2&#45;&gt;Node2 -->
<g id="edge2" class="edge">
<title>Node2&#45;&gt;Node2</title>
<path fill="none" stroke="midnightblue" d="M372.72,-91.16C365.66,-100.56 375.42,-109.5 402,-109.5 418.2,-109.5 428.15,-106.18 431.85,-101.46"/>
<polygon fill="midnightblue" stroke="midnightblue" points="435.33,-100.95 431.28,-91.16 428.34,-101.34 435.33,-100.95"/>
</g>
<!-- Node3&#45;&gt;Node2 -->
<g id="edge4" class="edge">
<title>Node3&#45;&gt;Node2</title>
<path fill="none" stroke="midnightblue" d="M297.45,-62.32C306.44,-63.51 315.77,-64.74 324.98,-65.96"/>
<polygon fill="midnightblue" stroke="midnightblue" points="324.54,-69.43 334.91,-67.27 325.46,-62.49 324.54,-69.43"/>
</g>
</g>
</svg>
