<?xml version="1.0" encoding="UTF-8" standalone="no"?>
<!DOCTYPE svg PUBLIC "-//W3C//DTD SVG 1.1//EN"
 "http://www.w3.org/Graphics/SVG/1.1/DTD/svg11.dtd">
<!-- Generated by graphviz version 2.43.0 (0)
 -->
<!-- Title: javolution.io.UTF8StreamWriter Pages: 1 -->
<svg width="418pt" height="106pt"
 viewBox="0.00 0.00 417.50 106.00" xmlns="http://www.w3.org/2000/svg" xmlns:xlink="http://www.w3.org/1999/xlink">
<g id="graph0" class="graph" transform="scale(1 1) rotate(0) translate(4 102)">
<title>javolution.io.UTF8StreamWriter</title>
<polygon fill="white" stroke="transparent" points="-4,4 -4,-102 413.5,-102 413.5,4 -4,4"/>
<!-- Node1 -->
<g id="node1" class="node">
<title>Node1</title>
<g id="a_node1"><a xlink:title=" ">
<polygon fill="#bfbfbf" stroke="black" points="136,-0.5 136,-30.5 277,-30.5 277,-0.5 136,-0.5"/>
<text text-anchor="start" x="144" y="-18.5" font-family="Helvetica,sans-Serif" font-size="10.00">javolution.io.UTF8Stream</text>
<text text-anchor="middle" x="206.5" y="-7.5" font-family="Helvetica,sans-Serif" font-size="10.00">Writer</text>
</a>
</g>
</g>
<!-- Node2 -->
<g id="node2" class="node">
<title>Node2</title>
<g id="a_node2"><a xlink:title=" ">
<polygon fill="white" stroke="#bfbfbf" points="0,-78.5 0,-97.5 47,-97.5 47,-78.5 0,-78.5"/>
<text text-anchor="middle" x="23.5" y="-85.5" font-family="Helvetica,sans-Serif" font-size="10.00">Writer</text>
</a>
</g>
</g>
<!-- Node2&#45;&gt;Node1 -->
<g id="edge1" class="edge">
<title>Node2&#45;&gt;Node1</title>
<path fill="none" stroke="midnightblue" d="M51.84,-74.49C69.47,-66.85 92.67,-57.03 113.5,-49 130.1,-42.6 148.56,-36.04 164.63,-30.5"/>
<polygon fill="midnightblue" stroke="midnightblue" points="50.44,-71.29 42.67,-78.49 53.23,-77.7 50.44,-71.29"/>
</g>
<!-- Node3 -->
<g id="node3" class="node">
<title>Node3</title>
<g id="a_node3"><a xlink:title=" ">
<polygon fill="white" stroke="#bfbfbf" points="65,-78.5 65,-97.5 150,-97.5 150,-78.5 65,-78.5"/>
<text text-anchor="middle" x="107.5" y="-85.5" font-family="Helvetica,sans-Serif" font-size="10.00">OutputStream</text>
</a>
</g>
</g>
<!-- Node3&#45;&gt;Node1 -->
<g id="edge2" class="edge">
<title>Node3&#45;&gt;Node1</title>
<path fill="none" stroke="#9a32cd" stroke-dasharray="5,2" d="M113.39,-68.91C116.4,-61.95 120.68,-54.38 126.5,-49 134.86,-41.26 145.31,-35.26 155.87,-30.63"/>
<polygon fill="#9a32cd" stroke="#9a32cd" points="110.08,-67.77 109.86,-78.36 116.64,-70.22 110.08,-67.77"/>
<text text-anchor="middle" x="164.5" y="-52" font-family="Helvetica,sans-Serif" font-size="10.00"> _outputStream</text>
</g>
<!-- Node4 -->
<g id="node4" class="node">
<title>Node4</title>
<g id="a_node4"><a xlink:title=" ">
<polygon fill="white" stroke="#bfbfbf" points="187.5,-78.5 187.5,-97.5 225.5,-97.5 225.5,-78.5 187.5,-78.5"/>
<text text-anchor="middle" x="206.5" y="-85.5" font-family="Helvetica,sans-Serif" font-size="10.00">char</text>
</a>
</g>
</g>
<!-- Node4&#45;&gt;Node1 -->
<g id="edge3" class="edge">
<title>Node4&#45;&gt;Node1</title>
<path fill="none" stroke="#9a32cd" stroke-dasharray="5,2" d="M206.5,-68.24C206.5,-56.41 206.5,-41.38 206.5,-30.58"/>
<polygon fill="#9a32cd" stroke="#9a32cd" points="203,-68.36 206.5,-78.36 210,-68.36 203,-68.36"/>
<text text-anchor="middle" x="245" y="-52" font-family="Helvetica,sans-Serif" font-size="10.00"> _highSurrogate</text>
</g>
<!-- Node5 -->
<g id="node5" class="node">
<title>Node5</title>
<g id="a_node5"><a xlink:title=" ">
<polygon fill="white" stroke="#bfbfbf" points="292,-78.5 292,-97.5 321,-97.5 321,-78.5 292,-78.5"/>
<text text-anchor="middle" x="306.5" y="-85.5" font-family="Helvetica,sans-Serif" font-size="10.00">int</text>
</a>
</g>
</g>
<!-- Node5&#45;&gt;Node1 -->
<g id="edge4" class="edge">
<title>Node5&#45;&gt;Node1</title>
<path fill="none" stroke="#9a32cd" stroke-dasharray="5,2" d="M299.1,-68.93C295.52,-61.97 290.66,-54.41 284.5,-49 275.79,-41.35 265.03,-35.33 254.31,-30.66"/>
<polygon fill="#9a32cd" stroke="#9a32cd" points="296.07,-70.73 303.41,-78.37 302.44,-67.82 296.07,-70.73"/>
<text text-anchor="middle" x="311.5" y="-52" font-family="Helvetica,sans-Serif" font-size="10.00"> _index</text>
</g>
<!-- Node6 -->
<g id="node6" class="node">
<title>Node6</title>
<g id="a_node6"><a xlink:title=" ">
<polygon fill="white" stroke="#bfbfbf" points="339.5,-78.5 339.5,-97.5 409.5,-97.5 409.5,-78.5 339.5,-78.5"/>
<text text-anchor="middle" x="374.5" y="-85.5" font-family="Helvetica,sans-Serif" font-size="10.00">final byte[]</text>
</a>
</g>
</g>
<!-- Node6&#45;&gt;Node1 -->
<g id="edge5" class="edge">
<title>Node6&#45;&gt;Node1</title>
<path fill="none" stroke="#9a32cd" stroke-dasharray="5,2" d="M360.55,-70.74C353.21,-63.12 343.64,-54.53 333.5,-49 316.21,-39.58 296.11,-32.81 277.07,-27.99"/>
<polygon fill="#9a32cd" stroke="#9a32cd" points="358.24,-73.4 367.56,-78.44 363.41,-68.69 358.24,-73.4"/>
<text text-anchor="middle" x="366.5" y="-52" font-family="Helvetica,sans-Serif" font-size="10.00"> _bytes</text>
</g>
</g>
</svg>
