<?xml version="1.0" encoding="UTF-8" standalone="no"?>
<!DOCTYPE svg PUBLIC "-//W3C//DTD SVG 1.1//EN"
 "http://www.w3.org/Graphics/SVG/1.1/DTD/svg11.dtd">
<!-- Generated by graphviz version 2.43.0 (0)
 -->
<!-- Title: javolution.util.internal.collection.SharedCollectionImpl.remove Pages: 1 -->
<svg width="444pt" height="39pt"
 viewBox="0.00 0.00 444.00 39.00" xmlns="http://www.w3.org/2000/svg" xmlns:xlink="http://www.w3.org/1999/xlink">
<g id="graph0" class="graph" transform="scale(1 1) rotate(0) translate(4 35)">
<title>javolution.util.internal.collection.SharedCollectionImpl.remove</title>
<polygon fill="white" stroke="transparent" points="-4,4 -4,-35 440,-35 440,4 -4,4"/>
<!-- Node1 -->
<g id="node1" class="node">
<title>Node1</title>
<g id="a_node1"><a xlink:title=" ">
<polygon fill="#bfbfbf" stroke="black" points="258,-0.5 258,-30.5 436,-30.5 436,-0.5 258,-0.5"/>
<text text-anchor="start" x="266" y="-18.5" font-family="Helvetica,sans-Serif" font-size="10.00">javolution.util.internal.collection.</text>
<text text-anchor="middle" x="347" y="-7.5" font-family="Helvetica,sans-Serif" font-size="10.00">SharedCollectionImpl.remove</text>
</a>
</g>
</g>
<!-- Node2 -->
<g id="node2" class="node">
<title>Node2</title>
<g id="a_node2"><a xlink:href="../../df/d63/classjavolution_1_1util_1_1internal_1_1collection_1_1SharedCollectionImpl_1_1IteratorImpl.html#ad409ea3334e90fece604d8f254152acc" target="_top" xlink:title=" ">
<polygon fill="white" stroke="black" points="0,-0.5 0,-30.5 222,-30.5 222,-0.5 0,-0.5"/>
<text text-anchor="start" x="8" y="-18.5" font-family="Helvetica,sans-Serif" font-size="10.00">javolution.util.internal.collection.</text>
<text text-anchor="middle" x="111" y="-7.5" font-family="Helvetica,sans-Serif" font-size="10.00">SharedCollectionImpl.IteratorImpl.remove</text>
</a>
</g>
</g>
<!-- Node1&#45;&gt;Node2 -->
<g id="edge1" class="edge">
<title>Node1&#45;&gt;Node2</title>
<path fill="none" stroke="midnightblue" d="M247.67,-15.5C239.24,-15.5 230.68,-15.5 222.17,-15.5"/>
<polygon fill="midnightblue" stroke="midnightblue" points="247.87,-19 257.87,-15.5 247.87,-12 247.87,-19"/>
</g>
</g>
</svg>
