<?xml version="1.0" encoding="UTF-8" standalone="no"?>
<!DOCTYPE svg PUBLIC "-//W3C//DTD SVG 1.1//EN"
 "http://www.w3.org/Graphics/SVG/1.1/DTD/svg11.dtd">
<!-- Generated by graphviz version 2.43.0 (0)
 -->
<!-- Title: javolution.xml.XMLObjectReader Pages: 1 -->
<svg width="357pt" height="173pt"
 viewBox="0.00 0.00 356.50 173.00" xmlns="http://www.w3.org/2000/svg" xmlns:xlink="http://www.w3.org/1999/xlink">
<g id="graph0" class="graph" transform="scale(1 1) rotate(0) translate(4 169)">
<title>javolution.xml.XMLObjectReader</title>
<polygon fill="white" stroke="transparent" points="-4,4 -4,-169 352.5,-169 352.5,4 -4,4"/>
<!-- Node1 -->
<g id="node1" class="node">
<title>Node1</title>
<g id="a_node1"><a xlink:title=" ">
<polygon fill="#bfbfbf" stroke="black" points="59,-0.5 59,-30.5 202,-30.5 202,-0.5 59,-0.5"/>
<text text-anchor="start" x="67" y="-18.5" font-family="Helvetica,sans-Serif" font-size="10.00">javolution.xml.XMLObject</text>
<text text-anchor="middle" x="130.5" y="-7.5" font-family="Helvetica,sans-Serif" font-size="10.00">Reader</text>
</a>
</g>
</g>
<!-- Node2 -->
<g id="node2" class="node">
<title>Node2</title>
<g id="a_node2"><a xlink:title=" ">
<polygon fill="white" stroke="#bfbfbf" points="0,-78.5 0,-97.5 77,-97.5 77,-78.5 0,-78.5"/>
<text text-anchor="middle" x="38.5" y="-85.5" font-family="Helvetica,sans-Serif" font-size="10.00">InputStream</text>
</a>
</g>
</g>
<!-- Node2&#45;&gt;Node1 -->
<g id="edge1" class="edge">
<title>Node2&#45;&gt;Node1</title>
<path fill="none" stroke="#9a32cd" stroke-dasharray="5,2" d="M44.48,-69.01C47.5,-62.06 51.77,-54.48 57.5,-49 65.52,-41.33 75.66,-35.28 85.81,-30.59"/>
<polygon fill="#9a32cd" stroke="#9a32cd" points="41.18,-67.83 40.91,-78.42 47.73,-70.31 41.18,-67.83"/>
<text text-anchor="middle" x="92" y="-52" font-family="Helvetica,sans-Serif" font-size="10.00"> _inputStream</text>
</g>
<!-- Node3 -->
<g id="node3" class="node">
<title>Node3</title>
<g id="a_node3"><a xlink:title=" ">
<polygon fill="white" stroke="#bfbfbf" points="105,-78.5 105,-97.5 156,-97.5 156,-78.5 105,-78.5"/>
<text text-anchor="middle" x="130.5" y="-85.5" font-family="Helvetica,sans-Serif" font-size="10.00">Reader</text>
</a>
</g>
</g>
<!-- Node3&#45;&gt;Node1 -->
<g id="edge2" class="edge">
<title>Node3&#45;&gt;Node1</title>
<path fill="none" stroke="#9a32cd" stroke-dasharray="5,2" d="M130.5,-68.24C130.5,-56.41 130.5,-41.38 130.5,-30.58"/>
<polygon fill="#9a32cd" stroke="#9a32cd" points="127,-68.36 130.5,-78.36 134,-68.36 127,-68.36"/>
<text text-anchor="middle" x="150.5" y="-52" font-family="Helvetica,sans-Serif" font-size="10.00"> _reader</text>
</g>
<!-- Node4 -->
<g id="node4" class="node">
<title>Node4</title>
<g id="a_node4"><a xlink:href="../../da/ddf/classjavolution_1_1xml_1_1XMLFormat.html" target="_top" xlink:title=" ">
<polygon fill="white" stroke="black" points="174.5,-78.5 174.5,-97.5 348.5,-97.5 348.5,-78.5 174.5,-78.5"/>
<text text-anchor="middle" x="261.5" y="-85.5" font-family="Helvetica,sans-Serif" font-size="10.00">javolution.xml.XMLFormat&lt; T &gt;</text>
</a>
</g>
</g>
<!-- Node4&#45;&gt;Node1 -->
<g id="edge3" class="edge">
<title>Node4&#45;&gt;Node1</title>
<path fill="none" stroke="#9a32cd" stroke-dasharray="5,2" d="M236.64,-73.62C213.79,-61.33 180.05,-43.17 156.77,-30.64"/>
<polygon fill="#9a32cd" stroke="#9a32cd" points="235.23,-76.84 245.7,-78.5 238.55,-70.67 235.23,-76.84"/>
<text text-anchor="middle" x="221.5" y="-52" font-family="Helvetica,sans-Serif" font-size="10.00"> _xml</text>
</g>
<!-- Node5 -->
<g id="node5" class="node">
<title>Node5</title>
<g id="a_node5"><a xlink:title=" ">
<polygon fill="white" stroke="#bfbfbf" points="239,-145.5 239,-164.5 284,-164.5 284,-145.5 239,-145.5"/>
<text text-anchor="middle" x="261.5" y="-152.5" font-family="Helvetica,sans-Serif" font-size="10.00">String</text>
</a>
</g>
</g>
<!-- Node5&#45;&gt;Node4 -->
<g id="edge4" class="edge">
<title>Node5&#45;&gt;Node4</title>
<path fill="none" stroke="#9a32cd" stroke-dasharray="5,2" d="M261.5,-135.04C261.5,-122.67 261.5,-107.12 261.5,-97.63"/>
<polygon fill="#9a32cd" stroke="#9a32cd" points="258,-135.23 261.5,-145.23 265,-135.23 258,-135.23"/>
<text text-anchor="middle" x="276" y="-119" font-family="Helvetica,sans-Serif" font-size="10.00"> NULL</text>
</g>
</g>
</svg>
