<?xml version="1.0" encoding="UTF-8" standalone="no"?>
<!DOCTYPE svg PUBLIC "-//W3C//DTD SVG 1.1//EN"
 "http://www.w3.org/Graphics/SVG/1.1/DTD/svg11.dtd">
<!-- Generated by graphviz version 2.43.0 (0)
 -->
<!-- Title: javolution.util.internal.collection.AtomicCollectionImpl.clear Pages: 1 -->
<svg width="431pt" height="88pt"
 viewBox="0.00 0.00 431.00 88.00" xmlns="http://www.w3.org/2000/svg" xmlns:xlink="http://www.w3.org/1999/xlink">
<g id="graph0" class="graph" transform="scale(1 1) rotate(0) translate(4 84)">
<title>javolution.util.internal.collection.AtomicCollectionImpl.clear</title>
<polygon fill="white" stroke="transparent" points="-4,4 -4,-84 427,-84 427,4 -4,4"/>
<!-- Node1 -->
<g id="node1" class="node">
<title>Node1</title>
<g id="a_node1"><a xlink:title=" ">
<polygon fill="#bfbfbf" stroke="black" points="0,-24.5 0,-54.5 178,-54.5 178,-24.5 0,-24.5"/>
<text text-anchor="start" x="8" y="-42.5" font-family="Helvetica,sans-Serif" font-size="10.00">javolution.util.internal.collection.</text>
<text text-anchor="middle" x="89" y="-31.5" font-family="Helvetica,sans-Serif" font-size="10.00">AtomicCollectionImpl.clear</text>
</a>
</g>
</g>
<!-- Node2 -->
<g id="node2" class="node">
<title>Node2</title>
<g id="a_node2"><a xlink:href="../../d3/d15/classjavolution_1_1util_1_1internal_1_1collection_1_1AtomicCollectionImpl.html#a601550e0737dd6b11b86be2d9877c82f" target="_top" xlink:title=" ">
<polygon fill="white" stroke="black" points="228,-49.5 228,-79.5 409,-79.5 409,-49.5 228,-49.5"/>
<text text-anchor="start" x="236" y="-67.5" font-family="Helvetica,sans-Serif" font-size="10.00">javolution.util.internal.collection.</text>
<text text-anchor="middle" x="318.5" y="-56.5" font-family="Helvetica,sans-Serif" font-size="10.00">AtomicCollectionImpl.cloneTarget</text>
</a>
</g>
</g>
<!-- Node1&#45;&gt;Node2 -->
<g id="edge1" class="edge">
<title>Node1&#45;&gt;Node2</title>
<path fill="none" stroke="midnightblue" d="M178.28,-49.2C191.22,-50.62 204.62,-52.1 217.77,-53.54"/>
<polygon fill="midnightblue" stroke="midnightblue" points="217.44,-57.03 227.77,-54.64 218.21,-50.07 217.44,-57.03"/>
</g>
<!-- Node3 -->
<g id="node3" class="node">
<title>Node3</title>
<g id="a_node3"><a xlink:href="../../d3/d15/classjavolution_1_1util_1_1internal_1_1collection_1_1AtomicCollectionImpl.html#aeb7c1191fea46f9623291a9ba2db3994" target="_top" xlink:title=" ">
<polygon fill="white" stroke="black" points="214,-0.5 214,-30.5 423,-30.5 423,-0.5 214,-0.5"/>
<text text-anchor="start" x="222" y="-18.5" font-family="Helvetica,sans-Serif" font-size="10.00">javolution.util.internal.collection.</text>
<text text-anchor="middle" x="318.5" y="-7.5" font-family="Helvetica,sans-Serif" font-size="10.00">AtomicCollectionImpl.updateInProgress</text>
</a>
</g>
</g>
<!-- Node1&#45;&gt;Node3 -->
<g id="edge2" class="edge">
<title>Node1&#45;&gt;Node3</title>
<path fill="none" stroke="midnightblue" d="M178.28,-30.19C186.63,-29.31 195.17,-28.4 203.72,-27.5"/>
<polygon fill="midnightblue" stroke="midnightblue" points="204.15,-30.98 213.73,-26.45 203.42,-24.02 204.15,-30.98"/>
</g>
</g>
</svg>
