<?xml version="1.0" encoding="UTF-8" standalone="no"?>
<!DOCTYPE svg PUBLIC "-//W3C//DTD SVG 1.1//EN"
 "http://www.w3.org/Graphics/SVG/1.1/DTD/svg11.dtd">
<!-- Generated by graphviz version 2.43.0 (0)
 -->
<!-- Title: javolution.util.internal.table.FastTableImpl&lt; E &gt;.IteratorImpl Pages: 1 -->
<svg width="218pt" height="117pt"
 viewBox="0.00 0.00 218.00 117.00" xmlns="http://www.w3.org/2000/svg" xmlns:xlink="http://www.w3.org/1999/xlink">
<g id="graph0" class="graph" transform="scale(1 1) rotate(0) translate(4 113)">
<title>javolution.util.internal.table.FastTableImpl&lt; E &gt;.IteratorImpl</title>
<polygon fill="white" stroke="transparent" points="-4,4 -4,-113 214,-113 214,4 -4,4"/>
<!-- Node1 -->
<g id="node1" class="node">
<title>Node1</title>
<g id="a_node1"><a xlink:title=" ">
<polygon fill="#bfbfbf" stroke="black" points="27.5,-0.5 27.5,-30.5 200.5,-30.5 200.5,-0.5 27.5,-0.5"/>
<text text-anchor="start" x="35.5" y="-18.5" font-family="Helvetica,sans-Serif" font-size="10.00">javolution.util.internal.table.</text>
<text text-anchor="middle" x="114" y="-7.5" font-family="Helvetica,sans-Serif" font-size="10.00">FastTableImpl&lt; E &gt;.IteratorImpl</text>
</a>
</g>
</g>
<!-- Node2 -->
<g id="node2" class="node">
<title>Node2</title>
<g id="a_node2"><a xlink:title=" ">
<polygon fill="white" stroke="#bfbfbf" points="0,-89.5 0,-108.5 130,-108.5 130,-89.5 0,-89.5"/>
<text text-anchor="middle" x="65" y="-96.5" font-family="Helvetica,sans-Serif" font-size="10.00">java::util::Iterator&lt; E &gt;</text>
</a>
</g>
</g>
<!-- Node2&#45;&gt;Node1 -->
<g id="edge1" class="edge">
<title>Node2&#45;&gt;Node1</title>
<path fill="none" stroke="midnightblue" d="M75.51,-80.52C84.47,-65.61 97.2,-44.45 105.52,-30.6"/>
<polygon fill="midnightblue" stroke="midnightblue" points="72.4,-78.9 70.24,-89.28 78.4,-82.51 72.4,-78.9"/>
</g>
<!-- Node3 -->
<g id="node3" class="node">
<title>Node3</title>
<g id="a_node3"><a xlink:title=" ">
<polygon fill="white" stroke="#bfbfbf" points="148.5,-89.5 148.5,-108.5 177.5,-108.5 177.5,-89.5 148.5,-89.5"/>
<text text-anchor="middle" x="163" y="-96.5" font-family="Helvetica,sans-Serif" font-size="10.00">int</text>
</a>
</g>
</g>
<!-- Node3&#45;&gt;Node1 -->
<g id="edge2" class="edge">
<title>Node3&#45;&gt;Node1</title>
<path fill="none" stroke="#9a32cd" stroke-dasharray="5,2" d="M152.49,-80.52C143.53,-65.61 130.8,-44.45 122.48,-30.6"/>
<polygon fill="#9a32cd" stroke="#9a32cd" points="149.6,-82.51 157.76,-89.28 155.6,-78.9 149.6,-82.51"/>
<text text-anchor="middle" x="177.5" y="-63" font-family="Helvetica,sans-Serif" font-size="10.00"> currentIndex</text>
<text text-anchor="middle" x="177.5" y="-52" font-family="Helvetica,sans-Serif" font-size="10.00">nextIndex</text>
</g>
</g>
</svg>
