<?xml version="1.0" encoding="UTF-8" standalone="no"?>
<!DOCTYPE svg PUBLIC "-//W3C//DTD SVG 1.1//EN"
 "http://www.w3.org/Graphics/SVG/1.1/DTD/svg11.dtd">
<!-- Generated by graphviz version 2.43.0 (0)
 -->
<!-- Title: javolution.util.internal.collection.SharedCollectionImpl&lt; E &gt; Pages: 1 -->
<!--zoomable 544 -->
<svg id="main" version="1.1" xmlns="http://www.w3.org/2000/svg" xmlns:xlink="http://www.w3.org/1999/xlink" xml:space="preserve" onload="init(evt)">
<style type="text/css"><![CDATA[
.edge:hover path { stroke: red; }
.edge:hover polygon { stroke: red; fill: red; }
]]></style>
<script type="text/javascript"><![CDATA[
var edges = document.getElementsByTagName('g');
if (edges && edges.length) {
  for (var i=0;i<edges.length;i++) {
    if (edges[i].id.substr(0,4)=='edge') {
      edges[i].setAttribute('class','edge');
    }
  }
}
]]></script>
        <defs>
                <circle id="rim" cx="0" cy="0" r="7"/>
                <circle id="rim2" cx="0" cy="0" r="3.5"/>
                <g id="zoomPlus">
                        <use xlink:href="#rim" fill="#404040">
                                <set attributeName="fill" to="#808080" begin="zoomplus.mouseover" end="zoomplus.mouseout"/>
                        </use>
                        <path d="M-4,0h8M0,-4v8" fill="none" stroke="white" stroke-width="1.5" pointer-events="none"/>
                </g>
                <g id="zoomMin">
                        <use xlink:href="#rim" fill="#404040">
                                <set attributeName="fill" to="#808080" begin="zoomminus.mouseover" end="zoomminus.mouseout"/>
                        </use>
                        <path d="M-4,0h8" fill="none" stroke="white" stroke-width="1.5" pointer-events="none"/>
                </g>
                <g id="dirArrow">
                        <path fill="none" stroke="white" stroke-width="1.5" d="M0,-3.0v7 M-2.5,-0.5L0,-3.0L2.5,-0.5"/>
                </g>
               <g id="resetDef">
                       <use xlink:href="#rim2" fill="#404040">
                               <set attributeName="fill" to="#808080" begin="reset.mouseover" end="reset.mouseout"/>
                       </use>
               </g>
        </defs>

<script type="text/javascript">
var viewWidth = 1061;
var viewHeight = 544;
var sectionId = 'dynsection-1';
</script>
<script xlink:href="../../svgpan.js"/>
<svg id="graph" class="graph">
<g id="viewport">
<title>javolution.util.internal.collection.SharedCollectionImpl&lt; E &gt;</title>
<polygon fill="white" stroke="transparent" points="-4,4 -4,-539.5 1057,-539.5 1057,4 -4,4"/>
<!-- Node1 -->
<g id="node1" class="node">
<title>Node1</title>
<g id="a_node1"><a xlink:title=" ">
<polygon fill="#bfbfbf" stroke="black" points="875,-359.5 875,-389.5 1053,-389.5 1053,-359.5 875,-359.5"/>
<text text-anchor="start" x="883" y="-377.5" font-family="Helvetica,sans-Serif" font-size="10.00">javolution.util.internal.collection.</text>
<text text-anchor="middle" x="964" y="-366.5" font-family="Helvetica,sans-Serif" font-size="10.00">SharedCollectionImpl&lt; E &gt;</text>
</a>
</g>
</g>
<!-- Node2 -->
<g id="node2" class="node">
<title>Node2</title>
<g id="a_node2"><a xlink:href="../../d1/d40/classjavolution_1_1util_1_1internal_1_1collection_1_1CollectionView.html" target="_top" xlink:title=" ">
<polygon fill="white" stroke="black" points="637.5,-137.5 637.5,-167.5 814.5,-167.5 814.5,-137.5 637.5,-137.5"/>
<text text-anchor="start" x="645.5" y="-155.5" font-family="Helvetica,sans-Serif" font-size="10.00">javolution::util::internal</text>
<text text-anchor="middle" x="726" y="-144.5" font-family="Helvetica,sans-Serif" font-size="10.00">::collection::CollectionView&lt; E &gt;</text>
</a>
</g>
</g>
<!-- Node2&#45;&gt;Node1 -->
<g id="edge1" class="edge">
<title>Node2&#45;&gt;Node1</title>
<path fill="none" stroke="midnightblue" d="M750.66,-174.75C798.63,-219.88 906.26,-321.12 946.98,-359.43"/>
<polygon fill="midnightblue" stroke="midnightblue" points="752.9,-172.06 743.22,-167.76 748.11,-177.16 752.9,-172.06"/>
</g>
<!-- Node3 -->
<g id="node3" class="node">
<title>Node3</title>
<g id="a_node3"><a xlink:href="../../dc/d19/classjavolution_1_1util_1_1FastCollection.html" target="_top" xlink:title=" ">
<polygon fill="white" stroke="black" points="326,-143 326,-162 516,-162 516,-143 326,-143"/>
<text text-anchor="middle" x="421" y="-150" font-family="Helvetica,sans-Serif" font-size="10.00">javolution::util::FastCollection&lt; E &gt;</text>
</a>
</g>
</g>
<!-- Node3&#45;&gt;Node2 -->
<g id="edge2" class="edge">
<title>Node3&#45;&gt;Node2</title>
<path fill="none" stroke="midnightblue" d="M526.3,-152.5C562.46,-152.5 602.61,-152.5 637.3,-152.5"/>
<polygon fill="midnightblue" stroke="midnightblue" points="526.21,-149 516.21,-152.5 526.21,-156 526.21,-149"/>
</g>
<!-- Node4 -->
<g id="node4" class="node">
<title>Node4</title>
<g id="a_node4"><a xlink:title=" ">
<polygon fill="white" stroke="#bfbfbf" points="31,-107 31,-126 174,-126 174,-107 31,-107"/>
<text text-anchor="middle" x="102.5" y="-114" font-family="Helvetica,sans-Serif" font-size="10.00">java::util::Collection&lt; E &gt;</text>
</a>
</g>
</g>
<!-- Node4&#45;&gt;Node3 -->
<g id="edge3" class="edge">
<title>Node4&#45;&gt;Node3</title>
<path fill="none" stroke="midnightblue" d="M184.19,-125.68C230.79,-130.98 289.31,-137.63 336.39,-142.99"/>
<polygon fill="midnightblue" stroke="midnightblue" points="184.47,-122.19 174.13,-124.53 183.68,-129.14 184.47,-122.19"/>
</g>
<!-- Node7 -->
<g id="node7" class="node">
<title>Node7</title>
<g id="a_node7"><a xlink:href="../../dd/d6c/interfacejavolution_1_1util_1_1service_1_1CollectionService.html" target="_top" xlink:title=" ">
<polygon fill="white" stroke="black" points="353,-81.5 353,-111.5 489,-111.5 489,-81.5 353,-81.5"/>
<text text-anchor="start" x="361" y="-99.5" font-family="Helvetica,sans-Serif" font-size="10.00">javolution::util::service</text>
<text text-anchor="middle" x="421" y="-88.5" font-family="Helvetica,sans-Serif" font-size="10.00">::CollectionService&lt; E &gt;</text>
</a>
</g>
</g>
<!-- Node4&#45;&gt;Node7 -->
<g id="edge7" class="edge">
<title>Node4&#45;&gt;Node7</title>
<path fill="none" stroke="midnightblue" d="M165.94,-105.42C184.27,-102.62 204.38,-99.99 223,-98.5 266.13,-95.05 314.74,-94.52 352.88,-94.87"/>
<polygon fill="midnightblue" stroke="midnightblue" points="165.3,-101.97 155.97,-106.98 166.39,-108.89 165.3,-101.97"/>
</g>
<!-- Node5 -->
<g id="node5" class="node">
<title>Node5</title>
<g id="a_node5"><a xlink:title=" ">
<polygon fill="white" stroke="#bfbfbf" points="65.5,-175 65.5,-194 139.5,-194 139.5,-175 65.5,-175"/>
<text text-anchor="middle" x="102.5" y="-182" font-family="Helvetica,sans-Serif" font-size="10.00">Serializable</text>
</a>
</g>
</g>
<!-- Node5&#45;&gt;Node3 -->
<g id="edge4" class="edge">
<title>Node5&#45;&gt;Node3</title>
<path fill="none" stroke="midnightblue" d="M149.79,-179.82C195.83,-175.17 267.78,-167.89 325.87,-162.02"/>
<polygon fill="midnightblue" stroke="midnightblue" points="149.4,-176.34 139.81,-180.83 150.11,-183.31 149.4,-176.34"/>
</g>
<!-- Node5&#45;&gt;Node7 -->
<g id="edge9" class="edge">
<title>Node5&#45;&gt;Node7</title>
<path fill="none" stroke="midnightblue" d="M147.48,-172.27C204.6,-156.39 304.28,-128.68 365.95,-111.53"/>
<polygon fill="midnightblue" stroke="midnightblue" points="146.37,-168.95 137.67,-175 148.24,-175.69 146.37,-168.95"/>
</g>
<!-- Node11 -->
<g id="node11" class="node">
<title>Node11</title>
<g id="a_node11"><a xlink:href="../../db/d38/classjavolution_1_1util_1_1internal_1_1collection_1_1ReadWriteLockImpl.html" target="_top" xlink:title=" ">
<polygon fill="white" stroke="black" points="637,-359.5 637,-389.5 815,-389.5 815,-359.5 637,-359.5"/>
<text text-anchor="start" x="645" y="-377.5" font-family="Helvetica,sans-Serif" font-size="10.00">javolution.util.internal.collection.</text>
<text text-anchor="middle" x="726" y="-366.5" font-family="Helvetica,sans-Serif" font-size="10.00">ReadWriteLockImpl</text>
</a>
</g>
</g>
<!-- Node5&#45;&gt;Node11 -->
<g id="edge15" class="edge">
<title>Node5&#45;&gt;Node11</title>
<path fill="none" stroke="midnightblue" d="M149.94,-181.55C227.32,-177.92 386.9,-175.97 516,-210.5 565.35,-223.7 577.98,-231.05 619,-261.5 658.53,-290.84 695.71,-335.98 713.7,-359.33"/>
<polygon fill="midnightblue" stroke="midnightblue" points="149.39,-178.07 139.58,-182.07 149.74,-185.06 149.39,-178.07"/>
</g>
<!-- Node15 -->
<g id="node15" class="node">
<title>Node15</title>
<g id="a_node15"><a xlink:href="../../d8/dd0/classjavolution_1_1util_1_1internal_1_1collection_1_1ReadWriteLockImpl_1_1WriteLock.html" target="_top" xlink:title=" ">
<polygon fill="white" stroke="black" points="332,-268.5 332,-298.5 510,-298.5 510,-268.5 332,-268.5"/>
<text text-anchor="start" x="340" y="-286.5" font-family="Helvetica,sans-Serif" font-size="10.00">javolution.util.internal.collection.</text>
<text text-anchor="middle" x="421" y="-275.5" font-family="Helvetica,sans-Serif" font-size="10.00">ReadWriteLockImpl.WriteLock</text>
</a>
</g>
</g>
<!-- Node5&#45;&gt;Node15 -->
<g id="edge21" class="edge">
<title>Node5&#45;&gt;Node15</title>
<path fill="none" stroke="midnightblue" d="M125.85,-200.01C148.21,-216.43 182.44,-244.12 205,-274.5 216.38,-289.82 206.92,-303.21 223,-313.5 254.82,-333.86 270.55,-318.43 308,-313.5 330.35,-310.56 354.58,-304.45 374.77,-298.51"/>
<polygon fill="midnightblue" stroke="midnightblue" points="127.79,-197.09 117.63,-194.09 123.7,-202.77 127.79,-197.09"/>
</g>
<!-- Node17 -->
<g id="node17" class="node">
<title>Node17</title>
<g id="a_node17"><a xlink:href="../../d4/d2b/classjavolution_1_1util_1_1internal_1_1collection_1_1ReadWriteLockImpl_1_1ReadLock.html" target="_top" xlink:title=" ">
<polygon fill="white" stroke="black" points="332,-219.5 332,-249.5 510,-249.5 510,-219.5 332,-219.5"/>
<text text-anchor="start" x="340" y="-237.5" font-family="Helvetica,sans-Serif" font-size="10.00">javolution.util.internal.collection.</text>
<text text-anchor="middle" x="421" y="-226.5" font-family="Helvetica,sans-Serif" font-size="10.00">ReadWriteLockImpl.ReadLock</text>
</a>
</g>
</g>
<!-- Node5&#45;&gt;Node17 -->
<g id="edge25" class="edge">
<title>Node5&#45;&gt;Node17</title>
<path fill="none" stroke="midnightblue" d="M149.83,-191.82C197.48,-199.35 272.85,-211.25 331.89,-220.58"/>
<polygon fill="midnightblue" stroke="midnightblue" points="150.23,-188.34 139.81,-190.24 149.14,-195.25 150.23,-188.34"/>
</g>
<!-- Node6 -->
<g id="node6" class="node">
<title>Node6</title>
<g id="a_node6"><a xlink:title=" ">
<polygon fill="white" stroke="#bfbfbf" points="56.5,-389 56.5,-408 148.5,-408 148.5,-389 56.5,-389"/>
<text text-anchor="middle" x="102.5" y="-396" font-family="Helvetica,sans-Serif" font-size="10.00">static final long</text>
</a>
</g>
</g>
<!-- Node6&#45;&gt;Node1 -->
<g id="edge27" class="edge">
<title>Node6&#45;&gt;Node1</title>
<path fill="none" stroke="#9a32cd" stroke-dasharray="5,2" d="M124.29,-414.08C162.06,-441.28 245.47,-496.47 326,-516.5 561.03,-574.97 847.67,-436.8 935.88,-389.6"/>
<polygon fill="#9a32cd" stroke="#9a32cd" points="126.26,-411.18 116.12,-408.11 122.13,-416.83 126.26,-411.18"/>
<text text-anchor="middle" x="576.5" y="-527.5" font-family="Helvetica,sans-Serif" font-size="10.00"> serialVersionUID</text>
</g>
<!-- Node6&#45;&gt;Node2 -->
<g id="edge12" class="edge">
<title>Node6&#45;&gt;Node2</title>
<path fill="none" stroke="#9a32cd" stroke-dasharray="5,2" d="M142.66,-410.69C187.13,-421.96 259.76,-432.24 308,-397.5 328.19,-382.96 307.22,-360.82 326,-344.5 390.88,-288.13 450.05,-363.62 516,-308.5 533.16,-294.16 519.44,-278.48 534,-261.5 573.65,-215.28 638.03,-184.34 680.94,-167.58"/>
<polygon fill="#9a32cd" stroke="#9a32cd" points="143.36,-407.26 132.8,-408.06 141.56,-414.02 143.36,-407.26"/>
<text text-anchor="middle" x="421" y="-347.5" font-family="Helvetica,sans-Serif" font-size="10.00"> serialVersionUID</text>
</g>
<!-- Node6&#45;&gt;Node3 -->
<g id="edge5" class="edge">
<title>Node6&#45;&gt;Node3</title>
<path fill="none" stroke="#9a32cd" stroke-dasharray="5,2" d="M127.4,-383.4C150.08,-368 183.78,-342.2 205,-312.5 217.76,-294.64 208.7,-283.15 223,-266.5 269.73,-212.09 349.22,-177.53 391.53,-162.02"/>
<polygon fill="#9a32cd" stroke="#9a32cd" points="125.4,-380.53 119,-388.97 129.27,-386.36 125.4,-380.53"/>
<text text-anchor="middle" x="265.5" y="-269.5" font-family="Helvetica,sans-Serif" font-size="10.00"> serialVersionUID</text>
</g>
<!-- Node6&#45;&gt;Node11 -->
<g id="edge18" class="edge">
<title>Node6&#45;&gt;Node11</title>
<path fill="none" stroke="#9a32cd" stroke-dasharray="5,2" d="M148.36,-410.47C170.65,-415.94 198.07,-421.98 223,-425.5 397.32,-450.1 448.91,-461.92 619,-416.5 644.44,-409.71 672.05,-398.64 692.72,-389.57"/>
<polygon fill="#9a32cd" stroke="#9a32cd" points="149.07,-407.04 138.51,-408.01 147.37,-413.83 149.07,-407.04"/>
<text text-anchor="middle" x="421" y="-449.5" font-family="Helvetica,sans-Serif" font-size="10.00"> serialVersionUID</text>
</g>
<!-- Node6&#45;&gt;Node15 -->
<g id="edge22" class="edge">
<title>Node6&#45;&gt;Node15</title>
<path fill="none" stroke="#9a32cd" stroke-dasharray="5,2" d="M158.94,-393.29C211.51,-387.33 285.68,-375.93 308,-357.5 324.29,-344.05 310.48,-327.84 326,-313.5 332.67,-307.34 340.61,-302.44 349,-298.55"/>
<polygon fill="#9a32cd" stroke="#9a32cd" points="158.29,-389.84 148.73,-394.41 159.05,-396.8 158.29,-389.84"/>
<text text-anchor="middle" x="265.5" y="-386.5" font-family="Helvetica,sans-Serif" font-size="10.00"> serialVersionUID</text>
</g>
<!-- Node6&#45;&gt;Node17 -->
<g id="edge26" class="edge">
<title>Node6&#45;&gt;Node17</title>
<path fill="none" stroke="#9a32cd" stroke-dasharray="5,2" d="M133.65,-384.66C175.25,-364.78 251.52,-325.41 308,-279.5 317.28,-271.96 315.8,-265.74 326,-259.5 332.34,-255.62 339.27,-252.34 346.42,-249.56"/>
<polygon fill="#9a32cd" stroke="#9a32cd" points="132.13,-381.51 124.58,-388.95 135.12,-387.84 132.13,-381.51"/>
<text text-anchor="middle" x="265.5" y="-336.5" font-family="Helvetica,sans-Serif" font-size="10.00"> serialVersionUID</text>
</g>
<!-- Node7&#45;&gt;Node2 -->
<g id="edge6" class="edge">
<title>Node7&#45;&gt;Node2</title>
<path fill="none" stroke="midnightblue" d="M499.35,-110.8C543.52,-118.96 598.85,-129.18 643.66,-137.47"/>
<polygon fill="midnightblue" stroke="midnightblue" points="499.72,-107.3 489.25,-108.93 498.44,-114.19 499.72,-107.3"/>
</g>
<!-- Node8 -->
<g id="node8" class="node">
<title>Node8</title>
<g id="a_node8"><a xlink:href="../../dd/ded/interfacejavolution_1_1util_1_1function_1_1Splittable.html" target="_top" xlink:title=" ">
<polygon fill="white" stroke="black" points="0,-0.5 0,-30.5 205,-30.5 205,-0.5 0,-0.5"/>
<text text-anchor="start" x="8" y="-18.5" font-family="Helvetica,sans-Serif" font-size="10.00">javolution::util::function</text>
<text text-anchor="middle" x="102.5" y="-7.5" font-family="Helvetica,sans-Serif" font-size="10.00">::Splittable&lt; CollectionService&lt; E &gt; &gt;</text>
</a>
</g>
</g>
<!-- Node8&#45;&gt;Node7 -->
<g id="edge8" class="edge">
<title>Node8&#45;&gt;Node7</title>
<path fill="none" stroke="midnightblue" d="M175,-32.98C185.07,-35.48 195.3,-38.04 205,-40.5 258.65,-54.09 319.71,-70.04 363.02,-81.44"/>
<polygon fill="midnightblue" stroke="midnightblue" points="175.54,-29.51 164.99,-30.51 173.86,-36.31 175.54,-29.51"/>
</g>
<!-- Node9 -->
<g id="node9" class="node">
<title>Node9</title>
<g id="a_node9"><a xlink:href="../../d5/d48/classCloneable.html" target="_top" xlink:title=" ">
<polygon fill="white" stroke="black" points="70,-50 70,-69 135,-69 135,-50 70,-50"/>
<text text-anchor="middle" x="102.5" y="-57" font-family="Helvetica,sans-Serif" font-size="10.00">Cloneable</text>
</a>
</g>
</g>
<!-- Node9&#45;&gt;Node7 -->
<g id="edge10" class="edge">
<title>Node9&#45;&gt;Node7</title>
<path fill="none" stroke="midnightblue" d="M145.04,-64.36C197.9,-70.54 289.91,-81.29 352.81,-88.65"/>
<polygon fill="midnightblue" stroke="midnightblue" points="145.34,-60.87 135,-63.18 144.53,-67.82 145.34,-60.87"/>
</g>
<!-- Node10 -->
<g id="node10" class="node">
<title>Node10</title>
<g id="a_node10"><a xlink:title=" ">
<polygon fill="white" stroke="#bfbfbf" points="356,-43 356,-62 486,-62 486,-43 356,-43"/>
<text text-anchor="middle" x="421" y="-50" font-family="Helvetica,sans-Serif" font-size="10.00">CollectionService&lt; E &gt;</text>
</a>
</g>
</g>
<!-- Node10&#45;&gt;Node2 -->
<g id="edge11" class="edge">
<title>Node10&#45;&gt;Node2</title>
<path fill="none" stroke="#9a32cd" stroke-dasharray="5,2" d="M483.73,-64.04C494.53,-66.33 505.63,-68.85 516,-71.5 562.44,-83.38 574.26,-86.29 619,-103.5 645.3,-113.61 674.29,-127.19 695.3,-137.49"/>
<polygon fill="#9a32cd" stroke="#9a32cd" points="484.43,-60.61 473.93,-62.01 483.01,-67.47 484.43,-60.61"/>
<text text-anchor="middle" x="576.5" y="-106.5" font-family="Helvetica,sans-Serif" font-size="10.00"> target</text>
</g>
<!-- Node11&#45;&gt;Node1 -->
<g id="edge13" class="edge">
<title>Node11&#45;&gt;Node1</title>
<path fill="none" stroke="#9a32cd" stroke-dasharray="5,2" d="M825.36,-374.5C841.79,-374.5 858.74,-374.5 874.89,-374.5"/>
<polygon fill="#9a32cd" stroke="#9a32cd" points="825.21,-371 815.21,-374.5 825.21,-378 825.21,-371"/>
<text text-anchor="middle" x="845" y="-377.5" font-family="Helvetica,sans-Serif" font-size="10.00"> lock</text>
</g>
<!-- Node12 -->
<g id="node12" class="node">
<title>Node12</title>
<g id="a_node12"><a xlink:title=" ">
<polygon fill="white" stroke="#bfbfbf" points="376,-403 376,-422 466,-422 466,-403 376,-403"/>
<text text-anchor="middle" x="421" y="-410" font-family="Helvetica,sans-Serif" font-size="10.00">ReadWriteLock</text>
</a>
</g>
</g>
<!-- Node12&#45;&gt;Node11 -->
<g id="edge14" class="edge">
<title>Node12&#45;&gt;Node11</title>
<path fill="none" stroke="midnightblue" d="M476.03,-410.87C515.75,-409.13 570.95,-405.61 619,-398.5 634.31,-396.24 650.68,-392.96 665.87,-389.55"/>
<polygon fill="midnightblue" stroke="midnightblue" points="475.87,-407.37 466.02,-411.28 476.16,-414.37 475.87,-407.37"/>
</g>
<!-- Node13 -->
<g id="node13" class="node">
<title>Node13</title>
<g id="a_node13"><a xlink:title=" ">
<polygon fill="white" stroke="#bfbfbf" points="406.5,-365 406.5,-384 435.5,-384 435.5,-365 406.5,-365"/>
<text text-anchor="middle" x="421" y="-372" font-family="Helvetica,sans-Serif" font-size="10.00">int</text>
</a>
</g>
</g>
<!-- Node13&#45;&gt;Node11 -->
<g id="edge16" class="edge">
<title>Node13&#45;&gt;Node11</title>
<path fill="none" stroke="#9a32cd" stroke-dasharray="5,2" d="M445.84,-374.5C486.55,-374.5 571.42,-374.5 636.96,-374.5"/>
<polygon fill="#9a32cd" stroke="#9a32cd" points="445.81,-371 435.81,-374.5 445.81,-378 445.81,-371"/>
<text text-anchor="middle" x="576.5" y="-388.5" font-family="Helvetica,sans-Serif" font-size="10.00"> givenLocks</text>
<text text-anchor="middle" x="576.5" y="-377.5" font-family="Helvetica,sans-Serif" font-size="10.00">waitingWriters</text>
</g>
<!-- Node14 -->
<g id="node14" class="node">
<title>Node14</title>
<g id="a_node14"><a xlink:title=" ">
<polygon fill="white" stroke="#bfbfbf" points="372.5,-488 372.5,-507 469.5,-507 469.5,-488 372.5,-488"/>
<text text-anchor="middle" x="421" y="-495" font-family="Helvetica,sans-Serif" font-size="10.00">transient Thread</text>
</a>
</g>
</g>
<!-- Node14&#45;&gt;Node11 -->
<g id="edge17" class="edge">
<title>Node14&#45;&gt;Node11</title>
<path fill="none" stroke="#9a32cd" stroke-dasharray="5,2" d="M479.63,-499.32C520.34,-498.47 575.21,-492.91 619,-472.5 660.34,-453.23 696.48,-411.83 713.91,-389.5"/>
<polygon fill="#9a32cd" stroke="#9a32cd" points="479.56,-495.82 469.61,-499.44 479.65,-502.82 479.56,-495.82"/>
<text text-anchor="middle" x="576.5" y="-497.5" font-family="Helvetica,sans-Serif" font-size="10.00"> writerThread</text>
</g>
<!-- Node15&#45;&gt;Node11 -->
<g id="edge19" class="edge">
<title>Node15&#45;&gt;Node11</title>
<path fill="none" stroke="#9a32cd" stroke-dasharray="5,2" d="M481.89,-301.49C538.32,-318.44 621.9,-343.54 674.89,-359.45"/>
<polygon fill="#9a32cd" stroke="#9a32cd" points="482.62,-298.05 472.03,-298.53 480.6,-304.76 482.62,-298.05"/>
<text text-anchor="middle" x="576.5" y="-344.5" font-family="Helvetica,sans-Serif" font-size="10.00"> writeLock</text>
</g>
<!-- Node16 -->
<g id="node16" class="node">
<title>Node16</title>
<g id="a_node16"><a xlink:title=" ">
<polygon fill="white" stroke="#bfbfbf" points="83,-284 83,-303 122,-303 122,-284 83,-284"/>
<text text-anchor="middle" x="102.5" y="-291" font-family="Helvetica,sans-Serif" font-size="10.00">Lock</text>
</a>
</g>
</g>
<!-- Node16&#45;&gt;Node15 -->
<g id="edge20" class="edge">
<title>Node16&#45;&gt;Node15</title>
<path fill="none" stroke="midnightblue" d="M126.87,-308.3C166.26,-331.19 247.49,-369.49 308,-338.5 320.19,-332.26 314.92,-321.54 326,-313.5 334.46,-307.36 344.22,-302.45 354.19,-298.52"/>
<polygon fill="midnightblue" stroke="midnightblue" points="128.61,-305.26 118.23,-303.13 125.02,-311.27 128.61,-305.26"/>
</g>
<!-- Node16&#45;&gt;Node17 -->
<g id="edge24" class="edge">
<title>Node16&#45;&gt;Node17</title>
<path fill="none" stroke="midnightblue" d="M131.15,-280.46C154.93,-269.89 190.45,-255.63 223,-248.5 258.17,-240.8 297.63,-237.06 331.94,-235.33"/>
<polygon fill="midnightblue" stroke="midnightblue" points="129.69,-277.28 122.03,-284.59 132.58,-283.66 129.69,-277.28"/>
</g>
<!-- Node17&#45;&gt;Node11 -->
<g id="edge23" class="edge">
<title>Node17&#45;&gt;Node11</title>
<path fill="none" stroke="#9a32cd" stroke-dasharray="5,2" d="M493.11,-252.31C500.88,-254.59 508.64,-257 516,-259.5 562.97,-275.47 575.37,-278.89 619,-302.5 650.7,-319.65 684.72,-343.93 705.44,-359.44"/>
<polygon fill="#9a32cd" stroke="#9a32cd" points="493.87,-248.89 483.29,-249.51 491.95,-255.62 493.87,-248.89"/>
<text text-anchor="middle" x="576.5" y="-305.5" font-family="Helvetica,sans-Serif" font-size="10.00"> readLock</text>
</g>
</g>
</svg>
        <g id="navigator" transform="translate(0 0)" fill="#404254">
                <rect fill="#f2f5e9" fill-opacity="0.5" stroke="#606060" stroke-width=".5" x="0" y="0" width="60" height="60"/>
                <use id="zoomplus" xlink:href="#zoomPlus" x="17" y="9" onmousedown="handleZoom(evt,'in')"/>
                <use id="zoomminus" xlink:href="#zoomMin" x="42" y="9" onmousedown="handleZoom(evt,'out')"/>
                <use id="reset" xlink:href="#resetDef" x="30" y="36" onmousedown="handleReset()"/>
                <g id="arrowUp" xlink:href="#dirArrow" transform="translate(30 24)" onmousedown="handlePan(0,-1)">
                  <use xlink:href="#rim" fill="#404040">
                        <set attributeName="fill" to="#808080" begin="arrowUp.mouseover" end="arrowUp.mouseout"/>
                  </use>
                  <path fill="none" stroke="white" stroke-width="1.5" d="M0,-3.0v7 M-2.5,-0.5L0,-3.0L2.5,-0.5"/>
                </g>
                <g id="arrowRight" xlink:href="#dirArrow" transform="rotate(90) translate(36 -43)" onmousedown="handlePan(1,0)">
                  <use xlink:href="#rim" fill="#404040">
                        <set attributeName="fill" to="#808080" begin="arrowRight.mouseover" end="arrowRight.mouseout"/>
                  </use>
                  <path fill="none" stroke="white" stroke-width="1.5" d="M0,-3.0v7 M-2.5,-0.5L0,-3.0L2.5,-0.5"/>
                </g>
                <g id="arrowDown" xlink:href="#dirArrow" transform="rotate(180) translate(-30 -48)" onmousedown="handlePan(0,1)">
                  <use xlink:href="#rim" fill="#404040">
                        <set attributeName="fill" to="#808080" begin="arrowDown.mouseover" end="arrowDown.mouseout"/>
                  </use>
                  <path fill="none" stroke="white" stroke-width="1.5" d="M0,-3.0v7 M-2.5,-0.5L0,-3.0L2.5,-0.5"/>
                </g>
                <g id="arrowLeft" xlink:href="#dirArrow" transform="rotate(270) translate(-36 17)" onmousedown="handlePan(-1,0)">
                  <use xlink:href="#rim" fill="#404040">
                        <set attributeName="fill" to="#808080" begin="arrowLeft.mouseover" end="arrowLeft.mouseout"/>
                  </use>
                  <path fill="none" stroke="white" stroke-width="1.5" d="M0,-3.0v7 M-2.5,-0.5L0,-3.0L2.5,-0.5"/>
                </g>
        </g>
        <svg viewBox="0 0 15 15" width="100%" height="30px" preserveAspectRatio="xMaxYMin meet">
         <g id="arrow_out" transform="scale(0.3 0.3)">
          <a xlink:href="classjavolution_1_1util_1_1internal_1_1collection_1_1SharedCollectionImpl__coll__graph_org.svg" target="_base">
           <rect id="button" ry="5" rx="5" y="6" x="6" height="38" width="38"
                fill="#f2f5e9" fill-opacity="0.5" stroke="#606060" stroke-width="1.0"/>
           <path id="arrow"
             d="M 11.500037,31.436501 C 11.940474,20.09759 22.043105,11.32322 32.158766,21.979434 L 37.068811,17.246167 C 37.068811,17.246167 37.088388,32 37.088388,32 L 22.160133,31.978069 C 22.160133,31.978069 26.997745,27.140456 26.997745,27.140456 C 18.528582,18.264221 13.291696,25.230495 11.500037,31.436501 z"
             style="fill:#404040;"/>
          </a>
         </g>
        </svg>
</svg>
