<?xml version="1.0" encoding="UTF-8" standalone="no"?>
<!DOCTYPE svg PUBLIC "-//W3C//DTD SVG 1.1//EN"
 "http://www.w3.org/Graphics/SVG/1.1/DTD/svg11.dtd">
<!-- Generated by graphviz version 2.43.0 (0)
 -->
<!-- Title: javolution.util.internal.comparator.LexicalComparatorImpl Pages: 1 -->
<svg width="659pt" height="116pt"
 viewBox="0.00 0.00 659.00 115.50" xmlns="http://www.w3.org/2000/svg" xmlns:xlink="http://www.w3.org/1999/xlink">
<g id="graph0" class="graph" transform="scale(1 1) rotate(0) translate(4 111.5)">
<title>javolution.util.internal.comparator.LexicalComparatorImpl</title>
<polygon fill="white" stroke="transparent" points="-4,4 -4,-111.5 655,-111.5 655,4 -4,4"/>
<!-- Node1 -->
<g id="node1" class="node">
<title>Node1</title>
<g id="a_node1"><a xlink:title=" ">
<polygon fill="#bfbfbf" stroke="black" points="465,-33 465,-63 651,-63 651,-33 465,-33"/>
<text text-anchor="start" x="473" y="-51" font-family="Helvetica,sans-Serif" font-size="10.00">javolution.util.internal.comparator.</text>
<text text-anchor="middle" x="558" y="-40" font-family="Helvetica,sans-Serif" font-size="10.00">LexicalComparatorImpl</text>
</a>
</g>
</g>
<!-- Node2 -->
<g id="node2" class="node">
<title>Node2</title>
<g id="a_node2"><a xlink:href="../../de/d72/interfacejavolution_1_1util_1_1function_1_1Equality.html" target="_top" xlink:title=" ">
<polygon fill="white" stroke="black" points="189,-77 189,-107 344,-107 344,-77 189,-77"/>
<text text-anchor="start" x="197" y="-95" font-family="Helvetica,sans-Serif" font-size="10.00">javolution::util::function</text>
<text text-anchor="middle" x="266.5" y="-84" font-family="Helvetica,sans-Serif" font-size="10.00">::Equality&lt; CharSequence &gt;</text>
</a>
</g>
</g>
<!-- Node2&#45;&gt;Node1 -->
<g id="edge1" class="edge">
<title>Node2&#45;&gt;Node1</title>
<path fill="none" stroke="midnightblue" d="M354.47,-78.78C389.32,-73.48 429.52,-67.38 464.86,-62"/>
<polygon fill="midnightblue" stroke="midnightblue" points="353.68,-75.36 344.32,-80.32 354.73,-82.28 353.68,-75.36"/>
</g>
<!-- Node3 -->
<g id="node3" class="node">
<title>Node3</title>
<g id="a_node3"><a xlink:title=" ">
<polygon fill="white" stroke="#bfbfbf" points="0,-82.5 0,-101.5 152,-101.5 152,-82.5 0,-82.5"/>
<text text-anchor="middle" x="76" y="-89.5" font-family="Helvetica,sans-Serif" font-size="10.00">java::util::Comparator&lt; T &gt;</text>
</a>
</g>
</g>
<!-- Node3&#45;&gt;Node2 -->
<g id="edge2" class="edge">
<title>Node3&#45;&gt;Node2</title>
<path fill="none" stroke="midnightblue" d="M162.06,-92C170.99,-92 180.04,-92 188.87,-92"/>
<polygon fill="midnightblue" stroke="midnightblue" points="162.04,-88.5 152.04,-92 162.04,-95.5 162.04,-88.5"/>
</g>
<!-- Node4 -->
<g id="node4" class="node">
<title>Node4</title>
<g id="a_node4"><a xlink:title=" ">
<polygon fill="white" stroke="#bfbfbf" points="229.5,-38.5 229.5,-57.5 303.5,-57.5 303.5,-38.5 229.5,-38.5"/>
<text text-anchor="middle" x="266.5" y="-45.5" font-family="Helvetica,sans-Serif" font-size="10.00">Serializable</text>
</a>
</g>
</g>
<!-- Node4&#45;&gt;Node1 -->
<g id="edge3" class="edge">
<title>Node4&#45;&gt;Node1</title>
<path fill="none" stroke="midnightblue" d="M313.7,-48C354.22,-48 414.35,-48 464.7,-48"/>
<polygon fill="midnightblue" stroke="midnightblue" points="313.58,-44.5 303.58,-48 313.58,-51.5 313.58,-44.5"/>
</g>
<!-- Node5 -->
<g id="node5" class="node">
<title>Node5</title>
<g id="a_node5"><a xlink:title=" ">
<polygon fill="white" stroke="#bfbfbf" points="220.5,-0.5 220.5,-19.5 312.5,-19.5 312.5,-0.5 220.5,-0.5"/>
<text text-anchor="middle" x="266.5" y="-7.5" font-family="Helvetica,sans-Serif" font-size="10.00">static final long</text>
</a>
</g>
</g>
<!-- Node5&#45;&gt;Node1 -->
<g id="edge4" class="edge">
<title>Node5&#45;&gt;Node1</title>
<path fill="none" stroke="#9a32cd" stroke-dasharray="5,2" d="M322.67,-16.95C358.18,-21.46 405.33,-27.49 447,-33 452.83,-33.77 458.83,-34.57 464.88,-35.38"/>
<polygon fill="#9a32cd" stroke="#9a32cd" points="322.87,-13.45 312.51,-15.67 321.99,-20.39 322.87,-13.45"/>
<text text-anchor="middle" x="404.5" y="-36" font-family="Helvetica,sans-Serif" font-size="10.00"> serialVersionUID</text>
</g>
</g>
</svg>
