<?xml version="1.0" encoding="UTF-8" standalone="no"?>
<!DOCTYPE svg PUBLIC "-//W3C//DTD SVG 1.1//EN"
 "http://www.w3.org/Graphics/SVG/1.1/DTD/svg11.dtd">
<!-- Generated by graphviz version 2.43.0 (0)
 -->
<!-- Title: javolution.util.internal.collection.FilteredCollectionImpl.IteratorImpl.next Pages: 1 -->
<svg width="647pt" height="39pt"
 viewBox="0.00 0.00 647.00 39.00" xmlns="http://www.w3.org/2000/svg" xmlns:xlink="http://www.w3.org/1999/xlink">
<g id="graph0" class="graph" transform="scale(1 1) rotate(0) translate(4 35)">
<title>javolution.util.internal.collection.FilteredCollectionImpl.IteratorImpl.next</title>
<polygon fill="white" stroke="transparent" points="-4,4 -4,-35 643,-35 643,4 -4,4"/>
<!-- Node1 -->
<g id="node1" class="node">
<title>Node1</title>
<g id="a_node1"><a xlink:title=" ">
<polygon fill="#bfbfbf" stroke="black" points="0,-0.5 0,-30.5 209,-30.5 209,-0.5 0,-0.5"/>
<text text-anchor="start" x="8" y="-18.5" font-family="Helvetica,sans-Serif" font-size="10.00">javolution.util.internal.collection.</text>
<text text-anchor="middle" x="104.5" y="-7.5" font-family="Helvetica,sans-Serif" font-size="10.00">FilteredCollectionImpl.IteratorImpl.next</text>
</a>
</g>
</g>
<!-- Node2 -->
<g id="node2" class="node">
<title>Node2</title>
<g id="a_node2"><a xlink:href="../../da/d33/classjavolution_1_1util_1_1internal_1_1collection_1_1FilteredCollectionImpl_1_1IteratorImpl.html#a3a42dbae9e46ecc36b73d732405bc2e8" target="_top" xlink:title=" ">
<polygon fill="white" stroke="black" points="245,-0.5 245,-30.5 473,-30.5 473,-0.5 245,-0.5"/>
<text text-anchor="start" x="253" y="-18.5" font-family="Helvetica,sans-Serif" font-size="10.00">javolution.util.internal.collection.</text>
<text text-anchor="middle" x="359" y="-7.5" font-family="Helvetica,sans-Serif" font-size="10.00">FilteredCollectionImpl.IteratorImpl.hasNext</text>
</a>
</g>
</g>
<!-- Node1&#45;&gt;Node2 -->
<g id="edge1" class="edge">
<title>Node1&#45;&gt;Node2</title>
<path fill="none" stroke="midnightblue" d="M209.29,-15.5C217.61,-15.5 226.06,-15.5 234.5,-15.5"/>
<polygon fill="midnightblue" stroke="midnightblue" points="234.77,-19 244.77,-15.5 234.77,-12 234.77,-19"/>
</g>
<!-- Node3 -->
<g id="node3" class="node">
<title>Node3</title>
<g id="a_node3"><a xlink:href="../../df/d3e/interfacejavolution_1_1util_1_1function_1_1Predicate.html#a20c32899feed3fcfc5339823606ec094" target="_top" xlink:title=" ">
<polygon fill="white" stroke="black" points="509,-0.5 509,-30.5 639,-30.5 639,-0.5 509,-0.5"/>
<text text-anchor="start" x="517" y="-18.5" font-family="Helvetica,sans-Serif" font-size="10.00">javolution.util.function.</text>
<text text-anchor="middle" x="574" y="-7.5" font-family="Helvetica,sans-Serif" font-size="10.00">Predicate.test</text>
</a>
</g>
</g>
<!-- Node2&#45;&gt;Node3 -->
<g id="edge2" class="edge">
<title>Node2&#45;&gt;Node3</title>
<path fill="none" stroke="midnightblue" d="M473.05,-15.5C481.76,-15.5 490.4,-15.5 498.76,-15.5"/>
<polygon fill="midnightblue" stroke="midnightblue" points="498.79,-19 508.79,-15.5 498.79,-12 498.79,-19"/>
</g>
</g>
</svg>
