<?xml version="1.0" encoding="UTF-8" standalone="no"?>
<!DOCTYPE svg PUBLIC "-//W3C//DTD SVG 1.1//EN"
 "http://www.w3.org/Graphics/SVG/1.1/DTD/svg11.dtd">
<!-- Generated by graphviz version 2.43.0 (0)
 -->
<!-- Title: javolution.util.FastMap.unmodifiable Pages: 1 -->
<svg width="384pt" height="50pt"
 viewBox="0.00 0.00 384.00 50.00" xmlns="http://www.w3.org/2000/svg" xmlns:xlink="http://www.w3.org/1999/xlink">
<g id="graph0" class="graph" transform="scale(1 1) rotate(0) translate(4 46)">
<title>javolution.util.FastMap.unmodifiable</title>
<polygon fill="white" stroke="transparent" points="-4,4 -4,-46 380,-46 380,4 -4,4"/>
<!-- Node1 -->
<g id="node1" class="node">
<title>Node1</title>
<g id="a_node1"><a xlink:title=" ">
<polygon fill="#bfbfbf" stroke="black" points="182,-11.5 182,-30.5 376,-30.5 376,-11.5 182,-11.5"/>
<text text-anchor="middle" x="279" y="-18.5" font-family="Helvetica,sans-Serif" font-size="10.00">javolution.util.FastMap.unmodifiable</text>
</a>
</g>
</g>
<!-- Node2 -->
<g id="node2" class="node">
<title>Node2</title>
<g id="a_node2"><a xlink:href="../../dd/d46/classjavolution_1_1util_1_1FastMap.html#a59948d9abdc5efcb4b4418f710101435" target="_top" xlink:title=" ">
<polygon fill="white" stroke="black" points="0,-0.5 0,-41.5 146,-41.5 146,-0.5 0,-0.5"/>
<text text-anchor="start" x="8" y="-29.5" font-family="Helvetica,sans-Serif" font-size="10.00">javolution.util.FastMap</text>
<text text-anchor="start" x="8" y="-18.5" font-family="Helvetica,sans-Serif" font-size="10.00">&lt; Object, javolution::</text>
<text text-anchor="middle" x="73" y="-7.5" font-family="Helvetica,sans-Serif" font-size="10.00">util::Index &gt;::toImmutable</text>
</a>
</g>
</g>
<!-- Node1&#45;&gt;Node2 -->
<g id="edge1" class="edge">
<title>Node1&#45;&gt;Node2</title>
<path fill="none" stroke="midnightblue" d="M171.76,-21C163.06,-21 154.41,-21 146.05,-21"/>
<polygon fill="midnightblue" stroke="midnightblue" points="171.97,-24.5 181.97,-21 171.97,-17.5 171.97,-24.5"/>
</g>
</g>
</svg>
