<?xml version="1.0" encoding="UTF-8" standalone="no"?>
<!DOCTYPE svg PUBLIC "-//W3C//DTD SVG 1.1//EN"
 "http://www.w3.org/Graphics/SVG/1.1/DTD/svg11.dtd">
<!-- Generated by graphviz version 2.43.0 (0)
 -->
<!-- Title: javolution.xml.stream.XMLStreamConstants Pages: 1 -->
<svg width="198pt" height="216pt"
 viewBox="0.00 0.00 198.00 216.00" xmlns="http://www.w3.org/2000/svg" xmlns:xlink="http://www.w3.org/1999/xlink">
<g id="graph0" class="graph" transform="scale(1 1) rotate(0) translate(4 212)">
<title>javolution.xml.stream.XMLStreamConstants</title>
<polygon fill="white" stroke="transparent" points="-4,4 -4,-212 194,-212 194,4 -4,4"/>
<!-- Node1 -->
<g id="node1" class="node">
<title>Node1</title>
<g id="a_node1"><a xlink:title=" ">
<polygon fill="#bfbfbf" stroke="black" points="0,-0.5 0,-30.5 184,-30.5 184,-0.5 0,-0.5"/>
<text text-anchor="start" x="8" y="-18.5" font-family="Helvetica,sans-Serif" font-size="10.00">javolution.xml.stream.XMLStream</text>
<text text-anchor="middle" x="92" y="-7.5" font-family="Helvetica,sans-Serif" font-size="10.00">Constants</text>
</a>
</g>
</g>
<!-- Node2 -->
<g id="node2" class="node">
<title>Node2</title>
<g id="a_node2"><a xlink:title=" ">
<polygon fill="white" stroke="#bfbfbf" points="77.5,-188.5 77.5,-207.5 106.5,-207.5 106.5,-188.5 77.5,-188.5"/>
<text text-anchor="middle" x="92" y="-195.5" font-family="Helvetica,sans-Serif" font-size="10.00">int</text>
</a>
</g>
</g>
<!-- Node2&#45;&gt;Node1 -->
<g id="edge1" class="edge">
<title>Node2&#45;&gt;Node1</title>
<path fill="none" stroke="#9a32cd" stroke-dasharray="5,2" d="M92,-178.09C92,-141.7 92,-62.69 92,-30.54"/>
<polygon fill="#9a32cd" stroke="#9a32cd" points="88.5,-178.29 92,-188.29 95.5,-178.29 88.5,-178.29"/>
<text text-anchor="middle" x="141" y="-162" font-family="Helvetica,sans-Serif" font-size="10.00"> DTD</text>
<text text-anchor="middle" x="141" y="-151" font-family="Helvetica,sans-Serif" font-size="10.00">START_DOCUMENT</text>
<text text-anchor="middle" x="141" y="-140" font-family="Helvetica,sans-Serif" font-size="10.00">SPACE</text>
<text text-anchor="middle" x="141" y="-129" font-family="Helvetica,sans-Serif" font-size="10.00">CHARACTERS</text>
<text text-anchor="middle" x="141" y="-118" font-family="Helvetica,sans-Serif" font-size="10.00">START_ELEMENT</text>
<text text-anchor="middle" x="141" y="-107" font-family="Helvetica,sans-Serif" font-size="10.00">NAMESPACE</text>
<text text-anchor="middle" x="141" y="-96" font-family="Helvetica,sans-Serif" font-size="10.00">CDATA</text>
<text text-anchor="middle" x="141" y="-85" font-family="Helvetica,sans-Serif" font-size="10.00">END_DOCUMENT</text>
<text text-anchor="middle" x="141" y="-74" font-family="Helvetica,sans-Serif" font-size="10.00">ATTRIBUTE</text>
<text text-anchor="middle" x="141" y="-63" font-family="Helvetica,sans-Serif" font-size="10.00">ENTITY_REFERENCE</text>
<text text-anchor="middle" x="141" y="-52" font-family="Helvetica,sans-Serif" font-size="10.00">...</text>
</g>
</g>
</svg>
