<?xml version="1.0" encoding="UTF-8" standalone="no"?>
<!DOCTYPE svg PUBLIC "-//W3C//DTD SVG 1.1//EN"
 "http://www.w3.org/Graphics/SVG/1.1/DTD/svg11.dtd">
<!-- Generated by graphviz version 2.43.0 (0)
 -->
<!-- Title: javolution.xml.internal.stream.EntitiesImpl.setEntitiesMapping Pages: 1 -->
<svg width="414pt" height="66pt"
 viewBox="0.00 0.00 414.00 66.00" xmlns="http://www.w3.org/2000/svg" xmlns:xlink="http://www.w3.org/1999/xlink">
<g id="graph0" class="graph" transform="scale(1 1) rotate(0) translate(4 62)">
<title>javolution.xml.internal.stream.EntitiesImpl.setEntitiesMapping</title>
<polygon fill="white" stroke="transparent" points="-4,4 -4,-62 410,-62 410,4 -4,4"/>
<!-- Node1 -->
<g id="node1" class="node">
<title>Node1</title>
<g id="a_node1"><a xlink:title=" ">
<polygon fill="#bfbfbf" stroke="black" points="0,-14 0,-44 172,-44 172,-14 0,-14"/>
<text text-anchor="start" x="8" y="-32" font-family="Helvetica,sans-Serif" font-size="10.00">javolution.xml.internal.stream.</text>
<text text-anchor="middle" x="86" y="-21" font-family="Helvetica,sans-Serif" font-size="10.00">EntitiesImpl.setEntitiesMapping</text>
</a>
</g>
</g>
<!-- Node2 -->
<g id="node2" class="node">
<title>Node2</title>
<g id="a_node2"><a xlink:href="../../da/dd1/classjavolution_1_1util_1_1FastTable.html#a03ff90e0de2aaf9a21e9a352c7891fe8" target="_top" xlink:title=" ">
<polygon fill="white" stroke="black" points="224,-38.5 224,-57.5 390,-57.5 390,-38.5 224,-38.5"/>
<text text-anchor="middle" x="307" y="-45.5" font-family="Helvetica,sans-Serif" font-size="10.00">javolution.util.FastTable.addAll</text>
</a>
</g>
</g>
<!-- Node1&#45;&gt;Node2 -->
<g id="edge1" class="edge">
<title>Node1&#45;&gt;Node2</title>
<path fill="none" stroke="midnightblue" d="M172.3,-36.4C185.79,-37.57 199.8,-38.79 213.45,-39.97"/>
<polygon fill="midnightblue" stroke="midnightblue" points="213.54,-43.49 223.81,-40.87 214.15,-36.52 213.54,-43.49"/>
</g>
<!-- Node3 -->
<g id="node3" class="node">
<title>Node3</title>
<g id="a_node3"><a xlink:href="../../dc/d19/classjavolution_1_1util_1_1FastCollection.html#a6e1331852926addee796ce08108e5629" target="_top" xlink:title=" ">
<polygon fill="white" stroke="black" points="208,-0.5 208,-19.5 406,-19.5 406,-0.5 208,-0.5"/>
<text text-anchor="middle" x="307" y="-7.5" font-family="Helvetica,sans-Serif" font-size="10.00">javolution.util.FastCollection.mapped</text>
</a>
</g>
</g>
<!-- Node1&#45;&gt;Node3 -->
<g id="edge2" class="edge">
<title>Node1&#45;&gt;Node3</title>
<path fill="none" stroke="midnightblue" d="M172.3,-21.6C180.67,-20.87 189.24,-20.13 197.8,-19.39"/>
<polygon fill="midnightblue" stroke="midnightblue" points="198.18,-22.87 207.84,-18.52 197.57,-15.89 198.18,-22.87"/>
</g>
</g>
</svg>
