<?xml version="1.0" encoding="UTF-8" standalone="no"?>
<!DOCTYPE svg PUBLIC "-//W3C//DTD SVG 1.1//EN"
 "http://www.w3.org/Graphics/SVG/1.1/DTD/svg11.dtd">
<!-- Generated by graphviz version 2.43.0 (0)
 -->
<!-- Title: javolution.util.FastSortedMap&lt; K, V &gt; Pages: 1 -->
<!--zoomable 267 -->
<svg id="main" version="1.1" xmlns="http://www.w3.org/2000/svg" xmlns:xlink="http://www.w3.org/1999/xlink" xml:space="preserve" onload="init(evt)">
<style type="text/css"><![CDATA[
.edge:hover path { stroke: red; }
.edge:hover polygon { stroke: red; fill: red; }
]]></style>
<script type="text/javascript"><![CDATA[
var edges = document.getElementsByTagName('g');
if (edges && edges.length) {
  for (var i=0;i<edges.length;i++) {
    if (edges[i].id.substr(0,4)=='edge') {
      edges[i].setAttribute('class','edge');
    }
  }
}
]]></script>
        <defs>
                <circle id="rim" cx="0" cy="0" r="7"/>
                <circle id="rim2" cx="0" cy="0" r="3.5"/>
                <g id="zoomPlus">
                        <use xlink:href="#rim" fill="#404040">
                                <set attributeName="fill" to="#808080" begin="zoomplus.mouseover" end="zoomplus.mouseout"/>
                        </use>
                        <path d="M-4,0h8M0,-4v8" fill="none" stroke="white" stroke-width="1.5" pointer-events="none"/>
                </g>
                <g id="zoomMin">
                        <use xlink:href="#rim" fill="#404040">
                                <set attributeName="fill" to="#808080" begin="zoomminus.mouseover" end="zoomminus.mouseout"/>
                        </use>
                        <path d="M-4,0h8" fill="none" stroke="white" stroke-width="1.5" pointer-events="none"/>
                </g>
                <g id="dirArrow">
                        <path fill="none" stroke="white" stroke-width="1.5" d="M0,-3.0v7 M-2.5,-0.5L0,-3.0L2.5,-0.5"/>
                </g>
               <g id="resetDef">
                       <use xlink:href="#rim2" fill="#404040">
                               <set attributeName="fill" to="#808080" begin="reset.mouseover" end="reset.mouseout"/>
                       </use>
               </g>
        </defs>

<script type="text/javascript">
var viewWidth = 578;
var viewHeight = 267;
var sectionId = 'dynsection-1';
</script>
<script xlink:href="../../svgpan.js"/>
<svg id="graph" class="graph">
<g id="viewport">
<title>javolution.util.FastSortedMap&lt; K, V &gt;</title>
<polygon fill="white" stroke="transparent" points="-4,4 -4,-262.5 574,-262.5 574,4 -4,4"/>
<!-- Node1 -->
<g id="node1" class="node">
<title>Node1</title>
<g id="a_node1"><a xlink:title=" ">
<polygon fill="#bfbfbf" stroke="black" points="432,-52.5 432,-82.5 570,-82.5 570,-52.5 432,-52.5"/>
<text text-anchor="start" x="440" y="-70.5" font-family="Helvetica,sans-Serif" font-size="10.00">javolution.util.FastSorted</text>
<text text-anchor="middle" x="501" y="-59.5" font-family="Helvetica,sans-Serif" font-size="10.00">Map&lt; K, V &gt;</text>
</a>
</g>
</g>
<!-- Node2 -->
<g id="node2" class="node">
<title>Node2</title>
<g id="a_node2"><a xlink:href="../../dd/d46/classjavolution_1_1util_1_1FastMap.html" target="_top" xlink:title=" ">
<polygon fill="white" stroke="black" points="261,-132.5 261,-162.5 395,-162.5 395,-132.5 261,-132.5"/>
<text text-anchor="start" x="269" y="-150.5" font-family="Helvetica,sans-Serif" font-size="10.00">javolution::util::FastMap</text>
<text text-anchor="middle" x="328" y="-139.5" font-family="Helvetica,sans-Serif" font-size="10.00">&lt; K, V &gt;</text>
</a>
</g>
</g>
<!-- Node2&#45;&gt;Node1 -->
<g id="edge1" class="edge">
<title>Node2&#45;&gt;Node1</title>
<path fill="none" stroke="midnightblue" d="M370.49,-128.09C400.39,-114.1 440.15,-95.5 467.69,-82.62"/>
<polygon fill="midnightblue" stroke="midnightblue" points="368.74,-125.04 361.16,-132.45 371.7,-131.39 368.74,-125.04"/>
</g>
<!-- Node3 -->
<g id="node3" class="node">
<title>Node3</title>
<g id="a_node3"><a xlink:title=" ">
<polygon fill="white" stroke="#bfbfbf" points="6,-239 6,-258 134,-258 134,-239 6,-239"/>
<text text-anchor="middle" x="70" y="-246" font-family="Helvetica,sans-Serif" font-size="10.00">java::util::Map&lt; K, V &gt;</text>
</a>
</g>
</g>
<!-- Node3&#45;&gt;Node2 -->
<g id="edge2" class="edge">
<title>Node3&#45;&gt;Node2</title>
<path fill="none" stroke="midnightblue" d="M117.76,-236.26C125.23,-234.12 132.85,-231.83 140,-229.5 186.54,-214.32 198.26,-210.35 243,-190.5 262.17,-182 283.17,-171.25 299.38,-162.62"/>
<polygon fill="midnightblue" stroke="midnightblue" points="116.76,-232.91 108.07,-238.97 118.65,-239.65 116.76,-232.91"/>
</g>
<!-- Node4 -->
<g id="node4" class="node">
<title>Node4</title>
<g id="a_node4"><a xlink:title=" ">
<polygon fill="white" stroke="#bfbfbf" points="0.5,-189.5 0.5,-219.5 139.5,-219.5 139.5,-189.5 0.5,-189.5"/>
<text text-anchor="start" x="8.5" y="-207.5" font-family="Helvetica,sans-Serif" font-size="10.00">java::util::concurrent</text>
<text text-anchor="middle" x="70" y="-196.5" font-family="Helvetica,sans-Serif" font-size="10.00">::ConcurrentMap&lt; K, V &gt;</text>
</a>
</g>
</g>
<!-- Node4&#45;&gt;Node2 -->
<g id="edge3" class="edge">
<title>Node4&#45;&gt;Node2</title>
<path fill="none" stroke="midnightblue" d="M149.49,-187.99C178.86,-181.72 212.49,-174.41 243,-167.5 250.02,-165.91 257.36,-164.21 264.65,-162.51"/>
<polygon fill="midnightblue" stroke="midnightblue" points="148.76,-184.57 139.71,-190.08 150.22,-191.42 148.76,-184.57"/>
</g>
<!-- Node5 -->
<g id="node5" class="node">
<title>Node5</title>
<g id="a_node5"><a xlink:title=" ">
<polygon fill="white" stroke="#bfbfbf" points="33,-151 33,-170 107,-170 107,-151 33,-151"/>
<text text-anchor="middle" x="70" y="-158" font-family="Helvetica,sans-Serif" font-size="10.00">Serializable</text>
</a>
</g>
</g>
<!-- Node5&#45;&gt;Node2 -->
<g id="edge4" class="edge">
<title>Node5&#45;&gt;Node2</title>
<path fill="none" stroke="midnightblue" d="M117.17,-158.16C157.26,-156.12 215.81,-153.15 260.87,-150.86"/>
<polygon fill="midnightblue" stroke="midnightblue" points="116.95,-154.66 107.14,-158.66 117.3,-161.65 116.95,-154.66"/>
</g>
<!-- Node6 -->
<g id="node6" class="node">
<title>Node6</title>
<g id="a_node6"><a xlink:title=" ">
<polygon fill="white" stroke="#bfbfbf" points="0,-113 0,-132 140,-132 140,-113 0,-113"/>
<text text-anchor="middle" x="70" y="-120" font-family="Helvetica,sans-Serif" font-size="10.00">final MapService&lt; K, V &gt;</text>
</a>
</g>
</g>
<!-- Node6&#45;&gt;Node2 -->
<g id="edge5" class="edge">
<title>Node6&#45;&gt;Node2</title>
<path fill="none" stroke="#9a32cd" stroke-dasharray="5,2" d="M150.26,-128.13C179.44,-130.42 212.75,-133.29 243,-136.5 248.7,-137.11 254.62,-137.78 260.55,-138.49"/>
<polygon fill="#9a32cd" stroke="#9a32cd" points="150.36,-124.63 140.12,-127.35 149.82,-131.61 150.36,-124.63"/>
<text text-anchor="middle" x="200.5" y="-139.5" font-family="Helvetica,sans-Serif" font-size="10.00"> service</text>
</g>
<!-- Node7 -->
<g id="node7" class="node">
<title>Node7</title>
<g id="a_node7"><a xlink:title=" ">
<polygon fill="white" stroke="#bfbfbf" points="24,-67 24,-86 116,-86 116,-67 24,-67"/>
<text text-anchor="middle" x="70" y="-74" font-family="Helvetica,sans-Serif" font-size="10.00">static final long</text>
</a>
</g>
</g>
<!-- Node7&#45;&gt;Node1 -->
<g id="edge8" class="edge">
<title>Node7&#45;&gt;Node1</title>
<path fill="none" stroke="#9a32cd" stroke-dasharray="5,2" d="M126.22,-75.34C204.32,-73.7 346.95,-70.71 431.63,-68.93"/>
<polygon fill="#9a32cd" stroke="#9a32cd" points="126.02,-71.84 116.1,-75.55 126.17,-78.84 126.02,-71.84"/>
<text text-anchor="middle" x="328" y="-74.5" font-family="Helvetica,sans-Serif" font-size="10.00"> serialVersionUID</text>
</g>
<!-- Node7&#45;&gt;Node2 -->
<g id="edge6" class="edge">
<title>Node7&#45;&gt;Node2</title>
<path fill="none" stroke="#9a32cd" stroke-dasharray="5,2" d="M126.31,-85.88C160.34,-92.27 204.63,-101.71 243,-113.5 259.99,-118.72 278.35,-125.96 293.56,-132.42"/>
<polygon fill="#9a32cd" stroke="#9a32cd" points="126.56,-82.37 116.09,-84 125.29,-89.25 126.56,-82.37"/>
<text text-anchor="middle" x="200.5" y="-116.5" font-family="Helvetica,sans-Serif" font-size="10.00"> serialVersionUID</text>
</g>
<!-- Node8 -->
<g id="node8" class="node">
<title>Node8</title>
<g id="a_node8"><a xlink:title=" ">
<polygon fill="white" stroke="#bfbfbf" points="269,-0.5 269,-30.5 387,-30.5 387,-0.5 269,-0.5"/>
<text text-anchor="start" x="277" y="-18.5" font-family="Helvetica,sans-Serif" font-size="10.00">java::util::SortedMap</text>
<text text-anchor="middle" x="328" y="-7.5" font-family="Helvetica,sans-Serif" font-size="10.00">&lt; K, V &gt;</text>
</a>
</g>
</g>
<!-- Node8&#45;&gt;Node1 -->
<g id="edge7" class="edge">
<title>Node8&#45;&gt;Node1</title>
<path fill="none" stroke="midnightblue" d="M388.25,-33.52C408.61,-39.71 431.17,-46.57 450.65,-52.49"/>
<polygon fill="midnightblue" stroke="midnightblue" points="389.05,-30.1 378.46,-30.54 387.01,-36.8 389.05,-30.1"/>
</g>
</g>
</svg>
        <g id="navigator" transform="translate(0 0)" fill="#404254">
                <rect fill="#f2f5e9" fill-opacity="0.5" stroke="#606060" stroke-width=".5" x="0" y="0" width="60" height="60"/>
                <use id="zoomplus" xlink:href="#zoomPlus" x="17" y="9" onmousedown="handleZoom(evt,'in')"/>
                <use id="zoomminus" xlink:href="#zoomMin" x="42" y="9" onmousedown="handleZoom(evt,'out')"/>
                <use id="reset" xlink:href="#resetDef" x="30" y="36" onmousedown="handleReset()"/>
                <g id="arrowUp" xlink:href="#dirArrow" transform="translate(30 24)" onmousedown="handlePan(0,-1)">
                  <use xlink:href="#rim" fill="#404040">
                        <set attributeName="fill" to="#808080" begin="arrowUp.mouseover" end="arrowUp.mouseout"/>
                  </use>
                  <path fill="none" stroke="white" stroke-width="1.5" d="M0,-3.0v7 M-2.5,-0.5L0,-3.0L2.5,-0.5"/>
                </g>
                <g id="arrowRight" xlink:href="#dirArrow" transform="rotate(90) translate(36 -43)" onmousedown="handlePan(1,0)">
                  <use xlink:href="#rim" fill="#404040">
                        <set attributeName="fill" to="#808080" begin="arrowRight.mouseover" end="arrowRight.mouseout"/>
                  </use>
                  <path fill="none" stroke="white" stroke-width="1.5" d="M0,-3.0v7 M-2.5,-0.5L0,-3.0L2.5,-0.5"/>
                </g>
                <g id="arrowDown" xlink:href="#dirArrow" transform="rotate(180) translate(-30 -48)" onmousedown="handlePan(0,1)">
                  <use xlink:href="#rim" fill="#404040">
                        <set attributeName="fill" to="#808080" begin="arrowDown.mouseover" end="arrowDown.mouseout"/>
                  </use>
                  <path fill="none" stroke="white" stroke-width="1.5" d="M0,-3.0v7 M-2.5,-0.5L0,-3.0L2.5,-0.5"/>
                </g>
                <g id="arrowLeft" xlink:href="#dirArrow" transform="rotate(270) translate(-36 17)" onmousedown="handlePan(-1,0)">
                  <use xlink:href="#rim" fill="#404040">
                        <set attributeName="fill" to="#808080" begin="arrowLeft.mouseover" end="arrowLeft.mouseout"/>
                  </use>
                  <path fill="none" stroke="white" stroke-width="1.5" d="M0,-3.0v7 M-2.5,-0.5L0,-3.0L2.5,-0.5"/>
                </g>
        </g>
        <svg viewBox="0 0 15 15" width="100%" height="30px" preserveAspectRatio="xMaxYMin meet">
         <g id="arrow_out" transform="scale(0.3 0.3)">
          <a xlink:href="classjavolution_1_1util_1_1FastSortedMap__coll__graph_org.svg" target="_base">
           <rect id="button" ry="5" rx="5" y="6" x="6" height="38" width="38"
                fill="#f2f5e9" fill-opacity="0.5" stroke="#606060" stroke-width="1.0"/>
           <path id="arrow"
             d="M 11.500037,31.436501 C 11.940474,20.09759 22.043105,11.32322 32.158766,21.979434 L 37.068811,17.246167 C 37.068811,17.246167 37.088388,32 37.088388,32 L 22.160133,31.978069 C 22.160133,31.978069 26.997745,27.140456 26.997745,27.140456 C 18.528582,18.264221 13.291696,25.230495 11.500037,31.436501 z"
             style="fill:#404040;"/>
          </a>
         </g>
        </svg>
</svg>
