<?xml version="1.0" encoding="UTF-8" standalone="no"?>
<!DOCTYPE svg PUBLIC "-//W3C//DTD SVG 1.1//EN"
 "http://www.w3.org/Graphics/SVG/1.1/DTD/svg11.dtd">
<!-- Generated by graphviz version 2.43.0 (0)
 -->
<!-- Title: javolution.util.internal.map.sorted.SharedSortedMapImpl.target Pages: 1 -->
<svg width="466pt" height="186pt"
 viewBox="0.00 0.00 466.00 186.00" xmlns="http://www.w3.org/2000/svg" xmlns:xlink="http://www.w3.org/1999/xlink">
<g id="graph0" class="graph" transform="scale(1 1) rotate(0) translate(4 182)">
<title>javolution.util.internal.map.sorted.SharedSortedMapImpl.target</title>
<polygon fill="white" stroke="transparent" points="-4,4 -4,-182 462,-182 462,4 -4,4"/>
<!-- Node1 -->
<g id="node1" class="node">
<title>Node1</title>
<g id="a_node1"><a xlink:title=" ">
<polygon fill="#bfbfbf" stroke="black" points="272,-73.5 272,-103.5 458,-103.5 458,-73.5 272,-73.5"/>
<text text-anchor="start" x="280" y="-91.5" font-family="Helvetica,sans-Serif" font-size="10.00">javolution.util.internal.map.sorted.</text>
<text text-anchor="middle" x="365" y="-80.5" font-family="Helvetica,sans-Serif" font-size="10.00">SharedSortedMapImpl.target</text>
</a>
</g>
</g>
<!-- Node2 -->
<g id="node2" class="node">
<title>Node2</title>
<g id="a_node2"><a xlink:href="../../d2/dcd/classjavolution_1_1util_1_1internal_1_1map_1_1sorted_1_1SharedSortedMapImpl.html#a21ae8eb75b2339b8ef04807a81631f0e" target="_top" xlink:title=" ">
<polygon fill="white" stroke="black" points="25,-147.5 25,-177.5 211,-177.5 211,-147.5 25,-147.5"/>
<text text-anchor="start" x="33" y="-165.5" font-family="Helvetica,sans-Serif" font-size="10.00">javolution.util.internal.map.sorted.</text>
<text text-anchor="middle" x="118" y="-154.5" font-family="Helvetica,sans-Serif" font-size="10.00">SharedSortedMapImpl.comparator</text>
</a>
</g>
</g>
<!-- Node1&#45;&gt;Node2 -->
<g id="edge1" class="edge">
<title>Node1&#45;&gt;Node2</title>
<path fill="none" stroke="midnightblue" d="M320.69,-107.54C296.19,-117.77 264.78,-129.99 236,-138.5 224.86,-141.79 213,-144.79 201.26,-147.47"/>
<polygon fill="midnightblue" stroke="midnightblue" points="322.2,-110.7 330.05,-103.59 319.48,-104.25 322.2,-110.7"/>
</g>
<!-- Node3 -->
<g id="node3" class="node">
<title>Node3</title>
<g id="a_node3"><a xlink:href="../../d2/dcd/classjavolution_1_1util_1_1internal_1_1map_1_1sorted_1_1SharedSortedMapImpl.html#a016d36e8398445a26fe84b74e4cca92d" target="_top" xlink:title=" ">
<polygon fill="white" stroke="black" points="25,-98.5 25,-128.5 211,-128.5 211,-98.5 25,-98.5"/>
<text text-anchor="start" x="33" y="-116.5" font-family="Helvetica,sans-Serif" font-size="10.00">javolution.util.internal.map.sorted.</text>
<text text-anchor="middle" x="118" y="-105.5" font-family="Helvetica,sans-Serif" font-size="10.00">SharedSortedMapImpl.firstKey</text>
</a>
</g>
</g>
<!-- Node1&#45;&gt;Node3 -->
<g id="edge2" class="edge">
<title>Node1&#45;&gt;Node3</title>
<path fill="none" stroke="midnightblue" d="M261.43,-98.97C244.76,-100.67 227.59,-102.42 211.19,-104.09"/>
<polygon fill="midnightblue" stroke="midnightblue" points="262.13,-102.41 271.73,-97.92 261.42,-95.45 262.13,-102.41"/>
</g>
<!-- Node4 -->
<g id="node4" class="node">
<title>Node4</title>
<g id="a_node4"><a xlink:href="../../d2/dcd/classjavolution_1_1util_1_1internal_1_1map_1_1sorted_1_1SharedSortedMapImpl.html#a17ffb9322a96738703ef43562e8aeaa4" target="_top" xlink:title=" ">
<polygon fill="white" stroke="black" points="25,-49.5 25,-79.5 211,-79.5 211,-49.5 25,-49.5"/>
<text text-anchor="start" x="33" y="-67.5" font-family="Helvetica,sans-Serif" font-size="10.00">javolution.util.internal.map.sorted.</text>
<text text-anchor="middle" x="118" y="-56.5" font-family="Helvetica,sans-Serif" font-size="10.00">SharedSortedMapImpl.lastKey</text>
</a>
</g>
</g>
<!-- Node1&#45;&gt;Node4 -->
<g id="edge3" class="edge">
<title>Node1&#45;&gt;Node4</title>
<path fill="none" stroke="midnightblue" d="M261.43,-78.45C244.76,-76.82 227.59,-75.14 211.19,-73.53"/>
<polygon fill="midnightblue" stroke="midnightblue" points="261.43,-81.97 271.73,-79.46 262.11,-75 261.43,-81.97"/>
</g>
<!-- Node5 -->
<g id="node5" class="node">
<title>Node5</title>
<g id="a_node5"><a xlink:href="../../d2/dcd/classjavolution_1_1util_1_1internal_1_1map_1_1sorted_1_1SharedSortedMapImpl.html#a3af772603218686a691e6497ac45db79" target="_top" xlink:title=" ">
<polygon fill="white" stroke="black" points="0,-0.5 0,-30.5 236,-30.5 236,-0.5 0,-0.5"/>
<text text-anchor="start" x="8" y="-18.5" font-family="Helvetica,sans-Serif" font-size="10.00">javolution.util.internal.map.sorted.</text>
<text text-anchor="middle" x="118" y="-7.5" font-family="Helvetica,sans-Serif" font-size="10.00">SharedSortedMapImpl.SharedSortedMapImpl</text>
</a>
</g>
</g>
<!-- Node1&#45;&gt;Node5 -->
<g id="edge4" class="edge">
<title>Node1&#45;&gt;Node5</title>
<path fill="none" stroke="midnightblue" d="M318.77,-69.66C294.52,-60.04 263.95,-48.68 236,-40.5 223.54,-36.85 210.19,-33.5 197.13,-30.51"/>
<polygon fill="midnightblue" stroke="midnightblue" points="317.49,-72.92 328.07,-73.39 320.09,-66.42 317.49,-72.92"/>
</g>
</g>
</svg>
