<?xml version="1.0" encoding="UTF-8" standalone="no"?>
<!DOCTYPE svg PUBLIC "-//W3C//DTD SVG 1.1//EN"
 "http://www.w3.org/Graphics/SVG/1.1/DTD/svg11.dtd">
<!-- Generated by graphviz version 2.43.0 (0)
 -->
<!-- Title: javolution.util.internal.set.sorted.SubSortedSetImpl.comparator Pages: 1 -->
<svg width="417pt" height="186pt"
 viewBox="0.00 0.00 417.00 186.00" xmlns="http://www.w3.org/2000/svg" xmlns:xlink="http://www.w3.org/1999/xlink">
<g id="graph0" class="graph" transform="scale(1 1) rotate(0) translate(4 182)">
<title>javolution.util.internal.set.sorted.SubSortedSetImpl.comparator</title>
<polygon fill="white" stroke="transparent" points="-4,4 -4,-182 413,-182 413,4 -4,4"/>
<!-- Node1 -->
<g id="node1" class="node">
<title>Node1</title>
<g id="a_node1"><a xlink:title=" ">
<polygon fill="#bfbfbf" stroke="black" points="230,-73.5 230,-103.5 409,-103.5 409,-73.5 230,-73.5"/>
<text text-anchor="start" x="238" y="-91.5" font-family="Helvetica,sans-Serif" font-size="10.00">javolution.util.internal.set.sorted.</text>
<text text-anchor="middle" x="319.5" y="-80.5" font-family="Helvetica,sans-Serif" font-size="10.00">SubSortedSetImpl.comparator</text>
</a>
</g>
</g>
<!-- Node2 -->
<g id="node2" class="node">
<title>Node2</title>
<g id="a_node2"><a xlink:href="../../d6/de2/classjavolution_1_1util_1_1internal_1_1set_1_1sorted_1_1SubSortedSetImpl.html#a5cfb7c219d64f5a334b8c28615f52978" target="_top" xlink:title=" ">
<polygon fill="white" stroke="black" points="7.5,-147.5 7.5,-177.5 186.5,-177.5 186.5,-147.5 7.5,-147.5"/>
<text text-anchor="start" x="15.5" y="-165.5" font-family="Helvetica,sans-Serif" font-size="10.00">javolution.util.internal.set.sorted.</text>
<text text-anchor="middle" x="97" y="-154.5" font-family="Helvetica,sans-Serif" font-size="10.00">SubSortedSetImpl.add</text>
</a>
</g>
</g>
<!-- Node1&#45;&gt;Node2 -->
<g id="edge1" class="edge">
<title>Node1&#45;&gt;Node2</title>
<path fill="none" stroke="midnightblue" d="M275.21,-107.59C251.51,-117.6 221.46,-129.6 194,-138.5 184.11,-141.7 173.54,-144.74 163.15,-147.49"/>
<polygon fill="midnightblue" stroke="midnightblue" points="276.79,-110.72 284.61,-103.57 274.04,-104.28 276.79,-110.72"/>
</g>
<!-- Node3 -->
<g id="node3" class="node">
<title>Node3</title>
<g id="a_node3"><a xlink:href="../../d6/de2/classjavolution_1_1util_1_1internal_1_1set_1_1sorted_1_1SubSortedSetImpl.html#a0f2862035def53b2b10d41ea7b928043" target="_top" xlink:title=" ">
<polygon fill="white" stroke="black" points="7.5,-98.5 7.5,-128.5 186.5,-128.5 186.5,-98.5 7.5,-98.5"/>
<text text-anchor="start" x="15.5" y="-116.5" font-family="Helvetica,sans-Serif" font-size="10.00">javolution.util.internal.set.sorted.</text>
<text text-anchor="middle" x="97" y="-105.5" font-family="Helvetica,sans-Serif" font-size="10.00">SubSortedSetImpl.contains</text>
</a>
</g>
</g>
<!-- Node1&#45;&gt;Node3 -->
<g id="edge2" class="edge">
<title>Node1&#45;&gt;Node3</title>
<path fill="none" stroke="midnightblue" d="M219.69,-99.7C208.65,-100.96 197.45,-102.22 186.55,-103.46"/>
<polygon fill="midnightblue" stroke="midnightblue" points="220.23,-103.16 229.77,-98.56 219.44,-96.21 220.23,-103.16"/>
</g>
<!-- Node4 -->
<g id="node4" class="node">
<title>Node4</title>
<g id="a_node4"><a xlink:href="../../d6/de2/classjavolution_1_1util_1_1internal_1_1set_1_1sorted_1_1SubSortedSetImpl.html#a07e8d11b6667ee91df8c576352d4783f" target="_top" xlink:title=" ">
<polygon fill="white" stroke="black" points="7.5,-49.5 7.5,-79.5 186.5,-79.5 186.5,-49.5 7.5,-49.5"/>
<text text-anchor="start" x="15.5" y="-67.5" font-family="Helvetica,sans-Serif" font-size="10.00">javolution.util.internal.set.sorted.</text>
<text text-anchor="middle" x="97" y="-56.5" font-family="Helvetica,sans-Serif" font-size="10.00">SubSortedSetImpl.remove</text>
</a>
</g>
</g>
<!-- Node1&#45;&gt;Node4 -->
<g id="edge3" class="edge">
<title>Node1&#45;&gt;Node4</title>
<path fill="none" stroke="midnightblue" d="M219.69,-77.74C208.65,-76.54 197.45,-75.32 186.55,-74.14"/>
<polygon fill="midnightblue" stroke="midnightblue" points="219.45,-81.24 229.77,-78.84 220.2,-74.28 219.45,-81.24"/>
</g>
<!-- Node5 -->
<g id="node5" class="node">
<title>Node5</title>
<g id="a_node5"><a xlink:href="../../d6/de2/classjavolution_1_1util_1_1internal_1_1set_1_1sorted_1_1SubSortedSetImpl.html#ae8d831877033f53a8893d4d7908a7c76" target="_top" xlink:title=" ">
<polygon fill="white" stroke="black" points="0,-0.5 0,-30.5 194,-30.5 194,-0.5 0,-0.5"/>
<text text-anchor="start" x="8" y="-18.5" font-family="Helvetica,sans-Serif" font-size="10.00">javolution.util.internal.set.sorted.</text>
<text text-anchor="middle" x="97" y="-7.5" font-family="Helvetica,sans-Serif" font-size="10.00">SubSortedSetImpl.SubSortedSetImpl</text>
</a>
</g>
</g>
<!-- Node1&#45;&gt;Node5 -->
<g id="edge4" class="edge">
<title>Node1&#45;&gt;Node5</title>
<path fill="none" stroke="midnightblue" d="M273.32,-69.66C249.88,-60.25 220.65,-49.08 194,-40.5 183.1,-36.99 171.38,-33.62 160.01,-30.55"/>
<polygon fill="midnightblue" stroke="midnightblue" points="272.07,-72.93 282.66,-73.44 274.7,-66.44 272.07,-72.93"/>
</g>
</g>
</svg>
