<?xml version="1.0" encoding="UTF-8" standalone="no"?>
<!DOCTYPE svg PUBLIC "-//W3C//DTD SVG 1.1//EN"
 "http://www.w3.org/Graphics/SVG/1.1/DTD/svg11.dtd">
<!-- Generated by graphviz version 2.43.0 (0)
 -->
<!-- Title: javolution.xml.stream.XMLStreamException.toString Pages: 1 -->
<svg width="416pt" height="88pt"
 viewBox="0.00 0.00 416.00 88.00" xmlns="http://www.w3.org/2000/svg" xmlns:xlink="http://www.w3.org/1999/xlink">
<g id="graph0" class="graph" transform="scale(1 1) rotate(0) translate(4 84)">
<title>javolution.xml.stream.XMLStreamException.toString</title>
<polygon fill="white" stroke="transparent" points="-4,4 -4,-84 412,-84 412,4 -4,4"/>
<!-- Node1 -->
<g id="node1" class="node">
<title>Node1</title>
<g id="a_node1"><a xlink:title=" ">
<polygon fill="#bfbfbf" stroke="black" points="0,-24.5 0,-54.5 184,-54.5 184,-24.5 0,-24.5"/>
<text text-anchor="start" x="8" y="-42.5" font-family="Helvetica,sans-Serif" font-size="10.00">javolution.xml.stream.XMLStream</text>
<text text-anchor="middle" x="92" y="-31.5" font-family="Helvetica,sans-Serif" font-size="10.00">Exception.toString</text>
</a>
</g>
</g>
<!-- Node2 -->
<g id="node2" class="node">
<title>Node2</title>
<g id="a_node2"><a xlink:href="../../db/d2f/interfacejavolution_1_1xml_1_1stream_1_1Location.html#a03d038c467b5d80c613c0c1e478d8d58" target="_top" xlink:title=" ">
<polygon fill="white" stroke="black" points="220,-49.5 220,-79.5 408,-79.5 408,-49.5 220,-49.5"/>
<text text-anchor="start" x="228" y="-67.5" font-family="Helvetica,sans-Serif" font-size="10.00">javolution.xml.stream.Location.get</text>
<text text-anchor="middle" x="314" y="-56.5" font-family="Helvetica,sans-Serif" font-size="10.00">ColumnNumber</text>
</a>
</g>
</g>
<!-- Node1&#45;&gt;Node2 -->
<g id="edge1" class="edge">
<title>Node1&#45;&gt;Node2</title>
<path fill="none" stroke="midnightblue" d="M184.07,-49.85C192.57,-50.81 201.22,-51.8 209.81,-52.77"/>
<polygon fill="midnightblue" stroke="midnightblue" points="209.54,-56.27 219.87,-53.92 210.33,-49.31 209.54,-56.27"/>
</g>
<!-- Node3 -->
<g id="node3" class="node">
<title>Node3</title>
<g id="a_node3"><a xlink:href="../../db/d2f/interfacejavolution_1_1xml_1_1stream_1_1Location.html#a6d2939c49cab95b2d477a0bbaba32fad" target="_top" xlink:title=" ">
<polygon fill="white" stroke="black" points="220,-0.5 220,-30.5 408,-30.5 408,-0.5 220,-0.5"/>
<text text-anchor="start" x="228" y="-18.5" font-family="Helvetica,sans-Serif" font-size="10.00">javolution.xml.stream.Location.get</text>
<text text-anchor="middle" x="314" y="-7.5" font-family="Helvetica,sans-Serif" font-size="10.00">LineNumber</text>
</a>
</g>
</g>
<!-- Node1&#45;&gt;Node3 -->
<g id="edge2" class="edge">
<title>Node1&#45;&gt;Node3</title>
<path fill="none" stroke="midnightblue" d="M184.07,-29.57C192.57,-28.64 201.22,-27.69 209.81,-26.76"/>
<polygon fill="midnightblue" stroke="midnightblue" points="210.31,-30.22 219.87,-25.66 209.55,-23.27 210.31,-30.22"/>
</g>
</g>
</svg>
