<?xml version="1.0" encoding="UTF-8" standalone="no"?>
<!DOCTYPE svg PUBLIC "-//W3C//DTD SVG 1.1//EN"
 "http://www.w3.org/Graphics/SVG/1.1/DTD/svg11.dtd">
<!-- Generated by graphviz version 2.43.0 (0)
 -->
<!-- Title: javolution.util.internal.table.SharedTableImpl.removeLast Pages: 1 -->
<svg width="684pt" height="137pt"
 viewBox="0.00 0.00 684.00 137.00" xmlns="http://www.w3.org/2000/svg" xmlns:xlink="http://www.w3.org/1999/xlink">
<g id="graph0" class="graph" transform="scale(1 1) rotate(0) translate(4 133)">
<title>javolution.util.internal.table.SharedTableImpl.removeLast</title>
<polygon fill="white" stroke="transparent" points="-4,4 -4,-133 680,-133 680,4 -4,4"/>
<!-- Node1 -->
<g id="node1" class="node">
<title>Node1</title>
<g id="a_node1"><a xlink:title=" ">
<polygon fill="#bfbfbf" stroke="black" points="0,-49.5 0,-79.5 158,-79.5 158,-49.5 0,-49.5"/>
<text text-anchor="start" x="8" y="-67.5" font-family="Helvetica,sans-Serif" font-size="10.00">javolution.util.internal.table.</text>
<text text-anchor="middle" x="79" y="-56.5" font-family="Helvetica,sans-Serif" font-size="10.00">SharedTableImpl.removeLast</text>
</a>
</g>
</g>
<!-- Node2 -->
<g id="node2" class="node">
<title>Node2</title>
<g id="a_node2"><a xlink:href="../../d8/dd0/classjavolution_1_1util_1_1internal_1_1collection_1_1ReadWriteLockImpl_1_1WriteLock.html#ab4bdc6874d2bec8344d6207438f67db1" target="_top" xlink:title=" ">
<polygon fill="white" stroke="black" points="200,-98.5 200,-128.5 387,-128.5 387,-98.5 200,-98.5"/>
<text text-anchor="start" x="208" y="-116.5" font-family="Helvetica,sans-Serif" font-size="10.00">javolution.util.internal.collection.</text>
<text text-anchor="middle" x="293.5" y="-105.5" font-family="Helvetica,sans-Serif" font-size="10.00">ReadWriteLockImpl.WriteLock.lock</text>
</a>
</g>
</g>
<!-- Node1&#45;&gt;Node2 -->
<g id="edge1" class="edge">
<title>Node1&#45;&gt;Node2</title>
<path fill="none" stroke="midnightblue" d="M145.2,-79.53C168.05,-84.8 193.88,-90.76 217.47,-96.2"/>
<polygon fill="midnightblue" stroke="midnightblue" points="216.89,-99.66 227.42,-98.49 218.46,-92.84 216.89,-99.66"/>
</g>
<!-- Node4 -->
<g id="node4" class="node">
<title>Node4</title>
<g id="a_node4"><a xlink:href="../../d9/d51/classjavolution_1_1util_1_1internal_1_1table_1_1SharedTableImpl.html#ae8cd8dca1354e5eb524273fc57b11555" target="_top" xlink:title=" ">
<polygon fill="white" stroke="black" points="216,-49.5 216,-79.5 371,-79.5 371,-49.5 216,-49.5"/>
<text text-anchor="start" x="224" y="-67.5" font-family="Helvetica,sans-Serif" font-size="10.00">javolution.util.internal.table.</text>
<text text-anchor="middle" x="293.5" y="-56.5" font-family="Helvetica,sans-Serif" font-size="10.00">SharedTableImpl.target</text>
</a>
</g>
</g>
<!-- Node1&#45;&gt;Node4 -->
<g id="edge3" class="edge">
<title>Node1&#45;&gt;Node4</title>
<path fill="none" stroke="midnightblue" d="M158.22,-64.5C173.66,-64.5 189.94,-64.5 205.64,-64.5"/>
<polygon fill="midnightblue" stroke="midnightblue" points="205.86,-68 215.86,-64.5 205.86,-61 205.86,-68"/>
</g>
<!-- Node5 -->
<g id="node5" class="node">
<title>Node5</title>
<g id="a_node5"><a xlink:href="../../d8/dd0/classjavolution_1_1util_1_1internal_1_1collection_1_1ReadWriteLockImpl_1_1WriteLock.html#ad71c5494959b915aaeb845cc2e0b71a7" target="_top" xlink:title=" ">
<polygon fill="white" stroke="black" points="194,-0.5 194,-30.5 393,-30.5 393,-0.5 194,-0.5"/>
<text text-anchor="start" x="202" y="-18.5" font-family="Helvetica,sans-Serif" font-size="10.00">javolution.util.internal.collection.</text>
<text text-anchor="middle" x="293.5" y="-7.5" font-family="Helvetica,sans-Serif" font-size="10.00">ReadWriteLockImpl.WriteLock.unlock</text>
</a>
</g>
</g>
<!-- Node1&#45;&gt;Node5 -->
<g id="edge4" class="edge">
<title>Node1&#45;&gt;Node5</title>
<path fill="none" stroke="midnightblue" d="M145.2,-49.47C168.05,-44.2 193.88,-38.24 217.47,-32.8"/>
<polygon fill="midnightblue" stroke="midnightblue" points="218.46,-36.16 227.42,-30.51 216.89,-29.34 218.46,-36.16"/>
</g>
<!-- Node3 -->
<g id="node3" class="node">
<title>Node3</title>
<g id="a_node3"><a xlink:href="../../d8/dd0/classjavolution_1_1util_1_1internal_1_1collection_1_1ReadWriteLockImpl_1_1WriteLock.html#a625ca30a859c35e6657a2a0464e893b7" target="_top" xlink:title=" ">
<polygon fill="white" stroke="black" points="429,-98.5 429,-128.5 676,-128.5 676,-98.5 429,-98.5"/>
<text text-anchor="start" x="437" y="-116.5" font-family="Helvetica,sans-Serif" font-size="10.00">javolution.util.internal.collection.</text>
<text text-anchor="middle" x="552.5" y="-105.5" font-family="Helvetica,sans-Serif" font-size="10.00">ReadWriteLockImpl.WriteLock.lockInterruptibly</text>
</a>
</g>
</g>
<!-- Node2&#45;&gt;Node3 -->
<g id="edge2" class="edge">
<title>Node2&#45;&gt;Node3</title>
<path fill="none" stroke="midnightblue" d="M387.28,-113.5C397.52,-113.5 408.1,-113.5 418.71,-113.5"/>
<polygon fill="midnightblue" stroke="midnightblue" points="418.88,-117 428.88,-113.5 418.88,-110 418.88,-117"/>
</g>
</g>
</svg>
