<?xml version="1.0" encoding="UTF-8" standalone="no"?>
<!DOCTYPE svg PUBLIC "-//W3C//DTD SVG 1.1//EN"
 "http://www.w3.org/Graphics/SVG/1.1/DTD/svg11.dtd">
<!-- Generated by graphviz version 2.43.0 (0)
 -->
<!-- Title: javolution.util.internal.table.SharedTableImpl.lastIndexOf Pages: 1 -->
<svg width="1061pt" height="147pt"
 viewBox="0.00 0.00 1061.00 147.00" xmlns="http://www.w3.org/2000/svg" xmlns:xlink="http://www.w3.org/1999/xlink">
<g id="graph0" class="graph" transform="scale(1 1) rotate(0) translate(4 143)">
<title>javolution.util.internal.table.SharedTableImpl.lastIndexOf</title>
<polygon fill="white" stroke="transparent" points="-4,4 -4,-143 1057,-143 1057,4 -4,4"/>
<!-- Node1 -->
<g id="node1" class="node">
<title>Node1</title>
<g id="a_node1"><a xlink:title=" ">
<polygon fill="#bfbfbf" stroke="black" points="0,-46.5 0,-76.5 157,-76.5 157,-46.5 0,-46.5"/>
<text text-anchor="start" x="8" y="-64.5" font-family="Helvetica,sans-Serif" font-size="10.00">javolution.util.internal.table.</text>
<text text-anchor="middle" x="78.5" y="-53.5" font-family="Helvetica,sans-Serif" font-size="10.00">SharedTableImpl.lastIndexOf</text>
</a>
</g>
</g>
<!-- Node2 -->
<g id="node2" class="node">
<title>Node2</title>
<g id="a_node2"><a xlink:href="../../d9/d51/classjavolution_1_1util_1_1internal_1_1table_1_1SharedTableImpl.html#abe20c2174575175096f8169f434cf2df" target="_top" xlink:title=" ">
<polygon fill="white" stroke="black" points="193,-68.5 193,-98.5 348,-98.5 348,-68.5 193,-68.5"/>
<text text-anchor="start" x="201" y="-86.5" font-family="Helvetica,sans-Serif" font-size="10.00">javolution.util.internal.table.</text>
<text text-anchor="middle" x="270.5" y="-75.5" font-family="Helvetica,sans-Serif" font-size="10.00">SharedTableImpl.element</text>
</a>
</g>
</g>
<!-- Node1&#45;&gt;Node2 -->
<g id="edge1" class="edge">
<title>Node1&#45;&gt;Node2</title>
<path fill="none" stroke="midnightblue" d="M157.05,-70.48C165.54,-71.46 174.21,-72.47 182.79,-73.46"/>
<polygon fill="midnightblue" stroke="midnightblue" points="182.47,-76.95 192.81,-74.62 183.28,-69.99 182.47,-76.95"/>
</g>
<!-- Node4 -->
<g id="node4" class="node">
<title>Node4</title>
<g id="a_node4"><a xlink:href="../../d4/d2b/classjavolution_1_1util_1_1internal_1_1collection_1_1ReadWriteLockImpl_1_1ReadLock.html#a36e93d109ab51a1f3e12da5fb08bb588" target="_top" xlink:title=" ">
<polygon fill="white" stroke="black" points="581,-108.5 581,-138.5 766,-138.5 766,-108.5 581,-108.5"/>
<text text-anchor="start" x="589" y="-126.5" font-family="Helvetica,sans-Serif" font-size="10.00">javolution.util.internal.collection.</text>
<text text-anchor="middle" x="673.5" y="-115.5" font-family="Helvetica,sans-Serif" font-size="10.00">ReadWriteLockImpl.ReadLock.lock</text>
</a>
</g>
</g>
<!-- Node1&#45;&gt;Node4 -->
<g id="edge7" class="edge">
<title>Node1&#45;&gt;Node4</title>
<path fill="none" stroke="midnightblue" d="M107.96,-76.68C130.37,-87.78 162.77,-101.99 193,-108.5 320.99,-136.04 472.58,-135.41 570.54,-130.83"/>
<polygon fill="midnightblue" stroke="midnightblue" points="570.92,-134.32 580.73,-130.33 570.57,-127.32 570.92,-134.32"/>
</g>
<!-- Node6 -->
<g id="node6" class="node">
<title>Node6</title>
<g id="a_node6"><a xlink:href="../../d9/d51/classjavolution_1_1util_1_1internal_1_1table_1_1SharedTableImpl.html#ae8cd8dca1354e5eb524273fc57b11555" target="_top" xlink:title=" ">
<polygon fill="white" stroke="black" points="596,-56.5 596,-86.5 751,-86.5 751,-56.5 596,-56.5"/>
<text text-anchor="start" x="604" y="-74.5" font-family="Helvetica,sans-Serif" font-size="10.00">javolution.util.internal.table.</text>
<text text-anchor="middle" x="673.5" y="-63.5" font-family="Helvetica,sans-Serif" font-size="10.00">SharedTableImpl.target</text>
</a>
</g>
</g>
<!-- Node1&#45;&gt;Node6 -->
<g id="edge8" class="edge">
<title>Node1&#45;&gt;Node6</title>
<path fill="none" stroke="midnightblue" d="M157.19,-58.84C248.6,-56.24 404.91,-53.49 539,-59.5 554.16,-60.18 570.26,-61.29 585.84,-62.57"/>
<polygon fill="midnightblue" stroke="midnightblue" points="585.72,-66.08 595.98,-63.44 586.32,-59.1 585.72,-66.08"/>
</g>
<!-- Node7 -->
<g id="node7" class="node">
<title>Node7</title>
<g id="a_node7"><a xlink:href="../../d4/d2b/classjavolution_1_1util_1_1internal_1_1collection_1_1ReadWriteLockImpl_1_1ReadLock.html#a3cb27e8dc3ce552b919ef856788b0132" target="_top" xlink:title=" ">
<polygon fill="white" stroke="black" points="575,-0.5 575,-30.5 772,-30.5 772,-0.5 575,-0.5"/>
<text text-anchor="start" x="583" y="-18.5" font-family="Helvetica,sans-Serif" font-size="10.00">javolution.util.internal.collection.</text>
<text text-anchor="middle" x="673.5" y="-7.5" font-family="Helvetica,sans-Serif" font-size="10.00">ReadWriteLockImpl.ReadLock.unlock</text>
</a>
</g>
</g>
<!-- Node1&#45;&gt;Node7 -->
<g id="edge9" class="edge">
<title>Node1&#45;&gt;Node7</title>
<path fill="none" stroke="midnightblue" d="M157.03,-54.53C169.07,-53.49 181.37,-52.45 193,-51.5 320.57,-41.09 467.33,-30.24 564.54,-23.2"/>
<polygon fill="midnightblue" stroke="midnightblue" points="564.95,-26.68 574.67,-22.47 564.44,-19.7 564.95,-26.68"/>
</g>
<!-- Node3 -->
<g id="node3" class="node">
<title>Node3</title>
<g id="a_node3"><a xlink:href="../../d9/d51/classjavolution_1_1util_1_1internal_1_1table_1_1SharedTableImpl.html#a13fb18680b98a7c40db4e2c0048efae5" target="_top" xlink:title=" ">
<polygon fill="white" stroke="black" points="384,-68.5 384,-98.5 539,-98.5 539,-68.5 384,-68.5"/>
<text text-anchor="start" x="392" y="-86.5" font-family="Helvetica,sans-Serif" font-size="10.00">javolution.util.internal.table.</text>
<text text-anchor="middle" x="461.5" y="-75.5" font-family="Helvetica,sans-Serif" font-size="10.00">SharedTableImpl.getFirst</text>
</a>
</g>
</g>
<!-- Node2&#45;&gt;Node3 -->
<g id="edge2" class="edge">
<title>Node2&#45;&gt;Node3</title>
<path fill="none" stroke="midnightblue" d="M348.1,-83.5C356.56,-83.5 365.22,-83.5 373.79,-83.5"/>
<polygon fill="midnightblue" stroke="midnightblue" points="373.79,-87 383.79,-83.5 373.79,-80 373.79,-87"/>
</g>
<!-- Node3&#45;&gt;Node4 -->
<g id="edge3" class="edge">
<title>Node3&#45;&gt;Node4</title>
<path fill="none" stroke="midnightblue" d="M539.21,-98.11C553.58,-100.85 568.72,-103.73 583.43,-106.53"/>
<polygon fill="midnightblue" stroke="midnightblue" points="583.06,-110.03 593.54,-108.46 584.37,-103.15 583.06,-110.03"/>
</g>
<!-- Node3&#45;&gt;Node6 -->
<g id="edge5" class="edge">
<title>Node3&#45;&gt;Node6</title>
<path fill="none" stroke="midnightblue" d="M539.21,-79.12C554.3,-78.25 570.23,-77.34 585.62,-76.46"/>
<polygon fill="midnightblue" stroke="midnightblue" points="585.87,-79.96 595.65,-75.89 585.47,-72.97 585.87,-79.96"/>
</g>
<!-- Node3&#45;&gt;Node7 -->
<g id="edge6" class="edge">
<title>Node3&#45;&gt;Node7</title>
<path fill="none" stroke="midnightblue" d="M508.85,-68.49C540.51,-58.24 582.64,-44.6 616.23,-33.72"/>
<polygon fill="midnightblue" stroke="midnightblue" points="617.48,-37 625.91,-30.59 615.32,-30.34 617.48,-37"/>
</g>
<!-- Node5 -->
<g id="node5" class="node">
<title>Node5</title>
<g id="a_node5"><a xlink:href="../../d4/d2b/classjavolution_1_1util_1_1internal_1_1collection_1_1ReadWriteLockImpl_1_1ReadLock.html#ab0f1ccdff1bb66a07d0f6bfd1d54170f" target="_top" xlink:title=" ">
<polygon fill="white" stroke="black" points="808,-108.5 808,-138.5 1053,-138.5 1053,-108.5 808,-108.5"/>
<text text-anchor="start" x="816" y="-126.5" font-family="Helvetica,sans-Serif" font-size="10.00">javolution.util.internal.collection.</text>
<text text-anchor="middle" x="930.5" y="-115.5" font-family="Helvetica,sans-Serif" font-size="10.00">ReadWriteLockImpl.ReadLock.lockInterruptibly</text>
</a>
</g>
</g>
<!-- Node4&#45;&gt;Node5 -->
<g id="edge4" class="edge">
<title>Node4&#45;&gt;Node5</title>
<path fill="none" stroke="midnightblue" d="M766.2,-123.5C776.48,-123.5 787.1,-123.5 797.75,-123.5"/>
<polygon fill="midnightblue" stroke="midnightblue" points="797.97,-127 807.97,-123.5 797.97,-120 797.97,-127"/>
</g>
</g>
</svg>
