<?xml version="1.0" encoding="UTF-8" standalone="no"?>
<!DOCTYPE svg PUBLIC "-//W3C//DTD SVG 1.1//EN"
 "http://www.w3.org/Graphics/SVG/1.1/DTD/svg11.dtd">
<!-- Generated by graphviz version 2.43.0 (0)
 -->
<!-- Title: javolution.util.internal.table.SharedTableImpl.peek Pages: 1 -->
<svg width="868pt" height="137pt"
 viewBox="0.00 0.00 868.00 137.00" xmlns="http://www.w3.org/2000/svg" xmlns:xlink="http://www.w3.org/1999/xlink">
<g id="graph0" class="graph" transform="scale(1 1) rotate(0) translate(4 133)">
<title>javolution.util.internal.table.SharedTableImpl.peek</title>
<polygon fill="white" stroke="transparent" points="-4,4 -4,-133 864,-133 864,4 -4,4"/>
<!-- Node1 -->
<g id="node1" class="node">
<title>Node1</title>
<g id="a_node1"><a xlink:title=" ">
<polygon fill="#bfbfbf" stroke="black" points="0,-49.5 0,-79.5 155,-79.5 155,-49.5 0,-49.5"/>
<text text-anchor="start" x="8" y="-67.5" font-family="Helvetica,sans-Serif" font-size="10.00">javolution.util.internal.table.</text>
<text text-anchor="middle" x="77.5" y="-56.5" font-family="Helvetica,sans-Serif" font-size="10.00">SharedTableImpl.peek</text>
</a>
</g>
</g>
<!-- Node2 -->
<g id="node2" class="node">
<title>Node2</title>
<g id="a_node2"><a xlink:href="../../d9/d51/classjavolution_1_1util_1_1internal_1_1table_1_1SharedTableImpl.html#a9c79284fe06c571d1b0b19ae2722666b" target="_top" xlink:title=" ">
<polygon fill="white" stroke="black" points="191,-49.5 191,-79.5 346,-79.5 346,-49.5 191,-49.5"/>
<text text-anchor="start" x="199" y="-67.5" font-family="Helvetica,sans-Serif" font-size="10.00">javolution.util.internal.table.</text>
<text text-anchor="middle" x="268.5" y="-56.5" font-family="Helvetica,sans-Serif" font-size="10.00">SharedTableImpl.peekFirst</text>
</a>
</g>
</g>
<!-- Node1&#45;&gt;Node2 -->
<g id="edge1" class="edge">
<title>Node1&#45;&gt;Node2</title>
<path fill="none" stroke="midnightblue" d="M155.1,-64.5C163.56,-64.5 172.22,-64.5 180.79,-64.5"/>
<polygon fill="midnightblue" stroke="midnightblue" points="180.79,-68 190.79,-64.5 180.79,-61 180.79,-68"/>
</g>
<!-- Node3 -->
<g id="node3" class="node">
<title>Node3</title>
<g id="a_node3"><a xlink:href="../../d4/d2b/classjavolution_1_1util_1_1internal_1_1collection_1_1ReadWriteLockImpl_1_1ReadLock.html#a36e93d109ab51a1f3e12da5fb08bb588" target="_top" xlink:title=" ">
<polygon fill="white" stroke="black" points="388,-98.5 388,-128.5 573,-128.5 573,-98.5 388,-98.5"/>
<text text-anchor="start" x="396" y="-116.5" font-family="Helvetica,sans-Serif" font-size="10.00">javolution.util.internal.collection.</text>
<text text-anchor="middle" x="480.5" y="-105.5" font-family="Helvetica,sans-Serif" font-size="10.00">ReadWriteLockImpl.ReadLock.lock</text>
</a>
</g>
</g>
<!-- Node2&#45;&gt;Node3 -->
<g id="edge2" class="edge">
<title>Node2&#45;&gt;Node3</title>
<path fill="none" stroke="midnightblue" d="M333.93,-79.53C356.51,-84.8 382.04,-90.76 405.35,-96.2"/>
<polygon fill="midnightblue" stroke="midnightblue" points="404.65,-99.63 415.19,-98.49 406.24,-92.81 404.65,-99.63"/>
</g>
<!-- Node5 -->
<g id="node5" class="node">
<title>Node5</title>
<g id="a_node5"><a xlink:href="../../d9/d51/classjavolution_1_1util_1_1internal_1_1table_1_1SharedTableImpl.html#ae8cd8dca1354e5eb524273fc57b11555" target="_top" xlink:title=" ">
<polygon fill="white" stroke="black" points="403,-49.5 403,-79.5 558,-79.5 558,-49.5 403,-49.5"/>
<text text-anchor="start" x="411" y="-67.5" font-family="Helvetica,sans-Serif" font-size="10.00">javolution.util.internal.table.</text>
<text text-anchor="middle" x="480.5" y="-56.5" font-family="Helvetica,sans-Serif" font-size="10.00">SharedTableImpl.target</text>
</a>
</g>
</g>
<!-- Node2&#45;&gt;Node5 -->
<g id="edge4" class="edge">
<title>Node2&#45;&gt;Node5</title>
<path fill="none" stroke="midnightblue" d="M346.21,-64.5C361.3,-64.5 377.23,-64.5 392.62,-64.5"/>
<polygon fill="midnightblue" stroke="midnightblue" points="392.65,-68 402.65,-64.5 392.65,-61 392.65,-68"/>
</g>
<!-- Node6 -->
<g id="node6" class="node">
<title>Node6</title>
<g id="a_node6"><a xlink:href="../../d4/d2b/classjavolution_1_1util_1_1internal_1_1collection_1_1ReadWriteLockImpl_1_1ReadLock.html#a3cb27e8dc3ce552b919ef856788b0132" target="_top" xlink:title=" ">
<polygon fill="white" stroke="black" points="382,-0.5 382,-30.5 579,-30.5 579,-0.5 382,-0.5"/>
<text text-anchor="start" x="390" y="-18.5" font-family="Helvetica,sans-Serif" font-size="10.00">javolution.util.internal.collection.</text>
<text text-anchor="middle" x="480.5" y="-7.5" font-family="Helvetica,sans-Serif" font-size="10.00">ReadWriteLockImpl.ReadLock.unlock</text>
</a>
</g>
</g>
<!-- Node2&#45;&gt;Node6 -->
<g id="edge5" class="edge">
<title>Node2&#45;&gt;Node6</title>
<path fill="none" stroke="midnightblue" d="M333.93,-49.47C356.51,-44.2 382.04,-38.24 405.35,-32.8"/>
<polygon fill="midnightblue" stroke="midnightblue" points="406.24,-36.19 415.19,-30.51 404.65,-29.37 406.24,-36.19"/>
</g>
<!-- Node4 -->
<g id="node4" class="node">
<title>Node4</title>
<g id="a_node4"><a xlink:href="../../d4/d2b/classjavolution_1_1util_1_1internal_1_1collection_1_1ReadWriteLockImpl_1_1ReadLock.html#ab0f1ccdff1bb66a07d0f6bfd1d54170f" target="_top" xlink:title=" ">
<polygon fill="white" stroke="black" points="615,-98.5 615,-128.5 860,-128.5 860,-98.5 615,-98.5"/>
<text text-anchor="start" x="623" y="-116.5" font-family="Helvetica,sans-Serif" font-size="10.00">javolution.util.internal.collection.</text>
<text text-anchor="middle" x="737.5" y="-105.5" font-family="Helvetica,sans-Serif" font-size="10.00">ReadWriteLockImpl.ReadLock.lockInterruptibly</text>
</a>
</g>
</g>
<!-- Node3&#45;&gt;Node4 -->
<g id="edge3" class="edge">
<title>Node3&#45;&gt;Node4</title>
<path fill="none" stroke="midnightblue" d="M573.2,-113.5C583.48,-113.5 594.1,-113.5 604.75,-113.5"/>
<polygon fill="midnightblue" stroke="midnightblue" points="604.97,-117 614.97,-113.5 604.97,-110 604.97,-117"/>
</g>
</g>
</svg>
