<?xml version="1.0" encoding="UTF-8" standalone="no"?>
<!DOCTYPE svg PUBLIC "-//W3C//DTD SVG 1.1//EN"
 "http://www.w3.org/Graphics/SVG/1.1/DTD/svg11.dtd">
<!-- Generated by graphviz version 2.43.0 (0)
 -->
<!-- Title: javolution.util.internal.table.SharedTableImpl.addAll Pages: 1 -->
<svg width="681pt" height="137pt"
 viewBox="0.00 0.00 681.00 137.00" xmlns="http://www.w3.org/2000/svg" xmlns:xlink="http://www.w3.org/1999/xlink">
<g id="graph0" class="graph" transform="scale(1 1) rotate(0) translate(4 133)">
<title>javolution.util.internal.table.SharedTableImpl.addAll</title>
<polygon fill="white" stroke="transparent" points="-4,4 -4,-133 677,-133 677,4 -4,4"/>
<!-- Node1 -->
<g id="node1" class="node">
<title>Node1</title>
<g id="a_node1"><a xlink:title=" ">
<polygon fill="#bfbfbf" stroke="black" points="0,-49.5 0,-79.5 155,-79.5 155,-49.5 0,-49.5"/>
<text text-anchor="start" x="8" y="-67.5" font-family="Helvetica,sans-Serif" font-size="10.00">javolution.util.internal.table.</text>
<text text-anchor="middle" x="77.5" y="-56.5" font-family="Helvetica,sans-Serif" font-size="10.00">SharedTableImpl.addAll</text>
</a>
</g>
</g>
<!-- Node2 -->
<g id="node2" class="node">
<title>Node2</title>
<g id="a_node2"><a xlink:href="../../d8/dd0/classjavolution_1_1util_1_1internal_1_1collection_1_1ReadWriteLockImpl_1_1WriteLock.html#ab4bdc6874d2bec8344d6207438f67db1" target="_top" xlink:title=" ">
<polygon fill="white" stroke="black" points="197,-98.5 197,-128.5 384,-128.5 384,-98.5 197,-98.5"/>
<text text-anchor="start" x="205" y="-116.5" font-family="Helvetica,sans-Serif" font-size="10.00">javolution.util.internal.collection.</text>
<text text-anchor="middle" x="290.5" y="-105.5" font-family="Helvetica,sans-Serif" font-size="10.00">ReadWriteLockImpl.WriteLock.lock</text>
</a>
</g>
</g>
<!-- Node1&#45;&gt;Node2 -->
<g id="edge1" class="edge">
<title>Node1&#45;&gt;Node2</title>
<path fill="none" stroke="midnightblue" d="M143.24,-79.53C165.92,-84.8 191.58,-90.76 215,-96.2"/>
<polygon fill="midnightblue" stroke="midnightblue" points="214.35,-99.64 224.88,-98.49 215.93,-92.82 214.35,-99.64"/>
</g>
<!-- Node4 -->
<g id="node4" class="node">
<title>Node4</title>
<g id="a_node4"><a xlink:href="../../d9/d51/classjavolution_1_1util_1_1internal_1_1table_1_1SharedTableImpl.html#ae8cd8dca1354e5eb524273fc57b11555" target="_top" xlink:title=" ">
<polygon fill="white" stroke="black" points="213,-49.5 213,-79.5 368,-79.5 368,-49.5 213,-49.5"/>
<text text-anchor="start" x="221" y="-67.5" font-family="Helvetica,sans-Serif" font-size="10.00">javolution.util.internal.table.</text>
<text text-anchor="middle" x="290.5" y="-56.5" font-family="Helvetica,sans-Serif" font-size="10.00">SharedTableImpl.target</text>
</a>
</g>
</g>
<!-- Node1&#45;&gt;Node4 -->
<g id="edge3" class="edge">
<title>Node1&#45;&gt;Node4</title>
<path fill="none" stroke="midnightblue" d="M155.27,-64.5C170.64,-64.5 186.89,-64.5 202.57,-64.5"/>
<polygon fill="midnightblue" stroke="midnightblue" points="202.78,-68 212.78,-64.5 202.78,-61 202.78,-68"/>
</g>
<!-- Node5 -->
<g id="node5" class="node">
<title>Node5</title>
<g id="a_node5"><a xlink:href="../../d8/dd0/classjavolution_1_1util_1_1internal_1_1collection_1_1ReadWriteLockImpl_1_1WriteLock.html#ad71c5494959b915aaeb845cc2e0b71a7" target="_top" xlink:title=" ">
<polygon fill="white" stroke="black" points="191,-0.5 191,-30.5 390,-30.5 390,-0.5 191,-0.5"/>
<text text-anchor="start" x="199" y="-18.5" font-family="Helvetica,sans-Serif" font-size="10.00">javolution.util.internal.collection.</text>
<text text-anchor="middle" x="290.5" y="-7.5" font-family="Helvetica,sans-Serif" font-size="10.00">ReadWriteLockImpl.WriteLock.unlock</text>
</a>
</g>
</g>
<!-- Node1&#45;&gt;Node5 -->
<g id="edge4" class="edge">
<title>Node1&#45;&gt;Node5</title>
<path fill="none" stroke="midnightblue" d="M143.24,-49.47C165.92,-44.2 191.58,-38.24 215,-32.8"/>
<polygon fill="midnightblue" stroke="midnightblue" points="215.93,-36.18 224.88,-30.51 214.35,-29.36 215.93,-36.18"/>
</g>
<!-- Node3 -->
<g id="node3" class="node">
<title>Node3</title>
<g id="a_node3"><a xlink:href="../../d8/dd0/classjavolution_1_1util_1_1internal_1_1collection_1_1ReadWriteLockImpl_1_1WriteLock.html#a625ca30a859c35e6657a2a0464e893b7" target="_top" xlink:title=" ">
<polygon fill="white" stroke="black" points="426,-98.5 426,-128.5 673,-128.5 673,-98.5 426,-98.5"/>
<text text-anchor="start" x="434" y="-116.5" font-family="Helvetica,sans-Serif" font-size="10.00">javolution.util.internal.collection.</text>
<text text-anchor="middle" x="549.5" y="-105.5" font-family="Helvetica,sans-Serif" font-size="10.00">ReadWriteLockImpl.WriteLock.lockInterruptibly</text>
</a>
</g>
</g>
<!-- Node2&#45;&gt;Node3 -->
<g id="edge2" class="edge">
<title>Node2&#45;&gt;Node3</title>
<path fill="none" stroke="midnightblue" d="M384.28,-113.5C394.52,-113.5 405.1,-113.5 415.71,-113.5"/>
<polygon fill="midnightblue" stroke="midnightblue" points="415.88,-117 425.88,-113.5 415.88,-110 415.88,-117"/>
</g>
</g>
</svg>
