<?xml version="1.0" encoding="UTF-8" standalone="no"?>
<!DOCTYPE svg PUBLIC "-//W3C//DTD SVG 1.1//EN"
 "http://www.w3.org/Graphics/SVG/1.1/DTD/svg11.dtd">
<!-- Generated by graphviz version 2.43.0 (0)
 -->
<!-- Title: javolution.util.internal.table.SharedTableImpl.getFirst Pages: 1 -->
<svg width="772pt" height="382pt"
 viewBox="0.00 0.00 772.00 382.00" xmlns="http://www.w3.org/2000/svg" xmlns:xlink="http://www.w3.org/1999/xlink">
<g id="graph0" class="graph" transform="scale(1 1) rotate(0) translate(4 378)">
<title>javolution.util.internal.table.SharedTableImpl.getFirst</title>
<polygon fill="white" stroke="transparent" points="-4,4 -4,-378 768,-378 768,4 -4,4"/>
<!-- Node1 -->
<g id="node1" class="node">
<title>Node1</title>
<g id="a_node1"><a xlink:title=" ">
<polygon fill="#bfbfbf" stroke="black" points="609,-171.5 609,-201.5 764,-201.5 764,-171.5 609,-171.5"/>
<text text-anchor="start" x="617" y="-189.5" font-family="Helvetica,sans-Serif" font-size="10.00">javolution.util.internal.table.</text>
<text text-anchor="middle" x="686.5" y="-178.5" font-family="Helvetica,sans-Serif" font-size="10.00">SharedTableImpl.getFirst</text>
</a>
</g>
</g>
<!-- Node2 -->
<g id="node2" class="node">
<title>Node2</title>
<g id="a_node2"><a xlink:href="../../d9/d51/classjavolution_1_1util_1_1internal_1_1table_1_1SharedTableImpl.html#abe20c2174575175096f8169f434cf2df" target="_top" xlink:title=" ">
<polygon fill="white" stroke="black" points="418,-171.5 418,-201.5 573,-201.5 573,-171.5 418,-171.5"/>
<text text-anchor="start" x="426" y="-189.5" font-family="Helvetica,sans-Serif" font-size="10.00">javolution.util.internal.table.</text>
<text text-anchor="middle" x="495.5" y="-178.5" font-family="Helvetica,sans-Serif" font-size="10.00">SharedTableImpl.element</text>
</a>
</g>
</g>
<!-- Node1&#45;&gt;Node2 -->
<g id="edge1" class="edge">
<title>Node1&#45;&gt;Node2</title>
<path fill="none" stroke="midnightblue" d="M598.9,-186.5C590.33,-186.5 581.67,-186.5 573.21,-186.5"/>
<polygon fill="midnightblue" stroke="midnightblue" points="598.9,-190 608.9,-186.5 598.9,-183 598.9,-190"/>
</g>
<!-- Node3 -->
<g id="node3" class="node">
<title>Node3</title>
<g id="a_node3"><a xlink:href="../../d9/d51/classjavolution_1_1util_1_1internal_1_1table_1_1SharedTableImpl.html#a512779038359b08a7ee003b7d44371a4" target="_top" xlink:title=" ">
<polygon fill="white" stroke="black" points="209,-343.5 209,-373.5 364,-373.5 364,-343.5 209,-343.5"/>
<text text-anchor="start" x="217" y="-361.5" font-family="Helvetica,sans-Serif" font-size="10.00">javolution.util.internal.table.</text>
<text text-anchor="middle" x="286.5" y="-350.5" font-family="Helvetica,sans-Serif" font-size="10.00">SharedTableImpl.add</text>
</a>
</g>
</g>
<!-- Node2&#45;&gt;Node3 -->
<g id="edge2" class="edge">
<title>Node2&#45;&gt;Node3</title>
<path fill="none" stroke="midnightblue" d="M482.72,-210.8C465.37,-243.97 429.76,-302.88 382,-334.5 376.5,-338.14 370.47,-341.23 364.22,-343.86"/>
<polygon fill="midnightblue" stroke="midnightblue" points="485.9,-212.29 487.32,-201.79 479.66,-209.11 485.9,-212.29"/>
</g>
<!-- Node4 -->
<g id="node4" class="node">
<title>Node4</title>
<g id="a_node4"><a xlink:href="../../d9/d51/classjavolution_1_1util_1_1internal_1_1table_1_1SharedTableImpl.html#aa710658937ff7bbe8ec3ed2343786c5f" target="_top" xlink:title=" ">
<polygon fill="white" stroke="black" points="209,-294.5 209,-324.5 364,-324.5 364,-294.5 209,-294.5"/>
<text text-anchor="start" x="217" y="-312.5" font-family="Helvetica,sans-Serif" font-size="10.00">javolution.util.internal.table.</text>
<text text-anchor="middle" x="286.5" y="-301.5" font-family="Helvetica,sans-Serif" font-size="10.00">SharedTableImpl.addFirst</text>
</a>
</g>
</g>
<!-- Node2&#45;&gt;Node4 -->
<g id="edge3" class="edge">
<title>Node2&#45;&gt;Node4</title>
<path fill="none" stroke="midnightblue" d="M474.83,-209.2C454,-231.84 419.06,-265.96 382,-285.5 375.56,-288.89 368.62,-291.83 361.53,-294.35"/>
<polygon fill="midnightblue" stroke="midnightblue" points="477.49,-211.49 481.59,-201.72 472.29,-206.8 477.49,-211.49"/>
</g>
<!-- Node6 -->
<g id="node6" class="node">
<title>Node6</title>
<g id="a_node6"><a xlink:href="../../d0/d57/classjavolution_1_1util_1_1internal_1_1table_1_1sorted_1_1SharedSortedTableImpl.html#a3cbc222359090ababc11250d607d5a0c" target="_top" xlink:title=" ">
<polygon fill="white" stroke="black" points="191,-245.5 191,-275.5 382,-275.5 382,-245.5 191,-245.5"/>
<text text-anchor="start" x="199" y="-263.5" font-family="Helvetica,sans-Serif" font-size="10.00">javolution.util.internal.table.sorted.</text>
<text text-anchor="middle" x="286.5" y="-252.5" font-family="Helvetica,sans-Serif" font-size="10.00">SharedSortedTableImpl.addIfAbsent</text>
</a>
</g>
</g>
<!-- Node2&#45;&gt;Node6 -->
<g id="edge5" class="edge">
<title>Node2&#45;&gt;Node6</title>
<path fill="none" stroke="midnightblue" d="M455.43,-205.83C434.09,-215.88 406.98,-227.85 382,-236.5 372.64,-239.74 362.63,-242.75 352.74,-245.47"/>
<polygon fill="midnightblue" stroke="midnightblue" points="456.98,-208.97 464.5,-201.5 453.97,-202.65 456.98,-208.97"/>
</g>
<!-- Node7 -->
<g id="node7" class="node">
<title>Node7</title>
<g id="a_node7"><a xlink:href="../../d9/d51/classjavolution_1_1util_1_1internal_1_1table_1_1SharedTableImpl.html#a5f4fdf561f83878e105b14d019111613" target="_top" xlink:title=" ">
<polygon fill="white" stroke="black" points="209,-196.5 209,-226.5 364,-226.5 364,-196.5 209,-196.5"/>
<text text-anchor="start" x="217" y="-214.5" font-family="Helvetica,sans-Serif" font-size="10.00">javolution.util.internal.table.</text>
<text text-anchor="middle" x="286.5" y="-203.5" font-family="Helvetica,sans-Serif" font-size="10.00">SharedTableImpl.addLast</text>
</a>
</g>
</g>
<!-- Node2&#45;&gt;Node7 -->
<g id="edge6" class="edge">
<title>Node2&#45;&gt;Node7</title>
<path fill="none" stroke="midnightblue" d="M407.78,-196.97C393.3,-198.72 378.37,-200.53 364.16,-202.24"/>
<polygon fill="midnightblue" stroke="midnightblue" points="408.21,-200.45 417.72,-195.77 407.37,-193.5 408.21,-200.45"/>
</g>
<!-- Node8 -->
<g id="node8" class="node">
<title>Node8</title>
<g id="a_node8"><a xlink:href="../../d9/d51/classjavolution_1_1util_1_1internal_1_1table_1_1SharedTableImpl.html#a4d1cd587a9c2b9e577e33be8f1786917" target="_top" xlink:title=" ">
<polygon fill="white" stroke="black" points="209,-147.5 209,-177.5 364,-177.5 364,-147.5 209,-147.5"/>
<text text-anchor="start" x="217" y="-165.5" font-family="Helvetica,sans-Serif" font-size="10.00">javolution.util.internal.table.</text>
<text text-anchor="middle" x="286.5" y="-154.5" font-family="Helvetica,sans-Serif" font-size="10.00">SharedTableImpl.indexOf</text>
</a>
</g>
</g>
<!-- Node2&#45;&gt;Node8 -->
<g id="edge7" class="edge">
<title>Node2&#45;&gt;Node8</title>
<path fill="none" stroke="midnightblue" d="M407.78,-176.45C393.3,-174.77 378.37,-173.04 364.16,-171.39"/>
<polygon fill="midnightblue" stroke="midnightblue" points="407.38,-179.92 417.72,-177.6 408.18,-172.97 407.38,-179.92"/>
</g>
<!-- Node9 -->
<g id="node9" class="node">
<title>Node9</title>
<g id="a_node9"><a xlink:href="../../d9/d51/classjavolution_1_1util_1_1internal_1_1table_1_1SharedTableImpl.html#a043bd3a56b2526c0eaa590f1747adf9d" target="_top" xlink:title=" ">
<polygon fill="white" stroke="black" points="208,-98.5 208,-128.5 365,-128.5 365,-98.5 208,-98.5"/>
<text text-anchor="start" x="216" y="-116.5" font-family="Helvetica,sans-Serif" font-size="10.00">javolution.util.internal.table.</text>
<text text-anchor="middle" x="286.5" y="-105.5" font-family="Helvetica,sans-Serif" font-size="10.00">SharedTableImpl.lastIndexOf</text>
</a>
</g>
</g>
<!-- Node2&#45;&gt;Node9 -->
<g id="edge8" class="edge">
<title>Node2&#45;&gt;Node9</title>
<path fill="none" stroke="midnightblue" d="M453.21,-167.19C432.18,-157.78 406.03,-146.76 382,-138.5 371.65,-134.94 360.51,-131.59 349.65,-128.57"/>
<polygon fill="midnightblue" stroke="midnightblue" points="451.94,-170.45 462.49,-171.38 454.82,-164.07 451.94,-170.45"/>
</g>
<!-- Node10 -->
<g id="node10" class="node">
<title>Node10</title>
<g id="a_node10"><a xlink:href="../../d0/d57/classjavolution_1_1util_1_1internal_1_1table_1_1sorted_1_1SharedSortedTableImpl.html#adc393984944a2f467bc35008720331fa" target="_top" xlink:title=" ">
<polygon fill="white" stroke="black" points="192,-49.5 192,-79.5 381,-79.5 381,-49.5 192,-49.5"/>
<text text-anchor="start" x="200" y="-67.5" font-family="Helvetica,sans-Serif" font-size="10.00">javolution.util.internal.table.sorted.</text>
<text text-anchor="middle" x="286.5" y="-56.5" font-family="Helvetica,sans-Serif" font-size="10.00">SharedSortedTableImpl.positionOf</text>
</a>
</g>
</g>
<!-- Node2&#45;&gt;Node10 -->
<g id="edge9" class="edge">
<title>Node2&#45;&gt;Node10</title>
<path fill="none" stroke="midnightblue" d="M474.35,-163.98C453.37,-141.87 418.53,-108.75 382,-89.5 374.79,-85.7 366.97,-82.45 359.01,-79.67"/>
<polygon fill="midnightblue" stroke="midnightblue" points="471.79,-166.37 481.17,-171.29 476.91,-161.59 471.79,-166.37"/>
</g>
<!-- Node11 -->
<g id="node11" class="node">
<title>Node11</title>
<g id="a_node11"><a xlink:href="../../d9/d51/classjavolution_1_1util_1_1internal_1_1table_1_1SharedTableImpl.html#a86f10240f085e9345c10452e0ed00271" target="_top" xlink:title=" ">
<polygon fill="white" stroke="black" points="209,-0.5 209,-30.5 364,-30.5 364,-0.5 209,-0.5"/>
<text text-anchor="start" x="217" y="-18.5" font-family="Helvetica,sans-Serif" font-size="10.00">javolution.util.internal.table.</text>
<text text-anchor="middle" x="286.5" y="-7.5" font-family="Helvetica,sans-Serif" font-size="10.00">SharedTableImpl.set</text>
</a>
</g>
</g>
<!-- Node2&#45;&gt;Node11 -->
<g id="edge10" class="edge">
<title>Node2&#45;&gt;Node11</title>
<path fill="none" stroke="midnightblue" d="M482.59,-162.59C465.09,-129.95 429.3,-71.93 382,-40.5 376.2,-36.65 369.84,-33.39 363.24,-30.63"/>
<polygon fill="midnightblue" stroke="midnightblue" points="479.5,-164.23 487.23,-171.46 485.7,-160.98 479.5,-164.23"/>
</g>
<!-- Node5 -->
<g id="node5" class="node">
<title>Node5</title>
<g id="a_node5"><a xlink:href="../../d9/d51/classjavolution_1_1util_1_1internal_1_1table_1_1SharedTableImpl.html#a2bb3ddb996ab58a3e3c3cee818eed29f" target="_top" xlink:title=" ">
<polygon fill="white" stroke="black" points="0,-294.5 0,-324.5 155,-324.5 155,-294.5 0,-294.5"/>
<text text-anchor="start" x="8" y="-312.5" font-family="Helvetica,sans-Serif" font-size="10.00">javolution.util.internal.table.</text>
<text text-anchor="middle" x="77.5" y="-301.5" font-family="Helvetica,sans-Serif" font-size="10.00">SharedTableImpl.push</text>
</a>
</g>
</g>
<!-- Node4&#45;&gt;Node5 -->
<g id="edge4" class="edge">
<title>Node4&#45;&gt;Node5</title>
<path fill="none" stroke="midnightblue" d="M198.36,-309.5C184.01,-309.5 169.23,-309.5 155.16,-309.5"/>
<polygon fill="midnightblue" stroke="midnightblue" points="198.72,-313 208.72,-309.5 198.71,-306 198.72,-313"/>
</g>
</g>
</svg>
