<?xml version="1.0" encoding="UTF-8" standalone="no"?>
<!DOCTYPE svg PUBLIC "-//W3C//DTD SVG 1.1//EN"
 "http://www.w3.org/Graphics/SVG/1.1/DTD/svg11.dtd">
<!-- Generated by graphviz version 2.43.0 (0)
 -->
<!-- Title: javolution.util.internal.table.SharedTableImpl.push Pages: 1 -->
<svg width="1386pt" height="229pt"
 viewBox="0.00 0.00 1386.00 229.00" xmlns="http://www.w3.org/2000/svg" xmlns:xlink="http://www.w3.org/1999/xlink">
<g id="graph0" class="graph" transform="scale(1 1) rotate(0) translate(4 225)">
<title>javolution.util.internal.table.SharedTableImpl.push</title>
<polygon fill="white" stroke="transparent" points="-4,4 -4,-225 1382,-225 1382,4 -4,4"/>
<!-- Node1 -->
<g id="node1" class="node">
<title>Node1</title>
<g id="a_node1"><a xlink:title=" ">
<polygon fill="#bfbfbf" stroke="black" points="0,-71.5 0,-101.5 155,-101.5 155,-71.5 0,-71.5"/>
<text text-anchor="start" x="8" y="-89.5" font-family="Helvetica,sans-Serif" font-size="10.00">javolution.util.internal.table.</text>
<text text-anchor="middle" x="77.5" y="-78.5" font-family="Helvetica,sans-Serif" font-size="10.00">SharedTableImpl.push</text>
</a>
</g>
</g>
<!-- Node2 -->
<g id="node2" class="node">
<title>Node2</title>
<g id="a_node2"><a xlink:href="../../d9/d51/classjavolution_1_1util_1_1internal_1_1table_1_1SharedTableImpl.html#aa710658937ff7bbe8ec3ed2343786c5f" target="_top" xlink:title=" ">
<polygon fill="white" stroke="black" points="191,-71.5 191,-101.5 346,-101.5 346,-71.5 191,-71.5"/>
<text text-anchor="start" x="199" y="-89.5" font-family="Helvetica,sans-Serif" font-size="10.00">javolution.util.internal.table.</text>
<text text-anchor="middle" x="268.5" y="-78.5" font-family="Helvetica,sans-Serif" font-size="10.00">SharedTableImpl.addFirst</text>
</a>
</g>
</g>
<!-- Node1&#45;&gt;Node2 -->
<g id="edge1" class="edge">
<title>Node1&#45;&gt;Node2</title>
<path fill="none" stroke="midnightblue" d="M155.1,-86.5C163.56,-86.5 172.22,-86.5 180.79,-86.5"/>
<polygon fill="midnightblue" stroke="midnightblue" points="180.79,-90 190.79,-86.5 180.79,-83 180.79,-90"/>
</g>
<!-- Node3 -->
<g id="node3" class="node">
<title>Node3</title>
<g id="a_node3"><a xlink:href="../../d9/d51/classjavolution_1_1util_1_1internal_1_1table_1_1SharedTableImpl.html#abe20c2174575175096f8169f434cf2df" target="_top" xlink:title=" ">
<polygon fill="white" stroke="black" points="404,-139.5 404,-169.5 559,-169.5 559,-139.5 404,-139.5"/>
<text text-anchor="start" x="412" y="-157.5" font-family="Helvetica,sans-Serif" font-size="10.00">javolution.util.internal.table.</text>
<text text-anchor="middle" x="481.5" y="-146.5" font-family="Helvetica,sans-Serif" font-size="10.00">SharedTableImpl.element</text>
</a>
</g>
</g>
<!-- Node2&#45;&gt;Node3 -->
<g id="edge2" class="edge">
<title>Node2&#45;&gt;Node3</title>
<path fill="none" stroke="midnightblue" d="M316.07,-101.51C347.88,-111.76 390.22,-125.4 423.96,-136.28"/>
<polygon fill="midnightblue" stroke="midnightblue" points="423.1,-139.68 433.69,-139.41 425.24,-133.02 423.1,-139.68"/>
</g>
<!-- Node7 -->
<g id="node7" class="node">
<title>Node7</title>
<g id="a_node7"><a xlink:href="../../d9/d51/classjavolution_1_1util_1_1internal_1_1table_1_1SharedTableImpl.html#ae8cd8dca1354e5eb524273fc57b11555" target="_top" xlink:title=" ">
<polygon fill="white" stroke="black" points="921,-92.5 921,-122.5 1076,-122.5 1076,-92.5 921,-92.5"/>
<text text-anchor="start" x="929" y="-110.5" font-family="Helvetica,sans-Serif" font-size="10.00">javolution.util.internal.table.</text>
<text text-anchor="middle" x="998.5" y="-99.5" font-family="Helvetica,sans-Serif" font-size="10.00">SharedTableImpl.target</text>
</a>
</g>
</g>
<!-- Node2&#45;&gt;Node7 -->
<g id="edge10" class="edge">
<title>Node2&#45;&gt;Node7</title>
<path fill="none" stroke="midnightblue" d="M346.03,-88.71C482.57,-92.65 767.28,-100.86 910.81,-105"/>
<polygon fill="midnightblue" stroke="midnightblue" points="910.8,-108.5 920.9,-105.29 911.01,-101.5 910.8,-108.5"/>
</g>
<!-- Node9 -->
<g id="node9" class="node">
<title>Node9</title>
<g id="a_node9"><a xlink:href="../../d8/dd0/classjavolution_1_1util_1_1internal_1_1collection_1_1ReadWriteLockImpl_1_1WriteLock.html#ab4bdc6874d2bec8344d6207438f67db1" target="_top" xlink:title=" ">
<polygon fill="white" stroke="black" points="388,-49.5 388,-79.5 575,-79.5 575,-49.5 388,-49.5"/>
<text text-anchor="start" x="396" y="-67.5" font-family="Helvetica,sans-Serif" font-size="10.00">javolution.util.internal.collection.</text>
<text text-anchor="middle" x="481.5" y="-56.5" font-family="Helvetica,sans-Serif" font-size="10.00">ReadWriteLockImpl.WriteLock.lock</text>
</a>
</g>
</g>
<!-- Node2&#45;&gt;Node9 -->
<g id="edge8" class="edge">
<title>Node2&#45;&gt;Node9</title>
<path fill="none" stroke="midnightblue" d="M346.27,-78.5C356.54,-77.42 367.2,-76.31 377.83,-75.21"/>
<polygon fill="midnightblue" stroke="midnightblue" points="378.4,-78.66 387.99,-74.15 377.68,-71.7 378.4,-78.66"/>
</g>
<!-- Node11 -->
<g id="node11" class="node">
<title>Node11</title>
<g id="a_node11"><a xlink:href="../../d8/dd0/classjavolution_1_1util_1_1internal_1_1collection_1_1ReadWriteLockImpl_1_1WriteLock.html#ad71c5494959b915aaeb845cc2e0b71a7" target="_top" xlink:title=" ">
<polygon fill="white" stroke="black" points="382,-0.5 382,-30.5 581,-30.5 581,-0.5 382,-0.5"/>
<text text-anchor="start" x="390" y="-18.5" font-family="Helvetica,sans-Serif" font-size="10.00">javolution.util.internal.collection.</text>
<text text-anchor="middle" x="481.5" y="-7.5" font-family="Helvetica,sans-Serif" font-size="10.00">ReadWriteLockImpl.WriteLock.unlock</text>
</a>
</g>
</g>
<!-- Node2&#45;&gt;Node11 -->
<g id="edge11" class="edge">
<title>Node2&#45;&gt;Node11</title>
<path fill="none" stroke="midnightblue" d="M301.97,-71.34C324.17,-61.37 354.45,-48.55 382,-39.5 388.78,-37.27 395.89,-35.15 403.05,-33.15"/>
<polygon fill="midnightblue" stroke="midnightblue" points="404.07,-36.5 412.81,-30.51 402.24,-29.74 404.07,-36.5"/>
</g>
<!-- Node4 -->
<g id="node4" class="node">
<title>Node4</title>
<g id="a_node4"><a xlink:href="../../d9/d51/classjavolution_1_1util_1_1internal_1_1table_1_1SharedTableImpl.html#a13fb18680b98a7c40db4e2c0048efae5" target="_top" xlink:title=" ">
<polygon fill="white" stroke="black" points="663,-140.5 663,-170.5 818,-170.5 818,-140.5 663,-140.5"/>
<text text-anchor="start" x="671" y="-158.5" font-family="Helvetica,sans-Serif" font-size="10.00">javolution.util.internal.table.</text>
<text text-anchor="middle" x="740.5" y="-147.5" font-family="Helvetica,sans-Serif" font-size="10.00">SharedTableImpl.getFirst</text>
</a>
</g>
</g>
<!-- Node3&#45;&gt;Node4 -->
<g id="edge3" class="edge">
<title>Node3&#45;&gt;Node4</title>
<path fill="none" stroke="midnightblue" d="M559.26,-154.8C588.63,-154.91 622.32,-155.04 652.58,-155.16"/>
<polygon fill="midnightblue" stroke="midnightblue" points="652.68,-158.66 662.69,-155.2 652.71,-151.66 652.68,-158.66"/>
</g>
<!-- Node5 -->
<g id="node5" class="node">
<title>Node5</title>
<g id="a_node5"><a xlink:href="../../d4/d2b/classjavolution_1_1util_1_1internal_1_1collection_1_1ReadWriteLockImpl_1_1ReadLock.html#a36e93d109ab51a1f3e12da5fb08bb588" target="_top" xlink:title=" ">
<polygon fill="white" stroke="black" points="906,-190.5 906,-220.5 1091,-220.5 1091,-190.5 906,-190.5"/>
<text text-anchor="start" x="914" y="-208.5" font-family="Helvetica,sans-Serif" font-size="10.00">javolution.util.internal.collection.</text>
<text text-anchor="middle" x="998.5" y="-197.5" font-family="Helvetica,sans-Serif" font-size="10.00">ReadWriteLockImpl.ReadLock.lock</text>
</a>
</g>
</g>
<!-- Node4&#45;&gt;Node5 -->
<g id="edge4" class="edge">
<title>Node4&#45;&gt;Node5</title>
<path fill="none" stroke="midnightblue" d="M818.31,-170.5C847.29,-176.16 880.46,-182.64 910.32,-188.47"/>
<polygon fill="midnightblue" stroke="midnightblue" points="909.82,-191.94 920.3,-190.42 911.16,-185.07 909.82,-191.94"/>
</g>
<!-- Node4&#45;&gt;Node7 -->
<g id="edge6" class="edge">
<title>Node4&#45;&gt;Node7</title>
<path fill="none" stroke="midnightblue" d="M818.31,-141.1C847.42,-135.64 880.76,-129.39 910.72,-123.77"/>
<polygon fill="midnightblue" stroke="midnightblue" points="911.56,-127.17 920.75,-121.89 910.27,-120.29 911.56,-127.17"/>
</g>
<!-- Node8 -->
<g id="node8" class="node">
<title>Node8</title>
<g id="a_node8"><a xlink:href="../../d4/d2b/classjavolution_1_1util_1_1internal_1_1collection_1_1ReadWriteLockImpl_1_1ReadLock.html#a3cb27e8dc3ce552b919ef856788b0132" target="_top" xlink:title=" ">
<polygon fill="white" stroke="black" points="900,-141.5 900,-171.5 1097,-171.5 1097,-141.5 900,-141.5"/>
<text text-anchor="start" x="908" y="-159.5" font-family="Helvetica,sans-Serif" font-size="10.00">javolution.util.internal.collection.</text>
<text text-anchor="middle" x="998.5" y="-148.5" font-family="Helvetica,sans-Serif" font-size="10.00">ReadWriteLockImpl.ReadLock.unlock</text>
</a>
</g>
</g>
<!-- Node4&#45;&gt;Node8 -->
<g id="edge7" class="edge">
<title>Node4&#45;&gt;Node8</title>
<path fill="none" stroke="midnightblue" d="M818.31,-155.8C840.73,-155.89 865.66,-155.99 889.63,-156.08"/>
<polygon fill="midnightblue" stroke="midnightblue" points="889.82,-159.58 899.83,-156.12 889.85,-152.58 889.82,-159.58"/>
</g>
<!-- Node6 -->
<g id="node6" class="node">
<title>Node6</title>
<g id="a_node6"><a xlink:href="../../d4/d2b/classjavolution_1_1util_1_1internal_1_1collection_1_1ReadWriteLockImpl_1_1ReadLock.html#ab0f1ccdff1bb66a07d0f6bfd1d54170f" target="_top" xlink:title=" ">
<polygon fill="white" stroke="black" points="1133,-190.5 1133,-220.5 1378,-220.5 1378,-190.5 1133,-190.5"/>
<text text-anchor="start" x="1141" y="-208.5" font-family="Helvetica,sans-Serif" font-size="10.00">javolution.util.internal.collection.</text>
<text text-anchor="middle" x="1255.5" y="-197.5" font-family="Helvetica,sans-Serif" font-size="10.00">ReadWriteLockImpl.ReadLock.lockInterruptibly</text>
</a>
</g>
</g>
<!-- Node5&#45;&gt;Node6 -->
<g id="edge5" class="edge">
<title>Node5&#45;&gt;Node6</title>
<path fill="none" stroke="midnightblue" d="M1091.2,-205.5C1101.48,-205.5 1112.1,-205.5 1122.75,-205.5"/>
<polygon fill="midnightblue" stroke="midnightblue" points="1122.97,-209 1132.97,-205.5 1122.97,-202 1122.97,-209"/>
</g>
<!-- Node10 -->
<g id="node10" class="node">
<title>Node10</title>
<g id="a_node10"><a xlink:href="../../d8/dd0/classjavolution_1_1util_1_1internal_1_1collection_1_1ReadWriteLockImpl_1_1WriteLock.html#a625ca30a859c35e6657a2a0464e893b7" target="_top" xlink:title=" ">
<polygon fill="white" stroke="black" points="617,-49.5 617,-79.5 864,-79.5 864,-49.5 617,-49.5"/>
<text text-anchor="start" x="625" y="-67.5" font-family="Helvetica,sans-Serif" font-size="10.00">javolution.util.internal.collection.</text>
<text text-anchor="middle" x="740.5" y="-56.5" font-family="Helvetica,sans-Serif" font-size="10.00">ReadWriteLockImpl.WriteLock.lockInterruptibly</text>
</a>
</g>
</g>
<!-- Node9&#45;&gt;Node10 -->
<g id="edge9" class="edge">
<title>Node9&#45;&gt;Node10</title>
<path fill="none" stroke="midnightblue" d="M575.28,-64.5C585.52,-64.5 596.1,-64.5 606.71,-64.5"/>
<polygon fill="midnightblue" stroke="midnightblue" points="606.88,-68 616.88,-64.5 606.88,-61 606.88,-68"/>
</g>
</g>
</svg>
