<?xml version="1.0" encoding="UTF-8" standalone="no"?>
<!DOCTYPE svg PUBLIC "-//W3C//DTD SVG 1.1//EN"
 "http://www.w3.org/Graphics/SVG/1.1/DTD/svg11.dtd">
<!-- Generated by graphviz version 2.43.0 (0)
 -->
<!-- Title: javolution.util.internal.map.FractalMapImpl.getEntry Pages: 1 -->
<svg width="348pt" height="186pt"
 viewBox="0.00 0.00 348.00 186.00" xmlns="http://www.w3.org/2000/svg" xmlns:xlink="http://www.w3.org/1999/xlink">
<g id="graph0" class="graph" transform="scale(1 1) rotate(0) translate(4 182)">
<title>javolution.util.internal.map.FractalMapImpl.getEntry</title>
<polygon fill="white" stroke="transparent" points="-4,4 -4,-182 344,-182 344,4 -4,4"/>
<!-- Node1 -->
<g id="node1" class="node">
<title>Node1</title>
<g id="a_node1"><a xlink:title=" ">
<polygon fill="#bfbfbf" stroke="black" points="188,-73.5 188,-103.5 340,-103.5 340,-73.5 188,-73.5"/>
<text text-anchor="start" x="196" y="-91.5" font-family="Helvetica,sans-Serif" font-size="10.00">javolution.util.internal.map.</text>
<text text-anchor="middle" x="264" y="-80.5" font-family="Helvetica,sans-Serif" font-size="10.00">FractalMapImpl.getEntry</text>
</a>
</g>
</g>
<!-- Node2 -->
<g id="node2" class="node">
<title>Node2</title>
<g id="a_node2"><a xlink:href="../../dd/d8f/classjavolution_1_1util_1_1internal_1_1map_1_1FastMapImpl.html#a08eab5d72f9a0c0882f923390ba1f8f4" target="_top" xlink:title=" ">
<polygon fill="white" stroke="black" points="0,-147.5 0,-177.5 152,-177.5 152,-147.5 0,-147.5"/>
<text text-anchor="start" x="8" y="-165.5" font-family="Helvetica,sans-Serif" font-size="10.00">javolution.util.internal.map.</text>
<text text-anchor="middle" x="76" y="-154.5" font-family="Helvetica,sans-Serif" font-size="10.00">FastMapImpl.containsKey</text>
</a>
</g>
</g>
<!-- Node1&#45;&gt;Node2 -->
<g id="edge1" class="edge">
<title>Node1&#45;&gt;Node2</title>
<path fill="none" stroke="midnightblue" d="M222.63,-108.02C201.78,-117.75 175.79,-129.37 152,-138.5 143.96,-141.59 135.33,-144.61 126.9,-147.41"/>
<polygon fill="midnightblue" stroke="midnightblue" points="224.27,-111.11 231.82,-103.69 221.29,-104.78 224.27,-111.11"/>
</g>
<!-- Node3 -->
<g id="node3" class="node">
<title>Node3</title>
<g id="a_node3"><a xlink:href="../../dd/d8f/classjavolution_1_1util_1_1internal_1_1map_1_1FastMapImpl.html#a58cd9b5ba11a349b2dce7f79af90f9e4" target="_top" xlink:title=" ">
<polygon fill="white" stroke="black" points="0,-98.5 0,-128.5 152,-128.5 152,-98.5 0,-98.5"/>
<text text-anchor="start" x="8" y="-116.5" font-family="Helvetica,sans-Serif" font-size="10.00">javolution.util.internal.map.</text>
<text text-anchor="middle" x="76" y="-105.5" font-family="Helvetica,sans-Serif" font-size="10.00">FastMapImpl.get</text>
</a>
</g>
</g>
<!-- Node1&#45;&gt;Node3 -->
<g id="edge2" class="edge">
<title>Node1&#45;&gt;Node3</title>
<path fill="none" stroke="midnightblue" d="M177.85,-99.94C169.26,-101.1 160.57,-102.27 152.1,-103.41"/>
<polygon fill="midnightblue" stroke="midnightblue" points="178.44,-103.4 187.88,-98.6 177.51,-96.46 178.44,-103.4"/>
</g>
<!-- Node4 -->
<g id="node4" class="node">
<title>Node4</title>
<g id="a_node4"><a xlink:href="../../dd/d8f/classjavolution_1_1util_1_1internal_1_1map_1_1FastMapImpl.html#a4b256a0fc3f7f5a54b0e1268dc9c7824" target="_top" xlink:title=" ">
<polygon fill="white" stroke="black" points="0,-49.5 0,-79.5 152,-79.5 152,-49.5 0,-49.5"/>
<text text-anchor="start" x="8" y="-67.5" font-family="Helvetica,sans-Serif" font-size="10.00">javolution.util.internal.map.</text>
<text text-anchor="middle" x="76" y="-56.5" font-family="Helvetica,sans-Serif" font-size="10.00">FastMapImpl.remove</text>
</a>
</g>
</g>
<!-- Node1&#45;&gt;Node4 -->
<g id="edge3" class="edge">
<title>Node1&#45;&gt;Node4</title>
<path fill="none" stroke="midnightblue" d="M177.85,-77.51C169.26,-76.4 160.57,-75.28 152.1,-74.19"/>
<polygon fill="midnightblue" stroke="midnightblue" points="177.52,-81 187.88,-78.81 178.41,-74.06 177.52,-81"/>
</g>
<!-- Node5 -->
<g id="node5" class="node">
<title>Node5</title>
<g id="a_node5"><a xlink:href="../../dd/d8f/classjavolution_1_1util_1_1internal_1_1map_1_1FastMapImpl.html#ab725f9058a685ad7e50b83fe0da8de82" target="_top" xlink:title=" ">
<polygon fill="white" stroke="black" points="0,-0.5 0,-30.5 152,-30.5 152,-0.5 0,-0.5"/>
<text text-anchor="start" x="8" y="-18.5" font-family="Helvetica,sans-Serif" font-size="10.00">javolution.util.internal.map.</text>
<text text-anchor="middle" x="76" y="-7.5" font-family="Helvetica,sans-Serif" font-size="10.00">FastMapImpl.replace</text>
</a>
</g>
</g>
<!-- Node1&#45;&gt;Node5 -->
<g id="edge4" class="edge">
<title>Node1&#45;&gt;Node5</title>
<path fill="none" stroke="midnightblue" d="M220.87,-69.26C200.28,-60.12 175.03,-49.3 152,-40.5 143.15,-37.12 133.63,-33.75 124.43,-30.62"/>
<polygon fill="midnightblue" stroke="midnightblue" points="219.72,-72.58 230.28,-73.46 222.58,-66.19 219.72,-72.58"/>
</g>
</g>
</svg>
