<?xml version="1.0" encoding="UTF-8" standalone="no"?>
<!DOCTYPE svg PUBLIC "-//W3C//DTD SVG 1.1//EN"
 "http://www.w3.org/Graphics/SVG/1.1/DTD/svg11.dtd">
<!-- Generated by graphviz version 2.43.0 (0)
 -->
<!-- Title: javolution.text.CharArray.indexOf Pages: 1 -->
<svg width="1459pt" height="301pt"
 viewBox="0.00 0.00 1459.00 301.00" xmlns="http://www.w3.org/2000/svg" xmlns:xlink="http://www.w3.org/1999/xlink">
<g id="graph0" class="graph" transform="scale(1 1) rotate(0) translate(4 297)">
<title>javolution.text.CharArray.indexOf</title>
<polygon fill="white" stroke="transparent" points="-4,4 -4,-297 1455,-297 1455,4 -4,4"/>
<!-- Node1 -->
<g id="node1" class="node">
<title>Node1</title>
<g id="a_node1"><a xlink:title=" ">
<polygon fill="#bfbfbf" stroke="black" points="1272,-202 1272,-221 1451,-221 1451,-202 1272,-202"/>
<text text-anchor="middle" x="1361.5" y="-209" font-family="Helvetica,sans-Serif" font-size="10.00">javolution.text.CharArray.indexOf</text>
</a>
</g>
</g>
<!-- Node2 -->
<g id="node2" class="node">
<title>Node2</title>
<g id="a_node2"><a xlink:href="../../d0/d65/classjavolution_1_1xml_1_1internal_1_1stream_1_1XMLStreamReaderImpl.html#a6ddf8d2bcaa0a153f5162412e5465eee" target="_top" xlink:title=" ">
<polygon fill="white" stroke="black" points="1032.5,-196.5 1032.5,-226.5 1212.5,-226.5 1212.5,-196.5 1032.5,-196.5"/>
<text text-anchor="start" x="1040.5" y="-214.5" font-family="Helvetica,sans-Serif" font-size="10.00">javolution.xml.internal.stream.</text>
<text text-anchor="middle" x="1122.5" y="-203.5" font-family="Helvetica,sans-Serif" font-size="10.00">XMLStreamReaderImpl.getPIData</text>
</a>
</g>
</g>
<!-- Node1&#45;&gt;Node2 -->
<g id="edge1" class="edge">
<title>Node1&#45;&gt;Node2</title>
<path fill="none" stroke="midnightblue" d="M1261.86,-211.5C1245.58,-211.5 1228.8,-211.5 1212.77,-211.5"/>
<polygon fill="midnightblue" stroke="midnightblue" points="1261.91,-215 1271.91,-211.5 1261.91,-208 1261.91,-215"/>
</g>
<!-- Node8 -->
<g id="node8" class="node">
<title>Node8</title>
<g id="a_node8"><a xlink:href="../../d0/d65/classjavolution_1_1xml_1_1internal_1_1stream_1_1XMLStreamReaderImpl.html#a239bb6045636040c14e9ab4f9ab619d9" target="_top" xlink:title=" ">
<polygon fill="white" stroke="black" points="1029,-245.5 1029,-275.5 1216,-275.5 1216,-245.5 1029,-245.5"/>
<text text-anchor="start" x="1037" y="-263.5" font-family="Helvetica,sans-Serif" font-size="10.00">javolution.xml.internal.stream.</text>
<text text-anchor="middle" x="1122.5" y="-252.5" font-family="Helvetica,sans-Serif" font-size="10.00">XMLStreamReaderImpl.getPITarget</text>
</a>
</g>
</g>
<!-- Node1&#45;&gt;Node8 -->
<g id="edge7" class="edge">
<title>Node1&#45;&gt;Node8</title>
<path fill="none" stroke="midnightblue" d="M1304.36,-223.11C1272.07,-229.78 1231.15,-238.24 1196.4,-245.43"/>
<polygon fill="midnightblue" stroke="midnightblue" points="1305.44,-226.46 1314.52,-221.01 1304.02,-219.6 1305.44,-226.46"/>
</g>
<!-- Node9 -->
<g id="node9" class="node">
<title>Node9</title>
<g id="a_node9"><a xlink:href="../../d0/d65/classjavolution_1_1xml_1_1internal_1_1stream_1_1XMLStreamReaderImpl.html#aae420328587f7e834ac5dfeb414ba461" target="_top" xlink:title=" ">
<polygon fill="white" stroke="black" points="1009,-98.5 1009,-128.5 1236,-128.5 1236,-98.5 1009,-98.5"/>
<text text-anchor="start" x="1017" y="-116.5" font-family="Helvetica,sans-Serif" font-size="10.00">javolution.xml.internal.stream.</text>
<text text-anchor="middle" x="1122.5" y="-105.5" font-family="Helvetica,sans-Serif" font-size="10.00">XMLStreamReaderImpl.readPrologAttribute</text>
</a>
</g>
</g>
<!-- Node1&#45;&gt;Node9 -->
<g id="edge9" class="edge">
<title>Node1&#45;&gt;Node9</title>
<path fill="none" stroke="midnightblue" d="M1327.98,-198.05C1283.97,-179.86 1205.71,-147.49 1159.83,-128.52"/>
<polygon fill="midnightblue" stroke="midnightblue" points="1326.77,-201.34 1337.34,-201.92 1329.44,-194.87 1326.77,-201.34"/>
</g>
<!-- Node3 -->
<g id="node3" class="node">
<title>Node3</title>
<g id="a_node3"><a xlink:href="../../d6/d79/classjavolution_1_1xml_1_1sax_1_1XMLReaderImpl.html#a7060e3d22c1cb128897bfc57a7e0cc64" target="_top" xlink:title=" ">
<polygon fill="white" stroke="black" points="751,-245.5 751,-275.5 917,-275.5 917,-245.5 751,-245.5"/>
<text text-anchor="start" x="759" y="-263.5" font-family="Helvetica,sans-Serif" font-size="10.00">javolution.xml.sax.XMLReader</text>
<text text-anchor="middle" x="834" y="-252.5" font-family="Helvetica,sans-Serif" font-size="10.00">Impl.parseAll</text>
</a>
</g>
</g>
<!-- Node2&#45;&gt;Node3 -->
<g id="edge2" class="edge">
<title>Node2&#45;&gt;Node3</title>
<path fill="none" stroke="midnightblue" d="M1023.49,-228.26C988.94,-234.17 950.48,-240.75 917.36,-246.41"/>
<polygon fill="midnightblue" stroke="midnightblue" points="1024.33,-231.67 1033.59,-226.53 1023.15,-224.77 1024.33,-231.67"/>
</g>
<!-- Node7 -->
<g id="node7" class="node">
<title>Node7</title>
<g id="a_node7"><a xlink:href="../../d0/d65/classjavolution_1_1xml_1_1internal_1_1stream_1_1XMLStreamReaderImpl.html#a5e11adbb1f420b45116c6412caf6ccf1" target="_top" xlink:title=" ">
<polygon fill="white" stroke="black" points="748,-196.5 748,-226.5 920,-226.5 920,-196.5 748,-196.5"/>
<text text-anchor="start" x="756" y="-214.5" font-family="Helvetica,sans-Serif" font-size="10.00">javolution.xml.internal.stream.</text>
<text text-anchor="middle" x="834" y="-203.5" font-family="Helvetica,sans-Serif" font-size="10.00">XMLStreamReaderImpl.setInput</text>
</a>
</g>
</g>
<!-- Node2&#45;&gt;Node7 -->
<g id="edge6" class="edge">
<title>Node2&#45;&gt;Node7</title>
<path fill="none" stroke="midnightblue" d="M1022.22,-211.5C988.95,-211.5 952.19,-211.5 920.11,-211.5"/>
<polygon fill="midnightblue" stroke="midnightblue" points="1022.42,-215 1032.42,-211.5 1022.42,-208 1022.42,-215"/>
</g>
<!-- Node4 -->
<g id="node4" class="node">
<title>Node4</title>
<g id="a_node4"><a xlink:href="../../d6/d79/classjavolution_1_1xml_1_1sax_1_1XMLReaderImpl.html#af59c6a5e7282b94dea9be9452f9c945e" target="_top" xlink:title=" ">
<polygon fill="white" stroke="black" points="246,-238.5 246,-268.5 412,-268.5 412,-238.5 246,-238.5"/>
<text text-anchor="start" x="254" y="-256.5" font-family="Helvetica,sans-Serif" font-size="10.00">javolution.xml.sax.XMLReader</text>
<text text-anchor="middle" x="329" y="-245.5" font-family="Helvetica,sans-Serif" font-size="10.00">Impl.parse</text>
</a>
</g>
</g>
<!-- Node3&#45;&gt;Node4 -->
<g id="edge3" class="edge">
<title>Node3&#45;&gt;Node4</title>
<path fill="none" stroke="midnightblue" d="M740.72,-259.22C646.74,-257.91 502.39,-255.9 412.22,-254.64"/>
<polygon fill="midnightblue" stroke="midnightblue" points="740.74,-262.72 750.78,-259.36 740.83,-255.72 740.74,-262.72"/>
</g>
<!-- Node5 -->
<g id="node5" class="node">
<title>Node5</title>
<g id="a_node5"><a xlink:href="../../d5/de1/classjavolution_1_1xml_1_1sax_1_1SAX2ReaderImpl.html#ac88f97df2622809ba9f127e173f20f17" target="_top" xlink:title=" ">
<polygon fill="white" stroke="black" points="0,-262.5 0,-292.5 171,-292.5 171,-262.5 0,-262.5"/>
<text text-anchor="start" x="8" y="-280.5" font-family="Helvetica,sans-Serif" font-size="10.00">javolution.xml.sax.SAX2Reader</text>
<text text-anchor="middle" x="85.5" y="-269.5" font-family="Helvetica,sans-Serif" font-size="10.00">Impl.parse</text>
</a>
</g>
</g>
<!-- Node4&#45;&gt;Node5 -->
<g id="edge4" class="edge">
<title>Node4&#45;&gt;Node5</title>
<path fill="none" stroke="midnightblue" d="M235.91,-262.65C214.67,-264.76 192.17,-267 171.25,-269.08"/>
<polygon fill="midnightblue" stroke="midnightblue" points="236.3,-266.13 245.9,-261.66 235.6,-259.16 236.3,-266.13"/>
</g>
<!-- Node6 -->
<g id="node6" class="node">
<title>Node6</title>
<g id="a_node6"><a xlink:href="../../d6/d79/classjavolution_1_1xml_1_1sax_1_1XMLReaderImpl.html#a255e7cbc9ce8eced22fae7c8138b6cfb" target="_top" xlink:title=" ">
<polygon fill="white" stroke="black" points="2.5,-213.5 2.5,-243.5 168.5,-243.5 168.5,-213.5 2.5,-213.5"/>
<text text-anchor="start" x="10.5" y="-231.5" font-family="Helvetica,sans-Serif" font-size="10.00">javolution.xml.sax.XMLReader</text>
<text text-anchor="middle" x="85.5" y="-220.5" font-family="Helvetica,sans-Serif" font-size="10.00">Impl.parse</text>
</a>
</g>
</g>
<!-- Node4&#45;&gt;Node6 -->
<g id="edge5" class="edge">
<title>Node4&#45;&gt;Node6</title>
<path fill="none" stroke="midnightblue" d="M235.87,-243.96C213.8,-241.68 190.37,-239.25 168.78,-237.02"/>
<polygon fill="midnightblue" stroke="midnightblue" points="235.59,-247.45 245.9,-245 236.32,-240.49 235.59,-247.45"/>
</g>
<!-- Node8&#45;&gt;Node3 -->
<g id="edge8" class="edge">
<title>Node8&#45;&gt;Node3</title>
<path fill="none" stroke="midnightblue" d="M1018.64,-260.5C985.3,-260.5 948.78,-260.5 917.16,-260.5"/>
<polygon fill="midnightblue" stroke="midnightblue" points="1018.88,-264 1028.88,-260.5 1018.88,-257 1018.88,-264"/>
</g>
<!-- Node10 -->
<g id="node10" class="node">
<title>Node10</title>
<g id="a_node10"><a xlink:href="../../d0/d65/classjavolution_1_1xml_1_1internal_1_1stream_1_1XMLStreamReaderImpl.html#aec1f4b4e9e23caa8325d9f748092b6e0" target="_top" xlink:title=" ">
<polygon fill="white" stroke="black" points="695,-147.5 695,-177.5 973,-177.5 973,-147.5 695,-147.5"/>
<text text-anchor="start" x="703" y="-165.5" font-family="Helvetica,sans-Serif" font-size="10.00">javolution.xml.internal.stream.</text>
<text text-anchor="middle" x="834" y="-154.5" font-family="Helvetica,sans-Serif" font-size="10.00">XMLStreamReaderImpl.getCharacterEncodingScheme</text>
</a>
</g>
</g>
<!-- Node9&#45;&gt;Node10 -->
<g id="edge10" class="edge">
<title>Node9&#45;&gt;Node10</title>
<path fill="none" stroke="midnightblue" d="M1023.56,-130.25C990.85,-135.84 954.63,-142.04 922.74,-147.49"/>
<polygon fill="midnightblue" stroke="midnightblue" points="1024.33,-133.67 1033.59,-128.53 1023.15,-126.77 1024.33,-133.67"/>
</g>
<!-- Node14 -->
<g id="node14" class="node">
<title>Node14</title>
<g id="a_node14"><a xlink:href="../../d0/d65/classjavolution_1_1xml_1_1internal_1_1stream_1_1XMLStreamReaderImpl.html#a12ccdb24bd160fa164a7630ba9444f1c" target="_top" xlink:title=" ">
<polygon fill="white" stroke="black" points="742,-98.5 742,-128.5 926,-128.5 926,-98.5 742,-98.5"/>
<text text-anchor="start" x="750" y="-116.5" font-family="Helvetica,sans-Serif" font-size="10.00">javolution.xml.internal.stream.</text>
<text text-anchor="middle" x="834" y="-105.5" font-family="Helvetica,sans-Serif" font-size="10.00">XMLStreamReaderImpl.getVersion</text>
</a>
</g>
</g>
<!-- Node9&#45;&gt;Node14 -->
<g id="edge15" class="edge">
<title>Node9&#45;&gt;Node14</title>
<path fill="none" stroke="midnightblue" d="M998.66,-113.5C974.3,-113.5 949.14,-113.5 926.06,-113.5"/>
<polygon fill="midnightblue" stroke="midnightblue" points="998.68,-117 1008.68,-113.5 998.68,-110 998.68,-117"/>
</g>
<!-- Node15 -->
<g id="node15" class="node">
<title>Node15</title>
<g id="a_node15"><a xlink:href="../../d0/d65/classjavolution_1_1xml_1_1internal_1_1stream_1_1XMLStreamReaderImpl.html#a4bbf3c07c73f027daf7dc039577e0902" target="_top" xlink:title=" ">
<polygon fill="white" stroke="black" points="736.5,-49.5 736.5,-79.5 931.5,-79.5 931.5,-49.5 736.5,-49.5"/>
<text text-anchor="start" x="744.5" y="-67.5" font-family="Helvetica,sans-Serif" font-size="10.00">javolution.xml.internal.stream.</text>
<text text-anchor="middle" x="834" y="-56.5" font-family="Helvetica,sans-Serif" font-size="10.00">XMLStreamReaderImpl.isStandalone</text>
</a>
</g>
</g>
<!-- Node9&#45;&gt;Node15 -->
<g id="edge16" class="edge">
<title>Node9&#45;&gt;Node15</title>
<path fill="none" stroke="midnightblue" d="M1023.56,-96.75C990.85,-91.16 954.63,-84.96 922.74,-79.51"/>
<polygon fill="midnightblue" stroke="midnightblue" points="1023.15,-100.23 1033.59,-98.47 1024.33,-93.33 1023.15,-100.23"/>
</g>
<!-- Node16 -->
<g id="node16" class="node">
<title>Node16</title>
<g id="a_node16"><a xlink:href="../../d0/d65/classjavolution_1_1xml_1_1internal_1_1stream_1_1XMLStreamReaderImpl.html#a1a5895d880a3635ce891b8d8f1b2bc2b" target="_top" xlink:title=" ">
<polygon fill="white" stroke="black" points="733,-0.5 733,-30.5 935,-30.5 935,-0.5 733,-0.5"/>
<text text-anchor="start" x="741" y="-18.5" font-family="Helvetica,sans-Serif" font-size="10.00">javolution.xml.internal.stream.</text>
<text text-anchor="middle" x="834" y="-7.5" font-family="Helvetica,sans-Serif" font-size="10.00">XMLStreamReaderImpl.standaloneSet</text>
</a>
</g>
</g>
<!-- Node9&#45;&gt;Node16 -->
<g id="edge17" class="edge">
<title>Node9&#45;&gt;Node16</title>
<path fill="none" stroke="midnightblue" d="M1087.99,-93.26C1058.65,-76.42 1014.36,-53.08 973,-39.5 960.99,-35.56 948.16,-32.22 935.34,-29.42"/>
<polygon fill="midnightblue" stroke="midnightblue" points="1086.56,-96.48 1096.96,-98.48 1090.08,-90.43 1086.56,-96.48"/>
</g>
<!-- Node11 -->
<g id="node11" class="node">
<title>Node11</title>
<g id="a_node11"><a xlink:href="../../d0/d65/classjavolution_1_1xml_1_1internal_1_1stream_1_1XMLStreamReaderImpl.html#a8c07fcbcd43edd5092dfbf69089b5234" target="_top" xlink:title=" ">
<polygon fill="white" stroke="black" points="487,-171.5 487,-201.5 659,-201.5 659,-171.5 487,-171.5"/>
<text text-anchor="start" x="495" y="-189.5" font-family="Helvetica,sans-Serif" font-size="10.00">javolution.xml.internal.stream.</text>
<text text-anchor="middle" x="573" y="-178.5" font-family="Helvetica,sans-Serif" font-size="10.00">XMLStreamReaderImpl.setInput</text>
</a>
</g>
</g>
<!-- Node10&#45;&gt;Node11 -->
<g id="edge11" class="edge">
<title>Node10&#45;&gt;Node11</title>
<path fill="none" stroke="midnightblue" d="M684.64,-176.25C676.04,-177.04 667.56,-177.83 659.34,-178.59"/>
<polygon fill="midnightblue" stroke="midnightblue" points="685.15,-179.72 694.78,-175.31 684.5,-172.75 685.15,-179.72"/>
</g>
<!-- Node11&#45;&gt;Node4 -->
<g id="edge13" class="edge">
<title>Node11&#45;&gt;Node4</title>
<path fill="none" stroke="midnightblue" d="M513.2,-204.49C493.47,-210.39 471.33,-216.87 451,-222.5 431.46,-227.91 410.05,-233.5 390.75,-238.42"/>
<polygon fill="midnightblue" stroke="midnightblue" points="514.39,-207.78 522.96,-201.55 512.38,-201.08 514.39,-207.78"/>
</g>
<!-- Node12 -->
<g id="node12" class="node">
<title>Node12</title>
<g id="a_node12"><a xlink:href="../../d9/d23/classjavolution_1_1xml_1_1internal_1_1stream_1_1XMLInputFactoryImpl.html#a75b218c412defa9de11acde243414e73" target="_top" xlink:title=" ">
<polygon fill="white" stroke="black" points="207,-183.5 207,-213.5 451,-213.5 451,-183.5 207,-183.5"/>
<text text-anchor="start" x="215" y="-201.5" font-family="Helvetica,sans-Serif" font-size="10.00">javolution.xml.internal.stream.</text>
<text text-anchor="middle" x="329" y="-190.5" font-family="Helvetica,sans-Serif" font-size="10.00">XMLInputFactoryImpl.createXMLStreamReader</text>
</a>
</g>
</g>
<!-- Node11&#45;&gt;Node12 -->
<g id="edge12" class="edge">
<title>Node11&#45;&gt;Node12</title>
<path fill="none" stroke="midnightblue" d="M476.54,-191.23C468.15,-191.65 459.59,-192.07 451.02,-192.5"/>
<polygon fill="midnightblue" stroke="midnightblue" points="476.87,-194.72 486.68,-190.73 476.52,-187.73 476.87,-194.72"/>
</g>
<!-- Node13 -->
<g id="node13" class="node">
<title>Node13</title>
<g id="a_node13"><a xlink:href="../../d0/d65/classjavolution_1_1xml_1_1internal_1_1stream_1_1XMLStreamReaderImpl.html#aee8c1ea975e36aaa3d5f3ee31c15c02f" target="_top" xlink:title=" ">
<polygon fill="white" stroke="black" points="243,-134.5 243,-164.5 415,-164.5 415,-134.5 243,-134.5"/>
<text text-anchor="start" x="251" y="-152.5" font-family="Helvetica,sans-Serif" font-size="10.00">javolution.xml.internal.stream.</text>
<text text-anchor="middle" x="329" y="-141.5" font-family="Helvetica,sans-Serif" font-size="10.00">XMLStreamReaderImpl.setInput</text>
</a>
</g>
</g>
<!-- Node11&#45;&gt;Node13 -->
<g id="edge14" class="edge">
<title>Node11&#45;&gt;Node13</title>
<path fill="none" stroke="midnightblue" d="M476.54,-171.91C456.35,-168.82 435.16,-165.58 415.37,-162.55"/>
<polygon fill="midnightblue" stroke="midnightblue" points="476.27,-175.4 486.68,-173.46 477.32,-168.48 476.27,-175.4"/>
</g>
</g>
</svg>
