<?xml version="1.0" encoding="UTF-8" standalone="no"?>
<!DOCTYPE svg PUBLIC "-//W3C//DTD SVG 1.1//EN"
 "http://www.w3.org/Graphics/SVG/1.1/DTD/svg11.dtd">
<!-- Generated by graphviz version 2.43.0 (0)
 -->
<!-- Title: javolution.text.CharArray.toDouble Pages: 1 -->
<svg width="1129pt" height="100pt"
 viewBox="0.00 0.00 1129.00 99.50" xmlns="http://www.w3.org/2000/svg" xmlns:xlink="http://www.w3.org/1999/xlink">
<g id="graph0" class="graph" transform="scale(1 1) rotate(0) translate(4 95.5)">
<title>javolution.text.CharArray.toDouble</title>
<polygon fill="white" stroke="transparent" points="-4,4 -4,-95.5 1125,-95.5 1125,4 -4,4"/>
<!-- Node1 -->
<g id="node1" class="node">
<title>Node1</title>
<g id="a_node1"><a xlink:title=" ">
<polygon fill="#bfbfbf" stroke="black" points="0,-44.5 0,-74.5 151,-74.5 151,-44.5 0,-44.5"/>
<text text-anchor="start" x="8" y="-62.5" font-family="Helvetica,sans-Serif" font-size="10.00">javolution.text.CharArray.to</text>
<text text-anchor="middle" x="75.5" y="-51.5" font-family="Helvetica,sans-Serif" font-size="10.00">Double</text>
</a>
</g>
</g>
<!-- Node2 -->
<g id="node2" class="node">
<title>Node2</title>
<g id="a_node2"><a xlink:href="../../d2/d86/classjavolution_1_1text_1_1TypeFormat.html#ab24656881d415e357f45b6900f43fff2" target="_top" xlink:title=" ">
<polygon fill="white" stroke="black" points="187,-44.5 187,-74.5 365,-74.5 365,-44.5 187,-44.5"/>
<text text-anchor="start" x="195" y="-62.5" font-family="Helvetica,sans-Serif" font-size="10.00">javolution.text.TypeFormat.parse</text>
<text text-anchor="middle" x="276" y="-51.5" font-family="Helvetica,sans-Serif" font-size="10.00">Double</text>
</a>
</g>
</g>
<!-- Node1&#45;&gt;Node2 -->
<g id="edge1" class="edge">
<title>Node1&#45;&gt;Node2</title>
<path fill="none" stroke="midnightblue" d="M151.26,-59.5C159.63,-59.5 168.26,-59.5 176.87,-59.5"/>
<polygon fill="midnightblue" stroke="midnightblue" points="176.95,-63 186.95,-59.5 176.95,-56 176.95,-63"/>
</g>
<!-- Node3 -->
<g id="node3" class="node">
<title>Node3</title>
<g id="a_node3"><a xlink:href="../../d2/d86/classjavolution_1_1text_1_1TypeFormat.html#a4b7437436351f42d7bc6af036ea21f2f" target="_top" xlink:title=" ">
<polygon fill="white" stroke="black" points="401,-72 401,-91 583,-91 583,-72 401,-72"/>
<text text-anchor="middle" x="492" y="-79" font-family="Helvetica,sans-Serif" font-size="10.00">javolution.text.TypeFormat.match</text>
</a>
</g>
</g>
<!-- Node2&#45;&gt;Node3 -->
<g id="edge2" class="edge">
<title>Node2&#45;&gt;Node3</title>
<path fill="none" stroke="midnightblue" d="M365.28,-68.58C373.72,-69.44 382.32,-70.33 390.86,-71.21"/>
<polygon fill="midnightblue" stroke="midnightblue" points="390.54,-74.69 400.85,-72.23 391.26,-67.73 390.54,-74.69"/>
</g>
<!-- Node4 -->
<g id="node4" class="node">
<title>Node4</title>
<g id="a_node4"><a xlink:href="../../d4/d14/classjavolution_1_1lang_1_1MathLib.html#a5f4e3f66673eead84cc1e6d0b17354b4" target="_top" xlink:title=" ">
<polygon fill="white" stroke="black" points="420,-22.5 420,-52.5 564,-52.5 564,-22.5 420,-22.5"/>
<text text-anchor="start" x="428" y="-40.5" font-family="Helvetica,sans-Serif" font-size="10.00">javolution.lang.MathLib.to</text>
<text text-anchor="middle" x="492" y="-29.5" font-family="Helvetica,sans-Serif" font-size="10.00">DoublePow10</text>
</a>
</g>
</g>
<!-- Node2&#45;&gt;Node4 -->
<g id="edge3" class="edge">
<title>Node2&#45;&gt;Node4</title>
<path fill="none" stroke="midnightblue" d="M365.28,-50.42C380.06,-48.91 395.33,-47.34 409.92,-45.84"/>
<polygon fill="midnightblue" stroke="midnightblue" points="410.3,-49.31 419.89,-44.81 409.59,-42.35 410.3,-49.31"/>
</g>
<!-- Node5 -->
<g id="node5" class="node">
<title>Node5</title>
<g id="a_node5"><a xlink:href="../../d4/d14/classjavolution_1_1lang_1_1MathLib.html#a0ec25ae04f72c11735c2ba9384e87274" target="_top" xlink:title=" ">
<polygon fill="white" stroke="black" points="801.5,-44.5 801.5,-74.5 948.5,-74.5 948.5,-44.5 801.5,-44.5"/>
<text text-anchor="start" x="809.5" y="-62.5" font-family="Helvetica,sans-Serif" font-size="10.00">javolution.lang.MathLib.bit</text>
<text text-anchor="middle" x="875" y="-51.5" font-family="Helvetica,sans-Serif" font-size="10.00">Length</text>
</a>
</g>
</g>
<!-- Node4&#45;&gt;Node5 -->
<g id="edge4" class="edge">
<title>Node4&#45;&gt;Node5</title>
<path fill="none" stroke="midnightblue" d="M564.22,-41.61C628.54,-45.33 723.24,-50.79 790.98,-54.71"/>
<polygon fill="midnightblue" stroke="midnightblue" points="791,-58.21 801.19,-55.3 791.41,-51.22 791,-58.21"/>
</g>
<!-- Node6 -->
<g id="node6" class="node">
<title>Node6</title>
<g id="a_node6"><a xlink:href="../../d4/d14/classjavolution_1_1lang_1_1MathLib.html#a0c8756381acc8208279b93aae059d01f" target="_top" xlink:title=" ">
<polygon fill="white" stroke="black" points="619,-0.5 619,-30.5 763,-30.5 763,-0.5 619,-0.5"/>
<text text-anchor="start" x="627" y="-18.5" font-family="Helvetica,sans-Serif" font-size="10.00">javolution.lang.MathLib.to</text>
<text text-anchor="middle" x="691" y="-7.5" font-family="Helvetica,sans-Serif" font-size="10.00">DoublePow2</text>
</a>
</g>
</g>
<!-- Node4&#45;&gt;Node6 -->
<g id="edge5" class="edge">
<title>Node4&#45;&gt;Node6</title>
<path fill="none" stroke="midnightblue" d="M564.12,-29.56C578.63,-27.94 594,-26.22 608.82,-24.57"/>
<polygon fill="midnightblue" stroke="midnightblue" points="609.43,-28.02 618.98,-23.43 608.66,-21.06 609.43,-28.02"/>
</g>
<!-- Node6&#45;&gt;Node5 -->
<g id="edge6" class="edge">
<title>Node6&#45;&gt;Node5</title>
<path fill="none" stroke="midnightblue" d="M754.13,-30.52C769.56,-34.25 786.23,-38.28 802.09,-42.12"/>
<polygon fill="midnightblue" stroke="midnightblue" points="801.3,-45.53 811.85,-44.47 802.95,-38.72 801.3,-45.53"/>
</g>
<!-- Node7 -->
<g id="node7" class="node">
<title>Node7</title>
<g id="a_node7"><a xlink:href="../../d4/d14/classjavolution_1_1lang_1_1MathLib.html#a8e7d997979031d789ff07ff1b015537b" target="_top" xlink:title=" ">
<polygon fill="white" stroke="black" points="799,-6 799,-25 951,-25 951,-6 799,-6"/>
<text text-anchor="middle" x="875" y="-13" font-family="Helvetica,sans-Serif" font-size="10.00">javolution.lang.MathLib.exp</text>
</a>
</g>
</g>
<!-- Node6&#45;&gt;Node7 -->
<g id="edge7" class="edge">
<title>Node6&#45;&gt;Node7</title>
<path fill="none" stroke="midnightblue" d="M763.15,-15.5C771.6,-15.5 780.3,-15.5 788.92,-15.5"/>
<polygon fill="midnightblue" stroke="midnightblue" points="789,-19 799,-15.5 789,-12 789,-19"/>
</g>
<!-- Node8 -->
<g id="node8" class="node">
<title>Node8</title>
<g id="a_node8"><a xlink:href="../../d4/d14/classjavolution_1_1lang_1_1MathLib.html#a6c237605180b786b4eddbeb45925ccff" target="_top" xlink:title=" ">
<polygon fill="white" stroke="black" points="987,-0.5 987,-30.5 1121,-30.5 1121,-0.5 987,-0.5"/>
<text text-anchor="start" x="995" y="-18.5" font-family="Helvetica,sans-Serif" font-size="10.00">javolution.lang.MathLib.</text>
<text text-anchor="middle" x="1054" y="-7.5" font-family="Helvetica,sans-Serif" font-size="10.00">_ieee754_exp</text>
</a>
</g>
</g>
<!-- Node7&#45;&gt;Node8 -->
<g id="edge8" class="edge">
<title>Node7&#45;&gt;Node8</title>
<path fill="none" stroke="midnightblue" d="M951.06,-15.5C959.5,-15.5 968.11,-15.5 976.57,-15.5"/>
<polygon fill="midnightblue" stroke="midnightblue" points="976.79,-19 986.79,-15.5 976.79,-12 976.79,-19"/>
</g>
</g>
</svg>
