<?xml version="1.0" encoding="UTF-8" standalone="no"?>
<!DOCTYPE svg PUBLIC "-//W3C//DTD SVG 1.1//EN"
 "http://www.w3.org/Graphics/SVG/1.1/DTD/svg11.dtd">
<!-- Generated by graphviz version 2.43.0 (0)
 -->
<!-- Title: javolution.text.CharArray.subSequence Pages: 1 -->
<svg width="374pt" height="78pt"
 viewBox="0.00 0.00 374.00 77.50" xmlns="http://www.w3.org/2000/svg" xmlns:xlink="http://www.w3.org/1999/xlink">
<g id="graph0" class="graph" transform="scale(1 1) rotate(0) translate(4 73.5)">
<title>javolution.text.CharArray.subSequence</title>
<polygon fill="white" stroke="transparent" points="-4,4 -4,-73.5 370,-73.5 370,4 -4,4"/>
<!-- Node1 -->
<g id="node1" class="node">
<title>Node1</title>
<g id="a_node1"><a xlink:title=" ">
<polygon fill="#bfbfbf" stroke="black" points="0,-17 0,-47 158,-47 158,-17 0,-17"/>
<text text-anchor="start" x="8" y="-35" font-family="Helvetica,sans-Serif" font-size="10.00">javolution.text.CharArray.sub</text>
<text text-anchor="middle" x="79" y="-24" font-family="Helvetica,sans-Serif" font-size="10.00">Sequence</text>
</a>
</g>
</g>
<!-- Node2 -->
<g id="node2" class="node">
<title>Node2</title>
<g id="a_node2"><a xlink:href="../../d0/d36/classjavolution_1_1text_1_1CharArray.html#a23ea1762bb7711bf5b39f117becb251e" target="_top" xlink:title=" ">
<polygon fill="white" stroke="black" points="209.5,-39 209.5,-69 350.5,-69 350.5,-39 209.5,-39"/>
<text text-anchor="start" x="217.5" y="-57" font-family="Helvetica,sans-Serif" font-size="10.00">javolution.text.CharArray.</text>
<text text-anchor="middle" x="280" y="-46" font-family="Helvetica,sans-Serif" font-size="10.00">CharArray</text>
</a>
</g>
</g>
<!-- Node1&#45;&gt;Node2 -->
<g id="edge1" class="edge">
<title>Node1&#45;&gt;Node2</title>
<path fill="none" stroke="midnightblue" d="M158.08,-40.63C171.53,-42.12 185.53,-43.67 199.02,-45.16"/>
<polygon fill="midnightblue" stroke="midnightblue" points="198.91,-48.67 209.23,-46.29 199.68,-41.71 198.91,-48.67"/>
</g>
<!-- Node3 -->
<g id="node3" class="node">
<title>Node3</title>
<g id="a_node3"><a xlink:href="../../d0/d36/classjavolution_1_1text_1_1CharArray.html#a1206e2076e25f1e66e1458328aa22baa" target="_top" xlink:title=" ">
<polygon fill="white" stroke="black" points="194,-0.5 194,-19.5 366,-19.5 366,-0.5 194,-0.5"/>
<text text-anchor="middle" x="280" y="-7.5" font-family="Helvetica,sans-Serif" font-size="10.00">javolution.text.CharArray.length</text>
</a>
</g>
</g>
<!-- Node1&#45;&gt;Node3 -->
<g id="edge2" class="edge">
<title>Node1&#45;&gt;Node3</title>
<path fill="none" stroke="midnightblue" d="M158.08,-23.37C166.53,-22.43 175.2,-21.48 183.83,-20.52"/>
<polygon fill="midnightblue" stroke="midnightblue" points="184.36,-23.98 193.92,-19.41 183.59,-17.03 184.36,-23.98"/>
</g>
</g>
</svg>
