<?xml version="1.0" encoding="UTF-8" standalone="no"?>
<!DOCTYPE svg PUBLIC "-//W3C//DTD SVG 1.1//EN"
 "http://www.w3.org/Graphics/SVG/1.1/DTD/svg11.dtd">
<!-- Generated by graphviz version 2.43.0 (0)
 -->
<!-- Title: javolution.text.CharArray.charAt Pages: 1 -->
<!--zoomable 284 -->
<svg id="main" version="1.1" xmlns="http://www.w3.org/2000/svg" xmlns:xlink="http://www.w3.org/1999/xlink" xml:space="preserve" onload="init(evt)">
<style type="text/css"><![CDATA[
.edge:hover path { stroke: red; }
.edge:hover polygon { stroke: red; fill: red; }
]]></style>
<script type="text/javascript"><![CDATA[
var edges = document.getElementsByTagName('g');
if (edges && edges.length) {
  for (var i=0;i<edges.length;i++) {
    if (edges[i].id.substr(0,4)=='edge') {
      edges[i].setAttribute('class','edge');
    }
  }
}
]]></script>
        <defs>
                <circle id="rim" cx="0" cy="0" r="7"/>
                <circle id="rim2" cx="0" cy="0" r="3.5"/>
                <g id="zoomPlus">
                        <use xlink:href="#rim" fill="#404040">
                                <set attributeName="fill" to="#808080" begin="zoomplus.mouseover" end="zoomplus.mouseout"/>
                        </use>
                        <path d="M-4,0h8M0,-4v8" fill="none" stroke="white" stroke-width="1.5" pointer-events="none"/>
                </g>
                <g id="zoomMin">
                        <use xlink:href="#rim" fill="#404040">
                                <set attributeName="fill" to="#808080" begin="zoomminus.mouseover" end="zoomminus.mouseout"/>
                        </use>
                        <path d="M-4,0h8" fill="none" stroke="white" stroke-width="1.5" pointer-events="none"/>
                </g>
                <g id="dirArrow">
                        <path fill="none" stroke="white" stroke-width="1.5" d="M0,-3.0v7 M-2.5,-0.5L0,-3.0L2.5,-0.5"/>
                </g>
               <g id="resetDef">
                       <use xlink:href="#rim2" fill="#404040">
                               <set attributeName="fill" to="#808080" begin="reset.mouseover" end="reset.mouseout"/>
                       </use>
               </g>
        </defs>

<script type="text/javascript">
var viewWidth = 1498;
var viewHeight = 284;
var sectionId = 'dynsection-4';
</script>
<script xlink:href="../../svgpan.js"/>
<svg id="graph" class="graph">
<g id="viewport">
<title>javolution.text.CharArray.charAt</title>
<polygon fill="white" stroke="transparent" points="-4,4 -4,-280 1494,-280 1494,4 -4,4"/>
<!-- Node1 -->
<g id="node1" class="node">
<title>Node1</title>
<g id="a_node1"><a xlink:title=" ">
<polygon fill="#bfbfbf" stroke="black" points="1317,-152 1317,-171 1490,-171 1490,-152 1317,-152"/>
<text text-anchor="middle" x="1403.5" y="-159" font-family="Helvetica,sans-Serif" font-size="10.00">javolution.text.CharArray.charAt</text>
</a>
</g>
</g>
<!-- Node2 -->
<g id="node2" class="node">
<title>Node2</title>
<g id="a_node2"><a xlink:href="../../d9/d60/classjavolution_1_1xml_1_1XMLFormat_1_1InputElement.html#a1c92432d880ef55f12585cefbd8e6bb8" target="_top" xlink:title=" ">
<polygon fill="white" stroke="black" points="1119,-171.5 1119,-201.5 1268,-201.5 1268,-171.5 1119,-171.5"/>
<text text-anchor="start" x="1127" y="-189.5" font-family="Helvetica,sans-Serif" font-size="10.00">javolution.xml.XMLFormat.</text>
<text text-anchor="middle" x="1193.5" y="-178.5" font-family="Helvetica,sans-Serif" font-size="10.00">InputElement.getAttribute</text>
</a>
</g>
</g>
<!-- Node1&#45;&gt;Node2 -->
<g id="edge1" class="edge">
<title>Node1&#45;&gt;Node2</title>
<path fill="none" stroke="midnightblue" d="M1312.97,-172.26C1297.98,-174.06 1282.57,-175.91 1268.04,-177.66"/>
<polygon fill="midnightblue" stroke="midnightblue" points="1313.76,-175.69 1323.27,-171.02 1312.92,-168.74 1313.76,-175.69"/>
</g>
<!-- Node3 -->
<g id="node3" class="node">
<title>Node3</title>
<g id="a_node3"><a xlink:href="../../d0/d65/classjavolution_1_1xml_1_1internal_1_1stream_1_1XMLStreamReaderImpl.html#a9de41d4de6c2d574d8ac559d743696ff" target="_top" xlink:title=" ">
<polygon fill="white" stroke="black" points="1106,-122.5 1106,-152.5 1281,-152.5 1281,-122.5 1106,-122.5"/>
<text text-anchor="start" x="1114" y="-140.5" font-family="Helvetica,sans-Serif" font-size="10.00">javolution.xml.internal.stream.</text>
<text text-anchor="middle" x="1193.5" y="-129.5" font-family="Helvetica,sans-Serif" font-size="10.00">XMLStreamReaderImpl.isXMLNS</text>
</a>
</g>
</g>
<!-- Node1&#45;&gt;Node3 -->
<g id="edge2" class="edge">
<title>Node1&#45;&gt;Node3</title>
<path fill="none" stroke="midnightblue" d="M1310,-150.83C1300.36,-149.71 1290.58,-148.59 1281,-147.48"/>
<polygon fill="midnightblue" stroke="midnightblue" points="1309.66,-154.31 1319.99,-151.98 1310.46,-147.36 1309.66,-154.31"/>
</g>
<!-- Node4 -->
<g id="node4" class="node">
<title>Node4</title>
<g id="a_node4"><a xlink:href="../../d0/d65/classjavolution_1_1xml_1_1internal_1_1stream_1_1XMLStreamReaderImpl.html#a53db005e39d45328c5ac531a86602d0c" target="_top" xlink:title=" ">
<polygon fill="white" stroke="black" points="858,-122.5 858,-152.5 1070,-152.5 1070,-122.5 858,-122.5"/>
<text text-anchor="start" x="866" y="-140.5" font-family="Helvetica,sans-Serif" font-size="10.00">javolution.xml.internal.stream.</text>
<text text-anchor="middle" x="964" y="-129.5" font-family="Helvetica,sans-Serif" font-size="10.00">XMLStreamReaderImpl.processAttribute</text>
</a>
</g>
</g>
<!-- Node3&#45;&gt;Node4 -->
<g id="edge3" class="edge">
<title>Node3&#45;&gt;Node4</title>
<path fill="none" stroke="midnightblue" d="M1095.63,-137.5C1087.19,-137.5 1078.63,-137.5 1070.13,-137.5"/>
<polygon fill="midnightblue" stroke="midnightblue" points="1095.84,-141 1105.84,-137.5 1095.84,-134 1095.84,-141"/>
</g>
<!-- Node5 -->
<g id="node5" class="node">
<title>Node5</title>
<g id="a_node5"><a xlink:href="../../d0/d65/classjavolution_1_1xml_1_1internal_1_1stream_1_1XMLStreamReaderImpl.html#a390337cd640ada29ab3aa42a584c8ed8" target="_top" xlink:title=" ">
<polygon fill="white" stroke="black" points="654,-122.5 654,-152.5 822,-152.5 822,-122.5 654,-122.5"/>
<text text-anchor="start" x="662" y="-140.5" font-family="Helvetica,sans-Serif" font-size="10.00">javolution.xml.internal.stream.</text>
<text text-anchor="middle" x="738" y="-129.5" font-family="Helvetica,sans-Serif" font-size="10.00">XMLStreamReaderImpl.next</text>
</a>
</g>
</g>
<!-- Node4&#45;&gt;Node5 -->
<g id="edge4" class="edge">
<title>Node4&#45;&gt;Node5</title>
<path fill="none" stroke="midnightblue" d="M847.8,-137.5C839.21,-137.5 830.65,-137.5 822.31,-137.5"/>
<polygon fill="midnightblue" stroke="midnightblue" points="847.89,-141 857.89,-137.5 847.89,-134 847.89,-141"/>
</g>
<!-- Node6 -->
<g id="node6" class="node">
<title>Node6</title>
<g id="a_node6"><a xlink:href="../../d0/d65/classjavolution_1_1xml_1_1internal_1_1stream_1_1XMLStreamReaderImpl.html#a72b51558d2acd9213ab216592156ca55" target="_top" xlink:title=" ">
<polygon fill="white" stroke="black" points="409,-245.5 409,-275.5 618,-275.5 618,-245.5 409,-245.5"/>
<text text-anchor="start" x="417" y="-263.5" font-family="Helvetica,sans-Serif" font-size="10.00">javolution.xml.internal.stream.</text>
<text text-anchor="middle" x="513.5" y="-252.5" font-family="Helvetica,sans-Serif" font-size="10.00">XMLStreamReaderImpl.getElementText</text>
</a>
</g>
</g>
<!-- Node5&#45;&gt;Node6 -->
<g id="edge5" class="edge">
<title>Node5&#45;&gt;Node6</title>
<path fill="none" stroke="midnightblue" d="M716.02,-160.33C693.84,-183.05 656.76,-217.26 618,-236.5 611.06,-239.95 603.61,-242.91 596.01,-245.45"/>
<polygon fill="midnightblue" stroke="midnightblue" points="718.83,-162.45 723.22,-152.81 713.77,-157.61 718.83,-162.45"/>
</g>
<!-- Node8 -->
<g id="node8" class="node">
<title>Node8</title>
<g id="a_node8"><a xlink:href="../../d9/d60/classjavolution_1_1xml_1_1XMLFormat_1_1InputElement.html#a1a9f1d9cc2954e37458f7e2eacbd4563" target="_top" xlink:title=" ">
<polygon fill="white" stroke="black" points="439,-196.5 439,-226.5 588,-226.5 588,-196.5 439,-196.5"/>
<text text-anchor="start" x="447" y="-214.5" font-family="Helvetica,sans-Serif" font-size="10.00">javolution.xml.XMLFormat.</text>
<text text-anchor="middle" x="513.5" y="-203.5" font-family="Helvetica,sans-Serif" font-size="10.00">InputElement.getNext</text>
</a>
</g>
</g>
<!-- Node5&#45;&gt;Node8 -->
<g id="edge7" class="edge">
<title>Node5&#45;&gt;Node8</title>
<path fill="none" stroke="midnightblue" d="M695.94,-156.79C673.3,-166.9 644.49,-178.93 618,-187.5 607.91,-190.76 597.13,-193.77 586.48,-196.48"/>
<polygon fill="midnightblue" stroke="midnightblue" points="697.56,-159.9 705.23,-152.59 694.68,-153.52 697.56,-159.9"/>
</g>
<!-- Node9 -->
<g id="node9" class="node">
<title>Node9</title>
<g id="a_node9"><a xlink:href="../../d0/d65/classjavolution_1_1xml_1_1internal_1_1stream_1_1XMLStreamReaderImpl.html#a22803c21708a1c61db9f45c43e0d3ecc" target="_top" xlink:title=" ">
<polygon fill="white" stroke="black" points="428.5,-147.5 428.5,-177.5 598.5,-177.5 598.5,-147.5 428.5,-147.5"/>
<text text-anchor="start" x="436.5" y="-165.5" font-family="Helvetica,sans-Serif" font-size="10.00">javolution.xml.internal.stream.</text>
<text text-anchor="middle" x="513.5" y="-154.5" font-family="Helvetica,sans-Serif" font-size="10.00">XMLStreamReaderImpl.nextTag</text>
</a>
</g>
</g>
<!-- Node5&#45;&gt;Node9 -->
<g id="edge8" class="edge">
<title>Node5&#45;&gt;Node9</title>
<path fill="none" stroke="midnightblue" d="M643.6,-147.99C628.69,-149.67 613.35,-151.39 598.68,-153.04"/>
<polygon fill="midnightblue" stroke="midnightblue" points="644.29,-151.44 653.83,-146.84 643.5,-144.48 644.29,-151.44"/>
</g>
<!-- Node11 -->
<g id="node11" class="node">
<title>Node11</title>
<g id="a_node11"><a xlink:href="../../d6/d79/classjavolution_1_1xml_1_1sax_1_1XMLReaderImpl.html#a7060e3d22c1cb128897bfc57a7e0cc64" target="_top" xlink:title=" ">
<polygon fill="white" stroke="black" points="430.5,-98.5 430.5,-128.5 596.5,-128.5 596.5,-98.5 430.5,-98.5"/>
<text text-anchor="start" x="438.5" y="-116.5" font-family="Helvetica,sans-Serif" font-size="10.00">javolution.xml.sax.XMLReader</text>
<text text-anchor="middle" x="513.5" y="-105.5" font-family="Helvetica,sans-Serif" font-size="10.00">Impl.parseAll</text>
</a>
</g>
</g>
<!-- Node5&#45;&gt;Node11 -->
<g id="edge10" class="edge">
<title>Node5&#45;&gt;Node11</title>
<path fill="none" stroke="midnightblue" d="M643.69,-127.44C628.13,-125.76 612.09,-124.03 596.83,-122.38"/>
<polygon fill="midnightblue" stroke="midnightblue" points="643.52,-130.94 653.83,-128.53 644.27,-123.98 643.52,-130.94"/>
</g>
<!-- Node15 -->
<g id="node15" class="node">
<title>Node15</title>
<g id="a_node15"><a xlink:href="../../d9/d60/classjavolution_1_1xml_1_1XMLFormat_1_1InputElement.html#ace8288707b8a3cb46bf483440533fd1e" target="_top" xlink:title=" ">
<polygon fill="white" stroke="black" points="435.5,-49.5 435.5,-79.5 591.5,-79.5 591.5,-49.5 435.5,-49.5"/>
<text text-anchor="start" x="443.5" y="-67.5" font-family="Helvetica,sans-Serif" font-size="10.00">javolution.xml.XMLFormat.</text>
<text text-anchor="middle" x="513.5" y="-56.5" font-family="Helvetica,sans-Serif" font-size="10.00">InputElement.readReference</text>
</a>
</g>
</g>
<!-- Node5&#45;&gt;Node15 -->
<g id="edge14" class="edge">
<title>Node5&#45;&gt;Node15</title>
<path fill="none" stroke="midnightblue" d="M694.14,-118.44C671.74,-108.94 643.71,-97.74 618,-89.5 606.82,-85.92 594.82,-82.57 583.09,-79.57"/>
<polygon fill="midnightblue" stroke="midnightblue" points="692.8,-121.68 703.37,-122.4 695.56,-115.24 692.8,-121.68"/>
</g>
<!-- Node16 -->
<g id="node16" class="node">
<title>Node16</title>
<g id="a_node16"><a xlink:href="../../d0/d65/classjavolution_1_1xml_1_1internal_1_1stream_1_1XMLStreamReaderImpl.html#a5e11adbb1f420b45116c6412caf6ccf1" target="_top" xlink:title=" ">
<polygon fill="white" stroke="black" points="427.5,-0.5 427.5,-30.5 599.5,-30.5 599.5,-0.5 427.5,-0.5"/>
<text text-anchor="start" x="435.5" y="-18.5" font-family="Helvetica,sans-Serif" font-size="10.00">javolution.xml.internal.stream.</text>
<text text-anchor="middle" x="513.5" y="-7.5" font-family="Helvetica,sans-Serif" font-size="10.00">XMLStreamReaderImpl.setInput</text>
</a>
</g>
</g>
<!-- Node5&#45;&gt;Node16 -->
<g id="edge15" class="edge">
<title>Node5&#45;&gt;Node16</title>
<path fill="none" stroke="midnightblue" d="M715.52,-114.85C693.19,-92.65 656.23,-59.46 618,-40.5 610.22,-36.64 601.8,-33.35 593.25,-30.56"/>
<polygon fill="midnightblue" stroke="midnightblue" points="713.26,-117.55 722.78,-122.21 718.24,-112.63 713.26,-117.55"/>
</g>
<!-- Node7 -->
<g id="node7" class="node">
<title>Node7</title>
<g id="a_node7"><a xlink:href="../../d9/d60/classjavolution_1_1xml_1_1XMLFormat_1_1InputElement.html#a1858fc90a06227e089492a4f40fc77ac" target="_top" xlink:title=" ">
<polygon fill="white" stroke="black" points="215.5,-245.5 215.5,-275.5 364.5,-275.5 364.5,-245.5 215.5,-245.5"/>
<text text-anchor="start" x="223.5" y="-263.5" font-family="Helvetica,sans-Serif" font-size="10.00">javolution.xml.XMLFormat.</text>
<text text-anchor="middle" x="290" y="-252.5" font-family="Helvetica,sans-Serif" font-size="10.00">InputElement.getText</text>
</a>
</g>
</g>
<!-- Node6&#45;&gt;Node7 -->
<g id="edge6" class="edge">
<title>Node6&#45;&gt;Node7</title>
<path fill="none" stroke="midnightblue" d="M398.69,-260.5C387.09,-260.5 375.54,-260.5 364.54,-260.5"/>
<polygon fill="midnightblue" stroke="midnightblue" points="398.88,-264 408.88,-260.5 398.88,-257 398.88,-264"/>
</g>
<!-- Node10 -->
<g id="node10" class="node">
<title>Node10</title>
<g id="a_node10"><a xlink:href="../../d9/d60/classjavolution_1_1xml_1_1XMLFormat_1_1InputElement.html#af7d0a9ca04a7340a049b615e947c88ca" target="_top" xlink:title=" ">
<polygon fill="white" stroke="black" points="215.5,-147.5 215.5,-177.5 364.5,-177.5 364.5,-147.5 215.5,-147.5"/>
<text text-anchor="start" x="223.5" y="-165.5" font-family="Helvetica,sans-Serif" font-size="10.00">javolution.xml.XMLFormat.</text>
<text text-anchor="middle" x="290" y="-154.5" font-family="Helvetica,sans-Serif" font-size="10.00">InputElement.hasNext</text>
</a>
</g>
</g>
<!-- Node9&#45;&gt;Node10 -->
<g id="edge9" class="edge">
<title>Node9&#45;&gt;Node10</title>
<path fill="none" stroke="midnightblue" d="M418.05,-162.5C400.26,-162.5 381.89,-162.5 364.84,-162.5"/>
<polygon fill="midnightblue" stroke="midnightblue" points="418.44,-166 428.44,-162.5 418.44,-159 418.44,-166"/>
</g>
<!-- Node12 -->
<g id="node12" class="node">
<title>Node12</title>
<g id="a_node12"><a xlink:href="../../d6/d79/classjavolution_1_1xml_1_1sax_1_1XMLReaderImpl.html#af59c6a5e7282b94dea9be9452f9c945e" target="_top" xlink:title=" ">
<polygon fill="white" stroke="black" points="207,-98.5 207,-128.5 373,-128.5 373,-98.5 207,-98.5"/>
<text text-anchor="start" x="215" y="-116.5" font-family="Helvetica,sans-Serif" font-size="10.00">javolution.xml.sax.XMLReader</text>
<text text-anchor="middle" x="290" y="-105.5" font-family="Helvetica,sans-Serif" font-size="10.00">Impl.parse</text>
</a>
</g>
</g>
<!-- Node11&#45;&gt;Node12 -->
<g id="edge11" class="edge">
<title>Node11&#45;&gt;Node12</title>
<path fill="none" stroke="midnightblue" d="M420.15,-113.5C404.51,-113.5 388.38,-113.5 373.03,-113.5"/>
<polygon fill="midnightblue" stroke="midnightblue" points="420.34,-117 430.34,-113.5 420.34,-110 420.34,-117"/>
</g>
<!-- Node13 -->
<g id="node13" class="node">
<title>Node13</title>
<g id="a_node13"><a xlink:href="../../d5/de1/classjavolution_1_1xml_1_1sax_1_1SAX2ReaderImpl.html#ac88f97df2622809ba9f127e173f20f17" target="_top" xlink:title=" ">
<polygon fill="white" stroke="black" points="0,-123.5 0,-153.5 171,-153.5 171,-123.5 0,-123.5"/>
<text text-anchor="start" x="8" y="-141.5" font-family="Helvetica,sans-Serif" font-size="10.00">javolution.xml.sax.SAX2Reader</text>
<text text-anchor="middle" x="85.5" y="-130.5" font-family="Helvetica,sans-Serif" font-size="10.00">Impl.parse</text>
</a>
</g>
</g>
<!-- Node12&#45;&gt;Node13 -->
<g id="edge12" class="edge">
<title>Node12&#45;&gt;Node13</title>
<path fill="none" stroke="midnightblue" d="M196.96,-124.86C188.42,-125.92 179.8,-126.98 171.33,-128.03"/>
<polygon fill="midnightblue" stroke="midnightblue" points="197.43,-128.33 206.93,-123.63 196.57,-121.38 197.43,-128.33"/>
</g>
<!-- Node14 -->
<g id="node14" class="node">
<title>Node14</title>
<g id="a_node14"><a xlink:href="../../d6/d79/classjavolution_1_1xml_1_1sax_1_1XMLReaderImpl.html#a255e7cbc9ce8eced22fae7c8138b6cfb" target="_top" xlink:title=" ">
<polygon fill="white" stroke="black" points="2.5,-74.5 2.5,-104.5 168.5,-104.5 168.5,-74.5 2.5,-74.5"/>
<text text-anchor="start" x="10.5" y="-92.5" font-family="Helvetica,sans-Serif" font-size="10.00">javolution.xml.sax.XMLReader</text>
<text text-anchor="middle" x="85.5" y="-81.5" font-family="Helvetica,sans-Serif" font-size="10.00">Impl.parse</text>
</a>
</g>
</g>
<!-- Node12&#45;&gt;Node14 -->
<g id="edge13" class="edge">
<title>Node12&#45;&gt;Node14</title>
<path fill="none" stroke="midnightblue" d="M196.81,-102.57C187.43,-101.46 177.95,-100.34 168.69,-99.24"/>
<polygon fill="midnightblue" stroke="midnightblue" points="196.58,-106.07 206.93,-103.77 197.41,-99.12 196.58,-106.07"/>
</g>
</g>
</svg>
        <g id="navigator" transform="translate(0 0)" fill="#404254">
                <rect fill="#f2f5e9" fill-opacity="0.5" stroke="#606060" stroke-width=".5" x="0" y="0" width="60" height="60"/>
                <use id="zoomplus" xlink:href="#zoomPlus" x="17" y="9" onmousedown="handleZoom(evt,'in')"/>
                <use id="zoomminus" xlink:href="#zoomMin" x="42" y="9" onmousedown="handleZoom(evt,'out')"/>
                <use id="reset" xlink:href="#resetDef" x="30" y="36" onmousedown="handleReset()"/>
                <g id="arrowUp" xlink:href="#dirArrow" transform="translate(30 24)" onmousedown="handlePan(0,-1)">
                  <use xlink:href="#rim" fill="#404040">
                        <set attributeName="fill" to="#808080" begin="arrowUp.mouseover" end="arrowUp.mouseout"/>
                  </use>
                  <path fill="none" stroke="white" stroke-width="1.5" d="M0,-3.0v7 M-2.5,-0.5L0,-3.0L2.5,-0.5"/>
                </g>
                <g id="arrowRight" xlink:href="#dirArrow" transform="rotate(90) translate(36 -43)" onmousedown="handlePan(1,0)">
                  <use xlink:href="#rim" fill="#404040">
                        <set attributeName="fill" to="#808080" begin="arrowRight.mouseover" end="arrowRight.mouseout"/>
                  </use>
                  <path fill="none" stroke="white" stroke-width="1.5" d="M0,-3.0v7 M-2.5,-0.5L0,-3.0L2.5,-0.5"/>
                </g>
                <g id="arrowDown" xlink:href="#dirArrow" transform="rotate(180) translate(-30 -48)" onmousedown="handlePan(0,1)">
                  <use xlink:href="#rim" fill="#404040">
                        <set attributeName="fill" to="#808080" begin="arrowDown.mouseover" end="arrowDown.mouseout"/>
                  </use>
                  <path fill="none" stroke="white" stroke-width="1.5" d="M0,-3.0v7 M-2.5,-0.5L0,-3.0L2.5,-0.5"/>
                </g>
                <g id="arrowLeft" xlink:href="#dirArrow" transform="rotate(270) translate(-36 17)" onmousedown="handlePan(-1,0)">
                  <use xlink:href="#rim" fill="#404040">
                        <set attributeName="fill" to="#808080" begin="arrowLeft.mouseover" end="arrowLeft.mouseout"/>
                  </use>
                  <path fill="none" stroke="white" stroke-width="1.5" d="M0,-3.0v7 M-2.5,-0.5L0,-3.0L2.5,-0.5"/>
                </g>
        </g>
        <svg viewBox="0 0 15 15" width="100%" height="30px" preserveAspectRatio="xMaxYMin meet">
         <g id="arrow_out" transform="scale(0.3 0.3)">
          <a xlink:href="classjavolution_1_1text_1_1CharArray_a70f38efb80cc4be2cf4c77d2aa38f279_icgraph_org.svg" target="_base">
           <rect id="button" ry="5" rx="5" y="6" x="6" height="38" width="38"
                fill="#f2f5e9" fill-opacity="0.5" stroke="#606060" stroke-width="1.0"/>
           <path id="arrow"
             d="M 11.500037,31.436501 C 11.940474,20.09759 22.043105,11.32322 32.158766,21.979434 L 37.068811,17.246167 C 37.068811,17.246167 37.088388,32 37.088388,32 L 22.160133,31.978069 C 22.160133,31.978069 26.997745,27.140456 26.997745,27.140456 C 18.528582,18.264221 13.291696,25.230495 11.500037,31.436501 z"
             style="fill:#404040;"/>
          </a>
         </g>
        </svg>
</svg>
