<?xml version="1.0" encoding="UTF-8" standalone="no"?>
<!DOCTYPE svg PUBLIC "-//W3C//DTD SVG 1.1//EN"
 "http://www.w3.org/Graphics/SVG/1.1/DTD/svg11.dtd">
<!-- Generated by graphviz version 2.43.0 (0)
 -->
<!-- Title: javolution.text.CharArray.toBoolean Pages: 1 -->
<svg width="583pt" height="78pt"
 viewBox="0.00 0.00 583.00 77.50" xmlns="http://www.w3.org/2000/svg" xmlns:xlink="http://www.w3.org/1999/xlink">
<g id="graph0" class="graph" transform="scale(1 1) rotate(0) translate(4 73.5)">
<title>javolution.text.CharArray.toBoolean</title>
<polygon fill="white" stroke="transparent" points="-4,4 -4,-73.5 579,-73.5 579,4 -4,4"/>
<!-- Node1 -->
<g id="node1" class="node">
<title>Node1</title>
<g id="a_node1"><a xlink:title=" ">
<polygon fill="#bfbfbf" stroke="black" points="0,-17 0,-47 151,-47 151,-17 0,-17"/>
<text text-anchor="start" x="8" y="-35" font-family="Helvetica,sans-Serif" font-size="10.00">javolution.text.CharArray.to</text>
<text text-anchor="middle" x="75.5" y="-24" font-family="Helvetica,sans-Serif" font-size="10.00">Boolean</text>
</a>
</g>
</g>
<!-- Node2 -->
<g id="node2" class="node">
<title>Node2</title>
<g id="a_node2"><a xlink:href="../../d2/d86/classjavolution_1_1text_1_1TypeFormat.html#af5a4115fe004637fe8cef7142f821d05" target="_top" xlink:title=" ">
<polygon fill="white" stroke="black" points="187,-17 187,-47 365,-47 365,-17 187,-17"/>
<text text-anchor="start" x="195" y="-35" font-family="Helvetica,sans-Serif" font-size="10.00">javolution.text.TypeFormat.parse</text>
<text text-anchor="middle" x="276" y="-24" font-family="Helvetica,sans-Serif" font-size="10.00">Boolean</text>
</a>
</g>
</g>
<!-- Node1&#45;&gt;Node2 -->
<g id="edge1" class="edge">
<title>Node1&#45;&gt;Node2</title>
<path fill="none" stroke="midnightblue" d="M151.26,-32C159.63,-32 168.26,-32 176.87,-32"/>
<polygon fill="midnightblue" stroke="midnightblue" points="176.95,-35.5 186.95,-32 176.95,-28.5 176.95,-35.5"/>
</g>
<!-- Node3 -->
<g id="node3" class="node">
<title>Node3</title>
<g id="a_node3"><a xlink:href="../../d0/dce/classjavolution_1_1text_1_1Cursor.html#a3c05d8bae9082071d73d9ff0c2caf791" target="_top" xlink:title=" ">
<polygon fill="white" stroke="black" points="418,-39 418,-69 558,-69 558,-39 418,-39"/>
<text text-anchor="start" x="426" y="-57" font-family="Helvetica,sans-Serif" font-size="10.00">javolution.text.Cursor.get</text>
<text text-anchor="middle" x="488" y="-46" font-family="Helvetica,sans-Serif" font-size="10.00">Index</text>
</a>
</g>
</g>
<!-- Node2&#45;&gt;Node3 -->
<g id="edge2" class="edge">
<title>Node2&#45;&gt;Node3</title>
<path fill="none" stroke="midnightblue" d="M365.15,-41.23C379.33,-42.72 393.93,-44.25 407.88,-45.71"/>
<polygon fill="midnightblue" stroke="midnightblue" points="407.6,-49.2 417.91,-46.76 408.33,-42.24 407.6,-49.2"/>
</g>
<!-- Node4 -->
<g id="node4" class="node">
<title>Node4</title>
<g id="a_node4"><a xlink:href="../../d0/dce/classjavolution_1_1text_1_1Cursor.html#a021df95865b1703e8e34c6935c4a93ef" target="_top" xlink:title=" ">
<polygon fill="white" stroke="black" points="401,-0.5 401,-19.5 575,-19.5 575,-0.5 401,-0.5"/>
<text text-anchor="middle" x="488" y="-7.5" font-family="Helvetica,sans-Serif" font-size="10.00">javolution.text.Cursor.increment</text>
</a>
</g>
</g>
<!-- Node2&#45;&gt;Node4 -->
<g id="edge3" class="edge">
<title>Node2&#45;&gt;Node4</title>
<path fill="none" stroke="midnightblue" d="M365.15,-22.77C373.62,-21.88 382.24,-20.98 390.78,-20.08"/>
<polygon fill="midnightblue" stroke="midnightblue" points="391.18,-23.56 400.76,-19.03 390.45,-16.6 391.18,-23.56"/>
</g>
</g>
</svg>
