<?xml version="1.0" encoding="UTF-8" standalone="no"?>
<!DOCTYPE svg PUBLIC "-//W3C//DTD SVG 1.1//EN"
 "http://www.w3.org/Graphics/SVG/1.1/DTD/svg11.dtd">
<!-- Generated by graphviz version 2.43.0 (0)
 -->
<!-- Title: javolution.util.function.Reducers.AnyReducer&lt; E &gt; Pages: 1 -->
<svg width="531pt" height="88pt"
 viewBox="0.00 0.00 531.00 88.00" xmlns="http://www.w3.org/2000/svg" xmlns:xlink="http://www.w3.org/1999/xlink">
<g id="graph0" class="graph" transform="scale(1 1) rotate(0) translate(4 84)">
<title>javolution.util.function.Reducers.AnyReducer&lt; E &gt;</title>
<polygon fill="white" stroke="transparent" points="-4,4 -4,-84 527,-84 527,4 -4,4"/>
<!-- Node1 -->
<g id="node1" class="node">
<title>Node1</title>
<g id="a_node1"><a xlink:title=" ">
<polygon fill="#bfbfbf" stroke="black" points="371,-24.5 371,-54.5 523,-54.5 523,-24.5 371,-24.5"/>
<text text-anchor="start" x="379" y="-42.5" font-family="Helvetica,sans-Serif" font-size="10.00">javolution.util.function.</text>
<text text-anchor="middle" x="447" y="-31.5" font-family="Helvetica,sans-Serif" font-size="10.00">Reducers.AnyReducer&lt; E &gt;</text>
</a>
</g>
</g>
<!-- Node2 -->
<g id="node2" class="node">
<title>Node2</title>
<g id="a_node2"><a xlink:href="../../d4/dae/interfacejavolution_1_1util_1_1function_1_1Reducer.html" target="_top" xlink:title=" ">
<polygon fill="white" stroke="black" points="202,-24.5 202,-54.5 335,-54.5 335,-24.5 202,-24.5"/>
<text text-anchor="start" x="210" y="-42.5" font-family="Helvetica,sans-Serif" font-size="10.00">javolution::util::function</text>
<text text-anchor="middle" x="268.5" y="-31.5" font-family="Helvetica,sans-Serif" font-size="10.00">::Reducer&lt; E &gt;</text>
</a>
</g>
</g>
<!-- Node2&#45;&gt;Node1 -->
<g id="edge1" class="edge">
<title>Node2&#45;&gt;Node1</title>
<path fill="none" stroke="midnightblue" d="M345.37,-39.5C353.77,-39.5 362.32,-39.5 370.71,-39.5"/>
<polygon fill="midnightblue" stroke="midnightblue" points="345.22,-36 335.22,-39.5 345.22,-43 345.22,-36"/>
</g>
<!-- Node3 -->
<g id="node3" class="node">
<title>Node3</title>
<g id="a_node3"><a xlink:href="../../d4/d5a/interfacejavolution_1_1util_1_1function_1_1Consumer.html" target="_top" xlink:title=" ">
<polygon fill="white" stroke="black" points="0,-49.5 0,-79.5 166,-79.5 166,-49.5 0,-49.5"/>
<text text-anchor="start" x="8" y="-67.5" font-family="Helvetica,sans-Serif" font-size="10.00">javolution.util.function.</text>
<text text-anchor="middle" x="83" y="-56.5" font-family="Helvetica,sans-Serif" font-size="10.00">Consumer&lt; Collection&lt; E &gt; &gt;</text>
</a>
</g>
</g>
<!-- Node3&#45;&gt;Node2 -->
<g id="edge2" class="edge">
<title>Node3&#45;&gt;Node2</title>
<path fill="none" stroke="midnightblue" d="M176.27,-51.93C184.95,-50.75 193.63,-49.56 201.99,-48.42"/>
<polygon fill="midnightblue" stroke="midnightblue" points="175.53,-48.5 166.09,-53.32 176.47,-55.43 175.53,-48.5"/>
</g>
<!-- Node4 -->
<g id="node4" class="node">
<title>Node4</title>
<g id="a_node4"><a xlink:href="../../d6/dd3/interfacejavolution_1_1util_1_1function_1_1Supplier.html" target="_top" xlink:title=" ">
<polygon fill="white" stroke="black" points="18,-0.5 18,-30.5 148,-30.5 148,-0.5 18,-0.5"/>
<text text-anchor="start" x="26" y="-18.5" font-family="Helvetica,sans-Serif" font-size="10.00">javolution.util.function.</text>
<text text-anchor="middle" x="83" y="-7.5" font-family="Helvetica,sans-Serif" font-size="10.00">Supplier&lt; E &gt;</text>
</a>
</g>
</g>
<!-- Node4&#45;&gt;Node2 -->
<g id="edge3" class="edge">
<title>Node4&#45;&gt;Node2</title>
<path fill="none" stroke="midnightblue" d="M158.5,-25.24C172.84,-27.12 187.77,-29.07 201.8,-30.91"/>
<polygon fill="midnightblue" stroke="midnightblue" points="158.55,-21.72 148.18,-23.89 157.64,-28.66 158.55,-21.72"/>
</g>
</g>
</svg>
