<?xml version="1.0" encoding="UTF-8" standalone="no"?>
<!DOCTYPE svg PUBLIC "-//W3C//DTD SVG 1.1//EN"
 "http://www.w3.org/Graphics/SVG/1.1/DTD/svg11.dtd">
<!-- Generated by graphviz version 2.43.0 (0)
 -->
<!-- Title: javolution.util.internal.table.FractalTableImpl.F Pages: 1 -->
<svg width="570pt" height="61pt"
 viewBox="0.00 0.00 570.00 61.00" xmlns="http://www.w3.org/2000/svg" xmlns:xlink="http://www.w3.org/1999/xlink">
<g id="graph0" class="graph" transform="scale(1 1) rotate(0) translate(4 57)">
<title>javolution.util.internal.table.FractalTableImpl.F</title>
<polygon fill="white" stroke="transparent" points="-4,4 -4,-57 566,-57 566,4 -4,4"/>
<!-- Node1 -->
<g id="node1" class="node">
<title>Node1</title>
<g id="a_node1"><a xlink:title=" ">
<polygon fill="#bfbfbf" stroke="black" points="0,-0.5 0,-30.5 155,-30.5 155,-0.5 0,-0.5"/>
<text text-anchor="start" x="8" y="-18.5" font-family="Helvetica,sans-Serif" font-size="10.00">javolution.util.internal.table.</text>
<text text-anchor="middle" x="77.5" y="-7.5" font-family="Helvetica,sans-Serif" font-size="10.00">FractalTableImpl.F</text>
</a>
</g>
</g>
<!-- Node2 -->
<g id="node2" class="node">
<title>Node2</title>
<g id="a_node2"><a xlink:href="../../d0/dd9/classjavolution_1_1util_1_1internal_1_1table_1_1FractalTableImpl.html#a75450af34f8dbb7210888bdc874f424c" target="_top" xlink:title=" ">
<polygon fill="white" stroke="black" points="191,-22.5 191,-52.5 346,-52.5 346,-22.5 191,-22.5"/>
<text text-anchor="start" x="199" y="-40.5" font-family="Helvetica,sans-Serif" font-size="10.00">javolution.util.internal.table.</text>
<text text-anchor="middle" x="268.5" y="-29.5" font-family="Helvetica,sans-Serif" font-size="10.00">FractalTableImpl.allocate</text>
</a>
</g>
</g>
<!-- Node1&#45;&gt;Node2 -->
<g id="edge1" class="edge">
<title>Node1&#45;&gt;Node2</title>
<path fill="none" stroke="midnightblue" d="M155.1,-24.42C163.56,-25.4 172.22,-26.41 180.79,-27.41"/>
<polygon fill="midnightblue" stroke="midnightblue" points="180.45,-30.89 190.79,-28.57 181.26,-23.94 180.45,-30.89"/>
</g>
<!-- Node3 -->
<g id="node3" class="node">
<title>Node3</title>
<g id="a_node3"><a xlink:href="../../d0/dd9/classjavolution_1_1util_1_1internal_1_1table_1_1FractalTableImpl.html#afb7c67513eecf10757bfd0fde7c6a0a0" target="_top" xlink:title=" ">
<polygon fill="white" stroke="black" points="382,-0.5 382,-30.5 562,-30.5 562,-0.5 382,-0.5"/>
<text text-anchor="start" x="390" y="-18.5" font-family="Helvetica,sans-Serif" font-size="10.00">javolution.util.internal.table.</text>
<text text-anchor="middle" x="472" y="-7.5" font-family="Helvetica,sans-Serif" font-size="10.00">FractalTableImpl.FractalTableImpl</text>
</a>
</g>
</g>
<!-- Node1&#45;&gt;Node3 -->
<g id="edge3" class="edge">
<title>Node1&#45;&gt;Node3</title>
<path fill="none" stroke="midnightblue" d="M155.05,-13.96C167.08,-13.77 179.38,-13.6 191,-13.5 259.89,-12.89 277.11,-12.95 346,-13.5 354.35,-13.57 363,-13.66 371.69,-13.77"/>
<polygon fill="midnightblue" stroke="midnightblue" points="371.85,-17.27 381.89,-13.9 371.94,-10.27 371.85,-17.27"/>
</g>
<!-- Node2&#45;&gt;Node3 -->
<g id="edge2" class="edge">
<title>Node2&#45;&gt;Node3</title>
<path fill="none" stroke="midnightblue" d="M346.25,-29.12C354.65,-28.2 363.28,-27.26 371.89,-26.32"/>
<polygon fill="midnightblue" stroke="midnightblue" points="372.42,-29.78 381.98,-25.22 371.66,-22.83 372.42,-29.78"/>
</g>
</g>
</svg>
