<?xml version="1.0" encoding="UTF-8" standalone="no"?>
<!DOCTYPE svg PUBLIC "-//W3C//DTD SVG 1.1//EN"
 "http://www.w3.org/Graphics/SVG/1.1/DTD/svg11.dtd">
<!-- Generated by graphviz version 2.43.0 (0)
 -->
<!-- Title: javolution.util.internal.table.FractalTableImpl.set Pages: 1 -->
<!--zoomable 369 -->
<svg id="main" version="1.1" xmlns="http://www.w3.org/2000/svg" xmlns:xlink="http://www.w3.org/1999/xlink" xml:space="preserve" onload="init(evt)">
<style type="text/css"><![CDATA[
.edge:hover path { stroke: red; }
.edge:hover polygon { stroke: red; fill: red; }
]]></style>
<script type="text/javascript"><![CDATA[
var edges = document.getElementsByTagName('g');
if (edges && edges.length) {
  for (var i=0;i<edges.length;i++) {
    if (edges[i].id.substr(0,4)=='edge') {
      edges[i].setAttribute('class','edge');
    }
  }
}
]]></script>
        <defs>
                <circle id="rim" cx="0" cy="0" r="7"/>
                <circle id="rim2" cx="0" cy="0" r="3.5"/>
                <g id="zoomPlus">
                        <use xlink:href="#rim" fill="#404040">
                                <set attributeName="fill" to="#808080" begin="zoomplus.mouseover" end="zoomplus.mouseout"/>
                        </use>
                        <path d="M-4,0h8M0,-4v8" fill="none" stroke="white" stroke-width="1.5" pointer-events="none"/>
                </g>
                <g id="zoomMin">
                        <use xlink:href="#rim" fill="#404040">
                                <set attributeName="fill" to="#808080" begin="zoomminus.mouseover" end="zoomminus.mouseout"/>
                        </use>
                        <path d="M-4,0h8" fill="none" stroke="white" stroke-width="1.5" pointer-events="none"/>
                </g>
                <g id="dirArrow">
                        <path fill="none" stroke="white" stroke-width="1.5" d="M0,-3.0v7 M-2.5,-0.5L0,-3.0L2.5,-0.5"/>
                </g>
               <g id="resetDef">
                       <use xlink:href="#rim2" fill="#404040">
                               <set attributeName="fill" to="#808080" begin="reset.mouseover" end="reset.mouseout"/>
                       </use>
               </g>
        </defs>

<script type="text/javascript">
var viewWidth = 766;
var viewHeight = 369;
var sectionId = 'dynsection-12';
</script>
<script xlink:href="../../svgpan.js"/>
<svg id="graph" class="graph">
<g id="viewport">
<title>javolution.util.internal.table.FractalTableImpl.set</title>
<polygon fill="white" stroke="transparent" points="-4,4 -4,-365 762,-365 762,4 -4,4"/>
<!-- Node1 -->
<g id="node1" class="node">
<title>Node1</title>
<g id="a_node1"><a xlink:title=" ">
<polygon fill="#bfbfbf" stroke="black" points="603,-183.5 603,-213.5 758,-213.5 758,-183.5 603,-183.5"/>
<text text-anchor="start" x="611" y="-201.5" font-family="Helvetica,sans-Serif" font-size="10.00">javolution.util.internal.table.</text>
<text text-anchor="middle" x="680.5" y="-190.5" font-family="Helvetica,sans-Serif" font-size="10.00">FractalTableImpl.set</text>
</a>
</g>
</g>
<!-- Node1&#45;&gt;Node1 -->
<g id="edge7" class="edge">
<title>Node1&#45;&gt;Node1</title>
<path fill="none" stroke="midnightblue" d="M714.26,-223.96C710.07,-228.68 698.82,-232 680.5,-232 650.44,-232 639.4,-223.06 647.39,-213.66"/>
<polygon fill="midnightblue" stroke="midnightblue" points="717.73,-223.42 713.61,-213.66 710.75,-223.86 717.73,-223.42"/>
</g>
<!-- Node2 -->
<g id="node2" class="node">
<title>Node2</title>
<g id="a_node2"><a xlink:href="../../d9/d7a/classjavolution_1_1util_1_1internal_1_1table_1_1FastTableImpl.html#a1f1d147e35953446eb1d0341800e0f77" target="_top" xlink:title=" ">
<polygon fill="white" stroke="black" points="412,-330.5 412,-360.5 567,-360.5 567,-330.5 412,-330.5"/>
<text text-anchor="start" x="420" y="-348.5" font-family="Helvetica,sans-Serif" font-size="10.00">javolution.util.internal.table.</text>
<text text-anchor="middle" x="489.5" y="-337.5" font-family="Helvetica,sans-Serif" font-size="10.00">FastTableImpl.addFirst</text>
</a>
</g>
</g>
<!-- Node1&#45;&gt;Node2 -->
<g id="edge1" class="edge">
<title>Node1&#45;&gt;Node2</title>
<path fill="none" stroke="midnightblue" d="M663.87,-222.05C644.34,-249.7 608.41,-295.13 567,-321.5 561.6,-324.94 555.67,-327.92 549.57,-330.49"/>
<polygon fill="midnightblue" stroke="midnightblue" points="666.8,-223.95 669.62,-213.74 661.05,-219.97 666.8,-223.95"/>
</g>
<!-- Node3 -->
<g id="node3" class="node">
<title>Node3</title>
<g id="a_node3"><a xlink:href="../../d9/d7a/classjavolution_1_1util_1_1internal_1_1table_1_1FastTableImpl.html#aaba641e6bd1d2d0cfb35e58043ff8495" target="_top" xlink:title=" ">
<polygon fill="white" stroke="black" points="412,-281.5 412,-311.5 567,-311.5 567,-281.5 412,-281.5"/>
<text text-anchor="start" x="420" y="-299.5" font-family="Helvetica,sans-Serif" font-size="10.00">javolution.util.internal.table.</text>
<text text-anchor="middle" x="489.5" y="-288.5" font-family="Helvetica,sans-Serif" font-size="10.00">FastTableImpl.addLast</text>
</a>
</g>
</g>
<!-- Node1&#45;&gt;Node3 -->
<g id="edge2" class="edge">
<title>Node1&#45;&gt;Node3</title>
<path fill="none" stroke="midnightblue" d="M651.97,-219.76C629.94,-235.96 597.77,-257.91 567,-272.5 560.08,-275.78 552.61,-278.76 545.13,-281.42"/>
<polygon fill="midnightblue" stroke="midnightblue" points="654.25,-222.42 660.17,-213.64 650.06,-216.81 654.25,-222.42"/>
</g>
<!-- Node6 -->
<g id="node6" class="node">
<title>Node6</title>
<g id="a_node6"><a xlink:href="../../d9/d7a/classjavolution_1_1util_1_1internal_1_1table_1_1FastTableImpl.html#a2d1010c9b98ab572afed9e3a15e498f3" target="_top" xlink:title=" ">
<polygon fill="white" stroke="black" points="412,-232.5 412,-262.5 567,-262.5 567,-232.5 412,-232.5"/>
<text text-anchor="start" x="420" y="-250.5" font-family="Helvetica,sans-Serif" font-size="10.00">javolution.util.internal.table.</text>
<text text-anchor="middle" x="489.5" y="-239.5" font-family="Helvetica,sans-Serif" font-size="10.00">FastTableImpl.removeFirst</text>
</a>
</g>
</g>
<!-- Node1&#45;&gt;Node6 -->
<g id="edge5" class="edge">
<title>Node1&#45;&gt;Node6</title>
<path fill="none" stroke="midnightblue" d="M611.81,-216.05C591.05,-221.43 568.42,-227.3 548.38,-232.49"/>
<polygon fill="midnightblue" stroke="midnightblue" points="612.71,-219.43 621.51,-213.53 610.95,-212.66 612.71,-219.43"/>
</g>
<!-- Node7 -->
<g id="node7" class="node">
<title>Node7</title>
<g id="a_node7"><a xlink:href="../../d9/d7a/classjavolution_1_1util_1_1internal_1_1table_1_1FastTableImpl.html#a85819779a01581b15e1424481a697613" target="_top" xlink:title=" ">
<polygon fill="white" stroke="black" points="412,-183.5 412,-213.5 567,-213.5 567,-183.5 412,-183.5"/>
<text text-anchor="start" x="420" y="-201.5" font-family="Helvetica,sans-Serif" font-size="10.00">javolution.util.internal.table.</text>
<text text-anchor="middle" x="489.5" y="-190.5" font-family="Helvetica,sans-Serif" font-size="10.00">FastTableImpl.removeLast</text>
</a>
</g>
</g>
<!-- Node1&#45;&gt;Node7 -->
<g id="edge6" class="edge">
<title>Node1&#45;&gt;Node7</title>
<path fill="none" stroke="midnightblue" d="M592.9,-198.5C584.33,-198.5 575.67,-198.5 567.21,-198.5"/>
<polygon fill="midnightblue" stroke="midnightblue" points="592.9,-202 602.9,-198.5 592.9,-195 592.9,-202"/>
</g>
<!-- Node8 -->
<g id="node8" class="node">
<title>Node8</title>
<g id="a_node8"><a xlink:href="../../d9/d7a/classjavolution_1_1util_1_1internal_1_1table_1_1FastTableImpl.html#a97c8a1a0a296c16b45dd3a73fe28fa01" target="_top" xlink:title=" ">
<polygon fill="white" stroke="black" points="412,-134.5 412,-164.5 567,-164.5 567,-134.5 412,-134.5"/>
<text text-anchor="start" x="420" y="-152.5" font-family="Helvetica,sans-Serif" font-size="10.00">javolution.util.internal.table.</text>
<text text-anchor="middle" x="489.5" y="-141.5" font-family="Helvetica,sans-Serif" font-size="10.00">FastTableImpl.set</text>
</a>
</g>
</g>
<!-- Node1&#45;&gt;Node8 -->
<g id="edge8" class="edge">
<title>Node1&#45;&gt;Node8</title>
<path fill="none" stroke="midnightblue" d="M611.81,-180.95C591.05,-175.57 568.42,-169.7 548.38,-164.51"/>
<polygon fill="midnightblue" stroke="midnightblue" points="610.95,-184.34 621.51,-183.47 612.71,-177.57 610.95,-184.34"/>
</g>
<!-- Node9 -->
<g id="node9" class="node">
<title>Node9</title>
<g id="a_node9"><a xlink:href="../../d0/dd9/classjavolution_1_1util_1_1internal_1_1table_1_1FractalTableImpl.html#a1d1eb4fc3de5ea84356dc01475a4fab7" target="_top" xlink:title=" ">
<polygon fill="white" stroke="black" points="412,-0.5 412,-30.5 567,-30.5 567,-0.5 412,-0.5"/>
<text text-anchor="start" x="420" y="-18.5" font-family="Helvetica,sans-Serif" font-size="10.00">javolution.util.internal.table.</text>
<text text-anchor="middle" x="489.5" y="-7.5" font-family="Helvetica,sans-Serif" font-size="10.00">FractalTableImpl.shiftLeft</text>
</a>
</g>
</g>
<!-- Node1&#45;&gt;Node9 -->
<g id="edge9" class="edge">
<title>Node1&#45;&gt;Node9</title>
<path fill="none" stroke="midnightblue" d="M664.7,-174.94C645.1,-145.1 608.18,-93.39 567,-58.5 553.98,-47.47 537.71,-37.86 523.53,-30.54"/>
<polygon fill="midnightblue" stroke="midnightblue" points="661.84,-176.96 670.21,-183.45 667.72,-173.16 661.84,-176.96"/>
</g>
<!-- Node13 -->
<g id="node13" class="node">
<title>Node13</title>
<g id="a_node13"><a xlink:href="../../d0/dd9/classjavolution_1_1util_1_1internal_1_1table_1_1FractalTableImpl.html#aaf1d7f4ec659b31a33f597b47e76c94a" target="_top" xlink:title=" ">
<polygon fill="white" stroke="black" points="412,-67.5 412,-97.5 567,-97.5 567,-67.5 412,-67.5"/>
<text text-anchor="start" x="420" y="-85.5" font-family="Helvetica,sans-Serif" font-size="10.00">javolution.util.internal.table.</text>
<text text-anchor="middle" x="489.5" y="-74.5" font-family="Helvetica,sans-Serif" font-size="10.00">FractalTableImpl.shiftRight</text>
</a>
</g>
</g>
<!-- Node1&#45;&gt;Node13 -->
<g id="edge14" class="edge">
<title>Node1&#45;&gt;Node13</title>
<path fill="none" stroke="midnightblue" d="M648.49,-177.62C626.09,-162.72 594.97,-142.41 567,-125.5 551.09,-115.88 532.97,-105.67 518.36,-97.61"/>
<polygon fill="midnightblue" stroke="midnightblue" points="646.67,-180.61 656.93,-183.25 650.55,-174.79 646.67,-180.61"/>
</g>
<!-- Node4 -->
<g id="node4" class="node">
<title>Node4</title>
<g id="a_node4"><a xlink:href="../../d9/d7a/classjavolution_1_1util_1_1internal_1_1table_1_1FastTableImpl.html#a3ef1cbcb3342302359defd9104eebec3" target="_top" xlink:title=" ">
<polygon fill="white" stroke="black" points="221,-305.5 221,-335.5 376,-335.5 376,-305.5 221,-305.5"/>
<text text-anchor="start" x="229" y="-323.5" font-family="Helvetica,sans-Serif" font-size="10.00">javolution.util.internal.table.</text>
<text text-anchor="middle" x="298.5" y="-312.5" font-family="Helvetica,sans-Serif" font-size="10.00">FastTableImpl.add</text>
</a>
</g>
</g>
<!-- Node3&#45;&gt;Node4 -->
<g id="edge3" class="edge">
<title>Node3&#45;&gt;Node4</title>
<path fill="none" stroke="midnightblue" d="M401.9,-307.5C393.33,-308.59 384.67,-309.68 376.21,-310.76"/>
<polygon fill="midnightblue" stroke="midnightblue" points="402.42,-310.96 411.9,-306.23 401.54,-304.01 402.42,-310.96"/>
</g>
<!-- Node5 -->
<g id="node5" class="node">
<title>Node5</title>
<g id="a_node5"><a xlink:href="../../d9/d7a/classjavolution_1_1util_1_1internal_1_1table_1_1FastTableImpl.html#ac6df68538a497b1a3dc01cee2c1f4f66" target="_top" xlink:title=" ">
<polygon fill="white" stroke="black" points="221,-256.5 221,-286.5 376,-286.5 376,-256.5 221,-256.5"/>
<text text-anchor="start" x="229" y="-274.5" font-family="Helvetica,sans-Serif" font-size="10.00">javolution.util.internal.table.</text>
<text text-anchor="middle" x="298.5" y="-263.5" font-family="Helvetica,sans-Serif" font-size="10.00">FastTableImpl.readObject</text>
</a>
</g>
</g>
<!-- Node3&#45;&gt;Node5 -->
<g id="edge4" class="edge">
<title>Node3&#45;&gt;Node5</title>
<path fill="none" stroke="midnightblue" d="M401.9,-285.04C393.33,-283.91 384.67,-282.77 376.21,-281.65"/>
<polygon fill="midnightblue" stroke="midnightblue" points="401.53,-288.53 411.9,-286.37 402.44,-281.59 401.53,-288.53"/>
</g>
<!-- Node9&#45;&gt;Node9 -->
<g id="edge13" class="edge">
<title>Node9&#45;&gt;Node9</title>
<path fill="none" stroke="midnightblue" d="M523.26,-40.96C519.07,-45.68 507.82,-49 489.5,-49 459.44,-49 448.4,-40.06 456.39,-30.66"/>
<polygon fill="midnightblue" stroke="midnightblue" points="526.73,-40.42 522.61,-30.66 519.75,-40.86 526.73,-40.42"/>
</g>
<!-- Node10 -->
<g id="node10" class="node">
<title>Node10</title>
<g id="a_node10"><a xlink:href="../../d9/d7a/classjavolution_1_1util_1_1internal_1_1table_1_1FastTableImpl.html#ae3172f9ea652c78e78d265d080dcd321" target="_top" xlink:title=" ">
<polygon fill="white" stroke="black" points="221,-58.5 221,-88.5 376,-88.5 376,-58.5 221,-58.5"/>
<text text-anchor="start" x="229" y="-76.5" font-family="Helvetica,sans-Serif" font-size="10.00">javolution.util.internal.table.</text>
<text text-anchor="middle" x="298.5" y="-65.5" font-family="Helvetica,sans-Serif" font-size="10.00">FastTableImpl.add</text>
</a>
</g>
</g>
<!-- Node9&#45;&gt;Node10 -->
<g id="edge10" class="edge">
<title>Node9&#45;&gt;Node10</title>
<path fill="none" stroke="midnightblue" d="M429.57,-33.58C403.51,-41.58 373.21,-50.88 348.42,-58.49"/>
<polygon fill="midnightblue" stroke="midnightblue" points="430.8,-36.87 439.34,-30.59 428.75,-30.18 430.8,-36.87"/>
</g>
<!-- Node11 -->
<g id="node11" class="node">
<title>Node11</title>
<g id="a_node11"><a xlink:href="../../d9/d7a/classjavolution_1_1util_1_1internal_1_1table_1_1FastTableImpl.html#a6ca79dd7969c936ae1dbdc778f00a4d2" target="_top" xlink:title=" ">
<polygon fill="white" stroke="black" points="221,-5.5 221,-35.5 376,-35.5 376,-5.5 221,-5.5"/>
<text text-anchor="start" x="229" y="-23.5" font-family="Helvetica,sans-Serif" font-size="10.00">javolution.util.internal.table.</text>
<text text-anchor="middle" x="298.5" y="-12.5" font-family="Helvetica,sans-Serif" font-size="10.00">FastTableImpl.remove</text>
</a>
</g>
</g>
<!-- Node9&#45;&gt;Node11 -->
<g id="edge11" class="edge">
<title>Node9&#45;&gt;Node11</title>
<path fill="none" stroke="midnightblue" d="M401.9,-17.79C393.33,-18.02 384.67,-18.25 376.21,-18.47"/>
<polygon fill="midnightblue" stroke="midnightblue" points="402,-21.29 411.9,-17.53 401.81,-14.29 402,-21.29"/>
</g>
<!-- Node12 -->
<g id="node12" class="node">
<title>Node12</title>
<g id="a_node12"><a xlink:href="../../d1/d45/classjavolution_1_1util_1_1internal_1_1table_1_1FastTableImpl_1_1IteratorImpl.html#ac261c2ec25c2710db6331700f7b2cf6a" target="_top" xlink:title=" ">
<polygon fill="white" stroke="black" points="0,-5.5 0,-35.5 185,-35.5 185,-5.5 0,-5.5"/>
<text text-anchor="start" x="8" y="-23.5" font-family="Helvetica,sans-Serif" font-size="10.00">javolution.util.internal.table.</text>
<text text-anchor="middle" x="92.5" y="-12.5" font-family="Helvetica,sans-Serif" font-size="10.00">FastTableImpl.IteratorImpl.remove</text>
</a>
</g>
</g>
<!-- Node11&#45;&gt;Node12 -->
<g id="edge12" class="edge">
<title>Node11&#45;&gt;Node12</title>
<path fill="none" stroke="midnightblue" d="M210.76,-20.5C202.32,-20.5 193.75,-20.5 185.27,-20.5"/>
<polygon fill="midnightblue" stroke="midnightblue" points="210.96,-24 220.96,-20.5 210.96,-17 210.96,-24"/>
</g>
<!-- Node13&#45;&gt;Node10 -->
<g id="edge15" class="edge">
<title>Node13&#45;&gt;Node10</title>
<path fill="none" stroke="midnightblue" d="M401.9,-78.38C393.33,-77.97 384.67,-77.56 376.21,-77.15"/>
<polygon fill="midnightblue" stroke="midnightblue" points="401.74,-81.87 411.9,-78.85 402.08,-74.88 401.74,-81.87"/>
</g>
<!-- Node13&#45;&gt;Node11 -->
<g id="edge16" class="edge">
<title>Node13&#45;&gt;Node11</title>
<path fill="none" stroke="midnightblue" d="M430.24,-64.37C424.08,-62.41 417.91,-60.42 412,-58.5 389.26,-51.09 364.03,-42.6 343.24,-35.52"/>
<polygon fill="midnightblue" stroke="midnightblue" points="429.3,-67.74 439.89,-67.42 431.41,-61.07 429.3,-67.74"/>
</g>
<!-- Node13&#45;&gt;Node13 -->
<g id="edge17" class="edge">
<title>Node13&#45;&gt;Node13</title>
<path fill="none" stroke="midnightblue" d="M523.26,-107.96C519.07,-112.68 507.82,-116 489.5,-116 459.44,-116 448.4,-107.06 456.39,-97.66"/>
<polygon fill="midnightblue" stroke="midnightblue" points="526.73,-107.42 522.61,-97.66 519.75,-107.86 526.73,-107.42"/>
</g>
</g>
</svg>
        <g id="navigator" transform="translate(0 0)" fill="#404254">
                <rect fill="#f2f5e9" fill-opacity="0.5" stroke="#606060" stroke-width=".5" x="0" y="0" width="60" height="60"/>
                <use id="zoomplus" xlink:href="#zoomPlus" x="17" y="9" onmousedown="handleZoom(evt,'in')"/>
                <use id="zoomminus" xlink:href="#zoomMin" x="42" y="9" onmousedown="handleZoom(evt,'out')"/>
                <use id="reset" xlink:href="#resetDef" x="30" y="36" onmousedown="handleReset()"/>
                <g id="arrowUp" xlink:href="#dirArrow" transform="translate(30 24)" onmousedown="handlePan(0,-1)">
                  <use xlink:href="#rim" fill="#404040">
                        <set attributeName="fill" to="#808080" begin="arrowUp.mouseover" end="arrowUp.mouseout"/>
                  </use>
                  <path fill="none" stroke="white" stroke-width="1.5" d="M0,-3.0v7 M-2.5,-0.5L0,-3.0L2.5,-0.5"/>
                </g>
                <g id="arrowRight" xlink:href="#dirArrow" transform="rotate(90) translate(36 -43)" onmousedown="handlePan(1,0)">
                  <use xlink:href="#rim" fill="#404040">
                        <set attributeName="fill" to="#808080" begin="arrowRight.mouseover" end="arrowRight.mouseout"/>
                  </use>
                  <path fill="none" stroke="white" stroke-width="1.5" d="M0,-3.0v7 M-2.5,-0.5L0,-3.0L2.5,-0.5"/>
                </g>
                <g id="arrowDown" xlink:href="#dirArrow" transform="rotate(180) translate(-30 -48)" onmousedown="handlePan(0,1)">
                  <use xlink:href="#rim" fill="#404040">
                        <set attributeName="fill" to="#808080" begin="arrowDown.mouseover" end="arrowDown.mouseout"/>
                  </use>
                  <path fill="none" stroke="white" stroke-width="1.5" d="M0,-3.0v7 M-2.5,-0.5L0,-3.0L2.5,-0.5"/>
                </g>
                <g id="arrowLeft" xlink:href="#dirArrow" transform="rotate(270) translate(-36 17)" onmousedown="handlePan(-1,0)">
                  <use xlink:href="#rim" fill="#404040">
                        <set attributeName="fill" to="#808080" begin="arrowLeft.mouseover" end="arrowLeft.mouseout"/>
                  </use>
                  <path fill="none" stroke="white" stroke-width="1.5" d="M0,-3.0v7 M-2.5,-0.5L0,-3.0L2.5,-0.5"/>
                </g>
        </g>
        <svg viewBox="0 0 15 15" width="100%" height="30px" preserveAspectRatio="xMaxYMin meet">
         <g id="arrow_out" transform="scale(0.3 0.3)">
          <a xlink:href="classjavolution_1_1util_1_1internal_1_1table_1_1FractalTableImpl_a3fcca6fb9b975132778bfc13b304308b_icgraph_org.svg" target="_base">
           <rect id="button" ry="5" rx="5" y="6" x="6" height="38" width="38"
                fill="#f2f5e9" fill-opacity="0.5" stroke="#606060" stroke-width="1.0"/>
           <path id="arrow"
             d="M 11.500037,31.436501 C 11.940474,20.09759 22.043105,11.32322 32.158766,21.979434 L 37.068811,17.246167 C 37.068811,17.246167 37.088388,32 37.088388,32 L 22.160133,31.978069 C 22.160133,31.978069 26.997745,27.140456 26.997745,27.140456 C 18.528582,18.264221 13.291696,25.230495 11.500037,31.436501 z"
             style="fill:#404040;"/>
          </a>
         </g>
        </svg>
</svg>
