<?xml version="1.0" encoding="UTF-8" standalone="no"?>
<!DOCTYPE svg PUBLIC "-//W3C//DTD SVG 1.1//EN"
 "http://www.w3.org/Graphics/SVG/1.1/DTD/svg11.dtd">
<!-- Generated by graphviz version 2.43.0 (0)
 -->
<!-- Title: javolution.context.ConcurrentContext.execute Pages: 1 -->
<svg width="594pt" height="137pt"
 viewBox="0.00 0.00 594.00 137.00" xmlns="http://www.w3.org/2000/svg" xmlns:xlink="http://www.w3.org/1999/xlink">
<g id="graph0" class="graph" transform="scale(1 1) rotate(0) translate(4 133)">
<title>javolution.context.ConcurrentContext.execute</title>
<polygon fill="white" stroke="transparent" points="-4,4 -4,-133 590,-133 590,4 -4,4"/>
<!-- Node1 -->
<g id="node1" class="node">
<title>Node1</title>
<g id="a_node1"><a xlink:title=" ">
<polygon fill="#bfbfbf" stroke="black" points="0,-24.5 0,-54.5 161,-54.5 161,-24.5 0,-24.5"/>
<text text-anchor="start" x="8" y="-42.5" font-family="Helvetica,sans-Serif" font-size="10.00">javolution.context.Concurrent</text>
<text text-anchor="middle" x="80.5" y="-31.5" font-family="Helvetica,sans-Serif" font-size="10.00">Context.execute</text>
</a>
</g>
</g>
<!-- Node1&#45;&gt;Node1 -->
<g id="edge5" class="edge">
<title>Node1&#45;&gt;Node1</title>
<path fill="none" stroke="midnightblue" d="M46.34,-54.66C38.11,-64.06 49.49,-73 80.5,-73 99.4,-73 111,-69.68 115.33,-64.96"/>
<polygon fill="midnightblue" stroke="midnightblue" points="118.8,-64.41 114.66,-54.66 111.81,-64.87 118.8,-64.41"/>
</g>
<!-- Node2 -->
<g id="node2" class="node">
<title>Node2</title>
<g id="a_node2"><a xlink:href="../../d7/dda/classjavolution_1_1context_1_1ConcurrentContext.html#a6c82acd0e5f68e38a7fce9d652e4d88c" target="_top" xlink:title=" ">
<polygon fill="white" stroke="black" points="197,-49.5 197,-79.5 358,-79.5 358,-49.5 197,-49.5"/>
<text text-anchor="start" x="205" y="-67.5" font-family="Helvetica,sans-Serif" font-size="10.00">javolution.context.Concurrent</text>
<text text-anchor="middle" x="277.5" y="-56.5" font-family="Helvetica,sans-Serif" font-size="10.00">Context.enter</text>
</a>
</g>
</g>
<!-- Node1&#45;&gt;Node2 -->
<g id="edge1" class="edge">
<title>Node1&#45;&gt;Node2</title>
<path fill="none" stroke="midnightblue" d="M161.1,-49.7C169.57,-50.79 178.24,-51.9 186.82,-53"/>
<polygon fill="midnightblue" stroke="midnightblue" points="186.48,-56.49 196.84,-54.29 187.37,-49.54 186.48,-56.49"/>
</g>
<!-- Node6 -->
<g id="node6" class="node">
<title>Node6</title>
<g id="a_node6"><a xlink:href="../../d7/dda/classjavolution_1_1context_1_1ConcurrentContext.html#a3843d9f64f9b7f1dedf3cbd96fb49eae" target="_top" xlink:title=" ">
<polygon fill="white" stroke="black" points="197,-0.5 197,-30.5 358,-30.5 358,-0.5 197,-0.5"/>
<text text-anchor="start" x="205" y="-18.5" font-family="Helvetica,sans-Serif" font-size="10.00">javolution.context.Concurrent</text>
<text text-anchor="middle" x="277.5" y="-7.5" font-family="Helvetica,sans-Serif" font-size="10.00">Context.exit</text>
</a>
</g>
</g>
<!-- Node1&#45;&gt;Node6 -->
<g id="edge6" class="edge">
<title>Node1&#45;&gt;Node6</title>
<path fill="none" stroke="midnightblue" d="M161.1,-29.7C169.57,-28.66 178.24,-27.59 186.82,-26.54"/>
<polygon fill="midnightblue" stroke="midnightblue" points="187.35,-30 196.84,-25.3 186.49,-23.05 187.35,-30"/>
</g>
<!-- Node3 -->
<g id="node3" class="node">
<title>Node3</title>
<g id="a_node3"><a xlink:href="../../d3/d0f/classjavolution_1_1context_1_1AbstractContext.html#a39804b0188cf822819d88f43715deaba" target="_top" xlink:title=" ">
<polygon fill="white" stroke="black" points="415.5,-98.5 415.5,-128.5 564.5,-128.5 564.5,-98.5 415.5,-98.5"/>
<text text-anchor="start" x="423.5" y="-116.5" font-family="Helvetica,sans-Serif" font-size="10.00">javolution.context.Abstract</text>
<text text-anchor="middle" x="490" y="-105.5" font-family="Helvetica,sans-Serif" font-size="10.00">Context.current</text>
</a>
</g>
</g>
<!-- Node2&#45;&gt;Node3 -->
<g id="edge2" class="edge">
<title>Node2&#45;&gt;Node3</title>
<path fill="none" stroke="midnightblue" d="M343.09,-79.53C365.72,-84.8 391.31,-90.76 414.67,-96.2"/>
<polygon fill="midnightblue" stroke="midnightblue" points="414,-99.64 424.53,-98.49 415.59,-92.82 414,-99.64"/>
</g>
<!-- Node4 -->
<g id="node4" class="node">
<title>Node4</title>
<g id="a_node4"><a xlink:href="../../d3/d0f/classjavolution_1_1context_1_1AbstractContext.html#a38d71d74581d9168f8cf0ae5916bbc94" target="_top" xlink:title=" ">
<polygon fill="white" stroke="black" points="415.5,-49.5 415.5,-79.5 564.5,-79.5 564.5,-49.5 415.5,-49.5"/>
<text text-anchor="start" x="423.5" y="-67.5" font-family="Helvetica,sans-Serif" font-size="10.00">javolution.context.Abstract</text>
<text text-anchor="middle" x="490" y="-56.5" font-family="Helvetica,sans-Serif" font-size="10.00">Context.enterInner</text>
</a>
</g>
</g>
<!-- Node2&#45;&gt;Node4 -->
<g id="edge3" class="edge">
<title>Node2&#45;&gt;Node4</title>
<path fill="none" stroke="midnightblue" d="M358.08,-64.5C373.46,-64.5 389.61,-64.5 405.12,-64.5"/>
<polygon fill="midnightblue" stroke="midnightblue" points="405.2,-68 415.2,-64.5 405.2,-61 405.2,-68"/>
</g>
<!-- Node5 -->
<g id="node5" class="node">
<title>Node5</title>
<g id="a_node5"><a xlink:href="../../d8/d20/classjavolution_1_1osgi_1_1internal_1_1OSGiServices.html#af7dafc511ed3371f70e4d17c96629a24" target="_top" xlink:title=" ">
<polygon fill="white" stroke="black" points="394,-0.5 394,-30.5 586,-30.5 586,-0.5 394,-0.5"/>
<text text-anchor="start" x="402" y="-18.5" font-family="Helvetica,sans-Serif" font-size="10.00">javolution.osgi.internal.</text>
<text text-anchor="middle" x="490" y="-7.5" font-family="Helvetica,sans-Serif" font-size="10.00">OSGiServices.getConcurrentContext</text>
</a>
</g>
</g>
<!-- Node2&#45;&gt;Node5 -->
<g id="edge4" class="edge">
<title>Node2&#45;&gt;Node5</title>
<path fill="none" stroke="midnightblue" d="M343.09,-49.47C365.72,-44.2 391.31,-38.24 414.67,-32.8"/>
<polygon fill="midnightblue" stroke="midnightblue" points="415.59,-36.18 424.53,-30.51 414,-29.36 415.59,-36.18"/>
</g>
</g>
</svg>
