<?xml version="1.0" encoding="UTF-8" standalone="no"?>
<!DOCTYPE svg PUBLIC "-//W3C//DTD SVG 1.1//EN"
 "http://www.w3.org/Graphics/SVG/1.1/DTD/svg11.dtd">
<!-- Generated by graphviz version 2.43.0 (0)
 -->
<!-- Title: javolution.xml.XMLReferenceResolver.readReference Pages: 1 -->
<svg width="806pt" height="126pt"
 viewBox="0.00 0.00 806.00 126.00" xmlns="http://www.w3.org/2000/svg" xmlns:xlink="http://www.w3.org/1999/xlink">
<g id="graph0" class="graph" transform="scale(1 1) rotate(0) translate(4 122)">
<title>javolution.xml.XMLReferenceResolver.readReference</title>
<polygon fill="white" stroke="transparent" points="-4,4 -4,-122 802,-122 802,4 -4,4"/>
<!-- Node1 -->
<g id="node1" class="node">
<title>Node1</title>
<g id="a_node1"><a xlink:title=" ">
<polygon fill="#bfbfbf" stroke="black" points="0,-55 0,-85 161,-85 161,-55 0,-55"/>
<text text-anchor="start" x="8" y="-73" font-family="Helvetica,sans-Serif" font-size="10.00">javolution.xml.XMLReference</text>
<text text-anchor="middle" x="80.5" y="-62" font-family="Helvetica,sans-Serif" font-size="10.00">Resolver.readReference</text>
</a>
</g>
</g>
<!-- Node2 -->
<g id="node2" class="node">
<title>Node2</title>
<g id="a_node2"><a xlink:href="../../da/dd1/classjavolution_1_1util_1_1FastTable.html#a5ac8a231e7c98d5cc5574edca2f5c4a4" target="_top" xlink:title=" ">
<polygon fill="white" stroke="black" points="203.5,-98.5 203.5,-117.5 354.5,-117.5 354.5,-98.5 203.5,-98.5"/>
<text text-anchor="middle" x="279" y="-105.5" font-family="Helvetica,sans-Serif" font-size="10.00">javolution.util.FastTable.get</text>
</a>
</g>
</g>
<!-- Node1&#45;&gt;Node2 -->
<g id="edge1" class="edge">
<title>Node1&#45;&gt;Node2</title>
<path fill="none" stroke="midnightblue" d="M159.16,-85.02C179.08,-88.87 200.17,-92.95 218.97,-96.59"/>
<polygon fill="midnightblue" stroke="midnightblue" points="218.39,-100.04 228.87,-98.5 219.72,-93.16 218.39,-100.04"/>
</g>
<!-- Node3 -->
<g id="node3" class="node">
<title>Node3</title>
<g id="a_node3"><a xlink:href="../../da/dd1/classjavolution_1_1util_1_1FastTable.html#ad6038fbfbee805162826f33f890418ab" target="_top" xlink:title=" ">
<polygon fill="white" stroke="black" points="201.5,-60.5 201.5,-79.5 356.5,-79.5 356.5,-60.5 201.5,-60.5"/>
<text text-anchor="middle" x="279" y="-67.5" font-family="Helvetica,sans-Serif" font-size="10.00">javolution.util.FastTable.size</text>
</a>
</g>
</g>
<!-- Node1&#45;&gt;Node3 -->
<g id="edge2" class="edge">
<title>Node1&#45;&gt;Node3</title>
<path fill="none" stroke="midnightblue" d="M161.14,-70C171.11,-70 181.35,-70 191.43,-70"/>
<polygon fill="midnightblue" stroke="midnightblue" points="191.43,-73.5 201.43,-70 191.43,-66.5 191.43,-73.5"/>
</g>
<!-- Node4 -->
<g id="node4" class="node">
<title>Node4</title>
<g id="a_node4"><a xlink:href="../../d0/d36/classjavolution_1_1text_1_1CharArray.html#ad22599c07aa82434a6021f2a1cbb602e" target="_top" xlink:title=" ">
<polygon fill="white" stroke="black" points="197,-22.5 197,-41.5 361,-41.5 361,-22.5 197,-22.5"/>
<text text-anchor="middle" x="279" y="-29.5" font-family="Helvetica,sans-Serif" font-size="10.00">javolution.text.CharArray.toInt</text>
</a>
</g>
</g>
<!-- Node1&#45;&gt;Node4 -->
<g id="edge3" class="edge">
<title>Node1&#45;&gt;Node4</title>
<path fill="none" stroke="midnightblue" d="M159.16,-54.98C179.08,-51.13 200.17,-47.05 218.97,-43.41"/>
<polygon fill="midnightblue" stroke="midnightblue" points="219.72,-46.84 228.87,-41.5 218.39,-39.96 219.72,-46.84"/>
</g>
<!-- Node5 -->
<g id="node5" class="node">
<title>Node5</title>
<g id="a_node5"><a xlink:href="../../d2/d86/classjavolution_1_1text_1_1TypeFormat.html#a1fd0b02a320162fafc1abece2b57b576" target="_top" xlink:title=" ">
<polygon fill="white" stroke="black" points="397,-22.5 397,-41.5 588,-41.5 588,-22.5 397,-22.5"/>
<text text-anchor="middle" x="492.5" y="-29.5" font-family="Helvetica,sans-Serif" font-size="10.00">javolution.text.TypeFormat.parseInt</text>
</a>
</g>
</g>
<!-- Node4&#45;&gt;Node5 -->
<g id="edge4" class="edge">
<title>Node4&#45;&gt;Node5</title>
<path fill="none" stroke="midnightblue" d="M361.17,-32C369.54,-32 378.13,-32 386.71,-32"/>
<polygon fill="midnightblue" stroke="midnightblue" points="386.77,-35.5 396.77,-32 386.77,-28.5 386.77,-35.5"/>
</g>
<!-- Node6 -->
<g id="node6" class="node">
<title>Node6</title>
<g id="a_node6"><a xlink:href="../../d0/dce/classjavolution_1_1text_1_1Cursor.html#a3c05d8bae9082071d73d9ff0c2caf791" target="_top" xlink:title=" ">
<polygon fill="white" stroke="black" points="641,-39 641,-69 781,-69 781,-39 641,-39"/>
<text text-anchor="start" x="649" y="-57" font-family="Helvetica,sans-Serif" font-size="10.00">javolution.text.Cursor.get</text>
<text text-anchor="middle" x="711" y="-46" font-family="Helvetica,sans-Serif" font-size="10.00">Index</text>
</a>
</g>
</g>
<!-- Node5&#45;&gt;Node6 -->
<g id="edge5" class="edge">
<title>Node5&#45;&gt;Node6</title>
<path fill="none" stroke="midnightblue" d="M587.2,-41.52C601.73,-43 616.62,-44.51 630.79,-45.95"/>
<polygon fill="midnightblue" stroke="midnightblue" points="630.66,-49.46 640.96,-46.98 631.37,-42.49 630.66,-49.46"/>
</g>
<!-- Node7 -->
<g id="node7" class="node">
<title>Node7</title>
<g id="a_node7"><a xlink:href="../../d0/dce/classjavolution_1_1text_1_1Cursor.html#a021df95865b1703e8e34c6935c4a93ef" target="_top" xlink:title=" ">
<polygon fill="white" stroke="black" points="624,-0.5 624,-19.5 798,-19.5 798,-0.5 624,-0.5"/>
<text text-anchor="middle" x="711" y="-7.5" font-family="Helvetica,sans-Serif" font-size="10.00">javolution.text.Cursor.increment</text>
</a>
</g>
</g>
<!-- Node5&#45;&gt;Node7 -->
<g id="edge6" class="edge">
<title>Node5&#45;&gt;Node7</title>
<path fill="none" stroke="midnightblue" d="M587.2,-22.48C595.91,-21.59 604.74,-20.7 613.47,-19.81"/>
<polygon fill="midnightblue" stroke="midnightblue" points="614.07,-23.27 623.66,-18.77 613.36,-16.3 614.07,-23.27"/>
</g>
</g>
</svg>
