<?xml version="1.0" encoding="UTF-8" standalone="no"?>
<!DOCTYPE svg PUBLIC "-//W3C//DTD SVG 1.1//EN"
 "http://www.w3.org/Graphics/SVG/1.1/DTD/svg11.dtd">
<!-- Generated by graphviz version 2.43.0 (0)
 -->
<!-- Title: javolution.io.Struct.Reference64.value Pages: 1 -->
<svg width="934pt" height="185pt"
 viewBox="0.00 0.00 934.00 184.50" xmlns="http://www.w3.org/2000/svg" xmlns:xlink="http://www.w3.org/1999/xlink">
<g id="graph0" class="graph" transform="scale(1 1) rotate(0) translate(4 180.5)">
<title>javolution.io.Struct.Reference64.value</title>
<polygon fill="white" stroke="transparent" points="-4,4 -4,-180.5 930,-180.5 930,4 -4,4"/>
<!-- Node1 -->
<g id="node1" class="node">
<title>Node1</title>
<g id="a_node1"><a xlink:title=" ">
<polygon fill="#bfbfbf" stroke="black" points="0,-44.5 0,-63.5 203,-63.5 203,-44.5 0,-44.5"/>
<text text-anchor="middle" x="101.5" y="-51.5" font-family="Helvetica,sans-Serif" font-size="10.00">javolution.io.Struct.Reference64.value</text>
</a>
</g>
</g>
<!-- Node2 -->
<g id="node2" class="node">
<title>Node2</title>
<g id="a_node2"><a xlink:href="../../d7/d99/classjavolution_1_1io_1_1Struct.html#a7e750810b50675d99a38aec0e4ef0e1f" target="_top" xlink:title=" ">
<polygon fill="white" stroke="black" points="266,-106 266,-136 394,-136 394,-106 266,-106"/>
<text text-anchor="start" x="274" y="-124" font-family="Helvetica,sans-Serif" font-size="10.00">javolution.io.Struct.get</text>
<text text-anchor="middle" x="330" y="-113" font-family="Helvetica,sans-Serif" font-size="10.00">ByteBuffer</text>
</a>
</g>
</g>
<!-- Node1&#45;&gt;Node2 -->
<g id="edge1" class="edge">
<title>Node1&#45;&gt;Node2</title>
<path fill="none" stroke="midnightblue" d="M131.41,-63.52C158.96,-72.49 201.66,-86.15 239,-97 246.13,-99.07 253.59,-101.17 261.04,-103.22"/>
<polygon fill="midnightblue" stroke="midnightblue" points="260.23,-106.63 270.8,-105.89 262.07,-99.88 260.23,-106.63"/>
</g>
<!-- Node7 -->
<g id="node7" class="node">
<title>Node7</title>
<g id="a_node7"><a xlink:href="../../d7/d99/classjavolution_1_1io_1_1Struct.html#af409d73a3cf8dbd3939fcb7d5cf386e3" target="_top" xlink:title=" ">
<polygon fill="white" stroke="black" points="266,-39 266,-69 394,-69 394,-39 266,-39"/>
<text text-anchor="start" x="274" y="-57" font-family="Helvetica,sans-Serif" font-size="10.00">javolution.io.Struct.get</text>
<text text-anchor="middle" x="330" y="-46" font-family="Helvetica,sans-Serif" font-size="10.00">ByteBufferPosition</text>
</a>
</g>
</g>
<!-- Node1&#45;&gt;Node7 -->
<g id="edge9" class="edge">
<title>Node1&#45;&gt;Node7</title>
<path fill="none" stroke="midnightblue" d="M203.17,-54C220.78,-54 238.8,-54 255.5,-54"/>
<polygon fill="midnightblue" stroke="midnightblue" points="255.71,-57.5 265.71,-54 255.71,-50.5 255.71,-57.5"/>
</g>
<!-- Node8 -->
<g id="node8" class="node">
<title>Node8</title>
<g id="a_node8"><a xlink:href="../../d2/d46/classjavolution_1_1io_1_1Struct_1_1Member.html#a0055f0a4d71892a2eead00baf426d96c" target="_top" xlink:title=" ">
<polygon fill="white" stroke="black" points="239,-0.5 239,-19.5 421,-19.5 421,-0.5 239,-0.5"/>
<text text-anchor="middle" x="330" y="-7.5" font-family="Helvetica,sans-Serif" font-size="10.00">javolution.io.Struct.Member.offset</text>
</a>
</g>
</g>
<!-- Node1&#45;&gt;Node8 -->
<g id="edge11" class="edge">
<title>Node1&#45;&gt;Node8</title>
<path fill="none" stroke="midnightblue" d="M151.65,-44.45C186.37,-37.71 233.09,-28.63 269.86,-21.49"/>
<polygon fill="midnightblue" stroke="midnightblue" points="270.8,-24.87 279.95,-19.53 269.46,-18 270.8,-24.87"/>
</g>
<!-- Node2&#45;&gt;Node2 -->
<g id="edge2" class="edge">
<title>Node2&#45;&gt;Node2</title>
<path fill="none" stroke="midnightblue" d="M296.54,-136.16C288.47,-145.56 299.62,-154.5 330,-154.5 348.51,-154.5 359.88,-151.18 364.12,-146.46"/>
<polygon fill="midnightblue" stroke="midnightblue" points="367.59,-145.92 363.46,-136.16 360.6,-146.36 367.59,-145.92"/>
</g>
<!-- Node3 -->
<g id="node3" class="node">
<title>Node3</title>
<g id="a_node3"><a xlink:href="../../d7/d99/classjavolution_1_1io_1_1Struct.html#aed9aed0fbd20e6523e215d990cbe5740" target="_top" xlink:title=" ">
<polygon fill="white" stroke="black" points="457,-106 457,-136 589,-136 589,-106 457,-106"/>
<text text-anchor="start" x="465" y="-124" font-family="Helvetica,sans-Serif" font-size="10.00">javolution.io.Struct.new</text>
<text text-anchor="middle" x="523" y="-113" font-family="Helvetica,sans-Serif" font-size="10.00">Buffer</text>
</a>
</g>
</g>
<!-- Node2&#45;&gt;Node3 -->
<g id="edge3" class="edge">
<title>Node2&#45;&gt;Node3</title>
<path fill="none" stroke="midnightblue" d="M394.07,-121C410.87,-121 429.2,-121 446.59,-121"/>
<polygon fill="midnightblue" stroke="midnightblue" points="446.71,-124.5 456.71,-121 446.71,-117.5 446.71,-124.5"/>
</g>
<!-- Node4 -->
<g id="node4" class="node">
<title>Node4</title>
<g id="a_node4"><a xlink:href="../../d7/d99/classjavolution_1_1io_1_1Struct.html#a81fd85611da71c484375e2c0ef9124e6" target="_top" xlink:title=" ">
<polygon fill="white" stroke="black" points="792,-128 792,-158 926,-158 926,-128 792,-128"/>
<text text-anchor="start" x="800" y="-146" font-family="Helvetica,sans-Serif" font-size="10.00">javolution.io.Struct.byte</text>
<text text-anchor="middle" x="859" y="-135" font-family="Helvetica,sans-Serif" font-size="10.00">Order</text>
</a>
</g>
</g>
<!-- Node3&#45;&gt;Node4 -->
<g id="edge4" class="edge">
<title>Node3&#45;&gt;Node4</title>
<path fill="none" stroke="midnightblue" d="M574.41,-136.03C590.43,-140.11 608.32,-143.97 625,-146 677.08,-152.35 736.19,-151.5 781.84,-149.11"/>
<polygon fill="midnightblue" stroke="midnightblue" points="782.17,-152.59 791.96,-148.54 781.78,-145.61 782.17,-152.59"/>
</g>
<!-- Node5 -->
<g id="node5" class="node">
<title>Node5</title>
<g id="a_node5"><a xlink:href="../../d7/d99/classjavolution_1_1io_1_1Struct.html#a27767d656cd1f1d9079c309a86912237" target="_top" xlink:title=" ">
<polygon fill="white" stroke="black" points="627,-106 627,-136 754,-136 754,-106 627,-106"/>
<text text-anchor="start" x="635" y="-124" font-family="Helvetica,sans-Serif" font-size="10.00">javolution.io.Struct.set</text>
<text text-anchor="middle" x="690.5" y="-113" font-family="Helvetica,sans-Serif" font-size="10.00">ByteBuffer</text>
</a>
</g>
</g>
<!-- Node3&#45;&gt;Node5 -->
<g id="edge6" class="edge">
<title>Node3&#45;&gt;Node5</title>
<path fill="none" stroke="midnightblue" d="M589.41,-121C598.4,-121 607.68,-121 616.8,-121"/>
<polygon fill="midnightblue" stroke="midnightblue" points="616.99,-124.5 626.99,-121 616.99,-117.5 616.99,-124.5"/>
</g>
<!-- Node6 -->
<g id="node6" class="node">
<title>Node6</title>
<g id="a_node6"><a xlink:href="../../d7/d99/classjavolution_1_1io_1_1Struct.html#a6c5b77be973f699a4f0a80b360de5d42" target="_top" xlink:title=" ">
<polygon fill="white" stroke="black" points="625,-67.5 625,-86.5 756,-86.5 756,-67.5 625,-67.5"/>
<text text-anchor="middle" x="690.5" y="-74.5" font-family="Helvetica,sans-Serif" font-size="10.00">javolution.io.Struct.size</text>
</a>
</g>
</g>
<!-- Node3&#45;&gt;Node6 -->
<g id="edge8" class="edge">
<title>Node3&#45;&gt;Node6</title>
<path fill="none" stroke="midnightblue" d="M580.49,-105.98C601.07,-100.51 624.05,-94.4 643.6,-89.2"/>
<polygon fill="midnightblue" stroke="midnightblue" points="644.71,-92.53 653.47,-86.58 642.91,-85.77 644.71,-92.53"/>
</g>
<!-- Node4&#45;&gt;Node4 -->
<g id="edge5" class="edge">
<title>Node4&#45;&gt;Node4</title>
<path fill="none" stroke="midnightblue" d="M829.72,-158.16C822.66,-167.56 832.42,-176.5 859,-176.5 875.2,-176.5 885.15,-173.18 888.85,-168.46"/>
<polygon fill="midnightblue" stroke="midnightblue" points="892.33,-167.95 888.28,-158.16 885.34,-168.34 892.33,-167.95"/>
</g>
<!-- Node5&#45;&gt;Node4 -->
<g id="edge7" class="edge">
<title>Node5&#45;&gt;Node4</title>
<path fill="none" stroke="midnightblue" d="M754.45,-129.32C763.44,-130.51 772.77,-131.74 781.98,-132.96"/>
<polygon fill="midnightblue" stroke="midnightblue" points="781.54,-136.43 791.91,-134.27 782.46,-129.49 781.54,-136.43"/>
</g>
<!-- Node7&#45;&gt;Node7 -->
<g id="edge10" class="edge">
<title>Node7&#45;&gt;Node7</title>
<path fill="none" stroke="midnightblue" d="M296.54,-69.16C288.47,-78.56 299.62,-87.5 330,-87.5 348.51,-87.5 359.88,-84.18 364.12,-79.46"/>
<polygon fill="midnightblue" stroke="midnightblue" points="367.59,-78.92 363.46,-69.16 360.6,-79.36 367.59,-78.92"/>
</g>
</g>
</svg>
