<?xml version="1.0" encoding="UTF-8" standalone="no"?>
<!DOCTYPE svg PUBLIC "-//W3C//DTD SVG 1.1//EN"
 "http://www.w3.org/Graphics/SVG/1.1/DTD/svg11.dtd">
<!-- Generated by graphviz version 2.43.0 (0)
 -->
<!-- Title: javolution.util.FastBitSet Pages: 1 -->
<svg width="552pt" height="127pt"
 viewBox="0.00 0.00 552.00 126.50" xmlns="http://www.w3.org/2000/svg" xmlns:xlink="http://www.w3.org/1999/xlink">
<g id="graph0" class="graph" transform="scale(1 1) rotate(0) translate(4 122.5)">
<title>javolution.util.FastBitSet</title>
<polygon fill="white" stroke="transparent" points="-4,4 -4,-122.5 548,-122.5 548,4 -4,4"/>
<!-- Node1 -->
<g id="node1" class="node">
<title>Node1</title>
<g id="a_node1"><a xlink:title=" ">
<polygon fill="#bfbfbf" stroke="black" points="408,-44.5 408,-63.5 544,-63.5 544,-44.5 408,-44.5"/>
<text text-anchor="middle" x="476" y="-51.5" font-family="Helvetica,sans-Serif" font-size="10.00">javolution.util.FastBitSet</text>
</a>
</g>
</g>
<!-- Node2 -->
<g id="node2" class="node">
<title>Node2</title>
<g id="a_node2"><a xlink:href="../../d1/da7/classjavolution_1_1util_1_1FastSet.html" target="_top" xlink:title=" ">
<polygon fill="white" stroke="black" points="163.5,-88 163.5,-118 285.5,-118 285.5,-88 163.5,-88"/>
<text text-anchor="start" x="171.5" y="-106" font-family="Helvetica,sans-Serif" font-size="10.00">javolution.util.FastSet</text>
<text text-anchor="middle" x="224.5" y="-95" font-family="Helvetica,sans-Serif" font-size="10.00">&lt; Index &gt;</text>
</a>
</g>
</g>
<!-- Node2&#45;&gt;Node1 -->
<g id="edge1" class="edge">
<title>Node2&#45;&gt;Node1</title>
<path fill="none" stroke="midnightblue" d="M295.4,-89.27C337.11,-81.08 389.04,-70.88 426.31,-63.56"/>
<polygon fill="midnightblue" stroke="midnightblue" points="294.72,-85.84 285.58,-91.2 296.07,-92.71 294.72,-85.84"/>
</g>
<!-- Node3 -->
<g id="node3" class="node">
<title>Node3</title>
<g id="a_node3"><a xlink:href="../../d7/d3d/interfacejavolution_1_1util_1_1service_1_1BitSetService.html" target="_top" xlink:title=" ">
<polygon fill="white" stroke="black" points="162,-39 162,-69 287,-69 287,-39 162,-39"/>
<text text-anchor="start" x="170" y="-57" font-family="Helvetica,sans-Serif" font-size="10.00">javolution.util.service.</text>
<text text-anchor="middle" x="224.5" y="-46" font-family="Helvetica,sans-Serif" font-size="10.00">BitSetService</text>
</a>
</g>
</g>
<!-- Node3&#45;&gt;Node1 -->
<g id="edge2" class="edge">
<title>Node3&#45;&gt;Node1</title>
<path fill="none" stroke="#9a32cd" stroke-dasharray="5,2" d="M297.28,-54C332.11,-54 373.71,-54 407.91,-54"/>
<polygon fill="#9a32cd" stroke="#9a32cd" points="297.17,-50.5 287.17,-54 297.17,-57.5 297.17,-50.5"/>
<text text-anchor="middle" x="347.5" y="-57" font-family="Helvetica,sans-Serif" font-size="10.00"> service</text>
</g>
<!-- Node4 -->
<g id="node4" class="node">
<title>Node4</title>
<g id="a_node4"><a xlink:href="../../d6/d3e/interfacejavolution_1_1util_1_1service_1_1SetService.html" target="_top" xlink:title=" ">
<polygon fill="white" stroke="black" points="0,-39 0,-69 125,-69 125,-39 0,-39"/>
<text text-anchor="start" x="8" y="-57" font-family="Helvetica,sans-Serif" font-size="10.00">javolution.util.service.</text>
<text text-anchor="middle" x="62.5" y="-46" font-family="Helvetica,sans-Serif" font-size="10.00">SetService&lt; Index &gt;</text>
</a>
</g>
</g>
<!-- Node4&#45;&gt;Node3 -->
<g id="edge3" class="edge">
<title>Node4&#45;&gt;Node3</title>
<path fill="none" stroke="midnightblue" d="M135.56,-54C144.32,-54 153.21,-54 161.8,-54"/>
<polygon fill="midnightblue" stroke="midnightblue" points="135.36,-50.5 125.36,-54 135.36,-57.5 135.36,-50.5"/>
</g>
<!-- Node5 -->
<g id="node5" class="node">
<title>Node5</title>
<g id="a_node5"><a xlink:title=" ">
<polygon fill="white" stroke="#bfbfbf" points="178.5,-0.5 178.5,-19.5 270.5,-19.5 270.5,-0.5 178.5,-0.5"/>
<text text-anchor="middle" x="224.5" y="-7.5" font-family="Helvetica,sans-Serif" font-size="10.00">static final long</text>
</a>
</g>
</g>
<!-- Node5&#45;&gt;Node1 -->
<g id="edge4" class="edge">
<title>Node5&#45;&gt;Node1</title>
<path fill="none" stroke="#9a32cd" stroke-dasharray="5,2" d="M280.57,-19.71C312.52,-25.34 353.54,-32.57 390,-39 400.03,-40.77 410.74,-42.66 421.04,-44.48"/>
<polygon fill="#9a32cd" stroke="#9a32cd" points="280.99,-16.23 270.53,-17.94 279.77,-23.12 280.99,-16.23"/>
<text text-anchor="middle" x="347.5" y="-42" font-family="Helvetica,sans-Serif" font-size="10.00"> serialVersionUID</text>
</g>
</g>
</svg>
