<?xml version="1.0" encoding="UTF-8" standalone="no"?>
<!DOCTYPE svg PUBLIC "-//W3C//DTD SVG 1.1//EN"
 "http://www.w3.org/Graphics/SVG/1.1/DTD/svg11.dtd">
<!-- Generated by graphviz version 2.43.0 (0)
 -->
<!-- Title: javolution.context.LogContext.debug Pages: 1 -->
<svg width="634pt" height="103pt"
 viewBox="0.00 0.00 634.00 102.50" xmlns="http://www.w3.org/2000/svg" xmlns:xlink="http://www.w3.org/1999/xlink">
<g id="graph0" class="graph" transform="scale(1 1) rotate(0) translate(4 98.5)">
<title>javolution.context.LogContext.debug</title>
<polygon fill="white" stroke="transparent" points="-4,4 -4,-98.5 630,-98.5 630,4 -4,4"/>
<!-- Node1 -->
<g id="node1" class="node">
<title>Node1</title>
<g id="a_node1"><a xlink:title=" ">
<polygon fill="#bfbfbf" stroke="black" points="0,-22.5 0,-41.5 197,-41.5 197,-22.5 0,-22.5"/>
<text text-anchor="middle" x="98.5" y="-29.5" font-family="Helvetica,sans-Serif" font-size="10.00">javolution.context.LogContext.debug</text>
</a>
</g>
</g>
<!-- Node2 -->
<g id="node2" class="node">
<title>Node2</title>
<g id="a_node2"><a xlink:href="../../db/de8/classjavolution_1_1context_1_1LogContext.html#a3ad63f63b01950647a13c980c14c111a" target="_top" xlink:title=" ">
<polygon fill="white" stroke="black" points="233,-39 233,-69 434,-69 434,-39 233,-39"/>
<text text-anchor="start" x="241" y="-57" font-family="Helvetica,sans-Serif" font-size="10.00">javolution.context.LogContext.current</text>
<text text-anchor="middle" x="333.5" y="-46" font-family="Helvetica,sans-Serif" font-size="10.00">LogContext</text>
</a>
</g>
</g>
<!-- Node1&#45;&gt;Node2 -->
<g id="edge1" class="edge">
<title>Node1&#45;&gt;Node2</title>
<path fill="none" stroke="midnightblue" d="M197.3,-41.23C205.62,-42.02 214.08,-42.82 222.48,-43.61"/>
<polygon fill="midnightblue" stroke="midnightblue" points="222.42,-47.12 232.71,-44.58 223.08,-40.15 222.42,-47.12"/>
</g>
<!-- Node5 -->
<g id="node5" class="node">
<title>Node5</title>
<g id="a_node5"><a xlink:href="../../db/de8/classjavolution_1_1context_1_1LogContext.html#a1f213be4946618a105225786df8210b1" target="_top" xlink:title=" ">
<polygon fill="white" stroke="black" points="242.5,-0.5 242.5,-19.5 424.5,-19.5 424.5,-0.5 242.5,-0.5"/>
<text text-anchor="middle" x="333.5" y="-7.5" font-family="Helvetica,sans-Serif" font-size="10.00">javolution.context.LogContext.log</text>
</a>
</g>
</g>
<!-- Node1&#45;&gt;Node5 -->
<g id="edge4" class="edge">
<title>Node1&#45;&gt;Node5</title>
<path fill="none" stroke="midnightblue" d="M197.3,-22.77C208.86,-21.67 220.67,-20.56 232.26,-19.46"/>
<polygon fill="midnightblue" stroke="midnightblue" points="232.75,-22.93 242.38,-18.51 232.09,-15.96 232.75,-22.93"/>
</g>
<!-- Node3 -->
<g id="node3" class="node">
<title>Node3</title>
<g id="a_node3"><a xlink:href="../../d3/d0f/classjavolution_1_1context_1_1AbstractContext.html#a39804b0188cf822819d88f43715deaba" target="_top" xlink:title=" ">
<polygon fill="white" stroke="black" points="473.5,-64 473.5,-94 622.5,-94 622.5,-64 473.5,-64"/>
<text text-anchor="start" x="481.5" y="-82" font-family="Helvetica,sans-Serif" font-size="10.00">javolution.context.Abstract</text>
<text text-anchor="middle" x="548" y="-71" font-family="Helvetica,sans-Serif" font-size="10.00">Context.current</text>
</a>
</g>
</g>
<!-- Node2&#45;&gt;Node3 -->
<g id="edge2" class="edge">
<title>Node2&#45;&gt;Node3</title>
<path fill="none" stroke="midnightblue" d="M434.22,-65.73C443.88,-66.87 453.61,-68.01 463.1,-69.13"/>
<polygon fill="midnightblue" stroke="midnightblue" points="462.93,-72.63 473.28,-70.33 463.75,-65.68 462.93,-72.63"/>
</g>
<!-- Node4 -->
<g id="node4" class="node">
<title>Node4</title>
<g id="a_node4"><a xlink:href="../../d8/d20/classjavolution_1_1osgi_1_1internal_1_1OSGiServices.html#a2a13065b92db2d08ab44d0005a3421a4" target="_top" xlink:title=" ">
<polygon fill="white" stroke="black" points="470,-15 470,-45 626,-45 626,-15 470,-15"/>
<text text-anchor="start" x="478" y="-33" font-family="Helvetica,sans-Serif" font-size="10.00">javolution.osgi.internal.</text>
<text text-anchor="middle" x="548" y="-22" font-family="Helvetica,sans-Serif" font-size="10.00">OSGiServices.getLogContext</text>
</a>
</g>
</g>
<!-- Node2&#45;&gt;Node4 -->
<g id="edge3" class="edge">
<title>Node2&#45;&gt;Node4</title>
<path fill="none" stroke="midnightblue" d="M434.22,-42.74C442.73,-41.78 451.29,-40.81 459.69,-39.86"/>
<polygon fill="midnightblue" stroke="midnightblue" points="460.3,-43.31 469.85,-38.71 459.52,-36.36 460.3,-43.31"/>
</g>
</g>
</svg>
