<?xml version="1.0" encoding="UTF-8" standalone="no"?>
<!DOCTYPE svg PUBLIC "-//W3C//DTD SVG 1.1//EN"
 "http://www.w3.org/Graphics/SVG/1.1/DTD/svg11.dtd">
<!-- Generated by graphviz version 2.43.0 (0)
 -->
<!-- Title: javolution.context.LogContext.enter Pages: 1 -->
<svg width="629pt" height="112pt"
 viewBox="0.00 0.00 629.00 112.00" xmlns="http://www.w3.org/2000/svg" xmlns:xlink="http://www.w3.org/1999/xlink">
<g id="graph0" class="graph" transform="scale(1 1) rotate(0) translate(4 108)">
<title>javolution.context.LogContext.enter</title>
<polygon fill="white" stroke="transparent" points="-4,4 -4,-108 625,-108 625,4 -4,4"/>
<!-- Node1 -->
<g id="node1" class="node">
<title>Node1</title>
<g id="a_node1"><a xlink:title=" ">
<polygon fill="#bfbfbf" stroke="black" points="0,-30 0,-49 192,-49 192,-30 0,-30"/>
<text text-anchor="middle" x="96" y="-37" font-family="Helvetica,sans-Serif" font-size="10.00">javolution.context.LogContext.enter</text>
</a>
</g>
</g>
<!-- Node2 -->
<g id="node2" class="node">
<title>Node2</title>
<g id="a_node2"><a xlink:href="../../db/de8/classjavolution_1_1context_1_1LogContext.html#a3ad63f63b01950647a13c980c14c111a" target="_top" xlink:title=" ">
<polygon fill="white" stroke="black" points="228,-49.5 228,-79.5 429,-79.5 429,-49.5 228,-49.5"/>
<text text-anchor="start" x="236" y="-67.5" font-family="Helvetica,sans-Serif" font-size="10.00">javolution.context.LogContext.current</text>
<text text-anchor="middle" x="328.5" y="-56.5" font-family="Helvetica,sans-Serif" font-size="10.00">LogContext</text>
</a>
</g>
</g>
<!-- Node1&#45;&gt;Node2 -->
<g id="edge1" class="edge">
<title>Node1&#45;&gt;Node2</title>
<path fill="none" stroke="midnightblue" d="M184.8,-49.02C195.51,-50.18 206.57,-51.38 217.55,-52.58"/>
<polygon fill="midnightblue" stroke="midnightblue" points="217.29,-56.07 227.61,-53.67 218.05,-49.11 217.29,-56.07"/>
</g>
<!-- Node5 -->
<g id="node5" class="node">
<title>Node5</title>
<g id="a_node5"><a xlink:href="../../d3/d0f/classjavolution_1_1context_1_1AbstractContext.html#a38d71d74581d9168f8cf0ae5916bbc94" target="_top" xlink:title=" ">
<polygon fill="white" stroke="black" points="254,-0.5 254,-30.5 403,-30.5 403,-0.5 254,-0.5"/>
<text text-anchor="start" x="262" y="-18.5" font-family="Helvetica,sans-Serif" font-size="10.00">javolution.context.Abstract</text>
<text text-anchor="middle" x="328.5" y="-7.5" font-family="Helvetica,sans-Serif" font-size="10.00">Context.enterInner</text>
</a>
</g>
</g>
<!-- Node1&#45;&gt;Node5 -->
<g id="edge4" class="edge">
<title>Node1&#45;&gt;Node5</title>
<path fill="none" stroke="midnightblue" d="M188.43,-29.98C206.69,-28.08 225.79,-26.09 243.78,-24.22"/>
<polygon fill="midnightblue" stroke="midnightblue" points="244.35,-27.68 253.93,-23.16 243.62,-20.71 244.35,-27.68"/>
</g>
<!-- Node3 -->
<g id="node3" class="node">
<title>Node3</title>
<g id="a_node3"><a xlink:href="../../d3/d0f/classjavolution_1_1context_1_1AbstractContext.html#a39804b0188cf822819d88f43715deaba" target="_top" xlink:title=" ">
<polygon fill="white" stroke="black" points="468.5,-73.5 468.5,-103.5 617.5,-103.5 617.5,-73.5 468.5,-73.5"/>
<text text-anchor="start" x="476.5" y="-91.5" font-family="Helvetica,sans-Serif" font-size="10.00">javolution.context.Abstract</text>
<text text-anchor="middle" x="543" y="-80.5" font-family="Helvetica,sans-Serif" font-size="10.00">Context.current</text>
</a>
</g>
</g>
<!-- Node2&#45;&gt;Node3 -->
<g id="edge2" class="edge">
<title>Node2&#45;&gt;Node3</title>
<path fill="none" stroke="midnightblue" d="M429.22,-75.76C438.88,-76.85 448.61,-77.95 458.1,-79.02"/>
<polygon fill="midnightblue" stroke="midnightblue" points="457.95,-82.53 468.28,-80.17 458.73,-75.57 457.95,-82.53"/>
</g>
<!-- Node4 -->
<g id="node4" class="node">
<title>Node4</title>
<g id="a_node4"><a xlink:href="../../d8/d20/classjavolution_1_1osgi_1_1internal_1_1OSGiServices.html#a2a13065b92db2d08ab44d0005a3421a4" target="_top" xlink:title=" ">
<polygon fill="white" stroke="black" points="465,-24.5 465,-54.5 621,-54.5 621,-24.5 465,-24.5"/>
<text text-anchor="start" x="473" y="-42.5" font-family="Helvetica,sans-Serif" font-size="10.00">javolution.osgi.internal.</text>
<text text-anchor="middle" x="543" y="-31.5" font-family="Helvetica,sans-Serif" font-size="10.00">OSGiServices.getLogContext</text>
</a>
</g>
</g>
<!-- Node2&#45;&gt;Node4 -->
<g id="edge3" class="edge">
<title>Node2&#45;&gt;Node4</title>
<path fill="none" stroke="midnightblue" d="M429.22,-52.77C437.73,-51.77 446.29,-50.76 454.69,-49.77"/>
<polygon fill="midnightblue" stroke="midnightblue" points="455.33,-53.22 464.85,-48.58 454.51,-46.27 455.33,-53.22"/>
</g>
</g>
</svg>
