<?xml version="1.0" encoding="UTF-8" standalone="no"?>
<!DOCTYPE svg PUBLIC "-//W3C//DTD SVG 1.1//EN"
 "http://www.w3.org/Graphics/SVG/1.1/DTD/svg11.dtd">
<!-- Generated by graphviz version 2.43.0 (0)
 -->
<!-- Title: javolution.context.LogContext.currentLogContext Pages: 1 -->
<!--zoomable 504 -->
<svg id="main" version="1.1" xmlns="http://www.w3.org/2000/svg" xmlns:xlink="http://www.w3.org/1999/xlink" xml:space="preserve" onload="init(evt)">
<style type="text/css"><![CDATA[
.edge:hover path { stroke: red; }
.edge:hover polygon { stroke: red; fill: red; }
]]></style>
<script type="text/javascript"><![CDATA[
var edges = document.getElementsByTagName('g');
if (edges && edges.length) {
  for (var i=0;i<edges.length;i++) {
    if (edges[i].id.substr(0,4)=='edge') {
      edges[i].setAttribute('class','edge');
    }
  }
}
]]></script>
        <defs>
                <circle id="rim" cx="0" cy="0" r="7"/>
                <circle id="rim2" cx="0" cy="0" r="3.5"/>
                <g id="zoomPlus">
                        <use xlink:href="#rim" fill="#404040">
                                <set attributeName="fill" to="#808080" begin="zoomplus.mouseover" end="zoomplus.mouseout"/>
                        </use>
                        <path d="M-4,0h8M0,-4v8" fill="none" stroke="white" stroke-width="1.5" pointer-events="none"/>
                </g>
                <g id="zoomMin">
                        <use xlink:href="#rim" fill="#404040">
                                <set attributeName="fill" to="#808080" begin="zoomminus.mouseover" end="zoomminus.mouseout"/>
                        </use>
                        <path d="M-4,0h8" fill="none" stroke="white" stroke-width="1.5" pointer-events="none"/>
                </g>
                <g id="dirArrow">
                        <path fill="none" stroke="white" stroke-width="1.5" d="M0,-3.0v7 M-2.5,-0.5L0,-3.0L2.5,-0.5"/>
                </g>
               <g id="resetDef">
                       <use xlink:href="#rim2" fill="#404040">
                               <set attributeName="fill" to="#808080" begin="reset.mouseover" end="reset.mouseout"/>
                       </use>
               </g>
        </defs>

<script type="text/javascript">
var viewWidth = 2067;
var viewHeight = 504;
var sectionId = 'dynsection-4';
</script>
<script xlink:href="../../svgpan.js"/>
<svg id="graph" class="graph">
<g id="viewport">
<title>javolution.context.LogContext.currentLogContext</title>
<polygon fill="white" stroke="transparent" points="-4,4 -4,-499.5 2063,-499.5 2063,4 -4,4"/>
<!-- Node1 -->
<g id="node1" class="node">
<title>Node1</title>
<g id="a_node1"><a xlink:title=" ">
<polygon fill="#bfbfbf" stroke="black" points="1858,-171.5 1858,-201.5 2059,-201.5 2059,-171.5 1858,-171.5"/>
<text text-anchor="start" x="1866" y="-189.5" font-family="Helvetica,sans-Serif" font-size="10.00">javolution.context.LogContext.current</text>
<text text-anchor="middle" x="1958.5" y="-178.5" font-family="Helvetica,sans-Serif" font-size="10.00">LogContext</text>
</a>
</g>
</g>
<!-- Node2 -->
<g id="node2" class="node">
<title>Node2</title>
<g id="a_node2"><a xlink:href="../../db/de8/classjavolution_1_1context_1_1LogContext.html#af5f74866879390693180e6f5edec892b" target="_top" xlink:title=" ">
<polygon fill="white" stroke="black" points="1620.5,-290 1620.5,-309 1817.5,-309 1817.5,-290 1620.5,-290"/>
<text text-anchor="middle" x="1719" y="-297" font-family="Helvetica,sans-Serif" font-size="10.00">javolution.context.LogContext.debug</text>
</a>
</g>
</g>
<!-- Node1&#45;&gt;Node2 -->
<g id="edge1" class="edge">
<title>Node1&#45;&gt;Node2</title>
<path fill="none" stroke="midnightblue" d="M1916.8,-205.87C1865.45,-230.3 1779.14,-271.36 1740.17,-289.9"/>
<polygon fill="midnightblue" stroke="midnightblue" points="1918.44,-208.96 1925.96,-201.51 1915.43,-202.64 1918.44,-208.96"/>
</g>
<!-- Node11 -->
<g id="node11" class="node">
<title>Node11</title>
<g id="a_node11"><a xlink:href="../../db/de8/classjavolution_1_1context_1_1LogContext.html#ac7079a502db28e71f5e9f084b96c0f61" target="_top" xlink:title=" ">
<polygon fill="white" stroke="black" points="1623,-215 1623,-234 1815,-234 1815,-215 1623,-215"/>
<text text-anchor="middle" x="1719" y="-222" font-family="Helvetica,sans-Serif" font-size="10.00">javolution.context.LogContext.enter</text>
</a>
</g>
</g>
<!-- Node1&#45;&gt;Node11 -->
<g id="edge11" class="edge">
<title>Node1&#45;&gt;Node11</title>
<path fill="none" stroke="midnightblue" d="M1853.58,-203.13C1828.18,-207.19 1801.87,-211.4 1779.38,-215"/>
<polygon fill="midnightblue" stroke="midnightblue" points="1854.31,-206.55 1863.63,-201.52 1853.21,-199.64 1854.31,-206.55"/>
</g>
<!-- Node12 -->
<g id="node12" class="node">
<title>Node12</title>
<g id="a_node12"><a xlink:href="../../db/de8/classjavolution_1_1context_1_1LogContext.html#aad30fc061509a1c2df28a7d1eb45683a" target="_top" xlink:title=" ">
<polygon fill="white" stroke="black" points="1624,-177 1624,-196 1814,-196 1814,-177 1624,-177"/>
<text text-anchor="middle" x="1719" y="-184" font-family="Helvetica,sans-Serif" font-size="10.00">javolution.context.LogContext.error</text>
</a>
</g>
</g>
<!-- Node1&#45;&gt;Node12 -->
<g id="edge12" class="edge">
<title>Node1&#45;&gt;Node12</title>
<path fill="none" stroke="midnightblue" d="M1847.58,-186.5C1836.4,-186.5 1825.12,-186.5 1814.12,-186.5"/>
<polygon fill="midnightblue" stroke="midnightblue" points="1847.81,-190 1857.81,-186.5 1847.81,-183 1847.81,-190"/>
</g>
<!-- Node13 -->
<g id="node13" class="node">
<title>Node13</title>
<g id="a_node13"><a xlink:href="../../db/de8/classjavolution_1_1context_1_1LogContext.html#a233e69dc7bac5ecabb9905c49bb9503f" target="_top" xlink:title=" ">
<polygon fill="white" stroke="black" points="1626.5,-109 1626.5,-128 1811.5,-128 1811.5,-109 1626.5,-109"/>
<text text-anchor="middle" x="1719" y="-116" font-family="Helvetica,sans-Serif" font-size="10.00">javolution.context.LogContext.info</text>
</a>
</g>
</g>
<!-- Node1&#45;&gt;Node13 -->
<g id="edge14" class="edge">
<title>Node1&#45;&gt;Node13</title>
<path fill="none" stroke="midnightblue" d="M1895.33,-168.7C1849.86,-155.68 1789.96,-138.53 1753.25,-128.02"/>
<polygon fill="midnightblue" stroke="midnightblue" points="1894.51,-172.11 1905.09,-171.49 1896.44,-165.38 1894.51,-172.11"/>
</g>
<!-- Node34 -->
<g id="node34" class="node">
<title>Node34</title>
<g id="a_node34"><a xlink:href="../../db/de8/classjavolution_1_1context_1_1LogContext.html#a304441b87d1c1eebac3e198a5d5b58c6" target="_top" xlink:title=" ">
<polygon fill="white" stroke="black" points="1616,-46 1616,-65 1822,-65 1822,-46 1616,-46"/>
<text text-anchor="middle" x="1719" y="-53" font-family="Helvetica,sans-Serif" font-size="10.00">javolution.context.LogContext.warning</text>
</a>
</g>
</g>
<!-- Node1&#45;&gt;Node34 -->
<g id="edge40" class="edge">
<title>Node1&#45;&gt;Node34</title>
<path fill="none" stroke="midnightblue" d="M1927.89,-165.49C1901,-146.89 1859.86,-119.65 1822,-99.5 1796.63,-86 1766.24,-73.31 1745.27,-65.06"/>
<polygon fill="midnightblue" stroke="midnightblue" points="1925.9,-168.36 1936.1,-171.2 1929.9,-162.61 1925.9,-168.36"/>
</g>
<!-- Node3 -->
<g id="node3" class="node">
<title>Node3</title>
<g id="a_node3"><a xlink:href="../../d5/dc7/classjavolution_1_1lang_1_1Configurable.html#a9ee63caf2e345a492b8887590bab86b6" target="_top" xlink:title=" ">
<polygon fill="white" stroke="black" points="1376.5,-454 1376.5,-495 1557.5,-495 1557.5,-454 1376.5,-454"/>
<text text-anchor="start" x="1384.5" y="-483" font-family="Helvetica,sans-Serif" font-size="10.00">javolution.lang.Configurable</text>
<text text-anchor="start" x="1384.5" y="-472" font-family="Helvetica,sans-Serif" font-size="10.00">&lt; javolution::context::LogContext</text>
<text text-anchor="middle" x="1467" y="-461" font-family="Helvetica,sans-Serif" font-size="10.00">::Level &gt;::Configurable</text>
</a>
</g>
</g>
<!-- Node2&#45;&gt;Node3 -->
<g id="edge2" class="edge">
<title>Node2&#45;&gt;Node3</title>
<path fill="none" stroke="midnightblue" d="M1705.71,-317.9C1684.06,-348.85 1636.05,-411.21 1580,-444.5 1572.99,-448.66 1565.4,-452.26 1557.58,-455.36"/>
<polygon fill="midnightblue" stroke="midnightblue" points="1708.79,-319.59 1711.57,-309.37 1703.02,-315.63 1708.79,-319.59"/>
</g>
<!-- Node4 -->
<g id="node4" class="node">
<title>Node4</title>
<g id="a_node4"><a xlink:href="../../da/d71/classjavolution_1_1osgi_1_1internal_1_1ConfigurableListenerImpl.html#ac04fa119928bae4b63949fa083de990f" target="_top" xlink:title=" ">
<polygon fill="white" stroke="black" points="1366,-394 1366,-435 1568,-435 1568,-394 1366,-394"/>
<text text-anchor="start" x="1374" y="-423" font-family="Helvetica,sans-Serif" font-size="10.00">javolution.osgi.internal.</text>
<text text-anchor="start" x="1374" y="-412" font-family="Helvetica,sans-Serif" font-size="10.00">ConfigurableListenerImpl.configurable</text>
<text text-anchor="middle" x="1467" y="-401" font-family="Helvetica,sans-Serif" font-size="10.00">Initialized</text>
</a>
</g>
</g>
<!-- Node2&#45;&gt;Node4 -->
<g id="edge3" class="edge">
<title>Node2&#45;&gt;Node4</title>
<path fill="none" stroke="midnightblue" d="M1697.01,-315.14C1670.84,-333.98 1624.15,-365.47 1580,-384.5 1571.96,-387.97 1563.42,-391.12 1554.77,-393.97"/>
<polygon fill="midnightblue" stroke="midnightblue" points="1699.35,-317.76 1705.37,-309.04 1695.23,-312.1 1699.35,-317.76"/>
</g>
<!-- Node5 -->
<g id="node5" class="node">
<title>Node5</title>
<g id="a_node5"><a xlink:href="../../da/d71/classjavolution_1_1osgi_1_1internal_1_1ConfigurableListenerImpl.html#aa2a09161531c326a08d3db86efa24b27" target="_top" xlink:title=" ">
<polygon fill="white" stroke="black" points="1366,-334 1366,-375 1568,-375 1568,-334 1366,-334"/>
<text text-anchor="start" x="1374" y="-363" font-family="Helvetica,sans-Serif" font-size="10.00">javolution.osgi.internal.</text>
<text text-anchor="start" x="1374" y="-352" font-family="Helvetica,sans-Serif" font-size="10.00">ConfigurableListenerImpl.configurable</text>
<text text-anchor="middle" x="1467" y="-341" font-family="Helvetica,sans-Serif" font-size="10.00">Reconfigured</text>
</a>
</g>
</g>
<!-- Node2&#45;&gt;Node5 -->
<g id="edge4" class="edge">
<title>Node2&#45;&gt;Node5</title>
<path fill="none" stroke="midnightblue" d="M1664.86,-311.19C1634.74,-317.82 1596.19,-326.3 1561.2,-334"/>
<polygon fill="midnightblue" stroke="midnightblue" points="1665.72,-314.58 1674.74,-309.02 1664.22,-307.75 1665.72,-314.58"/>
</g>
<!-- Node6 -->
<g id="node6" class="node">
<title>Node6</title>
<g id="a_node6"><a xlink:href="../../d2/dc3/classjavolution_1_1lang_1_1Initializer.html#a9b0b912560d37b4b80ee61416ffa1503" target="_top" xlink:title=" ">
<polygon fill="white" stroke="black" points="1376,-186.5 1376,-216.5 1558,-216.5 1558,-186.5 1376,-186.5"/>
<text text-anchor="start" x="1384" y="-204.5" font-family="Helvetica,sans-Serif" font-size="10.00">javolution.lang.Initializer.initialize</text>
<text text-anchor="middle" x="1467" y="-193.5" font-family="Helvetica,sans-Serif" font-size="10.00">LoadedClasses</text>
</a>
</g>
</g>
<!-- Node2&#45;&gt;Node6 -->
<g id="edge5" class="edge">
<title>Node2&#45;&gt;Node6</title>
<path fill="none" stroke="midnightblue" d="M1691.43,-284.95C1654.64,-264.89 1591.41,-230.71 1580,-226.5 1569.72,-222.71 1558.68,-219.4 1547.7,-216.53"/>
<polygon fill="midnightblue" stroke="midnightblue" points="1690.15,-288.24 1700.6,-289.96 1693.5,-282.1 1690.15,-288.24"/>
</g>
<!-- Node9 -->
<g id="node9" class="node">
<title>Node9</title>
<g id="a_node9"><a xlink:href="../../d2/dc3/classjavolution_1_1lang_1_1Initializer.html#a3762b5ff0428c43024b98863e8674864" target="_top" xlink:title=" ">
<polygon fill="white" stroke="black" points="1386.5,-284.5 1386.5,-314.5 1547.5,-314.5 1547.5,-284.5 1386.5,-284.5"/>
<text text-anchor="start" x="1394.5" y="-302.5" font-family="Helvetica,sans-Serif" font-size="10.00">javolution.lang.Initializer.load</text>
<text text-anchor="middle" x="1467" y="-291.5" font-family="Helvetica,sans-Serif" font-size="10.00">Class</text>
</a>
</g>
</g>
<!-- Node2&#45;&gt;Node9 -->
<g id="edge8" class="edge">
<title>Node2&#45;&gt;Node9</title>
<path fill="none" stroke="midnightblue" d="M1610.03,-299.5C1589.04,-299.5 1567.39,-299.5 1547.52,-299.5"/>
<polygon fill="midnightblue" stroke="midnightblue" points="1610.27,-303 1620.27,-299.5 1610.27,-296 1610.27,-303"/>
</g>
<!-- Node10 -->
<g id="node10" class="node">
<title>Node10</title>
<g id="a_node10"><a xlink:href="../../de/d3a/classjavolution_1_1test_1_1Perfometer.html#a79430ba4172d29e5d53ee83ff424e6a9" target="_top" xlink:title=" ">
<polygon fill="white" stroke="black" points="1382,-235.5 1382,-265.5 1552,-265.5 1552,-235.5 1382,-235.5"/>
<text text-anchor="start" x="1390" y="-253.5" font-family="Helvetica,sans-Serif" font-size="10.00">javolution.test.Perfometer.print</text>
<text text-anchor="middle" x="1467" y="-242.5" font-family="Helvetica,sans-Serif" font-size="10.00">Details</text>
</a>
</g>
</g>
<!-- Node2&#45;&gt;Node10 -->
<g id="edge10" class="edge">
<title>Node2&#45;&gt;Node10</title>
<path fill="none" stroke="midnightblue" d="M1659.67,-288.07C1625.47,-281.36 1581.87,-272.82 1544.89,-265.57"/>
<polygon fill="midnightblue" stroke="midnightblue" points="1659.01,-291.51 1669.5,-289.99 1660.36,-284.64 1659.01,-291.51"/>
</g>
<!-- Node7 -->
<g id="node7" class="node">
<title>Node7</title>
<g id="a_node7"><a xlink:href="../../d8/d20/classjavolution_1_1osgi_1_1internal_1_1OSGiServices.html#acb73fa260ca4cdc4056c3b16d69694b6" target="_top" xlink:title=" ">
<polygon fill="white" stroke="black" points="1128,-279 1128,-320 1299,-320 1299,-279 1128,-279"/>
<text text-anchor="start" x="1136" y="-308" font-family="Helvetica,sans-Serif" font-size="10.00">javolution.osgi.internal.</text>
<text text-anchor="start" x="1136" y="-297" font-family="Helvetica,sans-Serif" font-size="10.00">OSGiServices.initializeRealtime</text>
<text text-anchor="middle" x="1213.5" y="-286" font-family="Helvetica,sans-Serif" font-size="10.00">Classes</text>
</a>
</g>
</g>
<!-- Node6&#45;&gt;Node7 -->
<g id="edge6" class="edge">
<title>Node6&#45;&gt;Node7</title>
<path fill="none" stroke="midnightblue" d="M1376.54,-219.24C1368.84,-221.43 1361.24,-223.85 1354,-226.5 1316.01,-240.4 1275.32,-262.63 1247.75,-278.91"/>
<polygon fill="midnightblue" stroke="midnightblue" points="1377.59,-222.58 1386.32,-216.57 1375.75,-215.82 1377.59,-222.58"/>
</g>
<!-- Node8 -->
<g id="node8" class="node">
<title>Node8</title>
<g id="a_node8"><a xlink:href="../../d2/d94/classjavolution_1_1osgi_1_1internal_1_1JavolutionActivator.html#a073a569fac72d21f478798745b026435" target="_top" xlink:title=" ">
<polygon fill="white" stroke="black" points="898.5,-301.5 898.5,-331.5 1032.5,-331.5 1032.5,-301.5 898.5,-301.5"/>
<text text-anchor="start" x="906.5" y="-319.5" font-family="Helvetica,sans-Serif" font-size="10.00">javolution.osgi.internal.</text>
<text text-anchor="middle" x="965.5" y="-308.5" font-family="Helvetica,sans-Serif" font-size="10.00">JavolutionActivator.start</text>
</a>
</g>
</g>
<!-- Node7&#45;&gt;Node8 -->
<g id="edge7" class="edge">
<title>Node7&#45;&gt;Node8</title>
<path fill="none" stroke="midnightblue" d="M1117.51,-306.06C1089.17,-308.02 1058.73,-310.13 1032.67,-311.93"/>
<polygon fill="midnightblue" stroke="midnightblue" points="1118.11,-309.53 1127.84,-305.35 1117.62,-302.55 1118.11,-309.53"/>
</g>
<!-- Node9&#45;&gt;Node7 -->
<g id="edge9" class="edge">
<title>Node9&#45;&gt;Node7</title>
<path fill="none" stroke="midnightblue" d="M1376.19,-299.5C1351.12,-299.5 1323.97,-299.5 1299.21,-299.5"/>
<polygon fill="midnightblue" stroke="midnightblue" points="1376.42,-303 1386.42,-299.5 1376.42,-296 1376.42,-303"/>
</g>
<!-- Node12&#45;&gt;Node6 -->
<g id="edge13" class="edge">
<title>Node12&#45;&gt;Node6</title>
<path fill="none" stroke="midnightblue" d="M1613.7,-192.76C1595.32,-193.86 1576.31,-195 1558.35,-196.08"/>
<polygon fill="midnightblue" stroke="midnightblue" points="1614.07,-196.24 1623.84,-192.15 1613.65,-189.25 1614.07,-196.24"/>
</g>
<!-- Node14 -->
<g id="node14" class="node">
<title>Node14</title>
<g id="a_node14"><a xlink:href="../../d0/d65/classjavolution_1_1xml_1_1internal_1_1stream_1_1XMLStreamReaderImpl.html#a87bff0503f315316c965b67063423578" target="_top" xlink:title=" ">
<polygon fill="white" stroke="black" points="1354,-137.5 1354,-167.5 1580,-167.5 1580,-137.5 1354,-137.5"/>
<text text-anchor="start" x="1362" y="-155.5" font-family="Helvetica,sans-Serif" font-size="10.00">javolution.xml.internal.stream.</text>
<text text-anchor="middle" x="1467" y="-144.5" font-family="Helvetica,sans-Serif" font-size="10.00">XMLStreamReaderImpl.increaseDataBuffer</text>
</a>
</g>
</g>
<!-- Node13&#45;&gt;Node14 -->
<g id="edge15" class="edge">
<title>Node13&#45;&gt;Node14</title>
<path fill="none" stroke="midnightblue" d="M1638.01,-129.38C1619.13,-131.95 1598.67,-134.73 1578.71,-137.44"/>
<polygon fill="midnightblue" stroke="midnightblue" points="1638.59,-132.83 1648.03,-128.02 1637.65,-125.9 1638.59,-132.83"/>
</g>
<!-- Node31 -->
<g id="node31" class="node">
<title>Node31</title>
<g id="a_node31"><a xlink:href="../../d0/d65/classjavolution_1_1xml_1_1internal_1_1stream_1_1XMLStreamReaderImpl.html#a71fce69dd0a88aea44b4e7624a6af875" target="_top" xlink:title=" ">
<polygon fill="white" stroke="black" points="1367,-88.5 1367,-118.5 1567,-118.5 1567,-88.5 1367,-88.5"/>
<text text-anchor="start" x="1375" y="-106.5" font-family="Helvetica,sans-Serif" font-size="10.00">javolution.xml.internal.stream.</text>
<text text-anchor="middle" x="1467" y="-95.5" font-family="Helvetica,sans-Serif" font-size="10.00">XMLStreamReaderImpl.increaseStack</text>
</a>
</g>
</g>
<!-- Node13&#45;&gt;Node31 -->
<g id="edge36" class="edge">
<title>Node13&#45;&gt;Node31</title>
<path fill="none" stroke="midnightblue" d="M1616.32,-112.4C1600.12,-111.43 1583.38,-110.42 1567.24,-109.45"/>
<polygon fill="midnightblue" stroke="midnightblue" points="1616.14,-115.89 1626.33,-113 1616.56,-108.91 1616.14,-115.89"/>
</g>
<!-- Node33 -->
<g id="node33" class="node">
<title>Node33</title>
<g id="a_node33"><a xlink:href="../../de/d3a/classjavolution_1_1test_1_1Perfometer.html#a839405eeba365523effc8f2c446f6829" target="_top" xlink:title=" ">
<polygon fill="white" stroke="black" points="1382,-50 1382,-69 1552,-69 1552,-50 1382,-50"/>
<text text-anchor="middle" x="1467" y="-57" font-family="Helvetica,sans-Serif" font-size="10.00">javolution.test.Perfometer.print</text>
</a>
</g>
</g>
<!-- Node13&#45;&gt;Node33 -->
<g id="edge39" class="edge">
<title>Node13&#45;&gt;Node33</title>
<path fill="none" stroke="midnightblue" d="M1679.01,-105.91C1651.54,-97.36 1613.78,-86.24 1580,-78.5 1564.52,-74.96 1547.71,-71.76 1531.92,-69.05"/>
<polygon fill="midnightblue" stroke="midnightblue" points="1678.05,-109.28 1688.64,-108.93 1680.15,-102.6 1678.05,-109.28"/>
</g>
<!-- Node15 -->
<g id="node15" class="node">
<title>Node15</title>
<g id="a_node15"><a xlink:href="../../d0/d65/classjavolution_1_1xml_1_1internal_1_1stream_1_1XMLStreamReaderImpl.html#accff128314df06b3be2be7b81bb66cb2" target="_top" xlink:title=" ">
<polygon fill="white" stroke="black" points="1117.5,-164.5 1117.5,-194.5 1309.5,-194.5 1309.5,-164.5 1117.5,-164.5"/>
<text text-anchor="start" x="1125.5" y="-182.5" font-family="Helvetica,sans-Serif" font-size="10.00">javolution.xml.internal.stream.</text>
<text text-anchor="middle" x="1213.5" y="-171.5" font-family="Helvetica,sans-Serif" font-size="10.00">XMLStreamReaderImpl.reloadBuffer</text>
</a>
</g>
</g>
<!-- Node14&#45;&gt;Node15 -->
<g id="edge16" class="edge">
<title>Node14&#45;&gt;Node15</title>
<path fill="none" stroke="midnightblue" d="M1343.77,-165.62C1332.26,-166.86 1320.72,-168.1 1309.52,-169.3"/>
<polygon fill="midnightblue" stroke="midnightblue" points="1344.29,-169.09 1353.86,-164.54 1343.54,-162.13 1344.29,-169.09"/>
</g>
<!-- Node30 -->
<g id="node30" class="node">
<title>Node30</title>
<g id="a_node30"><a xlink:href="../../d0/d65/classjavolution_1_1xml_1_1internal_1_1stream_1_1XMLStreamReaderImpl.html#ad9938970381ce5f73b5e1a17fe250fea" target="_top" xlink:title=" ">
<polygon fill="white" stroke="black" points="867,-115.5 867,-145.5 1064,-145.5 1064,-115.5 867,-115.5"/>
<text text-anchor="start" x="875" y="-133.5" font-family="Helvetica,sans-Serif" font-size="10.00">javolution.xml.internal.stream.</text>
<text text-anchor="middle" x="965.5" y="-122.5" font-family="Helvetica,sans-Serif" font-size="10.00">XMLStreamReaderImpl.replaceEntity</text>
</a>
</g>
</g>
<!-- Node14&#45;&gt;Node30 -->
<g id="edge35" class="edge">
<title>Node14&#45;&gt;Node30</title>
<path fill="none" stroke="midnightblue" d="M1343.82,-147.12C1257.85,-143.33 1144.3,-138.33 1064.3,-134.81"/>
<polygon fill="midnightblue" stroke="midnightblue" points="1343.76,-150.62 1353.9,-147.56 1344.07,-143.63 1343.76,-150.62"/>
</g>
<!-- Node16 -->
<g id="node16" class="node">
<title>Node16</title>
<g id="a_node16"><a xlink:href="../../d0/d65/classjavolution_1_1xml_1_1internal_1_1stream_1_1XMLStreamReaderImpl.html#ac9c3ee5901fa0e8edb98e080b9876dc0" target="_top" xlink:title=" ">
<polygon fill="white" stroke="black" points="858,-252.5 858,-282.5 1073,-282.5 1073,-252.5 858,-252.5"/>
<text text-anchor="start" x="866" y="-270.5" font-family="Helvetica,sans-Serif" font-size="10.00">javolution.xml.internal.stream.</text>
<text text-anchor="middle" x="965.5" y="-259.5" font-family="Helvetica,sans-Serif" font-size="10.00">XMLStreamReaderImpl.handleEndOfLine</text>
</a>
</g>
</g>
<!-- Node15&#45;&gt;Node16 -->
<g id="edge17" class="edge">
<title>Node15&#45;&gt;Node16</title>
<path fill="none" stroke="midnightblue" d="M1170.11,-198.68C1142.72,-210.68 1106.13,-225.99 1073,-237.5 1057.49,-242.89 1040.45,-248.02 1024.65,-252.47"/>
<polygon fill="midnightblue" stroke="midnightblue" points="1171.65,-201.82 1179.39,-194.58 1168.83,-195.42 1171.65,-201.82"/>
</g>
<!-- Node17 -->
<g id="node17" class="node">
<title>Node17</title>
<g id="a_node17"><a xlink:href="../../d0/d65/classjavolution_1_1xml_1_1internal_1_1stream_1_1XMLStreamReaderImpl.html#a390337cd640ada29ab3aa42a584c8ed8" target="_top" xlink:title=" ">
<polygon fill="white" stroke="black" points="654,-164.5 654,-194.5 822,-194.5 822,-164.5 654,-164.5"/>
<text text-anchor="start" x="662" y="-182.5" font-family="Helvetica,sans-Serif" font-size="10.00">javolution.xml.internal.stream.</text>
<text text-anchor="middle" x="738" y="-171.5" font-family="Helvetica,sans-Serif" font-size="10.00">XMLStreamReaderImpl.next</text>
</a>
</g>
</g>
<!-- Node15&#45;&gt;Node17 -->
<g id="edge32" class="edge">
<title>Node15&#45;&gt;Node17</title>
<path fill="none" stroke="midnightblue" d="M1129.46,-196.17C1110.95,-199.22 1091.37,-201.93 1073,-203.5 977.79,-211.63 953.08,-212.99 858,-203.5 839.55,-201.66 819.72,-198.25 801.64,-194.56"/>
<polygon fill="midnightblue" stroke="midnightblue" points="1130.04,-199.62 1139.32,-194.5 1128.87,-192.72 1130.04,-199.62"/>
</g>
<!-- Node29 -->
<g id="node29" class="node">
<title>Node29</title>
<g id="a_node29"><a xlink:href="../../d0/d65/classjavolution_1_1xml_1_1internal_1_1stream_1_1XMLStreamReaderImpl.html#a3a37f6eded5c5c6151cdf063bf0844b8" target="_top" xlink:title=" ">
<polygon fill="white" stroke="black" points="863,-164.5 863,-194.5 1068,-194.5 1068,-164.5 863,-164.5"/>
<text text-anchor="start" x="871" y="-182.5" font-family="Helvetica,sans-Serif" font-size="10.00">javolution.xml.internal.stream.</text>
<text text-anchor="middle" x="965.5" y="-171.5" font-family="Helvetica,sans-Serif" font-size="10.00">XMLStreamReaderImpl.isEndOfStream</text>
</a>
</g>
</g>
<!-- Node15&#45;&gt;Node29 -->
<g id="edge30" class="edge">
<title>Node15&#45;&gt;Node29</title>
<path fill="none" stroke="midnightblue" d="M1107.13,-179.5C1094.25,-179.5 1081.11,-179.5 1068.29,-179.5"/>
<polygon fill="midnightblue" stroke="midnightblue" points="1107.39,-183 1117.39,-179.5 1107.39,-176 1107.39,-183"/>
</g>
<!-- Node15&#45;&gt;Node30 -->
<g id="edge33" class="edge">
<title>Node15&#45;&gt;Node30</title>
<path fill="none" stroke="midnightblue" d="M1126.95,-162.46C1099.25,-156.94 1068.74,-150.87 1041.84,-145.51"/>
<polygon fill="midnightblue" stroke="midnightblue" points="1126.53,-165.94 1137.02,-164.47 1127.9,-159.08 1126.53,-165.94"/>
</g>
<!-- Node16&#45;&gt;Node17 -->
<g id="edge18" class="edge">
<title>Node16&#45;&gt;Node17</title>
<path fill="none" stroke="midnightblue" d="M894.2,-249.63C882.01,-245.98 869.54,-241.9 858,-237.5 825.57,-225.14 790,-207.18 766.27,-194.53"/>
<polygon fill="midnightblue" stroke="midnightblue" points="893.32,-253.02 903.9,-252.46 895.28,-246.3 893.32,-253.02"/>
</g>
<!-- Node18 -->
<g id="node18" class="node">
<title>Node18</title>
<g id="a_node18"><a xlink:href="../../d0/d65/classjavolution_1_1xml_1_1internal_1_1stream_1_1XMLStreamReaderImpl.html#a72b51558d2acd9213ab216592156ca55" target="_top" xlink:title=" ">
<polygon fill="white" stroke="black" points="409,-287.5 409,-317.5 618,-317.5 618,-287.5 409,-287.5"/>
<text text-anchor="start" x="417" y="-305.5" font-family="Helvetica,sans-Serif" font-size="10.00">javolution.xml.internal.stream.</text>
<text text-anchor="middle" x="513.5" y="-294.5" font-family="Helvetica,sans-Serif" font-size="10.00">XMLStreamReaderImpl.getElementText</text>
</a>
</g>
</g>
<!-- Node17&#45;&gt;Node18 -->
<g id="edge19" class="edge">
<title>Node17&#45;&gt;Node18</title>
<path fill="none" stroke="midnightblue" d="M716.02,-202.33C693.84,-225.05 656.76,-259.26 618,-278.5 611.06,-281.95 603.61,-284.91 596.01,-287.45"/>
<polygon fill="midnightblue" stroke="midnightblue" points="718.83,-204.45 723.22,-194.81 713.77,-199.61 718.83,-204.45"/>
</g>
<!-- Node20 -->
<g id="node20" class="node">
<title>Node20</title>
<g id="a_node20"><a xlink:href="../../d9/d60/classjavolution_1_1xml_1_1XMLFormat_1_1InputElement.html#a1a9f1d9cc2954e37458f7e2eacbd4563" target="_top" xlink:title=" ">
<polygon fill="white" stroke="black" points="439,-238.5 439,-268.5 588,-268.5 588,-238.5 439,-238.5"/>
<text text-anchor="start" x="447" y="-256.5" font-family="Helvetica,sans-Serif" font-size="10.00">javolution.xml.XMLFormat.</text>
<text text-anchor="middle" x="513.5" y="-245.5" font-family="Helvetica,sans-Serif" font-size="10.00">InputElement.getNext</text>
</a>
</g>
</g>
<!-- Node17&#45;&gt;Node20 -->
<g id="edge21" class="edge">
<title>Node17&#45;&gt;Node20</title>
<path fill="none" stroke="midnightblue" d="M695.94,-198.79C673.3,-208.9 644.49,-220.93 618,-229.5 607.91,-232.76 597.13,-235.77 586.48,-238.48"/>
<polygon fill="midnightblue" stroke="midnightblue" points="697.56,-201.9 705.23,-194.59 694.68,-195.52 697.56,-201.9"/>
</g>
<!-- Node21 -->
<g id="node21" class="node">
<title>Node21</title>
<g id="a_node21"><a xlink:href="../../d0/d65/classjavolution_1_1xml_1_1internal_1_1stream_1_1XMLStreamReaderImpl.html#a22803c21708a1c61db9f45c43e0d3ecc" target="_top" xlink:title=" ">
<polygon fill="white" stroke="black" points="428.5,-189.5 428.5,-219.5 598.5,-219.5 598.5,-189.5 428.5,-189.5"/>
<text text-anchor="start" x="436.5" y="-207.5" font-family="Helvetica,sans-Serif" font-size="10.00">javolution.xml.internal.stream.</text>
<text text-anchor="middle" x="513.5" y="-196.5" font-family="Helvetica,sans-Serif" font-size="10.00">XMLStreamReaderImpl.nextTag</text>
</a>
</g>
</g>
<!-- Node17&#45;&gt;Node21 -->
<g id="edge22" class="edge">
<title>Node17&#45;&gt;Node21</title>
<path fill="none" stroke="midnightblue" d="M643.6,-189.99C628.69,-191.67 613.35,-193.39 598.68,-195.04"/>
<polygon fill="midnightblue" stroke="midnightblue" points="644.29,-193.44 653.83,-188.84 643.5,-186.48 644.29,-193.44"/>
</g>
<!-- Node23 -->
<g id="node23" class="node">
<title>Node23</title>
<g id="a_node23"><a xlink:href="../../d6/d79/classjavolution_1_1xml_1_1sax_1_1XMLReaderImpl.html#a7060e3d22c1cb128897bfc57a7e0cc64" target="_top" xlink:title=" ">
<polygon fill="white" stroke="black" points="430.5,-140.5 430.5,-170.5 596.5,-170.5 596.5,-140.5 430.5,-140.5"/>
<text text-anchor="start" x="438.5" y="-158.5" font-family="Helvetica,sans-Serif" font-size="10.00">javolution.xml.sax.XMLReader</text>
<text text-anchor="middle" x="513.5" y="-147.5" font-family="Helvetica,sans-Serif" font-size="10.00">Impl.parseAll</text>
</a>
</g>
</g>
<!-- Node17&#45;&gt;Node23 -->
<g id="edge24" class="edge">
<title>Node17&#45;&gt;Node23</title>
<path fill="none" stroke="midnightblue" d="M643.69,-169.44C628.13,-167.76 612.09,-166.03 596.83,-164.38"/>
<polygon fill="midnightblue" stroke="midnightblue" points="643.52,-172.94 653.83,-170.53 644.27,-165.98 643.52,-172.94"/>
</g>
<!-- Node27 -->
<g id="node27" class="node">
<title>Node27</title>
<g id="a_node27"><a xlink:href="../../d9/d60/classjavolution_1_1xml_1_1XMLFormat_1_1InputElement.html#ace8288707b8a3cb46bf483440533fd1e" target="_top" xlink:title=" ">
<polygon fill="white" stroke="black" points="435.5,-91.5 435.5,-121.5 591.5,-121.5 591.5,-91.5 435.5,-91.5"/>
<text text-anchor="start" x="443.5" y="-109.5" font-family="Helvetica,sans-Serif" font-size="10.00">javolution.xml.XMLFormat.</text>
<text text-anchor="middle" x="513.5" y="-98.5" font-family="Helvetica,sans-Serif" font-size="10.00">InputElement.readReference</text>
</a>
</g>
</g>
<!-- Node17&#45;&gt;Node27 -->
<g id="edge28" class="edge">
<title>Node17&#45;&gt;Node27</title>
<path fill="none" stroke="midnightblue" d="M695.18,-160.32C672.64,-150.49 644.16,-138.86 618,-130.5 607.81,-127.24 596.92,-124.23 586.18,-121.52"/>
<polygon fill="midnightblue" stroke="midnightblue" points="693.89,-163.58 704.45,-164.41 696.71,-157.17 693.89,-163.58"/>
</g>
<!-- Node28 -->
<g id="node28" class="node">
<title>Node28</title>
<g id="a_node28"><a xlink:href="../../d0/d65/classjavolution_1_1xml_1_1internal_1_1stream_1_1XMLStreamReaderImpl.html#a5e11adbb1f420b45116c6412caf6ccf1" target="_top" xlink:title=" ">
<polygon fill="white" stroke="black" points="427.5,-42.5 427.5,-72.5 599.5,-72.5 599.5,-42.5 427.5,-42.5"/>
<text text-anchor="start" x="435.5" y="-60.5" font-family="Helvetica,sans-Serif" font-size="10.00">javolution.xml.internal.stream.</text>
<text text-anchor="middle" x="513.5" y="-49.5" font-family="Helvetica,sans-Serif" font-size="10.00">XMLStreamReaderImpl.setInput</text>
</a>
</g>
</g>
<!-- Node17&#45;&gt;Node28 -->
<g id="edge29" class="edge">
<title>Node17&#45;&gt;Node28</title>
<path fill="none" stroke="midnightblue" d="M715.97,-156.91C693.75,-134.42 656.65,-100.57 618,-81.5 611.05,-78.07 603.6,-75.12 595.99,-72.59"/>
<polygon fill="midnightblue" stroke="midnightblue" points="713.71,-159.61 723.19,-164.35 718.74,-154.74 713.71,-159.61"/>
</g>
<!-- Node19 -->
<g id="node19" class="node">
<title>Node19</title>
<g id="a_node19"><a xlink:href="../../d9/d60/classjavolution_1_1xml_1_1XMLFormat_1_1InputElement.html#a1858fc90a06227e089492a4f40fc77ac" target="_top" xlink:title=" ">
<polygon fill="white" stroke="black" points="215.5,-287.5 215.5,-317.5 364.5,-317.5 364.5,-287.5 215.5,-287.5"/>
<text text-anchor="start" x="223.5" y="-305.5" font-family="Helvetica,sans-Serif" font-size="10.00">javolution.xml.XMLFormat.</text>
<text text-anchor="middle" x="290" y="-294.5" font-family="Helvetica,sans-Serif" font-size="10.00">InputElement.getText</text>
</a>
</g>
</g>
<!-- Node18&#45;&gt;Node19 -->
<g id="edge20" class="edge">
<title>Node18&#45;&gt;Node19</title>
<path fill="none" stroke="midnightblue" d="M398.69,-302.5C387.09,-302.5 375.54,-302.5 364.54,-302.5"/>
<polygon fill="midnightblue" stroke="midnightblue" points="398.88,-306 408.88,-302.5 398.88,-299 398.88,-306"/>
</g>
<!-- Node22 -->
<g id="node22" class="node">
<title>Node22</title>
<g id="a_node22"><a xlink:href="../../d9/d60/classjavolution_1_1xml_1_1XMLFormat_1_1InputElement.html#af7d0a9ca04a7340a049b615e947c88ca" target="_top" xlink:title=" ">
<polygon fill="white" stroke="black" points="215.5,-189.5 215.5,-219.5 364.5,-219.5 364.5,-189.5 215.5,-189.5"/>
<text text-anchor="start" x="223.5" y="-207.5" font-family="Helvetica,sans-Serif" font-size="10.00">javolution.xml.XMLFormat.</text>
<text text-anchor="middle" x="290" y="-196.5" font-family="Helvetica,sans-Serif" font-size="10.00">InputElement.hasNext</text>
</a>
</g>
</g>
<!-- Node21&#45;&gt;Node22 -->
<g id="edge23" class="edge">
<title>Node21&#45;&gt;Node22</title>
<path fill="none" stroke="midnightblue" d="M418.05,-204.5C400.26,-204.5 381.89,-204.5 364.84,-204.5"/>
<polygon fill="midnightblue" stroke="midnightblue" points="418.44,-208 428.44,-204.5 418.44,-201 418.44,-208"/>
</g>
<!-- Node24 -->
<g id="node24" class="node">
<title>Node24</title>
<g id="a_node24"><a xlink:href="../../d6/d79/classjavolution_1_1xml_1_1sax_1_1XMLReaderImpl.html#af59c6a5e7282b94dea9be9452f9c945e" target="_top" xlink:title=" ">
<polygon fill="white" stroke="black" points="207,-140.5 207,-170.5 373,-170.5 373,-140.5 207,-140.5"/>
<text text-anchor="start" x="215" y="-158.5" font-family="Helvetica,sans-Serif" font-size="10.00">javolution.xml.sax.XMLReader</text>
<text text-anchor="middle" x="290" y="-147.5" font-family="Helvetica,sans-Serif" font-size="10.00">Impl.parse</text>
</a>
</g>
</g>
<!-- Node23&#45;&gt;Node24 -->
<g id="edge25" class="edge">
<title>Node23&#45;&gt;Node24</title>
<path fill="none" stroke="midnightblue" d="M420.15,-155.5C404.51,-155.5 388.38,-155.5 373.03,-155.5"/>
<polygon fill="midnightblue" stroke="midnightblue" points="420.34,-159 430.34,-155.5 420.34,-152 420.34,-159"/>
</g>
<!-- Node25 -->
<g id="node25" class="node">
<title>Node25</title>
<g id="a_node25"><a xlink:href="../../d5/de1/classjavolution_1_1xml_1_1sax_1_1SAX2ReaderImpl.html#ac88f97df2622809ba9f127e173f20f17" target="_top" xlink:title=" ">
<polygon fill="white" stroke="black" points="0,-165.5 0,-195.5 171,-195.5 171,-165.5 0,-165.5"/>
<text text-anchor="start" x="8" y="-183.5" font-family="Helvetica,sans-Serif" font-size="10.00">javolution.xml.sax.SAX2Reader</text>
<text text-anchor="middle" x="85.5" y="-172.5" font-family="Helvetica,sans-Serif" font-size="10.00">Impl.parse</text>
</a>
</g>
</g>
<!-- Node24&#45;&gt;Node25 -->
<g id="edge26" class="edge">
<title>Node24&#45;&gt;Node25</title>
<path fill="none" stroke="midnightblue" d="M196.96,-166.86C188.42,-167.92 179.8,-168.98 171.33,-170.03"/>
<polygon fill="midnightblue" stroke="midnightblue" points="197.43,-170.33 206.93,-165.63 196.57,-163.38 197.43,-170.33"/>
</g>
<!-- Node26 -->
<g id="node26" class="node">
<title>Node26</title>
<g id="a_node26"><a xlink:href="../../d6/d79/classjavolution_1_1xml_1_1sax_1_1XMLReaderImpl.html#a255e7cbc9ce8eced22fae7c8138b6cfb" target="_top" xlink:title=" ">
<polygon fill="white" stroke="black" points="2.5,-116.5 2.5,-146.5 168.5,-146.5 168.5,-116.5 2.5,-116.5"/>
<text text-anchor="start" x="10.5" y="-134.5" font-family="Helvetica,sans-Serif" font-size="10.00">javolution.xml.sax.XMLReader</text>
<text text-anchor="middle" x="85.5" y="-123.5" font-family="Helvetica,sans-Serif" font-size="10.00">Impl.parse</text>
</a>
</g>
</g>
<!-- Node24&#45;&gt;Node26 -->
<g id="edge27" class="edge">
<title>Node24&#45;&gt;Node26</title>
<path fill="none" stroke="midnightblue" d="M196.81,-144.57C187.43,-143.46 177.95,-142.34 168.69,-141.24"/>
<polygon fill="midnightblue" stroke="midnightblue" points="196.58,-148.07 206.93,-145.77 197.41,-141.12 196.58,-148.07"/>
</g>
<!-- Node29&#45;&gt;Node17 -->
<g id="edge31" class="edge">
<title>Node29&#45;&gt;Node17</title>
<path fill="none" stroke="midnightblue" d="M852.68,-179.5C842.37,-179.5 832.06,-179.5 822.08,-179.5"/>
<polygon fill="midnightblue" stroke="midnightblue" points="852.96,-183 862.96,-179.5 852.96,-176 852.96,-183"/>
</g>
<!-- Node30&#45;&gt;Node17 -->
<g id="edge34" class="edge">
<title>Node30&#45;&gt;Node17</title>
<path fill="none" stroke="midnightblue" d="M885.41,-147.69C860.2,-153.16 832.51,-159.18 808.06,-164.49"/>
<polygon fill="midnightblue" stroke="midnightblue" points="886.28,-151.08 895.31,-145.53 884.79,-144.24 886.28,-151.08"/>
</g>
<!-- Node32 -->
<g id="node32" class="node">
<title>Node32</title>
<g id="a_node32"><a xlink:href="../../d0/d65/classjavolution_1_1xml_1_1internal_1_1stream_1_1XMLStreamReaderImpl.html#a50e36bac0d5ad3781eec541f8588c1c5" target="_top" xlink:title=" ">
<polygon fill="white" stroke="black" points="1109,-73.5 1109,-103.5 1318,-103.5 1318,-73.5 1109,-73.5"/>
<text text-anchor="start" x="1117" y="-91.5" font-family="Helvetica,sans-Serif" font-size="10.00">javolution.xml.internal.stream.</text>
<text text-anchor="middle" x="1213.5" y="-80.5" font-family="Helvetica,sans-Serif" font-size="10.00">XMLStreamReaderImpl.processStartTag</text>
</a>
</g>
</g>
<!-- Node31&#45;&gt;Node32 -->
<g id="edge37" class="edge">
<title>Node31&#45;&gt;Node32</title>
<path fill="none" stroke="midnightblue" d="M1356.8,-96.99C1344.06,-96.23 1331.08,-95.45 1318.41,-94.7"/>
<polygon fill="midnightblue" stroke="midnightblue" points="1356.77,-100.49 1366.96,-97.59 1357.19,-93.5 1356.77,-100.49"/>
</g>
<!-- Node32&#45;&gt;Node17 -->
<g id="edge38" class="edge">
<title>Node32&#45;&gt;Node17</title>
<path fill="none" stroke="midnightblue" d="M1098.61,-79.58C1027.82,-77.52 935.79,-81.25 858,-105.5 818.51,-117.81 778.99,-146.4 756.9,-164.22"/>
<polygon fill="midnightblue" stroke="midnightblue" points="1098.78,-83.09 1108.89,-79.92 1099.01,-76.09 1098.78,-83.09"/>
</g>
<!-- Node35 -->
<g id="node35" class="node">
<title>Node35</title>
<g id="a_node35"><a xlink:href="../../d0/d71/classjavolution_1_1text_1_1internal_1_1TextContextImpl.html#a05ab7e7659b3adab76f892ac041ca0d1" target="_top" xlink:title=" ">
<polygon fill="white" stroke="black" points="1383.5,-0.5 1383.5,-30.5 1550.5,-30.5 1550.5,-0.5 1383.5,-0.5"/>
<text text-anchor="start" x="1391.5" y="-18.5" font-family="Helvetica,sans-Serif" font-size="10.00">javolution.text.internal.</text>
<text text-anchor="middle" x="1467" y="-7.5" font-family="Helvetica,sans-Serif" font-size="10.00">TextContextImpl.searchFormat</text>
</a>
</g>
</g>
<!-- Node34&#45;&gt;Node35 -->
<g id="edge41" class="edge">
<title>Node34&#45;&gt;Node35</title>
<path fill="none" stroke="midnightblue" d="M1648.39,-44.36C1618.1,-39.52 1582.38,-33.8 1550.74,-28.74"/>
<polygon fill="midnightblue" stroke="midnightblue" points="1648.01,-47.85 1658.44,-45.97 1649.11,-40.93 1648.01,-47.85"/>
</g>
</g>
</svg>
        <g id="navigator" transform="translate(0 0)" fill="#404254">
                <rect fill="#f2f5e9" fill-opacity="0.5" stroke="#606060" stroke-width=".5" x="0" y="0" width="60" height="60"/>
                <use id="zoomplus" xlink:href="#zoomPlus" x="17" y="9" onmousedown="handleZoom(evt,'in')"/>
                <use id="zoomminus" xlink:href="#zoomMin" x="42" y="9" onmousedown="handleZoom(evt,'out')"/>
                <use id="reset" xlink:href="#resetDef" x="30" y="36" onmousedown="handleReset()"/>
                <g id="arrowUp" xlink:href="#dirArrow" transform="translate(30 24)" onmousedown="handlePan(0,-1)">
                  <use xlink:href="#rim" fill="#404040">
                        <set attributeName="fill" to="#808080" begin="arrowUp.mouseover" end="arrowUp.mouseout"/>
                  </use>
                  <path fill="none" stroke="white" stroke-width="1.5" d="M0,-3.0v7 M-2.5,-0.5L0,-3.0L2.5,-0.5"/>
                </g>
                <g id="arrowRight" xlink:href="#dirArrow" transform="rotate(90) translate(36 -43)" onmousedown="handlePan(1,0)">
                  <use xlink:href="#rim" fill="#404040">
                        <set attributeName="fill" to="#808080" begin="arrowRight.mouseover" end="arrowRight.mouseout"/>
                  </use>
                  <path fill="none" stroke="white" stroke-width="1.5" d="M0,-3.0v7 M-2.5,-0.5L0,-3.0L2.5,-0.5"/>
                </g>
                <g id="arrowDown" xlink:href="#dirArrow" transform="rotate(180) translate(-30 -48)" onmousedown="handlePan(0,1)">
                  <use xlink:href="#rim" fill="#404040">
                        <set attributeName="fill" to="#808080" begin="arrowDown.mouseover" end="arrowDown.mouseout"/>
                  </use>
                  <path fill="none" stroke="white" stroke-width="1.5" d="M0,-3.0v7 M-2.5,-0.5L0,-3.0L2.5,-0.5"/>
                </g>
                <g id="arrowLeft" xlink:href="#dirArrow" transform="rotate(270) translate(-36 17)" onmousedown="handlePan(-1,0)">
                  <use xlink:href="#rim" fill="#404040">
                        <set attributeName="fill" to="#808080" begin="arrowLeft.mouseover" end="arrowLeft.mouseout"/>
                  </use>
                  <path fill="none" stroke="white" stroke-width="1.5" d="M0,-3.0v7 M-2.5,-0.5L0,-3.0L2.5,-0.5"/>
                </g>
        </g>
        <svg viewBox="0 0 15 15" width="100%" height="30px" preserveAspectRatio="xMaxYMin meet">
         <g id="arrow_out" transform="scale(0.3 0.3)">
          <a xlink:href="classjavolution_1_1context_1_1LogContext_a3ad63f63b01950647a13c980c14c111a_icgraph_org.svg" target="_base">
           <rect id="button" ry="5" rx="5" y="6" x="6" height="38" width="38"
                fill="#f2f5e9" fill-opacity="0.5" stroke="#606060" stroke-width="1.0"/>
           <path id="arrow"
             d="M 11.500037,31.436501 C 11.940474,20.09759 22.043105,11.32322 32.158766,21.979434 L 37.068811,17.246167 C 37.068811,17.246167 37.088388,32 37.088388,32 L 22.160133,31.978069 C 22.160133,31.978069 26.997745,27.140456 26.997745,27.140456 C 18.528582,18.264221 13.291696,25.230495 11.500037,31.436501 z"
             style="fill:#404040;"/>
          </a>
         </g>
        </svg>
</svg>
