<?xml version="1.0" encoding="UTF-8" standalone="no"?>
<!DOCTYPE svg PUBLIC "-//W3C//DTD SVG 1.1//EN"
 "http://www.w3.org/Graphics/SVG/1.1/DTD/svg11.dtd">
<!-- Generated by graphviz version 2.43.0 (0)
 -->
<!-- Title: javolution.context.LogContext.debug Pages: 1 -->
<!--zoomable 318 -->
<svg id="main" version="1.1" xmlns="http://www.w3.org/2000/svg" xmlns:xlink="http://www.w3.org/1999/xlink" xml:space="preserve" onload="init(evt)">
<style type="text/css"><![CDATA[
.edge:hover path { stroke: red; }
.edge:hover polygon { stroke: red; fill: red; }
]]></style>
<script type="text/javascript"><![CDATA[
var edges = document.getElementsByTagName('g');
if (edges && edges.length) {
  for (var i=0;i<edges.length;i++) {
    if (edges[i].id.substr(0,4)=='edge') {
      edges[i].setAttribute('class','edge');
    }
  }
}
]]></script>
        <defs>
                <circle id="rim" cx="0" cy="0" r="7"/>
                <circle id="rim2" cx="0" cy="0" r="3.5"/>
                <g id="zoomPlus">
                        <use xlink:href="#rim" fill="#404040">
                                <set attributeName="fill" to="#808080" begin="zoomplus.mouseover" end="zoomplus.mouseout"/>
                        </use>
                        <path d="M-4,0h8M0,-4v8" fill="none" stroke="white" stroke-width="1.5" pointer-events="none"/>
                </g>
                <g id="zoomMin">
                        <use xlink:href="#rim" fill="#404040">
                                <set attributeName="fill" to="#808080" begin="zoomminus.mouseover" end="zoomminus.mouseout"/>
                        </use>
                        <path d="M-4,0h8" fill="none" stroke="white" stroke-width="1.5" pointer-events="none"/>
                </g>
                <g id="dirArrow">
                        <path fill="none" stroke="white" stroke-width="1.5" d="M0,-3.0v7 M-2.5,-0.5L0,-3.0L2.5,-0.5"/>
                </g>
               <g id="resetDef">
                       <use xlink:href="#rim2" fill="#404040">
                               <set attributeName="fill" to="#808080" begin="reset.mouseover" end="reset.mouseout"/>
                       </use>
               </g>
        </defs>

<script type="text/javascript">
var viewWidth = 820;
var viewHeight = 318;
var sectionId = 'dynsection-6';
</script>
<script xlink:href="../../svgpan.js"/>
<svg id="graph" class="graph">
<g id="viewport">
<title>javolution.context.LogContext.debug</title>
<polygon fill="white" stroke="transparent" points="-4,4 -4,-313.5 816,-313.5 816,4 -4,4"/>
<!-- Node1 -->
<g id="node1" class="node">
<title>Node1</title>
<g id="a_node1"><a xlink:title=" ">
<polygon fill="#bfbfbf" stroke="black" points="615,-131 615,-150 812,-150 812,-131 615,-131"/>
<text text-anchor="middle" x="713.5" y="-138" font-family="Helvetica,sans-Serif" font-size="10.00">javolution.context.LogContext.debug</text>
</a>
</g>
</g>
<!-- Node2 -->
<g id="node2" class="node">
<title>Node2</title>
<g id="a_node2"><a xlink:href="../../d5/dc7/classjavolution_1_1lang_1_1Configurable.html#a9ee63caf2e345a492b8887590bab86b6" target="_top" xlink:title=" ">
<polygon fill="white" stroke="black" points="387.5,-268 387.5,-309 568.5,-309 568.5,-268 387.5,-268"/>
<text text-anchor="start" x="395.5" y="-297" font-family="Helvetica,sans-Serif" font-size="10.00">javolution.lang.Configurable</text>
<text text-anchor="start" x="395.5" y="-286" font-family="Helvetica,sans-Serif" font-size="10.00">&lt; javolution::context::LogContext</text>
<text text-anchor="middle" x="478" y="-275" font-family="Helvetica,sans-Serif" font-size="10.00">::Level &gt;::Configurable</text>
</a>
</g>
</g>
<!-- Node1&#45;&gt;Node2 -->
<g id="edge1" class="edge">
<title>Node1&#45;&gt;Node2</title>
<path fill="none" stroke="midnightblue" d="M697.28,-158.12C674.19,-183.78 627.82,-231.34 579,-258.5 572.66,-262.02 565.87,-265.18 558.91,-268"/>
<polygon fill="midnightblue" stroke="midnightblue" points="700.18,-160.12 704.19,-150.31 694.94,-155.48 700.18,-160.12"/>
</g>
<!-- Node3 -->
<g id="node3" class="node">
<title>Node3</title>
<g id="a_node3"><a xlink:href="../../da/d71/classjavolution_1_1osgi_1_1internal_1_1ConfigurableListenerImpl.html#ac04fa119928bae4b63949fa083de990f" target="_top" xlink:title=" ">
<polygon fill="white" stroke="black" points="377,-208 377,-249 579,-249 579,-208 377,-208"/>
<text text-anchor="start" x="385" y="-237" font-family="Helvetica,sans-Serif" font-size="10.00">javolution.osgi.internal.</text>
<text text-anchor="start" x="385" y="-226" font-family="Helvetica,sans-Serif" font-size="10.00">ConfigurableListenerImpl.configurable</text>
<text text-anchor="middle" x="478" y="-215" font-family="Helvetica,sans-Serif" font-size="10.00">Initialized</text>
</a>
</g>
</g>
<!-- Node1&#45;&gt;Node3 -->
<g id="edge2" class="edge">
<title>Node1&#45;&gt;Node3</title>
<path fill="none" stroke="midnightblue" d="M683.26,-154.4C656.48,-166.84 615.57,-185.13 579,-198.5 570.06,-201.77 560.59,-204.96 551.17,-207.96"/>
<polygon fill="midnightblue" stroke="midnightblue" points="684.87,-157.51 692.45,-150.1 681.91,-151.17 684.87,-157.51"/>
</g>
<!-- Node4 -->
<g id="node4" class="node">
<title>Node4</title>
<g id="a_node4"><a xlink:href="../../da/d71/classjavolution_1_1osgi_1_1internal_1_1ConfigurableListenerImpl.html#aa2a09161531c326a08d3db86efa24b27" target="_top" xlink:title=" ">
<polygon fill="white" stroke="black" points="377,-148 377,-189 579,-189 579,-148 377,-148"/>
<text text-anchor="start" x="385" y="-177" font-family="Helvetica,sans-Serif" font-size="10.00">javolution.osgi.internal.</text>
<text text-anchor="start" x="385" y="-166" font-family="Helvetica,sans-Serif" font-size="10.00">ConfigurableListenerImpl.configurable</text>
<text text-anchor="middle" x="478" y="-155" font-family="Helvetica,sans-Serif" font-size="10.00">Reconfigured</text>
</a>
</g>
</g>
<!-- Node1&#45;&gt;Node4 -->
<g id="edge3" class="edge">
<title>Node1&#45;&gt;Node4</title>
<path fill="none" stroke="midnightblue" d="M622.85,-151.25C608.58,-152.96 593.74,-154.74 579.24,-156.48"/>
<polygon fill="midnightblue" stroke="midnightblue" points="623.61,-154.68 633.12,-150.02 622.78,-147.73 623.61,-154.68"/>
</g>
<!-- Node5 -->
<g id="node5" class="node">
<title>Node5</title>
<g id="a_node5"><a xlink:href="../../d2/dc3/classjavolution_1_1lang_1_1Initializer.html#a9b0b912560d37b4b80ee61416ffa1503" target="_top" xlink:title=" ">
<polygon fill="white" stroke="black" points="387,-98.5 387,-128.5 569,-128.5 569,-98.5 387,-98.5"/>
<text text-anchor="start" x="395" y="-116.5" font-family="Helvetica,sans-Serif" font-size="10.00">javolution.lang.Initializer.initialize</text>
<text text-anchor="middle" x="478" y="-105.5" font-family="Helvetica,sans-Serif" font-size="10.00">LoadedClasses</text>
</a>
</g>
</g>
<!-- Node1&#45;&gt;Node5 -->
<g id="edge4" class="edge">
<title>Node1&#45;&gt;Node5</title>
<path fill="none" stroke="midnightblue" d="M619.91,-129.79C603.25,-127.87 585.91,-125.86 569.32,-123.94"/>
<polygon fill="midnightblue" stroke="midnightblue" points="619.84,-133.31 630.18,-130.98 620.64,-126.36 619.84,-133.31"/>
</g>
<!-- Node8 -->
<g id="node8" class="node">
<title>Node8</title>
<g id="a_node8"><a xlink:href="../../d2/dc3/classjavolution_1_1lang_1_1Initializer.html#a3762b5ff0428c43024b98863e8674864" target="_top" xlink:title=" ">
<polygon fill="white" stroke="black" points="397.5,-49.5 397.5,-79.5 558.5,-79.5 558.5,-49.5 397.5,-49.5"/>
<text text-anchor="start" x="405.5" y="-67.5" font-family="Helvetica,sans-Serif" font-size="10.00">javolution.lang.Initializer.load</text>
<text text-anchor="middle" x="478" y="-56.5" font-family="Helvetica,sans-Serif" font-size="10.00">Class</text>
</a>
</g>
</g>
<!-- Node1&#45;&gt;Node8 -->
<g id="edge7" class="edge">
<title>Node1&#45;&gt;Node8</title>
<path fill="none" stroke="midnightblue" d="M680.37,-126.98C653.56,-116 614.2,-100.58 579,-89.5 567.73,-85.95 555.63,-82.57 543.87,-79.51"/>
<polygon fill="midnightblue" stroke="midnightblue" points="679.06,-130.23 689.64,-130.8 681.73,-123.76 679.06,-130.23"/>
</g>
<!-- Node9 -->
<g id="node9" class="node">
<title>Node9</title>
<g id="a_node9"><a xlink:href="../../de/d3a/classjavolution_1_1test_1_1Perfometer.html#a79430ba4172d29e5d53ee83ff424e6a9" target="_top" xlink:title=" ">
<polygon fill="white" stroke="black" points="393,-0.5 393,-30.5 563,-30.5 563,-0.5 393,-0.5"/>
<text text-anchor="start" x="401" y="-18.5" font-family="Helvetica,sans-Serif" font-size="10.00">javolution.test.Perfometer.print</text>
<text text-anchor="middle" x="478" y="-7.5" font-family="Helvetica,sans-Serif" font-size="10.00">Details</text>
</a>
</g>
</g>
<!-- Node1&#45;&gt;Node9 -->
<g id="edge9" class="edge">
<title>Node1&#45;&gt;Node9</title>
<path fill="none" stroke="midnightblue" d="M695.11,-123.8C670.98,-101.55 625.08,-62.42 579,-40.5 570.92,-36.66 562.18,-33.36 553.35,-30.55"/>
<polygon fill="midnightblue" stroke="midnightblue" points="693.01,-126.63 702.7,-130.92 697.8,-121.53 693.01,-126.63"/>
</g>
<!-- Node6 -->
<g id="node6" class="node">
<title>Node6</title>
<g id="a_node6"><a xlink:href="../../d8/d20/classjavolution_1_1osgi_1_1internal_1_1OSGiServices.html#acb73fa260ca4cdc4056c3b16d69694b6" target="_top" xlink:title=" ">
<polygon fill="white" stroke="black" points="170,-68 170,-109 341,-109 341,-68 170,-68"/>
<text text-anchor="start" x="178" y="-97" font-family="Helvetica,sans-Serif" font-size="10.00">javolution.osgi.internal.</text>
<text text-anchor="start" x="178" y="-86" font-family="Helvetica,sans-Serif" font-size="10.00">OSGiServices.initializeRealtime</text>
<text text-anchor="middle" x="255.5" y="-75" font-family="Helvetica,sans-Serif" font-size="10.00">Classes</text>
</a>
</g>
</g>
<!-- Node5&#45;&gt;Node6 -->
<g id="edge5" class="edge">
<title>Node5&#45;&gt;Node6</title>
<path fill="none" stroke="midnightblue" d="M377.01,-102.16C365.06,-100.81 352.94,-99.43 341.24,-98.11"/>
<polygon fill="midnightblue" stroke="midnightblue" points="376.67,-105.65 387,-103.3 377.45,-98.69 376.67,-105.65"/>
</g>
<!-- Node7 -->
<g id="node7" class="node">
<title>Node7</title>
<g id="a_node7"><a xlink:href="../../d2/d94/classjavolution_1_1osgi_1_1internal_1_1JavolutionActivator.html#a073a569fac72d21f478798745b026435" target="_top" xlink:title=" ">
<polygon fill="white" stroke="black" points="0,-73.5 0,-103.5 134,-103.5 134,-73.5 0,-73.5"/>
<text text-anchor="start" x="8" y="-91.5" font-family="Helvetica,sans-Serif" font-size="10.00">javolution.osgi.internal.</text>
<text text-anchor="middle" x="67" y="-80.5" font-family="Helvetica,sans-Serif" font-size="10.00">JavolutionActivator.start</text>
</a>
</g>
</g>
<!-- Node6&#45;&gt;Node7 -->
<g id="edge6" class="edge">
<title>Node6&#45;&gt;Node7</title>
<path fill="none" stroke="midnightblue" d="M159.79,-88.5C151.1,-88.5 142.42,-88.5 134.06,-88.5"/>
<polygon fill="midnightblue" stroke="midnightblue" points="159.98,-92 169.98,-88.5 159.98,-85 159.98,-92"/>
</g>
<!-- Node8&#45;&gt;Node6 -->
<g id="edge8" class="edge">
<title>Node8&#45;&gt;Node6</title>
<path fill="none" stroke="midnightblue" d="M387.45,-74.25C372.17,-75.91 356.34,-77.63 341.2,-79.28"/>
<polygon fill="midnightblue" stroke="midnightblue" points="387.83,-77.73 397.39,-73.16 387.07,-70.77 387.83,-77.73"/>
</g>
</g>
</svg>
        <g id="navigator" transform="translate(0 0)" fill="#404254">
                <rect fill="#f2f5e9" fill-opacity="0.5" stroke="#606060" stroke-width=".5" x="0" y="0" width="60" height="60"/>
                <use id="zoomplus" xlink:href="#zoomPlus" x="17" y="9" onmousedown="handleZoom(evt,'in')"/>
                <use id="zoomminus" xlink:href="#zoomMin" x="42" y="9" onmousedown="handleZoom(evt,'out')"/>
                <use id="reset" xlink:href="#resetDef" x="30" y="36" onmousedown="handleReset()"/>
                <g id="arrowUp" xlink:href="#dirArrow" transform="translate(30 24)" onmousedown="handlePan(0,-1)">
                  <use xlink:href="#rim" fill="#404040">
                        <set attributeName="fill" to="#808080" begin="arrowUp.mouseover" end="arrowUp.mouseout"/>
                  </use>
                  <path fill="none" stroke="white" stroke-width="1.5" d="M0,-3.0v7 M-2.5,-0.5L0,-3.0L2.5,-0.5"/>
                </g>
                <g id="arrowRight" xlink:href="#dirArrow" transform="rotate(90) translate(36 -43)" onmousedown="handlePan(1,0)">
                  <use xlink:href="#rim" fill="#404040">
                        <set attributeName="fill" to="#808080" begin="arrowRight.mouseover" end="arrowRight.mouseout"/>
                  </use>
                  <path fill="none" stroke="white" stroke-width="1.5" d="M0,-3.0v7 M-2.5,-0.5L0,-3.0L2.5,-0.5"/>
                </g>
                <g id="arrowDown" xlink:href="#dirArrow" transform="rotate(180) translate(-30 -48)" onmousedown="handlePan(0,1)">
                  <use xlink:href="#rim" fill="#404040">
                        <set attributeName="fill" to="#808080" begin="arrowDown.mouseover" end="arrowDown.mouseout"/>
                  </use>
                  <path fill="none" stroke="white" stroke-width="1.5" d="M0,-3.0v7 M-2.5,-0.5L0,-3.0L2.5,-0.5"/>
                </g>
                <g id="arrowLeft" xlink:href="#dirArrow" transform="rotate(270) translate(-36 17)" onmousedown="handlePan(-1,0)">
                  <use xlink:href="#rim" fill="#404040">
                        <set attributeName="fill" to="#808080" begin="arrowLeft.mouseover" end="arrowLeft.mouseout"/>
                  </use>
                  <path fill="none" stroke="white" stroke-width="1.5" d="M0,-3.0v7 M-2.5,-0.5L0,-3.0L2.5,-0.5"/>
                </g>
        </g>
        <svg viewBox="0 0 15 15" width="100%" height="30px" preserveAspectRatio="xMaxYMin meet">
         <g id="arrow_out" transform="scale(0.3 0.3)">
          <a xlink:href="classjavolution_1_1context_1_1LogContext_af5f74866879390693180e6f5edec892b_icgraph_org.svg" target="_base">
           <rect id="button" ry="5" rx="5" y="6" x="6" height="38" width="38"
                fill="#f2f5e9" fill-opacity="0.5" stroke="#606060" stroke-width="1.0"/>
           <path id="arrow"
             d="M 11.500037,31.436501 C 11.940474,20.09759 22.043105,11.32322 32.158766,21.979434 L 37.068811,17.246167 C 37.068811,17.246167 37.088388,32 37.088388,32 L 22.160133,31.978069 C 22.160133,31.978069 26.997745,27.140456 26.997745,27.140456 C 18.528582,18.264221 13.291696,25.230495 11.500037,31.436501 z"
             style="fill:#404040;"/>
          </a>
         </g>
        </svg>
</svg>
