<?xml version="1.0" encoding="UTF-8" standalone="no"?>
<!DOCTYPE svg PUBLIC "-//W3C//DTD SVG 1.1//EN"
 "http://www.w3.org/Graphics/SVG/1.1/DTD/svg11.dtd">
<!-- Generated by graphviz version 2.43.0 (0)
 -->
<!-- Title: javolution.util.internal.map.AtomicMapImpl.cloneTarget Pages: 1 -->
<svg width="602pt" height="382pt"
 viewBox="0.00 0.00 602.00 382.00" xmlns="http://www.w3.org/2000/svg" xmlns:xlink="http://www.w3.org/1999/xlink">
<g id="graph0" class="graph" transform="scale(1 1) rotate(0) translate(4 378)">
<title>javolution.util.internal.map.AtomicMapImpl.cloneTarget</title>
<polygon fill="white" stroke="transparent" points="-4,4 -4,-378 598,-378 598,4 -4,4"/>
<!-- Node1 -->
<g id="node1" class="node">
<title>Node1</title>
<g id="a_node1"><a xlink:title=" ">
<polygon fill="#bfbfbf" stroke="black" points="441,-171.5 441,-201.5 594,-201.5 594,-171.5 441,-171.5"/>
<text text-anchor="start" x="449" y="-189.5" font-family="Helvetica,sans-Serif" font-size="10.00">javolution.util.internal.map.</text>
<text text-anchor="middle" x="517.5" y="-178.5" font-family="Helvetica,sans-Serif" font-size="10.00">AtomicMapImpl.cloneTarget</text>
</a>
</g>
</g>
<!-- Node2 -->
<g id="node2" class="node">
<title>Node2</title>
<g id="a_node2"><a xlink:href="../../d8/d68/classjavolution_1_1util_1_1internal_1_1map_1_1AtomicMapImpl.html#a0169bfc4e5ce4b44905ccf6422195eaa" target="_top" xlink:title=" ">
<polygon fill="white" stroke="black" points="231,-343.5 231,-373.5 405,-373.5 405,-343.5 231,-343.5"/>
<text text-anchor="start" x="239" y="-361.5" font-family="Helvetica,sans-Serif" font-size="10.00">javolution.util.internal.map.</text>
<text text-anchor="middle" x="318" y="-350.5" font-family="Helvetica,sans-Serif" font-size="10.00">AtomicMapImpl.AtomicMapImpl</text>
</a>
</g>
</g>
<!-- Node1&#45;&gt;Node2 -->
<g id="edge1" class="edge">
<title>Node1&#45;&gt;Node2</title>
<path fill="none" stroke="midnightblue" d="M504.78,-210.65C487.53,-243.63 452.17,-302.33 405,-334.5 400.01,-337.91 394.54,-340.83 388.86,-343.34"/>
<polygon fill="midnightblue" stroke="midnightblue" points="507.92,-212.18 509.35,-201.68 501.69,-209 507.92,-212.18"/>
</g>
<!-- Node3 -->
<g id="node3" class="node">
<title>Node3</title>
<g id="a_node3"><a xlink:href="../../d8/d68/classjavolution_1_1util_1_1internal_1_1map_1_1AtomicMapImpl.html#a4c583e1c3176c6a680ddb9ef2ec3250f" target="_top" xlink:title=" ">
<polygon fill="white" stroke="black" points="242,-294.5 242,-324.5 394,-324.5 394,-294.5 242,-294.5"/>
<text text-anchor="start" x="250" y="-312.5" font-family="Helvetica,sans-Serif" font-size="10.00">javolution.util.internal.map.</text>
<text text-anchor="middle" x="318" y="-301.5" font-family="Helvetica,sans-Serif" font-size="10.00">AtomicMapImpl.clear</text>
</a>
</g>
</g>
<!-- Node1&#45;&gt;Node3 -->
<g id="edge2" class="edge">
<title>Node1&#45;&gt;Node3</title>
<path fill="none" stroke="midnightblue" d="M496.96,-209.03C476.27,-231.53 441.6,-265.55 405,-285.5 398.74,-288.91 391.95,-291.87 385.03,-294.44"/>
<polygon fill="midnightblue" stroke="midnightblue" points="499.57,-211.37 503.67,-201.6 494.37,-206.67 499.57,-211.37"/>
</g>
<!-- Node4 -->
<g id="node4" class="node">
<title>Node4</title>
<g id="a_node4"><a xlink:href="../../d8/d68/classjavolution_1_1util_1_1internal_1_1map_1_1AtomicMapImpl.html#af7cfd4565620fa83a83742f5aede742a" target="_top" xlink:title=" ">
<polygon fill="white" stroke="black" points="242,-245.5 242,-275.5 394,-275.5 394,-245.5 242,-245.5"/>
<text text-anchor="start" x="250" y="-263.5" font-family="Helvetica,sans-Serif" font-size="10.00">javolution.util.internal.map.</text>
<text text-anchor="middle" x="318" y="-252.5" font-family="Helvetica,sans-Serif" font-size="10.00">AtomicMapImpl.put</text>
</a>
</g>
</g>
<!-- Node1&#45;&gt;Node4 -->
<g id="edge3" class="edge">
<title>Node1&#45;&gt;Node4</title>
<path fill="none" stroke="midnightblue" d="M476.98,-205.96C455.92,-215.88 429.4,-227.68 405,-236.5 396.25,-239.66 386.88,-242.66 377.66,-245.4"/>
<polygon fill="midnightblue" stroke="midnightblue" points="478.72,-209.01 486.24,-201.55 475.71,-202.69 478.72,-209.01"/>
</g>
<!-- Node5 -->
<g id="node5" class="node">
<title>Node5</title>
<g id="a_node5"><a xlink:href="../../d8/d68/classjavolution_1_1util_1_1internal_1_1map_1_1AtomicMapImpl.html#aa602fe5dd7f6abfc40f099d77acef3c4" target="_top" xlink:title=" ">
<polygon fill="white" stroke="black" points="242,-196.5 242,-226.5 394,-226.5 394,-196.5 242,-196.5"/>
<text text-anchor="start" x="250" y="-214.5" font-family="Helvetica,sans-Serif" font-size="10.00">javolution.util.internal.map.</text>
<text text-anchor="middle" x="318" y="-203.5" font-family="Helvetica,sans-Serif" font-size="10.00">AtomicMapImpl.putAll</text>
</a>
</g>
</g>
<!-- Node1&#45;&gt;Node5 -->
<g id="edge4" class="edge">
<title>Node1&#45;&gt;Node5</title>
<path fill="none" stroke="midnightblue" d="M430.81,-197.35C418.61,-198.89 406.13,-200.47 394.14,-201.99"/>
<polygon fill="midnightblue" stroke="midnightblue" points="431.51,-200.79 440.99,-196.06 430.63,-193.84 431.51,-200.79"/>
</g>
<!-- Node6 -->
<g id="node6" class="node">
<title>Node6</title>
<g id="a_node6"><a xlink:href="../../d8/d68/classjavolution_1_1util_1_1internal_1_1map_1_1AtomicMapImpl.html#a85c16f353332b5b5dd813be93d88a0c0" target="_top" xlink:title=" ">
<polygon fill="white" stroke="black" points="241.5,-147.5 241.5,-177.5 394.5,-177.5 394.5,-147.5 241.5,-147.5"/>
<text text-anchor="start" x="249.5" y="-165.5" font-family="Helvetica,sans-Serif" font-size="10.00">javolution.util.internal.map.</text>
<text text-anchor="middle" x="318" y="-154.5" font-family="Helvetica,sans-Serif" font-size="10.00">AtomicMapImpl.putIfAbsent</text>
</a>
</g>
</g>
<!-- Node1&#45;&gt;Node6 -->
<g id="edge5" class="edge">
<title>Node1&#45;&gt;Node6</title>
<path fill="none" stroke="midnightblue" d="M430.96,-176.11C418.93,-174.64 406.63,-173.15 394.8,-171.71"/>
<polygon fill="midnightblue" stroke="midnightblue" points="430.64,-179.59 440.99,-177.32 431.48,-172.64 430.64,-179.59"/>
</g>
<!-- Node7 -->
<g id="node7" class="node">
<title>Node7</title>
<g id="a_node7"><a xlink:href="../../d8/d68/classjavolution_1_1util_1_1internal_1_1map_1_1AtomicMapImpl.html#a6d95665e02b6b326d8514fe5fb0062d7" target="_top" xlink:title=" ">
<polygon fill="white" stroke="black" points="242,-98.5 242,-128.5 394,-128.5 394,-98.5 242,-98.5"/>
<text text-anchor="start" x="250" y="-116.5" font-family="Helvetica,sans-Serif" font-size="10.00">javolution.util.internal.map.</text>
<text text-anchor="middle" x="318" y="-105.5" font-family="Helvetica,sans-Serif" font-size="10.00">AtomicMapImpl.remove</text>
</a>
</g>
</g>
<!-- Node1&#45;&gt;Node7 -->
<g id="edge6" class="edge">
<title>Node1&#45;&gt;Node7</title>
<path fill="none" stroke="midnightblue" d="M475.06,-167.21C454.27,-157.91 428.57,-146.96 405,-138.5 395.2,-134.98 384.63,-131.59 374.38,-128.5"/>
<polygon fill="midnightblue" stroke="midnightblue" points="473.68,-170.43 484.24,-171.35 476.56,-164.05 473.68,-170.43"/>
</g>
<!-- Node9 -->
<g id="node9" class="node">
<title>Node9</title>
<g id="a_node9"><a xlink:href="../../d8/d68/classjavolution_1_1util_1_1internal_1_1map_1_1AtomicMapImpl.html#ab0a264f7c8947b43faa4695954b5ebb5" target="_top" xlink:title=" ">
<polygon fill="white" stroke="black" points="242,-49.5 242,-79.5 394,-79.5 394,-49.5 242,-49.5"/>
<text text-anchor="start" x="250" y="-67.5" font-family="Helvetica,sans-Serif" font-size="10.00">javolution.util.internal.map.</text>
<text text-anchor="middle" x="318" y="-56.5" font-family="Helvetica,sans-Serif" font-size="10.00">AtomicMapImpl.replace</text>
</a>
</g>
</g>
<!-- Node1&#45;&gt;Node9 -->
<g id="edge8" class="edge">
<title>Node1&#45;&gt;Node9</title>
<path fill="none" stroke="midnightblue" d="M496.2,-163.86C475.33,-141.9 440.91,-109.09 405,-89.5 398.04,-85.7 390.44,-82.43 382.73,-79.61"/>
<polygon fill="midnightblue" stroke="midnightblue" points="493.87,-166.5 503.25,-171.42 498.99,-161.72 493.87,-166.5"/>
</g>
<!-- Node10 -->
<g id="node10" class="node">
<title>Node10</title>
<g id="a_node10"><a xlink:href="../../d8/d68/classjavolution_1_1util_1_1internal_1_1map_1_1AtomicMapImpl.html#adf4900471eef2b9fc2d82fef2646fea1" target="_top" xlink:title=" ">
<polygon fill="white" stroke="black" points="242,-0.5 242,-30.5 394,-30.5 394,-0.5 242,-0.5"/>
<text text-anchor="start" x="250" y="-18.5" font-family="Helvetica,sans-Serif" font-size="10.00">javolution.util.internal.map.</text>
<text text-anchor="middle" x="318" y="-7.5" font-family="Helvetica,sans-Serif" font-size="10.00">AtomicMapImpl.update</text>
</a>
</g>
</g>
<!-- Node1&#45;&gt;Node10 -->
<g id="edge9" class="edge">
<title>Node1&#45;&gt;Node10</title>
<path fill="none" stroke="midnightblue" d="M504.38,-162.25C486.87,-129.71 451.45,-72.33 405,-40.5 399.36,-36.63 393.11,-33.36 386.64,-30.58"/>
<polygon fill="midnightblue" stroke="midnightblue" points="501.28,-163.89 509.03,-171.11 507.48,-160.63 501.28,-163.89"/>
</g>
<!-- Node8 -->
<g id="node8" class="node">
<title>Node8</title>
<g id="a_node8"><a xlink:href="../../d2/d95/classjavolution_1_1util_1_1internal_1_1map_1_1AtomicMapImpl_1_1IteratorImpl.html#abb81b769c8267f982b498f4b208a1347" target="_top" xlink:title=" ">
<polygon fill="white" stroke="black" points="0,-98.5 0,-128.5 195,-128.5 195,-98.5 0,-98.5"/>
<text text-anchor="start" x="8" y="-116.5" font-family="Helvetica,sans-Serif" font-size="10.00">javolution.util.internal.map.</text>
<text text-anchor="middle" x="97.5" y="-105.5" font-family="Helvetica,sans-Serif" font-size="10.00">AtomicMapImpl.IteratorImpl.remove</text>
</a>
</g>
</g>
<!-- Node7&#45;&gt;Node8 -->
<g id="edge7" class="edge">
<title>Node7&#45;&gt;Node8</title>
<path fill="none" stroke="midnightblue" d="M231.8,-113.5C219.75,-113.5 207.3,-113.5 195.06,-113.5"/>
<polygon fill="midnightblue" stroke="midnightblue" points="231.8,-117 241.8,-113.5 231.8,-110 231.8,-117"/>
</g>
</g>
</svg>
