<?xml version="1.0" encoding="UTF-8" standalone="no"?>
<!DOCTYPE svg PUBLIC "-//W3C//DTD SVG 1.1//EN"
 "http://www.w3.org/Graphics/SVG/1.1/DTD/svg11.dtd">
<!-- Generated by graphviz version 2.43.0 (0)
 -->
<!-- Title: javolution.util.internal.map.AtomicMapImpl.updateInProgress Pages: 1 -->
<svg width="610pt" height="284pt"
 viewBox="0.00 0.00 610.00 284.00" xmlns="http://www.w3.org/2000/svg" xmlns:xlink="http://www.w3.org/1999/xlink">
<g id="graph0" class="graph" transform="scale(1 1) rotate(0) translate(4 280)">
<title>javolution.util.internal.map.AtomicMapImpl.updateInProgress</title>
<polygon fill="white" stroke="transparent" points="-4,4 -4,-280 606,-280 606,4 -4,4"/>
<!-- Node1 -->
<g id="node1" class="node">
<title>Node1</title>
<g id="a_node1"><a xlink:title=" ">
<polygon fill="#bfbfbf" stroke="black" points="420,-122.5 420,-152.5 602,-152.5 602,-122.5 420,-122.5"/>
<text text-anchor="start" x="428" y="-140.5" font-family="Helvetica,sans-Serif" font-size="10.00">javolution.util.internal.map.</text>
<text text-anchor="middle" x="511" y="-129.5" font-family="Helvetica,sans-Serif" font-size="10.00">AtomicMapImpl.updateInProgress</text>
</a>
</g>
</g>
<!-- Node2 -->
<g id="node2" class="node">
<title>Node2</title>
<g id="a_node2"><a xlink:href="../../d8/d68/classjavolution_1_1util_1_1internal_1_1map_1_1AtomicMapImpl.html#a4c583e1c3176c6a680ddb9ef2ec3250f" target="_top" xlink:title=" ">
<polygon fill="white" stroke="black" points="231.5,-245.5 231.5,-275.5 383.5,-275.5 383.5,-245.5 231.5,-245.5"/>
<text text-anchor="start" x="239.5" y="-263.5" font-family="Helvetica,sans-Serif" font-size="10.00">javolution.util.internal.map.</text>
<text text-anchor="middle" x="307.5" y="-252.5" font-family="Helvetica,sans-Serif" font-size="10.00">AtomicMapImpl.clear</text>
</a>
</g>
</g>
<!-- Node1&#45;&gt;Node2 -->
<g id="edge1" class="edge">
<title>Node1&#45;&gt;Node2</title>
<path fill="none" stroke="midnightblue" d="M487.1,-159.7C463.13,-181.87 423.54,-215.57 384,-236.5 377.68,-239.85 370.81,-242.82 363.88,-245.44"/>
<polygon fill="midnightblue" stroke="midnightblue" points="489.7,-162.05 494.6,-152.66 484.92,-156.95 489.7,-162.05"/>
</g>
<!-- Node3 -->
<g id="node3" class="node">
<title>Node3</title>
<g id="a_node3"><a xlink:href="../../d8/d68/classjavolution_1_1util_1_1internal_1_1map_1_1AtomicMapImpl.html#af7cfd4565620fa83a83742f5aede742a" target="_top" xlink:title=" ">
<polygon fill="white" stroke="black" points="231.5,-196.5 231.5,-226.5 383.5,-226.5 383.5,-196.5 231.5,-196.5"/>
<text text-anchor="start" x="239.5" y="-214.5" font-family="Helvetica,sans-Serif" font-size="10.00">javolution.util.internal.map.</text>
<text text-anchor="middle" x="307.5" y="-203.5" font-family="Helvetica,sans-Serif" font-size="10.00">AtomicMapImpl.put</text>
</a>
</g>
</g>
<!-- Node1&#45;&gt;Node3 -->
<g id="edge2" class="edge">
<title>Node1&#45;&gt;Node3</title>
<path fill="none" stroke="midnightblue" d="M464.64,-156.39C440.79,-166.09 410.98,-177.87 384,-187.5 375.58,-190.5 366.57,-193.53 357.81,-196.37"/>
<polygon fill="midnightblue" stroke="midnightblue" points="466.2,-159.53 474.14,-152.51 463.56,-153.05 466.2,-159.53"/>
</g>
<!-- Node4 -->
<g id="node4" class="node">
<title>Node4</title>
<g id="a_node4"><a xlink:href="../../d8/d68/classjavolution_1_1util_1_1internal_1_1map_1_1AtomicMapImpl.html#aa602fe5dd7f6abfc40f099d77acef3c4" target="_top" xlink:title=" ">
<polygon fill="white" stroke="black" points="231.5,-147.5 231.5,-177.5 383.5,-177.5 383.5,-147.5 231.5,-147.5"/>
<text text-anchor="start" x="239.5" y="-165.5" font-family="Helvetica,sans-Serif" font-size="10.00">javolution.util.internal.map.</text>
<text text-anchor="middle" x="307.5" y="-154.5" font-family="Helvetica,sans-Serif" font-size="10.00">AtomicMapImpl.putAll</text>
</a>
</g>
</g>
<!-- Node1&#45;&gt;Node4 -->
<g id="edge3" class="edge">
<title>Node1&#45;&gt;Node4</title>
<path fill="none" stroke="midnightblue" d="M409.66,-149.95C400.95,-151.03 392.25,-152.11 383.79,-153.16"/>
<polygon fill="midnightblue" stroke="midnightblue" points="410.37,-153.39 419.86,-148.68 409.5,-146.44 410.37,-153.39"/>
</g>
<!-- Node5 -->
<g id="node5" class="node">
<title>Node5</title>
<g id="a_node5"><a xlink:href="../../d8/d68/classjavolution_1_1util_1_1internal_1_1map_1_1AtomicMapImpl.html#a85c16f353332b5b5dd813be93d88a0c0" target="_top" xlink:title=" ">
<polygon fill="white" stroke="black" points="231,-98.5 231,-128.5 384,-128.5 384,-98.5 231,-98.5"/>
<text text-anchor="start" x="239" y="-116.5" font-family="Helvetica,sans-Serif" font-size="10.00">javolution.util.internal.map.</text>
<text text-anchor="middle" x="307.5" y="-105.5" font-family="Helvetica,sans-Serif" font-size="10.00">AtomicMapImpl.putIfAbsent</text>
</a>
</g>
</g>
<!-- Node1&#45;&gt;Node5 -->
<g id="edge4" class="edge">
<title>Node1&#45;&gt;Node5</title>
<path fill="none" stroke="midnightblue" d="M409.75,-125.56C401.12,-124.53 392.48,-123.5 384.1,-122.5"/>
<polygon fill="midnightblue" stroke="midnightblue" points="409.51,-129.06 419.86,-126.76 410.34,-122.11 409.51,-129.06"/>
</g>
<!-- Node6 -->
<g id="node6" class="node">
<title>Node6</title>
<g id="a_node6"><a xlink:href="../../d8/d68/classjavolution_1_1util_1_1internal_1_1map_1_1AtomicMapImpl.html#a6d95665e02b6b326d8514fe5fb0062d7" target="_top" xlink:title=" ">
<polygon fill="white" stroke="black" points="231.5,-49.5 231.5,-79.5 383.5,-79.5 383.5,-49.5 231.5,-49.5"/>
<text text-anchor="start" x="239.5" y="-67.5" font-family="Helvetica,sans-Serif" font-size="10.00">javolution.util.internal.map.</text>
<text text-anchor="middle" x="307.5" y="-56.5" font-family="Helvetica,sans-Serif" font-size="10.00">AtomicMapImpl.remove</text>
</a>
</g>
</g>
<!-- Node1&#45;&gt;Node6 -->
<g id="edge5" class="edge">
<title>Node1&#45;&gt;Node6</title>
<path fill="none" stroke="midnightblue" d="M462.45,-118.82C438.93,-109.72 410.07,-98.78 384,-89.5 374.63,-86.17 364.56,-82.73 354.93,-79.51"/>
<polygon fill="midnightblue" stroke="midnightblue" points="461.25,-122.11 471.84,-122.46 463.78,-115.58 461.25,-122.11"/>
</g>
<!-- Node8 -->
<g id="node8" class="node">
<title>Node8</title>
<g id="a_node8"><a xlink:href="../../d8/d68/classjavolution_1_1util_1_1internal_1_1map_1_1AtomicMapImpl.html#ab0a264f7c8947b43faa4695954b5ebb5" target="_top" xlink:title=" ">
<polygon fill="white" stroke="black" points="231.5,-0.5 231.5,-30.5 383.5,-30.5 383.5,-0.5 231.5,-0.5"/>
<text text-anchor="start" x="239.5" y="-18.5" font-family="Helvetica,sans-Serif" font-size="10.00">javolution.util.internal.map.</text>
<text text-anchor="middle" x="307.5" y="-7.5" font-family="Helvetica,sans-Serif" font-size="10.00">AtomicMapImpl.replace</text>
</a>
</g>
</g>
<!-- Node1&#45;&gt;Node8 -->
<g id="edge7" class="edge">
<title>Node1&#45;&gt;Node8</title>
<path fill="none" stroke="midnightblue" d="M486.56,-115.51C462.44,-93.89 423,-61.2 384,-40.5 377.05,-36.81 369.45,-33.52 361.84,-30.65"/>
<polygon fill="midnightblue" stroke="midnightblue" points="484.37,-118.25 494.13,-122.39 489.08,-113.07 484.37,-118.25"/>
</g>
<!-- Node7 -->
<g id="node7" class="node">
<title>Node7</title>
<g id="a_node7"><a xlink:href="../../d2/d95/classjavolution_1_1util_1_1internal_1_1map_1_1AtomicMapImpl_1_1IteratorImpl.html#abb81b769c8267f982b498f4b208a1347" target="_top" xlink:title=" ">
<polygon fill="white" stroke="black" points="0,-49.5 0,-79.5 195,-79.5 195,-49.5 0,-49.5"/>
<text text-anchor="start" x="8" y="-67.5" font-family="Helvetica,sans-Serif" font-size="10.00">javolution.util.internal.map.</text>
<text text-anchor="middle" x="97.5" y="-56.5" font-family="Helvetica,sans-Serif" font-size="10.00">AtomicMapImpl.IteratorImpl.remove</text>
</a>
</g>
</g>
<!-- Node6&#45;&gt;Node7 -->
<g id="edge6" class="edge">
<title>Node6&#45;&gt;Node7</title>
<path fill="none" stroke="midnightblue" d="M221.38,-64.5C212.75,-64.5 203.95,-64.5 195.21,-64.5"/>
<polygon fill="midnightblue" stroke="midnightblue" points="221.41,-68 231.41,-64.5 221.41,-61 221.41,-68"/>
</g>
</g>
</svg>
