<?xml version="1.0" encoding="UTF-8" standalone="no"?>
<!DOCTYPE svg PUBLIC "-//W3C//DTD SVG 1.1//EN"
 "http://www.w3.org/Graphics/SVG/1.1/DTD/svg11.dtd">
<!-- Generated by graphviz version 2.43.0 (0)
 -->
<!-- Title: javolution.text.Text Pages: 1 -->
<svg width="625pt" height="330pt"
 viewBox="0.00 0.00 625.00 330.00" xmlns="http://www.w3.org/2000/svg" xmlns:xlink="http://www.w3.org/1999/xlink">
<g id="graph0" class="graph" transform="scale(1 1) rotate(0) translate(4 326)">
<title>javolution.text.Text</title>
<polygon fill="white" stroke="transparent" points="-4,4 -4,-326 621,-326 621,4 -4,4"/>
<!-- Node1 -->
<g id="node1" class="node">
<title>Node1</title>
<g id="a_node1"><a xlink:title=" ">
<polygon fill="#bfbfbf" stroke="black" points="506,-155.5 506,-174.5 617,-174.5 617,-155.5 506,-155.5"/>
<text text-anchor="middle" x="561.5" y="-162.5" font-family="Helvetica,sans-Serif" font-size="10.00">javolution.text.Text</text>
</a>
</g>
</g>
<!-- Node1&#45;&gt;Node1 -->
<g id="edge10" class="edge">
<title>Node1&#45;&gt;Node1</title>
<path fill="none" stroke="#9a32cd" stroke-dasharray="5,2" d="M540.02,-184.4C541.45,-189.31 548.61,-193 561.5,-193 582.12,-193 588.08,-183.57 579.38,-174.76"/>
<polygon fill="#9a32cd" stroke="#9a32cd" points="543.4,-185.35 543.62,-174.76 536.84,-182.9 543.4,-185.35"/>
<text text-anchor="middle" x="561.5" y="-240" font-family="Helvetica,sans-Serif" font-size="10.00"> EMPTY</text>
<text text-anchor="middle" x="561.5" y="-229" font-family="Helvetica,sans-Serif" font-size="10.00">_head</text>
<text text-anchor="middle" x="561.5" y="-218" font-family="Helvetica,sans-Serif" font-size="10.00">_tail</text>
<text text-anchor="middle" x="561.5" y="-207" font-family="Helvetica,sans-Serif" font-size="10.00">FALSE</text>
<text text-anchor="middle" x="561.5" y="-196" font-family="Helvetica,sans-Serif" font-size="10.00">TRUE</text>
</g>
<!-- Node2 -->
<g id="node2" class="node">
<title>Node2</title>
<g id="a_node2"><a xlink:title=" ">
<polygon fill="white" stroke="#bfbfbf" points="258,-302.5 258,-321.5 344,-321.5 344,-302.5 258,-302.5"/>
<text text-anchor="middle" x="301" y="-309.5" font-family="Helvetica,sans-Serif" font-size="10.00">CharSequence</text>
</a>
</g>
</g>
<!-- Node2&#45;&gt;Node1 -->
<g id="edge1" class="edge">
<title>Node2&#45;&gt;Node1</title>
<path fill="none" stroke="midnightblue" d="M353.83,-301.83C393.44,-292.15 447.89,-274.57 488,-245 516.36,-224.09 542.17,-190.75 553.87,-174.51"/>
<polygon fill="midnightblue" stroke="midnightblue" points="353.03,-298.42 344.09,-304.12 354.63,-305.24 353.03,-298.42"/>
</g>
<!-- Node3 -->
<g id="node3" class="node">
<title>Node3</title>
<g id="a_node3"><a xlink:href="../../db/d26/classComparable.html" target="_top" xlink:title=" ">
<polygon fill="white" stroke="black" points="217,-264.5 217,-283.5 385,-283.5 385,-264.5 217,-264.5"/>
<text text-anchor="middle" x="301" y="-271.5" font-family="Helvetica,sans-Serif" font-size="10.00">Comparable&lt; CharSequence &gt;</text>
</a>
</g>
</g>
<!-- Node3&#45;&gt;Node1 -->
<g id="edge2" class="edge">
<title>Node3&#45;&gt;Node1</title>
<path fill="none" stroke="midnightblue" d="M359.06,-262.09C367.8,-259.93 376.68,-257.55 385,-255 431.95,-240.59 444.6,-237.99 488,-215 510.56,-203.05 534.54,-185.41 548.49,-174.59"/>
<polygon fill="midnightblue" stroke="midnightblue" points="358.2,-258.7 349.28,-264.43 359.82,-265.51 358.2,-258.7"/>
</g>
<!-- Node4 -->
<g id="node4" class="node">
<title>Node4</title>
<g id="a_node4"><a xlink:href="../../d7/d2f/interfacejavolution_1_1xml_1_1XMLSerializable.html" target="_top" xlink:title=" ">
<polygon fill="white" stroke="black" points="217,-226.5 217,-245.5 385,-245.5 385,-226.5 217,-226.5"/>
<text text-anchor="middle" x="301" y="-233.5" font-family="Helvetica,sans-Serif" font-size="10.00">javolution.xml.XMLSerializable</text>
</a>
</g>
</g>
<!-- Node4&#45;&gt;Node1 -->
<g id="edge3" class="edge">
<title>Node4&#45;&gt;Node1</title>
<path fill="none" stroke="midnightblue" d="M356.1,-224.18C393.43,-215.64 444.06,-203.31 488,-190 503.55,-185.29 520.74,-179.39 534.48,-174.51"/>
<polygon fill="midnightblue" stroke="midnightblue" points="354.92,-220.86 345.94,-226.48 356.47,-227.68 354.92,-220.86"/>
</g>
<!-- Node5 -->
<g id="node5" class="node">
<title>Node5</title>
<g id="a_node5"><a xlink:title=" ">
<polygon fill="white" stroke="#bfbfbf" points="53,-226.5 53,-245.5 127,-245.5 127,-226.5 53,-226.5"/>
<text text-anchor="middle" x="90" y="-233.5" font-family="Helvetica,sans-Serif" font-size="10.00">Serializable</text>
</a>
</g>
</g>
<!-- Node5&#45;&gt;Node4 -->
<g id="edge4" class="edge">
<title>Node5&#45;&gt;Node4</title>
<path fill="none" stroke="midnightblue" d="M137.68,-236C160.97,-236 189.85,-236 216.77,-236"/>
<polygon fill="midnightblue" stroke="midnightblue" points="137.41,-232.5 127.41,-236 137.4,-239.5 137.41,-232.5"/>
</g>
<!-- Node6 -->
<g id="node6" class="node">
<title>Node6</title>
<g id="a_node6"><a xlink:href="../../d0/dc3/interfacejavolution_1_1lang_1_1ValueType.html" target="_top" xlink:title=" ">
<polygon fill="white" stroke="black" points="227,-177 227,-207 375,-207 375,-177 227,-177"/>
<text text-anchor="start" x="235" y="-195" font-family="Helvetica,sans-Serif" font-size="10.00">javolution::lang::ValueType</text>
<text text-anchor="middle" x="301" y="-184" font-family="Helvetica,sans-Serif" font-size="10.00">&lt; Text &gt;</text>
</a>
</g>
</g>
<!-- Node6&#45;&gt;Node1 -->
<g id="edge5" class="edge">
<title>Node6&#45;&gt;Node1</title>
<path fill="none" stroke="midnightblue" d="M385.18,-183.31C424.65,-179.19 470.7,-174.38 505.7,-170.72"/>
<polygon fill="midnightblue" stroke="midnightblue" points="384.62,-179.85 375.04,-184.37 385.35,-186.81 384.62,-179.85"/>
</g>
<!-- Node7 -->
<g id="node7" class="node">
<title>Node7</title>
<g id="a_node7"><a xlink:href="../../d1/de3/interfacejavolution_1_1lang_1_1Immutable.html" target="_top" xlink:title=" ">
<polygon fill="white" stroke="black" points="0,-182.5 0,-201.5 180,-201.5 180,-182.5 0,-182.5"/>
<text text-anchor="middle" x="90" y="-189.5" font-family="Helvetica,sans-Serif" font-size="10.00">javolution::lang::Immutable&lt; T &gt;</text>
</a>
</g>
</g>
<!-- Node7&#45;&gt;Node6 -->
<g id="edge6" class="edge">
<title>Node7&#45;&gt;Node6</title>
<path fill="none" stroke="midnightblue" d="M190.49,-192C202.72,-192 215.06,-192 226.81,-192"/>
<polygon fill="midnightblue" stroke="midnightblue" points="190.24,-188.5 180.24,-192 190.24,-195.5 190.24,-188.5"/>
</g>
<!-- Node8 -->
<g id="node8" class="node">
<title>Node8</title>
<g id="a_node8"><a xlink:href="../../dd/d46/classjavolution_1_1util_1_1FastMap.html" target="_top" xlink:title=" ">
<polygon fill="white" stroke="black" points="237,-116.5 237,-157.5 365,-157.5 365,-116.5 237,-116.5"/>
<text text-anchor="start" x="245" y="-145.5" font-family="Helvetica,sans-Serif" font-size="10.00">javolution.util.FastMap</text>
<text text-anchor="start" x="245" y="-134.5" font-family="Helvetica,sans-Serif" font-size="10.00">&lt; javolution.text.Text,</text>
<text text-anchor="middle" x="301" y="-123.5" font-family="Helvetica,sans-Serif" font-size="10.00"> javolution.text.Text &gt;</text>
</a>
</g>
</g>
<!-- Node8&#45;&gt;Node1 -->
<g id="edge7" class="edge">
<title>Node8&#45;&gt;Node1</title>
<path fill="none" stroke="#9a32cd" stroke-dasharray="5,2" d="M375.65,-144.87C409.82,-148.54 450.99,-152.97 488,-157 493.79,-157.63 499.84,-158.29 505.87,-158.96"/>
<polygon fill="#9a32cd" stroke="#9a32cd" points="375.6,-141.35 365.28,-143.76 374.85,-148.31 375.6,-141.35"/>
<text text-anchor="middle" x="445.5" y="-160" font-family="Helvetica,sans-Serif" font-size="10.00"> INTERN</text>
</g>
<!-- Node9 -->
<g id="node9" class="node">
<title>Node9</title>
<g id="a_node9"><a xlink:title=" ">
<polygon fill="white" stroke="#bfbfbf" points="282,-78.5 282,-97.5 320,-97.5 320,-78.5 282,-78.5"/>
<text text-anchor="middle" x="301" y="-85.5" font-family="Helvetica,sans-Serif" font-size="10.00">char</text>
</a>
</g>
</g>
<!-- Node9&#45;&gt;Node1 -->
<g id="edge8" class="edge">
<title>Node9&#45;&gt;Node1</title>
<path fill="none" stroke="#9a32cd" stroke-dasharray="5,2" d="M330.01,-93.07C366.83,-100.11 433.25,-114.16 488,-133 506.47,-139.36 526.76,-148.51 541.16,-155.4"/>
<polygon fill="#9a32cd" stroke="#9a32cd" points="330.49,-89.6 320.02,-91.19 329.2,-96.47 330.49,-89.6"/>
<text text-anchor="middle" x="445.5" y="-136" font-family="Helvetica,sans-Serif" font-size="10.00"> _data</text>
</g>
<!-- Node10 -->
<g id="node10" class="node">
<title>Node10</title>
<g id="a_node10"><a xlink:title=" ">
<polygon fill="white" stroke="#bfbfbf" points="286.5,-38.5 286.5,-57.5 315.5,-57.5 315.5,-38.5 286.5,-38.5"/>
<text text-anchor="middle" x="301" y="-45.5" font-family="Helvetica,sans-Serif" font-size="10.00">int</text>
</a>
</g>
</g>
<!-- Node10&#45;&gt;Node1 -->
<g id="edge9" class="edge">
<title>Node10&#45;&gt;Node1</title>
<path fill="none" stroke="#9a32cd" stroke-dasharray="5,2" d="M326.08,-45.54C363.39,-42.9 436.23,-42.46 488,-72 522.85,-91.88 546.84,-135.84 556.16,-155.35"/>
<polygon fill="#9a32cd" stroke="#9a32cd" points="325.39,-42.09 315.71,-46.4 325.97,-49.06 325.39,-42.09"/>
<text text-anchor="middle" x="445.5" y="-97" font-family="Helvetica,sans-Serif" font-size="10.00"> BLOCK_MASK</text>
<text text-anchor="middle" x="445.5" y="-86" font-family="Helvetica,sans-Serif" font-size="10.00">BLOCK_SIZE</text>
<text text-anchor="middle" x="445.5" y="-75" font-family="Helvetica,sans-Serif" font-size="10.00">_count</text>
</g>
<!-- Node11 -->
<g id="node11" class="node">
<title>Node11</title>
<g id="a_node11"><a xlink:title=" ">
<polygon fill="white" stroke="#bfbfbf" points="255,-0.5 255,-19.5 347,-19.5 347,-0.5 255,-0.5"/>
<text text-anchor="middle" x="301" y="-7.5" font-family="Helvetica,sans-Serif" font-size="10.00">static final long</text>
</a>
</g>
</g>
<!-- Node11&#45;&gt;Node1 -->
<g id="edge11" class="edge">
<title>Node11&#45;&gt;Node1</title>
<path fill="none" stroke="#9a32cd" stroke-dasharray="5,2" d="M357.33,-3.8C396.96,-2.21 449.84,-6.19 488,-32 532.87,-62.35 552.47,-129.98 558.42,-155.23"/>
<polygon fill="#9a32cd" stroke="#9a32cd" points="357.1,-0.31 347.3,-4.33 357.47,-7.3 357.1,-0.31"/>
<text text-anchor="middle" x="445.5" y="-35" font-family="Helvetica,sans-Serif" font-size="10.00"> serialVersionUID</text>
</g>
</g>
</svg>
