<?xml version="1.0" encoding="UTF-8" standalone="no"?>
<!DOCTYPE svg PUBLIC "-//W3C//DTD SVG 1.1//EN"
 "http://www.w3.org/Graphics/SVG/1.1/DTD/svg11.dtd">
<!-- Generated by graphviz version 2.43.0 (0)
 -->
<!-- Title: javolution.context.internal.SecurityContextImpl Pages: 1 -->
<svg width="875pt" height="129pt"
 viewBox="0.00 0.00 875.00 128.50" xmlns="http://www.w3.org/2000/svg" xmlns:xlink="http://www.w3.org/1999/xlink">
<g id="graph0" class="graph" transform="scale(1 1) rotate(0) translate(4 124.5)">
<title>javolution.context.internal.SecurityContextImpl</title>
<polygon fill="white" stroke="transparent" points="-4,4 -4,-124.5 871,-124.5 871,4 -4,4"/>
<!-- Node1 -->
<g id="node1" class="node">
<title>Node1</title>
<g id="a_node1"><a xlink:title=" ">
<polygon fill="#bfbfbf" stroke="black" points="718,-19 718,-49 867,-49 867,-19 718,-19"/>
<text text-anchor="start" x="726" y="-37" font-family="Helvetica,sans-Serif" font-size="10.00">javolution.context.internal.</text>
<text text-anchor="middle" x="792.5" y="-26" font-family="Helvetica,sans-Serif" font-size="10.00">SecurityContextImpl</text>
</a>
</g>
</g>
<!-- Node2 -->
<g id="node2" class="node">
<title>Node2</title>
<g id="a_node2"><a xlink:href="../../db/d18/classjavolution_1_1context_1_1SecurityContext.html" target="_top" xlink:title=" ">
<polygon fill="white" stroke="black" points="488.5,-61 488.5,-91 636.5,-91 636.5,-61 488.5,-61"/>
<text text-anchor="start" x="496.5" y="-79" font-family="Helvetica,sans-Serif" font-size="10.00">javolution.context.Security</text>
<text text-anchor="middle" x="562.5" y="-68" font-family="Helvetica,sans-Serif" font-size="10.00">Context</text>
</a>
</g>
</g>
<!-- Node2&#45;&gt;Node1 -->
<g id="edge1" class="edge">
<title>Node2&#45;&gt;Node1</title>
<path fill="none" stroke="midnightblue" d="M646.44,-60.72C669.75,-56.43 694.92,-51.79 717.66,-47.6"/>
<polygon fill="midnightblue" stroke="midnightblue" points="645.78,-57.28 636.58,-62.54 647.05,-64.17 645.78,-57.28"/>
</g>
<!-- Node3 -->
<g id="node3" class="node">
<title>Node3</title>
<g id="a_node3"><a xlink:href="../../d3/d0f/classjavolution_1_1context_1_1AbstractContext.html" target="_top" xlink:title=" ">
<polygon fill="white" stroke="black" points="296,-61 296,-91 445,-91 445,-61 296,-61"/>
<text text-anchor="start" x="304" y="-79" font-family="Helvetica,sans-Serif" font-size="10.00">javolution.context.Abstract</text>
<text text-anchor="middle" x="370.5" y="-68" font-family="Helvetica,sans-Serif" font-size="10.00">Context</text>
</a>
</g>
</g>
<!-- Node3&#45;&gt;Node2 -->
<g id="edge2" class="edge">
<title>Node3&#45;&gt;Node2</title>
<path fill="none" stroke="midnightblue" d="M455.3,-76C466.34,-76 477.59,-76 488.44,-76"/>
<polygon fill="midnightblue" stroke="midnightblue" points="455.23,-72.5 445.23,-76 455.23,-79.5 455.23,-72.5"/>
</g>
<!-- Node3&#45;&gt;Node3 -->
<g id="edge4" class="edge">
<title>Node3&#45;&gt;Node3</title>
<path fill="none" stroke="#9a32cd" stroke-dasharray="5,2" d="M354.15,-101.46C356.18,-106.18 361.63,-109.5 370.5,-109.5 385.05,-109.5 390.4,-100.56 386.53,-91.16"/>
<polygon fill="#9a32cd" stroke="#9a32cd" points="357.66,-101.26 354.47,-91.16 350.66,-101.05 357.66,-101.26"/>
<text text-anchor="middle" x="370.5" y="-112.5" font-family="Helvetica,sans-Serif" font-size="10.00"> outer</text>
</g>
<!-- Node4 -->
<g id="node4" class="node">
<title>Node4</title>
<g id="a_node4"><a xlink:title=" ">
<polygon fill="white" stroke="#bfbfbf" points="0,-61 0,-91 209,-91 209,-61 0,-61"/>
<text text-anchor="start" x="8" y="-79" font-family="Helvetica,sans-Serif" font-size="10.00">static final ThreadLocal</text>
<text text-anchor="middle" x="104.5" y="-68" font-family="Helvetica,sans-Serif" font-size="10.00">&lt; javolution.context.AbstractContext &gt;</text>
</a>
</g>
</g>
<!-- Node4&#45;&gt;Node3 -->
<g id="edge3" class="edge">
<title>Node4&#45;&gt;Node3</title>
<path fill="none" stroke="#9a32cd" stroke-dasharray="5,2" d="M219.36,-76C245.32,-76 272.23,-76 295.98,-76"/>
<polygon fill="#9a32cd" stroke="#9a32cd" points="219.08,-72.5 209.08,-76 219.08,-79.5 219.08,-72.5"/>
<text text-anchor="middle" x="252.5" y="-79" font-family="Helvetica,sans-Serif" font-size="10.00"> CURRENT</text>
</g>
<!-- Node5 -->
<g id="node5" class="node">
<title>Node5</title>
<g id="a_node5"><a xlink:href="../../da/dd1/classjavolution_1_1util_1_1FastTable.html" target="_top" xlink:title=" ">
<polygon fill="white" stroke="black" points="482,-0.5 482,-41.5 643,-41.5 643,-0.5 482,-0.5"/>
<text text-anchor="start" x="490" y="-29.5" font-family="Helvetica,sans-Serif" font-size="10.00">javolution.util.FastTable</text>
<text text-anchor="start" x="490" y="-18.5" font-family="Helvetica,sans-Serif" font-size="10.00">&lt; javolution.context.internal.</text>
<text text-anchor="middle" x="562.5" y="-7.5" font-family="Helvetica,sans-Serif" font-size="10.00">SecurityContextImpl.Action &gt;</text>
</a>
</g>
</g>
<!-- Node5&#45;&gt;Node1 -->
<g id="edge5" class="edge">
<title>Node5&#45;&gt;Node1</title>
<path fill="none" stroke="#9a32cd" stroke-dasharray="5,2" d="M653.31,-26.12C674.72,-27.34 697.33,-28.63 717.91,-29.8"/>
<polygon fill="#9a32cd" stroke="#9a32cd" points="653.43,-22.62 643.24,-25.55 653.03,-29.61 653.43,-22.62"/>
<text text-anchor="middle" x="680.5" y="-32" font-family="Helvetica,sans-Serif" font-size="10.00"> actions</text>
</g>
</g>
</svg>
