<?xml version="1.0" encoding="UTF-8" standalone="no"?>
<!DOCTYPE svg PUBLIC "-//W3C//DTD SVG 1.1//EN"
 "http://www.w3.org/Graphics/SVG/1.1/DTD/svg11.dtd">
<!-- Generated by graphviz version 2.43.0 (0)
 -->
<!-- Title: javolution.lang.Configurable.getDefault Pages: 1 -->
<svg width="398pt" height="110pt"
 viewBox="0.00 0.00 398.00 110.00" xmlns="http://www.w3.org/2000/svg" xmlns:xlink="http://www.w3.org/1999/xlink">
<g id="graph0" class="graph" transform="scale(1 1) rotate(0) translate(4 106)">
<title>javolution.lang.Configurable.getDefault</title>
<polygon fill="white" stroke="transparent" points="-4,4 -4,-106 394,-106 394,4 -4,4"/>
<!-- Node1 -->
<g id="node1" class="node">
<title>Node1</title>
<g id="a_node1"><a xlink:title=" ">
<polygon fill="#bfbfbf" stroke="black" points="217,-36 217,-66 390,-66 390,-36 217,-36"/>
<text text-anchor="start" x="225" y="-54" font-family="Helvetica,sans-Serif" font-size="10.00">javolution.lang.Configurable.get</text>
<text text-anchor="middle" x="303.5" y="-43" font-family="Helvetica,sans-Serif" font-size="10.00">Default</text>
</a>
</g>
</g>
<!-- Node2 -->
<g id="node2" class="node">
<title>Node2</title>
<g id="a_node2"><a xlink:href="../../d5/dc7/classjavolution_1_1lang_1_1Configurable.html#a9ee63caf2e345a492b8887590bab86b6" target="_top" xlink:title=" ">
<polygon fill="white" stroke="black" points="0,-60.5 0,-101.5 181,-101.5 181,-60.5 0,-60.5"/>
<text text-anchor="start" x="8" y="-89.5" font-family="Helvetica,sans-Serif" font-size="10.00">javolution.lang.Configurable</text>
<text text-anchor="start" x="8" y="-78.5" font-family="Helvetica,sans-Serif" font-size="10.00">&lt; javolution::context::LogContext</text>
<text text-anchor="middle" x="90.5" y="-67.5" font-family="Helvetica,sans-Serif" font-size="10.00">::Level &gt;::Configurable</text>
</a>
</g>
</g>
<!-- Node1&#45;&gt;Node2 -->
<g id="edge1" class="edge">
<title>Node1&#45;&gt;Node2</title>
<path fill="none" stroke="midnightblue" d="M206.99,-64.58C198.43,-65.8 189.78,-67.03 181.27,-68.24"/>
<polygon fill="midnightblue" stroke="midnightblue" points="207.57,-68.03 216.98,-63.16 206.59,-61.1 207.57,-68.03"/>
</g>
<!-- Node3 -->
<g id="node3" class="node">
<title>Node3</title>
<g id="a_node3"><a xlink:href="../../d5/dc7/classjavolution_1_1lang_1_1Configurable.html#a067735a9d8c096145060e3594228a7c7" target="_top" xlink:title=" ">
<polygon fill="white" stroke="black" points="0,-0.5 0,-41.5 181,-41.5 181,-0.5 0,-0.5"/>
<text text-anchor="start" x="8" y="-29.5" font-family="Helvetica,sans-Serif" font-size="10.00">javolution.lang.Configurable</text>
<text text-anchor="start" x="8" y="-18.5" font-family="Helvetica,sans-Serif" font-size="10.00">&lt; javolution::context::LogContext</text>
<text text-anchor="middle" x="90.5" y="-7.5" font-family="Helvetica,sans-Serif" font-size="10.00">::Level &gt;::parse</text>
</a>
</g>
</g>
<!-- Node1&#45;&gt;Node3 -->
<g id="edge2" class="edge">
<title>Node1&#45;&gt;Node3</title>
<path fill="none" stroke="midnightblue" d="M206.99,-37.42C198.43,-36.2 189.78,-34.97 181.27,-33.76"/>
<polygon fill="midnightblue" stroke="midnightblue" points="206.59,-40.9 216.98,-38.84 207.57,-33.97 206.59,-40.9"/>
</g>
</g>
</svg>
