<?xml version="1.0" encoding="UTF-8" standalone="no"?>
<!DOCTYPE svg PUBLIC "-//W3C//DTD SVG 1.1//EN"
 "http://www.w3.org/Graphics/SVG/1.1/DTD/svg11.dtd">
<!-- Generated by graphviz version 2.43.0 (0)
 -->
<!-- Title: javolution.lang.Configurable.parse Pages: 1 -->
<svg width="409pt" height="50pt"
 viewBox="0.00 0.00 409.00 50.00" xmlns="http://www.w3.org/2000/svg" xmlns:xlink="http://www.w3.org/1999/xlink">
<g id="graph0" class="graph" transform="scale(1 1) rotate(0) translate(4 46)">
<title>javolution.lang.Configurable.parse</title>
<polygon fill="white" stroke="transparent" points="-4,4 -4,-46 405,-46 405,4 -4,4"/>
<!-- Node1 -->
<g id="node1" class="node">
<title>Node1</title>
<g id="a_node1"><a xlink:title=" ">
<polygon fill="#bfbfbf" stroke="black" points="217,-11.5 217,-30.5 401,-30.5 401,-11.5 217,-11.5"/>
<text text-anchor="middle" x="309" y="-18.5" font-family="Helvetica,sans-Serif" font-size="10.00">javolution.lang.Configurable.parse</text>
</a>
</g>
</g>
<!-- Node2 -->
<g id="node2" class="node">
<title>Node2</title>
<g id="a_node2"><a xlink:href="../../d5/dc7/classjavolution_1_1lang_1_1Configurable.html#a9ee63caf2e345a492b8887590bab86b6" target="_top" xlink:title=" ">
<polygon fill="white" stroke="black" points="0,-0.5 0,-41.5 181,-41.5 181,-0.5 0,-0.5"/>
<text text-anchor="start" x="8" y="-29.5" font-family="Helvetica,sans-Serif" font-size="10.00">javolution.lang.Configurable</text>
<text text-anchor="start" x="8" y="-18.5" font-family="Helvetica,sans-Serif" font-size="10.00">&lt; javolution::context::LogContext</text>
<text text-anchor="middle" x="90.5" y="-7.5" font-family="Helvetica,sans-Serif" font-size="10.00">::Level &gt;::Configurable</text>
</a>
</g>
</g>
<!-- Node1&#45;&gt;Node2 -->
<g id="edge1" class="edge">
<title>Node1&#45;&gt;Node2</title>
<path fill="none" stroke="midnightblue" d="M206.53,-21C198.08,-21 189.56,-21 181.2,-21"/>
<polygon fill="midnightblue" stroke="midnightblue" points="206.81,-24.5 216.81,-21 206.81,-17.5 206.81,-24.5"/>
</g>
</g>
</svg>
