<?xml version="1.0" encoding="UTF-8" standalone="no"?>
<!DOCTYPE svg PUBLIC "-//W3C//DTD SVG 1.1//EN"
 "http://www.w3.org/Graphics/SVG/1.1/DTD/svg11.dtd">
<!-- Generated by graphviz version 2.43.0 (0)
 -->
<!-- Title: javolution.lang.Configurable.get Pages: 1 -->
<svg width="784pt" height="226pt"
 viewBox="0.00 0.00 784.00 225.50" xmlns="http://www.w3.org/2000/svg" xmlns:xlink="http://www.w3.org/1999/xlink">
<g id="graph0" class="graph" transform="scale(1 1) rotate(0) translate(4 221.5)">
<title>javolution.lang.Configurable.get</title>
<polygon fill="white" stroke="transparent" points="-4,4 -4,-221.5 780,-221.5 780,4 -4,4"/>
<!-- Node1 -->
<g id="node1" class="node">
<title>Node1</title>
<g id="a_node1"><a xlink:title=" ">
<polygon fill="#bfbfbf" stroke="black" points="603,-88 603,-107 776,-107 776,-88 603,-88"/>
<text text-anchor="middle" x="689.5" y="-95" font-family="Helvetica,sans-Serif" font-size="10.00">javolution.lang.Configurable.get</text>
</a>
</g>
</g>
<!-- Node2 -->
<g id="node2" class="node">
<title>Node2</title>
<g id="a_node2"><a xlink:href="../../d5/d0b/classjavolution_1_1context_1_1internal_1_1ConcurrentContextImpl.html#a01532c9c1307f9247e56aaefbb09e0c9" target="_top" xlink:title=" ">
<polygon fill="white" stroke="black" points="379,-176 379,-217 565,-217 565,-176 379,-176"/>
<text text-anchor="start" x="387" y="-205" font-family="Helvetica,sans-Serif" font-size="10.00">javolution.context.internal.</text>
<text text-anchor="start" x="387" y="-194" font-family="Helvetica,sans-Serif" font-size="10.00">ConcurrentContextImpl.Concurrent</text>
<text text-anchor="middle" x="472" y="-183" font-family="Helvetica,sans-Serif" font-size="10.00">ContextImpl</text>
</a>
</g>
</g>
<!-- Node1&#45;&gt;Node2 -->
<g id="edge1" class="edge">
<title>Node1&#45;&gt;Node2</title>
<path fill="none" stroke="midnightblue" d="M664.9,-112.5C640.91,-127.32 602.36,-149.95 567,-165.5 558.58,-169.2 549.58,-172.71 540.6,-175.94"/>
<polygon fill="midnightblue" stroke="midnightblue" points="667,-115.32 673.64,-107.05 663.3,-109.38 667,-115.32"/>
</g>
<!-- Node4 -->
<g id="node4" class="node">
<title>Node4</title>
<g id="a_node4"><a xlink:href="../../d2/dc3/classjavolution_1_1lang_1_1Initializer.html#a9b0b912560d37b4b80ee61416ffa1503" target="_top" xlink:title=" ">
<polygon fill="white" stroke="black" points="381,-126.5 381,-156.5 563,-156.5 563,-126.5 381,-126.5"/>
<text text-anchor="start" x="389" y="-144.5" font-family="Helvetica,sans-Serif" font-size="10.00">javolution.lang.Initializer.initialize</text>
<text text-anchor="middle" x="472" y="-133.5" font-family="Helvetica,sans-Serif" font-size="10.00">LoadedClasses</text>
</a>
</g>
</g>
<!-- Node1&#45;&gt;Node4 -->
<g id="edge3" class="edge">
<title>Node1&#45;&gt;Node4</title>
<path fill="none" stroke="midnightblue" d="M631.68,-109.1C605.69,-114.41 574.56,-120.76 546.79,-126.43"/>
<polygon fill="midnightblue" stroke="midnightblue" points="632.64,-112.48 641.74,-107.05 631.24,-105.62 632.64,-112.48"/>
</g>
<!-- Node7 -->
<g id="node7" class="node">
<title>Node7</title>
<g id="a_node7"><a xlink:href="../../de/d3a/classjavolution_1_1test_1_1Perfometer.html#af16f36b4a8177339fb3889f339cd4981" target="_top" xlink:title=" ">
<polygon fill="white" stroke="black" points="377,-88 377,-107 567,-107 567,-88 377,-88"/>
<text text-anchor="middle" x="472" y="-95" font-family="Helvetica,sans-Serif" font-size="10.00">javolution.test.Perfometer.measure</text>
</a>
</g>
</g>
<!-- Node1&#45;&gt;Node7 -->
<g id="edge6" class="edge">
<title>Node1&#45;&gt;Node7</title>
<path fill="none" stroke="midnightblue" d="M592.56,-97.5C584.18,-97.5 575.71,-97.5 567.35,-97.5"/>
<polygon fill="midnightblue" stroke="midnightblue" points="592.71,-101 602.71,-97.5 592.71,-94 592.71,-101"/>
</g>
<!-- Node8 -->
<g id="node8" class="node">
<title>Node8</title>
<g id="a_node8"><a xlink:href="../../de/d3a/classjavolution_1_1test_1_1Perfometer.html#a839405eeba365523effc8f2c446f6829" target="_top" xlink:title=" ">
<polygon fill="white" stroke="black" points="387,-50 387,-69 557,-69 557,-50 387,-50"/>
<text text-anchor="middle" x="472" y="-57" font-family="Helvetica,sans-Serif" font-size="10.00">javolution.test.Perfometer.print</text>
</a>
</g>
</g>
<!-- Node1&#45;&gt;Node8 -->
<g id="edge7" class="edge">
<title>Node1&#45;&gt;Node8</title>
<path fill="none" stroke="midnightblue" d="M624.15,-86.15C593.23,-80.7 556.59,-74.24 527.12,-69.04"/>
<polygon fill="midnightblue" stroke="midnightblue" points="623.94,-89.67 634.4,-87.96 625.16,-82.78 623.94,-89.67"/>
</g>
<!-- Node9 -->
<g id="node9" class="node">
<title>Node9</title>
<g id="a_node9"><a xlink:href="../../de/d3a/classjavolution_1_1test_1_1Perfometer.html#a79430ba4172d29e5d53ee83ff424e6a9" target="_top" xlink:title=" ">
<polygon fill="white" stroke="black" points="387,-0.5 387,-30.5 557,-30.5 557,-0.5 387,-0.5"/>
<text text-anchor="start" x="395" y="-18.5" font-family="Helvetica,sans-Serif" font-size="10.00">javolution.test.Perfometer.print</text>
<text text-anchor="middle" x="472" y="-7.5" font-family="Helvetica,sans-Serif" font-size="10.00">Details</text>
</a>
</g>
</g>
<!-- Node1&#45;&gt;Node9 -->
<g id="edge8" class="edge">
<title>Node1&#45;&gt;Node9</title>
<path fill="none" stroke="midnightblue" d="M661.88,-83.32C637.65,-70.82 600.63,-52.75 567,-40.5 557.08,-36.89 546.41,-33.55 535.93,-30.57"/>
<polygon fill="midnightblue" stroke="midnightblue" points="660.33,-86.46 670.81,-87.97 663.56,-80.25 660.33,-86.46"/>
</g>
<!-- Node3 -->
<g id="node3" class="node">
<title>Node3</title>
<g id="a_node3"><a xlink:href="../../d5/d0b/classjavolution_1_1context_1_1internal_1_1ConcurrentContextImpl.html#a112fdc6e21ca1101caad7832d3d1e4ba" target="_top" xlink:title=" ">
<polygon fill="white" stroke="black" points="176.5,-181.5 176.5,-211.5 334.5,-211.5 334.5,-181.5 176.5,-181.5"/>
<text text-anchor="start" x="184.5" y="-199.5" font-family="Helvetica,sans-Serif" font-size="10.00">javolution.context.internal.</text>
<text text-anchor="middle" x="255.5" y="-188.5" font-family="Helvetica,sans-Serif" font-size="10.00">ConcurrentContextImpl.inner</text>
</a>
</g>
</g>
<!-- Node2&#45;&gt;Node3 -->
<g id="edge2" class="edge">
<title>Node2&#45;&gt;Node3</title>
<path fill="none" stroke="midnightblue" d="M368.79,-196.5C357.37,-196.5 345.87,-196.5 334.82,-196.5"/>
<polygon fill="midnightblue" stroke="midnightblue" points="368.79,-200 378.79,-196.5 368.79,-193 368.79,-200"/>
</g>
<!-- Node5 -->
<g id="node5" class="node">
<title>Node5</title>
<g id="a_node5"><a xlink:href="../../d8/d20/classjavolution_1_1osgi_1_1internal_1_1OSGiServices.html#acb73fa260ca4cdc4056c3b16d69694b6" target="_top" xlink:title=" ">
<polygon fill="white" stroke="black" points="170,-121 170,-162 341,-162 341,-121 170,-121"/>
<text text-anchor="start" x="178" y="-150" font-family="Helvetica,sans-Serif" font-size="10.00">javolution.osgi.internal.</text>
<text text-anchor="start" x="178" y="-139" font-family="Helvetica,sans-Serif" font-size="10.00">OSGiServices.initializeRealtime</text>
<text text-anchor="middle" x="255.5" y="-128" font-family="Helvetica,sans-Serif" font-size="10.00">Classes</text>
</a>
</g>
</g>
<!-- Node4&#45;&gt;Node5 -->
<g id="edge4" class="edge">
<title>Node4&#45;&gt;Node5</title>
<path fill="none" stroke="midnightblue" d="M370.71,-141.5C360.83,-141.5 350.87,-141.5 341.17,-141.5"/>
<polygon fill="midnightblue" stroke="midnightblue" points="370.97,-145 380.97,-141.5 370.96,-138 370.97,-145"/>
</g>
<!-- Node6 -->
<g id="node6" class="node">
<title>Node6</title>
<g id="a_node6"><a xlink:href="../../d2/d94/classjavolution_1_1osgi_1_1internal_1_1JavolutionActivator.html#a073a569fac72d21f478798745b026435" target="_top" xlink:title=" ">
<polygon fill="white" stroke="black" points="0,-126.5 0,-156.5 134,-156.5 134,-126.5 0,-126.5"/>
<text text-anchor="start" x="8" y="-144.5" font-family="Helvetica,sans-Serif" font-size="10.00">javolution.osgi.internal.</text>
<text text-anchor="middle" x="67" y="-133.5" font-family="Helvetica,sans-Serif" font-size="10.00">JavolutionActivator.start</text>
</a>
</g>
</g>
<!-- Node5&#45;&gt;Node6 -->
<g id="edge5" class="edge">
<title>Node5&#45;&gt;Node6</title>
<path fill="none" stroke="midnightblue" d="M159.79,-141.5C151.1,-141.5 142.42,-141.5 134.06,-141.5"/>
<polygon fill="midnightblue" stroke="midnightblue" points="159.98,-145 169.98,-141.5 159.98,-138 159.98,-145"/>
</g>
</g>
</svg>
