<?xml version="1.0" encoding="UTF-8" standalone="no"?>
<!DOCTYPE svg PUBLIC "-//W3C//DTD SVG 1.1//EN"
 "http://www.w3.org/Graphics/SVG/1.1/DTD/svg11.dtd">
<!-- Generated by graphviz version 2.43.0 (0)
 -->
<!-- Title: javolution.osgi.internal.OSGiServices Pages: 1 -->
<svg width="567pt" height="580pt"
 viewBox="0.00 0.00 567.00 580.00" xmlns="http://www.w3.org/2000/svg" xmlns:xlink="http://www.w3.org/1999/xlink">
<g id="graph0" class="graph" transform="scale(1 1) rotate(0) translate(4 576)">
<title>javolution.osgi.internal.OSGiServices</title>
<polygon fill="white" stroke="transparent" points="-4,4 -4,-576 563,-576 563,4 -4,4"/>
<!-- Node1 -->
<g id="node1" class="node">
<title>Node1</title>
<g id="a_node1"><a xlink:title=" ">
<polygon fill="#bfbfbf" stroke="black" points="427,-276 427,-306 559,-306 559,-276 427,-276"/>
<text text-anchor="start" x="435" y="-294" font-family="Helvetica,sans-Serif" font-size="10.00">javolution.osgi.internal.</text>
<text text-anchor="middle" x="493" y="-283" font-family="Helvetica,sans-Serif" font-size="10.00">OSGiServices</text>
</a>
</g>
</g>
<!-- Node2 -->
<g id="node2" class="node">
<title>Node2</title>
<g id="a_node2"><a xlink:href="../../d4/d3c/classjavolution_1_1osgi_1_1internal_1_1ServiceTrackerImpl.html" target="_top" xlink:title=" ">
<polygon fill="white" stroke="black" points="18.5,-530.5 18.5,-571.5 212.5,-571.5 212.5,-530.5 18.5,-530.5"/>
<text text-anchor="start" x="26.5" y="-559.5" font-family="Helvetica,sans-Serif" font-size="10.00">javolution.osgi.internal.</text>
<text text-anchor="start" x="26.5" y="-548.5" font-family="Helvetica,sans-Serif" font-size="10.00">ServiceTrackerImpl&lt; javolution.xml.</text>
<text text-anchor="middle" x="115.5" y="-537.5" font-family="Helvetica,sans-Serif" font-size="10.00">XMLContext &gt;</text>
</a>
</g>
</g>
<!-- Node2&#45;&gt;Node1 -->
<g id="edge1" class="edge">
<title>Node2&#45;&gt;Node1</title>
<path fill="none" stroke="#9a32cd" stroke-dasharray="5,2" d="M223.19,-559.44C283.72,-558.61 357.44,-547.48 409,-506 473.37,-454.21 487.9,-346.08 491.11,-306.2"/>
<polygon fill="#9a32cd" stroke="#9a32cd" points="222.81,-555.94 212.83,-559.48 222.84,-562.94 222.81,-555.94"/>
<text text-anchor="middle" x="329" y="-561" font-family="Helvetica,sans-Serif" font-size="10.00"> XML_CONTEXT_TRACKER</text>
</g>
<!-- Node3 -->
<g id="node3" class="node">
<title>Node3</title>
<g id="a_node3"><a xlink:href="../../d4/d3c/classjavolution_1_1osgi_1_1internal_1_1ServiceTrackerImpl.html" target="_top" xlink:title=" ">
<polygon fill="white" stroke="black" points="9.5,-470.5 9.5,-511.5 221.5,-511.5 221.5,-470.5 9.5,-470.5"/>
<text text-anchor="start" x="17.5" y="-499.5" font-family="Helvetica,sans-Serif" font-size="10.00">javolution.osgi.internal.</text>
<text text-anchor="start" x="17.5" y="-488.5" font-family="Helvetica,sans-Serif" font-size="10.00">ServiceTrackerImpl&lt; javolution.context.</text>
<text text-anchor="middle" x="115.5" y="-477.5" font-family="Helvetica,sans-Serif" font-size="10.00">LogContext &gt;</text>
</a>
</g>
</g>
<!-- Node3&#45;&gt;Node1 -->
<g id="edge2" class="edge">
<title>Node3&#45;&gt;Node1</title>
<path fill="none" stroke="#9a32cd" stroke-dasharray="5,2" d="M231.99,-493.56C289.77,-489.54 358.06,-476.18 409,-440 456.32,-406.39 479.83,-336.91 488.26,-306.18"/>
<polygon fill="#9a32cd" stroke="#9a32cd" points="231.48,-490.09 221.71,-494.19 231.9,-497.08 231.48,-490.09"/>
<text text-anchor="middle" x="329" y="-494" font-family="Helvetica,sans-Serif" font-size="10.00"> LOG_CONTEXT_TRACKER</text>
</g>
<!-- Node4 -->
<g id="node4" class="node">
<title>Node4</title>
<g id="a_node4"><a xlink:href="../../d4/d3c/classjavolution_1_1osgi_1_1internal_1_1ServiceTrackerImpl.html" target="_top" xlink:title=" ">
<polygon fill="white" stroke="black" points="9.5,-410.5 9.5,-451.5 221.5,-451.5 221.5,-410.5 9.5,-410.5"/>
<text text-anchor="start" x="17.5" y="-439.5" font-family="Helvetica,sans-Serif" font-size="10.00">javolution.osgi.internal.</text>
<text text-anchor="start" x="17.5" y="-428.5" font-family="Helvetica,sans-Serif" font-size="10.00">ServiceTrackerImpl&lt; javolution.context.</text>
<text text-anchor="middle" x="115.5" y="-417.5" font-family="Helvetica,sans-Serif" font-size="10.00">LocalContext &gt;</text>
</a>
</g>
</g>
<!-- Node4&#45;&gt;Node1 -->
<g id="edge3" class="edge">
<title>Node4&#45;&gt;Node1</title>
<path fill="none" stroke="#9a32cd" stroke-dasharray="5,2" d="M231.72,-428.52C288.02,-423.14 355.08,-410.29 409,-381 442.06,-363.04 469.08,-326.89 482.61,-306.29"/>
<polygon fill="#9a32cd" stroke="#9a32cd" points="231.35,-425.04 221.7,-429.41 231.97,-432.01 231.35,-425.04"/>
<text text-anchor="middle" x="329" y="-428" font-family="Helvetica,sans-Serif" font-size="10.00"> LOCAL_CONTEXT_TRACKER</text>
</g>
<!-- Node5 -->
<g id="node5" class="node">
<title>Node5</title>
<g id="a_node5"><a xlink:href="../../d4/d3c/classjavolution_1_1osgi_1_1internal_1_1ServiceTrackerImpl.html" target="_top" xlink:title=" ">
<polygon fill="white" stroke="black" points="23,-361 23,-391 208,-391 208,-361 23,-361"/>
<text text-anchor="start" x="31" y="-379" font-family="Helvetica,sans-Serif" font-size="10.00">javolution.osgi.internal.</text>
<text text-anchor="middle" x="115.5" y="-368" font-family="Helvetica,sans-Serif" font-size="10.00">ServiceTrackerImpl&lt; LogService &gt;</text>
</a>
</g>
</g>
<!-- Node5&#45;&gt;Node1 -->
<g id="edge4" class="edge">
<title>Node5&#45;&gt;Node1</title>
<path fill="none" stroke="#9a32cd" stroke-dasharray="5,2" d="M218.39,-370.45C275.52,-365.19 347.45,-354.94 409,-335 430.41,-328.06 452.86,-315.82 469,-306.01"/>
<polygon fill="#9a32cd" stroke="#9a32cd" points="217.92,-366.98 208.27,-371.34 218.54,-373.95 217.92,-366.98"/>
<text text-anchor="middle" x="329" y="-369" font-family="Helvetica,sans-Serif" font-size="10.00"> LOG_SERVICE_TRACKER</text>
</g>
<!-- Node6 -->
<g id="node6" class="node">
<title>Node6</title>
<g id="a_node6"><a xlink:href="../../d4/d3c/classjavolution_1_1osgi_1_1internal_1_1ServiceTrackerImpl.html" target="_top" xlink:title=" ">
<polygon fill="white" stroke="black" points="17.5,-300.5 17.5,-341.5 213.5,-341.5 213.5,-300.5 17.5,-300.5"/>
<text text-anchor="start" x="25.5" y="-329.5" font-family="Helvetica,sans-Serif" font-size="10.00">javolution.osgi.internal.</text>
<text text-anchor="start" x="25.5" y="-318.5" font-family="Helvetica,sans-Serif" font-size="10.00">ServiceTrackerImpl&lt; javolution.lang.</text>
<text text-anchor="middle" x="115.5" y="-307.5" font-family="Helvetica,sans-Serif" font-size="10.00">Configurable.Listener &gt;</text>
</a>
</g>
</g>
<!-- Node6&#45;&gt;Node1 -->
<g id="edge5" class="edge">
<title>Node6&#45;&gt;Node1</title>
<path fill="none" stroke="#9a32cd" stroke-dasharray="5,2" d="M224.05,-312.41C289.52,-307.18 371.01,-300.67 426.82,-296.21"/>
<polygon fill="#9a32cd" stroke="#9a32cd" points="223.38,-308.95 213.69,-313.24 223.94,-315.93 223.38,-308.95"/>
<text text-anchor="start" x="262.5" y="-323" font-family="Helvetica,sans-Serif" font-size="10.00"> CONFIGURABLE_LISTENER</text>
<text text-anchor="middle" x="329" y="-312" font-family="Helvetica,sans-Serif" font-size="10.00">_TRACKER</text>
</g>
<!-- Node7 -->
<g id="node7" class="node">
<title>Node7</title>
<g id="a_node7"><a xlink:href="../../d4/d3c/classjavolution_1_1osgi_1_1internal_1_1ServiceTrackerImpl.html" target="_top" xlink:title=" ">
<polygon fill="white" stroke="black" points="0,-240.5 0,-281.5 231,-281.5 231,-240.5 0,-240.5"/>
<text text-anchor="start" x="8" y="-269.5" font-family="Helvetica,sans-Serif" font-size="10.00">javolution.osgi.internal.</text>
<text text-anchor="start" x="8" y="-258.5" font-family="Helvetica,sans-Serif" font-size="10.00">ServiceTrackerImpl&lt; javolution.xml.stream.</text>
<text text-anchor="middle" x="115.5" y="-247.5" font-family="Helvetica,sans-Serif" font-size="10.00">XMLOutputFactory &gt;</text>
</a>
</g>
</g>
<!-- Node7&#45;&gt;Node1 -->
<g id="edge6" class="edge">
<title>Node7&#45;&gt;Node1</title>
<path fill="none" stroke="#9a32cd" stroke-dasharray="5,2" d="M241.45,-260.56C293.45,-261.7 354.33,-264.78 409,-272 416.62,-273.01 424.57,-274.39 432.4,-275.95"/>
<polygon fill="#9a32cd" stroke="#9a32cd" points="241.24,-257.05 231.17,-260.35 241.1,-264.05 241.24,-257.05"/>
<text text-anchor="start" x="269.5" y="-286" font-family="Helvetica,sans-Serif" font-size="10.00"> XML_OUTPUT_FACTORY</text>
<text text-anchor="middle" x="329" y="-275" font-family="Helvetica,sans-Serif" font-size="10.00">_TRACKER</text>
</g>
<!-- Node8 -->
<g id="node8" class="node">
<title>Node8</title>
<g id="a_node8"><a xlink:href="../../d4/d3c/classjavolution_1_1osgi_1_1internal_1_1ServiceTrackerImpl.html" target="_top" xlink:title=" ">
<polygon fill="white" stroke="black" points="0,-180.5 0,-221.5 231,-221.5 231,-180.5 0,-180.5"/>
<text text-anchor="start" x="8" y="-209.5" font-family="Helvetica,sans-Serif" font-size="10.00">javolution.osgi.internal.</text>
<text text-anchor="start" x="8" y="-198.5" font-family="Helvetica,sans-Serif" font-size="10.00">ServiceTrackerImpl&lt; javolution.xml.stream.</text>
<text text-anchor="middle" x="115.5" y="-187.5" font-family="Helvetica,sans-Serif" font-size="10.00">XMLInputFactory &gt;</text>
</a>
</g>
</g>
<!-- Node8&#45;&gt;Node1 -->
<g id="edge7" class="edge">
<title>Node8&#45;&gt;Node1</title>
<path fill="none" stroke="#9a32cd" stroke-dasharray="5,2" d="M241.33,-209.88C294.09,-216.15 355.56,-226.83 409,-245 430.84,-252.42 453.61,-265.48 469.77,-275.8"/>
<polygon fill="#9a32cd" stroke="#9a32cd" points="241.58,-206.39 231.24,-208.73 240.78,-213.34 241.58,-206.39"/>
<text text-anchor="middle" x="329" y="-248" font-family="Helvetica,sans-Serif" font-size="10.00"> XML_INPUT_FACTORY_TRACKER</text>
</g>
<!-- Node9 -->
<g id="node9" class="node">
<title>Node9</title>
<g id="a_node9"><a xlink:href="../../d4/d3c/classjavolution_1_1osgi_1_1internal_1_1ServiceTrackerImpl.html" target="_top" xlink:title=" ">
<polygon fill="white" stroke="black" points="9.5,-120.5 9.5,-161.5 221.5,-161.5 221.5,-120.5 9.5,-120.5"/>
<text text-anchor="start" x="17.5" y="-149.5" font-family="Helvetica,sans-Serif" font-size="10.00">javolution.osgi.internal.</text>
<text text-anchor="start" x="17.5" y="-138.5" font-family="Helvetica,sans-Serif" font-size="10.00">ServiceTrackerImpl&lt; javolution.context.</text>
<text text-anchor="middle" x="115.5" y="-127.5" font-family="Helvetica,sans-Serif" font-size="10.00">SecurityContext &gt;</text>
</a>
</g>
</g>
<!-- Node9&#45;&gt;Node1 -->
<g id="edge8" class="edge">
<title>Node9&#45;&gt;Node1</title>
<path fill="none" stroke="#9a32cd" stroke-dasharray="5,2" d="M231.81,-145.13C288.28,-151.38 355.47,-165.4 409,-196 443.04,-215.46 470.05,-254.15 483.23,-275.67"/>
<polygon fill="#9a32cd" stroke="#9a32cd" points="232.06,-141.63 221.76,-144.08 231.34,-148.6 232.06,-141.63"/>
<text text-anchor="middle" x="329" y="-199" font-family="Helvetica,sans-Serif" font-size="10.00"> SECURITY_CONTEXT_TRACKER</text>
</g>
<!-- Node10 -->
<g id="node10" class="node">
<title>Node10</title>
<g id="a_node10"><a xlink:href="../../d4/d3c/classjavolution_1_1osgi_1_1internal_1_1ServiceTrackerImpl.html" target="_top" xlink:title=" ">
<polygon fill="white" stroke="black" points="9.5,-60.5 9.5,-101.5 221.5,-101.5 221.5,-60.5 9.5,-60.5"/>
<text text-anchor="start" x="17.5" y="-89.5" font-family="Helvetica,sans-Serif" font-size="10.00">javolution.osgi.internal.</text>
<text text-anchor="start" x="17.5" y="-78.5" font-family="Helvetica,sans-Serif" font-size="10.00">ServiceTrackerImpl&lt; javolution.context.</text>
<text text-anchor="middle" x="115.5" y="-67.5" font-family="Helvetica,sans-Serif" font-size="10.00">ConcurrentContext &gt;</text>
</a>
</g>
</g>
<!-- Node10&#45;&gt;Node1 -->
<g id="edge9" class="edge">
<title>Node10&#45;&gt;Node1</title>
<path fill="none" stroke="#9a32cd" stroke-dasharray="5,2" d="M232.15,-72.8C290.14,-74.37 358.56,-85.47 409,-122 461.95,-160.34 482.82,-241.93 489.42,-275.78"/>
<polygon fill="#9a32cd" stroke="#9a32cd" points="231.89,-69.3 221.83,-72.62 231.77,-76.29 231.89,-69.3"/>
<text text-anchor="start" x="267" y="-136" font-family="Helvetica,sans-Serif" font-size="10.00"> CONCURRENT_CONTEXT</text>
<text text-anchor="middle" x="329" y="-125" font-family="Helvetica,sans-Serif" font-size="10.00">_TRACKER</text>
</g>
<!-- Node11 -->
<g id="node11" class="node">
<title>Node11</title>
<g id="a_node11"><a xlink:href="../../d4/d3c/classjavolution_1_1osgi_1_1internal_1_1ServiceTrackerImpl.html" target="_top" xlink:title=" ">
<polygon fill="white" stroke="black" points="18.5,-0.5 18.5,-41.5 212.5,-41.5 212.5,-0.5 18.5,-0.5"/>
<text text-anchor="start" x="26.5" y="-29.5" font-family="Helvetica,sans-Serif" font-size="10.00">javolution.osgi.internal.</text>
<text text-anchor="start" x="26.5" y="-18.5" font-family="Helvetica,sans-Serif" font-size="10.00">ServiceTrackerImpl&lt; javolution.text.</text>
<text text-anchor="middle" x="115.5" y="-7.5" font-family="Helvetica,sans-Serif" font-size="10.00">TextContext &gt;</text>
</a>
</g>
</g>
<!-- Node11&#45;&gt;Node1 -->
<g id="edge10" class="edge">
<title>Node11&#45;&gt;Node1</title>
<path fill="none" stroke="#9a32cd" stroke-dasharray="5,2" d="M222.62,-8.74C283.33,-7.51 357.42,-16.53 409,-58 478.78,-114.1 489.95,-233.38 491.69,-275.71"/>
<polygon fill="#9a32cd" stroke="#9a32cd" points="222.5,-5.24 212.61,-9.04 222.71,-12.24 222.5,-5.24"/>
<text text-anchor="middle" x="329" y="-61" font-family="Helvetica,sans-Serif" font-size="10.00"> TEXT_CONTEXT_TRACKER</text>
</g>
</g>
</svg>
