<?xml version="1.0" encoding="UTF-8" standalone="no"?>
<!DOCTYPE svg PUBLIC "-//W3C//DTD SVG 1.1//EN"
 "http://www.w3.org/Graphics/SVG/1.1/DTD/svg11.dtd">
<!-- Generated by graphviz version 2.43.0 (0)
 -->
<!-- Title: javolution.util.internal.table.sorted.SharedSortedTableImpl.addIfAbsent Pages: 1 -->
<!--zoomable 235 -->
<svg id="main" version="1.1" xmlns="http://www.w3.org/2000/svg" xmlns:xlink="http://www.w3.org/1999/xlink" xml:space="preserve" onload="init(evt)">
<style type="text/css"><![CDATA[
.edge:hover path { stroke: red; }
.edge:hover polygon { stroke: red; fill: red; }
]]></style>
<script type="text/javascript"><![CDATA[
var edges = document.getElementsByTagName('g');
if (edges && edges.length) {
  for (var i=0;i<edges.length;i++) {
    if (edges[i].id.substr(0,4)=='edge') {
      edges[i].setAttribute('class','edge');
    }
  }
}
]]></script>
        <defs>
                <circle id="rim" cx="0" cy="0" r="7"/>
                <circle id="rim2" cx="0" cy="0" r="3.5"/>
                <g id="zoomPlus">
                        <use xlink:href="#rim" fill="#404040">
                                <set attributeName="fill" to="#808080" begin="zoomplus.mouseover" end="zoomplus.mouseout"/>
                        </use>
                        <path d="M-4,0h8M0,-4v8" fill="none" stroke="white" stroke-width="1.5" pointer-events="none"/>
                </g>
                <g id="zoomMin">
                        <use xlink:href="#rim" fill="#404040">
                                <set attributeName="fill" to="#808080" begin="zoomminus.mouseover" end="zoomminus.mouseout"/>
                        </use>
                        <path d="M-4,0h8" fill="none" stroke="white" stroke-width="1.5" pointer-events="none"/>
                </g>
                <g id="dirArrow">
                        <path fill="none" stroke="white" stroke-width="1.5" d="M0,-3.0v7 M-2.5,-0.5L0,-3.0L2.5,-0.5"/>
                </g>
               <g id="resetDef">
                       <use xlink:href="#rim2" fill="#404040">
                               <set attributeName="fill" to="#808080" begin="reset.mouseover" end="reset.mouseout"/>
                       </use>
               </g>
        </defs>

<script type="text/javascript">
var viewWidth = 1231;
var viewHeight = 235;
var sectionId = 'dynsection-9';
</script>
<script xlink:href="../../svgpan.js"/>
<svg id="graph" class="graph">
<g id="viewport">
<title>javolution.util.internal.table.sorted.SharedSortedTableImpl.addIfAbsent</title>
<polygon fill="white" stroke="transparent" points="-4,4 -4,-231 1227,-231 1227,4 -4,4"/>
<!-- Node1 -->
<g id="node1" class="node">
<title>Node1</title>
<g id="a_node1"><a xlink:title=" ">
<polygon fill="#bfbfbf" stroke="black" points="0,-73.5 0,-103.5 191,-103.5 191,-73.5 0,-73.5"/>
<text text-anchor="start" x="8" y="-91.5" font-family="Helvetica,sans-Serif" font-size="10.00">javolution.util.internal.table.sorted.</text>
<text text-anchor="middle" x="95.5" y="-80.5" font-family="Helvetica,sans-Serif" font-size="10.00">SharedSortedTableImpl.addIfAbsent</text>
</a>
</g>
</g>
<!-- Node2 -->
<g id="node2" class="node">
<title>Node2</title>
<g id="a_node2"><a xlink:href="../../d9/d51/classjavolution_1_1util_1_1internal_1_1table_1_1SharedTableImpl.html#abe20c2174575175096f8169f434cf2df" target="_top" xlink:title=" ">
<polygon fill="white" stroke="black" points="249,-147.5 249,-177.5 404,-177.5 404,-147.5 249,-147.5"/>
<text text-anchor="start" x="257" y="-165.5" font-family="Helvetica,sans-Serif" font-size="10.00">javolution.util.internal.table.</text>
<text text-anchor="middle" x="326.5" y="-154.5" font-family="Helvetica,sans-Serif" font-size="10.00">SharedTableImpl.element</text>
</a>
</g>
</g>
<!-- Node1&#45;&gt;Node2 -->
<g id="edge1" class="edge">
<title>Node1&#45;&gt;Node2</title>
<path fill="none" stroke="midnightblue" d="M133.25,-103.54C159.19,-113.85 194.9,-127.43 227,-137.5 235.05,-140.02 243.52,-142.48 251.99,-144.8"/>
<polygon fill="midnightblue" stroke="midnightblue" points="251.32,-148.24 261.89,-147.46 253.14,-141.48 251.32,-148.24"/>
</g>
<!-- Node8 -->
<g id="node8" class="node">
<title>Node8</title>
<g id="a_node8"><a xlink:href="../../d8/dd0/classjavolution_1_1util_1_1internal_1_1collection_1_1ReadWriteLockImpl_1_1WriteLock.html#ab4bdc6874d2bec8344d6207438f67db1" target="_top" xlink:title=" ">
<polygon fill="white" stroke="black" points="233,-98.5 233,-128.5 420,-128.5 420,-98.5 233,-98.5"/>
<text text-anchor="start" x="241" y="-116.5" font-family="Helvetica,sans-Serif" font-size="10.00">javolution.util.internal.collection.</text>
<text text-anchor="middle" x="326.5" y="-105.5" font-family="Helvetica,sans-Serif" font-size="10.00">ReadWriteLockImpl.WriteLock.lock</text>
</a>
</g>
</g>
<!-- Node1&#45;&gt;Node8 -->
<g id="edge7" class="edge">
<title>Node1&#45;&gt;Node8</title>
<path fill="none" stroke="midnightblue" d="M191.3,-98.85C201.74,-99.99 212.41,-101.15 222.94,-102.3"/>
<polygon fill="midnightblue" stroke="midnightblue" points="222.67,-105.79 232.99,-103.4 223.43,-98.84 222.67,-105.79"/>
</g>
<!-- Node10 -->
<g id="node10" class="node">
<title>Node10</title>
<g id="a_node10"><a xlink:href="../../d0/d57/classjavolution_1_1util_1_1internal_1_1table_1_1sorted_1_1SharedSortedTableImpl.html#aec3255e3fa3557607a227ebfbc8730b8" target="_top" xlink:title=" ">
<polygon fill="white" stroke="black" points="232,-49.5 232,-79.5 421,-79.5 421,-49.5 232,-49.5"/>
<text text-anchor="start" x="240" y="-67.5" font-family="Helvetica,sans-Serif" font-size="10.00">javolution.util.internal.table.sorted.</text>
<text text-anchor="middle" x="326.5" y="-56.5" font-family="Helvetica,sans-Serif" font-size="10.00">SharedSortedTableImpl.target</text>
</a>
</g>
</g>
<!-- Node1&#45;&gt;Node10 -->
<g id="edge9" class="edge">
<title>Node1&#45;&gt;Node10</title>
<path fill="none" stroke="midnightblue" d="M191.3,-78.57C201.36,-77.51 211.62,-76.43 221.78,-75.37"/>
<polygon fill="midnightblue" stroke="midnightblue" points="222.3,-78.83 231.88,-74.31 221.57,-71.87 222.3,-78.83"/>
</g>
<!-- Node11 -->
<g id="node11" class="node">
<title>Node11</title>
<g id="a_node11"><a xlink:href="../../d8/dd0/classjavolution_1_1util_1_1internal_1_1collection_1_1ReadWriteLockImpl_1_1WriteLock.html#ad71c5494959b915aaeb845cc2e0b71a7" target="_top" xlink:title=" ">
<polygon fill="white" stroke="black" points="227,-0.5 227,-30.5 426,-30.5 426,-0.5 227,-0.5"/>
<text text-anchor="start" x="235" y="-18.5" font-family="Helvetica,sans-Serif" font-size="10.00">javolution.util.internal.collection.</text>
<text text-anchor="middle" x="326.5" y="-7.5" font-family="Helvetica,sans-Serif" font-size="10.00">ReadWriteLockImpl.WriteLock.unlock</text>
</a>
</g>
</g>
<!-- Node1&#45;&gt;Node11 -->
<g id="edge10" class="edge">
<title>Node1&#45;&gt;Node11</title>
<path fill="none" stroke="midnightblue" d="M132.94,-73.47C158.89,-63.1 194.74,-49.45 227,-39.5 234.13,-37.3 241.61,-35.17 249.11,-33.15"/>
<polygon fill="midnightblue" stroke="midnightblue" points="250.19,-36.48 258.97,-30.55 248.41,-29.71 250.19,-36.48"/>
</g>
<!-- Node3 -->
<g id="node3" class="node">
<title>Node3</title>
<g id="a_node3"><a xlink:href="../../d9/d51/classjavolution_1_1util_1_1internal_1_1table_1_1SharedTableImpl.html#a13fb18680b98a7c40db4e2c0048efae5" target="_top" xlink:title=" ">
<polygon fill="white" stroke="black" points="508,-147.5 508,-177.5 663,-177.5 663,-147.5 508,-147.5"/>
<text text-anchor="start" x="516" y="-165.5" font-family="Helvetica,sans-Serif" font-size="10.00">javolution.util.internal.table.</text>
<text text-anchor="middle" x="585.5" y="-154.5" font-family="Helvetica,sans-Serif" font-size="10.00">SharedTableImpl.getFirst</text>
</a>
</g>
</g>
<!-- Node2&#45;&gt;Node3 -->
<g id="edge2" class="edge">
<title>Node2&#45;&gt;Node3</title>
<path fill="none" stroke="midnightblue" d="M404.26,-162.5C433.63,-162.5 467.32,-162.5 497.58,-162.5"/>
<polygon fill="midnightblue" stroke="midnightblue" points="497.69,-166 507.69,-162.5 497.69,-159 497.69,-166"/>
</g>
<!-- Node4 -->
<g id="node4" class="node">
<title>Node4</title>
<g id="a_node4"><a xlink:href="../../d4/d2b/classjavolution_1_1util_1_1internal_1_1collection_1_1ReadWriteLockImpl_1_1ReadLock.html#a36e93d109ab51a1f3e12da5fb08bb588" target="_top" xlink:title=" ">
<polygon fill="white" stroke="black" points="751,-196.5 751,-226.5 936,-226.5 936,-196.5 751,-196.5"/>
<text text-anchor="start" x="759" y="-214.5" font-family="Helvetica,sans-Serif" font-size="10.00">javolution.util.internal.collection.</text>
<text text-anchor="middle" x="843.5" y="-203.5" font-family="Helvetica,sans-Serif" font-size="10.00">ReadWriteLockImpl.ReadLock.lock</text>
</a>
</g>
</g>
<!-- Node3&#45;&gt;Node4 -->
<g id="edge3" class="edge">
<title>Node3&#45;&gt;Node4</title>
<path fill="none" stroke="midnightblue" d="M663.31,-177.2C691.89,-182.67 724.55,-188.92 754.09,-194.58"/>
<polygon fill="midnightblue" stroke="midnightblue" points="753.49,-198.03 763.97,-196.47 754.81,-191.15 753.49,-198.03"/>
</g>
<!-- Node6 -->
<g id="node6" class="node">
<title>Node6</title>
<g id="a_node6"><a xlink:href="../../d9/d51/classjavolution_1_1util_1_1internal_1_1table_1_1SharedTableImpl.html#ae8cd8dca1354e5eb524273fc57b11555" target="_top" xlink:title=" ">
<polygon fill="white" stroke="black" points="766,-147.5 766,-177.5 921,-177.5 921,-147.5 766,-147.5"/>
<text text-anchor="start" x="774" y="-165.5" font-family="Helvetica,sans-Serif" font-size="10.00">javolution.util.internal.table.</text>
<text text-anchor="middle" x="843.5" y="-154.5" font-family="Helvetica,sans-Serif" font-size="10.00">SharedTableImpl.target</text>
</a>
</g>
</g>
<!-- Node3&#45;&gt;Node6 -->
<g id="edge5" class="edge">
<title>Node3&#45;&gt;Node6</title>
<path fill="none" stroke="midnightblue" d="M663.31,-162.5C692.42,-162.5 725.76,-162.5 755.72,-162.5"/>
<polygon fill="midnightblue" stroke="midnightblue" points="755.75,-166 765.75,-162.5 755.75,-159 755.75,-166"/>
</g>
<!-- Node7 -->
<g id="node7" class="node">
<title>Node7</title>
<g id="a_node7"><a xlink:href="../../d4/d2b/classjavolution_1_1util_1_1internal_1_1collection_1_1ReadWriteLockImpl_1_1ReadLock.html#a3cb27e8dc3ce552b919ef856788b0132" target="_top" xlink:title=" ">
<polygon fill="white" stroke="black" points="745,-98.5 745,-128.5 942,-128.5 942,-98.5 745,-98.5"/>
<text text-anchor="start" x="753" y="-116.5" font-family="Helvetica,sans-Serif" font-size="10.00">javolution.util.internal.collection.</text>
<text text-anchor="middle" x="843.5" y="-105.5" font-family="Helvetica,sans-Serif" font-size="10.00">ReadWriteLockImpl.ReadLock.unlock</text>
</a>
</g>
</g>
<!-- Node3&#45;&gt;Node7 -->
<g id="edge6" class="edge">
<title>Node3&#45;&gt;Node7</title>
<path fill="none" stroke="midnightblue" d="M663.31,-147.8C691.89,-142.33 724.55,-136.08 754.09,-130.42"/>
<polygon fill="midnightblue" stroke="midnightblue" points="754.81,-133.85 763.97,-128.53 753.49,-126.97 754.81,-133.85"/>
</g>
<!-- Node5 -->
<g id="node5" class="node">
<title>Node5</title>
<g id="a_node5"><a xlink:href="../../d4/d2b/classjavolution_1_1util_1_1internal_1_1collection_1_1ReadWriteLockImpl_1_1ReadLock.html#ab0f1ccdff1bb66a07d0f6bfd1d54170f" target="_top" xlink:title=" ">
<polygon fill="white" stroke="black" points="978,-196.5 978,-226.5 1223,-226.5 1223,-196.5 978,-196.5"/>
<text text-anchor="start" x="986" y="-214.5" font-family="Helvetica,sans-Serif" font-size="10.00">javolution.util.internal.collection.</text>
<text text-anchor="middle" x="1100.5" y="-203.5" font-family="Helvetica,sans-Serif" font-size="10.00">ReadWriteLockImpl.ReadLock.lockInterruptibly</text>
</a>
</g>
</g>
<!-- Node4&#45;&gt;Node5 -->
<g id="edge4" class="edge">
<title>Node4&#45;&gt;Node5</title>
<path fill="none" stroke="midnightblue" d="M936.2,-211.5C946.48,-211.5 957.1,-211.5 967.75,-211.5"/>
<polygon fill="midnightblue" stroke="midnightblue" points="967.97,-215 977.97,-211.5 967.97,-208 967.97,-215"/>
</g>
<!-- Node9 -->
<g id="node9" class="node">
<title>Node9</title>
<g id="a_node9"><a xlink:href="../../d8/dd0/classjavolution_1_1util_1_1internal_1_1collection_1_1ReadWriteLockImpl_1_1WriteLock.html#a625ca30a859c35e6657a2a0464e893b7" target="_top" xlink:title=" ">
<polygon fill="white" stroke="black" points="462,-98.5 462,-128.5 709,-128.5 709,-98.5 462,-98.5"/>
<text text-anchor="start" x="470" y="-116.5" font-family="Helvetica,sans-Serif" font-size="10.00">javolution.util.internal.collection.</text>
<text text-anchor="middle" x="585.5" y="-105.5" font-family="Helvetica,sans-Serif" font-size="10.00">ReadWriteLockImpl.WriteLock.lockInterruptibly</text>
</a>
</g>
</g>
<!-- Node8&#45;&gt;Node9 -->
<g id="edge8" class="edge">
<title>Node8&#45;&gt;Node9</title>
<path fill="none" stroke="midnightblue" d="M420.28,-113.5C430.52,-113.5 441.1,-113.5 451.71,-113.5"/>
<polygon fill="midnightblue" stroke="midnightblue" points="451.88,-117 461.88,-113.5 451.88,-110 451.88,-117"/>
</g>
</g>
</svg>
        <g id="navigator" transform="translate(0 0)" fill="#404254">
                <rect fill="#f2f5e9" fill-opacity="0.5" stroke="#606060" stroke-width=".5" x="0" y="0" width="60" height="60"/>
                <use id="zoomplus" xlink:href="#zoomPlus" x="17" y="9" onmousedown="handleZoom(evt,'in')"/>
                <use id="zoomminus" xlink:href="#zoomMin" x="42" y="9" onmousedown="handleZoom(evt,'out')"/>
                <use id="reset" xlink:href="#resetDef" x="30" y="36" onmousedown="handleReset()"/>
                <g id="arrowUp" xlink:href="#dirArrow" transform="translate(30 24)" onmousedown="handlePan(0,-1)">
                  <use xlink:href="#rim" fill="#404040">
                        <set attributeName="fill" to="#808080" begin="arrowUp.mouseover" end="arrowUp.mouseout"/>
                  </use>
                  <path fill="none" stroke="white" stroke-width="1.5" d="M0,-3.0v7 M-2.5,-0.5L0,-3.0L2.5,-0.5"/>
                </g>
                <g id="arrowRight" xlink:href="#dirArrow" transform="rotate(90) translate(36 -43)" onmousedown="handlePan(1,0)">
                  <use xlink:href="#rim" fill="#404040">
                        <set attributeName="fill" to="#808080" begin="arrowRight.mouseover" end="arrowRight.mouseout"/>
                  </use>
                  <path fill="none" stroke="white" stroke-width="1.5" d="M0,-3.0v7 M-2.5,-0.5L0,-3.0L2.5,-0.5"/>
                </g>
                <g id="arrowDown" xlink:href="#dirArrow" transform="rotate(180) translate(-30 -48)" onmousedown="handlePan(0,1)">
                  <use xlink:href="#rim" fill="#404040">
                        <set attributeName="fill" to="#808080" begin="arrowDown.mouseover" end="arrowDown.mouseout"/>
                  </use>
                  <path fill="none" stroke="white" stroke-width="1.5" d="M0,-3.0v7 M-2.5,-0.5L0,-3.0L2.5,-0.5"/>
                </g>
                <g id="arrowLeft" xlink:href="#dirArrow" transform="rotate(270) translate(-36 17)" onmousedown="handlePan(-1,0)">
                  <use xlink:href="#rim" fill="#404040">
                        <set attributeName="fill" to="#808080" begin="arrowLeft.mouseover" end="arrowLeft.mouseout"/>
                  </use>
                  <path fill="none" stroke="white" stroke-width="1.5" d="M0,-3.0v7 M-2.5,-0.5L0,-3.0L2.5,-0.5"/>
                </g>
        </g>
        <svg viewBox="0 0 15 15" width="100%" height="30px" preserveAspectRatio="xMaxYMin meet">
         <g id="arrow_out" transform="scale(0.3 0.3)">
          <a xlink:href="classjavolution_1_1util_1_1internal_1_1table_1_1sorted_1_1SharedSortedTableImpl_a3cbc222359090ababc11250d607d5a0c_cgraph_org.svg" target="_base">
           <rect id="button" ry="5" rx="5" y="6" x="6" height="38" width="38"
                fill="#f2f5e9" fill-opacity="0.5" stroke="#606060" stroke-width="1.0"/>
           <path id="arrow"
             d="M 11.500037,31.436501 C 11.940474,20.09759 22.043105,11.32322 32.158766,21.979434 L 37.068811,17.246167 C 37.068811,17.246167 37.088388,32 37.088388,32 L 22.160133,31.978069 C 22.160133,31.978069 26.997745,27.140456 26.997745,27.140456 C 18.528582,18.264221 13.291696,25.230495 11.500037,31.436501 z"
             style="fill:#404040;"/>
          </a>
         </g>
        </svg>
</svg>
