<?xml version="1.0" encoding="UTF-8" standalone="no"?>
<!DOCTYPE svg PUBLIC "-//W3C//DTD SVG 1.1//EN"
 "http://www.w3.org/Graphics/SVG/1.1/DTD/svg11.dtd">
<!-- Generated by graphviz version 2.43.0 (0)
 -->
<!-- Title: javolution.util.internal.table.sorted.SharedSortedTableImpl.target Pages: 1 -->
<svg width="478pt" height="137pt"
 viewBox="0.00 0.00 478.00 137.00" xmlns="http://www.w3.org/2000/svg" xmlns:xlink="http://www.w3.org/1999/xlink">
<g id="graph0" class="graph" transform="scale(1 1) rotate(0) translate(4 133)">
<title>javolution.util.internal.table.sorted.SharedSortedTableImpl.target</title>
<polygon fill="white" stroke="transparent" points="-4,4 -4,-133 474,-133 474,4 -4,4"/>
<!-- Node1 -->
<g id="node1" class="node">
<title>Node1</title>
<g id="a_node1"><a xlink:title=" ">
<polygon fill="#bfbfbf" stroke="black" points="281,-49.5 281,-79.5 470,-79.5 470,-49.5 281,-49.5"/>
<text text-anchor="start" x="289" y="-67.5" font-family="Helvetica,sans-Serif" font-size="10.00">javolution.util.internal.table.sorted.</text>
<text text-anchor="middle" x="375.5" y="-56.5" font-family="Helvetica,sans-Serif" font-size="10.00">SharedSortedTableImpl.target</text>
</a>
</g>
</g>
<!-- Node2 -->
<g id="node2" class="node">
<title>Node2</title>
<g id="a_node2"><a xlink:href="../../d0/d57/classjavolution_1_1util_1_1internal_1_1table_1_1sorted_1_1SharedSortedTableImpl.html#a3cbc222359090ababc11250d607d5a0c" target="_top" xlink:title=" ">
<polygon fill="white" stroke="black" points="27,-98.5 27,-128.5 218,-128.5 218,-98.5 27,-98.5"/>
<text text-anchor="start" x="35" y="-116.5" font-family="Helvetica,sans-Serif" font-size="10.00">javolution.util.internal.table.sorted.</text>
<text text-anchor="middle" x="122.5" y="-105.5" font-family="Helvetica,sans-Serif" font-size="10.00">SharedSortedTableImpl.addIfAbsent</text>
</a>
</g>
</g>
<!-- Node1&#45;&gt;Node2 -->
<g id="edge1" class="edge">
<title>Node1&#45;&gt;Node2</title>
<path fill="none" stroke="midnightblue" d="M287.59,-81.47C259.22,-87 227.94,-93.11 200.37,-98.49"/>
<polygon fill="midnightblue" stroke="midnightblue" points="288.34,-84.89 297.49,-79.53 287,-78.02 288.34,-84.89"/>
</g>
<!-- Node3 -->
<g id="node3" class="node">
<title>Node3</title>
<g id="a_node3"><a xlink:href="../../d0/d57/classjavolution_1_1util_1_1internal_1_1table_1_1sorted_1_1SharedSortedTableImpl.html#adc393984944a2f467bc35008720331fa" target="_top" xlink:title=" ">
<polygon fill="white" stroke="black" points="28,-49.5 28,-79.5 217,-79.5 217,-49.5 28,-49.5"/>
<text text-anchor="start" x="36" y="-67.5" font-family="Helvetica,sans-Serif" font-size="10.00">javolution.util.internal.table.sorted.</text>
<text text-anchor="middle" x="122.5" y="-56.5" font-family="Helvetica,sans-Serif" font-size="10.00">SharedSortedTableImpl.positionOf</text>
</a>
</g>
</g>
<!-- Node1&#45;&gt;Node3 -->
<g id="edge2" class="edge">
<title>Node1&#45;&gt;Node3</title>
<path fill="none" stroke="midnightblue" d="M270.38,-64.5C252.75,-64.5 234.55,-64.5 217.21,-64.5"/>
<polygon fill="midnightblue" stroke="midnightblue" points="270.68,-68 280.68,-64.5 270.68,-61 270.68,-68"/>
</g>
<!-- Node4 -->
<g id="node4" class="node">
<title>Node4</title>
<g id="a_node4"><a xlink:href="../../d0/d57/classjavolution_1_1util_1_1internal_1_1table_1_1sorted_1_1SharedSortedTableImpl.html#ac2ec6f05c57cea72d0c4d2a6cede313e" target="_top" xlink:title=" ">
<polygon fill="white" stroke="black" points="0,-0.5 0,-30.5 245,-30.5 245,-0.5 0,-0.5"/>
<text text-anchor="start" x="8" y="-18.5" font-family="Helvetica,sans-Serif" font-size="10.00">javolution.util.internal.table.sorted.</text>
<text text-anchor="middle" x="122.5" y="-7.5" font-family="Helvetica,sans-Serif" font-size="10.00">SharedSortedTableImpl.SharedSortedTableImpl</text>
</a>
</g>
</g>
<!-- Node1&#45;&gt;Node4 -->
<g id="edge3" class="edge">
<title>Node1&#45;&gt;Node4</title>
<path fill="none" stroke="midnightblue" d="M287.59,-47.53C259.22,-42 227.94,-35.89 200.37,-30.51"/>
<polygon fill="midnightblue" stroke="midnightblue" points="287,-50.98 297.49,-49.47 288.34,-44.11 287,-50.98"/>
</g>
</g>
</svg>
