<?xml version="1.0" encoding="UTF-8" standalone="no"?>
<!DOCTYPE svg PUBLIC "-//W3C//DTD SVG 1.1//EN"
 "http://www.w3.org/Graphics/SVG/1.1/DTD/svg11.dtd">
<!-- Generated by graphviz version 2.43.0 (0)
 -->
<!-- Title: javolution.text.TextBuilder.toText Pages: 1 -->
<svg width="819pt" height="39pt"
 viewBox="0.00 0.00 819.00 39.00" xmlns="http://www.w3.org/2000/svg" xmlns:xlink="http://www.w3.org/1999/xlink">
<g id="graph0" class="graph" transform="scale(1 1) rotate(0) translate(4 35)">
<title>javolution.text.TextBuilder.toText</title>
<polygon fill="white" stroke="transparent" points="-4,4 -4,-35 815,-35 815,4 -4,4"/>
<!-- Node1 -->
<g id="node1" class="node">
<title>Node1</title>
<g id="a_node1"><a xlink:title=" ">
<polygon fill="#bfbfbf" stroke="black" points="0,-6 0,-25 178,-25 178,-6 0,-6"/>
<text text-anchor="middle" x="89" y="-13" font-family="Helvetica,sans-Serif" font-size="10.00">javolution.text.TextBuilder.toText</text>
</a>
</g>
</g>
<!-- Node2 -->
<g id="node2" class="node">
<title>Node2</title>
<g id="a_node2"><a xlink:href="../../dc/d6d/classjavolution_1_1text_1_1Text.html#ac51238a5b10c199fc942f17c6a2c94c5" target="_top" xlink:title=" ">
<polygon fill="white" stroke="black" points="214,-6 214,-25 366,-25 366,-6 214,-6"/>
<text text-anchor="middle" x="290" y="-13" font-family="Helvetica,sans-Serif" font-size="10.00">javolution.text.Text.valueOf</text>
</a>
</g>
</g>
<!-- Node1&#45;&gt;Node2 -->
<g id="edge1" class="edge">
<title>Node1&#45;&gt;Node2</title>
<path fill="none" stroke="midnightblue" d="M178.15,-8.79C186.65,-8.73 195.26,-8.74 203.74,-8.81"/>
<polygon fill="midnightblue" stroke="midnightblue" points="203.94,-12.31 213.98,-8.93 204.02,-5.31 203.94,-12.31"/>
</g>
<!-- Node2&#45;&gt;Node1 -->
<g id="edge4" class="edge">
<title>Node2&#45;&gt;Node1</title>
<path fill="none" stroke="midnightblue" d="M213.98,-22.07C205.58,-22.19 196.92,-22.26 188.28,-22.25"/>
<polygon fill="midnightblue" stroke="midnightblue" points="188.17,-18.75 178.15,-22.21 188.14,-25.75 188.17,-18.75"/>
</g>
<!-- Node3 -->
<g id="node3" class="node">
<title>Node3</title>
<g id="a_node3"><a xlink:href="../../d2/d7a/classjavolution_1_1text_1_1TextBuilder.html#a5b6d5e22b7b33b3188569bbaf6112c95" target="_top" xlink:title=" ">
<polygon fill="white" stroke="black" points="402,-6 402,-25 586,-25 586,-6 402,-6"/>
<text text-anchor="middle" x="494" y="-13" font-family="Helvetica,sans-Serif" font-size="10.00">javolution.text.TextBuilder.append</text>
</a>
</g>
</g>
<!-- Node2&#45;&gt;Node3 -->
<g id="edge2" class="edge">
<title>Node2&#45;&gt;Node3</title>
<path fill="none" stroke="midnightblue" d="M366.22,-15.5C374.52,-15.5 383.07,-15.5 391.63,-15.5"/>
<polygon fill="midnightblue" stroke="midnightblue" points="391.66,-19 401.66,-15.5 391.66,-12 391.66,-19"/>
</g>
<!-- Node4 -->
<g id="node4" class="node">
<title>Node4</title>
<g id="a_node4"><a xlink:href="../../d2/d7a/classjavolution_1_1text_1_1TextBuilder.html#a6d79c3b6adfe6c04f80f940904d181b4" target="_top" xlink:title=" ">
<polygon fill="white" stroke="black" points="622,-0.5 622,-30.5 811,-30.5 811,-0.5 622,-0.5"/>
<text text-anchor="start" x="630" y="-18.5" font-family="Helvetica,sans-Serif" font-size="10.00">javolution.text.TextBuilder.increase</text>
<text text-anchor="middle" x="716.5" y="-7.5" font-family="Helvetica,sans-Serif" font-size="10.00">Capacity</text>
</a>
</g>
</g>
<!-- Node3&#45;&gt;Node4 -->
<g id="edge3" class="edge">
<title>Node3&#45;&gt;Node4</title>
<path fill="none" stroke="midnightblue" d="M586.28,-15.5C594.62,-15.5 603.1,-15.5 611.54,-15.5"/>
<polygon fill="midnightblue" stroke="midnightblue" points="611.8,-19 621.8,-15.5 611.8,-12 611.8,-19"/>
</g>
</g>
</svg>
