<?xml version="1.0" encoding="UTF-8" standalone="no"?>
<!DOCTYPE svg PUBLIC "-//W3C//DTD SVG 1.1//EN"
 "http://www.w3.org/Graphics/SVG/1.1/DTD/svg11.dtd">
<!-- Generated by graphviz version 2.43.0 (0)
 -->
<!-- Title: javolution.text.TextBuilder.append Pages: 1 -->
<svg width="637pt" height="210pt"
 viewBox="0.00 0.00 637.00 210.00" xmlns="http://www.w3.org/2000/svg" xmlns:xlink="http://www.w3.org/1999/xlink">
<g id="graph0" class="graph" transform="scale(1 1) rotate(0) translate(4 206)">
<title>javolution.text.TextBuilder.append</title>
<polygon fill="white" stroke="transparent" points="-4,4 -4,-206 633,-206 633,4 -4,4"/>
<!-- Node1 -->
<g id="node1" class="node">
<title>Node1</title>
<g id="a_node1"><a xlink:title=" ">
<polygon fill="#bfbfbf" stroke="black" points="0,-82.5 0,-101.5 184,-101.5 184,-82.5 0,-82.5"/>
<text text-anchor="middle" x="92" y="-89.5" font-family="Helvetica,sans-Serif" font-size="10.00">javolution.text.TextBuilder.append</text>
</a>
</g>
</g>
<!-- Node2 -->
<g id="node2" class="node">
<title>Node2</title>
<g id="a_node2"><a xlink:href="../../d2/d7a/classjavolution_1_1text_1_1TextBuilder.html#a5b6d5e22b7b33b3188569bbaf6112c95" target="_top" xlink:title=" ">
<polygon fill="white" stroke="black" points="220,-182.5 220,-201.5 404,-201.5 404,-182.5 220,-182.5"/>
<text text-anchor="middle" x="312" y="-189.5" font-family="Helvetica,sans-Serif" font-size="10.00">javolution.text.TextBuilder.append</text>
</a>
</g>
</g>
<!-- Node1&#45;&gt;Node2 -->
<g id="edge1" class="edge">
<title>Node1&#45;&gt;Node2</title>
<path fill="none" stroke="midnightblue" d="M106.05,-101.52C128.36,-117.4 175.72,-149.35 220,-168 231.06,-172.66 243.26,-176.62 255.04,-179.9"/>
<polygon fill="midnightblue" stroke="midnightblue" points="254.24,-183.3 264.8,-182.49 256.04,-176.54 254.24,-183.3"/>
</g>
<!-- Node3 -->
<g id="node3" class="node">
<title>Node3</title>
<g id="a_node3"><a xlink:href="../../d2/d7a/classjavolution_1_1text_1_1TextBuilder.html#a6d79c3b6adfe6c04f80f940904d181b4" target="_top" xlink:title=" ">
<polygon fill="white" stroke="black" points="440,-158 440,-188 629,-188 629,-158 440,-158"/>
<text text-anchor="start" x="448" y="-176" font-family="Helvetica,sans-Serif" font-size="10.00">javolution.text.TextBuilder.increase</text>
<text text-anchor="middle" x="534.5" y="-165" font-family="Helvetica,sans-Serif" font-size="10.00">Capacity</text>
</a>
</g>
</g>
<!-- Node1&#45;&gt;Node3 -->
<g id="edge5" class="edge">
<title>Node1&#45;&gt;Node3</title>
<path fill="none" stroke="midnightblue" d="M116.46,-101.57C141.63,-111.46 183,-126.59 220,-135 289,-150.69 368.11,-160.21 429.6,-165.81"/>
<polygon fill="midnightblue" stroke="midnightblue" points="429.43,-169.31 439.7,-166.7 430.05,-162.33 429.43,-169.31"/>
</g>
<!-- Node4 -->
<g id="node4" class="node">
<title>Node4</title>
<g id="a_node4"><a xlink:href="../../dc/d6d/classjavolution_1_1text_1_1Text.html#a5ebc6a09946ae53d0f4ef5ace0831bc2" target="_top" xlink:title=" ">
<polygon fill="white" stroke="black" points="247,-77 247,-107 377,-107 377,-77 247,-77"/>
<text text-anchor="start" x="255" y="-95" font-family="Helvetica,sans-Serif" font-size="10.00">javolution.text.Text.get</text>
<text text-anchor="middle" x="312" y="-84" font-family="Helvetica,sans-Serif" font-size="10.00">Chars</text>
</a>
</g>
</g>
<!-- Node1&#45;&gt;Node4 -->
<g id="edge3" class="edge">
<title>Node1&#45;&gt;Node4</title>
<path fill="none" stroke="midnightblue" d="M184.19,-92C201.58,-92 219.59,-92 236.39,-92"/>
<polygon fill="midnightblue" stroke="midnightblue" points="236.68,-95.5 246.68,-92 236.68,-88.5 236.68,-95.5"/>
</g>
<!-- Node5 -->
<g id="node5" class="node">
<title>Node5</title>
<g id="a_node5"><a xlink:href="../../dc/d6d/classjavolution_1_1text_1_1Text.html#ae20f0d750950188da8be25b4aa950895" target="_top" xlink:title=" ">
<polygon fill="white" stroke="black" points="239.5,-38.5 239.5,-57.5 384.5,-57.5 384.5,-38.5 239.5,-38.5"/>
<text text-anchor="middle" x="312" y="-45.5" font-family="Helvetica,sans-Serif" font-size="10.00">javolution.text.Text.length</text>
</a>
</g>
</g>
<!-- Node1&#45;&gt;Node5 -->
<g id="edge6" class="edge">
<title>Node1&#45;&gt;Node5</title>
<path fill="none" stroke="midnightblue" d="M140.3,-82.45C173.58,-75.74 218.31,-66.71 253.63,-59.58"/>
<polygon fill="midnightblue" stroke="midnightblue" points="254.68,-62.94 263.79,-57.53 253.29,-56.08 254.68,-62.94"/>
</g>
<!-- Node6 -->
<g id="node6" class="node">
<title>Node6</title>
<g id="a_node6"><a xlink:href="../../d4/d14/classjavolution_1_1lang_1_1MathLib.html#a61d82d4ab96ea86fb7868daf1c203048" target="_top" xlink:title=" ">
<polygon fill="white" stroke="black" points="235.5,-0.5 235.5,-19.5 388.5,-19.5 388.5,-0.5 235.5,-0.5"/>
<text text-anchor="middle" x="312" y="-7.5" font-family="Helvetica,sans-Serif" font-size="10.00">javolution.lang.MathLib.min</text>
</a>
</g>
</g>
<!-- Node1&#45;&gt;Node6 -->
<g id="edge7" class="edge">
<title>Node1&#45;&gt;Node6</title>
<path fill="none" stroke="midnightblue" d="M108.86,-82.47C132.36,-68.75 178.13,-43.49 220,-29 227.7,-26.34 235.9,-23.98 244.1,-21.92"/>
<polygon fill="midnightblue" stroke="midnightblue" points="245.16,-25.27 254.08,-19.56 243.54,-18.46 245.16,-25.27"/>
</g>
<!-- Node2&#45;&gt;Node3 -->
<g id="edge2" class="edge">
<title>Node2&#45;&gt;Node3</title>
<path fill="none" stroke="midnightblue" d="M404.28,-184.13C412.71,-183.41 421.29,-182.67 429.82,-181.93"/>
<polygon fill="midnightblue" stroke="midnightblue" points="430.14,-185.42 439.8,-181.07 429.54,-178.45 430.14,-185.42"/>
</g>
<!-- Node4&#45;&gt;Node4 -->
<g id="edge4" class="edge">
<title>Node4&#45;&gt;Node4</title>
<path fill="none" stroke="midnightblue" d="M273.66,-107.16C264.42,-116.56 277.2,-125.5 312,-125.5 333.21,-125.5 346.24,-122.18 351.09,-117.46"/>
<polygon fill="midnightblue" stroke="midnightblue" points="354.56,-116.88 350.34,-107.16 347.58,-117.39 354.56,-116.88"/>
</g>
</g>
</svg>
