<?xml version="1.0" encoding="UTF-8" standalone="no"?>
<!DOCTYPE svg PUBLIC "-//W3C//DTD SVG 1.1//EN"
 "http://www.w3.org/Graphics/SVG/1.1/DTD/svg11.dtd">
<!-- Generated by graphviz version 2.43.0 (0)
 -->
<!-- Title: javolution.text.TextBuilder.appendFraction Pages: 1 -->
<svg width="637pt" height="122pt"
 viewBox="0.00 0.00 637.00 121.50" xmlns="http://www.w3.org/2000/svg" xmlns:xlink="http://www.w3.org/1999/xlink">
<g id="graph0" class="graph" transform="scale(1 1) rotate(0) translate(4 117.5)">
<title>javolution.text.TextBuilder.appendFraction</title>
<polygon fill="white" stroke="transparent" points="-4,4 -4,-117.5 633,-117.5 633,4 -4,4"/>
<!-- Node1 -->
<g id="node1" class="node">
<title>Node1</title>
<g id="a_node1"><a xlink:title=" ">
<polygon fill="#bfbfbf" stroke="black" points="0,-39 0,-69 184,-69 184,-39 0,-39"/>
<text text-anchor="start" x="8" y="-57" font-family="Helvetica,sans-Serif" font-size="10.00">javolution.text.TextBuilder.append</text>
<text text-anchor="middle" x="92" y="-46" font-family="Helvetica,sans-Serif" font-size="10.00">Fraction</text>
</a>
</g>
</g>
<!-- Node2 -->
<g id="node2" class="node">
<title>Node2</title>
<g id="a_node2"><a xlink:href="../../d2/d7a/classjavolution_1_1text_1_1TextBuilder.html#a5b6d5e22b7b33b3188569bbaf6112c95" target="_top" xlink:title=" ">
<polygon fill="white" stroke="black" points="220,-88.5 220,-107.5 404,-107.5 404,-88.5 220,-88.5"/>
<text text-anchor="middle" x="312" y="-95.5" font-family="Helvetica,sans-Serif" font-size="10.00">javolution.text.TextBuilder.append</text>
</a>
</g>
</g>
<!-- Node1&#45;&gt;Node2 -->
<g id="edge1" class="edge">
<title>Node1&#45;&gt;Node2</title>
<path fill="none" stroke="midnightblue" d="M167.41,-69.02C195.74,-74.74 227.55,-81.16 254.01,-86.5"/>
<polygon fill="midnightblue" stroke="midnightblue" points="253.38,-89.94 263.87,-88.49 254.76,-83.08 253.38,-89.94"/>
</g>
<!-- Node4 -->
<g id="node4" class="node">
<title>Node4</title>
<g id="a_node4"><a xlink:href="../../d4/d14/classjavolution_1_1lang_1_1MathLib.html#a4ffe33bc15c984923021c4c3f63eb3bc" target="_top" xlink:title=" ">
<polygon fill="white" stroke="black" points="234,-39 234,-69 390,-69 390,-39 234,-39"/>
<text text-anchor="start" x="242" y="-57" font-family="Helvetica,sans-Serif" font-size="10.00">javolution.lang.MathLib.digit</text>
<text text-anchor="middle" x="312" y="-46" font-family="Helvetica,sans-Serif" font-size="10.00">Length</text>
</a>
</g>
</g>
<!-- Node1&#45;&gt;Node4 -->
<g id="edge3" class="edge">
<title>Node1&#45;&gt;Node4</title>
<path fill="none" stroke="midnightblue" d="M184.19,-54C197.26,-54 210.69,-54 223.68,-54"/>
<polygon fill="midnightblue" stroke="midnightblue" points="224,-57.5 234,-54 224,-50.5 224,-57.5"/>
</g>
<!-- Node5 -->
<g id="node5" class="node">
<title>Node5</title>
<g id="a_node5"><a xlink:href="../../d2/d7a/classjavolution_1_1text_1_1TextBuilder.html#a23b59400283fe96ea47f786a896da5b1" target="_top" xlink:title=" ">
<polygon fill="white" stroke="black" points="222.5,-0.5 222.5,-19.5 401.5,-19.5 401.5,-0.5 222.5,-0.5"/>
<text text-anchor="middle" x="312" y="-7.5" font-family="Helvetica,sans-Serif" font-size="10.00">javolution.text.TextBuilder.length</text>
</a>
</g>
</g>
<!-- Node1&#45;&gt;Node5 -->
<g id="edge4" class="edge">
<title>Node1&#45;&gt;Node5</title>
<path fill="none" stroke="midnightblue" d="M167.41,-38.98C195.74,-33.26 227.55,-26.84 254.01,-21.5"/>
<polygon fill="midnightblue" stroke="midnightblue" points="254.76,-24.92 263.87,-19.51 253.38,-18.06 254.76,-24.92"/>
</g>
<!-- Node3 -->
<g id="node3" class="node">
<title>Node3</title>
<g id="a_node3"><a xlink:href="../../d2/d7a/classjavolution_1_1text_1_1TextBuilder.html#a6d79c3b6adfe6c04f80f940904d181b4" target="_top" xlink:title=" ">
<polygon fill="white" stroke="black" points="440,-83 440,-113 629,-113 629,-83 440,-83"/>
<text text-anchor="start" x="448" y="-101" font-family="Helvetica,sans-Serif" font-size="10.00">javolution.text.TextBuilder.increase</text>
<text text-anchor="middle" x="534.5" y="-90" font-family="Helvetica,sans-Serif" font-size="10.00">Capacity</text>
</a>
</g>
</g>
<!-- Node2&#45;&gt;Node3 -->
<g id="edge2" class="edge">
<title>Node2&#45;&gt;Node3</title>
<path fill="none" stroke="midnightblue" d="M404.28,-98C412.62,-98 421.1,-98 429.54,-98"/>
<polygon fill="midnightblue" stroke="midnightblue" points="429.8,-101.5 439.8,-98 429.8,-94.5 429.8,-101.5"/>
</g>
</g>
</svg>
