<?xml version="1.0" encoding="UTF-8" standalone="no"?>
<!DOCTYPE svg PUBLIC "-//W3C//DTD SVG 1.1//EN"
 "http://www.w3.org/Graphics/SVG/1.1/DTD/svg11.dtd">
<!-- Generated by graphviz version 2.43.0 (0)
 -->
<!-- Title: javolution.text.TextBuilder.toLargeString Pages: 1 -->
<!--zoomable 176 -->
<svg id="main" version="1.1" xmlns="http://www.w3.org/2000/svg" xmlns:xlink="http://www.w3.org/1999/xlink" xml:space="preserve" onload="init(evt)">
<style type="text/css"><![CDATA[
.edge:hover path { stroke: red; }
.edge:hover polygon { stroke: red; fill: red; }
]]></style>
<script type="text/javascript"><![CDATA[
var edges = document.getElementsByTagName('g');
if (edges && edges.length) {
  for (var i=0;i<edges.length;i++) {
    if (edges[i].id.substr(0,4)=='edge') {
      edges[i].setAttribute('class','edge');
    }
  }
}
]]></script>
        <defs>
                <circle id="rim" cx="0" cy="0" r="7"/>
                <circle id="rim2" cx="0" cy="0" r="3.5"/>
                <g id="zoomPlus">
                        <use xlink:href="#rim" fill="#404040">
                                <set attributeName="fill" to="#808080" begin="zoomplus.mouseover" end="zoomplus.mouseout"/>
                        </use>
                        <path d="M-4,0h8M0,-4v8" fill="none" stroke="white" stroke-width="1.5" pointer-events="none"/>
                </g>
                <g id="zoomMin">
                        <use xlink:href="#rim" fill="#404040">
                                <set attributeName="fill" to="#808080" begin="zoomminus.mouseover" end="zoomminus.mouseout"/>
                        </use>
                        <path d="M-4,0h8" fill="none" stroke="white" stroke-width="1.5" pointer-events="none"/>
                </g>
                <g id="dirArrow">
                        <path fill="none" stroke="white" stroke-width="1.5" d="M0,-3.0v7 M-2.5,-0.5L0,-3.0L2.5,-0.5"/>
                </g>
               <g id="resetDef">
                       <use xlink:href="#rim2" fill="#404040">
                               <set attributeName="fill" to="#808080" begin="reset.mouseover" end="reset.mouseout"/>
                       </use>
               </g>
        </defs>

<script type="text/javascript">
var viewWidth = 546;
var viewHeight = 176;
var sectionId = 'dynsection-45';
</script>
<script xlink:href="../../svgpan.js"/>
<svg id="graph" class="graph">
<g id="viewport">
<title>javolution.text.TextBuilder.toLargeString</title>
<polygon fill="white" stroke="transparent" points="-4,4 -4,-171.5 542,-171.5 542,4 -4,4"/>
<!-- Node1 -->
<g id="node1" class="node">
<title>Node1</title>
<g id="a_node1"><a xlink:title=" ">
<polygon fill="#bfbfbf" stroke="black" points="380,-63 380,-93 538,-93 538,-63 380,-63"/>
<text text-anchor="start" x="388" y="-81" font-family="Helvetica,sans-Serif" font-size="10.00">javolution.text.TextBuilder.to</text>
<text text-anchor="middle" x="459" y="-70" font-family="Helvetica,sans-Serif" font-size="10.00">LargeString</text>
</a>
</g>
</g>
<!-- Node2 -->
<g id="node2" class="node">
<title>Node2</title>
<g id="a_node2"><a xlink:href="../../d2/d7a/classjavolution_1_1text_1_1TextBuilder.html#ade7c6713517620ff61311eff9c50ec06" target="_top" xlink:title=" ">
<polygon fill="white" stroke="black" points="186,-63 186,-93 344,-93 344,-63 186,-63"/>
<text text-anchor="start" x="194" y="-81" font-family="Helvetica,sans-Serif" font-size="10.00">javolution.text.TextBuilder.to</text>
<text text-anchor="middle" x="265" y="-70" font-family="Helvetica,sans-Serif" font-size="10.00">String</text>
</a>
</g>
</g>
<!-- Node1&#45;&gt;Node2 -->
<g id="edge1" class="edge">
<title>Node1&#45;&gt;Node2</title>
<path fill="none" stroke="midnightblue" d="M369.85,-78C361.23,-78 352.53,-78 344.02,-78"/>
<polygon fill="midnightblue" stroke="midnightblue" points="369.91,-81.5 379.91,-78 369.91,-74.5 369.91,-81.5"/>
</g>
<!-- Node3 -->
<g id="node3" class="node">
<title>Node3</title>
<g id="a_node3"><a xlink:href="../../df/d0c/classjavolution_1_1io_1_1Struct_1_1UTF8String.html#a746422a2f474c589e30538cd8f3be028" target="_top" xlink:title=" ">
<polygon fill="white" stroke="black" points="6.5,-137 6.5,-167 143.5,-167 143.5,-137 6.5,-137"/>
<text text-anchor="start" x="14.5" y="-155" font-family="Helvetica,sans-Serif" font-size="10.00">javolution.io.Struct.UTF8</text>
<text text-anchor="middle" x="75" y="-144" font-family="Helvetica,sans-Serif" font-size="10.00">String.get</text>
</a>
</g>
</g>
<!-- Node2&#45;&gt;Node3 -->
<g id="edge2" class="edge">
<title>Node2&#45;&gt;Node3</title>
<path fill="none" stroke="midnightblue" d="M222.76,-97.27C201.28,-107.01 174.46,-118.7 150,-128 141.92,-131.07 133.26,-134.11 124.8,-136.94"/>
<polygon fill="midnightblue" stroke="midnightblue" points="224.28,-100.43 231.92,-93.09 221.37,-94.06 224.28,-100.43"/>
</g>
<!-- Node4 -->
<g id="node4" class="node">
<title>Node4</title>
<g id="a_node4"><a xlink:href="../../de/db4/classjavolution_1_1context_1_1internal_1_1LogContextImpl.html#aaac9e3cc3f302c980b77dcae988159f0" target="_top" xlink:title=" ">
<polygon fill="white" stroke="black" points="0.5,-88 0.5,-118 149.5,-118 149.5,-88 0.5,-88"/>
<text text-anchor="start" x="8.5" y="-106" font-family="Helvetica,sans-Serif" font-size="10.00">javolution.context.internal.</text>
<text text-anchor="middle" x="75" y="-95" font-family="Helvetica,sans-Serif" font-size="10.00">LogContextImpl.log</text>
</a>
</g>
</g>
<!-- Node2&#45;&gt;Node4 -->
<g id="edge3" class="edge">
<title>Node2&#45;&gt;Node4</title>
<path fill="none" stroke="midnightblue" d="M175.71,-89.74C166.98,-90.9 158.19,-92.07 149.63,-93.21"/>
<polygon fill="midnightblue" stroke="midnightblue" points="176.45,-93.17 185.9,-88.39 175.53,-86.23 176.45,-93.17"/>
</g>
<!-- Node5 -->
<g id="node5" class="node">
<title>Node5</title>
<g id="a_node5"><a xlink:href="../../dc/d34/classjavolution_1_1text_1_1CharSet.html#a61a8216b0001f7f590b1eedbf15b42ab" target="_top" xlink:title=" ">
<polygon fill="white" stroke="black" points="4,-39 4,-69 146,-69 146,-39 4,-39"/>
<text text-anchor="start" x="12" y="-57" font-family="Helvetica,sans-Serif" font-size="10.00">javolution.text.CharSet.to</text>
<text text-anchor="middle" x="75" y="-46" font-family="Helvetica,sans-Serif" font-size="10.00">String</text>
</a>
</g>
</g>
<!-- Node2&#45;&gt;Node5 -->
<g id="edge4" class="edge">
<title>Node2&#45;&gt;Node5</title>
<path fill="none" stroke="midnightblue" d="M175.93,-66.76C165.91,-65.48 155.79,-64.19 146.05,-62.94"/>
<polygon fill="midnightblue" stroke="midnightblue" points="175.54,-70.24 185.9,-68.03 176.43,-63.29 175.54,-70.24"/>
</g>
<!-- Node6 -->
<g id="node6" class="node">
<title>Node6</title>
<g id="a_node6"><a xlink:href="../../d7/d99/classjavolution_1_1io_1_1Struct.html#afc743402c152a89a53944da4625f45b2" target="_top" xlink:title=" ">
<polygon fill="white" stroke="black" points="0,-0.5 0,-19.5 150,-19.5 150,-0.5 0,-0.5"/>
<text text-anchor="middle" x="75" y="-7.5" font-family="Helvetica,sans-Serif" font-size="10.00">javolution.io.Struct.toString</text>
</a>
</g>
</g>
<!-- Node2&#45;&gt;Node6 -->
<g id="edge5" class="edge">
<title>Node2&#45;&gt;Node6</title>
<path fill="none" stroke="midnightblue" d="M222.12,-58.77C200.8,-49.39 174.3,-38.36 150,-30 138.8,-26.15 126.44,-22.56 115.09,-19.51"/>
<polygon fill="midnightblue" stroke="midnightblue" points="220.97,-62.09 231.53,-62.95 223.81,-55.69 220.97,-62.09"/>
</g>
</g>
</svg>
        <g id="navigator" transform="translate(0 0)" fill="#404254">
                <rect fill="#f2f5e9" fill-opacity="0.5" stroke="#606060" stroke-width=".5" x="0" y="0" width="60" height="60"/>
                <use id="zoomplus" xlink:href="#zoomPlus" x="17" y="9" onmousedown="handleZoom(evt,'in')"/>
                <use id="zoomminus" xlink:href="#zoomMin" x="42" y="9" onmousedown="handleZoom(evt,'out')"/>
                <use id="reset" xlink:href="#resetDef" x="30" y="36" onmousedown="handleReset()"/>
                <g id="arrowUp" xlink:href="#dirArrow" transform="translate(30 24)" onmousedown="handlePan(0,-1)">
                  <use xlink:href="#rim" fill="#404040">
                        <set attributeName="fill" to="#808080" begin="arrowUp.mouseover" end="arrowUp.mouseout"/>
                  </use>
                  <path fill="none" stroke="white" stroke-width="1.5" d="M0,-3.0v7 M-2.5,-0.5L0,-3.0L2.5,-0.5"/>
                </g>
                <g id="arrowRight" xlink:href="#dirArrow" transform="rotate(90) translate(36 -43)" onmousedown="handlePan(1,0)">
                  <use xlink:href="#rim" fill="#404040">
                        <set attributeName="fill" to="#808080" begin="arrowRight.mouseover" end="arrowRight.mouseout"/>
                  </use>
                  <path fill="none" stroke="white" stroke-width="1.5" d="M0,-3.0v7 M-2.5,-0.5L0,-3.0L2.5,-0.5"/>
                </g>
                <g id="arrowDown" xlink:href="#dirArrow" transform="rotate(180) translate(-30 -48)" onmousedown="handlePan(0,1)">
                  <use xlink:href="#rim" fill="#404040">
                        <set attributeName="fill" to="#808080" begin="arrowDown.mouseover" end="arrowDown.mouseout"/>
                  </use>
                  <path fill="none" stroke="white" stroke-width="1.5" d="M0,-3.0v7 M-2.5,-0.5L0,-3.0L2.5,-0.5"/>
                </g>
                <g id="arrowLeft" xlink:href="#dirArrow" transform="rotate(270) translate(-36 17)" onmousedown="handlePan(-1,0)">
                  <use xlink:href="#rim" fill="#404040">
                        <set attributeName="fill" to="#808080" begin="arrowLeft.mouseover" end="arrowLeft.mouseout"/>
                  </use>
                  <path fill="none" stroke="white" stroke-width="1.5" d="M0,-3.0v7 M-2.5,-0.5L0,-3.0L2.5,-0.5"/>
                </g>
        </g>
        <svg viewBox="0 0 15 15" width="100%" height="30px" preserveAspectRatio="xMaxYMin meet">
         <g id="arrow_out" transform="scale(0.3 0.3)">
          <a xlink:href="classjavolution_1_1text_1_1TextBuilder_a50ba5b22d004b1e9d9d0ceaa19f5c4e3_icgraph_org.svg" target="_base">
           <rect id="button" ry="5" rx="5" y="6" x="6" height="38" width="38"
                fill="#f2f5e9" fill-opacity="0.5" stroke="#606060" stroke-width="1.0"/>
           <path id="arrow"
             d="M 11.500037,31.436501 C 11.940474,20.09759 22.043105,11.32322 32.158766,21.979434 L 37.068811,17.246167 C 37.068811,17.246167 37.088388,32 37.088388,32 L 22.160133,31.978069 C 22.160133,31.978069 26.997745,27.140456 26.997745,27.140456 C 18.528582,18.264221 13.291696,25.230495 11.500037,31.436501 z"
             style="fill:#404040;"/>
          </a>
         </g>
        </svg>
</svg>
