<?xml version="1.0" encoding="UTF-8" standalone="no"?>
<!DOCTYPE svg PUBLIC "-//W3C//DTD SVG 1.1//EN"
 "http://www.w3.org/Graphics/SVG/1.1/DTD/svg11.dtd">
<!-- Generated by graphviz version 2.43.0 (0)
 -->
<!-- Title: javolution.text.TextBuilder.setCharAt Pages: 1 -->
<svg width="392pt" height="104pt"
 viewBox="0.00 0.00 392.00 104.00" xmlns="http://www.w3.org/2000/svg" xmlns:xlink="http://www.w3.org/1999/xlink">
<g id="graph0" class="graph" transform="scale(1 1) rotate(0) translate(4 100)">
<title>javolution.text.TextBuilder.setCharAt</title>
<polygon fill="white" stroke="transparent" points="-4,4 -4,-100 388,-100 388,4 -4,4"/>
<!-- Node1 -->
<g id="node1" class="node">
<title>Node1</title>
<g id="a_node1"><a xlink:title=" ">
<polygon fill="#bfbfbf" stroke="black" points="221,-33 221,-63 384,-63 384,-33 221,-33"/>
<text text-anchor="start" x="229" y="-51" font-family="Helvetica,sans-Serif" font-size="10.00">javolution.text.TextBuilder.set</text>
<text text-anchor="middle" x="302.5" y="-40" font-family="Helvetica,sans-Serif" font-size="10.00">CharAt</text>
</a>
</g>
</g>
<!-- Node2 -->
<g id="node2" class="node">
<title>Node2</title>
<g id="a_node2"><a xlink:href="../../d2/d7a/classjavolution_1_1text_1_1TextBuilder.html#ac032127079d72ebc460fd3b04d41ef2a" target="_top" xlink:title=" ">
<polygon fill="white" stroke="black" points="3,-76.5 3,-95.5 182,-95.5 182,-76.5 3,-76.5"/>
<text text-anchor="middle" x="92.5" y="-83.5" font-family="Helvetica,sans-Serif" font-size="10.00">javolution.text.TextBuilder.delete</text>
</a>
</g>
</g>
<!-- Node1&#45;&gt;Node2 -->
<g id="edge1" class="edge">
<title>Node1&#45;&gt;Node2</title>
<path fill="none" stroke="midnightblue" d="M210.94,-64.54C188.62,-68.62 165.45,-72.85 145.66,-76.47"/>
<polygon fill="midnightblue" stroke="midnightblue" points="211.58,-67.99 220.78,-62.75 210.32,-61.1 211.58,-67.99"/>
</g>
<!-- Node3 -->
<g id="node3" class="node">
<title>Node3</title>
<g id="a_node3"><a xlink:href="../../d2/d7a/classjavolution_1_1text_1_1TextBuilder.html#a124bb4142dd6872e83397000132b8726" target="_top" xlink:title=" ">
<polygon fill="white" stroke="black" points="4.5,-38.5 4.5,-57.5 180.5,-57.5 180.5,-38.5 4.5,-38.5"/>
<text text-anchor="middle" x="92.5" y="-45.5" font-family="Helvetica,sans-Serif" font-size="10.00">javolution.text.TextBuilder.insert</text>
</a>
</g>
</g>
<!-- Node1&#45;&gt;Node3 -->
<g id="edge2" class="edge">
<title>Node1&#45;&gt;Node3</title>
<path fill="none" stroke="midnightblue" d="M210.54,-48C200.64,-48 190.57,-48 180.72,-48"/>
<polygon fill="midnightblue" stroke="midnightblue" points="210.78,-51.5 220.78,-48 210.78,-44.5 210.78,-51.5"/>
</g>
<!-- Node4 -->
<g id="node4" class="node">
<title>Node4</title>
<g id="a_node4"><a xlink:href="../../d2/d7a/classjavolution_1_1text_1_1TextBuilder.html#a89d6684e1eb0fb36741cda669bdb85fd" target="_top" xlink:title=" ">
<polygon fill="white" stroke="black" points="0,-0.5 0,-19.5 185,-19.5 185,-0.5 0,-0.5"/>
<text text-anchor="middle" x="92.5" y="-7.5" font-family="Helvetica,sans-Serif" font-size="10.00">javolution.text.TextBuilder.reverse</text>
</a>
</g>
</g>
<!-- Node1&#45;&gt;Node4 -->
<g id="edge3" class="edge">
<title>Node1&#45;&gt;Node4</title>
<path fill="none" stroke="midnightblue" d="M210.94,-31.46C188.62,-27.38 165.45,-23.15 145.66,-19.53"/>
<polygon fill="midnightblue" stroke="midnightblue" points="210.32,-34.9 220.78,-33.25 211.58,-28.01 210.32,-34.9"/>
</g>
</g>
</svg>
