<?xml version="1.0" encoding="UTF-8" standalone="no"?>
<!DOCTYPE svg PUBLIC "-//W3C//DTD SVG 1.1//EN"
 "http://www.w3.org/Graphics/SVG/1.1/DTD/svg11.dtd">
<!-- Generated by graphviz version 2.43.0 (0)
 -->
<!-- Title: javolution.text.TextBuilder.append Pages: 1 -->
<svg width="1215pt" height="269pt"
 viewBox="0.00 0.00 1215.00 269.34" xmlns="http://www.w3.org/2000/svg" xmlns:xlink="http://www.w3.org/1999/xlink">
<g id="graph0" class="graph" transform="scale(1 1) rotate(0) translate(4 265.34)">
<title>javolution.text.TextBuilder.append</title>
<polygon fill="white" stroke="transparent" points="-4,4 -4,-265.34 1211,-265.34 1211,4 -4,4"/>
<!-- Node1 -->
<g id="node1" class="node">
<title>Node1</title>
<g id="a_node1"><a xlink:title=" ">
<polygon fill="#bfbfbf" stroke="black" points="0,-113.34 0,-132.34 184,-132.34 184,-113.34 0,-113.34"/>
<text text-anchor="middle" x="92" y="-120.34" font-family="Helvetica,sans-Serif" font-size="10.00">javolution.text.TextBuilder.append</text>
</a>
</g>
</g>
<!-- Node2 -->
<g id="node2" class="node">
<title>Node2</title>
<g id="a_node2"><a xlink:href="../../d2/d7a/classjavolution_1_1text_1_1TextBuilder.html#a5b6d5e22b7b33b3188569bbaf6112c95" target="_top" xlink:title=" ">
<polygon fill="white" stroke="black" points="440,-236.34 440,-255.34 624,-255.34 624,-236.34 440,-236.34"/>
<text text-anchor="middle" x="532" y="-243.34" font-family="Helvetica,sans-Serif" font-size="10.00">javolution.text.TextBuilder.append</text>
</a>
</g>
</g>
<!-- Node1&#45;&gt;Node2 -->
<g id="edge1" class="edge">
<title>Node1&#45;&gt;Node2</title>
<path fill="none" stroke="midnightblue" d="M103.19,-132.48C123.54,-151.08 171.44,-191.67 220,-209.84 287.03,-234.91 367.38,-243.72 429.62,-246.35"/>
<polygon fill="midnightblue" stroke="midnightblue" points="429.71,-249.86 439.84,-246.74 429.98,-242.86 429.71,-249.86"/>
</g>
<!-- Node4 -->
<g id="node4" class="node">
<title>Node4</title>
<g id="a_node4"><a xlink:href="../../d2/d7a/classjavolution_1_1text_1_1TextBuilder.html#a5d04778f6b333582abb2f369a95eb5b5" target="_top" xlink:title=" ">
<polygon fill="white" stroke="black" points="220,-169.84 220,-199.84 404,-199.84 404,-169.84 220,-169.84"/>
<text text-anchor="start" x="228" y="-187.84" font-family="Helvetica,sans-Serif" font-size="10.00">javolution.text.TextBuilder.append</text>
<text text-anchor="middle" x="312" y="-176.84" font-family="Helvetica,sans-Serif" font-size="10.00">Fraction</text>
</a>
</g>
</g>
<!-- Node1&#45;&gt;Node4 -->
<g id="edge3" class="edge">
<title>Node1&#45;&gt;Node4</title>
<path fill="none" stroke="midnightblue" d="M126.58,-132.39C158.85,-141.56 208.39,-155.66 248.01,-166.92"/>
<polygon fill="midnightblue" stroke="midnightblue" points="247.27,-170.35 257.85,-169.72 249.19,-163.62 247.27,-170.35"/>
</g>
<!-- Node7 -->
<g id="node7" class="node">
<title>Node7</title>
<g id="a_node7"><a xlink:href="../../d4/d14/classjavolution_1_1lang_1_1MathLib.html#a25a26d976529724d834c2f68b3b8ca7c" target="_top" xlink:title=" ">
<polygon fill="white" stroke="black" points="234,-107.84 234,-137.84 390,-137.84 390,-107.84 234,-107.84"/>
<text text-anchor="start" x="242" y="-125.84" font-family="Helvetica,sans-Serif" font-size="10.00">javolution.lang.MathLib.floor</text>
<text text-anchor="middle" x="312" y="-114.84" font-family="Helvetica,sans-Serif" font-size="10.00">Log10</text>
</a>
</g>
</g>
<!-- Node1&#45;&gt;Node7 -->
<g id="edge7" class="edge">
<title>Node1&#45;&gt;Node7</title>
<path fill="none" stroke="midnightblue" d="M184.19,-122.84C197.26,-122.84 210.69,-122.84 223.68,-122.84"/>
<polygon fill="midnightblue" stroke="midnightblue" points="224,-126.34 234,-122.84 224,-119.34 224,-126.34"/>
</g>
<!-- Node11 -->
<g id="node11" class="node">
<title>Node11</title>
<g id="a_node11"><a xlink:href="../../d4/d14/classjavolution_1_1lang_1_1MathLib.html#a5f4e3f66673eead84cc1e6d0b17354b4" target="_top" xlink:title=" ">
<polygon fill="white" stroke="black" points="460,-18.84 460,-48.84 604,-48.84 604,-18.84 460,-18.84"/>
<text text-anchor="start" x="468" y="-36.84" font-family="Helvetica,sans-Serif" font-size="10.00">javolution.lang.MathLib.to</text>
<text text-anchor="middle" x="532" y="-25.84" font-family="Helvetica,sans-Serif" font-size="10.00">DoublePow10</text>
</a>
</g>
</g>
<!-- Node1&#45;&gt;Node11 -->
<g id="edge16" class="edge">
<title>Node1&#45;&gt;Node11</title>
<path fill="none" stroke="midnightblue" d="M109.19,-113.32C132.71,-100 178.11,-76.15 220,-64.84 296.04,-44.29 385.85,-37.08 449.36,-34.69"/>
<polygon fill="midnightblue" stroke="midnightblue" points="449.84,-38.17 459.71,-34.33 449.6,-31.18 449.84,-38.17"/>
</g>
<!-- Node14 -->
<g id="node14" class="node">
<title>Node14</title>
<g id="a_node14"><a xlink:href="../../d4/d14/classjavolution_1_1lang_1_1MathLib.html#a4bc8f6ec5d471684af845ffe288c4389" target="_top" xlink:title=" ">
<polygon fill="white" stroke="black" points="682.5,-65.84 682.5,-95.84 826.5,-95.84 826.5,-65.84 682.5,-65.84"/>
<text text-anchor="start" x="690.5" y="-83.84" font-family="Helvetica,sans-Serif" font-size="10.00">javolution.lang.MathLib.to</text>
<text text-anchor="middle" x="754.5" y="-72.84" font-family="Helvetica,sans-Serif" font-size="10.00">LongPow10</text>
</a>
</g>
</g>
<!-- Node1&#45;&gt;Node14 -->
<g id="edge17" class="edge">
<title>Node1&#45;&gt;Node14</title>
<path fill="none" stroke="midnightblue" d="M134.51,-113.33C159.21,-108.09 191.23,-102.02 220,-98.84 379.57,-81.17 567.47,-79.17 672.3,-79.73"/>
<polygon fill="midnightblue" stroke="midnightblue" points="672.47,-83.23 682.49,-79.79 672.51,-76.23 672.47,-83.23"/>
</g>
<!-- Node3 -->
<g id="node3" class="node">
<title>Node3</title>
<g id="a_node3"><a xlink:href="../../d2/d7a/classjavolution_1_1text_1_1TextBuilder.html#a6d79c3b6adfe6c04f80f940904d181b4" target="_top" xlink:title=" ">
<polygon fill="white" stroke="black" points="660,-230.84 660,-260.84 849,-260.84 849,-230.84 660,-230.84"/>
<text text-anchor="start" x="668" y="-248.84" font-family="Helvetica,sans-Serif" font-size="10.00">javolution.text.TextBuilder.increase</text>
<text text-anchor="middle" x="754.5" y="-237.84" font-family="Helvetica,sans-Serif" font-size="10.00">Capacity</text>
</a>
</g>
</g>
<!-- Node2&#45;&gt;Node3 -->
<g id="edge2" class="edge">
<title>Node2&#45;&gt;Node3</title>
<path fill="none" stroke="midnightblue" d="M624.28,-245.84C632.62,-245.84 641.1,-245.84 649.54,-245.84"/>
<polygon fill="midnightblue" stroke="midnightblue" points="649.8,-249.34 659.8,-245.84 649.8,-242.34 649.8,-249.34"/>
</g>
<!-- Node4&#45;&gt;Node2 -->
<g id="edge4" class="edge">
<title>Node4&#45;&gt;Node2</title>
<path fill="none" stroke="midnightblue" d="M354.4,-199.85C379.05,-208.46 411.07,-219.06 440,-226.84 449.7,-229.45 460.07,-231.91 470.2,-234.14"/>
<polygon fill="midnightblue" stroke="midnightblue" points="469.71,-237.62 480.22,-236.3 471.18,-230.77 469.71,-237.62"/>
</g>
<!-- Node5 -->
<g id="node5" class="node">
<title>Node5</title>
<g id="a_node5"><a xlink:href="../../d4/d14/classjavolution_1_1lang_1_1MathLib.html#a4ffe33bc15c984923021c4c3f63eb3bc" target="_top" xlink:title=" ">
<polygon fill="white" stroke="black" points="454,-186.84 454,-216.84 610,-216.84 610,-186.84 454,-186.84"/>
<text text-anchor="start" x="462" y="-204.84" font-family="Helvetica,sans-Serif" font-size="10.00">javolution.lang.MathLib.digit</text>
<text text-anchor="middle" x="532" y="-193.84" font-family="Helvetica,sans-Serif" font-size="10.00">Length</text>
</a>
</g>
</g>
<!-- Node4&#45;&gt;Node5 -->
<g id="edge5" class="edge">
<title>Node4&#45;&gt;Node5</title>
<path fill="none" stroke="midnightblue" d="M404.19,-191.95C417.26,-192.97 430.69,-194.02 443.68,-195.03"/>
<polygon fill="midnightblue" stroke="midnightblue" points="443.76,-198.55 454,-195.83 444.3,-191.57 443.76,-198.55"/>
</g>
<!-- Node6 -->
<g id="node6" class="node">
<title>Node6</title>
<g id="a_node6"><a xlink:href="../../d2/d7a/classjavolution_1_1text_1_1TextBuilder.html#a23b59400283fe96ea47f786a896da5b1" target="_top" xlink:title=" ">
<polygon fill="white" stroke="black" points="442.5,-148.34 442.5,-167.34 621.5,-167.34 621.5,-148.34 442.5,-148.34"/>
<text text-anchor="middle" x="532" y="-155.34" font-family="Helvetica,sans-Serif" font-size="10.00">javolution.text.TextBuilder.length</text>
</a>
</g>
</g>
<!-- Node4&#45;&gt;Node6 -->
<g id="edge6" class="edge">
<title>Node4&#45;&gt;Node6</title>
<path fill="none" stroke="midnightblue" d="M404.19,-173.54C417.39,-171.91 430.95,-170.23 444.07,-168.6"/>
<polygon fill="midnightblue" stroke="midnightblue" points="444.5,-172.08 454,-167.38 443.64,-165.13 444.5,-172.08"/>
</g>
<!-- Node8 -->
<g id="node8" class="node">
<title>Node8</title>
<g id="a_node8"><a xlink:href="../../d4/d14/classjavolution_1_1lang_1_1MathLib.html#adaaa25f307e0306962af24967fe07408" target="_top" xlink:title=" ">
<polygon fill="white" stroke="black" points="665,-115.34 665,-134.34 844,-134.34 844,-115.34 665,-115.34"/>
<text text-anchor="middle" x="754.5" y="-122.34" font-family="Helvetica,sans-Serif" font-size="10.00">javolution.lang.MathLib.floorLog2</text>
</a>
</g>
</g>
<!-- Node7&#45;&gt;Node8 -->
<g id="edge8" class="edge">
<title>Node7&#45;&gt;Node8</title>
<path fill="none" stroke="midnightblue" d="M390.23,-123.19C463.82,-123.52 574.94,-124.03 654.9,-124.39"/>
<polygon fill="midnightblue" stroke="midnightblue" points="654.96,-127.89 664.98,-124.44 655,-120.89 654.96,-127.89"/>
</g>
<!-- Node7&#45;&gt;Node11 -->
<g id="edge11" class="edge">
<title>Node7&#45;&gt;Node11</title>
<path fill="none" stroke="midnightblue" d="M349.98,-107.74C387.21,-92.54 444.71,-69.06 484.89,-52.66"/>
<polygon fill="midnightblue" stroke="midnightblue" points="486.27,-55.88 494.2,-48.86 483.62,-49.4 486.27,-55.88"/>
</g>
<!-- Node9 -->
<g id="node9" class="node">
<title>Node9</title>
<g id="a_node9"><a xlink:href="../../d4/d14/classjavolution_1_1lang_1_1MathLib.html#a8e7d997979031d789ff07ff1b015537b" target="_top" xlink:title=" ">
<polygon fill="white" stroke="black" points="885,-71.34 885,-90.34 1037,-90.34 1037,-71.34 885,-71.34"/>
<text text-anchor="middle" x="961" y="-78.34" font-family="Helvetica,sans-Serif" font-size="10.00">javolution.lang.MathLib.exp</text>
</a>
</g>
</g>
<!-- Node8&#45;&gt;Node9 -->
<g id="edge9" class="edge">
<title>Node8&#45;&gt;Node9</title>
<path fill="none" stroke="midnightblue" d="M803.59,-115.27C818.19,-112.31 834.26,-109 849,-105.84 868.57,-101.65 890.03,-96.86 908.82,-92.6"/>
<polygon fill="midnightblue" stroke="midnightblue" points="909.69,-95.99 918.67,-90.36 908.14,-89.17 909.69,-95.99"/>
</g>
<!-- Node10 -->
<g id="node10" class="node">
<title>Node10</title>
<g id="a_node10"><a xlink:href="../../d4/d14/classjavolution_1_1lang_1_1MathLib.html#a6c237605180b786b4eddbeb45925ccff" target="_top" xlink:title=" ">
<polygon fill="white" stroke="black" points="1073,-65.84 1073,-95.84 1207,-95.84 1207,-65.84 1073,-65.84"/>
<text text-anchor="start" x="1081" y="-83.84" font-family="Helvetica,sans-Serif" font-size="10.00">javolution.lang.MathLib.</text>
<text text-anchor="middle" x="1140" y="-72.84" font-family="Helvetica,sans-Serif" font-size="10.00">_ieee754_exp</text>
</a>
</g>
</g>
<!-- Node9&#45;&gt;Node10 -->
<g id="edge10" class="edge">
<title>Node9&#45;&gt;Node10</title>
<path fill="none" stroke="midnightblue" d="M1037.06,-80.84C1045.5,-80.84 1054.11,-80.84 1062.57,-80.84"/>
<polygon fill="midnightblue" stroke="midnightblue" points="1062.79,-84.34 1072.79,-80.84 1062.79,-77.34 1062.79,-84.34"/>
</g>
<!-- Node12 -->
<g id="node12" class="node">
<title>Node12</title>
<g id="a_node12"><a xlink:href="../../d4/d14/classjavolution_1_1lang_1_1MathLib.html#a0ec25ae04f72c11735c2ba9384e87274" target="_top" xlink:title=" ">
<polygon fill="white" stroke="black" points="887.5,-16.84 887.5,-46.84 1034.5,-46.84 1034.5,-16.84 887.5,-16.84"/>
<text text-anchor="start" x="895.5" y="-34.84" font-family="Helvetica,sans-Serif" font-size="10.00">javolution.lang.MathLib.bit</text>
<text text-anchor="middle" x="961" y="-23.84" font-family="Helvetica,sans-Serif" font-size="10.00">Length</text>
</a>
</g>
</g>
<!-- Node11&#45;&gt;Node12 -->
<g id="edge12" class="edge">
<title>Node11&#45;&gt;Node12</title>
<path fill="none" stroke="midnightblue" d="M591.07,-18.82C612.57,-13.97 637.25,-9.23 660,-6.84 743.54,1.94 765.51,2.45 849,-6.84 863.83,-8.49 879.58,-11.34 894.41,-14.55"/>
<polygon fill="midnightblue" stroke="midnightblue" points="893.99,-18.04 904.51,-16.81 895.52,-11.21 893.99,-18.04"/>
</g>
<!-- Node13 -->
<g id="node13" class="node">
<title>Node13</title>
<g id="a_node13"><a xlink:href="../../d4/d14/classjavolution_1_1lang_1_1MathLib.html#a0c8756381acc8208279b93aae059d01f" target="_top" xlink:title=" ">
<polygon fill="white" stroke="black" points="682.5,-16.84 682.5,-46.84 826.5,-46.84 826.5,-16.84 682.5,-16.84"/>
<text text-anchor="start" x="690.5" y="-34.84" font-family="Helvetica,sans-Serif" font-size="10.00">javolution.lang.MathLib.to</text>
<text text-anchor="middle" x="754.5" y="-23.84" font-family="Helvetica,sans-Serif" font-size="10.00">DoublePow2</text>
</a>
</g>
</g>
<!-- Node11&#45;&gt;Node13 -->
<g id="edge13" class="edge">
<title>Node11&#45;&gt;Node13</title>
<path fill="none" stroke="midnightblue" d="M604.29,-33.19C626,-32.99 650.03,-32.78 672.34,-32.57"/>
<polygon fill="midnightblue" stroke="midnightblue" points="672.49,-36.07 682.46,-32.48 672.43,-29.07 672.49,-36.07"/>
</g>
<!-- Node13&#45;&gt;Node9 -->
<g id="edge15" class="edge">
<title>Node13&#45;&gt;Node9</title>
<path fill="none" stroke="midnightblue" d="M818.25,-46.87C847.84,-53.96 882.65,-62.3 910.37,-68.95"/>
<polygon fill="midnightblue" stroke="midnightblue" points="909.7,-72.38 920.24,-71.31 911.33,-65.58 909.7,-72.38"/>
</g>
<!-- Node13&#45;&gt;Node12 -->
<g id="edge14" class="edge">
<title>Node13&#45;&gt;Node12</title>
<path fill="none" stroke="midnightblue" d="M826.74,-31.84C842.97,-31.84 860.34,-31.84 877.01,-31.84"/>
<polygon fill="midnightblue" stroke="midnightblue" points="877.29,-35.34 887.29,-31.84 877.29,-28.34 877.29,-35.34"/>
</g>
<!-- Node14&#45;&gt;Node9 -->
<g id="edge19" class="edge">
<title>Node14&#45;&gt;Node9</title>
<path fill="none" stroke="midnightblue" d="M826.74,-80.84C842.15,-80.84 858.6,-80.84 874.5,-80.84"/>
<polygon fill="midnightblue" stroke="midnightblue" points="874.85,-84.34 884.85,-80.84 874.85,-77.34 874.85,-84.34"/>
</g>
<!-- Node14&#45;&gt;Node12 -->
<g id="edge18" class="edge">
<title>Node14&#45;&gt;Node12</title>
<path fill="none" stroke="midnightblue" d="M818.25,-65.8C840.13,-60.56 864.87,-54.63 887.49,-49.21"/>
<polygon fill="midnightblue" stroke="midnightblue" points="888.46,-52.58 897.37,-46.84 886.83,-45.77 888.46,-52.58"/>
</g>
</g>
</svg>
