<?xml version="1.0" encoding="UTF-8" standalone="no"?>
<!DOCTYPE svg PUBLIC "-//W3C//DTD SVG 1.1//EN"
 "http://www.w3.org/Graphics/SVG/1.1/DTD/svg11.dtd">
<!-- Generated by graphviz version 2.43.0 (0)
 -->
<!-- Title: javolution.util.internal.bitset.BitSetServiceImpl.add Pages: 1 -->
<svg width="748pt" height="88pt"
 viewBox="0.00 0.00 748.00 88.00" xmlns="http://www.w3.org/2000/svg" xmlns:xlink="http://www.w3.org/1999/xlink">
<g id="graph0" class="graph" transform="scale(1 1) rotate(0) translate(4 84)">
<title>javolution.util.internal.bitset.BitSetServiceImpl.add</title>
<polygon fill="white" stroke="transparent" points="-4,4 -4,-84 744,-84 744,4 -4,4"/>
<!-- Node1 -->
<g id="node1" class="node">
<title>Node1</title>
<g id="a_node1"><a xlink:title=" ">
<polygon fill="#bfbfbf" stroke="black" points="0,-24.5 0,-54.5 158,-54.5 158,-24.5 0,-24.5"/>
<text text-anchor="start" x="8" y="-42.5" font-family="Helvetica,sans-Serif" font-size="10.00">javolution.util.internal.bitset.</text>
<text text-anchor="middle" x="79" y="-31.5" font-family="Helvetica,sans-Serif" font-size="10.00">BitSetServiceImpl.add</text>
</a>
</g>
</g>
<!-- Node2 -->
<g id="node2" class="node">
<title>Node2</title>
<g id="a_node2"><a xlink:href="../../d9/da2/classjavolution_1_1util_1_1internal_1_1bitset_1_1BitSetServiceImpl.html#a5ee3fafe942abb817bac0e3e07ceb794" target="_top" xlink:title=" ">
<polygon fill="white" stroke="black" points="194,-49.5 194,-79.5 352,-79.5 352,-49.5 194,-49.5"/>
<text text-anchor="start" x="202" y="-67.5" font-family="Helvetica,sans-Serif" font-size="10.00">javolution.util.internal.bitset.</text>
<text text-anchor="middle" x="273" y="-56.5" font-family="Helvetica,sans-Serif" font-size="10.00">BitSetServiceImpl.getAndSet</text>
</a>
</g>
</g>
<!-- Node1&#45;&gt;Node2 -->
<g id="edge1" class="edge">
<title>Node1&#45;&gt;Node2</title>
<path fill="none" stroke="midnightblue" d="M158.09,-49.67C166.6,-50.78 175.3,-51.91 183.92,-53.03"/>
<polygon fill="midnightblue" stroke="midnightblue" points="183.61,-56.52 193.98,-54.34 184.51,-49.58 183.61,-56.52"/>
</g>
<!-- Node5 -->
<g id="node5" class="node">
<title>Node5</title>
<g id="a_node5"><a xlink:href="../../d4/d60/classjavolution_1_1util_1_1Index.html#a48624dd7577591ebd6fe94b9eb5e7774" target="_top" xlink:title=" ">
<polygon fill="white" stroke="black" points="208,-0.5 208,-30.5 338,-30.5 338,-0.5 208,-0.5"/>
<text text-anchor="start" x="216" y="-18.5" font-family="Helvetica,sans-Serif" font-size="10.00">javolution.util.Index.int</text>
<text text-anchor="middle" x="273" y="-7.5" font-family="Helvetica,sans-Serif" font-size="10.00">Value</text>
</a>
</g>
</g>
<!-- Node1&#45;&gt;Node5 -->
<g id="edge5" class="edge">
<title>Node1&#45;&gt;Node5</title>
<path fill="none" stroke="midnightblue" d="M158.09,-29.74C171.12,-28.11 184.6,-26.42 197.53,-24.81"/>
<polygon fill="midnightblue" stroke="midnightblue" points="198.28,-28.24 207.77,-23.53 197.41,-21.3 198.28,-28.24"/>
</g>
<!-- Node3 -->
<g id="node3" class="node">
<title>Node3</title>
<g id="a_node3"><a xlink:href="../../d9/da2/classjavolution_1_1util_1_1internal_1_1bitset_1_1BitSetServiceImpl.html#abc6ab27b0880f262943d15d5ee20aa2b" target="_top" xlink:title=" ">
<polygon fill="white" stroke="black" points="582,-49.5 582,-79.5 740,-79.5 740,-49.5 582,-49.5"/>
<text text-anchor="start" x="590" y="-67.5" font-family="Helvetica,sans-Serif" font-size="10.00">javolution.util.internal.bitset.</text>
<text text-anchor="middle" x="661" y="-56.5" font-family="Helvetica,sans-Serif" font-size="10.00">BitSetServiceImpl.setLength</text>
</a>
</g>
</g>
<!-- Node2&#45;&gt;Node3 -->
<g id="edge2" class="edge">
<title>Node2&#45;&gt;Node3</title>
<path fill="none" stroke="midnightblue" d="M352.19,-66.05C364.18,-66.24 376.42,-66.4 388,-66.5 458.22,-67.12 475.78,-67.12 546,-66.5 554.32,-66.43 562.99,-66.32 571.66,-66.2"/>
<polygon fill="midnightblue" stroke="midnightblue" points="571.87,-69.7 581.81,-66.05 571.76,-62.7 571.87,-69.7"/>
</g>
<!-- Node4 -->
<g id="node4" class="node">
<title>Node4</title>
<g id="a_node4"><a xlink:href="../../d9/da2/classjavolution_1_1util_1_1internal_1_1bitset_1_1BitSetServiceImpl.html#a5b767257d537a4ecd9a6cc62fd58b632" target="_top" xlink:title=" ">
<polygon fill="white" stroke="black" points="388,-27.5 388,-57.5 546,-57.5 546,-27.5 388,-27.5"/>
<text text-anchor="start" x="396" y="-45.5" font-family="Helvetica,sans-Serif" font-size="10.00">javolution.util.internal.bitset.</text>
<text text-anchor="middle" x="467" y="-34.5" font-family="Helvetica,sans-Serif" font-size="10.00">BitSetServiceImpl.trim</text>
</a>
</g>
</g>
<!-- Node2&#45;&gt;Node4 -->
<g id="edge3" class="edge">
<title>Node2&#45;&gt;Node4</title>
<path fill="none" stroke="midnightblue" d="M352.09,-55.55C360.6,-54.58 369.3,-53.58 377.92,-52.59"/>
<polygon fill="midnightblue" stroke="midnightblue" points="378.44,-56.06 387.98,-51.44 377.64,-49.1 378.44,-56.06"/>
</g>
<!-- Node4&#45;&gt;Node3 -->
<g id="edge4" class="edge">
<title>Node4&#45;&gt;Node3</title>
<path fill="none" stroke="midnightblue" d="M546.09,-51.45C554.6,-52.42 563.3,-53.42 571.92,-54.41"/>
<polygon fill="midnightblue" stroke="midnightblue" points="571.64,-57.9 581.98,-55.56 572.44,-50.94 571.64,-57.9"/>
</g>
</g>
</svg>
