<?xml version="1.0" encoding="UTF-8" standalone="no"?>
<!DOCTYPE svg PUBLIC "-//W3C//DTD SVG 1.1//EN"
 "http://www.w3.org/Graphics/SVG/1.1/DTD/svg11.dtd">
<!-- Generated by graphviz version 2.43.0 (0)
 -->
<!-- Title: javolution.util.internal.bitset.BitSetServiceImpl.get Pages: 1 -->
<svg width="604pt" height="176pt"
 viewBox="0.00 0.00 604.00 175.50" xmlns="http://www.w3.org/2000/svg" xmlns:xlink="http://www.w3.org/1999/xlink">
<g id="graph0" class="graph" transform="scale(1 1) rotate(0) translate(4 171.5)">
<title>javolution.util.internal.bitset.BitSetServiceImpl.get</title>
<polygon fill="white" stroke="transparent" points="-4,4 -4,-171.5 600,-171.5 600,4 -4,4"/>
<!-- Node1 -->
<g id="node1" class="node">
<title>Node1</title>
<g id="a_node1"><a xlink:title=" ">
<polygon fill="#bfbfbf" stroke="black" points="0,-63 0,-93 158,-93 158,-63 0,-63"/>
<text text-anchor="start" x="8" y="-81" font-family="Helvetica,sans-Serif" font-size="10.00">javolution.util.internal.bitset.</text>
<text text-anchor="middle" x="79" y="-70" font-family="Helvetica,sans-Serif" font-size="10.00">BitSetServiceImpl.get</text>
</a>
</g>
</g>
<!-- Node2 -->
<g id="node2" class="node">
<title>Node2</title>
<g id="a_node2"><a xlink:href="../../d9/da2/classjavolution_1_1util_1_1internal_1_1bitset_1_1BitSetServiceImpl.html#adeb52321e65ba4777bf415220d15b9b5" target="_top" xlink:title=" ">
<polygon fill="white" stroke="black" points="194,-137 194,-167 388,-167 388,-137 194,-137"/>
<text text-anchor="start" x="202" y="-155" font-family="Helvetica,sans-Serif" font-size="10.00">javolution.util.internal.bitset.</text>
<text text-anchor="middle" x="291" y="-144" font-family="Helvetica,sans-Serif" font-size="10.00">BitSetServiceImpl.BitSetServiceImpl</text>
</a>
</g>
</g>
<!-- Node1&#45;&gt;Node2 -->
<g id="edge1" class="edge">
<title>Node1&#45;&gt;Node2</title>
<path fill="none" stroke="midnightblue" d="M110.41,-93.01C133.06,-103.78 164.96,-118.08 194,-128 200.39,-130.18 207.08,-132.26 213.83,-134.22"/>
<polygon fill="midnightblue" stroke="midnightblue" points="213.16,-137.66 223.73,-136.99 215.04,-130.92 213.16,-137.66"/>
</g>
<!-- Node3 -->
<g id="node3" class="node">
<title>Node3</title>
<g id="a_node3"><a xlink:href="../../d9/da2/classjavolution_1_1util_1_1internal_1_1bitset_1_1BitSetServiceImpl.html#a7ba59e7f93c0df8b7e89063137914c57" target="_top" xlink:title=" ">
<polygon fill="white" stroke="black" points="212,-88 212,-118 370,-118 370,-88 212,-88"/>
<text text-anchor="start" x="220" y="-106" font-family="Helvetica,sans-Serif" font-size="10.00">javolution.util.internal.bitset.</text>
<text text-anchor="middle" x="291" y="-95" font-family="Helvetica,sans-Serif" font-size="10.00">BitSetServiceImpl.clear</text>
</a>
</g>
</g>
<!-- Node1&#45;&gt;Node3 -->
<g id="edge2" class="edge">
<title>Node1&#45;&gt;Node3</title>
<path fill="none" stroke="midnightblue" d="M158.2,-87.31C172.41,-89 187.32,-90.78 201.8,-92.5"/>
<polygon fill="midnightblue" stroke="midnightblue" points="201.39,-95.98 211.74,-93.68 202.22,-89.03 201.39,-95.98"/>
</g>
<!-- Node4 -->
<g id="node4" class="node">
<title>Node4</title>
<g id="a_node4"><a xlink:href="../../d9/da2/classjavolution_1_1util_1_1internal_1_1bitset_1_1BitSetServiceImpl.html#a9cf112c20a255fef2015d22953ed8e63" target="_top" xlink:title=" ">
<polygon fill="white" stroke="black" points="212,-39 212,-69 370,-69 370,-39 212,-39"/>
<text text-anchor="start" x="220" y="-57" font-family="Helvetica,sans-Serif" font-size="10.00">javolution.util.internal.bitset.</text>
<text text-anchor="middle" x="291" y="-46" font-family="Helvetica,sans-Serif" font-size="10.00">BitSetServiceImpl.length</text>
</a>
</g>
</g>
<!-- Node1&#45;&gt;Node4 -->
<g id="edge3" class="edge">
<title>Node1&#45;&gt;Node4</title>
<path fill="none" stroke="midnightblue" d="M158.2,-69.06C172.41,-67.44 187.32,-65.73 201.8,-64.08"/>
<polygon fill="midnightblue" stroke="midnightblue" points="202.2,-67.56 211.74,-62.94 201.41,-60.6 202.2,-67.56"/>
</g>
<!-- Node6 -->
<g id="node6" class="node">
<title>Node6</title>
<g id="a_node6"><a xlink:href="../../d4/d14/classjavolution_1_1lang_1_1MathLib.html#a61d82d4ab96ea86fb7868daf1c203048" target="_top" xlink:title=" ">
<polygon fill="white" stroke="black" points="214.5,-0.5 214.5,-19.5 367.5,-19.5 367.5,-0.5 214.5,-0.5"/>
<text text-anchor="middle" x="291" y="-7.5" font-family="Helvetica,sans-Serif" font-size="10.00">javolution.lang.MathLib.min</text>
</a>
</g>
</g>
<!-- Node1&#45;&gt;Node6 -->
<g id="edge5" class="edge">
<title>Node1&#45;&gt;Node6</title>
<path fill="none" stroke="midnightblue" d="M111.33,-62.87C133.89,-52.46 165.3,-38.94 194,-30 203.98,-26.89 214.69,-24.12 225.21,-21.71"/>
<polygon fill="midnightblue" stroke="midnightblue" points="226.2,-25.08 235.21,-19.51 224.69,-18.24 226.2,-25.08"/>
</g>
<!-- Node5 -->
<g id="node5" class="node">
<title>Node5</title>
<g id="a_node5"><a xlink:href="../../d4/d14/classjavolution_1_1lang_1_1MathLib.html#a0a0cd84811a065eeca071c2a8392d99c" target="_top" xlink:title=" ">
<polygon fill="white" stroke="black" points="424,-39 424,-69 596,-69 596,-39 424,-39"/>
<text text-anchor="start" x="432" y="-57" font-family="Helvetica,sans-Serif" font-size="10.00">javolution.lang.MathLib.number</text>
<text text-anchor="middle" x="510" y="-46" font-family="Helvetica,sans-Serif" font-size="10.00">OfLeadingZeros</text>
</a>
</g>
</g>
<!-- Node4&#45;&gt;Node5 -->
<g id="edge4" class="edge">
<title>Node4&#45;&gt;Node5</title>
<path fill="none" stroke="midnightblue" d="M370.04,-54C384.25,-54 399.23,-54 413.87,-54"/>
<polygon fill="midnightblue" stroke="midnightblue" points="413.95,-57.5 423.95,-54 413.95,-50.5 413.95,-57.5"/>
</g>
</g>
</svg>
