<?xml version="1.0" encoding="UTF-8" standalone="no"?>
<!DOCTYPE svg PUBLIC "-//W3C//DTD SVG 1.1//EN"
 "http://www.w3.org/Graphics/SVG/1.1/DTD/svg11.dtd">
<!-- Generated by graphviz version 2.43.0 (0)
 -->
<!-- Title: javolution.util.internal.bitset.BitSetServiceImpl.intersects Pages: 1 -->
<svg width="355pt" height="78pt"
 viewBox="0.00 0.00 355.00 77.50" xmlns="http://www.w3.org/2000/svg" xmlns:xlink="http://www.w3.org/1999/xlink">
<g id="graph0" class="graph" transform="scale(1 1) rotate(0) translate(4 73.5)">
<title>javolution.util.internal.bitset.BitSetServiceImpl.intersects</title>
<polygon fill="white" stroke="transparent" points="-4,4 -4,-73.5 351,-73.5 351,4 -4,4"/>
<!-- Node1 -->
<g id="node1" class="node">
<title>Node1</title>
<g id="a_node1"><a xlink:title=" ">
<polygon fill="#bfbfbf" stroke="black" points="0,-22.5 0,-52.5 158,-52.5 158,-22.5 0,-22.5"/>
<text text-anchor="start" x="8" y="-40.5" font-family="Helvetica,sans-Serif" font-size="10.00">javolution.util.internal.bitset.</text>
<text text-anchor="middle" x="79" y="-29.5" font-family="Helvetica,sans-Serif" font-size="10.00">BitSetServiceImpl.intersects</text>
</a>
</g>
</g>
<!-- Node2 -->
<g id="node2" class="node">
<title>Node2</title>
<g id="a_node2"><a xlink:href="../../d4/d14/classjavolution_1_1lang_1_1MathLib.html#a61d82d4ab96ea86fb7868daf1c203048" target="_top" xlink:title=" ">
<polygon fill="white" stroke="black" points="194,-50 194,-69 347,-69 347,-50 194,-50"/>
<text text-anchor="middle" x="270.5" y="-57" font-family="Helvetica,sans-Serif" font-size="10.00">javolution.lang.MathLib.min</text>
</a>
</g>
</g>
<!-- Node1&#45;&gt;Node2 -->
<g id="edge1" class="edge">
<title>Node1&#45;&gt;Node2</title>
<path fill="none" stroke="midnightblue" d="M158.17,-46.58C166.67,-47.56 175.36,-48.57 183.94,-49.57"/>
<polygon fill="midnightblue" stroke="midnightblue" points="183.61,-53.05 193.95,-50.73 184.42,-46.1 183.61,-53.05"/>
</g>
<!-- Node3 -->
<g id="node3" class="node">
<title>Node3</title>
<g id="a_node3"><a xlink:href="../../d7/d3d/interfacejavolution_1_1util_1_1service_1_1BitSetService.html#ac97d5c49921b154cbad6a6256e744611" target="_top" xlink:title=" ">
<polygon fill="white" stroke="black" points="198.5,-0.5 198.5,-30.5 342.5,-30.5 342.5,-0.5 198.5,-0.5"/>
<text text-anchor="start" x="206.5" y="-18.5" font-family="Helvetica,sans-Serif" font-size="10.00">javolution.util.service.</text>
<text text-anchor="middle" x="270.5" y="-7.5" font-family="Helvetica,sans-Serif" font-size="10.00">BitSetService.toLongArray</text>
</a>
</g>
</g>
<!-- Node1&#45;&gt;Node3 -->
<g id="edge2" class="edge">
<title>Node1&#45;&gt;Node3</title>
<path fill="none" stroke="midnightblue" d="M158.17,-28.42C168.19,-27.26 178.46,-26.07 188.52,-24.9"/>
<polygon fill="midnightblue" stroke="midnightblue" points="188.96,-28.37 198.49,-23.74 188.16,-21.42 188.96,-28.37"/>
</g>
</g>
</svg>
