<?xml version="1.0" encoding="UTF-8" standalone="no"?>
<!DOCTYPE svg PUBLIC "-//W3C//DTD SVG 1.1//EN"
 "http://www.w3.org/Graphics/SVG/1.1/DTD/svg11.dtd">
<!-- Generated by graphviz version 2.43.0 (0)
 -->
<!-- Title: javolution.util.internal.bitset.BitSetServiceImpl.remove Pages: 1 -->
<svg width="748pt" height="61pt"
 viewBox="0.00 0.00 748.00 61.00" xmlns="http://www.w3.org/2000/svg" xmlns:xlink="http://www.w3.org/1999/xlink">
<g id="graph0" class="graph" transform="scale(1 1) rotate(0) translate(4 57)">
<title>javolution.util.internal.bitset.BitSetServiceImpl.remove</title>
<polygon fill="white" stroke="transparent" points="-4,4 -4,-57 744,-57 744,4 -4,4"/>
<!-- Node1 -->
<g id="node1" class="node">
<title>Node1</title>
<g id="a_node1"><a xlink:title=" ">
<polygon fill="#bfbfbf" stroke="black" points="0,-22.5 0,-52.5 158,-52.5 158,-22.5 0,-22.5"/>
<text text-anchor="start" x="8" y="-40.5" font-family="Helvetica,sans-Serif" font-size="10.00">javolution.util.internal.bitset.</text>
<text text-anchor="middle" x="79" y="-29.5" font-family="Helvetica,sans-Serif" font-size="10.00">BitSetServiceImpl.remove</text>
</a>
</g>
</g>
<!-- Node2 -->
<g id="node2" class="node">
<title>Node2</title>
<g id="a_node2"><a xlink:href="../../d9/da2/classjavolution_1_1util_1_1internal_1_1bitset_1_1BitSetServiceImpl.html#a5ee3fafe942abb817bac0e3e07ceb794" target="_top" xlink:title=" ">
<polygon fill="white" stroke="black" points="194,-22.5 194,-52.5 352,-52.5 352,-22.5 194,-22.5"/>
<text text-anchor="start" x="202" y="-40.5" font-family="Helvetica,sans-Serif" font-size="10.00">javolution.util.internal.bitset.</text>
<text text-anchor="middle" x="273" y="-29.5" font-family="Helvetica,sans-Serif" font-size="10.00">BitSetServiceImpl.getAndSet</text>
</a>
</g>
</g>
<!-- Node1&#45;&gt;Node2 -->
<g id="edge1" class="edge">
<title>Node1&#45;&gt;Node2</title>
<path fill="none" stroke="midnightblue" d="M158.09,-37.5C166.6,-37.5 175.3,-37.5 183.92,-37.5"/>
<polygon fill="midnightblue" stroke="midnightblue" points="183.98,-41 193.98,-37.5 183.98,-34 183.98,-41"/>
</g>
<!-- Node3 -->
<g id="node3" class="node">
<title>Node3</title>
<g id="a_node3"><a xlink:href="../../d9/da2/classjavolution_1_1util_1_1internal_1_1bitset_1_1BitSetServiceImpl.html#abc6ab27b0880f262943d15d5ee20aa2b" target="_top" xlink:title=" ">
<polygon fill="white" stroke="black" points="582,-22.5 582,-52.5 740,-52.5 740,-22.5 582,-22.5"/>
<text text-anchor="start" x="590" y="-40.5" font-family="Helvetica,sans-Serif" font-size="10.00">javolution.util.internal.bitset.</text>
<text text-anchor="middle" x="661" y="-29.5" font-family="Helvetica,sans-Serif" font-size="10.00">BitSetServiceImpl.setLength</text>
</a>
</g>
</g>
<!-- Node2&#45;&gt;Node3 -->
<g id="edge2" class="edge">
<title>Node2&#45;&gt;Node3</title>
<path fill="none" stroke="midnightblue" d="M352.18,-39.83C364.18,-40.11 376.42,-40.35 388,-40.5 458.22,-41.42 475.78,-41.42 546,-40.5 554.32,-40.39 562.99,-40.24 571.66,-40.05"/>
<polygon fill="midnightblue" stroke="midnightblue" points="571.9,-43.55 581.82,-39.83 571.74,-36.55 571.9,-43.55"/>
</g>
<!-- Node4 -->
<g id="node4" class="node">
<title>Node4</title>
<g id="a_node4"><a xlink:href="../../d9/da2/classjavolution_1_1util_1_1internal_1_1bitset_1_1BitSetServiceImpl.html#a5b767257d537a4ecd9a6cc62fd58b632" target="_top" xlink:title=" ">
<polygon fill="white" stroke="black" points="388,-0.5 388,-30.5 546,-30.5 546,-0.5 388,-0.5"/>
<text text-anchor="start" x="396" y="-18.5" font-family="Helvetica,sans-Serif" font-size="10.00">javolution.util.internal.bitset.</text>
<text text-anchor="middle" x="467" y="-7.5" font-family="Helvetica,sans-Serif" font-size="10.00">BitSetServiceImpl.trim</text>
</a>
</g>
</g>
<!-- Node2&#45;&gt;Node4 -->
<g id="edge3" class="edge">
<title>Node2&#45;&gt;Node4</title>
<path fill="none" stroke="midnightblue" d="M352.09,-28.55C360.6,-27.58 369.3,-26.58 377.92,-25.59"/>
<polygon fill="midnightblue" stroke="midnightblue" points="378.44,-29.06 387.98,-24.44 377.64,-22.1 378.44,-29.06"/>
</g>
<!-- Node4&#45;&gt;Node3 -->
<g id="edge4" class="edge">
<title>Node4&#45;&gt;Node3</title>
<path fill="none" stroke="midnightblue" d="M546.09,-24.45C554.6,-25.42 563.3,-26.42 571.92,-27.41"/>
<polygon fill="midnightblue" stroke="midnightblue" points="571.64,-30.9 581.98,-28.56 572.44,-23.94 571.64,-30.9"/>
</g>
</g>
</svg>
