<?xml version="1.0" encoding="UTF-8" standalone="no"?>
<!DOCTYPE svg PUBLIC "-//W3C//DTD SVG 1.1//EN"
 "http://www.w3.org/Graphics/SVG/1.1/DTD/svg11.dtd">
<!-- Generated by graphviz version 2.43.0 (0)
 -->
<!-- Title: javolution.util.internal.set.sorted.SharedSortedSetImpl&lt; E &gt; Pages: 1 -->
<!--zoomable 154 -->
<svg id="main" version="1.1" xmlns="http://www.w3.org/2000/svg" xmlns:xlink="http://www.w3.org/1999/xlink" xml:space="preserve" onload="init(evt)">
<style type="text/css"><![CDATA[
.edge:hover path { stroke: red; }
.edge:hover polygon { stroke: red; fill: red; }
]]></style>
<script type="text/javascript"><![CDATA[
var edges = document.getElementsByTagName('g');
if (edges && edges.length) {
  for (var i=0;i<edges.length;i++) {
    if (edges[i].id.substr(0,4)=='edge') {
      edges[i].setAttribute('class','edge');
    }
  }
}
]]></script>
        <defs>
                <circle id="rim" cx="0" cy="0" r="7"/>
                <circle id="rim2" cx="0" cy="0" r="3.5"/>
                <g id="zoomPlus">
                        <use xlink:href="#rim" fill="#404040">
                                <set attributeName="fill" to="#808080" begin="zoomplus.mouseover" end="zoomplus.mouseout"/>
                        </use>
                        <path d="M-4,0h8M0,-4v8" fill="none" stroke="white" stroke-width="1.5" pointer-events="none"/>
                </g>
                <g id="zoomMin">
                        <use xlink:href="#rim" fill="#404040">
                                <set attributeName="fill" to="#808080" begin="zoomminus.mouseover" end="zoomminus.mouseout"/>
                        </use>
                        <path d="M-4,0h8" fill="none" stroke="white" stroke-width="1.5" pointer-events="none"/>
                </g>
                <g id="dirArrow">
                        <path fill="none" stroke="white" stroke-width="1.5" d="M0,-3.0v7 M-2.5,-0.5L0,-3.0L2.5,-0.5"/>
                </g>
               <g id="resetDef">
                       <use xlink:href="#rim2" fill="#404040">
                               <set attributeName="fill" to="#808080" begin="reset.mouseover" end="reset.mouseout"/>
                       </use>
               </g>
        </defs>

<script type="text/javascript">
var viewWidth = 1291;
var viewHeight = 154;
var sectionId = 'dynsection-0';
</script>
<script xlink:href="../../svgpan.js"/>
<svg id="graph" class="graph">
<g id="viewport">
<title>javolution.util.internal.set.sorted.SharedSortedSetImpl&lt; E &gt;</title>
<polygon fill="white" stroke="transparent" points="-4,4 -4,-150 1287,-150 1287,4 -4,4"/>
<!-- Node1 -->
<g id="node1" class="node">
<title>Node1</title>
<g id="a_node1"><a xlink:title=" ">
<polygon fill="#bfbfbf" stroke="black" points="1104,-64 1104,-94 1283,-94 1283,-64 1104,-64"/>
<text text-anchor="start" x="1112" y="-82" font-family="Helvetica,sans-Serif" font-size="10.00">javolution.util.internal.set.sorted.</text>
<text text-anchor="middle" x="1193.5" y="-71" font-family="Helvetica,sans-Serif" font-size="10.00">SharedSortedSetImpl&lt; E &gt;</text>
</a>
</g>
</g>
<!-- Node2 -->
<g id="node2" class="node">
<title>Node2</title>
<g id="a_node2"><a xlink:href="../../d8/d9b/classjavolution_1_1util_1_1internal_1_1set_1_1SharedSetImpl.html" target="_top" xlink:title=" ">
<polygon fill="white" stroke="black" points="925,-89 925,-119 1068,-119 1068,-89 925,-89"/>
<text text-anchor="start" x="933" y="-107" font-family="Helvetica,sans-Serif" font-size="10.00">javolution::util::internal</text>
<text text-anchor="middle" x="996.5" y="-96" font-family="Helvetica,sans-Serif" font-size="10.00">::set::SharedSetImpl&lt; E &gt;</text>
</a>
</g>
</g>
<!-- Node2&#45;&gt;Node1 -->
<g id="edge1" class="edge">
<title>Node2&#45;&gt;Node1</title>
<path fill="none" stroke="midnightblue" d="M1078.31,-93.64C1086.71,-92.56 1095.27,-91.46 1103.75,-90.38"/>
<polygon fill="midnightblue" stroke="midnightblue" points="1077.65,-90.2 1068.18,-94.94 1078.54,-97.14 1077.65,-90.2"/>
</g>
<!-- Node3 -->
<g id="node3" class="node">
<title>Node3</title>
<g id="a_node3"><a xlink:href="../../d4/dd1/classjavolution_1_1util_1_1internal_1_1collection_1_1SharedCollectionImpl.html" target="_top" xlink:title=" ">
<polygon fill="white" stroke="black" points="680,-111 680,-141 889,-141 889,-111 680,-111"/>
<text text-anchor="start" x="688" y="-129" font-family="Helvetica,sans-Serif" font-size="10.00">javolution::util::internal</text>
<text text-anchor="middle" x="784.5" y="-118" font-family="Helvetica,sans-Serif" font-size="10.00">::collection::SharedCollectionImpl&lt; E &gt;</text>
</a>
</g>
</g>
<!-- Node3&#45;&gt;Node2 -->
<g id="edge2" class="edge">
<title>Node3&#45;&gt;Node2</title>
<path fill="none" stroke="midnightblue" d="M899.46,-114.06C908.12,-113.15 916.7,-112.25 924.96,-111.39"/>
<polygon fill="midnightblue" stroke="midnightblue" points="898.85,-110.61 889.27,-115.13 899.58,-117.57 898.85,-110.61"/>
</g>
<!-- Node4 -->
<g id="node4" class="node">
<title>Node4</title>
<g id="a_node4"><a xlink:href="../../d1/d40/classjavolution_1_1util_1_1internal_1_1collection_1_1CollectionView.html" target="_top" xlink:title=" ">
<polygon fill="white" stroke="black" points="467,-111 467,-141 644,-141 644,-111 467,-111"/>
<text text-anchor="start" x="475" y="-129" font-family="Helvetica,sans-Serif" font-size="10.00">javolution::util::internal</text>
<text text-anchor="middle" x="555.5" y="-118" font-family="Helvetica,sans-Serif" font-size="10.00">::collection::CollectionView&lt; E &gt;</text>
</a>
</g>
</g>
<!-- Node4&#45;&gt;Node3 -->
<g id="edge3" class="edge">
<title>Node4&#45;&gt;Node3</title>
<path fill="none" stroke="midnightblue" d="M654.41,-126C662.78,-126 671.27,-126 679.69,-126"/>
<polygon fill="midnightblue" stroke="midnightblue" points="654.26,-122.5 644.26,-126 654.26,-129.5 654.26,-122.5"/>
</g>
<!-- Node5 -->
<g id="node5" class="node">
<title>Node5</title>
<g id="a_node5"><a xlink:href="../../dc/d19/classjavolution_1_1util_1_1FastCollection.html" target="_top" xlink:title=" ">
<polygon fill="white" stroke="black" points="241,-116.5 241,-135.5 431,-135.5 431,-116.5 241,-116.5"/>
<text text-anchor="middle" x="336" y="-123.5" font-family="Helvetica,sans-Serif" font-size="10.00">javolution::util::FastCollection&lt; E &gt;</text>
</a>
</g>
</g>
<!-- Node5&#45;&gt;Node4 -->
<g id="edge4" class="edge">
<title>Node5&#45;&gt;Node4</title>
<path fill="none" stroke="midnightblue" d="M441.15,-126C449.72,-126 458.32,-126 466.74,-126"/>
<polygon fill="midnightblue" stroke="midnightblue" points="441.13,-122.5 431.13,-126 441.13,-129.5 441.13,-122.5"/>
</g>
<!-- Node6 -->
<g id="node6" class="node">
<title>Node6</title>
<g id="a_node6"><a xlink:title=" ">
<polygon fill="white" stroke="#bfbfbf" points="31,-126.5 31,-145.5 174,-145.5 174,-126.5 31,-126.5"/>
<text text-anchor="middle" x="102.5" y="-133.5" font-family="Helvetica,sans-Serif" font-size="10.00">java::util::Collection&lt; E &gt;</text>
</a>
</g>
</g>
<!-- Node6&#45;&gt;Node5 -->
<g id="edge5" class="edge">
<title>Node6&#45;&gt;Node5</title>
<path fill="none" stroke="midnightblue" d="M184.22,-132.51C202.5,-131.72 222.06,-130.88 240.83,-130.07"/>
<polygon fill="midnightblue" stroke="midnightblue" points="184.06,-129.02 174.22,-132.95 184.36,-136.01 184.06,-129.02"/>
</g>
<!-- Node8 -->
<g id="node8" class="node">
<title>Node8</title>
<g id="a_node8"><a xlink:href="../../dd/d6c/interfacejavolution_1_1util_1_1service_1_1CollectionService.html" target="_top" xlink:title=" ">
<polygon fill="white" stroke="black" points="268,-58 268,-88 404,-88 404,-58 268,-58"/>
<text text-anchor="start" x="276" y="-76" font-family="Helvetica,sans-Serif" font-size="10.00">javolution::util::service</text>
<text text-anchor="middle" x="336" y="-65" font-family="Helvetica,sans-Serif" font-size="10.00">::CollectionService&lt; E &gt;</text>
</a>
</g>
</g>
<!-- Node6&#45;&gt;Node8 -->
<g id="edge8" class="edge">
<title>Node6&#45;&gt;Node8</title>
<path fill="none" stroke="midnightblue" d="M172.11,-124.52C183.17,-122.28 194.44,-119.76 205,-117 235.77,-108.95 269.81,-97.33 295.33,-88.06"/>
<polygon fill="midnightblue" stroke="midnightblue" points="171.19,-121.14 162.05,-126.5 172.54,-128.01 171.19,-121.14"/>
</g>
<!-- Node7 -->
<g id="node7" class="node">
<title>Node7</title>
<g id="a_node7"><a xlink:title=" ">
<polygon fill="white" stroke="#bfbfbf" points="65.5,-88.5 65.5,-107.5 139.5,-107.5 139.5,-88.5 65.5,-88.5"/>
<text text-anchor="middle" x="102.5" y="-95.5" font-family="Helvetica,sans-Serif" font-size="10.00">Serializable</text>
</a>
</g>
</g>
<!-- Node7&#45;&gt;Node5 -->
<g id="edge6" class="edge">
<title>Node7&#45;&gt;Node5</title>
<path fill="none" stroke="midnightblue" d="M149.96,-103.62C180.29,-107.29 220.68,-112.17 255.98,-116.44"/>
<polygon fill="midnightblue" stroke="midnightblue" points="150.02,-100.1 139.67,-102.38 149.18,-107.05 150.02,-100.1"/>
</g>
<!-- Node7&#45;&gt;Node8 -->
<g id="edge10" class="edge">
<title>Node7&#45;&gt;Node8</title>
<path fill="none" stroke="midnightblue" d="M149.74,-93.01C183.57,-89.35 229.98,-84.34 267.89,-80.25"/>
<polygon fill="midnightblue" stroke="midnightblue" points="149.24,-89.54 139.67,-94.09 149.99,-96.5 149.24,-89.54"/>
</g>
<!-- Node8&#45;&gt;Node4 -->
<g id="edge7" class="edge">
<title>Node8&#45;&gt;Node4</title>
<path fill="none" stroke="midnightblue" d="M408.58,-90.44C435.73,-97.06 466.41,-104.53 492.6,-110.92"/>
<polygon fill="midnightblue" stroke="midnightblue" points="409.29,-87.01 398.74,-88.05 407.63,-93.81 409.29,-87.01"/>
</g>
<!-- Node11 -->
<g id="node11" class="node">
<title>Node11</title>
<g id="a_node11"><a xlink:href="../../d6/d3e/interfacejavolution_1_1util_1_1service_1_1SetService.html" target="_top" xlink:title=" ">
<polygon fill="white" stroke="black" points="720.5,-62 720.5,-92 848.5,-92 848.5,-62 720.5,-62"/>
<text text-anchor="start" x="728.5" y="-80" font-family="Helvetica,sans-Serif" font-size="10.00">javolution::util::service</text>
<text text-anchor="middle" x="784.5" y="-69" font-family="Helvetica,sans-Serif" font-size="10.00">::SetService&lt; E &gt;</text>
</a>
</g>
</g>
<!-- Node8&#45;&gt;Node11 -->
<g id="edge13" class="edge">
<title>Node8&#45;&gt;Node11</title>
<path fill="none" stroke="midnightblue" d="M414.17,-66.08C431.54,-64.8 449.89,-63.66 467,-63 545.61,-59.98 565.43,-59.07 644,-63 669.04,-64.25 696.51,-66.76 720.41,-69.32"/>
<polygon fill="midnightblue" stroke="midnightblue" points="413.79,-62.6 404.08,-66.85 414.32,-69.58 413.79,-62.6"/>
</g>
<!-- Node9 -->
<g id="node9" class="node">
<title>Node9</title>
<g id="a_node9"><a xlink:href="../../dd/ded/interfacejavolution_1_1util_1_1function_1_1Splittable.html" target="_top" xlink:title=" ">
<polygon fill="white" stroke="black" points="0,-39 0,-69 205,-69 205,-39 0,-39"/>
<text text-anchor="start" x="8" y="-57" font-family="Helvetica,sans-Serif" font-size="10.00">javolution::util::function</text>
<text text-anchor="middle" x="102.5" y="-46" font-family="Helvetica,sans-Serif" font-size="10.00">::Splittable&lt; CollectionService&lt; E &gt; &gt;</text>
</a>
</g>
</g>
<!-- Node9&#45;&gt;Node8 -->
<g id="edge9" class="edge">
<title>Node9&#45;&gt;Node8</title>
<path fill="none" stroke="midnightblue" d="M215.04,-63.15C233.09,-64.64 251.28,-66.13 267.84,-67.49"/>
<polygon fill="midnightblue" stroke="midnightblue" points="215.29,-59.66 205.04,-62.33 214.72,-66.64 215.29,-59.66"/>
</g>
<!-- Node10 -->
<g id="node10" class="node">
<title>Node10</title>
<g id="a_node10"><a xlink:href="../../d5/d48/classCloneable.html" target="_top" xlink:title=" ">
<polygon fill="white" stroke="black" points="70,-0.5 70,-19.5 135,-19.5 135,-0.5 70,-0.5"/>
<text text-anchor="middle" x="102.5" y="-7.5" font-family="Helvetica,sans-Serif" font-size="10.00">Cloneable</text>
</a>
</g>
</g>
<!-- Node10&#45;&gt;Node8 -->
<g id="edge11" class="edge">
<title>Node10&#45;&gt;Node8</title>
<path fill="none" stroke="midnightblue" d="M145.17,-16.43C163.63,-19.63 185.54,-23.91 205,-29 235.77,-37.05 269.81,-48.67 295.33,-57.94"/>
<polygon fill="midnightblue" stroke="midnightblue" points="145.74,-12.98 135.3,-14.77 144.58,-19.88 145.74,-12.98"/>
</g>
<!-- Node11&#45;&gt;Node2 -->
<g id="edge12" class="edge">
<title>Node11&#45;&gt;Node2</title>
<path fill="none" stroke="midnightblue" d="M858.55,-86.39C880.03,-89.15 903.49,-92.17 924.82,-94.91"/>
<polygon fill="midnightblue" stroke="midnightblue" points="858.87,-82.9 848.51,-85.1 857.98,-89.85 858.87,-82.9"/>
</g>
<!-- Node13 -->
<g id="node13" class="node">
<title>Node13</title>
<g id="a_node13"><a xlink:href="../../de/da6/interfacejavolution_1_1util_1_1service_1_1SortedSetService.html" target="_top" xlink:title=" ">
<polygon fill="white" stroke="black" points="929.5,-40 929.5,-70 1063.5,-70 1063.5,-40 929.5,-40"/>
<text text-anchor="start" x="937.5" y="-58" font-family="Helvetica,sans-Serif" font-size="10.00">javolution::util::service</text>
<text text-anchor="middle" x="996.5" y="-47" font-family="Helvetica,sans-Serif" font-size="10.00">::SortedSetService&lt; E &gt;</text>
</a>
</g>
</g>
<!-- Node11&#45;&gt;Node13 -->
<g id="edge16" class="edge">
<title>Node11&#45;&gt;Node13</title>
<path fill="none" stroke="midnightblue" d="M858.55,-69.35C881.53,-66.94 906.77,-64.3 929.26,-61.94"/>
<polygon fill="midnightblue" stroke="midnightblue" points="858.09,-65.88 848.51,-70.4 858.82,-72.84 858.09,-65.88"/>
</g>
<!-- Node12 -->
<g id="node12" class="node">
<title>Node12</title>
<g id="a_node12"><a xlink:title=" ">
<polygon fill="white" stroke="#bfbfbf" points="500.5,-72.5 500.5,-91.5 610.5,-91.5 610.5,-72.5 500.5,-72.5"/>
<text text-anchor="middle" x="555.5" y="-79.5" font-family="Helvetica,sans-Serif" font-size="10.00">java::util::Set&lt; E &gt;</text>
</a>
</g>
</g>
<!-- Node12&#45;&gt;Node11 -->
<g id="edge14" class="edge">
<title>Node12&#45;&gt;Node11</title>
<path fill="none" stroke="midnightblue" d="M620.88,-80.58C651.99,-79.9 689.2,-79.08 720.17,-78.39"/>
<polygon fill="midnightblue" stroke="midnightblue" points="620.5,-77.09 610.58,-80.81 620.66,-84.09 620.5,-77.09"/>
</g>
<!-- Node13&#45;&gt;Node1 -->
<g id="edge15" class="edge">
<title>Node13&#45;&gt;Node1</title>
<path fill="none" stroke="midnightblue" d="M1073.66,-64.37C1083.52,-65.59 1093.69,-66.84 1103.73,-68.07"/>
<polygon fill="midnightblue" stroke="midnightblue" points="1073.87,-60.87 1063.52,-63.13 1073.02,-67.82 1073.87,-60.87"/>
</g>
<!-- Node14 -->
<g id="node14" class="node">
<title>Node14</title>
<g id="a_node14"><a xlink:title=" ">
<polygon fill="white" stroke="#bfbfbf" points="714,-23.5 714,-42.5 855,-42.5 855,-23.5 714,-23.5"/>
<text text-anchor="middle" x="784.5" y="-30.5" font-family="Helvetica,sans-Serif" font-size="10.00">java::util::SortedSet&lt; E &gt;</text>
</a>
</g>
</g>
<!-- Node14&#45;&gt;Node13 -->
<g id="edge17" class="edge">
<title>Node14&#45;&gt;Node13</title>
<path fill="none" stroke="midnightblue" d="M865.36,-41.37C886.45,-43.58 908.97,-45.94 929.26,-48.06"/>
<polygon fill="midnightblue" stroke="midnightblue" points="865.45,-37.86 855.14,-40.3 864.72,-44.82 865.45,-37.86"/>
</g>
</g>
</svg>
        <g id="navigator" transform="translate(0 0)" fill="#404254">
                <rect fill="#f2f5e9" fill-opacity="0.5" stroke="#606060" stroke-width=".5" x="0" y="0" width="60" height="60"/>
                <use id="zoomplus" xlink:href="#zoomPlus" x="17" y="9" onmousedown="handleZoom(evt,'in')"/>
                <use id="zoomminus" xlink:href="#zoomMin" x="42" y="9" onmousedown="handleZoom(evt,'out')"/>
                <use id="reset" xlink:href="#resetDef" x="30" y="36" onmousedown="handleReset()"/>
                <g id="arrowUp" xlink:href="#dirArrow" transform="translate(30 24)" onmousedown="handlePan(0,-1)">
                  <use xlink:href="#rim" fill="#404040">
                        <set attributeName="fill" to="#808080" begin="arrowUp.mouseover" end="arrowUp.mouseout"/>
                  </use>
                  <path fill="none" stroke="white" stroke-width="1.5" d="M0,-3.0v7 M-2.5,-0.5L0,-3.0L2.5,-0.5"/>
                </g>
                <g id="arrowRight" xlink:href="#dirArrow" transform="rotate(90) translate(36 -43)" onmousedown="handlePan(1,0)">
                  <use xlink:href="#rim" fill="#404040">
                        <set attributeName="fill" to="#808080" begin="arrowRight.mouseover" end="arrowRight.mouseout"/>
                  </use>
                  <path fill="none" stroke="white" stroke-width="1.5" d="M0,-3.0v7 M-2.5,-0.5L0,-3.0L2.5,-0.5"/>
                </g>
                <g id="arrowDown" xlink:href="#dirArrow" transform="rotate(180) translate(-30 -48)" onmousedown="handlePan(0,1)">
                  <use xlink:href="#rim" fill="#404040">
                        <set attributeName="fill" to="#808080" begin="arrowDown.mouseover" end="arrowDown.mouseout"/>
                  </use>
                  <path fill="none" stroke="white" stroke-width="1.5" d="M0,-3.0v7 M-2.5,-0.5L0,-3.0L2.5,-0.5"/>
                </g>
                <g id="arrowLeft" xlink:href="#dirArrow" transform="rotate(270) translate(-36 17)" onmousedown="handlePan(-1,0)">
                  <use xlink:href="#rim" fill="#404040">
                        <set attributeName="fill" to="#808080" begin="arrowLeft.mouseover" end="arrowLeft.mouseout"/>
                  </use>
                  <path fill="none" stroke="white" stroke-width="1.5" d="M0,-3.0v7 M-2.5,-0.5L0,-3.0L2.5,-0.5"/>
                </g>
        </g>
        <svg viewBox="0 0 15 15" width="100%" height="30px" preserveAspectRatio="xMaxYMin meet">
         <g id="arrow_out" transform="scale(0.3 0.3)">
          <a xlink:href="classjavolution_1_1util_1_1internal_1_1set_1_1sorted_1_1SharedSortedSetImpl__inherit__graph_org.svg" target="_base">
           <rect id="button" ry="5" rx="5" y="6" x="6" height="38" width="38"
                fill="#f2f5e9" fill-opacity="0.5" stroke="#606060" stroke-width="1.0"/>
           <path id="arrow"
             d="M 11.500037,31.436501 C 11.940474,20.09759 22.043105,11.32322 32.158766,21.979434 L 37.068811,17.246167 C 37.068811,17.246167 37.088388,32 37.088388,32 L 22.160133,31.978069 C 22.160133,31.978069 26.997745,27.140456 26.997745,27.140456 C 18.528582,18.264221 13.291696,25.230495 11.500037,31.436501 z"
             style="fill:#404040;"/>
          </a>
         </g>
        </svg>
</svg>
