<?xml version="1.0" encoding="UTF-8" standalone="no"?>
<!DOCTYPE svg PUBLIC "-//W3C//DTD SVG 1.1//EN"
 "http://www.w3.org/Graphics/SVG/1.1/DTD/svg11.dtd">
<!-- Generated by graphviz version 2.43.0 (0)
 -->
<!-- Title: javolution.xml.internal.stream.XMLInputFactoryImpl Pages: 1 -->
<svg width="623pt" height="156pt"
 viewBox="0.00 0.00 623.00 156.00" xmlns="http://www.w3.org/2000/svg" xmlns:xlink="http://www.w3.org/1999/xlink">
<g id="graph0" class="graph" transform="scale(1 1) rotate(0) translate(4 152)">
<title>javolution.xml.internal.stream.XMLInputFactoryImpl</title>
<polygon fill="white" stroke="transparent" points="-4,4 -4,-152 619,-152 619,4 -4,4"/>
<!-- Node1 -->
<g id="node1" class="node">
<title>Node1</title>
<g id="a_node1"><a xlink:title=" ">
<polygon fill="#bfbfbf" stroke="black" points="447,-44 447,-74 615,-74 615,-44 447,-44"/>
<text text-anchor="start" x="455" y="-62" font-family="Helvetica,sans-Serif" font-size="10.00">javolution.xml.internal.stream.</text>
<text text-anchor="middle" x="531" y="-51" font-family="Helvetica,sans-Serif" font-size="10.00">XMLInputFactoryImpl</text>
</a>
</g>
</g>
<!-- Node2 -->
<g id="node2" class="node">
<title>Node2</title>
<g id="a_node2"><a xlink:href="../../d3/dba/interfacejavolution_1_1xml_1_1stream_1_1XMLInputFactory.html" target="_top" xlink:title=" ">
<polygon fill="white" stroke="black" points="185,-99 185,-129 358,-129 358,-99 185,-99"/>
<text text-anchor="start" x="193" y="-117" font-family="Helvetica,sans-Serif" font-size="10.00">javolution.xml.stream.XMLInput</text>
<text text-anchor="middle" x="271.5" y="-106" font-family="Helvetica,sans-Serif" font-size="10.00">Factory</text>
</a>
</g>
</g>
<!-- Node2&#45;&gt;Node1 -->
<g id="edge1" class="edge">
<title>Node2&#45;&gt;Node1</title>
<path fill="none" stroke="midnightblue" d="M352.84,-96.84C387.08,-89.53 426.66,-81.07 459.72,-74.01"/>
<polygon fill="midnightblue" stroke="midnightblue" points="351.91,-93.46 342.86,-98.97 353.37,-100.3 351.91,-93.46"/>
</g>
<!-- Node3 -->
<g id="node3" class="node">
<title>Node3</title>
<g id="a_node3"><a xlink:href="../../d5/d48/classCloneable.html" target="_top" xlink:title=" ">
<polygon fill="white" stroke="black" points="0,-128.5 0,-147.5 65,-147.5 65,-128.5 0,-128.5"/>
<text text-anchor="middle" x="32.5" y="-135.5" font-family="Helvetica,sans-Serif" font-size="10.00">Cloneable</text>
</a>
</g>
</g>
<!-- Node3&#45;&gt;Node2 -->
<g id="edge2" class="edge">
<title>Node3&#45;&gt;Node2</title>
<path fill="none" stroke="midnightblue" d="M75.65,-133.73C105.9,-130.67 147.7,-126.44 184.83,-122.68"/>
<polygon fill="midnightblue" stroke="midnightblue" points="75.06,-130.27 65.46,-134.76 75.76,-137.24 75.06,-130.27"/>
</g>
<!-- Node4 -->
<g id="node4" class="node">
<title>Node4</title>
<g id="a_node4"><a xlink:title=" ">
<polygon fill="white" stroke="#bfbfbf" points="10,-80.5 10,-99.5 55,-99.5 55,-80.5 10,-80.5"/>
<text text-anchor="middle" x="32.5" y="-87.5" font-family="Helvetica,sans-Serif" font-size="10.00">String</text>
</a>
</g>
</g>
<!-- Node4&#45;&gt;Node2 -->
<g id="edge3" class="edge">
<title>Node4&#45;&gt;Node2</title>
<path fill="none" stroke="#9a32cd" stroke-dasharray="5,2" d="M65.38,-88.52C71.24,-88.3 77.3,-88.12 83,-88 118.99,-87.27 128.26,-83.7 164,-88 182.42,-90.22 202.26,-94.52 219.77,-98.99"/>
<polygon fill="#9a32cd" stroke="#9a32cd" points="65.03,-85.03 55.18,-88.93 65.31,-92.03 65.03,-85.03"/>
<text text-anchor="middle" x="123.5" y="-113" font-family="Helvetica,sans-Serif" font-size="10.00"> IS_COALESCING</text>
<text text-anchor="middle" x="123.5" y="-102" font-family="Helvetica,sans-Serif" font-size="10.00">ENTITIES</text>
<text text-anchor="middle" x="123.5" y="-91" font-family="Helvetica,sans-Serif" font-size="10.00">IS_VALIDATING</text>
</g>
<!-- Node5 -->
<g id="node5" class="node">
<title>Node5</title>
<g id="a_node5"><a xlink:href="../../da/dd1/classjavolution_1_1util_1_1FastTable.html" target="_top" xlink:title=" ">
<polygon fill="white" stroke="black" points="182,-38.5 182,-79.5 361,-79.5 361,-38.5 182,-38.5"/>
<text text-anchor="start" x="190" y="-67.5" font-family="Helvetica,sans-Serif" font-size="10.00">javolution.util.FastTable</text>
<text text-anchor="start" x="190" y="-56.5" font-family="Helvetica,sans-Serif" font-size="10.00">&lt; javolution.xml.internal.stream.</text>
<text text-anchor="middle" x="271.5" y="-45.5" font-family="Helvetica,sans-Serif" font-size="10.00">XMLStreamReaderImpl &gt;</text>
</a>
</g>
</g>
<!-- Node5&#45;&gt;Node1 -->
<g id="edge4" class="edge">
<title>Node5&#45;&gt;Node1</title>
<path fill="none" stroke="#9a32cd" stroke-dasharray="5,2" d="M371.32,-59C396.26,-59 422.78,-59 446.86,-59"/>
<polygon fill="#9a32cd" stroke="#9a32cd" points="371.12,-55.5 361.12,-59 371.12,-62.5 371.12,-55.5"/>
<text text-anchor="middle" x="404" y="-62" font-family="Helvetica,sans-Serif" font-size="10.00"> _recycled</text>
</g>
<!-- Node6 -->
<g id="node6" class="node">
<title>Node6</title>
<g id="a_node6"><a xlink:title=" ">
<polygon fill="white" stroke="#bfbfbf" points="210,-0.5 210,-19.5 333,-19.5 333,-0.5 210,-0.5"/>
<text text-anchor="middle" x="271.5" y="-7.5" font-family="Helvetica,sans-Serif" font-size="10.00">Map&lt; String, String &gt;</text>
</a>
</g>
</g>
<!-- Node6&#45;&gt;Node1 -->
<g id="edge5" class="edge">
<title>Node6&#45;&gt;Node1</title>
<path fill="none" stroke="#9a32cd" stroke-dasharray="5,2" d="M332.61,-21.44C367.9,-28.15 412.92,-36.72 451.05,-43.98"/>
<polygon fill="#9a32cd" stroke="#9a32cd" points="332.93,-17.94 322.45,-19.51 331.62,-24.81 332.93,-17.94"/>
<text text-anchor="middle" x="404" y="-42" font-family="Helvetica,sans-Serif" font-size="10.00"> _entities</text>
</g>
</g>
</svg>
