<?xml version="1.0" encoding="UTF-8" standalone="no"?>
<!DOCTYPE svg PUBLIC "-//W3C//DTD SVG 1.1//EN"
 "http://www.w3.org/Graphics/SVG/1.1/DTD/svg11.dtd">
<!-- Generated by graphviz version 2.43.0 (0)
 -->
<!-- Title: javolution.util.internal.collection.DistinctCollectionImpl.IteratorImpl.next Pages: 1 -->
<svg width="483pt" height="39pt"
 viewBox="0.00 0.00 483.00 39.00" xmlns="http://www.w3.org/2000/svg" xmlns:xlink="http://www.w3.org/1999/xlink">
<g id="graph0" class="graph" transform="scale(1 1) rotate(0) translate(4 35)">
<title>javolution.util.internal.collection.DistinctCollectionImpl.IteratorImpl.next</title>
<polygon fill="white" stroke="transparent" points="-4,4 -4,-35 479,-35 479,4 -4,4"/>
<!-- Node1 -->
<g id="node1" class="node">
<title>Node1</title>
<g id="a_node1"><a xlink:title=" ">
<polygon fill="#bfbfbf" stroke="black" points="0,-0.5 0,-30.5 210,-30.5 210,-0.5 0,-0.5"/>
<text text-anchor="start" x="8" y="-18.5" font-family="Helvetica,sans-Serif" font-size="10.00">javolution.util.internal.collection.</text>
<text text-anchor="middle" x="105" y="-7.5" font-family="Helvetica,sans-Serif" font-size="10.00">DistinctCollectionImpl.IteratorImpl.next</text>
</a>
</g>
</g>
<!-- Node2 -->
<g id="node2" class="node">
<title>Node2</title>
<g id="a_node2"><a xlink:href="../../d1/d83/classjavolution_1_1util_1_1internal_1_1collection_1_1DistinctCollectionImpl_1_1IteratorImpl.html#a5efcd05410a2b1fcd2ee4888fc927d68" target="_top" xlink:title=" ">
<polygon fill="white" stroke="black" points="246,-0.5 246,-30.5 475,-30.5 475,-0.5 246,-0.5"/>
<text text-anchor="start" x="254" y="-18.5" font-family="Helvetica,sans-Serif" font-size="10.00">javolution.util.internal.collection.</text>
<text text-anchor="middle" x="360.5" y="-7.5" font-family="Helvetica,sans-Serif" font-size="10.00">DistinctCollectionImpl.IteratorImpl.hasNext</text>
</a>
</g>
</g>
<!-- Node1&#45;&gt;Node2 -->
<g id="edge1" class="edge">
<title>Node1&#45;&gt;Node2</title>
<path fill="none" stroke="midnightblue" d="M210.21,-15.5C218.65,-15.5 227.23,-15.5 235.79,-15.5"/>
<polygon fill="midnightblue" stroke="midnightblue" points="235.82,-19 245.82,-15.5 235.82,-12 235.82,-19"/>
</g>
</g>
</svg>
