<?xml version="1.0" encoding="UTF-8" standalone="no"?>
<!DOCTYPE svg PUBLIC "-//W3C//DTD SVG 1.1//EN"
 "http://www.w3.org/Graphics/SVG/1.1/DTD/svg11.dtd">
<!-- Generated by graphviz version 2.43.0 (0)
 -->
<!-- Title: javolution.util.FastSortedSet.service Pages: 1 -->
<svg width="494pt" height="333pt"
 viewBox="0.00 0.00 494.00 333.00" xmlns="http://www.w3.org/2000/svg" xmlns:xlink="http://www.w3.org/1999/xlink">
<g id="graph0" class="graph" transform="scale(1 1) rotate(0) translate(4 329)">
<title>javolution.util.FastSortedSet.service</title>
<polygon fill="white" stroke="transparent" points="-4,4 -4,-329 490,-329 490,4 -4,4"/>
<!-- Node1 -->
<g id="node1" class="node">
<title>Node1</title>
<g id="a_node1"><a xlink:title=" ">
<polygon fill="#bfbfbf" stroke="black" points="348,-147.5 348,-177.5 486,-177.5 486,-147.5 348,-147.5"/>
<text text-anchor="start" x="356" y="-165.5" font-family="Helvetica,sans-Serif" font-size="10.00">javolution.util.FastSorted</text>
<text text-anchor="middle" x="417" y="-154.5" font-family="Helvetica,sans-Serif" font-size="10.00">Set.service</text>
</a>
</g>
</g>
<!-- Node2 -->
<g id="node2" class="node">
<title>Node2</title>
<g id="a_node2"><a xlink:href="../../de/d0b/classjavolution_1_1util_1_1FastSortedSet.html#a2503fec0d51fe601bf79f72c85b75178" target="_top" xlink:title=" ">
<polygon fill="white" stroke="black" points="174,-294.5 174,-324.5 312,-324.5 312,-294.5 174,-294.5"/>
<text text-anchor="start" x="182" y="-312.5" font-family="Helvetica,sans-Serif" font-size="10.00">javolution.util.FastSorted</text>
<text text-anchor="middle" x="243" y="-301.5" font-family="Helvetica,sans-Serif" font-size="10.00">Set.atomic</text>
</a>
</g>
</g>
<!-- Node1&#45;&gt;Node2 -->
<g id="edge1" class="edge">
<title>Node1&#45;&gt;Node2</title>
<path fill="none" stroke="midnightblue" d="M401.58,-186.21C383.72,-213.7 350.87,-258.67 312,-285.5 307.05,-288.91 301.57,-291.89 295.93,-294.47"/>
<polygon fill="midnightblue" stroke="midnightblue" points="404.63,-187.92 407.04,-177.6 398.73,-184.17 404.63,-187.92"/>
</g>
<!-- Node3 -->
<g id="node3" class="node">
<title>Node3</title>
<g id="a_node3"><a xlink:href="../../de/d0b/classjavolution_1_1util_1_1FastSortedSet.html#ae2533622235a462db832b3feee3c87e1" target="_top" xlink:title=" ">
<polygon fill="white" stroke="black" points="174,-245.5 174,-275.5 312,-275.5 312,-245.5 174,-245.5"/>
<text text-anchor="start" x="182" y="-263.5" font-family="Helvetica,sans-Serif" font-size="10.00">javolution.util.FastSorted</text>
<text text-anchor="middle" x="243" y="-252.5" font-family="Helvetica,sans-Serif" font-size="10.00">Set.FastSortedSet</text>
</a>
</g>
</g>
<!-- Node1&#45;&gt;Node3 -->
<g id="edge2" class="edge">
<title>Node1&#45;&gt;Node3</title>
<path fill="none" stroke="midnightblue" d="M390.39,-183.82C370.1,-199.91 340.52,-221.69 312,-236.5 305.78,-239.73 299.02,-242.7 292.27,-245.36"/>
<polygon fill="midnightblue" stroke="midnightblue" points="392.62,-186.51 398.22,-177.52 388.23,-181.06 392.62,-186.51"/>
</g>
<!-- Node4 -->
<g id="node4" class="node">
<title>Node4</title>
<g id="a_node4"><a xlink:href="../../de/d0b/classjavolution_1_1util_1_1FastSortedSet.html#a2df75cf1278d7e155d6c02eb07c7bffc" target="_top" xlink:title=" ">
<polygon fill="white" stroke="black" points="174,-196.5 174,-226.5 312,-226.5 312,-196.5 174,-196.5"/>
<text text-anchor="start" x="182" y="-214.5" font-family="Helvetica,sans-Serif" font-size="10.00">javolution.util.FastSorted</text>
<text text-anchor="middle" x="243" y="-203.5" font-family="Helvetica,sans-Serif" font-size="10.00">Set.first</text>
</a>
</g>
</g>
<!-- Node1&#45;&gt;Node4 -->
<g id="edge3" class="edge">
<title>Node1&#45;&gt;Node4</title>
<path fill="none" stroke="midnightblue" d="M353.19,-180.39C334.69,-185.66 314.64,-191.38 296.83,-196.45"/>
<polygon fill="midnightblue" stroke="midnightblue" points="354.33,-183.71 362.99,-177.6 352.41,-176.98 354.33,-183.71"/>
</g>
<!-- Node6 -->
<g id="node6" class="node">
<title>Node6</title>
<g id="a_node6"><a xlink:href="../../de/d0b/classjavolution_1_1util_1_1FastSortedSet.html#a9868c5dd6908154207d81fc7deeef45f" target="_top" xlink:title=" ">
<polygon fill="white" stroke="black" points="174,-49.5 174,-79.5 312,-79.5 312,-49.5 174,-49.5"/>
<text text-anchor="start" x="182" y="-67.5" font-family="Helvetica,sans-Serif" font-size="10.00">javolution.util.FastSorted</text>
<text text-anchor="middle" x="243" y="-56.5" font-family="Helvetica,sans-Serif" font-size="10.00">Set.last</text>
</a>
</g>
</g>
<!-- Node1&#45;&gt;Node6 -->
<g id="edge5" class="edge">
<title>Node1&#45;&gt;Node6</title>
<path fill="none" stroke="midnightblue" d="M389.65,-141.1C369.33,-125.34 340.05,-104.18 312,-89.5 305.09,-85.88 297.54,-82.55 290.06,-79.58"/>
<polygon fill="midnightblue" stroke="midnightblue" points="387.75,-144.06 397.78,-147.49 392.08,-138.56 387.75,-144.06"/>
</g>
<!-- Node8 -->
<g id="node8" class="node">
<title>Node8</title>
<g id="a_node8"><a xlink:href="../../de/d0b/classjavolution_1_1util_1_1FastSortedSet.html#ab38dd3bd9a51f3cf27cbdca92b94add9" target="_top" xlink:title=" ">
<polygon fill="white" stroke="black" points="174,-98.5 174,-128.5 312,-128.5 312,-98.5 174,-98.5"/>
<text text-anchor="start" x="182" y="-116.5" font-family="Helvetica,sans-Serif" font-size="10.00">javolution.util.FastSorted</text>
<text text-anchor="middle" x="243" y="-105.5" font-family="Helvetica,sans-Serif" font-size="10.00">Set.shared</text>
</a>
</g>
</g>
<!-- Node1&#45;&gt;Node8 -->
<g id="edge7" class="edge">
<title>Node1&#45;&gt;Node8</title>
<path fill="none" stroke="midnightblue" d="M353.19,-144.61C334.69,-139.34 314.64,-133.62 296.83,-128.55"/>
<polygon fill="midnightblue" stroke="midnightblue" points="352.41,-148.02 362.99,-147.4 354.33,-141.29 352.41,-148.02"/>
</g>
<!-- Node9 -->
<g id="node9" class="node">
<title>Node9</title>
<g id="a_node9"><a xlink:href="../../de/d0b/classjavolution_1_1util_1_1FastSortedSet.html#a162a62afccbe30571f8ce4c18a2acb20" target="_top" xlink:title=" ">
<polygon fill="white" stroke="black" points="174,-147.5 174,-177.5 312,-177.5 312,-147.5 174,-147.5"/>
<text text-anchor="start" x="182" y="-165.5" font-family="Helvetica,sans-Serif" font-size="10.00">javolution.util.FastSorted</text>
<text text-anchor="middle" x="243" y="-154.5" font-family="Helvetica,sans-Serif" font-size="10.00">Set.subSet</text>
</a>
</g>
</g>
<!-- Node1&#45;&gt;Node9 -->
<g id="edge8" class="edge">
<title>Node1&#45;&gt;Node9</title>
<path fill="none" stroke="midnightblue" d="M337.36,-162.5C328.97,-162.5 320.49,-162.5 312.24,-162.5"/>
<polygon fill="midnightblue" stroke="midnightblue" points="337.53,-166 347.53,-162.5 337.53,-159 337.53,-166"/>
</g>
<!-- Node10 -->
<g id="node10" class="node">
<title>Node10</title>
<g id="a_node10"><a xlink:href="../../de/d0b/classjavolution_1_1util_1_1FastSortedSet.html#a8c3292446ad8b59b45bc8df65fd28912" target="_top" xlink:title=" ">
<polygon fill="white" stroke="black" points="174,-0.5 174,-30.5 312,-30.5 312,-0.5 174,-0.5"/>
<text text-anchor="start" x="182" y="-18.5" font-family="Helvetica,sans-Serif" font-size="10.00">javolution.util.FastSorted</text>
<text text-anchor="middle" x="243" y="-7.5" font-family="Helvetica,sans-Serif" font-size="10.00">Set.unmodifiable</text>
</a>
</g>
</g>
<!-- Node1&#45;&gt;Node10 -->
<g id="edge11" class="edge">
<title>Node1&#45;&gt;Node10</title>
<path fill="none" stroke="midnightblue" d="M401.18,-138.64C383.17,-111.42 350.36,-67.23 312,-40.5 306.53,-36.69 300.41,-33.38 294.15,-30.54"/>
<polygon fill="midnightblue" stroke="midnightblue" points="398.34,-140.69 406.71,-147.17 404.21,-136.88 398.34,-140.69"/>
</g>
<!-- Node5 -->
<g id="node5" class="node">
<title>Node5</title>
<g id="a_node5"><a xlink:href="../../de/d0b/classjavolution_1_1util_1_1FastSortedSet.html#af89a405a637ee5892391f20b8acd25bb" target="_top" xlink:title=" ">
<polygon fill="white" stroke="black" points="0,-171.5 0,-201.5 138,-201.5 138,-171.5 0,-171.5"/>
<text text-anchor="start" x="8" y="-189.5" font-family="Helvetica,sans-Serif" font-size="10.00">javolution.util.FastSorted</text>
<text text-anchor="middle" x="69" y="-178.5" font-family="Helvetica,sans-Serif" font-size="10.00">Set.headSet</text>
</a>
</g>
</g>
<!-- Node4&#45;&gt;Node5 -->
<g id="edge4" class="edge">
<title>Node4&#45;&gt;Node5</title>
<path fill="none" stroke="midnightblue" d="M163.36,-200.07C154.97,-198.85 146.49,-197.62 138.24,-196.42"/>
<polygon fill="midnightblue" stroke="midnightblue" points="163.13,-203.57 173.53,-201.55 164.13,-196.65 163.13,-203.57"/>
</g>
<!-- Node7 -->
<g id="node7" class="node">
<title>Node7</title>
<g id="a_node7"><a xlink:href="../../de/d0b/classjavolution_1_1util_1_1FastSortedSet.html#ad2b395538dfca75743bc8b63b22fb9a6" target="_top" xlink:title=" ">
<polygon fill="white" stroke="black" points="0,-98.5 0,-128.5 138,-128.5 138,-98.5 0,-98.5"/>
<text text-anchor="start" x="8" y="-116.5" font-family="Helvetica,sans-Serif" font-size="10.00">javolution.util.FastSorted</text>
<text text-anchor="middle" x="69" y="-105.5" font-family="Helvetica,sans-Serif" font-size="10.00">Set.tailSet</text>
</a>
</g>
</g>
<!-- Node6&#45;&gt;Node7 -->
<g id="edge6" class="edge">
<title>Node6&#45;&gt;Node7</title>
<path fill="none" stroke="midnightblue" d="M179.19,-82.39C160.69,-87.66 140.64,-93.38 122.83,-98.45"/>
<polygon fill="midnightblue" stroke="midnightblue" points="180.33,-85.71 188.99,-79.6 178.41,-78.98 180.33,-85.71"/>
</g>
<!-- Node9&#45;&gt;Node5 -->
<g id="edge9" class="edge">
<title>Node9&#45;&gt;Node5</title>
<path fill="none" stroke="midnightblue" d="M163.36,-173.47C154.97,-174.64 146.49,-175.83 138.24,-176.98"/>
<polygon fill="midnightblue" stroke="midnightblue" points="164.11,-176.9 173.53,-172.05 163.14,-169.97 164.11,-176.9"/>
</g>
<!-- Node9&#45;&gt;Node7 -->
<g id="edge10" class="edge">
<title>Node9&#45;&gt;Node7</title>
<path fill="none" stroke="midnightblue" d="M179.19,-144.61C160.69,-139.34 140.64,-133.62 122.83,-128.55"/>
<polygon fill="midnightblue" stroke="midnightblue" points="178.41,-148.02 188.99,-147.4 180.33,-141.29 178.41,-148.02"/>
</g>
</g>
</svg>
