<?xml version="1.0" encoding="UTF-8" standalone="no"?>
<!DOCTYPE svg PUBLIC "-//W3C//DTD SVG 1.1//EN"
 "http://www.w3.org/Graphics/SVG/1.1/DTD/svg11.dtd">
<!-- Generated by graphviz version 2.43.0 (0)
 -->
<!-- Title: javolution.lang.MathLib._ieee754_log Pages: 1 -->
<svg width="524pt" height="66pt"
 viewBox="0.00 0.00 524.00 66.00" xmlns="http://www.w3.org/2000/svg" xmlns:xlink="http://www.w3.org/1999/xlink">
<g id="graph0" class="graph" transform="scale(1 1) rotate(0) translate(4 62)">
<title>javolution.lang.MathLib._ieee754_log</title>
<polygon fill="white" stroke="transparent" points="-4,4 -4,-62 520,-62 520,4 -4,4"/>
<!-- Node1 -->
<g id="node1" class="node">
<title>Node1</title>
<g id="a_node1"><a xlink:title=" ">
<polygon fill="#bfbfbf" stroke="black" points="382,-14 382,-44 516,-44 516,-14 382,-14"/>
<text text-anchor="start" x="390" y="-32" font-family="Helvetica,sans-Serif" font-size="10.00">javolution.lang.MathLib.</text>
<text text-anchor="middle" x="449" y="-21" font-family="Helvetica,sans-Serif" font-size="10.00">_ieee754_log</text>
</a>
</g>
</g>
<!-- Node2 -->
<g id="node2" class="node">
<title>Node2</title>
<g id="a_node2"><a xlink:href="../../d4/d14/classjavolution_1_1lang_1_1MathLib.html#a5d251d17aa53de4388e1079ce6f511ca" target="_top" xlink:title=" ">
<polygon fill="white" stroke="black" points="197,-19.5 197,-38.5 346,-38.5 346,-19.5 197,-19.5"/>
<text text-anchor="middle" x="271.5" y="-26.5" font-family="Helvetica,sans-Serif" font-size="10.00">javolution.lang.MathLib.log</text>
</a>
</g>
</g>
<!-- Node1&#45;&gt;Node2 -->
<g id="edge1" class="edge">
<title>Node1&#45;&gt;Node2</title>
<path fill="none" stroke="midnightblue" d="M371.52,-29C363.15,-29 354.63,-29 346.29,-29"/>
<polygon fill="midnightblue" stroke="midnightblue" points="371.65,-32.5 381.65,-29 371.65,-25.5 371.65,-32.5"/>
</g>
<!-- Node3 -->
<g id="node3" class="node">
<title>Node3</title>
<g id="a_node3"><a xlink:href="../../d4/d14/classjavolution_1_1lang_1_1MathLib.html#a3fe3a902645211f903912d6d16536756" target="_top" xlink:title=" ">
<polygon fill="white" stroke="black" points="0,-38.5 0,-57.5 161,-57.5 161,-38.5 0,-38.5"/>
<text text-anchor="middle" x="80.5" y="-45.5" font-family="Helvetica,sans-Serif" font-size="10.00">javolution.lang.MathLib.log10</text>
</a>
</g>
</g>
<!-- Node2&#45;&gt;Node3 -->
<g id="edge2" class="edge">
<title>Node2&#45;&gt;Node3</title>
<path fill="none" stroke="midnightblue" d="M186.91,-37.4C178.36,-38.26 169.68,-39.14 161.17,-39.99"/>
<polygon fill="midnightblue" stroke="midnightblue" points="187.29,-40.88 196.89,-36.4 186.59,-33.92 187.29,-40.88"/>
</g>
<!-- Node4 -->
<g id="node4" class="node">
<title>Node4</title>
<g id="a_node4"><a xlink:href="../../d4/d14/classjavolution_1_1lang_1_1MathLib.html#aba653d01cc68637d3f23222b8cd18c0a" target="_top" xlink:title=" ">
<polygon fill="white" stroke="black" points="3,-0.5 3,-19.5 158,-19.5 158,-0.5 3,-0.5"/>
<text text-anchor="middle" x="80.5" y="-7.5" font-family="Helvetica,sans-Serif" font-size="10.00">javolution.lang.MathLib.pow</text>
</a>
</g>
</g>
<!-- Node2&#45;&gt;Node4 -->
<g id="edge3" class="edge">
<title>Node2&#45;&gt;Node4</title>
<path fill="none" stroke="midnightblue" d="M186.63,-20.57C177.11,-19.61 167.45,-18.64 158.03,-17.69"/>
<polygon fill="midnightblue" stroke="midnightblue" points="186.59,-24.08 196.89,-21.6 187.29,-17.12 186.59,-24.08"/>
</g>
</g>
</svg>
