<?xml version="1.0" encoding="UTF-8" standalone="no"?>
<!DOCTYPE svg PUBLIC "-//W3C//DTD SVG 1.1//EN"
 "http://www.w3.org/Graphics/SVG/1.1/DTD/svg11.dtd">
<!-- Generated by graphviz version 2.43.0 (0)
 -->
<!-- Title: javolution.lang.MathLib.toDoublePow10 Pages: 1 -->
<svg width="690pt" height="83pt"
 viewBox="0.00 0.00 690.00 83.00" xmlns="http://www.w3.org/2000/svg" xmlns:xlink="http://www.w3.org/1999/xlink">
<g id="graph0" class="graph" transform="scale(1 1) rotate(0) translate(4 79)">
<title>javolution.lang.MathLib.toDoublePow10</title>
<polygon fill="white" stroke="transparent" points="-4,4 -4,-79 686,-79 686,4 -4,4"/>
<!-- Node1 -->
<g id="node1" class="node">
<title>Node1</title>
<g id="a_node1"><a xlink:title=" ">
<polygon fill="#bfbfbf" stroke="black" points="0,-22.5 0,-52.5 144,-52.5 144,-22.5 0,-22.5"/>
<text text-anchor="start" x="8" y="-40.5" font-family="Helvetica,sans-Serif" font-size="10.00">javolution.lang.MathLib.to</text>
<text text-anchor="middle" x="72" y="-29.5" font-family="Helvetica,sans-Serif" font-size="10.00">DoublePow10</text>
</a>
</g>
</g>
<!-- Node2 -->
<g id="node2" class="node">
<title>Node2</title>
<g id="a_node2"><a xlink:href="../../d4/d14/classjavolution_1_1lang_1_1MathLib.html#a0ec25ae04f72c11735c2ba9384e87274" target="_top" xlink:title=" ">
<polygon fill="white" stroke="black" points="362.5,-44.5 362.5,-74.5 509.5,-74.5 509.5,-44.5 362.5,-44.5"/>
<text text-anchor="start" x="370.5" y="-62.5" font-family="Helvetica,sans-Serif" font-size="10.00">javolution.lang.MathLib.bit</text>
<text text-anchor="middle" x="436" y="-51.5" font-family="Helvetica,sans-Serif" font-size="10.00">Length</text>
</a>
</g>
</g>
<!-- Node1&#45;&gt;Node2 -->
<g id="edge1" class="edge">
<title>Node1&#45;&gt;Node2</title>
<path fill="none" stroke="midnightblue" d="M144.09,-41.82C203.77,-45.45 289.12,-50.63 351.94,-54.45"/>
<polygon fill="midnightblue" stroke="midnightblue" points="352.02,-57.96 362.22,-55.08 352.45,-50.98 352.02,-57.96"/>
</g>
<!-- Node3 -->
<g id="node3" class="node">
<title>Node3</title>
<g id="a_node3"><a xlink:href="../../d4/d14/classjavolution_1_1lang_1_1MathLib.html#a0c8756381acc8208279b93aae059d01f" target="_top" xlink:title=" ">
<polygon fill="white" stroke="black" points="180,-0.5 180,-30.5 324,-30.5 324,-0.5 180,-0.5"/>
<text text-anchor="start" x="188" y="-18.5" font-family="Helvetica,sans-Serif" font-size="10.00">javolution.lang.MathLib.to</text>
<text text-anchor="middle" x="252" y="-7.5" font-family="Helvetica,sans-Serif" font-size="10.00">DoublePow2</text>
</a>
</g>
</g>
<!-- Node1&#45;&gt;Node3 -->
<g id="edge2" class="edge">
<title>Node1&#45;&gt;Node3</title>
<path fill="none" stroke="midnightblue" d="M144.12,-28.71C152.61,-27.66 161.33,-26.58 169.94,-25.52"/>
<polygon fill="midnightblue" stroke="midnightblue" points="170.5,-28.98 180,-24.28 169.64,-22.03 170.5,-28.98"/>
</g>
<!-- Node3&#45;&gt;Node2 -->
<g id="edge3" class="edge">
<title>Node3&#45;&gt;Node2</title>
<path fill="none" stroke="midnightblue" d="M315.13,-30.52C330.56,-34.25 347.23,-38.28 363.09,-42.12"/>
<polygon fill="midnightblue" stroke="midnightblue" points="362.3,-45.53 372.85,-44.47 363.95,-38.72 362.3,-45.53"/>
</g>
<!-- Node4 -->
<g id="node4" class="node">
<title>Node4</title>
<g id="a_node4"><a xlink:href="../../d4/d14/classjavolution_1_1lang_1_1MathLib.html#a8e7d997979031d789ff07ff1b015537b" target="_top" xlink:title=" ">
<polygon fill="white" stroke="black" points="360,-6 360,-25 512,-25 512,-6 360,-6"/>
<text text-anchor="middle" x="436" y="-13" font-family="Helvetica,sans-Serif" font-size="10.00">javolution.lang.MathLib.exp</text>
</a>
</g>
</g>
<!-- Node3&#45;&gt;Node4 -->
<g id="edge4" class="edge">
<title>Node3&#45;&gt;Node4</title>
<path fill="none" stroke="midnightblue" d="M324.15,-15.5C332.6,-15.5 341.3,-15.5 349.92,-15.5"/>
<polygon fill="midnightblue" stroke="midnightblue" points="350,-19 360,-15.5 350,-12 350,-19"/>
</g>
<!-- Node5 -->
<g id="node5" class="node">
<title>Node5</title>
<g id="a_node5"><a xlink:href="../../d4/d14/classjavolution_1_1lang_1_1MathLib.html#a6c237605180b786b4eddbeb45925ccff" target="_top" xlink:title=" ">
<polygon fill="white" stroke="black" points="548,-0.5 548,-30.5 682,-30.5 682,-0.5 548,-0.5"/>
<text text-anchor="start" x="556" y="-18.5" font-family="Helvetica,sans-Serif" font-size="10.00">javolution.lang.MathLib.</text>
<text text-anchor="middle" x="615" y="-7.5" font-family="Helvetica,sans-Serif" font-size="10.00">_ieee754_exp</text>
</a>
</g>
</g>
<!-- Node4&#45;&gt;Node5 -->
<g id="edge5" class="edge">
<title>Node4&#45;&gt;Node5</title>
<path fill="none" stroke="midnightblue" d="M512.06,-15.5C520.5,-15.5 529.11,-15.5 537.57,-15.5"/>
<polygon fill="midnightblue" stroke="midnightblue" points="537.79,-19 547.79,-15.5 537.79,-12 537.79,-19"/>
</g>
</g>
</svg>
