<?xml version="1.0" encoding="UTF-8" standalone="no"?>
<!DOCTYPE svg PUBLIC "-//W3C//DTD SVG 1.1//EN"
 "http://www.w3.org/Graphics/SVG/1.1/DTD/svg11.dtd">
<!-- Generated by graphviz version 2.43.0 (0)
 -->
<!-- Title: javolution.lang.MathLib.abs Pages: 1 -->
<!--zoomable 161 -->
<svg id="main" version="1.1" xmlns="http://www.w3.org/2000/svg" xmlns:xlink="http://www.w3.org/1999/xlink" xml:space="preserve" onload="init(evt)">
<style type="text/css"><![CDATA[
.edge:hover path { stroke: red; }
.edge:hover polygon { stroke: red; fill: red; }
]]></style>
<script type="text/javascript"><![CDATA[
var edges = document.getElementsByTagName('g');
if (edges && edges.length) {
  for (var i=0;i<edges.length;i++) {
    if (edges[i].id.substr(0,4)=='edge') {
      edges[i].setAttribute('class','edge');
    }
  }
}
]]></script>
        <defs>
                <circle id="rim" cx="0" cy="0" r="7"/>
                <circle id="rim2" cx="0" cy="0" r="3.5"/>
                <g id="zoomPlus">
                        <use xlink:href="#rim" fill="#404040">
                                <set attributeName="fill" to="#808080" begin="zoomplus.mouseover" end="zoomplus.mouseout"/>
                        </use>
                        <path d="M-4,0h8M0,-4v8" fill="none" stroke="white" stroke-width="1.5" pointer-events="none"/>
                </g>
                <g id="zoomMin">
                        <use xlink:href="#rim" fill="#404040">
                                <set attributeName="fill" to="#808080" begin="zoomminus.mouseover" end="zoomminus.mouseout"/>
                        </use>
                        <path d="M-4,0h8" fill="none" stroke="white" stroke-width="1.5" pointer-events="none"/>
                </g>
                <g id="dirArrow">
                        <path fill="none" stroke="white" stroke-width="1.5" d="M0,-3.0v7 M-2.5,-0.5L0,-3.0L2.5,-0.5"/>
                </g>
               <g id="resetDef">
                       <use xlink:href="#rim2" fill="#404040">
                               <set attributeName="fill" to="#808080" begin="reset.mouseover" end="reset.mouseout"/>
                       </use>
               </g>
        </defs>

<script type="text/javascript">
var viewWidth = 963;
var viewHeight = 161;
var sectionId = 'dynsection-5';
</script>
<script xlink:href="../../svgpan.js"/>
<svg id="graph" class="graph">
<g id="viewport">
<title>javolution.lang.MathLib.abs</title>
<polygon fill="white" stroke="transparent" points="-4,4 -4,-157 959,-157 959,4 -4,4"/>
<!-- Node1 -->
<g id="node1" class="node">
<title>Node1</title>
<g id="a_node1"><a xlink:title=" ">
<polygon fill="#bfbfbf" stroke="black" points="803,-57.5 803,-76.5 955,-76.5 955,-57.5 803,-57.5"/>
<text text-anchor="middle" x="879" y="-64.5" font-family="Helvetica,sans-Serif" font-size="10.00">javolution.lang.MathLib.abs</text>
</a>
</g>
</g>
<!-- Node2 -->
<g id="node2" class="node">
<title>Node2</title>
<g id="a_node2"><a xlink:href="../../d4/d14/classjavolution_1_1lang_1_1MathLib.html#a7fb3506396daf029b1098753c3d55e79" target="_top" xlink:title=" ">
<polygon fill="white" stroke="black" points="594.5,-114.5 594.5,-133.5 755.5,-133.5 755.5,-114.5 594.5,-114.5"/>
<text text-anchor="middle" x="675" y="-121.5" font-family="Helvetica,sans-Serif" font-size="10.00">javolution.lang.MathLib._atan</text>
</a>
</g>
</g>
<!-- Node1&#45;&gt;Node2 -->
<g id="edge1" class="edge">
<title>Node1&#45;&gt;Node2</title>
<path fill="none" stroke="midnightblue" d="M843.26,-80.14C821.55,-88.03 792.89,-97.89 767,-105 754.24,-108.5 740.31,-111.71 727.28,-114.45"/>
<polygon fill="midnightblue" stroke="midnightblue" points="844.53,-83.4 852.71,-76.66 842.12,-76.83 844.53,-83.4"/>
</g>
<!-- Node7 -->
<g id="node7" class="node">
<title>Node7</title>
<g id="a_node7"><a xlink:href="../../d2/d7a/classjavolution_1_1text_1_1TextBuilder.html#a38c24294be934b598fb547b38e6e68ee" target="_top" xlink:title=" ">
<polygon fill="white" stroke="black" points="583,-76.5 583,-95.5 767,-95.5 767,-76.5 583,-76.5"/>
<text text-anchor="middle" x="675" y="-83.5" font-family="Helvetica,sans-Serif" font-size="10.00">javolution.text.TextBuilder.append</text>
</a>
</g>
</g>
<!-- Node1&#45;&gt;Node7 -->
<g id="edge6" class="edge">
<title>Node1&#45;&gt;Node7</title>
<path fill="none" stroke="midnightblue" d="M792.66,-75.03C784.29,-75.81 775.77,-76.62 767.34,-77.41"/>
<polygon fill="midnightblue" stroke="midnightblue" points="793.15,-78.5 802.78,-74.07 792.5,-71.53 793.15,-78.5"/>
</g>
<!-- Node8 -->
<g id="node8" class="node">
<title>Node8</title>
<g id="a_node8"><a xlink:href="../../d2/d86/classjavolution_1_1text_1_1TypeFormat.html#ae47e22994fdd6e4e79d5e4da899271d4" target="_top" xlink:title=" ">
<polygon fill="white" stroke="black" points="583,-38.5 583,-57.5 767,-57.5 767,-38.5 583,-38.5"/>
<text text-anchor="middle" x="675" y="-45.5" font-family="Helvetica,sans-Serif" font-size="10.00">javolution.text.TypeFormat.format</text>
</a>
</g>
</g>
<!-- Node1&#45;&gt;Node8 -->
<g id="edge7" class="edge">
<title>Node1&#45;&gt;Node8</title>
<path fill="none" stroke="midnightblue" d="M792.66,-58.97C784.29,-58.19 775.77,-57.38 767.34,-56.59"/>
<polygon fill="midnightblue" stroke="midnightblue" points="792.5,-62.47 802.78,-59.93 793.15,-55.5 792.5,-62.47"/>
</g>
<!-- Node9 -->
<g id="node9" class="node">
<title>Node9</title>
<g id="a_node9"><a xlink:href="../../d4/d14/classjavolution_1_1lang_1_1MathLib.html#adc5a642fcbfc109bccfa1c5e0bb565d0" target="_top" xlink:title=" ">
<polygon fill="white" stroke="black" points="598,-0.5 598,-19.5 752,-19.5 752,-0.5 598,-0.5"/>
<text text-anchor="middle" x="675" y="-7.5" font-family="Helvetica,sans-Serif" font-size="10.00">javolution.lang.MathLib.rem</text>
</a>
</g>
</g>
<!-- Node1&#45;&gt;Node9 -->
<g id="edge8" class="edge">
<title>Node1&#45;&gt;Node9</title>
<path fill="none" stroke="midnightblue" d="M843.26,-53.86C821.55,-45.97 792.89,-36.11 767,-29 754.24,-25.5 740.31,-22.29 727.28,-19.55"/>
<polygon fill="midnightblue" stroke="midnightblue" points="842.12,-57.17 852.71,-57.34 844.53,-50.6 842.12,-57.17"/>
</g>
<!-- Node3 -->
<g id="node3" class="node">
<title>Node3</title>
<g id="a_node3"><a xlink:href="../../d4/d14/classjavolution_1_1lang_1_1MathLib.html#a625dac2881f3e9f8bc8841c68aeba2b6" target="_top" xlink:title=" ">
<polygon fill="white" stroke="black" points="391,-114.5 391,-133.5 547,-133.5 547,-114.5 391,-114.5"/>
<text text-anchor="middle" x="469" y="-121.5" font-family="Helvetica,sans-Serif" font-size="10.00">javolution.lang.MathLib.atan</text>
</a>
</g>
</g>
<!-- Node2&#45;&gt;Node3 -->
<g id="edge2" class="edge">
<title>Node2&#45;&gt;Node3</title>
<path fill="none" stroke="midnightblue" d="M583.97,-124C571.65,-124 559.08,-124 547.02,-124"/>
<polygon fill="midnightblue" stroke="midnightblue" points="584.25,-127.5 594.25,-124 584.25,-120.5 584.25,-127.5"/>
</g>
<!-- Node4 -->
<g id="node4" class="node">
<title>Node4</title>
<g id="a_node4"><a xlink:href="../../d4/d14/classjavolution_1_1lang_1_1MathLib.html#ab874eca4f8338e339f2a967739c09523" target="_top" xlink:title=" ">
<polygon fill="white" stroke="black" points="196.5,-133.5 196.5,-152.5 351.5,-152.5 351.5,-133.5 196.5,-133.5"/>
<text text-anchor="middle" x="274" y="-140.5" font-family="Helvetica,sans-Serif" font-size="10.00">javolution.lang.MathLib.asin</text>
</a>
</g>
</g>
<!-- Node3&#45;&gt;Node4 -->
<g id="edge3" class="edge">
<title>Node3&#45;&gt;Node4</title>
<path fill="none" stroke="midnightblue" d="M380.82,-132.58C371.1,-133.54 361.25,-134.51 351.67,-135.45"/>
<polygon fill="midnightblue" stroke="midnightblue" points="381.28,-136.05 390.89,-131.59 380.59,-129.09 381.28,-136.05"/>
</g>
<!-- Node6 -->
<g id="node6" class="node">
<title>Node6</title>
<g id="a_node6"><a xlink:href="../../d4/d14/classjavolution_1_1lang_1_1MathLib.html#add9f022ab2c4b1721a8f4d12b0bb6d78" target="_top" xlink:title=" ">
<polygon fill="white" stroke="black" points="193,-95.5 193,-114.5 355,-114.5 355,-95.5 193,-95.5"/>
<text text-anchor="middle" x="274" y="-102.5" font-family="Helvetica,sans-Serif" font-size="10.00">javolution.lang.MathLib.atan2</text>
</a>
</g>
</g>
<!-- Node3&#45;&gt;Node6 -->
<g id="edge5" class="edge">
<title>Node3&#45;&gt;Node6</title>
<path fill="none" stroke="midnightblue" d="M380.89,-115.42C372.32,-114.58 363.64,-113.73 355.15,-112.89"/>
<polygon fill="midnightblue" stroke="midnightblue" points="380.59,-118.91 390.89,-116.41 381.28,-111.95 380.59,-118.91"/>
</g>
<!-- Node5 -->
<g id="node5" class="node">
<title>Node5</title>
<g id="a_node5"><a xlink:href="../../d4/d14/classjavolution_1_1lang_1_1MathLib.html#a5f619a687df32e14c3a7492ce3b37fab" target="_top" xlink:title=" ">
<polygon fill="white" stroke="black" points="0,-133.5 0,-152.5 157,-152.5 157,-133.5 0,-133.5"/>
<text text-anchor="middle" x="78.5" y="-140.5" font-family="Helvetica,sans-Serif" font-size="10.00">javolution.lang.MathLib.acos</text>
</a>
</g>
</g>
<!-- Node4&#45;&gt;Node5 -->
<g id="edge4" class="edge">
<title>Node4&#45;&gt;Node5</title>
<path fill="none" stroke="midnightblue" d="M186.21,-143C176.51,-143 166.68,-143 157.11,-143"/>
<polygon fill="midnightblue" stroke="midnightblue" points="186.25,-146.5 196.25,-143 186.25,-139.5 186.25,-146.5"/>
</g>
</g>
</svg>
        <g id="navigator" transform="translate(0 0)" fill="#404254">
                <rect fill="#f2f5e9" fill-opacity="0.5" stroke="#606060" stroke-width=".5" x="0" y="0" width="60" height="60"/>
                <use id="zoomplus" xlink:href="#zoomPlus" x="17" y="9" onmousedown="handleZoom(evt,'in')"/>
                <use id="zoomminus" xlink:href="#zoomMin" x="42" y="9" onmousedown="handleZoom(evt,'out')"/>
                <use id="reset" xlink:href="#resetDef" x="30" y="36" onmousedown="handleReset()"/>
                <g id="arrowUp" xlink:href="#dirArrow" transform="translate(30 24)" onmousedown="handlePan(0,-1)">
                  <use xlink:href="#rim" fill="#404040">
                        <set attributeName="fill" to="#808080" begin="arrowUp.mouseover" end="arrowUp.mouseout"/>
                  </use>
                  <path fill="none" stroke="white" stroke-width="1.5" d="M0,-3.0v7 M-2.5,-0.5L0,-3.0L2.5,-0.5"/>
                </g>
                <g id="arrowRight" xlink:href="#dirArrow" transform="rotate(90) translate(36 -43)" onmousedown="handlePan(1,0)">
                  <use xlink:href="#rim" fill="#404040">
                        <set attributeName="fill" to="#808080" begin="arrowRight.mouseover" end="arrowRight.mouseout"/>
                  </use>
                  <path fill="none" stroke="white" stroke-width="1.5" d="M0,-3.0v7 M-2.5,-0.5L0,-3.0L2.5,-0.5"/>
                </g>
                <g id="arrowDown" xlink:href="#dirArrow" transform="rotate(180) translate(-30 -48)" onmousedown="handlePan(0,1)">
                  <use xlink:href="#rim" fill="#404040">
                        <set attributeName="fill" to="#808080" begin="arrowDown.mouseover" end="arrowDown.mouseout"/>
                  </use>
                  <path fill="none" stroke="white" stroke-width="1.5" d="M0,-3.0v7 M-2.5,-0.5L0,-3.0L2.5,-0.5"/>
                </g>
                <g id="arrowLeft" xlink:href="#dirArrow" transform="rotate(270) translate(-36 17)" onmousedown="handlePan(-1,0)">
                  <use xlink:href="#rim" fill="#404040">
                        <set attributeName="fill" to="#808080" begin="arrowLeft.mouseover" end="arrowLeft.mouseout"/>
                  </use>
                  <path fill="none" stroke="white" stroke-width="1.5" d="M0,-3.0v7 M-2.5,-0.5L0,-3.0L2.5,-0.5"/>
                </g>
        </g>
        <svg viewBox="0 0 15 15" width="100%" height="30px" preserveAspectRatio="xMaxYMin meet">
         <g id="arrow_out" transform="scale(0.3 0.3)">
          <a xlink:href="classjavolution_1_1lang_1_1MathLib_a3b5c885aeeb0f29ab7b7a0d995ce6eac_icgraph_org.svg" target="_base">
           <rect id="button" ry="5" rx="5" y="6" x="6" height="38" width="38"
                fill="#f2f5e9" fill-opacity="0.5" stroke="#606060" stroke-width="1.0"/>
           <path id="arrow"
             d="M 11.500037,31.436501 C 11.940474,20.09759 22.043105,11.32322 32.158766,21.979434 L 37.068811,17.246167 C 37.068811,17.246167 37.088388,32 37.088388,32 L 22.160133,31.978069 C 22.160133,31.978069 26.997745,27.140456 26.997745,27.140456 C 18.528582,18.264221 13.291696,25.230495 11.500037,31.436501 z"
             style="fill:#404040;"/>
          </a>
         </g>
        </svg>
</svg>
