<?xml version="1.0" encoding="UTF-8" standalone="no"?>
<!DOCTYPE svg PUBLIC "-//W3C//DTD SVG 1.1//EN"
 "http://www.w3.org/Graphics/SVG/1.1/DTD/svg11.dtd">
<!-- Generated by graphviz version 2.43.0 (0)
 -->
<!-- Title: javolution.lang.MathLib.min Pages: 1 -->
<svg width="1367pt" height="586pt"
 viewBox="0.00 0.00 1367.00 586.00" xmlns="http://www.w3.org/2000/svg" xmlns:xlink="http://www.w3.org/1999/xlink">
<g id="graph0" class="graph" transform="scale(1 1) rotate(0) translate(4 582)">
<title>javolution.lang.MathLib.min</title>
<polygon fill="white" stroke="transparent" points="-4,4 -4,-582 1363,-582 1363,4 -4,4"/>
<!-- Node1 -->
<g id="node1" class="node">
<title>Node1</title>
<g id="a_node1"><a xlink:title=" ">
<polygon fill="#bfbfbf" stroke="black" points="1206,-274 1206,-293 1359,-293 1359,-274 1206,-274"/>
<text text-anchor="middle" x="1282.5" y="-281" font-family="Helvetica,sans-Serif" font-size="10.00">javolution.lang.MathLib.min</text>
</a>
</g>
</g>
<!-- Node2 -->
<g id="node2" class="node">
<title>Node2</title>
<g id="a_node2"><a xlink:href="../../d9/da2/classjavolution_1_1util_1_1internal_1_1bitset_1_1BitSetServiceImpl.html#a1043db89abc1cce993668f6c6d49d40b" target="_top" xlink:title=" ">
<polygon fill="white" stroke="black" points="986.5,-547.5 986.5,-577.5 1144.5,-577.5 1144.5,-547.5 986.5,-547.5"/>
<text text-anchor="start" x="994.5" y="-565.5" font-family="Helvetica,sans-Serif" font-size="10.00">javolution.util.internal.bitset.</text>
<text text-anchor="middle" x="1065.5" y="-554.5" font-family="Helvetica,sans-Serif" font-size="10.00">BitSetServiceImpl.and</text>
</a>
</g>
</g>
<!-- Node1&#45;&gt;Node2 -->
<g id="edge1" class="edge">
<title>Node1&#45;&gt;Node2</title>
<path fill="none" stroke="midnightblue" d="M1278.92,-303.23C1271.52,-351.38 1245.7,-475.61 1170,-538.5 1162.55,-544.69 1153.8,-549.35 1144.61,-552.85"/>
<polygon fill="midnightblue" stroke="midnightblue" points="1282.4,-303.58 1280.36,-293.18 1275.47,-302.58 1282.4,-303.58"/>
</g>
<!-- Node3 -->
<g id="node3" class="node">
<title>Node3</title>
<g id="a_node3"><a xlink:href="../../d9/da2/classjavolution_1_1util_1_1internal_1_1bitset_1_1BitSetServiceImpl.html#a9963aeeb0984995ad98408311ec7901e" target="_top" xlink:title=" ">
<polygon fill="white" stroke="black" points="986.5,-498.5 986.5,-528.5 1144.5,-528.5 1144.5,-498.5 986.5,-498.5"/>
<text text-anchor="start" x="994.5" y="-516.5" font-family="Helvetica,sans-Serif" font-size="10.00">javolution.util.internal.bitset.</text>
<text text-anchor="middle" x="1065.5" y="-505.5" font-family="Helvetica,sans-Serif" font-size="10.00">BitSetServiceImpl.andNot</text>
</a>
</g>
</g>
<!-- Node1&#45;&gt;Node3 -->
<g id="edge2" class="edge">
<title>Node1&#45;&gt;Node3</title>
<path fill="none" stroke="midnightblue" d="M1276.7,-302.86C1265.48,-343.87 1233.58,-439.68 1170,-488.5 1162.45,-494.3 1153.75,-498.77 1144.66,-502.23"/>
<polygon fill="midnightblue" stroke="midnightblue" points="1280.12,-303.61 1279.27,-293.05 1273.35,-301.83 1280.12,-303.61"/>
</g>
<!-- Node4 -->
<g id="node4" class="node">
<title>Node4</title>
<g id="a_node4"><a xlink:href="../../d2/d7a/classjavolution_1_1text_1_1TextBuilder.html#a10cc50a46d88819b8f6b07d32377fbe1" target="_top" xlink:title=" ">
<polygon fill="white" stroke="black" points="973.5,-460 973.5,-479 1157.5,-479 1157.5,-460 973.5,-460"/>
<text text-anchor="middle" x="1065.5" y="-467" font-family="Helvetica,sans-Serif" font-size="10.00">javolution.text.TextBuilder.append</text>
</a>
</g>
</g>
<!-- Node1&#45;&gt;Node4 -->
<g id="edge3" class="edge">
<title>Node1&#45;&gt;Node4</title>
<path fill="none" stroke="midnightblue" d="M1274.59,-302.63C1260.72,-338.07 1225.96,-413.69 1170,-450.5 1164.2,-454.32 1157.84,-457.42 1151.22,-459.93"/>
<polygon fill="midnightblue" stroke="midnightblue" points="1277.97,-303.6 1278.22,-293 1271.42,-301.12 1277.97,-303.6"/>
</g>
<!-- Node5 -->
<g id="node5" class="node">
<title>Node5</title>
<g id="a_node5"><a xlink:href="../../d6/d49/classjavolution_1_1util_1_1internal_1_1comparator_1_1LexicalComparatorImpl.html#a1131d434c66723c879a25e92a29cf800" target="_top" xlink:title=" ">
<polygon fill="white" stroke="black" points="972.5,-410.5 972.5,-440.5 1158.5,-440.5 1158.5,-410.5 972.5,-410.5"/>
<text text-anchor="start" x="980.5" y="-428.5" font-family="Helvetica,sans-Serif" font-size="10.00">javolution.util.internal.comparator.</text>
<text text-anchor="middle" x="1065.5" y="-417.5" font-family="Helvetica,sans-Serif" font-size="10.00">LexicalComparatorImpl.compare</text>
</a>
</g>
</g>
<!-- Node1&#45;&gt;Node5 -->
<g id="edge4" class="edge">
<title>Node1&#45;&gt;Node5</title>
<path fill="none" stroke="midnightblue" d="M1269.7,-301.55C1251.54,-327.8 1214.18,-376.16 1170,-401.5 1164,-404.94 1157.54,-407.89 1150.88,-410.42"/>
<polygon fill="midnightblue" stroke="midnightblue" points="1272.6,-303.5 1275.3,-293.25 1266.8,-299.58 1272.6,-303.5"/>
</g>
<!-- Node6 -->
<g id="node6" class="node">
<title>Node6</title>
<g id="a_node6"><a xlink:href="../../d0/dd9/classjavolution_1_1util_1_1internal_1_1table_1_1FractalTableImpl.html#a4e3ce37cbb96f069312dc088643ce844" target="_top" xlink:title=" ">
<polygon fill="white" stroke="black" points="988,-361.5 988,-391.5 1143,-391.5 1143,-361.5 988,-361.5"/>
<text text-anchor="start" x="996" y="-379.5" font-family="Helvetica,sans-Serif" font-size="10.00">javolution.util.internal.table.</text>
<text text-anchor="middle" x="1065.5" y="-368.5" font-family="Helvetica,sans-Serif" font-size="10.00">FractalTableImpl.copyTo</text>
</a>
</g>
</g>
<!-- Node1&#45;&gt;Node6 -->
<g id="edge5" class="edge">
<title>Node1&#45;&gt;Node6</title>
<path fill="none" stroke="midnightblue" d="M1261.12,-298.97C1239.57,-314.63 1204.04,-338.47 1170,-352.5 1161.47,-356.01 1152.33,-359.07 1143.13,-361.72"/>
<polygon fill="midnightblue" stroke="midnightblue" points="1263.22,-301.77 1269.19,-293.02 1259.07,-296.14 1263.22,-301.77"/>
</g>
<!-- Node15 -->
<g id="node15" class="node">
<title>Node15</title>
<g id="a_node15"><a xlink:href="../../d9/da2/classjavolution_1_1util_1_1internal_1_1bitset_1_1BitSetServiceImpl.html#aa5059ca24b307a075a53cb89209f9dd6" target="_top" xlink:title=" ">
<polygon fill="white" stroke="black" points="986.5,-312.5 986.5,-342.5 1144.5,-342.5 1144.5,-312.5 986.5,-312.5"/>
<text text-anchor="start" x="994.5" y="-330.5" font-family="Helvetica,sans-Serif" font-size="10.00">javolution.util.internal.bitset.</text>
<text text-anchor="middle" x="1065.5" y="-319.5" font-family="Helvetica,sans-Serif" font-size="10.00">BitSetServiceImpl.get</text>
</a>
</g>
</g>
<!-- Node1&#45;&gt;Node15 -->
<g id="edge14" class="edge">
<title>Node1&#45;&gt;Node15</title>
<path fill="none" stroke="midnightblue" d="M1224.81,-295.1C1198.88,-300.41 1167.82,-306.76 1140.11,-312.43"/>
<polygon fill="midnightblue" stroke="midnightblue" points="1225.75,-298.48 1234.85,-293.05 1224.35,-291.62 1225.75,-298.48"/>
</g>
<!-- Node16 -->
<g id="node16" class="node">
<title>Node16</title>
<g id="a_node16"><a xlink:href="../../d2/d7a/classjavolution_1_1text_1_1TextBuilder.html#aad9dff80172c5e04aa996be73b4374e0" target="_top" xlink:title=" ">
<polygon fill="white" stroke="black" points="983.5,-224.5 983.5,-254.5 1147.5,-254.5 1147.5,-224.5 983.5,-224.5"/>
<text text-anchor="start" x="991.5" y="-242.5" font-family="Helvetica,sans-Serif" font-size="10.00">javolution.text.TextBuilder.get</text>
<text text-anchor="middle" x="1065.5" y="-231.5" font-family="Helvetica,sans-Serif" font-size="10.00">Chars</text>
</a>
</g>
</g>
<!-- Node1&#45;&gt;Node16 -->
<g id="edge15" class="edge">
<title>Node1&#45;&gt;Node16</title>
<path fill="none" stroke="midnightblue" d="M1224.81,-271.9C1198.88,-266.59 1167.82,-260.24 1140.11,-254.57"/>
<polygon fill="midnightblue" stroke="midnightblue" points="1224.35,-275.38 1234.85,-273.95 1225.75,-268.52 1224.35,-275.38"/>
</g>
<!-- Node17 -->
<g id="node17" class="node">
<title>Node17</title>
<g id="a_node17"><a xlink:href="../../df/d02/classjavolution_1_1io_1_1CharSequenceReader.html#a108b42ff83f67bedecceb55c3a6984f3" target="_top" xlink:title=" ">
<polygon fill="white" stroke="black" points="771,-273.5 771,-303.5 921,-303.5 921,-273.5 771,-273.5"/>
<text text-anchor="start" x="779" y="-291.5" font-family="Helvetica,sans-Serif" font-size="10.00">javolution.io.CharSequence</text>
<text text-anchor="middle" x="846" y="-280.5" font-family="Helvetica,sans-Serif" font-size="10.00">Reader.read</text>
</a>
</g>
</g>
<!-- Node1&#45;&gt;Node17 -->
<g id="edge29" class="edge">
<title>Node1&#45;&gt;Node17</title>
<path fill="none" stroke="midnightblue" d="M1195.75,-284.49C1115.62,-285.41 997.22,-286.77 921.09,-287.65"/>
<polygon fill="midnightblue" stroke="midnightblue" points="1195.86,-287.99 1205.82,-284.37 1195.78,-280.99 1195.86,-287.99"/>
</g>
<!-- Node26 -->
<g id="node26" class="node">
<title>Node26</title>
<g id="a_node26"><a xlink:href="../../d9/da2/classjavolution_1_1util_1_1internal_1_1bitset_1_1BitSetServiceImpl.html#ab49cbc5cfb1ba67e9f5488c1b9a8862f" target="_top" xlink:title=" ">
<polygon fill="white" stroke="black" points="986.5,-175.5 986.5,-205.5 1144.5,-205.5 1144.5,-175.5 986.5,-175.5"/>
<text text-anchor="start" x="994.5" y="-193.5" font-family="Helvetica,sans-Serif" font-size="10.00">javolution.util.internal.bitset.</text>
<text text-anchor="middle" x="1065.5" y="-182.5" font-family="Helvetica,sans-Serif" font-size="10.00">BitSetServiceImpl.intersects</text>
</a>
</g>
</g>
<!-- Node1&#45;&gt;Node26 -->
<g id="edge25" class="edge">
<title>Node1&#45;&gt;Node26</title>
<path fill="none" stroke="midnightblue" d="M1260.7,-268.08C1239.07,-252.71 1203.7,-229.44 1170,-215.5 1160.78,-211.68 1150.84,-208.36 1140.9,-205.5"/>
<polygon fill="midnightblue" stroke="midnightblue" points="1258.67,-270.92 1268.82,-273.94 1262.76,-265.25 1258.67,-270.92"/>
</g>
<!-- Node27 -->
<g id="node27" class="node">
<title>Node27</title>
<g id="a_node27"><a xlink:href="../../dc/d6d/classjavolution_1_1text_1_1Text.html#a55edcb9755b05b74396bdc40cb2e566f" target="_top" xlink:title=" ">
<polygon fill="white" stroke="black" points="999.5,-126.5 999.5,-156.5 1131.5,-156.5 1131.5,-126.5 999.5,-126.5"/>
<text text-anchor="start" x="1007.5" y="-144.5" font-family="Helvetica,sans-Serif" font-size="10.00">javolution.text.Text.last</text>
<text text-anchor="middle" x="1065.5" y="-133.5" font-family="Helvetica,sans-Serif" font-size="10.00">IndexOf</text>
</a>
</g>
</g>
<!-- Node1&#45;&gt;Node27 -->
<g id="edge26" class="edge">
<title>Node1&#45;&gt;Node27</title>
<path fill="none" stroke="midnightblue" d="M1269.39,-265.32C1251.06,-239.28 1213.73,-191.72 1170,-166.5 1158.31,-159.76 1144.87,-154.83 1131.63,-151.22"/>
<polygon fill="midnightblue" stroke="midnightblue" points="1266.71,-267.6 1275.26,-273.86 1272.48,-263.64 1266.71,-267.6"/>
</g>
<!-- Node28 -->
<g id="node28" class="node">
<title>Node28</title>
<g id="a_node28"><a xlink:href="../../de/d3a/classjavolution_1_1test_1_1Perfometer.html#af16f36b4a8177339fb3889f339cd4981" target="_top" xlink:title=" ">
<polygon fill="white" stroke="black" points="970.5,-88 970.5,-107 1160.5,-107 1160.5,-88 970.5,-88"/>
<text text-anchor="middle" x="1065.5" y="-95" font-family="Helvetica,sans-Serif" font-size="10.00">javolution.test.Perfometer.measure</text>
</a>
</g>
</g>
<!-- Node1&#45;&gt;Node28 -->
<g id="edge27" class="edge">
<title>Node1&#45;&gt;Node28</title>
<path fill="none" stroke="midnightblue" d="M1274.33,-264.03C1260.22,-228.67 1225.34,-154.16 1170,-117.5 1163.52,-113.2 1156.33,-109.78 1148.86,-107.07"/>
<polygon fill="midnightblue" stroke="midnightblue" points="1271.18,-265.59 1278.04,-273.67 1277.71,-263.08 1271.18,-265.59"/>
</g>
<!-- Node29 -->
<g id="node29" class="node">
<title>Node29</title>
<g id="a_node29"><a xlink:href="../../dc/d34/classjavolution_1_1text_1_1CharSet.html#a047f84447e5c5f8350e7a817dc18f0ef" target="_top" xlink:title=" ">
<polygon fill="white" stroke="black" points="984.5,-50 984.5,-69 1146.5,-69 1146.5,-50 984.5,-50"/>
<text text-anchor="middle" x="1065.5" y="-57" font-family="Helvetica,sans-Serif" font-size="10.00">javolution.text.CharSet.minus</text>
</a>
</g>
</g>
<!-- Node1&#45;&gt;Node29 -->
<g id="edge28" class="edge">
<title>Node1&#45;&gt;Node29</title>
<path fill="none" stroke="midnightblue" d="M1276.9,-263.86C1266.09,-222.32 1234.91,-125.54 1170,-78.5 1162.97,-73.41 1154.99,-69.55 1146.65,-66.65"/>
<polygon fill="midnightblue" stroke="midnightblue" points="1273.57,-264.95 1279.37,-273.81 1280.36,-263.26 1273.57,-264.95"/>
</g>
<!-- Node30 -->
<g id="node30" class="node">
<title>Node30</title>
<g id="a_node30"><a xlink:href="../../d5/d0b/classjavolution_1_1context_1_1internal_1_1ConcurrentContextImpl.html#a08efc144d04b734b6a03cf766df63fd5" target="_top" xlink:title=" ">
<polygon fill="white" stroke="black" points="961,-0.5 961,-30.5 1170,-30.5 1170,-0.5 961,-0.5"/>
<text text-anchor="start" x="969" y="-18.5" font-family="Helvetica,sans-Serif" font-size="10.00">javolution.context.internal.</text>
<text text-anchor="middle" x="1065.5" y="-7.5" font-family="Helvetica,sans-Serif" font-size="10.00">ConcurrentContextImpl.setConcurrency</text>
</a>
</g>
</g>
<!-- Node1&#45;&gt;Node30 -->
<g id="edge30" class="edge">
<title>Node1&#45;&gt;Node30</title>
<path fill="none" stroke="midnightblue" d="M1278.41,-263.8C1270.05,-217.31 1242.5,-100.19 1170,-40.5 1165.29,-36.62 1160.08,-33.33 1154.56,-30.53"/>
<polygon fill="midnightblue" stroke="midnightblue" points="1274.98,-264.51 1280.1,-273.79 1281.88,-263.34 1274.98,-264.51"/>
</g>
<!-- Node7 -->
<g id="node7" class="node">
<title>Node7</title>
<g id="a_node7"><a xlink:href="../../d0/dd9/classjavolution_1_1util_1_1internal_1_1table_1_1FractalTableImpl.html#a5fc27e08895e1c5929fe2d2125ebb619" target="_top" xlink:title=" ">
<polygon fill="white" stroke="black" points="768.5,-361.5 768.5,-391.5 923.5,-391.5 923.5,-361.5 768.5,-361.5"/>
<text text-anchor="start" x="776.5" y="-379.5" font-family="Helvetica,sans-Serif" font-size="10.00">javolution.util.internal.table.</text>
<text text-anchor="middle" x="846" y="-368.5" font-family="Helvetica,sans-Serif" font-size="10.00">FractalTableImpl.upsize</text>
</a>
</g>
</g>
<!-- Node6&#45;&gt;Node7 -->
<g id="edge6" class="edge">
<title>Node6&#45;&gt;Node7</title>
<path fill="none" stroke="midnightblue" d="M977.46,-376.5C959.69,-376.5 941.11,-376.5 923.72,-376.5"/>
<polygon fill="midnightblue" stroke="midnightblue" points="977.82,-380 987.82,-376.5 977.82,-373 977.82,-380"/>
</g>
<!-- Node8 -->
<g id="node8" class="node">
<title>Node8</title>
<g id="a_node8"><a xlink:href="../../d9/d7a/classjavolution_1_1util_1_1internal_1_1table_1_1FastTableImpl.html#a2aebcee341c5b1d2a43a676e61b20a9a" target="_top" xlink:title=" ">
<polygon fill="white" stroke="black" points="574.5,-361.5 574.5,-391.5 729.5,-391.5 729.5,-361.5 574.5,-361.5"/>
<text text-anchor="start" x="582.5" y="-379.5" font-family="Helvetica,sans-Serif" font-size="10.00">javolution.util.internal.table.</text>
<text text-anchor="middle" x="652" y="-368.5" font-family="Helvetica,sans-Serif" font-size="10.00">FastTableImpl.upsize</text>
</a>
</g>
</g>
<!-- Node7&#45;&gt;Node8 -->
<g id="edge7" class="edge">
<title>Node7&#45;&gt;Node8</title>
<path fill="none" stroke="midnightblue" d="M758.05,-376.5C748.56,-376.5 738.95,-376.5 729.59,-376.5"/>
<polygon fill="midnightblue" stroke="midnightblue" points="758.29,-380 768.29,-376.5 758.29,-373 758.29,-380"/>
</g>
<!-- Node9 -->
<g id="node9" class="node">
<title>Node9</title>
<g id="a_node9"><a xlink:href="../../d9/d7a/classjavolution_1_1util_1_1internal_1_1table_1_1FastTableImpl.html#a56f359b38a339adb917107ce305d9cf1" target="_top" xlink:title=" ">
<polygon fill="white" stroke="black" points="382,-361.5 382,-391.5 537,-391.5 537,-361.5 382,-361.5"/>
<text text-anchor="start" x="390" y="-379.5" font-family="Helvetica,sans-Serif" font-size="10.00">javolution.util.internal.table.</text>
<text text-anchor="middle" x="459.5" y="-368.5" font-family="Helvetica,sans-Serif" font-size="10.00">FastTableImpl.checkUpsize</text>
</a>
</g>
</g>
<!-- Node8&#45;&gt;Node9 -->
<g id="edge8" class="edge">
<title>Node8&#45;&gt;Node9</title>
<path fill="none" stroke="midnightblue" d="M564.17,-376.5C555.11,-376.5 545.94,-376.5 537,-376.5"/>
<polygon fill="midnightblue" stroke="midnightblue" points="564.34,-380 574.34,-376.5 564.34,-373 564.34,-380"/>
</g>
<!-- Node10 -->
<g id="node10" class="node">
<title>Node10</title>
<g id="a_node10"><a xlink:href="../../d9/d7a/classjavolution_1_1util_1_1internal_1_1table_1_1FastTableImpl.html#ae3172f9ea652c78e78d265d080dcd321" target="_top" xlink:title=" ">
<polygon fill="white" stroke="black" points="191,-410.5 191,-440.5 346,-440.5 346,-410.5 191,-410.5"/>
<text text-anchor="start" x="199" y="-428.5" font-family="Helvetica,sans-Serif" font-size="10.00">javolution.util.internal.table.</text>
<text text-anchor="middle" x="268.5" y="-417.5" font-family="Helvetica,sans-Serif" font-size="10.00">FastTableImpl.add</text>
</a>
</g>
</g>
<!-- Node9&#45;&gt;Node10 -->
<g id="edge9" class="edge">
<title>Node9&#45;&gt;Node10</title>
<path fill="none" stroke="midnightblue" d="M390.81,-394.05C370.05,-399.43 347.42,-405.3 327.38,-410.49"/>
<polygon fill="midnightblue" stroke="midnightblue" points="391.71,-397.43 400.51,-391.53 389.95,-390.66 391.71,-397.43"/>
</g>
<!-- Node11 -->
<g id="node11" class="node">
<title>Node11</title>
<g id="a_node11"><a xlink:href="../../d9/d7a/classjavolution_1_1util_1_1internal_1_1table_1_1FastTableImpl.html#a1f1d147e35953446eb1d0341800e0f77" target="_top" xlink:title=" ">
<polygon fill="white" stroke="black" points="191,-361.5 191,-391.5 346,-391.5 346,-361.5 191,-361.5"/>
<text text-anchor="start" x="199" y="-379.5" font-family="Helvetica,sans-Serif" font-size="10.00">javolution.util.internal.table.</text>
<text text-anchor="middle" x="268.5" y="-368.5" font-family="Helvetica,sans-Serif" font-size="10.00">FastTableImpl.addFirst</text>
</a>
</g>
</g>
<!-- Node9&#45;&gt;Node11 -->
<g id="edge10" class="edge">
<title>Node9&#45;&gt;Node11</title>
<path fill="none" stroke="midnightblue" d="M371.9,-376.5C363.33,-376.5 354.67,-376.5 346.21,-376.5"/>
<polygon fill="midnightblue" stroke="midnightblue" points="371.9,-380 381.9,-376.5 371.9,-373 371.9,-380"/>
</g>
<!-- Node12 -->
<g id="node12" class="node">
<title>Node12</title>
<g id="a_node12"><a xlink:href="../../d9/d7a/classjavolution_1_1util_1_1internal_1_1table_1_1FastTableImpl.html#aaba641e6bd1d2d0cfb35e58043ff8495" target="_top" xlink:title=" ">
<polygon fill="white" stroke="black" points="191,-312.5 191,-342.5 346,-342.5 346,-312.5 191,-312.5"/>
<text text-anchor="start" x="199" y="-330.5" font-family="Helvetica,sans-Serif" font-size="10.00">javolution.util.internal.table.</text>
<text text-anchor="middle" x="268.5" y="-319.5" font-family="Helvetica,sans-Serif" font-size="10.00">FastTableImpl.addLast</text>
</a>
</g>
</g>
<!-- Node9&#45;&gt;Node12 -->
<g id="edge11" class="edge">
<title>Node9&#45;&gt;Node12</title>
<path fill="none" stroke="midnightblue" d="M390.81,-358.95C370.05,-353.57 347.42,-347.7 327.38,-342.51"/>
<polygon fill="midnightblue" stroke="midnightblue" points="389.95,-362.34 400.51,-361.47 391.71,-355.57 389.95,-362.34"/>
</g>
<!-- Node13 -->
<g id="node13" class="node">
<title>Node13</title>
<g id="a_node13"><a xlink:href="../../d9/d7a/classjavolution_1_1util_1_1internal_1_1table_1_1FastTableImpl.html#a3ef1cbcb3342302359defd9104eebec3" target="_top" xlink:title=" ">
<polygon fill="white" stroke="black" points="0,-337.5 0,-367.5 155,-367.5 155,-337.5 0,-337.5"/>
<text text-anchor="start" x="8" y="-355.5" font-family="Helvetica,sans-Serif" font-size="10.00">javolution.util.internal.table.</text>
<text text-anchor="middle" x="77.5" y="-344.5" font-family="Helvetica,sans-Serif" font-size="10.00">FastTableImpl.add</text>
</a>
</g>
</g>
<!-- Node12&#45;&gt;Node13 -->
<g id="edge12" class="edge">
<title>Node12&#45;&gt;Node13</title>
<path fill="none" stroke="midnightblue" d="M180.9,-338.96C172.33,-340.09 163.67,-341.23 155.21,-342.35"/>
<polygon fill="midnightblue" stroke="midnightblue" points="181.44,-342.41 190.9,-337.63 180.53,-335.47 181.44,-342.41"/>
</g>
<!-- Node14 -->
<g id="node14" class="node">
<title>Node14</title>
<g id="a_node14"><a xlink:href="../../d9/d7a/classjavolution_1_1util_1_1internal_1_1table_1_1FastTableImpl.html#ac6df68538a497b1a3dc01cee2c1f4f66" target="_top" xlink:title=" ">
<polygon fill="white" stroke="black" points="0,-288.5 0,-318.5 155,-318.5 155,-288.5 0,-288.5"/>
<text text-anchor="start" x="8" y="-306.5" font-family="Helvetica,sans-Serif" font-size="10.00">javolution.util.internal.table.</text>
<text text-anchor="middle" x="77.5" y="-295.5" font-family="Helvetica,sans-Serif" font-size="10.00">FastTableImpl.readObject</text>
</a>
</g>
</g>
<!-- Node12&#45;&gt;Node14 -->
<g id="edge13" class="edge">
<title>Node12&#45;&gt;Node14</title>
<path fill="none" stroke="midnightblue" d="M180.9,-316.5C172.33,-315.41 163.67,-314.32 155.21,-313.24"/>
<polygon fill="midnightblue" stroke="midnightblue" points="180.54,-319.99 190.9,-317.77 181.42,-313.04 180.54,-319.99"/>
</g>
<!-- Node16&#45;&gt;Node17 -->
<g id="edge16" class="edge">
<title>Node16&#45;&gt;Node17</title>
<path fill="none" stroke="midnightblue" d="M987.9,-256.76C963.66,-262.22 937.08,-268.21 913.61,-273.49"/>
<polygon fill="midnightblue" stroke="midnightblue" points="988.78,-260.15 997.76,-254.53 987.24,-253.32 988.78,-260.15"/>
</g>
<!-- Node18 -->
<g id="node18" class="node">
<title>Node18</title>
<g id="a_node18"><a xlink:href="../../d2/d7a/classjavolution_1_1text_1_1TextBuilder.html#aa5ffb354e3d4834f390f6178bc6ea310" target="_top" xlink:title=" ">
<polygon fill="white" stroke="black" points="767,-224.5 767,-254.5 925,-254.5 925,-224.5 767,-224.5"/>
<text text-anchor="start" x="775" y="-242.5" font-family="Helvetica,sans-Serif" font-size="10.00">javolution.text.TextBuilder.to</text>
<text text-anchor="middle" x="846" y="-231.5" font-family="Helvetica,sans-Serif" font-size="10.00">CharArray</text>
</a>
</g>
</g>
<!-- Node16&#45;&gt;Node18 -->
<g id="edge17" class="edge">
<title>Node16&#45;&gt;Node18</title>
<path fill="none" stroke="midnightblue" d="M972.89,-239.5C957.07,-239.5 940.75,-239.5 925.31,-239.5"/>
<polygon fill="midnightblue" stroke="midnightblue" points="973.2,-243 983.2,-239.5 973.2,-236 973.2,-243"/>
</g>
<!-- Node19 -->
<g id="node19" class="node">
<title>Node19</title>
<g id="a_node19"><a xlink:href="../../d2/d7a/classjavolution_1_1text_1_1TextBuilder.html#a50ba5b22d004b1e9d9d0ceaa19f5c4e3" target="_top" xlink:title=" ">
<polygon fill="white" stroke="black" points="767,-175.5 767,-205.5 925,-205.5 925,-175.5 767,-175.5"/>
<text text-anchor="start" x="775" y="-193.5" font-family="Helvetica,sans-Serif" font-size="10.00">javolution.text.TextBuilder.to</text>
<text text-anchor="middle" x="846" y="-182.5" font-family="Helvetica,sans-Serif" font-size="10.00">LargeString</text>
</a>
</g>
</g>
<!-- Node16&#45;&gt;Node19 -->
<g id="edge18" class="edge">
<title>Node16&#45;&gt;Node19</title>
<path fill="none" stroke="midnightblue" d="M987.9,-222.24C963.66,-216.78 937.08,-210.79 913.61,-205.51"/>
<polygon fill="midnightblue" stroke="midnightblue" points="987.24,-225.68 997.76,-224.47 988.78,-218.85 987.24,-225.68"/>
</g>
<!-- Node25 -->
<g id="node25" class="node">
<title>Node25</title>
<g id="a_node25"><a xlink:href="../../dc/d6d/classjavolution_1_1text_1_1Text.html#a335a4e09ae28ece5a84ff3bcf558aefd" target="_top" xlink:title=" ">
<polygon fill="white" stroke="black" points="770,-137 770,-156 922,-156 922,-137 770,-137"/>
<text text-anchor="middle" x="846" y="-144" font-family="Helvetica,sans-Serif" font-size="10.00">javolution.text.Text.valueOf</text>
</a>
</g>
</g>
<!-- Node16&#45;&gt;Node25 -->
<g id="edge24" class="edge">
<title>Node16&#45;&gt;Node25</title>
<path fill="none" stroke="midnightblue" d="M973.9,-222.68C969.4,-220.56 965.07,-218.18 961,-215.5 938.43,-200.63 947.39,-181.63 925,-166.5 918.51,-162.12 911.13,-158.7 903.56,-156.02"/>
<polygon fill="midnightblue" stroke="midnightblue" points="972.76,-226 983.33,-226.67 975.48,-219.55 972.76,-226"/>
</g>
<!-- Node20 -->
<g id="node20" class="node">
<title>Node20</title>
<g id="a_node20"><a xlink:href="../../d2/d7a/classjavolution_1_1text_1_1TextBuilder.html#ade7c6713517620ff61311eff9c50ec06" target="_top" xlink:title=" ">
<polygon fill="white" stroke="black" points="573,-175.5 573,-205.5 731,-205.5 731,-175.5 573,-175.5"/>
<text text-anchor="start" x="581" y="-193.5" font-family="Helvetica,sans-Serif" font-size="10.00">javolution.text.TextBuilder.to</text>
<text text-anchor="middle" x="652" y="-182.5" font-family="Helvetica,sans-Serif" font-size="10.00">String</text>
</a>
</g>
</g>
<!-- Node19&#45;&gt;Node20 -->
<g id="edge19" class="edge">
<title>Node19&#45;&gt;Node20</title>
<path fill="none" stroke="midnightblue" d="M756.85,-190.5C748.23,-190.5 739.53,-190.5 731.02,-190.5"/>
<polygon fill="midnightblue" stroke="midnightblue" points="756.91,-194 766.91,-190.5 756.91,-187 756.91,-194"/>
</g>
<!-- Node21 -->
<g id="node21" class="node">
<title>Node21</title>
<g id="a_node21"><a xlink:href="../../df/d0c/classjavolution_1_1io_1_1Struct_1_1UTF8String.html#a746422a2f474c589e30538cd8f3be028" target="_top" xlink:title=" ">
<polygon fill="white" stroke="black" points="391,-249.5 391,-279.5 528,-279.5 528,-249.5 391,-249.5"/>
<text text-anchor="start" x="399" y="-267.5" font-family="Helvetica,sans-Serif" font-size="10.00">javolution.io.Struct.UTF8</text>
<text text-anchor="middle" x="459.5" y="-256.5" font-family="Helvetica,sans-Serif" font-size="10.00">String.get</text>
</a>
</g>
</g>
<!-- Node20&#45;&gt;Node21 -->
<g id="edge20" class="edge">
<title>Node20&#45;&gt;Node21</title>
<path fill="none" stroke="midnightblue" d="M609.8,-209.87C588.33,-219.63 561.5,-231.31 537,-240.5 528.79,-243.58 519.99,-246.59 511.38,-249.39"/>
<polygon fill="midnightblue" stroke="midnightblue" points="611.32,-213.02 618.96,-205.68 608.41,-206.66 611.32,-213.02"/>
</g>
<!-- Node22 -->
<g id="node22" class="node">
<title>Node22</title>
<g id="a_node22"><a xlink:href="../../de/db4/classjavolution_1_1context_1_1internal_1_1LogContextImpl.html#aaac9e3cc3f302c980b77dcae988159f0" target="_top" xlink:title=" ">
<polygon fill="white" stroke="black" points="385,-200.5 385,-230.5 534,-230.5 534,-200.5 385,-200.5"/>
<text text-anchor="start" x="393" y="-218.5" font-family="Helvetica,sans-Serif" font-size="10.00">javolution.context.internal.</text>
<text text-anchor="middle" x="459.5" y="-207.5" font-family="Helvetica,sans-Serif" font-size="10.00">LogContextImpl.log</text>
</a>
</g>
</g>
<!-- Node20&#45;&gt;Node22 -->
<g id="edge21" class="edge">
<title>Node20&#45;&gt;Node22</title>
<path fill="none" stroke="midnightblue" d="M562.96,-202.05C553.31,-203.32 543.56,-204.6 534.12,-205.84"/>
<polygon fill="midnightblue" stroke="midnightblue" points="563.51,-205.51 572.97,-200.74 562.6,-198.57 563.51,-205.51"/>
</g>
<!-- Node23 -->
<g id="node23" class="node">
<title>Node23</title>
<g id="a_node23"><a xlink:href="../../dc/d34/classjavolution_1_1text_1_1CharSet.html#a61a8216b0001f7f590b1eedbf15b42ab" target="_top" xlink:title=" ">
<polygon fill="white" stroke="black" points="388.5,-151.5 388.5,-181.5 530.5,-181.5 530.5,-151.5 388.5,-151.5"/>
<text text-anchor="start" x="396.5" y="-169.5" font-family="Helvetica,sans-Serif" font-size="10.00">javolution.text.CharSet.to</text>
<text text-anchor="middle" x="459.5" y="-158.5" font-family="Helvetica,sans-Serif" font-size="10.00">String</text>
</a>
</g>
</g>
<!-- Node20&#45;&gt;Node23 -->
<g id="edge22" class="edge">
<title>Node20&#45;&gt;Node23</title>
<path fill="none" stroke="midnightblue" d="M562.74,-179.38C552.02,-178.03 541.18,-176.66 530.77,-175.35"/>
<polygon fill="midnightblue" stroke="midnightblue" points="562.61,-182.89 572.97,-180.67 563.48,-175.95 562.61,-182.89"/>
</g>
<!-- Node24 -->
<g id="node24" class="node">
<title>Node24</title>
<g id="a_node24"><a xlink:href="../../d7/d99/classjavolution_1_1io_1_1Struct.html#afc743402c152a89a53944da4625f45b2" target="_top" xlink:title=" ">
<polygon fill="white" stroke="black" points="384.5,-113 384.5,-132 534.5,-132 534.5,-113 384.5,-113"/>
<text text-anchor="middle" x="459.5" y="-120" font-family="Helvetica,sans-Serif" font-size="10.00">javolution.io.Struct.toString</text>
</a>
</g>
</g>
<!-- Node20&#45;&gt;Node24 -->
<g id="edge23" class="edge">
<title>Node20&#45;&gt;Node24</title>
<path fill="none" stroke="midnightblue" d="M609.15,-171.19C587.83,-161.78 561.34,-150.76 537,-142.5 525.56,-138.62 512.95,-135.04 501.32,-132.02"/>
<polygon fill="midnightblue" stroke="midnightblue" points="607.99,-174.5 618.55,-175.38 610.84,-168.11 607.99,-174.5"/>
</g>
</g>
</svg>
