<?xml version="1.0" encoding="UTF-8" standalone="no"?>
<!DOCTYPE svg PUBLIC "-//W3C//DTD SVG 1.1//EN"
 "http://www.w3.org/Graphics/SVG/1.1/DTD/svg11.dtd">
<!-- Generated by graphviz version 2.43.0 (0)
 -->
<!-- Title: javolution.lang.MathLib.max Pages: 1 -->
<svg width="528pt" height="145pt"
 viewBox="0.00 0.00 528.00 145.00" xmlns="http://www.w3.org/2000/svg" xmlns:xlink="http://www.w3.org/1999/xlink">
<g id="graph0" class="graph" transform="scale(1 1) rotate(0) translate(4 141)">
<title>javolution.lang.MathLib.max</title>
<polygon fill="white" stroke="transparent" points="-4,4 -4,-141 524,-141 524,4 -4,4"/>
<!-- Node1 -->
<g id="node1" class="node">
<title>Node1</title>
<g id="a_node1"><a xlink:title=" ">
<polygon fill="#bfbfbf" stroke="black" points="364,-50 364,-69 520,-69 520,-50 364,-50"/>
<text text-anchor="middle" x="442" y="-57" font-family="Helvetica,sans-Serif" font-size="10.00">javolution.lang.MathLib.max</text>
</a>
</g>
</g>
<!-- Node2 -->
<g id="node2" class="node">
<title>Node2</title>
<g id="a_node2"><a xlink:href="../../dc/d6d/classjavolution_1_1text_1_1Text.html#af0a37030fabec6b8bb3535e797aed167" target="_top" xlink:title=" ">
<polygon fill="white" stroke="black" points="185.5,-88.5 185.5,-118.5 315.5,-118.5 315.5,-88.5 185.5,-88.5"/>
<text text-anchor="start" x="193.5" y="-106.5" font-family="Helvetica,sans-Serif" font-size="10.00">javolution.text.Text.get</text>
<text text-anchor="middle" x="250.5" y="-95.5" font-family="Helvetica,sans-Serif" font-size="10.00">Depth</text>
</a>
</g>
</g>
<!-- Node1&#45;&gt;Node2 -->
<g id="edge1" class="edge">
<title>Node1&#45;&gt;Node2</title>
<path fill="none" stroke="midnightblue" d="M390.03,-71.33C367.15,-76.65 339.9,-82.97 315.64,-88.61"/>
<polygon fill="midnightblue" stroke="midnightblue" points="390.93,-74.72 399.88,-69.05 389.35,-67.9 390.93,-74.72"/>
</g>
<!-- Node4 -->
<g id="node4" class="node">
<title>Node4</title>
<g id="a_node4"><a xlink:href="../../dc/d6d/classjavolution_1_1text_1_1Text.html#a1b2d95e975adc4359707f54d0af3bed8" target="_top" xlink:title=" ">
<polygon fill="white" stroke="black" points="174.5,-50 174.5,-69 326.5,-69 326.5,-50 174.5,-50"/>
<text text-anchor="middle" x="250.5" y="-57" font-family="Helvetica,sans-Serif" font-size="10.00">javolution.text.Text.indexOf</text>
</a>
</g>
</g>
<!-- Node1&#45;&gt;Node4 -->
<g id="edge4" class="edge">
<title>Node1&#45;&gt;Node4</title>
<path fill="none" stroke="midnightblue" d="M353.76,-59.5C344.71,-59.5 335.57,-59.5 326.67,-59.5"/>
<polygon fill="midnightblue" stroke="midnightblue" points="353.92,-63 363.92,-59.5 353.92,-56 353.92,-63"/>
</g>
<!-- Node5 -->
<g id="node5" class="node">
<title>Node5</title>
<g id="a_node5"><a xlink:href="../../d2/d46/classjavolution_1_1io_1_1Struct_1_1Member.html#a14eb26ed3651b92f0ef0bfd20fa091a1" target="_top" xlink:title=" ">
<polygon fill="white" stroke="black" points="173,-0.5 173,-30.5 328,-30.5 328,-0.5 173,-0.5"/>
<text text-anchor="start" x="181" y="-18.5" font-family="Helvetica,sans-Serif" font-size="10.00">javolution.io.Struct.Member.</text>
<text text-anchor="middle" x="250.5" y="-7.5" font-family="Helvetica,sans-Serif" font-size="10.00">Member</text>
</a>
</g>
</g>
<!-- Node1&#45;&gt;Node5 -->
<g id="edge5" class="edge">
<title>Node1&#45;&gt;Node5</title>
<path fill="none" stroke="midnightblue" d="M390.12,-47.69C367.45,-42.42 340.48,-36.16 316.38,-30.57"/>
<polygon fill="midnightblue" stroke="midnightblue" points="389.35,-51.1 399.88,-49.95 390.93,-44.28 389.35,-51.1"/>
</g>
<!-- Node2&#45;&gt;Node2 -->
<g id="edge2" class="edge">
<title>Node2&#45;&gt;Node2</title>
<path fill="none" stroke="midnightblue" d="M282.84,-128.96C278.83,-133.68 268.05,-137 250.5,-137 221.71,-137 211.13,-128.06 218.78,-118.66"/>
<polygon fill="midnightblue" stroke="midnightblue" points="286.31,-128.43 282.22,-118.66 279.33,-128.85 286.31,-128.43"/>
</g>
<!-- Node3 -->
<g id="node3" class="node">
<title>Node3</title>
<g id="a_node3"><a xlink:href="../../dc/d6d/classjavolution_1_1text_1_1Text.html#a7a922debae5a3a2e61debd9c6c3347a4" target="_top" xlink:title=" ">
<polygon fill="white" stroke="black" points="0,-88.5 0,-118.5 137,-118.5 137,-88.5 0,-88.5"/>
<text text-anchor="start" x="8" y="-106.5" font-family="Helvetica,sans-Serif" font-size="10.00">javolution.text.Text.print</text>
<text text-anchor="middle" x="68.5" y="-95.5" font-family="Helvetica,sans-Serif" font-size="10.00">Statistics</text>
</a>
</g>
</g>
<!-- Node2&#45;&gt;Node3 -->
<g id="edge3" class="edge">
<title>Node2&#45;&gt;Node3</title>
<path fill="none" stroke="midnightblue" d="M175.24,-103.5C162.59,-103.5 149.51,-103.5 137.04,-103.5"/>
<polygon fill="midnightblue" stroke="midnightblue" points="175.28,-107 185.28,-103.5 175.28,-100 175.28,-107"/>
</g>
</g>
</svg>
