<?xml version="1.0" encoding="UTF-8" standalone="no"?>
<!DOCTYPE svg PUBLIC "-//W3C//DTD SVG 1.1//EN"
 "http://www.w3.org/Graphics/SVG/1.1/DTD/svg11.dtd">
<!-- Generated by graphviz version 2.43.0 (0)
 -->
<!-- Title: javolution.lang.MathLib._ieee754_exp Pages: 1 -->
<!--zoomable 364 -->
<svg id="main" version="1.1" xmlns="http://www.w3.org/2000/svg" xmlns:xlink="http://www.w3.org/1999/xlink" xml:space="preserve" onload="init(evt)">
<style type="text/css"><![CDATA[
.edge:hover path { stroke: red; }
.edge:hover polygon { stroke: red; fill: red; }
]]></style>
<script type="text/javascript"><![CDATA[
var edges = document.getElementsByTagName('g');
if (edges && edges.length) {
  for (var i=0;i<edges.length;i++) {
    if (edges[i].id.substr(0,4)=='edge') {
      edges[i].setAttribute('class','edge');
    }
  }
}
]]></script>
        <defs>
                <circle id="rim" cx="0" cy="0" r="7"/>
                <circle id="rim2" cx="0" cy="0" r="3.5"/>
                <g id="zoomPlus">
                        <use xlink:href="#rim" fill="#404040">
                                <set attributeName="fill" to="#808080" begin="zoomplus.mouseover" end="zoomplus.mouseout"/>
                        </use>
                        <path d="M-4,0h8M0,-4v8" fill="none" stroke="white" stroke-width="1.5" pointer-events="none"/>
                </g>
                <g id="zoomMin">
                        <use xlink:href="#rim" fill="#404040">
                                <set attributeName="fill" to="#808080" begin="zoomminus.mouseover" end="zoomminus.mouseout"/>
                        </use>
                        <path d="M-4,0h8" fill="none" stroke="white" stroke-width="1.5" pointer-events="none"/>
                </g>
                <g id="dirArrow">
                        <path fill="none" stroke="white" stroke-width="1.5" d="M0,-3.0v7 M-2.5,-0.5L0,-3.0L2.5,-0.5"/>
                </g>
               <g id="resetDef">
                       <use xlink:href="#rim2" fill="#404040">
                               <set attributeName="fill" to="#808080" begin="reset.mouseover" end="reset.mouseout"/>
                       </use>
               </g>
        </defs>

<script type="text/javascript">
var viewWidth = 1544;
var viewHeight = 364;
var sectionId = 'dynsection-3';
</script>
<script xlink:href="../../svgpan.js"/>
<svg id="graph" class="graph">
<g id="viewport">
<title>javolution.lang.MathLib._ieee754_exp</title>
<polygon fill="white" stroke="transparent" points="-4,4 -4,-359.5 1540,-359.5 1540,4 -4,4"/>
<!-- Node1 -->
<g id="node1" class="node">
<title>Node1</title>
<g id="a_node1"><a xlink:title=" ">
<polygon fill="#bfbfbf" stroke="black" points="1402,-197.5 1402,-227.5 1536,-227.5 1536,-197.5 1402,-197.5"/>
<text text-anchor="start" x="1410" y="-215.5" font-family="Helvetica,sans-Serif" font-size="10.00">javolution.lang.MathLib.</text>
<text text-anchor="middle" x="1469" y="-204.5" font-family="Helvetica,sans-Serif" font-size="10.00">_ieee754_exp</text>
</a>
</g>
</g>
<!-- Node2 -->
<g id="node2" class="node">
<title>Node2</title>
<g id="a_node2"><a xlink:href="../../d4/d14/classjavolution_1_1lang_1_1MathLib.html#a8e7d997979031d789ff07ff1b015537b" target="_top" xlink:title=" ">
<polygon fill="white" stroke="black" points="1214,-203 1214,-222 1366,-222 1366,-203 1214,-203"/>
<text text-anchor="middle" x="1290" y="-210" font-family="Helvetica,sans-Serif" font-size="10.00">javolution.lang.MathLib.exp</text>
</a>
</g>
</g>
<!-- Node1&#45;&gt;Node2 -->
<g id="edge1" class="edge">
<title>Node1&#45;&gt;Node2</title>
<path fill="none" stroke="midnightblue" d="M1391.59,-212.5C1383.11,-212.5 1374.47,-212.5 1366.01,-212.5"/>
<polygon fill="midnightblue" stroke="midnightblue" points="1391.84,-216 1401.84,-212.5 1391.84,-209 1391.84,-216"/>
</g>
<!-- Node3 -->
<g id="node3" class="node">
<title>Node3</title>
<g id="a_node3"><a xlink:href="../../d4/d14/classjavolution_1_1lang_1_1MathLib.html#a778bbc04bc4c5a24d7c3c712ab928fa4" target="_top" xlink:title=" ">
<polygon fill="white" stroke="black" points="1021,-336 1021,-355 1178,-355 1178,-336 1021,-336"/>
<text text-anchor="middle" x="1099.5" y="-343" font-family="Helvetica,sans-Serif" font-size="10.00">javolution.lang.MathLib.cosh</text>
</a>
</g>
</g>
<!-- Node2&#45;&gt;Node3 -->
<g id="edge2" class="edge">
<title>Node2&#45;&gt;Node3</title>
<path fill="none" stroke="midnightblue" d="M1275.61,-230.14C1256.49,-254.15 1219.1,-296.96 1178,-321.5 1167.72,-327.64 1155.72,-332.35 1144.28,-335.9"/>
<polygon fill="midnightblue" stroke="midnightblue" points="1278.41,-232.24 1281.8,-222.21 1272.89,-227.94 1278.41,-232.24"/>
</g>
<!-- Node4 -->
<g id="node4" class="node">
<title>Node4</title>
<g id="a_node4"><a xlink:href="../../d4/d14/classjavolution_1_1lang_1_1MathLib.html#adaaa25f307e0306962af24967fe07408" target="_top" xlink:title=" ">
<polygon fill="white" stroke="black" points="806,-146 806,-165 985,-165 985,-146 806,-146"/>
<text text-anchor="middle" x="895.5" y="-153" font-family="Helvetica,sans-Serif" font-size="10.00">javolution.lang.MathLib.floorLog2</text>
</a>
</g>
</g>
<!-- Node2&#45;&gt;Node4 -->
<g id="edge3" class="edge">
<title>Node2&#45;&gt;Node4</title>
<path fill="none" stroke="midnightblue" d="M1257.09,-199.07C1235.23,-190.5 1205.36,-180.01 1178,-174.5 1114.25,-161.67 1040.92,-157.04 985.09,-155.55"/>
<polygon fill="midnightblue" stroke="midnightblue" points="1255.94,-202.38 1266.52,-202.85 1258.54,-195.89 1255.94,-202.38"/>
</g>
<!-- Node7 -->
<g id="node7" class="node">
<title>Node7</title>
<g id="a_node7"><a xlink:href="../../d4/d14/classjavolution_1_1lang_1_1MathLib.html#aba653d01cc68637d3f23222b8cd18c0a" target="_top" xlink:title=" ">
<polygon fill="white" stroke="black" points="1022,-260 1022,-279 1177,-279 1177,-260 1022,-260"/>
<text text-anchor="middle" x="1099.5" y="-267" font-family="Helvetica,sans-Serif" font-size="10.00">javolution.lang.MathLib.pow</text>
</a>
</g>
</g>
<!-- Node2&#45;&gt;Node7 -->
<g id="edge6" class="edge">
<title>Node2&#45;&gt;Node7</title>
<path fill="none" stroke="midnightblue" d="M1253.74,-225.47C1232.05,-233.23 1203.6,-243 1178,-250.5 1166.57,-253.85 1154.07,-257.09 1142.51,-259.93"/>
<polygon fill="midnightblue" stroke="midnightblue" points="1254.97,-228.75 1263.19,-222.07 1252.6,-222.16 1254.97,-228.75"/>
</g>
<!-- Node8 -->
<g id="node8" class="node">
<title>Node8</title>
<g id="a_node8"><a xlink:href="../../d4/d14/classjavolution_1_1lang_1_1MathLib.html#afa28aad44e63afd3a3035ba3455f5a25" target="_top" xlink:title=" ">
<polygon fill="white" stroke="black" points="1022,-222 1022,-241 1177,-241 1177,-222 1022,-222"/>
<text text-anchor="middle" x="1099.5" y="-229" font-family="Helvetica,sans-Serif" font-size="10.00">javolution.lang.MathLib.sinh</text>
</a>
</g>
</g>
<!-- Node2&#45;&gt;Node8 -->
<g id="edge7" class="edge">
<title>Node2&#45;&gt;Node8</title>
<path fill="none" stroke="midnightblue" d="M1203.94,-221.07C1195.01,-221.97 1185.96,-222.89 1177.13,-223.78"/>
<polygon fill="midnightblue" stroke="midnightblue" points="1204.36,-224.55 1213.96,-220.06 1203.66,-217.58 1204.36,-224.55"/>
</g>
<!-- Node9 -->
<g id="node9" class="node">
<title>Node9</title>
<g id="a_node9"><a xlink:href="../../d4/d14/classjavolution_1_1lang_1_1MathLib.html#ac84af6d982d748acadc685b213219a65" target="_top" xlink:title=" ">
<polygon fill="white" stroke="black" points="1021.5,-184 1021.5,-203 1177.5,-203 1177.5,-184 1021.5,-184"/>
<text text-anchor="middle" x="1099.5" y="-191" font-family="Helvetica,sans-Serif" font-size="10.00">javolution.lang.MathLib.tanh</text>
</a>
</g>
</g>
<!-- Node2&#45;&gt;Node9 -->
<g id="edge8" class="edge">
<title>Node2&#45;&gt;Node9</title>
<path fill="none" stroke="midnightblue" d="M1203.83,-203.91C1195.14,-203.04 1186.35,-202.15 1177.75,-201.29"/>
<polygon fill="midnightblue" stroke="midnightblue" points="1203.66,-207.42 1213.96,-204.94 1204.36,-200.45 1203.66,-207.42"/>
</g>
<!-- Node10 -->
<g id="node10" class="node">
<title>Node10</title>
<g id="a_node10"><a xlink:href="../../d4/d14/classjavolution_1_1lang_1_1MathLib.html#a0c8756381acc8208279b93aae059d01f" target="_top" xlink:title=" ">
<polygon fill="white" stroke="black" points="1027.5,-96.5 1027.5,-126.5 1171.5,-126.5 1171.5,-96.5 1027.5,-96.5"/>
<text text-anchor="start" x="1035.5" y="-114.5" font-family="Helvetica,sans-Serif" font-size="10.00">javolution.lang.MathLib.to</text>
<text text-anchor="middle" x="1099.5" y="-103.5" font-family="Helvetica,sans-Serif" font-size="10.00">DoublePow2</text>
</a>
</g>
</g>
<!-- Node2&#45;&gt;Node10 -->
<g id="edge9" class="edge">
<title>Node2&#45;&gt;Node10</title>
<path fill="none" stroke="midnightblue" d="M1267.64,-197.01C1245.83,-181.64 1210.64,-158.05 1178,-141.5 1167.19,-136.02 1155.13,-130.91 1143.8,-126.51"/>
<polygon fill="midnightblue" stroke="midnightblue" points="1265.67,-199.9 1275.85,-202.85 1269.73,-194.2 1265.67,-199.9"/>
</g>
<!-- Node19 -->
<g id="node19" class="node">
<title>Node19</title>
<g id="a_node19"><a xlink:href="../../d4/d14/classjavolution_1_1lang_1_1MathLib.html#a4bc8f6ec5d471684af845ffe288c4389" target="_top" xlink:title=" ">
<polygon fill="white" stroke="black" points="823.5,-265.5 823.5,-295.5 967.5,-295.5 967.5,-265.5 823.5,-265.5"/>
<text text-anchor="start" x="831.5" y="-283.5" font-family="Helvetica,sans-Serif" font-size="10.00">javolution.lang.MathLib.to</text>
<text text-anchor="middle" x="895.5" y="-272.5" font-family="Helvetica,sans-Serif" font-size="10.00">LongPow10</text>
</a>
</g>
</g>
<!-- Node2&#45;&gt;Node19 -->
<g id="edge20" class="edge">
<title>Node2&#45;&gt;Node19</title>
<path fill="none" stroke="midnightblue" d="M1271.91,-229.2C1251.52,-247.84 1215.45,-276.91 1178,-288.5 1108.88,-309.9 1025.59,-303.88 967.62,-294.99"/>
<polygon fill="midnightblue" stroke="midnightblue" points="1274.51,-231.56 1279.41,-222.16 1269.72,-226.45 1274.51,-231.56"/>
</g>
<!-- Node20 -->
<g id="node20" class="node">
<title>Node20</title>
<g id="a_node20"><a xlink:href="../../d4/d14/classjavolution_1_1lang_1_1MathLib.html#a40c25c0280c1c21b3e79742992473aba" target="_top" xlink:title=" ">
<polygon fill="white" stroke="black" points="1027.5,-47.5 1027.5,-77.5 1171.5,-77.5 1171.5,-47.5 1027.5,-47.5"/>
<text text-anchor="start" x="1035.5" y="-65.5" font-family="Helvetica,sans-Serif" font-size="10.00">javolution.lang.MathLib.to</text>
<text text-anchor="middle" x="1099.5" y="-54.5" font-family="Helvetica,sans-Serif" font-size="10.00">LongPow2</text>
</a>
</g>
</g>
<!-- Node2&#45;&gt;Node20 -->
<g id="edge22" class="edge">
<title>Node2&#45;&gt;Node20</title>
<path fill="none" stroke="midnightblue" d="M1277.58,-194.04C1259.69,-166.62 1222.44,-115.27 1178,-86.5 1172.68,-83.06 1166.83,-80.08 1160.81,-77.52"/>
<polygon fill="midnightblue" stroke="midnightblue" points="1274.76,-196.12 1283.09,-202.67 1280.66,-192.36 1274.76,-196.12"/>
</g>
<!-- Node5 -->
<g id="node5" class="node">
<title>Node5</title>
<g id="a_node5"><a xlink:href="../../d4/d14/classjavolution_1_1lang_1_1MathLib.html#a25a26d976529724d834c2f68b3b8ca7c" target="_top" xlink:title=" ">
<polygon fill="white" stroke="black" points="603,-140.5 603,-170.5 759,-170.5 759,-140.5 603,-140.5"/>
<text text-anchor="start" x="611" y="-158.5" font-family="Helvetica,sans-Serif" font-size="10.00">javolution.lang.MathLib.floor</text>
<text text-anchor="middle" x="681" y="-147.5" font-family="Helvetica,sans-Serif" font-size="10.00">Log10</text>
</a>
</g>
</g>
<!-- Node4&#45;&gt;Node5 -->
<g id="edge4" class="edge">
<title>Node4&#45;&gt;Node5</title>
<path fill="none" stroke="midnightblue" d="M795.7,-155.5C783.47,-155.5 771.11,-155.5 759.28,-155.5"/>
<polygon fill="midnightblue" stroke="midnightblue" points="795.92,-159 805.92,-155.5 795.92,-152 795.92,-159"/>
</g>
<!-- Node6 -->
<g id="node6" class="node">
<title>Node6</title>
<g id="a_node6"><a xlink:href="../../d2/d7a/classjavolution_1_1text_1_1TextBuilder.html#a219668adaa1f5259f707c6dd8f426fab" target="_top" xlink:title=" ">
<polygon fill="white" stroke="black" points="372,-148 372,-167 556,-167 556,-148 372,-148"/>
<text text-anchor="middle" x="464" y="-155" font-family="Helvetica,sans-Serif" font-size="10.00">javolution.text.TextBuilder.append</text>
</a>
</g>
</g>
<!-- Node5&#45;&gt;Node6 -->
<g id="edge5" class="edge">
<title>Node5&#45;&gt;Node6</title>
<path fill="none" stroke="midnightblue" d="M592.91,-156.31C580.8,-156.42 568.33,-156.54 556.14,-156.65"/>
<polygon fill="midnightblue" stroke="midnightblue" points="593.02,-159.81 602.99,-156.22 592.96,-152.81 593.02,-159.81"/>
</g>
<!-- Node11 -->
<g id="node11" class="node">
<title>Node11</title>
<g id="a_node11"><a xlink:href="../../d4/d14/classjavolution_1_1lang_1_1MathLib.html#a5f4e3f66673eead84cc1e6d0b17354b4" target="_top" xlink:title=" ">
<polygon fill="white" stroke="black" points="823.5,-96.5 823.5,-126.5 967.5,-126.5 967.5,-96.5 823.5,-96.5"/>
<text text-anchor="start" x="831.5" y="-114.5" font-family="Helvetica,sans-Serif" font-size="10.00">javolution.lang.MathLib.to</text>
<text text-anchor="middle" x="895.5" y="-103.5" font-family="Helvetica,sans-Serif" font-size="10.00">DoublePow10</text>
</a>
</g>
</g>
<!-- Node10&#45;&gt;Node11 -->
<g id="edge10" class="edge">
<title>Node10&#45;&gt;Node11</title>
<path fill="none" stroke="midnightblue" d="M1017.2,-111.5C1000.83,-111.5 983.75,-111.5 967.76,-111.5"/>
<polygon fill="midnightblue" stroke="midnightblue" points="1017.28,-115 1027.28,-111.5 1017.28,-108 1017.28,-115"/>
</g>
<!-- Node11&#45;&gt;Node5 -->
<g id="edge12" class="edge">
<title>Node11&#45;&gt;Node5</title>
<path fill="none" stroke="midnightblue" d="M813.48,-128.28C794.18,-132.27 773.7,-136.51 754.8,-140.43"/>
<polygon fill="midnightblue" stroke="midnightblue" points="814.36,-131.67 823.45,-126.21 812.94,-124.81 814.36,-131.67"/>
</g>
<!-- Node11&#45;&gt;Node6 -->
<g id="edge11" class="edge">
<title>Node11&#45;&gt;Node6</title>
<path fill="none" stroke="midnightblue" d="M812.96,-113.38C751.89,-115.58 666.42,-120.31 592,-130.5 583.65,-131.64 541.74,-140.66 508.32,-147.96"/>
<polygon fill="midnightblue" stroke="midnightblue" points="813.43,-116.87 823.31,-113.03 813.19,-109.87 813.43,-116.87"/>
</g>
<!-- Node12 -->
<g id="node12" class="node">
<title>Node12</title>
<g id="a_node12"><a xlink:href="../../d2/d86/classjavolution_1_1text_1_1TypeFormat.html#ab24656881d415e357f45b6900f43fff2" target="_top" xlink:title=" ">
<polygon fill="white" stroke="black" points="592,-51.5 592,-81.5 770,-81.5 770,-51.5 592,-51.5"/>
<text text-anchor="start" x="600" y="-69.5" font-family="Helvetica,sans-Serif" font-size="10.00">javolution.text.TypeFormat.parse</text>
<text text-anchor="middle" x="681" y="-58.5" font-family="Helvetica,sans-Serif" font-size="10.00">Double</text>
</a>
</g>
</g>
<!-- Node11&#45;&gt;Node12 -->
<g id="edge13" class="edge">
<title>Node11&#45;&gt;Node12</title>
<path fill="none" stroke="midnightblue" d="M813.47,-94.34C793.56,-90.12 772.39,-85.64 752.99,-81.53"/>
<polygon fill="midnightblue" stroke="midnightblue" points="812.94,-97.81 823.45,-96.45 814.39,-90.96 812.94,-97.81"/>
</g>
<!-- Node13 -->
<g id="node13" class="node">
<title>Node13</title>
<g id="a_node13"><a xlink:href="../../d2/d86/classjavolution_1_1text_1_1TypeFormat.html#a28f2dabc932f28c6c553d6f09464617b" target="_top" xlink:title=" ">
<polygon fill="white" stroke="black" points="375,-49.5 375,-79.5 553,-79.5 553,-49.5 375,-49.5"/>
<text text-anchor="start" x="383" y="-67.5" font-family="Helvetica,sans-Serif" font-size="10.00">javolution.text.TypeFormat.parse</text>
<text text-anchor="middle" x="464" y="-56.5" font-family="Helvetica,sans-Serif" font-size="10.00">Double</text>
</a>
</g>
</g>
<!-- Node12&#45;&gt;Node13 -->
<g id="edge14" class="edge">
<title>Node12&#45;&gt;Node13</title>
<path fill="none" stroke="midnightblue" d="M581.7,-65.59C572.22,-65.5 562.65,-65.41 553.28,-65.32"/>
<polygon fill="midnightblue" stroke="midnightblue" points="581.9,-69.09 591.93,-65.68 581.96,-62.09 581.9,-69.09"/>
</g>
<!-- Node14 -->
<g id="node14" class="node">
<title>Node14</title>
<g id="a_node14"><a xlink:href="../../d2/d86/classjavolution_1_1text_1_1TypeFormat.html#ad63d37016561d5062c65518ac58c00c5" target="_top" xlink:title=" ">
<polygon fill="white" stroke="black" points="375,-0.5 375,-30.5 553,-30.5 553,-0.5 375,-0.5"/>
<text text-anchor="start" x="383" y="-18.5" font-family="Helvetica,sans-Serif" font-size="10.00">javolution.text.TypeFormat.parse</text>
<text text-anchor="middle" x="464" y="-7.5" font-family="Helvetica,sans-Serif" font-size="10.00">Float</text>
</a>
</g>
</g>
<!-- Node12&#45;&gt;Node14 -->
<g id="edge15" class="edge">
<title>Node12&#45;&gt;Node14</title>
<path fill="none" stroke="midnightblue" d="M606.68,-49.11C581.2,-43.06 552.86,-36.34 528.26,-30.51"/>
<polygon fill="midnightblue" stroke="midnightblue" points="606.12,-52.57 616.66,-51.47 607.73,-45.76 606.12,-52.57"/>
</g>
<!-- Node17 -->
<g id="node17" class="node">
<title>Node17</title>
<g id="a_node17"><a xlink:href="../../d0/d36/classjavolution_1_1text_1_1CharArray.html#ad06c5b9db5efd84e5b6bd83c56a7a7b4" target="_top" xlink:title=" ">
<polygon fill="white" stroke="black" points="388.5,-98.5 388.5,-128.5 539.5,-128.5 539.5,-98.5 388.5,-98.5"/>
<text text-anchor="start" x="396.5" y="-116.5" font-family="Helvetica,sans-Serif" font-size="10.00">javolution.text.CharArray.to</text>
<text text-anchor="middle" x="464" y="-105.5" font-family="Helvetica,sans-Serif" font-size="10.00">Double</text>
</a>
</g>
</g>
<!-- Node12&#45;&gt;Node17 -->
<g id="edge18" class="edge">
<title>Node12&#45;&gt;Node17</title>
<path fill="none" stroke="midnightblue" d="M601.34,-83.7C579.17,-88.54 555.24,-93.77 533.7,-98.48"/>
<polygon fill="midnightblue" stroke="midnightblue" points="602.36,-87.06 611.38,-81.5 600.86,-80.22 602.36,-87.06"/>
</g>
<!-- Node15 -->
<g id="node15" class="node">
<title>Node15</title>
<g id="a_node15"><a xlink:href="../../d0/d36/classjavolution_1_1text_1_1CharArray.html#a861ed1052b9cfed9d27bc9c5455a1c3c" target="_top" xlink:title=" ">
<polygon fill="white" stroke="black" points="185,-0.5 185,-30.5 336,-30.5 336,-0.5 185,-0.5"/>
<text text-anchor="start" x="193" y="-18.5" font-family="Helvetica,sans-Serif" font-size="10.00">javolution.text.CharArray.to</text>
<text text-anchor="middle" x="260.5" y="-7.5" font-family="Helvetica,sans-Serif" font-size="10.00">Float</text>
</a>
</g>
</g>
<!-- Node14&#45;&gt;Node15 -->
<g id="edge16" class="edge">
<title>Node14&#45;&gt;Node15</title>
<path fill="none" stroke="midnightblue" d="M364.88,-15.5C355.22,-15.5 345.54,-15.5 336.17,-15.5"/>
<polygon fill="midnightblue" stroke="midnightblue" points="364.91,-19 374.91,-15.5 364.91,-12 364.91,-19"/>
</g>
<!-- Node16 -->
<g id="node16" class="node">
<title>Node16</title>
<g id="a_node16"><a xlink:href="../../d9/d60/classjavolution_1_1xml_1_1XMLFormat_1_1InputElement.html#af3248d2031650fec287eb8dd9eb83d6f" target="_top" xlink:title=" ">
<polygon fill="white" stroke="black" points="0,-0.5 0,-30.5 149,-30.5 149,-0.5 0,-0.5"/>
<text text-anchor="start" x="8" y="-18.5" font-family="Helvetica,sans-Serif" font-size="10.00">javolution.xml.XMLFormat.</text>
<text text-anchor="middle" x="74.5" y="-7.5" font-family="Helvetica,sans-Serif" font-size="10.00">InputElement.getAttribute</text>
</a>
</g>
</g>
<!-- Node15&#45;&gt;Node16 -->
<g id="edge17" class="edge">
<title>Node15&#45;&gt;Node16</title>
<path fill="none" stroke="midnightblue" d="M174.65,-15.5C166.18,-15.5 157.63,-15.5 149.28,-15.5"/>
<polygon fill="midnightblue" stroke="midnightblue" points="174.93,-19 184.93,-15.5 174.93,-12 174.93,-19"/>
</g>
<!-- Node18 -->
<g id="node18" class="node">
<title>Node18</title>
<g id="a_node18"><a xlink:href="../../d9/d60/classjavolution_1_1xml_1_1XMLFormat_1_1InputElement.html#a0eefede90a8f3d3f7db639a28bab0dc5" target="_top" xlink:title=" ">
<polygon fill="white" stroke="black" points="186,-98.5 186,-128.5 335,-128.5 335,-98.5 186,-98.5"/>
<text text-anchor="start" x="194" y="-116.5" font-family="Helvetica,sans-Serif" font-size="10.00">javolution.xml.XMLFormat.</text>
<text text-anchor="middle" x="260.5" y="-105.5" font-family="Helvetica,sans-Serif" font-size="10.00">InputElement.getAttribute</text>
</a>
</g>
</g>
<!-- Node17&#45;&gt;Node18 -->
<g id="edge19" class="edge">
<title>Node17&#45;&gt;Node18</title>
<path fill="none" stroke="midnightblue" d="M377.97,-113.5C363.73,-113.5 349.05,-113.5 335.12,-113.5"/>
<polygon fill="midnightblue" stroke="midnightblue" points="378.26,-117 388.26,-113.5 378.26,-110 378.26,-117"/>
</g>
<!-- Node19&#45;&gt;Node6 -->
<g id="edge21" class="edge">
<title>Node19&#45;&gt;Node6</title>
<path fill="none" stroke="midnightblue" d="M832.06,-262.62C739.74,-236.18 570.02,-187.58 498.34,-167.05"/>
<polygon fill="midnightblue" stroke="midnightblue" points="831.26,-266.03 841.83,-265.42 833.18,-259.3 831.26,-266.03"/>
</g>
</g>
</svg>
        <g id="navigator" transform="translate(0 0)" fill="#404254">
                <rect fill="#f2f5e9" fill-opacity="0.5" stroke="#606060" stroke-width=".5" x="0" y="0" width="60" height="60"/>
                <use id="zoomplus" xlink:href="#zoomPlus" x="17" y="9" onmousedown="handleZoom(evt,'in')"/>
                <use id="zoomminus" xlink:href="#zoomMin" x="42" y="9" onmousedown="handleZoom(evt,'out')"/>
                <use id="reset" xlink:href="#resetDef" x="30" y="36" onmousedown="handleReset()"/>
                <g id="arrowUp" xlink:href="#dirArrow" transform="translate(30 24)" onmousedown="handlePan(0,-1)">
                  <use xlink:href="#rim" fill="#404040">
                        <set attributeName="fill" to="#808080" begin="arrowUp.mouseover" end="arrowUp.mouseout"/>
                  </use>
                  <path fill="none" stroke="white" stroke-width="1.5" d="M0,-3.0v7 M-2.5,-0.5L0,-3.0L2.5,-0.5"/>
                </g>
                <g id="arrowRight" xlink:href="#dirArrow" transform="rotate(90) translate(36 -43)" onmousedown="handlePan(1,0)">
                  <use xlink:href="#rim" fill="#404040">
                        <set attributeName="fill" to="#808080" begin="arrowRight.mouseover" end="arrowRight.mouseout"/>
                  </use>
                  <path fill="none" stroke="white" stroke-width="1.5" d="M0,-3.0v7 M-2.5,-0.5L0,-3.0L2.5,-0.5"/>
                </g>
                <g id="arrowDown" xlink:href="#dirArrow" transform="rotate(180) translate(-30 -48)" onmousedown="handlePan(0,1)">
                  <use xlink:href="#rim" fill="#404040">
                        <set attributeName="fill" to="#808080" begin="arrowDown.mouseover" end="arrowDown.mouseout"/>
                  </use>
                  <path fill="none" stroke="white" stroke-width="1.5" d="M0,-3.0v7 M-2.5,-0.5L0,-3.0L2.5,-0.5"/>
                </g>
                <g id="arrowLeft" xlink:href="#dirArrow" transform="rotate(270) translate(-36 17)" onmousedown="handlePan(-1,0)">
                  <use xlink:href="#rim" fill="#404040">
                        <set attributeName="fill" to="#808080" begin="arrowLeft.mouseover" end="arrowLeft.mouseout"/>
                  </use>
                  <path fill="none" stroke="white" stroke-width="1.5" d="M0,-3.0v7 M-2.5,-0.5L0,-3.0L2.5,-0.5"/>
                </g>
        </g>
        <svg viewBox="0 0 15 15" width="100%" height="30px" preserveAspectRatio="xMaxYMin meet">
         <g id="arrow_out" transform="scale(0.3 0.3)">
          <a xlink:href="classjavolution_1_1lang_1_1MathLib_a6c237605180b786b4eddbeb45925ccff_icgraph_org.svg" target="_base">
           <rect id="button" ry="5" rx="5" y="6" x="6" height="38" width="38"
                fill="#f2f5e9" fill-opacity="0.5" stroke="#606060" stroke-width="1.0"/>
           <path id="arrow"
             d="M 11.500037,31.436501 C 11.940474,20.09759 22.043105,11.32322 32.158766,21.979434 L 37.068811,17.246167 C 37.068811,17.246167 37.088388,32 37.088388,32 L 22.160133,31.978069 C 22.160133,31.978069 26.997745,27.140456 26.997745,27.140456 C 18.528582,18.264221 13.291696,25.230495 11.500037,31.436501 z"
             style="fill:#404040;"/>
          </a>
         </g>
        </svg>
</svg>
