<?xml version="1.0" encoding="UTF-8" standalone="no"?>
<!DOCTYPE svg PUBLIC "-//W3C//DTD SVG 1.1//EN"
 "http://www.w3.org/Graphics/SVG/1.1/DTD/svg11.dtd">
<!-- Generated by graphviz version 2.43.0 (0)
 -->
<!-- Title: javolution.xml.internal.stream.NamespacesImpl Pages: 1 -->
<svg width="674pt" height="318pt"
 viewBox="0.00 0.00 673.50 318.00" xmlns="http://www.w3.org/2000/svg" xmlns:xlink="http://www.w3.org/1999/xlink">
<g id="graph0" class="graph" transform="scale(1 1) rotate(0) translate(4 314)">
<title>javolution.xml.internal.stream.NamespacesImpl</title>
<polygon fill="white" stroke="transparent" points="-4,4 -4,-314 669.5,-314 669.5,4 -4,4"/>
<!-- Node1 -->
<g id="node1" class="node">
<title>Node1</title>
<g id="a_node1"><a xlink:title=" ">
<polygon fill="#bfbfbf" stroke="black" points="206.5,-0.5 206.5,-30.5 374.5,-30.5 374.5,-0.5 206.5,-0.5"/>
<text text-anchor="start" x="214.5" y="-18.5" font-family="Helvetica,sans-Serif" font-size="10.00">javolution.xml.internal.stream.</text>
<text text-anchor="middle" x="290.5" y="-7.5" font-family="Helvetica,sans-Serif" font-size="10.00">NamespacesImpl</text>
</a>
</g>
</g>
<!-- Node2 -->
<g id="node2" class="node">
<title>Node2</title>
<g id="a_node2"><a xlink:href="../../da/dd1/interfacejavolution_1_1xml_1_1stream_1_1NamespaceContext.html" target="_top" xlink:title=" ">
<polygon fill="white" stroke="black" points="0,-195 0,-225 185,-225 185,-195 0,-195"/>
<text text-anchor="start" x="8" y="-213" font-family="Helvetica,sans-Serif" font-size="10.00">javolution.xml.stream.Namespace</text>
<text text-anchor="middle" x="92.5" y="-202" font-family="Helvetica,sans-Serif" font-size="10.00">Context</text>
</a>
</g>
</g>
<!-- Node2&#45;&gt;Node1 -->
<g id="edge1" class="edge">
<title>Node2&#45;&gt;Node1</title>
<path fill="none" stroke="midnightblue" d="M103.7,-185.7C121.31,-151.32 158.57,-87.01 207.5,-49 217.4,-41.31 229.34,-35.23 241.05,-30.52"/>
<polygon fill="midnightblue" stroke="midnightblue" points="100.42,-184.44 99.07,-194.95 106.68,-187.57 100.42,-184.44"/>
</g>
<!-- Node3 -->
<g id="node3" class="node">
<title>Node3</title>
<g id="a_node3"><a xlink:title=" ">
<polygon fill="white" stroke="#bfbfbf" points="221,-290.5 221,-309.5 250,-309.5 250,-290.5 221,-290.5"/>
<text text-anchor="middle" x="235.5" y="-297.5" font-family="Helvetica,sans-Serif" font-size="10.00">int</text>
</a>
</g>
</g>
<!-- Node3&#45;&gt;Node1 -->
<g id="edge2" class="edge">
<title>Node3&#45;&gt;Node1</title>
<path fill="none" stroke="#9a32cd" stroke-dasharray="5,2" d="M233.71,-280.02C232.53,-266.62 231.1,-248.23 230.5,-232 229.77,-212.46 227.22,-207.28 230.5,-188 240.8,-127.36 270.22,-59.59 283.66,-30.74"/>
<polygon fill="#9a32cd" stroke="#9a32cd" points="230.25,-280.7 234.65,-290.34 237.22,-280.06 230.25,-280.7"/>
<text text-anchor="middle" x="310.5" y="-224" font-family="Helvetica,sans-Serif" font-size="10.00"> _nesting</text>
<text text-anchor="middle" x="310.5" y="-213" font-family="Helvetica,sans-Serif" font-size="10.00">_defaultNamespaceIndex</text>
<text text-anchor="middle" x="310.5" y="-202" font-family="Helvetica,sans-Serif" font-size="10.00">NBR_PREDEFINED_NAMESPACES</text>
<text text-anchor="middle" x="310.5" y="-191" font-family="Helvetica,sans-Serif" font-size="10.00">_namespacesCount</text>
</g>
<!-- Node4 -->
<g id="node4" class="node">
<title>Node4</title>
<g id="a_node4"><a xlink:href="../../d0/d36/classjavolution_1_1text_1_1CharArray.html" target="_top" xlink:title=" ">
<polygon fill="white" stroke="black" points="399.5,-200.5 399.5,-219.5 539.5,-219.5 539.5,-200.5 399.5,-200.5"/>
<text text-anchor="middle" x="469.5" y="-207.5" font-family="Helvetica,sans-Serif" font-size="10.00">javolution.text.CharArray</text>
</a>
</g>
</g>
<!-- Node3&#45;&gt;Node4 -->
<g id="edge7" class="edge">
<title>Node3&#45;&gt;Node4</title>
<path fill="none" stroke="#9a32cd" stroke-dasharray="5,2" d="M258.64,-285.38C277.51,-274.69 305.09,-260 330.5,-250 349.63,-242.47 401.29,-228.59 435.96,-219.57"/>
<polygon fill="#9a32cd" stroke="#9a32cd" points="256.81,-282.4 249.88,-290.41 260.29,-288.47 256.81,-282.4"/>
<text text-anchor="middle" x="349" y="-264" font-family="Helvetica,sans-Serif" font-size="10.00"> _offset</text>
<text text-anchor="middle" x="349" y="-253" font-family="Helvetica,sans-Serif" font-size="10.00">_length</text>
</g>
<!-- Node4&#45;&gt;Node1 -->
<g id="edge3" class="edge">
<title>Node4&#45;&gt;Node1</title>
<path fill="none" stroke="#9a32cd" stroke-dasharray="5,2" d="M454.71,-193.09C420.44,-156.24 336.08,-65.52 303.57,-30.56"/>
<polygon fill="#9a32cd" stroke="#9a32cd" points="452.2,-195.54 461.58,-200.48 457.33,-190.77 452.2,-195.54"/>
<text text-anchor="middle" x="479.5" y="-162" font-family="Helvetica,sans-Serif" font-size="10.00"> _prefixesTmp</text>
<text text-anchor="middle" x="479.5" y="-151" font-family="Helvetica,sans-Serif" font-size="10.00">_namespaces</text>
<text text-anchor="middle" x="479.5" y="-140" font-family="Helvetica,sans-Serif" font-size="10.00">_prefixes</text>
<text text-anchor="middle" x="479.5" y="-129" font-family="Helvetica,sans-Serif" font-size="10.00">_xmlnsURI</text>
<text text-anchor="middle" x="479.5" y="-118" font-family="Helvetica,sans-Serif" font-size="10.00">_nullNsURI</text>
<text text-anchor="middle" x="479.5" y="-107" font-family="Helvetica,sans-Serif" font-size="10.00">_defaultNamespace</text>
<text text-anchor="middle" x="479.5" y="-96" font-family="Helvetica,sans-Serif" font-size="10.00">_xml</text>
<text text-anchor="middle" x="479.5" y="-85" font-family="Helvetica,sans-Serif" font-size="10.00">_defaultNsPrefix</text>
<text text-anchor="middle" x="479.5" y="-74" font-family="Helvetica,sans-Serif" font-size="10.00">_xmlns</text>
<text text-anchor="middle" x="479.5" y="-63" font-family="Helvetica,sans-Serif" font-size="10.00">_xmlURI</text>
<text text-anchor="middle" x="479.5" y="-52" font-family="Helvetica,sans-Serif" font-size="10.00">...</text>
</g>
<!-- Node5 -->
<g id="node5" class="node">
<title>Node5</title>
<g id="a_node5"><a xlink:title=" ">
<polygon fill="white" stroke="#bfbfbf" points="281.5,-290.5 281.5,-309.5 367.5,-309.5 367.5,-290.5 281.5,-290.5"/>
<text text-anchor="middle" x="324.5" y="-297.5" font-family="Helvetica,sans-Serif" font-size="10.00">CharSequence</text>
</a>
</g>
</g>
<!-- Node5&#45;&gt;Node4 -->
<g id="edge4" class="edge">
<title>Node5&#45;&gt;Node4</title>
<path fill="none" stroke="midnightblue" d="M347.31,-285.15C377.67,-266.73 430.42,-234.72 455.49,-219.5"/>
<polygon fill="midnightblue" stroke="midnightblue" points="345.4,-282.22 338.67,-290.4 349.03,-288.21 345.4,-282.22"/>
</g>
<!-- Node6 -->
<g id="node6" class="node">
<title>Node6</title>
<g id="a_node6"><a xlink:href="../../db/d26/classComparable.html" target="_top" xlink:title=" ">
<polygon fill="white" stroke="black" points="385.5,-290.5 385.5,-309.5 553.5,-309.5 553.5,-290.5 385.5,-290.5"/>
<text text-anchor="middle" x="469.5" y="-297.5" font-family="Helvetica,sans-Serif" font-size="10.00">Comparable&lt; CharSequence &gt;</text>
</a>
</g>
</g>
<!-- Node6&#45;&gt;Node4 -->
<g id="edge5" class="edge">
<title>Node6&#45;&gt;Node4</title>
<path fill="none" stroke="midnightblue" d="M469.5,-279.98C469.5,-261.31 469.5,-233.67 469.5,-219.72"/>
<polygon fill="midnightblue" stroke="midnightblue" points="466,-280.24 469.5,-290.24 473,-280.24 466,-280.24"/>
</g>
<!-- Node7 -->
<g id="node7" class="node">
<title>Node7</title>
<g id="a_node7"><a xlink:title=" ">
<polygon fill="white" stroke="#bfbfbf" points="571.5,-290.5 571.5,-309.5 609.5,-309.5 609.5,-290.5 571.5,-290.5"/>
<text text-anchor="middle" x="590.5" y="-297.5" font-family="Helvetica,sans-Serif" font-size="10.00">char</text>
</a>
</g>
</g>
<!-- Node7&#45;&gt;Node4 -->
<g id="edge6" class="edge">
<title>Node7&#45;&gt;Node4</title>
<path fill="none" stroke="#9a32cd" stroke-dasharray="5,2" d="M570.27,-284.28C544.89,-265.83 502.21,-234.79 481.5,-219.72"/>
<polygon fill="#9a32cd" stroke="#9a32cd" points="568.31,-287.19 578.46,-290.24 572.43,-281.53 568.31,-287.19"/>
<text text-anchor="middle" x="576.5" y="-264" font-family="Helvetica,sans-Serif" font-size="10.00"> NO_CHAR</text>
<text text-anchor="middle" x="576.5" y="-253" font-family="Helvetica,sans-Serif" font-size="10.00">_array</text>
</g>
<!-- Node8 -->
<g id="node8" class="node">
<title>Node8</title>
<g id="a_node8"><a xlink:title=" ">
<polygon fill="white" stroke="#bfbfbf" points="557.5,-200.5 557.5,-219.5 613.5,-219.5 613.5,-200.5 557.5,-200.5"/>
<text text-anchor="middle" x="585.5" y="-207.5" font-family="Helvetica,sans-Serif" font-size="10.00">boolean</text>
</a>
</g>
</g>
<!-- Node8&#45;&gt;Node1 -->
<g id="edge8" class="edge">
<title>Node8&#45;&gt;Node1</title>
<path fill="none" stroke="#9a32cd" stroke-dasharray="5,2" d="M585.3,-189.94C583.81,-155.83 575.42,-84.58 532.5,-49 508.88,-29.42 434.6,-21.59 374.5,-18.48"/>
<polygon fill="#9a32cd" stroke="#9a32cd" points="581.81,-190.44 585.58,-200.34 588.8,-190.25 581.81,-190.44"/>
<text text-anchor="middle" x="624" y="-107" font-family="Helvetica,sans-Serif" font-size="10.00"> _prefixesWritten</text>
</g>
</g>
</svg>
