<?xml version="1.0" encoding="UTF-8" standalone="no"?>
<!DOCTYPE svg PUBLIC "-//W3C//DTD SVG 1.1//EN"
 "http://www.w3.org/Graphics/SVG/1.1/DTD/svg11.dtd">
<!-- Generated by graphviz version 2.43.0 (0)
 -->
<!-- Title: javolution.xml.XMLReferenceResolver Pages: 1 -->
<svg width="659pt" height="427pt"
 viewBox="0.00 0.00 659.00 426.69" xmlns="http://www.w3.org/2000/svg" xmlns:xlink="http://www.w3.org/1999/xlink">
<g id="graph0" class="graph" transform="scale(1 1) rotate(0) translate(4 422.69)">
<title>javolution.xml.XMLReferenceResolver</title>
<polygon fill="white" stroke="transparent" points="-4,4 -4,-422.69 655,-422.69 655,4 -4,4"/>
<!-- Node1 -->
<g id="node1" class="node">
<title>Node1</title>
<g id="a_node1"><a xlink:title=" ">
<polygon fill="#bfbfbf" stroke="black" points="490,-296.69 490,-326.69 651,-326.69 651,-296.69 490,-296.69"/>
<text text-anchor="start" x="498" y="-314.69" font-family="Helvetica,sans-Serif" font-size="10.00">javolution.xml.XMLReference</text>
<text text-anchor="middle" x="570.5" y="-303.69" font-family="Helvetica,sans-Serif" font-size="10.00">Resolver</text>
</a>
</g>
</g>
<!-- Node2 -->
<g id="node2" class="node">
<title>Node2</title>
<g id="a_node2"><a xlink:title=" ">
<polygon fill="white" stroke="#bfbfbf" points="284.5,-391.19 284.5,-410.19 329.5,-410.19 329.5,-391.19 284.5,-391.19"/>
<text text-anchor="middle" x="307" y="-398.19" font-family="Helvetica,sans-Serif" font-size="10.00">String</text>
</a>
</g>
</g>
<!-- Node2&#45;&gt;Node1 -->
<g id="edge1" class="edge">
<title>Node2&#45;&gt;Node1</title>
<path fill="none" stroke="#9a32cd" stroke-dasharray="5,2" d="M339.89,-394.74C356.21,-391.42 376.31,-386.91 394,-381.69 445.29,-366.57 502.41,-342.33 537.15,-326.71"/>
<polygon fill="#9a32cd" stroke="#9a32cd" points="338.9,-391.37 329.77,-396.75 340.26,-398.24 338.9,-391.37"/>
<text text-anchor="middle" x="442" y="-410.69" font-family="Helvetica,sans-Serif" font-size="10.00"> _refURI</text>
<text text-anchor="middle" x="442" y="-399.69" font-family="Helvetica,sans-Serif" font-size="10.00">_idURI</text>
<text text-anchor="middle" x="442" y="-388.69" font-family="Helvetica,sans-Serif" font-size="10.00">_idName</text>
<text text-anchor="middle" x="442" y="-377.69" font-family="Helvetica,sans-Serif" font-size="10.00">_refName</text>
</g>
<!-- Node3 -->
<g id="node3" class="node">
<title>Node3</title>
<g id="a_node3"><a xlink:href="../../da/dd1/classjavolution_1_1util_1_1FastTable.html" target="_top" xlink:title=" ">
<polygon fill="white" stroke="black" points="241,-341.69 241,-371.69 373,-371.69 373,-341.69 241,-341.69"/>
<text text-anchor="start" x="249" y="-359.69" font-family="Helvetica,sans-Serif" font-size="10.00">javolution.util.FastTable</text>
<text text-anchor="middle" x="307" y="-348.69" font-family="Helvetica,sans-Serif" font-size="10.00">&lt; Object &gt;</text>
</a>
</g>
</g>
<!-- Node3&#45;&gt;Node1 -->
<g id="edge2" class="edge">
<title>Node3&#45;&gt;Node1</title>
<path fill="none" stroke="#9a32cd" stroke-dasharray="5,2" d="M383.44,-343.71C416.72,-337.98 455.85,-331.25 489.62,-325.44"/>
<polygon fill="#9a32cd" stroke="#9a32cd" points="382.57,-340.31 373.31,-345.45 383.76,-347.21 382.57,-340.31"/>
<text text-anchor="middle" x="442" y="-340.69" font-family="Helvetica,sans-Serif" font-size="10.00"> _idToObject</text>
</g>
<!-- Node4 -->
<g id="node4" class="node">
<title>Node4</title>
<g id="a_node4"><a xlink:title=" ">
<polygon fill="white" stroke="#bfbfbf" points="35,-265.19 35,-284.19 64,-284.19 64,-265.19 35,-265.19"/>
<text text-anchor="middle" x="49.5" y="-272.19" font-family="Helvetica,sans-Serif" font-size="10.00">int</text>
</a>
</g>
</g>
<!-- Node4&#45;&gt;Node1 -->
<g id="edge3" class="edge">
<title>Node4&#45;&gt;Node1</title>
<path fill="none" stroke="#9a32cd" stroke-dasharray="5,2" d="M73.46,-284.56C86.06,-289.48 102.12,-294.95 117,-297.69 245.9,-321.41 398.86,-320.17 489.85,-316.42"/>
<polygon fill="#9a32cd" stroke="#9a32cd" points="74.76,-281.31 64.18,-280.79 72.13,-287.8 74.76,-281.31"/>
<text text-anchor="middle" x="307" y="-320.69" font-family="Helvetica,sans-Serif" font-size="10.00"> _counter</text>
</g>
<!-- Node5 -->
<g id="node5" class="node">
<title>Node5</title>
<g id="a_node5"><a xlink:href="../../d2/d7a/classjavolution_1_1text_1_1TextBuilder.html" target="_top" xlink:title=" ">
<polygon fill="white" stroke="black" points="234,-152.19 234,-171.19 380,-171.19 380,-152.19 234,-152.19"/>
<text text-anchor="middle" x="307" y="-159.19" font-family="Helvetica,sans-Serif" font-size="10.00">javolution.text.TextBuilder</text>
</a>
</g>
</g>
<!-- Node4&#45;&gt;Node5 -->
<g id="edge9" class="edge">
<title>Node4&#45;&gt;Node5</title>
<path fill="none" stroke="#9a32cd" stroke-dasharray="5,2" d="M67.38,-257.6C80.03,-245.68 98.32,-230.25 117,-220.69 151.84,-202.86 164.6,-209.21 202,-197.69 228.84,-189.43 259.15,-178.78 280.09,-171.22"/>
<polygon fill="#9a32cd" stroke="#9a32cd" points="64.66,-255.35 59.93,-264.83 69.54,-260.38 64.66,-255.35"/>
<text text-anchor="middle" x="159.5" y="-289.69" font-family="Helvetica,sans-Serif" font-size="10.00"> B1</text>
<text text-anchor="middle" x="159.5" y="-278.69" font-family="Helvetica,sans-Serif" font-size="10.00">_capacity</text>
<text text-anchor="middle" x="159.5" y="-267.69" font-family="Helvetica,sans-Serif" font-size="10.00">_length</text>
<text text-anchor="middle" x="159.5" y="-256.69" font-family="Helvetica,sans-Serif" font-size="10.00">M1</text>
<text text-anchor="middle" x="159.5" y="-245.69" font-family="Helvetica,sans-Serif" font-size="10.00">C0</text>
<text text-anchor="middle" x="159.5" y="-234.69" font-family="Helvetica,sans-Serif" font-size="10.00">C1</text>
<text text-anchor="middle" x="159.5" y="-223.69" font-family="Helvetica,sans-Serif" font-size="10.00">B0</text>
</g>
<!-- Node5&#45;&gt;Node1 -->
<g id="edge4" class="edge">
<title>Node5&#45;&gt;Node1</title>
<path fill="none" stroke="#9a32cd" stroke-dasharray="5,2" d="M333.61,-176.38C383.4,-204.94 492.79,-267.69 543.16,-296.58"/>
<polygon fill="#9a32cd" stroke="#9a32cd" points="335.17,-173.24 324.76,-171.3 331.69,-179.32 335.17,-173.24"/>
<text text-anchor="middle" x="442" y="-256.69" font-family="Helvetica,sans-Serif" font-size="10.00"> _tmp</text>
</g>
<!-- Node6 -->
<g id="node6" class="node">
<title>Node6</title>
<g id="a_node6"><a xlink:title=" ">
<polygon fill="white" stroke="#bfbfbf" points="12.5,-192.19 12.5,-211.19 86.5,-211.19 86.5,-192.19 12.5,-192.19"/>
<text text-anchor="middle" x="49.5" y="-199.19" font-family="Helvetica,sans-Serif" font-size="10.00">Appendable</text>
</a>
</g>
</g>
<!-- Node6&#45;&gt;Node5 -->
<g id="edge5" class="edge">
<title>Node6&#45;&gt;Node5</title>
<path fill="none" stroke="midnightblue" d="M96.67,-194.46C138.19,-187.96 199.48,-178.37 245.02,-171.24"/>
<polygon fill="midnightblue" stroke="midnightblue" points="95.9,-191.04 86.57,-196.05 96.99,-197.96 95.9,-191.04"/>
</g>
<!-- Node7 -->
<g id="node7" class="node">
<title>Node7</title>
<g id="a_node7"><a xlink:title=" ">
<polygon fill="white" stroke="#bfbfbf" points="6.5,-154.19 6.5,-173.19 92.5,-173.19 92.5,-154.19 6.5,-154.19"/>
<text text-anchor="middle" x="49.5" y="-161.19" font-family="Helvetica,sans-Serif" font-size="10.00">CharSequence</text>
</a>
</g>
</g>
<!-- Node7&#45;&gt;Node5 -->
<g id="edge6" class="edge">
<title>Node7&#45;&gt;Node5</title>
<path fill="none" stroke="midnightblue" d="M102.98,-163.28C140.8,-162.99 192.32,-162.58 233.99,-162.26"/>
<polygon fill="midnightblue" stroke="midnightblue" points="102.66,-159.78 92.69,-163.36 102.72,-166.78 102.66,-159.78"/>
</g>
<!-- Node8 -->
<g id="node8" class="node">
<title>Node8</title>
<g id="a_node8"><a xlink:title=" ">
<polygon fill="white" stroke="#bfbfbf" points="12.5,-116.19 12.5,-135.19 86.5,-135.19 86.5,-116.19 12.5,-116.19"/>
<text text-anchor="middle" x="49.5" y="-123.19" font-family="Helvetica,sans-Serif" font-size="10.00">Serializable</text>
</a>
</g>
</g>
<!-- Node8&#45;&gt;Node5 -->
<g id="edge7" class="edge">
<title>Node8&#45;&gt;Node5</title>
<path fill="none" stroke="midnightblue" d="M96.47,-132.17C136.04,-137.74 193.67,-145.86 238.48,-152.18"/>
<polygon fill="midnightblue" stroke="midnightblue" points="96.96,-128.7 86.57,-130.77 95.98,-135.63 96.96,-128.7"/>
</g>
<!-- Node9 -->
<g id="node9" class="node">
<title>Node9</title>
<g id="a_node9"><a xlink:title=" ">
<polygon fill="white" stroke="#bfbfbf" points="30.5,-78.19 30.5,-97.19 68.5,-97.19 68.5,-78.19 30.5,-78.19"/>
<text text-anchor="middle" x="49.5" y="-85.19" font-family="Helvetica,sans-Serif" font-size="10.00">char</text>
</a>
</g>
</g>
<!-- Node9&#45;&gt;Node5 -->
<g id="edge8" class="edge">
<title>Node9&#45;&gt;Node5</title>
<path fill="none" stroke="#9a32cd" stroke-dasharray="5,2" d="M78.73,-81.32C111.58,-75.63 165.91,-71.7 202,-97.69 219.14,-110.04 203.91,-127.99 220,-141.69 225.02,-145.97 230.78,-149.37 236.89,-152.07"/>
<polygon fill="#9a32cd" stroke="#9a32cd" points="78.04,-77.89 68.87,-83.2 79.35,-84.77 78.04,-77.89"/>
<text text-anchor="middle" x="159.5" y="-122.69" font-family="Helvetica,sans-Serif" font-size="10.00"> _low</text>
<text text-anchor="middle" x="159.5" y="-111.69" font-family="Helvetica,sans-Serif" font-size="10.00">DIGIT_TO_CHAR</text>
<text text-anchor="middle" x="159.5" y="-100.69" font-family="Helvetica,sans-Serif" font-size="10.00">_high</text>
</g>
<!-- Node10 -->
<g id="node10" class="node">
<title>Node10</title>
<g id="a_node10"><a xlink:title=" ">
<polygon fill="white" stroke="#bfbfbf" points="3.5,-40.19 3.5,-59.19 95.5,-59.19 95.5,-40.19 3.5,-40.19"/>
<text text-anchor="middle" x="49.5" y="-47.19" font-family="Helvetica,sans-Serif" font-size="10.00">static final long</text>
</a>
</g>
</g>
<!-- Node10&#45;&gt;Node5 -->
<g id="edge10" class="edge">
<title>Node10&#45;&gt;Node5</title>
<path fill="none" stroke="#9a32cd" stroke-dasharray="5,2" d="M105.71,-39.66C137.49,-37.16 176.13,-40.17 202,-62.69 229.16,-86.33 194.59,-116.17 220,-141.69 224.22,-145.93 229.15,-149.34 234.47,-152.08"/>
<polygon fill="#9a32cd" stroke="#9a32cd" points="105.27,-36.19 95.66,-40.65 105.95,-43.16 105.27,-36.19"/>
<text text-anchor="middle" x="159.5" y="-65.69" font-family="Helvetica,sans-Serif" font-size="10.00"> serialVersionUID</text>
</g>
<!-- Node11 -->
<g id="node11" class="node">
<title>Node11</title>
<g id="a_node11"><a xlink:title=" ">
<polygon fill="white" stroke="#bfbfbf" points="0,-2.19 0,-21.19 99,-21.19 99,-2.19 0,-2.19"/>
<text text-anchor="middle" x="49.5" y="-9.19" font-family="Helvetica,sans-Serif" font-size="10.00">static final long[]</text>
</a>
</g>
</g>
<!-- Node11&#45;&gt;Node5 -->
<g id="edge11" class="edge">
<title>Node11&#45;&gt;Node5</title>
<path fill="none" stroke="#9a32cd" stroke-dasharray="5,2" d="M105.64,-1.06C137.76,1.77 176.77,-1.1 202,-24.69 240.43,-60.63 184.24,-103.11 220,-141.69 223.96,-145.96 228.64,-149.41 233.74,-152.18"/>
<polygon fill="#9a32cd" stroke="#9a32cd" points="105.04,2.4 95.48,-2.16 105.8,-4.56 105.04,2.4"/>
<text text-anchor="middle" x="159.5" y="-27.69" font-family="Helvetica,sans-Serif" font-size="10.00"> POW10_LONG</text>
</g>
<!-- Node12 -->
<g id="node12" class="node">
<title>Node12</title>
<g id="a_node12"><a xlink:href="../../dd/d46/classjavolution_1_1util_1_1FastMap.html" target="_top" xlink:title=" ">
<polygon fill="white" stroke="black" points="220,-102.69 220,-132.69 394,-132.69 394,-102.69 220,-102.69"/>
<text text-anchor="start" x="228" y="-120.69" font-family="Helvetica,sans-Serif" font-size="10.00">javolution.util.FastMap</text>
<text text-anchor="middle" x="307" y="-109.69" font-family="Helvetica,sans-Serif" font-size="10.00">&lt; Object, javolution.util.Index &gt;</text>
</a>
</g>
</g>
<!-- Node12&#45;&gt;Node1 -->
<g id="edge12" class="edge">
<title>Node12&#45;&gt;Node1</title>
<path fill="none" stroke="#9a32cd" stroke-dasharray="5,2" d="M380.72,-136.46C385.29,-138.36 389.76,-140.44 394,-142.69 468.69,-182.42 533.79,-263.22 558.7,-296.67"/>
<polygon fill="#9a32cd" stroke="#9a32cd" points="381.79,-133.12 371.2,-132.78 379.27,-139.65 381.79,-133.12"/>
<text text-anchor="middle" x="442" y="-199.69" font-family="Helvetica,sans-Serif" font-size="10.00"> _objectToId</text>
</g>
</g>
</svg>
