<?xml version="1.0" encoding="UTF-8" standalone="no"?>
<!DOCTYPE svg PUBLIC "-//W3C//DTD SVG 1.1//EN"
 "http://www.w3.org/Graphics/SVG/1.1/DTD/svg11.dtd">
<!-- Generated by graphviz version 2.43.0 (0)
 -->
<!-- Title: javolution.context.LocalContext.Parameter&lt; T &gt; Pages: 1 -->
<svg width="899pt" height="210pt"
 viewBox="0.00 0.00 899.00 210.00" xmlns="http://www.w3.org/2000/svg" xmlns:xlink="http://www.w3.org/1999/xlink">
<g id="graph0" class="graph" transform="scale(1 1) rotate(0) translate(4 206)">
<title>javolution.context.LocalContext.Parameter&lt; T &gt;</title>
<polygon fill="white" stroke="transparent" points="-4,4 -4,-206 895,-206 895,4 -4,4"/>
<!-- Node1 -->
<g id="node1" class="node">
<title>Node1</title>
<g id="a_node1"><a xlink:title=" ">
<polygon fill="#bfbfbf" stroke="black" points="754,-66 754,-96 891,-96 891,-66 754,-66"/>
<text text-anchor="start" x="762" y="-84" font-family="Helvetica,sans-Serif" font-size="10.00">javolution.context.Local</text>
<text text-anchor="middle" x="822.5" y="-73" font-family="Helvetica,sans-Serif" font-size="10.00">Context.Parameter&lt; T &gt;</text>
</a>
</g>
</g>
<!-- Node2 -->
<g id="node2" class="node">
<title>Node2</title>
<g id="a_node2"><a xlink:href="../../d5/dc7/classjavolution_1_1lang_1_1Configurable.html" target="_top" xlink:title=" ">
<polygon fill="white" stroke="black" points="389.5,-120.5 389.5,-139.5 577.5,-139.5 577.5,-120.5 389.5,-120.5"/>
<text text-anchor="middle" x="483.5" y="-127.5" font-family="Helvetica,sans-Serif" font-size="10.00">javolution::lang::Configurable&lt; T &gt;</text>
</a>
</g>
</g>
<!-- Node2&#45;&gt;Node1 -->
<g id="edge1" class="edge">
<title>Node2&#45;&gt;Node1</title>
<path fill="none" stroke="midnightblue" d="M570.99,-119.16C619.55,-112.86 681.23,-104.5 736,-96 741.81,-95.1 747.83,-94.12 753.87,-93.12"/>
<polygon fill="midnightblue" stroke="midnightblue" points="570.3,-115.72 560.83,-120.47 571.2,-122.66 570.3,-115.72"/>
</g>
<!-- Node3 -->
<g id="node3" class="node">
<title>Node3</title>
<g id="a_node3"><a xlink:title=" ">
<polygon fill="white" stroke="#bfbfbf" points="77,-182.5 77,-201.5 122,-201.5 122,-182.5 77,-182.5"/>
<text text-anchor="middle" x="99.5" y="-189.5" font-family="Helvetica,sans-Serif" font-size="10.00">String</text>
</a>
</g>
</g>
<!-- Node3&#45;&gt;Node2 -->
<g id="edge2" class="edge">
<title>Node3&#45;&gt;Node2</title>
<path fill="none" stroke="#9a32cd" stroke-dasharray="5,2" d="M132.23,-189.46C181.02,-185.26 277.31,-175.84 358,-161 389.11,-155.28 424.01,-146.37 448.93,-139.56"/>
<polygon fill="#9a32cd" stroke="#9a32cd" points="131.67,-185.99 122,-190.32 132.26,-192.97 131.67,-185.99"/>
<text text-anchor="middle" x="287.5" y="-183" font-family="Helvetica,sans-Serif" font-size="10.00"> name</text>
</g>
<!-- Node4 -->
<g id="node4" class="node">
<title>Node4</title>
<g id="a_node4"><a xlink:title=" ">
<polygon fill="white" stroke="#bfbfbf" points="68.5,-144.5 68.5,-163.5 130.5,-163.5 130.5,-144.5 68.5,-144.5"/>
<text text-anchor="middle" x="99.5" y="-151.5" font-family="Helvetica,sans-Serif" font-size="10.00">volatile T</text>
</a>
</g>
</g>
<!-- Node4&#45;&gt;Node2 -->
<g id="edge3" class="edge">
<title>Node4&#45;&gt;Node2</title>
<path fill="none" stroke="#9a32cd" stroke-dasharray="5,2" d="M140.78,-151.47C199.41,-147.79 309.94,-140.84 389.44,-135.85"/>
<polygon fill="#9a32cd" stroke="#9a32cd" points="140.56,-147.98 130.79,-152.1 140.99,-154.96 140.56,-147.98"/>
<text text-anchor="middle" x="287.5" y="-149" font-family="Helvetica,sans-Serif" font-size="10.00"> value</text>
</g>
<!-- Node5 -->
<g id="node5" class="node">
<title>Node5</title>
<g id="a_node5"><a xlink:href="../../d6/d3b/classjavolution_1_1context_1_1SecurityContext_1_1Permission.html" target="_top" xlink:title=" ">
<polygon fill="white" stroke="black" points="0,-84.5 0,-125.5 199,-125.5 199,-84.5 0,-84.5"/>
<text text-anchor="start" x="8" y="-113.5" font-family="Helvetica,sans-Serif" font-size="10.00">javolution.context.Security</text>
<text text-anchor="start" x="8" y="-102.5" font-family="Helvetica,sans-Serif" font-size="10.00">Context.Permission&lt; javolution.lang.</text>
<text text-anchor="middle" x="99.5" y="-91.5" font-family="Helvetica,sans-Serif" font-size="10.00">Configurable&lt;?&gt; &gt;</text>
</a>
</g>
</g>
<!-- Node5&#45;&gt;Node2 -->
<g id="edge4" class="edge">
<title>Node5&#45;&gt;Node2</title>
<path fill="none" stroke="#9a32cd" stroke-dasharray="5,2" d="M209.47,-112.13C266.26,-115.85 335,-120.35 389.3,-123.9"/>
<polygon fill="#9a32cd" stroke="#9a32cd" points="209.58,-108.63 199.37,-111.47 209.12,-115.62 209.58,-108.63"/>
<text text-anchor="middle" x="287.5" y="-124" font-family="Helvetica,sans-Serif" font-size="10.00"> RECONFIGURE_PERMISSION</text>
</g>
<!-- Node6 -->
<g id="node6" class="node">
<title>Node6</title>
<g id="a_node6"><a xlink:href="../../d6/d3b/classjavolution_1_1context_1_1SecurityContext_1_1Permission.html" target="_top" xlink:title=" ">
<polygon fill="white" stroke="black" points="0,-24.5 0,-65.5 199,-65.5 199,-24.5 0,-24.5"/>
<text text-anchor="start" x="8" y="-53.5" font-family="Helvetica,sans-Serif" font-size="10.00">javolution.context.Security</text>
<text text-anchor="start" x="8" y="-42.5" font-family="Helvetica,sans-Serif" font-size="10.00">Context.Permission&lt; javolution.lang.</text>
<text text-anchor="middle" x="99.5" y="-31.5" font-family="Helvetica,sans-Serif" font-size="10.00">Configurable&lt; T &gt; &gt;</text>
</a>
</g>
</g>
<!-- Node6&#45;&gt;Node2 -->
<g id="edge5" class="edge">
<title>Node6&#45;&gt;Node2</title>
<path fill="none" stroke="#9a32cd" stroke-dasharray="5,2" d="M209.1,-56.95C256.27,-64.75 311.29,-77.46 358,-98 367.03,-101.97 366.91,-107.15 376,-111 385.16,-114.89 395.1,-117.98 405.09,-120.44"/>
<polygon fill="#9a32cd" stroke="#9a32cd" points="209.59,-53.49 199.16,-55.36 208.48,-60.4 209.59,-53.49"/>
<text text-anchor="middle" x="287.5" y="-101" font-family="Helvetica,sans-Serif" font-size="10.00"> reconfigurePermission</text>
</g>
<!-- Node7 -->
<g id="node7" class="node">
<title>Node7</title>
<g id="a_node7"><a xlink:href="../../d6/d3b/classjavolution_1_1context_1_1SecurityContext_1_1Permission.html" target="_top" xlink:title=" ">
<polygon fill="white" stroke="black" points="376,-60.5 376,-101.5 591,-101.5 591,-60.5 376,-60.5"/>
<text text-anchor="start" x="384" y="-89.5" font-family="Helvetica,sans-Serif" font-size="10.00">javolution.context.Security</text>
<text text-anchor="start" x="384" y="-78.5" font-family="Helvetica,sans-Serif" font-size="10.00">Context.Permission&lt; javolution.context.</text>
<text text-anchor="middle" x="483.5" y="-67.5" font-family="Helvetica,sans-Serif" font-size="10.00">LocalContext.Parameter&lt; T &gt; &gt;</text>
</a>
</g>
</g>
<!-- Node7&#45;&gt;Node1 -->
<g id="edge6" class="edge">
<title>Node7&#45;&gt;Node1</title>
<path fill="none" stroke="#9a32cd" stroke-dasharray="5,2" d="M601.23,-81C652.25,-81 710.28,-81 753.96,-81"/>
<polygon fill="#9a32cd" stroke="#9a32cd" points="601.13,-77.5 591.13,-81 601.13,-84.5 601.13,-77.5"/>
<text text-anchor="middle" x="672.5" y="-84" font-family="Helvetica,sans-Serif" font-size="10.00"> supersedePermission</text>
</g>
<!-- Node8 -->
<g id="node8" class="node">
<title>Node8</title>
<g id="a_node8"><a xlink:href="../../d6/d3b/classjavolution_1_1context_1_1SecurityContext_1_1Permission.html" target="_top" xlink:title=" ">
<polygon fill="white" stroke="black" points="376,-0.5 376,-41.5 591,-41.5 591,-0.5 376,-0.5"/>
<text text-anchor="start" x="384" y="-29.5" font-family="Helvetica,sans-Serif" font-size="10.00">javolution.context.Security</text>
<text text-anchor="start" x="384" y="-18.5" font-family="Helvetica,sans-Serif" font-size="10.00">Context.Permission&lt; javolution.context.</text>
<text text-anchor="middle" x="483.5" y="-7.5" font-family="Helvetica,sans-Serif" font-size="10.00">LocalContext.Parameter&lt;?&gt; &gt;</text>
</a>
</g>
</g>
<!-- Node8&#45;&gt;Node1 -->
<g id="edge7" class="edge">
<title>Node8&#45;&gt;Node1</title>
<path fill="none" stroke="#9a32cd" stroke-dasharray="5,2" d="M601.23,-41.78C652.25,-50.87 710.28,-61.2 753.96,-68.98"/>
<polygon fill="#9a32cd" stroke="#9a32cd" points="601.59,-38.29 591.13,-39.98 600.36,-45.18 601.59,-38.29"/>
<text text-anchor="middle" x="672.5" y="-67" font-family="Helvetica,sans-Serif" font-size="10.00"> SUPERSEDE_PERMISSION</text>
</g>
</g>
</svg>
