<?xml version="1.0" encoding="UTF-8" standalone="no"?>
<!DOCTYPE svg PUBLIC "-//W3C//DTD SVG 1.1//EN"
 "http://www.w3.org/Graphics/SVG/1.1/DTD/svg11.dtd">
<!-- Generated by graphviz version 2.43.0 (0)
 -->
<!-- Title: javolution.io.Struct.Member.Member Pages: 1 -->
<svg width="366pt" height="116pt"
 viewBox="0.00 0.00 366.00 115.50" xmlns="http://www.w3.org/2000/svg" xmlns:xlink="http://www.w3.org/1999/xlink">
<g id="graph0" class="graph" transform="scale(1 1) rotate(0) translate(4 111.5)">
<title>javolution.io.Struct.Member.Member</title>
<polygon fill="white" stroke="transparent" points="-4,4 -4,-111.5 362,-111.5 362,4 -4,4"/>
<!-- Node1 -->
<g id="node1" class="node">
<title>Node1</title>
<g id="a_node1"><a xlink:title=" ">
<polygon fill="#bfbfbf" stroke="black" points="0,-33 0,-63 155,-63 155,-33 0,-33"/>
<text text-anchor="start" x="8" y="-51" font-family="Helvetica,sans-Serif" font-size="10.00">javolution.io.Struct.Member.</text>
<text text-anchor="middle" x="77.5" y="-40" font-family="Helvetica,sans-Serif" font-size="10.00">Member</text>
</a>
</g>
</g>
<!-- Node2 -->
<g id="node2" class="node">
<title>Node2</title>
<g id="a_node2"><a xlink:href="../../d2/d46/classjavolution_1_1io_1_1Struct_1_1Member.html#a75be2230f62956649aa5dbdea3c6f4ac" target="_top" xlink:title=" ">
<polygon fill="white" stroke="black" points="191,-77 191,-107 358,-107 358,-77 191,-77"/>
<text text-anchor="start" x="199" y="-95" font-family="Helvetica,sans-Serif" font-size="10.00">javolution.io.Struct.Member.bit</text>
<text text-anchor="middle" x="274.5" y="-84" font-family="Helvetica,sans-Serif" font-size="10.00">Length</text>
</a>
</g>
</g>
<!-- Node1&#45;&gt;Node2 -->
<g id="edge1" class="edge">
<title>Node1&#45;&gt;Node2</title>
<path fill="none" stroke="midnightblue" d="M145.06,-63.02C161.76,-66.79 179.8,-70.86 196.94,-74.72"/>
<polygon fill="midnightblue" stroke="midnightblue" points="196.38,-78.19 206.91,-76.97 197.92,-71.36 196.38,-78.19"/>
</g>
<!-- Node3 -->
<g id="node3" class="node">
<title>Node3</title>
<g id="a_node3"><a xlink:href="../../d7/d99/classjavolution_1_1io_1_1Struct.html#aa738d7ee3e1f1e49af37e0ad848fcb32" target="_top" xlink:title=" ">
<polygon fill="white" stroke="black" points="197.5,-38.5 197.5,-57.5 351.5,-57.5 351.5,-38.5 197.5,-38.5"/>
<text text-anchor="middle" x="274.5" y="-45.5" font-family="Helvetica,sans-Serif" font-size="10.00">javolution.io.Struct.isPacked</text>
</a>
</g>
</g>
<!-- Node1&#45;&gt;Node3 -->
<g id="edge2" class="edge">
<title>Node1&#45;&gt;Node3</title>
<path fill="none" stroke="midnightblue" d="M155.01,-48C165.52,-48 176.37,-48 187.05,-48"/>
<polygon fill="midnightblue" stroke="midnightblue" points="187.21,-51.5 197.21,-48 187.21,-44.5 187.21,-51.5"/>
</g>
<!-- Node4 -->
<g id="node4" class="node">
<title>Node4</title>
<g id="a_node4"><a xlink:href="../../d4/d14/classjavolution_1_1lang_1_1MathLib.html#ad9de726f7e211f74e59ed91c59675841" target="_top" xlink:title=" ">
<polygon fill="white" stroke="black" points="196.5,-0.5 196.5,-19.5 352.5,-19.5 352.5,-0.5 196.5,-0.5"/>
<text text-anchor="middle" x="274.5" y="-7.5" font-family="Helvetica,sans-Serif" font-size="10.00">javolution.lang.MathLib.max</text>
</a>
</g>
</g>
<!-- Node1&#45;&gt;Node4 -->
<g id="edge3" class="edge">
<title>Node1&#45;&gt;Node4</title>
<path fill="none" stroke="midnightblue" d="M155.01,-33.09C174.91,-29.21 196.03,-25.1 214.84,-21.43"/>
<polygon fill="midnightblue" stroke="midnightblue" points="215.6,-24.85 224.75,-19.5 214.26,-17.98 215.6,-24.85"/>
</g>
</g>
</svg>
