<?xml version="1.0" encoding="UTF-8" standalone="no"?>
<!DOCTYPE svg PUBLIC "-//W3C//DTD SVG 1.1//EN"
 "http://www.w3.org/Graphics/SVG/1.1/DTD/svg11.dtd">
<!-- Generated by graphviz version 2.43.0 (0)
 -->
<!-- Title: javolution.io.Struct.Enum8.get Pages: 1 -->
<svg width="895pt" height="185pt"
 viewBox="0.00 0.00 895.00 184.50" xmlns="http://www.w3.org/2000/svg" xmlns:xlink="http://www.w3.org/1999/xlink">
<g id="graph0" class="graph" transform="scale(1 1) rotate(0) translate(4 180.5)">
<title>javolution.io.Struct.Enum8.get</title>
<polygon fill="white" stroke="transparent" points="-4,4 -4,-180.5 891,-180.5 891,4 -4,4"/>
<!-- Node1 -->
<g id="node1" class="node">
<title>Node1</title>
<g id="a_node1"><a xlink:title=" ">
<polygon fill="#bfbfbf" stroke="black" points="0,-44.5 0,-63.5 164,-63.5 164,-44.5 0,-44.5"/>
<text text-anchor="middle" x="82" y="-51.5" font-family="Helvetica,sans-Serif" font-size="10.00">javolution.io.Struct.Enum8.get</text>
</a>
</g>
</g>
<!-- Node2 -->
<g id="node2" class="node">
<title>Node2</title>
<g id="a_node2"><a xlink:href="../../d7/d99/classjavolution_1_1io_1_1Struct.html#a7e750810b50675d99a38aec0e4ef0e1f" target="_top" xlink:title=" ">
<polygon fill="white" stroke="black" points="227,-106 227,-136 355,-136 355,-106 227,-106"/>
<text text-anchor="start" x="235" y="-124" font-family="Helvetica,sans-Serif" font-size="10.00">javolution.io.Struct.get</text>
<text text-anchor="middle" x="291" y="-113" font-family="Helvetica,sans-Serif" font-size="10.00">ByteBuffer</text>
</a>
</g>
</g>
<!-- Node1&#45;&gt;Node2 -->
<g id="edge1" class="edge">
<title>Node1&#45;&gt;Node2</title>
<path fill="none" stroke="midnightblue" d="M106.98,-63.55C130.47,-72.72 167.4,-86.69 200,-97 206.53,-99.06 213.35,-101.1 220.21,-103.07"/>
<polygon fill="midnightblue" stroke="midnightblue" points="219.66,-106.55 230.23,-105.88 221.55,-99.81 219.66,-106.55"/>
</g>
<!-- Node7 -->
<g id="node7" class="node">
<title>Node7</title>
<g id="a_node7"><a xlink:href="../../d7/d99/classjavolution_1_1io_1_1Struct.html#af409d73a3cf8dbd3939fcb7d5cf386e3" target="_top" xlink:title=" ">
<polygon fill="white" stroke="black" points="227,-39 227,-69 355,-69 355,-39 227,-39"/>
<text text-anchor="start" x="235" y="-57" font-family="Helvetica,sans-Serif" font-size="10.00">javolution.io.Struct.get</text>
<text text-anchor="middle" x="291" y="-46" font-family="Helvetica,sans-Serif" font-size="10.00">ByteBufferPosition</text>
</a>
</g>
</g>
<!-- Node1&#45;&gt;Node7 -->
<g id="edge9" class="edge">
<title>Node1&#45;&gt;Node7</title>
<path fill="none" stroke="midnightblue" d="M164.22,-54C181.48,-54 199.6,-54 216.55,-54"/>
<polygon fill="midnightblue" stroke="midnightblue" points="216.94,-57.5 226.94,-54 216.94,-50.5 216.94,-57.5"/>
</g>
<!-- Node8 -->
<g id="node8" class="node">
<title>Node8</title>
<g id="a_node8"><a xlink:href="../../d2/d46/classjavolution_1_1io_1_1Struct_1_1Member.html#a0055f0a4d71892a2eead00baf426d96c" target="_top" xlink:title=" ">
<polygon fill="white" stroke="black" points="200,-0.5 200,-19.5 382,-19.5 382,-0.5 200,-0.5"/>
<text text-anchor="middle" x="291" y="-7.5" font-family="Helvetica,sans-Serif" font-size="10.00">javolution.io.Struct.Member.offset</text>
</a>
</g>
</g>
<!-- Node1&#45;&gt;Node8 -->
<g id="edge11" class="edge">
<title>Node1&#45;&gt;Node8</title>
<path fill="none" stroke="midnightblue" d="M127.44,-44.48C149.29,-39.8 176.02,-34.09 200,-29 211.24,-26.61 223.26,-24.07 234.75,-21.64"/>
<polygon fill="midnightblue" stroke="midnightblue" points="235.61,-25.04 244.67,-19.55 234.16,-18.19 235.61,-25.04"/>
</g>
<!-- Node2&#45;&gt;Node2 -->
<g id="edge2" class="edge">
<title>Node2&#45;&gt;Node2</title>
<path fill="none" stroke="midnightblue" d="M257.54,-136.16C249.47,-145.56 260.62,-154.5 291,-154.5 309.51,-154.5 320.88,-151.18 325.12,-146.46"/>
<polygon fill="midnightblue" stroke="midnightblue" points="328.59,-145.92 324.46,-136.16 321.6,-146.36 328.59,-145.92"/>
</g>
<!-- Node3 -->
<g id="node3" class="node">
<title>Node3</title>
<g id="a_node3"><a xlink:href="../../d7/d99/classjavolution_1_1io_1_1Struct.html#aed9aed0fbd20e6523e215d990cbe5740" target="_top" xlink:title=" ">
<polygon fill="white" stroke="black" points="418,-106 418,-136 550,-136 550,-106 418,-106"/>
<text text-anchor="start" x="426" y="-124" font-family="Helvetica,sans-Serif" font-size="10.00">javolution.io.Struct.new</text>
<text text-anchor="middle" x="484" y="-113" font-family="Helvetica,sans-Serif" font-size="10.00">Buffer</text>
</a>
</g>
</g>
<!-- Node2&#45;&gt;Node3 -->
<g id="edge3" class="edge">
<title>Node2&#45;&gt;Node3</title>
<path fill="none" stroke="midnightblue" d="M355.07,-121C371.87,-121 390.2,-121 407.59,-121"/>
<polygon fill="midnightblue" stroke="midnightblue" points="407.71,-124.5 417.71,-121 407.71,-117.5 407.71,-124.5"/>
</g>
<!-- Node4 -->
<g id="node4" class="node">
<title>Node4</title>
<g id="a_node4"><a xlink:href="../../d7/d99/classjavolution_1_1io_1_1Struct.html#a81fd85611da71c484375e2c0ef9124e6" target="_top" xlink:title=" ">
<polygon fill="white" stroke="black" points="753,-128 753,-158 887,-158 887,-128 753,-128"/>
<text text-anchor="start" x="761" y="-146" font-family="Helvetica,sans-Serif" font-size="10.00">javolution.io.Struct.byte</text>
<text text-anchor="middle" x="820" y="-135" font-family="Helvetica,sans-Serif" font-size="10.00">Order</text>
</a>
</g>
</g>
<!-- Node3&#45;&gt;Node4 -->
<g id="edge4" class="edge">
<title>Node3&#45;&gt;Node4</title>
<path fill="none" stroke="midnightblue" d="M535.41,-136.03C551.43,-140.11 569.32,-143.97 586,-146 638.08,-152.35 697.19,-151.5 742.84,-149.11"/>
<polygon fill="midnightblue" stroke="midnightblue" points="743.17,-152.59 752.96,-148.54 742.78,-145.61 743.17,-152.59"/>
</g>
<!-- Node5 -->
<g id="node5" class="node">
<title>Node5</title>
<g id="a_node5"><a xlink:href="../../d7/d99/classjavolution_1_1io_1_1Struct.html#a27767d656cd1f1d9079c309a86912237" target="_top" xlink:title=" ">
<polygon fill="white" stroke="black" points="588,-106 588,-136 715,-136 715,-106 588,-106"/>
<text text-anchor="start" x="596" y="-124" font-family="Helvetica,sans-Serif" font-size="10.00">javolution.io.Struct.set</text>
<text text-anchor="middle" x="651.5" y="-113" font-family="Helvetica,sans-Serif" font-size="10.00">ByteBuffer</text>
</a>
</g>
</g>
<!-- Node3&#45;&gt;Node5 -->
<g id="edge6" class="edge">
<title>Node3&#45;&gt;Node5</title>
<path fill="none" stroke="midnightblue" d="M550.41,-121C559.4,-121 568.68,-121 577.8,-121"/>
<polygon fill="midnightblue" stroke="midnightblue" points="577.99,-124.5 587.99,-121 577.99,-117.5 577.99,-124.5"/>
</g>
<!-- Node6 -->
<g id="node6" class="node">
<title>Node6</title>
<g id="a_node6"><a xlink:href="../../d7/d99/classjavolution_1_1io_1_1Struct.html#a6c5b77be973f699a4f0a80b360de5d42" target="_top" xlink:title=" ">
<polygon fill="white" stroke="black" points="586,-67.5 586,-86.5 717,-86.5 717,-67.5 586,-67.5"/>
<text text-anchor="middle" x="651.5" y="-74.5" font-family="Helvetica,sans-Serif" font-size="10.00">javolution.io.Struct.size</text>
</a>
</g>
</g>
<!-- Node3&#45;&gt;Node6 -->
<g id="edge8" class="edge">
<title>Node3&#45;&gt;Node6</title>
<path fill="none" stroke="midnightblue" d="M541.49,-105.98C562.07,-100.51 585.05,-94.4 604.6,-89.2"/>
<polygon fill="midnightblue" stroke="midnightblue" points="605.71,-92.53 614.47,-86.58 603.91,-85.77 605.71,-92.53"/>
</g>
<!-- Node4&#45;&gt;Node4 -->
<g id="edge5" class="edge">
<title>Node4&#45;&gt;Node4</title>
<path fill="none" stroke="midnightblue" d="M790.72,-158.16C783.66,-167.56 793.42,-176.5 820,-176.5 836.2,-176.5 846.15,-173.18 849.85,-168.46"/>
<polygon fill="midnightblue" stroke="midnightblue" points="853.33,-167.95 849.28,-158.16 846.34,-168.34 853.33,-167.95"/>
</g>
<!-- Node5&#45;&gt;Node4 -->
<g id="edge7" class="edge">
<title>Node5&#45;&gt;Node4</title>
<path fill="none" stroke="midnightblue" d="M715.45,-129.32C724.44,-130.51 733.77,-131.74 742.98,-132.96"/>
<polygon fill="midnightblue" stroke="midnightblue" points="742.54,-136.43 752.91,-134.27 743.46,-129.49 742.54,-136.43"/>
</g>
<!-- Node7&#45;&gt;Node7 -->
<g id="edge10" class="edge">
<title>Node7&#45;&gt;Node7</title>
<path fill="none" stroke="midnightblue" d="M257.54,-69.16C249.47,-78.56 260.62,-87.5 291,-87.5 309.51,-87.5 320.88,-84.18 325.12,-79.46"/>
<polygon fill="midnightblue" stroke="midnightblue" points="328.59,-78.92 324.46,-69.16 321.6,-79.36 328.59,-78.92"/>
</g>
</g>
</svg>
