<?xml version="1.0" encoding="UTF-8" standalone="no"?>
<!DOCTYPE svg PUBLIC "-//W3C//DTD SVG 1.1//EN"
 "http://www.w3.org/Graphics/SVG/1.1/DTD/svg11.dtd">
<!-- Generated by graphviz version 2.43.0 (0)
 -->
<!-- Title: javolution.util.internal.map.sorted.SortedMapView.target Pages: 1 -->
<!--zoomable 431 -->
<svg id="main" version="1.1" xmlns="http://www.w3.org/2000/svg" xmlns:xlink="http://www.w3.org/1999/xlink" xml:space="preserve" onload="init(evt)">
<style type="text/css"><![CDATA[
.edge:hover path { stroke: red; }
.edge:hover polygon { stroke: red; fill: red; }
]]></style>
<script type="text/javascript"><![CDATA[
var edges = document.getElementsByTagName('g');
if (edges && edges.length) {
  for (var i=0;i<edges.length;i++) {
    if (edges[i].id.substr(0,4)=='edge') {
      edges[i].setAttribute('class','edge');
    }
  }
}
]]></script>
        <defs>
                <circle id="rim" cx="0" cy="0" r="7"/>
                <circle id="rim2" cx="0" cy="0" r="3.5"/>
                <g id="zoomPlus">
                        <use xlink:href="#rim" fill="#404040">
                                <set attributeName="fill" to="#808080" begin="zoomplus.mouseover" end="zoomplus.mouseout"/>
                        </use>
                        <path d="M-4,0h8M0,-4v8" fill="none" stroke="white" stroke-width="1.5" pointer-events="none"/>
                </g>
                <g id="zoomMin">
                        <use xlink:href="#rim" fill="#404040">
                                <set attributeName="fill" to="#808080" begin="zoomminus.mouseover" end="zoomminus.mouseout"/>
                        </use>
                        <path d="M-4,0h8" fill="none" stroke="white" stroke-width="1.5" pointer-events="none"/>
                </g>
                <g id="dirArrow">
                        <path fill="none" stroke="white" stroke-width="1.5" d="M0,-3.0v7 M-2.5,-0.5L0,-3.0L2.5,-0.5"/>
                </g>
               <g id="resetDef">
                       <use xlink:href="#rim2" fill="#404040">
                               <set attributeName="fill" to="#808080" begin="reset.mouseover" end="reset.mouseout"/>
                       </use>
               </g>
        </defs>

<script type="text/javascript">
var viewWidth = 667;
var viewHeight = 431;
var sectionId = 'dynsection-27';
</script>
<script xlink:href="../../svgpan.js"/>
<svg id="graph" class="graph">
<g id="viewport">
<title>javolution.util.internal.map.sorted.SortedMapView.target</title>
<polygon fill="white" stroke="transparent" points="-4,4 -4,-427 663,-427 663,4 -4,4"/>
<!-- Node1 -->
<g id="node1" class="node">
<title>Node1</title>
<g id="a_node1"><a xlink:title=" ">
<polygon fill="#bfbfbf" stroke="black" points="473,-210.5 473,-240.5 659,-240.5 659,-210.5 473,-210.5"/>
<text text-anchor="start" x="481" y="-228.5" font-family="Helvetica,sans-Serif" font-size="10.00">javolution.util.internal.map.sorted.</text>
<text text-anchor="middle" x="566" y="-217.5" font-family="Helvetica,sans-Serif" font-size="10.00">SortedMapView.target</text>
</a>
</g>
</g>
<!-- Node2 -->
<g id="node2" class="node">
<title>Node2</title>
<g id="a_node2"><a xlink:href="../../d3/d09/classjavolution_1_1util_1_1internal_1_1map_1_1sorted_1_1SubSortedMapImpl.html#a902e129d440315f773a8b6c97b4bb244" target="_top" xlink:title=" ">
<polygon fill="white" stroke="black" points="9,-392.5 9,-422.5 195,-422.5 195,-392.5 9,-392.5"/>
<text text-anchor="start" x="17" y="-410.5" font-family="Helvetica,sans-Serif" font-size="10.00">javolution.util.internal.map.sorted.</text>
<text text-anchor="middle" x="102" y="-399.5" font-family="Helvetica,sans-Serif" font-size="10.00">SubSortedMapImpl.containsKey</text>
</a>
</g>
</g>
<!-- Node1&#45;&gt;Node2 -->
<g id="edge1" class="edge">
<title>Node1&#45;&gt;Node2</title>
<path fill="none" stroke="midnightblue" d="M552.79,-249.75C533.55,-285.05 492.59,-349.54 437,-378.5 362.28,-417.43 265.28,-421.61 195.08,-417.89"/>
<polygon fill="midnightblue" stroke="midnightblue" points="556.04,-251.1 557.63,-240.62 549.85,-247.82 556.04,-251.1"/>
</g>
<!-- Node3 -->
<g id="node3" class="node">
<title>Node3</title>
<g id="a_node3"><a xlink:href="../../d3/d09/classjavolution_1_1util_1_1internal_1_1map_1_1sorted_1_1SubSortedMapImpl.html#a323d15199047b85373583d21c5e5c3dc" target="_top" xlink:title=" ">
<polygon fill="white" stroke="black" points="245.5,-147.5 245.5,-177.5 431.5,-177.5 431.5,-147.5 245.5,-147.5"/>
<text text-anchor="start" x="253.5" y="-165.5" font-family="Helvetica,sans-Serif" font-size="10.00">javolution.util.internal.map.sorted.</text>
<text text-anchor="middle" x="338.5" y="-154.5" font-family="Helvetica,sans-Serif" font-size="10.00">SubSortedMapImpl.firstKey</text>
</a>
</g>
</g>
<!-- Node1&#45;&gt;Node3 -->
<g id="edge2" class="edge">
<title>Node1&#45;&gt;Node3</title>
<path fill="none" stroke="midnightblue" d="M501.4,-207.73C467.28,-198.2 425.69,-186.58 393.21,-177.5"/>
<polygon fill="midnightblue" stroke="midnightblue" points="500.7,-211.17 511.27,-210.49 502.58,-204.43 500.7,-211.17"/>
</g>
<!-- Node4 -->
<g id="node4" class="node">
<title>Node4</title>
<g id="a_node4"><a xlink:href="../../d3/d09/classjavolution_1_1util_1_1internal_1_1map_1_1sorted_1_1SubSortedMapImpl.html#a2a54d63cf0b0b427edea355c69ee5977" target="_top" xlink:title=" ">
<polygon fill="white" stroke="black" points="9,-343.5 9,-373.5 195,-373.5 195,-343.5 9,-343.5"/>
<text text-anchor="start" x="17" y="-361.5" font-family="Helvetica,sans-Serif" font-size="10.00">javolution.util.internal.map.sorted.</text>
<text text-anchor="middle" x="102" y="-350.5" font-family="Helvetica,sans-Serif" font-size="10.00">SubSortedMapImpl.get</text>
</a>
</g>
</g>
<!-- Node1&#45;&gt;Node4 -->
<g id="edge3" class="edge">
<title>Node1&#45;&gt;Node4</title>
<path fill="none" stroke="midnightblue" d="M549.68,-249.12C528.51,-279.34 487.21,-330.32 437,-351.5 357.51,-385.04 257.63,-381.96 187.89,-373.5"/>
<polygon fill="midnightblue" stroke="midnightblue" points="552.59,-251.06 555.34,-240.82 546.81,-247.11 552.59,-251.06"/>
</g>
<!-- Node5 -->
<g id="node5" class="node">
<title>Node5</title>
<g id="a_node5"><a xlink:href="../../d3/d09/classjavolution_1_1util_1_1internal_1_1map_1_1sorted_1_1SubSortedMapImpl.html#a567842d8cc01de069bdaa3fcb3122630" target="_top" xlink:title=" ">
<polygon fill="white" stroke="black" points="245,-311.5 245,-341.5 432,-341.5 432,-311.5 245,-311.5"/>
<text text-anchor="start" x="253" y="-329.5" font-family="Helvetica,sans-Serif" font-size="10.00">javolution.util.internal.map.sorted.</text>
<text text-anchor="middle" x="338.5" y="-318.5" font-family="Helvetica,sans-Serif" font-size="10.00">SubSortedMapImpl.keyComparator</text>
</a>
</g>
</g>
<!-- Node1&#45;&gt;Node5 -->
<g id="edge4" class="edge">
<title>Node1&#45;&gt;Node5</title>
<path fill="none" stroke="midnightblue" d="M532.42,-246.06C507.1,-261.41 470.74,-282.14 437,-296.5 423.8,-302.12 409.19,-307.19 395.39,-311.49"/>
<polygon fill="midnightblue" stroke="midnightblue" points="534.52,-248.87 541.22,-240.67 530.87,-242.91 534.52,-248.87"/>
</g>
<!-- Node6 -->
<g id="node6" class="node">
<title>Node6</title>
<g id="a_node6"><a xlink:href="../../d3/d09/classjavolution_1_1util_1_1internal_1_1map_1_1sorted_1_1SubSortedMapImpl.html#a4a811cd6e5e4e11f6fb648db153794d2" target="_top" xlink:title=" ">
<polygon fill="white" stroke="black" points="9,-294.5 9,-324.5 195,-324.5 195,-294.5 9,-294.5"/>
<text text-anchor="start" x="17" y="-312.5" font-family="Helvetica,sans-Serif" font-size="10.00">javolution.util.internal.map.sorted.</text>
<text text-anchor="middle" x="102" y="-301.5" font-family="Helvetica,sans-Serif" font-size="10.00">SubSortedMapImpl.put</text>
</a>
</g>
</g>
<!-- Node1&#45;&gt;Node6 -->
<g id="edge11" class="edge">
<title>Node1&#45;&gt;Node6</title>
<path fill="none" stroke="midnightblue" d="M497.28,-242.98C477.88,-247.69 456.66,-252.57 437,-256.5 355.68,-272.77 262.42,-287.22 195.15,-296.91"/>
<polygon fill="midnightblue" stroke="midnightblue" points="498.36,-246.31 507.23,-240.53 496.69,-239.52 498.36,-246.31"/>
</g>
<!-- Node7 -->
<g id="node7" class="node">
<title>Node7</title>
<g id="a_node7"><a xlink:href="../../d3/d09/classjavolution_1_1util_1_1internal_1_1map_1_1sorted_1_1SubSortedMapImpl.html#aa752624ec12cb3a12b6163f069a576d4" target="_top" xlink:title=" ">
<polygon fill="white" stroke="black" points="9,-244.5 9,-274.5 195,-274.5 195,-244.5 9,-244.5"/>
<text text-anchor="start" x="17" y="-262.5" font-family="Helvetica,sans-Serif" font-size="10.00">javolution.util.internal.map.sorted.</text>
<text text-anchor="middle" x="102" y="-251.5" font-family="Helvetica,sans-Serif" font-size="10.00">SubSortedMapImpl.remove</text>
</a>
</g>
</g>
<!-- Node1&#45;&gt;Node7 -->
<g id="edge12" class="edge">
<title>Node1&#45;&gt;Node7</title>
<path fill="none" stroke="midnightblue" d="M462.81,-233.02C382.86,-238.9 272.65,-247.02 195.33,-252.7"/>
<polygon fill="midnightblue" stroke="midnightblue" points="463.18,-236.5 472.89,-232.28 462.66,-229.52 463.18,-236.5"/>
</g>
<!-- Node8 -->
<g id="node8" class="node">
<title>Node8</title>
<g id="a_node8"><a xlink:href="../../d3/d09/classjavolution_1_1util_1_1internal_1_1map_1_1sorted_1_1SubSortedMapImpl.html#a809b5ec2358f081179de5dcc4eaf8149" target="_top" xlink:title=" ">
<polygon fill="white" stroke="black" points="0,-194.5 0,-224.5 204,-224.5 204,-194.5 0,-194.5"/>
<text text-anchor="start" x="8" y="-212.5" font-family="Helvetica,sans-Serif" font-size="10.00">javolution.util.internal.map.sorted.</text>
<text text-anchor="middle" x="102" y="-201.5" font-family="Helvetica,sans-Serif" font-size="10.00">SubSortedMapImpl.SubSortedMapImpl</text>
</a>
</g>
</g>
<!-- Node1&#45;&gt;Node8 -->
<g id="edge14" class="edge">
<title>Node1&#45;&gt;Node8</title>
<path fill="none" stroke="midnightblue" d="M462.7,-221.96C385.76,-219.29 280.83,-215.66 204.16,-213"/>
<polygon fill="midnightblue" stroke="midnightblue" points="462.78,-225.46 472.89,-222.31 463.02,-218.47 462.78,-225.46"/>
</g>
<!-- Node9 -->
<g id="node9" class="node">
<title>Node9</title>
<g id="a_node9"><a xlink:href="../../d3/d09/classjavolution_1_1util_1_1internal_1_1map_1_1sorted_1_1SubSortedMapImpl.html#a201225ba9d5c61e04640b67bb6b61d8d" target="_top" xlink:title=" ">
<polygon fill="white" stroke="black" points="245.5,-98.5 245.5,-128.5 431.5,-128.5 431.5,-98.5 245.5,-98.5"/>
<text text-anchor="start" x="253.5" y="-116.5" font-family="Helvetica,sans-Serif" font-size="10.00">javolution.util.internal.map.sorted.</text>
<text text-anchor="middle" x="338.5" y="-105.5" font-family="Helvetica,sans-Serif" font-size="10.00">SubSortedMapImpl.lastKey</text>
</a>
</g>
</g>
<!-- Node1&#45;&gt;Node9 -->
<g id="edge10" class="edge">
<title>Node1&#45;&gt;Node9</title>
<path fill="none" stroke="midnightblue" d="M539.82,-204.06C515.13,-184.09 475.68,-154.86 437,-137.5 429.37,-134.07 421.17,-131.09 412.88,-128.5"/>
<polygon fill="midnightblue" stroke="midnightblue" points="537.65,-206.81 547.6,-210.45 542.09,-201.4 537.65,-206.81"/>
</g>
<!-- Node10 -->
<g id="node10" class="node">
<title>Node10</title>
<g id="a_node10"><a xlink:href="../../d1/d0a/classjavolution_1_1util_1_1internal_1_1map_1_1sorted_1_1SortedMapView.html#a37ee649fdfdaaa97de3e1541de640525" target="_top" xlink:title=" ">
<polygon fill="white" stroke="black" points="245.5,-49.5 245.5,-79.5 431.5,-79.5 431.5,-49.5 245.5,-49.5"/>
<text text-anchor="start" x="253.5" y="-67.5" font-family="Helvetica,sans-Serif" font-size="10.00">javolution.util.internal.map.sorted.</text>
<text text-anchor="middle" x="338.5" y="-56.5" font-family="Helvetica,sans-Serif" font-size="10.00">SortedMapView.SortedMapView</text>
</a>
</g>
</g>
<!-- Node1&#45;&gt;Node10 -->
<g id="edge13" class="edge">
<title>Node1&#45;&gt;Node10</title>
<path fill="none" stroke="midnightblue" d="M549.67,-202.04C528.22,-171.16 486.32,-117.42 437,-88.5 431.14,-85.06 424.79,-82.11 418.26,-79.59"/>
<polygon fill="midnightblue" stroke="midnightblue" points="546.88,-204.17 555.41,-210.47 552.67,-200.23 546.88,-204.17"/>
</g>
<!-- Node11 -->
<g id="node11" class="node">
<title>Node11</title>
<g id="a_node11"><a xlink:href="../../d3/d09/classjavolution_1_1util_1_1internal_1_1map_1_1sorted_1_1SubSortedMapImpl.html#ab96b73d92b27cdf8be0a06902478717b" target="_top" xlink:title=" ">
<polygon fill="white" stroke="black" points="240,-0.5 240,-30.5 437,-30.5 437,-0.5 240,-0.5"/>
<text text-anchor="start" x="248" y="-18.5" font-family="Helvetica,sans-Serif" font-size="10.00">javolution.util.internal.map.sorted.</text>
<text text-anchor="middle" x="338.5" y="-7.5" font-family="Helvetica,sans-Serif" font-size="10.00">SubSortedMapImpl.valueComparator</text>
</a>
</g>
</g>
<!-- Node1&#45;&gt;Node11 -->
<g id="edge15" class="edge">
<title>Node1&#45;&gt;Node11</title>
<path fill="none" stroke="midnightblue" d="M555.17,-201.12C537.67,-160.94 497.2,-81.1 437,-39.5 431.98,-36.03 426.51,-33.06 420.81,-30.52"/>
<polygon fill="midnightblue" stroke="midnightblue" points="551.99,-202.6 559.12,-210.44 558.44,-199.87 551.99,-202.6"/>
</g>
<!-- Node5&#45;&gt;Node2 -->
<g id="edge5" class="edge">
<title>Node5&#45;&gt;Node2</title>
<path fill="none" stroke="midnightblue" d="M297.31,-345.78C271.17,-357.8 236.08,-372.92 204,-383.5 194.16,-386.74 183.64,-389.74 173.25,-392.44"/>
<polygon fill="midnightblue" stroke="midnightblue" points="298.92,-348.9 306.52,-341.51 295.98,-342.55 298.92,-348.9"/>
</g>
<!-- Node5&#45;&gt;Node4 -->
<g id="edge6" class="edge">
<title>Node5&#45;&gt;Node4</title>
<path fill="none" stroke="midnightblue" d="M234.76,-340.52C221.53,-342.33 208.05,-344.16 195.01,-345.94"/>
<polygon fill="midnightblue" stroke="midnightblue" points="235.38,-343.97 244.82,-339.15 234.44,-337.03 235.38,-343.97"/>
</g>
<!-- Node5&#45;&gt;Node6 -->
<g id="edge7" class="edge">
<title>Node5&#45;&gt;Node6</title>
<path fill="none" stroke="midnightblue" d="M234.76,-319.05C221.53,-318.09 208.05,-317.12 195.01,-316.17"/>
<polygon fill="midnightblue" stroke="midnightblue" points="234.59,-322.55 244.82,-319.78 235.1,-315.57 234.59,-322.55"/>
</g>
<!-- Node5&#45;&gt;Node7 -->
<g id="edge8" class="edge">
<title>Node5&#45;&gt;Node7</title>
<path fill="none" stroke="midnightblue" d="M280.54,-308.38C256.93,-301.03 229.22,-292.61 204,-285.5 190.84,-281.79 176.66,-278 163.2,-274.51"/>
<polygon fill="midnightblue" stroke="midnightblue" points="279.8,-311.81 290.39,-311.45 281.89,-305.13 279.8,-311.81"/>
</g>
<!-- Node5&#45;&gt;Node8 -->
<g id="edge9" class="edge">
<title>Node5&#45;&gt;Node8</title>
<path fill="none" stroke="midnightblue" d="M312.45,-305.08C286.8,-284.19 244.99,-252.96 204,-234.5 195.52,-230.68 186.36,-227.39 177.14,-224.56"/>
<polygon fill="midnightblue" stroke="midnightblue" points="310.25,-307.8 320.19,-311.47 314.7,-302.4 310.25,-307.8"/>
</g>
</g>
</svg>
        <g id="navigator" transform="translate(0 0)" fill="#404254">
                <rect fill="#f2f5e9" fill-opacity="0.5" stroke="#606060" stroke-width=".5" x="0" y="0" width="60" height="60"/>
                <use id="zoomplus" xlink:href="#zoomPlus" x="17" y="9" onmousedown="handleZoom(evt,'in')"/>
                <use id="zoomminus" xlink:href="#zoomMin" x="42" y="9" onmousedown="handleZoom(evt,'out')"/>
                <use id="reset" xlink:href="#resetDef" x="30" y="36" onmousedown="handleReset()"/>
                <g id="arrowUp" xlink:href="#dirArrow" transform="translate(30 24)" onmousedown="handlePan(0,-1)">
                  <use xlink:href="#rim" fill="#404040">
                        <set attributeName="fill" to="#808080" begin="arrowUp.mouseover" end="arrowUp.mouseout"/>
                  </use>
                  <path fill="none" stroke="white" stroke-width="1.5" d="M0,-3.0v7 M-2.5,-0.5L0,-3.0L2.5,-0.5"/>
                </g>
                <g id="arrowRight" xlink:href="#dirArrow" transform="rotate(90) translate(36 -43)" onmousedown="handlePan(1,0)">
                  <use xlink:href="#rim" fill="#404040">
                        <set attributeName="fill" to="#808080" begin="arrowRight.mouseover" end="arrowRight.mouseout"/>
                  </use>
                  <path fill="none" stroke="white" stroke-width="1.5" d="M0,-3.0v7 M-2.5,-0.5L0,-3.0L2.5,-0.5"/>
                </g>
                <g id="arrowDown" xlink:href="#dirArrow" transform="rotate(180) translate(-30 -48)" onmousedown="handlePan(0,1)">
                  <use xlink:href="#rim" fill="#404040">
                        <set attributeName="fill" to="#808080" begin="arrowDown.mouseover" end="arrowDown.mouseout"/>
                  </use>
                  <path fill="none" stroke="white" stroke-width="1.5" d="M0,-3.0v7 M-2.5,-0.5L0,-3.0L2.5,-0.5"/>
                </g>
                <g id="arrowLeft" xlink:href="#dirArrow" transform="rotate(270) translate(-36 17)" onmousedown="handlePan(-1,0)">
                  <use xlink:href="#rim" fill="#404040">
                        <set attributeName="fill" to="#808080" begin="arrowLeft.mouseover" end="arrowLeft.mouseout"/>
                  </use>
                  <path fill="none" stroke="white" stroke-width="1.5" d="M0,-3.0v7 M-2.5,-0.5L0,-3.0L2.5,-0.5"/>
                </g>
        </g>
        <svg viewBox="0 0 15 15" width="100%" height="30px" preserveAspectRatio="xMaxYMin meet">
         <g id="arrow_out" transform="scale(0.3 0.3)">
          <a xlink:href="classjavolution_1_1util_1_1internal_1_1map_1_1sorted_1_1SortedMapView_a32c8649a5e0d78ad129ba67966674cfe_icgraph_org.svg" target="_base">
           <rect id="button" ry="5" rx="5" y="6" x="6" height="38" width="38"
                fill="#f2f5e9" fill-opacity="0.5" stroke="#606060" stroke-width="1.0"/>
           <path id="arrow"
             d="M 11.500037,31.436501 C 11.940474,20.09759 22.043105,11.32322 32.158766,21.979434 L 37.068811,17.246167 C 37.068811,17.246167 37.088388,32 37.088388,32 L 22.160133,31.978069 C 22.160133,31.978069 26.997745,27.140456 26.997745,27.140456 C 18.528582,18.264221 13.291696,25.230495 11.500037,31.436501 z"
             style="fill:#404040;"/>
          </a>
         </g>
        </svg>
</svg>
