<?xml version="1.0" encoding="UTF-8" standalone="no"?>
<!DOCTYPE svg PUBLIC "-//W3C//DTD SVG 1.1//EN"
 "http://www.w3.org/Graphics/SVG/1.1/DTD/svg11.dtd">
<!-- Generated by graphviz version 2.43.0 (0)
 -->
<!-- Title: javolution.xml.QName.QName Pages: 1 -->
<svg width="973pt" height="288pt"
 viewBox="0.00 0.00 973.00 287.50" xmlns="http://www.w3.org/2000/svg" xmlns:xlink="http://www.w3.org/1999/xlink">
<g id="graph0" class="graph" transform="scale(1 1) rotate(0) translate(4 283.5)">
<title>javolution.xml.QName.QName</title>
<polygon fill="white" stroke="transparent" points="-4,4 -4,-283.5 969,-283.5 969,4 -4,4"/>
<!-- Node1 -->
<g id="node1" class="node">
<title>Node1</title>
<g id="a_node1"><a xlink:title=" ">
<polygon fill="#bfbfbf" stroke="black" points="798,-115.5 798,-134.5 965,-134.5 965,-115.5 798,-115.5"/>
<text text-anchor="middle" x="881.5" y="-122.5" font-family="Helvetica,sans-Serif" font-size="10.00">javolution.xml.QName.QName</text>
</a>
</g>
</g>
<!-- Node2 -->
<g id="node2" class="node">
<title>Node2</title>
<g id="a_node2"><a xlink:href="../../d0/dc4/classjavolution_1_1xml_1_1QName.html#aad0b37db47b51c65188feffbb0a3491c" target="_top" xlink:title=" ">
<polygon fill="white" stroke="black" points="601,-132 601,-162 762,-162 762,-132 601,-132"/>
<text text-anchor="start" x="609" y="-150" font-family="Helvetica,sans-Serif" font-size="10.00">javolution.xml.QName.create</text>
<text text-anchor="middle" x="681.5" y="-139" font-family="Helvetica,sans-Serif" font-size="10.00">NoNamespace</text>
</a>
</g>
</g>
<!-- Node1&#45;&gt;Node2 -->
<g id="edge1" class="edge">
<title>Node1&#45;&gt;Node2</title>
<path fill="none" stroke="midnightblue" d="M787.87,-135.29C779.24,-136.25 770.54,-137.22 762.04,-138.16"/>
<polygon fill="midnightblue" stroke="midnightblue" points="788.41,-138.75 797.96,-134.17 787.64,-131.8 788.41,-138.75"/>
</g>
<!-- Node3 -->
<g id="node3" class="node">
<title>Node3</title>
<g id="a_node3"><a xlink:href="../../d0/dc4/classjavolution_1_1xml_1_1QName.html#a41d330e516b0c040456ab7730ce54394" target="_top" xlink:title=" ">
<polygon fill="white" stroke="black" points="397,-115.5 397,-134.5 565,-134.5 565,-115.5 397,-115.5"/>
<text text-anchor="middle" x="481" y="-122.5" font-family="Helvetica,sans-Serif" font-size="10.00">javolution.xml.QName.valueOf</text>
</a>
</g>
</g>
<!-- Node1&#45;&gt;Node3 -->
<g id="edge11" class="edge">
<title>Node1&#45;&gt;Node3</title>
<path fill="none" stroke="midnightblue" d="M787.75,-122.43C779.04,-122.25 770.36,-122.11 762,-122 690.45,-121.09 672.55,-121.1 601,-122 589.43,-122.15 577.22,-122.37 565.22,-122.63"/>
<polygon fill="midnightblue" stroke="midnightblue" points="787.88,-125.93 797.95,-122.64 788.03,-118.93 787.88,-125.93"/>
</g>
<!-- Node2&#45;&gt;Node3 -->
<g id="edge2" class="edge">
<title>Node2&#45;&gt;Node3</title>
<path fill="none" stroke="midnightblue" d="M590.91,-137.07C582.35,-136.12 573.68,-135.16 565.18,-134.22"/>
<polygon fill="midnightblue" stroke="midnightblue" points="590.58,-140.56 600.91,-138.18 591.35,-133.6 590.58,-140.56"/>
</g>
<!-- Node4 -->
<g id="node4" class="node">
<title>Node4</title>
<g id="a_node4"><a xlink:href="../../d2/d42/classjavolution_1_1xml_1_1XMLBinding.html#a87e4b98a155e7f7d9b299bc0d30b1431" target="_top" xlink:title=" ">
<polygon fill="white" stroke="black" points="186.5,-225 186.5,-255 359.5,-255 359.5,-225 186.5,-225"/>
<text text-anchor="start" x="194.5" y="-243" font-family="Helvetica,sans-Serif" font-size="10.00">javolution.xml.XMLBinding.read</text>
<text text-anchor="middle" x="273" y="-232" font-family="Helvetica,sans-Serif" font-size="10.00">Class</text>
</a>
</g>
</g>
<!-- Node3&#45;&gt;Node4 -->
<g id="edge3" class="edge">
<title>Node3&#45;&gt;Node4</title>
<path fill="none" stroke="midnightblue" d="M462.51,-141.58C440.47,-161.64 400.65,-195.17 361,-215 353.41,-218.8 345.15,-222.1 336.84,-224.96"/>
<polygon fill="midnightblue" stroke="midnightblue" points="465.08,-143.97 470.05,-134.61 460.33,-138.83 465.08,-143.97"/>
</g>
<!-- Node7 -->
<g id="node7" class="node">
<title>Node7</title>
<g id="a_node7"><a xlink:href="../../d0/dc4/classjavolution_1_1xml_1_1QName.html#a21f1840ced5035f432aacf201ddd54bd" target="_top" xlink:title=" ">
<polygon fill="white" stroke="black" points="197,-176 197,-206 349,-206 349,-176 197,-176"/>
<text text-anchor="start" x="205" y="-194" font-family="Helvetica,sans-Serif" font-size="10.00">javolution.xml.QName.read</text>
<text text-anchor="middle" x="273" y="-183" font-family="Helvetica,sans-Serif" font-size="10.00">Resolve</text>
</a>
</g>
</g>
<!-- Node3&#45;&gt;Node7 -->
<g id="edge6" class="edge">
<title>Node3&#45;&gt;Node7</title>
<path fill="none" stroke="midnightblue" d="M444.1,-137.91C420.57,-146.24 389.08,-157.14 361,-166 350.36,-169.36 338.93,-172.78 327.97,-175.97"/>
<polygon fill="midnightblue" stroke="midnightblue" points="445.41,-141.16 453.66,-134.51 443.07,-134.57 445.41,-141.16"/>
</g>
<!-- Node8 -->
<g id="node8" class="node">
<title>Node8</title>
<g id="a_node8"><a xlink:href="../../d2/d42/classjavolution_1_1xml_1_1XMLBinding.html#a542e6c87723352ae54bf8a69040be7b7" target="_top" xlink:title=" ">
<polygon fill="white" stroke="black" points="185,-137.5 185,-156.5 361,-156.5 361,-137.5 185,-137.5"/>
<text text-anchor="middle" x="273" y="-144.5" font-family="Helvetica,sans-Serif" font-size="10.00">javolution.xml.XMLBinding.reset</text>
</a>
</g>
</g>
<!-- Node3&#45;&gt;Node8 -->
<g id="edge7" class="edge">
<title>Node3&#45;&gt;Node8</title>
<path fill="none" stroke="midnightblue" d="M386.84,-134.95C378.31,-135.86 369.68,-136.78 361.2,-137.69"/>
<polygon fill="midnightblue" stroke="midnightblue" points="387.23,-138.43 396.81,-133.88 386.49,-131.47 387.23,-138.43"/>
</g>
<!-- Node9 -->
<g id="node9" class="node">
<title>Node9</title>
<g id="a_node9"><a xlink:href="../../d2/d42/classjavolution_1_1xml_1_1XMLBinding.html#aabd07ba6a4b486c0f5508e86ab449d29" target="_top" xlink:title=" ">
<polygon fill="white" stroke="black" points="190,-88 190,-118 356,-118 356,-88 190,-88"/>
<text text-anchor="start" x="198" y="-106" font-family="Helvetica,sans-Serif" font-size="10.00">javolution.xml.XMLBinding.set</text>
<text text-anchor="middle" x="273" y="-95" font-family="Helvetica,sans-Serif" font-size="10.00">Alias</text>
</a>
</g>
</g>
<!-- Node3&#45;&gt;Node9 -->
<g id="edge8" class="edge">
<title>Node3&#45;&gt;Node9</title>
<path fill="none" stroke="midnightblue" d="M386.68,-115.03C376.5,-113.95 366.2,-112.85 356.17,-111.77"/>
<polygon fill="midnightblue" stroke="midnightblue" points="386.49,-118.53 396.81,-116.12 387.23,-111.57 386.49,-118.53"/>
</g>
<!-- Node10 -->
<g id="node10" class="node">
<title>Node10</title>
<g id="a_node10"><a xlink:href="../../d2/d42/classjavolution_1_1xml_1_1XMLBinding.html#a21ba15347d6cc8001b2e7006042e5591" target="_top" xlink:title=" ">
<polygon fill="white" stroke="black" points="190,-39 190,-69 356,-69 356,-39 190,-39"/>
<text text-anchor="start" x="198" y="-57" font-family="Helvetica,sans-Serif" font-size="10.00">javolution.xml.XMLBinding.set</text>
<text text-anchor="middle" x="273" y="-46" font-family="Helvetica,sans-Serif" font-size="10.00">ClassAttribute</text>
</a>
</g>
</g>
<!-- Node3&#45;&gt;Node10 -->
<g id="edge9" class="edge">
<title>Node3&#45;&gt;Node10</title>
<path fill="none" stroke="midnightblue" d="M448.65,-111.55C424.85,-101.61 391.18,-88.09 361,-78 351.64,-74.87 341.62,-71.83 331.82,-69.02"/>
<polygon fill="midnightblue" stroke="midnightblue" points="447.32,-114.79 457.89,-115.44 450.03,-108.34 447.32,-114.79"/>
</g>
<!-- Node11 -->
<g id="node11" class="node">
<title>Node11</title>
<g id="a_node11"><a xlink:href="../../d0/dc4/classjavolution_1_1xml_1_1QName.html#a4f631877b3f9f941b57c23f82818fe4b" target="_top" xlink:title=" ">
<polygon fill="white" stroke="black" points="189,-0.5 189,-19.5 357,-19.5 357,-0.5 189,-0.5"/>
<text text-anchor="middle" x="273" y="-7.5" font-family="Helvetica,sans-Serif" font-size="10.00">javolution.xml.QName.valueOf</text>
</a>
</g>
</g>
<!-- Node3&#45;&gt;Node11 -->
<g id="edge10" class="edge">
<title>Node3&#45;&gt;Node11</title>
<path fill="none" stroke="midnightblue" d="M464.22,-108.12C442.92,-86.38 402.79,-49.03 361,-29 352.91,-25.12 344.03,-22.03 335.11,-19.56"/>
<polygon fill="midnightblue" stroke="midnightblue" points="461.73,-110.58 471.19,-115.36 466.78,-105.72 461.73,-110.58"/>
</g>
<!-- Node5 -->
<g id="node5" class="node">
<title>Node5</title>
<g id="a_node5"><a xlink:href="../../d9/d60/classjavolution_1_1xml_1_1XMLFormat_1_1InputElement.html#adca9deb7d768781436c703513bdd18bb" target="_top" xlink:title=" ">
<polygon fill="white" stroke="black" points="0,-249 0,-279 149,-279 149,-249 0,-249"/>
<text text-anchor="start" x="8" y="-267" font-family="Helvetica,sans-Serif" font-size="10.00">javolution.xml.XMLFormat.</text>
<text text-anchor="middle" x="74.5" y="-256" font-family="Helvetica,sans-Serif" font-size="10.00">InputElement.get</text>
</a>
</g>
</g>
<!-- Node4&#45;&gt;Node5 -->
<g id="edge4" class="edge">
<title>Node4&#45;&gt;Node5</title>
<path fill="none" stroke="midnightblue" d="M176.45,-251.67C167.27,-252.79 158.06,-253.92 149.14,-255.01"/>
<polygon fill="midnightblue" stroke="midnightblue" points="176.88,-255.14 186.38,-250.46 176.03,-248.2 176.88,-255.14"/>
</g>
<!-- Node6 -->
<g id="node6" class="node">
<title>Node6</title>
<g id="a_node6"><a xlink:href="../../d9/d60/classjavolution_1_1xml_1_1XMLFormat_1_1InputElement.html#a1a9f1d9cc2954e37458f7e2eacbd4563" target="_top" xlink:title=" ">
<polygon fill="white" stroke="black" points="0,-200 0,-230 149,-230 149,-200 0,-200"/>
<text text-anchor="start" x="8" y="-218" font-family="Helvetica,sans-Serif" font-size="10.00">javolution.xml.XMLFormat.</text>
<text text-anchor="middle" x="74.5" y="-207" font-family="Helvetica,sans-Serif" font-size="10.00">InputElement.getNext</text>
</a>
</g>
</g>
<!-- Node4&#45;&gt;Node6 -->
<g id="edge5" class="edge">
<title>Node4&#45;&gt;Node6</title>
<path fill="none" stroke="midnightblue" d="M176.45,-227.84C167.27,-226.68 158.06,-225.5 149.14,-224.37"/>
<polygon fill="midnightblue" stroke="midnightblue" points="176.02,-231.32 186.38,-229.11 176.91,-224.37 176.02,-231.32"/>
</g>
</g>
</svg>
