<?xml version="1.0" encoding="UTF-8" standalone="no"?>
<!DOCTYPE svg PUBLIC "-//W3C//DTD SVG 1.1//EN"
 "http://www.w3.org/Graphics/SVG/1.1/DTD/svg11.dtd">
<!-- Generated by graphviz version 2.43.0 (0)
 -->
<!-- Title: javolution.xml.QName.readResolve Pages: 1 -->
<svg width="968pt" height="97pt"
 viewBox="0.00 0.00 968.00 96.50" xmlns="http://www.w3.org/2000/svg" xmlns:xlink="http://www.w3.org/1999/xlink">
<g id="graph0" class="graph" transform="scale(1 1) rotate(0) translate(4 92.5)">
<title>javolution.xml.QName.readResolve</title>
<polygon fill="white" stroke="transparent" points="-4,4 -4,-92.5 964,-92.5 964,4 -4,4"/>
<!-- Node1 -->
<g id="node1" class="node">
<title>Node1</title>
<g id="a_node1"><a xlink:title=" ">
<polygon fill="#bfbfbf" stroke="black" points="0,-14 0,-44 152,-44 152,-14 0,-14"/>
<text text-anchor="start" x="8" y="-32" font-family="Helvetica,sans-Serif" font-size="10.00">javolution.xml.QName.read</text>
<text text-anchor="middle" x="76" y="-21" font-family="Helvetica,sans-Serif" font-size="10.00">Resolve</text>
</a>
</g>
</g>
<!-- Node2 -->
<g id="node2" class="node">
<title>Node2</title>
<g id="a_node2"><a xlink:href="../../d0/dc4/classjavolution_1_1xml_1_1QName.html#a41d330e516b0c040456ab7730ce54394" target="_top" xlink:title=" ">
<polygon fill="white" stroke="black" points="188,-19.5 188,-38.5 356,-38.5 356,-19.5 188,-19.5"/>
<text text-anchor="middle" x="272" y="-26.5" font-family="Helvetica,sans-Serif" font-size="10.00">javolution.xml.QName.valueOf</text>
</a>
</g>
</g>
<!-- Node1&#45;&gt;Node2 -->
<g id="edge1" class="edge">
<title>Node1&#45;&gt;Node2</title>
<path fill="none" stroke="midnightblue" d="M152.01,-29C160.44,-29 169.1,-29 177.72,-29"/>
<polygon fill="midnightblue" stroke="midnightblue" points="177.81,-32.5 187.81,-29 177.81,-25.5 177.81,-32.5"/>
</g>
<!-- Node3 -->
<g id="node3" class="node">
<title>Node3</title>
<g id="a_node3"><a xlink:href="../../d0/dc4/classjavolution_1_1xml_1_1QName.html#aad0b37db47b51c65188feffbb0a3491c" target="_top" xlink:title=" ">
<polygon fill="white" stroke="black" points="392,-58 392,-88 553,-88 553,-58 392,-58"/>
<text text-anchor="start" x="400" y="-76" font-family="Helvetica,sans-Serif" font-size="10.00">javolution.xml.QName.create</text>
<text text-anchor="middle" x="472.5" y="-65" font-family="Helvetica,sans-Serif" font-size="10.00">NoNamespace</text>
</a>
</g>
</g>
<!-- Node2&#45;&gt;Node3 -->
<g id="edge2" class="edge">
<title>Node2&#45;&gt;Node3</title>
<path fill="none" stroke="midnightblue" d="M316.07,-38.55C338.72,-43.57 367.19,-49.88 393.55,-55.72"/>
<polygon fill="midnightblue" stroke="midnightblue" points="393.01,-59.19 403.53,-57.93 394.53,-52.35 393.01,-59.19"/>
</g>
<!-- Node4 -->
<g id="node4" class="node">
<title>Node4</title>
<g id="a_node4"><a xlink:href="../../d0/dc4/classjavolution_1_1xml_1_1QName.html#a74290325df829082764dafc52ed44a1f" target="_top" xlink:title=" ">
<polygon fill="white" stroke="black" points="589,-19.5 589,-38.5 756,-38.5 756,-19.5 589,-19.5"/>
<text text-anchor="middle" x="672.5" y="-26.5" font-family="Helvetica,sans-Serif" font-size="10.00">javolution.xml.QName.QName</text>
</a>
</g>
</g>
<!-- Node2&#45;&gt;Node4 -->
<g id="edge5" class="edge">
<title>Node2&#45;&gt;Node4</title>
<path fill="none" stroke="midnightblue" d="M356.05,-29C421.03,-29 511.36,-29 578.71,-29"/>
<polygon fill="midnightblue" stroke="midnightblue" points="578.9,-32.5 588.9,-29 578.9,-25.5 578.9,-32.5"/>
</g>
<!-- Node5 -->
<g id="node5" class="node">
<title>Node5</title>
<g id="a_node5"><a xlink:href="../../d0/dc4/classjavolution_1_1xml_1_1QName.html#ad25f28efea4ffc493cac269fffba93b0" target="_top" xlink:title=" ">
<polygon fill="white" stroke="black" points="792,-0.5 792,-19.5 960,-19.5 960,-0.5 792,-0.5"/>
<text text-anchor="middle" x="876" y="-7.5" font-family="Helvetica,sans-Serif" font-size="10.00">javolution.xml.QName.toString</text>
</a>
</g>
</g>
<!-- Node2&#45;&gt;Node5 -->
<g id="edge6" class="edge">
<title>Node2&#45;&gt;Node5</title>
<path fill="none" stroke="midnightblue" d="M356.1,-22.64C419.8,-18.09 509.89,-12.38 589,-10 653.24,-8.07 725.64,-8.09 781.52,-8.59"/>
<polygon fill="midnightblue" stroke="midnightblue" points="781.72,-12.09 791.76,-8.68 781.79,-5.09 781.72,-12.09"/>
</g>
<!-- Node3&#45;&gt;Node4 -->
<g id="edge3" class="edge">
<title>Node3&#45;&gt;Node4</title>
<path fill="none" stroke="midnightblue" d="M541.09,-57.98C566.48,-52.34 594.94,-46.01 618.78,-40.72"/>
<polygon fill="midnightblue" stroke="midnightblue" points="619.69,-44.1 628.69,-38.51 618.17,-37.27 619.69,-44.1"/>
</g>
<!-- Node4&#45;&gt;Node5 -->
<g id="edge4" class="edge">
<title>Node4&#45;&gt;Node5</title>
<path fill="none" stroke="midnightblue" d="M756.04,-21.22C764.55,-20.41 773.25,-19.59 781.87,-18.78"/>
<polygon fill="midnightblue" stroke="midnightblue" points="782.31,-22.26 791.94,-17.83 781.65,-15.29 782.31,-22.26"/>
</g>
</g>
</svg>
