<?xml version="1.0" encoding="UTF-8" standalone="no"?>
<!DOCTYPE svg PUBLIC "-//W3C//DTD SVG 1.1//EN"
 "http://www.w3.org/Graphics/SVG/1.1/DTD/svg11.dtd">
<!-- Generated by graphviz version 2.43.0 (0)
 -->
<!-- Title: javolution.text.CharSet.contains Pages: 1 -->
<svg width="385pt" height="351pt"
 viewBox="0.00 0.00 385.00 350.50" xmlns="http://www.w3.org/2000/svg" xmlns:xlink="http://www.w3.org/1999/xlink">
<g id="graph0" class="graph" transform="scale(1 1) rotate(0) translate(4 346.5)">
<title>javolution.text.CharSet.contains</title>
<polygon fill="white" stroke="transparent" points="-4,4 -4,-346.5 381,-346.5 381,4 -4,4"/>
<!-- Node1 -->
<g id="node1" class="node">
<title>Node1</title>
<g id="a_node1"><a xlink:title=" ">
<polygon fill="#bfbfbf" stroke="black" points="204,-167 204,-186 377,-186 377,-167 204,-167"/>
<text text-anchor="middle" x="290.5" y="-174" font-family="Helvetica,sans-Serif" font-size="10.00">javolution.text.CharSet.contains</text>
</a>
</g>
</g>
<!-- Node2 -->
<g id="node2" class="node">
<title>Node2</title>
<g id="a_node2"><a xlink:href="../../d0/dce/classjavolution_1_1text_1_1Cursor.html#ad35815c35ca887556e1d5c975dbcb7ed" target="_top" xlink:title=" ">
<polygon fill="white" stroke="black" points="17,-323 17,-342 151,-342 151,-323 17,-323"/>
<text text-anchor="middle" x="84" y="-330" font-family="Helvetica,sans-Serif" font-size="10.00">javolution.text.Cursor.at</text>
</a>
</g>
</g>
<!-- Node1&#45;&gt;Node2 -->
<g id="edge1" class="edge">
<title>Node1&#45;&gt;Node2</title>
<path fill="none" stroke="midnightblue" d="M278.59,-194.92C259.9,-224.76 218.83,-283.36 168,-313.5 161.52,-317.34 154.32,-320.41 146.95,-322.86"/>
<polygon fill="midnightblue" stroke="midnightblue" points="281.62,-196.67 283.85,-186.31 275.65,-193.02 281.62,-196.67"/>
</g>
<!-- Node3 -->
<g id="node3" class="node">
<title>Node3</title>
<g id="a_node3"><a xlink:href="../../dc/d34/classjavolution_1_1text_1_1CharSet.html#a1e2b7a1bda3bd73d81f560e7b5bbd3f0" target="_top" xlink:title=" ">
<polygon fill="white" stroke="black" points="0,-285 0,-304 168,-304 168,-285 0,-285"/>
<text text-anchor="middle" x="84" y="-292" font-family="Helvetica,sans-Serif" font-size="10.00">javolution.text.CharSet.indexIn</text>
</a>
</g>
</g>
<!-- Node1&#45;&gt;Node3 -->
<g id="edge2" class="edge">
<title>Node1&#45;&gt;Node3</title>
<path fill="none" stroke="midnightblue" d="M273.72,-193.51C252.06,-215.81 210.9,-254.55 168,-275.5 160.03,-279.39 151.24,-282.5 142.44,-284.99"/>
<polygon fill="midnightblue" stroke="midnightblue" points="276.42,-195.76 280.79,-186.1 271.35,-190.92 276.42,-195.76"/>
</g>
<!-- Node4 -->
<g id="node4" class="node">
<title>Node4</title>
<g id="a_node4"><a xlink:href="../../dc/d6d/classjavolution_1_1text_1_1Text.html#ad5afaa729cb2551de5922417094c7b2b" target="_top" xlink:title=" ">
<polygon fill="white" stroke="black" points="13.5,-235.5 13.5,-265.5 154.5,-265.5 154.5,-235.5 13.5,-235.5"/>
<text text-anchor="start" x="21.5" y="-253.5" font-family="Helvetica,sans-Serif" font-size="10.00">javolution.text.Text.index</text>
<text text-anchor="middle" x="84" y="-242.5" font-family="Helvetica,sans-Serif" font-size="10.00">OfAny</text>
</a>
</g>
</g>
<!-- Node1&#45;&gt;Node4 -->
<g id="edge3" class="edge">
<title>Node1&#45;&gt;Node4</title>
<path fill="none" stroke="midnightblue" d="M258.84,-190.2C234.49,-200.82 199.42,-215.53 168,-226.5 159.08,-229.62 149.52,-232.65 140.18,-235.46"/>
<polygon fill="midnightblue" stroke="midnightblue" points="260.51,-193.29 268.26,-186.07 257.7,-186.88 260.51,-193.29"/>
</g>
<!-- Node5 -->
<g id="node5" class="node">
<title>Node5</title>
<g id="a_node5"><a xlink:href="../../dc/d34/classjavolution_1_1text_1_1CharSet.html#ad268db56599a3e2cb28e2613c9aedd42" target="_top" xlink:title=" ">
<polygon fill="white" stroke="black" points="9,-186.5 9,-216.5 159,-216.5 159,-186.5 9,-186.5"/>
<text text-anchor="start" x="17" y="-204.5" font-family="Helvetica,sans-Serif" font-size="10.00">javolution.text.CharSet.last</text>
<text text-anchor="middle" x="84" y="-193.5" font-family="Helvetica,sans-Serif" font-size="10.00">IndexIn</text>
</a>
</g>
</g>
<!-- Node1&#45;&gt;Node5 -->
<g id="edge4" class="edge">
<title>Node1&#45;&gt;Node5</title>
<path fill="none" stroke="midnightblue" d="M201.46,-187.26C187.41,-188.98 173,-190.74 159.31,-192.42"/>
<polygon fill="midnightblue" stroke="midnightblue" points="202.1,-190.71 211.6,-186.02 201.25,-183.76 202.1,-190.71"/>
</g>
<!-- Node6 -->
<g id="node6" class="node">
<title>Node6</title>
<g id="a_node6"><a xlink:href="../../dc/d6d/classjavolution_1_1text_1_1Text.html#a938f4fea8df644226c1bf780c03ffb8e" target="_top" xlink:title=" ">
<polygon fill="white" stroke="black" points="18,-137.5 18,-167.5 150,-167.5 150,-137.5 18,-137.5"/>
<text text-anchor="start" x="26" y="-155.5" font-family="Helvetica,sans-Serif" font-size="10.00">javolution.text.Text.last</text>
<text text-anchor="middle" x="84" y="-144.5" font-family="Helvetica,sans-Serif" font-size="10.00">IndexOfAny</text>
</a>
</g>
</g>
<!-- Node1&#45;&gt;Node6 -->
<g id="edge5" class="edge">
<title>Node1&#45;&gt;Node6</title>
<path fill="none" stroke="midnightblue" d="M198.36,-165.8C182.15,-163.9 165.57,-161.96 150.27,-160.16"/>
<polygon fill="midnightblue" stroke="midnightblue" points="198.04,-169.29 208.38,-166.98 198.86,-162.34 198.04,-169.29"/>
</g>
<!-- Node7 -->
<g id="node7" class="node">
<title>Node7</title>
<g id="a_node7"><a xlink:href="../../d0/dce/classjavolution_1_1text_1_1Cursor.html#ab4a66a3ebbf1181fe6e343c914648a8f" target="_top" xlink:title=" ">
<polygon fill="white" stroke="black" points="11,-88.5 11,-118.5 157,-118.5 157,-88.5 11,-88.5"/>
<text text-anchor="start" x="19" y="-106.5" font-family="Helvetica,sans-Serif" font-size="10.00">javolution.text.Cursor.next</text>
<text text-anchor="middle" x="84" y="-95.5" font-family="Helvetica,sans-Serif" font-size="10.00">Token</text>
</a>
</g>
</g>
<!-- Node1&#45;&gt;Node7 -->
<g id="edge6" class="edge">
<title>Node1&#45;&gt;Node7</title>
<path fill="none" stroke="midnightblue" d="M257.42,-162.98C233.08,-152.92 198.69,-139.16 168,-128.5 158.19,-125.09 147.64,-121.7 137.46,-118.58"/>
<polygon fill="midnightblue" stroke="midnightblue" points="256.29,-166.3 266.87,-166.9 258.98,-159.83 256.29,-166.3"/>
</g>
<!-- Node8 -->
<g id="node8" class="node">
<title>Node8</title>
<g id="a_node8"><a xlink:href="../../d0/dce/classjavolution_1_1text_1_1Cursor.html#a5d189388f4ac79ff73930bf551d894bf" target="_top" xlink:title=" ">
<polygon fill="white" stroke="black" points="2,-50 2,-69 166,-69 166,-50 2,-50"/>
<text text-anchor="middle" x="84" y="-57" font-family="Helvetica,sans-Serif" font-size="10.00">javolution.text.Cursor.skipAny</text>
</a>
</g>
</g>
<!-- Node1&#45;&gt;Node8 -->
<g id="edge7" class="edge">
<title>Node1&#45;&gt;Node8</title>
<path fill="none" stroke="midnightblue" d="M273.28,-159.58C251.42,-137.78 210.32,-100.21 168,-79.5 159.21,-75.2 149.44,-71.79 139.77,-69.09"/>
<polygon fill="midnightblue" stroke="midnightblue" points="270.93,-162.18 280.44,-166.84 275.91,-157.26 270.93,-162.18"/>
</g>
<!-- Node9 -->
<g id="node9" class="node">
<title>Node9</title>
<g id="a_node9"><a xlink:href="../../dc/d34/classjavolution_1_1text_1_1CharSet.html#a61a8216b0001f7f590b1eedbf15b42ab" target="_top" xlink:title=" ">
<polygon fill="white" stroke="black" points="13,-0.5 13,-30.5 155,-30.5 155,-0.5 13,-0.5"/>
<text text-anchor="start" x="21" y="-18.5" font-family="Helvetica,sans-Serif" font-size="10.00">javolution.text.CharSet.to</text>
<text text-anchor="middle" x="84" y="-7.5" font-family="Helvetica,sans-Serif" font-size="10.00">String</text>
</a>
</g>
</g>
<!-- Node1&#45;&gt;Node9 -->
<g id="edge8" class="edge">
<title>Node1&#45;&gt;Node9</title>
<path fill="none" stroke="midnightblue" d="M278.07,-158.22C258.89,-129.03 217.42,-71.98 168,-40.5 161.91,-36.62 155.18,-33.32 148.27,-30.51"/>
<polygon fill="midnightblue" stroke="midnightblue" points="275.35,-160.45 283.7,-166.97 281.24,-156.67 275.35,-160.45"/>
</g>
</g>
</svg>
