<?xml version="1.0" encoding="UTF-8" standalone="no"?>
<!DOCTYPE svg PUBLIC "-//W3C//DTD SVG 1.1//EN"
 "http://www.w3.org/Graphics/SVG/1.1/DTD/svg11.dtd">
<!-- Generated by graphviz version 2.43.0 (0)
 -->
<!-- Title: javolution.text.CharSet.minus Pages: 1 -->
<svg width="529pt" height="72pt"
 viewBox="0.00 0.00 529.00 71.50" xmlns="http://www.w3.org/2000/svg" xmlns:xlink="http://www.w3.org/1999/xlink">
<g id="graph0" class="graph" transform="scale(1 1) rotate(0) translate(4 67.5)">
<title>javolution.text.CharSet.minus</title>
<polygon fill="white" stroke="transparent" points="-4,4 -4,-67.5 525,-67.5 525,4 -4,4"/>
<!-- Node1 -->
<g id="node1" class="node">
<title>Node1</title>
<g id="a_node1"><a xlink:title=" ">
<polygon fill="#bfbfbf" stroke="black" points="0,-19.5 0,-38.5 162,-38.5 162,-19.5 0,-19.5"/>
<text text-anchor="middle" x="81" y="-26.5" font-family="Helvetica,sans-Serif" font-size="10.00">javolution.text.CharSet.minus</text>
</a>
</g>
</g>
<!-- Node2 -->
<g id="node2" class="node">
<title>Node2</title>
<g id="a_node2"><a xlink:href="../../dc/d34/classjavolution_1_1text_1_1CharSet.html#a1741a0b74c6f70a9fc55d7337a8cd7d1" target="_top" xlink:title=" ">
<polygon fill="white" stroke="black" points="198,-38.5 198,-57.5 353,-57.5 353,-38.5 198,-38.5"/>
<text text-anchor="middle" x="275.5" y="-45.5" font-family="Helvetica,sans-Serif" font-size="10.00">javolution.text.CharSet.copy</text>
</a>
</g>
</g>
<!-- Node1&#45;&gt;Node2 -->
<g id="edge1" class="edge">
<title>Node1&#45;&gt;Node2</title>
<path fill="none" stroke="midnightblue" d="M162.24,-36.92C170.6,-37.75 179.13,-38.59 187.56,-39.42"/>
<polygon fill="midnightblue" stroke="midnightblue" points="187.48,-42.93 197.78,-40.43 188.17,-35.96 187.48,-42.93"/>
</g>
<!-- Node4 -->
<g id="node4" class="node">
<title>Node4</title>
<g id="a_node4"><a xlink:href="../../d4/d14/classjavolution_1_1lang_1_1MathLib.html#a61d82d4ab96ea86fb7868daf1c203048" target="_top" xlink:title=" ">
<polygon fill="white" stroke="black" points="199,-0.5 199,-19.5 352,-19.5 352,-0.5 199,-0.5"/>
<text text-anchor="middle" x="275.5" y="-7.5" font-family="Helvetica,sans-Serif" font-size="10.00">javolution.lang.MathLib.min</text>
</a>
</g>
</g>
<!-- Node1&#45;&gt;Node4 -->
<g id="edge3" class="edge">
<title>Node1&#45;&gt;Node4</title>
<path fill="none" stroke="midnightblue" d="M162.24,-21.08C170.92,-20.22 179.77,-19.35 188.51,-18.49"/>
<polygon fill="midnightblue" stroke="midnightblue" points="189.09,-21.95 198.7,-17.48 188.41,-14.98 189.09,-21.95"/>
</g>
<!-- Node3 -->
<g id="node3" class="node">
<title>Node3</title>
<g id="a_node3"><a xlink:href="../../dc/d34/classjavolution_1_1text_1_1CharSet.html#a273a2052ab2766a2d5891b61cdd354f5" target="_top" xlink:title=" ">
<polygon fill="white" stroke="black" points="389,-33 389,-63 521,-63 521,-33 389,-33"/>
<text text-anchor="start" x="397" y="-51" font-family="Helvetica,sans-Serif" font-size="10.00">javolution.text.CharSet.</text>
<text text-anchor="middle" x="455" y="-40" font-family="Helvetica,sans-Serif" font-size="10.00">CharSet</text>
</a>
</g>
</g>
<!-- Node2&#45;&gt;Node3 -->
<g id="edge2" class="edge">
<title>Node2&#45;&gt;Node3</title>
<path fill="none" stroke="midnightblue" d="M353.06,-48C361.54,-48 370.16,-48 378.62,-48"/>
<polygon fill="midnightblue" stroke="midnightblue" points="378.83,-51.5 388.83,-48 378.83,-44.5 378.83,-51.5"/>
</g>
</g>
</svg>
