<?xml version="1.0" encoding="UTF-8" standalone="no"?>
<!DOCTYPE svg PUBLIC "-//W3C//DTD SVG 1.1//EN"
 "http://www.w3.org/Graphics/SVG/1.1/DTD/svg11.dtd">
<!-- Generated by graphviz version 2.43.0 (0)
 -->
<!-- Title: javolution.util.internal.table.AtomicTableImpl&lt; E &gt; Pages: 1 -->
<svg width="1306pt" height="211pt"
 viewBox="0.00 0.00 1306.00 211.00" xmlns="http://www.w3.org/2000/svg" xmlns:xlink="http://www.w3.org/1999/xlink">
<g id="graph0" class="graph" transform="scale(1 1) rotate(0) translate(4 207)">
<title>javolution.util.internal.table.AtomicTableImpl&lt; E &gt;</title>
<polygon fill="white" stroke="transparent" points="-4,4 -4,-207 1302,-207 1302,4 -4,4"/>
<!-- Node1 -->
<g id="node1" class="node">
<title>Node1</title>
<g id="a_node1"><a xlink:title=" ">
<polygon fill="#bfbfbf" stroke="black" points="925,-92 925,-122 1080,-122 1080,-92 925,-92"/>
<text text-anchor="start" x="933" y="-110" font-family="Helvetica,sans-Serif" font-size="10.00">javolution.util.internal.table.</text>
<text text-anchor="middle" x="1002.5" y="-99" font-family="Helvetica,sans-Serif" font-size="10.00">AtomicTableImpl&lt; E &gt;</text>
</a>
</g>
</g>
<!-- Node14 -->
<g id="node14" class="node">
<title>Node14</title>
<g id="a_node14"><a xlink:href="../../d9/d49/classjavolution_1_1util_1_1internal_1_1table_1_1sorted_1_1AtomicSortedTableImpl.html" target="_top" xlink:title=" ">
<polygon fill="white" stroke="black" points="1116,-86.5 1116,-127.5 1298,-127.5 1298,-86.5 1116,-86.5"/>
<text text-anchor="start" x="1124" y="-115.5" font-family="Helvetica,sans-Serif" font-size="10.00">javolution::util::internal</text>
<text text-anchor="start" x="1124" y="-104.5" font-family="Helvetica,sans-Serif" font-size="10.00">::table::sorted::AtomicSortedTable</text>
<text text-anchor="middle" x="1207" y="-93.5" font-family="Helvetica,sans-Serif" font-size="10.00">Impl&lt; E &gt;</text>
</a>
</g>
</g>
<!-- Node1&#45;&gt;Node14 -->
<g id="edge16" class="edge">
<title>Node1&#45;&gt;Node14</title>
<path fill="none" stroke="midnightblue" d="M1090.26,-107C1098.69,-107 1107.26,-107 1115.72,-107"/>
<polygon fill="midnightblue" stroke="midnightblue" points="1090.06,-103.5 1080.06,-107 1090.06,-110.5 1090.06,-103.5"/>
</g>
<!-- Node2 -->
<g id="node2" class="node">
<title>Node2</title>
<g id="a_node2"><a xlink:href="../../d3/d15/classjavolution_1_1util_1_1internal_1_1collection_1_1AtomicCollectionImpl.html" target="_top" xlink:title=" ">
<polygon fill="white" stroke="black" points="680,-115 680,-145 889,-145 889,-115 680,-115"/>
<text text-anchor="start" x="688" y="-133" font-family="Helvetica,sans-Serif" font-size="10.00">javolution::util::internal</text>
<text text-anchor="middle" x="784.5" y="-122" font-family="Helvetica,sans-Serif" font-size="10.00">::collection::AtomicCollectionImpl&lt; E &gt;</text>
</a>
</g>
</g>
<!-- Node2&#45;&gt;Node1 -->
<g id="edge1" class="edge">
<title>Node2&#45;&gt;Node1</title>
<path fill="none" stroke="midnightblue" d="M899.22,-117.89C907.85,-116.97 916.43,-116.06 924.75,-115.17"/>
<polygon fill="midnightblue" stroke="midnightblue" points="898.64,-114.43 889.07,-118.97 899.39,-121.39 898.64,-114.43"/>
</g>
<!-- Node3 -->
<g id="node3" class="node">
<title>Node3</title>
<g id="a_node3"><a xlink:href="../../d1/d40/classjavolution_1_1util_1_1internal_1_1collection_1_1CollectionView.html" target="_top" xlink:title=" ">
<polygon fill="white" stroke="black" points="467,-117 467,-147 644,-147 644,-117 467,-117"/>
<text text-anchor="start" x="475" y="-135" font-family="Helvetica,sans-Serif" font-size="10.00">javolution::util::internal</text>
<text text-anchor="middle" x="555.5" y="-124" font-family="Helvetica,sans-Serif" font-size="10.00">::collection::CollectionView&lt; E &gt;</text>
</a>
</g>
</g>
<!-- Node3&#45;&gt;Node2 -->
<g id="edge2" class="edge">
<title>Node3&#45;&gt;Node2</title>
<path fill="none" stroke="midnightblue" d="M654.41,-131.14C662.78,-131.06 671.27,-130.99 679.69,-130.91"/>
<polygon fill="midnightblue" stroke="midnightblue" points="654.23,-127.64 644.26,-131.23 654.29,-134.64 654.23,-127.64"/>
</g>
<!-- Node4 -->
<g id="node4" class="node">
<title>Node4</title>
<g id="a_node4"><a xlink:href="../../dc/d19/classjavolution_1_1util_1_1FastCollection.html" target="_top" xlink:title=" ">
<polygon fill="white" stroke="black" points="241,-164.5 241,-183.5 431,-183.5 431,-164.5 241,-164.5"/>
<text text-anchor="middle" x="336" y="-171.5" font-family="Helvetica,sans-Serif" font-size="10.00">javolution::util::FastCollection&lt; E &gt;</text>
</a>
</g>
</g>
<!-- Node4&#45;&gt;Node3 -->
<g id="edge3" class="edge">
<title>Node4&#45;&gt;Node3</title>
<path fill="none" stroke="midnightblue" d="M396.34,-162.54C421.13,-157.75 450.28,-152.12 476.76,-147.01"/>
<polygon fill="midnightblue" stroke="midnightblue" points="395.51,-159.14 386.35,-164.47 396.84,-166.01 395.51,-159.14"/>
</g>
<!-- Node5 -->
<g id="node5" class="node">
<title>Node5</title>
<g id="a_node5"><a xlink:title=" ">
<polygon fill="white" stroke="#bfbfbf" points="31,-183.5 31,-202.5 174,-202.5 174,-183.5 31,-183.5"/>
<text text-anchor="middle" x="102.5" y="-190.5" font-family="Helvetica,sans-Serif" font-size="10.00">java::util::Collection&lt; E &gt;</text>
</a>
</g>
</g>
<!-- Node5&#45;&gt;Node4 -->
<g id="edge4" class="edge">
<title>Node5&#45;&gt;Node4</title>
<path fill="none" stroke="midnightblue" d="M184.22,-186.37C202.5,-184.88 222.06,-183.27 240.83,-181.73"/>
<polygon fill="midnightblue" stroke="midnightblue" points="183.9,-182.89 174.22,-187.2 184.47,-189.87 183.9,-182.89"/>
</g>
<!-- Node7 -->
<g id="node7" class="node">
<title>Node7</title>
<g id="a_node7"><a xlink:href="../../dd/d6c/interfacejavolution_1_1util_1_1service_1_1CollectionService.html" target="_top" xlink:title=" ">
<polygon fill="white" stroke="black" points="268,-115 268,-145 404,-145 404,-115 268,-115"/>
<text text-anchor="start" x="276" y="-133" font-family="Helvetica,sans-Serif" font-size="10.00">javolution::util::service</text>
<text text-anchor="middle" x="336" y="-122" font-family="Helvetica,sans-Serif" font-size="10.00">::CollectionService&lt; E &gt;</text>
</a>
</g>
</g>
<!-- Node5&#45;&gt;Node7 -->
<g id="edge7" class="edge">
<title>Node5&#45;&gt;Node7</title>
<path fill="none" stroke="midnightblue" d="M180.24,-181.19C188.69,-179.14 197.09,-176.76 205,-174 222.08,-168.05 224.15,-161.59 241,-155 250.44,-151.31 260.61,-147.98 270.66,-145.03"/>
<polygon fill="midnightblue" stroke="midnightblue" points="179.29,-177.82 170.32,-183.46 180.84,-184.64 179.29,-177.82"/>
</g>
<!-- Node6 -->
<g id="node6" class="node">
<title>Node6</title>
<g id="a_node6"><a xlink:title=" ">
<polygon fill="white" stroke="#bfbfbf" points="65.5,-145.5 65.5,-164.5 139.5,-164.5 139.5,-145.5 65.5,-145.5"/>
<text text-anchor="middle" x="102.5" y="-152.5" font-family="Helvetica,sans-Serif" font-size="10.00">Serializable</text>
</a>
</g>
</g>
<!-- Node6&#45;&gt;Node4 -->
<g id="edge5" class="edge">
<title>Node6&#45;&gt;Node4</title>
<path fill="none" stroke="midnightblue" d="M149.66,-158.79C175.8,-160.93 209.47,-163.7 240.92,-166.28"/>
<polygon fill="midnightblue" stroke="midnightblue" points="149.92,-155.3 139.67,-157.97 149.35,-162.28 149.92,-155.3"/>
</g>
<!-- Node6&#45;&gt;Node7 -->
<g id="edge9" class="edge">
<title>Node6&#45;&gt;Node7</title>
<path fill="none" stroke="midnightblue" d="M149.74,-150.01C183.57,-146.35 229.98,-141.34 267.89,-137.25"/>
<polygon fill="midnightblue" stroke="midnightblue" points="149.24,-146.54 139.67,-151.09 149.99,-153.5 149.24,-146.54"/>
</g>
<!-- Node7&#45;&gt;Node3 -->
<g id="edge6" class="edge">
<title>Node7&#45;&gt;Node3</title>
<path fill="none" stroke="midnightblue" d="M414.44,-130.71C431.42,-130.87 449.51,-131.03 466.85,-131.19"/>
<polygon fill="midnightblue" stroke="midnightblue" points="414.06,-127.21 404.03,-130.62 414,-134.21 414.06,-127.21"/>
</g>
<!-- Node10 -->
<g id="node10" class="node">
<title>Node10</title>
<g id="a_node10"><a xlink:href="../../df/d88/interfacejavolution_1_1util_1_1service_1_1TableService.html" target="_top" xlink:title=" ">
<polygon fill="white" stroke="black" points="491.5,-68 491.5,-98 619.5,-98 619.5,-68 491.5,-68"/>
<text text-anchor="start" x="499.5" y="-86" font-family="Helvetica,sans-Serif" font-size="10.00">javolution::util::service</text>
<text text-anchor="middle" x="555.5" y="-75" font-family="Helvetica,sans-Serif" font-size="10.00">::TableService&lt; E &gt;</text>
</a>
</g>
</g>
<!-- Node7&#45;&gt;Node10 -->
<g id="edge12" class="edge">
<title>Node7&#45;&gt;Node10</title>
<path fill="none" stroke="midnightblue" d="M413.98,-113.37C439.33,-107.89 467.21,-101.86 491.4,-96.63"/>
<polygon fill="midnightblue" stroke="midnightblue" points="413.07,-109.98 404.03,-115.51 414.55,-116.82 413.07,-109.98"/>
</g>
<!-- Node8 -->
<g id="node8" class="node">
<title>Node8</title>
<g id="a_node8"><a xlink:href="../../dd/ded/interfacejavolution_1_1util_1_1function_1_1Splittable.html" target="_top" xlink:title=" ">
<polygon fill="white" stroke="black" points="0,-96 0,-126 205,-126 205,-96 0,-96"/>
<text text-anchor="start" x="8" y="-114" font-family="Helvetica,sans-Serif" font-size="10.00">javolution::util::function</text>
<text text-anchor="middle" x="102.5" y="-103" font-family="Helvetica,sans-Serif" font-size="10.00">::Splittable&lt; CollectionService&lt; E &gt; &gt;</text>
</a>
</g>
</g>
<!-- Node8&#45;&gt;Node7 -->
<g id="edge8" class="edge">
<title>Node8&#45;&gt;Node7</title>
<path fill="none" stroke="midnightblue" d="M215.04,-120.15C233.09,-121.64 251.28,-123.13 267.84,-124.49"/>
<polygon fill="midnightblue" stroke="midnightblue" points="215.29,-116.66 205.04,-119.33 214.72,-123.64 215.29,-116.66"/>
</g>
<!-- Node9 -->
<g id="node9" class="node">
<title>Node9</title>
<g id="a_node9"><a xlink:href="../../d5/d48/classCloneable.html" target="_top" xlink:title=" ">
<polygon fill="white" stroke="black" points="70,-57.5 70,-76.5 135,-76.5 135,-57.5 70,-57.5"/>
<text text-anchor="middle" x="102.5" y="-64.5" font-family="Helvetica,sans-Serif" font-size="10.00">Cloneable</text>
</a>
</g>
</g>
<!-- Node9&#45;&gt;Node7 -->
<g id="edge10" class="edge">
<title>Node9&#45;&gt;Node7</title>
<path fill="none" stroke="midnightblue" d="M145.19,-71.92C163.83,-74.85 185.86,-79.33 205,-86 222.08,-91.95 224.15,-98.41 241,-105 250.44,-108.69 260.61,-112.02 270.66,-114.97"/>
<polygon fill="midnightblue" stroke="midnightblue" points="145.63,-68.44 135.23,-70.45 144.61,-75.37 145.63,-68.44"/>
</g>
<!-- Node10&#45;&gt;Node1 -->
<g id="edge11" class="edge">
<title>Node10&#45;&gt;Node1</title>
<path fill="none" stroke="midnightblue" d="M629.95,-86.96C711.31,-91.35 841.9,-98.39 924.62,-102.85"/>
<polygon fill="midnightblue" stroke="midnightblue" points="629.96,-83.46 619.79,-86.41 629.58,-90.45 629.96,-83.46"/>
</g>
<!-- Node11 -->
<g id="node11" class="node">
<title>Node11</title>
<g id="a_node11"><a xlink:title=" ">
<polygon fill="white" stroke="#bfbfbf" points="280.5,-76.5 280.5,-95.5 391.5,-95.5 391.5,-76.5 280.5,-76.5"/>
<text text-anchor="middle" x="336" y="-83.5" font-family="Helvetica,sans-Serif" font-size="10.00">java::util::List&lt; E &gt;</text>
</a>
</g>
</g>
<!-- Node11&#45;&gt;Node10 -->
<g id="edge13" class="edge">
<title>Node11&#45;&gt;Node10</title>
<path fill="none" stroke="midnightblue" d="M401.81,-85.11C430.14,-84.72 463.25,-84.26 491.39,-83.87"/>
<polygon fill="midnightblue" stroke="midnightblue" points="401.55,-81.61 391.6,-85.25 401.65,-88.61 401.55,-81.61"/>
</g>
<!-- Node12 -->
<g id="node12" class="node">
<title>Node12</title>
<g id="a_node12"><a xlink:title=" ">
<polygon fill="white" stroke="#bfbfbf" points="273.5,-38.5 273.5,-57.5 398.5,-57.5 398.5,-38.5 273.5,-38.5"/>
<text text-anchor="middle" x="336" y="-45.5" font-family="Helvetica,sans-Serif" font-size="10.00">java::util::Deque&lt; E &gt;</text>
</a>
</g>
</g>
<!-- Node12&#45;&gt;Node10 -->
<g id="edge14" class="edge">
<title>Node12&#45;&gt;Node10</title>
<path fill="none" stroke="midnightblue" d="M406.37,-59.16C433.58,-63.54 464.58,-68.53 491.18,-72.81"/>
<polygon fill="midnightblue" stroke="midnightblue" points="406.57,-55.65 396.15,-57.52 405.46,-62.56 406.57,-55.65"/>
</g>
<!-- Node13 -->
<g id="node13" class="node">
<title>Node13</title>
<g id="a_node13"><a xlink:title=" ">
<polygon fill="white" stroke="#bfbfbf" points="290.5,-0.5 290.5,-19.5 381.5,-19.5 381.5,-0.5 290.5,-0.5"/>
<text text-anchor="middle" x="336" y="-7.5" font-family="Helvetica,sans-Serif" font-size="10.00">RandomAccess</text>
</a>
</g>
</g>
<!-- Node13&#45;&gt;Node10 -->
<g id="edge15" class="edge">
<title>Node13&#45;&gt;Node10</title>
<path fill="none" stroke="midnightblue" d="M392.12,-19.1C405.01,-21.79 418.6,-25.08 431,-29 464.03,-39.43 500.14,-55.85 524.74,-67.84"/>
<polygon fill="midnightblue" stroke="midnightblue" points="392.46,-15.6 381.96,-17.07 391.09,-22.46 392.46,-15.6"/>
</g>
</g>
</svg>
