<?xml version="1.0" encoding="UTF-8" standalone="no"?>
<!DOCTYPE svg PUBLIC "-//W3C//DTD SVG 1.1//EN"
 "http://www.w3.org/Graphics/SVG/1.1/DTD/svg11.dtd">
<!-- Generated by graphviz version 2.43.0 (0)
 -->
<!-- Title: javolution.util.FastSortedTable&lt; E &gt; Pages: 1 -->
<!--zoomable 161 -->
<svg id="main" version="1.1" xmlns="http://www.w3.org/2000/svg" xmlns:xlink="http://www.w3.org/1999/xlink" xml:space="preserve" onload="init(evt)">
<style type="text/css"><![CDATA[
.edge:hover path { stroke: red; }
.edge:hover polygon { stroke: red; fill: red; }
]]></style>
<script type="text/javascript"><![CDATA[
var edges = document.getElementsByTagName('g');
if (edges && edges.length) {
  for (var i=0;i<edges.length;i++) {
    if (edges[i].id.substr(0,4)=='edge') {
      edges[i].setAttribute('class','edge');
    }
  }
}
]]></script>
        <defs>
                <circle id="rim" cx="0" cy="0" r="7"/>
                <circle id="rim2" cx="0" cy="0" r="3.5"/>
                <g id="zoomPlus">
                        <use xlink:href="#rim" fill="#404040">
                                <set attributeName="fill" to="#808080" begin="zoomplus.mouseover" end="zoomplus.mouseout"/>
                        </use>
                        <path d="M-4,0h8M0,-4v8" fill="none" stroke="white" stroke-width="1.5" pointer-events="none"/>
                </g>
                <g id="zoomMin">
                        <use xlink:href="#rim" fill="#404040">
                                <set attributeName="fill" to="#808080" begin="zoomminus.mouseover" end="zoomminus.mouseout"/>
                        </use>
                        <path d="M-4,0h8" fill="none" stroke="white" stroke-width="1.5" pointer-events="none"/>
                </g>
                <g id="dirArrow">
                        <path fill="none" stroke="white" stroke-width="1.5" d="M0,-3.0v7 M-2.5,-0.5L0,-3.0L2.5,-0.5"/>
                </g>
               <g id="resetDef">
                       <use xlink:href="#rim2" fill="#404040">
                               <set attributeName="fill" to="#808080" begin="reset.mouseover" end="reset.mouseout"/>
                       </use>
               </g>
        </defs>

<script type="text/javascript">
var viewWidth = 754;
var viewHeight = 161;
var sectionId = 'dynsection-0';
</script>
<script xlink:href="../../svgpan.js"/>
<svg id="graph" class="graph">
<g id="viewport">
<title>javolution.util.FastSortedTable&lt; E &gt;</title>
<polygon fill="white" stroke="transparent" points="-4,4 -4,-157 750,-157 750,4 -4,4"/>
<!-- Node1 -->
<g id="node1" class="node">
<title>Node1</title>
<g id="a_node1"><a xlink:title=" ">
<polygon fill="#bfbfbf" stroke="black" points="608,-52 608,-82 746,-82 746,-52 608,-52"/>
<text text-anchor="start" x="616" y="-70" font-family="Helvetica,sans-Serif" font-size="10.00">javolution.util.FastSorted</text>
<text text-anchor="middle" x="677" y="-59" font-family="Helvetica,sans-Serif" font-size="10.00">Table&lt; E &gt;</text>
</a>
</g>
</g>
<!-- Node2 -->
<g id="node2" class="node">
<title>Node2</title>
<g id="a_node2"><a xlink:href="../../da/dd1/classjavolution_1_1util_1_1FastTable.html" target="_top" xlink:title=" ">
<polygon fill="white" stroke="black" points="405,-57.5 405,-76.5 572,-76.5 572,-57.5 405,-57.5"/>
<text text-anchor="middle" x="488.5" y="-64.5" font-family="Helvetica,sans-Serif" font-size="10.00">javolution::util::FastTable&lt; E &gt;</text>
</a>
</g>
</g>
<!-- Node2&#45;&gt;Node1 -->
<g id="edge1" class="edge">
<title>Node2&#45;&gt;Node1</title>
<path fill="none" stroke="midnightblue" d="M582.27,-67C590.93,-67 599.6,-67 607.98,-67"/>
<polygon fill="midnightblue" stroke="midnightblue" points="582.12,-63.5 572.12,-67 582.12,-70.5 582.12,-63.5"/>
</g>
<!-- Node3 -->
<g id="node3" class="node">
<title>Node3</title>
<g id="a_node3"><a xlink:href="../../dc/d19/classjavolution_1_1util_1_1FastCollection.html" target="_top" xlink:title=" ">
<polygon fill="white" stroke="black" points="179,-114.5 179,-133.5 369,-133.5 369,-114.5 179,-114.5"/>
<text text-anchor="middle" x="274" y="-121.5" font-family="Helvetica,sans-Serif" font-size="10.00">javolution::util::FastCollection&lt; E &gt;</text>
</a>
</g>
</g>
<!-- Node3&#45;&gt;Node2 -->
<g id="edge2" class="edge">
<title>Node3&#45;&gt;Node2</title>
<path fill="none" stroke="midnightblue" d="M337.47,-112.38C348.04,-110.13 358.87,-107.64 369,-105 400.78,-96.72 436.6,-84.88 460.45,-76.62"/>
<polygon fill="midnightblue" stroke="midnightblue" points="336.52,-109.01 327.44,-114.47 337.95,-115.86 336.52,-109.01"/>
</g>
<!-- Node4 -->
<g id="node4" class="node">
<title>Node4</title>
<g id="a_node4"><a xlink:title=" ">
<polygon fill="white" stroke="#bfbfbf" points="0,-133.5 0,-152.5 143,-152.5 143,-133.5 0,-133.5"/>
<text text-anchor="middle" x="71.5" y="-140.5" font-family="Helvetica,sans-Serif" font-size="10.00">java::util::Collection&lt; E &gt;</text>
</a>
</g>
</g>
<!-- Node4&#45;&gt;Node3 -->
<g id="edge3" class="edge">
<title>Node4&#45;&gt;Node3</title>
<path fill="none" stroke="midnightblue" d="M153.29,-135.34C161.66,-134.55 170.21,-133.74 178.71,-132.93"/>
<polygon fill="midnightblue" stroke="midnightblue" points="152.81,-131.87 143.19,-136.3 153.47,-138.84 152.81,-131.87"/>
</g>
<!-- Node5 -->
<g id="node5" class="node">
<title>Node5</title>
<g id="a_node5"><a xlink:title=" ">
<polygon fill="white" stroke="#bfbfbf" points="34.5,-95.5 34.5,-114.5 108.5,-114.5 108.5,-95.5 34.5,-95.5"/>
<text text-anchor="middle" x="71.5" y="-102.5" font-family="Helvetica,sans-Serif" font-size="10.00">Serializable</text>
</a>
</g>
</g>
<!-- Node5&#45;&gt;Node3 -->
<g id="edge4" class="edge">
<title>Node5&#45;&gt;Node3</title>
<path fill="none" stroke="midnightblue" d="M118.96,-109.4C136.89,-111.1 158.08,-113.11 178.91,-115.08"/>
<polygon fill="midnightblue" stroke="midnightblue" points="119.09,-105.9 108.81,-108.44 118.43,-112.87 119.09,-105.9"/>
</g>
<!-- Node6 -->
<g id="node6" class="node">
<title>Node6</title>
<g id="a_node6"><a xlink:title=" ">
<polygon fill="white" stroke="#bfbfbf" points="218.5,-76.5 218.5,-95.5 329.5,-95.5 329.5,-76.5 218.5,-76.5"/>
<text text-anchor="middle" x="274" y="-83.5" font-family="Helvetica,sans-Serif" font-size="10.00">java::util::List&lt; E &gt;</text>
</a>
</g>
</g>
<!-- Node6&#45;&gt;Node2 -->
<g id="edge5" class="edge">
<title>Node6&#45;&gt;Node2</title>
<path fill="none" stroke="midnightblue" d="M339.89,-80.2C360.38,-78.37 383.32,-76.32 404.88,-74.39"/>
<polygon fill="midnightblue" stroke="midnightblue" points="339.37,-76.73 329.72,-81.11 340,-83.7 339.37,-76.73"/>
</g>
<!-- Node7 -->
<g id="node7" class="node">
<title>Node7</title>
<g id="a_node7"><a xlink:title=" ">
<polygon fill="white" stroke="#bfbfbf" points="211.5,-38.5 211.5,-57.5 336.5,-57.5 336.5,-38.5 211.5,-38.5"/>
<text text-anchor="middle" x="274" y="-45.5" font-family="Helvetica,sans-Serif" font-size="10.00">java::util::Deque&lt; E &gt;</text>
</a>
</g>
</g>
<!-- Node7&#45;&gt;Node2 -->
<g id="edge6" class="edge">
<title>Node7&#45;&gt;Node2</title>
<path fill="none" stroke="midnightblue" d="M346.88,-54.43C365.44,-56.09 385.56,-57.89 404.63,-59.59"/>
<polygon fill="midnightblue" stroke="midnightblue" points="347.02,-50.93 336.75,-53.52 346.4,-57.9 347.02,-50.93"/>
</g>
<!-- Node8 -->
<g id="node8" class="node">
<title>Node8</title>
<g id="a_node8"><a xlink:title=" ">
<polygon fill="white" stroke="#bfbfbf" points="228.5,-0.5 228.5,-19.5 319.5,-19.5 319.5,-0.5 228.5,-0.5"/>
<text text-anchor="middle" x="274" y="-7.5" font-family="Helvetica,sans-Serif" font-size="10.00">RandomAccess</text>
</a>
</g>
</g>
<!-- Node8&#45;&gt;Node2 -->
<g id="edge7" class="edge">
<title>Node8&#45;&gt;Node2</title>
<path fill="none" stroke="midnightblue" d="M329.85,-20.02C342.76,-22.67 356.41,-25.72 369,-29 400.78,-37.28 436.6,-49.12 460.45,-57.38"/>
<polygon fill="midnightblue" stroke="midnightblue" points="330.2,-16.52 319.7,-17.98 328.82,-23.38 330.2,-16.52"/>
</g>
</g>
</svg>
        <g id="navigator" transform="translate(0 0)" fill="#404254">
                <rect fill="#f2f5e9" fill-opacity="0.5" stroke="#606060" stroke-width=".5" x="0" y="0" width="60" height="60"/>
                <use id="zoomplus" xlink:href="#zoomPlus" x="17" y="9" onmousedown="handleZoom(evt,'in')"/>
                <use id="zoomminus" xlink:href="#zoomMin" x="42" y="9" onmousedown="handleZoom(evt,'out')"/>
                <use id="reset" xlink:href="#resetDef" x="30" y="36" onmousedown="handleReset()"/>
                <g id="arrowUp" xlink:href="#dirArrow" transform="translate(30 24)" onmousedown="handlePan(0,-1)">
                  <use xlink:href="#rim" fill="#404040">
                        <set attributeName="fill" to="#808080" begin="arrowUp.mouseover" end="arrowUp.mouseout"/>
                  </use>
                  <path fill="none" stroke="white" stroke-width="1.5" d="M0,-3.0v7 M-2.5,-0.5L0,-3.0L2.5,-0.5"/>
                </g>
                <g id="arrowRight" xlink:href="#dirArrow" transform="rotate(90) translate(36 -43)" onmousedown="handlePan(1,0)">
                  <use xlink:href="#rim" fill="#404040">
                        <set attributeName="fill" to="#808080" begin="arrowRight.mouseover" end="arrowRight.mouseout"/>
                  </use>
                  <path fill="none" stroke="white" stroke-width="1.5" d="M0,-3.0v7 M-2.5,-0.5L0,-3.0L2.5,-0.5"/>
                </g>
                <g id="arrowDown" xlink:href="#dirArrow" transform="rotate(180) translate(-30 -48)" onmousedown="handlePan(0,1)">
                  <use xlink:href="#rim" fill="#404040">
                        <set attributeName="fill" to="#808080" begin="arrowDown.mouseover" end="arrowDown.mouseout"/>
                  </use>
                  <path fill="none" stroke="white" stroke-width="1.5" d="M0,-3.0v7 M-2.5,-0.5L0,-3.0L2.5,-0.5"/>
                </g>
                <g id="arrowLeft" xlink:href="#dirArrow" transform="rotate(270) translate(-36 17)" onmousedown="handlePan(-1,0)">
                  <use xlink:href="#rim" fill="#404040">
                        <set attributeName="fill" to="#808080" begin="arrowLeft.mouseover" end="arrowLeft.mouseout"/>
                  </use>
                  <path fill="none" stroke="white" stroke-width="1.5" d="M0,-3.0v7 M-2.5,-0.5L0,-3.0L2.5,-0.5"/>
                </g>
        </g>
        <svg viewBox="0 0 15 15" width="100%" height="30px" preserveAspectRatio="xMaxYMin meet">
         <g id="arrow_out" transform="scale(0.3 0.3)">
          <a xlink:href="classjavolution_1_1util_1_1FastSortedTable__inherit__graph_org.svg" target="_base">
           <rect id="button" ry="5" rx="5" y="6" x="6" height="38" width="38"
                fill="#f2f5e9" fill-opacity="0.5" stroke="#606060" stroke-width="1.0"/>
           <path id="arrow"
             d="M 11.500037,31.436501 C 11.940474,20.09759 22.043105,11.32322 32.158766,21.979434 L 37.068811,17.246167 C 37.068811,17.246167 37.088388,32 37.088388,32 L 22.160133,31.978069 C 22.160133,31.978069 26.997745,27.140456 26.997745,27.140456 C 18.528582,18.264221 13.291696,25.230495 11.500037,31.436501 z"
             style="fill:#404040;"/>
          </a>
         </g>
        </svg>
</svg>
