<?xml version="1.0" encoding="UTF-8" standalone="no"?>
<!DOCTYPE svg PUBLIC "-//W3C//DTD SVG 1.1//EN"
 "http://www.w3.org/Graphics/SVG/1.1/DTD/svg11.dtd">
<!-- Generated by graphviz version 2.43.0 (0)
 -->
<!-- Title: javolution.util.internal.comparator.LexicalFastComparatorImpl Pages: 1 -->
<svg width="419pt" height="242pt"
 viewBox="0.00 0.00 418.50 242.00" xmlns="http://www.w3.org/2000/svg" xmlns:xlink="http://www.w3.org/1999/xlink">
<g id="graph0" class="graph" transform="scale(1 1) rotate(0) translate(4 238)">
<title>javolution.util.internal.comparator.LexicalFastComparatorImpl</title>
<polygon fill="white" stroke="transparent" points="-4,4 -4,-238 414.5,-238 414.5,4 -4,4"/>
<!-- Node1 -->
<g id="node1" class="node">
<title>Node1</title>
<g id="a_node1"><a xlink:title=" ">
<polygon fill="#bfbfbf" stroke="black" points="184.5,-0.5 184.5,-30.5 370.5,-30.5 370.5,-0.5 184.5,-0.5"/>
<text text-anchor="start" x="192.5" y="-18.5" font-family="Helvetica,sans-Serif" font-size="10.00">javolution.util.internal.comparator.</text>
<text text-anchor="middle" x="277.5" y="-7.5" font-family="Helvetica,sans-Serif" font-size="10.00">LexicalFastComparatorImpl</text>
</a>
</g>
</g>
<!-- Node2 -->
<g id="node2" class="node">
<title>Node2</title>
<g id="a_node2"><a xlink:href="../../d6/d49/classjavolution_1_1util_1_1internal_1_1comparator_1_1LexicalComparatorImpl.html" target="_top" xlink:title=" ">
<polygon fill="white" stroke="black" points="119.5,-68.5 119.5,-98.5 305.5,-98.5 305.5,-68.5 119.5,-68.5"/>
<text text-anchor="start" x="127.5" y="-86.5" font-family="Helvetica,sans-Serif" font-size="10.00">javolution.util.internal.comparator.</text>
<text text-anchor="middle" x="212.5" y="-75.5" font-family="Helvetica,sans-Serif" font-size="10.00">LexicalComparatorImpl</text>
</a>
</g>
</g>
<!-- Node2&#45;&gt;Node1 -->
<g id="edge1" class="edge">
<title>Node2&#45;&gt;Node1</title>
<path fill="none" stroke="midnightblue" d="M233.69,-60.99C243.44,-51.09 254.74,-39.61 263.42,-30.79"/>
<polygon fill="midnightblue" stroke="midnightblue" points="231.13,-58.6 226.6,-68.18 236.11,-63.51 231.13,-58.6"/>
</g>
<!-- Node3 -->
<g id="node3" class="node">
<title>Node3</title>
<g id="a_node3"><a xlink:href="../../de/d72/interfacejavolution_1_1util_1_1function_1_1Equality.html" target="_top" xlink:title=" ">
<polygon fill="white" stroke="black" points="0,-146.5 0,-176.5 155,-176.5 155,-146.5 0,-146.5"/>
<text text-anchor="start" x="8" y="-164.5" font-family="Helvetica,sans-Serif" font-size="10.00">javolution::util::function</text>
<text text-anchor="middle" x="77.5" y="-153.5" font-family="Helvetica,sans-Serif" font-size="10.00">::Equality&lt; CharSequence &gt;</text>
</a>
</g>
</g>
<!-- Node3&#45;&gt;Node2 -->
<g id="edge2" class="edge">
<title>Node3&#45;&gt;Node2</title>
<path fill="none" stroke="midnightblue" d="M111.57,-141.32C135.22,-128.01 166.19,-110.57 187.56,-98.54"/>
<polygon fill="midnightblue" stroke="midnightblue" points="109.57,-138.43 102.58,-146.38 113.01,-144.53 109.57,-138.43"/>
</g>
<!-- Node4 -->
<g id="node4" class="node">
<title>Node4</title>
<g id="a_node4"><a xlink:title=" ">
<polygon fill="white" stroke="#bfbfbf" points="1.5,-214.5 1.5,-233.5 153.5,-233.5 153.5,-214.5 1.5,-214.5"/>
<text text-anchor="middle" x="77.5" y="-221.5" font-family="Helvetica,sans-Serif" font-size="10.00">java::util::Comparator&lt; T &gt;</text>
</a>
</g>
</g>
<!-- Node4&#45;&gt;Node3 -->
<g id="edge3" class="edge">
<title>Node4&#45;&gt;Node3</title>
<path fill="none" stroke="midnightblue" d="M77.5,-204.22C77.5,-195.36 77.5,-184.96 77.5,-176.76"/>
<polygon fill="midnightblue" stroke="midnightblue" points="74,-204.33 77.5,-214.33 81,-204.33 74,-204.33"/>
</g>
<!-- Node5 -->
<g id="node5" class="node">
<title>Node5</title>
<g id="a_node5"><a xlink:title=" ">
<polygon fill="white" stroke="#bfbfbf" points="173.5,-152 173.5,-171 247.5,-171 247.5,-152 173.5,-152"/>
<text text-anchor="middle" x="210.5" y="-159" font-family="Helvetica,sans-Serif" font-size="10.00">Serializable</text>
</a>
</g>
</g>
<!-- Node5&#45;&gt;Node2 -->
<g id="edge4" class="edge">
<title>Node5&#45;&gt;Node2</title>
<path fill="none" stroke="midnightblue" d="M210.99,-141.78C211.34,-128.4 211.81,-110.69 212.13,-98.52"/>
<polygon fill="midnightblue" stroke="midnightblue" points="207.49,-141.69 210.73,-151.78 214.49,-141.88 207.49,-141.69"/>
</g>
<!-- Node6 -->
<g id="node6" class="node">
<title>Node6</title>
<g id="a_node6"><a xlink:title=" ">
<polygon fill="white" stroke="#bfbfbf" points="281.5,-152 281.5,-171 373.5,-171 373.5,-152 281.5,-152"/>
<text text-anchor="middle" x="327.5" y="-159" font-family="Helvetica,sans-Serif" font-size="10.00">static final long</text>
</a>
</g>
</g>
<!-- Node6&#45;&gt;Node1 -->
<g id="edge6" class="edge">
<title>Node6&#45;&gt;Node1</title>
<path fill="none" stroke="#9a32cd" stroke-dasharray="5,2" d="M329.95,-141.68C330.54,-134 330.7,-125.04 329.5,-117 326.13,-94.48 324.61,-88.41 314.5,-68 307.75,-54.39 297.53,-40.48 289.54,-30.56"/>
<polygon fill="#9a32cd" stroke="#9a32cd" points="326.46,-141.47 328.89,-151.78 333.42,-142.21 326.46,-141.47"/>
<text text-anchor="middle" x="368" y="-81" font-family="Helvetica,sans-Serif" font-size="10.00"> serialVersionUID</text>
</g>
<!-- Node6&#45;&gt;Node2 -->
<g id="edge5" class="edge">
<title>Node6&#45;&gt;Node2</title>
<path fill="none" stroke="#9a32cd" stroke-dasharray="5,2" d="M283.78,-148.6C270.34,-143.62 256.06,-136.87 244.5,-128 234.24,-120.12 225.74,-108.09 220.09,-98.68"/>
<polygon fill="#9a32cd" stroke="#9a32cd" points="282.77,-151.95 293.36,-151.91 285.06,-145.33 282.77,-151.95"/>
<text text-anchor="middle" x="287" y="-120" font-family="Helvetica,sans-Serif" font-size="10.00"> serialVersionUID</text>
</g>
</g>
</svg>
