<?xml version="1.0" encoding="UTF-8" standalone="no"?>
<!DOCTYPE svg PUBLIC "-//W3C//DTD SVG 1.1//EN"
 "http://www.w3.org/Graphics/SVG/1.1/DTD/svg11.dtd">
<!-- Generated by graphviz version 2.43.0 (0)
 -->
<!-- Title: javolution.xml.internal.stream.XMLStreamReaderImpl.newSeq Pages: 1 -->
<svg width="1487pt" height="579pt"
 viewBox="0.00 0.00 1487.00 579.49" xmlns="http://www.w3.org/2000/svg" xmlns:xlink="http://www.w3.org/1999/xlink">
<g id="graph0" class="graph" transform="scale(1 1) rotate(0) translate(4 575.49)">
<title>javolution.xml.internal.stream.XMLStreamReaderImpl.newSeq</title>
<polygon fill="white" stroke="transparent" points="-4,4 -4,-575.49 1483,-575.49 1483,4 -4,4"/>
<!-- Node1 -->
<g id="node1" class="node">
<title>Node1</title>
<g id="a_node1"><a xlink:title=" ">
<polygon fill="#bfbfbf" stroke="black" points="1309,-333.5 1309,-363.5 1479,-363.5 1479,-333.5 1309,-333.5"/>
<text text-anchor="start" x="1317" y="-351.5" font-family="Helvetica,sans-Serif" font-size="10.00">javolution.xml.internal.stream.</text>
<text text-anchor="middle" x="1394" y="-340.5" font-family="Helvetica,sans-Serif" font-size="10.00">XMLStreamReaderImpl.newSeq</text>
</a>
</g>
</g>
<!-- Node2 -->
<g id="node2" class="node">
<title>Node2</title>
<g id="a_node2"><a xlink:href="../../d0/d65/classjavolution_1_1xml_1_1internal_1_1stream_1_1XMLStreamReaderImpl.html#a72b51558d2acd9213ab216592156ca55" target="_top" xlink:title=" ">
<polygon fill="white" stroke="black" points="487,-529.5 487,-559.5 696,-559.5 696,-529.5 487,-529.5"/>
<text text-anchor="start" x="495" y="-547.5" font-family="Helvetica,sans-Serif" font-size="10.00">javolution.xml.internal.stream.</text>
<text text-anchor="middle" x="591.5" y="-536.5" font-family="Helvetica,sans-Serif" font-size="10.00">XMLStreamReaderImpl.getElementText</text>
</a>
</g>
</g>
<!-- Node1&#45;&gt;Node2 -->
<g id="edge1" class="edge">
<title>Node1&#45;&gt;Node2</title>
<path fill="none" stroke="midnightblue" d="M1380.83,-372.84C1362.55,-406.44 1324.6,-465.89 1273,-492.5 1084.24,-589.85 826.19,-576.37 688.42,-559.53"/>
<polygon fill="midnightblue" stroke="midnightblue" points="1384.08,-374.18 1385.66,-363.7 1377.89,-370.91 1384.08,-374.18"/>
</g>
<!-- Node4 -->
<g id="node4" class="node">
<title>Node4</title>
<g id="a_node4"><a xlink:href="../../d0/d65/classjavolution_1_1xml_1_1internal_1_1stream_1_1XMLStreamReaderImpl.html#a058331c362bc6403282b1e954c7dd0a7" target="_top" xlink:title=" ">
<polygon fill="white" stroke="black" points="769.5,-245.5 769.5,-275.5 972.5,-275.5 972.5,-245.5 769.5,-245.5"/>
<text text-anchor="start" x="777.5" y="-263.5" font-family="Helvetica,sans-Serif" font-size="10.00">javolution.xml.internal.stream.</text>
<text text-anchor="middle" x="871" y="-252.5" font-family="Helvetica,sans-Serif" font-size="10.00">XMLStreamReaderImpl.getLocalName</text>
</a>
</g>
</g>
<!-- Node1&#45;&gt;Node4 -->
<g id="edge3" class="edge">
<title>Node1&#45;&gt;Node4</title>
<path fill="none" stroke="midnightblue" d="M1365.21,-327.38C1341.95,-311.01 1307.16,-289.49 1273,-279.5 1173.83,-250.49 1055.04,-248.71 972.61,-252.35"/>
<polygon fill="midnightblue" stroke="midnightblue" points="1363.38,-330.37 1373.54,-333.37 1367.46,-324.69 1363.38,-330.37"/>
</g>
<!-- Node12 -->
<g id="node12" class="node">
<title>Node12</title>
<g id="a_node12"><a xlink:href="../../d0/d65/classjavolution_1_1xml_1_1internal_1_1stream_1_1XMLStreamReaderImpl.html#a6ddf8d2bcaa0a153f5162412e5465eee" target="_top" xlink:title=" ">
<polygon fill="white" stroke="black" points="781,-333.5 781,-363.5 961,-363.5 961,-333.5 781,-333.5"/>
<text text-anchor="start" x="789" y="-351.5" font-family="Helvetica,sans-Serif" font-size="10.00">javolution.xml.internal.stream.</text>
<text text-anchor="middle" x="871" y="-340.5" font-family="Helvetica,sans-Serif" font-size="10.00">XMLStreamReaderImpl.getPIData</text>
</a>
</g>
</g>
<!-- Node1&#45;&gt;Node12 -->
<g id="edge11" class="edge">
<title>Node1&#45;&gt;Node12</title>
<path fill="none" stroke="midnightblue" d="M1298.44,-348.5C1202.59,-348.5 1055.37,-348.5 961.4,-348.5"/>
<polygon fill="midnightblue" stroke="midnightblue" points="1298.71,-352 1308.71,-348.5 1298.71,-345 1298.71,-352"/>
</g>
<!-- Node14 -->
<g id="node14" class="node">
<title>Node14</title>
<g id="a_node14"><a xlink:href="../../d0/d65/classjavolution_1_1xml_1_1internal_1_1stream_1_1XMLStreamReaderImpl.html#a239bb6045636040c14e9ab4f9ab619d9" target="_top" xlink:title=" ">
<polygon fill="white" stroke="black" points="1066,-289.5 1066,-319.5 1253,-319.5 1253,-289.5 1066,-289.5"/>
<text text-anchor="start" x="1074" y="-307.5" font-family="Helvetica,sans-Serif" font-size="10.00">javolution.xml.internal.stream.</text>
<text text-anchor="middle" x="1159.5" y="-296.5" font-family="Helvetica,sans-Serif" font-size="10.00">XMLStreamReaderImpl.getPITarget</text>
</a>
</g>
</g>
<!-- Node1&#45;&gt;Node14 -->
<g id="edge14" class="edge">
<title>Node1&#45;&gt;Node14</title>
<path fill="none" stroke="midnightblue" d="M1303.75,-331.61C1282.73,-327.63 1260.46,-323.42 1239.9,-319.53"/>
<polygon fill="midnightblue" stroke="midnightblue" points="1303.16,-335.06 1313.64,-333.48 1304.46,-328.18 1303.16,-335.06"/>
</g>
<!-- Node15 -->
<g id="node15" class="node">
<title>Node15</title>
<g id="a_node15"><a xlink:href="../../d0/d65/classjavolution_1_1xml_1_1internal_1_1stream_1_1XMLStreamReaderImpl.html#ac84b89e7554210349fece969e0a34f77" target="_top" xlink:title=" ">
<polygon fill="white" stroke="black" points="1071.5,-198.5 1071.5,-228.5 1247.5,-228.5 1247.5,-198.5 1071.5,-198.5"/>
<text text-anchor="start" x="1079.5" y="-216.5" font-family="Helvetica,sans-Serif" font-size="10.00">javolution.xml.internal.stream.</text>
<text text-anchor="middle" x="1159.5" y="-205.5" font-family="Helvetica,sans-Serif" font-size="10.00">XMLStreamReaderImpl.getPrefix</text>
</a>
</g>
</g>
<!-- Node1&#45;&gt;Node15 -->
<g id="edge16" class="edge">
<title>Node1&#45;&gt;Node15</title>
<path fill="none" stroke="midnightblue" d="M1372.37,-326.11C1349.97,-303.06 1312.13,-267.62 1273,-246.5 1259.3,-239.1 1243.74,-233.18 1228.66,-228.51"/>
<polygon fill="midnightblue" stroke="midnightblue" points="1369.91,-328.61 1379.35,-333.42 1374.97,-323.77 1369.91,-328.61"/>
</g>
<!-- Node17 -->
<g id="node17" class="node">
<title>Node17</title>
<g id="a_node17"><a xlink:href="../../d0/d65/classjavolution_1_1xml_1_1internal_1_1stream_1_1XMLStreamReaderImpl.html#a3a37f6eded5c5c6151cdf063bf0844b8" target="_top" xlink:title=" ">
<polygon fill="white" stroke="black" points="1057,-426.5 1057,-456.5 1262,-456.5 1262,-426.5 1057,-426.5"/>
<text text-anchor="start" x="1065" y="-444.5" font-family="Helvetica,sans-Serif" font-size="10.00">javolution.xml.internal.stream.</text>
<text text-anchor="middle" x="1159.5" y="-433.5" font-family="Helvetica,sans-Serif" font-size="10.00">XMLStreamReaderImpl.isEndOfStream</text>
</a>
</g>
</g>
<!-- Node1&#45;&gt;Node17 -->
<g id="edge19" class="edge">
<title>Node1&#45;&gt;Node17</title>
<path fill="none" stroke="midnightblue" d="M1362.5,-369.16C1338.96,-384.25 1305.11,-404.15 1273,-416.5 1263.1,-420.31 1252.48,-423.61 1241.86,-426.45"/>
<polygon fill="midnightblue" stroke="midnightblue" points="1364.51,-372.03 1370.99,-363.64 1360.7,-366.16 1364.51,-372.03"/>
</g>
<!-- Node18 -->
<g id="node18" class="node">
<title>Node18</title>
<g id="a_node18"><a xlink:href="../../d0/d65/classjavolution_1_1xml_1_1internal_1_1stream_1_1XMLStreamReaderImpl.html#a390337cd640ada29ab3aa42a584c8ed8" target="_top" xlink:title=" ">
<polygon fill="white" stroke="black" points="787,-426.5 787,-456.5 955,-456.5 955,-426.5 787,-426.5"/>
<text text-anchor="start" x="795" y="-444.5" font-family="Helvetica,sans-Serif" font-size="10.00">javolution.xml.internal.stream.</text>
<text text-anchor="middle" x="871" y="-433.5" font-family="Helvetica,sans-Serif" font-size="10.00">XMLStreamReaderImpl.next</text>
</a>
</g>
</g>
<!-- Node1&#45;&gt;Node18 -->
<g id="edge28" class="edge">
<title>Node1&#45;&gt;Node18</title>
<path fill="none" stroke="midnightblue" d="M1377.55,-372.4C1357.45,-401.04 1319.36,-447.52 1273,-466.5 1151.96,-516.04 993.11,-479.6 916.77,-456.55"/>
<polygon fill="midnightblue" stroke="midnightblue" points="1380.68,-374.02 1383.43,-363.79 1374.9,-370.08 1380.68,-374.02"/>
</g>
<!-- Node22 -->
<g id="node22" class="node">
<title>Node22</title>
<g id="a_node22"><a xlink:href="../../d0/d65/classjavolution_1_1xml_1_1internal_1_1stream_1_1XMLStreamReaderImpl.html#a53db005e39d45328c5ac531a86602d0c" target="_top" xlink:title=" ">
<polygon fill="white" stroke="black" points="1053.5,-377.5 1053.5,-407.5 1265.5,-407.5 1265.5,-377.5 1053.5,-377.5"/>
<text text-anchor="start" x="1061.5" y="-395.5" font-family="Helvetica,sans-Serif" font-size="10.00">javolution.xml.internal.stream.</text>
<text text-anchor="middle" x="1159.5" y="-384.5" font-family="Helvetica,sans-Serif" font-size="10.00">XMLStreamReaderImpl.processAttribute</text>
</a>
</g>
</g>
<!-- Node1&#45;&gt;Node22 -->
<g id="edge29" class="edge">
<title>Node1&#45;&gt;Node22</title>
<path fill="none" stroke="midnightblue" d="M1303.75,-365.39C1282.73,-369.37 1260.46,-373.58 1239.9,-377.47"/>
<polygon fill="midnightblue" stroke="midnightblue" points="1304.46,-368.82 1313.64,-363.52 1303.16,-361.94 1304.46,-368.82"/>
</g>
<!-- Node23 -->
<g id="node23" class="node">
<title>Node23</title>
<g id="a_node23"><a xlink:href="../../d0/d65/classjavolution_1_1xml_1_1internal_1_1stream_1_1XMLStreamReaderImpl.html#aae420328587f7e834ac5dfeb414ba461" target="_top" xlink:title=" ">
<polygon fill="white" stroke="black" points="1046,-98.5 1046,-128.5 1273,-128.5 1273,-98.5 1046,-98.5"/>
<text text-anchor="start" x="1054" y="-116.5" font-family="Helvetica,sans-Serif" font-size="10.00">javolution.xml.internal.stream.</text>
<text text-anchor="middle" x="1159.5" y="-105.5" font-family="Helvetica,sans-Serif" font-size="10.00">XMLStreamReaderImpl.readPrologAttribute</text>
</a>
</g>
</g>
<!-- Node1&#45;&gt;Node23 -->
<g id="edge31" class="edge">
<title>Node1&#45;&gt;Node23</title>
<path fill="none" stroke="midnightblue" d="M1378.64,-324.44C1358.07,-291.28 1317.73,-230.81 1273,-188.5 1247.25,-164.14 1212.74,-142.42 1188.76,-128.71"/>
<polygon fill="midnightblue" stroke="midnightblue" points="1375.7,-326.34 1383.9,-333.04 1381.66,-322.68 1375.7,-326.34"/>
</g>
<!-- Node3 -->
<g id="node3" class="node">
<title>Node3</title>
<g id="a_node3"><a xlink:href="../../d9/d60/classjavolution_1_1xml_1_1XMLFormat_1_1InputElement.html#a1858fc90a06227e089492a4f40fc77ac" target="_top" xlink:title=" ">
<polygon fill="white" stroke="black" points="254.5,-529.5 254.5,-559.5 403.5,-559.5 403.5,-529.5 254.5,-529.5"/>
<text text-anchor="start" x="262.5" y="-547.5" font-family="Helvetica,sans-Serif" font-size="10.00">javolution.xml.XMLFormat.</text>
<text text-anchor="middle" x="329" y="-536.5" font-family="Helvetica,sans-Serif" font-size="10.00">InputElement.getText</text>
</a>
</g>
</g>
<!-- Node2&#45;&gt;Node3 -->
<g id="edge2" class="edge">
<title>Node2&#45;&gt;Node3</title>
<path fill="none" stroke="midnightblue" d="M476.63,-544.5C451.9,-544.5 426.36,-544.5 403.67,-544.5"/>
<polygon fill="midnightblue" stroke="midnightblue" points="476.8,-548 486.79,-544.5 476.79,-541 476.8,-548"/>
</g>
<!-- Node5 -->
<g id="node5" class="node">
<title>Node5</title>
<g id="a_node5"><a xlink:href="../../d9/d60/classjavolution_1_1xml_1_1XMLFormat_1_1InputElement.html#adca9deb7d768781436c703513bdd18bb" target="_top" xlink:title=" ">
<polygon fill="white" stroke="black" points="517,-235.5 517,-265.5 666,-265.5 666,-235.5 517,-235.5"/>
<text text-anchor="start" x="525" y="-253.5" font-family="Helvetica,sans-Serif" font-size="10.00">javolution.xml.XMLFormat.</text>
<text text-anchor="middle" x="591.5" y="-242.5" font-family="Helvetica,sans-Serif" font-size="10.00">InputElement.get</text>
</a>
</g>
</g>
<!-- Node4&#45;&gt;Node5 -->
<g id="edge4" class="edge">
<title>Node4&#45;&gt;Node5</title>
<path fill="none" stroke="midnightblue" d="M759.34,-256.51C728.04,-255.38 694.75,-254.18 666.2,-253.16"/>
<polygon fill="midnightblue" stroke="midnightblue" points="759.3,-260.01 769.42,-256.88 759.56,-253.02 759.3,-260.01"/>
</g>
<!-- Node6 -->
<g id="node6" class="node">
<title>Node6</title>
<g id="a_node6"><a xlink:href="../../d9/d60/classjavolution_1_1xml_1_1XMLFormat_1_1InputElement.html#a1a9f1d9cc2954e37458f7e2eacbd4563" target="_top" xlink:title=" ">
<polygon fill="white" stroke="black" points="517,-333.5 517,-363.5 666,-363.5 666,-333.5 517,-333.5"/>
<text text-anchor="start" x="525" y="-351.5" font-family="Helvetica,sans-Serif" font-size="10.00">javolution.xml.XMLFormat.</text>
<text text-anchor="middle" x="591.5" y="-340.5" font-family="Helvetica,sans-Serif" font-size="10.00">InputElement.getNext</text>
</a>
</g>
</g>
<!-- Node4&#45;&gt;Node6 -->
<g id="edge5" class="edge">
<title>Node4&#45;&gt;Node6</title>
<path fill="none" stroke="midnightblue" d="M822.63,-279.25C787.91,-292.61 739.45,-310.43 696,-323.5 684.32,-327.01 671.78,-330.38 659.6,-333.44"/>
<polygon fill="midnightblue" stroke="midnightblue" points="823.98,-282.49 832.05,-275.61 821.46,-275.96 823.98,-282.49"/>
</g>
<!-- Node7 -->
<g id="node7" class="node">
<title>Node7</title>
<g id="a_node7"><a xlink:href="../../d6/d79/classjavolution_1_1xml_1_1sax_1_1XMLReaderImpl.html#a7060e3d22c1cb128897bfc57a7e0cc64" target="_top" xlink:title=" ">
<polygon fill="white" stroke="black" points="508.5,-284.5 508.5,-314.5 674.5,-314.5 674.5,-284.5 508.5,-284.5"/>
<text text-anchor="start" x="516.5" y="-302.5" font-family="Helvetica,sans-Serif" font-size="10.00">javolution.xml.sax.XMLReader</text>
<text text-anchor="middle" x="591.5" y="-291.5" font-family="Helvetica,sans-Serif" font-size="10.00">Impl.parseAll</text>
</a>
</g>
</g>
<!-- Node4&#45;&gt;Node7 -->
<g id="edge6" class="edge">
<title>Node4&#45;&gt;Node7</title>
<path fill="none" stroke="midnightblue" d="M759.47,-276.03C731.13,-280.02 701.14,-284.23 674.52,-287.97"/>
<polygon fill="midnightblue" stroke="midnightblue" points="760.01,-279.49 769.42,-274.64 759.03,-272.56 760.01,-279.49"/>
</g>
<!-- Node11 -->
<g id="node11" class="node">
<title>Node11</title>
<g id="a_node11"><a xlink:href="../../d0/d65/classjavolution_1_1xml_1_1internal_1_1stream_1_1XMLStreamReaderImpl.html#a1c9c4fe07d58cbe4a428a4b0c9b07f13" target="_top" xlink:title=" ">
<polygon fill="white" stroke="black" points="507.5,-186.5 507.5,-216.5 675.5,-216.5 675.5,-186.5 507.5,-186.5"/>
<text text-anchor="start" x="515.5" y="-204.5" font-family="Helvetica,sans-Serif" font-size="10.00">javolution.xml.internal.stream.</text>
<text text-anchor="middle" x="591.5" y="-193.5" font-family="Helvetica,sans-Serif" font-size="10.00">XMLStreamReaderImpl.require</text>
</a>
</g>
</g>
<!-- Node4&#45;&gt;Node11 -->
<g id="edge10" class="edge">
<title>Node4&#45;&gt;Node11</title>
<path fill="none" stroke="midnightblue" d="M770.43,-243.59C757.46,-241.06 744.39,-238.34 732,-235.5 715.81,-231.79 712.09,-229.6 696,-225.5 684.11,-222.47 671.42,-219.4 659.14,-216.51"/>
<polygon fill="midnightblue" stroke="midnightblue" points="769.82,-247.04 780.3,-245.49 771.14,-240.16 769.82,-247.04"/>
</g>
<!-- Node8 -->
<g id="node8" class="node">
<title>Node8</title>
<g id="a_node8"><a xlink:href="../../d6/d79/classjavolution_1_1xml_1_1sax_1_1XMLReaderImpl.html#af59c6a5e7282b94dea9be9452f9c945e" target="_top" xlink:title=" ">
<polygon fill="white" stroke="black" points="246,-248.5 246,-278.5 412,-278.5 412,-248.5 246,-248.5"/>
<text text-anchor="start" x="254" y="-266.5" font-family="Helvetica,sans-Serif" font-size="10.00">javolution.xml.sax.XMLReader</text>
<text text-anchor="middle" x="329" y="-255.5" font-family="Helvetica,sans-Serif" font-size="10.00">Impl.parse</text>
</a>
</g>
</g>
<!-- Node7&#45;&gt;Node8 -->
<g id="edge7" class="edge">
<title>Node7&#45;&gt;Node8</title>
<path fill="none" stroke="midnightblue" d="M498.21,-286.75C470.13,-282.87 439.47,-278.63 412.1,-274.85"/>
<polygon fill="midnightblue" stroke="midnightblue" points="498.05,-290.26 508.43,-288.16 499.01,-283.32 498.05,-290.26"/>
</g>
<!-- Node9 -->
<g id="node9" class="node">
<title>Node9</title>
<g id="a_node9"><a xlink:href="../../d5/de1/classjavolution_1_1xml_1_1sax_1_1SAX2ReaderImpl.html#ac88f97df2622809ba9f127e173f20f17" target="_top" xlink:title=" ">
<polygon fill="white" stroke="black" points="0,-272.5 0,-302.5 171,-302.5 171,-272.5 0,-272.5"/>
<text text-anchor="start" x="8" y="-290.5" font-family="Helvetica,sans-Serif" font-size="10.00">javolution.xml.sax.SAX2Reader</text>
<text text-anchor="middle" x="85.5" y="-279.5" font-family="Helvetica,sans-Serif" font-size="10.00">Impl.parse</text>
</a>
</g>
</g>
<!-- Node8&#45;&gt;Node9 -->
<g id="edge8" class="edge">
<title>Node8&#45;&gt;Node9</title>
<path fill="none" stroke="midnightblue" d="M235.91,-272.65C214.67,-274.76 192.17,-277 171.25,-279.08"/>
<polygon fill="midnightblue" stroke="midnightblue" points="236.3,-276.13 245.9,-271.66 235.6,-269.16 236.3,-276.13"/>
</g>
<!-- Node10 -->
<g id="node10" class="node">
<title>Node10</title>
<g id="a_node10"><a xlink:href="../../d6/d79/classjavolution_1_1xml_1_1sax_1_1XMLReaderImpl.html#a255e7cbc9ce8eced22fae7c8138b6cfb" target="_top" xlink:title=" ">
<polygon fill="white" stroke="black" points="2.5,-223.5 2.5,-253.5 168.5,-253.5 168.5,-223.5 2.5,-223.5"/>
<text text-anchor="start" x="10.5" y="-241.5" font-family="Helvetica,sans-Serif" font-size="10.00">javolution.xml.sax.XMLReader</text>
<text text-anchor="middle" x="85.5" y="-230.5" font-family="Helvetica,sans-Serif" font-size="10.00">Impl.parse</text>
</a>
</g>
</g>
<!-- Node8&#45;&gt;Node10 -->
<g id="edge9" class="edge">
<title>Node8&#45;&gt;Node10</title>
<path fill="none" stroke="midnightblue" d="M235.87,-253.96C213.8,-251.68 190.37,-249.25 168.78,-247.02"/>
<polygon fill="midnightblue" stroke="midnightblue" points="235.59,-257.45 245.9,-255 236.32,-250.49 235.59,-257.45"/>
</g>
<!-- Node12&#45;&gt;Node7 -->
<g id="edge12" class="edge">
<title>Node12&#45;&gt;Node7</title>
<path fill="none" stroke="midnightblue" d="M774.86,-331.7C742.27,-325.95 706.1,-319.56 674.63,-314"/>
<polygon fill="midnightblue" stroke="midnightblue" points="774.4,-335.17 784.85,-333.47 775.62,-328.28 774.4,-335.17"/>
</g>
<!-- Node13 -->
<g id="node13" class="node">
<title>Node13</title>
<g id="a_node13"><a xlink:href="../../d0/d65/classjavolution_1_1xml_1_1internal_1_1stream_1_1XMLStreamReaderImpl.html#a5e11adbb1f420b45116c6412caf6ccf1" target="_top" xlink:title=" ">
<polygon fill="white" stroke="black" points="505.5,-382.5 505.5,-412.5 677.5,-412.5 677.5,-382.5 505.5,-382.5"/>
<text text-anchor="start" x="513.5" y="-400.5" font-family="Helvetica,sans-Serif" font-size="10.00">javolution.xml.internal.stream.</text>
<text text-anchor="middle" x="591.5" y="-389.5" font-family="Helvetica,sans-Serif" font-size="10.00">XMLStreamReaderImpl.setInput</text>
</a>
</g>
</g>
<!-- Node12&#45;&gt;Node13 -->
<g id="edge13" class="edge">
<title>Node12&#45;&gt;Node13</title>
<path fill="none" stroke="midnightblue" d="M774.73,-365.32C743.15,-370.9 708.23,-377.06 677.48,-382.49"/>
<polygon fill="midnightblue" stroke="midnightblue" points="775.62,-368.72 784.85,-363.53 774.4,-361.83 775.62,-368.72"/>
</g>
<!-- Node14&#45;&gt;Node7 -->
<g id="edge15" class="edge">
<title>Node14&#45;&gt;Node7</title>
<path fill="none" stroke="midnightblue" d="M1055.94,-303.59C946.64,-302.63 775.77,-301.12 674.89,-300.23"/>
<polygon fill="midnightblue" stroke="midnightblue" points="1055.96,-307.09 1065.99,-303.68 1056.02,-300.09 1055.96,-307.09"/>
</g>
<!-- Node16 -->
<g id="node16" class="node">
<title>Node16</title>
<g id="a_node16"><a xlink:href="../../d0/d65/classjavolution_1_1xml_1_1internal_1_1stream_1_1XMLStreamReaderImpl.html#a32ff8d2be6a7d570031a2d9785ac23db" target="_top" xlink:title=" ">
<polygon fill="white" stroke="black" points="759.5,-196.5 759.5,-226.5 982.5,-226.5 982.5,-196.5 759.5,-196.5"/>
<text text-anchor="start" x="767.5" y="-214.5" font-family="Helvetica,sans-Serif" font-size="10.00">javolution.xml.internal.stream.</text>
<text text-anchor="middle" x="871" y="-203.5" font-family="Helvetica,sans-Serif" font-size="10.00">XMLStreamReaderImpl.getNamespaceURI</text>
</a>
</g>
</g>
<!-- Node15&#45;&gt;Node16 -->
<g id="edge17" class="edge">
<title>Node15&#45;&gt;Node16</title>
<path fill="none" stroke="midnightblue" d="M1061.07,-212.82C1035.82,-212.64 1008.44,-212.45 982.57,-212.27"/>
<polygon fill="midnightblue" stroke="midnightblue" points="1061.35,-216.32 1071.37,-212.89 1061.4,-209.32 1061.35,-216.32"/>
</g>
<!-- Node16&#45;&gt;Node11 -->
<g id="edge18" class="edge">
<title>Node16&#45;&gt;Node11</title>
<path fill="none" stroke="midnightblue" d="M748.98,-207.14C724.29,-206.25 698.85,-205.33 675.84,-204.5"/>
<polygon fill="midnightblue" stroke="midnightblue" points="749.01,-210.64 759.13,-207.5 749.26,-203.65 749.01,-210.64"/>
</g>
<!-- Node17&#45;&gt;Node18 -->
<g id="edge20" class="edge">
<title>Node17&#45;&gt;Node18</title>
<path fill="none" stroke="midnightblue" d="M1046.45,-441.5C1016.01,-441.5 983.61,-441.5 955.09,-441.5"/>
<polygon fill="midnightblue" stroke="midnightblue" points="1046.68,-445 1056.68,-441.5 1046.68,-438 1046.68,-445"/>
</g>
<!-- Node18&#45;&gt;Node2 -->
<g id="edge21" class="edge">
<title>Node18&#45;&gt;Node2</title>
<path fill="none" stroke="midnightblue" d="M832.2,-461.31C797.54,-478.83 744.39,-504.09 696,-520.5 686.31,-523.79 675.95,-526.78 665.68,-529.45"/>
<polygon fill="midnightblue" stroke="midnightblue" points="834.15,-464.24 841.47,-456.58 830.97,-458.01 834.15,-464.24"/>
</g>
<!-- Node18&#45;&gt;Node6 -->
<g id="edge22" class="edge">
<title>Node18&#45;&gt;Node6</title>
<path fill="none" stroke="midnightblue" d="M827.15,-422.42C792.32,-407.42 741.65,-386.76 696,-372.5 685.61,-369.26 674.51,-366.23 663.59,-363.5"/>
<polygon fill="midnightblue" stroke="midnightblue" points="825.96,-425.72 836.53,-426.49 828.75,-419.3 825.96,-425.72"/>
</g>
<!-- Node18&#45;&gt;Node7 -->
<g id="edge25" class="edge">
<title>Node18&#45;&gt;Node7</title>
<path fill="none" stroke="midnightblue" d="M818.25,-422.55C790.75,-410.86 757.47,-393.97 732,-372.5 711.34,-355.08 718.57,-338.37 696,-323.5 689.45,-319.19 682.23,-315.65 674.73,-312.74"/>
<polygon fill="midnightblue" stroke="midnightblue" points="817.13,-425.88 827.71,-426.47 819.81,-419.41 817.13,-425.88"/>
</g>
<!-- Node18&#45;&gt;Node13 -->
<g id="edge27" class="edge">
<title>Node18&#45;&gt;Node13</title>
<path fill="none" stroke="midnightblue" d="M776.49,-426.67C744.5,-421.6 708.91,-415.96 677.62,-411"/>
<polygon fill="midnightblue" stroke="midnightblue" points="776.32,-430.19 786.74,-428.3 777.41,-423.28 776.32,-430.19"/>
</g>
<!-- Node19 -->
<g id="node19" class="node">
<title>Node19</title>
<g id="a_node19"><a xlink:href="../../d0/d65/classjavolution_1_1xml_1_1internal_1_1stream_1_1XMLStreamReaderImpl.html#a22803c21708a1c61db9f45c43e0d3ecc" target="_top" xlink:title=" ">
<polygon fill="white" stroke="black" points="506.5,-480.5 506.5,-510.5 676.5,-510.5 676.5,-480.5 506.5,-480.5"/>
<text text-anchor="start" x="514.5" y="-498.5" font-family="Helvetica,sans-Serif" font-size="10.00">javolution.xml.internal.stream.</text>
<text text-anchor="middle" x="591.5" y="-487.5" font-family="Helvetica,sans-Serif" font-size="10.00">XMLStreamReaderImpl.nextTag</text>
</a>
</g>
</g>
<!-- Node18&#45;&gt;Node19 -->
<g id="edge23" class="edge">
<title>Node18&#45;&gt;Node19</title>
<path fill="none" stroke="midnightblue" d="M782.66,-458.5C746.49,-465.53 704.91,-473.63 669.87,-480.45"/>
<polygon fill="midnightblue" stroke="midnightblue" points="783.55,-461.89 792.7,-456.54 782.22,-455.02 783.55,-461.89"/>
</g>
<!-- Node21 -->
<g id="node21" class="node">
<title>Node21</title>
<g id="a_node21"><a xlink:href="../../d9/d60/classjavolution_1_1xml_1_1XMLFormat_1_1InputElement.html#ace8288707b8a3cb46bf483440533fd1e" target="_top" xlink:title=" ">
<polygon fill="white" stroke="black" points="513.5,-431.5 513.5,-461.5 669.5,-461.5 669.5,-431.5 513.5,-431.5"/>
<text text-anchor="start" x="521.5" y="-449.5" font-family="Helvetica,sans-Serif" font-size="10.00">javolution.xml.XMLFormat.</text>
<text text-anchor="middle" x="591.5" y="-438.5" font-family="Helvetica,sans-Serif" font-size="10.00">InputElement.readReference</text>
</a>
</g>
</g>
<!-- Node18&#45;&gt;Node21 -->
<g id="edge26" class="edge">
<title>Node18&#45;&gt;Node21</title>
<path fill="none" stroke="midnightblue" d="M776.57,-443.18C741.77,-443.81 702.7,-444.51 669.54,-445.11"/>
<polygon fill="midnightblue" stroke="midnightblue" points="776.81,-446.68 786.74,-443 776.68,-439.68 776.81,-446.68"/>
</g>
<!-- Node20 -->
<g id="node20" class="node">
<title>Node20</title>
<g id="a_node20"><a xlink:href="../../d9/d60/classjavolution_1_1xml_1_1XMLFormat_1_1InputElement.html#af7d0a9ca04a7340a049b615e947c88ca" target="_top" xlink:title=" ">
<polygon fill="white" stroke="black" points="254.5,-480.5 254.5,-510.5 403.5,-510.5 403.5,-480.5 254.5,-480.5"/>
<text text-anchor="start" x="262.5" y="-498.5" font-family="Helvetica,sans-Serif" font-size="10.00">javolution.xml.XMLFormat.</text>
<text text-anchor="middle" x="329" y="-487.5" font-family="Helvetica,sans-Serif" font-size="10.00">InputElement.hasNext</text>
</a>
</g>
</g>
<!-- Node19&#45;&gt;Node20 -->
<g id="edge24" class="edge">
<title>Node19&#45;&gt;Node20</title>
<path fill="none" stroke="midnightblue" d="M496.1,-495.5C465.72,-495.5 432.52,-495.5 403.84,-495.5"/>
<polygon fill="midnightblue" stroke="midnightblue" points="496.28,-499 506.28,-495.5 496.28,-492 496.28,-499"/>
</g>
<!-- Node22&#45;&gt;Node18 -->
<g id="edge30" class="edge">
<title>Node22&#45;&gt;Node18</title>
<path fill="none" stroke="midnightblue" d="M1060.58,-409.25C1026.34,-415.1 988.26,-421.62 955.33,-427.25"/>
<polygon fill="midnightblue" stroke="midnightblue" points="1061.33,-412.67 1070.59,-407.53 1060.15,-405.77 1061.33,-412.67"/>
</g>
<!-- Node24 -->
<g id="node24" class="node">
<title>Node24</title>
<g id="a_node24"><a xlink:href="../../d0/d65/classjavolution_1_1xml_1_1internal_1_1stream_1_1XMLStreamReaderImpl.html#aec1f4b4e9e23caa8325d9f748092b6e0" target="_top" xlink:title=" ">
<polygon fill="white" stroke="black" points="732,-98.5 732,-128.5 1010,-128.5 1010,-98.5 732,-98.5"/>
<text text-anchor="start" x="740" y="-116.5" font-family="Helvetica,sans-Serif" font-size="10.00">javolution.xml.internal.stream.</text>
<text text-anchor="middle" x="871" y="-105.5" font-family="Helvetica,sans-Serif" font-size="10.00">XMLStreamReaderImpl.getCharacterEncodingScheme</text>
</a>
</g>
</g>
<!-- Node23&#45;&gt;Node24 -->
<g id="edge32" class="edge">
<title>Node23&#45;&gt;Node24</title>
<path fill="none" stroke="midnightblue" d="M1035.57,-113.5C1027.23,-113.5 1018.81,-113.5 1010.4,-113.5"/>
<polygon fill="midnightblue" stroke="midnightblue" points="1035.68,-117 1045.68,-113.5 1035.68,-110 1035.68,-117"/>
</g>
<!-- Node28 -->
<g id="node28" class="node">
<title>Node28</title>
<g id="a_node28"><a xlink:href="../../d0/d65/classjavolution_1_1xml_1_1internal_1_1stream_1_1XMLStreamReaderImpl.html#a12ccdb24bd160fa164a7630ba9444f1c" target="_top" xlink:title=" ">
<polygon fill="white" stroke="black" points="779,-147.5 779,-177.5 963,-177.5 963,-147.5 779,-147.5"/>
<text text-anchor="start" x="787" y="-165.5" font-family="Helvetica,sans-Serif" font-size="10.00">javolution.xml.internal.stream.</text>
<text text-anchor="middle" x="871" y="-154.5" font-family="Helvetica,sans-Serif" font-size="10.00">XMLStreamReaderImpl.getVersion</text>
</a>
</g>
</g>
<!-- Node23&#45;&gt;Node28 -->
<g id="edge37" class="edge">
<title>Node23&#45;&gt;Node28</title>
<path fill="none" stroke="midnightblue" d="M1060.56,-130.25C1027.85,-135.84 991.63,-142.04 959.74,-147.49"/>
<polygon fill="midnightblue" stroke="midnightblue" points="1061.33,-133.67 1070.59,-128.53 1060.15,-126.77 1061.33,-133.67"/>
</g>
<!-- Node29 -->
<g id="node29" class="node">
<title>Node29</title>
<g id="a_node29"><a xlink:href="../../d0/d65/classjavolution_1_1xml_1_1internal_1_1stream_1_1XMLStreamReaderImpl.html#a4bbf3c07c73f027daf7dc039577e0902" target="_top" xlink:title=" ">
<polygon fill="white" stroke="black" points="773.5,-49.5 773.5,-79.5 968.5,-79.5 968.5,-49.5 773.5,-49.5"/>
<text text-anchor="start" x="781.5" y="-67.5" font-family="Helvetica,sans-Serif" font-size="10.00">javolution.xml.internal.stream.</text>
<text text-anchor="middle" x="871" y="-56.5" font-family="Helvetica,sans-Serif" font-size="10.00">XMLStreamReaderImpl.isStandalone</text>
</a>
</g>
</g>
<!-- Node23&#45;&gt;Node29 -->
<g id="edge38" class="edge">
<title>Node23&#45;&gt;Node29</title>
<path fill="none" stroke="midnightblue" d="M1060.56,-96.75C1027.85,-91.16 991.63,-84.96 959.74,-79.51"/>
<polygon fill="midnightblue" stroke="midnightblue" points="1060.15,-100.23 1070.59,-98.47 1061.33,-93.33 1060.15,-100.23"/>
</g>
<!-- Node30 -->
<g id="node30" class="node">
<title>Node30</title>
<g id="a_node30"><a xlink:href="../../d0/d65/classjavolution_1_1xml_1_1internal_1_1stream_1_1XMLStreamReaderImpl.html#a1a5895d880a3635ce891b8d8f1b2bc2b" target="_top" xlink:title=" ">
<polygon fill="white" stroke="black" points="770,-0.5 770,-30.5 972,-30.5 972,-0.5 770,-0.5"/>
<text text-anchor="start" x="778" y="-18.5" font-family="Helvetica,sans-Serif" font-size="10.00">javolution.xml.internal.stream.</text>
<text text-anchor="middle" x="871" y="-7.5" font-family="Helvetica,sans-Serif" font-size="10.00">XMLStreamReaderImpl.standaloneSet</text>
</a>
</g>
</g>
<!-- Node23&#45;&gt;Node30 -->
<g id="edge39" class="edge">
<title>Node23&#45;&gt;Node30</title>
<path fill="none" stroke="midnightblue" d="M1124.99,-93.26C1095.65,-76.42 1051.36,-53.08 1010,-39.5 997.99,-35.56 985.16,-32.22 972.34,-29.42"/>
<polygon fill="midnightblue" stroke="midnightblue" points="1123.56,-96.48 1133.96,-98.48 1127.08,-90.43 1123.56,-96.48"/>
</g>
<!-- Node25 -->
<g id="node25" class="node">
<title>Node25</title>
<g id="a_node25"><a xlink:href="../../d0/d65/classjavolution_1_1xml_1_1internal_1_1stream_1_1XMLStreamReaderImpl.html#a8c07fcbcd43edd5092dfbf69089b5234" target="_top" xlink:title=" ">
<polygon fill="white" stroke="black" points="505.5,-120.5 505.5,-150.5 677.5,-150.5 677.5,-120.5 505.5,-120.5"/>
<text text-anchor="start" x="513.5" y="-138.5" font-family="Helvetica,sans-Serif" font-size="10.00">javolution.xml.internal.stream.</text>
<text text-anchor="middle" x="591.5" y="-127.5" font-family="Helvetica,sans-Serif" font-size="10.00">XMLStreamReaderImpl.setInput</text>
</a>
</g>
</g>
<!-- Node24&#45;&gt;Node25 -->
<g id="edge33" class="edge">
<title>Node24&#45;&gt;Node25</title>
<path fill="none" stroke="midnightblue" d="M721.28,-125.29C706.31,-126.48 691.5,-127.65 677.54,-128.76"/>
<polygon fill="midnightblue" stroke="midnightblue" points="721.96,-128.75 731.66,-124.47 721.41,-121.77 721.96,-128.75"/>
</g>
<!-- Node25&#45;&gt;Node8 -->
<g id="edge35" class="edge">
<title>Node25&#45;&gt;Node8</title>
<path fill="none" stroke="midnightblue" d="M539.25,-154.29C522.41,-160.87 503.72,-168.59 487,-176.5 438.97,-199.21 385.27,-230.26 354.77,-248.47"/>
<polygon fill="midnightblue" stroke="midnightblue" points="540.86,-157.43 548.93,-150.56 538.34,-150.89 540.86,-157.43"/>
</g>
<!-- Node26 -->
<g id="node26" class="node">
<title>Node26</title>
<g id="a_node26"><a xlink:href="../../d9/d23/classjavolution_1_1xml_1_1internal_1_1stream_1_1XMLInputFactoryImpl.html#a75b218c412defa9de11acde243414e73" target="_top" xlink:title=" ">
<polygon fill="white" stroke="black" points="207,-96.5 207,-126.5 451,-126.5 451,-96.5 207,-96.5"/>
<text text-anchor="start" x="215" y="-114.5" font-family="Helvetica,sans-Serif" font-size="10.00">javolution.xml.internal.stream.</text>
<text text-anchor="middle" x="329" y="-103.5" font-family="Helvetica,sans-Serif" font-size="10.00">XMLInputFactoryImpl.createXMLStreamReader</text>
</a>
</g>
</g>
<!-- Node25&#45;&gt;Node26 -->
<g id="edge34" class="edge">
<title>Node25&#45;&gt;Node26</title>
<path fill="none" stroke="midnightblue" d="M494.99,-126.7C480.81,-125.39 466.03,-124.03 451.41,-122.69"/>
<polygon fill="midnightblue" stroke="midnightblue" points="494.92,-130.21 505.2,-127.64 495.57,-123.24 494.92,-130.21"/>
</g>
<!-- Node27 -->
<g id="node27" class="node">
<title>Node27</title>
<g id="a_node27"><a xlink:href="../../d0/d65/classjavolution_1_1xml_1_1internal_1_1stream_1_1XMLStreamReaderImpl.html#aee8c1ea975e36aaa3d5f3ee31c15c02f" target="_top" xlink:title=" ">
<polygon fill="white" stroke="black" points="243,-145.5 243,-175.5 415,-175.5 415,-145.5 243,-145.5"/>
<text text-anchor="start" x="251" y="-163.5" font-family="Helvetica,sans-Serif" font-size="10.00">javolution.xml.internal.stream.</text>
<text text-anchor="middle" x="329" y="-152.5" font-family="Helvetica,sans-Serif" font-size="10.00">XMLStreamReaderImpl.setInput</text>
</a>
</g>
</g>
<!-- Node25&#45;&gt;Node27 -->
<g id="edge36" class="edge">
<title>Node25&#45;&gt;Node27</title>
<path fill="none" stroke="midnightblue" d="M494.9,-144.67C468.74,-147.19 440.57,-149.89 415.04,-152.34"/>
<polygon fill="midnightblue" stroke="midnightblue" points="495.58,-148.13 505.2,-143.69 494.91,-141.16 495.58,-148.13"/>
</g>
</g>
</svg>
