<?xml version="1.0" encoding="UTF-8" standalone="no"?>
<!DOCTYPE svg PUBLIC "-//W3C//DTD SVG 1.1//EN"
 "http://www.w3.org/Graphics/SVG/1.1/DTD/svg11.dtd">
<!-- Generated by graphviz version 2.43.0 (0)
 -->
<!-- Title: javolution.xml.internal.stream.XMLStreamReaderImpl.close Pages: 1 -->
<!--zoomable 284 -->
<svg id="main" version="1.1" xmlns="http://www.w3.org/2000/svg" xmlns:xlink="http://www.w3.org/1999/xlink" xml:space="preserve" onload="init(evt)">
<style type="text/css"><![CDATA[
.edge:hover path { stroke: red; }
.edge:hover polygon { stroke: red; fill: red; }
]]></style>
<script type="text/javascript"><![CDATA[
var edges = document.getElementsByTagName('g');
if (edges && edges.length) {
  for (var i=0;i<edges.length;i++) {
    if (edges[i].id.substr(0,4)=='edge') {
      edges[i].setAttribute('class','edge');
    }
  }
}
]]></script>
        <defs>
                <circle id="rim" cx="0" cy="0" r="7"/>
                <circle id="rim2" cx="0" cy="0" r="3.5"/>
                <g id="zoomPlus">
                        <use xlink:href="#rim" fill="#404040">
                                <set attributeName="fill" to="#808080" begin="zoomplus.mouseover" end="zoomplus.mouseout"/>
                        </use>
                        <path d="M-4,0h8M0,-4v8" fill="none" stroke="white" stroke-width="1.5" pointer-events="none"/>
                </g>
                <g id="zoomMin">
                        <use xlink:href="#rim" fill="#404040">
                                <set attributeName="fill" to="#808080" begin="zoomminus.mouseover" end="zoomminus.mouseout"/>
                        </use>
                        <path d="M-4,0h8" fill="none" stroke="white" stroke-width="1.5" pointer-events="none"/>
                </g>
                <g id="dirArrow">
                        <path fill="none" stroke="white" stroke-width="1.5" d="M0,-3.0v7 M-2.5,-0.5L0,-3.0L2.5,-0.5"/>
                </g>
               <g id="resetDef">
                       <use xlink:href="#rim2" fill="#404040">
                               <set attributeName="fill" to="#808080" begin="reset.mouseover" end="reset.mouseout"/>
                       </use>
               </g>
        </defs>

<script type="text/javascript">
var viewWidth = 639;
var viewHeight = 284;
var sectionId = 'dynsection-2';
</script>
<script xlink:href="../../svgpan.js"/>
<svg id="graph" class="graph">
<g id="viewport">
<title>javolution.xml.internal.stream.XMLStreamReaderImpl.close</title>
<polygon fill="white" stroke="transparent" points="-4,4 -4,-280 635,-280 635,4 -4,4"/>
<!-- Node1 -->
<g id="node1" class="node">
<title>Node1</title>
<g id="a_node1"><a xlink:title=" ">
<polygon fill="#bfbfbf" stroke="black" points="0,-122.5 0,-152.5 168,-152.5 168,-122.5 0,-122.5"/>
<text text-anchor="start" x="8" y="-140.5" font-family="Helvetica,sans-Serif" font-size="10.00">javolution.xml.internal.stream.</text>
<text text-anchor="middle" x="84" y="-129.5" font-family="Helvetica,sans-Serif" font-size="10.00">XMLStreamReaderImpl.close</text>
</a>
</g>
</g>
<!-- Node2 -->
<g id="node2" class="node">
<title>Node2</title>
<g id="a_node2"><a xlink:href="../../d0/d65/classjavolution_1_1xml_1_1internal_1_1stream_1_1XMLStreamReaderImpl.html#a98505dd442c566beb5d5c144525ccdb7" target="_top" xlink:title=" ">
<polygon fill="white" stroke="black" points="204,-122.5 204,-152.5 372,-152.5 372,-122.5 204,-122.5"/>
<text text-anchor="start" x="212" y="-140.5" font-family="Helvetica,sans-Serif" font-size="10.00">javolution.xml.internal.stream.</text>
<text text-anchor="middle" x="288" y="-129.5" font-family="Helvetica,sans-Serif" font-size="10.00">XMLStreamReaderImpl.reset</text>
</a>
</g>
</g>
<!-- Node1&#45;&gt;Node2 -->
<g id="edge1" class="edge">
<title>Node1&#45;&gt;Node2</title>
<path fill="none" stroke="midnightblue" d="M168.04,-137.5C176.56,-137.5 185.26,-137.5 193.89,-137.5"/>
<polygon fill="midnightblue" stroke="midnightblue" points="193.96,-141 203.96,-137.5 193.96,-134 193.96,-141"/>
</g>
<!-- Node3 -->
<g id="node3" class="node">
<title>Node3</title>
<g id="a_node3"><a xlink:href="../../d9/d23/classjavolution_1_1xml_1_1internal_1_1stream_1_1XMLInputFactoryImpl.html#aece43f6f1142423bd9f4bfb9d67313c7" target="_top" xlink:title=" ">
<polygon fill="white" stroke="black" points="435.5,-245.5 435.5,-275.5 603.5,-275.5 603.5,-245.5 435.5,-245.5"/>
<text text-anchor="start" x="443.5" y="-263.5" font-family="Helvetica,sans-Serif" font-size="10.00">javolution.xml.internal.stream.</text>
<text text-anchor="middle" x="519.5" y="-252.5" font-family="Helvetica,sans-Serif" font-size="10.00">XMLInputFactoryImpl.recycle</text>
</a>
</g>
</g>
<!-- Node2&#45;&gt;Node3 -->
<g id="edge2" class="edge">
<title>Node2&#45;&gt;Node3</title>
<path fill="none" stroke="midnightblue" d="M302.4,-152.52C322.9,-174.51 364.28,-215.17 408,-236.5 413.62,-239.24 419.54,-241.67 425.62,-243.82"/>
<polygon fill="midnightblue" stroke="midnightblue" points="424.67,-247.2 435.26,-246.99 426.85,-240.54 424.67,-247.2"/>
</g>
<!-- Node4 -->
<g id="node4" class="node">
<title>Node4</title>
<g id="a_node4"><a xlink:href="../../d1/d5a/classjavolution_1_1xml_1_1internal_1_1stream_1_1EntitiesImpl.html#a18cf0d15ba400658eb772ec47901d32a" target="_top" xlink:title=" ">
<polygon fill="white" stroke="black" points="435.5,-196.5 435.5,-226.5 603.5,-226.5 603.5,-196.5 435.5,-196.5"/>
<text text-anchor="start" x="443.5" y="-214.5" font-family="Helvetica,sans-Serif" font-size="10.00">javolution.xml.internal.stream.</text>
<text text-anchor="middle" x="519.5" y="-203.5" font-family="Helvetica,sans-Serif" font-size="10.00">EntitiesImpl.reset</text>
</a>
</g>
</g>
<!-- Node2&#45;&gt;Node4 -->
<g id="edge3" class="edge">
<title>Node2&#45;&gt;Node4</title>
<path fill="none" stroke="midnightblue" d="M320.72,-152.72C344.36,-163.58 377.66,-177.92 408,-187.5 415.31,-189.81 422.95,-191.97 430.66,-193.97"/>
<polygon fill="midnightblue" stroke="midnightblue" points="429.9,-197.39 440.45,-196.43 431.6,-190.6 429.9,-197.39"/>
</g>
<!-- Node5 -->
<g id="node5" class="node">
<title>Node5</title>
<g id="a_node5"><a xlink:href="../../de/d89/classjavolution_1_1xml_1_1internal_1_1stream_1_1AttributesImpl.html#a2c8f7d63c386dadd6b6851f3d4c2edd7" target="_top" xlink:title=" ">
<polygon fill="white" stroke="black" points="435.5,-147.5 435.5,-177.5 603.5,-177.5 603.5,-147.5 435.5,-147.5"/>
<text text-anchor="start" x="443.5" y="-165.5" font-family="Helvetica,sans-Serif" font-size="10.00">javolution.xml.internal.stream.</text>
<text text-anchor="middle" x="519.5" y="-154.5" font-family="Helvetica,sans-Serif" font-size="10.00">AttributesImpl.reset</text>
</a>
</g>
</g>
<!-- Node2&#45;&gt;Node5 -->
<g id="edge4" class="edge">
<title>Node2&#45;&gt;Node5</title>
<path fill="none" stroke="midnightblue" d="M372.18,-146.56C389.34,-148.43 407.52,-150.41 425.01,-152.32"/>
<polygon fill="midnightblue" stroke="midnightblue" points="424.9,-155.82 435.22,-153.43 425.66,-148.87 424.9,-155.82"/>
</g>
<!-- Node6 -->
<g id="node6" class="node">
<title>Node6</title>
<g id="a_node6"><a xlink:href="../../dc/daa/classjavolution_1_1xml_1_1internal_1_1stream_1_1NamespacesImpl.html#a29a266c4924f05458dabea7b85509cc4" target="_top" xlink:title=" ">
<polygon fill="white" stroke="black" points="435.5,-98.5 435.5,-128.5 603.5,-128.5 603.5,-98.5 435.5,-98.5"/>
<text text-anchor="start" x="443.5" y="-116.5" font-family="Helvetica,sans-Serif" font-size="10.00">javolution.xml.internal.stream.</text>
<text text-anchor="middle" x="519.5" y="-105.5" font-family="Helvetica,sans-Serif" font-size="10.00">NamespacesImpl.reset</text>
</a>
</g>
</g>
<!-- Node2&#45;&gt;Node6 -->
<g id="edge5" class="edge">
<title>Node2&#45;&gt;Node6</title>
<path fill="none" stroke="midnightblue" d="M372.18,-128.8C389.34,-127.01 407.52,-125.11 425.01,-123.28"/>
<polygon fill="midnightblue" stroke="midnightblue" points="425.64,-126.73 435.22,-122.21 424.91,-119.77 425.64,-126.73"/>
</g>
<!-- Node7 -->
<g id="node7" class="node">
<title>Node7</title>
<g id="a_node7"><a xlink:href="../../d6/da9/classjavolution_1_1io_1_1UTF8StreamReader.html#a90aad6c0ab0f8b1060345a81bbcb8ace" target="_top" xlink:title=" ">
<polygon fill="white" stroke="black" points="449,-49.5 449,-79.5 590,-79.5 590,-49.5 449,-49.5"/>
<text text-anchor="start" x="457" y="-67.5" font-family="Helvetica,sans-Serif" font-size="10.00">javolution.io.UTF8Stream</text>
<text text-anchor="middle" x="519.5" y="-56.5" font-family="Helvetica,sans-Serif" font-size="10.00">Reader.reset</text>
</a>
</g>
</g>
<!-- Node2&#45;&gt;Node7 -->
<g id="edge6" class="edge">
<title>Node2&#45;&gt;Node7</title>
<path fill="none" stroke="midnightblue" d="M322.07,-122.49C345.67,-112.19 378.34,-98.77 408,-89.5 417.89,-86.41 428.38,-83.53 438.82,-80.91"/>
<polygon fill="midnightblue" stroke="midnightblue" points="439.9,-84.25 448.78,-78.48 438.24,-77.45 439.9,-84.25"/>
</g>
<!-- Node8 -->
<g id="node8" class="node">
<title>Node8</title>
<g id="a_node8"><a xlink:href="../../de/d1f/classjavolution_1_1xml_1_1internal_1_1stream_1_1XMLStreamReaderImpl_1_1LocationImpl.html#a4b87b1ef3def912807b94c4f9bba18bc" target="_top" xlink:title=" ">
<polygon fill="white" stroke="black" points="408,-0.5 408,-30.5 631,-30.5 631,-0.5 408,-0.5"/>
<text text-anchor="start" x="416" y="-18.5" font-family="Helvetica,sans-Serif" font-size="10.00">javolution.xml.internal.stream.</text>
<text text-anchor="middle" x="519.5" y="-7.5" font-family="Helvetica,sans-Serif" font-size="10.00">XMLStreamReaderImpl.LocationImpl.reset</text>
</a>
</g>
</g>
<!-- Node2&#45;&gt;Node8 -->
<g id="edge7" class="edge">
<title>Node2&#45;&gt;Node8</title>
<path fill="none" stroke="midnightblue" d="M302.83,-122.48C323.56,-100.93 364.87,-61.51 408,-40.5 412.97,-38.08 418.19,-35.89 423.53,-33.9"/>
<polygon fill="midnightblue" stroke="midnightblue" points="424.94,-37.12 433.26,-30.56 422.67,-30.5 424.94,-37.12"/>
</g>
</g>
</svg>
        <g id="navigator" transform="translate(0 0)" fill="#404254">
                <rect fill="#f2f5e9" fill-opacity="0.5" stroke="#606060" stroke-width=".5" x="0" y="0" width="60" height="60"/>
                <use id="zoomplus" xlink:href="#zoomPlus" x="17" y="9" onmousedown="handleZoom(evt,'in')"/>
                <use id="zoomminus" xlink:href="#zoomMin" x="42" y="9" onmousedown="handleZoom(evt,'out')"/>
                <use id="reset" xlink:href="#resetDef" x="30" y="36" onmousedown="handleReset()"/>
                <g id="arrowUp" xlink:href="#dirArrow" transform="translate(30 24)" onmousedown="handlePan(0,-1)">
                  <use xlink:href="#rim" fill="#404040">
                        <set attributeName="fill" to="#808080" begin="arrowUp.mouseover" end="arrowUp.mouseout"/>
                  </use>
                  <path fill="none" stroke="white" stroke-width="1.5" d="M0,-3.0v7 M-2.5,-0.5L0,-3.0L2.5,-0.5"/>
                </g>
                <g id="arrowRight" xlink:href="#dirArrow" transform="rotate(90) translate(36 -43)" onmousedown="handlePan(1,0)">
                  <use xlink:href="#rim" fill="#404040">
                        <set attributeName="fill" to="#808080" begin="arrowRight.mouseover" end="arrowRight.mouseout"/>
                  </use>
                  <path fill="none" stroke="white" stroke-width="1.5" d="M0,-3.0v7 M-2.5,-0.5L0,-3.0L2.5,-0.5"/>
                </g>
                <g id="arrowDown" xlink:href="#dirArrow" transform="rotate(180) translate(-30 -48)" onmousedown="handlePan(0,1)">
                  <use xlink:href="#rim" fill="#404040">
                        <set attributeName="fill" to="#808080" begin="arrowDown.mouseover" end="arrowDown.mouseout"/>
                  </use>
                  <path fill="none" stroke="white" stroke-width="1.5" d="M0,-3.0v7 M-2.5,-0.5L0,-3.0L2.5,-0.5"/>
                </g>
                <g id="arrowLeft" xlink:href="#dirArrow" transform="rotate(270) translate(-36 17)" onmousedown="handlePan(-1,0)">
                  <use xlink:href="#rim" fill="#404040">
                        <set attributeName="fill" to="#808080" begin="arrowLeft.mouseover" end="arrowLeft.mouseout"/>
                  </use>
                  <path fill="none" stroke="white" stroke-width="1.5" d="M0,-3.0v7 M-2.5,-0.5L0,-3.0L2.5,-0.5"/>
                </g>
        </g>
        <svg viewBox="0 0 15 15" width="100%" height="30px" preserveAspectRatio="xMaxYMin meet">
         <g id="arrow_out" transform="scale(0.3 0.3)">
          <a xlink:href="classjavolution_1_1xml_1_1internal_1_1stream_1_1XMLStreamReaderImpl_aac6d2e99d06abadc8f1cb1d7b3afa032_cgraph_org.svg" target="_base">
           <rect id="button" ry="5" rx="5" y="6" x="6" height="38" width="38"
                fill="#f2f5e9" fill-opacity="0.5" stroke="#606060" stroke-width="1.0"/>
           <path id="arrow"
             d="M 11.500037,31.436501 C 11.940474,20.09759 22.043105,11.32322 32.158766,21.979434 L 37.068811,17.246167 C 37.068811,17.246167 37.088388,32 37.088388,32 L 22.160133,31.978069 C 22.160133,31.978069 26.997745,27.140456 26.997745,27.140456 C 18.528582,18.264221 13.291696,25.230495 11.500037,31.436501 z"
             style="fill:#404040;"/>
          </a>
         </g>
        </svg>
</svg>
