<?xml version="1.0" encoding="UTF-8" standalone="no"?>
<!DOCTYPE svg PUBLIC "-//W3C//DTD SVG 1.1//EN"
 "http://www.w3.org/Graphics/SVG/1.1/DTD/svg11.dtd">
<!-- Generated by graphviz version 2.43.0 (0)
 -->
<!-- Title: javolution.xml.internal.stream.XMLStreamReaderImpl.illegalState Pages: 1 -->
<!--zoomable 823 -->
<svg id="main" version="1.1" xmlns="http://www.w3.org/2000/svg" xmlns:xlink="http://www.w3.org/1999/xlink" xml:space="preserve" onload="init(evt)">
<style type="text/css"><![CDATA[
.edge:hover path { stroke: red; }
.edge:hover polygon { stroke: red; fill: red; }
]]></style>
<script type="text/javascript"><![CDATA[
var edges = document.getElementsByTagName('g');
if (edges && edges.length) {
  for (var i=0;i<edges.length;i++) {
    if (edges[i].id.substr(0,4)=='edge') {
      edges[i].setAttribute('class','edge');
    }
  }
}
]]></script>
        <defs>
                <circle id="rim" cx="0" cy="0" r="7"/>
                <circle id="rim2" cx="0" cy="0" r="3.5"/>
                <g id="zoomPlus">
                        <use xlink:href="#rim" fill="#404040">
                                <set attributeName="fill" to="#808080" begin="zoomplus.mouseover" end="zoomplus.mouseout"/>
                        </use>
                        <path d="M-4,0h8M0,-4v8" fill="none" stroke="white" stroke-width="1.5" pointer-events="none"/>
                </g>
                <g id="zoomMin">
                        <use xlink:href="#rim" fill="#404040">
                                <set attributeName="fill" to="#808080" begin="zoomminus.mouseover" end="zoomminus.mouseout"/>
                        </use>
                        <path d="M-4,0h8" fill="none" stroke="white" stroke-width="1.5" pointer-events="none"/>
                </g>
                <g id="dirArrow">
                        <path fill="none" stroke="white" stroke-width="1.5" d="M0,-3.0v7 M-2.5,-0.5L0,-3.0L2.5,-0.5"/>
                </g>
               <g id="resetDef">
                       <use xlink:href="#rim2" fill="#404040">
                               <set attributeName="fill" to="#808080" begin="reset.mouseover" end="reset.mouseout"/>
                       </use>
               </g>
        </defs>

<script type="text/javascript">
var viewWidth = 1150;
var viewHeight = 823;
var sectionId = 'dynsection-51';
</script>
<script xlink:href="../../svgpan.js"/>
<svg id="graph" class="graph">
<g id="viewport">
<title>javolution.xml.internal.stream.XMLStreamReaderImpl.illegalState</title>
<polygon fill="white" stroke="transparent" points="-4,4 -4,-819 1146,-819 1146,4 -4,4"/>
<!-- Node1 -->
<g id="node1" class="node">
<title>Node1</title>
<g id="a_node1"><a xlink:title=" ">
<polygon fill="#bfbfbf" stroke="black" points="954,-465.5 954,-495.5 1142,-495.5 1142,-465.5 954,-465.5"/>
<text text-anchor="start" x="962" y="-483.5" font-family="Helvetica,sans-Serif" font-size="10.00">javolution.xml.internal.stream.</text>
<text text-anchor="middle" x="1048" y="-472.5" font-family="Helvetica,sans-Serif" font-size="10.00">XMLStreamReaderImpl.illegalState</text>
</a>
</g>
</g>
<!-- Node2 -->
<g id="node2" class="node">
<title>Node2</title>
<g id="a_node2"><a xlink:href="../../d0/d65/classjavolution_1_1xml_1_1internal_1_1stream_1_1XMLStreamReaderImpl.html#a0a07db0f7a760abbef77ca251e51f5d1" target="_top" xlink:title=" ">
<polygon fill="white" stroke="black" points="684.5,-784.5 684.5,-814.5 903.5,-814.5 903.5,-784.5 684.5,-784.5"/>
<text text-anchor="start" x="692.5" y="-802.5" font-family="Helvetica,sans-Serif" font-size="10.00">javolution.xml.internal.stream.</text>
<text text-anchor="middle" x="794" y="-791.5" font-family="Helvetica,sans-Serif" font-size="10.00">XMLStreamReaderImpl.getAttributeCount</text>
</a>
</g>
</g>
<!-- Node1&#45;&gt;Node2 -->
<g id="edge1" class="edge">
<title>Node1&#45;&gt;Node2</title>
<path fill="none" stroke="midnightblue" d="M1043.84,-505.73C1035.21,-563.39 1005.69,-705.22 918,-775.5 913.59,-779.04 908.8,-782.1 903.76,-784.76"/>
<polygon fill="midnightblue" stroke="midnightblue" points="1047.33,-506.07 1045.26,-495.67 1040.4,-505.09 1047.33,-506.07"/>
</g>
<!-- Node3 -->
<g id="node3" class="node">
<title>Node3</title>
<g id="a_node3"><a xlink:href="../../d0/d65/classjavolution_1_1xml_1_1internal_1_1stream_1_1XMLStreamReaderImpl.html#a39a592b93d92e9791c47649f88a8d356" target="_top" xlink:title=" ">
<polygon fill="white" stroke="black" points="671.5,-735.5 671.5,-765.5 916.5,-765.5 916.5,-735.5 671.5,-735.5"/>
<text text-anchor="start" x="679.5" y="-753.5" font-family="Helvetica,sans-Serif" font-size="10.00">javolution.xml.internal.stream.</text>
<text text-anchor="middle" x="794" y="-742.5" font-family="Helvetica,sans-Serif" font-size="10.00">XMLStreamReaderImpl.getAttributeLocalName</text>
</a>
</g>
</g>
<!-- Node1&#45;&gt;Node3 -->
<g id="edge2" class="edge">
<title>Node1&#45;&gt;Node3</title>
<path fill="none" stroke="midnightblue" d="M1041.56,-505.36C1029.17,-555.77 993.82,-670.02 918,-726.5 913.46,-729.88 908.58,-732.82 903.47,-735.38"/>
<polygon fill="midnightblue" stroke="midnightblue" points="1044.97,-506.15 1043.87,-495.61 1038.16,-504.54 1044.97,-506.15"/>
</g>
<!-- Node4 -->
<g id="node4" class="node">
<title>Node4</title>
<g id="a_node4"><a xlink:href="../../d0/d65/classjavolution_1_1xml_1_1internal_1_1stream_1_1XMLStreamReaderImpl.html#a69cbbc87083bfc8cb32f78f18bb93370" target="_top" xlink:title=" ">
<polygon fill="white" stroke="black" points="670,-686.5 670,-716.5 918,-716.5 918,-686.5 670,-686.5"/>
<text text-anchor="start" x="678" y="-704.5" font-family="Helvetica,sans-Serif" font-size="10.00">javolution.xml.internal.stream.</text>
<text text-anchor="middle" x="794" y="-693.5" font-family="Helvetica,sans-Serif" font-size="10.00">XMLStreamReaderImpl.getAttributeNamespace</text>
</a>
</g>
</g>
<!-- Node1&#45;&gt;Node4 -->
<g id="edge3" class="edge">
<title>Node1&#45;&gt;Node4</title>
<path fill="none" stroke="midnightblue" d="M1038.27,-505.11C1021.84,-547.63 982.1,-634.41 918,-677.5 912.94,-680.9 907.52,-683.84 901.88,-686.39"/>
<polygon fill="midnightblue" stroke="midnightblue" points="1041.63,-506.14 1041.86,-495.55 1035.07,-503.68 1041.63,-506.14"/>
</g>
<!-- Node5 -->
<g id="node5" class="node">
<title>Node5</title>
<g id="a_node5"><a xlink:href="../../d0/d65/classjavolution_1_1xml_1_1internal_1_1stream_1_1XMLStreamReaderImpl.html#a006a01526de8833f63651bbabf740fd3" target="_top" xlink:title=" ">
<polygon fill="white" stroke="black" points="685,-637.5 685,-667.5 903,-667.5 903,-637.5 685,-637.5"/>
<text text-anchor="start" x="693" y="-655.5" font-family="Helvetica,sans-Serif" font-size="10.00">javolution.xml.internal.stream.</text>
<text text-anchor="middle" x="794" y="-644.5" font-family="Helvetica,sans-Serif" font-size="10.00">XMLStreamReaderImpl.getAttributePrefix</text>
</a>
</g>
</g>
<!-- Node1&#45;&gt;Node5 -->
<g id="edge4" class="edge">
<title>Node1&#45;&gt;Node5</title>
<path fill="none" stroke="midnightblue" d="M1033.41,-504.25C1012.93,-537.7 970.89,-597.98 918,-628.5 912.06,-631.92 905.73,-634.87 899.18,-637.4"/>
<polygon fill="midnightblue" stroke="midnightblue" points="1036.47,-505.95 1038.6,-495.58 1030.46,-502.36 1036.47,-505.95"/>
</g>
<!-- Node6 -->
<g id="node6" class="node">
<title>Node6</title>
<g id="a_node6"><a xlink:href="../../d0/d65/classjavolution_1_1xml_1_1internal_1_1stream_1_1XMLStreamReaderImpl.html#abc15556d0e18dd820545c2e8d1ac7769" target="_top" xlink:title=" ">
<polygon fill="white" stroke="black" points="687.5,-588.5 687.5,-618.5 900.5,-618.5 900.5,-588.5 687.5,-588.5"/>
<text text-anchor="start" x="695.5" y="-606.5" font-family="Helvetica,sans-Serif" font-size="10.00">javolution.xml.internal.stream.</text>
<text text-anchor="middle" x="794" y="-595.5" font-family="Helvetica,sans-Serif" font-size="10.00">XMLStreamReaderImpl.getAttributeType</text>
</a>
</g>
</g>
<!-- Node1&#45;&gt;Node6 -->
<g id="edge5" class="edge">
<title>Node1&#45;&gt;Node6</title>
<path fill="none" stroke="midnightblue" d="M1025.05,-502.58C1000.94,-525.48 960.03,-560.55 918,-579.5 910.36,-582.94 902.24,-585.89 893.96,-588.42"/>
<polygon fill="midnightblue" stroke="midnightblue" points="1027.51,-505.07 1032.27,-495.6 1022.64,-500.04 1027.51,-505.07"/>
</g>
<!-- Node7 -->
<g id="node7" class="node">
<title>Node7</title>
<g id="a_node7"><a xlink:href="../../d0/d65/classjavolution_1_1xml_1_1internal_1_1stream_1_1XMLStreamReaderImpl.html#a5dafe64a24ec9498897db2d85163dea5" target="_top" xlink:title=" ">
<polygon fill="white" stroke="black" points="685,-539.5 685,-569.5 903,-569.5 903,-539.5 685,-539.5"/>
<text text-anchor="start" x="693" y="-557.5" font-family="Helvetica,sans-Serif" font-size="10.00">javolution.xml.internal.stream.</text>
<text text-anchor="middle" x="794" y="-546.5" font-family="Helvetica,sans-Serif" font-size="10.00">XMLStreamReaderImpl.getAttributeValue</text>
</a>
</g>
</g>
<!-- Node1&#45;&gt;Node7 -->
<g id="edge6" class="edge">
<title>Node1&#45;&gt;Node7</title>
<path fill="none" stroke="midnightblue" d="M1003.62,-499.53C978.9,-509.81 947.13,-522.08 918,-530.5 906.5,-533.82 894.27,-536.82 882.15,-539.49"/>
<polygon fill="midnightblue" stroke="midnightblue" points="1005.21,-502.66 1013.07,-495.55 1002.5,-496.2 1005.21,-502.66"/>
</g>
<!-- Node9 -->
<g id="node9" class="node">
<title>Node9</title>
<g id="a_node9"><a xlink:href="../../d0/d65/classjavolution_1_1xml_1_1internal_1_1stream_1_1XMLStreamReaderImpl.html#a058331c362bc6403282b1e954c7dd0a7" target="_top" xlink:title=" ">
<polygon fill="white" stroke="black" points="692.5,-490.5 692.5,-520.5 895.5,-520.5 895.5,-490.5 692.5,-490.5"/>
<text text-anchor="start" x="700.5" y="-508.5" font-family="Helvetica,sans-Serif" font-size="10.00">javolution.xml.internal.stream.</text>
<text text-anchor="middle" x="794" y="-497.5" font-family="Helvetica,sans-Serif" font-size="10.00">XMLStreamReaderImpl.getLocalName</text>
</a>
</g>
</g>
<!-- Node1&#45;&gt;Node9 -->
<g id="edge8" class="edge">
<title>Node1&#45;&gt;Node9</title>
<path fill="none" stroke="midnightblue" d="M943.59,-490.76C927.79,-492.33 911.51,-493.94 895.78,-495.5"/>
<polygon fill="midnightblue" stroke="midnightblue" points="944.27,-494.21 953.88,-489.74 943.58,-487.24 944.27,-494.21"/>
</g>
<!-- Node17 -->
<g id="node17" class="node">
<title>Node17</title>
<g id="a_node17"><a xlink:href="../../d0/d65/classjavolution_1_1xml_1_1internal_1_1stream_1_1XMLStreamReaderImpl.html#a7ef7ae16c16ff37a27e9e586dbb016eb" target="_top" xlink:title=" ">
<polygon fill="white" stroke="black" points="677,-441.5 677,-471.5 911,-471.5 911,-441.5 677,-441.5"/>
<text text-anchor="start" x="685" y="-459.5" font-family="Helvetica,sans-Serif" font-size="10.00">javolution.xml.internal.stream.</text>
<text text-anchor="middle" x="794" y="-448.5" font-family="Helvetica,sans-Serif" font-size="10.00">XMLStreamReaderImpl.getNamespaceCount</text>
</a>
</g>
</g>
<!-- Node1&#45;&gt;Node17 -->
<g id="edge16" class="edge">
<title>Node1&#45;&gt;Node17</title>
<path fill="none" stroke="midnightblue" d="M943.71,-470.66C933.01,-469.64 922.09,-468.6 911.26,-467.57"/>
<polygon fill="midnightblue" stroke="midnightblue" points="943.59,-474.17 953.88,-471.63 944.26,-467.2 943.59,-474.17"/>
</g>
<!-- Node18 -->
<g id="node18" class="node">
<title>Node18</title>
<g id="a_node18"><a xlink:href="../../d0/d65/classjavolution_1_1xml_1_1internal_1_1stream_1_1XMLStreamReaderImpl.html#a03fdc9538873fbc3122765acf58837fc" target="_top" xlink:title=" ">
<polygon fill="white" stroke="black" points="677.5,-392.5 677.5,-422.5 910.5,-422.5 910.5,-392.5 677.5,-392.5"/>
<text text-anchor="start" x="685.5" y="-410.5" font-family="Helvetica,sans-Serif" font-size="10.00">javolution.xml.internal.stream.</text>
<text text-anchor="middle" x="794" y="-399.5" font-family="Helvetica,sans-Serif" font-size="10.00">XMLStreamReaderImpl.getNamespacePrefix</text>
</a>
</g>
</g>
<!-- Node1&#45;&gt;Node18 -->
<g id="edge18" class="edge">
<title>Node1&#45;&gt;Node18</title>
<path fill="none" stroke="midnightblue" d="M1001.7,-461.67C977.22,-452 946.3,-440.59 918,-432.5 905.22,-428.85 891.55,-425.52 878.13,-422.56"/>
<polygon fill="midnightblue" stroke="midnightblue" points="1000.5,-464.96 1011.08,-465.42 1003.09,-458.46 1000.5,-464.96"/>
</g>
<!-- Node19 -->
<g id="node19" class="node">
<title>Node19</title>
<g id="a_node19"><a xlink:href="../../d0/d65/classjavolution_1_1xml_1_1internal_1_1stream_1_1XMLStreamReaderImpl.html#a45062be133de9488e3a0e6f4962d46d1" target="_top" xlink:title=" ">
<polygon fill="white" stroke="black" points="682.5,-294.5 682.5,-324.5 905.5,-324.5 905.5,-294.5 682.5,-294.5"/>
<text text-anchor="start" x="690.5" y="-312.5" font-family="Helvetica,sans-Serif" font-size="10.00">javolution.xml.internal.stream.</text>
<text text-anchor="middle" x="794" y="-301.5" font-family="Helvetica,sans-Serif" font-size="10.00">XMLStreamReaderImpl.getNamespaceURI</text>
</a>
</g>
</g>
<!-- Node1&#45;&gt;Node19 -->
<g id="edge20" class="edge">
<title>Node1&#45;&gt;Node19</title>
<path fill="none" stroke="midnightblue" d="M1032.97,-456.62C1012.25,-423.6 970.2,-364.66 918,-334.5 911.3,-330.63 904.1,-327.35 896.65,-324.58"/>
<polygon fill="midnightblue" stroke="midnightblue" points="1030.03,-458.51 1038.25,-465.2 1035.99,-454.85 1030.03,-458.51"/>
</g>
<!-- Node21 -->
<g id="node21" class="node">
<title>Node21</title>
<g id="a_node21"><a xlink:href="../../d0/d65/classjavolution_1_1xml_1_1internal_1_1stream_1_1XMLStreamReaderImpl.html#a6ddf8d2bcaa0a153f5162412e5465eee" target="_top" xlink:title=" ">
<polygon fill="white" stroke="black" points="704,-245.5 704,-275.5 884,-275.5 884,-245.5 704,-245.5"/>
<text text-anchor="start" x="712" y="-263.5" font-family="Helvetica,sans-Serif" font-size="10.00">javolution.xml.internal.stream.</text>
<text text-anchor="middle" x="794" y="-252.5" font-family="Helvetica,sans-Serif" font-size="10.00">XMLStreamReaderImpl.getPIData</text>
</a>
</g>
</g>
<!-- Node1&#45;&gt;Node21 -->
<g id="edge23" class="edge">
<title>Node1&#45;&gt;Node21</title>
<path fill="none" stroke="midnightblue" d="M1038.04,-455.88C1021.38,-413.75 981.42,-328.28 918,-285.5 907.79,-278.62 896.1,-273.55 884.07,-269.84"/>
<polygon fill="midnightblue" stroke="midnightblue" points="1034.84,-457.29 1041.69,-465.36 1041.37,-454.77 1034.84,-457.29"/>
</g>
<!-- Node23 -->
<g id="node23" class="node">
<title>Node23</title>
<g id="a_node23"><a xlink:href="../../d0/d65/classjavolution_1_1xml_1_1internal_1_1stream_1_1XMLStreamReaderImpl.html#a239bb6045636040c14e9ab4f9ab619d9" target="_top" xlink:title=" ">
<polygon fill="white" stroke="black" points="700.5,-343.5 700.5,-373.5 887.5,-373.5 887.5,-343.5 700.5,-343.5"/>
<text text-anchor="start" x="708.5" y="-361.5" font-family="Helvetica,sans-Serif" font-size="10.00">javolution.xml.internal.stream.</text>
<text text-anchor="middle" x="794" y="-350.5" font-family="Helvetica,sans-Serif" font-size="10.00">XMLStreamReaderImpl.getPITarget</text>
</a>
</g>
</g>
<!-- Node1&#45;&gt;Node23 -->
<g id="edge26" class="edge">
<title>Node1&#45;&gt;Node23</title>
<path fill="none" stroke="midnightblue" d="M1024.21,-458.28C999.92,-435.9 959.33,-402.09 918,-383.5 908.46,-379.21 898.17,-375.65 887.76,-372.7"/>
<polygon fill="midnightblue" stroke="midnightblue" points="1022.12,-461.11 1031.8,-465.4 1026.9,-456.01 1022.12,-461.11"/>
</g>
<!-- Node24 -->
<g id="node24" class="node">
<title>Node24</title>
<g id="a_node24"><a xlink:href="../../d0/d65/classjavolution_1_1xml_1_1internal_1_1stream_1_1XMLStreamReaderImpl.html#ac84b89e7554210349fece969e0a34f77" target="_top" xlink:title=" ">
<polygon fill="white" stroke="black" points="706,-196.5 706,-226.5 882,-226.5 882,-196.5 706,-196.5"/>
<text text-anchor="start" x="714" y="-214.5" font-family="Helvetica,sans-Serif" font-size="10.00">javolution.xml.internal.stream.</text>
<text text-anchor="middle" x="794" y="-203.5" font-family="Helvetica,sans-Serif" font-size="10.00">XMLStreamReaderImpl.getPrefix</text>
</a>
</g>
</g>
<!-- Node1&#45;&gt;Node24 -->
<g id="edge28" class="edge">
<title>Node1&#45;&gt;Node24</title>
<path fill="none" stroke="midnightblue" d="M1041.29,-455.22C1028.56,-404.96 992.88,-292.54 918,-236.5 907.45,-228.6 895.01,-223.04 882.17,-219.15"/>
<polygon fill="midnightblue" stroke="midnightblue" points="1037.97,-456.34 1043.73,-465.23 1044.77,-454.68 1037.97,-456.34"/>
</g>
<!-- Node26 -->
<g id="node26" class="node">
<title>Node26</title>
<g id="a_node26"><a xlink:href="../../d0/d65/classjavolution_1_1xml_1_1internal_1_1stream_1_1XMLStreamReaderImpl.html#abcf53586d89550b0717a549c7b8bd9bf" target="_top" xlink:title=" ">
<polygon fill="white" stroke="black" points="710,-123.5 710,-153.5 878,-153.5 878,-123.5 710,-123.5"/>
<text text-anchor="start" x="718" y="-141.5" font-family="Helvetica,sans-Serif" font-size="10.00">javolution.xml.internal.stream.</text>
<text text-anchor="middle" x="794" y="-130.5" font-family="Helvetica,sans-Serif" font-size="10.00">XMLStreamReaderImpl.getText</text>
</a>
</g>
</g>
<!-- Node1&#45;&gt;Node26 -->
<g id="edge31" class="edge">
<title>Node1&#45;&gt;Node26</title>
<path fill="none" stroke="midnightblue" d="M1042.68,-455.27C1031.82,-399.28 998.32,-263.56 918,-186.5 902.2,-171.34 881.08,-160.82 860.79,-153.57"/>
<polygon fill="midnightblue" stroke="midnightblue" points="1039.29,-456.17 1044.56,-465.36 1046.17,-454.89 1039.29,-456.17"/>
</g>
<!-- Node8 -->
<g id="node8" class="node">
<title>Node8</title>
<g id="a_node8"><a xlink:href="../../d9/d60/classjavolution_1_1xml_1_1XMLFormat_1_1InputElement.html#a53ea49dffda8aeba600dcc32a64a55ea" target="_top" xlink:title=" ">
<polygon fill="white" stroke="black" points="448,-539.5 448,-569.5 597,-569.5 597,-539.5 448,-539.5"/>
<text text-anchor="start" x="456" y="-557.5" font-family="Helvetica,sans-Serif" font-size="10.00">javolution.xml.XMLFormat.</text>
<text text-anchor="middle" x="522.5" y="-546.5" font-family="Helvetica,sans-Serif" font-size="10.00">InputElement.getAttribute</text>
</a>
</g>
</g>
<!-- Node7&#45;&gt;Node8 -->
<g id="edge7" class="edge">
<title>Node7&#45;&gt;Node8</title>
<path fill="none" stroke="midnightblue" d="M674.87,-554.5C648.49,-554.5 621.23,-554.5 597.25,-554.5"/>
<polygon fill="midnightblue" stroke="midnightblue" points="674.94,-558 684.94,-554.5 674.94,-551 674.94,-558"/>
</g>
<!-- Node10 -->
<g id="node10" class="node">
<title>Node10</title>
<g id="a_node10"><a xlink:href="../../d9/d60/classjavolution_1_1xml_1_1XMLFormat_1_1InputElement.html#adca9deb7d768781436c703513bdd18bb" target="_top" xlink:title=" ">
<polygon fill="white" stroke="black" points="448,-490.5 448,-520.5 597,-520.5 597,-490.5 448,-490.5"/>
<text text-anchor="start" x="456" y="-508.5" font-family="Helvetica,sans-Serif" font-size="10.00">javolution.xml.XMLFormat.</text>
<text text-anchor="middle" x="522.5" y="-497.5" font-family="Helvetica,sans-Serif" font-size="10.00">InputElement.get</text>
</a>
</g>
</g>
<!-- Node9&#45;&gt;Node10 -->
<g id="edge9" class="edge">
<title>Node9&#45;&gt;Node10</title>
<path fill="none" stroke="midnightblue" d="M682.2,-505.5C653.56,-505.5 623.42,-505.5 597.19,-505.5"/>
<polygon fill="midnightblue" stroke="midnightblue" points="682.26,-509 692.26,-505.5 682.26,-502 682.26,-509"/>
</g>
<!-- Node11 -->
<g id="node11" class="node">
<title>Node11</title>
<g id="a_node11"><a xlink:href="../../d9/d60/classjavolution_1_1xml_1_1XMLFormat_1_1InputElement.html#a1a9f1d9cc2954e37458f7e2eacbd4563" target="_top" xlink:title=" ">
<polygon fill="white" stroke="black" points="448,-441.5 448,-471.5 597,-471.5 597,-441.5 448,-441.5"/>
<text text-anchor="start" x="456" y="-459.5" font-family="Helvetica,sans-Serif" font-size="10.00">javolution.xml.XMLFormat.</text>
<text text-anchor="middle" x="522.5" y="-448.5" font-family="Helvetica,sans-Serif" font-size="10.00">InputElement.getNext</text>
</a>
</g>
</g>
<!-- Node9&#45;&gt;Node11 -->
<g id="edge10" class="edge">
<title>Node9&#45;&gt;Node11</title>
<path fill="none" stroke="midnightblue" d="M700.46,-488.67C666.78,-482.55 629.19,-475.72 597.34,-469.93"/>
<polygon fill="midnightblue" stroke="midnightblue" points="699.84,-492.12 710.31,-490.47 701.1,-485.23 699.84,-492.12"/>
</g>
<!-- Node12 -->
<g id="node12" class="node">
<title>Node12</title>
<g id="a_node12"><a xlink:href="../../d6/d79/classjavolution_1_1xml_1_1sax_1_1XMLReaderImpl.html#a7060e3d22c1cb128897bfc57a7e0cc64" target="_top" xlink:title=" ">
<polygon fill="white" stroke="black" points="439.5,-343.5 439.5,-373.5 605.5,-373.5 605.5,-343.5 439.5,-343.5"/>
<text text-anchor="start" x="447.5" y="-361.5" font-family="Helvetica,sans-Serif" font-size="10.00">javolution.xml.sax.XMLReader</text>
<text text-anchor="middle" x="522.5" y="-350.5" font-family="Helvetica,sans-Serif" font-size="10.00">Impl.parseAll</text>
</a>
</g>
</g>
<!-- Node9&#45;&gt;Node12 -->
<g id="edge11" class="edge">
<title>Node9&#45;&gt;Node12</title>
<path fill="none" stroke="midnightblue" d="M683.2,-490.38C678.53,-487.81 674.1,-484.87 670,-481.5 637.34,-454.68 665.07,-422.14 634,-393.5 624.68,-384.91 613.25,-378.43 601.32,-373.53"/>
<polygon fill="midnightblue" stroke="midnightblue" points="681.91,-493.64 692.43,-494.87 684.97,-487.35 681.91,-493.64"/>
</g>
<!-- Node16 -->
<g id="node16" class="node">
<title>Node16</title>
<g id="a_node16"><a xlink:href="../../d0/d65/classjavolution_1_1xml_1_1internal_1_1stream_1_1XMLStreamReaderImpl.html#a1c9c4fe07d58cbe4a428a4b0c9b07f13" target="_top" xlink:title=" ">
<polygon fill="white" stroke="black" points="207,-245.5 207,-275.5 375,-275.5 375,-245.5 207,-245.5"/>
<text text-anchor="start" x="215" y="-263.5" font-family="Helvetica,sans-Serif" font-size="10.00">javolution.xml.internal.stream.</text>
<text text-anchor="middle" x="291" y="-252.5" font-family="Helvetica,sans-Serif" font-size="10.00">XMLStreamReaderImpl.require</text>
</a>
</g>
</g>
<!-- Node9&#45;&gt;Node16 -->
<g id="edge15" class="edge">
<title>Node9&#45;&gt;Node16</title>
<path fill="none" stroke="midnightblue" d="M682.86,-488.5C678.4,-486.42 674.09,-484.09 670,-481.5 647.18,-467.03 656.65,-447.24 634,-432.5 548.94,-377.17 496.06,-438.83 411,-383.5 388.35,-368.76 393.18,-354.49 375,-334.5 354.86,-312.37 328.68,-289.91 311.16,-275.63"/>
<polygon fill="midnightblue" stroke="midnightblue" points="681.63,-491.78 692.21,-492.44 684.35,-485.33 681.63,-491.78"/>
</g>
<!-- Node13 -->
<g id="node13" class="node">
<title>Node13</title>
<g id="a_node13"><a xlink:href="../../d6/d79/classjavolution_1_1xml_1_1sax_1_1XMLReaderImpl.html#af59c6a5e7282b94dea9be9452f9c945e" target="_top" xlink:title=" ">
<polygon fill="white" stroke="black" points="208,-343.5 208,-373.5 374,-373.5 374,-343.5 208,-343.5"/>
<text text-anchor="start" x="216" y="-361.5" font-family="Helvetica,sans-Serif" font-size="10.00">javolution.xml.sax.XMLReader</text>
<text text-anchor="middle" x="291" y="-350.5" font-family="Helvetica,sans-Serif" font-size="10.00">Impl.parse</text>
</a>
</g>
</g>
<!-- Node12&#45;&gt;Node13 -->
<g id="edge12" class="edge">
<title>Node12&#45;&gt;Node13</title>
<path fill="none" stroke="midnightblue" d="M429.24,-358.5C410.97,-358.5 391.92,-358.5 374.02,-358.5"/>
<polygon fill="midnightblue" stroke="midnightblue" points="429.29,-362 439.29,-358.5 429.29,-355 429.29,-362"/>
</g>
<!-- Node14 -->
<g id="node14" class="node">
<title>Node14</title>
<g id="a_node14"><a xlink:href="../../d5/de1/classjavolution_1_1xml_1_1sax_1_1SAX2ReaderImpl.html#ac88f97df2622809ba9f127e173f20f17" target="_top" xlink:title=" ">
<polygon fill="white" stroke="black" points="0,-367.5 0,-397.5 171,-397.5 171,-367.5 0,-367.5"/>
<text text-anchor="start" x="8" y="-385.5" font-family="Helvetica,sans-Serif" font-size="10.00">javolution.xml.sax.SAX2Reader</text>
<text text-anchor="middle" x="85.5" y="-374.5" font-family="Helvetica,sans-Serif" font-size="10.00">Impl.parse</text>
</a>
</g>
</g>
<!-- Node13&#45;&gt;Node14 -->
<g id="edge13" class="edge">
<title>Node13&#45;&gt;Node14</title>
<path fill="none" stroke="midnightblue" d="M197.88,-369.36C189.03,-370.41 180.09,-371.46 171.31,-372.5"/>
<polygon fill="midnightblue" stroke="midnightblue" points="198.29,-372.84 207.82,-368.19 197.47,-365.89 198.29,-372.84"/>
</g>
<!-- Node15 -->
<g id="node15" class="node">
<title>Node15</title>
<g id="a_node15"><a xlink:href="../../d6/d79/classjavolution_1_1xml_1_1sax_1_1XMLReaderImpl.html#a255e7cbc9ce8eced22fae7c8138b6cfb" target="_top" xlink:title=" ">
<polygon fill="white" stroke="black" points="2.5,-318.5 2.5,-348.5 168.5,-348.5 168.5,-318.5 2.5,-318.5"/>
<text text-anchor="start" x="10.5" y="-336.5" font-family="Helvetica,sans-Serif" font-size="10.00">javolution.xml.sax.XMLReader</text>
<text text-anchor="middle" x="85.5" y="-325.5" font-family="Helvetica,sans-Serif" font-size="10.00">Impl.parse</text>
</a>
</g>
</g>
<!-- Node13&#45;&gt;Node15 -->
<g id="edge14" class="edge">
<title>Node13&#45;&gt;Node15</title>
<path fill="none" stroke="midnightblue" d="M197.76,-347.17C188.06,-345.98 178.24,-344.77 168.66,-343.59"/>
<polygon fill="midnightblue" stroke="midnightblue" points="197.46,-350.66 207.82,-348.4 198.32,-343.71 197.46,-350.66"/>
</g>
<!-- Node17&#45;&gt;Node12 -->
<g id="edge17" class="edge">
<title>Node17&#45;&gt;Node12</title>
<path fill="none" stroke="midnightblue" d="M680.16,-437.59C676.68,-436.02 673.28,-434.33 670,-432.5 649.4,-421 653.91,-406.15 634,-393.5 620.75,-385.08 605.32,-378.54 590.26,-373.52"/>
<polygon fill="midnightblue" stroke="midnightblue" points="678.98,-440.89 689.56,-441.44 681.64,-434.41 678.98,-440.89"/>
</g>
<!-- Node18&#45;&gt;Node12 -->
<g id="edge19" class="edge">
<title>Node18&#45;&gt;Node12</title>
<path fill="none" stroke="midnightblue" d="M700.43,-390.67C669.62,-385.07 635.53,-378.87 605.57,-373.42"/>
<polygon fill="midnightblue" stroke="midnightblue" points="699.84,-394.12 710.31,-392.47 701.1,-387.23 699.84,-394.12"/>
</g>
<!-- Node19&#45;&gt;Node12 -->
<g id="edge22" class="edge">
<title>Node19&#45;&gt;Node12</title>
<path fill="none" stroke="midnightblue" d="M700.43,-326.33C669.62,-331.93 635.53,-338.13 605.57,-343.58"/>
<polygon fill="midnightblue" stroke="midnightblue" points="701.1,-329.77 710.31,-324.53 699.84,-322.88 701.1,-329.77"/>
</g>
<!-- Node20 -->
<g id="node20" class="node">
<title>Node20</title>
<g id="a_node20"><a xlink:href="../../d9/d60/classjavolution_1_1xml_1_1XMLFormat_1_1InputElement.html#a74ac2ec832b43bb5ec3937289a4da74b" target="_top" xlink:title=" ">
<polygon fill="white" stroke="black" points="448,-294.5 448,-324.5 597,-324.5 597,-294.5 448,-294.5"/>
<text text-anchor="start" x="456" y="-312.5" font-family="Helvetica,sans-Serif" font-size="10.00">javolution.xml.XMLFormat.</text>
<text text-anchor="middle" x="522.5" y="-301.5" font-family="Helvetica,sans-Serif" font-size="10.00">InputElement.get</text>
</a>
</g>
</g>
<!-- Node19&#45;&gt;Node20 -->
<g id="edge21" class="edge">
<title>Node19&#45;&gt;Node20</title>
<path fill="none" stroke="midnightblue" d="M672.11,-309.5C646.62,-309.5 620.46,-309.5 597.33,-309.5"/>
<polygon fill="midnightblue" stroke="midnightblue" points="672.22,-313 682.22,-309.5 672.22,-306 672.22,-313"/>
</g>
<!-- Node21&#45;&gt;Node12 -->
<g id="edge24" class="edge">
<title>Node21&#45;&gt;Node12</title>
<path fill="none" stroke="midnightblue" d="M694.19,-273.67C685.67,-276.83 677.47,-280.72 670,-285.5 647.23,-300.06 656.67,-319.79 634,-334.5 625.35,-340.11 615.61,-344.43 605.57,-347.75"/>
<polygon fill="midnightblue" stroke="midnightblue" points="695.55,-276.91 703.91,-270.4 693.31,-270.27 695.55,-276.91"/>
</g>
<!-- Node22 -->
<g id="node22" class="node">
<title>Node22</title>
<g id="a_node22"><a xlink:href="../../d0/d65/classjavolution_1_1xml_1_1internal_1_1stream_1_1XMLStreamReaderImpl.html#a5e11adbb1f420b45116c6412caf6ccf1" target="_top" xlink:title=" ">
<polygon fill="white" stroke="black" points="436.5,-245.5 436.5,-275.5 608.5,-275.5 608.5,-245.5 436.5,-245.5"/>
<text text-anchor="start" x="444.5" y="-263.5" font-family="Helvetica,sans-Serif" font-size="10.00">javolution.xml.internal.stream.</text>
<text text-anchor="middle" x="522.5" y="-252.5" font-family="Helvetica,sans-Serif" font-size="10.00">XMLStreamReaderImpl.setInput</text>
</a>
</g>
</g>
<!-- Node21&#45;&gt;Node22 -->
<g id="edge25" class="edge">
<title>Node21&#45;&gt;Node22</title>
<path fill="none" stroke="midnightblue" d="M693.46,-260.5C665.56,-260.5 635.49,-260.5 608.51,-260.5"/>
<polygon fill="midnightblue" stroke="midnightblue" points="693.63,-264 703.63,-260.5 693.63,-257 693.63,-264"/>
</g>
<!-- Node23&#45;&gt;Node12 -->
<g id="edge27" class="edge">
<title>Node23&#45;&gt;Node12</title>
<path fill="none" stroke="midnightblue" d="M690.05,-358.5C662.11,-358.5 632.23,-358.5 605.6,-358.5"/>
<polygon fill="midnightblue" stroke="midnightblue" points="690.25,-362 700.25,-358.5 690.25,-355 690.25,-362"/>
</g>
<!-- Node25 -->
<g id="node25" class="node">
<title>Node25</title>
<g id="a_node25"><a xlink:href="../../d0/d65/classjavolution_1_1xml_1_1internal_1_1stream_1_1XMLStreamReaderImpl.html#a32ff8d2be6a7d570031a2d9785ac23db" target="_top" xlink:title=" ">
<polygon fill="white" stroke="black" points="411,-196.5 411,-226.5 634,-226.5 634,-196.5 411,-196.5"/>
<text text-anchor="start" x="419" y="-214.5" font-family="Helvetica,sans-Serif" font-size="10.00">javolution.xml.internal.stream.</text>
<text text-anchor="middle" x="522.5" y="-203.5" font-family="Helvetica,sans-Serif" font-size="10.00">XMLStreamReaderImpl.getNamespaceURI</text>
</a>
</g>
</g>
<!-- Node24&#45;&gt;Node25 -->
<g id="edge29" class="edge">
<title>Node24&#45;&gt;Node25</title>
<path fill="none" stroke="midnightblue" d="M695.61,-211.5C675.76,-211.5 654.74,-211.5 634.46,-211.5"/>
<polygon fill="midnightblue" stroke="midnightblue" points="695.87,-215 705.87,-211.5 695.87,-208 695.87,-215"/>
</g>
<!-- Node25&#45;&gt;Node16 -->
<g id="edge30" class="edge">
<title>Node25&#45;&gt;Node16</title>
<path fill="none" stroke="midnightblue" d="M441.01,-228.69C415.35,-234.16 387.17,-240.18 362.28,-245.49"/>
<polygon fill="midnightblue" stroke="midnightblue" points="442.03,-232.05 451.08,-226.53 440.57,-225.2 442.03,-232.05"/>
</g>
<!-- Node26&#45;&gt;Node12 -->
<g id="edge37" class="edge">
<title>Node26&#45;&gt;Node12</title>
<path fill="none" stroke="midnightblue" d="M712.08,-157.32C696.32,-164.23 681.23,-173.66 670,-186.5 625.43,-237.45 682.46,-287.23 634,-334.5 626.06,-342.25 616.24,-347.74 605.76,-351.6"/>
<polygon fill="midnightblue" stroke="midnightblue" points="713.46,-160.53 721.41,-153.53 710.83,-154.05 713.46,-160.53"/>
</g>
<!-- Node27 -->
<g id="node27" class="node">
<title>Node27</title>
<g id="a_node27"><a xlink:href="../../d0/d65/classjavolution_1_1xml_1_1internal_1_1stream_1_1XMLStreamReaderImpl.html#a72b51558d2acd9213ab216592156ca55" target="_top" xlink:title=" ">
<polygon fill="white" stroke="black" points="418,-0.5 418,-30.5 627,-30.5 627,-0.5 418,-0.5"/>
<text text-anchor="start" x="426" y="-18.5" font-family="Helvetica,sans-Serif" font-size="10.00">javolution.xml.internal.stream.</text>
<text text-anchor="middle" x="522.5" y="-7.5" font-family="Helvetica,sans-Serif" font-size="10.00">XMLStreamReaderImpl.getElementText</text>
</a>
</g>
</g>
<!-- Node26&#45;&gt;Node27 -->
<g id="edge32" class="edge">
<title>Node26&#45;&gt;Node27</title>
<path fill="none" stroke="midnightblue" d="M765.6,-117.32C735.11,-94.77 683.58,-59.61 634,-39.5 625.54,-36.07 616.51,-33.09 607.39,-30.52"/>
<polygon fill="midnightblue" stroke="midnightblue" points="763.52,-120.13 773.62,-123.32 767.71,-114.53 763.52,-120.13"/>
</g>
<!-- Node29 -->
<g id="node29" class="node">
<title>Node29</title>
<g id="a_node29"><a xlink:href="../../d0/d65/classjavolution_1_1xml_1_1internal_1_1stream_1_1XMLStreamReaderImpl.html#a47bf83fb0fb9df2f0e8ca856dc78fe26" target="_top" xlink:title=" ">
<polygon fill="white" stroke="black" points="412,-98.5 412,-128.5 633,-128.5 633,-98.5 412,-98.5"/>
<text text-anchor="start" x="420" y="-116.5" font-family="Helvetica,sans-Serif" font-size="10.00">javolution.xml.internal.stream.</text>
<text text-anchor="middle" x="522.5" y="-105.5" font-family="Helvetica,sans-Serif" font-size="10.00">XMLStreamReaderImpl.getTextCharacters</text>
</a>
</g>
</g>
<!-- Node26&#45;&gt;Node29 -->
<g id="edge34" class="edge">
<title>Node26&#45;&gt;Node29</title>
<path fill="none" stroke="midnightblue" d="M699.84,-129.86C678.32,-127.86 655.23,-125.72 633.08,-123.67"/>
<polygon fill="midnightblue" stroke="midnightblue" points="699.66,-133.36 709.94,-130.8 700.31,-126.39 699.66,-133.36"/>
</g>
<!-- Node30 -->
<g id="node30" class="node">
<title>Node30</title>
<g id="a_node30"><a xlink:href="../../d0/d65/classjavolution_1_1xml_1_1internal_1_1stream_1_1XMLStreamReaderImpl.html#a18098b06fc0fc23f5fe6fea60e94cbb1" target="_top" xlink:title=" ">
<polygon fill="white" stroke="black" points="422,-49.5 422,-79.5 623,-79.5 623,-49.5 422,-49.5"/>
<text text-anchor="start" x="430" y="-67.5" font-family="Helvetica,sans-Serif" font-size="10.00">javolution.xml.internal.stream.</text>
<text text-anchor="middle" x="522.5" y="-56.5" font-family="Helvetica,sans-Serif" font-size="10.00">XMLStreamReaderImpl.getTextLength</text>
</a>
</g>
</g>
<!-- Node26&#45;&gt;Node30 -->
<g id="edge35" class="edge">
<title>Node26&#45;&gt;Node30</title>
<path fill="none" stroke="midnightblue" d="M739.14,-120.22C708.51,-110.17 669.33,-97.87 634,-88.5 622.14,-85.35 609.49,-82.31 597.13,-79.52"/>
<polygon fill="midnightblue" stroke="midnightblue" points="738.17,-123.59 748.77,-123.4 740.37,-116.94 738.17,-123.59"/>
</g>
<!-- Node31 -->
<g id="node31" class="node">
<title>Node31</title>
<g id="a_node31"><a xlink:href="../../d0/d65/classjavolution_1_1xml_1_1internal_1_1stream_1_1XMLStreamReaderImpl.html#aa7d34d4adeb27ae7b5ef29762c243a3b" target="_top" xlink:title=" ">
<polygon fill="white" stroke="black" points="427,-147.5 427,-177.5 618,-177.5 618,-147.5 427,-147.5"/>
<text text-anchor="start" x="435" y="-165.5" font-family="Helvetica,sans-Serif" font-size="10.00">javolution.xml.internal.stream.</text>
<text text-anchor="middle" x="522.5" y="-154.5" font-family="Helvetica,sans-Serif" font-size="10.00">XMLStreamReaderImpl.getTextStart</text>
</a>
</g>
</g>
<!-- Node26&#45;&gt;Node31 -->
<g id="edge36" class="edge">
<title>Node26&#45;&gt;Node31</title>
<path fill="none" stroke="midnightblue" d="M699.92,-146.79C673.46,-149.15 644.61,-151.71 618.06,-154.08"/>
<polygon fill="midnightblue" stroke="midnightblue" points="700.29,-150.27 709.94,-145.9 699.67,-143.3 700.29,-150.27"/>
</g>
<!-- Node28 -->
<g id="node28" class="node">
<title>Node28</title>
<g id="a_node28"><a xlink:href="../../d9/d60/classjavolution_1_1xml_1_1XMLFormat_1_1InputElement.html#a1858fc90a06227e089492a4f40fc77ac" target="_top" xlink:title=" ">
<polygon fill="white" stroke="black" points="216.5,-0.5 216.5,-30.5 365.5,-30.5 365.5,-0.5 216.5,-0.5"/>
<text text-anchor="start" x="224.5" y="-18.5" font-family="Helvetica,sans-Serif" font-size="10.00">javolution.xml.XMLFormat.</text>
<text text-anchor="middle" x="291" y="-7.5" font-family="Helvetica,sans-Serif" font-size="10.00">InputElement.getText</text>
</a>
</g>
</g>
<!-- Node27&#45;&gt;Node28 -->
<g id="edge33" class="edge">
<title>Node27&#45;&gt;Node28</title>
<path fill="none" stroke="midnightblue" d="M407.5,-15.5C393.29,-15.5 379.07,-15.5 365.71,-15.5"/>
<polygon fill="midnightblue" stroke="midnightblue" points="407.83,-19 417.83,-15.5 407.83,-12 407.83,-19"/>
</g>
</g>
</svg>
        <g id="navigator" transform="translate(0 0)" fill="#404254">
                <rect fill="#f2f5e9" fill-opacity="0.5" stroke="#606060" stroke-width=".5" x="0" y="0" width="60" height="60"/>
                <use id="zoomplus" xlink:href="#zoomPlus" x="17" y="9" onmousedown="handleZoom(evt,'in')"/>
                <use id="zoomminus" xlink:href="#zoomMin" x="42" y="9" onmousedown="handleZoom(evt,'out')"/>
                <use id="reset" xlink:href="#resetDef" x="30" y="36" onmousedown="handleReset()"/>
                <g id="arrowUp" xlink:href="#dirArrow" transform="translate(30 24)" onmousedown="handlePan(0,-1)">
                  <use xlink:href="#rim" fill="#404040">
                        <set attributeName="fill" to="#808080" begin="arrowUp.mouseover" end="arrowUp.mouseout"/>
                  </use>
                  <path fill="none" stroke="white" stroke-width="1.5" d="M0,-3.0v7 M-2.5,-0.5L0,-3.0L2.5,-0.5"/>
                </g>
                <g id="arrowRight" xlink:href="#dirArrow" transform="rotate(90) translate(36 -43)" onmousedown="handlePan(1,0)">
                  <use xlink:href="#rim" fill="#404040">
                        <set attributeName="fill" to="#808080" begin="arrowRight.mouseover" end="arrowRight.mouseout"/>
                  </use>
                  <path fill="none" stroke="white" stroke-width="1.5" d="M0,-3.0v7 M-2.5,-0.5L0,-3.0L2.5,-0.5"/>
                </g>
                <g id="arrowDown" xlink:href="#dirArrow" transform="rotate(180) translate(-30 -48)" onmousedown="handlePan(0,1)">
                  <use xlink:href="#rim" fill="#404040">
                        <set attributeName="fill" to="#808080" begin="arrowDown.mouseover" end="arrowDown.mouseout"/>
                  </use>
                  <path fill="none" stroke="white" stroke-width="1.5" d="M0,-3.0v7 M-2.5,-0.5L0,-3.0L2.5,-0.5"/>
                </g>
                <g id="arrowLeft" xlink:href="#dirArrow" transform="rotate(270) translate(-36 17)" onmousedown="handlePan(-1,0)">
                  <use xlink:href="#rim" fill="#404040">
                        <set attributeName="fill" to="#808080" begin="arrowLeft.mouseover" end="arrowLeft.mouseout"/>
                  </use>
                  <path fill="none" stroke="white" stroke-width="1.5" d="M0,-3.0v7 M-2.5,-0.5L0,-3.0L2.5,-0.5"/>
                </g>
        </g>
        <svg viewBox="0 0 15 15" width="100%" height="30px" preserveAspectRatio="xMaxYMin meet">
         <g id="arrow_out" transform="scale(0.3 0.3)">
          <a xlink:href="classjavolution_1_1xml_1_1internal_1_1stream_1_1XMLStreamReaderImpl_a7ec904380dc9205eec886c5136dc97f9_icgraph_org.svg" target="_base">
           <rect id="button" ry="5" rx="5" y="6" x="6" height="38" width="38"
                fill="#f2f5e9" fill-opacity="0.5" stroke="#606060" stroke-width="1.0"/>
           <path id="arrow"
             d="M 11.500037,31.436501 C 11.940474,20.09759 22.043105,11.32322 32.158766,21.979434 L 37.068811,17.246167 C 37.068811,17.246167 37.088388,32 37.088388,32 L 22.160133,31.978069 C 22.160133,31.978069 26.997745,27.140456 26.997745,27.140456 C 18.528582,18.264221 13.291696,25.230495 11.500037,31.436501 z"
             style="fill:#404040;"/>
          </a>
         </g>
        </svg>
</svg>
