<?xml version="1.0" encoding="UTF-8" standalone="no"?>
<!DOCTYPE svg PUBLIC "-//W3C//DTD SVG 1.1//EN"
 "http://www.w3.org/Graphics/SVG/1.1/DTD/svg11.dtd">
<!-- Generated by graphviz version 2.43.0 (0)
 -->
<!-- Title: javolution.xml.internal.stream.XMLStreamReaderImpl.next Pages: 1 -->
<svg width="1605pt" height="935pt"
 viewBox="0.00 0.00 1605.00 935.47" xmlns="http://www.w3.org/2000/svg" xmlns:xlink="http://www.w3.org/1999/xlink">
<g id="graph0" class="graph" transform="scale(1 1) rotate(0) translate(4 931.47)">
<title>javolution.xml.internal.stream.XMLStreamReaderImpl.next</title>
<polygon fill="white" stroke="transparent" points="-4,4 -4,-931.47 1601,-931.47 1601,4 -4,4"/>
<!-- Node1 -->
<g id="node1" class="node">
<title>Node1</title>
<g id="a_node1"><a xlink:title=" ">
<polygon fill="#bfbfbf" stroke="black" points="0,-480.5 0,-510.5 168,-510.5 168,-480.5 0,-480.5"/>
<text text-anchor="start" x="8" y="-498.5" font-family="Helvetica,sans-Serif" font-size="10.00">javolution.xml.internal.stream.</text>
<text text-anchor="middle" x="84" y="-487.5" font-family="Helvetica,sans-Serif" font-size="10.00">XMLStreamReaderImpl.next</text>
</a>
</g>
</g>
<!-- Node2 -->
<g id="node2" class="node">
<title>Node2</title>
<g id="a_node2"><a xlink:href="../../d0/d65/classjavolution_1_1xml_1_1internal_1_1stream_1_1XMLStreamReaderImpl.html#ac9c3ee5901fa0e8edb98e080b9876dc0" target="_top" xlink:title=" ">
<polygon fill="white" stroke="black" points="204,-837.5 204,-867.5 419,-867.5 419,-837.5 204,-837.5"/>
<text text-anchor="start" x="212" y="-855.5" font-family="Helvetica,sans-Serif" font-size="10.00">javolution.xml.internal.stream.</text>
<text text-anchor="middle" x="311.5" y="-844.5" font-family="Helvetica,sans-Serif" font-size="10.00">XMLStreamReaderImpl.handleEndOfLine</text>
</a>
</g>
</g>
<!-- Node1&#45;&gt;Node2 -->
<g id="edge1" class="edge">
<title>Node1&#45;&gt;Node2</title>
<path fill="none" stroke="midnightblue" d="M85.52,-510.54C88.18,-563.15 104.48,-740.4 204,-828.5 205.32,-829.67 206.68,-830.78 208.08,-831.84"/>
<polygon fill="midnightblue" stroke="midnightblue" points="206.23,-834.81 216.5,-837.39 210.08,-828.96 206.23,-834.81"/>
</g>
<!-- Node3 -->
<g id="node3" class="node">
<title>Node3</title>
<g id="a_node3"><a xlink:href="../../d0/d65/classjavolution_1_1xml_1_1internal_1_1stream_1_1XMLStreamReaderImpl.html#accff128314df06b3be2be7b81bb66cb2" target="_top" xlink:title=" ">
<polygon fill="white" stroke="black" points="474,-881.5 474,-911.5 666,-911.5 666,-881.5 474,-881.5"/>
<text text-anchor="start" x="482" y="-899.5" font-family="Helvetica,sans-Serif" font-size="10.00">javolution.xml.internal.stream.</text>
<text text-anchor="middle" x="570" y="-888.5" font-family="Helvetica,sans-Serif" font-size="10.00">XMLStreamReaderImpl.reloadBuffer</text>
</a>
</g>
</g>
<!-- Node1&#45;&gt;Node3 -->
<g id="edge46" class="edge">
<title>Node1&#45;&gt;Node3</title>
<path fill="none" stroke="midnightblue" d="M87.37,-510.54C97.93,-575.39 142.83,-829.99 204,-877.5 289.66,-944.04 423.67,-930.19 503.26,-913.64"/>
<polygon fill="midnightblue" stroke="midnightblue" points="504.13,-917.03 513.17,-911.51 502.65,-910.19 504.13,-917.03"/>
</g>
<!-- Node10 -->
<g id="node10" class="node">
<title>Node10</title>
<g id="a_node10"><a xlink:href="../../d0/d65/classjavolution_1_1xml_1_1internal_1_1stream_1_1XMLStreamReaderImpl.html#a3a37f6eded5c5c6151cdf063bf0844b8" target="_top" xlink:title=" ">
<polygon fill="white" stroke="black" points="209,-559.5 209,-589.5 414,-589.5 414,-559.5 209,-559.5"/>
<text text-anchor="start" x="217" y="-577.5" font-family="Helvetica,sans-Serif" font-size="10.00">javolution.xml.internal.stream.</text>
<text text-anchor="middle" x="311.5" y="-566.5" font-family="Helvetica,sans-Serif" font-size="10.00">XMLStreamReaderImpl.isEndOfStream</text>
</a>
</g>
</g>
<!-- Node1&#45;&gt;Node10 -->
<g id="edge9" class="edge">
<title>Node1&#45;&gt;Node10</title>
<path fill="none" stroke="midnightblue" d="M127.95,-510.55C164.82,-523.46 218.11,-542.13 257.61,-555.97"/>
<polygon fill="midnightblue" stroke="midnightblue" points="256.74,-559.37 267.33,-559.38 259.05,-552.77 256.74,-559.37"/>
</g>
<!-- Node11 -->
<g id="node11" class="node">
<title>Node11</title>
<g id="a_node11"><a xlink:href="../../d0/d36/classjavolution_1_1text_1_1CharArray.html#a1206e2076e25f1e66e1458328aa22baa" target="_top" xlink:title=" ">
<polygon fill="white" stroke="black" points="989.5,-556 989.5,-575 1161.5,-575 1161.5,-556 989.5,-556"/>
<text text-anchor="middle" x="1075.5" y="-563" font-family="Helvetica,sans-Serif" font-size="10.00">javolution.text.CharArray.length</text>
</a>
</g>
</g>
<!-- Node1&#45;&gt;Node11 -->
<g id="edge20" class="edge">
<title>Node1&#45;&gt;Node11</title>
<path fill="none" stroke="midnightblue" d="M97.08,-510.51C116.76,-533.83 158.2,-578.26 204,-599.5 306.36,-646.97 342.49,-629.03 455,-637.5 673.25,-653.93 733.91,-666.45 947,-616.5 982.61,-608.15 1021.32,-591.5 1046.64,-579.49"/>
<polygon fill="midnightblue" stroke="midnightblue" points="1048.16,-582.64 1055.65,-575.14 1045.12,-576.33 1048.16,-582.64"/>
</g>
<!-- Node12 -->
<g id="node12" class="node">
<title>Node12</title>
<g id="a_node12"><a xlink:href="../../d0/d65/classjavolution_1_1xml_1_1internal_1_1stream_1_1XMLStreamReaderImpl.html#a81c3892a30b16f53265572c589d012ad" target="_top" xlink:title=" ">
<polygon fill="white" stroke="black" points="485,-455.5 485,-485.5 655,-485.5 655,-455.5 485,-455.5"/>
<text text-anchor="start" x="493" y="-473.5" font-family="Helvetica,sans-Serif" font-size="10.00">javolution.xml.internal.stream.</text>
<text text-anchor="middle" x="570" y="-462.5" font-family="Helvetica,sans-Serif" font-size="10.00">XMLStreamReaderImpl.newSeq</text>
</a>
</g>
</g>
<!-- Node1&#45;&gt;Node12 -->
<g id="edge21" class="edge">
<title>Node1&#45;&gt;Node12</title>
<path fill="none" stroke="midnightblue" d="M168.2,-491.2C253.43,-486.8 385.72,-479.97 474.76,-475.37"/>
<polygon fill="midnightblue" stroke="midnightblue" points="475.05,-478.86 484.86,-474.85 474.69,-471.87 475.05,-478.86"/>
</g>
<!-- Node14 -->
<g id="node14" class="node">
<title>Node14</title>
<g id="a_node14"><a xlink:href="../../d0/d36/classjavolution_1_1text_1_1CharArray.html#a4dba39b3010d6baa467b8ec3fdc561c4" target="_top" xlink:title=" ">
<polygon fill="white" stroke="black" points="756,-531.5 756,-561.5 912,-561.5 912,-531.5 756,-531.5"/>
<text text-anchor="start" x="764" y="-549.5" font-family="Helvetica,sans-Serif" font-size="10.00">javolution.text.CharArray.set</text>
<text text-anchor="middle" x="834" y="-538.5" font-family="Helvetica,sans-Serif" font-size="10.00">Array</text>
</a>
</g>
</g>
<!-- Node1&#45;&gt;Node14 -->
<g id="edge54" class="edge">
<title>Node1&#45;&gt;Node14</title>
<path fill="none" stroke="midnightblue" d="M168.27,-501.18C310.79,-510.89 600.15,-530.62 745.51,-540.53"/>
<polygon fill="midnightblue" stroke="midnightblue" points="745.51,-544.04 755.72,-541.23 745.98,-537.06 745.51,-544.04"/>
</g>
<!-- Node16 -->
<g id="node16" class="node">
<title>Node16</title>
<g id="a_node16"><a xlink:href="../../d0/d36/classjavolution_1_1text_1_1CharArray.html#ad3531ca73d67202979d1b5586eab2521" target="_top" xlink:title=" ">
<polygon fill="white" stroke="black" points="991,-385 991,-404 1160,-404 1160,-385 991,-385"/>
<text text-anchor="middle" x="1075.5" y="-392" font-family="Helvetica,sans-Serif" font-size="10.00">javolution.text.CharArray.offset</text>
</a>
</g>
</g>
<!-- Node1&#45;&gt;Node16 -->
<g id="edge22" class="edge">
<title>Node1&#45;&gt;Node16</title>
<path fill="none" stroke="midnightblue" d="M93.98,-480.23C111.72,-451.17 153.94,-387.35 204,-348.5 300.94,-273.27 335.52,-261.46 455,-233.5 561.47,-208.59 849.13,-176.74 947,-225.5 1010.77,-257.27 1051.08,-337.84 1066.88,-375.08"/>
<polygon fill="midnightblue" stroke="midnightblue" points="1063.82,-376.83 1070.85,-384.75 1070.29,-374.17 1063.82,-376.83"/>
</g>
<!-- Node17 -->
<g id="node17" class="node">
<title>Node17</title>
<g id="a_node17"><a xlink:href="../../dc/daa/classjavolution_1_1xml_1_1internal_1_1stream_1_1NamespacesImpl.html#ae82cf6edcea5ac1d71d5b9005bb6a590" target="_top" xlink:title=" ">
<polygon fill="white" stroke="black" points="227.5,-147.5 227.5,-177.5 395.5,-177.5 395.5,-147.5 227.5,-147.5"/>
<text text-anchor="start" x="235.5" y="-165.5" font-family="Helvetica,sans-Serif" font-size="10.00">javolution.xml.internal.stream.</text>
<text text-anchor="middle" x="311.5" y="-154.5" font-family="Helvetica,sans-Serif" font-size="10.00">NamespacesImpl.pop</text>
</a>
</g>
</g>
<!-- Node1&#45;&gt;Node17 -->
<g id="edge23" class="edge">
<title>Node1&#45;&gt;Node17</title>
<path fill="none" stroke="midnightblue" d="M86.32,-480.26C91.42,-430.86 114.33,-273.65 204,-192.5 208.38,-188.54 213.24,-185.09 218.41,-182.1"/>
<polygon fill="midnightblue" stroke="midnightblue" points="220.09,-185.17 227.37,-177.48 216.88,-178.95 220.09,-185.17"/>
</g>
<!-- Node19 -->
<g id="node19" class="node">
<title>Node19</title>
<g id="a_node19"><a xlink:href="../../d0/d65/classjavolution_1_1xml_1_1internal_1_1stream_1_1XMLStreamReaderImpl.html#a53db005e39d45328c5ac531a86602d0c" target="_top" xlink:title=" ">
<polygon fill="white" stroke="black" points="205.5,-357.5 205.5,-387.5 417.5,-387.5 417.5,-357.5 205.5,-357.5"/>
<text text-anchor="start" x="213.5" y="-375.5" font-family="Helvetica,sans-Serif" font-size="10.00">javolution.xml.internal.stream.</text>
<text text-anchor="middle" x="311.5" y="-364.5" font-family="Helvetica,sans-Serif" font-size="10.00">XMLStreamReaderImpl.processAttribute</text>
</a>
</g>
</g>
<!-- Node1&#45;&gt;Node19 -->
<g id="edge25" class="edge">
<title>Node1&#45;&gt;Node19</title>
<path fill="none" stroke="midnightblue" d="M112.65,-480.42C153.25,-458.27 229.05,-416.93 274.12,-392.34"/>
<polygon fill="midnightblue" stroke="midnightblue" points="275.87,-395.37 282.98,-387.51 272.52,-389.23 275.87,-395.37"/>
</g>
<!-- Node25 -->
<g id="node25" class="node">
<title>Node25</title>
<g id="a_node25"><a xlink:href="../../d0/d65/classjavolution_1_1xml_1_1internal_1_1stream_1_1XMLStreamReaderImpl.html#a557427add0bb3074da6d1d7d1c4dd9b3" target="_top" xlink:title=" ">
<polygon fill="white" stroke="black" points="209.5,-98.5 209.5,-128.5 413.5,-128.5 413.5,-98.5 209.5,-98.5"/>
<text text-anchor="start" x="217.5" y="-116.5" font-family="Helvetica,sans-Serif" font-size="10.00">javolution.xml.internal.stream.</text>
<text text-anchor="middle" x="311.5" y="-105.5" font-family="Helvetica,sans-Serif" font-size="10.00">XMLStreamReaderImpl.processEndTag</text>
</a>
</g>
</g>
<!-- Node1&#45;&gt;Node25 -->
<g id="edge37" class="edge">
<title>Node1&#45;&gt;Node25</title>
<path fill="none" stroke="midnightblue" d="M85.14,-480.21C86.53,-425.01 99.05,-234.29 204,-138.5 205.71,-136.94 207.5,-135.47 209.35,-134.09"/>
<polygon fill="midnightblue" stroke="midnightblue" points="211.39,-136.94 217.88,-128.57 207.59,-131.06 211.39,-136.94"/>
</g>
<!-- Node27 -->
<g id="node27" class="node">
<title>Node27</title>
<g id="a_node27"><a xlink:href="../../d0/d65/classjavolution_1_1xml_1_1internal_1_1stream_1_1XMLStreamReaderImpl.html#a50e36bac0d5ad3781eec541f8588c1c5" target="_top" xlink:title=" ">
<polygon fill="white" stroke="black" points="465.5,-744.5 465.5,-774.5 674.5,-774.5 674.5,-744.5 465.5,-744.5"/>
<text text-anchor="start" x="473.5" y="-762.5" font-family="Helvetica,sans-Serif" font-size="10.00">javolution.xml.internal.stream.</text>
<text text-anchor="middle" x="570" y="-751.5" font-family="Helvetica,sans-Serif" font-size="10.00">XMLStreamReaderImpl.processStartTag</text>
</a>
</g>
</g>
<!-- Node1&#45;&gt;Node27 -->
<g id="edge39" class="edge">
<title>Node1&#45;&gt;Node27</title>
<path fill="none" stroke="midnightblue" d="M90.1,-510.58C103,-546.3 140.5,-636.36 204,-680.5 277.62,-731.68 378.22,-750.62 455.16,-757.21"/>
<polygon fill="midnightblue" stroke="midnightblue" points="455.13,-760.72 465.37,-758.03 455.68,-753.74 455.13,-760.72"/>
</g>
<!-- Node29 -->
<g id="node29" class="node">
<title>Node29</title>
<g id="a_node29"><a xlink:href="../../dc/daa/classjavolution_1_1xml_1_1internal_1_1stream_1_1NamespacesImpl.html#ae1cf4d787f513f4e70688869f60aed22" target="_top" xlink:title=" ">
<polygon fill="white" stroke="black" points="227.5,-49.5 227.5,-79.5 395.5,-79.5 395.5,-49.5 227.5,-49.5"/>
<text text-anchor="start" x="235.5" y="-67.5" font-family="Helvetica,sans-Serif" font-size="10.00">javolution.xml.internal.stream.</text>
<text text-anchor="middle" x="311.5" y="-56.5" font-family="Helvetica,sans-Serif" font-size="10.00">NamespacesImpl.push</text>
</a>
</g>
</g>
<!-- Node1&#45;&gt;Node29 -->
<g id="edge44" class="edge">
<title>Node1&#45;&gt;Node29</title>
<path fill="none" stroke="midnightblue" d="M84.39,-480.2C82.91,-420.26 85.94,-199.37 204,-88.5 208.34,-84.43 213.21,-80.99 218.43,-78.1"/>
<polygon fill="midnightblue" stroke="midnightblue" points="220,-81.23 227.49,-73.73 216.96,-74.92 220,-81.23"/>
</g>
<!-- Node31 -->
<g id="node31" class="node">
<title>Node31</title>
<g id="a_node31"><a xlink:href="../../d0/d65/classjavolution_1_1xml_1_1internal_1_1stream_1_1XMLStreamReaderImpl.html#ad9938970381ce5f73b5e1a17fe250fea" target="_top" xlink:title=" ">
<polygon fill="white" stroke="black" points="213,-788.5 213,-818.5 410,-818.5 410,-788.5 213,-788.5"/>
<text text-anchor="start" x="221" y="-806.5" font-family="Helvetica,sans-Serif" font-size="10.00">javolution.xml.internal.stream.</text>
<text text-anchor="middle" x="311.5" y="-795.5" font-family="Helvetica,sans-Serif" font-size="10.00">XMLStreamReaderImpl.replaceEntity</text>
</a>
</g>
</g>
<!-- Node1&#45;&gt;Node31 -->
<g id="edge47" class="edge">
<title>Node1&#45;&gt;Node31</title>
<path fill="none" stroke="midnightblue" d="M88.61,-510.7C99.33,-552.98 134.65,-673.69 204,-746.5 219.29,-762.55 240.11,-775.07 259.29,-784.23"/>
<polygon fill="midnightblue" stroke="midnightblue" points="257.99,-787.48 268.54,-788.46 260.9,-781.11 257.99,-787.48"/>
</g>
<!-- Node34 -->
<g id="node34" class="node">
<title>Node34</title>
<g id="a_node34"><a xlink:href="../../de/d89/classjavolution_1_1xml_1_1internal_1_1stream_1_1AttributesImpl.html#a2c8f7d63c386dadd6b6851f3d4c2edd7" target="_top" xlink:title=" ">
<polygon fill="white" stroke="black" points="227.5,-0.5 227.5,-30.5 395.5,-30.5 395.5,-0.5 227.5,-0.5"/>
<text text-anchor="start" x="235.5" y="-18.5" font-family="Helvetica,sans-Serif" font-size="10.00">javolution.xml.internal.stream.</text>
<text text-anchor="middle" x="311.5" y="-7.5" font-family="Helvetica,sans-Serif" font-size="10.00">AttributesImpl.reset</text>
</a>
</g>
</g>
<!-- Node1&#45;&gt;Node34 -->
<g id="edge53" class="edge">
<title>Node1&#45;&gt;Node34</title>
<path fill="none" stroke="midnightblue" d="M86.84,-480.35C95.86,-408.6 137.68,-103.62 204,-39.5 208.28,-35.36 213.11,-31.88 218.29,-28.96"/>
<polygon fill="midnightblue" stroke="midnightblue" points="219.87,-32.08 227.31,-24.54 216.79,-25.79 219.87,-32.08"/>
</g>
<!-- Node2&#45;&gt;Node3 -->
<g id="edge2" class="edge">
<title>Node2&#45;&gt;Node3</title>
<path fill="none" stroke="midnightblue" d="M400.06,-867.52C423.04,-871.46 447.97,-875.74 471.44,-879.77"/>
<polygon fill="midnightblue" stroke="midnightblue" points="470.96,-883.23 481.4,-881.47 472.14,-876.33 470.96,-883.23"/>
</g>
<!-- Node4 -->
<g id="node4" class="node">
<title>Node4</title>
<g id="a_node4"><a xlink:href="../../d0/d65/classjavolution_1_1xml_1_1internal_1_1stream_1_1XMLStreamReaderImpl.html#a87bff0503f315316c965b67063423578" target="_top" xlink:title=" ">
<polygon fill="white" stroke="black" points="721,-790.5 721,-820.5 947,-820.5 947,-790.5 721,-790.5"/>
<text text-anchor="start" x="729" y="-808.5" font-family="Helvetica,sans-Serif" font-size="10.00">javolution.xml.internal.stream.</text>
<text text-anchor="middle" x="834" y="-797.5" font-family="Helvetica,sans-Serif" font-size="10.00">XMLStreamReaderImpl.increaseDataBuffer</text>
</a>
</g>
</g>
<!-- Node3&#45;&gt;Node4 -->
<g id="edge3" class="edge">
<title>Node3&#45;&gt;Node4</title>
<path fill="none" stroke="midnightblue" d="M653.15,-881.45C663.96,-878.82 674.81,-875.83 685,-872.5 723.82,-859.79 766.09,-840.02 795.47,-825.24"/>
<polygon fill="midnightblue" stroke="midnightblue" points="797.21,-828.29 804.54,-820.64 794.04,-822.05 797.21,-828.29"/>
</g>
<!-- Node5 -->
<g id="node5" class="node">
<title>Node5</title>
<g id="a_node5"><a xlink:href="../../db/de8/classjavolution_1_1context_1_1LogContext.html#a233e69dc7bac5ecabb9905c49bb9503f" target="_top" xlink:title=" ">
<polygon fill="white" stroke="black" points="983,-771 983,-790 1168,-790 1168,-771 983,-771"/>
<text text-anchor="middle" x="1075.5" y="-778" font-family="Helvetica,sans-Serif" font-size="10.00">javolution.context.LogContext.info</text>
</a>
</g>
</g>
<!-- Node4&#45;&gt;Node5 -->
<g id="edge4" class="edge">
<title>Node4&#45;&gt;Node5</title>
<path fill="none" stroke="midnightblue" d="M947.04,-793.81C955.79,-792.89 964.59,-791.97 973.26,-791.07"/>
<polygon fill="midnightblue" stroke="midnightblue" points="973.79,-794.53 983.37,-790.01 973.06,-787.57 973.79,-794.53"/>
</g>
<!-- Node6 -->
<g id="node6" class="node">
<title>Node6</title>
<g id="a_node6"><a xlink:href="../../db/de8/classjavolution_1_1context_1_1LogContext.html#a3ad63f63b01950647a13c980c14c111a" target="_top" xlink:title=" ">
<polygon fill="white" stroke="black" points="1204,-787.5 1204,-817.5 1405,-817.5 1405,-787.5 1204,-787.5"/>
<text text-anchor="start" x="1212" y="-805.5" font-family="Helvetica,sans-Serif" font-size="10.00">javolution.context.LogContext.current</text>
<text text-anchor="middle" x="1304.5" y="-794.5" font-family="Helvetica,sans-Serif" font-size="10.00">LogContext</text>
</a>
</g>
</g>
<!-- Node5&#45;&gt;Node6 -->
<g id="edge5" class="edge">
<title>Node5&#45;&gt;Node6</title>
<path fill="none" stroke="midnightblue" d="M1168.18,-789.38C1176.58,-790.2 1185.14,-791.03 1193.68,-791.86"/>
<polygon fill="midnightblue" stroke="midnightblue" points="1193.39,-795.35 1203.69,-792.83 1194.07,-788.38 1193.39,-795.35"/>
</g>
<!-- Node9 -->
<g id="node9" class="node">
<title>Node9</title>
<g id="a_node9"><a xlink:href="../../db/de8/classjavolution_1_1context_1_1LogContext.html#a1f213be4946618a105225786df8210b1" target="_top" xlink:title=" ">
<polygon fill="white" stroke="black" points="1213.5,-749 1213.5,-768 1395.5,-768 1395.5,-749 1213.5,-749"/>
<text text-anchor="middle" x="1304.5" y="-756" font-family="Helvetica,sans-Serif" font-size="10.00">javolution.context.LogContext.log</text>
</a>
</g>
</g>
<!-- Node5&#45;&gt;Node9 -->
<g id="edge8" class="edge">
<title>Node5&#45;&gt;Node9</title>
<path fill="none" stroke="midnightblue" d="M1168.18,-771.62C1179.69,-770.5 1191.52,-769.35 1203.16,-768.22"/>
<polygon fill="midnightblue" stroke="midnightblue" points="1203.71,-771.69 1213.33,-767.24 1203.04,-764.72 1203.71,-771.69"/>
</g>
<!-- Node7 -->
<g id="node7" class="node">
<title>Node7</title>
<g id="a_node7"><a xlink:href="../../d3/d0f/classjavolution_1_1context_1_1AbstractContext.html#a39804b0188cf822819d88f43715deaba" target="_top" xlink:title=" ">
<polygon fill="white" stroke="black" points="1444.5,-811.5 1444.5,-841.5 1593.5,-841.5 1593.5,-811.5 1444.5,-811.5"/>
<text text-anchor="start" x="1452.5" y="-829.5" font-family="Helvetica,sans-Serif" font-size="10.00">javolution.context.Abstract</text>
<text text-anchor="middle" x="1519" y="-818.5" font-family="Helvetica,sans-Serif" font-size="10.00">Context.current</text>
</a>
</g>
</g>
<!-- Node6&#45;&gt;Node7 -->
<g id="edge6" class="edge">
<title>Node6&#45;&gt;Node7</title>
<path fill="none" stroke="midnightblue" d="M1405.22,-813.76C1414.88,-814.85 1424.61,-815.95 1434.1,-817.02"/>
<polygon fill="midnightblue" stroke="midnightblue" points="1433.95,-820.53 1444.28,-818.17 1434.73,-813.57 1433.95,-820.53"/>
</g>
<!-- Node8 -->
<g id="node8" class="node">
<title>Node8</title>
<g id="a_node8"><a xlink:href="../../d8/d20/classjavolution_1_1osgi_1_1internal_1_1OSGiServices.html#a2a13065b92db2d08ab44d0005a3421a4" target="_top" xlink:title=" ">
<polygon fill="white" stroke="black" points="1441,-762.5 1441,-792.5 1597,-792.5 1597,-762.5 1441,-762.5"/>
<text text-anchor="start" x="1449" y="-780.5" font-family="Helvetica,sans-Serif" font-size="10.00">javolution.osgi.internal.</text>
<text text-anchor="middle" x="1519" y="-769.5" font-family="Helvetica,sans-Serif" font-size="10.00">OSGiServices.getLogContext</text>
</a>
</g>
</g>
<!-- Node6&#45;&gt;Node8 -->
<g id="edge7" class="edge">
<title>Node6&#45;&gt;Node8</title>
<path fill="none" stroke="midnightblue" d="M1405.22,-790.77C1413.73,-789.77 1422.29,-788.76 1430.69,-787.77"/>
<polygon fill="midnightblue" stroke="midnightblue" points="1431.33,-791.22 1440.85,-786.58 1430.51,-784.27 1431.33,-791.22"/>
</g>
<!-- Node10&#45;&gt;Node3 -->
<g id="edge18" class="edge">
<title>Node10&#45;&gt;Node3</title>
<path fill="none" stroke="midnightblue" d="M321.1,-589.65C340.02,-623.24 386.15,-706.76 419,-779.5 437.24,-819.89 421.23,-843.8 455,-872.5 458.12,-875.15 461.46,-877.53 464.96,-879.67"/>
<polygon fill="midnightblue" stroke="midnightblue" points="463.51,-882.86 473.97,-884.5 466.81,-876.69 463.51,-882.86"/>
</g>
<!-- Node10&#45;&gt;Node11 -->
<g id="edge10" class="edge">
<title>Node10&#45;&gt;Node11</title>
<path fill="none" stroke="midnightblue" d="M414.18,-575.55C539.5,-576.5 758.99,-577 947,-571.5 957.51,-571.19 968.51,-570.79 979.46,-570.35"/>
<polygon fill="midnightblue" stroke="midnightblue" points="979.63,-573.84 989.47,-569.92 979.33,-566.85 979.63,-573.84"/>
</g>
<!-- Node10&#45;&gt;Node12 -->
<g id="edge11" class="edge">
<title>Node10&#45;&gt;Node12</title>
<path fill="none" stroke="midnightblue" d="M349.52,-559.49C395.18,-540.98 472.8,-509.5 522.45,-489.37"/>
<polygon fill="midnightblue" stroke="midnightblue" points="524.04,-492.51 531.99,-485.51 521.41,-486.02 524.04,-492.51"/>
</g>
<!-- Node10&#45;&gt;Node14 -->
<g id="edge19" class="edge">
<title>Node10&#45;&gt;Node14</title>
<path fill="none" stroke="midnightblue" d="M414.09,-569.03C510.62,-563.84 654.23,-556.12 745.73,-551.19"/>
<polygon fill="midnightblue" stroke="midnightblue" points="745.99,-554.69 755.79,-550.65 745.62,-547.7 745.99,-554.69"/>
</g>
<!-- Node10&#45;&gt;Node16 -->
<g id="edge17" class="edge">
<title>Node10&#45;&gt;Node16</title>
<path fill="none" stroke="midnightblue" d="M360.93,-589.57C473.13,-621.42 755.9,-683.87 947,-571.5 974.8,-555.15 964.85,-535.16 983,-508.5 1007.46,-472.57 1040.15,-433.69 1059.1,-411.89"/>
<polygon fill="midnightblue" stroke="midnightblue" points="1061.92,-413.99 1065.87,-404.16 1056.65,-409.38 1061.92,-413.99"/>
</g>
<!-- Node13 -->
<g id="node13" class="node">
<title>Node13</title>
<g id="a_node13"><a xlink:href="../../d0/d65/classjavolution_1_1xml_1_1internal_1_1stream_1_1XMLStreamReaderImpl.html#a05200d081c5258b99e11444bde03030c" target="_top" xlink:title=" ">
<polygon fill="white" stroke="black" points="746,-482.5 746,-512.5 922,-512.5 922,-482.5 746,-482.5"/>
<text text-anchor="start" x="754" y="-500.5" font-family="Helvetica,sans-Serif" font-size="10.00">javolution.xml.internal.stream.</text>
<text text-anchor="middle" x="834" y="-489.5" font-family="Helvetica,sans-Serif" font-size="10.00">XMLStreamReaderImpl.newSeq2</text>
</a>
</g>
</g>
<!-- Node12&#45;&gt;Node13 -->
<g id="edge12" class="edge">
<title>Node12&#45;&gt;Node13</title>
<path fill="none" stroke="midnightblue" d="M655.34,-479.19C680.94,-481.83 709.28,-484.75 735.66,-487.47"/>
<polygon fill="midnightblue" stroke="midnightblue" points="735.36,-490.96 745.66,-488.5 736.08,-483.99 735.36,-490.96"/>
</g>
<!-- Node12&#45;&gt;Node14 -->
<g id="edge13" class="edge">
<title>Node12&#45;&gt;Node14</title>
<path fill="none" stroke="midnightblue" d="M641.11,-485.51C655.87,-489.62 671.16,-494.6 685,-500.5 702.25,-507.85 703.59,-515.55 721,-522.5 728.98,-525.69 737.47,-528.48 746.05,-530.93"/>
<polygon fill="midnightblue" stroke="midnightblue" points="745.2,-534.32 755.76,-533.54 747.01,-527.56 745.2,-534.32"/>
</g>
<!-- Node14&#45;&gt;Node11 -->
<g id="edge15" class="edge">
<title>Node14&#45;&gt;Node11</title>
<path fill="none" stroke="midnightblue" d="M912.1,-552.62C933.44,-554.31 956.87,-556.17 979.12,-557.93"/>
<polygon fill="midnightblue" stroke="midnightblue" points="979,-561.44 989.25,-558.74 979.56,-554.46 979,-561.44"/>
</g>
<!-- Node15 -->
<g id="node15" class="node">
<title>Node15</title>
<g id="a_node15"><a xlink:href="../../d0/d36/classjavolution_1_1text_1_1CharArray.html#a1b743b96fd62cbec154a6ca6c5df9d03" target="_top" xlink:title=" ">
<polygon fill="white" stroke="black" points="992,-518 992,-537 1159,-537 1159,-518 992,-518"/>
<text text-anchor="middle" x="1075.5" y="-525" font-family="Helvetica,sans-Serif" font-size="10.00">javolution.text.CharArray.array</text>
</a>
</g>
</g>
<!-- Node14&#45;&gt;Node15 -->
<g id="edge14" class="edge">
<title>Node14&#45;&gt;Node15</title>
<path fill="none" stroke="midnightblue" d="M912.1,-540.38C934.25,-538.63 958.65,-536.69 981.65,-534.87"/>
<polygon fill="midnightblue" stroke="midnightblue" points="982.07,-538.34 991.76,-534.06 981.51,-531.37 982.07,-538.34"/>
</g>
<!-- Node14&#45;&gt;Node16 -->
<g id="edge16" class="edge">
<title>Node14&#45;&gt;Node16</title>
<path fill="none" stroke="midnightblue" d="M912.12,-536.13C924.22,-532.78 936.26,-528.35 947,-522.5 997.72,-494.84 1041.45,-440.73 1062,-412.54"/>
<polygon fill="midnightblue" stroke="midnightblue" points="1065.1,-414.22 1068.06,-404.05 1059.4,-410.16 1065.1,-414.22"/>
</g>
<!-- Node18 -->
<g id="node18" class="node">
<title>Node18</title>
<g id="a_node18"><a xlink:href="../../dc/daa/classjavolution_1_1xml_1_1internal_1_1stream_1_1NamespacesImpl.html#acb0ae4ce1aed7a82764ba4576eda513a" target="_top" xlink:title=" ">
<polygon fill="white" stroke="black" points="455,-144.5 455,-174.5 685,-174.5 685,-144.5 455,-144.5"/>
<text text-anchor="start" x="463" y="-162.5" font-family="Helvetica,sans-Serif" font-size="10.00">javolution.xml.internal.stream.</text>
<text text-anchor="middle" x="570" y="-151.5" font-family="Helvetica,sans-Serif" font-size="10.00">NamespacesImpl.searchDefaultNamespace</text>
</a>
</g>
</g>
<!-- Node17&#45;&gt;Node18 -->
<g id="edge24" class="edge">
<title>Node17&#45;&gt;Node18</title>
<path fill="none" stroke="midnightblue" d="M395.78,-161.53C411.41,-161.34 428.05,-161.15 444.61,-160.95"/>
<polygon fill="midnightblue" stroke="midnightblue" points="444.95,-164.45 454.9,-160.83 444.86,-157.45 444.95,-164.45"/>
</g>
<!-- Node19&#45;&gt;Node11 -->
<g id="edge30" class="edge">
<title>Node19&#45;&gt;Node11</title>
<path fill="none" stroke="midnightblue" d="M333.91,-357.39C360.73,-339.47 408.79,-310.65 455,-299.5 667.64,-248.2 784.56,-166 947,-312.5 1025.14,-382.97 910.56,-470.18 983,-546.5 984.23,-547.79 985.52,-549.01 986.87,-550.16"/>
<polygon fill="midnightblue" stroke="midnightblue" points="984.95,-553.09 995.14,-555.97 988.97,-547.36 984.95,-553.09"/>
</g>
<!-- Node19&#45;&gt;Node12 -->
<g id="edge31" class="edge">
<title>Node19&#45;&gt;Node12</title>
<path fill="none" stroke="midnightblue" d="M336.8,-387.73C364.44,-404.44 411.42,-430.93 455,-446.5 461.4,-448.79 468.08,-450.89 474.86,-452.81"/>
<polygon fill="midnightblue" stroke="midnightblue" points="474.28,-456.28 484.85,-455.5 476.1,-449.52 474.28,-456.28"/>
</g>
<!-- Node19&#45;&gt;Node16 -->
<g id="edge32" class="edge">
<title>Node19&#45;&gt;Node16</title>
<path fill="none" stroke="midnightblue" d="M333.91,-357.39C360.73,-339.47 408.79,-310.65 455,-299.5 667.64,-248.2 738.72,-245.65 947,-312.5 990.07,-326.32 1032.79,-358.55 1056.2,-378.24"/>
<polygon fill="midnightblue" stroke="midnightblue" points="1054.06,-381.01 1063.92,-384.87 1058.62,-375.7 1054.06,-381.01"/>
</g>
<!-- Node20 -->
<g id="node20" class="node">
<title>Node20</title>
<g id="a_node20"><a xlink:href="../../de/d89/classjavolution_1_1xml_1_1internal_1_1stream_1_1AttributesImpl.html#a37c260f9c539bb139b527cd4e4d5eec0" target="_top" xlink:title=" ">
<polygon fill="white" stroke="black" points="486,-308.5 486,-338.5 654,-338.5 654,-308.5 486,-308.5"/>
<text text-anchor="start" x="494" y="-326.5" font-family="Helvetica,sans-Serif" font-size="10.00">javolution.xml.internal.stream.</text>
<text text-anchor="middle" x="570" y="-315.5" font-family="Helvetica,sans-Serif" font-size="10.00">AttributesImpl.addAttribute</text>
</a>
</g>
</g>
<!-- Node19&#45;&gt;Node20 -->
<g id="edge26" class="edge">
<title>Node19&#45;&gt;Node20</title>
<path fill="none" stroke="midnightblue" d="M391.2,-357.47C419.39,-352.08 451.36,-345.97 480.33,-340.44"/>
<polygon fill="midnightblue" stroke="midnightblue" points="481.28,-343.82 490.45,-338.51 479.97,-336.94 481.28,-343.82"/>
</g>
<!-- Node21 -->
<g id="node21" class="node">
<title>Node21</title>
<g id="a_node21"><a xlink:href="../../d0/d65/classjavolution_1_1xml_1_1internal_1_1stream_1_1XMLStreamReaderImpl.html#a9de41d4de6c2d574d8ac559d743696ff" target="_top" xlink:title=" ">
<polygon fill="white" stroke="black" points="482.5,-406.5 482.5,-436.5 657.5,-436.5 657.5,-406.5 482.5,-406.5"/>
<text text-anchor="start" x="490.5" y="-424.5" font-family="Helvetica,sans-Serif" font-size="10.00">javolution.xml.internal.stream.</text>
<text text-anchor="middle" x="570" y="-413.5" font-family="Helvetica,sans-Serif" font-size="10.00">XMLStreamReaderImpl.isXMLNS</text>
</a>
</g>
</g>
<!-- Node19&#45;&gt;Node21 -->
<g id="edge27" class="edge">
<title>Node19&#45;&gt;Node21</title>
<path fill="none" stroke="midnightblue" d="M391.2,-387.53C419.39,-392.92 451.36,-399.03 480.33,-404.56"/>
<polygon fill="midnightblue" stroke="midnightblue" points="479.97,-408.06 490.45,-406.49 481.28,-401.18 479.97,-408.06"/>
</g>
<!-- Node23 -->
<g id="node23" class="node">
<title>Node23</title>
<g id="a_node23"><a xlink:href="../../dc/daa/classjavolution_1_1xml_1_1internal_1_1stream_1_1NamespacesImpl.html#af0e399ec7eca3a967c953ca0901565d3" target="_top" xlink:title=" ">
<polygon fill="white" stroke="black" points="486,-357.5 486,-387.5 654,-387.5 654,-357.5 486,-357.5"/>
<text text-anchor="start" x="494" y="-375.5" font-family="Helvetica,sans-Serif" font-size="10.00">javolution.xml.internal.stream.</text>
<text text-anchor="middle" x="570" y="-364.5" font-family="Helvetica,sans-Serif" font-size="10.00">NamespacesImpl.setPrefix</text>
</a>
</g>
</g>
<!-- Node19&#45;&gt;Node23 -->
<g id="edge33" class="edge">
<title>Node19&#45;&gt;Node23</title>
<path fill="none" stroke="midnightblue" d="M417.57,-372.5C436.8,-372.5 456.75,-372.5 475.62,-372.5"/>
<polygon fill="midnightblue" stroke="midnightblue" points="475.67,-376 485.67,-372.5 475.67,-369 475.67,-376"/>
</g>
<!-- Node21&#45;&gt;Node11 -->
<g id="edge29" class="edge">
<title>Node21&#45;&gt;Node11</title>
<path fill="none" stroke="midnightblue" d="M657.8,-413.36C754.54,-406.17 903.16,-401.37 947,-434.5 988.71,-466.03 944.12,-511.54 983,-546.5 984.72,-548.04 986.52,-549.47 988.41,-550.8"/>
<polygon fill="midnightblue" stroke="midnightblue" points="986.72,-553.86 997.1,-555.96 990.29,-547.84 986.72,-553.86"/>
</g>
<!-- Node22 -->
<g id="node22" class="node">
<title>Node22</title>
<g id="a_node22"><a xlink:href="../../d0/d36/classjavolution_1_1text_1_1CharArray.html#a70f38efb80cc4be2cf4c77d2aa38f279" target="_top" xlink:title=" ">
<polygon fill="white" stroke="black" points="747.5,-444 747.5,-463 920.5,-463 920.5,-444 747.5,-444"/>
<text text-anchor="middle" x="834" y="-451" font-family="Helvetica,sans-Serif" font-size="10.00">javolution.text.CharArray.charAt</text>
</a>
</g>
</g>
<!-- Node21&#45;&gt;Node22 -->
<g id="edge28" class="edge">
<title>Node21&#45;&gt;Node22</title>
<path fill="none" stroke="midnightblue" d="M657.51,-432.07C685.52,-435.49 716.61,-439.28 744.75,-442.72"/>
<polygon fill="midnightblue" stroke="midnightblue" points="744.62,-446.23 754.97,-443.97 745.47,-439.28 744.62,-446.23"/>
</g>
<!-- Node23&#45;&gt;Node11 -->
<g id="edge34" class="edge">
<title>Node23&#45;&gt;Node11</title>
<path fill="none" stroke="midnightblue" d="M646.23,-357.46C670.04,-353.38 696.53,-349.53 721,-347.5 821.1,-339.22 869.91,-283.11 947,-347.5 1015.98,-405.12 920.27,-482.13 983,-546.5 984.25,-547.78 985.55,-548.98 986.91,-550.11"/>
<polygon fill="midnightblue" stroke="midnightblue" points="985.03,-553.07 995.25,-555.86 989,-547.3 985.03,-553.07"/>
</g>
<!-- Node24 -->
<g id="node24" class="node">
<title>Node24</title>
<g id="a_node24"><a xlink:href="../../dc/daa/classjavolution_1_1xml_1_1internal_1_1stream_1_1NamespacesImpl.html#ad1e699fb6fe13f5d6a355f8a8eff25e8" target="_top" xlink:title=" ">
<polygon fill="white" stroke="black" points="740,-356.5 740,-386.5 928,-386.5 928,-356.5 740,-356.5"/>
<text text-anchor="start" x="748" y="-374.5" font-family="Helvetica,sans-Serif" font-size="10.00">javolution.xml.internal.stream.</text>
<text text-anchor="middle" x="834" y="-363.5" font-family="Helvetica,sans-Serif" font-size="10.00">NamespacesImpl.resizePrefixStack</text>
</a>
</g>
</g>
<!-- Node23&#45;&gt;Node24 -->
<g id="edge35" class="edge">
<title>Node23&#45;&gt;Node24</title>
<path fill="none" stroke="midnightblue" d="M654.26,-372.18C678.23,-372.09 704.67,-371.99 729.69,-371.89"/>
<polygon fill="midnightblue" stroke="midnightblue" points="729.96,-375.39 739.94,-371.86 729.93,-368.39 729.96,-375.39"/>
</g>
<!-- Node24&#45;&gt;Node11 -->
<g id="edge36" class="edge">
<title>Node24&#45;&gt;Node11</title>
<path fill="none" stroke="midnightblue" d="M926.26,-386.56C933.92,-390.49 941.01,-395.4 947,-401.5 993.52,-448.88 935.15,-500.46 983,-546.5 984.33,-547.78 985.71,-548.98 987.16,-550.1"/>
<polygon fill="midnightblue" stroke="midnightblue" points="985.66,-553.31 995.95,-555.82 989.47,-547.43 985.66,-553.31"/>
</g>
<!-- Node26 -->
<g id="node26" class="node">
<title>Node26</title>
<g id="a_node26"><a xlink:href="../../d0/d36/classjavolution_1_1text_1_1CharArray.html#a63cd0fbe95d0342063ea7091dce0fa9c" target="_top" xlink:title=" ">
<polygon fill="white" stroke="black" points="483.5,-104 483.5,-123 656.5,-123 656.5,-104 483.5,-104"/>
<text text-anchor="middle" x="570" y="-111" font-family="Helvetica,sans-Serif" font-size="10.00">javolution.text.CharArray.equals</text>
</a>
</g>
</g>
<!-- Node25&#45;&gt;Node26 -->
<g id="edge38" class="edge">
<title>Node25&#45;&gt;Node26</title>
<path fill="none" stroke="midnightblue" d="M413.51,-113.5C433.21,-113.5 453.8,-113.5 473.32,-113.5"/>
<polygon fill="midnightblue" stroke="midnightblue" points="473.42,-117 483.42,-113.5 473.42,-110 473.42,-117"/>
</g>
<!-- Node27&#45;&gt;Node11 -->
<g id="edge43" class="edge">
<title>Node27&#45;&gt;Node11</title>
<path fill="none" stroke="midnightblue" d="M654.06,-744.43C756.73,-725.42 921.14,-693.65 947,-680.5 995.22,-655.98 1039.15,-608.43 1060.64,-582.82"/>
<polygon fill="midnightblue" stroke="midnightblue" points="1063.39,-584.99 1067.04,-575.05 1057.98,-580.54 1063.39,-584.99"/>
</g>
<!-- Node28 -->
<g id="node28" class="node">
<title>Node28</title>
<g id="a_node28"><a xlink:href="../../d0/d65/classjavolution_1_1xml_1_1internal_1_1stream_1_1XMLStreamReaderImpl.html#a71fce69dd0a88aea44b4e7624a6af875" target="_top" xlink:title=" ">
<polygon fill="white" stroke="black" points="734,-741.5 734,-771.5 934,-771.5 934,-741.5 734,-741.5"/>
<text text-anchor="start" x="742" y="-759.5" font-family="Helvetica,sans-Serif" font-size="10.00">javolution.xml.internal.stream.</text>
<text text-anchor="middle" x="834" y="-748.5" font-family="Helvetica,sans-Serif" font-size="10.00">XMLStreamReaderImpl.increaseStack</text>
</a>
</g>
</g>
<!-- Node27&#45;&gt;Node28 -->
<g id="edge40" class="edge">
<title>Node27&#45;&gt;Node28</title>
<path fill="none" stroke="midnightblue" d="M674.55,-758.31C690.66,-758.13 707.35,-757.94 723.58,-757.75"/>
<polygon fill="midnightblue" stroke="midnightblue" points="723.66,-761.25 733.62,-757.64 723.58,-754.25 723.66,-761.25"/>
</g>
<!-- Node28&#45;&gt;Node5 -->
<g id="edge41" class="edge">
<title>Node28&#45;&gt;Node5</title>
<path fill="none" stroke="midnightblue" d="M934.14,-766.43C946.84,-767.71 959.85,-769.01 972.58,-770.29"/>
<polygon fill="midnightblue" stroke="midnightblue" points="972.43,-773.79 982.73,-771.3 973.13,-766.82 972.43,-773.79"/>
</g>
<!-- Node28&#45;&gt;Node11 -->
<g id="edge42" class="edge">
<title>Node28&#45;&gt;Node11</title>
<path fill="none" stroke="midnightblue" d="M909.54,-741.44C922.66,-736.9 935.71,-731.05 947,-723.5 1002.51,-686.4 1045.67,-617.71 1064.37,-584.48"/>
<polygon fill="midnightblue" stroke="midnightblue" points="1067.63,-585.83 1069.38,-575.38 1061.49,-582.46 1067.63,-585.83"/>
</g>
<!-- Node30 -->
<g id="node30" class="node">
<title>Node30</title>
<g id="a_node30"><a xlink:href="../../dc/daa/classjavolution_1_1xml_1_1internal_1_1stream_1_1NamespacesImpl.html#a8607aa95dd6c628095acf01e25a7698a" target="_top" xlink:title=" ">
<polygon fill="white" stroke="black" points="457.5,-49.5 457.5,-79.5 682.5,-79.5 682.5,-49.5 457.5,-49.5"/>
<text text-anchor="start" x="465.5" y="-67.5" font-family="Helvetica,sans-Serif" font-size="10.00">javolution.xml.internal.stream.</text>
<text text-anchor="middle" x="570" y="-56.5" font-family="Helvetica,sans-Serif" font-size="10.00">NamespacesImpl.resizeNamespacesCount</text>
</a>
</g>
</g>
<!-- Node29&#45;&gt;Node30 -->
<g id="edge45" class="edge">
<title>Node29&#45;&gt;Node30</title>
<path fill="none" stroke="midnightblue" d="M395.78,-64.5C412.16,-64.5 429.67,-64.5 447.03,-64.5"/>
<polygon fill="midnightblue" stroke="midnightblue" points="447.22,-68 457.22,-64.5 447.22,-61 447.22,-68"/>
</g>
<!-- Node31&#45;&gt;Node3 -->
<g id="edge50" class="edge">
<title>Node31&#45;&gt;Node3</title>
<path fill="none" stroke="midnightblue" d="M399.06,-818.59C406.05,-821.36 412.8,-824.63 419,-828.5 440.44,-841.87 433.41,-859.37 455,-872.5 458.03,-874.34 461.18,-876.04 464.42,-877.62"/>
<polygon fill="midnightblue" stroke="midnightblue" points="463.19,-880.9 473.75,-881.72 466.01,-874.49 463.19,-880.9"/>
</g>
<!-- Node31&#45;&gt;Node4 -->
<g id="edge49" class="edge">
<title>Node31&#45;&gt;Node4</title>
<path fill="none" stroke="midnightblue" d="M410.1,-803.88C495.21,-804.2 619.08,-804.68 710.77,-805.03"/>
<polygon fill="midnightblue" stroke="midnightblue" points="710.93,-808.53 720.95,-805.07 710.96,-801.53 710.93,-808.53"/>
</g>
<!-- Node32 -->
<g id="node32" class="node">
<title>Node32</title>
<g id="a_node32"><a xlink:href="../../d1/d5a/classjavolution_1_1xml_1_1internal_1_1stream_1_1EntitiesImpl.html#aa4d2b7eb5c37bcef9d7ab5251445a6cf" target="_top" xlink:title=" ">
<polygon fill="white" stroke="black" points="486,-832.5 486,-862.5 654,-862.5 654,-832.5 486,-832.5"/>
<text text-anchor="start" x="494" y="-850.5" font-family="Helvetica,sans-Serif" font-size="10.00">javolution.xml.internal.stream.</text>
<text text-anchor="middle" x="570" y="-839.5" font-family="Helvetica,sans-Serif" font-size="10.00">EntitiesImpl.getMaxLength</text>
</a>
</g>
</g>
<!-- Node31&#45;&gt;Node32 -->
<g id="edge48" class="edge">
<title>Node31&#45;&gt;Node32</title>
<path fill="none" stroke="midnightblue" d="M400.06,-818.52C424.42,-822.7 450.97,-827.25 475.65,-831.49"/>
<polygon fill="midnightblue" stroke="midnightblue" points="475.29,-834.98 485.73,-833.22 476.47,-828.08 475.29,-834.98"/>
</g>
<!-- Node33 -->
<g id="node33" class="node">
<title>Node33</title>
<g id="a_node33"><a xlink:href="../../d1/d5a/classjavolution_1_1xml_1_1internal_1_1stream_1_1EntitiesImpl.html#a05aaa0497e353144f06d5f33bb24f4a6" target="_top" xlink:title=" ">
<polygon fill="white" stroke="black" points="486,-695.5 486,-725.5 654,-725.5 654,-695.5 486,-695.5"/>
<text text-anchor="start" x="494" y="-713.5" font-family="Helvetica,sans-Serif" font-size="10.00">javolution.xml.internal.stream.</text>
<text text-anchor="middle" x="570" y="-702.5" font-family="Helvetica,sans-Serif" font-size="10.00">EntitiesImpl.replaceEntity</text>
</a>
</g>
</g>
<!-- Node31&#45;&gt;Node33 -->
<g id="edge51" class="edge">
<title>Node31&#45;&gt;Node33</title>
<path fill="none" stroke="midnightblue" d="M339.3,-788.42C367.37,-773.17 413.13,-749.87 455,-735.5 462.85,-732.81 471.11,-730.33 479.44,-728.08"/>
<polygon fill="midnightblue" stroke="midnightblue" points="480.44,-731.44 489.24,-725.54 478.68,-724.66 480.44,-731.44"/>
</g>
<!-- Node33&#45;&gt;Node14 -->
<g id="edge52" class="edge">
<title>Node33&#45;&gt;Node14</title>
<path fill="none" stroke="midnightblue" d="M595.18,-695.37C642.36,-665.83 746.75,-600.49 800.15,-567.07"/>
<polygon fill="midnightblue" stroke="midnightblue" points="802.26,-569.87 808.88,-561.6 798.55,-563.94 802.26,-569.87"/>
</g>
</g>
</svg>
