<?xml version="1.0" encoding="UTF-8" standalone="no"?>
<!DOCTYPE svg PUBLIC "-//W3C//DTD SVG 1.1//EN"
 "http://www.w3.org/Graphics/SVG/1.1/DTD/svg11.dtd">
<!-- Generated by graphviz version 2.43.0 (0)
 -->
<!-- Title: javolution.xml.internal.stream.XMLStreamReaderImpl.reloadBuffer Pages: 1 -->
<svg width="1112pt" height="103pt"
 viewBox="0.00 0.00 1112.00 102.50" xmlns="http://www.w3.org/2000/svg" xmlns:xlink="http://www.w3.org/1999/xlink">
<g id="graph0" class="graph" transform="scale(1 1) rotate(0) translate(4 98.5)">
<title>javolution.xml.internal.stream.XMLStreamReaderImpl.reloadBuffer</title>
<polygon fill="white" stroke="transparent" points="-4,4 -4,-98.5 1108,-98.5 1108,4 -4,4"/>
<!-- Node1 -->
<g id="node1" class="node">
<title>Node1</title>
<g id="a_node1"><a xlink:title=" ">
<polygon fill="#bfbfbf" stroke="black" points="0,-17 0,-47 192,-47 192,-17 0,-17"/>
<text text-anchor="start" x="8" y="-35" font-family="Helvetica,sans-Serif" font-size="10.00">javolution.xml.internal.stream.</text>
<text text-anchor="middle" x="96" y="-24" font-family="Helvetica,sans-Serif" font-size="10.00">XMLStreamReaderImpl.reloadBuffer</text>
</a>
</g>
</g>
<!-- Node2 -->
<g id="node2" class="node">
<title>Node2</title>
<g id="a_node2"><a xlink:href="../../d0/d65/classjavolution_1_1xml_1_1internal_1_1stream_1_1XMLStreamReaderImpl.html#a87bff0503f315316c965b67063423578" target="_top" xlink:title=" ">
<polygon fill="white" stroke="black" points="228,-17 228,-47 454,-47 454,-17 228,-17"/>
<text text-anchor="start" x="236" y="-35" font-family="Helvetica,sans-Serif" font-size="10.00">javolution.xml.internal.stream.</text>
<text text-anchor="middle" x="341" y="-24" font-family="Helvetica,sans-Serif" font-size="10.00">XMLStreamReaderImpl.increaseDataBuffer</text>
</a>
</g>
</g>
<!-- Node1&#45;&gt;Node2 -->
<g id="edge1" class="edge">
<title>Node1&#45;&gt;Node2</title>
<path fill="none" stroke="midnightblue" d="M192.34,-32C200.57,-32 208.96,-32 217.36,-32"/>
<polygon fill="midnightblue" stroke="midnightblue" points="217.6,-35.5 227.6,-32 217.6,-28.5 217.6,-35.5"/>
</g>
<!-- Node3 -->
<g id="node3" class="node">
<title>Node3</title>
<g id="a_node3"><a xlink:href="../../db/de8/classjavolution_1_1context_1_1LogContext.html#a233e69dc7bac5ecabb9905c49bb9503f" target="_top" xlink:title=" ">
<polygon fill="white" stroke="black" points="490,-22.5 490,-41.5 675,-41.5 675,-22.5 490,-22.5"/>
<text text-anchor="middle" x="582.5" y="-29.5" font-family="Helvetica,sans-Serif" font-size="10.00">javolution.context.LogContext.info</text>
</a>
</g>
</g>
<!-- Node2&#45;&gt;Node3 -->
<g id="edge2" class="edge">
<title>Node2&#45;&gt;Node3</title>
<path fill="none" stroke="midnightblue" d="M454.04,-32C462.52,-32 471.05,-32 479.47,-32"/>
<polygon fill="midnightblue" stroke="midnightblue" points="479.66,-35.5 489.66,-32 479.66,-28.5 479.66,-35.5"/>
</g>
<!-- Node4 -->
<g id="node4" class="node">
<title>Node4</title>
<g id="a_node4"><a xlink:href="../../db/de8/classjavolution_1_1context_1_1LogContext.html#a3ad63f63b01950647a13c980c14c111a" target="_top" xlink:title=" ">
<polygon fill="white" stroke="black" points="711,-39 711,-69 912,-69 912,-39 711,-39"/>
<text text-anchor="start" x="719" y="-57" font-family="Helvetica,sans-Serif" font-size="10.00">javolution.context.LogContext.current</text>
<text text-anchor="middle" x="811.5" y="-46" font-family="Helvetica,sans-Serif" font-size="10.00">LogContext</text>
</a>
</g>
</g>
<!-- Node3&#45;&gt;Node4 -->
<g id="edge3" class="edge">
<title>Node3&#45;&gt;Node4</title>
<path fill="none" stroke="midnightblue" d="M675.18,-40.88C683.58,-41.7 692.14,-42.53 700.68,-43.36"/>
<polygon fill="midnightblue" stroke="midnightblue" points="700.39,-46.85 710.69,-44.33 701.07,-39.88 700.39,-46.85"/>
</g>
<!-- Node7 -->
<g id="node7" class="node">
<title>Node7</title>
<g id="a_node7"><a xlink:href="../../db/de8/classjavolution_1_1context_1_1LogContext.html#a1f213be4946618a105225786df8210b1" target="_top" xlink:title=" ">
<polygon fill="white" stroke="black" points="720.5,-0.5 720.5,-19.5 902.5,-19.5 902.5,-0.5 720.5,-0.5"/>
<text text-anchor="middle" x="811.5" y="-7.5" font-family="Helvetica,sans-Serif" font-size="10.00">javolution.context.LogContext.log</text>
</a>
</g>
</g>
<!-- Node3&#45;&gt;Node7 -->
<g id="edge6" class="edge">
<title>Node3&#45;&gt;Node7</title>
<path fill="none" stroke="midnightblue" d="M675.18,-23.12C686.69,-22 698.52,-20.85 710.16,-19.72"/>
<polygon fill="midnightblue" stroke="midnightblue" points="710.71,-23.19 720.33,-18.74 710.04,-16.22 710.71,-23.19"/>
</g>
<!-- Node5 -->
<g id="node5" class="node">
<title>Node5</title>
<g id="a_node5"><a xlink:href="../../d3/d0f/classjavolution_1_1context_1_1AbstractContext.html#a39804b0188cf822819d88f43715deaba" target="_top" xlink:title=" ">
<polygon fill="white" stroke="black" points="951.5,-64 951.5,-94 1100.5,-94 1100.5,-64 951.5,-64"/>
<text text-anchor="start" x="959.5" y="-82" font-family="Helvetica,sans-Serif" font-size="10.00">javolution.context.Abstract</text>
<text text-anchor="middle" x="1026" y="-71" font-family="Helvetica,sans-Serif" font-size="10.00">Context.current</text>
</a>
</g>
</g>
<!-- Node4&#45;&gt;Node5 -->
<g id="edge4" class="edge">
<title>Node4&#45;&gt;Node5</title>
<path fill="none" stroke="midnightblue" d="M912.22,-65.73C921.88,-66.87 931.61,-68.01 941.1,-69.13"/>
<polygon fill="midnightblue" stroke="midnightblue" points="940.93,-72.63 951.28,-70.33 941.75,-65.68 940.93,-72.63"/>
</g>
<!-- Node6 -->
<g id="node6" class="node">
<title>Node6</title>
<g id="a_node6"><a xlink:href="../../d8/d20/classjavolution_1_1osgi_1_1internal_1_1OSGiServices.html#a2a13065b92db2d08ab44d0005a3421a4" target="_top" xlink:title=" ">
<polygon fill="white" stroke="black" points="948,-15 948,-45 1104,-45 1104,-15 948,-15"/>
<text text-anchor="start" x="956" y="-33" font-family="Helvetica,sans-Serif" font-size="10.00">javolution.osgi.internal.</text>
<text text-anchor="middle" x="1026" y="-22" font-family="Helvetica,sans-Serif" font-size="10.00">OSGiServices.getLogContext</text>
</a>
</g>
</g>
<!-- Node4&#45;&gt;Node6 -->
<g id="edge5" class="edge">
<title>Node4&#45;&gt;Node6</title>
<path fill="none" stroke="midnightblue" d="M912.22,-42.74C920.73,-41.78 929.29,-40.81 937.69,-39.86"/>
<polygon fill="midnightblue" stroke="midnightblue" points="938.3,-43.31 947.85,-38.71 937.52,-36.36 938.3,-43.31"/>
</g>
</g>
</svg>
