<?xml version="1.0" encoding="UTF-8" standalone="no"?>
<!DOCTYPE svg PUBLIC "-//W3C//DTD SVG 1.1//EN"
 "http://www.w3.org/Graphics/SVG/1.1/DTD/svg11.dtd">
<!-- Generated by graphviz version 2.43.0 (0)
 -->
<!-- Title: javolution.xml.internal.stream.XMLStreamReaderImpl.getProperty Pages: 1 -->
<svg width="406pt" height="39pt"
 viewBox="0.00 0.00 406.00 39.00" xmlns="http://www.w3.org/2000/svg" xmlns:xlink="http://www.w3.org/1999/xlink">
<g id="graph0" class="graph" transform="scale(1 1) rotate(0) translate(4 35)">
<title>javolution.xml.internal.stream.XMLStreamReaderImpl.getProperty</title>
<polygon fill="white" stroke="transparent" points="-4,4 -4,-35 402,-35 402,4 -4,4"/>
<!-- Node1 -->
<g id="node1" class="node">
<title>Node1</title>
<g id="a_node1"><a xlink:title=" ">
<polygon fill="#bfbfbf" stroke="black" points="0,-0.5 0,-30.5 189,-30.5 189,-0.5 0,-0.5"/>
<text text-anchor="start" x="8" y="-18.5" font-family="Helvetica,sans-Serif" font-size="10.00">javolution.xml.internal.stream.</text>
<text text-anchor="middle" x="94.5" y="-7.5" font-family="Helvetica,sans-Serif" font-size="10.00">XMLStreamReaderImpl.getProperty</text>
</a>
</g>
</g>
<!-- Node2 -->
<g id="node2" class="node">
<title>Node2</title>
<g id="a_node2"><a xlink:href="../../d1/d5a/classjavolution_1_1xml_1_1internal_1_1stream_1_1EntitiesImpl.html#afdb4ec0a2cc4ceb4ce7fed150d0a3b67" target="_top" xlink:title=" ">
<polygon fill="white" stroke="black" points="225,-0.5 225,-30.5 398,-30.5 398,-0.5 225,-0.5"/>
<text text-anchor="start" x="233" y="-18.5" font-family="Helvetica,sans-Serif" font-size="10.00">javolution.xml.internal.stream.</text>
<text text-anchor="middle" x="311.5" y="-7.5" font-family="Helvetica,sans-Serif" font-size="10.00">EntitiesImpl.getEntitiesMapping</text>
</a>
</g>
</g>
<!-- Node1&#45;&gt;Node2 -->
<g id="edge1" class="edge">
<title>Node1&#45;&gt;Node2</title>
<path fill="none" stroke="midnightblue" d="M189.18,-15.5C197.62,-15.5 206.19,-15.5 214.65,-15.5"/>
<polygon fill="midnightblue" stroke="midnightblue" points="214.92,-19 224.92,-15.5 214.92,-12 214.92,-19"/>
</g>
</g>
</svg>
