<?xml version="1.0" encoding="UTF-8" standalone="no"?>
<!DOCTYPE svg PUBLIC "-//W3C//DTD SVG 1.1//EN"
 "http://www.w3.org/Graphics/SVG/1.1/DTD/svg11.dtd">
<!-- Generated by graphviz version 2.43.0 (0)
 -->
<!-- Title: javolution.xml.internal.stream.XMLStreamReaderImpl.getAttributeLocalName Pages: 1 -->
<svg width="477pt" height="88pt"
 viewBox="0.00 0.00 477.00 88.00" xmlns="http://www.w3.org/2000/svg" xmlns:xlink="http://www.w3.org/1999/xlink">
<g id="graph0" class="graph" transform="scale(1 1) rotate(0) translate(4 84)">
<title>javolution.xml.internal.stream.XMLStreamReaderImpl.getAttributeLocalName</title>
<polygon fill="white" stroke="transparent" points="-4,4 -4,-84 473,-84 473,4 -4,4"/>
<!-- Node1 -->
<g id="node1" class="node">
<title>Node1</title>
<g id="a_node1"><a xlink:title=" ">
<polygon fill="#bfbfbf" stroke="black" points="0,-24.5 0,-54.5 245,-54.5 245,-24.5 0,-24.5"/>
<text text-anchor="start" x="8" y="-42.5" font-family="Helvetica,sans-Serif" font-size="10.00">javolution.xml.internal.stream.</text>
<text text-anchor="middle" x="122.5" y="-31.5" font-family="Helvetica,sans-Serif" font-size="10.00">XMLStreamReaderImpl.getAttributeLocalName</text>
</a>
</g>
</g>
<!-- Node2 -->
<g id="node2" class="node">
<title>Node2</title>
<g id="a_node2"><a xlink:href="../../de/d89/classjavolution_1_1xml_1_1internal_1_1stream_1_1AttributesImpl.html#a046a1ebe6f2a3f37b843cc889f99909d" target="_top" xlink:title=" ">
<polygon fill="white" stroke="black" points="291,-49.5 291,-79.5 459,-79.5 459,-49.5 291,-49.5"/>
<text text-anchor="start" x="299" y="-67.5" font-family="Helvetica,sans-Serif" font-size="10.00">javolution.xml.internal.stream.</text>
<text text-anchor="middle" x="375" y="-56.5" font-family="Helvetica,sans-Serif" font-size="10.00">AttributesImpl.getLocalName</text>
</a>
</g>
</g>
<!-- Node1&#45;&gt;Node2 -->
<g id="edge1" class="edge">
<title>Node1&#45;&gt;Node2</title>
<path fill="none" stroke="midnightblue" d="M245.08,-51.63C257.04,-52.83 269.04,-54.02 280.64,-55.18"/>
<polygon fill="midnightblue" stroke="midnightblue" points="280.44,-58.68 290.73,-56.19 281.13,-51.71 280.44,-58.68"/>
</g>
<!-- Node3 -->
<g id="node3" class="node">
<title>Node3</title>
<g id="a_node3"><a xlink:href="../../d0/d65/classjavolution_1_1xml_1_1internal_1_1stream_1_1XMLStreamReaderImpl.html#a7ec904380dc9205eec886c5136dc97f9" target="_top" xlink:title=" ">
<polygon fill="white" stroke="black" points="281,-0.5 281,-30.5 469,-30.5 469,-0.5 281,-0.5"/>
<text text-anchor="start" x="289" y="-18.5" font-family="Helvetica,sans-Serif" font-size="10.00">javolution.xml.internal.stream.</text>
<text text-anchor="middle" x="375" y="-7.5" font-family="Helvetica,sans-Serif" font-size="10.00">XMLStreamReaderImpl.illegalState</text>
</a>
</g>
</g>
<!-- Node1&#45;&gt;Node3 -->
<g id="edge2" class="edge">
<title>Node1&#45;&gt;Node3</title>
<path fill="none" stroke="midnightblue" d="M245.08,-27.85C253.59,-27.04 262.12,-26.22 270.51,-25.41"/>
<polygon fill="midnightblue" stroke="midnightblue" points="271.06,-28.88 280.68,-24.44 270.39,-21.91 271.06,-28.88"/>
</g>
</g>
</svg>
