<?xml version="1.0" encoding="UTF-8" standalone="no"?>
<!DOCTYPE svg PUBLIC "-//W3C//DTD SVG 1.1//EN"
 "http://www.w3.org/Graphics/SVG/1.1/DTD/svg11.dtd">
<!-- Generated by graphviz version 2.43.0 (0)
 -->
<!-- Title: javolution.xml.internal.stream.XMLStreamReaderImpl.isEndOfStream Pages: 1 -->
<!--zoomable 222 -->
<svg id="main" version="1.1" xmlns="http://www.w3.org/2000/svg" xmlns:xlink="http://www.w3.org/1999/xlink" xml:space="preserve" onload="init(evt)">
<style type="text/css"><![CDATA[
.edge:hover path { stroke: red; }
.edge:hover polygon { stroke: red; fill: red; }
]]></style>
<script type="text/javascript"><![CDATA[
var edges = document.getElementsByTagName('g');
if (edges && edges.length) {
  for (var i=0;i<edges.length;i++) {
    if (edges[i].id.substr(0,4)=='edge') {
      edges[i].setAttribute('class','edge');
    }
  }
}
]]></script>
        <defs>
                <circle id="rim" cx="0" cy="0" r="7"/>
                <circle id="rim2" cx="0" cy="0" r="3.5"/>
                <g id="zoomPlus">
                        <use xlink:href="#rim" fill="#404040">
                                <set attributeName="fill" to="#808080" begin="zoomplus.mouseover" end="zoomplus.mouseout"/>
                        </use>
                        <path d="M-4,0h8M0,-4v8" fill="none" stroke="white" stroke-width="1.5" pointer-events="none"/>
                </g>
                <g id="zoomMin">
                        <use xlink:href="#rim" fill="#404040">
                                <set attributeName="fill" to="#808080" begin="zoomminus.mouseover" end="zoomminus.mouseout"/>
                        </use>
                        <path d="M-4,0h8" fill="none" stroke="white" stroke-width="1.5" pointer-events="none"/>
                </g>
                <g id="dirArrow">
                        <path fill="none" stroke="white" stroke-width="1.5" d="M0,-3.0v7 M-2.5,-0.5L0,-3.0L2.5,-0.5"/>
                </g>
               <g id="resetDef">
                       <use xlink:href="#rim2" fill="#404040">
                               <set attributeName="fill" to="#808080" begin="reset.mouseover" end="reset.mouseout"/>
                       </use>
               </g>
        </defs>

<script type="text/javascript">
var viewWidth = 1353;
var viewHeight = 222;
var sectionId = 'dynsection-58';
</script>
<script xlink:href="../../svgpan.js"/>
<svg id="graph" class="graph">
<g id="viewport">
<title>javolution.xml.internal.stream.XMLStreamReaderImpl.isEndOfStream</title>
<polygon fill="white" stroke="transparent" points="-4,4 -4,-218.34 1349,-218.34 1349,4 -4,4"/>
<!-- Node1 -->
<g id="node1" class="node">
<title>Node1</title>
<g id="a_node1"><a xlink:title=" ">
<polygon fill="#bfbfbf" stroke="black" points="0,-102 0,-132 205,-132 205,-102 0,-102"/>
<text text-anchor="start" x="8" y="-120" font-family="Helvetica,sans-Serif" font-size="10.00">javolution.xml.internal.stream.</text>
<text text-anchor="middle" x="102.5" y="-109" font-family="Helvetica,sans-Serif" font-size="10.00">XMLStreamReaderImpl.isEndOfStream</text>
</a>
</g>
</g>
<!-- Node2 -->
<g id="node2" class="node">
<title>Node2</title>
<g id="a_node2"><a xlink:href="../../d0/d36/classjavolution_1_1text_1_1CharArray.html#a1206e2076e25f1e66e1458328aa22baa" target="_top" xlink:title=" ">
<polygon fill="white" stroke="black" points="737.5,-175.5 737.5,-194.5 909.5,-194.5 909.5,-175.5 737.5,-175.5"/>
<text text-anchor="middle" x="823.5" y="-182.5" font-family="Helvetica,sans-Serif" font-size="10.00">javolution.text.CharArray.length</text>
</a>
</g>
</g>
<!-- Node1&#45;&gt;Node2 -->
<g id="edge1" class="edge">
<title>Node1&#45;&gt;Node2</title>
<path fill="none" stroke="midnightblue" d="M126.13,-132.22C152.44,-148.96 197.78,-174.96 241,-186 421.7,-232.16 644.41,-211.18 754.41,-195.92"/>
<polygon fill="midnightblue" stroke="midnightblue" points="754.96,-199.38 764.37,-194.51 753.98,-192.45 754.96,-199.38"/>
</g>
<!-- Node3 -->
<g id="node3" class="node">
<title>Node3</title>
<g id="a_node3"><a xlink:href="../../d0/d65/classjavolution_1_1xml_1_1internal_1_1stream_1_1XMLStreamReaderImpl.html#a81c3892a30b16f53265572c589d012ad" target="_top" xlink:title=" ">
<polygon fill="white" stroke="black" points="252,-146 252,-176 422,-176 422,-146 252,-146"/>
<text text-anchor="start" x="260" y="-164" font-family="Helvetica,sans-Serif" font-size="10.00">javolution.xml.internal.stream.</text>
<text text-anchor="middle" x="337" y="-153" font-family="Helvetica,sans-Serif" font-size="10.00">XMLStreamReaderImpl.newSeq</text>
</a>
</g>
</g>
<!-- Node1&#45;&gt;Node3 -->
<g id="edge2" class="edge">
<title>Node1&#45;&gt;Node3</title>
<path fill="none" stroke="midnightblue" d="M182.86,-132.02C203.42,-135.91 225.69,-140.12 246.72,-144.1"/>
<polygon fill="midnightblue" stroke="midnightblue" points="246.12,-147.55 256.6,-145.97 247.43,-140.68 246.12,-147.55"/>
</g>
<!-- Node5 -->
<g id="node5" class="node">
<title>Node5</title>
<g id="a_node5"><a xlink:href="../../d0/d36/classjavolution_1_1text_1_1CharArray.html#a4dba39b3010d6baa467b8ec3fdc561c4" target="_top" xlink:title=" ">
<polygon fill="white" stroke="black" points="504,-105 504,-135 660,-135 660,-105 504,-105"/>
<text text-anchor="start" x="512" y="-123" font-family="Helvetica,sans-Serif" font-size="10.00">javolution.text.CharArray.set</text>
<text text-anchor="middle" x="582" y="-112" font-family="Helvetica,sans-Serif" font-size="10.00">Array</text>
</a>
</g>
</g>
<!-- Node1&#45;&gt;Node5 -->
<g id="edge16" class="edge">
<title>Node1&#45;&gt;Node5</title>
<path fill="none" stroke="midnightblue" d="M205.06,-117.64C290.8,-118.18 412.27,-118.94 493.7,-119.45"/>
<polygon fill="midnightblue" stroke="midnightblue" points="493.9,-122.95 503.92,-119.52 493.94,-115.95 493.9,-122.95"/>
</g>
<!-- Node7 -->
<g id="node7" class="node">
<title>Node7</title>
<g id="a_node7"><a xlink:href="../../d0/d36/classjavolution_1_1text_1_1CharArray.html#ad3531ca73d67202979d1b5586eab2521" target="_top" xlink:title=" ">
<polygon fill="white" stroke="black" points="739,-69.5 739,-88.5 908,-88.5 908,-69.5 739,-69.5"/>
<text text-anchor="middle" x="823.5" y="-76.5" font-family="Helvetica,sans-Serif" font-size="10.00">javolution.text.CharArray.offset</text>
</a>
</g>
</g>
<!-- Node1&#45;&gt;Node7 -->
<g id="edge8" class="edge">
<title>Node1&#45;&gt;Node7</title>
<path fill="none" stroke="midnightblue" d="M205.11,-110.91C278.44,-106.57 379.82,-100.71 469,-96 557.01,-91.36 657.38,-86.58 728.63,-83.28"/>
<polygon fill="midnightblue" stroke="midnightblue" points="729.1,-86.76 738.92,-82.8 728.77,-79.77 729.1,-86.76"/>
</g>
<!-- Node8 -->
<g id="node8" class="node">
<title>Node8</title>
<g id="a_node8"><a xlink:href="../../d0/d65/classjavolution_1_1xml_1_1internal_1_1stream_1_1XMLStreamReaderImpl.html#accff128314df06b3be2be7b81bb66cb2" target="_top" xlink:title=" ">
<polygon fill="white" stroke="black" points="241,-17 241,-47 433,-47 433,-17 241,-17"/>
<text text-anchor="start" x="249" y="-35" font-family="Helvetica,sans-Serif" font-size="10.00">javolution.xml.internal.stream.</text>
<text text-anchor="middle" x="337" y="-24" font-family="Helvetica,sans-Serif" font-size="10.00">XMLStreamReaderImpl.reloadBuffer</text>
</a>
</g>
</g>
<!-- Node1&#45;&gt;Node8 -->
<g id="edge9" class="edge">
<title>Node1&#45;&gt;Node8</title>
<path fill="none" stroke="midnightblue" d="M139.12,-101.9C166.72,-90.41 206.01,-74.5 241,-62 252.32,-57.95 264.51,-53.89 276.24,-50.12"/>
<polygon fill="midnightblue" stroke="midnightblue" points="277.5,-53.4 285.97,-47.03 275.38,-46.72 277.5,-53.4"/>
</g>
<!-- Node4 -->
<g id="node4" class="node">
<title>Node4</title>
<g id="a_node4"><a xlink:href="../../d0/d65/classjavolution_1_1xml_1_1internal_1_1stream_1_1XMLStreamReaderImpl.html#a05200d081c5258b99e11444bde03030c" target="_top" xlink:title=" ">
<polygon fill="white" stroke="black" points="494,-154 494,-184 670,-184 670,-154 494,-154"/>
<text text-anchor="start" x="502" y="-172" font-family="Helvetica,sans-Serif" font-size="10.00">javolution.xml.internal.stream.</text>
<text text-anchor="middle" x="582" y="-161" font-family="Helvetica,sans-Serif" font-size="10.00">XMLStreamReaderImpl.newSeq2</text>
</a>
</g>
</g>
<!-- Node3&#45;&gt;Node4 -->
<g id="edge3" class="edge">
<title>Node3&#45;&gt;Node4</title>
<path fill="none" stroke="midnightblue" d="M422.31,-163.78C442.13,-164.43 463.4,-165.13 483.74,-165.8"/>
<polygon fill="midnightblue" stroke="midnightblue" points="483.84,-169.3 493.95,-166.13 484.07,-162.31 483.84,-169.3"/>
</g>
<!-- Node3&#45;&gt;Node5 -->
<g id="edge4" class="edge">
<title>Node3&#45;&gt;Node5</title>
<path fill="none" stroke="midnightblue" d="M422.31,-146.78C445.46,-142.87 470.6,-138.63 493.9,-134.7"/>
<polygon fill="midnightblue" stroke="midnightblue" points="494.49,-138.15 503.77,-133.03 493.32,-131.24 494.49,-138.15"/>
</g>
<!-- Node5&#45;&gt;Node2 -->
<g id="edge6" class="edge">
<title>Node5&#45;&gt;Node2</title>
<path fill="none" stroke="midnightblue" d="M654.62,-135.04C668.08,-138.14 682.01,-141.52 695,-145 725.47,-153.16 759.53,-163.94 784.78,-172.25"/>
<polygon fill="midnightblue" stroke="midnightblue" points="783.75,-175.59 794.34,-175.41 785.95,-168.95 783.75,-175.59"/>
</g>
<!-- Node6 -->
<g id="node6" class="node">
<title>Node6</title>
<g id="a_node6"><a xlink:href="../../d0/d36/classjavolution_1_1text_1_1CharArray.html#a1b743b96fd62cbec154a6ca6c5df9d03" target="_top" xlink:title=" ">
<polygon fill="white" stroke="black" points="740,-110.5 740,-129.5 907,-129.5 907,-110.5 740,-110.5"/>
<text text-anchor="middle" x="823.5" y="-117.5" font-family="Helvetica,sans-Serif" font-size="10.00">javolution.text.CharArray.array</text>
</a>
</g>
</g>
<!-- Node5&#45;&gt;Node6 -->
<g id="edge5" class="edge">
<title>Node5&#45;&gt;Node6</title>
<path fill="none" stroke="midnightblue" d="M660.1,-120C682.25,-120 706.65,-120 729.65,-120"/>
<polygon fill="midnightblue" stroke="midnightblue" points="729.76,-123.5 739.76,-120 729.76,-116.5 729.76,-123.5"/>
</g>
<!-- Node5&#45;&gt;Node7 -->
<g id="edge7" class="edge">
<title>Node5&#45;&gt;Node7</title>
<path fill="none" stroke="midnightblue" d="M660.1,-106.8C691.3,-101.46 726.95,-95.36 756.89,-90.23"/>
<polygon fill="midnightblue" stroke="midnightblue" points="757.54,-93.67 766.81,-88.53 756.36,-86.77 757.54,-93.67"/>
</g>
<!-- Node9 -->
<g id="node9" class="node">
<title>Node9</title>
<g id="a_node9"><a xlink:href="../../d0/d65/classjavolution_1_1xml_1_1internal_1_1stream_1_1XMLStreamReaderImpl.html#a87bff0503f315316c965b67063423578" target="_top" xlink:title=" ">
<polygon fill="white" stroke="black" points="469,-17 469,-47 695,-47 695,-17 469,-17"/>
<text text-anchor="start" x="477" y="-35" font-family="Helvetica,sans-Serif" font-size="10.00">javolution.xml.internal.stream.</text>
<text text-anchor="middle" x="582" y="-24" font-family="Helvetica,sans-Serif" font-size="10.00">XMLStreamReaderImpl.increaseDataBuffer</text>
</a>
</g>
</g>
<!-- Node8&#45;&gt;Node9 -->
<g id="edge10" class="edge">
<title>Node8&#45;&gt;Node9</title>
<path fill="none" stroke="midnightblue" d="M433.34,-32C441.57,-32 449.96,-32 458.36,-32"/>
<polygon fill="midnightblue" stroke="midnightblue" points="458.6,-35.5 468.6,-32 458.6,-28.5 458.6,-35.5"/>
</g>
<!-- Node10 -->
<g id="node10" class="node">
<title>Node10</title>
<g id="a_node10"><a xlink:href="../../db/de8/classjavolution_1_1context_1_1LogContext.html#a233e69dc7bac5ecabb9905c49bb9503f" target="_top" xlink:title=" ">
<polygon fill="white" stroke="black" points="731,-22.5 731,-41.5 916,-41.5 916,-22.5 731,-22.5"/>
<text text-anchor="middle" x="823.5" y="-29.5" font-family="Helvetica,sans-Serif" font-size="10.00">javolution.context.LogContext.info</text>
</a>
</g>
</g>
<!-- Node9&#45;&gt;Node10 -->
<g id="edge11" class="edge">
<title>Node9&#45;&gt;Node10</title>
<path fill="none" stroke="midnightblue" d="M695.04,-32C703.52,-32 712.05,-32 720.47,-32"/>
<polygon fill="midnightblue" stroke="midnightblue" points="720.66,-35.5 730.66,-32 720.66,-28.5 720.66,-35.5"/>
</g>
<!-- Node11 -->
<g id="node11" class="node">
<title>Node11</title>
<g id="a_node11"><a xlink:href="../../db/de8/classjavolution_1_1context_1_1LogContext.html#a3ad63f63b01950647a13c980c14c111a" target="_top" xlink:title=" ">
<polygon fill="white" stroke="black" points="952,-39 952,-69 1153,-69 1153,-39 952,-39"/>
<text text-anchor="start" x="960" y="-57" font-family="Helvetica,sans-Serif" font-size="10.00">javolution.context.LogContext.current</text>
<text text-anchor="middle" x="1052.5" y="-46" font-family="Helvetica,sans-Serif" font-size="10.00">LogContext</text>
</a>
</g>
</g>
<!-- Node10&#45;&gt;Node11 -->
<g id="edge12" class="edge">
<title>Node10&#45;&gt;Node11</title>
<path fill="none" stroke="midnightblue" d="M916.18,-40.88C924.58,-41.7 933.14,-42.53 941.68,-43.36"/>
<polygon fill="midnightblue" stroke="midnightblue" points="941.39,-46.85 951.69,-44.33 942.07,-39.88 941.39,-46.85"/>
</g>
<!-- Node14 -->
<g id="node14" class="node">
<title>Node14</title>
<g id="a_node14"><a xlink:href="../../db/de8/classjavolution_1_1context_1_1LogContext.html#a1f213be4946618a105225786df8210b1" target="_top" xlink:title=" ">
<polygon fill="white" stroke="black" points="961.5,-0.5 961.5,-19.5 1143.5,-19.5 1143.5,-0.5 961.5,-0.5"/>
<text text-anchor="middle" x="1052.5" y="-7.5" font-family="Helvetica,sans-Serif" font-size="10.00">javolution.context.LogContext.log</text>
</a>
</g>
</g>
<!-- Node10&#45;&gt;Node14 -->
<g id="edge15" class="edge">
<title>Node10&#45;&gt;Node14</title>
<path fill="none" stroke="midnightblue" d="M916.18,-23.12C927.69,-22 939.52,-20.85 951.16,-19.72"/>
<polygon fill="midnightblue" stroke="midnightblue" points="951.71,-23.19 961.33,-18.74 951.04,-16.22 951.71,-23.19"/>
</g>
<!-- Node12 -->
<g id="node12" class="node">
<title>Node12</title>
<g id="a_node12"><a xlink:href="../../d3/d0f/classjavolution_1_1context_1_1AbstractContext.html#a39804b0188cf822819d88f43715deaba" target="_top" xlink:title=" ">
<polygon fill="white" stroke="black" points="1192.5,-64 1192.5,-94 1341.5,-94 1341.5,-64 1192.5,-64"/>
<text text-anchor="start" x="1200.5" y="-82" font-family="Helvetica,sans-Serif" font-size="10.00">javolution.context.Abstract</text>
<text text-anchor="middle" x="1267" y="-71" font-family="Helvetica,sans-Serif" font-size="10.00">Context.current</text>
</a>
</g>
</g>
<!-- Node11&#45;&gt;Node12 -->
<g id="edge13" class="edge">
<title>Node11&#45;&gt;Node12</title>
<path fill="none" stroke="midnightblue" d="M1153.22,-65.73C1162.88,-66.87 1172.61,-68.01 1182.1,-69.13"/>
<polygon fill="midnightblue" stroke="midnightblue" points="1181.93,-72.63 1192.28,-70.33 1182.75,-65.68 1181.93,-72.63"/>
</g>
<!-- Node13 -->
<g id="node13" class="node">
<title>Node13</title>
<g id="a_node13"><a xlink:href="../../d8/d20/classjavolution_1_1osgi_1_1internal_1_1OSGiServices.html#a2a13065b92db2d08ab44d0005a3421a4" target="_top" xlink:title=" ">
<polygon fill="white" stroke="black" points="1189,-15 1189,-45 1345,-45 1345,-15 1189,-15"/>
<text text-anchor="start" x="1197" y="-33" font-family="Helvetica,sans-Serif" font-size="10.00">javolution.osgi.internal.</text>
<text text-anchor="middle" x="1267" y="-22" font-family="Helvetica,sans-Serif" font-size="10.00">OSGiServices.getLogContext</text>
</a>
</g>
</g>
<!-- Node11&#45;&gt;Node13 -->
<g id="edge14" class="edge">
<title>Node11&#45;&gt;Node13</title>
<path fill="none" stroke="midnightblue" d="M1153.22,-42.74C1161.73,-41.78 1170.29,-40.81 1178.69,-39.86"/>
<polygon fill="midnightblue" stroke="midnightblue" points="1179.3,-43.31 1188.85,-38.71 1178.52,-36.36 1179.3,-43.31"/>
</g>
</g>
</svg>
        <g id="navigator" transform="translate(0 0)" fill="#404254">
                <rect fill="#f2f5e9" fill-opacity="0.5" stroke="#606060" stroke-width=".5" x="0" y="0" width="60" height="60"/>
                <use id="zoomplus" xlink:href="#zoomPlus" x="17" y="9" onmousedown="handleZoom(evt,'in')"/>
                <use id="zoomminus" xlink:href="#zoomMin" x="42" y="9" onmousedown="handleZoom(evt,'out')"/>
                <use id="reset" xlink:href="#resetDef" x="30" y="36" onmousedown="handleReset()"/>
                <g id="arrowUp" xlink:href="#dirArrow" transform="translate(30 24)" onmousedown="handlePan(0,-1)">
                  <use xlink:href="#rim" fill="#404040">
                        <set attributeName="fill" to="#808080" begin="arrowUp.mouseover" end="arrowUp.mouseout"/>
                  </use>
                  <path fill="none" stroke="white" stroke-width="1.5" d="M0,-3.0v7 M-2.5,-0.5L0,-3.0L2.5,-0.5"/>
                </g>
                <g id="arrowRight" xlink:href="#dirArrow" transform="rotate(90) translate(36 -43)" onmousedown="handlePan(1,0)">
                  <use xlink:href="#rim" fill="#404040">
                        <set attributeName="fill" to="#808080" begin="arrowRight.mouseover" end="arrowRight.mouseout"/>
                  </use>
                  <path fill="none" stroke="white" stroke-width="1.5" d="M0,-3.0v7 M-2.5,-0.5L0,-3.0L2.5,-0.5"/>
                </g>
                <g id="arrowDown" xlink:href="#dirArrow" transform="rotate(180) translate(-30 -48)" onmousedown="handlePan(0,1)">
                  <use xlink:href="#rim" fill="#404040">
                        <set attributeName="fill" to="#808080" begin="arrowDown.mouseover" end="arrowDown.mouseout"/>
                  </use>
                  <path fill="none" stroke="white" stroke-width="1.5" d="M0,-3.0v7 M-2.5,-0.5L0,-3.0L2.5,-0.5"/>
                </g>
                <g id="arrowLeft" xlink:href="#dirArrow" transform="rotate(270) translate(-36 17)" onmousedown="handlePan(-1,0)">
                  <use xlink:href="#rim" fill="#404040">
                        <set attributeName="fill" to="#808080" begin="arrowLeft.mouseover" end="arrowLeft.mouseout"/>
                  </use>
                  <path fill="none" stroke="white" stroke-width="1.5" d="M0,-3.0v7 M-2.5,-0.5L0,-3.0L2.5,-0.5"/>
                </g>
        </g>
        <svg viewBox="0 0 15 15" width="100%" height="30px" preserveAspectRatio="xMaxYMin meet">
         <g id="arrow_out" transform="scale(0.3 0.3)">
          <a xlink:href="classjavolution_1_1xml_1_1internal_1_1stream_1_1XMLStreamReaderImpl_a3a37f6eded5c5c6151cdf063bf0844b8_cgraph_org.svg" target="_base">
           <rect id="button" ry="5" rx="5" y="6" x="6" height="38" width="38"
                fill="#f2f5e9" fill-opacity="0.5" stroke="#606060" stroke-width="1.0"/>
           <path id="arrow"
             d="M 11.500037,31.436501 C 11.940474,20.09759 22.043105,11.32322 32.158766,21.979434 L 37.068811,17.246167 C 37.068811,17.246167 37.088388,32 37.088388,32 L 22.160133,31.978069 C 22.160133,31.978069 26.997745,27.140456 26.997745,27.140456 C 18.528582,18.264221 13.291696,25.230495 11.500037,31.436501 z"
             style="fill:#404040;"/>
          </a>
         </g>
        </svg>
</svg>
