<?xml version="1.0" encoding="UTF-8" standalone="no"?>
<!DOCTYPE svg PUBLIC "-//W3C//DTD SVG 1.1//EN"
 "http://www.w3.org/Graphics/SVG/1.1/DTD/svg11.dtd">
<!-- Generated by graphviz version 2.43.0 (0)
 -->
<!-- Title: javolution.xml.internal.stream.XMLStreamReaderImpl.getVersion Pages: 1 -->
<svg width="1090pt" height="215pt"
 viewBox="0.00 0.00 1090.00 215.38" xmlns="http://www.w3.org/2000/svg" xmlns:xlink="http://www.w3.org/1999/xlink">
<g id="graph0" class="graph" transform="scale(1 1) rotate(0) translate(4 211.38)">
<title>javolution.xml.internal.stream.XMLStreamReaderImpl.getVersion</title>
<polygon fill="white" stroke="transparent" points="-4,4 -4,-211.38 1086,-211.38 1086,4 -4,4"/>
<!-- Node1 -->
<g id="node1" class="node">
<title>Node1</title>
<g id="a_node1"><a xlink:title=" ">
<polygon fill="#bfbfbf" stroke="black" points="0,-101 0,-131 184,-131 184,-101 0,-101"/>
<text text-anchor="start" x="8" y="-119" font-family="Helvetica,sans-Serif" font-size="10.00">javolution.xml.internal.stream.</text>
<text text-anchor="middle" x="92" y="-108" font-family="Helvetica,sans-Serif" font-size="10.00">XMLStreamReaderImpl.getVersion</text>
</a>
</g>
</g>
<!-- Node2 -->
<g id="node2" class="node">
<title>Node2</title>
<g id="a_node2"><a xlink:href="../../d0/d65/classjavolution_1_1xml_1_1internal_1_1stream_1_1XMLStreamReaderImpl.html#aae420328587f7e834ac5dfeb414ba461" target="_top" xlink:title=" ">
<polygon fill="white" stroke="black" points="220,-101 220,-131 447,-131 447,-101 220,-101"/>
<text text-anchor="start" x="228" y="-119" font-family="Helvetica,sans-Serif" font-size="10.00">javolution.xml.internal.stream.</text>
<text text-anchor="middle" x="333.5" y="-108" font-family="Helvetica,sans-Serif" font-size="10.00">XMLStreamReaderImpl.readPrologAttribute</text>
</a>
</g>
</g>
<!-- Node1&#45;&gt;Node2 -->
<g id="edge1" class="edge">
<title>Node1&#45;&gt;Node2</title>
<path fill="none" stroke="midnightblue" d="M184.23,-116C192.59,-116 201.15,-116 209.73,-116"/>
<polygon fill="midnightblue" stroke="midnightblue" points="209.8,-119.5 219.8,-116 209.8,-112.5 209.8,-119.5"/>
</g>
<!-- Node3 -->
<g id="node3" class="node">
<title>Node3</title>
<g id="a_node3"><a xlink:href="../../d0/d36/classjavolution_1_1text_1_1CharArray.html#a1b743b96fd62cbec154a6ca6c5df9d03" target="_top" xlink:title=" ">
<polygon fill="white" stroke="black" points="912.5,-186.5 912.5,-205.5 1079.5,-205.5 1079.5,-186.5 912.5,-186.5"/>
<text text-anchor="middle" x="996" y="-193.5" font-family="Helvetica,sans-Serif" font-size="10.00">javolution.text.CharArray.array</text>
</a>
</g>
</g>
<!-- Node2&#45;&gt;Node3 -->
<g id="edge2" class="edge">
<title>Node2&#45;&gt;Node3</title>
<path fill="none" stroke="midnightblue" d="M361.11,-131.11C390.05,-146.66 438.2,-170 483,-180 626.63,-212.08 798.52,-209.37 902.12,-203.44"/>
<polygon fill="midnightblue" stroke="midnightblue" points="902.46,-206.93 912.23,-202.84 902.04,-199.94 902.46,-206.93"/>
</g>
<!-- Node4 -->
<g id="node4" class="node">
<title>Node4</title>
<g id="a_node4"><a xlink:href="../../d0/d36/classjavolution_1_1text_1_1CharArray.html#ade485b9ab13802856db992c7a7b617c1" target="_top" xlink:title=" ">
<polygon fill="white" stroke="black" points="483,-0.5 483,-19.5 662,-19.5 662,-0.5 483,-0.5"/>
<text text-anchor="middle" x="572.5" y="-7.5" font-family="Helvetica,sans-Serif" font-size="10.00">javolution.text.CharArray.indexOf</text>
</a>
</g>
</g>
<!-- Node2&#45;&gt;Node4 -->
<g id="edge3" class="edge">
<title>Node2&#45;&gt;Node4</title>
<path fill="none" stroke="midnightblue" d="M357.55,-100.97C386.04,-82.96 436.46,-52.84 483,-34 494.18,-29.47 506.5,-25.52 518.3,-22.21"/>
<polygon fill="midnightblue" stroke="midnightblue" points="519.31,-25.56 528.05,-19.57 517.49,-18.8 519.31,-25.56"/>
</g>
<!-- Node5 -->
<g id="node5" class="node">
<title>Node5</title>
<g id="a_node5"><a xlink:href="../../d0/d36/classjavolution_1_1text_1_1CharArray.html#a1206e2076e25f1e66e1458328aa22baa" target="_top" xlink:title=" ">
<polygon fill="white" stroke="black" points="910,-102.5 910,-121.5 1082,-121.5 1082,-102.5 910,-102.5"/>
<text text-anchor="middle" x="996" y="-109.5" font-family="Helvetica,sans-Serif" font-size="10.00">javolution.text.CharArray.length</text>
</a>
</g>
</g>
<!-- Node2&#45;&gt;Node5 -->
<g id="edge4" class="edge">
<title>Node2&#45;&gt;Node5</title>
<path fill="none" stroke="midnightblue" d="M386.43,-131.07C483.33,-156.93 697.82,-203.53 874,-166 909.2,-158.5 946.57,-140 970.3,-126.75"/>
<polygon fill="midnightblue" stroke="midnightblue" points="972.35,-129.61 979.3,-121.61 968.88,-123.53 972.35,-129.61"/>
</g>
<!-- Node6 -->
<g id="node6" class="node">
<title>Node6</title>
<g id="a_node6"><a xlink:href="../../d0/d65/classjavolution_1_1xml_1_1internal_1_1stream_1_1XMLStreamReaderImpl.html#a81c3892a30b16f53265572c589d012ad" target="_top" xlink:title=" ">
<polygon fill="white" stroke="black" points="487.5,-101 487.5,-131 657.5,-131 657.5,-101 487.5,-101"/>
<text text-anchor="start" x="495.5" y="-119" font-family="Helvetica,sans-Serif" font-size="10.00">javolution.xml.internal.stream.</text>
<text text-anchor="middle" x="572.5" y="-108" font-family="Helvetica,sans-Serif" font-size="10.00">XMLStreamReaderImpl.newSeq</text>
</a>
</g>
</g>
<!-- Node2&#45;&gt;Node6 -->
<g id="edge5" class="edge">
<title>Node2&#45;&gt;Node6</title>
<path fill="none" stroke="midnightblue" d="M447.1,-116C457.12,-116 467.19,-116 477.03,-116"/>
<polygon fill="midnightblue" stroke="midnightblue" points="477.19,-119.5 487.19,-116 477.19,-112.5 477.19,-119.5"/>
</g>
<!-- Node9 -->
<g id="node9" class="node">
<title>Node9</title>
<g id="a_node9"><a xlink:href="../../d0/d36/classjavolution_1_1text_1_1CharArray.html#ad3531ca73d67202979d1b5586eab2521" target="_top" xlink:title=" ">
<polygon fill="white" stroke="black" points="911.5,-61.5 911.5,-80.5 1080.5,-80.5 1080.5,-61.5 911.5,-61.5"/>
<text text-anchor="middle" x="996" y="-68.5" font-family="Helvetica,sans-Serif" font-size="10.00">javolution.text.CharArray.offset</text>
</a>
</g>
</g>
<!-- Node2&#45;&gt;Node9 -->
<g id="edge11" class="edge">
<title>Node2&#45;&gt;Node9</title>
<path fill="none" stroke="midnightblue" d="M423.53,-100.95C443.1,-97.83 463.73,-94.68 483,-92 578.28,-78.77 601.96,-72.56 698,-67 776.09,-62.48 795.79,-65.71 874,-67 882.87,-67.15 892.11,-67.35 901.35,-67.6"/>
<polygon fill="midnightblue" stroke="midnightblue" points="901.27,-71.1 911.37,-67.87 901.47,-64.1 901.27,-71.1"/>
</g>
<!-- Node7 -->
<g id="node7" class="node">
<title>Node7</title>
<g id="a_node7"><a xlink:href="../../d0/d65/classjavolution_1_1xml_1_1internal_1_1stream_1_1XMLStreamReaderImpl.html#a05200d081c5258b99e11444bde03030c" target="_top" xlink:title=" ">
<polygon fill="white" stroke="black" points="698,-126 698,-156 874,-156 874,-126 698,-126"/>
<text text-anchor="start" x="706" y="-144" font-family="Helvetica,sans-Serif" font-size="10.00">javolution.xml.internal.stream.</text>
<text text-anchor="middle" x="786" y="-133" font-family="Helvetica,sans-Serif" font-size="10.00">XMLStreamReaderImpl.newSeq2</text>
</a>
</g>
</g>
<!-- Node6&#45;&gt;Node7 -->
<g id="edge6" class="edge">
<title>Node6&#45;&gt;Node7</title>
<path fill="none" stroke="midnightblue" d="M657.7,-125.95C667.63,-127.13 677.83,-128.33 687.93,-129.53"/>
<polygon fill="midnightblue" stroke="midnightblue" points="687.63,-133.02 697.97,-130.71 688.45,-126.06 687.63,-133.02"/>
</g>
<!-- Node8 -->
<g id="node8" class="node">
<title>Node8</title>
<g id="a_node8"><a xlink:href="../../d0/d36/classjavolution_1_1text_1_1CharArray.html#a4dba39b3010d6baa467b8ec3fdc561c4" target="_top" xlink:title=" ">
<polygon fill="white" stroke="black" points="708,-77 708,-107 864,-107 864,-77 708,-77"/>
<text text-anchor="start" x="716" y="-95" font-family="Helvetica,sans-Serif" font-size="10.00">javolution.text.CharArray.set</text>
<text text-anchor="middle" x="786" y="-84" font-family="Helvetica,sans-Serif" font-size="10.00">Array</text>
</a>
</g>
</g>
<!-- Node6&#45;&gt;Node8 -->
<g id="edge7" class="edge">
<title>Node6&#45;&gt;Node8</title>
<path fill="none" stroke="midnightblue" d="M657.7,-106.45C670.92,-104.95 684.6,-103.39 697.89,-101.89"/>
<polygon fill="midnightblue" stroke="midnightblue" points="698.41,-105.35 707.95,-100.74 697.62,-98.39 698.41,-105.35"/>
</g>
<!-- Node8&#45;&gt;Node3 -->
<g id="edge8" class="edge">
<title>Node8&#45;&gt;Node3</title>
<path fill="none" stroke="midnightblue" d="M848.22,-107.08C857.02,-109.97 865.85,-113.27 874,-117 912.03,-134.4 951.84,-162.64 974.99,-180.22"/>
<polygon fill="midnightblue" stroke="midnightblue" points="972.94,-183.07 983,-186.39 977.21,-177.52 972.94,-183.07"/>
</g>
<!-- Node8&#45;&gt;Node5 -->
<g id="edge9" class="edge">
<title>Node8&#45;&gt;Node5</title>
<path fill="none" stroke="midnightblue" d="M864.16,-99.42C875.81,-100.54 887.94,-101.71 899.92,-102.86"/>
<polygon fill="midnightblue" stroke="midnightblue" points="899.64,-106.35 909.93,-103.82 900.31,-99.38 899.64,-106.35"/>
</g>
<!-- Node8&#45;&gt;Node9 -->
<g id="edge10" class="edge">
<title>Node8&#45;&gt;Node9</title>
<path fill="none" stroke="midnightblue" d="M864.16,-84.21C876.17,-83 888.7,-81.73 901.03,-80.49"/>
<polygon fill="midnightblue" stroke="midnightblue" points="901.74,-83.93 911.33,-79.45 901.03,-76.97 901.74,-83.93"/>
</g>
</g>
</svg>
