<?xml version="1.0" encoding="UTF-8" standalone="no"?>
<!DOCTYPE svg PUBLIC "-//W3C//DTD SVG 1.1//EN"
 "http://www.w3.org/Graphics/SVG/1.1/DTD/svg11.dtd">
<!-- Generated by graphviz version 2.43.0 (0)
 -->
<!-- Title: javolution.xml.internal.stream.XMLStreamReaderImpl.getLocalName Pages: 1 -->
<svg width="824pt" height="186pt"
 viewBox="0.00 0.00 824.00 186.00" xmlns="http://www.w3.org/2000/svg" xmlns:xlink="http://www.w3.org/1999/xlink">
<g id="graph0" class="graph" transform="scale(1 1) rotate(0) translate(4 182)">
<title>javolution.xml.internal.stream.XMLStreamReaderImpl.getLocalName</title>
<polygon fill="white" stroke="transparent" points="-4,4 -4,-182 820,-182 820,4 -4,4"/>
<!-- Node1 -->
<g id="node1" class="node">
<title>Node1</title>
<g id="a_node1"><a xlink:title=" ">
<polygon fill="#bfbfbf" stroke="black" points="613,-73.5 613,-103.5 816,-103.5 816,-73.5 613,-73.5"/>
<text text-anchor="start" x="621" y="-91.5" font-family="Helvetica,sans-Serif" font-size="10.00">javolution.xml.internal.stream.</text>
<text text-anchor="middle" x="714.5" y="-80.5" font-family="Helvetica,sans-Serif" font-size="10.00">XMLStreamReaderImpl.getLocalName</text>
</a>
</g>
</g>
<!-- Node2 -->
<g id="node2" class="node">
<title>Node2</title>
<g id="a_node2"><a xlink:href="../../d9/d60/classjavolution_1_1xml_1_1XMLFormat_1_1InputElement.html#adca9deb7d768781436c703513bdd18bb" target="_top" xlink:title=" ">
<polygon fill="white" stroke="black" points="418.5,-147.5 418.5,-177.5 567.5,-177.5 567.5,-147.5 418.5,-147.5"/>
<text text-anchor="start" x="426.5" y="-165.5" font-family="Helvetica,sans-Serif" font-size="10.00">javolution.xml.XMLFormat.</text>
<text text-anchor="middle" x="493" y="-154.5" font-family="Helvetica,sans-Serif" font-size="10.00">InputElement.get</text>
</a>
</g>
</g>
<!-- Node1&#45;&gt;Node2 -->
<g id="edge1" class="edge">
<title>Node1&#45;&gt;Node2</title>
<path fill="none" stroke="midnightblue" d="M665.02,-107.19C639.07,-116.96 606.46,-128.86 577,-138.5 567.73,-141.53 557.82,-144.57 548.19,-147.42"/>
<polygon fill="midnightblue" stroke="midnightblue" points="666.51,-110.37 674.62,-103.56 664.03,-103.82 666.51,-110.37"/>
</g>
<!-- Node3 -->
<g id="node3" class="node">
<title>Node3</title>
<g id="a_node3"><a xlink:href="../../d9/d60/classjavolution_1_1xml_1_1XMLFormat_1_1InputElement.html#a1a9f1d9cc2954e37458f7e2eacbd4563" target="_top" xlink:title=" ">
<polygon fill="white" stroke="black" points="418.5,-98.5 418.5,-128.5 567.5,-128.5 567.5,-98.5 418.5,-98.5"/>
<text text-anchor="start" x="426.5" y="-116.5" font-family="Helvetica,sans-Serif" font-size="10.00">javolution.xml.XMLFormat.</text>
<text text-anchor="middle" x="493" y="-105.5" font-family="Helvetica,sans-Serif" font-size="10.00">InputElement.getNext</text>
</a>
</g>
</g>
<!-- Node1&#45;&gt;Node3 -->
<g id="edge2" class="edge">
<title>Node1&#45;&gt;Node3</title>
<path fill="none" stroke="midnightblue" d="M602.74,-101.12C590.82,-102.47 578.91,-103.83 567.58,-105.12"/>
<polygon fill="midnightblue" stroke="midnightblue" points="603.2,-104.58 612.74,-99.98 602.41,-97.63 603.2,-104.58"/>
</g>
<!-- Node4 -->
<g id="node4" class="node">
<title>Node4</title>
<g id="a_node4"><a xlink:href="../../d6/d79/classjavolution_1_1xml_1_1sax_1_1XMLReaderImpl.html#a7060e3d22c1cb128897bfc57a7e0cc64" target="_top" xlink:title=" ">
<polygon fill="white" stroke="black" points="410,-49.5 410,-79.5 576,-79.5 576,-49.5 410,-49.5"/>
<text text-anchor="start" x="418" y="-67.5" font-family="Helvetica,sans-Serif" font-size="10.00">javolution.xml.sax.XMLReader</text>
<text text-anchor="middle" x="493" y="-56.5" font-family="Helvetica,sans-Serif" font-size="10.00">Impl.parseAll</text>
</a>
</g>
</g>
<!-- Node1&#45;&gt;Node4 -->
<g id="edge3" class="edge">
<title>Node1&#45;&gt;Node4</title>
<path fill="none" stroke="midnightblue" d="M602.65,-76.38C593.69,-75.4 584.75,-74.42 576.06,-73.47"/>
<polygon fill="midnightblue" stroke="midnightblue" points="602.42,-79.88 612.74,-77.48 603.18,-72.92 602.42,-79.88"/>
</g>
<!-- Node8 -->
<g id="node8" class="node">
<title>Node8</title>
<g id="a_node8"><a xlink:href="../../d0/d65/classjavolution_1_1xml_1_1internal_1_1stream_1_1XMLStreamReaderImpl.html#a1c9c4fe07d58cbe4a428a4b0c9b07f13" target="_top" xlink:title=" ">
<polygon fill="white" stroke="black" points="409,-0.5 409,-30.5 577,-30.5 577,-0.5 409,-0.5"/>
<text text-anchor="start" x="417" y="-18.5" font-family="Helvetica,sans-Serif" font-size="10.00">javolution.xml.internal.stream.</text>
<text text-anchor="middle" x="493" y="-7.5" font-family="Helvetica,sans-Serif" font-size="10.00">XMLStreamReaderImpl.require</text>
</a>
</g>
</g>
<!-- Node1&#45;&gt;Node8 -->
<g id="edge7" class="edge">
<title>Node1&#45;&gt;Node8</title>
<path fill="none" stroke="midnightblue" d="M662.65,-70C637.05,-60.84 605.48,-49.79 577,-40.5 566.84,-37.19 555.93,-33.79 545.47,-30.61"/>
<polygon fill="midnightblue" stroke="midnightblue" points="661.56,-73.33 672.15,-73.41 663.92,-66.74 661.56,-73.33"/>
</g>
<!-- Node5 -->
<g id="node5" class="node">
<title>Node5</title>
<g id="a_node5"><a xlink:href="../../d6/d79/classjavolution_1_1xml_1_1sax_1_1XMLReaderImpl.html#af59c6a5e7282b94dea9be9452f9c945e" target="_top" xlink:title=" ">
<polygon fill="white" stroke="black" points="207,-49.5 207,-79.5 373,-79.5 373,-49.5 207,-49.5"/>
<text text-anchor="start" x="215" y="-67.5" font-family="Helvetica,sans-Serif" font-size="10.00">javolution.xml.sax.XMLReader</text>
<text text-anchor="middle" x="290" y="-56.5" font-family="Helvetica,sans-Serif" font-size="10.00">Impl.parse</text>
</a>
</g>
</g>
<!-- Node4&#45;&gt;Node5 -->
<g id="edge4" class="edge">
<title>Node4&#45;&gt;Node5</title>
<path fill="none" stroke="midnightblue" d="M399.91,-64.5C390.97,-64.5 381.94,-64.5 373.11,-64.5"/>
<polygon fill="midnightblue" stroke="midnightblue" points="399.96,-68 409.96,-64.5 399.96,-61 399.96,-68"/>
</g>
<!-- Node6 -->
<g id="node6" class="node">
<title>Node6</title>
<g id="a_node6"><a xlink:href="../../d5/de1/classjavolution_1_1xml_1_1sax_1_1SAX2ReaderImpl.html#ac88f97df2622809ba9f127e173f20f17" target="_top" xlink:title=" ">
<polygon fill="white" stroke="black" points="0,-74.5 0,-104.5 171,-104.5 171,-74.5 0,-74.5"/>
<text text-anchor="start" x="8" y="-92.5" font-family="Helvetica,sans-Serif" font-size="10.00">javolution.xml.sax.SAX2Reader</text>
<text text-anchor="middle" x="85.5" y="-81.5" font-family="Helvetica,sans-Serif" font-size="10.00">Impl.parse</text>
</a>
</g>
</g>
<!-- Node5&#45;&gt;Node6 -->
<g id="edge5" class="edge">
<title>Node5&#45;&gt;Node6</title>
<path fill="none" stroke="midnightblue" d="M196.96,-75.86C188.42,-76.92 179.8,-77.98 171.33,-79.03"/>
<polygon fill="midnightblue" stroke="midnightblue" points="197.43,-79.33 206.93,-74.63 196.57,-72.38 197.43,-79.33"/>
</g>
<!-- Node7 -->
<g id="node7" class="node">
<title>Node7</title>
<g id="a_node7"><a xlink:href="../../d6/d79/classjavolution_1_1xml_1_1sax_1_1XMLReaderImpl.html#a255e7cbc9ce8eced22fae7c8138b6cfb" target="_top" xlink:title=" ">
<polygon fill="white" stroke="black" points="2.5,-25.5 2.5,-55.5 168.5,-55.5 168.5,-25.5 2.5,-25.5"/>
<text text-anchor="start" x="10.5" y="-43.5" font-family="Helvetica,sans-Serif" font-size="10.00">javolution.xml.sax.XMLReader</text>
<text text-anchor="middle" x="85.5" y="-32.5" font-family="Helvetica,sans-Serif" font-size="10.00">Impl.parse</text>
</a>
</g>
</g>
<!-- Node5&#45;&gt;Node7 -->
<g id="edge6" class="edge">
<title>Node5&#45;&gt;Node7</title>
<path fill="none" stroke="midnightblue" d="M196.81,-53.57C187.43,-52.46 177.95,-51.34 168.69,-50.24"/>
<polygon fill="midnightblue" stroke="midnightblue" points="196.58,-57.07 206.93,-54.77 197.41,-50.12 196.58,-57.07"/>
</g>
</g>
</svg>
