<?xml version="1.0" encoding="UTF-8" standalone="no"?>
<!DOCTYPE svg PUBLIC "-//W3C//DTD SVG 1.1//EN"
 "http://www.w3.org/Graphics/SVG/1.1/DTD/svg11.dtd">
<!-- Generated by graphviz version 2.43.0 (0)
 -->
<!-- Title: javolution.xml.internal.stream.XMLStreamReaderImpl.getNamespaceURI Pages: 1 -->
<svg width="1126pt" height="135pt"
 viewBox="0.00 0.00 1126.00 135.00" xmlns="http://www.w3.org/2000/svg" xmlns:xlink="http://www.w3.org/1999/xlink">
<g id="graph0" class="graph" transform="scale(1 1) rotate(0) translate(4 131)">
<title>javolution.xml.internal.stream.XMLStreamReaderImpl.getNamespaceURI</title>
<polygon fill="white" stroke="transparent" points="-4,4 -4,-131 1122,-131 1122,4 -4,4"/>
<!-- Node1 -->
<g id="node1" class="node">
<title>Node1</title>
<g id="a_node1"><a xlink:title=" ">
<polygon fill="#bfbfbf" stroke="black" points="0,-63 0,-93 223,-93 223,-63 0,-63"/>
<text text-anchor="start" x="8" y="-81" font-family="Helvetica,sans-Serif" font-size="10.00">javolution.xml.internal.stream.</text>
<text text-anchor="middle" x="111.5" y="-70" font-family="Helvetica,sans-Serif" font-size="10.00">XMLStreamReaderImpl.getNamespaceURI</text>
</a>
</g>
</g>
<!-- Node2 -->
<g id="node2" class="node">
<title>Node2</title>
<g id="a_node2"><a xlink:href="../../dc/daa/classjavolution_1_1xml_1_1internal_1_1stream_1_1NamespacesImpl.html#a944dd086746ac448be3b3745133aaf0f" target="_top" xlink:title=" ">
<polygon fill="white" stroke="black" points="259,-85.5 259,-126.5 474,-126.5 474,-85.5 259,-85.5"/>
<text text-anchor="start" x="267" y="-114.5" font-family="Helvetica,sans-Serif" font-size="10.00">javolution.xml.internal.stream.</text>
<text text-anchor="start" x="267" y="-103.5" font-family="Helvetica,sans-Serif" font-size="10.00">NamespacesImpl.getNamespaceURINull</text>
<text text-anchor="middle" x="366.5" y="-92.5" font-family="Helvetica,sans-Serif" font-size="10.00">Allowed</text>
</a>
</g>
</g>
<!-- Node1&#45;&gt;Node2 -->
<g id="edge1" class="edge">
<title>Node1&#45;&gt;Node2</title>
<path fill="none" stroke="midnightblue" d="M223.1,-90.24C231.61,-91.18 240.21,-92.13 248.75,-93.08"/>
<polygon fill="midnightblue" stroke="midnightblue" points="248.42,-96.56 258.75,-94.19 249.19,-89.61 248.42,-96.56"/>
</g>
<!-- Node3 -->
<g id="node3" class="node">
<title>Node3</title>
<g id="a_node3"><a xlink:href="../../d0/d65/classjavolution_1_1xml_1_1internal_1_1stream_1_1XMLStreamReaderImpl.html#ac84b89e7554210349fece969e0a34f77" target="_top" xlink:title=" ">
<polygon fill="white" stroke="black" points="278.5,-36 278.5,-66 454.5,-66 454.5,-36 278.5,-36"/>
<text text-anchor="start" x="286.5" y="-54" font-family="Helvetica,sans-Serif" font-size="10.00">javolution.xml.internal.stream.</text>
<text text-anchor="middle" x="366.5" y="-43" font-family="Helvetica,sans-Serif" font-size="10.00">XMLStreamReaderImpl.getPrefix</text>
</a>
</g>
</g>
<!-- Node1&#45;&gt;Node3 -->
<g id="edge2" class="edge">
<title>Node1&#45;&gt;Node3</title>
<path fill="none" stroke="midnightblue" d="M223.1,-66.2C238.12,-64.59 253.44,-62.96 268.2,-61.38"/>
<polygon fill="midnightblue" stroke="midnightblue" points="268.74,-64.85 278.32,-60.3 268,-57.89 268.74,-64.85"/>
</g>
<!-- Node4 -->
<g id="node4" class="node">
<title>Node4</title>
<g id="a_node4"><a xlink:href="../../d0/d65/classjavolution_1_1xml_1_1internal_1_1stream_1_1XMLStreamReaderImpl.html#a7ec904380dc9205eec886c5136dc97f9" target="_top" xlink:title=" ">
<polygon fill="white" stroke="black" points="510,-85 510,-115 698,-115 698,-85 510,-85"/>
<text text-anchor="start" x="518" y="-103" font-family="Helvetica,sans-Serif" font-size="10.00">javolution.xml.internal.stream.</text>
<text text-anchor="middle" x="604" y="-92" font-family="Helvetica,sans-Serif" font-size="10.00">XMLStreamReaderImpl.illegalState</text>
</a>
</g>
</g>
<!-- Node3&#45;&gt;Node4 -->
<g id="edge3" class="edge">
<title>Node3&#45;&gt;Node4</title>
<path fill="none" stroke="midnightblue" d="M439.76,-66.03C465.41,-71.37 494.48,-77.42 520.9,-82.92"/>
<polygon fill="midnightblue" stroke="midnightblue" points="520.38,-86.38 530.88,-84.99 521.8,-79.53 520.38,-86.38"/>
</g>
<!-- Node5 -->
<g id="node5" class="node">
<title>Node5</title>
<g id="a_node5"><a xlink:href="../../d0/d65/classjavolution_1_1xml_1_1internal_1_1stream_1_1XMLStreamReaderImpl.html#a81c3892a30b16f53265572c589d012ad" target="_top" xlink:title=" ">
<polygon fill="white" stroke="black" points="519,-36 519,-66 689,-66 689,-36 519,-36"/>
<text text-anchor="start" x="527" y="-54" font-family="Helvetica,sans-Serif" font-size="10.00">javolution.xml.internal.stream.</text>
<text text-anchor="middle" x="604" y="-43" font-family="Helvetica,sans-Serif" font-size="10.00">XMLStreamReaderImpl.newSeq</text>
</a>
</g>
</g>
<!-- Node3&#45;&gt;Node5 -->
<g id="edge4" class="edge">
<title>Node3&#45;&gt;Node5</title>
<path fill="none" stroke="midnightblue" d="M454.52,-51C472.05,-51 490.55,-51 508.32,-51"/>
<polygon fill="midnightblue" stroke="midnightblue" points="508.69,-54.5 518.69,-51 508.69,-47.5 508.69,-54.5"/>
</g>
<!-- Node10 -->
<g id="node10" class="node">
<title>Node10</title>
<g id="a_node10"><a xlink:href="../../d0/d36/classjavolution_1_1text_1_1CharArray.html#ad3531ca73d67202979d1b5586eab2521" target="_top" xlink:title=" ">
<polygon fill="white" stroke="black" points="947.5,-0.5 947.5,-19.5 1116.5,-19.5 1116.5,-0.5 947.5,-0.5"/>
<text text-anchor="middle" x="1032" y="-7.5" font-family="Helvetica,sans-Serif" font-size="10.00">javolution.text.CharArray.offset</text>
</a>
</g>
</g>
<!-- Node3&#45;&gt;Node10 -->
<g id="edge10" class="edge">
<title>Node3&#45;&gt;Node10</title>
<path fill="none" stroke="midnightblue" d="M441.55,-35.94C463.49,-32.04 487.64,-28.29 510,-26 658.76,-10.75 832.55,-8.52 937.08,-8.86"/>
<polygon fill="midnightblue" stroke="midnightblue" points="937.28,-12.36 947.29,-8.9 937.3,-5.36 937.28,-12.36"/>
</g>
<!-- Node6 -->
<g id="node6" class="node">
<title>Node6</title>
<g id="a_node6"><a xlink:href="../../d0/d65/classjavolution_1_1xml_1_1internal_1_1stream_1_1XMLStreamReaderImpl.html#a05200d081c5258b99e11444bde03030c" target="_top" xlink:title=" ">
<polygon fill="white" stroke="black" points="734,-85 734,-115 910,-115 910,-85 734,-85"/>
<text text-anchor="start" x="742" y="-103" font-family="Helvetica,sans-Serif" font-size="10.00">javolution.xml.internal.stream.</text>
<text text-anchor="middle" x="822" y="-92" font-family="Helvetica,sans-Serif" font-size="10.00">XMLStreamReaderImpl.newSeq2</text>
</a>
</g>
</g>
<!-- Node5&#45;&gt;Node6 -->
<g id="edge5" class="edge">
<title>Node5&#45;&gt;Node6</title>
<path fill="none" stroke="midnightblue" d="M671.28,-66.03C694.6,-71.33 720.99,-77.31 745.05,-82.77"/>
<polygon fill="midnightblue" stroke="midnightblue" points="744.32,-86.19 754.85,-84.99 745.87,-79.37 744.32,-86.19"/>
</g>
<!-- Node7 -->
<g id="node7" class="node">
<title>Node7</title>
<g id="a_node7"><a xlink:href="../../d0/d36/classjavolution_1_1text_1_1CharArray.html#a4dba39b3010d6baa467b8ec3fdc561c4" target="_top" xlink:title=" ">
<polygon fill="white" stroke="black" points="744,-36 744,-66 900,-66 900,-36 744,-36"/>
<text text-anchor="start" x="752" y="-54" font-family="Helvetica,sans-Serif" font-size="10.00">javolution.text.CharArray.set</text>
<text text-anchor="middle" x="822" y="-43" font-family="Helvetica,sans-Serif" font-size="10.00">Array</text>
</a>
</g>
</g>
<!-- Node5&#45;&gt;Node7 -->
<g id="edge6" class="edge">
<title>Node5&#45;&gt;Node7</title>
<path fill="none" stroke="midnightblue" d="M689.13,-51C703.76,-51 719,-51 733.71,-51"/>
<polygon fill="midnightblue" stroke="midnightblue" points="733.8,-54.5 743.8,-51 733.8,-47.5 733.8,-54.5"/>
</g>
<!-- Node8 -->
<g id="node8" class="node">
<title>Node8</title>
<g id="a_node8"><a xlink:href="../../d0/d36/classjavolution_1_1text_1_1CharArray.html#a1b743b96fd62cbec154a6ca6c5df9d03" target="_top" xlink:title=" ">
<polygon fill="white" stroke="black" points="948.5,-77.5 948.5,-96.5 1115.5,-96.5 1115.5,-77.5 948.5,-77.5"/>
<text text-anchor="middle" x="1032" y="-84.5" font-family="Helvetica,sans-Serif" font-size="10.00">javolution.text.CharArray.array</text>
</a>
</g>
</g>
<!-- Node7&#45;&gt;Node8 -->
<g id="edge7" class="edge">
<title>Node7&#45;&gt;Node8</title>
<path fill="none" stroke="midnightblue" d="M900.16,-64.35C921.82,-68.1 945.14,-72.14 966.02,-75.75"/>
<polygon fill="midnightblue" stroke="midnightblue" points="965.6,-79.23 976.05,-77.49 966.79,-72.34 965.6,-79.23"/>
</g>
<!-- Node9 -->
<g id="node9" class="node">
<title>Node9</title>
<g id="a_node9"><a xlink:href="../../d0/d36/classjavolution_1_1text_1_1CharArray.html#a1206e2076e25f1e66e1458328aa22baa" target="_top" xlink:title=" ">
<polygon fill="white" stroke="black" points="946,-39.5 946,-58.5 1118,-58.5 1118,-39.5 946,-39.5"/>
<text text-anchor="middle" x="1032" y="-46.5" font-family="Helvetica,sans-Serif" font-size="10.00">javolution.text.CharArray.length</text>
</a>
</g>
</g>
<!-- Node7&#45;&gt;Node9 -->
<g id="edge8" class="edge">
<title>Node7&#45;&gt;Node9</title>
<path fill="none" stroke="midnightblue" d="M900.16,-50.26C911.81,-50.15 923.94,-50.03 935.92,-49.91"/>
<polygon fill="midnightblue" stroke="midnightblue" points="935.96,-53.41 945.93,-49.82 935.89,-46.41 935.96,-53.41"/>
</g>
<!-- Node7&#45;&gt;Node10 -->
<g id="edge9" class="edge">
<title>Node7&#45;&gt;Node10</title>
<path fill="none" stroke="midnightblue" d="M899.27,-35.97C923.51,-31.19 949.92,-25.98 972.68,-21.5"/>
<polygon fill="midnightblue" stroke="midnightblue" points="973.39,-24.92 982.53,-19.55 972.04,-18.05 973.39,-24.92"/>
</g>
</g>
</svg>
