<?xml version="1.0" encoding="UTF-8" standalone="no"?>
<!DOCTYPE svg PUBLIC "-//W3C//DTD SVG 1.1//EN"
 "http://www.w3.org/Graphics/SVG/1.1/DTD/svg11.dtd">
<!-- Generated by graphviz version 2.43.0 (0)
 -->
<!-- Title: javolution.xml.internal.stream.XMLStreamReaderImpl.setEntities Pages: 1 -->
<svg width="634pt" height="66pt"
 viewBox="0.00 0.00 634.00 66.00" xmlns="http://www.w3.org/2000/svg" xmlns:xlink="http://www.w3.org/1999/xlink">
<g id="graph0" class="graph" transform="scale(1 1) rotate(0) translate(4 62)">
<title>javolution.xml.internal.stream.XMLStreamReaderImpl.setEntities</title>
<polygon fill="white" stroke="transparent" points="-4,4 -4,-62 630,-62 630,4 -4,4"/>
<!-- Node1 -->
<g id="node1" class="node">
<title>Node1</title>
<g id="a_node1"><a xlink:title=" ">
<polygon fill="#bfbfbf" stroke="black" points="0,-14 0,-44 184,-44 184,-14 0,-14"/>
<text text-anchor="start" x="8" y="-32" font-family="Helvetica,sans-Serif" font-size="10.00">javolution.xml.internal.stream.</text>
<text text-anchor="middle" x="92" y="-21" font-family="Helvetica,sans-Serif" font-size="10.00">XMLStreamReaderImpl.setEntities</text>
</a>
</g>
</g>
<!-- Node2 -->
<g id="node2" class="node">
<title>Node2</title>
<g id="a_node2"><a xlink:href="../../d1/d5a/classjavolution_1_1xml_1_1internal_1_1stream_1_1EntitiesImpl.html#a8b6076aaf0aba508dcb70dc4a608ea2c" target="_top" xlink:title=" ">
<polygon fill="white" stroke="black" points="220,-14 220,-44 392,-44 392,-14 220,-14"/>
<text text-anchor="start" x="228" y="-32" font-family="Helvetica,sans-Serif" font-size="10.00">javolution.xml.internal.stream.</text>
<text text-anchor="middle" x="306" y="-21" font-family="Helvetica,sans-Serif" font-size="10.00">EntitiesImpl.setEntitiesMapping</text>
</a>
</g>
</g>
<!-- Node1&#45;&gt;Node2 -->
<g id="edge1" class="edge">
<title>Node1&#45;&gt;Node2</title>
<path fill="none" stroke="midnightblue" d="M184.14,-29C192.69,-29 201.37,-29 209.95,-29"/>
<polygon fill="midnightblue" stroke="midnightblue" points="209.97,-32.5 219.97,-29 209.97,-25.5 209.97,-32.5"/>
</g>
<!-- Node3 -->
<g id="node3" class="node">
<title>Node3</title>
<g id="a_node3"><a xlink:href="../../da/dd1/classjavolution_1_1util_1_1FastTable.html#a03ff90e0de2aaf9a21e9a352c7891fe8" target="_top" xlink:title=" ">
<polygon fill="white" stroke="black" points="444,-38.5 444,-57.5 610,-57.5 610,-38.5 444,-38.5"/>
<text text-anchor="middle" x="527" y="-45.5" font-family="Helvetica,sans-Serif" font-size="10.00">javolution.util.FastTable.addAll</text>
</a>
</g>
</g>
<!-- Node2&#45;&gt;Node3 -->
<g id="edge2" class="edge">
<title>Node2&#45;&gt;Node3</title>
<path fill="none" stroke="midnightblue" d="M392.3,-36.4C405.79,-37.57 419.8,-38.79 433.45,-39.97"/>
<polygon fill="midnightblue" stroke="midnightblue" points="433.54,-43.49 443.81,-40.87 434.15,-36.52 433.54,-43.49"/>
</g>
<!-- Node4 -->
<g id="node4" class="node">
<title>Node4</title>
<g id="a_node4"><a xlink:href="../../dc/d19/classjavolution_1_1util_1_1FastCollection.html#a6e1331852926addee796ce08108e5629" target="_top" xlink:title=" ">
<polygon fill="white" stroke="black" points="428,-0.5 428,-19.5 626,-19.5 626,-0.5 428,-0.5"/>
<text text-anchor="middle" x="527" y="-7.5" font-family="Helvetica,sans-Serif" font-size="10.00">javolution.util.FastCollection.mapped</text>
</a>
</g>
</g>
<!-- Node2&#45;&gt;Node4 -->
<g id="edge3" class="edge">
<title>Node2&#45;&gt;Node4</title>
<path fill="none" stroke="midnightblue" d="M392.3,-21.6C400.67,-20.87 409.24,-20.13 417.8,-19.39"/>
<polygon fill="midnightblue" stroke="midnightblue" points="418.18,-22.87 427.84,-18.52 417.57,-15.89 418.18,-22.87"/>
</g>
</g>
</svg>
