<?xml version="1.0" encoding="UTF-8" standalone="no"?>
<!DOCTYPE svg PUBLIC "-//W3C//DTD SVG 1.1//EN"
 "http://www.w3.org/Graphics/SVG/1.1/DTD/svg11.dtd">
<!-- Generated by graphviz version 2.43.0 (0)
 -->
<!-- Title: javolution.xml.internal.stream.XMLStreamReaderImpl.readPrologAttribute Pages: 1 -->
<svg width="870pt" height="215pt"
 viewBox="0.00 0.00 870.00 215.38" xmlns="http://www.w3.org/2000/svg" xmlns:xlink="http://www.w3.org/1999/xlink">
<g id="graph0" class="graph" transform="scale(1 1) rotate(0) translate(4 211.38)">
<title>javolution.xml.internal.stream.XMLStreamReaderImpl.readPrologAttribute</title>
<polygon fill="white" stroke="transparent" points="-4,4 -4,-211.38 866,-211.38 866,4 -4,4"/>
<!-- Node1 -->
<g id="node1" class="node">
<title>Node1</title>
<g id="a_node1"><a xlink:title=" ">
<polygon fill="#bfbfbf" stroke="black" points="0,-101 0,-131 227,-131 227,-101 0,-101"/>
<text text-anchor="start" x="8" y="-119" font-family="Helvetica,sans-Serif" font-size="10.00">javolution.xml.internal.stream.</text>
<text text-anchor="middle" x="113.5" y="-108" font-family="Helvetica,sans-Serif" font-size="10.00">XMLStreamReaderImpl.readPrologAttribute</text>
</a>
</g>
</g>
<!-- Node2 -->
<g id="node2" class="node">
<title>Node2</title>
<g id="a_node2"><a xlink:href="../../d0/d36/classjavolution_1_1text_1_1CharArray.html#a1b743b96fd62cbec154a6ca6c5df9d03" target="_top" xlink:title=" ">
<polygon fill="white" stroke="black" points="692.5,-186.5 692.5,-205.5 859.5,-205.5 859.5,-186.5 692.5,-186.5"/>
<text text-anchor="middle" x="776" y="-193.5" font-family="Helvetica,sans-Serif" font-size="10.00">javolution.text.CharArray.array</text>
</a>
</g>
</g>
<!-- Node1&#45;&gt;Node2 -->
<g id="edge1" class="edge">
<title>Node1&#45;&gt;Node2</title>
<path fill="none" stroke="midnightblue" d="M141.11,-131.11C170.05,-146.66 218.2,-170 263,-180 406.63,-212.08 578.52,-209.37 682.12,-203.44"/>
<polygon fill="midnightblue" stroke="midnightblue" points="682.46,-206.93 692.23,-202.84 682.04,-199.94 682.46,-206.93"/>
</g>
<!-- Node3 -->
<g id="node3" class="node">
<title>Node3</title>
<g id="a_node3"><a xlink:href="../../d0/d36/classjavolution_1_1text_1_1CharArray.html#ade485b9ab13802856db992c7a7b617c1" target="_top" xlink:title=" ">
<polygon fill="white" stroke="black" points="263,-0.5 263,-19.5 442,-19.5 442,-0.5 263,-0.5"/>
<text text-anchor="middle" x="352.5" y="-7.5" font-family="Helvetica,sans-Serif" font-size="10.00">javolution.text.CharArray.indexOf</text>
</a>
</g>
</g>
<!-- Node1&#45;&gt;Node3 -->
<g id="edge2" class="edge">
<title>Node1&#45;&gt;Node3</title>
<path fill="none" stroke="midnightblue" d="M137.55,-100.97C166.04,-82.96 216.46,-52.84 263,-34 274.18,-29.47 286.5,-25.52 298.3,-22.21"/>
<polygon fill="midnightblue" stroke="midnightblue" points="299.31,-25.56 308.05,-19.57 297.49,-18.8 299.31,-25.56"/>
</g>
<!-- Node4 -->
<g id="node4" class="node">
<title>Node4</title>
<g id="a_node4"><a xlink:href="../../d0/d36/classjavolution_1_1text_1_1CharArray.html#a1206e2076e25f1e66e1458328aa22baa" target="_top" xlink:title=" ">
<polygon fill="white" stroke="black" points="690,-102.5 690,-121.5 862,-121.5 862,-102.5 690,-102.5"/>
<text text-anchor="middle" x="776" y="-109.5" font-family="Helvetica,sans-Serif" font-size="10.00">javolution.text.CharArray.length</text>
</a>
</g>
</g>
<!-- Node1&#45;&gt;Node4 -->
<g id="edge3" class="edge">
<title>Node1&#45;&gt;Node4</title>
<path fill="none" stroke="midnightblue" d="M166.43,-131.07C263.33,-156.93 477.82,-203.53 654,-166 689.2,-158.5 726.57,-140 750.3,-126.75"/>
<polygon fill="midnightblue" stroke="midnightblue" points="752.35,-129.61 759.3,-121.61 748.88,-123.53 752.35,-129.61"/>
</g>
<!-- Node5 -->
<g id="node5" class="node">
<title>Node5</title>
<g id="a_node5"><a xlink:href="../../d0/d65/classjavolution_1_1xml_1_1internal_1_1stream_1_1XMLStreamReaderImpl.html#a81c3892a30b16f53265572c589d012ad" target="_top" xlink:title=" ">
<polygon fill="white" stroke="black" points="267.5,-101 267.5,-131 437.5,-131 437.5,-101 267.5,-101"/>
<text text-anchor="start" x="275.5" y="-119" font-family="Helvetica,sans-Serif" font-size="10.00">javolution.xml.internal.stream.</text>
<text text-anchor="middle" x="352.5" y="-108" font-family="Helvetica,sans-Serif" font-size="10.00">XMLStreamReaderImpl.newSeq</text>
</a>
</g>
</g>
<!-- Node1&#45;&gt;Node5 -->
<g id="edge4" class="edge">
<title>Node1&#45;&gt;Node5</title>
<path fill="none" stroke="midnightblue" d="M227.1,-116C237.12,-116 247.19,-116 257.03,-116"/>
<polygon fill="midnightblue" stroke="midnightblue" points="257.19,-119.5 267.19,-116 257.19,-112.5 257.19,-119.5"/>
</g>
<!-- Node8 -->
<g id="node8" class="node">
<title>Node8</title>
<g id="a_node8"><a xlink:href="../../d0/d36/classjavolution_1_1text_1_1CharArray.html#ad3531ca73d67202979d1b5586eab2521" target="_top" xlink:title=" ">
<polygon fill="white" stroke="black" points="691.5,-61.5 691.5,-80.5 860.5,-80.5 860.5,-61.5 691.5,-61.5"/>
<text text-anchor="middle" x="776" y="-68.5" font-family="Helvetica,sans-Serif" font-size="10.00">javolution.text.CharArray.offset</text>
</a>
</g>
</g>
<!-- Node1&#45;&gt;Node8 -->
<g id="edge10" class="edge">
<title>Node1&#45;&gt;Node8</title>
<path fill="none" stroke="midnightblue" d="M203.53,-100.95C223.1,-97.83 243.73,-94.68 263,-92 358.28,-78.77 381.96,-72.56 478,-67 556.09,-62.48 575.79,-65.71 654,-67 662.87,-67.15 672.11,-67.35 681.35,-67.6"/>
<polygon fill="midnightblue" stroke="midnightblue" points="681.27,-71.1 691.37,-67.87 681.47,-64.1 681.27,-71.1"/>
</g>
<!-- Node6 -->
<g id="node6" class="node">
<title>Node6</title>
<g id="a_node6"><a xlink:href="../../d0/d65/classjavolution_1_1xml_1_1internal_1_1stream_1_1XMLStreamReaderImpl.html#a05200d081c5258b99e11444bde03030c" target="_top" xlink:title=" ">
<polygon fill="white" stroke="black" points="478,-126 478,-156 654,-156 654,-126 478,-126"/>
<text text-anchor="start" x="486" y="-144" font-family="Helvetica,sans-Serif" font-size="10.00">javolution.xml.internal.stream.</text>
<text text-anchor="middle" x="566" y="-133" font-family="Helvetica,sans-Serif" font-size="10.00">XMLStreamReaderImpl.newSeq2</text>
</a>
</g>
</g>
<!-- Node5&#45;&gt;Node6 -->
<g id="edge5" class="edge">
<title>Node5&#45;&gt;Node6</title>
<path fill="none" stroke="midnightblue" d="M437.7,-125.95C447.63,-127.13 457.83,-128.33 467.93,-129.53"/>
<polygon fill="midnightblue" stroke="midnightblue" points="467.63,-133.02 477.97,-130.71 468.45,-126.06 467.63,-133.02"/>
</g>
<!-- Node7 -->
<g id="node7" class="node">
<title>Node7</title>
<g id="a_node7"><a xlink:href="../../d0/d36/classjavolution_1_1text_1_1CharArray.html#a4dba39b3010d6baa467b8ec3fdc561c4" target="_top" xlink:title=" ">
<polygon fill="white" stroke="black" points="488,-77 488,-107 644,-107 644,-77 488,-77"/>
<text text-anchor="start" x="496" y="-95" font-family="Helvetica,sans-Serif" font-size="10.00">javolution.text.CharArray.set</text>
<text text-anchor="middle" x="566" y="-84" font-family="Helvetica,sans-Serif" font-size="10.00">Array</text>
</a>
</g>
</g>
<!-- Node5&#45;&gt;Node7 -->
<g id="edge6" class="edge">
<title>Node5&#45;&gt;Node7</title>
<path fill="none" stroke="midnightblue" d="M437.7,-106.45C450.92,-104.95 464.6,-103.39 477.89,-101.89"/>
<polygon fill="midnightblue" stroke="midnightblue" points="478.41,-105.35 487.95,-100.74 477.62,-98.39 478.41,-105.35"/>
</g>
<!-- Node7&#45;&gt;Node2 -->
<g id="edge7" class="edge">
<title>Node7&#45;&gt;Node2</title>
<path fill="none" stroke="midnightblue" d="M628.22,-107.08C637.02,-109.97 645.85,-113.27 654,-117 692.03,-134.4 731.84,-162.64 754.99,-180.22"/>
<polygon fill="midnightblue" stroke="midnightblue" points="752.94,-183.07 763,-186.39 757.21,-177.52 752.94,-183.07"/>
</g>
<!-- Node7&#45;&gt;Node4 -->
<g id="edge8" class="edge">
<title>Node7&#45;&gt;Node4</title>
<path fill="none" stroke="midnightblue" d="M644.16,-99.42C655.81,-100.54 667.94,-101.71 679.92,-102.86"/>
<polygon fill="midnightblue" stroke="midnightblue" points="679.64,-106.35 689.93,-103.82 680.31,-99.38 679.64,-106.35"/>
</g>
<!-- Node7&#45;&gt;Node8 -->
<g id="edge9" class="edge">
<title>Node7&#45;&gt;Node8</title>
<path fill="none" stroke="midnightblue" d="M644.16,-84.21C656.17,-83 668.7,-81.73 681.03,-80.49"/>
<polygon fill="midnightblue" stroke="midnightblue" points="681.74,-83.93 691.33,-79.45 681.03,-76.97 681.74,-83.93"/>
</g>
</g>
</svg>
