<?xml version="1.0" encoding="UTF-8" standalone="no"?>
<!DOCTYPE svg PUBLIC "-//W3C//DTD SVG 1.1//EN"
 "http://www.w3.org/Graphics/SVG/1.1/DTD/svg11.dtd">
<!-- Generated by graphviz version 2.43.0 (0)
 -->
<!-- Title: javolution.util.service.SortedSetService&lt; E &gt; Pages: 1 -->
<svg width="1206pt" height="318pt"
 viewBox="0.00 0.00 1206.00 318.00" xmlns="http://www.w3.org/2000/svg" xmlns:xlink="http://www.w3.org/1999/xlink">
<g id="graph0" class="graph" transform="scale(1 1) rotate(0) translate(4 314)">
<title>javolution.util.service.SortedSetService&lt; E &gt;</title>
<polygon fill="white" stroke="transparent" points="-4,4 -4,-314 1202,-314 1202,4 -4,4"/>
<!-- Node1 -->
<g id="node1" class="node">
<title>Node1</title>
<g id="a_node1"><a xlink:title=" ">
<polygon fill="#bfbfbf" stroke="black" points="590,-134 590,-164 718,-164 718,-134 590,-134"/>
<text text-anchor="start" x="598" y="-152" font-family="Helvetica,sans-Serif" font-size="10.00">javolution.util.service.</text>
<text text-anchor="middle" x="654" y="-141" font-family="Helvetica,sans-Serif" font-size="10.00">SortedSetService&lt; E &gt;</text>
</a>
</g>
</g>
<!-- Node10 -->
<g id="node10" class="node">
<title>Node10</title>
<g id="a_node10"><a xlink:href="../../d8/dc6/classjavolution_1_1util_1_1internal_1_1map_1_1sorted_1_1SortedMapView_1_1EntrySortedSet.html" target="_top" xlink:title=" ">
<polygon fill="white" stroke="black" points="767.5,-268.5 767.5,-309.5 952.5,-309.5 952.5,-268.5 767.5,-268.5"/>
<text text-anchor="start" x="775.5" y="-297.5" font-family="Helvetica,sans-Serif" font-size="10.00">javolution::util::internal</text>
<text text-anchor="start" x="775.5" y="-286.5" font-family="Helvetica,sans-Serif" font-size="10.00">::map::sorted::SortedMapView</text>
<text text-anchor="middle" x="860" y="-275.5" font-family="Helvetica,sans-Serif" font-size="10.00">&lt; Entry&lt; K, V &gt; &gt;::EntrySortedSet</text>
</a>
</g>
</g>
<!-- Node1&#45;&gt;Node10 -->
<g id="edge9" class="edge">
<title>Node1&#45;&gt;Node10</title>
<path fill="none" stroke="midnightblue" d="M670.36,-172.82C687.73,-197.88 718.29,-236.7 754,-259 759.63,-262.51 765.68,-265.63 771.94,-268.39"/>
<polygon fill="midnightblue" stroke="midnightblue" points="673.08,-170.59 664.57,-164.27 667.28,-174.51 673.08,-170.59"/>
</g>
<!-- Node11 -->
<g id="node11" class="node">
<title>Node11</title>
<g id="a_node11"><a xlink:href="../../db/d71/classjavolution_1_1util_1_1internal_1_1map_1_1sorted_1_1SortedMapView_1_1KeySortedSet.html" target="_top" xlink:title=" ">
<polygon fill="white" stroke="black" points="778,-208.5 778,-249.5 942,-249.5 942,-208.5 778,-208.5"/>
<text text-anchor="start" x="786" y="-237.5" font-family="Helvetica,sans-Serif" font-size="10.00">javolution::util::internal</text>
<text text-anchor="start" x="786" y="-226.5" font-family="Helvetica,sans-Serif" font-size="10.00">::map::sorted::SortedMapView</text>
<text text-anchor="middle" x="860" y="-215.5" font-family="Helvetica,sans-Serif" font-size="10.00">&lt; K &gt;::KeySortedSet</text>
</a>
</g>
</g>
<!-- Node1&#45;&gt;Node11 -->
<g id="edge10" class="edge">
<title>Node1&#45;&gt;Node11</title>
<path fill="none" stroke="midnightblue" d="M690.63,-169.06C709.15,-178.95 732.37,-190.54 754,-199 762.56,-202.35 771.65,-205.51 780.75,-208.43"/>
<polygon fill="midnightblue" stroke="midnightblue" points="692.14,-165.9 681.68,-164.22 688.81,-172.05 692.14,-165.9"/>
</g>
<!-- Node12 -->
<g id="node12" class="node">
<title>Node12</title>
<g id="a_node12"><a xlink:href="../../d3/d35/classjavolution_1_1util_1_1internal_1_1set_1_1sorted_1_1AtomicSortedSetImpl.html" target="_top" xlink:title=" ">
<polygon fill="white" stroke="black" points="754,-159 754,-189 966,-189 966,-159 754,-159"/>
<text text-anchor="start" x="762" y="-177" font-family="Helvetica,sans-Serif" font-size="10.00">javolution::util::internal</text>
<text text-anchor="middle" x="860" y="-166" font-family="Helvetica,sans-Serif" font-size="10.00">::set::sorted::AtomicSortedSetImpl&lt; E &gt;</text>
</a>
</g>
</g>
<!-- Node1&#45;&gt;Node12 -->
<g id="edge11" class="edge">
<title>Node1&#45;&gt;Node12</title>
<path fill="none" stroke="midnightblue" d="M728.17,-157.97C736.5,-158.99 745.12,-160.04 753.77,-161.1"/>
<polygon fill="midnightblue" stroke="midnightblue" points="728.5,-154.48 718.15,-156.74 727.65,-161.43 728.5,-154.48"/>
</g>
<!-- Node13 -->
<g id="node13" class="node">
<title>Node13</title>
<g id="a_node13"><a xlink:href="../../df/d5f/classjavolution_1_1util_1_1internal_1_1set_1_1sorted_1_1SharedSortedSetImpl.html" target="_top" xlink:title=" ">
<polygon fill="white" stroke="black" points="754,-110 754,-140 966,-140 966,-110 754,-110"/>
<text text-anchor="start" x="762" y="-128" font-family="Helvetica,sans-Serif" font-size="10.00">javolution::util::internal</text>
<text text-anchor="middle" x="860" y="-117" font-family="Helvetica,sans-Serif" font-size="10.00">::set::sorted::SharedSortedSetImpl&lt; E &gt;</text>
</a>
</g>
</g>
<!-- Node1&#45;&gt;Node13 -->
<g id="edge12" class="edge">
<title>Node1&#45;&gt;Node13</title>
<path fill="none" stroke="midnightblue" d="M728.17,-140.39C736.5,-139.41 745.12,-138.4 753.77,-137.38"/>
<polygon fill="midnightblue" stroke="midnightblue" points="727.67,-136.93 718.15,-141.57 728.49,-143.88 727.67,-136.93"/>
</g>
<!-- Node14 -->
<g id="node14" class="node">
<title>Node14</title>
<g id="a_node14"><a xlink:href="../../dd/d26/classjavolution_1_1util_1_1internal_1_1set_1_1sorted_1_1SortedSetView.html" target="_top" xlink:title=" ">
<polygon fill="white" stroke="black" points="770,-61 770,-91 950,-91 950,-61 770,-61"/>
<text text-anchor="start" x="778" y="-79" font-family="Helvetica,sans-Serif" font-size="10.00">javolution::util::internal</text>
<text text-anchor="middle" x="860" y="-68" font-family="Helvetica,sans-Serif" font-size="10.00">::set::sorted::SortedSetView&lt; E &gt;</text>
</a>
</g>
</g>
<!-- Node1&#45;&gt;Node14 -->
<g id="edge13" class="edge">
<title>Node1&#45;&gt;Node14</title>
<path fill="none" stroke="midnightblue" d="M690.1,-129.1C708.64,-119.25 732.05,-107.82 754,-100 763.34,-96.67 773.31,-93.7 783.25,-91.07"/>
<polygon fill="midnightblue" stroke="midnightblue" points="688.28,-126.11 681.15,-133.94 691.61,-132.27 688.28,-126.11"/>
</g>
<!-- Node16 -->
<g id="node16" class="node">
<title>Node16</title>
<g id="a_node16"><a xlink:href="../../d4/d19/classjavolution_1_1util_1_1internal_1_1set_1_1sorted_1_1UnmodifiableSortedSetImpl.html" target="_top" xlink:title=" ">
<polygon fill="white" stroke="black" points="771.5,-0.5 771.5,-41.5 948.5,-41.5 948.5,-0.5 771.5,-0.5"/>
<text text-anchor="start" x="779.5" y="-29.5" font-family="Helvetica,sans-Serif" font-size="10.00">javolution::util::internal</text>
<text text-anchor="start" x="779.5" y="-18.5" font-family="Helvetica,sans-Serif" font-size="10.00">::set::sorted::UnmodifiableSorted</text>
<text text-anchor="middle" x="860" y="-7.5" font-family="Helvetica,sans-Serif" font-size="10.00">SetImpl&lt; E &gt;</text>
</a>
</g>
</g>
<!-- Node1&#45;&gt;Node16 -->
<g id="edge15" class="edge">
<title>Node1&#45;&gt;Node16</title>
<path fill="none" stroke="midnightblue" d="M672.67,-125.7C690.76,-103.4 720.87,-70.38 754,-51 760.05,-47.46 766.55,-44.31 773.24,-41.52"/>
<polygon fill="midnightblue" stroke="midnightblue" points="669.82,-123.66 666.34,-133.67 675.3,-128.01 669.82,-123.66"/>
</g>
<!-- Node2 -->
<g id="node2" class="node">
<title>Node2</title>
<g id="a_node2"><a xlink:href="../../d6/d3e/interfacejavolution_1_1util_1_1service_1_1SetService.html" target="_top" xlink:title=" ">
<polygon fill="white" stroke="black" points="419.5,-156 419.5,-186 547.5,-186 547.5,-156 419.5,-156"/>
<text text-anchor="start" x="427.5" y="-174" font-family="Helvetica,sans-Serif" font-size="10.00">javolution::util::service</text>
<text text-anchor="middle" x="483.5" y="-163" font-family="Helvetica,sans-Serif" font-size="10.00">::SetService&lt; E &gt;</text>
</a>
</g>
</g>
<!-- Node2&#45;&gt;Node1 -->
<g id="edge1" class="edge">
<title>Node2&#45;&gt;Node1</title>
<path fill="none" stroke="midnightblue" d="M557.88,-161.42C568.58,-160.02 579.52,-158.59 589.98,-157.23"/>
<polygon fill="midnightblue" stroke="midnightblue" points="557.19,-157.98 547.72,-162.75 558.09,-164.92 557.19,-157.98"/>
</g>
<!-- Node3 -->
<g id="node3" class="node">
<title>Node3</title>
<g id="a_node3"><a xlink:href="../../dd/d6c/interfacejavolution_1_1util_1_1service_1_1CollectionService.html" target="_top" xlink:title=" ">
<polygon fill="white" stroke="black" points="241,-178 241,-208 377,-208 377,-178 241,-178"/>
<text text-anchor="start" x="249" y="-196" font-family="Helvetica,sans-Serif" font-size="10.00">javolution::util::service</text>
<text text-anchor="middle" x="309" y="-185" font-family="Helvetica,sans-Serif" font-size="10.00">::CollectionService&lt; E &gt;</text>
</a>
</g>
</g>
<!-- Node3&#45;&gt;Node2 -->
<g id="edge2" class="edge">
<title>Node3&#45;&gt;Node2</title>
<path fill="none" stroke="midnightblue" d="M387.39,-183.13C398.12,-181.76 409.03,-180.37 419.45,-179.04"/>
<polygon fill="midnightblue" stroke="midnightblue" points="386.66,-179.69 377.19,-184.43 387.55,-186.64 386.66,-179.69"/>
</g>
<!-- Node4 -->
<g id="node4" class="node">
<title>Node4</title>
<g id="a_node4"><a xlink:title=" ">
<polygon fill="white" stroke="#bfbfbf" points="31,-249.5 31,-268.5 174,-268.5 174,-249.5 31,-249.5"/>
<text text-anchor="middle" x="102.5" y="-256.5" font-family="Helvetica,sans-Serif" font-size="10.00">java::util::Collection&lt; E &gt;</text>
</a>
</g>
</g>
<!-- Node4&#45;&gt;Node3 -->
<g id="edge3" class="edge">
<title>Node4&#45;&gt;Node3</title>
<path fill="none" stroke="midnightblue" d="M177.23,-247.39C186.66,-245.26 196.12,-242.81 205,-240 231.23,-231.7 259.58,-218.42 279.88,-208.09"/>
<polygon fill="midnightblue" stroke="midnightblue" points="176.48,-243.97 167.44,-249.48 177.95,-250.81 176.48,-243.97"/>
</g>
<!-- Node5 -->
<g id="node5" class="node">
<title>Node5</title>
<g id="a_node5"><a xlink:href="../../dd/ded/interfacejavolution_1_1util_1_1function_1_1Splittable.html" target="_top" xlink:title=" ">
<polygon fill="white" stroke="black" points="0,-200 0,-230 205,-230 205,-200 0,-200"/>
<text text-anchor="start" x="8" y="-218" font-family="Helvetica,sans-Serif" font-size="10.00">javolution::util::function</text>
<text text-anchor="middle" x="102.5" y="-207" font-family="Helvetica,sans-Serif" font-size="10.00">::Splittable&lt; CollectionService&lt; E &gt; &gt;</text>
</a>
</g>
</g>
<!-- Node5&#45;&gt;Node3 -->
<g id="edge4" class="edge">
<title>Node5&#45;&gt;Node3</title>
<path fill="none" stroke="midnightblue" d="M215.37,-202.96C224.06,-202.03 232.65,-201.11 240.89,-200.22"/>
<polygon fill="midnightblue" stroke="midnightblue" points="214.72,-199.51 205.15,-204.06 215.47,-206.47 214.72,-199.51"/>
</g>
<!-- Node6 -->
<g id="node6" class="node">
<title>Node6</title>
<g id="a_node6"><a xlink:title=" ">
<polygon fill="white" stroke="#bfbfbf" points="65.5,-161.5 65.5,-180.5 139.5,-180.5 139.5,-161.5 65.5,-161.5"/>
<text text-anchor="middle" x="102.5" y="-168.5" font-family="Helvetica,sans-Serif" font-size="10.00">Serializable</text>
</a>
</g>
</g>
<!-- Node6&#45;&gt;Node3 -->
<g id="edge5" class="edge">
<title>Node6&#45;&gt;Node3</title>
<path fill="none" stroke="midnightblue" d="M149.87,-175.99C176.76,-178.88 211.08,-182.57 240.88,-185.78"/>
<polygon fill="midnightblue" stroke="midnightblue" points="149.91,-172.47 139.59,-174.88 149.16,-179.43 149.91,-172.47"/>
</g>
<!-- Node7 -->
<g id="node7" class="node">
<title>Node7</title>
<g id="a_node7"><a xlink:href="../../d5/d48/classCloneable.html" target="_top" xlink:title=" ">
<polygon fill="white" stroke="black" points="70,-123.5 70,-142.5 135,-142.5 135,-123.5 70,-123.5"/>
<text text-anchor="middle" x="102.5" y="-130.5" font-family="Helvetica,sans-Serif" font-size="10.00">Cloneable</text>
</a>
</g>
</g>
<!-- Node7&#45;&gt;Node3 -->
<g id="edge6" class="edge">
<title>Node7&#45;&gt;Node3</title>
<path fill="none" stroke="midnightblue" d="M144.99,-138.52C163.59,-141.57 185.65,-145.98 205,-152 221.72,-157.2 224.79,-161.38 241,-168 249.16,-171.33 257.95,-174.74 266.39,-177.92"/>
<polygon fill="midnightblue" stroke="midnightblue" points="145.48,-135.06 135.06,-136.97 144.39,-141.97 145.48,-135.06"/>
</g>
<!-- Node8 -->
<g id="node8" class="node">
<title>Node8</title>
<g id="a_node8"><a xlink:title=" ">
<polygon fill="white" stroke="#bfbfbf" points="254,-139.5 254,-158.5 364,-158.5 364,-139.5 254,-139.5"/>
<text text-anchor="middle" x="309" y="-146.5" font-family="Helvetica,sans-Serif" font-size="10.00">java::util::Set&lt; E &gt;</text>
</a>
</g>
</g>
<!-- Node8&#45;&gt;Node2 -->
<g id="edge7" class="edge">
<title>Node8&#45;&gt;Node2</title>
<path fill="none" stroke="midnightblue" d="M374.14,-157.18C388.87,-159.06 404.53,-161.06 419.23,-162.93"/>
<polygon fill="midnightblue" stroke="midnightblue" points="374.47,-153.69 364.11,-155.9 373.58,-160.64 374.47,-153.69"/>
</g>
<!-- Node9 -->
<g id="node9" class="node">
<title>Node9</title>
<g id="a_node9"><a xlink:title=" ">
<polygon fill="white" stroke="#bfbfbf" points="413,-117.5 413,-136.5 554,-136.5 554,-117.5 413,-117.5"/>
<text text-anchor="middle" x="483.5" y="-124.5" font-family="Helvetica,sans-Serif" font-size="10.00">java::util::SortedSet&lt; E &gt;</text>
</a>
</g>
</g>
<!-- Node9&#45;&gt;Node1 -->
<g id="edge8" class="edge">
<title>Node9&#45;&gt;Node1</title>
<path fill="none" stroke="midnightblue" d="M564.1,-137.39C572.75,-138.52 581.45,-139.66 589.86,-140.76"/>
<polygon fill="midnightblue" stroke="midnightblue" points="564.38,-133.9 554.01,-136.08 563.47,-140.84 564.38,-133.9"/>
</g>
<!-- Node15 -->
<g id="node15" class="node">
<title>Node15</title>
<g id="a_node15"><a xlink:href="../../d6/de2/classjavolution_1_1util_1_1internal_1_1set_1_1sorted_1_1SubSortedSetImpl.html" target="_top" xlink:title=" ">
<polygon fill="white" stroke="black" points="1002,-61 1002,-91 1198,-91 1198,-61 1002,-61"/>
<text text-anchor="start" x="1010" y="-79" font-family="Helvetica,sans-Serif" font-size="10.00">javolution::util::internal</text>
<text text-anchor="middle" x="1100" y="-68" font-family="Helvetica,sans-Serif" font-size="10.00">::set::sorted::SubSortedSetImpl&lt; E &gt;</text>
</a>
</g>
</g>
<!-- Node14&#45;&gt;Node15 -->
<g id="edge14" class="edge">
<title>Node14&#45;&gt;Node15</title>
<path fill="none" stroke="midnightblue" d="M960.6,-76C974.17,-76 988.09,-76 1001.62,-76"/>
<polygon fill="midnightblue" stroke="midnightblue" points="960.3,-72.5 950.3,-76 960.3,-79.5 960.3,-72.5"/>
</g>
</g>
</svg>
