<?xml version="1.0" encoding="UTF-8" standalone="no"?>
<!DOCTYPE svg PUBLIC "-//W3C//DTD SVG 1.1//EN"
 "http://www.w3.org/Graphics/SVG/1.1/DTD/svg11.dtd">
<!-- Generated by graphviz version 2.43.0 (0)
 -->
<!-- Title: javolution.io.Struct.Member Pages: 1 -->
<svg width="160pt" height="117pt"
 viewBox="0.00 0.00 160.00 117.00" xmlns="http://www.w3.org/2000/svg" xmlns:xlink="http://www.w3.org/1999/xlink">
<g id="graph0" class="graph" transform="scale(1 1) rotate(0) translate(4 113)">
<title>javolution.io.Struct.Member</title>
<polygon fill="white" stroke="transparent" points="-4,4 -4,-113 156,-113 156,4 -4,4"/>
<!-- Node1 -->
<g id="node1" class="node">
<title>Node1</title>
<g id="a_node1"><a xlink:title=" ">
<polygon fill="#bfbfbf" stroke="black" points="0,-0.5 0,-19.5 152,-19.5 152,-0.5 0,-0.5"/>
<text text-anchor="middle" x="76" y="-7.5" font-family="Helvetica,sans-Serif" font-size="10.00">javolution.io.Struct.Member</text>
</a>
</g>
</g>
<!-- Node2 -->
<g id="node2" class="node">
<title>Node2</title>
<g id="a_node2"><a xlink:title=" ">
<polygon fill="white" stroke="#bfbfbf" points="61.5,-89.5 61.5,-108.5 90.5,-108.5 90.5,-89.5 61.5,-89.5"/>
<text text-anchor="middle" x="76" y="-96.5" font-family="Helvetica,sans-Serif" font-size="10.00">int</text>
</a>
</g>
</g>
<!-- Node2&#45;&gt;Node1 -->
<g id="edge1" class="edge">
<title>Node2&#45;&gt;Node1</title>
<path fill="none" stroke="#9a32cd" stroke-dasharray="5,2" d="M76,-79.19C76,-60.74 76,-33.41 76,-19.62"/>
<polygon fill="#9a32cd" stroke="#9a32cd" points="72.5,-79.34 76,-89.34 79.5,-79.34 72.5,-79.34"/>
<text text-anchor="middle" x="102" y="-63" font-family="Helvetica,sans-Serif" font-size="10.00"> _offset</text>
<text text-anchor="middle" x="102" y="-52" font-family="Helvetica,sans-Serif" font-size="10.00">_bitIndex</text>
<text text-anchor="middle" x="102" y="-41" font-family="Helvetica,sans-Serif" font-size="10.00">_bitLength</text>
</g>
</g>
</svg>
