<?xml version="1.0" encoding="UTF-8" standalone="no"?>
<!DOCTYPE svg PUBLIC "-//W3C//DTD SVG 1.1//EN"
 "http://www.w3.org/Graphics/SVG/1.1/DTD/svg11.dtd">
<!-- Generated by graphviz version 2.43.0 (0)
 -->
<!-- Title: javolution.xml.internal.XMLContextImpl Pages: 1 -->
<svg width="1197pt" height="163pt"
 viewBox="0.00 0.00 1197.00 162.50" xmlns="http://www.w3.org/2000/svg" xmlns:xlink="http://www.w3.org/1999/xlink">
<g id="graph0" class="graph" transform="scale(1 1) rotate(0) translate(4 158.5)">
<title>javolution.xml.internal.XMLContextImpl</title>
<polygon fill="white" stroke="transparent" points="-4,4 -4,-158.5 1193,-158.5 1193,4 -4,4"/>
<!-- Node1 -->
<g id="node1" class="node">
<title>Node1</title>
<g id="a_node1"><a xlink:title=" ">
<polygon fill="#bfbfbf" stroke="black" points="1058,-51 1058,-81 1189,-81 1189,-51 1058,-51"/>
<text text-anchor="start" x="1066" y="-69" font-family="Helvetica,sans-Serif" font-size="10.00">javolution.xml.internal.</text>
<text text-anchor="middle" x="1123.5" y="-58" font-family="Helvetica,sans-Serif" font-size="10.00">XMLContextImpl</text>
</a>
</g>
</g>
<!-- Node2 -->
<g id="node2" class="node">
<title>Node2</title>
<g id="a_node2"><a xlink:href="../../d8/db0/classjavolution_1_1xml_1_1XMLContext.html" target="_top" xlink:title=" ">
<polygon fill="white" stroke="black" points="737.5,-100.5 737.5,-119.5 886.5,-119.5 886.5,-100.5 737.5,-100.5"/>
<text text-anchor="middle" x="812" y="-107.5" font-family="Helvetica,sans-Serif" font-size="10.00">javolution.xml.XMLContext</text>
</a>
</g>
</g>
<!-- Node2&#45;&gt;Node1 -->
<g id="edge1" class="edge">
<title>Node2&#45;&gt;Node1</title>
<path fill="none" stroke="midnightblue" d="M896.86,-100.36C939.75,-95.16 992.75,-88.31 1040,-81 1045.75,-80.11 1051.73,-79.13 1057.7,-78.11"/>
<polygon fill="midnightblue" stroke="midnightblue" points="896.25,-96.91 886.75,-101.58 897.09,-103.86 896.25,-96.91"/>
</g>
<!-- Node3 -->
<g id="node3" class="node">
<title>Node3</title>
<g id="a_node3"><a xlink:href="../../d0/d4f/classjavolution_1_1context_1_1FormatContext.html" target="_top" xlink:title=" ">
<polygon fill="white" stroke="black" points="482,-95 482,-125 625,-125 625,-95 482,-95"/>
<text text-anchor="start" x="490" y="-113" font-family="Helvetica,sans-Serif" font-size="10.00">javolution.context.Format</text>
<text text-anchor="middle" x="553.5" y="-102" font-family="Helvetica,sans-Serif" font-size="10.00">Context</text>
</a>
</g>
</g>
<!-- Node3&#45;&gt;Node2 -->
<g id="edge2" class="edge">
<title>Node3&#45;&gt;Node2</title>
<path fill="none" stroke="midnightblue" d="M635.67,-110C668.25,-110 705.54,-110 737.33,-110"/>
<polygon fill="midnightblue" stroke="midnightblue" points="635.27,-106.5 625.27,-110 635.27,-113.5 635.27,-106.5"/>
</g>
<!-- Node4 -->
<g id="node4" class="node">
<title>Node4</title>
<g id="a_node4"><a xlink:href="../../d3/d0f/classjavolution_1_1context_1_1AbstractContext.html" target="_top" xlink:title=" ">
<polygon fill="white" stroke="black" points="296,-95 296,-125 445,-125 445,-95 296,-95"/>
<text text-anchor="start" x="304" y="-113" font-family="Helvetica,sans-Serif" font-size="10.00">javolution.context.Abstract</text>
<text text-anchor="middle" x="370.5" y="-102" font-family="Helvetica,sans-Serif" font-size="10.00">Context</text>
</a>
</g>
</g>
<!-- Node4&#45;&gt;Node3 -->
<g id="edge3" class="edge">
<title>Node4&#45;&gt;Node3</title>
<path fill="none" stroke="midnightblue" d="M455.15,-110C464.09,-110 473.11,-110 481.87,-110"/>
<polygon fill="midnightblue" stroke="midnightblue" points="455.12,-106.5 445.12,-110 455.12,-113.5 455.12,-106.5"/>
</g>
<!-- Node4&#45;&gt;Node4 -->
<g id="edge5" class="edge">
<title>Node4&#45;&gt;Node4</title>
<path fill="none" stroke="#9a32cd" stroke-dasharray="5,2" d="M354.15,-135.46C356.18,-140.18 361.63,-143.5 370.5,-143.5 385.05,-143.5 390.4,-134.56 386.53,-125.16"/>
<polygon fill="#9a32cd" stroke="#9a32cd" points="357.66,-135.26 354.47,-125.16 350.66,-135.05 357.66,-135.26"/>
<text text-anchor="middle" x="370.5" y="-146.5" font-family="Helvetica,sans-Serif" font-size="10.00"> outer</text>
</g>
<!-- Node5 -->
<g id="node5" class="node">
<title>Node5</title>
<g id="a_node5"><a xlink:title=" ">
<polygon fill="white" stroke="#bfbfbf" points="0,-95 0,-125 209,-125 209,-95 0,-95"/>
<text text-anchor="start" x="8" y="-113" font-family="Helvetica,sans-Serif" font-size="10.00">static final ThreadLocal</text>
<text text-anchor="middle" x="104.5" y="-102" font-family="Helvetica,sans-Serif" font-size="10.00">&lt; javolution.context.AbstractContext &gt;</text>
</a>
</g>
</g>
<!-- Node5&#45;&gt;Node4 -->
<g id="edge4" class="edge">
<title>Node5&#45;&gt;Node4</title>
<path fill="none" stroke="#9a32cd" stroke-dasharray="5,2" d="M219.36,-110C245.32,-110 272.23,-110 295.98,-110"/>
<polygon fill="#9a32cd" stroke="#9a32cd" points="219.08,-106.5 209.08,-110 219.08,-113.5 219.08,-106.5"/>
<text text-anchor="middle" x="252.5" y="-113" font-family="Helvetica,sans-Serif" font-size="10.00"> CURRENT</text>
</g>
<!-- Node6 -->
<g id="node6" class="node">
<title>Node6</title>
<g id="a_node6"><a xlink:href="../../dd/d46/classjavolution_1_1util_1_1FastMap.html" target="_top" xlink:title=" ">
<polygon fill="white" stroke="black" points="690,-51 690,-81 934,-81 934,-51 690,-51"/>
<text text-anchor="start" x="698" y="-69" font-family="Helvetica,sans-Serif" font-size="10.00">javolution.util.FastMap</text>
<text text-anchor="middle" x="812" y="-58" font-family="Helvetica,sans-Serif" font-size="10.00">&lt; Class&lt;?&gt;, javolution.xml.XMLFormat&lt;?&gt; &gt;</text>
</a>
</g>
</g>
<!-- Node6&#45;&gt;Node1 -->
<g id="edge6" class="edge">
<title>Node6&#45;&gt;Node1</title>
<path fill="none" stroke="#9a32cd" stroke-dasharray="5,2" d="M944.87,-66C984.02,-66 1025.17,-66 1057.99,-66"/>
<polygon fill="#9a32cd" stroke="#9a32cd" points="944.43,-62.5 934.43,-66 944.43,-69.5 944.43,-62.5"/>
<text text-anchor="middle" x="996" y="-69" font-family="Helvetica,sans-Serif" font-size="10.00"> formats</text>
</g>
<!-- Node7 -->
<g id="node7" class="node">
<title>Node7</title>
<g id="a_node7"><a xlink:href="../../da/ddf/classjavolution_1_1xml_1_1XMLFormat.html" target="_top" xlink:title=" ">
<polygon fill="white" stroke="black" points="725,-0.5 725,-19.5 899,-19.5 899,-0.5 725,-0.5"/>
<text text-anchor="middle" x="812" y="-7.5" font-family="Helvetica,sans-Serif" font-size="10.00">javolution.xml.XMLFormat&lt; T &gt;</text>
</a>
</g>
</g>
<!-- Node7&#45;&gt;Node1 -->
<g id="edge7" class="edge">
<title>Node7&#45;&gt;Node1</title>
<path fill="none" stroke="#9a32cd" stroke-dasharray="5,2" d="M909.26,-10.89C950.1,-13.1 997.9,-18.14 1040,-29 1059.15,-33.94 1079.44,-42.98 1095.1,-50.89"/>
<polygon fill="#9a32cd" stroke="#9a32cd" points="909.19,-7.38 899.03,-10.38 908.85,-14.37 909.19,-7.38"/>
<text text-anchor="middle" x="996" y="-54" font-family="Helvetica,sans-Serif" font-size="10.00"> MAP_XML</text>
<text text-anchor="middle" x="996" y="-43" font-family="Helvetica,sans-Serif" font-size="10.00">COLLECTION_XML</text>
<text text-anchor="middle" x="996" y="-32" font-family="Helvetica,sans-Serif" font-size="10.00">OBJECT_XML</text>
</g>
<!-- Node8 -->
<g id="node8" class="node">
<title>Node8</title>
<g id="a_node8"><a xlink:title=" ">
<polygon fill="white" stroke="#bfbfbf" points="531,-0.5 531,-19.5 576,-19.5 576,-0.5 531,-0.5"/>
<text text-anchor="middle" x="553.5" y="-7.5" font-family="Helvetica,sans-Serif" font-size="10.00">String</text>
</a>
</g>
</g>
<!-- Node8&#45;&gt;Node7 -->
<g id="edge8" class="edge">
<title>Node8&#45;&gt;Node7</title>
<path fill="none" stroke="#9a32cd" stroke-dasharray="5,2" d="M586.77,-10C621.28,-10 677.44,-10 724.93,-10"/>
<polygon fill="#9a32cd" stroke="#9a32cd" points="586.37,-6.5 576.37,-10 586.37,-13.5 586.37,-6.5"/>
<text text-anchor="middle" x="657.5" y="-13" font-family="Helvetica,sans-Serif" font-size="10.00"> NULL</text>
</g>
</g>
</svg>
