<?xml version="1.0" encoding="UTF-8" standalone="no"?>
<!DOCTYPE svg PUBLIC "-//W3C//DTD SVG 1.1//EN"
 "http://www.w3.org/Graphics/SVG/1.1/DTD/svg11.dtd">
<!-- Generated by graphviz version 2.43.0 (0)
 -->
<!-- Title: javolution.xml.sax.SAX2ReaderImpl.toCharSequence Pages: 1 -->
<svg width="593pt" height="137pt"
 viewBox="0.00 0.00 593.00 137.00" xmlns="http://www.w3.org/2000/svg" xmlns:xlink="http://www.w3.org/1999/xlink">
<g id="graph0" class="graph" transform="scale(1 1) rotate(0) translate(4 133)">
<title>javolution.xml.sax.SAX2ReaderImpl.toCharSequence</title>
<polygon fill="white" stroke="transparent" points="-4,4 -4,-133 589,-133 589,4 -4,4"/>
<!-- Node1 -->
<g id="node1" class="node">
<title>Node1</title>
<g id="a_node1"><a xlink:title=" ">
<polygon fill="#bfbfbf" stroke="black" points="414,-49.5 414,-79.5 585,-79.5 585,-49.5 414,-49.5"/>
<text text-anchor="start" x="422" y="-67.5" font-family="Helvetica,sans-Serif" font-size="10.00">javolution.xml.sax.SAX2Reader</text>
<text text-anchor="middle" x="499.5" y="-56.5" font-family="Helvetica,sans-Serif" font-size="10.00">Impl.toCharSequence</text>
</a>
</g>
</g>
<!-- Node2 -->
<g id="node2" class="node">
<title>Node2</title>
<g id="a_node2"><a xlink:href="../../dc/d8f/classjavolution_1_1xml_1_1sax_1_1SAX2ReaderImpl_1_1Proxy.html#a7377a735db621ee06a72adbd7e9b0606" target="_top" xlink:title=" ">
<polygon fill="white" stroke="black" points="207,-98.5 207,-128.5 378,-128.5 378,-98.5 207,-98.5"/>
<text text-anchor="start" x="215" y="-116.5" font-family="Helvetica,sans-Serif" font-size="10.00">javolution.xml.sax.SAX2Reader</text>
<text text-anchor="middle" x="292.5" y="-105.5" font-family="Helvetica,sans-Serif" font-size="10.00">Impl.Proxy.getIndex</text>
</a>
</g>
</g>
<!-- Node1&#45;&gt;Node2 -->
<g id="edge1" class="edge">
<title>Node1&#45;&gt;Node2</title>
<path fill="none" stroke="midnightblue" d="M425.69,-81.9C403.01,-87.32 378.21,-93.25 356.28,-98.49"/>
<polygon fill="midnightblue" stroke="midnightblue" points="426.69,-85.26 435.6,-79.53 425.06,-78.46 426.69,-85.26"/>
</g>
<!-- Node4 -->
<g id="node4" class="node">
<title>Node4</title>
<g id="a_node4"><a xlink:href="../../dc/d8f/classjavolution_1_1xml_1_1sax_1_1SAX2ReaderImpl_1_1Proxy.html#a0949e1626fb04acdf658573f529e249c" target="_top" xlink:title=" ">
<polygon fill="white" stroke="black" points="207,-49.5 207,-79.5 378,-79.5 378,-49.5 207,-49.5"/>
<text text-anchor="start" x="215" y="-67.5" font-family="Helvetica,sans-Serif" font-size="10.00">javolution.xml.sax.SAX2Reader</text>
<text text-anchor="middle" x="292.5" y="-56.5" font-family="Helvetica,sans-Serif" font-size="10.00">Impl.Proxy.getType</text>
</a>
</g>
</g>
<!-- Node1&#45;&gt;Node4 -->
<g id="edge3" class="edge">
<title>Node1&#45;&gt;Node4</title>
<path fill="none" stroke="midnightblue" d="M403.91,-64.5C395.34,-64.5 386.69,-64.5 378.2,-64.5"/>
<polygon fill="midnightblue" stroke="midnightblue" points="403.94,-68 413.94,-64.5 403.94,-61 403.94,-68"/>
</g>
<!-- Node5 -->
<g id="node5" class="node">
<title>Node5</title>
<g id="a_node5"><a xlink:href="../../dc/d8f/classjavolution_1_1xml_1_1sax_1_1SAX2ReaderImpl_1_1Proxy.html#abd020f26bb98c29444361933a72ab133" target="_top" xlink:title=" ">
<polygon fill="white" stroke="black" points="207,-0.5 207,-30.5 378,-30.5 378,-0.5 207,-0.5"/>
<text text-anchor="start" x="215" y="-18.5" font-family="Helvetica,sans-Serif" font-size="10.00">javolution.xml.sax.SAX2Reader</text>
<text text-anchor="middle" x="292.5" y="-7.5" font-family="Helvetica,sans-Serif" font-size="10.00">Impl.Proxy.getValue</text>
</a>
</g>
</g>
<!-- Node1&#45;&gt;Node5 -->
<g id="edge4" class="edge">
<title>Node1&#45;&gt;Node5</title>
<path fill="none" stroke="midnightblue" d="M425.69,-47.1C403.01,-41.68 378.21,-35.75 356.28,-30.51"/>
<polygon fill="midnightblue" stroke="midnightblue" points="425.06,-50.54 435.6,-49.47 426.69,-43.74 425.06,-50.54"/>
</g>
<!-- Node3 -->
<g id="node3" class="node">
<title>Node3</title>
<g id="a_node3"><a xlink:href="../../dc/d8f/classjavolution_1_1xml_1_1sax_1_1SAX2ReaderImpl_1_1Proxy.html#a185fd35f3fce8f0c056be7e31555be6b" target="_top" xlink:title=" ">
<polygon fill="white" stroke="black" points="0,-98.5 0,-128.5 171,-128.5 171,-98.5 0,-98.5"/>
<text text-anchor="start" x="8" y="-116.5" font-family="Helvetica,sans-Serif" font-size="10.00">javolution.xml.sax.SAX2Reader</text>
<text text-anchor="middle" x="85.5" y="-105.5" font-family="Helvetica,sans-Serif" font-size="10.00">Impl.Proxy.getIndex</text>
</a>
</g>
</g>
<!-- Node2&#45;&gt;Node3 -->
<g id="edge2" class="edge">
<title>Node2&#45;&gt;Node3</title>
<path fill="none" stroke="midnightblue" d="M196.91,-113.5C188.34,-113.5 179.69,-113.5 171.2,-113.5"/>
<polygon fill="midnightblue" stroke="midnightblue" points="196.94,-117 206.94,-113.5 196.94,-110 196.94,-117"/>
</g>
</g>
</svg>
