<?xml version="1.0" encoding="UTF-8" standalone="no"?>
<!DOCTYPE svg PUBLIC "-//W3C//DTD SVG 1.1//EN"
 "http://www.w3.org/Graphics/SVG/1.1/DTD/svg11.dtd">
<!-- Generated by graphviz version 2.43.0 (0)
 -->
<!-- Title: javolution.osgi.internal.OSGiServices.getConfigurableListeners Pages: 1 -->
<svg width="431pt" height="110pt"
 viewBox="0.00 0.00 431.00 110.00" xmlns="http://www.w3.org/2000/svg" xmlns:xlink="http://www.w3.org/1999/xlink">
<g id="graph0" class="graph" transform="scale(1 1) rotate(0) translate(4 106)">
<title>javolution.osgi.internal.OSGiServices.getConfigurableListeners</title>
<polygon fill="white" stroke="transparent" points="-4,4 -4,-106 427,-106 427,4 -4,4"/>
<!-- Node1 -->
<g id="node1" class="node">
<title>Node1</title>
<g id="a_node1"><a xlink:title=" ">
<polygon fill="#bfbfbf" stroke="black" points="217,-36 217,-66 423,-66 423,-36 217,-36"/>
<text text-anchor="start" x="225" y="-54" font-family="Helvetica,sans-Serif" font-size="10.00">javolution.osgi.internal.</text>
<text text-anchor="middle" x="320" y="-43" font-family="Helvetica,sans-Serif" font-size="10.00">OSGiServices.getConfigurableListeners</text>
</a>
</g>
</g>
<!-- Node2 -->
<g id="node2" class="node">
<title>Node2</title>
<g id="a_node2"><a xlink:href="../../d5/dc7/classjavolution_1_1lang_1_1Configurable.html#a9ee63caf2e345a492b8887590bab86b6" target="_top" xlink:title=" ">
<polygon fill="white" stroke="black" points="0,-60.5 0,-101.5 181,-101.5 181,-60.5 0,-60.5"/>
<text text-anchor="start" x="8" y="-89.5" font-family="Helvetica,sans-Serif" font-size="10.00">javolution.lang.Configurable</text>
<text text-anchor="start" x="8" y="-78.5" font-family="Helvetica,sans-Serif" font-size="10.00">&lt; javolution::context::LogContext</text>
<text text-anchor="middle" x="90.5" y="-67.5" font-family="Helvetica,sans-Serif" font-size="10.00">::Level &gt;::Configurable</text>
</a>
</g>
</g>
<!-- Node1&#45;&gt;Node2 -->
<g id="edge1" class="edge">
<title>Node1&#45;&gt;Node2</title>
<path fill="none" stroke="midnightblue" d="M206.8,-65.8C198.19,-66.93 189.56,-68.07 181.12,-69.18"/>
<polygon fill="midnightblue" stroke="midnightblue" points="207.44,-69.24 216.9,-64.46 206.52,-62.3 207.44,-69.24"/>
</g>
<!-- Node3 -->
<g id="node3" class="node">
<title>Node3</title>
<g id="a_node3"><a xlink:href="../../d5/dc7/classjavolution_1_1lang_1_1Configurable.html#a0c40780b7302380c396d6cde82a52183" target="_top" xlink:title=" ">
<polygon fill="white" stroke="black" points="0,-0.5 0,-41.5 181,-41.5 181,-0.5 0,-0.5"/>
<text text-anchor="start" x="8" y="-29.5" font-family="Helvetica,sans-Serif" font-size="10.00">javolution.lang.Configurable</text>
<text text-anchor="start" x="8" y="-18.5" font-family="Helvetica,sans-Serif" font-size="10.00">&lt; javolution::context::LogContext</text>
<text text-anchor="middle" x="90.5" y="-7.5" font-family="Helvetica,sans-Serif" font-size="10.00">::Level &gt;::reconfigure</text>
</a>
</g>
</g>
<!-- Node1&#45;&gt;Node3 -->
<g id="edge2" class="edge">
<title>Node1&#45;&gt;Node3</title>
<path fill="none" stroke="midnightblue" d="M206.8,-36.2C198.19,-35.07 189.56,-33.93 181.12,-32.82"/>
<polygon fill="midnightblue" stroke="midnightblue" points="206.52,-39.7 216.9,-37.54 207.44,-32.76 206.52,-39.7"/>
</g>
</g>
</svg>
