<?xml version="1.0" encoding="UTF-8" standalone="no"?>
<!DOCTYPE svg PUBLIC "-//W3C//DTD SVG 1.1//EN"
 "http://www.w3.org/Graphics/SVG/1.1/DTD/svg11.dtd">
<!-- Generated by graphviz version 2.43.0 (0)
 -->
<!-- Title: javolution.util.internal.table.AtomicTableImpl&lt; E &gt; Pages: 1 -->
<svg width="1339pt" height="365pt"
 viewBox="0.00 0.00 1339.00 365.00" xmlns="http://www.w3.org/2000/svg" xmlns:xlink="http://www.w3.org/1999/xlink">
<g id="graph0" class="graph" transform="scale(1 1) rotate(0) translate(4 361)">
<title>javolution.util.internal.table.AtomicTableImpl&lt; E &gt;</title>
<polygon fill="white" stroke="transparent" points="-4,4 -4,-361 1335,-361 1335,4 -4,4"/>
<!-- Node1 -->
<g id="node1" class="node">
<title>Node1</title>
<g id="a_node1"><a xlink:title=" ">
<polygon fill="#bfbfbf" stroke="black" points="1176,-228 1176,-258 1331,-258 1331,-228 1176,-228"/>
<text text-anchor="start" x="1184" y="-246" font-family="Helvetica,sans-Serif" font-size="10.00">javolution.util.internal.table.</text>
<text text-anchor="middle" x="1253.5" y="-235" font-family="Helvetica,sans-Serif" font-size="10.00">AtomicTableImpl&lt; E &gt;</text>
</a>
</g>
</g>
<!-- Node2 -->
<g id="node2" class="node">
<title>Node2</title>
<g id="a_node2"><a xlink:href="../../d3/d15/classjavolution_1_1util_1_1internal_1_1collection_1_1AtomicCollectionImpl.html" target="_top" xlink:title=" ">
<polygon fill="white" stroke="black" points="930,-228 930,-258 1139,-258 1139,-228 930,-228"/>
<text text-anchor="start" x="938" y="-246" font-family="Helvetica,sans-Serif" font-size="10.00">javolution::util::internal</text>
<text text-anchor="middle" x="1034.5" y="-235" font-family="Helvetica,sans-Serif" font-size="10.00">::collection::AtomicCollectionImpl&lt; E &gt;</text>
</a>
</g>
</g>
<!-- Node2&#45;&gt;Node1 -->
<g id="edge1" class="edge">
<title>Node2&#45;&gt;Node1</title>
<path fill="none" stroke="midnightblue" d="M1149.34,-243C1158.28,-243 1167.18,-243 1175.78,-243"/>
<polygon fill="midnightblue" stroke="midnightblue" points="1149.23,-239.5 1139.23,-243 1149.23,-246.5 1149.23,-239.5"/>
</g>
<!-- Node3 -->
<g id="node3" class="node">
<title>Node3</title>
<g id="a_node3"><a xlink:href="../../d1/d40/classjavolution_1_1util_1_1internal_1_1collection_1_1CollectionView.html" target="_top" xlink:title=" ">
<polygon fill="white" stroke="black" points="637,-165 637,-195 814,-195 814,-165 637,-165"/>
<text text-anchor="start" x="645" y="-183" font-family="Helvetica,sans-Serif" font-size="10.00">javolution::util::internal</text>
<text text-anchor="middle" x="725.5" y="-172" font-family="Helvetica,sans-Serif" font-size="10.00">::collection::CollectionView&lt; E &gt;</text>
</a>
</g>
</g>
<!-- Node3&#45;&gt;Node2 -->
<g id="edge2" class="edge">
<title>Node3&#45;&gt;Node2</title>
<path fill="none" stroke="midnightblue" d="M809.51,-197.04C856.61,-206.7 915.02,-218.69 960.38,-228"/>
<polygon fill="midnightblue" stroke="midnightblue" points="810.14,-193.59 799.64,-195.01 808.74,-200.45 810.14,-193.59"/>
</g>
<!-- Node4 -->
<g id="node4" class="node">
<title>Node4</title>
<g id="a_node4"><a xlink:href="../../dc/d19/classjavolution_1_1util_1_1FastCollection.html" target="_top" xlink:title=" ">
<polygon fill="white" stroke="black" points="326,-167.5 326,-186.5 516,-186.5 516,-167.5 326,-167.5"/>
<text text-anchor="middle" x="421" y="-174.5" font-family="Helvetica,sans-Serif" font-size="10.00">javolution::util::FastCollection&lt; E &gt;</text>
</a>
</g>
</g>
<!-- Node4&#45;&gt;Node3 -->
<g id="edge3" class="edge">
<title>Node4&#45;&gt;Node3</title>
<path fill="none" stroke="midnightblue" d="M526.12,-178.03C562.23,-178.39 602.32,-178.79 636.95,-179.13"/>
<polygon fill="midnightblue" stroke="midnightblue" points="526.09,-174.53 516.05,-177.93 526.02,-181.53 526.09,-174.53"/>
</g>
<!-- Node5 -->
<g id="node5" class="node">
<title>Node5</title>
<g id="a_node5"><a xlink:title=" ">
<polygon fill="white" stroke="#bfbfbf" points="31,-139.5 31,-158.5 174,-158.5 174,-139.5 31,-139.5"/>
<text text-anchor="middle" x="102.5" y="-146.5" font-family="Helvetica,sans-Serif" font-size="10.00">java::util::Collection&lt; E &gt;</text>
</a>
</g>
</g>
<!-- Node5&#45;&gt;Node4 -->
<g id="edge4" class="edge">
<title>Node5&#45;&gt;Node4</title>
<path fill="none" stroke="midnightblue" d="M184.31,-156.15C227.47,-159.97 280.83,-164.69 325.86,-168.67"/>
<polygon fill="midnightblue" stroke="midnightblue" points="184.4,-152.64 174.13,-155.25 183.79,-159.62 184.4,-152.64"/>
</g>
<!-- Node8 -->
<g id="node8" class="node">
<title>Node8</title>
<g id="a_node8"><a xlink:href="../../dd/d6c/interfacejavolution_1_1util_1_1service_1_1CollectionService.html" target="_top" xlink:title=" ">
<polygon fill="white" stroke="black" points="353,-115 353,-145 489,-145 489,-115 353,-115"/>
<text text-anchor="start" x="361" y="-133" font-family="Helvetica,sans-Serif" font-size="10.00">javolution::util::service</text>
<text text-anchor="middle" x="421" y="-122" font-family="Helvetica,sans-Serif" font-size="10.00">::CollectionService&lt; E &gt;</text>
</a>
</g>
</g>
<!-- Node5&#45;&gt;Node8 -->
<g id="edge8" class="edge">
<title>Node5&#45;&gt;Node8</title>
<path fill="none" stroke="midnightblue" d="M184.51,-143.46C197.38,-142.61 210.55,-141.76 223,-141 266.25,-138.34 314.86,-135.63 352.97,-133.56"/>
<polygon fill="midnightblue" stroke="midnightblue" points="184.01,-139.98 174.26,-144.13 184.47,-146.97 184.01,-139.98"/>
</g>
<!-- Node6 -->
<g id="node6" class="node">
<title>Node6</title>
<g id="a_node6"><a xlink:title=" ">
<polygon fill="white" stroke="#bfbfbf" points="65.5,-185.5 65.5,-204.5 139.5,-204.5 139.5,-185.5 65.5,-185.5"/>
<text text-anchor="middle" x="102.5" y="-192.5" font-family="Helvetica,sans-Serif" font-size="10.00">Serializable</text>
</a>
</g>
</g>
<!-- Node6&#45;&gt;Node4 -->
<g id="edge5" class="edge">
<title>Node6&#45;&gt;Node4</title>
<path fill="none" stroke="midnightblue" d="M149.81,-194.26C191.29,-193.39 253.76,-191.59 308,-188 314.53,-187.57 321.27,-187.06 328.05,-186.51"/>
<polygon fill="midnightblue" stroke="midnightblue" points="149.66,-190.76 139.74,-194.46 149.8,-197.76 149.66,-190.76"/>
</g>
<!-- Node6&#45;&gt;Node8 -->
<g id="edge10" class="edge">
<title>Node6&#45;&gt;Node8</title>
<path fill="none" stroke="midnightblue" d="M149.7,-185.51C203.22,-174.52 291.86,-156.32 352.96,-143.77"/>
<polygon fill="midnightblue" stroke="midnightblue" points="148.9,-182.1 139.81,-187.54 150.31,-188.96 148.9,-182.1"/>
</g>
<!-- Node7 -->
<g id="node7" class="node">
<title>Node7</title>
<g id="a_node7"><a xlink:title=" ">
<polygon fill="white" stroke="#bfbfbf" points="56.5,-270.5 56.5,-289.5 148.5,-289.5 148.5,-270.5 56.5,-270.5"/>
<text text-anchor="middle" x="102.5" y="-277.5" font-family="Helvetica,sans-Serif" font-size="10.00">static final long</text>
</a>
</g>
</g>
<!-- Node7&#45;&gt;Node1 -->
<g id="edge22" class="edge">
<title>Node7&#45;&gt;Node1</title>
<path fill="none" stroke="#9a32cd" stroke-dasharray="5,2" d="M140.15,-292.77C198.58,-311.95 316.8,-346 420,-346 420,-346 420,-346 1035.5,-346 1116.4,-346 1199.31,-286.85 1234.72,-258.2"/>
<polygon fill="#9a32cd" stroke="#9a32cd" points="141.21,-289.43 130.62,-289.6 139,-296.08 141.21,-289.43"/>
<text text-anchor="middle" x="725.5" y="-349" font-family="Helvetica,sans-Serif" font-size="10.00"> serialVersionUID</text>
</g>
<!-- Node7&#45;&gt;Node2 -->
<g id="edge16" class="edge">
<title>Node7&#45;&gt;Node2</title>
<path fill="none" stroke="#9a32cd" stroke-dasharray="5,2" d="M158.88,-282.31C278.55,-286.8 570.2,-295.12 814,-281 857.76,-278.47 868.77,-277.21 912,-270 931.61,-266.73 952.82,-262.32 971.94,-258.02"/>
<polygon fill="#9a32cd" stroke="#9a32cd" points="158.98,-278.81 148.85,-281.92 158.71,-285.8 158.98,-278.81"/>
<text text-anchor="middle" x="576.5" y="-291" font-family="Helvetica,sans-Serif" font-size="10.00"> serialVersionUID</text>
</g>
<!-- Node7&#45;&gt;Node3 -->
<g id="edge13" class="edge">
<title>Node7&#45;&gt;Node3</title>
<path fill="none" stroke="#9a32cd" stroke-dasharray="5,2" d="M158.56,-277.09C273.8,-270.41 536.55,-251.87 619,-218 628.13,-214.25 628.12,-209.31 637,-205 644.82,-201.21 653.31,-197.89 661.84,-195.02"/>
<polygon fill="#9a32cd" stroke="#9a32cd" points="158.33,-273.6 148.54,-277.67 158.73,-280.59 158.33,-273.6"/>
<text text-anchor="middle" x="421" y="-267" font-family="Helvetica,sans-Serif" font-size="10.00"> serialVersionUID</text>
</g>
<!-- Node7&#45;&gt;Node4 -->
<g id="edge6" class="edge">
<title>Node7&#45;&gt;Node4</title>
<path fill="none" stroke="#9a32cd" stroke-dasharray="5,2" d="M139.24,-266.81C162.98,-258.05 194.85,-246.32 223,-236 260.76,-222.16 271.07,-220.91 308,-205 316.21,-201.46 317.54,-198.91 326,-196 337.02,-192.21 349.04,-189.07 360.69,-186.51"/>
<polygon fill="#9a32cd" stroke="#9a32cd" points="137.77,-263.62 129.6,-270.36 140.19,-270.19 137.77,-263.62"/>
<text text-anchor="middle" x="265.5" y="-239" font-family="Helvetica,sans-Serif" font-size="10.00"> serialVersionUID</text>
</g>
<!-- Node8&#45;&gt;Node3 -->
<g id="edge7" class="edge">
<title>Node8&#45;&gt;Node3</title>
<path fill="none" stroke="midnightblue" d="M499.04,-142.73C541.08,-149.68 593.28,-158.31 636.86,-165.51"/>
<polygon fill="midnightblue" stroke="midnightblue" points="499.57,-139.27 489.13,-141.1 498.43,-146.18 499.57,-139.27"/>
</g>
<!-- Node14 -->
<g id="node14" class="node">
<title>Node14</title>
<g id="a_node14"><a xlink:href="../../df/d88/interfacejavolution_1_1util_1_1service_1_1TableService.html" target="_top" xlink:title=" ">
<polygon fill="white" stroke="black" points="661.5,-71 661.5,-101 789.5,-101 789.5,-71 661.5,-71"/>
<text text-anchor="start" x="669.5" y="-89" font-family="Helvetica,sans-Serif" font-size="10.00">javolution::util::service</text>
<text text-anchor="middle" x="725.5" y="-78" font-family="Helvetica,sans-Serif" font-size="10.00">::TableService&lt; E &gt;</text>
</a>
</g>
</g>
<!-- Node8&#45;&gt;Node14 -->
<g id="edge18" class="edge">
<title>Node8&#45;&gt;Node14</title>
<path fill="none" stroke="midnightblue" d="M499.31,-118.76C549.57,-111.44 614.28,-102.03 661.43,-95.17"/>
<polygon fill="midnightblue" stroke="midnightblue" points="498.53,-115.33 489.13,-120.23 499.53,-122.26 498.53,-115.33"/>
</g>
<!-- Node9 -->
<g id="node9" class="node">
<title>Node9</title>
<g id="a_node9"><a xlink:href="../../dd/ded/interfacejavolution_1_1util_1_1function_1_1Splittable.html" target="_top" xlink:title=" ">
<polygon fill="white" stroke="black" points="0,-87 0,-117 205,-117 205,-87 0,-87"/>
<text text-anchor="start" x="8" y="-105" font-family="Helvetica,sans-Serif" font-size="10.00">javolution::util::function</text>
<text text-anchor="middle" x="102.5" y="-94" font-family="Helvetica,sans-Serif" font-size="10.00">::Splittable&lt; CollectionService&lt; E &gt; &gt;</text>
</a>
</g>
</g>
<!-- Node9&#45;&gt;Node8 -->
<g id="edge9" class="edge">
<title>Node9&#45;&gt;Node8</title>
<path fill="none" stroke="midnightblue" d="M215.39,-111.9C261.27,-115.96 312.85,-120.52 352.75,-124.05"/>
<polygon fill="midnightblue" stroke="midnightblue" points="215.65,-108.41 205.38,-111.01 215.04,-115.38 215.65,-108.41"/>
</g>
<!-- Node10 -->
<g id="node10" class="node">
<title>Node10</title>
<g id="a_node10"><a xlink:href="../../d5/d48/classCloneable.html" target="_top" xlink:title=" ">
<polygon fill="white" stroke="black" points="70,-48.5 70,-67.5 135,-67.5 135,-48.5 70,-48.5"/>
<text text-anchor="middle" x="102.5" y="-55.5" font-family="Helvetica,sans-Serif" font-size="10.00">Cloneable</text>
</a>
</g>
</g>
<!-- Node10&#45;&gt;Node8 -->
<g id="edge11" class="edge">
<title>Node10&#45;&gt;Node8</title>
<path fill="none" stroke="midnightblue" d="M145.24,-65.26C163.61,-68.6 185.43,-72.76 205,-77 258.73,-88.64 319.52,-103.81 362.71,-114.94"/>
<polygon fill="midnightblue" stroke="midnightblue" points="145.6,-61.77 135.14,-63.45 144.36,-68.66 145.6,-61.77"/>
</g>
<!-- Node11 -->
<g id="node11" class="node">
<title>Node11</title>
<g id="a_node11"><a xlink:title=" ">
<polygon fill="white" stroke="#bfbfbf" points="356,-205.5 356,-224.5 486,-224.5 486,-205.5 356,-205.5"/>
<text text-anchor="middle" x="421" y="-212.5" font-family="Helvetica,sans-Serif" font-size="10.00">CollectionService&lt; E &gt;</text>
</a>
</g>
</g>
<!-- Node11&#45;&gt;Node3 -->
<g id="edge12" class="edge">
<title>Node11&#45;&gt;Node3</title>
<path fill="none" stroke="#9a32cd" stroke-dasharray="5,2" d="M496.51,-206.88C533.38,-202.81 578.54,-197.75 619,-193 624.77,-192.32 630.72,-191.61 636.72,-190.89"/>
<polygon fill="#9a32cd" stroke="#9a32cd" points="495.9,-203.43 486.35,-208 496.67,-210.39 495.9,-203.43"/>
<text text-anchor="middle" x="576.5" y="-206" font-family="Helvetica,sans-Serif" font-size="10.00"> target</text>
</g>
<!-- Node12 -->
<g id="node12" class="node">
<title>Node12</title>
<g id="a_node12"><a xlink:title=" ">
<polygon fill="white" stroke="#bfbfbf" points="640.5,-252.5 640.5,-271.5 810.5,-271.5 810.5,-252.5 640.5,-252.5"/>
<text text-anchor="middle" x="725.5" y="-259.5" font-family="Helvetica,sans-Serif" font-size="10.00">volatile CollectionService&lt; E &gt;</text>
</a>
</g>
</g>
<!-- Node12&#45;&gt;Node2 -->
<g id="edge14" class="edge">
<title>Node12&#45;&gt;Node2</title>
<path fill="none" stroke="#9a32cd" stroke-dasharray="5,2" d="M820.88,-256.16C855.42,-254.02 894.67,-251.59 929.97,-249.41"/>
<polygon fill="#9a32cd" stroke="#9a32cd" points="820.56,-252.67 810.8,-256.78 820.99,-259.66 820.56,-252.67"/>
<text text-anchor="middle" x="872" y="-258" font-family="Helvetica,sans-Serif" font-size="10.00"> immutable</text>
</g>
<!-- Node13 -->
<g id="node13" class="node">
<title>Node13</title>
<g id="a_node13"><a xlink:title=" ">
<polygon fill="white" stroke="#bfbfbf" points="677,-214.5 677,-233.5 774,-233.5 774,-214.5 677,-214.5"/>
<text text-anchor="middle" x="725.5" y="-221.5" font-family="Helvetica,sans-Serif" font-size="10.00">transient Thread</text>
</a>
</g>
</g>
<!-- Node13&#45;&gt;Node2 -->
<g id="edge15" class="edge">
<title>Node13&#45;&gt;Node2</title>
<path fill="none" stroke="#9a32cd" stroke-dasharray="5,2" d="M784.16,-227.32C820.78,-229.46 869.18,-232.32 912,-235 917.8,-235.36 923.76,-235.74 929.77,-236.12"/>
<polygon fill="#9a32cd" stroke="#9a32cd" points="784.35,-223.83 774.16,-226.74 783.94,-230.82 784.35,-223.83"/>
<text text-anchor="middle" x="872" y="-238" font-family="Helvetica,sans-Serif" font-size="10.00"> updatingThread</text>
</g>
<!-- Node14&#45;&gt;Node1 -->
<g id="edge17" class="edge">
<title>Node14&#45;&gt;Node1</title>
<path fill="none" stroke="midnightblue" d="M786.72,-103.97C891.37,-135.21 1104.94,-198.96 1202.22,-227.99"/>
<polygon fill="midnightblue" stroke="midnightblue" points="787.52,-100.56 776.94,-101.05 785.52,-107.27 787.52,-100.56"/>
</g>
<!-- Node15 -->
<g id="node15" class="node">
<title>Node15</title>
<g id="a_node15"><a xlink:title=" ">
<polygon fill="white" stroke="#bfbfbf" points="365.5,-76.5 365.5,-95.5 476.5,-95.5 476.5,-76.5 365.5,-76.5"/>
<text text-anchor="middle" x="421" y="-83.5" font-family="Helvetica,sans-Serif" font-size="10.00">java::util::List&lt; E &gt;</text>
</a>
</g>
</g>
<!-- Node15&#45;&gt;Node14 -->
<g id="edge19" class="edge">
<title>Node15&#45;&gt;Node14</title>
<path fill="none" stroke="midnightblue" d="M486.83,-86C538.47,-86 610.34,-86 661.5,-86"/>
<polygon fill="midnightblue" stroke="midnightblue" points="486.78,-82.5 476.78,-86 486.78,-89.5 486.78,-82.5"/>
</g>
<!-- Node16 -->
<g id="node16" class="node">
<title>Node16</title>
<g id="a_node16"><a xlink:title=" ">
<polygon fill="white" stroke="#bfbfbf" points="358.5,-38.5 358.5,-57.5 483.5,-57.5 483.5,-38.5 358.5,-38.5"/>
<text text-anchor="middle" x="421" y="-45.5" font-family="Helvetica,sans-Serif" font-size="10.00">java::util::Deque&lt; E &gt;</text>
</a>
</g>
</g>
<!-- Node16&#45;&gt;Node14 -->
<g id="edge20" class="edge">
<title>Node16&#45;&gt;Node14</title>
<path fill="none" stroke="midnightblue" d="M493.54,-56.99C544.55,-63.39 612.47,-71.93 661.45,-78.08"/>
<polygon fill="midnightblue" stroke="midnightblue" points="493.94,-53.51 483.58,-55.74 493.07,-60.45 493.94,-53.51"/>
</g>
<!-- Node17 -->
<g id="node17" class="node">
<title>Node17</title>
<g id="a_node17"><a xlink:title=" ">
<polygon fill="white" stroke="#bfbfbf" points="375.5,-0.5 375.5,-19.5 466.5,-19.5 466.5,-0.5 375.5,-0.5"/>
<text text-anchor="middle" x="421" y="-7.5" font-family="Helvetica,sans-Serif" font-size="10.00">RandomAccess</text>
</a>
</g>
</g>
<!-- Node17&#45;&gt;Node14 -->
<g id="edge21" class="edge">
<title>Node17&#45;&gt;Node14</title>
<path fill="none" stroke="midnightblue" d="M476.75,-20.42C489.66,-23.05 503.35,-26 516,-29 570.04,-41.83 631.28,-58.88 673.34,-70.98"/>
<polygon fill="midnightblue" stroke="midnightblue" points="477.1,-16.92 466.6,-18.38 475.72,-23.78 477.1,-16.92"/>
</g>
</g>
</svg>
