<?xml version="1.0" encoding="UTF-8" standalone="no"?>
<!DOCTYPE svg PUBLIC "-//W3C//DTD SVG 1.1//EN"
 "http://www.w3.org/Graphics/SVG/1.1/DTD/svg11.dtd">
<!-- Generated by graphviz version 2.43.0 (0)
 -->
<!-- Title: javolution.text.CharArray Pages: 1 -->
<svg width="403pt" height="106pt"
 viewBox="0.00 0.00 403.00 106.00" xmlns="http://www.w3.org/2000/svg" xmlns:xlink="http://www.w3.org/1999/xlink">
<g id="graph0" class="graph" transform="scale(1 1) rotate(0) translate(4 102)">
<title>javolution.text.CharArray</title>
<polygon fill="white" stroke="transparent" points="-4,4 -4,-102 399,-102 399,4 -4,4"/>
<!-- Node1 -->
<g id="node1" class="node">
<title>Node1</title>
<g id="a_node1"><a xlink:title=" ">
<polygon fill="#bfbfbf" stroke="black" points="172,-0.5 172,-19.5 312,-19.5 312,-0.5 172,-0.5"/>
<text text-anchor="middle" x="242" y="-7.5" font-family="Helvetica,sans-Serif" font-size="10.00">javolution.text.CharArray</text>
</a>
</g>
</g>
<!-- Node2 -->
<g id="node2" class="node">
<title>Node2</title>
<g id="a_node2"><a xlink:title=" ">
<polygon fill="white" stroke="#bfbfbf" points="0,-78.5 0,-97.5 86,-97.5 86,-78.5 0,-78.5"/>
<text text-anchor="middle" x="43" y="-85.5" font-family="Helvetica,sans-Serif" font-size="10.00">CharSequence</text>
</a>
</g>
</g>
<!-- Node2&#45;&gt;Node1 -->
<g id="edge1" class="edge">
<title>Node2&#45;&gt;Node1</title>
<path fill="none" stroke="midnightblue" d="M74.85,-74.84C115.36,-59.37 184.29,-33.04 219.64,-19.54"/>
<polygon fill="midnightblue" stroke="midnightblue" points="73.53,-71.59 65.44,-78.43 76.03,-78.13 73.53,-71.59"/>
</g>
<!-- Node3 -->
<g id="node3" class="node">
<title>Node3</title>
<g id="a_node3"><a xlink:href="../../db/d26/classComparable.html" target="_top" xlink:title=" ">
<polygon fill="white" stroke="black" points="104,-78.5 104,-97.5 272,-97.5 272,-78.5 104,-78.5"/>
<text text-anchor="middle" x="188" y="-85.5" font-family="Helvetica,sans-Serif" font-size="10.00">Comparable&lt; CharSequence &gt;</text>
</a>
</g>
</g>
<!-- Node3&#45;&gt;Node1 -->
<g id="edge2" class="edge">
<title>Node3&#45;&gt;Node1</title>
<path fill="none" stroke="midnightblue" d="M200.07,-70.01C211.18,-54.37 227.21,-31.81 235.88,-19.62"/>
<polygon fill="midnightblue" stroke="midnightblue" points="197.13,-68.1 194.19,-78.28 202.84,-72.16 197.13,-68.1"/>
</g>
<!-- Node4 -->
<g id="node4" class="node">
<title>Node4</title>
<g id="a_node4"><a xlink:title=" ">
<polygon fill="white" stroke="#bfbfbf" points="290,-78.5 290,-97.5 328,-97.5 328,-78.5 290,-78.5"/>
<text text-anchor="middle" x="309" y="-85.5" font-family="Helvetica,sans-Serif" font-size="10.00">char</text>
</a>
</g>
</g>
<!-- Node4&#45;&gt;Node1 -->
<g id="edge3" class="edge">
<title>Node4&#45;&gt;Node1</title>
<path fill="none" stroke="#9a32cd" stroke-dasharray="5,2" d="M294.4,-70.44C280.61,-54.79 260.45,-31.93 249.6,-19.62"/>
<polygon fill="#9a32cd" stroke="#9a32cd" points="292.08,-73.1 301.31,-78.28 297.33,-68.47 292.08,-73.1"/>
<text text-anchor="middle" x="309" y="-52" font-family="Helvetica,sans-Serif" font-size="10.00"> NO_CHAR</text>
<text text-anchor="middle" x="309" y="-41" font-family="Helvetica,sans-Serif" font-size="10.00">_array</text>
</g>
<!-- Node5 -->
<g id="node5" class="node">
<title>Node5</title>
<g id="a_node5"><a xlink:title=" ">
<polygon fill="white" stroke="#bfbfbf" points="357.5,-78.5 357.5,-97.5 386.5,-97.5 386.5,-78.5 357.5,-78.5"/>
<text text-anchor="middle" x="372" y="-85.5" font-family="Helvetica,sans-Serif" font-size="10.00">int</text>
</a>
</g>
</g>
<!-- Node5&#45;&gt;Node1 -->
<g id="edge4" class="edge">
<title>Node5&#45;&gt;Node1</title>
<path fill="none" stroke="#9a32cd" stroke-dasharray="5,2" d="M363.98,-69.19C358.39,-58.67 349.97,-45.91 339,-38 327.09,-29.41 312.55,-23.55 298.39,-19.56"/>
<polygon fill="#9a32cd" stroke="#9a32cd" points="360.93,-70.91 368.47,-78.35 367.22,-67.83 360.93,-70.91"/>
<text text-anchor="middle" x="376.5" y="-52" font-family="Helvetica,sans-Serif" font-size="10.00"> _offset</text>
<text text-anchor="middle" x="376.5" y="-41" font-family="Helvetica,sans-Serif" font-size="10.00">_length</text>
</g>
</g>
</svg>
