<?xml version="1.0" encoding="UTF-8" standalone="no"?>
<!DOCTYPE svg PUBLIC "-//W3C//DTD SVG 1.1//EN"
 "http://www.w3.org/Graphics/SVG/1.1/DTD/svg11.dtd">
<!-- Generated by graphviz version 2.43.0 (0)
 -->
<!-- Title: javolution.osgi.internal.LogServiceImpl Pages: 1 -->
<svg width="148pt" height="95pt"
 viewBox="0.00 0.00 148.00 95.00" xmlns="http://www.w3.org/2000/svg" xmlns:xlink="http://www.w3.org/1999/xlink">
<g id="graph0" class="graph" transform="scale(1 1) rotate(0) translate(4 91)">
<title>javolution.osgi.internal.LogServiceImpl</title>
<polygon fill="white" stroke="transparent" points="-4,4 -4,-91 144,-91 144,4 -4,4"/>
<!-- Node1 -->
<g id="node1" class="node">
<title>Node1</title>
<g id="a_node1"><a xlink:title=" ">
<polygon fill="#bfbfbf" stroke="black" points="0,-0.5 0,-30.5 132,-30.5 132,-0.5 0,-0.5"/>
<text text-anchor="start" x="8" y="-18.5" font-family="Helvetica,sans-Serif" font-size="10.00">javolution.osgi.internal.</text>
<text text-anchor="middle" x="66" y="-7.5" font-family="Helvetica,sans-Serif" font-size="10.00">LogServiceImpl</text>
</a>
</g>
</g>
<!-- Node2 -->
<g id="node2" class="node">
<title>Node2</title>
<g id="a_node2"><a xlink:href="../../d0/d51/classThread.html" target="_top" xlink:title=" ">
<polygon fill="white" stroke="black" points="2,-67.5 2,-86.5 52,-86.5 52,-67.5 2,-67.5"/>
<text text-anchor="middle" x="27" y="-74.5" font-family="Helvetica,sans-Serif" font-size="10.00">Thread</text>
</a>
</g>
</g>
<!-- Node2&#45;&gt;Node1 -->
<g id="edge1" class="edge">
<title>Node2&#45;&gt;Node1</title>
<path fill="none" stroke="midnightblue" d="M38.17,-58.96C44.07,-49.96 51.23,-39.03 56.81,-30.52"/>
<polygon fill="midnightblue" stroke="midnightblue" points="35.14,-57.19 32.59,-67.48 41,-61.03 35.14,-57.19"/>
</g>
<!-- Node3 -->
<g id="node3" class="node">
<title>Node3</title>
<g id="a_node3"><a xlink:title=" ">
<polygon fill="white" stroke="#bfbfbf" points="70,-67.5 70,-86.5 140,-86.5 140,-67.5 70,-67.5"/>
<text text-anchor="middle" x="105" y="-74.5" font-family="Helvetica,sans-Serif" font-size="10.00">LogService</text>
</a>
</g>
</g>
<!-- Node3&#45;&gt;Node1 -->
<g id="edge2" class="edge">
<title>Node3&#45;&gt;Node1</title>
<path fill="none" stroke="midnightblue" d="M93.83,-58.96C87.93,-49.96 80.77,-39.03 75.19,-30.52"/>
<polygon fill="midnightblue" stroke="midnightblue" points="91,-61.03 99.41,-67.48 96.86,-57.19 91,-61.03"/>
</g>
</g>
</svg>
