<?xml version="1.0" encoding="UTF-8" standalone="no"?>
<!DOCTYPE svg PUBLIC "-//W3C//DTD SVG 1.1//EN"
 "http://www.w3.org/Graphics/SVG/1.1/DTD/svg11.dtd">
<!-- Generated by graphviz version 2.43.0 (0)
 -->
<!-- Title: javolution.util.internal.collection.SequentialCollectionImpl&lt; E &gt; Pages: 1 -->
<svg width="866pt" height="154pt"
 viewBox="0.00 0.00 866.00 154.00" xmlns="http://www.w3.org/2000/svg" xmlns:xlink="http://www.w3.org/1999/xlink">
<g id="graph0" class="graph" transform="scale(1 1) rotate(0) translate(4 150)">
<title>javolution.util.internal.collection.SequentialCollectionImpl&lt; E &gt;</title>
<polygon fill="white" stroke="transparent" points="-4,4 -4,-150 862,-150 862,4 -4,4"/>
<!-- Node1 -->
<g id="node1" class="node">
<title>Node1</title>
<g id="a_node1"><a xlink:title=" ">
<polygon fill="#bfbfbf" stroke="black" points="680,-80 680,-110 858,-110 858,-80 680,-80"/>
<text text-anchor="start" x="688" y="-98" font-family="Helvetica,sans-Serif" font-size="10.00">javolution.util.internal.collection.</text>
<text text-anchor="middle" x="769" y="-87" font-family="Helvetica,sans-Serif" font-size="10.00">SequentialCollectionImpl&lt; E &gt;</text>
</a>
</g>
</g>
<!-- Node2 -->
<g id="node2" class="node">
<title>Node2</title>
<g id="a_node2"><a xlink:href="../../d1/d40/classjavolution_1_1util_1_1internal_1_1collection_1_1CollectionView.html" target="_top" xlink:title=" ">
<polygon fill="white" stroke="black" points="467,-80 467,-110 644,-110 644,-80 467,-80"/>
<text text-anchor="start" x="475" y="-98" font-family="Helvetica,sans-Serif" font-size="10.00">javolution::util::internal</text>
<text text-anchor="middle" x="555.5" y="-87" font-family="Helvetica,sans-Serif" font-size="10.00">::collection::CollectionView&lt; E &gt;</text>
</a>
</g>
</g>
<!-- Node2&#45;&gt;Node1 -->
<g id="edge1" class="edge">
<title>Node2&#45;&gt;Node1</title>
<path fill="none" stroke="midnightblue" d="M654.08,-95C662.67,-95 671.33,-95 679.83,-95"/>
<polygon fill="midnightblue" stroke="midnightblue" points="654.05,-91.5 644.05,-95 654.05,-98.5 654.05,-91.5"/>
</g>
<!-- Node3 -->
<g id="node3" class="node">
<title>Node3</title>
<g id="a_node3"><a xlink:href="../../dc/d19/classjavolution_1_1util_1_1FastCollection.html" target="_top" xlink:title=" ">
<polygon fill="white" stroke="black" points="241,-107.5 241,-126.5 431,-126.5 431,-107.5 241,-107.5"/>
<text text-anchor="middle" x="336" y="-114.5" font-family="Helvetica,sans-Serif" font-size="10.00">javolution::util::FastCollection&lt; E &gt;</text>
</a>
</g>
</g>
<!-- Node3&#45;&gt;Node2 -->
<g id="edge2" class="edge">
<title>Node3&#45;&gt;Node2</title>
<path fill="none" stroke="midnightblue" d="M441.15,-106.46C449.72,-105.6 458.32,-104.73 466.74,-103.88"/>
<polygon fill="midnightblue" stroke="midnightblue" points="440.73,-102.99 431.13,-107.48 441.44,-109.95 440.73,-102.99"/>
</g>
<!-- Node4 -->
<g id="node4" class="node">
<title>Node4</title>
<g id="a_node4"><a xlink:title=" ">
<polygon fill="white" stroke="#bfbfbf" points="31,-126.5 31,-145.5 174,-145.5 174,-126.5 31,-126.5"/>
<text text-anchor="middle" x="102.5" y="-133.5" font-family="Helvetica,sans-Serif" font-size="10.00">java::util::Collection&lt; E &gt;</text>
</a>
</g>
</g>
<!-- Node4&#45;&gt;Node3 -->
<g id="edge3" class="edge">
<title>Node4&#45;&gt;Node3</title>
<path fill="none" stroke="midnightblue" d="M184.22,-129.37C202.5,-127.88 222.06,-126.27 240.83,-124.73"/>
<polygon fill="midnightblue" stroke="midnightblue" points="183.9,-125.89 174.22,-130.2 184.47,-132.87 183.9,-125.89"/>
</g>
<!-- Node6 -->
<g id="node6" class="node">
<title>Node6</title>
<g id="a_node6"><a xlink:href="../../dd/d6c/interfacejavolution_1_1util_1_1service_1_1CollectionService.html" target="_top" xlink:title=" ">
<polygon fill="white" stroke="black" points="268,-58 268,-88 404,-88 404,-58 268,-58"/>
<text text-anchor="start" x="276" y="-76" font-family="Helvetica,sans-Serif" font-size="10.00">javolution::util::service</text>
<text text-anchor="middle" x="336" y="-65" font-family="Helvetica,sans-Serif" font-size="10.00">::CollectionService&lt; E &gt;</text>
</a>
</g>
</g>
<!-- Node4&#45;&gt;Node6 -->
<g id="edge6" class="edge">
<title>Node4&#45;&gt;Node6</title>
<path fill="none" stroke="midnightblue" d="M180.24,-124.19C188.69,-122.14 197.09,-119.76 205,-117 222.08,-111.05 224.15,-104.59 241,-98 250.44,-94.31 260.61,-90.98 270.66,-88.03"/>
<polygon fill="midnightblue" stroke="midnightblue" points="179.29,-120.82 170.32,-126.46 180.84,-127.64 179.29,-120.82"/>
</g>
<!-- Node5 -->
<g id="node5" class="node">
<title>Node5</title>
<g id="a_node5"><a xlink:title=" ">
<polygon fill="white" stroke="#bfbfbf" points="65.5,-88.5 65.5,-107.5 139.5,-107.5 139.5,-88.5 65.5,-88.5"/>
<text text-anchor="middle" x="102.5" y="-95.5" font-family="Helvetica,sans-Serif" font-size="10.00">Serializable</text>
</a>
</g>
</g>
<!-- Node5&#45;&gt;Node3 -->
<g id="edge4" class="edge">
<title>Node5&#45;&gt;Node3</title>
<path fill="none" stroke="midnightblue" d="M149.66,-101.79C175.8,-103.93 209.47,-106.7 240.92,-109.28"/>
<polygon fill="midnightblue" stroke="midnightblue" points="149.92,-98.3 139.67,-100.97 149.35,-105.28 149.92,-98.3"/>
</g>
<!-- Node5&#45;&gt;Node6 -->
<g id="edge8" class="edge">
<title>Node5&#45;&gt;Node6</title>
<path fill="none" stroke="midnightblue" d="M149.74,-93.01C183.57,-89.35 229.98,-84.34 267.89,-80.25"/>
<polygon fill="midnightblue" stroke="midnightblue" points="149.24,-89.54 139.67,-94.09 149.99,-96.5 149.24,-89.54"/>
</g>
<!-- Node6&#45;&gt;Node2 -->
<g id="edge5" class="edge">
<title>Node6&#45;&gt;Node2</title>
<path fill="none" stroke="midnightblue" d="M414.44,-80.83C431.42,-82.55 449.51,-84.38 466.85,-86.13"/>
<polygon fill="midnightblue" stroke="midnightblue" points="414.33,-77.3 404.03,-79.78 413.63,-84.27 414.33,-77.3"/>
</g>
<!-- Node7 -->
<g id="node7" class="node">
<title>Node7</title>
<g id="a_node7"><a xlink:href="../../dd/ded/interfacejavolution_1_1util_1_1function_1_1Splittable.html" target="_top" xlink:title=" ">
<polygon fill="white" stroke="black" points="0,-39 0,-69 205,-69 205,-39 0,-39"/>
<text text-anchor="start" x="8" y="-57" font-family="Helvetica,sans-Serif" font-size="10.00">javolution::util::function</text>
<text text-anchor="middle" x="102.5" y="-46" font-family="Helvetica,sans-Serif" font-size="10.00">::Splittable&lt; CollectionService&lt; E &gt; &gt;</text>
</a>
</g>
</g>
<!-- Node7&#45;&gt;Node6 -->
<g id="edge7" class="edge">
<title>Node7&#45;&gt;Node6</title>
<path fill="none" stroke="midnightblue" d="M215.04,-63.15C233.09,-64.64 251.28,-66.13 267.84,-67.49"/>
<polygon fill="midnightblue" stroke="midnightblue" points="215.29,-59.66 205.04,-62.33 214.72,-66.64 215.29,-59.66"/>
</g>
<!-- Node8 -->
<g id="node8" class="node">
<title>Node8</title>
<g id="a_node8"><a xlink:href="../../d5/d48/classCloneable.html" target="_top" xlink:title=" ">
<polygon fill="white" stroke="black" points="70,-0.5 70,-19.5 135,-19.5 135,-0.5 70,-0.5"/>
<text text-anchor="middle" x="102.5" y="-7.5" font-family="Helvetica,sans-Serif" font-size="10.00">Cloneable</text>
</a>
</g>
</g>
<!-- Node8&#45;&gt;Node6 -->
<g id="edge9" class="edge">
<title>Node8&#45;&gt;Node6</title>
<path fill="none" stroke="midnightblue" d="M145.17,-16.43C163.63,-19.63 185.54,-23.91 205,-29 235.77,-37.05 269.81,-48.67 295.33,-57.94"/>
<polygon fill="midnightblue" stroke="midnightblue" points="145.74,-12.98 135.3,-14.77 144.58,-19.88 145.74,-12.98"/>
</g>
</g>
</svg>
