<?xml version="1.0" encoding="UTF-8" standalone="no"?>
<!DOCTYPE svg PUBLIC "-//W3C//DTD SVG 1.1//EN"
 "http://www.w3.org/Graphics/SVG/1.1/DTD/svg11.dtd">
<!-- Generated by graphviz version 2.43.0 (0)
 -->
<!-- Title: javolution.util.internal.map.sorted.SharedSortedMapImpl&lt; K, V &gt; Pages: 1 -->
<!--zoomable 570 -->
<svg id="main" version="1.1" xmlns="http://www.w3.org/2000/svg" xmlns:xlink="http://www.w3.org/1999/xlink" xml:space="preserve" onload="init(evt)">
<style type="text/css"><![CDATA[
.edge:hover path { stroke: red; }
.edge:hover polygon { stroke: red; fill: red; }
]]></style>
<script type="text/javascript"><![CDATA[
var edges = document.getElementsByTagName('g');
if (edges && edges.length) {
  for (var i=0;i<edges.length;i++) {
    if (edges[i].id.substr(0,4)=='edge') {
      edges[i].setAttribute('class','edge');
    }
  }
}
]]></script>
        <defs>
                <circle id="rim" cx="0" cy="0" r="7"/>
                <circle id="rim2" cx="0" cy="0" r="3.5"/>
                <g id="zoomPlus">
                        <use xlink:href="#rim" fill="#404040">
                                <set attributeName="fill" to="#808080" begin="zoomplus.mouseover" end="zoomplus.mouseout"/>
                        </use>
                        <path d="M-4,0h8M0,-4v8" fill="none" stroke="white" stroke-width="1.5" pointer-events="none"/>
                </g>
                <g id="zoomMin">
                        <use xlink:href="#rim" fill="#404040">
                                <set attributeName="fill" to="#808080" begin="zoomminus.mouseover" end="zoomminus.mouseout"/>
                        </use>
                        <path d="M-4,0h8" fill="none" stroke="white" stroke-width="1.5" pointer-events="none"/>
                </g>
                <g id="dirArrow">
                        <path fill="none" stroke="white" stroke-width="1.5" d="M0,-3.0v7 M-2.5,-0.5L0,-3.0L2.5,-0.5"/>
                </g>
               <g id="resetDef">
                       <use xlink:href="#rim2" fill="#404040">
                               <set attributeName="fill" to="#808080" begin="reset.mouseover" end="reset.mouseout"/>
                       </use>
               </g>
        </defs>

<script type="text/javascript">
var viewWidth = 1197;
var viewHeight = 570;
var sectionId = 'dynsection-1';
</script>
<script xlink:href="../../svgpan.js"/>
<svg id="graph" class="graph">
<g id="viewport">
<title>javolution.util.internal.map.sorted.SharedSortedMapImpl&lt; K, V &gt;</title>
<polygon fill="white" stroke="transparent" points="-4,4 -4,-565.5 1193,-565.5 1193,4 -4,4"/>
<!-- Node1 -->
<g id="node1" class="node">
<title>Node1</title>
<g id="a_node1"><a xlink:title=" ">
<polygon fill="#bfbfbf" stroke="black" points="1003,-321 1003,-351 1189,-351 1189,-321 1003,-321"/>
<text text-anchor="start" x="1011" y="-339" font-family="Helvetica,sans-Serif" font-size="10.00">javolution.util.internal.map.sorted.</text>
<text text-anchor="middle" x="1096" y="-328" font-family="Helvetica,sans-Serif" font-size="10.00">SharedSortedMapImpl&lt; K, V &gt;</text>
</a>
</g>
</g>
<!-- Node2 -->
<g id="node2" class="node">
<title>Node2</title>
<g id="a_node2"><a xlink:href="../../d5/db2/classjavolution_1_1util_1_1internal_1_1map_1_1SharedMapImpl.html" target="_top" xlink:title=" ">
<polygon fill="white" stroke="black" points="797,-321 797,-351 966,-351 966,-321 797,-321"/>
<text text-anchor="start" x="805" y="-339" font-family="Helvetica,sans-Serif" font-size="10.00">javolution::util::internal</text>
<text text-anchor="middle" x="881.5" y="-328" font-family="Helvetica,sans-Serif" font-size="10.00">::map::SharedMapImpl&lt; K, V &gt;</text>
</a>
</g>
</g>
<!-- Node2&#45;&gt;Node1 -->
<g id="edge1" class="edge">
<title>Node2&#45;&gt;Node1</title>
<path fill="none" stroke="midnightblue" d="M976.45,-336C985.26,-336 994.19,-336 1002.98,-336"/>
<polygon fill="midnightblue" stroke="midnightblue" points="976.18,-332.5 966.18,-336 976.18,-339.5 976.18,-332.5"/>
</g>
<!-- Node3 -->
<g id="node3" class="node">
<title>Node3</title>
<g id="a_node3"><a xlink:href="../../d0/d83/classjavolution_1_1util_1_1internal_1_1map_1_1MapView.html" target="_top" xlink:title=" ">
<polygon fill="white" stroke="black" points="579.5,-397 579.5,-427 716.5,-427 716.5,-397 579.5,-397"/>
<text text-anchor="start" x="587.5" y="-415" font-family="Helvetica,sans-Serif" font-size="10.00">javolution::util::internal</text>
<text text-anchor="middle" x="648" y="-404" font-family="Helvetica,sans-Serif" font-size="10.00">::map::MapView&lt; K, V &gt;</text>
</a>
</g>
</g>
<!-- Node3&#45;&gt;Node2 -->
<g id="edge2" class="edge">
<title>Node3&#45;&gt;Node2</title>
<path fill="none" stroke="midnightblue" d="M711.39,-394.08C732.9,-387.69 757.09,-380.27 779,-373 799.47,-366.2 822.03,-358.05 840.68,-351.12"/>
<polygon fill="midnightblue" stroke="midnightblue" points="710.32,-390.75 701.72,-396.94 712.3,-397.46 710.32,-390.75"/>
</g>
<!-- Node4 -->
<g id="node4" class="node">
<title>Node4</title>
<g id="a_node4"><a xlink:href="../../d7/d30/interfacejavolution_1_1util_1_1service_1_1MapService.html" target="_top" xlink:title=" ">
<polygon fill="white" stroke="black" points="285,-452 285,-482 413,-482 413,-452 285,-452"/>
<text text-anchor="start" x="293" y="-470" font-family="Helvetica,sans-Serif" font-size="10.00">javolution::util::service</text>
<text text-anchor="middle" x="349" y="-459" font-family="Helvetica,sans-Serif" font-size="10.00">::MapService&lt; K, V &gt;</text>
</a>
</g>
</g>
<!-- Node4&#45;&gt;Node3 -->
<g id="edge3" class="edge">
<title>Node4&#45;&gt;Node3</title>
<path fill="none" stroke="midnightblue" d="M423.52,-453.62C459.03,-447.14 502.24,-439.21 541,-432 553.43,-429.69 566.67,-427.21 579.44,-424.8"/>
<polygon fill="midnightblue" stroke="midnightblue" points="422.46,-450.26 413.25,-455.5 423.71,-457.14 422.46,-450.26"/>
</g>
<!-- Node19 -->
<g id="node19" class="node">
<title>Node19</title>
<g id="a_node19"><a xlink:href="../../de/dc6/interfacejavolution_1_1util_1_1service_1_1SortedMapService.html" target="_top" xlink:title=" ">
<polygon fill="white" stroke="black" points="571.5,-456 571.5,-486 724.5,-486 724.5,-456 571.5,-456"/>
<text text-anchor="start" x="579.5" y="-474" font-family="Helvetica,sans-Serif" font-size="10.00">javolution::util::service</text>
<text text-anchor="middle" x="648" y="-463" font-family="Helvetica,sans-Serif" font-size="10.00">::SortedMapService&lt; K, V &gt;</text>
</a>
</g>
</g>
<!-- Node4&#45;&gt;Node19 -->
<g id="edge28" class="edge">
<title>Node4&#45;&gt;Node19</title>
<path fill="none" stroke="midnightblue" d="M423.63,-467.99C468.62,-468.6 526.04,-469.37 571.39,-469.98"/>
<polygon fill="midnightblue" stroke="midnightblue" points="423.4,-464.49 413.35,-467.85 423.3,-471.49 423.4,-464.49"/>
</g>
<!-- Node5 -->
<g id="node5" class="node">
<title>Node5</title>
<g id="a_node5"><a xlink:title=" ">
<polygon fill="white" stroke="#bfbfbf" points="5.5,-394.5 5.5,-413.5 133.5,-413.5 133.5,-394.5 5.5,-394.5"/>
<text text-anchor="middle" x="69.5" y="-401.5" font-family="Helvetica,sans-Serif" font-size="10.00">java::util::Map&lt; K, V &gt;</text>
</a>
</g>
</g>
<!-- Node5&#45;&gt;Node4 -->
<g id="edge4" class="edge">
<title>Node5&#45;&gt;Node4</title>
<path fill="none" stroke="midnightblue" d="M122.41,-415.79C168.41,-426.23 235.69,-441.5 284.81,-452.65"/>
<polygon fill="midnightblue" stroke="midnightblue" points="123.17,-412.37 112.65,-413.57 121.62,-419.2 123.17,-412.37"/>
</g>
<!-- Node6 -->
<g id="node6" class="node">
<title>Node6</title>
<g id="a_node6"><a xlink:title=" ">
<polygon fill="white" stroke="#bfbfbf" points="0,-531 0,-561 139,-561 139,-531 0,-531"/>
<text text-anchor="start" x="8" y="-549" font-family="Helvetica,sans-Serif" font-size="10.00">java::util::concurrent</text>
<text text-anchor="middle" x="69.5" y="-538" font-family="Helvetica,sans-Serif" font-size="10.00">::ConcurrentMap&lt; K, V &gt;</text>
</a>
</g>
</g>
<!-- Node6&#45;&gt;Node4 -->
<g id="edge5" class="edge">
<title>Node6&#45;&gt;Node4</title>
<path fill="none" stroke="midnightblue" d="M132.82,-528.23C169.79,-517.69 217.56,-504.07 260,-492 271.3,-488.78 283.43,-485.34 294.95,-482.06"/>
<polygon fill="midnightblue" stroke="midnightblue" points="131.84,-524.87 123.18,-530.97 133.76,-531.6 131.84,-524.87"/>
</g>
<!-- Node7 -->
<g id="node7" class="node">
<title>Node7</title>
<g id="a_node7"><a xlink:href="../../dd/ded/interfacejavolution_1_1util_1_1function_1_1Splittable.html" target="_top" xlink:title=" ">
<polygon fill="white" stroke="black" points="1,-470.5 1,-511.5 138,-511.5 138,-470.5 1,-470.5"/>
<text text-anchor="start" x="9" y="-499.5" font-family="Helvetica,sans-Serif" font-size="10.00">javolution::util::function</text>
<text text-anchor="start" x="9" y="-488.5" font-family="Helvetica,sans-Serif" font-size="10.00">::Splittable&lt; MapService</text>
<text text-anchor="middle" x="69.5" y="-477.5" font-family="Helvetica,sans-Serif" font-size="10.00">&lt; K, V &gt; &gt;</text>
</a>
</g>
</g>
<!-- Node7&#45;&gt;Node4 -->
<g id="edge6" class="edge">
<title>Node7&#45;&gt;Node4</title>
<path fill="none" stroke="midnightblue" d="M148.21,-484.28C191.37,-480.55 244.37,-475.96 284.93,-472.45"/>
<polygon fill="midnightblue" stroke="midnightblue" points="147.69,-480.81 138.03,-485.16 148.29,-487.78 147.69,-480.81"/>
</g>
<!-- Node8 -->
<g id="node8" class="node">
<title>Node8</title>
<g id="a_node8"><a xlink:title=" ">
<polygon fill="white" stroke="#bfbfbf" points="32.5,-268.5 32.5,-287.5 106.5,-287.5 106.5,-268.5 32.5,-268.5"/>
<text text-anchor="middle" x="69.5" y="-275.5" font-family="Helvetica,sans-Serif" font-size="10.00">Serializable</text>
</a>
</g>
</g>
<!-- Node8&#45;&gt;Node4 -->
<g id="edge7" class="edge">
<title>Node8&#45;&gt;Node4</title>
<path fill="none" stroke="midnightblue" d="M91.89,-293.57C125.49,-318.5 191.96,-369.67 242,-420 250.91,-428.96 249.44,-435.07 260,-442 267.57,-446.97 276.13,-450.96 284.86,-454.17"/>
<polygon fill="midnightblue" stroke="midnightblue" points="93.83,-290.66 83.7,-287.54 89.68,-296.29 93.83,-290.66"/>
</g>
<!-- Node12 -->
<g id="node12" class="node">
<title>Node12</title>
<g id="a_node12"><a xlink:href="../../db/d38/classjavolution_1_1util_1_1internal_1_1collection_1_1ReadWriteLockImpl.html" target="_top" xlink:title=" ">
<polygon fill="white" stroke="black" points="559,-229 559,-259 737,-259 737,-229 559,-229"/>
<text text-anchor="start" x="567" y="-247" font-family="Helvetica,sans-Serif" font-size="10.00">javolution.util.internal.collection.</text>
<text text-anchor="middle" x="648" y="-236" font-family="Helvetica,sans-Serif" font-size="10.00">ReadWriteLockImpl</text>
</a>
</g>
</g>
<!-- Node8&#45;&gt;Node12 -->
<g id="edge13" class="edge">
<title>Node8&#45;&gt;Node12</title>
<path fill="none" stroke="midnightblue" d="M117.16,-278.94C155.52,-279.67 211.28,-280.61 260,-281 339.11,-281.63 359.07,-286.34 438,-281 484.09,-277.88 495.5,-275.02 541,-267 554.17,-264.68 568.18,-261.88 581.57,-259.04"/>
<polygon fill="midnightblue" stroke="midnightblue" points="116.89,-275.44 106.83,-278.75 116.76,-282.44 116.89,-275.44"/>
</g>
<!-- Node16 -->
<g id="node16" class="node">
<title>Node16</title>
<g id="a_node16"><a xlink:href="../../d8/dd0/classjavolution_1_1util_1_1internal_1_1collection_1_1ReadWriteLockImpl_1_1WriteLock.html" target="_top" xlink:title=" ">
<polygon fill="white" stroke="black" points="260,-115 260,-145 438,-145 438,-115 260,-115"/>
<text text-anchor="start" x="268" y="-133" font-family="Helvetica,sans-Serif" font-size="10.00">javolution.util.internal.collection.</text>
<text text-anchor="middle" x="349" y="-122" font-family="Helvetica,sans-Serif" font-size="10.00">ReadWriteLockImpl.WriteLock</text>
</a>
</g>
</g>
<!-- Node8&#45;&gt;Node16 -->
<g id="edge19" class="edge">
<title>Node8&#45;&gt;Node16</title>
<path fill="none" stroke="midnightblue" d="M103.79,-264.6C147.6,-246.45 221.43,-213.94 242,-193 255.1,-179.67 245.74,-167.08 260,-155 264.61,-151.1 269.78,-147.81 275.26,-145.03"/>
<polygon fill="midnightblue" stroke="midnightblue" points="102.33,-261.41 94.41,-268.45 104.99,-267.89 102.33,-261.41"/>
</g>
<!-- Node18 -->
<g id="node18" class="node">
<title>Node18</title>
<g id="a_node18"><a xlink:href="../../d4/d2b/classjavolution_1_1util_1_1internal_1_1collection_1_1ReadWriteLockImpl_1_1ReadLock.html" target="_top" xlink:title=" ">
<polygon fill="white" stroke="black" points="260,-203 260,-233 438,-233 438,-203 260,-203"/>
<text text-anchor="start" x="268" y="-221" font-family="Helvetica,sans-Serif" font-size="10.00">javolution.util.internal.collection.</text>
<text text-anchor="middle" x="349" y="-210" font-family="Helvetica,sans-Serif" font-size="10.00">ReadWriteLockImpl.ReadLock</text>
</a>
</g>
</g>
<!-- Node8&#45;&gt;Node18 -->
<g id="edge23" class="edge">
<title>Node8&#45;&gt;Node18</title>
<path fill="none" stroke="midnightblue" d="M116.65,-268.02C160.74,-258.49 227.78,-243.99 278.37,-233.06"/>
<polygon fill="midnightblue" stroke="midnightblue" points="115.81,-264.62 106.78,-270.16 117.29,-271.46 115.81,-264.62"/>
</g>
<!-- Node9 -->
<g id="node9" class="node">
<title>Node9</title>
<g id="a_node9"><a xlink:href="../../d5/d48/classCloneable.html" target="_top" xlink:title=" ">
<polygon fill="white" stroke="black" points="37,-432.5 37,-451.5 102,-451.5 102,-432.5 37,-432.5"/>
<text text-anchor="middle" x="69.5" y="-439.5" font-family="Helvetica,sans-Serif" font-size="10.00">Cloneable</text>
</a>
</g>
</g>
<!-- Node9&#45;&gt;Node4 -->
<g id="edge8" class="edge">
<title>Node9&#45;&gt;Node4</title>
<path fill="none" stroke="midnightblue" d="M112.22,-445.76C157.96,-449.88 231.87,-456.54 284.75,-461.3"/>
<polygon fill="midnightblue" stroke="midnightblue" points="112.34,-442.25 102.06,-444.84 111.71,-449.23 112.34,-442.25"/>
</g>
<!-- Node10 -->
<g id="node10" class="node">
<title>Node10</title>
<g id="a_node10"><a xlink:title=" ">
<polygon fill="white" stroke="#bfbfbf" points="291,-413.5 291,-432.5 407,-432.5 407,-413.5 291,-413.5"/>
<text text-anchor="middle" x="349" y="-420.5" font-family="Helvetica,sans-Serif" font-size="10.00">MapService&lt; K, V &gt;</text>
</a>
</g>
</g>
<!-- Node10&#45;&gt;Node3 -->
<g id="edge9" class="edge">
<title>Node10&#45;&gt;Node3</title>
<path fill="none" stroke="#9a32cd" stroke-dasharray="5,2" d="M417.33,-420.51C465.73,-418.71 530.75,-416.31 579.25,-414.51"/>
<polygon fill="#9a32cd" stroke="#9a32cd" points="417.13,-417.01 407.26,-420.88 417.39,-424.01 417.13,-417.01"/>
<text text-anchor="middle" x="498.5" y="-421" font-family="Helvetica,sans-Serif" font-size="10.00"> target</text>
</g>
<!-- Node11 -->
<g id="node11" class="node">
<title>Node11</title>
<g id="a_node11"><a xlink:title=" ">
<polygon fill="white" stroke="#bfbfbf" points="23.5,-92.5 23.5,-111.5 115.5,-111.5 115.5,-92.5 23.5,-92.5"/>
<text text-anchor="middle" x="69.5" y="-99.5" font-family="Helvetica,sans-Serif" font-size="10.00">static final long</text>
</a>
</g>
</g>
<!-- Node11&#45;&gt;Node1 -->
<g id="edge30" class="edge">
<title>Node11&#45;&gt;Node1</title>
<path fill="none" stroke="#9a32cd" stroke-dasharray="5,2" d="M93.83,-87C140.26,-58.65 248.36,0 348,0 348,0 348,0 882.5,0 1036.42,0 1083.43,-254.96 1092.99,-320.69"/>
<polygon fill="#9a32cd" stroke="#9a32cd" points="91.79,-84.16 85.14,-92.4 95.48,-90.1 91.79,-84.16"/>
<text text-anchor="middle" x="648" y="-3" font-family="Helvetica,sans-Serif" font-size="10.00"> serialVersionUID</text>
</g>
<!-- Node11&#45;&gt;Node2 -->
<g id="edge26" class="edge">
<title>Node11&#45;&gt;Node2</title>
<path fill="none" stroke="#9a32cd" stroke-dasharray="5,2" d="M107.76,-89.37C122.85,-84.86 140.57,-80.32 157,-78 326.01,-54.15 379.83,-27.8 541,-84 687.94,-135.24 824.34,-274.43 866.88,-320.77"/>
<polygon fill="#9a32cd" stroke="#9a32cd" points="106.29,-86.16 97.77,-92.46 108.36,-92.85 106.29,-86.16"/>
<text text-anchor="middle" x="498.5" y="-87" font-family="Helvetica,sans-Serif" font-size="10.00"> serialVersionUID</text>
</g>
<!-- Node11&#45;&gt;Node3 -->
<g id="edge10" class="edge">
<title>Node11&#45;&gt;Node3</title>
<path fill="none" stroke="#9a32cd" stroke-dasharray="5,2" d="M92.69,-117.9C107.04,-128.91 125.5,-144.51 139,-161 149.34,-173.63 148.66,-178.98 157,-193 179,-229.99 223.9,-333.57 260,-357 286.26,-374.04 475.68,-395.09 579.44,-405.51"/>
<polygon fill="#9a32cd" stroke="#9a32cd" points="94.47,-114.86 84.36,-111.67 90.27,-120.46 94.47,-114.86"/>
<text text-anchor="middle" x="349" y="-392" font-family="Helvetica,sans-Serif" font-size="10.00"> serialVersionUID</text>
</g>
<!-- Node11&#45;&gt;Node12 -->
<g id="edge16" class="edge">
<title>Node11&#45;&gt;Node12</title>
<path fill="none" stroke="#9a32cd" stroke-dasharray="5,2" d="M125.86,-92.7C198.5,-82.33 329.47,-69.95 438,-94 487.31,-104.93 499.35,-113.44 541,-142 578.7,-167.86 615.5,-207.42 634.23,-228.88"/>
<polygon fill="#9a32cd" stroke="#9a32cd" points="124.96,-89.3 115.58,-94.21 125.98,-96.22 124.96,-89.3"/>
<text text-anchor="middle" x="349" y="-97" font-family="Helvetica,sans-Serif" font-size="10.00"> serialVersionUID</text>
</g>
<!-- Node11&#45;&gt;Node16 -->
<g id="edge20" class="edge">
<title>Node11&#45;&gt;Node16</title>
<path fill="none" stroke="#9a32cd" stroke-dasharray="5,2" d="M125.73,-107.41C159.35,-110.72 203.15,-115.06 242,-119 247.8,-119.59 253.77,-120.2 259.8,-120.82"/>
<polygon fill="#9a32cd" stroke="#9a32cd" points="125.94,-103.91 115.64,-106.42 125.25,-110.88 125.94,-103.91"/>
<text text-anchor="middle" x="199.5" y="-122" font-family="Helvetica,sans-Serif" font-size="10.00"> serialVersionUID</text>
</g>
<!-- Node11&#45;&gt;Node18 -->
<g id="edge24" class="edge">
<title>Node11&#45;&gt;Node18</title>
<path fill="none" stroke="#9a32cd" stroke-dasharray="5,2" d="M107.66,-115.03C143.44,-128.35 198.38,-150.9 242,-178 250.85,-183.5 250.79,-188.14 260,-193 267.16,-196.78 274.96,-200.05 282.87,-202.86"/>
<polygon fill="#9a32cd" stroke="#9a32cd" points="108.7,-111.68 98.1,-111.52 106.29,-118.25 108.7,-111.68"/>
<text text-anchor="middle" x="199.5" y="-181" font-family="Helvetica,sans-Serif" font-size="10.00"> serialVersionUID</text>
</g>
<!-- Node12&#45;&gt;Node2 -->
<g id="edge11" class="edge">
<title>Node12&#45;&gt;Node2</title>
<path fill="none" stroke="#9a32cd" stroke-dasharray="5,2" d="M696.41,-262.84C739.59,-280 802.55,-305.02 842.51,-320.9"/>
<polygon fill="#9a32cd" stroke="#9a32cd" points="697.55,-259.53 686.97,-259.09 694.97,-266.03 697.55,-259.53"/>
<text text-anchor="middle" x="767" y="-298" font-family="Helvetica,sans-Serif" font-size="10.00"> lock</text>
</g>
<!-- Node13 -->
<g id="node13" class="node">
<title>Node13</title>
<g id="a_node13"><a xlink:title=" ">
<polygon fill="white" stroke="#bfbfbf" points="304,-252.5 304,-271.5 394,-271.5 394,-252.5 304,-252.5"/>
<text text-anchor="middle" x="349" y="-259.5" font-family="Helvetica,sans-Serif" font-size="10.00">ReadWriteLock</text>
</a>
</g>
</g>
<!-- Node13&#45;&gt;Node12 -->
<g id="edge12" class="edge">
<title>Node13&#45;&gt;Node12</title>
<path fill="none" stroke="midnightblue" d="M404.17,-258.72C447.36,-256.1 508.73,-252.38 558.96,-249.34"/>
<polygon fill="midnightblue" stroke="midnightblue" points="403.91,-255.23 394.14,-259.32 404.34,-262.21 403.91,-255.23"/>
</g>
<!-- Node14 -->
<g id="node14" class="node">
<title>Node14</title>
<g id="a_node14"><a xlink:title=" ">
<polygon fill="white" stroke="#bfbfbf" points="334.5,-164.5 334.5,-183.5 363.5,-183.5 363.5,-164.5 334.5,-164.5"/>
<text text-anchor="middle" x="349" y="-171.5" font-family="Helvetica,sans-Serif" font-size="10.00">int</text>
</a>
</g>
</g>
<!-- Node14&#45;&gt;Node12 -->
<g id="edge14" class="edge">
<title>Node14&#45;&gt;Node12</title>
<path fill="none" stroke="#9a32cd" stroke-dasharray="5,2" d="M373.79,-175.71C410.27,-178.72 482.03,-186.22 541,-202 566.43,-208.8 594.05,-219.87 614.72,-228.94"/>
<polygon fill="#9a32cd" stroke="#9a32cd" points="373.89,-172.2 363.65,-174.91 373.34,-179.18 373.89,-172.2"/>
<text text-anchor="middle" x="498.5" y="-216" font-family="Helvetica,sans-Serif" font-size="10.00"> givenLocks</text>
<text text-anchor="middle" x="498.5" y="-205" font-family="Helvetica,sans-Serif" font-size="10.00">waitingWriters</text>
</g>
<!-- Node15 -->
<g id="node15" class="node">
<title>Node15</title>
<g id="a_node15"><a xlink:title=" ">
<polygon fill="white" stroke="#bfbfbf" points="300.5,-328.5 300.5,-347.5 397.5,-347.5 397.5,-328.5 300.5,-328.5"/>
<text text-anchor="middle" x="349" y="-335.5" font-family="Helvetica,sans-Serif" font-size="10.00">transient Thread</text>
</a>
</g>
</g>
<!-- Node15&#45;&gt;Node2 -->
<g id="edge25" class="edge">
<title>Node15&#45;&gt;Node2</title>
<path fill="none" stroke="#9a32cd" stroke-dasharray="5,2" d="M407.78,-342.51C423.42,-343.54 440.35,-344.48 456,-345 574.25,-348.9 711.08,-344.37 796.72,-340.45"/>
<polygon fill="#9a32cd" stroke="#9a32cd" points="407.94,-339.01 397.72,-341.82 407.46,-346 407.94,-339.01"/>
<text text-anchor="middle" x="648" y="-349" font-family="Helvetica,sans-Serif" font-size="10.00"> updatingThread</text>
</g>
<!-- Node15&#45;&gt;Node12 -->
<g id="edge15" class="edge">
<title>Node15&#45;&gt;Node12</title>
<path fill="none" stroke="#9a32cd" stroke-dasharray="5,2" d="M407.72,-336.16C446.43,-333.42 498,-326.79 541,-311 574.31,-298.76 608.18,-274.95 628.38,-259.26"/>
<polygon fill="#9a32cd" stroke="#9a32cd" points="407.42,-332.68 397.66,-336.81 407.87,-339.66 407.42,-332.68"/>
<text text-anchor="middle" x="498.5" y="-333" font-family="Helvetica,sans-Serif" font-size="10.00"> writerThread</text>
</g>
<!-- Node16&#45;&gt;Node12 -->
<g id="edge17" class="edge">
<title>Node16&#45;&gt;Node12</title>
<path fill="none" stroke="#9a32cd" stroke-dasharray="5,2" d="M448.48,-143.51C478.92,-149.68 512.04,-158.51 541,-171 575.06,-185.69 609.52,-212.02 629.54,-228.72"/>
<polygon fill="#9a32cd" stroke="#9a32cd" points="448.76,-139.99 438.27,-141.51 447.42,-146.86 448.76,-139.99"/>
<text text-anchor="middle" x="498.5" y="-174" font-family="Helvetica,sans-Serif" font-size="10.00"> writeLock</text>
</g>
<!-- Node17 -->
<g id="node17" class="node">
<title>Node17</title>
<g id="a_node17"><a xlink:title=" ">
<polygon fill="white" stroke="#bfbfbf" points="50,-170.5 50,-189.5 89,-189.5 89,-170.5 50,-170.5"/>
<text text-anchor="middle" x="69.5" y="-177.5" font-family="Helvetica,sans-Serif" font-size="10.00">Lock</text>
</a>
</g>
</g>
<!-- Node17&#45;&gt;Node16 -->
<g id="edge18" class="edge">
<title>Node17&#45;&gt;Node16</title>
<path fill="none" stroke="midnightblue" d="M99.02,-171.95C115.8,-167.42 137.5,-161.9 157,-158 190.36,-151.33 227.29,-145.55 259.72,-141"/>
<polygon fill="midnightblue" stroke="midnightblue" points="97.99,-168.61 89.27,-174.63 99.84,-175.36 97.99,-168.61"/>
</g>
<!-- Node17&#45;&gt;Node18 -->
<g id="edge22" class="edge">
<title>Node17&#45;&gt;Node18</title>
<path fill="none" stroke="midnightblue" d="M99.38,-183.95C137.06,-189.12 204.71,-198.38 259.93,-205.94"/>
<polygon fill="midnightblue" stroke="midnightblue" points="99.52,-180.44 89.14,-182.55 98.57,-187.38 99.52,-180.44"/>
</g>
<!-- Node18&#45;&gt;Node12 -->
<g id="edge21" class="edge">
<title>Node18&#45;&gt;Node12</title>
<path fill="none" stroke="#9a32cd" stroke-dasharray="5,2" d="M448.7,-226.64C484.28,-229.75 524.16,-233.25 558.78,-236.28"/>
<polygon fill="#9a32cd" stroke="#9a32cd" points="448.57,-223.12 438.31,-225.73 447.96,-230.09 448.57,-223.12"/>
<text text-anchor="middle" x="498.5" y="-238" font-family="Helvetica,sans-Serif" font-size="10.00"> readLock</text>
</g>
<!-- Node19&#45;&gt;Node1 -->
<g id="edge27" class="edge">
<title>Node19&#45;&gt;Node1</title>
<path fill="none" stroke="midnightblue" d="M708.5,-452.99C797.18,-426.15 962.39,-376.14 1045.12,-351.1"/>
<polygon fill="midnightblue" stroke="midnightblue" points="707.42,-449.66 698.86,-455.91 709.45,-456.36 707.42,-449.66"/>
</g>
<!-- Node20 -->
<g id="node20" class="node">
<title>Node20</title>
<g id="a_node20"><a xlink:title=" ">
<polygon fill="white" stroke="#bfbfbf" points="290,-501 290,-531 408,-531 408,-501 290,-501"/>
<text text-anchor="start" x="298" y="-519" font-family="Helvetica,sans-Serif" font-size="10.00">java::util::SortedMap</text>
<text text-anchor="middle" x="349" y="-508" font-family="Helvetica,sans-Serif" font-size="10.00">&lt; K, V &gt;</text>
</a>
</g>
</g>
<!-- Node20&#45;&gt;Node19 -->
<g id="edge29" class="edge">
<title>Node20&#45;&gt;Node19</title>
<path fill="none" stroke="midnightblue" d="M418.43,-505.63C464.12,-498.71 524.23,-489.6 571.34,-482.46"/>
<polygon fill="midnightblue" stroke="midnightblue" points="417.69,-502.2 408.32,-507.16 418.73,-509.13 417.69,-502.2"/>
</g>
</g>
</svg>
        <g id="navigator" transform="translate(0 0)" fill="#404254">
                <rect fill="#f2f5e9" fill-opacity="0.5" stroke="#606060" stroke-width=".5" x="0" y="0" width="60" height="60"/>
                <use id="zoomplus" xlink:href="#zoomPlus" x="17" y="9" onmousedown="handleZoom(evt,'in')"/>
                <use id="zoomminus" xlink:href="#zoomMin" x="42" y="9" onmousedown="handleZoom(evt,'out')"/>
                <use id="reset" xlink:href="#resetDef" x="30" y="36" onmousedown="handleReset()"/>
                <g id="arrowUp" xlink:href="#dirArrow" transform="translate(30 24)" onmousedown="handlePan(0,-1)">
                  <use xlink:href="#rim" fill="#404040">
                        <set attributeName="fill" to="#808080" begin="arrowUp.mouseover" end="arrowUp.mouseout"/>
                  </use>
                  <path fill="none" stroke="white" stroke-width="1.5" d="M0,-3.0v7 M-2.5,-0.5L0,-3.0L2.5,-0.5"/>
                </g>
                <g id="arrowRight" xlink:href="#dirArrow" transform="rotate(90) translate(36 -43)" onmousedown="handlePan(1,0)">
                  <use xlink:href="#rim" fill="#404040">
                        <set attributeName="fill" to="#808080" begin="arrowRight.mouseover" end="arrowRight.mouseout"/>
                  </use>
                  <path fill="none" stroke="white" stroke-width="1.5" d="M0,-3.0v7 M-2.5,-0.5L0,-3.0L2.5,-0.5"/>
                </g>
                <g id="arrowDown" xlink:href="#dirArrow" transform="rotate(180) translate(-30 -48)" onmousedown="handlePan(0,1)">
                  <use xlink:href="#rim" fill="#404040">
                        <set attributeName="fill" to="#808080" begin="arrowDown.mouseover" end="arrowDown.mouseout"/>
                  </use>
                  <path fill="none" stroke="white" stroke-width="1.5" d="M0,-3.0v7 M-2.5,-0.5L0,-3.0L2.5,-0.5"/>
                </g>
                <g id="arrowLeft" xlink:href="#dirArrow" transform="rotate(270) translate(-36 17)" onmousedown="handlePan(-1,0)">
                  <use xlink:href="#rim" fill="#404040">
                        <set attributeName="fill" to="#808080" begin="arrowLeft.mouseover" end="arrowLeft.mouseout"/>
                  </use>
                  <path fill="none" stroke="white" stroke-width="1.5" d="M0,-3.0v7 M-2.5,-0.5L0,-3.0L2.5,-0.5"/>
                </g>
        </g>
        <svg viewBox="0 0 15 15" width="100%" height="30px" preserveAspectRatio="xMaxYMin meet">
         <g id="arrow_out" transform="scale(0.3 0.3)">
          <a xlink:href="classjavolution_1_1util_1_1internal_1_1map_1_1sorted_1_1SharedSortedMapImpl__coll__graph_org.svg" target="_base">
           <rect id="button" ry="5" rx="5" y="6" x="6" height="38" width="38"
                fill="#f2f5e9" fill-opacity="0.5" stroke="#606060" stroke-width="1.0"/>
           <path id="arrow"
             d="M 11.500037,31.436501 C 11.940474,20.09759 22.043105,11.32322 32.158766,21.979434 L 37.068811,17.246167 C 37.068811,17.246167 37.088388,32 37.088388,32 L 22.160133,31.978069 C 22.160133,31.978069 26.997745,27.140456 26.997745,27.140456 C 18.528582,18.264221 13.291696,25.230495 11.500037,31.436501 z"
             style="fill:#404040;"/>
          </a>
         </g>
        </svg>
</svg>
