<?xml version="1.0" encoding="UTF-8" standalone="no"?>
<!DOCTYPE svg PUBLIC "-//W3C//DTD SVG 1.1//EN"
 "http://www.w3.org/Graphics/SVG/1.1/DTD/svg11.dtd">
<!-- Generated by graphviz version 2.43.0 (0)
 -->
<!-- Title: javolution.util.internal.table.sorted.UnmodifiableSortedTableImpl.UnmodifiableSortedTableImpl Pages: 1 -->
<svg width="466pt" height="50pt"
 viewBox="0.00 0.00 466.00 50.00" xmlns="http://www.w3.org/2000/svg" xmlns:xlink="http://www.w3.org/1999/xlink">
<g id="graph0" class="graph" transform="scale(1 1) rotate(0) translate(4 46)">
<title>javolution.util.internal.table.sorted.UnmodifiableSortedTableImpl.UnmodifiableSortedTableImpl</title>
<polygon fill="white" stroke="transparent" points="-4,4 -4,-46 462,-46 462,4 -4,4"/>
<!-- Node1 -->
<g id="node1" class="node">
<title>Node1</title>
<g id="a_node1"><a xlink:title=" ">
<polygon fill="#bfbfbf" stroke="black" points="0,-0.5 0,-41.5 229,-41.5 229,-0.5 0,-0.5"/>
<text text-anchor="start" x="8" y="-29.5" font-family="Helvetica,sans-Serif" font-size="10.00">javolution.util.internal.table.sorted.</text>
<text text-anchor="start" x="8" y="-18.5" font-family="Helvetica,sans-Serif" font-size="10.00">UnmodifiableSortedTableImpl.Unmodifiable</text>
<text text-anchor="middle" x="114.5" y="-7.5" font-family="Helvetica,sans-Serif" font-size="10.00">SortedTableImpl</text>
</a>
</g>
</g>
<!-- Node2 -->
<g id="node2" class="node">
<title>Node2</title>
<g id="a_node2"><a xlink:href="../../d3/dad/classjavolution_1_1util_1_1internal_1_1table_1_1sorted_1_1UnmodifiableSortedTableImpl.html#a433767a1fa8e93b4e6b7142e56ec52ed" target="_top" xlink:title=" ">
<polygon fill="white" stroke="black" points="265,-6 265,-36 458,-36 458,-6 265,-6"/>
<text text-anchor="start" x="273" y="-24" font-family="Helvetica,sans-Serif" font-size="10.00">javolution.util.internal.table.sorted.</text>
<text text-anchor="middle" x="361.5" y="-13" font-family="Helvetica,sans-Serif" font-size="10.00">UnmodifiableSortedTableImpl.target</text>
</a>
</g>
</g>
<!-- Node1&#45;&gt;Node2 -->
<g id="edge1" class="edge">
<title>Node1&#45;&gt;Node2</title>
<path fill="none" stroke="midnightblue" d="M229.03,-21C237.67,-21 246.37,-21 254.95,-21"/>
<polygon fill="midnightblue" stroke="midnightblue" points="254.97,-24.5 264.97,-21 254.97,-17.5 254.97,-24.5"/>
</g>
</g>
</svg>
