<?xml version="1.0" encoding="UTF-8" standalone="no"?>
<!DOCTYPE svg PUBLIC "-//W3C//DTD SVG 1.1//EN"
 "http://www.w3.org/Graphics/SVG/1.1/DTD/svg11.dtd">
<!-- Generated by graphviz version 2.43.0 (0)
 -->
<!-- Title: javolution.xml.internal.stream.AttributesImpl.reset Pages: 1 -->
<svg width="1314pt" height="586pt"
 viewBox="0.00 0.00 1314.00 586.00" xmlns="http://www.w3.org/2000/svg" xmlns:xlink="http://www.w3.org/1999/xlink">
<g id="graph0" class="graph" transform="scale(1 1) rotate(0) translate(4 582)">
<title>javolution.xml.internal.stream.AttributesImpl.reset</title>
<polygon fill="white" stroke="transparent" points="-4,4 -4,-582 1310,-582 1310,4 -4,4"/>
<!-- Node1 -->
<g id="node1" class="node">
<title>Node1</title>
<g id="a_node1"><a xlink:title=" ">
<polygon fill="#bfbfbf" stroke="black" points="1138,-291.5 1138,-321.5 1306,-321.5 1306,-291.5 1138,-291.5"/>
<text text-anchor="start" x="1146" y="-309.5" font-family="Helvetica,sans-Serif" font-size="10.00">javolution.xml.internal.stream.</text>
<text text-anchor="middle" x="1222" y="-298.5" font-family="Helvetica,sans-Serif" font-size="10.00">AttributesImpl.reset</text>
</a>
</g>
</g>
<!-- Node2 -->
<g id="node2" class="node">
<title>Node2</title>
<g id="a_node2"><a xlink:href="../../d0/d65/classjavolution_1_1xml_1_1internal_1_1stream_1_1XMLStreamReaderImpl.html#a390337cd640ada29ab3aa42a584c8ed8" target="_top" xlink:title=" ">
<polygon fill="white" stroke="black" points="934,-405.5 934,-435.5 1102,-435.5 1102,-405.5 934,-405.5"/>
<text text-anchor="start" x="942" y="-423.5" font-family="Helvetica,sans-Serif" font-size="10.00">javolution.xml.internal.stream.</text>
<text text-anchor="middle" x="1018" y="-412.5" font-family="Helvetica,sans-Serif" font-size="10.00">XMLStreamReaderImpl.next</text>
</a>
</g>
</g>
<!-- Node1&#45;&gt;Node2 -->
<g id="edge1" class="edge">
<title>Node1&#45;&gt;Node2</title>
<path fill="none" stroke="midnightblue" d="M1185.29,-326.65C1145.31,-349.21 1081.45,-385.26 1045.61,-405.48"/>
<polygon fill="midnightblue" stroke="midnightblue" points="1187.19,-329.6 1194.18,-321.64 1183.75,-323.51 1187.19,-329.6"/>
</g>
<!-- Node14 -->
<g id="node14" class="node">
<title>Node14</title>
<g id="a_node14"><a xlink:href="../../d0/d65/classjavolution_1_1xml_1_1internal_1_1stream_1_1XMLStreamReaderImpl.html#a98505dd442c566beb5d5c144525ccdb7" target="_top" xlink:title=" ">
<polygon fill="white" stroke="black" points="934,-178.5 934,-208.5 1102,-208.5 1102,-178.5 934,-178.5"/>
<text text-anchor="start" x="942" y="-196.5" font-family="Helvetica,sans-Serif" font-size="10.00">javolution.xml.internal.stream.</text>
<text text-anchor="middle" x="1018" y="-185.5" font-family="Helvetica,sans-Serif" font-size="10.00">XMLStreamReaderImpl.reset</text>
</a>
</g>
</g>
<!-- Node1&#45;&gt;Node14 -->
<g id="edge13" class="edge">
<title>Node1&#45;&gt;Node14</title>
<path fill="none" stroke="midnightblue" d="M1185.32,-286.54C1145.46,-264.24 1081.84,-228.65 1045.93,-208.57"/>
<polygon fill="midnightblue" stroke="midnightblue" points="1183.74,-289.67 1194.18,-291.49 1187.16,-283.56 1183.74,-289.67"/>
</g>
<!-- Node3 -->
<g id="node3" class="node">
<title>Node3</title>
<g id="a_node3"><a xlink:href="../../d0/d65/classjavolution_1_1xml_1_1internal_1_1stream_1_1XMLStreamReaderImpl.html#a72b51558d2acd9213ab216592156ca55" target="_top" xlink:title=" ">
<polygon fill="white" stroke="black" points="689,-547.5 689,-577.5 898,-577.5 898,-547.5 689,-547.5"/>
<text text-anchor="start" x="697" y="-565.5" font-family="Helvetica,sans-Serif" font-size="10.00">javolution.xml.internal.stream.</text>
<text text-anchor="middle" x="793.5" y="-554.5" font-family="Helvetica,sans-Serif" font-size="10.00">XMLStreamReaderImpl.getElementText</text>
</a>
</g>
</g>
<!-- Node2&#45;&gt;Node3 -->
<g id="edge2" class="edge">
<title>Node2&#45;&gt;Node3</title>
<path fill="none" stroke="midnightblue" d="M999.93,-444.01C979,-471.06 940.98,-514.77 898,-538.5 891.7,-541.98 884.92,-544.95 877.95,-547.5"/>
<polygon fill="midnightblue" stroke="midnightblue" points="1002.85,-445.95 1006.11,-435.86 997.27,-441.72 1002.85,-445.95"/>
</g>
<!-- Node5 -->
<g id="node5" class="node">
<title>Node5</title>
<g id="a_node5"><a xlink:href="../../d9/d60/classjavolution_1_1xml_1_1XMLFormat_1_1InputElement.html#a1a9f1d9cc2954e37458f7e2eacbd4563" target="_top" xlink:title=" ">
<polygon fill="white" stroke="black" points="719,-498.5 719,-528.5 868,-528.5 868,-498.5 719,-498.5"/>
<text text-anchor="start" x="727" y="-516.5" font-family="Helvetica,sans-Serif" font-size="10.00">javolution.xml.XMLFormat.</text>
<text text-anchor="middle" x="793.5" y="-505.5" font-family="Helvetica,sans-Serif" font-size="10.00">InputElement.getNext</text>
</a>
</g>
</g>
<!-- Node2&#45;&gt;Node5 -->
<g id="edge4" class="edge">
<title>Node2&#45;&gt;Node5</title>
<path fill="none" stroke="midnightblue" d="M987.22,-441.13C963.88,-456.45 930.1,-476.8 898,-489.5 888.57,-493.23 878.41,-496.47 868.27,-499.25"/>
<polygon fill="midnightblue" stroke="midnightblue" points="989.24,-443.99 995.63,-435.53 985.36,-438.16 989.24,-443.99"/>
</g>
<!-- Node6 -->
<g id="node6" class="node">
<title>Node6</title>
<g id="a_node6"><a xlink:href="../../d0/d65/classjavolution_1_1xml_1_1internal_1_1stream_1_1XMLStreamReaderImpl.html#a22803c21708a1c61db9f45c43e0d3ecc" target="_top" xlink:title=" ">
<polygon fill="white" stroke="black" points="708.5,-449.5 708.5,-479.5 878.5,-479.5 878.5,-449.5 708.5,-449.5"/>
<text text-anchor="start" x="716.5" y="-467.5" font-family="Helvetica,sans-Serif" font-size="10.00">javolution.xml.internal.stream.</text>
<text text-anchor="middle" x="793.5" y="-456.5" font-family="Helvetica,sans-Serif" font-size="10.00">XMLStreamReaderImpl.nextTag</text>
</a>
</g>
</g>
<!-- Node2&#45;&gt;Node6 -->
<g id="edge5" class="edge">
<title>Node2&#45;&gt;Node6</title>
<path fill="none" stroke="midnightblue" d="M931.05,-437.5C911.09,-441.44 889.98,-445.62 870.48,-449.47"/>
<polygon fill="midnightblue" stroke="midnightblue" points="931.92,-440.89 941.05,-435.52 930.56,-434.03 931.92,-440.89"/>
</g>
<!-- Node8 -->
<g id="node8" class="node">
<title>Node8</title>
<g id="a_node8"><a xlink:href="../../d6/d79/classjavolution_1_1xml_1_1sax_1_1XMLReaderImpl.html#a7060e3d22c1cb128897bfc57a7e0cc64" target="_top" xlink:title=" ">
<polygon fill="white" stroke="black" points="448,-263.5 448,-293.5 614,-293.5 614,-263.5 448,-263.5"/>
<text text-anchor="start" x="456" y="-281.5" font-family="Helvetica,sans-Serif" font-size="10.00">javolution.xml.sax.XMLReader</text>
<text text-anchor="middle" x="531" y="-270.5" font-family="Helvetica,sans-Serif" font-size="10.00">Impl.parseAll</text>
</a>
</g>
</g>
<!-- Node2&#45;&gt;Node8 -->
<g id="edge7" class="edge">
<title>Node2&#45;&gt;Node8</title>
<path fill="none" stroke="midnightblue" d="M923.8,-429.63C856.42,-432.81 764.37,-429.97 689,-401.5 627.13,-378.13 570.19,-321.16 545.26,-293.74"/>
<polygon fill="midnightblue" stroke="midnightblue" points="924.18,-433.12 933.98,-429.1 923.81,-426.13 924.18,-433.12"/>
</g>
<!-- Node12 -->
<g id="node12" class="node">
<title>Node12</title>
<g id="a_node12"><a xlink:href="../../d9/d60/classjavolution_1_1xml_1_1XMLFormat_1_1InputElement.html#ace8288707b8a3cb46bf483440533fd1e" target="_top" xlink:title=" ">
<polygon fill="white" stroke="black" points="715.5,-361.5 715.5,-391.5 871.5,-391.5 871.5,-361.5 715.5,-361.5"/>
<text text-anchor="start" x="723.5" y="-379.5" font-family="Helvetica,sans-Serif" font-size="10.00">javolution.xml.XMLFormat.</text>
<text text-anchor="middle" x="793.5" y="-368.5" font-family="Helvetica,sans-Serif" font-size="10.00">InputElement.readReference</text>
</a>
</g>
</g>
<!-- Node2&#45;&gt;Node12 -->
<g id="edge11" class="edge">
<title>Node2&#45;&gt;Node12</title>
<path fill="none" stroke="midnightblue" d="M931.05,-403.5C911.09,-399.56 889.98,-395.38 870.48,-391.53"/>
<polygon fill="midnightblue" stroke="midnightblue" points="930.56,-406.97 941.05,-405.48 931.92,-400.11 930.56,-406.97"/>
</g>
<!-- Node13 -->
<g id="node13" class="node">
<title>Node13</title>
<g id="a_node13"><a xlink:href="../../d0/d65/classjavolution_1_1xml_1_1internal_1_1stream_1_1XMLStreamReaderImpl.html#a5e11adbb1f420b45116c6412caf6ccf1" target="_top" xlink:title=" ">
<polygon fill="white" stroke="black" points="707.5,-312.5 707.5,-342.5 879.5,-342.5 879.5,-312.5 707.5,-312.5"/>
<text text-anchor="start" x="715.5" y="-330.5" font-family="Helvetica,sans-Serif" font-size="10.00">javolution.xml.internal.stream.</text>
<text text-anchor="middle" x="793.5" y="-319.5" font-family="Helvetica,sans-Serif" font-size="10.00">XMLStreamReaderImpl.setInput</text>
</a>
</g>
</g>
<!-- Node2&#45;&gt;Node13 -->
<g id="edge12" class="edge">
<title>Node2&#45;&gt;Node13</title>
<path fill="none" stroke="midnightblue" d="M986.71,-399.99C963.35,-384.99 929.77,-365.12 898,-352.5 888.47,-348.71 878.2,-345.39 867.97,-342.52"/>
<polygon fill="midnightblue" stroke="midnightblue" points="984.85,-402.96 995.14,-405.48 988.67,-397.09 984.85,-402.96"/>
</g>
<!-- Node4 -->
<g id="node4" class="node">
<title>Node4</title>
<g id="a_node4"><a xlink:href="../../d9/d60/classjavolution_1_1xml_1_1XMLFormat_1_1InputElement.html#a1858fc90a06227e089492a4f40fc77ac" target="_top" xlink:title=" ">
<polygon fill="white" stroke="black" points="456.5,-547.5 456.5,-577.5 605.5,-577.5 605.5,-547.5 456.5,-547.5"/>
<text text-anchor="start" x="464.5" y="-565.5" font-family="Helvetica,sans-Serif" font-size="10.00">javolution.xml.XMLFormat.</text>
<text text-anchor="middle" x="531" y="-554.5" font-family="Helvetica,sans-Serif" font-size="10.00">InputElement.getText</text>
</a>
</g>
</g>
<!-- Node3&#45;&gt;Node4 -->
<g id="edge3" class="edge">
<title>Node3&#45;&gt;Node4</title>
<path fill="none" stroke="midnightblue" d="M678.63,-562.5C653.9,-562.5 628.36,-562.5 605.67,-562.5"/>
<polygon fill="midnightblue" stroke="midnightblue" points="678.8,-566 688.79,-562.5 678.79,-559 678.8,-566"/>
</g>
<!-- Node7 -->
<g id="node7" class="node">
<title>Node7</title>
<g id="a_node7"><a xlink:href="../../d9/d60/classjavolution_1_1xml_1_1XMLFormat_1_1InputElement.html#af7d0a9ca04a7340a049b615e947c88ca" target="_top" xlink:title=" ">
<polygon fill="white" stroke="black" points="456.5,-449.5 456.5,-479.5 605.5,-479.5 605.5,-449.5 456.5,-449.5"/>
<text text-anchor="start" x="464.5" y="-467.5" font-family="Helvetica,sans-Serif" font-size="10.00">javolution.xml.XMLFormat.</text>
<text text-anchor="middle" x="531" y="-456.5" font-family="Helvetica,sans-Serif" font-size="10.00">InputElement.hasNext</text>
</a>
</g>
</g>
<!-- Node6&#45;&gt;Node7 -->
<g id="edge6" class="edge">
<title>Node6&#45;&gt;Node7</title>
<path fill="none" stroke="midnightblue" d="M698.1,-464.5C667.72,-464.5 634.52,-464.5 605.84,-464.5"/>
<polygon fill="midnightblue" stroke="midnightblue" points="698.28,-468 708.28,-464.5 698.28,-461 698.28,-468"/>
</g>
<!-- Node9 -->
<g id="node9" class="node">
<title>Node9</title>
<g id="a_node9"><a xlink:href="../../d6/d79/classjavolution_1_1xml_1_1sax_1_1XMLReaderImpl.html#af59c6a5e7282b94dea9be9452f9c945e" target="_top" xlink:title=" ">
<polygon fill="white" stroke="black" points="207,-200.5 207,-230.5 373,-230.5 373,-200.5 207,-200.5"/>
<text text-anchor="start" x="215" y="-218.5" font-family="Helvetica,sans-Serif" font-size="10.00">javolution.xml.sax.XMLReader</text>
<text text-anchor="middle" x="290" y="-207.5" font-family="Helvetica,sans-Serif" font-size="10.00">Impl.parse</text>
</a>
</g>
</g>
<!-- Node8&#45;&gt;Node9 -->
<g id="edge8" class="edge">
<title>Node8&#45;&gt;Node9</title>
<path fill="none" stroke="midnightblue" d="M457.84,-260.98C441.74,-256.97 424.77,-252.66 409,-248.5 387.51,-242.83 363.9,-236.29 343.48,-230.54"/>
<polygon fill="midnightblue" stroke="midnightblue" points="457.18,-264.42 467.73,-263.44 458.87,-257.63 457.18,-264.42"/>
</g>
<!-- Node10 -->
<g id="node10" class="node">
<title>Node10</title>
<g id="a_node10"><a xlink:href="../../d5/de1/classjavolution_1_1xml_1_1sax_1_1SAX2ReaderImpl.html#ac88f97df2622809ba9f127e173f20f17" target="_top" xlink:title=" ">
<polygon fill="white" stroke="black" points="0,-107.5 0,-137.5 171,-137.5 171,-107.5 0,-107.5"/>
<text text-anchor="start" x="8" y="-125.5" font-family="Helvetica,sans-Serif" font-size="10.00">javolution.xml.sax.SAX2Reader</text>
<text text-anchor="middle" x="85.5" y="-114.5" font-family="Helvetica,sans-Serif" font-size="10.00">Impl.parse</text>
</a>
</g>
</g>
<!-- Node9&#45;&gt;Node10 -->
<g id="edge9" class="edge">
<title>Node9&#45;&gt;Node10</title>
<path fill="none" stroke="midnightblue" d="M246.78,-196.11C208.93,-178.73 154.18,-153.58 119.47,-137.64"/>
<polygon fill="midnightblue" stroke="midnightblue" points="245.47,-199.36 256.01,-200.35 248.39,-193 245.47,-199.36"/>
</g>
<!-- Node11 -->
<g id="node11" class="node">
<title>Node11</title>
<g id="a_node11"><a xlink:href="../../d6/d79/classjavolution_1_1xml_1_1sax_1_1XMLReaderImpl.html#a255e7cbc9ce8eced22fae7c8138b6cfb" target="_top" xlink:title=" ">
<polygon fill="white" stroke="black" points="2.5,-200.5 2.5,-230.5 168.5,-230.5 168.5,-200.5 2.5,-200.5"/>
<text text-anchor="start" x="10.5" y="-218.5" font-family="Helvetica,sans-Serif" font-size="10.00">javolution.xml.sax.XMLReader</text>
<text text-anchor="middle" x="85.5" y="-207.5" font-family="Helvetica,sans-Serif" font-size="10.00">Impl.parse</text>
</a>
</g>
</g>
<!-- Node9&#45;&gt;Node11 -->
<g id="edge10" class="edge">
<title>Node9&#45;&gt;Node11</title>
<path fill="none" stroke="midnightblue" d="M196.81,-215.5C187.43,-215.5 177.95,-215.5 168.69,-215.5"/>
<polygon fill="midnightblue" stroke="midnightblue" points="196.93,-219 206.93,-215.5 196.93,-212 196.93,-219"/>
</g>
<!-- Node14&#45;&gt;Node9 -->
<g id="edge16" class="edge">
<title>Node14&#45;&gt;Node9</title>
<path fill="none" stroke="midnightblue" d="M923.74,-198.3C850.22,-201.92 745.09,-206.71 653,-209.5 557.03,-212.4 446.71,-213.98 373.32,-214.78"/>
<polygon fill="midnightblue" stroke="midnightblue" points="924.08,-201.79 933.9,-197.8 923.74,-194.8 924.08,-201.79"/>
</g>
<!-- Node15 -->
<g id="node15" class="node">
<title>Node15</title>
<g id="a_node15"><a xlink:href="../../d0/d65/classjavolution_1_1xml_1_1internal_1_1stream_1_1XMLStreamReaderImpl.html#aac6d2e99d06abadc8f1cb1d7b3afa032" target="_top" xlink:title=" ">
<polygon fill="white" stroke="black" points="709.5,-263.5 709.5,-293.5 877.5,-293.5 877.5,-263.5 709.5,-263.5"/>
<text text-anchor="start" x="717.5" y="-281.5" font-family="Helvetica,sans-Serif" font-size="10.00">javolution.xml.internal.stream.</text>
<text text-anchor="middle" x="793.5" y="-270.5" font-family="Helvetica,sans-Serif" font-size="10.00">XMLStreamReaderImpl.close</text>
</a>
</g>
</g>
<!-- Node14&#45;&gt;Node15 -->
<g id="edge14" class="edge">
<title>Node14&#45;&gt;Node15</title>
<path fill="none" stroke="midnightblue" d="M978.61,-213.04C955.6,-224.3 925.55,-238.21 898,-248.5 883.37,-253.97 867.27,-259.06 852.22,-263.44"/>
<polygon fill="midnightblue" stroke="midnightblue" points="980.28,-216.12 987.7,-208.55 977.18,-209.84 980.28,-216.12"/>
</g>
<!-- Node16 -->
<g id="node16" class="node">
<title>Node16</title>
<g id="a_node16"><a xlink:href="../../d6/d79/classjavolution_1_1xml_1_1sax_1_1XMLReaderImpl.html#a403487b6864dff409805fba53a7607b3" target="_top" xlink:title=" ">
<polygon fill="white" stroke="black" points="710.5,-66.5 710.5,-96.5 876.5,-96.5 876.5,-66.5 710.5,-66.5"/>
<text text-anchor="start" x="718.5" y="-84.5" font-family="Helvetica,sans-Serif" font-size="10.00">javolution.xml.sax.XMLReader</text>
<text text-anchor="middle" x="793.5" y="-73.5" font-family="Helvetica,sans-Serif" font-size="10.00">Impl.reset</text>
</a>
</g>
</g>
<!-- Node14&#45;&gt;Node16 -->
<g id="edge17" class="edge">
<title>Node14&#45;&gt;Node16</title>
<path fill="none" stroke="midnightblue" d="M977.79,-173.76C933.98,-151.71 864,-116.48 824.39,-96.54"/>
<polygon fill="midnightblue" stroke="midnightblue" points="976.49,-177.03 986.99,-178.4 979.63,-170.77 976.49,-177.03"/>
</g>
<!-- Node18 -->
<g id="node18" class="node">
<title>Node18</title>
<g id="a_node18"><a xlink:href="../../d9/d60/classjavolution_1_1xml_1_1XMLFormat_1_1InputElement.html#afbd858642dc848b2beab252ed35ee255" target="_top" xlink:title=" ">
<polygon fill="white" stroke="black" points="719,-17.5 719,-47.5 868,-47.5 868,-17.5 719,-17.5"/>
<text text-anchor="start" x="727" y="-35.5" font-family="Helvetica,sans-Serif" font-size="10.00">javolution.xml.XMLFormat.</text>
<text text-anchor="middle" x="793.5" y="-24.5" font-family="Helvetica,sans-Serif" font-size="10.00">InputElement.reset</text>
</a>
</g>
</g>
<!-- Node14&#45;&gt;Node18 -->
<g id="edge20" class="edge">
<title>Node14&#45;&gt;Node18</title>
<path fill="none" stroke="midnightblue" d="M1002.96,-169.52C983.46,-138.45 945.21,-84.91 898,-56.5 888.83,-50.98 878.51,-46.74 868.02,-43.46"/>
<polygon fill="midnightblue" stroke="midnightblue" points="1000.18,-171.69 1008.39,-178.39 1006.15,-168.03 1000.18,-171.69"/>
</g>
<!-- Node19 -->
<g id="node19" class="node">
<title>Node19</title>
<g id="a_node19"><a xlink:href="../../d0/d65/classjavolution_1_1xml_1_1internal_1_1stream_1_1XMLStreamReaderImpl.html#a8c07fcbcd43edd5092dfbf69089b5234" target="_top" xlink:title=" ">
<polygon fill="white" stroke="black" points="707.5,-156.5 707.5,-186.5 879.5,-186.5 879.5,-156.5 707.5,-156.5"/>
<text text-anchor="start" x="715.5" y="-174.5" font-family="Helvetica,sans-Serif" font-size="10.00">javolution.xml.internal.stream.</text>
<text text-anchor="middle" x="793.5" y="-163.5" font-family="Helvetica,sans-Serif" font-size="10.00">XMLStreamReaderImpl.setInput</text>
</a>
</g>
</g>
<!-- Node14&#45;&gt;Node19 -->
<g id="edge21" class="edge">
<title>Node14&#45;&gt;Node19</title>
<path fill="none" stroke="midnightblue" d="M923.81,-184.29C909.22,-182.84 894.2,-181.36 879.79,-179.93"/>
<polygon fill="midnightblue" stroke="midnightblue" points="923.54,-187.78 933.83,-185.28 924.23,-180.81 923.54,-187.78"/>
</g>
<!-- Node15&#45;&gt;Node8 -->
<g id="edge15" class="edge">
<title>Node15&#45;&gt;Node8</title>
<path fill="none" stroke="midnightblue" d="M699.26,-278.5C671.52,-278.5 641.34,-278.5 614.35,-278.5"/>
<polygon fill="midnightblue" stroke="midnightblue" points="699.36,-282 709.36,-278.5 699.36,-275 699.36,-282"/>
</g>
<!-- Node16&#45;&gt;Node10 -->
<g id="edge18" class="edge">
<title>Node16&#45;&gt;Node10</title>
<path fill="none" stroke="midnightblue" d="M700.02,-79.23C684.33,-78.93 668.2,-78.66 653,-78.5 544.56,-77.33 517.2,-71.15 409,-78.5 327.82,-84.01 235.92,-97.25 171.06,-107.77"/>
<polygon fill="midnightblue" stroke="midnightblue" points="700.19,-82.74 710.26,-79.44 700.33,-75.74 700.19,-82.74"/>
</g>
<!-- Node17 -->
<g id="node17" class="node">
<title>Node17</title>
<g id="a_node17"><a xlink:href="../../d5/de1/classjavolution_1_1xml_1_1sax_1_1SAX2ReaderImpl.html#a82e36d38783a2a0b02085719edfe4663" target="_top" xlink:title=" ">
<polygon fill="white" stroke="black" points="445.5,-0.5 445.5,-30.5 616.5,-30.5 616.5,-0.5 445.5,-0.5"/>
<text text-anchor="start" x="453.5" y="-18.5" font-family="Helvetica,sans-Serif" font-size="10.00">javolution.xml.sax.SAX2Reader</text>
<text text-anchor="middle" x="531" y="-7.5" font-family="Helvetica,sans-Serif" font-size="10.00">Impl.reset</text>
</a>
</g>
</g>
<!-- Node16&#45;&gt;Node17 -->
<g id="edge19" class="edge">
<title>Node16&#45;&gt;Node17</title>
<path fill="none" stroke="midnightblue" d="M718.02,-64.07C708.24,-61.62 698.36,-59.06 689,-56.5 672.86,-52.09 669.13,-49.96 653,-45.5 634.33,-40.34 613.93,-35.12 595.28,-30.51"/>
<polygon fill="midnightblue" stroke="midnightblue" points="717.2,-67.48 727.75,-66.49 718.89,-60.68 717.2,-67.48"/>
</g>
<!-- Node19&#45;&gt;Node9 -->
<g id="edge23" class="edge">
<title>Node19&#45;&gt;Node9</title>
<path fill="none" stroke="midnightblue" d="M697.38,-179.85C603.7,-188.06 462.08,-200.49 373.15,-208.29"/>
<polygon fill="midnightblue" stroke="midnightblue" points="697.77,-183.32 707.43,-178.96 697.16,-176.35 697.77,-183.32"/>
</g>
<!-- Node20 -->
<g id="node20" class="node">
<title>Node20</title>
<g id="a_node20"><a xlink:href="../../d9/d23/classjavolution_1_1xml_1_1internal_1_1stream_1_1XMLInputFactoryImpl.html#a75b218c412defa9de11acde243414e73" target="_top" xlink:title=" ">
<polygon fill="white" stroke="black" points="409,-137.5 409,-167.5 653,-167.5 653,-137.5 409,-137.5"/>
<text text-anchor="start" x="417" y="-155.5" font-family="Helvetica,sans-Serif" font-size="10.00">javolution.xml.internal.stream.</text>
<text text-anchor="middle" x="531" y="-144.5" font-family="Helvetica,sans-Serif" font-size="10.00">XMLInputFactoryImpl.createXMLStreamReader</text>
</a>
</g>
</g>
<!-- Node19&#45;&gt;Node20 -->
<g id="edge22" class="edge">
<title>Node19&#45;&gt;Node20</title>
<path fill="none" stroke="midnightblue" d="M696.99,-164.53C682.81,-163.5 668.03,-162.42 653.41,-161.36"/>
<polygon fill="midnightblue" stroke="midnightblue" points="696.97,-168.04 707.2,-165.28 697.48,-161.06 696.97,-168.04"/>
</g>
<!-- Node21 -->
<g id="node21" class="node">
<title>Node21</title>
<g id="a_node21"><a xlink:href="../../d0/d65/classjavolution_1_1xml_1_1internal_1_1stream_1_1XMLStreamReaderImpl.html#aee8c1ea975e36aaa3d5f3ee31c15c02f" target="_top" xlink:title=" ">
<polygon fill="white" stroke="black" points="445,-88.5 445,-118.5 617,-118.5 617,-88.5 445,-88.5"/>
<text text-anchor="start" x="453" y="-106.5" font-family="Helvetica,sans-Serif" font-size="10.00">javolution.xml.internal.stream.</text>
<text text-anchor="middle" x="531" y="-95.5" font-family="Helvetica,sans-Serif" font-size="10.00">XMLStreamReaderImpl.setInput</text>
</a>
</g>
</g>
<!-- Node19&#45;&gt;Node21 -->
<g id="edge24" class="edge">
<title>Node19&#45;&gt;Node21</title>
<path fill="none" stroke="midnightblue" d="M739.56,-153.3C713.66,-144.78 681.9,-134.9 653,-127.5 640.55,-124.31 627.29,-121.3 614.28,-118.56"/>
<polygon fill="midnightblue" stroke="midnightblue" points="738.59,-156.66 749.19,-156.49 740.8,-150.02 738.59,-156.66"/>
</g>
</g>
</svg>
