<?xml version="1.0" encoding="UTF-8" standalone="no"?>
<!DOCTYPE svg PUBLIC "-//W3C//DTD SVG 1.1//EN"
 "http://www.w3.org/Graphics/SVG/1.1/DTD/svg11.dtd">
<!-- Generated by graphviz version 2.43.0 (0)
 -->
<!-- Title: javolution.xml.stream.XMLStreamException Pages: 1 -->
<svg width="457pt" height="106pt"
 viewBox="0.00 0.00 456.50 106.00" xmlns="http://www.w3.org/2000/svg" xmlns:xlink="http://www.w3.org/1999/xlink">
<g id="graph0" class="graph" transform="scale(1 1) rotate(0) translate(4 102)">
<title>javolution.xml.stream.XMLStreamException</title>
<polygon fill="white" stroke="transparent" points="-4,4 -4,-102 452.5,-102 452.5,4 -4,4"/>
<!-- Node1 -->
<g id="node1" class="node">
<title>Node1</title>
<g id="a_node1"><a xlink:title=" ">
<polygon fill="#bfbfbf" stroke="black" points="143.5,-0.5 143.5,-30.5 327.5,-30.5 327.5,-0.5 143.5,-0.5"/>
<text text-anchor="start" x="151.5" y="-18.5" font-family="Helvetica,sans-Serif" font-size="10.00">javolution.xml.stream.XMLStream</text>
<text text-anchor="middle" x="235.5" y="-7.5" font-family="Helvetica,sans-Serif" font-size="10.00">Exception</text>
</a>
</g>
</g>
<!-- Node2 -->
<g id="node2" class="node">
<title>Node2</title>
<g id="a_node2"><a xlink:href="../../d4/d67/classException.html" target="_top" xlink:title=" ">
<polygon fill="white" stroke="black" points="0,-78.5 0,-97.5 65,-97.5 65,-78.5 0,-78.5"/>
<text text-anchor="middle" x="32.5" y="-85.5" font-family="Helvetica,sans-Serif" font-size="10.00">Exception</text>
</a>
</g>
</g>
<!-- Node2&#45;&gt;Node1 -->
<g id="edge1" class="edge">
<title>Node2&#45;&gt;Node1</title>
<path fill="none" stroke="midnightblue" d="M66.88,-75.06C102.35,-62.74 157.65,-43.54 195.17,-30.51"/>
<polygon fill="midnightblue" stroke="midnightblue" points="65.28,-71.91 56.99,-78.5 67.58,-78.52 65.28,-71.91"/>
</g>
<!-- Node3 -->
<g id="node3" class="node">
<title>Node3</title>
<g id="a_node3"><a xlink:href="../../db/d2f/interfacejavolution_1_1xml_1_1stream_1_1Location.html" target="_top" xlink:title=" ">
<polygon fill="white" stroke="black" points="83,-78.5 83,-97.5 252,-97.5 252,-78.5 83,-78.5"/>
<text text-anchor="middle" x="167.5" y="-85.5" font-family="Helvetica,sans-Serif" font-size="10.00">javolution.xml.stream.Location</text>
</a>
</g>
</g>
<!-- Node3&#45;&gt;Node1 -->
<g id="edge2" class="edge">
<title>Node3&#45;&gt;Node1</title>
<path fill="none" stroke="#9a32cd" stroke-dasharray="5,2" d="M182.84,-71.09C194.59,-58.91 210.64,-42.27 221.92,-30.58"/>
<polygon fill="#9a32cd" stroke="#9a32cd" points="180.26,-68.73 175.84,-78.36 185.3,-73.59 180.26,-68.73"/>
<text text-anchor="middle" x="228.5" y="-52" font-family="Helvetica,sans-Serif" font-size="10.00"> _location</text>
</g>
<!-- Node4 -->
<g id="node4" class="node">
<title>Node4</title>
<g id="a_node4"><a xlink:title=" ">
<polygon fill="white" stroke="#bfbfbf" points="270.5,-78.5 270.5,-97.5 338.5,-97.5 338.5,-78.5 270.5,-78.5"/>
<text text-anchor="middle" x="304.5" y="-85.5" font-family="Helvetica,sans-Serif" font-size="10.00">Throwable</text>
</a>
</g>
</g>
<!-- Node4&#45;&gt;Node1 -->
<g id="edge3" class="edge">
<title>Node4&#45;&gt;Node1</title>
<path fill="none" stroke="#9a32cd" stroke-dasharray="5,2" d="M288.93,-71.09C277.01,-58.91 260.73,-42.27 249.28,-30.58"/>
<polygon fill="#9a32cd" stroke="#9a32cd" points="286.54,-73.66 296.04,-78.36 291.55,-68.76 286.54,-73.66"/>
<text text-anchor="middle" x="296.5" y="-52" font-family="Helvetica,sans-Serif" font-size="10.00"> _nested</text>
</g>
<!-- Node5 -->
<g id="node5" class="node">
<title>Node5</title>
<g id="a_node5"><a xlink:title=" ">
<polygon fill="white" stroke="#bfbfbf" points="356.5,-78.5 356.5,-97.5 448.5,-97.5 448.5,-78.5 356.5,-78.5"/>
<text text-anchor="middle" x="402.5" y="-85.5" font-family="Helvetica,sans-Serif" font-size="10.00">static final long</text>
</a>
</g>
</g>
<!-- Node5&#45;&gt;Node1 -->
<g id="edge4" class="edge">
<title>Node5&#45;&gt;Node1</title>
<path fill="none" stroke="#9a32cd" stroke-dasharray="5,2" d="M376.17,-74.02C360.44,-66.42 339.98,-56.81 321.5,-49 306.36,-42.6 289.48,-36.09 274.71,-30.59"/>
<polygon fill="#9a32cd" stroke="#9a32cd" points="374.77,-77.23 385.29,-78.45 377.83,-70.93 374.77,-77.23"/>
<text text-anchor="middle" x="388" y="-52" font-family="Helvetica,sans-Serif" font-size="10.00"> serialVersionUID</text>
</g>
</g>
</svg>
