<?xml version="1.0" encoding="UTF-8" standalone="no"?>
<!DOCTYPE svg PUBLIC "-//W3C//DTD SVG 1.1//EN"
 "http://www.w3.org/Graphics/SVG/1.1/DTD/svg11.dtd">
<!-- Generated by graphviz version 2.43.0 (0)
 -->
<!-- Title: javolution.util.internal.map.MapView&lt; K, V &gt;.Values Pages: 1 -->
<svg width="193pt" height="184pt"
 viewBox="0.00 0.00 193.00 184.00" xmlns="http://www.w3.org/2000/svg" xmlns:xlink="http://www.w3.org/1999/xlink">
<g id="graph0" class="graph" transform="scale(1 1) rotate(0) translate(4 180)">
<title>javolution.util.internal.map.MapView&lt; K, V &gt;.Values</title>
<polygon fill="white" stroke="transparent" points="-4,4 -4,-180 189,-180 189,4 -4,4"/>
<!-- Node1 -->
<g id="node1" class="node">
<title>Node1</title>
<g id="a_node1"><a xlink:title=" ">
<polygon fill="#bfbfbf" stroke="black" points="16.5,-0.5 16.5,-30.5 168.5,-30.5 168.5,-0.5 16.5,-0.5"/>
<text text-anchor="start" x="24.5" y="-18.5" font-family="Helvetica,sans-Serif" font-size="10.00">javolution.util.internal.map.</text>
<text text-anchor="middle" x="92.5" y="-7.5" font-family="Helvetica,sans-Serif" font-size="10.00">MapView&lt; K, V &gt;.Values</text>
</a>
</g>
</g>
<!-- Node2 -->
<g id="node2" class="node">
<title>Node2</title>
<g id="a_node2"><a xlink:href="../../d0/de8/classjavolution_1_1util_1_1internal_1_1collection_1_1MappedCollectionImpl.html" target="_top" xlink:title=" ">
<polygon fill="white" stroke="black" points="0,-67.5 0,-108.5 185,-108.5 185,-67.5 0,-67.5"/>
<text text-anchor="start" x="8" y="-96.5" font-family="Helvetica,sans-Serif" font-size="10.00">javolution::util::internal</text>
<text text-anchor="start" x="8" y="-85.5" font-family="Helvetica,sans-Serif" font-size="10.00">::collection::MappedCollectionImpl</text>
<text text-anchor="middle" x="92.5" y="-74.5" font-family="Helvetica,sans-Serif" font-size="10.00">&lt; Entry&lt; K, V &gt;, V &gt;</text>
</a>
</g>
</g>
<!-- Node2&#45;&gt;Node1 -->
<g id="edge1" class="edge">
<title>Node2&#45;&gt;Node1</title>
<path fill="none" stroke="midnightblue" d="M92.5,-57.08C92.5,-48.01 92.5,-38.45 92.5,-30.89"/>
<polygon fill="midnightblue" stroke="midnightblue" points="89,-57.36 92.5,-67.36 96,-57.36 89,-57.36"/>
</g>
<!-- Node3 -->
<g id="node3" class="node">
<title>Node3</title>
<g id="a_node3"><a xlink:href="../../d1/d40/classjavolution_1_1util_1_1internal_1_1collection_1_1CollectionView.html" target="_top" xlink:title=" ">
<polygon fill="white" stroke="black" points="3.5,-145.5 3.5,-175.5 181.5,-175.5 181.5,-145.5 3.5,-145.5"/>
<text text-anchor="start" x="11.5" y="-163.5" font-family="Helvetica,sans-Serif" font-size="10.00">javolution.util.internal.collection.</text>
<text text-anchor="middle" x="92.5" y="-152.5" font-family="Helvetica,sans-Serif" font-size="10.00">CollectionView&lt; R &gt;</text>
</a>
</g>
</g>
<!-- Node3&#45;&gt;Node2 -->
<g id="edge2" class="edge">
<title>Node3&#45;&gt;Node2</title>
<path fill="none" stroke="midnightblue" d="M92.5,-134.98C92.5,-126.35 92.5,-116.76 92.5,-108.59"/>
<polygon fill="midnightblue" stroke="midnightblue" points="89,-135.23 92.5,-145.23 96,-135.23 89,-135.23"/>
</g>
</g>
</svg>
