<?xml version="1.0" encoding="UTF-8" standalone="no"?>
<!DOCTYPE svg PUBLIC "-//W3C//DTD SVG 1.1//EN"
 "http://www.w3.org/Graphics/SVG/1.1/DTD/svg11.dtd">
<!-- Generated by graphviz version 2.43.0 (0)
 -->
<!-- Title: javolution.text.TextBuilder Pages: 1 -->
<!--zoomable 161 -->
<svg id="main" version="1.1" xmlns="http://www.w3.org/2000/svg" xmlns:xlink="http://www.w3.org/1999/xlink" xml:space="preserve" onload="init(evt)">
<style type="text/css"><![CDATA[
.edge:hover path { stroke: red; }
.edge:hover polygon { stroke: red; fill: red; }
]]></style>
<script type="text/javascript"><![CDATA[
var edges = document.getElementsByTagName('g');
if (edges && edges.length) {
  for (var i=0;i<edges.length;i++) {
    if (edges[i].id.substr(0,4)=='edge') {
      edges[i].setAttribute('class','edge');
    }
  }
}
]]></script>
        <defs>
                <circle id="rim" cx="0" cy="0" r="7"/>
                <circle id="rim2" cx="0" cy="0" r="3.5"/>
                <g id="zoomPlus">
                        <use xlink:href="#rim" fill="#404040">
                                <set attributeName="fill" to="#808080" begin="zoomplus.mouseover" end="zoomplus.mouseout"/>
                        </use>
                        <path d="M-4,0h8M0,-4v8" fill="none" stroke="white" stroke-width="1.5" pointer-events="none"/>
                </g>
                <g id="zoomMin">
                        <use xlink:href="#rim" fill="#404040">
                                <set attributeName="fill" to="#808080" begin="zoomminus.mouseover" end="zoomminus.mouseout"/>
                        </use>
                        <path d="M-4,0h8" fill="none" stroke="white" stroke-width="1.5" pointer-events="none"/>
                </g>
                <g id="dirArrow">
                        <path fill="none" stroke="white" stroke-width="1.5" d="M0,-3.0v7 M-2.5,-0.5L0,-3.0L2.5,-0.5"/>
                </g>
               <g id="resetDef">
                       <use xlink:href="#rim2" fill="#404040">
                               <set attributeName="fill" to="#808080" begin="reset.mouseover" end="reset.mouseout"/>
                       </use>
               </g>
        </defs>

<script type="text/javascript">
var viewWidth = 637;
var viewHeight = 161;
var sectionId = 'dynsection-1';
</script>
<script xlink:href="../../svgpan.js"/>
<svg id="graph" class="graph">
<g id="viewport">
<title>javolution.text.TextBuilder</title>
<polygon fill="white" stroke="transparent" points="-4,4 -4,-157 633,-157 633,4 -4,4"/>
<!-- Node1 -->
<g id="node1" class="node">
<title>Node1</title>
<g id="a_node1"><a xlink:title=" ">
<polygon fill="#bfbfbf" stroke="black" points="193,-0.5 193,-19.5 339,-19.5 339,-0.5 193,-0.5"/>
<text text-anchor="middle" x="266" y="-7.5" font-family="Helvetica,sans-Serif" font-size="10.00">javolution.text.TextBuilder</text>
</a>
</g>
</g>
<!-- Node2 -->
<g id="node2" class="node">
<title>Node2</title>
<g id="a_node2"><a xlink:title=" ">
<polygon fill="white" stroke="#bfbfbf" points="0,-133.5 0,-152.5 74,-152.5 74,-133.5 0,-133.5"/>
<text text-anchor="middle" x="37" y="-140.5" font-family="Helvetica,sans-Serif" font-size="10.00">Appendable</text>
</a>
</g>
</g>
<!-- Node2&#45;&gt;Node1 -->
<g id="edge1" class="edge">
<title>Node2&#45;&gt;Node1</title>
<path fill="none" stroke="midnightblue" d="M50.8,-125.61C71.18,-102.49 111.63,-60.61 155,-38 171.36,-29.47 190.48,-23.58 208.2,-19.53"/>
<polygon fill="midnightblue" stroke="midnightblue" points="47.9,-123.62 44.01,-133.47 53.19,-128.19 47.9,-123.62"/>
</g>
<!-- Node3 -->
<g id="node3" class="node">
<title>Node3</title>
<g id="a_node3"><a xlink:title=" ">
<polygon fill="white" stroke="#bfbfbf" points="92,-133.5 92,-152.5 178,-152.5 178,-133.5 92,-133.5"/>
<text text-anchor="middle" x="135" y="-140.5" font-family="Helvetica,sans-Serif" font-size="10.00">CharSequence</text>
</a>
</g>
</g>
<!-- Node3&#45;&gt;Node1 -->
<g id="edge2" class="edge">
<title>Node3&#45;&gt;Node1</title>
<path fill="none" stroke="midnightblue" d="M148.06,-125.56C165.41,-104.21 197.53,-66.34 229,-38 236.45,-31.29 245.52,-24.65 252.83,-19.63"/>
<polygon fill="midnightblue" stroke="midnightblue" points="145.32,-123.38 141.77,-133.37 150.77,-127.77 145.32,-123.38"/>
</g>
<!-- Node4 -->
<g id="node4" class="node">
<title>Node4</title>
<g id="a_node4"><a xlink:title=" ">
<polygon fill="white" stroke="#bfbfbf" points="196,-133.5 196,-152.5 270,-152.5 270,-133.5 196,-133.5"/>
<text text-anchor="middle" x="233" y="-140.5" font-family="Helvetica,sans-Serif" font-size="10.00">Serializable</text>
</a>
</g>
</g>
<!-- Node4&#45;&gt;Node1 -->
<g id="edge3" class="edge">
<title>Node4&#45;&gt;Node1</title>
<path fill="none" stroke="midnightblue" d="M232.87,-123.3C233.32,-101.95 235.9,-66.33 247,-38 249.59,-31.38 254.13,-24.84 258.12,-19.85"/>
<polygon fill="midnightblue" stroke="midnightblue" points="229.37,-123.27 232.8,-133.3 236.37,-123.32 229.37,-123.27"/>
</g>
<!-- Node5 -->
<g id="node5" class="node">
<title>Node5</title>
<g id="a_node5"><a xlink:title=" ">
<polygon fill="white" stroke="#bfbfbf" points="288,-133.5 288,-152.5 326,-152.5 326,-133.5 288,-133.5"/>
<text text-anchor="middle" x="307" y="-140.5" font-family="Helvetica,sans-Serif" font-size="10.00">char</text>
</a>
</g>
</g>
<!-- Node5&#45;&gt;Node1 -->
<g id="edge4" class="edge">
<title>Node5&#45;&gt;Node1</title>
<path fill="none" stroke="#9a32cd" stroke-dasharray="5,2" d="M279.35,-128.6C274.4,-124.9 269.9,-120.39 267,-115 250.07,-83.51 258.73,-38.52 263.52,-19.75"/>
<polygon fill="#9a32cd" stroke="#9a32cd" points="277.59,-131.63 287.91,-134.06 281.36,-125.73 277.59,-131.63"/>
<text text-anchor="middle" x="306.5" y="-85" font-family="Helvetica,sans-Serif" font-size="10.00"> _low</text>
<text text-anchor="middle" x="306.5" y="-74" font-family="Helvetica,sans-Serif" font-size="10.00">DIGIT_TO_CHAR</text>
<text text-anchor="middle" x="306.5" y="-63" font-family="Helvetica,sans-Serif" font-size="10.00">_high</text>
</g>
<!-- Node6 -->
<g id="node6" class="node">
<title>Node6</title>
<g id="a_node6"><a xlink:title=" ">
<polygon fill="white" stroke="#bfbfbf" points="348.5,-133.5 348.5,-152.5 377.5,-152.5 377.5,-133.5 348.5,-133.5"/>
<text text-anchor="middle" x="363" y="-140.5" font-family="Helvetica,sans-Serif" font-size="10.00">int</text>
</a>
</g>
</g>
<!-- Node6&#45;&gt;Node1 -->
<g id="edge5" class="edge">
<title>Node6&#45;&gt;Node1</title>
<path fill="none" stroke="#9a32cd" stroke-dasharray="5,2" d="M365.31,-123.14C367.03,-100.29 366.25,-61.87 346,-38 338.7,-29.39 328.55,-23.52 317.93,-19.52"/>
<polygon fill="#9a32cd" stroke="#9a32cd" points="361.82,-122.96 364.31,-133.25 368.78,-123.65 361.82,-122.96"/>
<text text-anchor="middle" x="388.5" y="-107" font-family="Helvetica,sans-Serif" font-size="10.00"> B1</text>
<text text-anchor="middle" x="388.5" y="-96" font-family="Helvetica,sans-Serif" font-size="10.00">_capacity</text>
<text text-anchor="middle" x="388.5" y="-85" font-family="Helvetica,sans-Serif" font-size="10.00">_length</text>
<text text-anchor="middle" x="388.5" y="-74" font-family="Helvetica,sans-Serif" font-size="10.00">M1</text>
<text text-anchor="middle" x="388.5" y="-63" font-family="Helvetica,sans-Serif" font-size="10.00">C0</text>
<text text-anchor="middle" x="388.5" y="-52" font-family="Helvetica,sans-Serif" font-size="10.00">C1</text>
<text text-anchor="middle" x="388.5" y="-41" font-family="Helvetica,sans-Serif" font-size="10.00">B0</text>
</g>
<!-- Node7 -->
<g id="node7" class="node">
<title>Node7</title>
<g id="a_node7"><a xlink:title=" ">
<polygon fill="white" stroke="#bfbfbf" points="396,-133.5 396,-152.5 488,-152.5 488,-133.5 396,-133.5"/>
<text text-anchor="middle" x="442" y="-140.5" font-family="Helvetica,sans-Serif" font-size="10.00">static final long</text>
</a>
</g>
</g>
<!-- Node7&#45;&gt;Node1 -->
<g id="edge6" class="edge">
<title>Node7&#45;&gt;Node1</title>
<path fill="none" stroke="#9a32cd" stroke-dasharray="5,2" d="M442.99,-123.47C443.15,-100.03 439.6,-60.07 416,-38 404.5,-27.25 371.28,-20.66 339.02,-16.68"/>
<polygon fill="#9a32cd" stroke="#9a32cd" points="439.49,-123.4 442.68,-133.5 446.48,-123.61 439.49,-123.4"/>
<text text-anchor="middle" x="484.5" y="-74" font-family="Helvetica,sans-Serif" font-size="10.00"> serialVersionUID</text>
</g>
<!-- Node8 -->
<g id="node8" class="node">
<title>Node8</title>
<g id="a_node8"><a xlink:title=" ">
<polygon fill="white" stroke="#bfbfbf" points="506.5,-133.5 506.5,-152.5 605.5,-152.5 605.5,-133.5 506.5,-133.5"/>
<text text-anchor="middle" x="556" y="-140.5" font-family="Helvetica,sans-Serif" font-size="10.00">static final long[]</text>
</a>
</g>
</g>
<!-- Node8&#45;&gt;Node1 -->
<g id="edge7" class="edge">
<title>Node8&#45;&gt;Node1</title>
<path fill="none" stroke="#9a32cd" stroke-dasharray="5,2" d="M557.44,-123.2C558.12,-99.48 555.27,-59.21 531,-38 516.77,-25.56 412.62,-18 339.22,-14.16"/>
<polygon fill="#9a32cd" stroke="#9a32cd" points="553.94,-123.19 556.9,-133.36 560.93,-123.56 553.94,-123.19"/>
<text text-anchor="middle" x="593" y="-74" font-family="Helvetica,sans-Serif" font-size="10.00"> POW10_LONG</text>
</g>
</g>
</svg>
        <g id="navigator" transform="translate(0 0)" fill="#404254">
                <rect fill="#f2f5e9" fill-opacity="0.5" stroke="#606060" stroke-width=".5" x="0" y="0" width="60" height="60"/>
                <use id="zoomplus" xlink:href="#zoomPlus" x="17" y="9" onmousedown="handleZoom(evt,'in')"/>
                <use id="zoomminus" xlink:href="#zoomMin" x="42" y="9" onmousedown="handleZoom(evt,'out')"/>
                <use id="reset" xlink:href="#resetDef" x="30" y="36" onmousedown="handleReset()"/>
                <g id="arrowUp" xlink:href="#dirArrow" transform="translate(30 24)" onmousedown="handlePan(0,-1)">
                  <use xlink:href="#rim" fill="#404040">
                        <set attributeName="fill" to="#808080" begin="arrowUp.mouseover" end="arrowUp.mouseout"/>
                  </use>
                  <path fill="none" stroke="white" stroke-width="1.5" d="M0,-3.0v7 M-2.5,-0.5L0,-3.0L2.5,-0.5"/>
                </g>
                <g id="arrowRight" xlink:href="#dirArrow" transform="rotate(90) translate(36 -43)" onmousedown="handlePan(1,0)">
                  <use xlink:href="#rim" fill="#404040">
                        <set attributeName="fill" to="#808080" begin="arrowRight.mouseover" end="arrowRight.mouseout"/>
                  </use>
                  <path fill="none" stroke="white" stroke-width="1.5" d="M0,-3.0v7 M-2.5,-0.5L0,-3.0L2.5,-0.5"/>
                </g>
                <g id="arrowDown" xlink:href="#dirArrow" transform="rotate(180) translate(-30 -48)" onmousedown="handlePan(0,1)">
                  <use xlink:href="#rim" fill="#404040">
                        <set attributeName="fill" to="#808080" begin="arrowDown.mouseover" end="arrowDown.mouseout"/>
                  </use>
                  <path fill="none" stroke="white" stroke-width="1.5" d="M0,-3.0v7 M-2.5,-0.5L0,-3.0L2.5,-0.5"/>
                </g>
                <g id="arrowLeft" xlink:href="#dirArrow" transform="rotate(270) translate(-36 17)" onmousedown="handlePan(-1,0)">
                  <use xlink:href="#rim" fill="#404040">
                        <set attributeName="fill" to="#808080" begin="arrowLeft.mouseover" end="arrowLeft.mouseout"/>
                  </use>
                  <path fill="none" stroke="white" stroke-width="1.5" d="M0,-3.0v7 M-2.5,-0.5L0,-3.0L2.5,-0.5"/>
                </g>
        </g>
        <svg viewBox="0 0 15 15" width="100%" height="30px" preserveAspectRatio="xMaxYMin meet">
         <g id="arrow_out" transform="scale(0.3 0.3)">
          <a xlink:href="classjavolution_1_1text_1_1TextBuilder__coll__graph_org.svg" target="_base">
           <rect id="button" ry="5" rx="5" y="6" x="6" height="38" width="38"
                fill="#f2f5e9" fill-opacity="0.5" stroke="#606060" stroke-width="1.0"/>
           <path id="arrow"
             d="M 11.500037,31.436501 C 11.940474,20.09759 22.043105,11.32322 32.158766,21.979434 L 37.068811,17.246167 C 37.068811,17.246167 37.088388,32 37.088388,32 L 22.160133,31.978069 C 22.160133,31.978069 26.997745,27.140456 26.997745,27.140456 C 18.528582,18.264221 13.291696,25.230495 11.500037,31.436501 z"
             style="fill:#404040;"/>
          </a>
         </g>
        </svg>
</svg>
