<?xml version="1.0" encoding="UTF-8" standalone="no"?>
<!DOCTYPE svg PUBLIC "-//W3C//DTD SVG 1.1//EN"
 "http://www.w3.org/Graphics/SVG/1.1/DTD/svg11.dtd">
<!-- Generated by graphviz version 2.43.0 (0)
 -->
<!-- Title: javolution.util.function.Predicate.test Pages: 1 -->
<svg width="647pt" height="186pt"
 viewBox="0.00 0.00 647.00 186.00" xmlns="http://www.w3.org/2000/svg" xmlns:xlink="http://www.w3.org/1999/xlink">
<g id="graph0" class="graph" transform="scale(1 1) rotate(0) translate(4 182)">
<title>javolution.util.function.Predicate.test</title>
<polygon fill="white" stroke="transparent" points="-4,4 -4,-182 643,-182 643,4 -4,4"/>
<!-- Node1 -->
<g id="node1" class="node">
<title>Node1</title>
<g id="a_node1"><a xlink:title=" ">
<polygon fill="#bfbfbf" stroke="black" points="509,-73.5 509,-103.5 639,-103.5 639,-73.5 509,-73.5"/>
<text text-anchor="start" x="517" y="-91.5" font-family="Helvetica,sans-Serif" font-size="10.00">javolution.util.function.</text>
<text text-anchor="middle" x="574" y="-80.5" font-family="Helvetica,sans-Serif" font-size="10.00">Predicate.test</text>
</a>
</g>
</g>
<!-- Node2 -->
<g id="node2" class="node">
<title>Node2</title>
<g id="a_node2"><a xlink:href="../../d0/d88/classjavolution_1_1util_1_1internal_1_1collection_1_1FilteredCollectionImpl.html#ae2e662a28a0d4d72b3638146f0621f3c" target="_top" xlink:title=" ">
<polygon fill="white" stroke="black" points="270,-147.5 270,-177.5 448,-177.5 448,-147.5 270,-147.5"/>
<text text-anchor="start" x="278" y="-165.5" font-family="Helvetica,sans-Serif" font-size="10.00">javolution.util.internal.collection.</text>
<text text-anchor="middle" x="359" y="-154.5" font-family="Helvetica,sans-Serif" font-size="10.00">FilteredCollectionImpl.add</text>
</a>
</g>
</g>
<!-- Node1&#45;&gt;Node2 -->
<g id="edge1" class="edge">
<title>Node1&#45;&gt;Node2</title>
<path fill="none" stroke="midnightblue" d="M538.66,-108.4C519.79,-118.62 495.67,-130.57 473,-138.5 463.35,-141.88 453.05,-144.86 442.76,-147.47"/>
<polygon fill="midnightblue" stroke="midnightblue" points="540.41,-111.43 547.48,-103.54 537.03,-105.3 540.41,-111.43"/>
</g>
<!-- Node3 -->
<g id="node3" class="node">
<title>Node3</title>
<g id="a_node3"><a xlink:href="../../d0/d88/classjavolution_1_1util_1_1internal_1_1collection_1_1FilteredCollectionImpl.html#af34478f9d4a0047aabb80732e8477963" target="_top" xlink:title=" ">
<polygon fill="white" stroke="black" points="270,-98.5 270,-128.5 448,-128.5 448,-98.5 270,-98.5"/>
<text text-anchor="start" x="278" y="-116.5" font-family="Helvetica,sans-Serif" font-size="10.00">javolution.util.internal.collection.</text>
<text text-anchor="middle" x="359" y="-105.5" font-family="Helvetica,sans-Serif" font-size="10.00">FilteredCollectionImpl.contains</text>
</a>
</g>
</g>
<!-- Node1&#45;&gt;Node3 -->
<g id="edge2" class="edge">
<title>Node1&#45;&gt;Node3</title>
<path fill="none" stroke="midnightblue" d="M498.77,-97.21C482.41,-99.13 464.92,-101.19 448.06,-103.16"/>
<polygon fill="midnightblue" stroke="midnightblue" points="499.28,-100.68 508.8,-96.03 498.46,-93.72 499.28,-100.68"/>
</g>
<!-- Node4 -->
<g id="node4" class="node">
<title>Node4</title>
<g id="a_node4"><a xlink:href="../../da/d33/classjavolution_1_1util_1_1internal_1_1collection_1_1FilteredCollectionImpl_1_1IteratorImpl.html#a3a42dbae9e46ecc36b73d732405bc2e8" target="_top" xlink:title=" ">
<polygon fill="white" stroke="black" points="245,-49.5 245,-79.5 473,-79.5 473,-49.5 245,-49.5"/>
<text text-anchor="start" x="253" y="-67.5" font-family="Helvetica,sans-Serif" font-size="10.00">javolution.util.internal.collection.</text>
<text text-anchor="middle" x="359" y="-56.5" font-family="Helvetica,sans-Serif" font-size="10.00">FilteredCollectionImpl.IteratorImpl.hasNext</text>
</a>
</g>
</g>
<!-- Node1&#45;&gt;Node4 -->
<g id="edge3" class="edge">
<title>Node1&#45;&gt;Node4</title>
<path fill="none" stroke="midnightblue" d="M498.86,-80.15C490.57,-79.21 482,-78.25 473.37,-77.27"/>
<polygon fill="midnightblue" stroke="midnightblue" points="498.48,-83.62 508.8,-81.27 499.26,-76.67 498.48,-83.62"/>
</g>
<!-- Node6 -->
<g id="node6" class="node">
<title>Node6</title>
<g id="a_node6"><a xlink:href="../../d0/d88/classjavolution_1_1util_1_1internal_1_1collection_1_1FilteredCollectionImpl.html#a5c52752ce6862bdd8a7001db48e1206d" target="_top" xlink:title=" ">
<polygon fill="white" stroke="black" points="270,-0.5 270,-30.5 448,-30.5 448,-0.5 270,-0.5"/>
<text text-anchor="start" x="278" y="-18.5" font-family="Helvetica,sans-Serif" font-size="10.00">javolution.util.internal.collection.</text>
<text text-anchor="middle" x="359" y="-7.5" font-family="Helvetica,sans-Serif" font-size="10.00">FilteredCollectionImpl.remove</text>
</a>
</g>
</g>
<!-- Node1&#45;&gt;Node6 -->
<g id="edge5" class="edge">
<title>Node1&#45;&gt;Node6</title>
<path fill="none" stroke="midnightblue" d="M536.7,-68.59C518.09,-59.02 494.8,-48.03 473,-40.5 462.18,-36.76 450.57,-33.45 439.07,-30.55"/>
<polygon fill="midnightblue" stroke="midnightblue" points="535.22,-71.76 545.71,-73.29 538.46,-65.56 535.22,-71.76"/>
</g>
<!-- Node5 -->
<g id="node5" class="node">
<title>Node5</title>
<g id="a_node5"><a xlink:href="../../da/d33/classjavolution_1_1util_1_1internal_1_1collection_1_1FilteredCollectionImpl_1_1IteratorImpl.html#a18d38b3e080f1bbec63eb9902b283a72" target="_top" xlink:title=" ">
<polygon fill="white" stroke="black" points="0,-49.5 0,-79.5 209,-79.5 209,-49.5 0,-49.5"/>
<text text-anchor="start" x="8" y="-67.5" font-family="Helvetica,sans-Serif" font-size="10.00">javolution.util.internal.collection.</text>
<text text-anchor="middle" x="104.5" y="-56.5" font-family="Helvetica,sans-Serif" font-size="10.00">FilteredCollectionImpl.IteratorImpl.next</text>
</a>
</g>
</g>
<!-- Node4&#45;&gt;Node5 -->
<g id="edge4" class="edge">
<title>Node4&#45;&gt;Node5</title>
<path fill="none" stroke="midnightblue" d="M234.42,-64.5C225.99,-64.5 217.55,-64.5 209.24,-64.5"/>
<polygon fill="midnightblue" stroke="midnightblue" points="234.68,-68 244.68,-64.5 234.68,-61 234.68,-68"/>
</g>
</g>
</svg>
