<?xml version="1.0" encoding="UTF-8" standalone="no"?>
<!DOCTYPE svg PUBLIC "-//W3C//DTD SVG 1.1//EN"
 "http://www.w3.org/Graphics/SVG/1.1/DTD/svg11.dtd">
<!-- Generated by graphviz version 2.43.0 (0)
 -->
<!-- Title: javolution.util.internal.comparator.LexicalComparatorImpl Pages: 1 -->
<svg width="256pt" height="229pt"
 viewBox="0.00 0.00 255.50 229.00" xmlns="http://www.w3.org/2000/svg" xmlns:xlink="http://www.w3.org/1999/xlink">
<g id="graph0" class="graph" transform="scale(1 1) rotate(0) translate(4 225)">
<title>javolution.util.internal.comparator.LexicalComparatorImpl</title>
<polygon fill="white" stroke="transparent" points="-4,4 -4,-225 251.5,-225 251.5,4 -4,4"/>
<!-- Node1 -->
<g id="node1" class="node">
<title>Node1</title>
<g id="a_node1"><a xlink:title=" ">
<polygon fill="#bfbfbf" stroke="black" points="50.5,-67.5 50.5,-97.5 236.5,-97.5 236.5,-67.5 50.5,-67.5"/>
<text text-anchor="start" x="58.5" y="-85.5" font-family="Helvetica,sans-Serif" font-size="10.00">javolution.util.internal.comparator.</text>
<text text-anchor="middle" x="143.5" y="-74.5" font-family="Helvetica,sans-Serif" font-size="10.00">LexicalComparatorImpl</text>
</a>
</g>
</g>
<!-- Node5 -->
<g id="node5" class="node">
<title>Node5</title>
<g id="a_node5"><a xlink:href="../../de/d18/classjavolution_1_1util_1_1internal_1_1comparator_1_1LexicalFastComparatorImpl.html" target="_top" xlink:title=" ">
<polygon fill="white" stroke="black" points="50.5,-0.5 50.5,-30.5 236.5,-30.5 236.5,-0.5 50.5,-0.5"/>
<text text-anchor="start" x="58.5" y="-18.5" font-family="Helvetica,sans-Serif" font-size="10.00">javolution.util.internal.comparator.</text>
<text text-anchor="middle" x="143.5" y="-7.5" font-family="Helvetica,sans-Serif" font-size="10.00">LexicalFastComparatorImpl</text>
</a>
</g>
</g>
<!-- Node1&#45;&gt;Node5 -->
<g id="edge4" class="edge">
<title>Node1&#45;&gt;Node5</title>
<path fill="none" stroke="midnightblue" d="M143.5,-57.11C143.5,-48.15 143.5,-38.32 143.5,-30.58"/>
<polygon fill="midnightblue" stroke="midnightblue" points="140,-57.4 143.5,-67.4 147,-57.4 140,-57.4"/>
</g>
<!-- Node2 -->
<g id="node2" class="node">
<title>Node2</title>
<g id="a_node2"><a xlink:href="../../de/d72/interfacejavolution_1_1util_1_1function_1_1Equality.html" target="_top" xlink:title=" ">
<polygon fill="white" stroke="black" points="0,-134.5 0,-164.5 155,-164.5 155,-134.5 0,-134.5"/>
<text text-anchor="start" x="8" y="-152.5" font-family="Helvetica,sans-Serif" font-size="10.00">javolution::util::function</text>
<text text-anchor="middle" x="77.5" y="-141.5" font-family="Helvetica,sans-Serif" font-size="10.00">::Equality&lt; CharSequence &gt;</text>
</a>
</g>
</g>
<!-- Node2&#45;&gt;Node1 -->
<g id="edge1" class="edge">
<title>Node2&#45;&gt;Node1</title>
<path fill="none" stroke="midnightblue" d="M99.01,-127.31C108.91,-117.56 120.39,-106.26 129.21,-97.58"/>
<polygon fill="midnightblue" stroke="midnightblue" points="96.49,-124.89 91.82,-134.4 101.4,-129.87 96.49,-124.89"/>
</g>
<!-- Node3 -->
<g id="node3" class="node">
<title>Node3</title>
<g id="a_node3"><a xlink:title=" ">
<polygon fill="white" stroke="#bfbfbf" points="1.5,-201.5 1.5,-220.5 153.5,-220.5 153.5,-201.5 1.5,-201.5"/>
<text text-anchor="middle" x="77.5" y="-208.5" font-family="Helvetica,sans-Serif" font-size="10.00">java::util::Comparator&lt; T &gt;</text>
</a>
</g>
</g>
<!-- Node3&#45;&gt;Node2 -->
<g id="edge2" class="edge">
<title>Node3&#45;&gt;Node2</title>
<path fill="none" stroke="midnightblue" d="M77.5,-191.23C77.5,-182.59 77.5,-172.5 77.5,-164.52"/>
<polygon fill="midnightblue" stroke="midnightblue" points="74,-191.48 77.5,-201.48 81,-191.48 74,-191.48"/>
</g>
<!-- Node4 -->
<g id="node4" class="node">
<title>Node4</title>
<g id="a_node4"><a xlink:title=" ">
<polygon fill="white" stroke="#bfbfbf" points="173.5,-140 173.5,-159 247.5,-159 247.5,-140 173.5,-140"/>
<text text-anchor="middle" x="210.5" y="-147" font-family="Helvetica,sans-Serif" font-size="10.00">Serializable</text>
</a>
</g>
</g>
<!-- Node4&#45;&gt;Node1 -->
<g id="edge3" class="edge">
<title>Node4&#45;&gt;Node1</title>
<path fill="none" stroke="midnightblue" d="M194.13,-132.62C183.09,-121.91 168.65,-107.9 158.02,-97.59"/>
<polygon fill="midnightblue" stroke="midnightblue" points="191.85,-135.28 201.46,-139.73 196.72,-130.26 191.85,-135.28"/>
</g>
</g>
</svg>
