<?xml version="1.0" encoding="UTF-8" standalone="no"?>
<!DOCTYPE svg PUBLIC "-//W3C//DTD SVG 1.1//EN"
 "http://www.w3.org/Graphics/SVG/1.1/DTD/svg11.dtd">
<!-- Generated by graphviz version 2.43.0 (0)
 -->
<!-- Title: javolution.util.internal.map.AtomicMapImpl&lt; K, V &gt; Pages: 1 -->
<svg width="904pt" height="214pt"
 viewBox="0.00 0.00 904.00 214.00" xmlns="http://www.w3.org/2000/svg" xmlns:xlink="http://www.w3.org/1999/xlink">
<g id="graph0" class="graph" transform="scale(1 1) rotate(0) translate(4 210)">
<title>javolution.util.internal.map.AtomicMapImpl&lt; K, V &gt;</title>
<polygon fill="white" stroke="transparent" points="-4,4 -4,-210 900,-210 900,4 -4,4"/>
<!-- Node1 -->
<g id="node1" class="node">
<title>Node1</title>
<g id="a_node1"><a xlink:title=" ">
<polygon fill="#bfbfbf" stroke="black" points="512,-82 512,-112 664,-112 664,-82 512,-82"/>
<text text-anchor="start" x="520" y="-100" font-family="Helvetica,sans-Serif" font-size="10.00">javolution.util.internal.map.</text>
<text text-anchor="middle" x="588" y="-89" font-family="Helvetica,sans-Serif" font-size="10.00">AtomicMapImpl&lt; K, V &gt;</text>
</a>
</g>
</g>
<!-- Node9 -->
<g id="node9" class="node">
<title>Node9</title>
<g id="a_node9"><a xlink:href="../../db/dd1/classjavolution_1_1util_1_1internal_1_1map_1_1sorted_1_1AtomicSortedMapImpl.html" target="_top" xlink:title=" ">
<polygon fill="white" stroke="black" points="700,-76.5 700,-117.5 896,-117.5 896,-76.5 700,-76.5"/>
<text text-anchor="start" x="708" y="-105.5" font-family="Helvetica,sans-Serif" font-size="10.00">javolution::util::internal</text>
<text text-anchor="start" x="708" y="-94.5" font-family="Helvetica,sans-Serif" font-size="10.00">::map::sorted::AtomicSortedMapImpl</text>
<text text-anchor="middle" x="798" y="-83.5" font-family="Helvetica,sans-Serif" font-size="10.00">&lt; K, V &gt;</text>
</a>
</g>
</g>
<!-- Node1&#45;&gt;Node9 -->
<g id="edge8" class="edge">
<title>Node1&#45;&gt;Node9</title>
<path fill="none" stroke="midnightblue" d="M674.3,-97C682.75,-97 691.37,-97 699.93,-97"/>
<polygon fill="midnightblue" stroke="midnightblue" points="674.09,-93.5 664.09,-97 674.09,-100.5 674.09,-93.5"/>
</g>
<!-- Node2 -->
<g id="node2" class="node">
<title>Node2</title>
<g id="a_node2"><a xlink:href="../../d0/d83/classjavolution_1_1util_1_1internal_1_1map_1_1MapView.html" target="_top" xlink:title=" ">
<polygon fill="white" stroke="black" points="339,-82 339,-112 476,-112 476,-82 339,-82"/>
<text text-anchor="start" x="347" y="-100" font-family="Helvetica,sans-Serif" font-size="10.00">javolution::util::internal</text>
<text text-anchor="middle" x="407.5" y="-89" font-family="Helvetica,sans-Serif" font-size="10.00">::map::MapView&lt; K, V &gt;</text>
</a>
</g>
</g>
<!-- Node2&#45;&gt;Node1 -->
<g id="edge1" class="edge">
<title>Node2&#45;&gt;Node1</title>
<path fill="none" stroke="midnightblue" d="M486.44,-97C494.88,-97 503.45,-97 511.85,-97"/>
<polygon fill="midnightblue" stroke="midnightblue" points="486.24,-93.5 476.24,-97 486.24,-100.5 486.24,-93.5"/>
</g>
<!-- Node3 -->
<g id="node3" class="node">
<title>Node3</title>
<g id="a_node3"><a xlink:href="../../d7/d30/interfacejavolution_1_1util_1_1service_1_1MapService.html" target="_top" xlink:title=" ">
<polygon fill="white" stroke="black" points="175,-82 175,-112 303,-112 303,-82 175,-82"/>
<text text-anchor="start" x="183" y="-100" font-family="Helvetica,sans-Serif" font-size="10.00">javolution::util::service</text>
<text text-anchor="middle" x="239" y="-89" font-family="Helvetica,sans-Serif" font-size="10.00">::MapService&lt; K, V &gt;</text>
</a>
</g>
</g>
<!-- Node3&#45;&gt;Node2 -->
<g id="edge2" class="edge">
<title>Node3&#45;&gt;Node2</title>
<path fill="none" stroke="midnightblue" d="M313.58,-97C321.97,-97 330.51,-97 338.82,-97"/>
<polygon fill="midnightblue" stroke="midnightblue" points="313.42,-93.5 303.42,-97 313.42,-100.5 313.42,-93.5"/>
</g>
<!-- Node4 -->
<g id="node4" class="node">
<title>Node4</title>
<g id="a_node4"><a xlink:title=" ">
<polygon fill="white" stroke="#bfbfbf" points="5.5,-186.5 5.5,-205.5 133.5,-205.5 133.5,-186.5 5.5,-186.5"/>
<text text-anchor="middle" x="69.5" y="-193.5" font-family="Helvetica,sans-Serif" font-size="10.00">java::util::Map&lt; K, V &gt;</text>
</a>
</g>
</g>
<!-- Node4&#45;&gt;Node3 -->
<g id="edge3" class="edge">
<title>Node4&#45;&gt;Node3</title>
<path fill="none" stroke="midnightblue" d="M124.83,-183.18C129.73,-181.36 134.52,-179.3 139,-177 172.41,-159.82 205.1,-130.18 223.3,-112.2"/>
<polygon fill="midnightblue" stroke="midnightblue" points="123.69,-179.87 115.36,-186.41 125.95,-186.5 123.69,-179.87"/>
</g>
<!-- Node5 -->
<g id="node5" class="node">
<title>Node5</title>
<g id="a_node5"><a xlink:title=" ">
<polygon fill="white" stroke="#bfbfbf" points="0,-137 0,-167 139,-167 139,-137 0,-137"/>
<text text-anchor="start" x="8" y="-155" font-family="Helvetica,sans-Serif" font-size="10.00">java::util::concurrent</text>
<text text-anchor="middle" x="69.5" y="-144" font-family="Helvetica,sans-Serif" font-size="10.00">::ConcurrentMap&lt; K, V &gt;</text>
</a>
</g>
</g>
<!-- Node5&#45;&gt;Node3 -->
<g id="edge4" class="edge">
<title>Node5&#45;&gt;Node3</title>
<path fill="none" stroke="midnightblue" d="M125.93,-133.8C147.45,-126.73 171.8,-118.74 192.29,-112.01"/>
<polygon fill="midnightblue" stroke="midnightblue" points="124.68,-130.53 116.27,-136.97 126.86,-137.18 124.68,-130.53"/>
</g>
<!-- Node6 -->
<g id="node6" class="node">
<title>Node6</title>
<g id="a_node6"><a xlink:href="../../dd/ded/interfacejavolution_1_1util_1_1function_1_1Splittable.html" target="_top" xlink:title=" ">
<polygon fill="white" stroke="black" points="1,-76.5 1,-117.5 138,-117.5 138,-76.5 1,-76.5"/>
<text text-anchor="start" x="9" y="-105.5" font-family="Helvetica,sans-Serif" font-size="10.00">javolution::util::function</text>
<text text-anchor="start" x="9" y="-94.5" font-family="Helvetica,sans-Serif" font-size="10.00">::Splittable&lt; MapService</text>
<text text-anchor="middle" x="69.5" y="-83.5" font-family="Helvetica,sans-Serif" font-size="10.00">&lt; K, V &gt; &gt;</text>
</a>
</g>
</g>
<!-- Node6&#45;&gt;Node3 -->
<g id="edge5" class="edge">
<title>Node6&#45;&gt;Node3</title>
<path fill="none" stroke="midnightblue" d="M148.21,-97C157.18,-97 166.24,-97 174.98,-97"/>
<polygon fill="midnightblue" stroke="midnightblue" points="148.15,-93.5 138.15,-97 148.15,-100.5 148.15,-93.5"/>
</g>
<!-- Node7 -->
<g id="node7" class="node">
<title>Node7</title>
<g id="a_node7"><a xlink:title=" ">
<polygon fill="white" stroke="#bfbfbf" points="32.5,-38.5 32.5,-57.5 106.5,-57.5 106.5,-38.5 32.5,-38.5"/>
<text text-anchor="middle" x="69.5" y="-45.5" font-family="Helvetica,sans-Serif" font-size="10.00">Serializable</text>
</a>
</g>
</g>
<!-- Node7&#45;&gt;Node3 -->
<g id="edge6" class="edge">
<title>Node7&#45;&gt;Node3</title>
<path fill="none" stroke="midnightblue" d="M115.24,-60.25C123.17,-62.46 131.33,-64.78 139,-67 155.39,-71.75 173.24,-77.11 189.22,-81.97"/>
<polygon fill="midnightblue" stroke="midnightblue" points="115.97,-56.81 105.39,-57.51 114.09,-63.56 115.97,-56.81"/>
</g>
<!-- Node8 -->
<g id="node8" class="node">
<title>Node8</title>
<g id="a_node8"><a xlink:href="../../d5/d48/classCloneable.html" target="_top" xlink:title=" ">
<polygon fill="white" stroke="black" points="37,-0.5 37,-19.5 102,-19.5 102,-0.5 37,-0.5"/>
<text text-anchor="middle" x="69.5" y="-7.5" font-family="Helvetica,sans-Serif" font-size="10.00">Cloneable</text>
</a>
</g>
</g>
<!-- Node8&#45;&gt;Node3 -->
<g id="edge7" class="edge">
<title>Node8&#45;&gt;Node3</title>
<path fill="none" stroke="midnightblue" d="M111.99,-19.13C121.1,-21.78 130.54,-25.06 139,-29 169.43,-43.18 200.74,-66.42 219.79,-81.72"/>
<polygon fill="midnightblue" stroke="midnightblue" points="112.88,-15.74 102.31,-16.49 111.04,-22.5 112.88,-15.74"/>
</g>
</g>
</svg>
