<?xml version="1.0" encoding="UTF-8" standalone="no"?>
<!DOCTYPE svg PUBLIC "-//W3C//DTD SVG 1.1//EN"
 "http://www.w3.org/Graphics/SVG/1.1/DTD/svg11.dtd">
<!-- Generated by graphviz version 2.43.0 (0)
 -->
<!-- Title: javolution.util.internal.comparator.LexicalCaseInsensitiveComparatorImpl.up Pages: 1 -->
<svg width="537pt" height="137pt"
 viewBox="0.00 0.00 537.00 137.00" xmlns="http://www.w3.org/2000/svg" xmlns:xlink="http://www.w3.org/1999/xlink">
<g id="graph0" class="graph" transform="scale(1 1) rotate(0) translate(4 133)">
<title>javolution.util.internal.comparator.LexicalCaseInsensitiveComparatorImpl.up</title>
<polygon fill="white" stroke="transparent" points="-4,4 -4,-133 533,-133 533,4 -4,4"/>
<!-- Node1 -->
<g id="node1" class="node">
<title>Node1</title>
<g id="a_node1"><a xlink:title=" ">
<polygon fill="#bfbfbf" stroke="black" points="306,-49.5 306,-79.5 529,-79.5 529,-49.5 306,-49.5"/>
<text text-anchor="start" x="314" y="-67.5" font-family="Helvetica,sans-Serif" font-size="10.00">javolution.util.internal.comparator.</text>
<text text-anchor="middle" x="417.5" y="-56.5" font-family="Helvetica,sans-Serif" font-size="10.00">LexicalCaseInsensitiveComparatorImpl.up</text>
</a>
</g>
</g>
<!-- Node2 -->
<g id="node2" class="node">
<title>Node2</title>
<g id="a_node2"><a xlink:href="../../df/d01/classjavolution_1_1util_1_1internal_1_1comparator_1_1LexicalCaseInsensitiveComparatorImpl.html#acc5db6b21f427d0b17fe4a2747efe16b" target="_top" xlink:title=" ">
<polygon fill="white" stroke="black" points="8,-98.5 8,-128.5 262,-128.5 262,-98.5 8,-98.5"/>
<text text-anchor="start" x="16" y="-116.5" font-family="Helvetica,sans-Serif" font-size="10.00">javolution.util.internal.comparator.</text>
<text text-anchor="middle" x="135" y="-105.5" font-family="Helvetica,sans-Serif" font-size="10.00">LexicalCaseInsensitiveComparatorImpl.areEqual</text>
</a>
</g>
</g>
<!-- Node1&#45;&gt;Node2 -->
<g id="edge1" class="edge">
<title>Node1&#45;&gt;Node2</title>
<path fill="none" stroke="midnightblue" d="M320.2,-81.32C288.28,-86.9 252.99,-93.06 221.9,-98.49"/>
<polygon fill="midnightblue" stroke="midnightblue" points="321.19,-84.7 330.43,-79.53 319.98,-77.81 321.19,-84.7"/>
</g>
<!-- Node3 -->
<g id="node3" class="node">
<title>Node3</title>
<g id="a_node3"><a xlink:href="../../df/d01/classjavolution_1_1util_1_1internal_1_1comparator_1_1LexicalCaseInsensitiveComparatorImpl.html#a9fe4a3a77d5d33a67ec636c429dfc062" target="_top" xlink:title=" ">
<polygon fill="white" stroke="black" points="8,-49.5 8,-79.5 262,-79.5 262,-49.5 8,-49.5"/>
<text text-anchor="start" x="16" y="-67.5" font-family="Helvetica,sans-Serif" font-size="10.00">javolution.util.internal.comparator.</text>
<text text-anchor="middle" x="135" y="-56.5" font-family="Helvetica,sans-Serif" font-size="10.00">LexicalCaseInsensitiveComparatorImpl.compare</text>
</a>
</g>
</g>
<!-- Node1&#45;&gt;Node3 -->
<g id="edge2" class="edge">
<title>Node1&#45;&gt;Node3</title>
<path fill="none" stroke="midnightblue" d="M295.56,-64.5C284.53,-64.5 273.34,-64.5 262.27,-64.5"/>
<polygon fill="midnightblue" stroke="midnightblue" points="295.64,-68 305.64,-64.5 295.64,-61 295.64,-68"/>
</g>
<!-- Node4 -->
<g id="node4" class="node">
<title>Node4</title>
<g id="a_node4"><a xlink:href="../../df/d01/classjavolution_1_1util_1_1internal_1_1comparator_1_1LexicalCaseInsensitiveComparatorImpl.html#abfba6acc0623830508bad99c0c294912" target="_top" xlink:title=" ">
<polygon fill="white" stroke="black" points="0,-0.5 0,-30.5 270,-30.5 270,-0.5 0,-0.5"/>
<text text-anchor="start" x="8" y="-18.5" font-family="Helvetica,sans-Serif" font-size="10.00">javolution.util.internal.comparator.</text>
<text text-anchor="middle" x="135" y="-7.5" font-family="Helvetica,sans-Serif" font-size="10.00">LexicalCaseInsensitiveComparatorImpl.hashCodeOf</text>
</a>
</g>
</g>
<!-- Node1&#45;&gt;Node4 -->
<g id="edge3" class="edge">
<title>Node1&#45;&gt;Node4</title>
<path fill="none" stroke="midnightblue" d="M320.2,-47.68C288.28,-42.1 252.99,-35.94 221.9,-30.51"/>
<polygon fill="midnightblue" stroke="midnightblue" points="319.98,-51.19 330.43,-49.47 321.19,-44.3 319.98,-51.19"/>
</g>
</g>
</svg>
