<?xml version="1.0" encoding="UTF-8" standalone="no"?>
<!DOCTYPE svg PUBLIC "-//W3C//DTD SVG 1.1//EN"
 "http://www.w3.org/Graphics/SVG/1.1/DTD/svg11.dtd">
<!-- Generated by graphviz version 2.43.0 (0)
 -->
<!-- Title: javolution.xml.XMLFormat.OutputElement.setAttribute Pages: 1 -->
<!--zoomable 434 -->
<svg id="main" version="1.1" xmlns="http://www.w3.org/2000/svg" xmlns:xlink="http://www.w3.org/1999/xlink" xml:space="preserve" onload="init(evt)">
<style type="text/css"><![CDATA[
.edge:hover path { stroke: red; }
.edge:hover polygon { stroke: red; fill: red; }
]]></style>
<script type="text/javascript"><![CDATA[
var edges = document.getElementsByTagName('g');
if (edges && edges.length) {
  for (var i=0;i<edges.length;i++) {
    if (edges[i].id.substr(0,4)=='edge') {
      edges[i].setAttribute('class','edge');
    }
  }
}
]]></script>
        <defs>
                <circle id="rim" cx="0" cy="0" r="7"/>
                <circle id="rim2" cx="0" cy="0" r="3.5"/>
                <g id="zoomPlus">
                        <use xlink:href="#rim" fill="#404040">
                                <set attributeName="fill" to="#808080" begin="zoomplus.mouseover" end="zoomplus.mouseout"/>
                        </use>
                        <path d="M-4,0h8M0,-4v8" fill="none" stroke="white" stroke-width="1.5" pointer-events="none"/>
                </g>
                <g id="zoomMin">
                        <use xlink:href="#rim" fill="#404040">
                                <set attributeName="fill" to="#808080" begin="zoomminus.mouseover" end="zoomminus.mouseout"/>
                        </use>
                        <path d="M-4,0h8" fill="none" stroke="white" stroke-width="1.5" pointer-events="none"/>
                </g>
                <g id="dirArrow">
                        <path fill="none" stroke="white" stroke-width="1.5" d="M0,-3.0v7 M-2.5,-0.5L0,-3.0L2.5,-0.5"/>
                </g>
               <g id="resetDef">
                       <use xlink:href="#rim2" fill="#404040">
                               <set attributeName="fill" to="#808080" begin="reset.mouseover" end="reset.mouseout"/>
                       </use>
               </g>
        </defs>

<script type="text/javascript">
var viewWidth = 1562;
var viewHeight = 434;
var sectionId = 'dynsection-11';
</script>
<script xlink:href="../../svgpan.js"/>
<svg id="graph" class="graph">
<g id="viewport">
<title>javolution.xml.XMLFormat.OutputElement.setAttribute</title>
<polygon fill="white" stroke="transparent" points="-4,4 -4,-430.19 1558,-430.19 1558,4 -4,4"/>
<!-- Node1 -->
<g id="node1" class="node">
<title>Node1</title>
<g id="a_node1"><a xlink:title=" ">
<polygon fill="#bfbfbf" stroke="black" points="0,-257 0,-287 151,-287 151,-257 0,-257"/>
<text text-anchor="start" x="8" y="-275" font-family="Helvetica,sans-Serif" font-size="10.00">javolution.xml.XMLFormat.</text>
<text text-anchor="middle" x="75.5" y="-264" font-family="Helvetica,sans-Serif" font-size="10.00">OutputElement.setAttribute</text>
</a>
</g>
</g>
<!-- Node2 -->
<g id="node2" class="node">
<title>Node2</title>
<g id="a_node2"><a xlink:href="../../d4/d15/classjavolution_1_1xml_1_1internal_1_1stream_1_1XMLStreamWriterImpl.html#a51cc6d919b457ac828fc8f150a76fbf9" target="_top" xlink:title=" ">
<polygon fill="white" stroke="black" points="187,-257 187,-287 382,-287 382,-257 187,-257"/>
<text text-anchor="start" x="195" y="-275" font-family="Helvetica,sans-Serif" font-size="10.00">javolution.xml.internal.stream.</text>
<text text-anchor="middle" x="284.5" y="-264" font-family="Helvetica,sans-Serif" font-size="10.00">XMLStreamWriterImpl.writeAttribute</text>
</a>
</g>
</g>
<!-- Node1&#45;&gt;Node2 -->
<g id="edge1" class="edge">
<title>Node1&#45;&gt;Node2</title>
<path fill="none" stroke="midnightblue" d="M151.23,-272C159.56,-272 168.15,-272 176.77,-272"/>
<polygon fill="midnightblue" stroke="midnightblue" points="176.89,-275.5 186.89,-272 176.89,-268.5 176.89,-275.5"/>
</g>
<!-- Node3 -->
<g id="node3" class="node">
<title>Node3</title>
<g id="a_node3"><a xlink:href="../../d4/d15/classjavolution_1_1xml_1_1internal_1_1stream_1_1XMLStreamWriterImpl.html#a67df1c83cc5a3ea172419ca10d1b2ca2" target="_top" xlink:title=" ">
<polygon fill="white" stroke="black" points="418,-251.5 418,-292.5 613,-292.5 613,-251.5 418,-251.5"/>
<text text-anchor="start" x="426" y="-280.5" font-family="Helvetica,sans-Serif" font-size="10.00">javolution.xml.internal.stream.</text>
<text text-anchor="start" x="426" y="-269.5" font-family="Helvetica,sans-Serif" font-size="10.00">XMLStreamWriterImpl.writeAttribute</text>
<text text-anchor="middle" x="515.5" y="-258.5" font-family="Helvetica,sans-Serif" font-size="10.00">OrNamespace</text>
</a>
</g>
</g>
<!-- Node2&#45;&gt;Node3 -->
<g id="edge2" class="edge">
<title>Node2&#45;&gt;Node3</title>
<path fill="none" stroke="midnightblue" d="M382.28,-272C390.62,-272 399.08,-272 407.48,-272"/>
<polygon fill="midnightblue" stroke="midnightblue" points="407.69,-275.5 417.69,-272 407.69,-268.5 407.69,-275.5"/>
</g>
<!-- Node4 -->
<g id="node4" class="node">
<title>Node4</title>
<g id="a_node4"><a xlink:href="../../d0/d36/classjavolution_1_1text_1_1CharArray.html#a63cd0fbe95d0342063ea7091dce0fa9c" target="_top" xlink:title=" ">
<polygon fill="white" stroke="black" points="1144.5,-366.5 1144.5,-385.5 1317.5,-385.5 1317.5,-366.5 1144.5,-366.5"/>
<text text-anchor="middle" x="1231" y="-373.5" font-family="Helvetica,sans-Serif" font-size="10.00">javolution.text.CharArray.equals</text>
</a>
</g>
</g>
<!-- Node3&#45;&gt;Node4 -->
<g id="edge3" class="edge">
<title>Node3&#45;&gt;Node4</title>
<path fill="none" stroke="midnightblue" d="M533.17,-292.81C556.05,-319.62 599.96,-365.14 649,-385 835.89,-460.71 1085.14,-412.7 1185.43,-388.02"/>
<polygon fill="midnightblue" stroke="midnightblue" points="1186.38,-391.39 1195.23,-385.57 1184.68,-384.6 1186.38,-391.39"/>
</g>
<!-- Node5 -->
<g id="node5" class="node">
<title>Node5</title>
<g id="a_node5"><a xlink:href="../../d4/d15/classjavolution_1_1xml_1_1internal_1_1stream_1_1XMLStreamWriterImpl.html#a18e6c7b2d132315d0566892c781a5c86" target="_top" xlink:title=" ">
<polygon fill="white" stroke="black" points="671,-345 671,-375 842,-375 842,-345 671,-345"/>
<text text-anchor="start" x="679" y="-363" font-family="Helvetica,sans-Serif" font-size="10.00">javolution.xml.internal.stream.</text>
<text text-anchor="middle" x="756.5" y="-352" font-family="Helvetica,sans-Serif" font-size="10.00">XMLStreamWriterImpl.getPrefix</text>
</a>
</g>
</g>
<!-- Node3&#45;&gt;Node5 -->
<g id="edge4" class="edge">
<title>Node3&#45;&gt;Node5</title>
<path fill="none" stroke="midnightblue" d="M572.23,-292.52C612.42,-307.32 666.2,-327.12 705.1,-341.44"/>
<polygon fill="midnightblue" stroke="midnightblue" points="704.06,-344.79 714.65,-344.96 706.48,-338.22 704.06,-344.79"/>
</g>
<!-- Node7 -->
<g id="node7" class="node">
<title>Node7</title>
<g id="a_node7"><a xlink:href="../../d4/d15/classjavolution_1_1xml_1_1internal_1_1stream_1_1XMLStreamWriterImpl.html#af5e4a42b57208973be8a1136cc607d09" target="_top" xlink:title=" ">
<polygon fill="white" stroke="black" points="649,-279 649,-309 864,-309 864,-279 649,-279"/>
<text text-anchor="start" x="657" y="-297" font-family="Helvetica,sans-Serif" font-size="10.00">javolution.xml.internal.stream.</text>
<text text-anchor="middle" x="756.5" y="-286" font-family="Helvetica,sans-Serif" font-size="10.00">XMLStreamWriterImpl.getRepairedPrefix</text>
</a>
</g>
</g>
<!-- Node3&#45;&gt;Node7 -->
<g id="edge7" class="edge">
<title>Node3&#45;&gt;Node7</title>
<path fill="none" stroke="midnightblue" d="M613.02,-280.88C621.5,-281.66 630.13,-282.46 638.74,-283.25"/>
<polygon fill="midnightblue" stroke="midnightblue" points="638.56,-286.75 648.84,-284.18 639.2,-279.78 638.56,-286.75"/>
</g>
<!-- Node14 -->
<g id="node14" class="node">
<title>Node14</title>
<g id="a_node14"><a xlink:href="../../d4/d15/classjavolution_1_1xml_1_1internal_1_1stream_1_1XMLStreamWriterImpl.html#a6d805db8f2c051bd5eb34feb49a602a8" target="_top" xlink:title=" ">
<polygon fill="white" stroke="black" points="908,-142 908,-172 1076,-172 1076,-142 908,-142"/>
<text text-anchor="start" x="916" y="-160" font-family="Helvetica,sans-Serif" font-size="10.00">javolution.xml.internal.stream.</text>
<text text-anchor="middle" x="992" y="-149" font-family="Helvetica,sans-Serif" font-size="10.00">XMLStreamWriterImpl.write</text>
</a>
</g>
</g>
<!-- Node3&#45;&gt;Node14 -->
<g id="edge17" class="edge">
<title>Node3&#45;&gt;Node14</title>
<path fill="none" stroke="midnightblue" d="M613.39,-268.52C700.85,-263.96 822.05,-253.68 864,-231 885.93,-219.15 879.44,-202.1 900,-188 906.75,-183.37 914.26,-179.38 921.98,-175.94"/>
<polygon fill="midnightblue" stroke="midnightblue" points="923.56,-179.08 931.47,-172.03 920.89,-172.61 923.56,-179.08"/>
</g>
<!-- Node19 -->
<g id="node19" class="node">
<title>Node19</title>
<g id="a_node19"><a xlink:href="../../d4/d15/classjavolution_1_1xml_1_1internal_1_1stream_1_1XMLStreamWriterImpl.html#ae9c868796ceee6d3d83d4937c18e9159" target="_top" xlink:title=" ">
<polygon fill="white" stroke="black" points="663,-191 663,-221 850,-221 850,-191 663,-191"/>
<text text-anchor="start" x="671" y="-209" font-family="Helvetica,sans-Serif" font-size="10.00">javolution.xml.internal.stream.</text>
<text text-anchor="middle" x="756.5" y="-198" font-family="Helvetica,sans-Serif" font-size="10.00">XMLStreamWriterImpl.writeEscape</text>
</a>
</g>
</g>
<!-- Node3&#45;&gt;Node19 -->
<g id="edge23" class="edge">
<title>Node3&#45;&gt;Node19</title>
<path fill="none" stroke="midnightblue" d="M590.81,-251.48C622.96,-242.6 660.22,-232.31 691.17,-223.77"/>
<polygon fill="midnightblue" stroke="midnightblue" points="692.27,-227.09 700.98,-221.06 690.41,-220.34 692.27,-227.09"/>
</g>
<!-- Node20 -->
<g id="node20" class="node">
<title>Node20</title>
<g id="a_node20"><a xlink:href="../../d4/d15/classjavolution_1_1xml_1_1internal_1_1stream_1_1XMLStreamWriterImpl.html#a2e628fa8b39f7ce952896efb8e5f63b6" target="_top" xlink:title=" ">
<polygon fill="white" stroke="black" points="656.5,-142 656.5,-172 856.5,-172 856.5,-142 656.5,-142"/>
<text text-anchor="start" x="664.5" y="-160" font-family="Helvetica,sans-Serif" font-size="10.00">javolution.xml.internal.stream.</text>
<text text-anchor="middle" x="756.5" y="-149" font-family="Helvetica,sans-Serif" font-size="10.00">XMLStreamWriterImpl.writeNoEscape</text>
</a>
</g>
</g>
<!-- Node3&#45;&gt;Node20 -->
<g id="edge25" class="edge">
<title>Node3&#45;&gt;Node20</title>
<path fill="none" stroke="midnightblue" d="M540.69,-251.13C566.03,-230.34 607.83,-198.98 649,-181 653.76,-178.92 658.73,-177.01 663.8,-175.26"/>
<polygon fill="midnightblue" stroke="midnightblue" points="665.2,-178.48 673.64,-172.08 663.05,-171.82 665.2,-178.48"/>
</g>
<!-- Node6 -->
<g id="node6" class="node">
<title>Node6</title>
<g id="a_node6"><a xlink:href="../../dc/daa/classjavolution_1_1xml_1_1internal_1_1stream_1_1NamespacesImpl.html#a5a2f11c30da4ca635225ed1c0c5f2668" target="_top" xlink:title=" ">
<polygon fill="white" stroke="black" points="908,-361 908,-391 1076,-391 1076,-361 908,-361"/>
<text text-anchor="start" x="916" y="-379" font-family="Helvetica,sans-Serif" font-size="10.00">javolution.xml.internal.stream.</text>
<text text-anchor="middle" x="992" y="-368" font-family="Helvetica,sans-Serif" font-size="10.00">NamespacesImpl.getPrefix</text>
</a>
</g>
</g>
<!-- Node5&#45;&gt;Node6 -->
<g id="edge5" class="edge">
<title>Node5&#45;&gt;Node6</title>
<path fill="none" stroke="midnightblue" d="M842.13,-365.8C860.19,-367.04 879.36,-368.35 897.72,-369.61"/>
<polygon fill="midnightblue" stroke="midnightblue" points="897.62,-373.11 907.83,-370.3 898.09,-366.13 897.62,-373.11"/>
</g>
<!-- Node6&#45;&gt;Node4 -->
<g id="edge6" class="edge">
<title>Node6&#45;&gt;Node4</title>
<path fill="none" stroke="midnightblue" d="M1076.22,-376C1094.88,-376 1114.82,-376 1133.94,-376"/>
<polygon fill="midnightblue" stroke="midnightblue" points="1134.17,-379.5 1144.17,-376 1134.17,-372.5 1134.17,-379.5"/>
</g>
<!-- Node7&#45;&gt;Node4 -->
<g id="edge11" class="edge">
<title>Node7&#45;&gt;Node4</title>
<path fill="none" stroke="midnightblue" d="M844.16,-309.04C936.87,-325.13 1081.79,-350.28 1165.13,-364.74"/>
<polygon fill="midnightblue" stroke="midnightblue" points="1164.77,-368.23 1175.22,-366.49 1165.97,-361.34 1164.77,-368.23"/>
</g>
<!-- Node7&#45;&gt;Node6 -->
<g id="edge12" class="edge">
<title>Node7&#45;&gt;Node6</title>
<path fill="none" stroke="midnightblue" d="M797.61,-309.02C826.1,-319.59 865.29,-333.95 900,-346 911.17,-349.88 923.16,-353.92 934.64,-357.73"/>
<polygon fill="midnightblue" stroke="midnightblue" points="933.55,-361.05 944.14,-360.86 935.75,-354.41 933.55,-361.05"/>
</g>
<!-- Node8 -->
<g id="node8" class="node">
<title>Node8</title>
<g id="a_node8"><a xlink:href="../../d2/d7a/classjavolution_1_1text_1_1TextBuilder.html#a5b6d5e22b7b33b3188569bbaf6112c95" target="_top" xlink:title=" ">
<polygon fill="white" stroke="black" points="900,-284.5 900,-303.5 1084,-303.5 1084,-284.5 900,-284.5"/>
<text text-anchor="middle" x="992" y="-291.5" font-family="Helvetica,sans-Serif" font-size="10.00">javolution.text.TextBuilder.append</text>
</a>
</g>
</g>
<!-- Node7&#45;&gt;Node8 -->
<g id="edge8" class="edge">
<title>Node7&#45;&gt;Node8</title>
<path fill="none" stroke="midnightblue" d="M864,-294C872.47,-294 881,-294 889.43,-294"/>
<polygon fill="midnightblue" stroke="midnightblue" points="889.65,-297.5 899.65,-294 889.65,-290.5 889.65,-297.5"/>
</g>
<!-- Node10 -->
<g id="node10" class="node">
<title>Node10</title>
<g id="a_node10"><a xlink:href="../../d2/d7a/classjavolution_1_1text_1_1TextBuilder.html#ac6109dc1dfca2e6b48450ae94a8cf59e" target="_top" xlink:title=" ">
<polygon fill="white" stroke="black" points="906,-246.5 906,-265.5 1078,-265.5 1078,-246.5 906,-246.5"/>
<text text-anchor="middle" x="992" y="-253.5" font-family="Helvetica,sans-Serif" font-size="10.00">javolution.text.TextBuilder.clear</text>
</a>
</g>
</g>
<!-- Node7&#45;&gt;Node10 -->
<g id="edge10" class="edge">
<title>Node7&#45;&gt;Node10</title>
<path fill="none" stroke="midnightblue" d="M849.79,-278.98C874.1,-275.02 899.9,-270.82 922.71,-267.11"/>
<polygon fill="midnightblue" stroke="midnightblue" points="923.31,-270.56 932.62,-265.5 922.19,-263.65 923.31,-270.56"/>
</g>
<!-- Node11 -->
<g id="node11" class="node">
<title>Node11</title>
<g id="a_node11"><a xlink:href="../../dc/daa/classjavolution_1_1xml_1_1internal_1_1stream_1_1NamespacesImpl.html#af0e399ec7eca3a967c953ca0901565d3" target="_top" xlink:title=" ">
<polygon fill="white" stroke="black" points="908,-197 908,-227 1076,-227 1076,-197 908,-197"/>
<text text-anchor="start" x="916" y="-215" font-family="Helvetica,sans-Serif" font-size="10.00">javolution.xml.internal.stream.</text>
<text text-anchor="middle" x="992" y="-204" font-family="Helvetica,sans-Serif" font-size="10.00">NamespacesImpl.setPrefix</text>
</a>
</g>
</g>
<!-- Node7&#45;&gt;Node11 -->
<g id="edge13" class="edge">
<title>Node7&#45;&gt;Node11</title>
<path fill="none" stroke="midnightblue" d="M825.38,-278.94C838.52,-274.9 851.95,-269.96 864,-264 881.93,-255.14 882.04,-245.8 900,-237 904.87,-234.61 910.01,-232.42 915.26,-230.42"/>
<polygon fill="midnightblue" stroke="midnightblue" points="916.55,-233.67 924.79,-227.02 914.2,-227.08 916.55,-233.67"/>
</g>
<!-- Node9 -->
<g id="node9" class="node">
<title>Node9</title>
<g id="a_node9"><a xlink:href="../../d2/d7a/classjavolution_1_1text_1_1TextBuilder.html#a6d79c3b6adfe6c04f80f940904d181b4" target="_top" xlink:title=" ">
<polygon fill="white" stroke="black" points="1136.5,-285 1136.5,-315 1325.5,-315 1325.5,-285 1136.5,-285"/>
<text text-anchor="start" x="1144.5" y="-303" font-family="Helvetica,sans-Serif" font-size="10.00">javolution.text.TextBuilder.increase</text>
<text text-anchor="middle" x="1231" y="-292" font-family="Helvetica,sans-Serif" font-size="10.00">Capacity</text>
</a>
</g>
</g>
<!-- Node8&#45;&gt;Node9 -->
<g id="edge9" class="edge">
<title>Node8&#45;&gt;Node9</title>
<path fill="none" stroke="midnightblue" d="M1084.29,-296.31C1098.04,-296.66 1112.3,-297.02 1126.28,-297.37"/>
<polygon fill="midnightblue" stroke="midnightblue" points="1126.32,-300.88 1136.4,-297.63 1126.5,-293.88 1126.32,-300.88"/>
</g>
<!-- Node12 -->
<g id="node12" class="node">
<title>Node12</title>
<g id="a_node12"><a xlink:href="../../d0/d36/classjavolution_1_1text_1_1CharArray.html#a1206e2076e25f1e66e1458328aa22baa" target="_top" xlink:title=" ">
<polygon fill="white" stroke="black" points="1380,-224.5 1380,-243.5 1552,-243.5 1552,-224.5 1380,-224.5"/>
<text text-anchor="middle" x="1466" y="-231.5" font-family="Helvetica,sans-Serif" font-size="10.00">javolution.text.CharArray.length</text>
</a>
</g>
</g>
<!-- Node11&#45;&gt;Node12 -->
<g id="edge14" class="edge">
<title>Node11&#45;&gt;Node12</title>
<path fill="none" stroke="midnightblue" d="M1056.6,-227.03C1076.75,-231.12 1099.2,-234.97 1120,-237 1204.1,-245.2 1300.27,-243.45 1369.67,-240.23"/>
<polygon fill="midnightblue" stroke="midnightblue" points="1369.89,-243.72 1379.71,-239.74 1369.55,-236.73 1369.89,-243.72"/>
</g>
<!-- Node13 -->
<g id="node13" class="node">
<title>Node13</title>
<g id="a_node13"><a xlink:href="../../dc/daa/classjavolution_1_1xml_1_1internal_1_1stream_1_1NamespacesImpl.html#ad1e699fb6fe13f5d6a355f8a8eff25e8" target="_top" xlink:title=" ">
<polygon fill="white" stroke="black" points="1137,-197 1137,-227 1325,-227 1325,-197 1137,-197"/>
<text text-anchor="start" x="1145" y="-215" font-family="Helvetica,sans-Serif" font-size="10.00">javolution.xml.internal.stream.</text>
<text text-anchor="middle" x="1231" y="-204" font-family="Helvetica,sans-Serif" font-size="10.00">NamespacesImpl.resizePrefixStack</text>
</a>
</g>
</g>
<!-- Node11&#45;&gt;Node13 -->
<g id="edge15" class="edge">
<title>Node11&#45;&gt;Node13</title>
<path fill="none" stroke="midnightblue" d="M1076.22,-212C1092.46,-212 1109.67,-212 1126.47,-212"/>
<polygon fill="midnightblue" stroke="midnightblue" points="1126.87,-215.5 1136.87,-212 1126.87,-208.5 1126.87,-215.5"/>
</g>
<!-- Node13&#45;&gt;Node12 -->
<g id="edge16" class="edge">
<title>Node13&#45;&gt;Node12</title>
<path fill="none" stroke="midnightblue" d="M1325.09,-220.79C1339.82,-222.18 1355.07,-223.62 1369.84,-225.02"/>
<polygon fill="midnightblue" stroke="midnightblue" points="1369.7,-228.52 1379.98,-225.97 1370.36,-221.55 1369.7,-228.52"/>
</g>
<!-- Node15 -->
<g id="node15" class="node">
<title>Node15</title>
<g id="a_node15"><a xlink:href="../../d4/d15/classjavolution_1_1xml_1_1internal_1_1stream_1_1XMLStreamWriterImpl.html#ac2145f0f924e9b642dd66dc6d5ee891e" target="_top" xlink:title=" ">
<polygon fill="white" stroke="black" points="1141,-148 1141,-178 1321,-178 1321,-148 1141,-148"/>
<text text-anchor="start" x="1149" y="-166" font-family="Helvetica,sans-Serif" font-size="10.00">javolution.xml.internal.stream.</text>
<text text-anchor="middle" x="1231" y="-155" font-family="Helvetica,sans-Serif" font-size="10.00">XMLStreamWriterImpl.flushBuffer</text>
</a>
</g>
</g>
<!-- Node14&#45;&gt;Node15 -->
<g id="edge18" class="edge">
<title>Node14&#45;&gt;Node15</title>
<path fill="none" stroke="midnightblue" d="M1076.22,-159.11C1093.89,-159.55 1112.71,-160.03 1130.9,-160.49"/>
<polygon fill="midnightblue" stroke="midnightblue" points="1130.85,-163.99 1140.94,-160.75 1131.03,-156.99 1130.85,-163.99"/>
</g>
<!-- Node16 -->
<g id="node16" class="node">
<title>Node16</title>
<g id="a_node16"><a xlink:href="../../d4/d15/classjavolution_1_1xml_1_1internal_1_1stream_1_1XMLStreamWriterImpl.html#a3d00494460e49d0dd3a57e250d4d707c" target="_top" xlink:title=" ">
<polygon fill="white" stroke="black" points="1145.5,-99 1145.5,-129 1316.5,-129 1316.5,-99 1145.5,-99"/>
<text text-anchor="start" x="1153.5" y="-117" font-family="Helvetica,sans-Serif" font-size="10.00">javolution.xml.internal.stream.</text>
<text text-anchor="middle" x="1231" y="-106" font-family="Helvetica,sans-Serif" font-size="10.00">XMLStreamWriterImpl.getChars</text>
</a>
</g>
</g>
<!-- Node14&#45;&gt;Node16 -->
<g id="edge19" class="edge">
<title>Node14&#45;&gt;Node16</title>
<path fill="none" stroke="midnightblue" d="M1075.89,-141.96C1095.74,-138.36 1117.05,-134.49 1137.31,-130.82"/>
<polygon fill="midnightblue" stroke="midnightblue" points="1137.94,-134.26 1147.16,-129.03 1136.69,-127.37 1137.94,-134.26"/>
</g>
<!-- Node17 -->
<g id="node17" class="node">
<title>Node17</title>
<g id="a_node17"><a xlink:href="../../d4/d15/classjavolution_1_1xml_1_1internal_1_1stream_1_1XMLStreamWriterImpl.html#ac48b39590b21a285753d9ecc463d95c1" target="_top" xlink:title=" ">
<polygon fill="white" stroke="black" points="1378,-31 1378,-61 1554,-61 1554,-31 1378,-31"/>
<text text-anchor="start" x="1386" y="-49" font-family="Helvetica,sans-Serif" font-size="10.00">javolution.xml.internal.stream.</text>
<text text-anchor="middle" x="1466" y="-38" font-family="Helvetica,sans-Serif" font-size="10.00">XMLStreamWriterImpl.isEscaped</text>
</a>
</g>
</g>
<!-- Node14&#45;&gt;Node17 -->
<g id="edge20" class="edge">
<title>Node14&#45;&gt;Node17</title>
<path fill="none" stroke="midnightblue" d="M1015.27,-141.78C1039.78,-125.84 1080.91,-101.43 1120,-89 1164.68,-74.8 1282.18,-62 1367.66,-54.13"/>
<polygon fill="midnightblue" stroke="midnightblue" points="1368.02,-57.61 1377.66,-53.22 1367.39,-50.64 1368.02,-57.61"/>
</g>
<!-- Node18 -->
<g id="node18" class="node">
<title>Node18</title>
<g id="a_node18"><a xlink:href="../../d4/d15/classjavolution_1_1xml_1_1internal_1_1stream_1_1XMLStreamWriterImpl.html#a79ed753f8bf18f2eeaf7d7e8f93d60f1" target="_top" xlink:title=" ">
<polygon fill="white" stroke="black" points="1120,-0.5 1120,-41.5 1342,-41.5 1342,-0.5 1120,-0.5"/>
<text text-anchor="start" x="1128" y="-29.5" font-family="Helvetica,sans-Serif" font-size="10.00">javolution.xml.internal.stream.</text>
<text text-anchor="start" x="1128" y="-18.5" font-family="Helvetica,sans-Serif" font-size="10.00">XMLStreamWriterImpl.writeDirectEscaped</text>
<text text-anchor="middle" x="1231" y="-7.5" font-family="Helvetica,sans-Serif" font-size="10.00">Characters</text>
</a>
</g>
</g>
<!-- Node14&#45;&gt;Node18 -->
<g id="edge21" class="edge">
<title>Node14&#45;&gt;Node18</title>
<path fill="none" stroke="midnightblue" d="M1008.1,-141.89C1030.65,-120.1 1075.26,-79.86 1120,-56 1127.44,-52.03 1135.4,-48.43 1143.51,-45.17"/>
<polygon fill="midnightblue" stroke="midnightblue" points="1144.99,-48.35 1153.08,-41.5 1142.49,-41.81 1144.99,-48.35"/>
</g>
<!-- Node18&#45;&gt;Node17 -->
<g id="edge22" class="edge">
<title>Node18&#45;&gt;Node17</title>
<path fill="none" stroke="midnightblue" d="M1342.02,-32.8C1350.66,-33.73 1359.34,-34.66 1367.89,-35.58"/>
<polygon fill="midnightblue" stroke="midnightblue" points="1367.52,-39.06 1377.84,-36.65 1368.27,-32.1 1367.52,-39.06"/>
</g>
<!-- Node19&#45;&gt;Node14 -->
<g id="edge24" class="edge">
<title>Node19&#45;&gt;Node14</title>
<path fill="none" stroke="midnightblue" d="M829.14,-190.97C854.58,-185.63 883.4,-179.58 909.59,-174.08"/>
<polygon fill="midnightblue" stroke="midnightblue" points="910.42,-177.49 919.49,-172.01 908.99,-170.63 910.42,-177.49"/>
</g>
<!-- Node20&#45;&gt;Node14 -->
<g id="edge26" class="edge">
<title>Node20&#45;&gt;Node14</title>
<path fill="none" stroke="midnightblue" d="M856.53,-157C870.09,-157 883.99,-157 897.46,-157"/>
<polygon fill="midnightblue" stroke="midnightblue" points="897.66,-160.5 907.66,-157 897.66,-153.5 897.66,-160.5"/>
</g>
</g>
</svg>
        <g id="navigator" transform="translate(0 0)" fill="#404254">
                <rect fill="#f2f5e9" fill-opacity="0.5" stroke="#606060" stroke-width=".5" x="0" y="0" width="60" height="60"/>
                <use id="zoomplus" xlink:href="#zoomPlus" x="17" y="9" onmousedown="handleZoom(evt,'in')"/>
                <use id="zoomminus" xlink:href="#zoomMin" x="42" y="9" onmousedown="handleZoom(evt,'out')"/>
                <use id="reset" xlink:href="#resetDef" x="30" y="36" onmousedown="handleReset()"/>
                <g id="arrowUp" xlink:href="#dirArrow" transform="translate(30 24)" onmousedown="handlePan(0,-1)">
                  <use xlink:href="#rim" fill="#404040">
                        <set attributeName="fill" to="#808080" begin="arrowUp.mouseover" end="arrowUp.mouseout"/>
                  </use>
                  <path fill="none" stroke="white" stroke-width="1.5" d="M0,-3.0v7 M-2.5,-0.5L0,-3.0L2.5,-0.5"/>
                </g>
                <g id="arrowRight" xlink:href="#dirArrow" transform="rotate(90) translate(36 -43)" onmousedown="handlePan(1,0)">
                  <use xlink:href="#rim" fill="#404040">
                        <set attributeName="fill" to="#808080" begin="arrowRight.mouseover" end="arrowRight.mouseout"/>
                  </use>
                  <path fill="none" stroke="white" stroke-width="1.5" d="M0,-3.0v7 M-2.5,-0.5L0,-3.0L2.5,-0.5"/>
                </g>
                <g id="arrowDown" xlink:href="#dirArrow" transform="rotate(180) translate(-30 -48)" onmousedown="handlePan(0,1)">
                  <use xlink:href="#rim" fill="#404040">
                        <set attributeName="fill" to="#808080" begin="arrowDown.mouseover" end="arrowDown.mouseout"/>
                  </use>
                  <path fill="none" stroke="white" stroke-width="1.5" d="M0,-3.0v7 M-2.5,-0.5L0,-3.0L2.5,-0.5"/>
                </g>
                <g id="arrowLeft" xlink:href="#dirArrow" transform="rotate(270) translate(-36 17)" onmousedown="handlePan(-1,0)">
                  <use xlink:href="#rim" fill="#404040">
                        <set attributeName="fill" to="#808080" begin="arrowLeft.mouseover" end="arrowLeft.mouseout"/>
                  </use>
                  <path fill="none" stroke="white" stroke-width="1.5" d="M0,-3.0v7 M-2.5,-0.5L0,-3.0L2.5,-0.5"/>
                </g>
        </g>
        <svg viewBox="0 0 15 15" width="100%" height="30px" preserveAspectRatio="xMaxYMin meet">
         <g id="arrow_out" transform="scale(0.3 0.3)">
          <a xlink:href="classjavolution_1_1xml_1_1XMLFormat_1_1OutputElement_a34b48333aacabf430bfcf408bc599cfa_cgraph_org.svg" target="_base">
           <rect id="button" ry="5" rx="5" y="6" x="6" height="38" width="38"
                fill="#f2f5e9" fill-opacity="0.5" stroke="#606060" stroke-width="1.0"/>
           <path id="arrow"
             d="M 11.500037,31.436501 C 11.940474,20.09759 22.043105,11.32322 32.158766,21.979434 L 37.068811,17.246167 C 37.068811,17.246167 37.088388,32 37.088388,32 L 22.160133,31.978069 C 22.160133,31.978069 26.997745,27.140456 26.997745,27.140456 C 18.528582,18.264221 13.291696,25.230495 11.500037,31.436501 z"
             style="fill:#404040;"/>
          </a>
         </g>
        </svg>
</svg>
