<?xml version="1.0" encoding="UTF-8" standalone="no"?>
<!DOCTYPE svg PUBLIC "-//W3C//DTD SVG 1.1//EN"
 "http://www.w3.org/Graphics/SVG/1.1/DTD/svg11.dtd">
<!-- Generated by graphviz version 2.43.0 (0)
 -->
<!-- Title: javolution.xml.XMLFormat.OutputElement.add Pages: 1 -->
<svg width="2373pt" height="727pt"
 viewBox="0.00 0.00 2373.00 727.12" xmlns="http://www.w3.org/2000/svg" xmlns:xlink="http://www.w3.org/1999/xlink">
<g id="graph0" class="graph" transform="scale(1 1) rotate(0) translate(4 723.12)">
<title>javolution.xml.XMLFormat.OutputElement.add</title>
<polygon fill="white" stroke="transparent" points="-4,4 -4,-723.12 2369,-723.12 2369,4 -4,4"/>
<!-- Node1 -->
<g id="node1" class="node">
<title>Node1</title>
<g id="a_node1"><a xlink:title=" ">
<polygon fill="#bfbfbf" stroke="black" points="0,-595.62 0,-625.62 149,-625.62 149,-595.62 0,-595.62"/>
<text text-anchor="start" x="8" y="-613.62" font-family="Helvetica,sans-Serif" font-size="10.00">javolution.xml.XMLFormat.</text>
<text text-anchor="middle" x="74.5" y="-602.62" font-family="Helvetica,sans-Serif" font-size="10.00">OutputElement.add</text>
</a>
</g>
</g>
<!-- Node2 -->
<g id="node2" class="node">
<title>Node2</title>
<g id="a_node2"><a xlink:href="../../da/ddf/classjavolution_1_1xml_1_1XMLFormat.html#ae1509545784fd7293e0e674d93b51eee" target="_top" xlink:title=" ">
<polygon fill="white" stroke="black" points="214.5,-683.62 214.5,-713.62 371.5,-713.62 371.5,-683.62 214.5,-683.62"/>
<text text-anchor="start" x="222.5" y="-701.62" font-family="Helvetica,sans-Serif" font-size="10.00">javolution.xml.XMLFormat.is</text>
<text text-anchor="middle" x="293" y="-690.62" font-family="Helvetica,sans-Serif" font-size="10.00">Referenceable</text>
</a>
</g>
</g>
<!-- Node1&#45;&gt;Node2 -->
<g id="edge1" class="edge">
<title>Node1&#45;&gt;Node2</title>
<path fill="none" stroke="midnightblue" d="M97.18,-625.66C118.61,-639.89 152.77,-660.9 185,-673.62 191.59,-676.22 198.52,-678.59 205.55,-680.75"/>
<polygon fill="midnightblue" stroke="midnightblue" points="204.59,-684.11 215.17,-683.55 206.55,-677.39 204.59,-684.11"/>
</g>
<!-- Node3 -->
<g id="node3" class="node">
<title>Node3</title>
<g id="a_node3"><a xlink:href="../../da/ddf/classjavolution_1_1xml_1_1XMLFormat.html#a5380fc21a858368ed014755de11b6492" target="_top" xlink:title=" ">
<polygon fill="white" stroke="black" points="206.5,-645.12 206.5,-664.12 379.5,-664.12 379.5,-645.12 206.5,-645.12"/>
<text text-anchor="middle" x="293" y="-652.12" font-family="Helvetica,sans-Serif" font-size="10.00">javolution.xml.XMLFormat.write</text>
</a>
</g>
</g>
<!-- Node1&#45;&gt;Node3 -->
<g id="edge2" class="edge">
<title>Node1&#45;&gt;Node3</title>
<path fill="none" stroke="midnightblue" d="M138.79,-625.62C153.9,-629.05 170,-632.58 185,-635.62 197.97,-638.25 211.86,-640.87 225.19,-643.28"/>
<polygon fill="midnightblue" stroke="midnightblue" points="224.8,-646.76 235.26,-645.08 226.03,-639.87 224.8,-646.76"/>
</g>
<!-- Node4 -->
<g id="node4" class="node">
<title>Node4</title>
<g id="a_node4"><a xlink:href="../../d2/d42/classjavolution_1_1xml_1_1XMLBinding.html#a447f41fb996a512e25e804c52a1b34fa" target="_top" xlink:title=" ">
<polygon fill="white" stroke="black" points="205,-595.62 205,-625.62 381,-625.62 381,-595.62 205,-595.62"/>
<text text-anchor="start" x="213" y="-613.62" font-family="Helvetica,sans-Serif" font-size="10.00">javolution.xml.XMLBinding.write</text>
<text text-anchor="middle" x="293" y="-602.62" font-family="Helvetica,sans-Serif" font-size="10.00">Class</text>
</a>
</g>
</g>
<!-- Node1&#45;&gt;Node4 -->
<g id="edge3" class="edge">
<title>Node1&#45;&gt;Node4</title>
<path fill="none" stroke="midnightblue" d="M149.1,-610.62C163.78,-610.62 179.41,-610.62 194.75,-610.62"/>
<polygon fill="midnightblue" stroke="midnightblue" points="194.77,-614.12 204.77,-610.62 194.77,-607.12 194.77,-614.12"/>
</g>
<!-- Node8 -->
<g id="node8" class="node">
<title>Node8</title>
<g id="a_node8"><a xlink:href="../../d4/d15/classjavolution_1_1xml_1_1internal_1_1stream_1_1XMLStreamWriterImpl.html#a50637e984a54b1d3c98caaf5fe7adae5" target="_top" xlink:title=" ">
<polygon fill="white" stroke="black" points="439,-551.62 439,-581.62 650,-581.62 650,-551.62 439,-551.62"/>
<text text-anchor="start" x="447" y="-569.62" font-family="Helvetica,sans-Serif" font-size="10.00">javolution.xml.internal.stream.</text>
<text text-anchor="middle" x="544.5" y="-558.62" font-family="Helvetica,sans-Serif" font-size="10.00">XMLStreamWriterImpl.writeEndElement</text>
</a>
</g>
</g>
<!-- Node1&#45;&gt;Node8 -->
<g id="edge7" class="edge">
<title>Node1&#45;&gt;Node8</title>
<path fill="none" stroke="midnightblue" d="M135.72,-595.61C151.65,-592.14 168.9,-588.82 185,-586.62 265.94,-575.57 357.97,-570.59 428.51,-568.36"/>
<polygon fill="midnightblue" stroke="midnightblue" points="428.87,-571.85 438.76,-568.05 428.66,-564.86 428.87,-571.85"/>
</g>
<!-- Node31 -->
<g id="node31" class="node">
<title>Node31</title>
<g id="a_node31"><a xlink:href="../../d4/d15/classjavolution_1_1xml_1_1internal_1_1stream_1_1XMLStreamWriterImpl.html#a232fc285f8aefd00c5d216b6ea0e3b10" target="_top" xlink:title=" ">
<polygon fill="white" stroke="black" points="185,-406.62 185,-436.62 401,-436.62 401,-406.62 185,-406.62"/>
<text text-anchor="start" x="193" y="-424.62" font-family="Helvetica,sans-Serif" font-size="10.00">javolution.xml.internal.stream.</text>
<text text-anchor="middle" x="293" y="-413.62" font-family="Helvetica,sans-Serif" font-size="10.00">XMLStreamWriterImpl.writeStartElement</text>
</a>
</g>
</g>
<!-- Node1&#45;&gt;Node31 -->
<g id="edge45" class="edge">
<title>Node1&#45;&gt;Node31</title>
<path fill="none" stroke="midnightblue" d="M92.85,-595.47C131.01,-562.16 222.37,-482.41 266.83,-443.59"/>
<polygon fill="midnightblue" stroke="midnightblue" points="269.33,-446.05 274.57,-436.84 264.73,-440.78 269.33,-446.05"/>
</g>
<!-- Node5 -->
<g id="node5" class="node">
<title>Node5</title>
<g id="a_node5"><a xlink:href="../../d0/dc4/classjavolution_1_1xml_1_1QName.html#ad22b79fa18cd3590c652b98b79ac977b" target="_top" xlink:title=" ">
<polygon fill="white" stroke="black" points="471.5,-688.62 471.5,-718.62 617.5,-718.62 617.5,-688.62 471.5,-688.62"/>
<text text-anchor="start" x="479.5" y="-706.62" font-family="Helvetica,sans-Serif" font-size="10.00">javolution.xml.QName.get</text>
<text text-anchor="middle" x="544.5" y="-695.62" font-family="Helvetica,sans-Serif" font-size="10.00">LocalName</text>
</a>
</g>
</g>
<!-- Node4&#45;&gt;Node5 -->
<g id="edge4" class="edge">
<title>Node4&#45;&gt;Node5</title>
<path fill="none" stroke="midnightblue" d="M380.97,-625.68C387.99,-628.46 394.77,-631.74 401,-635.62 422.44,-648.98 415.5,-666.34 437,-679.62 444.56,-684.29 452.92,-688.05 461.53,-691.09"/>
<polygon fill="midnightblue" stroke="midnightblue" points="460.74,-694.51 471.33,-694.21 462.87,-687.84 460.74,-694.51"/>
</g>
<!-- Node6 -->
<g id="node6" class="node">
<title>Node6</title>
<g id="a_node6"><a xlink:href="../../d0/dc4/classjavolution_1_1xml_1_1QName.html#a9ec5828eccdd7619e9d69b33d1b4ab99" target="_top" xlink:title=" ">
<polygon fill="white" stroke="black" points="471.5,-639.62 471.5,-669.62 617.5,-669.62 617.5,-639.62 471.5,-639.62"/>
<text text-anchor="start" x="479.5" y="-657.62" font-family="Helvetica,sans-Serif" font-size="10.00">javolution.xml.QName.get</text>
<text text-anchor="middle" x="544.5" y="-646.62" font-family="Helvetica,sans-Serif" font-size="10.00">NamespaceURI</text>
</a>
</g>
</g>
<!-- Node4&#45;&gt;Node6 -->
<g id="edge5" class="edge">
<title>Node4&#45;&gt;Node6</title>
<path fill="none" stroke="midnightblue" d="M379.17,-625.64C405.7,-630.32 434.91,-635.47 461.24,-640.11"/>
<polygon fill="midnightblue" stroke="midnightblue" points="460.73,-643.58 471.18,-641.87 461.94,-636.68 460.73,-643.58"/>
</g>
<!-- Node7 -->
<g id="node7" class="node">
<title>Node7</title>
<g id="a_node7"><a xlink:href="../../d0/dc4/classjavolution_1_1xml_1_1QName.html#ad25f28efea4ffc493cac269fffba93b0" target="_top" xlink:title=" ">
<polygon fill="white" stroke="black" points="460.5,-601.12 460.5,-620.12 628.5,-620.12 628.5,-601.12 460.5,-601.12"/>
<text text-anchor="middle" x="544.5" y="-608.12" font-family="Helvetica,sans-Serif" font-size="10.00">javolution.xml.QName.toString</text>
</a>
</g>
</g>
<!-- Node4&#45;&gt;Node7 -->
<g id="edge6" class="edge">
<title>Node4&#45;&gt;Node7</title>
<path fill="none" stroke="midnightblue" d="M381.26,-610.62C403.56,-610.62 427.63,-610.62 450.22,-610.62"/>
<polygon fill="midnightblue" stroke="midnightblue" points="450.48,-614.12 460.48,-610.62 450.48,-607.12 450.48,-614.12"/>
</g>
<!-- Node9 -->
<g id="node9" class="node">
<title>Node9</title>
<g id="a_node9"><a xlink:href="../../d4/d15/classjavolution_1_1xml_1_1internal_1_1stream_1_1XMLStreamWriterImpl.html#a15e88dc4238fd15a3ffdc030975c02cd" target="_top" xlink:title=" ">
<polygon fill="white" stroke="black" points="695,-494.62 695,-524.62 890,-524.62 890,-494.62 695,-494.62"/>
<text text-anchor="start" x="703" y="-512.62" font-family="Helvetica,sans-Serif" font-size="10.00">javolution.xml.internal.stream.</text>
<text text-anchor="middle" x="792.5" y="-501.62" font-family="Helvetica,sans-Serif" font-size="10.00">XMLStreamWriterImpl.closeOpenTag</text>
</a>
</g>
</g>
<!-- Node8&#45;&gt;Node9 -->
<g id="edge8" class="edge">
<title>Node8&#45;&gt;Node9</title>
<path fill="none" stroke="midnightblue" d="M610.46,-551.57C643.1,-544.01 682.83,-534.8 716.75,-526.94"/>
<polygon fill="midnightblue" stroke="midnightblue" points="717.66,-530.32 726.61,-524.66 716.08,-523.51 717.66,-530.32"/>
</g>
<!-- Node10 -->
<g id="node10" class="node">
<title>Node10</title>
<g id="a_node10"><a xlink:href="../../dc/daa/classjavolution_1_1xml_1_1internal_1_1stream_1_1NamespacesImpl.html#ae82cf6edcea5ac1d71d5b9005bb6a590" target="_top" xlink:title=" ">
<polygon fill="white" stroke="black" points="961.5,-595.62 961.5,-625.62 1129.5,-625.62 1129.5,-595.62 961.5,-595.62"/>
<text text-anchor="start" x="969.5" y="-613.62" font-family="Helvetica,sans-Serif" font-size="10.00">javolution.xml.internal.stream.</text>
<text text-anchor="middle" x="1045.5" y="-602.62" font-family="Helvetica,sans-Serif" font-size="10.00">NamespacesImpl.pop</text>
</a>
</g>
</g>
<!-- Node8&#45;&gt;Node10 -->
<g id="edge42" class="edge">
<title>Node8&#45;&gt;Node10</title>
<path fill="none" stroke="midnightblue" d="M650.16,-577.07C662.9,-578.3 675.75,-579.5 688,-580.62 777.17,-588.75 878.96,-597.24 950.88,-603.1"/>
<polygon fill="midnightblue" stroke="midnightblue" points="951.02,-606.63 961.27,-603.95 951.59,-599.65 951.02,-606.63"/>
</g>
<!-- Node12 -->
<g id="node12" class="node">
<title>Node12</title>
<g id="a_node12"><a xlink:href="../../d4/d15/classjavolution_1_1xml_1_1internal_1_1stream_1_1XMLStreamWriterImpl.html#a6d805db8f2c051bd5eb34feb49a602a8" target="_top" xlink:title=" ">
<polygon fill="white" stroke="black" points="1719,-478.62 1719,-508.62 1887,-508.62 1887,-478.62 1719,-478.62"/>
<text text-anchor="start" x="1727" y="-496.62" font-family="Helvetica,sans-Serif" font-size="10.00">javolution.xml.internal.stream.</text>
<text text-anchor="middle" x="1803" y="-485.62" font-family="Helvetica,sans-Serif" font-size="10.00">XMLStreamWriterImpl.write</text>
</a>
</g>
</g>
<!-- Node8&#45;&gt;Node12 -->
<g id="edge43" class="edge">
<title>Node8&#45;&gt;Node12</title>
<path fill="none" stroke="midnightblue" d="M612.71,-581.69C625.78,-584.82 639.35,-588.21 652,-591.62 668.15,-595.98 671.68,-598.96 688,-602.62 844.24,-637.67 884.38,-654.62 1044.5,-654.62 1044.5,-654.62 1044.5,-654.62 1310,-654.62 1399.3,-654.62 1665.72,-577.57 1675,-573.62 1711.47,-558.11 1749.42,-532.8 1774.23,-514.8"/>
<polygon fill="midnightblue" stroke="midnightblue" points="1776.45,-517.51 1782.43,-508.77 1772.3,-511.88 1776.45,-517.51"/>
</g>
<!-- Node30 -->
<g id="node30" class="node">
<title>Node30</title>
<g id="a_node30"><a xlink:href="../../d4/d15/classjavolution_1_1xml_1_1internal_1_1stream_1_1XMLStreamWriterImpl.html#a2e628fa8b39f7ce952896efb8e5f63b6" target="_top" xlink:title=" ">
<polygon fill="white" stroke="black" points="1467.5,-507.62 1467.5,-537.62 1667.5,-537.62 1667.5,-507.62 1467.5,-507.62"/>
<text text-anchor="start" x="1475.5" y="-525.62" font-family="Helvetica,sans-Serif" font-size="10.00">javolution.xml.internal.stream.</text>
<text text-anchor="middle" x="1567.5" y="-514.62" font-family="Helvetica,sans-Serif" font-size="10.00">XMLStreamWriterImpl.writeNoEscape</text>
</a>
</g>
</g>
<!-- Node8&#45;&gt;Node30 -->
<g id="edge44" class="edge">
<title>Node8&#45;&gt;Node30</title>
<path fill="none" stroke="midnightblue" d="M650.44,-562.1C844.89,-553.72 1259.31,-535.86 1457.08,-527.34"/>
<polygon fill="midnightblue" stroke="midnightblue" points="1457.36,-530.83 1467.2,-526.9 1457.06,-523.83 1457.36,-530.83"/>
</g>
<!-- Node9&#45;&gt;Node10 -->
<g id="edge9" class="edge">
<title>Node9&#45;&gt;Node10</title>
<path fill="none" stroke="midnightblue" d="M830.81,-524.63C875.23,-542.51 949.47,-572.38 997.71,-591.79"/>
<polygon fill="midnightblue" stroke="midnightblue" points="996.41,-595.04 1006.99,-595.53 999.02,-588.55 996.41,-595.04"/>
</g>
<!-- Node9&#45;&gt;Node12 -->
<g id="edge11" class="edge">
<title>Node9&#45;&gt;Node12</title>
<path fill="none" stroke="midnightblue" d="M867,-524.67C1019.46,-553.31 1380.44,-607.64 1675,-547.62 1707.27,-541.05 1741.49,-525.97 1766.27,-513.41"/>
<polygon fill="midnightblue" stroke="midnightblue" points="1768.02,-516.45 1775.29,-508.74 1764.8,-510.23 1768.02,-516.45"/>
</g>
<!-- Node17 -->
<g id="node17" class="node">
<title>Node17</title>
<g id="a_node17"><a xlink:href="../../d4/d15/classjavolution_1_1xml_1_1internal_1_1stream_1_1XMLStreamWriterImpl.html#ad23e09c1ba7cccfde9d9f05f3e2ec3d1" target="_top" xlink:title=" ">
<polygon fill="white" stroke="black" points="938,-346.62 938,-376.62 1153,-376.62 1153,-346.62 938,-346.62"/>
<text text-anchor="start" x="946" y="-364.62" font-family="Helvetica,sans-Serif" font-size="10.00">javolution.xml.internal.stream.</text>
<text text-anchor="middle" x="1045.5" y="-353.62" font-family="Helvetica,sans-Serif" font-size="10.00">XMLStreamWriterImpl.writeNamespaces</text>
</a>
</g>
</g>
<!-- Node9&#45;&gt;Node17 -->
<g id="edge17" class="edge">
<title>Node9&#45;&gt;Node17</title>
<path fill="none" stroke="midnightblue" d="M818.95,-494.62C864.33,-467.86 959.25,-411.89 1010.29,-381.8"/>
<polygon fill="midnightblue" stroke="midnightblue" points="1012.15,-384.76 1018.98,-376.67 1008.59,-378.73 1012.15,-384.76"/>
</g>
<!-- Node9&#45;&gt;Node30 -->
<g id="edge41" class="edge">
<title>Node9&#45;&gt;Node30</title>
<path fill="none" stroke="midnightblue" d="M890.2,-508.94C1013.97,-508.41 1235,-508.57 1424,-514.62 1434.71,-514.96 1445.87,-515.42 1457.03,-515.94"/>
<polygon fill="midnightblue" stroke="midnightblue" points="1457.1,-519.45 1467.25,-516.43 1457.43,-512.46 1457.1,-519.45"/>
</g>
<!-- Node11 -->
<g id="node11" class="node">
<title>Node11</title>
<g id="a_node11"><a xlink:href="../../dc/daa/classjavolution_1_1xml_1_1internal_1_1stream_1_1NamespacesImpl.html#acb0ae4ce1aed7a82764ba4576eda513a" target="_top" xlink:title=" ">
<polygon fill="white" stroke="black" points="1194,-595.62 1194,-625.62 1424,-625.62 1424,-595.62 1194,-595.62"/>
<text text-anchor="start" x="1202" y="-613.62" font-family="Helvetica,sans-Serif" font-size="10.00">javolution.xml.internal.stream.</text>
<text text-anchor="middle" x="1309" y="-602.62" font-family="Helvetica,sans-Serif" font-size="10.00">NamespacesImpl.searchDefaultNamespace</text>
</a>
</g>
</g>
<!-- Node10&#45;&gt;Node11 -->
<g id="edge10" class="edge">
<title>Node10&#45;&gt;Node11</title>
<path fill="none" stroke="midnightblue" d="M1129.6,-610.62C1146.76,-610.62 1165.19,-610.62 1183.46,-610.62"/>
<polygon fill="midnightblue" stroke="midnightblue" points="1183.58,-614.12 1193.58,-610.62 1183.58,-607.12 1183.58,-614.12"/>
</g>
<!-- Node13 -->
<g id="node13" class="node">
<title>Node13</title>
<g id="a_node13"><a xlink:href="../../d4/d15/classjavolution_1_1xml_1_1internal_1_1stream_1_1XMLStreamWriterImpl.html#ac2145f0f924e9b642dd66dc6d5ee891e" target="_top" xlink:title=" ">
<polygon fill="white" stroke="black" points="1952,-542.62 1952,-572.62 2132,-572.62 2132,-542.62 1952,-542.62"/>
<text text-anchor="start" x="1960" y="-560.62" font-family="Helvetica,sans-Serif" font-size="10.00">javolution.xml.internal.stream.</text>
<text text-anchor="middle" x="2042" y="-549.62" font-family="Helvetica,sans-Serif" font-size="10.00">XMLStreamWriterImpl.flushBuffer</text>
</a>
</g>
</g>
<!-- Node12&#45;&gt;Node13 -->
<g id="edge12" class="edge">
<title>Node12&#45;&gt;Node13</title>
<path fill="none" stroke="midnightblue" d="M1848.38,-508.68C1872.64,-516.64 1903.3,-526.25 1931,-533.62 1939.67,-535.93 1948.77,-538.18 1957.86,-540.32"/>
<polygon fill="midnightblue" stroke="midnightblue" points="1957.17,-543.75 1967.7,-542.6 1958.75,-536.93 1957.17,-543.75"/>
</g>
<!-- Node14 -->
<g id="node14" class="node">
<title>Node14</title>
<g id="a_node14"><a xlink:href="../../d4/d15/classjavolution_1_1xml_1_1internal_1_1stream_1_1XMLStreamWriterImpl.html#a3d00494460e49d0dd3a57e250d4d707c" target="_top" xlink:title=" ">
<polygon fill="white" stroke="black" points="1956.5,-493.62 1956.5,-523.62 2127.5,-523.62 2127.5,-493.62 1956.5,-493.62"/>
<text text-anchor="start" x="1964.5" y="-511.62" font-family="Helvetica,sans-Serif" font-size="10.00">javolution.xml.internal.stream.</text>
<text text-anchor="middle" x="2042" y="-500.62" font-family="Helvetica,sans-Serif" font-size="10.00">XMLStreamWriterImpl.getChars</text>
</a>
</g>
</g>
<!-- Node12&#45;&gt;Node14 -->
<g id="edge13" class="edge">
<title>Node12&#45;&gt;Node14</title>
<path fill="none" stroke="midnightblue" d="M1887.22,-498.89C1906.31,-500.1 1926.73,-501.39 1946.26,-502.62"/>
<polygon fill="midnightblue" stroke="midnightblue" points="1946.17,-506.13 1956.37,-503.27 1946.61,-499.14 1946.17,-506.13"/>
</g>
<!-- Node15 -->
<g id="node15" class="node">
<title>Node15</title>
<g id="a_node15"><a xlink:href="../../d4/d15/classjavolution_1_1xml_1_1internal_1_1stream_1_1XMLStreamWriterImpl.html#ac48b39590b21a285753d9ecc463d95c1" target="_top" xlink:title=" ">
<polygon fill="white" stroke="black" points="2189,-424.62 2189,-454.62 2365,-454.62 2365,-424.62 2189,-424.62"/>
<text text-anchor="start" x="2197" y="-442.62" font-family="Helvetica,sans-Serif" font-size="10.00">javolution.xml.internal.stream.</text>
<text text-anchor="middle" x="2277" y="-431.62" font-family="Helvetica,sans-Serif" font-size="10.00">XMLStreamWriterImpl.isEscaped</text>
</a>
</g>
</g>
<!-- Node12&#45;&gt;Node15 -->
<g id="edge14" class="edge">
<title>Node12&#45;&gt;Node15</title>
<path fill="none" stroke="midnightblue" d="M1887.03,-484.12C1968.45,-474.81 2092.56,-460.61 2178.6,-450.76"/>
<polygon fill="midnightblue" stroke="midnightblue" points="2179.1,-454.23 2188.64,-449.62 2178.3,-447.28 2179.1,-454.23"/>
</g>
<!-- Node16 -->
<g id="node16" class="node">
<title>Node16</title>
<g id="a_node16"><a xlink:href="../../d4/d15/classjavolution_1_1xml_1_1internal_1_1stream_1_1XMLStreamWriterImpl.html#a79ed753f8bf18f2eeaf7d7e8f93d60f1" target="_top" xlink:title=" ">
<polygon fill="white" stroke="black" points="1931,-395.12 1931,-436.12 2153,-436.12 2153,-395.12 1931,-395.12"/>
<text text-anchor="start" x="1939" y="-424.12" font-family="Helvetica,sans-Serif" font-size="10.00">javolution.xml.internal.stream.</text>
<text text-anchor="start" x="1939" y="-413.12" font-family="Helvetica,sans-Serif" font-size="10.00">XMLStreamWriterImpl.writeDirectEscaped</text>
<text text-anchor="middle" x="2042" y="-402.12" font-family="Helvetica,sans-Serif" font-size="10.00">Characters</text>
</a>
</g>
</g>
<!-- Node12&#45;&gt;Node16 -->
<g id="edge15" class="edge">
<title>Node12&#45;&gt;Node16</title>
<path fill="none" stroke="midnightblue" d="M1847.72,-478.6C1872.18,-470.25 1903.24,-459.74 1931,-450.62 1942.31,-446.91 1954.28,-443.04 1966.01,-439.28"/>
<polygon fill="midnightblue" stroke="midnightblue" points="1967.33,-442.53 1975.79,-436.15 1965.2,-435.86 1967.33,-442.53"/>
</g>
<!-- Node16&#45;&gt;Node15 -->
<g id="edge16" class="edge">
<title>Node16&#45;&gt;Node15</title>
<path fill="none" stroke="midnightblue" d="M2153.02,-426.95C2161.66,-427.84 2170.34,-428.74 2178.89,-429.62"/>
<polygon fill="midnightblue" stroke="midnightblue" points="2178.53,-433.1 2188.84,-430.64 2179.25,-426.14 2178.53,-433.1"/>
</g>
<!-- Node18 -->
<g id="node18" class="node">
<title>Node18</title>
<g id="a_node18"><a xlink:href="../../d0/d36/classjavolution_1_1text_1_1CharArray.html#a63cd0fbe95d0342063ea7091dce0fa9c" target="_top" xlink:title=" ">
<polygon fill="white" stroke="black" points="1955.5,-223.12 1955.5,-242.12 2128.5,-242.12 2128.5,-223.12 1955.5,-223.12"/>
<text text-anchor="middle" x="2042" y="-230.12" font-family="Helvetica,sans-Serif" font-size="10.00">javolution.text.CharArray.equals</text>
</a>
</g>
</g>
<!-- Node17&#45;&gt;Node18 -->
<g id="edge18" class="edge">
<title>Node17&#45;&gt;Node18</title>
<path fill="none" stroke="midnightblue" d="M1135.55,-346.53C1143.36,-343.77 1150.96,-340.49 1158,-336.62 1177.82,-325.71 1173.37,-309.92 1194,-300.62 1336.29,-236.51 1739.97,-275.6 1895,-257.62 1924.22,-254.23 1956.48,-248.88 1983.22,-244"/>
<polygon fill="midnightblue" stroke="midnightblue" points="1983.99,-247.42 1993.19,-242.15 1982.72,-240.53 1983.99,-247.42"/>
</g>
<!-- Node19 -->
<g id="node19" class="node">
<title>Node19</title>
<g id="a_node19"><a xlink:href="../../dc/daa/classjavolution_1_1xml_1_1internal_1_1stream_1_1NamespacesImpl.html#a5a2f11c30da4ca635225ed1c0c5f2668" target="_top" xlink:title=" ">
<polygon fill="white" stroke="black" points="1719,-217.62 1719,-247.62 1887,-247.62 1887,-217.62 1719,-217.62"/>
<text text-anchor="start" x="1727" y="-235.62" font-family="Helvetica,sans-Serif" font-size="10.00">javolution.xml.internal.stream.</text>
<text text-anchor="middle" x="1803" y="-224.62" font-family="Helvetica,sans-Serif" font-size="10.00">NamespacesImpl.getPrefix</text>
</a>
</g>
</g>
<!-- Node17&#45;&gt;Node19 -->
<g id="edge19" class="edge">
<title>Node17&#45;&gt;Node19</title>
<path fill="none" stroke="midnightblue" d="M1142.04,-346.61C1147.72,-343.8 1153.1,-340.5 1158,-336.62 1186.68,-313.93 1165.09,-285.02 1194,-262.62 1289.36,-188.74 1339.97,-220.68 1460,-208.62 1555.08,-199.07 1579.86,-199.71 1675,-208.62 1691.37,-210.15 1708.78,-212.78 1725.29,-215.74"/>
<polygon fill="midnightblue" stroke="midnightblue" points="1724.96,-219.24 1735.43,-217.62 1726.24,-212.36 1724.96,-219.24"/>
</g>
<!-- Node20 -->
<g id="node20" class="node">
<title>Node20</title>
<g id="a_node20"><a xlink:href="../../d0/d36/classjavolution_1_1text_1_1CharArray.html#a1206e2076e25f1e66e1458328aa22baa" target="_top" xlink:title=" ">
<polygon fill="white" stroke="black" points="2191,-144.12 2191,-163.12 2363,-163.12 2363,-144.12 2191,-144.12"/>
<text text-anchor="middle" x="2277" y="-151.12" font-family="Helvetica,sans-Serif" font-size="10.00">javolution.text.CharArray.length</text>
</a>
</g>
</g>
<!-- Node17&#45;&gt;Node20 -->
<g id="edge21" class="edge">
<title>Node17&#45;&gt;Node20</title>
<path fill="none" stroke="midnightblue" d="M1117.53,-346.61C1141.71,-341.91 1168.95,-337.06 1194,-333.62 1617.8,-275.43 1755.58,-409.91 2153,-251.62 2197.73,-233.81 2239.2,-194.03 2260.68,-171.01"/>
<polygon fill="midnightblue" stroke="midnightblue" points="2263.5,-173.1 2267.65,-163.35 2258.33,-168.39 2263.5,-173.1"/>
</g>
<!-- Node21 -->
<g id="node21" class="node">
<title>Node21</title>
<g id="a_node21"><a xlink:href="../../d4/d15/classjavolution_1_1xml_1_1internal_1_1stream_1_1XMLStreamWriterImpl.html#a67df1c83cc5a3ea172419ca10d1b2ca2" target="_top" xlink:title=" ">
<polygon fill="white" stroke="black" points="1211.5,-343.12 1211.5,-384.12 1406.5,-384.12 1406.5,-343.12 1211.5,-343.12"/>
<text text-anchor="start" x="1219.5" y="-372.12" font-family="Helvetica,sans-Serif" font-size="10.00">javolution.xml.internal.stream.</text>
<text text-anchor="start" x="1219.5" y="-361.12" font-family="Helvetica,sans-Serif" font-size="10.00">XMLStreamWriterImpl.writeAttribute</text>
<text text-anchor="middle" x="1309" y="-350.12" font-family="Helvetica,sans-Serif" font-size="10.00">OrNamespace</text>
</a>
</g>
</g>
<!-- Node17&#45;&gt;Node21 -->
<g id="edge22" class="edge">
<title>Node17&#45;&gt;Node21</title>
<path fill="none" stroke="midnightblue" d="M1153.24,-362.44C1168.99,-362.56 1185.23,-362.68 1200.99,-362.8"/>
<polygon fill="midnightblue" stroke="midnightblue" points="1201.24,-366.3 1211.27,-362.88 1201.3,-359.31 1201.24,-366.3"/>
</g>
<!-- Node19&#45;&gt;Node18 -->
<g id="edge20" class="edge">
<title>Node19&#45;&gt;Node18</title>
<path fill="none" stroke="midnightblue" d="M1887.22,-232.62C1905.88,-232.62 1925.82,-232.62 1944.94,-232.62"/>
<polygon fill="midnightblue" stroke="midnightblue" points="1945.17,-236.12 1955.17,-232.62 1945.17,-229.12 1945.17,-236.12"/>
</g>
<!-- Node21&#45;&gt;Node12 -->
<g id="edge36" class="edge">
<title>Node21&#45;&gt;Node12</title>
<path fill="none" stroke="midnightblue" d="M1381.43,-384.2C1395.74,-389.05 1410.52,-394.58 1424,-400.62 1440.91,-408.19 1442.68,-415.05 1460,-421.62 1551.11,-456.2 1579.71,-444.22 1675,-464.62 1692.1,-468.28 1710.46,-472.38 1727.75,-476.31"/>
<polygon fill="midnightblue" stroke="midnightblue" points="1727.26,-479.79 1737.79,-478.6 1728.82,-472.97 1727.26,-479.79"/>
</g>
<!-- Node21&#45;&gt;Node18 -->
<g id="edge23" class="edge">
<title>Node21&#45;&gt;Node18</title>
<path fill="none" stroke="midnightblue" d="M1406.64,-359.08C1523.79,-351.86 1726.46,-333.86 1895,-290.62 1937.25,-279.78 1983.69,-259.85 2012.59,-246.42"/>
<polygon fill="midnightblue" stroke="midnightblue" points="2014.14,-249.56 2021.69,-242.13 2011.16,-243.23 2014.14,-249.56"/>
</g>
<!-- Node22 -->
<g id="node22" class="node">
<title>Node22</title>
<g id="a_node22"><a xlink:href="../../d4/d15/classjavolution_1_1xml_1_1internal_1_1stream_1_1XMLStreamWriterImpl.html#a18e6c7b2d132315d0566892c781a5c86" target="_top" xlink:title=" ">
<polygon fill="white" stroke="black" points="1482,-217.62 1482,-247.62 1653,-247.62 1653,-217.62 1482,-217.62"/>
<text text-anchor="start" x="1490" y="-235.62" font-family="Helvetica,sans-Serif" font-size="10.00">javolution.xml.internal.stream.</text>
<text text-anchor="middle" x="1567.5" y="-224.62" font-family="Helvetica,sans-Serif" font-size="10.00">XMLStreamWriterImpl.getPrefix</text>
</a>
</g>
</g>
<!-- Node21&#45;&gt;Node22 -->
<g id="edge24" class="edge">
<title>Node21&#45;&gt;Node22</title>
<path fill="none" stroke="midnightblue" d="M1350.36,-343.01C1398.9,-318.22 1479.81,-276.9 1527.66,-252.46"/>
<polygon fill="midnightblue" stroke="midnightblue" points="1529.46,-255.47 1536.77,-247.8 1526.27,-249.24 1529.46,-255.47"/>
</g>
<!-- Node23 -->
<g id="node23" class="node">
<title>Node23</title>
<g id="a_node23"><a xlink:href="../../d4/d15/classjavolution_1_1xml_1_1internal_1_1stream_1_1XMLStreamWriterImpl.html#af5e4a42b57208973be8a1136cc607d09" target="_top" xlink:title=" ">
<polygon fill="white" stroke="black" points="1460,-91.62 1460,-121.62 1675,-121.62 1675,-91.62 1460,-91.62"/>
<text text-anchor="start" x="1468" y="-109.62" font-family="Helvetica,sans-Serif" font-size="10.00">javolution.xml.internal.stream.</text>
<text text-anchor="middle" x="1567.5" y="-98.62" font-family="Helvetica,sans-Serif" font-size="10.00">XMLStreamWriterImpl.getRepairedPrefix</text>
</a>
</g>
</g>
<!-- Node21&#45;&gt;Node23 -->
<g id="edge26" class="edge">
<title>Node21&#45;&gt;Node23</title>
<path fill="none" stroke="midnightblue" d="M1329.41,-343.07C1357.77,-313.16 1412.35,-256.03 1460,-208.62 1488.13,-180.64 1521.23,-149.16 1542.97,-128.67"/>
<polygon fill="midnightblue" stroke="midnightblue" points="1545.55,-131.04 1550.44,-121.64 1540.76,-125.95 1545.55,-131.04"/>
</g>
<!-- Node29 -->
<g id="node29" class="node">
<title>Node29</title>
<g id="a_node29"><a xlink:href="../../d4/d15/classjavolution_1_1xml_1_1internal_1_1stream_1_1XMLStreamWriterImpl.html#ae9c868796ceee6d3d83d4937c18e9159" target="_top" xlink:title=" ">
<polygon fill="white" stroke="black" points="1474,-381.62 1474,-411.62 1661,-411.62 1661,-381.62 1474,-381.62"/>
<text text-anchor="start" x="1482" y="-399.62" font-family="Helvetica,sans-Serif" font-size="10.00">javolution.xml.internal.stream.</text>
<text text-anchor="middle" x="1567.5" y="-388.62" font-family="Helvetica,sans-Serif" font-size="10.00">XMLStreamWriterImpl.writeEscape</text>
</a>
</g>
</g>
<!-- Node21&#45;&gt;Node29 -->
<g id="edge37" class="edge">
<title>Node21&#45;&gt;Node29</title>
<path fill="none" stroke="midnightblue" d="M1406.61,-376.05C1425.26,-378.45 1444.88,-380.97 1463.72,-383.4"/>
<polygon fill="midnightblue" stroke="midnightblue" points="1463.44,-386.89 1473.8,-384.7 1464.33,-379.95 1463.44,-386.89"/>
</g>
<!-- Node21&#45;&gt;Node30 -->
<g id="edge39" class="edge">
<title>Node21&#45;&gt;Node30</title>
<path fill="none" stroke="midnightblue" d="M1343.27,-384.24C1392.53,-414.78 1484.31,-471.67 1533.44,-502.13"/>
<polygon fill="midnightblue" stroke="midnightblue" points="1531.76,-505.2 1542.1,-507.5 1535.45,-499.25 1531.76,-505.2"/>
</g>
<!-- Node22&#45;&gt;Node19 -->
<g id="edge25" class="edge">
<title>Node22&#45;&gt;Node19</title>
<path fill="none" stroke="midnightblue" d="M1653.13,-232.62C1671.19,-232.62 1690.36,-232.62 1708.72,-232.62"/>
<polygon fill="midnightblue" stroke="midnightblue" points="1708.83,-236.12 1718.83,-232.62 1708.83,-229.12 1708.83,-236.12"/>
</g>
<!-- Node23&#45;&gt;Node18 -->
<g id="edge30" class="edge">
<title>Node23&#45;&gt;Node18</title>
<path fill="none" stroke="midnightblue" d="M1648.57,-121.65C1729.8,-137.19 1849.81,-161.05 1895,-174.62 1936.07,-186.95 1981.76,-206.02 2010.91,-218.89"/>
<polygon fill="midnightblue" stroke="midnightblue" points="2009.57,-222.12 2020.13,-223 2012.42,-215.73 2009.57,-222.12"/>
</g>
<!-- Node23&#45;&gt;Node19 -->
<g id="edge31" class="edge">
<title>Node23&#45;&gt;Node19</title>
<path fill="none" stroke="midnightblue" d="M1596.67,-121.82C1638.85,-144.59 1718.48,-187.55 1765.21,-212.77"/>
<polygon fill="midnightblue" stroke="midnightblue" points="1763.64,-215.9 1774.1,-217.57 1766.96,-209.74 1763.64,-215.9"/>
</g>
<!-- Node24 -->
<g id="node24" class="node">
<title>Node24</title>
<g id="a_node24"><a xlink:href="../../d2/d7a/classjavolution_1_1text_1_1TextBuilder.html#a5b6d5e22b7b33b3188569bbaf6112c95" target="_top" xlink:title=" ">
<polygon fill="white" stroke="black" points="1711,-53.12 1711,-72.12 1895,-72.12 1895,-53.12 1711,-53.12"/>
<text text-anchor="middle" x="1803" y="-60.12" font-family="Helvetica,sans-Serif" font-size="10.00">javolution.text.TextBuilder.append</text>
</a>
</g>
</g>
<!-- Node23&#45;&gt;Node24 -->
<g id="edge27" class="edge">
<title>Node23&#45;&gt;Node24</title>
<path fill="none" stroke="midnightblue" d="M1648.2,-91.6C1678.68,-85.86 1712.91,-79.41 1741.33,-74.05"/>
<polygon fill="midnightblue" stroke="midnightblue" points="1742.34,-77.43 1751.52,-72.13 1741.04,-70.55 1742.34,-77.43"/>
</g>
<!-- Node26 -->
<g id="node26" class="node">
<title>Node26</title>
<g id="a_node26"><a xlink:href="../../d2/d7a/classjavolution_1_1text_1_1TextBuilder.html#ac6109dc1dfca2e6b48450ae94a8cf59e" target="_top" xlink:title=" ">
<polygon fill="white" stroke="black" points="1717,-15.12 1717,-34.12 1889,-34.12 1889,-15.12 1717,-15.12"/>
<text text-anchor="middle" x="1803" y="-22.12" font-family="Helvetica,sans-Serif" font-size="10.00">javolution.text.TextBuilder.clear</text>
</a>
</g>
</g>
<!-- Node23&#45;&gt;Node26 -->
<g id="edge29" class="edge">
<title>Node23&#45;&gt;Node26</title>
<path fill="none" stroke="midnightblue" d="M1597.54,-91.61C1625.85,-77.5 1670.44,-56.66 1711,-43.62 1719.37,-40.93 1728.3,-38.52 1737.18,-36.4"/>
<polygon fill="midnightblue" stroke="midnightblue" points="1738.17,-39.77 1747.14,-34.13 1736.61,-32.94 1738.17,-39.77"/>
</g>
<!-- Node27 -->
<g id="node27" class="node">
<title>Node27</title>
<g id="a_node27"><a xlink:href="../../dc/daa/classjavolution_1_1xml_1_1internal_1_1stream_1_1NamespacesImpl.html#af0e399ec7eca3a967c953ca0901565d3" target="_top" xlink:title=" ">
<polygon fill="white" stroke="black" points="1719,-91.62 1719,-121.62 1887,-121.62 1887,-91.62 1719,-91.62"/>
<text text-anchor="start" x="1727" y="-109.62" font-family="Helvetica,sans-Serif" font-size="10.00">javolution.xml.internal.stream.</text>
<text text-anchor="middle" x="1803" y="-98.62" font-family="Helvetica,sans-Serif" font-size="10.00">NamespacesImpl.setPrefix</text>
</a>
</g>
</g>
<!-- Node23&#45;&gt;Node27 -->
<g id="edge32" class="edge">
<title>Node23&#45;&gt;Node27</title>
<path fill="none" stroke="midnightblue" d="M1675,-106.62C1686.24,-106.62 1697.6,-106.62 1708.67,-106.62"/>
<polygon fill="midnightblue" stroke="midnightblue" points="1708.74,-110.12 1718.74,-106.62 1708.74,-103.12 1708.74,-110.12"/>
</g>
<!-- Node25 -->
<g id="node25" class="node">
<title>Node25</title>
<g id="a_node25"><a xlink:href="../../d2/d7a/classjavolution_1_1text_1_1TextBuilder.html#a6d79c3b6adfe6c04f80f940904d181b4" target="_top" xlink:title=" ">
<polygon fill="white" stroke="black" points="1947.5,-45.62 1947.5,-75.62 2136.5,-75.62 2136.5,-45.62 1947.5,-45.62"/>
<text text-anchor="start" x="1955.5" y="-63.62" font-family="Helvetica,sans-Serif" font-size="10.00">javolution.text.TextBuilder.increase</text>
<text text-anchor="middle" x="2042" y="-52.62" font-family="Helvetica,sans-Serif" font-size="10.00">Capacity</text>
</a>
</g>
</g>
<!-- Node24&#45;&gt;Node25 -->
<g id="edge28" class="edge">
<title>Node24&#45;&gt;Node25</title>
<path fill="none" stroke="midnightblue" d="M1895.29,-61.85C1909.04,-61.73 1923.3,-61.61 1937.28,-61.5"/>
<polygon fill="midnightblue" stroke="midnightblue" points="1937.43,-65 1947.4,-61.41 1937.37,-58 1937.43,-65"/>
</g>
<!-- Node27&#45;&gt;Node20 -->
<g id="edge33" class="edge">
<title>Node27&#45;&gt;Node20</title>
<path fill="none" stroke="midnightblue" d="M1862.76,-121.66C1884.12,-126.57 1908.52,-131.54 1931,-134.62 2014.98,-146.11 2111.36,-150.71 2180.87,-152.52"/>
<polygon fill="midnightblue" stroke="midnightblue" points="2180.84,-156.02 2190.92,-152.77 2181.01,-149.02 2180.84,-156.02"/>
</g>
<!-- Node28 -->
<g id="node28" class="node">
<title>Node28</title>
<g id="a_node28"><a xlink:href="../../dc/daa/classjavolution_1_1xml_1_1internal_1_1stream_1_1NamespacesImpl.html#ad1e699fb6fe13f5d6a355f8a8eff25e8" target="_top" xlink:title=" ">
<polygon fill="white" stroke="black" points="1948,-94.62 1948,-124.62 2136,-124.62 2136,-94.62 1948,-94.62"/>
<text text-anchor="start" x="1956" y="-112.62" font-family="Helvetica,sans-Serif" font-size="10.00">javolution.xml.internal.stream.</text>
<text text-anchor="middle" x="2042" y="-101.62" font-family="Helvetica,sans-Serif" font-size="10.00">NamespacesImpl.resizePrefixStack</text>
</a>
</g>
</g>
<!-- Node27&#45;&gt;Node28 -->
<g id="edge34" class="edge">
<title>Node27&#45;&gt;Node28</title>
<path fill="none" stroke="midnightblue" d="M1887.22,-107.67C1903.46,-107.88 1920.67,-108.1 1937.47,-108.31"/>
<polygon fill="midnightblue" stroke="midnightblue" points="1937.82,-111.82 1947.87,-108.44 1937.91,-104.82 1937.82,-111.82"/>
</g>
<!-- Node28&#45;&gt;Node20 -->
<g id="edge35" class="edge">
<title>Node28&#45;&gt;Node20</title>
<path fill="none" stroke="midnightblue" d="M2122.53,-124.64C2152.94,-130.38 2187.1,-136.83 2215.46,-142.19"/>
<polygon fill="midnightblue" stroke="midnightblue" points="2215.15,-145.69 2225.63,-144.11 2216.45,-138.81 2215.15,-145.69"/>
</g>
<!-- Node29&#45;&gt;Node12 -->
<g id="edge38" class="edge">
<title>Node29&#45;&gt;Node12</title>
<path fill="none" stroke="midnightblue" d="M1630.34,-411.66C1645.17,-415.92 1660.82,-420.96 1675,-426.62 1707.78,-439.72 1743.16,-458.82 1768.23,-473.29"/>
<polygon fill="midnightblue" stroke="midnightblue" points="1766.57,-476.37 1776.97,-478.39 1770.1,-470.33 1766.57,-476.37"/>
</g>
<!-- Node30&#45;&gt;Node12 -->
<g id="edge40" class="edge">
<title>Node30&#45;&gt;Node12</title>
<path fill="none" stroke="midnightblue" d="M1667.53,-510.32C1681.09,-508.64 1694.99,-506.91 1708.46,-505.24"/>
<polygon fill="midnightblue" stroke="midnightblue" points="1709.17,-508.68 1718.66,-503.97 1708.31,-501.73 1709.17,-508.68"/>
</g>
<!-- Node32 -->
<g id="node32" class="node">
<title>Node32</title>
<g id="a_node32"><a xlink:href="../../d4/d15/classjavolution_1_1xml_1_1internal_1_1stream_1_1XMLStreamWriterImpl.html#a769e125d8d20ad3a91b29195cce848b8" target="_top" xlink:title=" ">
<polygon fill="white" stroke="black" points="437,-280.62 437,-310.62 652,-310.62 652,-280.62 437,-280.62"/>
<text text-anchor="start" x="445" y="-298.62" font-family="Helvetica,sans-Serif" font-size="10.00">javolution.xml.internal.stream.</text>
<text text-anchor="middle" x="544.5" y="-287.62" font-family="Helvetica,sans-Serif" font-size="10.00">XMLStreamWriterImpl.writeNewElement</text>
</a>
</g>
</g>
<!-- Node31&#45;&gt;Node32 -->
<g id="edge46" class="edge">
<title>Node31&#45;&gt;Node32</title>
<path fill="none" stroke="midnightblue" d="M324.1,-406.42C369.27,-383.61 454.61,-340.51 504.5,-315.32"/>
<polygon fill="midnightblue" stroke="midnightblue" points="506.34,-318.31 513.69,-310.68 503.18,-312.06 506.34,-318.31"/>
</g>
<!-- Node32&#45;&gt;Node9 -->
<g id="edge49" class="edge">
<title>Node32&#45;&gt;Node9</title>
<path fill="none" stroke="midnightblue" d="M554.64,-310.99C574.84,-343.76 626.4,-421.24 688,-466.62 701.3,-476.42 717.16,-484.44 732.41,-490.8"/>
<polygon fill="midnightblue" stroke="midnightblue" points="731.22,-494.09 741.81,-494.54 733.81,-487.59 731.22,-494.09"/>
</g>
<!-- Node32&#45;&gt;Node12 -->
<g id="edge58" class="edge">
<title>Node32&#45;&gt;Node12</title>
<path fill="none" stroke="midnightblue" d="M562.94,-310.72C588.45,-331.83 638.33,-369.49 688,-386.62 783.45,-419.53 1458.38,-469.54 1708.79,-487.19"/>
<polygon fill="midnightblue" stroke="midnightblue" points="1708.74,-490.69 1718.96,-487.9 1709.23,-483.71 1708.74,-490.69"/>
</g>
<!-- Node32&#45;&gt;Node18 -->
<g id="edge50" class="edge">
<title>Node32&#45;&gt;Node18</title>
<path fill="none" stroke="midnightblue" d="M569.27,-280.6C596.82,-263.84 644.08,-237.05 688,-221.62 840.43,-168.08 882.94,-150.62 1044.5,-150.62 1044.5,-150.62 1044.5,-150.62 1310,-150.62 1560.29,-150.62 1855.8,-198.68 1980.59,-221.22"/>
<polygon fill="midnightblue" stroke="midnightblue" points="1980.24,-224.71 1990.7,-223.05 1981.49,-217.82 1980.24,-224.71"/>
</g>
<!-- Node32&#45;&gt;Node22 -->
<g id="edge51" class="edge">
<title>Node32&#45;&gt;Node22</title>
<path fill="none" stroke="midnightblue" d="M581.96,-280.57C610.32,-269.68 650.95,-255.82 688,-249.62 969.75,-202.48 1309.37,-215.21 1471.44,-225.44"/>
<polygon fill="midnightblue" stroke="midnightblue" points="1471.66,-228.96 1481.86,-226.11 1472.11,-221.98 1471.66,-228.96"/>
</g>
<!-- Node32&#45;&gt;Node23 -->
<g id="edge52" class="edge">
<title>Node32&#45;&gt;Node23</title>
<path fill="none" stroke="midnightblue" d="M553.47,-280.38C571.89,-247 621,-167.93 688,-136.62 819.78,-75.05 1242.42,-88.54 1449.68,-99.45"/>
<polygon fill="midnightblue" stroke="midnightblue" points="1449.51,-102.94 1459.69,-99.98 1449.89,-95.95 1449.51,-102.94"/>
</g>
<!-- Node32&#45;&gt;Node24 -->
<g id="edge47" class="edge">
<title>Node32&#45;&gt;Node24</title>
<path fill="none" stroke="midnightblue" d="M550.88,-280.47C565.68,-241.33 611.08,-136.8 688,-92.62 825.88,-13.43 885.5,-62.62 1044.5,-62.62 1044.5,-62.62 1044.5,-62.62 1310,-62.62 1445.23,-62.62 1601.36,-62.62 1700.82,-62.62"/>
<polygon fill="midnightblue" stroke="midnightblue" points="1700.87,-66.12 1710.87,-62.62 1700.87,-59.12 1700.87,-66.12"/>
</g>
<!-- Node32&#45;&gt;Node26 -->
<g id="edge48" class="edge">
<title>Node32&#45;&gt;Node26</title>
<path fill="none" stroke="midnightblue" d="M548.7,-280.43C559.22,-234.81 597.34,-98.73 688,-42.62 822.9,40.86 885.85,-24.62 1044.5,-24.62 1044.5,-24.62 1044.5,-24.62 1310,-24.62 1447.77,-24.62 1607.24,-24.62 1706.38,-24.62"/>
<polygon fill="midnightblue" stroke="midnightblue" points="1706.67,-28.12 1716.67,-24.62 1706.67,-21.12 1706.67,-28.12"/>
</g>
<!-- Node32&#45;&gt;Node30 -->
<g id="edge59" class="edge">
<title>Node32&#45;&gt;Node30</title>
<path fill="none" stroke="midnightblue" d="M556.34,-310.9C577.75,-339.7 628.57,-401.54 688,-428.62 837.64,-496.81 1260.57,-487.33 1424,-505.62 1434.71,-506.82 1445.87,-508.1 1457.02,-509.4"/>
<polygon fill="midnightblue" stroke="midnightblue" points="1456.91,-512.91 1467.25,-510.59 1457.72,-505.96 1456.91,-512.91"/>
</g>
<!-- Node33 -->
<g id="node33" class="node">
<title>Node33</title>
<g id="a_node33"><a xlink:href="../../d2/d7a/classjavolution_1_1text_1_1TextBuilder.html#a23b59400283fe96ea47f786a896da5b1" target="_top" xlink:title=" ">
<polygon fill="white" stroke="black" points="956,-308.12 956,-327.12 1135,-327.12 1135,-308.12 956,-308.12"/>
<text text-anchor="middle" x="1045.5" y="-315.12" font-family="Helvetica,sans-Serif" font-size="10.00">javolution.text.TextBuilder.length</text>
</a>
</g>
</g>
<!-- Node32&#45;&gt;Node33 -->
<g id="edge53" class="edge">
<title>Node32&#45;&gt;Node33</title>
<path fill="none" stroke="midnightblue" d="M652.24,-300.33C739.18,-304.16 860.97,-309.53 945.69,-313.27"/>
<polygon fill="midnightblue" stroke="midnightblue" points="945.69,-316.77 955.83,-313.71 946,-309.78 945.69,-316.77"/>
</g>
<!-- Node34 -->
<g id="node34" class="node">
<title>Node34</title>
<g id="a_node34"><a xlink:href="../../dc/daa/classjavolution_1_1xml_1_1internal_1_1stream_1_1NamespacesImpl.html#ae1cf4d787f513f4e70688869f60aed22" target="_top" xlink:title=" ">
<polygon fill="white" stroke="black" points="708.5,-258.62 708.5,-288.62 876.5,-288.62 876.5,-258.62 708.5,-258.62"/>
<text text-anchor="start" x="716.5" y="-276.62" font-family="Helvetica,sans-Serif" font-size="10.00">javolution.xml.internal.stream.</text>
<text text-anchor="middle" x="792.5" y="-265.62" font-family="Helvetica,sans-Serif" font-size="10.00">NamespacesImpl.push</text>
</a>
</g>
</g>
<!-- Node32&#45;&gt;Node34 -->
<g id="edge54" class="edge">
<title>Node32&#45;&gt;Node34</title>
<path fill="none" stroke="midnightblue" d="M652.33,-286.07C667.6,-284.7 683.22,-283.31 698.21,-281.96"/>
<polygon fill="midnightblue" stroke="midnightblue" points="698.82,-285.42 708.47,-281.05 698.2,-278.45 698.82,-285.42"/>
</g>
<!-- Node36 -->
<g id="node36" class="node">
<title>Node36</title>
<g id="a_node36"><a xlink:href="../../d4/d15/classjavolution_1_1xml_1_1internal_1_1stream_1_1XMLStreamWriterImpl.html#afca6d9b006681301be8eae9c38a2cdd0" target="_top" xlink:title=" ">
<polygon fill="white" stroke="black" points="688,-346.62 688,-376.62 897,-376.62 897,-346.62 688,-346.62"/>
<text text-anchor="start" x="696" y="-364.62" font-family="Helvetica,sans-Serif" font-size="10.00">javolution.xml.internal.stream.</text>
<text text-anchor="middle" x="792.5" y="-353.62" font-family="Helvetica,sans-Serif" font-size="10.00">XMLStreamWriterImpl.resizeElemStack</text>
</a>
</g>
</g>
<!-- Node32&#45;&gt;Node36 -->
<g id="edge56" class="edge">
<title>Node32&#45;&gt;Node36</title>
<path fill="none" stroke="midnightblue" d="M601.63,-310.68C638.34,-320.53 686.46,-333.44 725.08,-343.8"/>
<polygon fill="midnightblue" stroke="midnightblue" points="724.62,-347.3 735.19,-346.51 726.44,-340.54 724.62,-347.3"/>
</g>
<!-- Node35 -->
<g id="node35" class="node">
<title>Node35</title>
<g id="a_node35"><a xlink:href="../../dc/daa/classjavolution_1_1xml_1_1internal_1_1stream_1_1NamespacesImpl.html#a8607aa95dd6c628095acf01e25a7698a" target="_top" xlink:title=" ">
<polygon fill="white" stroke="black" points="933,-258.62 933,-288.62 1158,-288.62 1158,-258.62 933,-258.62"/>
<text text-anchor="start" x="941" y="-276.62" font-family="Helvetica,sans-Serif" font-size="10.00">javolution.xml.internal.stream.</text>
<text text-anchor="middle" x="1045.5" y="-265.62" font-family="Helvetica,sans-Serif" font-size="10.00">NamespacesImpl.resizeNamespacesCount</text>
</a>
</g>
</g>
<!-- Node34&#45;&gt;Node35 -->
<g id="edge55" class="edge">
<title>Node34&#45;&gt;Node35</title>
<path fill="none" stroke="midnightblue" d="M876.73,-273.62C891.48,-273.62 907.11,-273.62 922.67,-273.62"/>
<polygon fill="midnightblue" stroke="midnightblue" points="922.87,-277.12 932.87,-273.62 922.87,-270.12 922.87,-277.12"/>
</g>
<!-- Node36&#45;&gt;Node33 -->
<g id="edge57" class="edge">
<title>Node36&#45;&gt;Node33</title>
<path fill="none" stroke="midnightblue" d="M879.18,-346.6C912.22,-340.81 949.38,-334.3 980.09,-328.91"/>
<polygon fill="midnightblue" stroke="midnightblue" points="980.99,-332.31 990.24,-327.13 979.78,-325.41 980.99,-332.31"/>
</g>
</g>
</svg>
