<?xml version="1.0" encoding="UTF-8" standalone="no"?>
<!DOCTYPE svg PUBLIC "-//W3C//DTD SVG 1.1//EN"
 "http://www.w3.org/Graphics/SVG/1.1/DTD/svg11.dtd">
<!-- Generated by graphviz version 2.43.0 (0)
 -->
<!-- Title: javolution.xml.XMLFormat.OutputElement.writeReference Pages: 1 -->
<svg width="2111pt" height="582pt"
 viewBox="0.00 0.00 2111.00 582.10" xmlns="http://www.w3.org/2000/svg" xmlns:xlink="http://www.w3.org/1999/xlink">
<g id="graph0" class="graph" transform="scale(1 1) rotate(0) translate(4 578.1)">
<title>javolution.xml.XMLFormat.OutputElement.writeReference</title>
<polygon fill="white" stroke="transparent" points="-4,4 -4,-578.1 2107,-578.1 2107,4 -4,4"/>
<!-- Node1 -->
<g id="node1" class="node">
<title>Node1</title>
<g id="a_node1"><a xlink:title=" ">
<polygon fill="#bfbfbf" stroke="black" points="0,-134.54 0,-164.54 167,-164.54 167,-134.54 0,-134.54"/>
<text text-anchor="start" x="8" y="-152.54" font-family="Helvetica,sans-Serif" font-size="10.00">javolution.xml.XMLFormat.</text>
<text text-anchor="middle" x="83.5" y="-141.54" font-family="Helvetica,sans-Serif" font-size="10.00">OutputElement.writeReference</text>
</a>
</g>
</g>
<!-- Node2 -->
<g id="node2" class="node">
<title>Node2</title>
<g id="a_node2"><a xlink:href="../../d4/d15/classjavolution_1_1xml_1_1internal_1_1stream_1_1XMLStreamWriterImpl.html#a50637e984a54b1d3c98caaf5fe7adae5" target="_top" xlink:title=" ">
<polygon fill="white" stroke="black" points="203,-344.54 203,-374.54 414,-374.54 414,-344.54 203,-344.54"/>
<text text-anchor="start" x="211" y="-362.54" font-family="Helvetica,sans-Serif" font-size="10.00">javolution.xml.internal.stream.</text>
<text text-anchor="middle" x="308.5" y="-351.54" font-family="Helvetica,sans-Serif" font-size="10.00">XMLStreamWriterImpl.writeEndElement</text>
</a>
</g>
</g>
<!-- Node1&#45;&gt;Node2 -->
<g id="edge1" class="edge">
<title>Node1&#45;&gt;Node2</title>
<path fill="none" stroke="midnightblue" d="M100.54,-164.65C139.34,-201.19 238.43,-294.5 283.96,-337.38"/>
<polygon fill="midnightblue" stroke="midnightblue" points="281.63,-339.99 291.31,-344.3 286.43,-334.89 281.63,-339.99"/>
</g>
<!-- Node25 -->
<g id="node25" class="node">
<title>Node25</title>
<g id="a_node25"><a xlink:href="../../d3/dfa/classjavolution_1_1xml_1_1XMLReferenceResolver.html#ae8d4c1a41c5d6a6ebb20000bcfbebc6c" target="_top" xlink:title=" ">
<polygon fill="white" stroke="black" points="1225,-78.54 1225,-108.54 1386,-108.54 1386,-78.54 1225,-78.54"/>
<text text-anchor="start" x="1233" y="-96.54" font-family="Helvetica,sans-Serif" font-size="10.00">javolution.xml.XMLReference</text>
<text text-anchor="middle" x="1305.5" y="-85.54" font-family="Helvetica,sans-Serif" font-size="10.00">Resolver.writeReference</text>
</a>
</g>
</g>
<!-- Node1&#45;&gt;Node25 -->
<g id="edge39" class="edge">
<title>Node1&#45;&gt;Node25</title>
<path fill="none" stroke="midnightblue" d="M115.3,-134.51C188.31,-100.29 378.4,-19.54 546.5,-19.54 546.5,-19.54 546.5,-19.54 789.5,-19.54 955.27,-19.54 999.86,-4.04 1162,-38.54 1197.85,-46.17 1236.52,-61.59 1264.52,-74.17"/>
<polygon fill="midnightblue" stroke="midnightblue" points="1263.41,-77.51 1273.96,-78.48 1266.32,-71.14 1263.41,-77.51"/>
</g>
<!-- Node3 -->
<g id="node3" class="node">
<title>Node3</title>
<g id="a_node3"><a xlink:href="../../d4/d15/classjavolution_1_1xml_1_1internal_1_1stream_1_1XMLStreamWriterImpl.html#a15e88dc4238fd15a3ffdc030975c02cd" target="_top" xlink:title=" ">
<polygon fill="white" stroke="black" points="450,-344.54 450,-374.54 645,-374.54 645,-344.54 450,-344.54"/>
<text text-anchor="start" x="458" y="-362.54" font-family="Helvetica,sans-Serif" font-size="10.00">javolution.xml.internal.stream.</text>
<text text-anchor="middle" x="547.5" y="-351.54" font-family="Helvetica,sans-Serif" font-size="10.00">XMLStreamWriterImpl.closeOpenTag</text>
</a>
</g>
</g>
<!-- Node2&#45;&gt;Node3 -->
<g id="edge2" class="edge">
<title>Node2&#45;&gt;Node3</title>
<path fill="none" stroke="midnightblue" d="M414.14,-359.54C422.7,-359.54 431.35,-359.54 439.92,-359.54"/>
<polygon fill="midnightblue" stroke="midnightblue" points="439.93,-363.05 449.93,-359.54 439.93,-356.05 439.93,-363.05"/>
</g>
<!-- Node4 -->
<g id="node4" class="node">
<title>Node4</title>
<g id="a_node4"><a xlink:href="../../dc/daa/classjavolution_1_1xml_1_1internal_1_1stream_1_1NamespacesImpl.html#ae82cf6edcea5ac1d71d5b9005bb6a590" target="_top" xlink:title=" ">
<polygon fill="white" stroke="black" points="704.5,-245.54 704.5,-275.54 872.5,-275.54 872.5,-245.54 704.5,-245.54"/>
<text text-anchor="start" x="712.5" y="-263.54" font-family="Helvetica,sans-Serif" font-size="10.00">javolution.xml.internal.stream.</text>
<text text-anchor="middle" x="788.5" y="-252.54" font-family="Helvetica,sans-Serif" font-size="10.00">NamespacesImpl.pop</text>
</a>
</g>
</g>
<!-- Node2&#45;&gt;Node4 -->
<g id="edge36" class="edge">
<title>Node2&#45;&gt;Node4</title>
<path fill="none" stroke="midnightblue" d="M382.1,-344.51C468.95,-326.52 613.99,-296.48 705,-277.63"/>
<polygon fill="midnightblue" stroke="midnightblue" points="705.92,-281.02 715,-275.56 704.5,-274.16 705.92,-281.02"/>
</g>
<!-- Node6 -->
<g id="node6" class="node">
<title>Node6</title>
<g id="a_node6"><a xlink:href="../../d4/d15/classjavolution_1_1xml_1_1internal_1_1stream_1_1XMLStreamWriterImpl.html#a6d805db8f2c051bd5eb34feb49a602a8" target="_top" xlink:title=" ">
<polygon fill="white" stroke="black" points="1457,-464.54 1457,-494.54 1625,-494.54 1625,-464.54 1457,-464.54"/>
<text text-anchor="start" x="1465" y="-482.54" font-family="Helvetica,sans-Serif" font-size="10.00">javolution.xml.internal.stream.</text>
<text text-anchor="middle" x="1541" y="-471.54" font-family="Helvetica,sans-Serif" font-size="10.00">XMLStreamWriterImpl.write</text>
</a>
</g>
</g>
<!-- Node2&#45;&gt;Node6 -->
<g id="edge37" class="edge">
<title>Node2&#45;&gt;Node6</title>
<path fill="none" stroke="midnightblue" d="M324.99,-374.81C349.52,-398.18 399.7,-442.83 450,-468.54 589.19,-539.7 631.18,-567.54 787.5,-567.54 787.5,-567.54 787.5,-567.54 1048,-567.54 1210.47,-567.54 1256.56,-591.38 1413,-547.54 1448.61,-537.57 1485.44,-516.44 1510.21,-500.36"/>
<polygon fill="midnightblue" stroke="midnightblue" points="1512.36,-503.13 1518.77,-494.7 1508.5,-497.3 1512.36,-503.13"/>
</g>
<!-- Node24 -->
<g id="node24" class="node">
<title>Node24</title>
<g id="a_node24"><a xlink:href="../../d4/d15/classjavolution_1_1xml_1_1internal_1_1stream_1_1XMLStreamWriterImpl.html#a2e628fa8b39f7ce952896efb8e5f63b6" target="_top" xlink:title=" ">
<polygon fill="white" stroke="black" points="1205.5,-508.54 1205.5,-538.54 1405.5,-538.54 1405.5,-508.54 1205.5,-508.54"/>
<text text-anchor="start" x="1213.5" y="-526.54" font-family="Helvetica,sans-Serif" font-size="10.00">javolution.xml.internal.stream.</text>
<text text-anchor="middle" x="1305.5" y="-515.54" font-family="Helvetica,sans-Serif" font-size="10.00">XMLStreamWriterImpl.writeNoEscape</text>
</a>
</g>
</g>
<!-- Node2&#45;&gt;Node24 -->
<g id="edge38" class="edge">
<title>Node2&#45;&gt;Node24</title>
<path fill="none" stroke="midnightblue" d="M341.41,-374.6C404.6,-403.66 550.83,-467.09 681,-495.54 858.01,-534.24 1069.81,-534.33 1195.42,-529.74"/>
<polygon fill="midnightblue" stroke="midnightblue" points="1195.57,-533.24 1205.43,-529.36 1195.31,-526.24 1195.57,-533.24"/>
</g>
<!-- Node3&#45;&gt;Node4 -->
<g id="edge3" class="edge">
<title>Node3&#45;&gt;Node4</title>
<path fill="none" stroke="midnightblue" d="M610.86,-344.51C622.77,-340.11 634.71,-334.54 645,-327.54 665.61,-313.53 659.72,-297.52 681,-284.54 685.39,-281.87 690.04,-279.49 694.85,-277.38"/>
<polygon fill="midnightblue" stroke="midnightblue" points="696.28,-280.58 704.28,-273.63 693.69,-274.07 696.28,-280.58"/>
</g>
<!-- Node3&#45;&gt;Node6 -->
<g id="edge5" class="edge">
<title>Node3&#45;&gt;Node6</title>
<path fill="none" stroke="midnightblue" d="M635.42,-374.56C759.76,-395.54 995.73,-433.53 1198,-455.54 1281.86,-464.67 1377.69,-471.05 1446.53,-474.92"/>
<polygon fill="midnightblue" stroke="midnightblue" points="1446.73,-478.44 1456.91,-475.5 1447.12,-471.45 1446.73,-478.44"/>
</g>
<!-- Node11 -->
<g id="node11" class="node">
<title>Node11</title>
<g id="a_node11"><a xlink:href="../../d4/d15/classjavolution_1_1xml_1_1internal_1_1stream_1_1XMLStreamWriterImpl.html#ad23e09c1ba7cccfde9d9f05f3e2ec3d1" target="_top" xlink:title=" ">
<polygon fill="white" stroke="black" points="681,-294.54 681,-324.54 896,-324.54 896,-294.54 681,-294.54"/>
<text text-anchor="start" x="689" y="-312.54" font-family="Helvetica,sans-Serif" font-size="10.00">javolution.xml.internal.stream.</text>
<text text-anchor="middle" x="788.5" y="-301.54" font-family="Helvetica,sans-Serif" font-size="10.00">XMLStreamWriterImpl.writeNamespaces</text>
</a>
</g>
</g>
<!-- Node3&#45;&gt;Node11 -->
<g id="edge11" class="edge">
<title>Node3&#45;&gt;Node11</title>
<path fill="none" stroke="midnightblue" d="M620.21,-344.54C647.03,-338.93 677.69,-332.52 705.38,-326.73"/>
<polygon fill="midnightblue" stroke="midnightblue" points="706.36,-330.1 715.43,-324.62 704.93,-323.24 706.36,-330.1"/>
</g>
<!-- Node3&#45;&gt;Node24 -->
<g id="edge35" class="edge">
<title>Node3&#45;&gt;Node24</title>
<path fill="none" stroke="midnightblue" d="M561.34,-374.68C583.1,-399.15 629.88,-446.73 681,-467.54 727.28,-486.39 1028.82,-507.06 1195,-517.21"/>
<polygon fill="midnightblue" stroke="midnightblue" points="1195.06,-520.72 1205.26,-517.83 1195.49,-513.73 1195.06,-520.72"/>
</g>
<!-- Node5 -->
<g id="node5" class="node">
<title>Node5</title>
<g id="a_node5"><a xlink:href="../../dc/daa/classjavolution_1_1xml_1_1internal_1_1stream_1_1NamespacesImpl.html#acb0ae4ce1aed7a82764ba4576eda513a" target="_top" xlink:title=" ">
<polygon fill="white" stroke="black" points="932,-48.54 932,-78.54 1162,-78.54 1162,-48.54 932,-48.54"/>
<text text-anchor="start" x="940" y="-66.54" font-family="Helvetica,sans-Serif" font-size="10.00">javolution.xml.internal.stream.</text>
<text text-anchor="middle" x="1047" y="-55.54" font-family="Helvetica,sans-Serif" font-size="10.00">NamespacesImpl.searchDefaultNamespace</text>
</a>
</g>
</g>
<!-- Node4&#45;&gt;Node5 -->
<g id="edge4" class="edge">
<title>Node4&#45;&gt;Node5</title>
<path fill="none" stroke="midnightblue" d="M798,-245.39C817.29,-212.42 867.77,-133.89 932,-93.54 939.04,-89.12 946.71,-85.35 954.64,-82.13"/>
<polygon fill="midnightblue" stroke="midnightblue" points="955.92,-85.39 964.05,-78.6 953.45,-78.84 955.92,-85.39"/>
</g>
<!-- Node7 -->
<g id="node7" class="node">
<title>Node7</title>
<g id="a_node7"><a xlink:href="../../d4/d15/classjavolution_1_1xml_1_1internal_1_1stream_1_1XMLStreamWriterImpl.html#ac2145f0f924e9b642dd66dc6d5ee891e" target="_top" xlink:title=" ">
<polygon fill="white" stroke="black" points="1690,-395.54 1690,-425.54 1870,-425.54 1870,-395.54 1690,-395.54"/>
<text text-anchor="start" x="1698" y="-413.54" font-family="Helvetica,sans-Serif" font-size="10.00">javolution.xml.internal.stream.</text>
<text text-anchor="middle" x="1780" y="-402.54" font-family="Helvetica,sans-Serif" font-size="10.00">XMLStreamWriterImpl.flushBuffer</text>
</a>
</g>
</g>
<!-- Node6&#45;&gt;Node7 -->
<g id="edge6" class="edge">
<title>Node6&#45;&gt;Node7</title>
<path fill="none" stroke="midnightblue" d="M1589.84,-464.46C1613.59,-457.07 1642.75,-448.15 1669,-440.54 1683.06,-436.47 1698.17,-432.25 1712.56,-428.3"/>
<polygon fill="midnightblue" stroke="midnightblue" points="1713.65,-431.63 1722.38,-425.62 1711.81,-424.88 1713.65,-431.63"/>
</g>
<!-- Node8 -->
<g id="node8" class="node">
<title>Node8</title>
<g id="a_node8"><a xlink:href="../../d4/d15/classjavolution_1_1xml_1_1internal_1_1stream_1_1XMLStreamWriterImpl.html#a3d00494460e49d0dd3a57e250d4d707c" target="_top" xlink:title=" ">
<polygon fill="white" stroke="black" points="1694.5,-543.54 1694.5,-573.54 1865.5,-573.54 1865.5,-543.54 1694.5,-543.54"/>
<text text-anchor="start" x="1702.5" y="-561.54" font-family="Helvetica,sans-Serif" font-size="10.00">javolution.xml.internal.stream.</text>
<text text-anchor="middle" x="1780" y="-550.54" font-family="Helvetica,sans-Serif" font-size="10.00">XMLStreamWriterImpl.getChars</text>
</a>
</g>
</g>
<!-- Node6&#45;&gt;Node8 -->
<g id="edge7" class="edge">
<title>Node6&#45;&gt;Node8</title>
<path fill="none" stroke="midnightblue" d="M1572.98,-494.56C1598.34,-506.4 1635.37,-522.67 1669,-533.54 1677.26,-536.22 1685.95,-538.71 1694.69,-541.01"/>
<polygon fill="midnightblue" stroke="midnightblue" points="1693.99,-544.45 1704.55,-543.52 1695.72,-537.66 1693.99,-544.45"/>
</g>
<!-- Node9 -->
<g id="node9" class="node">
<title>Node9</title>
<g id="a_node9"><a xlink:href="../../d4/d15/classjavolution_1_1xml_1_1internal_1_1stream_1_1XMLStreamWriterImpl.html#ac48b39590b21a285753d9ecc463d95c1" target="_top" xlink:title=" ">
<polygon fill="white" stroke="black" points="1927,-463.54 1927,-493.54 2103,-493.54 2103,-463.54 1927,-463.54"/>
<text text-anchor="start" x="1935" y="-481.54" font-family="Helvetica,sans-Serif" font-size="10.00">javolution.xml.internal.stream.</text>
<text text-anchor="middle" x="2015" y="-470.54" font-family="Helvetica,sans-Serif" font-size="10.00">XMLStreamWriterImpl.isEscaped</text>
</a>
</g>
</g>
<!-- Node6&#45;&gt;Node9 -->
<g id="edge8" class="edge">
<title>Node6&#45;&gt;Node9</title>
<path fill="none" stroke="midnightblue" d="M1625.32,-475.05C1639.88,-474.42 1654.88,-473.88 1669,-473.54 1767.64,-471.22 1792.35,-471.54 1891,-473.54 1899.37,-473.72 1908.06,-473.95 1916.77,-474.23"/>
<polygon fill="midnightblue" stroke="midnightblue" points="1916.88,-477.73 1926.99,-474.57 1917.12,-470.74 1916.88,-477.73"/>
</g>
<!-- Node10 -->
<g id="node10" class="node">
<title>Node10</title>
<g id="a_node10"><a xlink:href="../../d4/d15/classjavolution_1_1xml_1_1internal_1_1stream_1_1XMLStreamWriterImpl.html#a79ed753f8bf18f2eeaf7d7e8f93d60f1" target="_top" xlink:title=" ">
<polygon fill="white" stroke="black" points="1669,-483.04 1669,-524.04 1891,-524.04 1891,-483.04 1669,-483.04"/>
<text text-anchor="start" x="1677" y="-512.04" font-family="Helvetica,sans-Serif" font-size="10.00">javolution.xml.internal.stream.</text>
<text text-anchor="start" x="1677" y="-501.04" font-family="Helvetica,sans-Serif" font-size="10.00">XMLStreamWriterImpl.writeDirectEscaped</text>
<text text-anchor="middle" x="1780" y="-490.04" font-family="Helvetica,sans-Serif" font-size="10.00">Characters</text>
</a>
</g>
</g>
<!-- Node6&#45;&gt;Node10 -->
<g id="edge9" class="edge">
<title>Node6&#45;&gt;Node10</title>
<path fill="none" stroke="midnightblue" d="M1625.22,-487.97C1636.16,-489.08 1647.53,-490.23 1658.93,-491.39"/>
<polygon fill="midnightblue" stroke="midnightblue" points="1658.64,-494.87 1668.94,-492.4 1659.34,-487.91 1658.64,-494.87"/>
</g>
<!-- Node10&#45;&gt;Node9 -->
<g id="edge10" class="edge">
<title>Node10&#45;&gt;Node9</title>
<path fill="none" stroke="midnightblue" d="M1891.02,-491.74C1899.66,-490.81 1908.34,-489.88 1916.89,-488.96"/>
<polygon fill="midnightblue" stroke="midnightblue" points="1917.27,-492.44 1926.84,-487.9 1916.52,-485.48 1917.27,-492.44"/>
</g>
<!-- Node12 -->
<g id="node12" class="node">
<title>Node12</title>
<g id="a_node12"><a xlink:href="../../d0/d36/classjavolution_1_1text_1_1CharArray.html#a63cd0fbe95d0342063ea7091dce0fa9c" target="_top" xlink:title=" ">
<polygon fill="white" stroke="black" points="1693.5,-278.04 1693.5,-297.04 1866.5,-297.04 1866.5,-278.04 1693.5,-278.04"/>
<text text-anchor="middle" x="1780" y="-285.04" font-family="Helvetica,sans-Serif" font-size="10.00">javolution.text.CharArray.equals</text>
</a>
</g>
</g>
<!-- Node11&#45;&gt;Node12 -->
<g id="edge12" class="edge">
<title>Node11&#45;&gt;Node12</title>
<path fill="none" stroke="midnightblue" d="M855.5,-294.49C868.93,-291.3 882.94,-287.89 896,-284.54 912.09,-280.42 915.55,-276.82 932,-274.54 1204.27,-236.91 1530.44,-261.16 1686.69,-276.99"/>
<polygon fill="midnightblue" stroke="midnightblue" points="1686.42,-280.48 1696.73,-278.02 1687.14,-273.52 1686.42,-280.48"/>
</g>
<!-- Node13 -->
<g id="node13" class="node">
<title>Node13</title>
<g id="a_node13"><a xlink:href="../../dc/daa/classjavolution_1_1xml_1_1internal_1_1stream_1_1NamespacesImpl.html#a5a2f11c30da4ca635225ed1c0c5f2668" target="_top" xlink:title=" ">
<polygon fill="white" stroke="black" points="1457,-294.54 1457,-324.54 1625,-324.54 1625,-294.54 1457,-294.54"/>
<text text-anchor="start" x="1465" y="-312.54" font-family="Helvetica,sans-Serif" font-size="10.00">javolution.xml.internal.stream.</text>
<text text-anchor="middle" x="1541" y="-301.54" font-family="Helvetica,sans-Serif" font-size="10.00">NamespacesImpl.getPrefix</text>
</a>
</g>
</g>
<!-- Node11&#45;&gt;Node13 -->
<g id="edge13" class="edge">
<title>Node11&#45;&gt;Node13</title>
<path fill="none" stroke="midnightblue" d="M896.22,-296.39C1020.58,-283.12 1232.13,-266.91 1413,-284.54 1430.39,-286.24 1448.93,-289.21 1466.31,-292.53"/>
<polygon fill="midnightblue" stroke="midnightblue" points="1465.91,-296.02 1476.4,-294.51 1467.27,-289.15 1465.91,-296.02"/>
</g>
<!-- Node14 -->
<g id="node14" class="node">
<title>Node14</title>
<g id="a_node14"><a xlink:href="../../d0/d36/classjavolution_1_1text_1_1CharArray.html#a1206e2076e25f1e66e1458328aa22baa" target="_top" xlink:title=" ">
<polygon fill="white" stroke="black" points="1929,-152.04 1929,-171.04 2101,-171.04 2101,-152.04 1929,-152.04"/>
<text text-anchor="middle" x="2015" y="-159.04" font-family="Helvetica,sans-Serif" font-size="10.00">javolution.text.CharArray.length</text>
</a>
</g>
</g>
<!-- Node11&#45;&gt;Node14 -->
<g id="edge15" class="edge">
<title>Node11&#45;&gt;Node14</title>
<path fill="none" stroke="midnightblue" d="M872.1,-294.52C880.39,-291.73 888.5,-288.44 896,-284.54 915,-274.69 915.17,-265.77 932,-252.54 960.26,-230.34 1164.24,-80.88 1198,-68.54 1487.47,37.2 1601.25,12.43 1891,-92.54 1928.56,-106.15 1968.2,-130.44 1992.02,-146.27"/>
<polygon fill="midnightblue" stroke="midnightblue" points="1990.09,-149.19 2000.34,-151.88 1994.01,-143.39 1990.09,-149.19"/>
</g>
<!-- Node15 -->
<g id="node15" class="node">
<title>Node15</title>
<g id="a_node15"><a xlink:href="../../d4/d15/classjavolution_1_1xml_1_1internal_1_1stream_1_1XMLStreamWriterImpl.html#a67df1c83cc5a3ea172419ca10d1b2ca2" target="_top" xlink:title=" ">
<polygon fill="white" stroke="black" points="949.5,-333.04 949.5,-374.04 1144.5,-374.04 1144.5,-333.04 949.5,-333.04"/>
<text text-anchor="start" x="957.5" y="-362.04" font-family="Helvetica,sans-Serif" font-size="10.00">javolution.xml.internal.stream.</text>
<text text-anchor="start" x="957.5" y="-351.04" font-family="Helvetica,sans-Serif" font-size="10.00">XMLStreamWriterImpl.writeAttribute</text>
<text text-anchor="middle" x="1047" y="-340.04" font-family="Helvetica,sans-Serif" font-size="10.00">OrNamespace</text>
</a>
</g>
</g>
<!-- Node11&#45;&gt;Node15 -->
<g id="edge16" class="edge">
<title>Node11&#45;&gt;Node15</title>
<path fill="none" stroke="midnightblue" d="M877.06,-324.56C897.01,-327.99 918.43,-331.66 939.09,-335.21"/>
<polygon fill="midnightblue" stroke="midnightblue" points="938.72,-338.69 949.17,-336.93 939.9,-331.79 938.72,-338.69"/>
</g>
<!-- Node13&#45;&gt;Node12 -->
<g id="edge14" class="edge">
<title>Node13&#45;&gt;Node12</title>
<path fill="none" stroke="midnightblue" d="M1625.22,-301.82C1643.96,-300.08 1664,-298.22 1683.21,-296.44"/>
<polygon fill="midnightblue" stroke="midnightblue" points="1683.53,-299.92 1693.17,-295.51 1682.89,-292.95 1683.53,-299.92"/>
</g>
<!-- Node15&#45;&gt;Node6 -->
<g id="edge30" class="edge">
<title>Node15&#45;&gt;Node6</title>
<path fill="none" stroke="midnightblue" d="M1086.09,-374.13C1115.79,-389.35 1158.49,-409.46 1198,-421.54 1243.29,-435.4 1362.01,-454.12 1446.84,-466.5"/>
<polygon fill="midnightblue" stroke="midnightblue" points="1446.36,-469.97 1456.75,-467.94 1447.36,-463.04 1446.36,-469.97"/>
</g>
<!-- Node15&#45;&gt;Node12 -->
<g id="edge17" class="edge">
<title>Node15&#45;&gt;Node12</title>
<path fill="none" stroke="midnightblue" d="M1144.57,-358.18C1261.22,-361.97 1462.97,-362.68 1633,-333.54 1672.83,-326.72 1716.86,-311.77 1746.04,-300.76"/>
<polygon fill="midnightblue" stroke="midnightblue" points="1747.63,-303.9 1755.72,-297.05 1745.13,-297.36 1747.63,-303.9"/>
</g>
<!-- Node16 -->
<g id="node16" class="node">
<title>Node16</title>
<g id="a_node16"><a xlink:href="../../d4/d15/classjavolution_1_1xml_1_1internal_1_1stream_1_1XMLStreamWriterImpl.html#a18e6c7b2d132315d0566892c781a5c86" target="_top" xlink:title=" ">
<polygon fill="white" stroke="black" points="1220,-294.54 1220,-324.54 1391,-324.54 1391,-294.54 1220,-294.54"/>
<text text-anchor="start" x="1228" y="-312.54" font-family="Helvetica,sans-Serif" font-size="10.00">javolution.xml.internal.stream.</text>
<text text-anchor="middle" x="1305.5" y="-301.54" font-family="Helvetica,sans-Serif" font-size="10.00">XMLStreamWriterImpl.getPrefix</text>
</a>
</g>
</g>
<!-- Node15&#45;&gt;Node16 -->
<g id="edge18" class="edge">
<title>Node15&#45;&gt;Node16</title>
<path fill="none" stroke="midnightblue" d="M1144.61,-336.97C1165.94,-333.31 1188.52,-329.44 1209.77,-325.79"/>
<polygon fill="midnightblue" stroke="midnightblue" points="1210.5,-329.22 1219.76,-324.08 1209.31,-322.32 1210.5,-329.22"/>
</g>
<!-- Node17 -->
<g id="node17" class="node">
<title>Node17</title>
<g id="a_node17"><a xlink:href="../../d4/d15/classjavolution_1_1xml_1_1internal_1_1stream_1_1XMLStreamWriterImpl.html#af5e4a42b57208973be8a1136cc607d09" target="_top" xlink:title=" ">
<polygon fill="white" stroke="black" points="1198,-168.54 1198,-198.54 1413,-198.54 1413,-168.54 1198,-168.54"/>
<text text-anchor="start" x="1206" y="-186.54" font-family="Helvetica,sans-Serif" font-size="10.00">javolution.xml.internal.stream.</text>
<text text-anchor="middle" x="1305.5" y="-175.54" font-family="Helvetica,sans-Serif" font-size="10.00">XMLStreamWriterImpl.getRepairedPrefix</text>
</a>
</g>
</g>
<!-- Node15&#45;&gt;Node17 -->
<g id="edge20" class="edge">
<title>Node15&#45;&gt;Node17</title>
<path fill="none" stroke="midnightblue" d="M1078.94,-333.04C1128.21,-300.38 1223.98,-236.91 1273.37,-204.18"/>
<polygon fill="midnightblue" stroke="midnightblue" points="1275.34,-207.07 1281.74,-198.63 1271.48,-201.23 1275.34,-207.07"/>
</g>
<!-- Node23 -->
<g id="node23" class="node">
<title>Node23</title>
<g id="a_node23"><a xlink:href="../../d4/d15/classjavolution_1_1xml_1_1internal_1_1stream_1_1XMLStreamWriterImpl.html#ae9c868796ceee6d3d83d4937c18e9159" target="_top" xlink:title=" ">
<polygon fill="white" stroke="black" points="1212,-382.54 1212,-412.54 1399,-412.54 1399,-382.54 1212,-382.54"/>
<text text-anchor="start" x="1220" y="-400.54" font-family="Helvetica,sans-Serif" font-size="10.00">javolution.xml.internal.stream.</text>
<text text-anchor="middle" x="1305.5" y="-389.54" font-family="Helvetica,sans-Serif" font-size="10.00">XMLStreamWriterImpl.writeEscape</text>
</a>
</g>
</g>
<!-- Node15&#45;&gt;Node23 -->
<g id="edge31" class="edge">
<title>Node15&#45;&gt;Node23</title>
<path fill="none" stroke="midnightblue" d="M1144.61,-370.12C1164.99,-373.61 1186.51,-377.3 1206.92,-380.81"/>
<polygon fill="midnightblue" stroke="midnightblue" points="1206.4,-384.27 1216.85,-382.51 1207.58,-377.37 1206.4,-384.27"/>
</g>
<!-- Node15&#45;&gt;Node24 -->
<g id="edge33" class="edge">
<title>Node15&#45;&gt;Node24</title>
<path fill="none" stroke="midnightblue" d="M1077.71,-374.12C1107.85,-394.91 1155.93,-427.82 1198,-455.54 1222.52,-471.71 1250.52,-489.56 1271.66,-502.92"/>
<polygon fill="midnightblue" stroke="midnightblue" points="1269.94,-505.97 1280.26,-508.35 1273.67,-500.05 1269.94,-505.97"/>
</g>
<!-- Node16&#45;&gt;Node13 -->
<g id="edge19" class="edge">
<title>Node16&#45;&gt;Node13</title>
<path fill="none" stroke="midnightblue" d="M1391.13,-309.54C1409.19,-309.54 1428.36,-309.54 1446.72,-309.54"/>
<polygon fill="midnightblue" stroke="midnightblue" points="1446.83,-313.05 1456.83,-309.54 1446.83,-306.05 1446.83,-313.05"/>
</g>
<!-- Node17&#45;&gt;Node12 -->
<g id="edge24" class="edge">
<title>Node17&#45;&gt;Node12</title>
<path fill="none" stroke="midnightblue" d="M1382.54,-198.57C1448.82,-211.85 1547.46,-232.1 1633,-251.54 1666.25,-259.1 1703.57,-268.32 1732.16,-275.53"/>
<polygon fill="midnightblue" stroke="midnightblue" points="1731.33,-278.94 1741.88,-278 1733.05,-272.15 1731.33,-278.94"/>
</g>
<!-- Node17&#45;&gt;Node13 -->
<g id="edge25" class="edge">
<title>Node17&#45;&gt;Node13</title>
<path fill="none" stroke="midnightblue" d="M1334.67,-198.74C1376.85,-221.51 1456.48,-264.48 1503.21,-289.69"/>
<polygon fill="midnightblue" stroke="midnightblue" points="1501.64,-292.82 1512.1,-294.49 1504.96,-286.66 1501.64,-292.82"/>
</g>
<!-- Node18 -->
<g id="node18" class="node">
<title>Node18</title>
<g id="a_node18"><a xlink:href="../../d2/d7a/classjavolution_1_1text_1_1TextBuilder.html#a5b6d5e22b7b33b3188569bbaf6112c95" target="_top" xlink:title=" ">
<polygon fill="white" stroke="black" points="1449,-130.04 1449,-149.04 1633,-149.04 1633,-130.04 1449,-130.04"/>
<text text-anchor="middle" x="1541" y="-137.04" font-family="Helvetica,sans-Serif" font-size="10.00">javolution.text.TextBuilder.append</text>
</a>
</g>
</g>
<!-- Node17&#45;&gt;Node18 -->
<g id="edge21" class="edge">
<title>Node17&#45;&gt;Node18</title>
<path fill="none" stroke="midnightblue" d="M1386.2,-168.53C1416.68,-162.78 1450.91,-156.33 1479.33,-150.98"/>
<polygon fill="midnightblue" stroke="midnightblue" points="1480.34,-154.35 1489.52,-149.06 1479.04,-147.47 1480.34,-154.35"/>
</g>
<!-- Node20 -->
<g id="node20" class="node">
<title>Node20</title>
<g id="a_node20"><a xlink:href="../../d2/d7a/classjavolution_1_1text_1_1TextBuilder.html#ac6109dc1dfca2e6b48450ae94a8cf59e" target="_top" xlink:title=" ">
<polygon fill="white" stroke="black" points="1455,-92.04 1455,-111.04 1627,-111.04 1627,-92.04 1455,-92.04"/>
<text text-anchor="middle" x="1541" y="-99.04" font-family="Helvetica,sans-Serif" font-size="10.00">javolution.text.TextBuilder.clear</text>
</a>
</g>
</g>
<!-- Node17&#45;&gt;Node20 -->
<g id="edge23" class="edge">
<title>Node17&#45;&gt;Node20</title>
<path fill="none" stroke="midnightblue" d="M1335.54,-168.53C1363.85,-154.43 1408.44,-133.58 1449,-120.54 1457.37,-117.85 1466.3,-115.45 1475.18,-113.33"/>
<polygon fill="midnightblue" stroke="midnightblue" points="1476.17,-116.69 1485.14,-111.05 1474.61,-109.87 1476.17,-116.69"/>
</g>
<!-- Node21 -->
<g id="node21" class="node">
<title>Node21</title>
<g id="a_node21"><a xlink:href="../../dc/daa/classjavolution_1_1xml_1_1internal_1_1stream_1_1NamespacesImpl.html#af0e399ec7eca3a967c953ca0901565d3" target="_top" xlink:title=" ">
<polygon fill="white" stroke="black" points="1457,-168.54 1457,-198.54 1625,-198.54 1625,-168.54 1457,-168.54"/>
<text text-anchor="start" x="1465" y="-186.54" font-family="Helvetica,sans-Serif" font-size="10.00">javolution.xml.internal.stream.</text>
<text text-anchor="middle" x="1541" y="-175.54" font-family="Helvetica,sans-Serif" font-size="10.00">NamespacesImpl.setPrefix</text>
</a>
</g>
</g>
<!-- Node17&#45;&gt;Node21 -->
<g id="edge26" class="edge">
<title>Node17&#45;&gt;Node21</title>
<path fill="none" stroke="midnightblue" d="M1413,-183.54C1424.24,-183.54 1435.6,-183.54 1446.67,-183.54"/>
<polygon fill="midnightblue" stroke="midnightblue" points="1446.74,-187.05 1456.74,-183.54 1446.74,-180.05 1446.74,-187.05"/>
</g>
<!-- Node19 -->
<g id="node19" class="node">
<title>Node19</title>
<g id="a_node19"><a xlink:href="../../d2/d7a/classjavolution_1_1text_1_1TextBuilder.html#a6d79c3b6adfe6c04f80f940904d181b4" target="_top" xlink:title=" ">
<polygon fill="white" stroke="black" points="1685.5,-102.54 1685.5,-132.54 1874.5,-132.54 1874.5,-102.54 1685.5,-102.54"/>
<text text-anchor="start" x="1693.5" y="-120.54" font-family="Helvetica,sans-Serif" font-size="10.00">javolution.text.TextBuilder.increase</text>
<text text-anchor="middle" x="1780" y="-109.54" font-family="Helvetica,sans-Serif" font-size="10.00">Capacity</text>
</a>
</g>
</g>
<!-- Node18&#45;&gt;Node19 -->
<g id="edge22" class="edge">
<title>Node18&#45;&gt;Node19</title>
<path fill="none" stroke="midnightblue" d="M1633.29,-131.07C1647.04,-129.79 1661.3,-128.47 1675.28,-127.17"/>
<polygon fill="midnightblue" stroke="midnightblue" points="1675.77,-130.64 1685.4,-126.23 1675.12,-123.67 1675.77,-130.64"/>
</g>
<!-- Node21&#45;&gt;Node14 -->
<g id="edge27" class="edge">
<title>Node21&#45;&gt;Node14</title>
<path fill="none" stroke="midnightblue" d="M1625.03,-179.68C1707.09,-175.85 1832.5,-170 1918.61,-165.99"/>
<polygon fill="midnightblue" stroke="midnightblue" points="1918.82,-169.49 1928.65,-165.52 1918.5,-162.49 1918.82,-169.49"/>
</g>
<!-- Node22 -->
<g id="node22" class="node">
<title>Node22</title>
<g id="a_node22"><a xlink:href="../../dc/daa/classjavolution_1_1xml_1_1internal_1_1stream_1_1NamespacesImpl.html#ad1e699fb6fe13f5d6a355f8a8eff25e8" target="_top" xlink:title=" ">
<polygon fill="white" stroke="black" points="1686,-190.54 1686,-220.54 1874,-220.54 1874,-190.54 1686,-190.54"/>
<text text-anchor="start" x="1694" y="-208.54" font-family="Helvetica,sans-Serif" font-size="10.00">javolution.xml.internal.stream.</text>
<text text-anchor="middle" x="1780" y="-197.54" font-family="Helvetica,sans-Serif" font-size="10.00">NamespacesImpl.resizePrefixStack</text>
</a>
</g>
</g>
<!-- Node21&#45;&gt;Node22 -->
<g id="edge28" class="edge">
<title>Node21&#45;&gt;Node22</title>
<path fill="none" stroke="midnightblue" d="M1625.22,-191.27C1641.46,-192.78 1658.67,-194.38 1675.47,-195.93"/>
<polygon fill="midnightblue" stroke="midnightblue" points="1675.59,-199.46 1685.87,-196.9 1676.23,-192.49 1675.59,-199.46"/>
</g>
<!-- Node22&#45;&gt;Node14 -->
<g id="edge29" class="edge">
<title>Node22&#45;&gt;Node14</title>
<path fill="none" stroke="midnightblue" d="M1860.53,-190.53C1890.94,-184.78 1925.1,-178.33 1953.46,-172.98"/>
<polygon fill="midnightblue" stroke="midnightblue" points="1954.45,-176.35 1963.63,-171.06 1953.15,-169.47 1954.45,-176.35"/>
</g>
<!-- Node23&#45;&gt;Node6 -->
<g id="edge32" class="edge">
<title>Node23&#45;&gt;Node6</title>
<path fill="none" stroke="midnightblue" d="M1364.35,-412.55C1380.24,-417.02 1397.38,-422.17 1413,-427.54 1441.34,-437.3 1472.49,-450.03 1496.85,-460.45"/>
<polygon fill="midnightblue" stroke="midnightblue" points="1495.61,-463.72 1506.17,-464.46 1498.38,-457.29 1495.61,-463.72"/>
</g>
<!-- Node24&#45;&gt;Node6 -->
<g id="edge34" class="edge">
<title>Node24&#45;&gt;Node6</title>
<path fill="none" stroke="midnightblue" d="M1386.2,-508.53C1406.85,-504.64 1429.22,-500.42 1450.33,-496.44"/>
<polygon fill="midnightblue" stroke="midnightblue" points="1451.08,-499.86 1460.26,-494.57 1449.78,-492.98 1451.08,-499.86"/>
</g>
<!-- Node25&#45;&gt;Node18 -->
<g id="edge40" class="edge">
<title>Node25&#45;&gt;Node18</title>
<path fill="none" stroke="midnightblue" d="M1382.96,-108.61C1415.1,-114.94 1451.89,-122.19 1481.78,-128.08"/>
<polygon fill="midnightblue" stroke="midnightblue" points="1481.14,-131.52 1491.63,-130.02 1482.5,-124.65 1481.14,-131.52"/>
</g>
<!-- Node25&#45;&gt;Node20 -->
<g id="edge41" class="edge">
<title>Node25&#45;&gt;Node20</title>
<path fill="none" stroke="midnightblue" d="M1386.2,-96.28C1404.99,-96.92 1425.21,-97.61 1444.61,-98.28"/>
<polygon fill="midnightblue" stroke="midnightblue" points="1444.56,-101.78 1454.67,-98.62 1444.8,-94.78 1444.56,-101.78"/>
</g>
<!-- Node26 -->
<g id="node26" class="node">
<title>Node26</title>
<g id="a_node26"><a xlink:href="../../d4/d60/classjavolution_1_1util_1_1Index.html#a09a525f7665195aa138b5519ccd13447" target="_top" xlink:title=" ">
<polygon fill="white" stroke="black" points="1463.5,-54.04 1463.5,-73.04 1618.5,-73.04 1618.5,-54.04 1463.5,-54.04"/>
<text text-anchor="middle" x="1541" y="-61.04" font-family="Helvetica,sans-Serif" font-size="10.00">javolution.util.Index.valueOf</text>
</a>
</g>
</g>
<!-- Node25&#45;&gt;Node26 -->
<g id="edge42" class="edge">
<title>Node25&#45;&gt;Node26</title>
<path fill="none" stroke="midnightblue" d="M1386.2,-83.3C1408.65,-80.42 1433.12,-77.28 1455.82,-74.36"/>
<polygon fill="midnightblue" stroke="midnightblue" points="1456.29,-77.83 1465.76,-73.08 1455.4,-70.89 1456.29,-77.83"/>
</g>
</g>
</svg>
