<?xml version="1.0" encoding="UTF-8" standalone="no"?>
<!DOCTYPE svg PUBLIC "-//W3C//DTD SVG 1.1//EN"
 "http://www.w3.org/Graphics/SVG/1.1/DTD/svg11.dtd">
<!-- Generated by graphviz version 2.43.0 (0)
 -->
<!-- Title: javolution.util.internal.table.sorted.AtomicSortedTableImpl&lt; E &gt; Pages: 1 -->
<svg width="1322pt" height="182pt"
 viewBox="0.00 0.00 1322.00 181.65" xmlns="http://www.w3.org/2000/svg" xmlns:xlink="http://www.w3.org/1999/xlink">
<g id="graph0" class="graph" transform="scale(1 1) rotate(0) translate(4 177.65)">
<title>javolution.util.internal.table.sorted.AtomicSortedTableImpl&lt; E &gt;</title>
<polygon fill="white" stroke="transparent" points="-4,4 -4,-177.65 1318,-177.65 1318,4 -4,4"/>
<!-- Node1 -->
<g id="node1" class="node">
<title>Node1</title>
<g id="a_node1"><a xlink:title=" ">
<polygon fill="#bfbfbf" stroke="black" points="1125,-80.65 1125,-110.65 1314,-110.65 1314,-80.65 1125,-80.65"/>
<text text-anchor="start" x="1133" y="-98.65" font-family="Helvetica,sans-Serif" font-size="10.00">javolution.util.internal.table.sorted.</text>
<text text-anchor="middle" x="1219.5" y="-87.65" font-family="Helvetica,sans-Serif" font-size="10.00">AtomicSortedTableImpl&lt; E &gt;</text>
</a>
</g>
</g>
<!-- Node2 -->
<g id="node2" class="node">
<title>Node2</title>
<g id="a_node2"><a xlink:href="../../db/da7/classjavolution_1_1util_1_1internal_1_1table_1_1AtomicTableImpl.html" target="_top" xlink:title=" ">
<polygon fill="white" stroke="black" points="925,-105.65 925,-135.65 1089,-135.65 1089,-105.65 925,-105.65"/>
<text text-anchor="start" x="933" y="-123.65" font-family="Helvetica,sans-Serif" font-size="10.00">javolution::util::internal</text>
<text text-anchor="middle" x="1007" y="-112.65" font-family="Helvetica,sans-Serif" font-size="10.00">::table::AtomicTableImpl&lt; E &gt;</text>
</a>
</g>
</g>
<!-- Node2&#45;&gt;Node1 -->
<g id="edge1" class="edge">
<title>Node2&#45;&gt;Node1</title>
<path fill="none" stroke="midnightblue" d="M1099.04,-109.84C1107.58,-108.83 1116.25,-107.8 1124.82,-106.78"/>
<polygon fill="midnightblue" stroke="midnightblue" points="1098.6,-106.37 1089.08,-111.02 1099.43,-113.32 1098.6,-106.37"/>
</g>
<!-- Node3 -->
<g id="node3" class="node">
<title>Node3</title>
<g id="a_node3"><a xlink:href="../../d3/d15/classjavolution_1_1util_1_1internal_1_1collection_1_1AtomicCollectionImpl.html" target="_top" xlink:title=" ">
<polygon fill="white" stroke="black" points="680,-121.65 680,-151.65 889,-151.65 889,-121.65 680,-121.65"/>
<text text-anchor="start" x="688" y="-139.65" font-family="Helvetica,sans-Serif" font-size="10.00">javolution::util::internal</text>
<text text-anchor="middle" x="784.5" y="-128.65" font-family="Helvetica,sans-Serif" font-size="10.00">::collection::AtomicCollectionImpl&lt; E &gt;</text>
</a>
</g>
</g>
<!-- Node3&#45;&gt;Node2 -->
<g id="edge2" class="edge">
<title>Node3&#45;&gt;Node2</title>
<path fill="none" stroke="midnightblue" d="M899.39,-128.39C907.99,-127.76 916.56,-127.14 924.89,-126.54"/>
<polygon fill="midnightblue" stroke="midnightblue" points="899.01,-124.91 889.29,-129.12 899.52,-131.89 899.01,-124.91"/>
</g>
<!-- Node4 -->
<g id="node4" class="node">
<title>Node4</title>
<g id="a_node4"><a xlink:href="../../d1/d40/classjavolution_1_1util_1_1internal_1_1collection_1_1CollectionView.html" target="_top" xlink:title=" ">
<polygon fill="white" stroke="black" points="467,-138.65 467,-168.65 644,-168.65 644,-138.65 467,-138.65"/>
<text text-anchor="start" x="475" y="-156.65" font-family="Helvetica,sans-Serif" font-size="10.00">javolution::util::internal</text>
<text text-anchor="middle" x="555.5" y="-145.65" font-family="Helvetica,sans-Serif" font-size="10.00">::collection::CollectionView&lt; E &gt;</text>
</a>
</g>
</g>
<!-- Node4&#45;&gt;Node3 -->
<g id="edge3" class="edge">
<title>Node4&#45;&gt;Node3</title>
<path fill="none" stroke="midnightblue" d="M654.41,-146.32C662.78,-145.69 671.27,-145.06 679.69,-144.43"/>
<polygon fill="midnightblue" stroke="midnightblue" points="653.97,-142.84 644.26,-147.08 654.5,-149.82 653.97,-142.84"/>
</g>
<!-- Node5 -->
<g id="node5" class="node">
<title>Node5</title>
<g id="a_node5"><a xlink:href="../../dc/d19/classjavolution_1_1util_1_1FastCollection.html" target="_top" xlink:title=" ">
<polygon fill="white" stroke="black" points="241,-144.15 241,-163.15 431,-163.15 431,-144.15 241,-144.15"/>
<text text-anchor="middle" x="336" y="-151.15" font-family="Helvetica,sans-Serif" font-size="10.00">javolution::util::FastCollection&lt; E &gt;</text>
</a>
</g>
</g>
<!-- Node5&#45;&gt;Node4 -->
<g id="edge4" class="edge">
<title>Node5&#45;&gt;Node4</title>
<path fill="none" stroke="midnightblue" d="M441.15,-153.65C449.72,-153.65 458.32,-153.65 466.74,-153.65"/>
<polygon fill="midnightblue" stroke="midnightblue" points="441.13,-150.15 431.13,-153.65 441.13,-157.15 441.13,-150.15"/>
</g>
<!-- Node6 -->
<g id="node6" class="node">
<title>Node6</title>
<g id="a_node6"><a xlink:title=" ">
<polygon fill="white" stroke="#bfbfbf" points="31,-154.15 31,-173.15 174,-173.15 174,-154.15 31,-154.15"/>
<text text-anchor="middle" x="102.5" y="-161.15" font-family="Helvetica,sans-Serif" font-size="10.00">java::util::Collection&lt; E &gt;</text>
</a>
</g>
</g>
<!-- Node6&#45;&gt;Node5 -->
<g id="edge5" class="edge">
<title>Node6&#45;&gt;Node5</title>
<path fill="none" stroke="midnightblue" d="M184.22,-160.17C202.5,-159.38 222.06,-158.53 240.83,-157.72"/>
<polygon fill="midnightblue" stroke="midnightblue" points="184.06,-156.67 174.22,-160.6 184.36,-163.66 184.06,-156.67"/>
</g>
<!-- Node8 -->
<g id="node8" class="node">
<title>Node8</title>
<g id="a_node8"><a xlink:href="../../dd/d6c/interfacejavolution_1_1util_1_1service_1_1CollectionService.html" target="_top" xlink:title=" ">
<polygon fill="white" stroke="black" points="268,-85.65 268,-115.65 404,-115.65 404,-85.65 268,-85.65"/>
<text text-anchor="start" x="276" y="-103.65" font-family="Helvetica,sans-Serif" font-size="10.00">javolution::util::service</text>
<text text-anchor="middle" x="336" y="-92.65" font-family="Helvetica,sans-Serif" font-size="10.00">::CollectionService&lt; E &gt;</text>
</a>
</g>
</g>
<!-- Node6&#45;&gt;Node8 -->
<g id="edge8" class="edge">
<title>Node6&#45;&gt;Node8</title>
<path fill="none" stroke="midnightblue" d="M172.11,-152.18C183.17,-149.93 194.44,-147.41 205,-144.65 235.77,-136.61 269.81,-124.99 295.33,-115.71"/>
<polygon fill="midnightblue" stroke="midnightblue" points="171.19,-148.79 162.05,-154.15 172.54,-155.66 171.19,-148.79"/>
</g>
<!-- Node7 -->
<g id="node7" class="node">
<title>Node7</title>
<g id="a_node7"><a xlink:title=" ">
<polygon fill="white" stroke="#bfbfbf" points="65.5,-116.15 65.5,-135.15 139.5,-135.15 139.5,-116.15 65.5,-116.15"/>
<text text-anchor="middle" x="102.5" y="-123.15" font-family="Helvetica,sans-Serif" font-size="10.00">Serializable</text>
</a>
</g>
</g>
<!-- Node7&#45;&gt;Node5 -->
<g id="edge6" class="edge">
<title>Node7&#45;&gt;Node5</title>
<path fill="none" stroke="midnightblue" d="M149.96,-131.27C180.29,-134.94 220.68,-139.83 255.98,-144.1"/>
<polygon fill="midnightblue" stroke="midnightblue" points="150.02,-127.75 139.67,-130.03 149.18,-134.7 150.02,-127.75"/>
</g>
<!-- Node7&#45;&gt;Node8 -->
<g id="edge10" class="edge">
<title>Node7&#45;&gt;Node8</title>
<path fill="none" stroke="midnightblue" d="M149.74,-120.66C183.57,-117.01 229.98,-111.99 267.89,-107.9"/>
<polygon fill="midnightblue" stroke="midnightblue" points="149.24,-117.19 139.67,-121.75 149.99,-124.15 149.24,-117.19"/>
</g>
<!-- Node8&#45;&gt;Node4 -->
<g id="edge7" class="edge">
<title>Node8&#45;&gt;Node4</title>
<path fill="none" stroke="midnightblue" d="M408.58,-118.09C435.73,-124.71 466.41,-132.19 492.6,-138.57"/>
<polygon fill="midnightblue" stroke="midnightblue" points="409.29,-114.67 398.74,-115.7 407.63,-121.47 409.29,-114.67"/>
</g>
<!-- Node11 -->
<g id="node11" class="node">
<title>Node11</title>
<g id="a_node11"><a xlink:href="../../df/d88/interfacejavolution_1_1util_1_1service_1_1TableService.html" target="_top" xlink:title=" ">
<polygon fill="white" stroke="black" points="720.5,-56.65 720.5,-86.65 848.5,-86.65 848.5,-56.65 720.5,-56.65"/>
<text text-anchor="start" x="728.5" y="-74.65" font-family="Helvetica,sans-Serif" font-size="10.00">javolution::util::service</text>
<text text-anchor="middle" x="784.5" y="-63.65" font-family="Helvetica,sans-Serif" font-size="10.00">::TableService&lt; E &gt;</text>
</a>
</g>
</g>
<!-- Node8&#45;&gt;Node11 -->
<g id="edge13" class="edge">
<title>Node8&#45;&gt;Node11</title>
<path fill="none" stroke="midnightblue" d="M360.68,-78.67C385.16,-57.57 425.56,-27.12 467,-14.65 542.33,8.01 566.81,0.51 644,-14.65 684.69,-22.65 728.47,-42.59 755.92,-56.62"/>
<polygon fill="midnightblue" stroke="midnightblue" points="358.2,-76.19 353,-85.43 362.82,-81.45 358.2,-76.19"/>
</g>
<!-- Node9 -->
<g id="node9" class="node">
<title>Node9</title>
<g id="a_node9"><a xlink:href="../../dd/ded/interfacejavolution_1_1util_1_1function_1_1Splittable.html" target="_top" xlink:title=" ">
<polygon fill="white" stroke="black" points="0,-66.65 0,-96.65 205,-96.65 205,-66.65 0,-66.65"/>
<text text-anchor="start" x="8" y="-84.65" font-family="Helvetica,sans-Serif" font-size="10.00">javolution::util::function</text>
<text text-anchor="middle" x="102.5" y="-73.65" font-family="Helvetica,sans-Serif" font-size="10.00">::Splittable&lt; CollectionService&lt; E &gt; &gt;</text>
</a>
</g>
</g>
<!-- Node9&#45;&gt;Node8 -->
<g id="edge9" class="edge">
<title>Node9&#45;&gt;Node8</title>
<path fill="none" stroke="midnightblue" d="M215.04,-90.81C233.09,-92.29 251.28,-93.78 267.84,-95.14"/>
<polygon fill="midnightblue" stroke="midnightblue" points="215.29,-87.32 205.04,-89.99 214.72,-94.29 215.29,-87.32"/>
</g>
<!-- Node10 -->
<g id="node10" class="node">
<title>Node10</title>
<g id="a_node10"><a xlink:href="../../d5/d48/classCloneable.html" target="_top" xlink:title=" ">
<polygon fill="white" stroke="black" points="70,-28.15 70,-47.15 135,-47.15 135,-28.15 70,-28.15"/>
<text text-anchor="middle" x="102.5" y="-35.15" font-family="Helvetica,sans-Serif" font-size="10.00">Cloneable</text>
</a>
</g>
</g>
<!-- Node10&#45;&gt;Node8 -->
<g id="edge11" class="edge">
<title>Node10&#45;&gt;Node8</title>
<path fill="none" stroke="midnightblue" d="M145.17,-44.09C163.63,-47.29 185.54,-51.56 205,-56.65 235.77,-64.7 269.81,-76.32 295.33,-85.6"/>
<polygon fill="midnightblue" stroke="midnightblue" points="145.74,-40.63 135.3,-42.42 144.58,-47.54 145.74,-40.63"/>
</g>
<!-- Node11&#45;&gt;Node2 -->
<g id="edge12" class="edge">
<title>Node11&#45;&gt;Node2</title>
<path fill="none" stroke="midnightblue" d="M858.72,-87.92C884.35,-93.62 913.01,-99.99 938.18,-105.58"/>
<polygon fill="midnightblue" stroke="midnightblue" points="859.21,-84.45 848.69,-85.69 857.69,-91.28 859.21,-84.45"/>
</g>
<!-- Node15 -->
<g id="node15" class="node">
<title>Node15</title>
<g id="a_node15"><a xlink:href="../../d4/dcb/interfacejavolution_1_1util_1_1service_1_1SortedTableService.html" target="_top" xlink:title=" ">
<polygon fill="white" stroke="black" points="935,-56.65 935,-86.65 1079,-86.65 1079,-56.65 935,-56.65"/>
<text text-anchor="start" x="943" y="-74.65" font-family="Helvetica,sans-Serif" font-size="10.00">javolution::util::service</text>
<text text-anchor="middle" x="1007" y="-63.65" font-family="Helvetica,sans-Serif" font-size="10.00">::SortedTableService&lt; E &gt;</text>
</a>
</g>
</g>
<!-- Node11&#45;&gt;Node15 -->
<g id="edge18" class="edge">
<title>Node11&#45;&gt;Node15</title>
<path fill="none" stroke="midnightblue" d="M858.95,-71.65C883.34,-71.65 910.44,-71.65 934.66,-71.65"/>
<polygon fill="midnightblue" stroke="midnightblue" points="858.69,-68.15 848.69,-71.65 858.69,-75.15 858.69,-68.15"/>
</g>
<!-- Node12 -->
<g id="node12" class="node">
<title>Node12</title>
<g id="a_node12"><a xlink:title=" ">
<polygon fill="white" stroke="#bfbfbf" points="500,-100.15 500,-119.15 611,-119.15 611,-100.15 500,-100.15"/>
<text text-anchor="middle" x="555.5" y="-107.15" font-family="Helvetica,sans-Serif" font-size="10.00">java::util::List&lt; E &gt;</text>
</a>
</g>
</g>
<!-- Node12&#45;&gt;Node11 -->
<g id="edge14" class="edge">
<title>Node12&#45;&gt;Node11</title>
<path fill="none" stroke="midnightblue" d="M621.05,-98.85C652.23,-93.63 689.5,-87.39 720.48,-82.2"/>
<polygon fill="midnightblue" stroke="midnightblue" points="620.45,-95.4 611.16,-100.5 621.6,-102.3 620.45,-95.4"/>
</g>
<!-- Node13 -->
<g id="node13" class="node">
<title>Node13</title>
<g id="a_node13"><a xlink:title=" ">
<polygon fill="white" stroke="#bfbfbf" points="493,-62.15 493,-81.15 618,-81.15 618,-62.15 493,-62.15"/>
<text text-anchor="middle" x="555.5" y="-69.15" font-family="Helvetica,sans-Serif" font-size="10.00">java::util::Deque&lt; E &gt;</text>
</a>
</g>
</g>
<!-- Node13&#45;&gt;Node11 -->
<g id="edge15" class="edge">
<title>Node13&#45;&gt;Node11</title>
<path fill="none" stroke="midnightblue" d="M628.45,-71.65C657.91,-71.65 691.7,-71.65 720.2,-71.65"/>
<polygon fill="midnightblue" stroke="midnightblue" points="628.23,-68.15 618.23,-71.65 628.23,-75.15 628.23,-68.15"/>
</g>
<!-- Node14 -->
<g id="node14" class="node">
<title>Node14</title>
<g id="a_node14"><a xlink:title=" ">
<polygon fill="white" stroke="#bfbfbf" points="510,-24.15 510,-43.15 601,-43.15 601,-24.15 510,-24.15"/>
<text text-anchor="middle" x="555.5" y="-31.15" font-family="Helvetica,sans-Serif" font-size="10.00">RandomAccess</text>
</a>
</g>
</g>
<!-- Node14&#45;&gt;Node11 -->
<g id="edge16" class="edge">
<title>Node14&#45;&gt;Node11</title>
<path fill="none" stroke="midnightblue" d="M610.96,-42.77C643.8,-48.27 685.79,-55.3 720.12,-61.04"/>
<polygon fill="midnightblue" stroke="midnightblue" points="611.52,-39.31 601.08,-41.12 610.36,-46.22 611.52,-39.31"/>
</g>
<!-- Node15&#45;&gt;Node1 -->
<g id="edge17" class="edge">
<title>Node15&#45;&gt;Node1</title>
<path fill="none" stroke="midnightblue" d="M1089.37,-80.93C1101.01,-82.26 1113.07,-83.63 1124.92,-84.98"/>
<polygon fill="midnightblue" stroke="midnightblue" points="1089.6,-77.43 1079.27,-79.78 1088.8,-84.39 1089.6,-77.43"/>
</g>
</g>
</svg>
