<?xml version="1.0" encoding="UTF-8" standalone="no"?>
<!DOCTYPE svg PUBLIC "-//W3C//DTD SVG 1.1//EN"
 "http://www.w3.org/Graphics/SVG/1.1/DTD/svg11.dtd">
<!-- Generated by graphviz version 2.43.0 (0)
 -->
<!-- Title: javolution.util.internal.collection.UnmodifiableCollectionImpl&lt; E &gt;.IteratorImpl Pages: 1 -->
<svg width="242pt" height="117pt"
 viewBox="0.00 0.00 242.00 117.00" xmlns="http://www.w3.org/2000/svg" xmlns:xlink="http://www.w3.org/1999/xlink">
<g id="graph0" class="graph" transform="scale(1 1) rotate(0) translate(4 113)">
<title>javolution.util.internal.collection.UnmodifiableCollectionImpl&lt; E &gt;.IteratorImpl</title>
<polygon fill="white" stroke="transparent" points="-4,4 -4,-113 238,-113 238,4 -4,4"/>
<!-- Node1 -->
<g id="node1" class="node">
<title>Node1</title>
<g id="a_node1"><a xlink:title=" ">
<polygon fill="#bfbfbf" stroke="black" points="38,-0.5 38,-41.5 216,-41.5 216,-0.5 38,-0.5"/>
<text text-anchor="start" x="46" y="-29.5" font-family="Helvetica,sans-Serif" font-size="10.00">javolution.util.internal.collection.</text>
<text text-anchor="start" x="46" y="-18.5" font-family="Helvetica,sans-Serif" font-size="10.00">UnmodifiableCollectionImpl&lt;</text>
<text text-anchor="middle" x="127" y="-7.5" font-family="Helvetica,sans-Serif" font-size="10.00"> E &gt;.IteratorImpl</text>
</a>
</g>
</g>
<!-- Node2 -->
<g id="node2" class="node">
<title>Node2</title>
<g id="a_node2"><a xlink:title=" ">
<polygon fill="white" stroke="#bfbfbf" points="0,-89.5 0,-108.5 130,-108.5 130,-89.5 0,-89.5"/>
<text text-anchor="middle" x="65" y="-96.5" font-family="Helvetica,sans-Serif" font-size="10.00">java::util::Iterator&lt; E &gt;</text>
</a>
</g>
</g>
<!-- Node2&#45;&gt;Node1 -->
<g id="edge1" class="edge">
<title>Node2&#45;&gt;Node1</title>
<path fill="none" stroke="midnightblue" d="M78.67,-81.24C88.2,-69.56 100.95,-53.93 110.96,-41.66"/>
<polygon fill="midnightblue" stroke="midnightblue" points="75.72,-79.32 72.11,-89.28 81.15,-83.75 75.72,-79.32"/>
</g>
<!-- Node3 -->
<g id="node3" class="node">
<title>Node3</title>
<g id="a_node3"><a xlink:title=" ">
<polygon fill="white" stroke="#bfbfbf" points="148.5,-89.5 148.5,-108.5 229.5,-108.5 229.5,-89.5 148.5,-89.5"/>
<text text-anchor="middle" x="189" y="-96.5" font-family="Helvetica,sans-Serif" font-size="10.00">Iterator&lt; E &gt;</text>
</a>
</g>
</g>
<!-- Node3&#45;&gt;Node1 -->
<g id="edge2" class="edge">
<title>Node3&#45;&gt;Node1</title>
<path fill="none" stroke="#9a32cd" stroke-dasharray="5,2" d="M175.33,-81.24C165.8,-69.56 153.05,-53.93 143.04,-41.66"/>
<polygon fill="#9a32cd" stroke="#9a32cd" points="172.85,-83.75 181.89,-89.28 178.28,-79.32 172.85,-83.75"/>
<text text-anchor="middle" x="199.5" y="-63" font-family="Helvetica,sans-Serif" font-size="10.00"> targetIterator</text>
</g>
</g>
</svg>
