<?xml version="1.0" encoding="UTF-8" standalone="no"?>
<!DOCTYPE svg PUBLIC "-//W3C//DTD SVG 1.1//EN"
 "http://www.w3.org/Graphics/SVG/1.1/DTD/svg11.dtd">
<!-- Generated by graphviz version 2.43.0 (0)
 -->
<!-- Title: javolution.text.TextContext.getFormat Pages: 1 -->
<svg width="594pt" height="112pt"
 viewBox="0.00 0.00 594.00 112.00" xmlns="http://www.w3.org/2000/svg" xmlns:xlink="http://www.w3.org/1999/xlink">
<g id="graph0" class="graph" transform="scale(1 1) rotate(0) translate(4 108)">
<title>javolution.text.TextContext.getFormat</title>
<polygon fill="white" stroke="transparent" points="-4,4 -4,-108 590,-108 590,4 -4,4"/>
<!-- Node1 -->
<g id="node1" class="node">
<title>Node1</title>
<g id="a_node1"><a xlink:title=" ">
<polygon fill="#bfbfbf" stroke="black" points="0,-24.5 0,-54.5 168,-54.5 168,-24.5 0,-24.5"/>
<text text-anchor="start" x="8" y="-42.5" font-family="Helvetica,sans-Serif" font-size="10.00">javolution.text.TextContext.get</text>
<text text-anchor="middle" x="84" y="-31.5" font-family="Helvetica,sans-Serif" font-size="10.00">Format</text>
</a>
</g>
</g>
<!-- Node2 -->
<g id="node2" class="node">
<title>Node2</title>
<g id="a_node2"><a xlink:href="../../de/d60/classjavolution_1_1text_1_1TextContext.html#aca9706d5c011b67755b1e162a5858d61" target="_top" xlink:title=" ">
<polygon fill="white" stroke="black" points="204,-49.5 204,-79.5 391,-79.5 391,-49.5 204,-49.5"/>
<text text-anchor="start" x="212" y="-67.5" font-family="Helvetica,sans-Serif" font-size="10.00">javolution.text.TextContext.current</text>
<text text-anchor="middle" x="297.5" y="-56.5" font-family="Helvetica,sans-Serif" font-size="10.00">TextContext</text>
</a>
</g>
</g>
<!-- Node1&#45;&gt;Node2 -->
<g id="edge1" class="edge">
<title>Node1&#45;&gt;Node2</title>
<path fill="none" stroke="midnightblue" d="M168.29,-49.34C176.68,-50.34 185.27,-51.35 193.83,-52.36"/>
<polygon fill="midnightblue" stroke="midnightblue" points="193.51,-55.85 203.86,-53.55 194.34,-48.9 193.51,-55.85"/>
</g>
<!-- Node5 -->
<g id="node5" class="node">
<title>Node5</title>
<g id="a_node5"><a xlink:href="../../de/d60/classjavolution_1_1text_1_1TextContext.html#aa42396fe47eb1c99f793a6c5339c5fe6" target="_top" xlink:title=" ">
<polygon fill="white" stroke="black" points="205,-0.5 205,-30.5 390,-30.5 390,-0.5 205,-0.5"/>
<text text-anchor="start" x="213" y="-18.5" font-family="Helvetica,sans-Serif" font-size="10.00">javolution.text.TextContext.search</text>
<text text-anchor="middle" x="297.5" y="-7.5" font-family="Helvetica,sans-Serif" font-size="10.00">Format</text>
</a>
</g>
</g>
<!-- Node1&#45;&gt;Node5 -->
<g id="edge4" class="edge">
<title>Node1&#45;&gt;Node5</title>
<path fill="none" stroke="midnightblue" d="M168.29,-30.05C177.02,-29.06 185.97,-28.04 194.88,-27.03"/>
<polygon fill="midnightblue" stroke="midnightblue" points="195.37,-30.5 204.91,-25.89 194.58,-23.54 195.37,-30.5"/>
</g>
<!-- Node3 -->
<g id="node3" class="node">
<title>Node3</title>
<g id="a_node3"><a xlink:href="../../d3/d0f/classjavolution_1_1context_1_1AbstractContext.html#a39804b0188cf822819d88f43715deaba" target="_top" xlink:title=" ">
<polygon fill="white" stroke="black" points="432,-73.5 432,-103.5 581,-103.5 581,-73.5 432,-73.5"/>
<text text-anchor="start" x="440" y="-91.5" font-family="Helvetica,sans-Serif" font-size="10.00">javolution.context.Abstract</text>
<text text-anchor="middle" x="506.5" y="-80.5" font-family="Helvetica,sans-Serif" font-size="10.00">Context.current</text>
</a>
</g>
</g>
<!-- Node2&#45;&gt;Node3 -->
<g id="edge2" class="edge">
<title>Node2&#45;&gt;Node3</title>
<path fill="none" stroke="midnightblue" d="M391.1,-75.24C401.36,-76.43 411.75,-77.63 421.89,-78.81"/>
<polygon fill="midnightblue" stroke="midnightblue" points="421.58,-82.29 431.92,-79.97 422.39,-75.34 421.58,-82.29"/>
</g>
<!-- Node4 -->
<g id="node4" class="node">
<title>Node4</title>
<g id="a_node4"><a xlink:href="../../d8/d20/classjavolution_1_1osgi_1_1internal_1_1OSGiServices.html#a31df875a20f78682380317e651cdaf47" target="_top" xlink:title=" ">
<polygon fill="white" stroke="black" points="427,-24.5 427,-54.5 586,-54.5 586,-24.5 427,-24.5"/>
<text text-anchor="start" x="435" y="-42.5" font-family="Helvetica,sans-Serif" font-size="10.00">javolution.osgi.internal.</text>
<text text-anchor="middle" x="506.5" y="-31.5" font-family="Helvetica,sans-Serif" font-size="10.00">OSGiServices.getTextContext</text>
</a>
</g>
</g>
<!-- Node2&#45;&gt;Node4 -->
<g id="edge3" class="edge">
<title>Node2&#45;&gt;Node4</title>
<path fill="none" stroke="midnightblue" d="M391.1,-53.32C399.69,-52.28 408.38,-51.23 416.93,-50.2"/>
<polygon fill="midnightblue" stroke="midnightblue" points="417.38,-53.67 426.89,-48.99 416.54,-46.72 417.38,-53.67"/>
</g>
</g>
</svg>
