<?xml version="1.0" encoding="UTF-8" standalone="no"?>
<!DOCTYPE svg PUBLIC "-//W3C//DTD SVG 1.1//EN"
 "http://www.w3.org/Graphics/SVG/1.1/DTD/svg11.dtd">
<!-- Generated by graphviz version 2.43.0 (0)
 -->
<!-- Title: javolution.util.internal.collection.CollectionView.iterator Pages: 1 -->
<svg width="400pt" height="480pt"
 viewBox="0.00 0.00 400.00 480.00" xmlns="http://www.w3.org/2000/svg" xmlns:xlink="http://www.w3.org/1999/xlink">
<g id="graph0" class="graph" transform="scale(1 1) rotate(0) translate(4 476)">
<title>javolution.util.internal.collection.CollectionView.iterator</title>
<polygon fill="white" stroke="transparent" points="-4,4 -4,-476 396,-476 396,4 -4,4"/>
<!-- Node1 -->
<g id="node1" class="node">
<title>Node1</title>
<g id="a_node1"><a xlink:title=" ">
<polygon fill="#bfbfbf" stroke="black" points="214,-220.5 214,-250.5 392,-250.5 392,-220.5 214,-220.5"/>
<text text-anchor="start" x="222" y="-238.5" font-family="Helvetica,sans-Serif" font-size="10.00">javolution.util.internal.collection.</text>
<text text-anchor="middle" x="303" y="-227.5" font-family="Helvetica,sans-Serif" font-size="10.00">CollectionView.iterator</text>
</a>
</g>
</g>
<!-- Node2 -->
<g id="node2" class="node">
<title>Node2</title>
<g id="a_node2"><a xlink:href="../../d1/d40/classjavolution_1_1util_1_1internal_1_1collection_1_1CollectionView.html#aa8691168b36471df596df7632eb93937" target="_top" xlink:title=" ">
<polygon fill="white" stroke="black" points="0,-441.5 0,-471.5 178,-471.5 178,-441.5 0,-441.5"/>
<text text-anchor="start" x="8" y="-459.5" font-family="Helvetica,sans-Serif" font-size="10.00">javolution.util.internal.collection.</text>
<text text-anchor="middle" x="89" y="-448.5" font-family="Helvetica,sans-Serif" font-size="10.00">CollectionView&lt; R &gt;::clear</text>
</a>
</g>
</g>
<!-- Node1&#45;&gt;Node2 -->
<g id="edge1" class="edge">
<title>Node1&#45;&gt;Node2</title>
<path fill="none" stroke="midnightblue" d="M293.44,-259.93C277.49,-301.81 239.2,-387.16 178,-432.5 173.42,-435.89 168.39,-438.81 163.12,-441.31"/>
<polygon fill="midnightblue" stroke="midnightblue" points="296.74,-261.1 296.93,-250.51 290.18,-258.67 296.74,-261.1"/>
</g>
<!-- Node3 -->
<g id="node3" class="node">
<title>Node3</title>
<g id="a_node3"><a xlink:href="../../d1/d40/classjavolution_1_1util_1_1internal_1_1collection_1_1CollectionView.html#a9fb981efa45e70a646212f1d70fca24c" target="_top" xlink:title=" ">
<polygon fill="white" stroke="black" points="0,-392.5 0,-422.5 178,-422.5 178,-392.5 0,-392.5"/>
<text text-anchor="start" x="8" y="-410.5" font-family="Helvetica,sans-Serif" font-size="10.00">javolution.util.internal.collection.</text>
<text text-anchor="middle" x="89" y="-399.5" font-family="Helvetica,sans-Serif" font-size="10.00">CollectionView&lt; R &gt;::contains</text>
</a>
</g>
</g>
<!-- Node1&#45;&gt;Node3 -->
<g id="edge2" class="edge">
<title>Node1&#45;&gt;Node3</title>
<path fill="none" stroke="midnightblue" d="M288.3,-259.67C268.33,-292.68 228.09,-351.4 178,-383.5 172.67,-386.92 166.85,-389.85 160.84,-392.37"/>
<polygon fill="midnightblue" stroke="midnightblue" points="291.53,-261.09 293.61,-250.7 285.5,-257.52 291.53,-261.09"/>
</g>
<!-- Node4 -->
<g id="node4" class="node">
<title>Node4</title>
<g id="a_node4"><a xlink:href="../../d1/d40/classjavolution_1_1util_1_1internal_1_1collection_1_1CollectionView.html#a7798278bf1a4e2644439b5a7dcbdf94a" target="_top" xlink:title=" ">
<polygon fill="white" stroke="black" points="0,-343.5 0,-373.5 178,-373.5 178,-343.5 0,-343.5"/>
<text text-anchor="start" x="8" y="-361.5" font-family="Helvetica,sans-Serif" font-size="10.00">javolution.util.internal.collection.</text>
<text text-anchor="middle" x="89" y="-350.5" font-family="Helvetica,sans-Serif" font-size="10.00">CollectionView&lt; R &gt;::equals</text>
</a>
</g>
</g>
<!-- Node1&#45;&gt;Node4 -->
<g id="edge3" class="edge">
<title>Node1&#45;&gt;Node4</title>
<path fill="none" stroke="midnightblue" d="M280.09,-257.68C256.74,-280.13 217.72,-314.32 178,-334.5 171.36,-337.87 164.2,-340.81 156.92,-343.37"/>
<polygon fill="midnightblue" stroke="midnightblue" points="282.68,-260.05 287.39,-250.56 277.79,-255.04 282.68,-260.05"/>
</g>
<!-- Node5 -->
<g id="node5" class="node">
<title>Node5</title>
<g id="a_node5"><a xlink:href="../../d1/d40/classjavolution_1_1util_1_1internal_1_1collection_1_1CollectionView.html#ae697b546e4bd64be0cd65e473b087907" target="_top" xlink:title=" ">
<polygon fill="white" stroke="black" points="0,-294.5 0,-324.5 178,-324.5 178,-294.5 0,-294.5"/>
<text text-anchor="start" x="8" y="-312.5" font-family="Helvetica,sans-Serif" font-size="10.00">javolution.util.internal.collection.</text>
<text text-anchor="middle" x="89" y="-301.5" font-family="Helvetica,sans-Serif" font-size="10.00">CollectionView&lt; R &gt;::hashCode</text>
</a>
</g>
</g>
<!-- Node1&#45;&gt;Node5 -->
<g id="edge4" class="edge">
<title>Node1&#45;&gt;Node5</title>
<path fill="none" stroke="midnightblue" d="M258.31,-254.58C234.76,-264.48 205.07,-276.39 178,-285.5 168.7,-288.63 158.74,-291.66 148.98,-294.44"/>
<polygon fill="midnightblue" stroke="midnightblue" points="259.82,-257.73 267.66,-250.61 257.09,-251.29 259.82,-257.73"/>
</g>
<!-- Node6 -->
<g id="node6" class="node">
<title>Node6</title>
<g id="a_node6"><a xlink:href="../../d1/d40/classjavolution_1_1util_1_1internal_1_1collection_1_1CollectionView.html#a3f48bc4ceeb88fb2d39b2a3f3eb84726" target="_top" xlink:title=" ">
<polygon fill="white" stroke="black" points="0,-245.5 0,-275.5 178,-275.5 178,-245.5 0,-245.5"/>
<text text-anchor="start" x="8" y="-263.5" font-family="Helvetica,sans-Serif" font-size="10.00">javolution.util.internal.collection.</text>
<text text-anchor="middle" x="89" y="-252.5" font-family="Helvetica,sans-Serif" font-size="10.00">CollectionView&lt; R &gt;::isEmpty</text>
</a>
</g>
</g>
<!-- Node1&#45;&gt;Node6 -->
<g id="edge5" class="edge">
<title>Node1&#45;&gt;Node6</title>
<path fill="none" stroke="midnightblue" d="M203.89,-247.07C195.3,-248.08 186.64,-249.1 178.13,-250.11"/>
<polygon fill="midnightblue" stroke="midnightblue" points="204.41,-250.53 213.93,-245.89 203.59,-243.58 204.41,-250.53"/>
</g>
<!-- Node7 -->
<g id="node7" class="node">
<title>Node7</title>
<g id="a_node7"><a xlink:href="../../d1/d40/classjavolution_1_1util_1_1internal_1_1collection_1_1CollectionView.html#a33cd8473b3014ececccbc57684e904b4" target="_top" xlink:title=" ">
<polygon fill="white" stroke="black" points="0,-196.5 0,-226.5 178,-226.5 178,-196.5 0,-196.5"/>
<text text-anchor="start" x="8" y="-214.5" font-family="Helvetica,sans-Serif" font-size="10.00">javolution.util.internal.collection.</text>
<text text-anchor="middle" x="89" y="-203.5" font-family="Helvetica,sans-Serif" font-size="10.00">CollectionView&lt; R &gt;::remove</text>
</a>
</g>
</g>
<!-- Node1&#45;&gt;Node7 -->
<g id="edge6" class="edge">
<title>Node1&#45;&gt;Node7</title>
<path fill="none" stroke="midnightblue" d="M203.89,-224.39C195.3,-223.42 186.64,-222.44 178.13,-221.48"/>
<polygon fill="midnightblue" stroke="midnightblue" points="203.6,-227.88 213.93,-225.53 204.39,-220.93 203.6,-227.88"/>
</g>
<!-- Node8 -->
<g id="node8" class="node">
<title>Node8</title>
<g id="a_node8"><a xlink:href="../../d1/d40/classjavolution_1_1util_1_1internal_1_1collection_1_1CollectionView.html#a2a2dea9aa81c77d6cfce64b322ae7a91" target="_top" xlink:title=" ">
<polygon fill="white" stroke="black" points="0,-147.5 0,-177.5 178,-177.5 178,-147.5 0,-147.5"/>
<text text-anchor="start" x="8" y="-165.5" font-family="Helvetica,sans-Serif" font-size="10.00">javolution.util.internal.collection.</text>
<text text-anchor="middle" x="89" y="-154.5" font-family="Helvetica,sans-Serif" font-size="10.00">CollectionView&lt; R &gt;::removeAll</text>
</a>
</g>
</g>
<!-- Node1&#45;&gt;Node8 -->
<g id="edge7" class="edge">
<title>Node1&#45;&gt;Node8</title>
<path fill="none" stroke="midnightblue" d="M256.42,-216.69C233.14,-207.39 204.26,-196.29 178,-187.5 167.76,-184.07 156.75,-180.7 146.1,-177.6"/>
<polygon fill="midnightblue" stroke="midnightblue" points="255.12,-219.94 265.7,-220.43 257.73,-213.45 255.12,-219.94"/>
</g>
<!-- Node9 -->
<g id="node9" class="node">
<title>Node9</title>
<g id="a_node9"><a xlink:href="../../d1/d40/classjavolution_1_1util_1_1internal_1_1collection_1_1CollectionView.html#a8a141c0d47f30ed4a7727f0c1ba00079" target="_top" xlink:title=" ">
<polygon fill="white" stroke="black" points="0,-98.5 0,-128.5 178,-128.5 178,-98.5 0,-98.5"/>
<text text-anchor="start" x="8" y="-116.5" font-family="Helvetica,sans-Serif" font-size="10.00">javolution.util.internal.collection.</text>
<text text-anchor="middle" x="89" y="-105.5" font-family="Helvetica,sans-Serif" font-size="10.00">CollectionView&lt; R &gt;::retainAll</text>
</a>
</g>
</g>
<!-- Node1&#45;&gt;Node9 -->
<g id="edge8" class="edge">
<title>Node1&#45;&gt;Node9</title>
<path fill="none" stroke="midnightblue" d="M279.57,-213.51C256.07,-191.59 217.18,-158.42 178,-138.5 170.5,-134.69 162.33,-131.38 154.09,-128.53"/>
<polygon fill="midnightblue" stroke="midnightblue" points="277.26,-216.14 286.93,-220.47 282.07,-211.05 277.26,-216.14"/>
</g>
<!-- Node10 -->
<g id="node10" class="node">
<title>Node10</title>
<g id="a_node10"><a xlink:href="../../d1/d40/classjavolution_1_1util_1_1internal_1_1collection_1_1CollectionView.html#a91f2e060b8b3ae39bcd0af6c95f0da0e" target="_top" xlink:title=" ">
<polygon fill="white" stroke="black" points="0,-49.5 0,-79.5 178,-79.5 178,-49.5 0,-49.5"/>
<text text-anchor="start" x="8" y="-67.5" font-family="Helvetica,sans-Serif" font-size="10.00">javolution.util.internal.collection.</text>
<text text-anchor="middle" x="89" y="-56.5" font-family="Helvetica,sans-Serif" font-size="10.00">CollectionView&lt; R &gt;::size</text>
</a>
</g>
</g>
<!-- Node1&#45;&gt;Node10 -->
<g id="edge9" class="edge">
<title>Node1&#45;&gt;Node10</title>
<path fill="none" stroke="midnightblue" d="M287.86,-211.23C267.63,-178.67 227.38,-121.27 178,-89.5 171.99,-85.63 165.37,-82.35 158.55,-79.57"/>
<polygon fill="midnightblue" stroke="midnightblue" points="285.06,-213.37 293.25,-220.1 291.04,-209.74 285.06,-213.37"/>
</g>
<!-- Node11 -->
<g id="node11" class="node">
<title>Node11</title>
<g id="a_node11"><a xlink:href="../../d1/d40/classjavolution_1_1util_1_1internal_1_1collection_1_1CollectionView.html#a6472ee35886ef2656b6bb9c975c6cfe3" target="_top" xlink:title=" ">
<polygon fill="white" stroke="black" points="0,-0.5 0,-30.5 178,-30.5 178,-0.5 0,-0.5"/>
<text text-anchor="start" x="8" y="-18.5" font-family="Helvetica,sans-Serif" font-size="10.00">javolution.util.internal.collection.</text>
<text text-anchor="middle" x="89" y="-7.5" font-family="Helvetica,sans-Serif" font-size="10.00">CollectionView&lt; R &gt;::toArray</text>
</a>
</g>
</g>
<!-- Node1&#45;&gt;Node11 -->
<g id="edge10" class="edge">
<title>Node1&#45;&gt;Node11</title>
<path fill="none" stroke="midnightblue" d="M293.1,-210.81C276.84,-169.26 238.34,-85.48 178,-40.5 172.78,-36.61 166.97,-33.32 160.9,-30.55"/>
<polygon fill="midnightblue" stroke="midnightblue" points="289.92,-212.32 296.75,-220.42 296.47,-209.83 289.92,-212.32"/>
</g>
</g>
</svg>
