<?xml version="1.0" encoding="UTF-8" standalone="no"?>
<!DOCTYPE svg PUBLIC "-//W3C//DTD SVG 1.1//EN"
 "http://www.w3.org/Graphics/SVG/1.1/DTD/svg11.dtd">
<!-- Generated by graphviz version 2.43.0 (0)
 -->
<!-- Title: javolution.text.TypeFormat.parseInt Pages: 1 -->
<svg width="636pt" height="104pt"
 viewBox="0.00 0.00 636.00 104.00" xmlns="http://www.w3.org/2000/svg" xmlns:xlink="http://www.w3.org/1999/xlink">
<g id="graph0" class="graph" transform="scale(1 1) rotate(0) translate(4 100)">
<title>javolution.text.TypeFormat.parseInt</title>
<polygon fill="white" stroke="transparent" points="-4,4 -4,-100 632,-100 632,4 -4,4"/>
<!-- Node1 -->
<g id="node1" class="node">
<title>Node1</title>
<g id="a_node1"><a xlink:title=" ">
<polygon fill="#bfbfbf" stroke="black" points="0,-38.5 0,-57.5 191,-57.5 191,-38.5 0,-38.5"/>
<text text-anchor="middle" x="95.5" y="-45.5" font-family="Helvetica,sans-Serif" font-size="10.00">javolution.text.TypeFormat.parseInt</text>
</a>
</g>
</g>
<!-- Node2 -->
<g id="node2" class="node">
<title>Node2</title>
<g id="a_node2"><a xlink:href="../../d0/dce/classjavolution_1_1text_1_1Cursor.html#af9162752e17ac2bbefc3e0231e020736" target="_top" xlink:title=" ">
<polygon fill="white" stroke="black" points="246.5,-76.5 246.5,-95.5 398.5,-95.5 398.5,-76.5 246.5,-76.5"/>
<text text-anchor="middle" x="322.5" y="-83.5" font-family="Helvetica,sans-Serif" font-size="10.00">javolution.text.Cursor.atEnd</text>
</a>
</g>
</g>
<!-- Node1&#45;&gt;Node2 -->
<g id="edge1" class="edge">
<title>Node1&#45;&gt;Node2</title>
<path fill="none" stroke="midnightblue" d="M152.99,-57.54C183.88,-62.76 222.34,-69.25 254.71,-74.72"/>
<polygon fill="midnightblue" stroke="midnightblue" points="254.55,-78.24 264.99,-76.46 255.71,-71.34 254.55,-78.24"/>
</g>
<!-- Node3 -->
<g id="node3" class="node">
<title>Node3</title>
<g id="a_node3"><a xlink:href="../../d2/d86/classjavolution_1_1text_1_1TypeFormat.html#a1fd0b02a320162fafc1abece2b57b576" target="_top" xlink:title=" ">
<polygon fill="white" stroke="black" points="227,-38.5 227,-57.5 418,-57.5 418,-38.5 227,-38.5"/>
<text text-anchor="middle" x="322.5" y="-45.5" font-family="Helvetica,sans-Serif" font-size="10.00">javolution.text.TypeFormat.parseInt</text>
</a>
</g>
</g>
<!-- Node1&#45;&gt;Node3 -->
<g id="edge2" class="edge">
<title>Node1&#45;&gt;Node3</title>
<path fill="none" stroke="midnightblue" d="M191.27,-48C199.64,-48 208.14,-48 216.58,-48"/>
<polygon fill="midnightblue" stroke="midnightblue" points="216.84,-51.5 226.84,-48 216.84,-44.5 216.84,-51.5"/>
</g>
<!-- Node6 -->
<g id="node6" class="node">
<title>Node6</title>
<g id="a_node6"><a xlink:href="../../d0/dce/classjavolution_1_1text_1_1Cursor.html#acab306e3d623427905f4dd191c4bf163" target="_top" xlink:title=" ">
<polygon fill="white" stroke="black" points="252.5,-0.5 252.5,-19.5 392.5,-19.5 392.5,-0.5 252.5,-0.5"/>
<text text-anchor="middle" x="322.5" y="-7.5" font-family="Helvetica,sans-Serif" font-size="10.00">javolution.text.Cursor.tail</text>
</a>
</g>
</g>
<!-- Node1&#45;&gt;Node6 -->
<g id="edge5" class="edge">
<title>Node1&#45;&gt;Node6</title>
<path fill="none" stroke="midnightblue" d="M152.99,-38.46C183.88,-33.24 222.34,-26.75 254.71,-21.28"/>
<polygon fill="midnightblue" stroke="midnightblue" points="255.71,-24.66 264.99,-19.54 254.55,-17.76 255.71,-24.66"/>
</g>
<!-- Node4 -->
<g id="node4" class="node">
<title>Node4</title>
<g id="a_node4"><a xlink:href="../../d0/dce/classjavolution_1_1text_1_1Cursor.html#a3c05d8bae9082071d73d9ff0c2caf791" target="_top" xlink:title=" ">
<polygon fill="white" stroke="black" points="471,-55 471,-85 611,-85 611,-55 471,-55"/>
<text text-anchor="start" x="479" y="-73" font-family="Helvetica,sans-Serif" font-size="10.00">javolution.text.Cursor.get</text>
<text text-anchor="middle" x="541" y="-62" font-family="Helvetica,sans-Serif" font-size="10.00">Index</text>
</a>
</g>
</g>
<!-- Node3&#45;&gt;Node4 -->
<g id="edge3" class="edge">
<title>Node3&#45;&gt;Node4</title>
<path fill="none" stroke="midnightblue" d="M417.2,-57.52C431.73,-59 446.62,-60.51 460.79,-61.95"/>
<polygon fill="midnightblue" stroke="midnightblue" points="460.66,-65.46 470.96,-62.98 461.37,-58.49 460.66,-65.46"/>
</g>
<!-- Node5 -->
<g id="node5" class="node">
<title>Node5</title>
<g id="a_node5"><a xlink:href="../../d0/dce/classjavolution_1_1text_1_1Cursor.html#a021df95865b1703e8e34c6935c4a93ef" target="_top" xlink:title=" ">
<polygon fill="white" stroke="black" points="454,-16.5 454,-35.5 628,-35.5 628,-16.5 454,-16.5"/>
<text text-anchor="middle" x="541" y="-23.5" font-family="Helvetica,sans-Serif" font-size="10.00">javolution.text.Cursor.increment</text>
</a>
</g>
</g>
<!-- Node3&#45;&gt;Node5 -->
<g id="edge4" class="edge">
<title>Node3&#45;&gt;Node5</title>
<path fill="none" stroke="midnightblue" d="M417.2,-38.48C425.91,-37.59 434.74,-36.7 443.47,-35.81"/>
<polygon fill="midnightblue" stroke="midnightblue" points="444.07,-39.27 453.66,-34.77 443.36,-32.3 444.07,-39.27"/>
</g>
</g>
</svg>
