<?xml version="1.0" encoding="UTF-8" standalone="no"?>
<!DOCTYPE svg PUBLIC "-//W3C//DTD SVG 1.1//EN"
 "http://www.w3.org/Graphics/SVG/1.1/DTD/svg11.dtd">
<!-- Generated by graphviz version 2.43.0 (0)
 -->
<!-- Title: javolution.text.TypeFormat.parseDouble Pages: 1 -->
<svg width="942pt" height="100pt"
 viewBox="0.00 0.00 942.00 99.50" xmlns="http://www.w3.org/2000/svg" xmlns:xlink="http://www.w3.org/1999/xlink">
<g id="graph0" class="graph" transform="scale(1 1) rotate(0) translate(4 95.5)">
<title>javolution.text.TypeFormat.parseDouble</title>
<polygon fill="white" stroke="transparent" points="-4,4 -4,-95.5 938,-95.5 938,4 -4,4"/>
<!-- Node1 -->
<g id="node1" class="node">
<title>Node1</title>
<g id="a_node1"><a xlink:title=" ">
<polygon fill="#bfbfbf" stroke="black" points="0,-44.5 0,-74.5 178,-74.5 178,-44.5 0,-44.5"/>
<text text-anchor="start" x="8" y="-62.5" font-family="Helvetica,sans-Serif" font-size="10.00">javolution.text.TypeFormat.parse</text>
<text text-anchor="middle" x="89" y="-51.5" font-family="Helvetica,sans-Serif" font-size="10.00">Double</text>
</a>
</g>
</g>
<!-- Node2 -->
<g id="node2" class="node">
<title>Node2</title>
<g id="a_node2"><a xlink:href="../../d2/d86/classjavolution_1_1text_1_1TypeFormat.html#a4b7437436351f42d7bc6af036ea21f2f" target="_top" xlink:title=" ">
<polygon fill="white" stroke="black" points="214,-72 214,-91 396,-91 396,-72 214,-72"/>
<text text-anchor="middle" x="305" y="-79" font-family="Helvetica,sans-Serif" font-size="10.00">javolution.text.TypeFormat.match</text>
</a>
</g>
</g>
<!-- Node1&#45;&gt;Node2 -->
<g id="edge1" class="edge">
<title>Node1&#45;&gt;Node2</title>
<path fill="none" stroke="midnightblue" d="M178.28,-68.58C186.72,-69.44 195.32,-70.33 203.86,-71.21"/>
<polygon fill="midnightblue" stroke="midnightblue" points="203.54,-74.69 213.85,-72.23 204.26,-67.73 203.54,-74.69"/>
</g>
<!-- Node3 -->
<g id="node3" class="node">
<title>Node3</title>
<g id="a_node3"><a xlink:href="../../d4/d14/classjavolution_1_1lang_1_1MathLib.html#a5f4e3f66673eead84cc1e6d0b17354b4" target="_top" xlink:title=" ">
<polygon fill="white" stroke="black" points="233,-22.5 233,-52.5 377,-52.5 377,-22.5 233,-22.5"/>
<text text-anchor="start" x="241" y="-40.5" font-family="Helvetica,sans-Serif" font-size="10.00">javolution.lang.MathLib.to</text>
<text text-anchor="middle" x="305" y="-29.5" font-family="Helvetica,sans-Serif" font-size="10.00">DoublePow10</text>
</a>
</g>
</g>
<!-- Node1&#45;&gt;Node3 -->
<g id="edge2" class="edge">
<title>Node1&#45;&gt;Node3</title>
<path fill="none" stroke="midnightblue" d="M178.28,-50.42C193.06,-48.91 208.33,-47.34 222.92,-45.84"/>
<polygon fill="midnightblue" stroke="midnightblue" points="223.3,-49.31 232.89,-44.81 222.59,-42.35 223.3,-49.31"/>
</g>
<!-- Node4 -->
<g id="node4" class="node">
<title>Node4</title>
<g id="a_node4"><a xlink:href="../../d4/d14/classjavolution_1_1lang_1_1MathLib.html#a0ec25ae04f72c11735c2ba9384e87274" target="_top" xlink:title=" ">
<polygon fill="white" stroke="black" points="614.5,-44.5 614.5,-74.5 761.5,-74.5 761.5,-44.5 614.5,-44.5"/>
<text text-anchor="start" x="622.5" y="-62.5" font-family="Helvetica,sans-Serif" font-size="10.00">javolution.lang.MathLib.bit</text>
<text text-anchor="middle" x="688" y="-51.5" font-family="Helvetica,sans-Serif" font-size="10.00">Length</text>
</a>
</g>
</g>
<!-- Node3&#45;&gt;Node4 -->
<g id="edge3" class="edge">
<title>Node3&#45;&gt;Node4</title>
<path fill="none" stroke="midnightblue" d="M377.22,-41.61C441.54,-45.33 536.24,-50.79 603.98,-54.71"/>
<polygon fill="midnightblue" stroke="midnightblue" points="604,-58.21 614.19,-55.3 604.41,-51.22 604,-58.21"/>
</g>
<!-- Node5 -->
<g id="node5" class="node">
<title>Node5</title>
<g id="a_node5"><a xlink:href="../../d4/d14/classjavolution_1_1lang_1_1MathLib.html#a0c8756381acc8208279b93aae059d01f" target="_top" xlink:title=" ">
<polygon fill="white" stroke="black" points="432,-0.5 432,-30.5 576,-30.5 576,-0.5 432,-0.5"/>
<text text-anchor="start" x="440" y="-18.5" font-family="Helvetica,sans-Serif" font-size="10.00">javolution.lang.MathLib.to</text>
<text text-anchor="middle" x="504" y="-7.5" font-family="Helvetica,sans-Serif" font-size="10.00">DoublePow2</text>
</a>
</g>
</g>
<!-- Node3&#45;&gt;Node5 -->
<g id="edge4" class="edge">
<title>Node3&#45;&gt;Node5</title>
<path fill="none" stroke="midnightblue" d="M377.12,-29.56C391.63,-27.94 407,-26.22 421.82,-24.57"/>
<polygon fill="midnightblue" stroke="midnightblue" points="422.43,-28.02 431.98,-23.43 421.66,-21.06 422.43,-28.02"/>
</g>
<!-- Node5&#45;&gt;Node4 -->
<g id="edge5" class="edge">
<title>Node5&#45;&gt;Node4</title>
<path fill="none" stroke="midnightblue" d="M567.13,-30.52C582.56,-34.25 599.23,-38.28 615.09,-42.12"/>
<polygon fill="midnightblue" stroke="midnightblue" points="614.3,-45.53 624.85,-44.47 615.95,-38.72 614.3,-45.53"/>
</g>
<!-- Node6 -->
<g id="node6" class="node">
<title>Node6</title>
<g id="a_node6"><a xlink:href="../../d4/d14/classjavolution_1_1lang_1_1MathLib.html#a8e7d997979031d789ff07ff1b015537b" target="_top" xlink:title=" ">
<polygon fill="white" stroke="black" points="612,-6 612,-25 764,-25 764,-6 612,-6"/>
<text text-anchor="middle" x="688" y="-13" font-family="Helvetica,sans-Serif" font-size="10.00">javolution.lang.MathLib.exp</text>
</a>
</g>
</g>
<!-- Node5&#45;&gt;Node6 -->
<g id="edge6" class="edge">
<title>Node5&#45;&gt;Node6</title>
<path fill="none" stroke="midnightblue" d="M576.15,-15.5C584.6,-15.5 593.3,-15.5 601.92,-15.5"/>
<polygon fill="midnightblue" stroke="midnightblue" points="602,-19 612,-15.5 602,-12 602,-19"/>
</g>
<!-- Node7 -->
<g id="node7" class="node">
<title>Node7</title>
<g id="a_node7"><a xlink:href="../../d4/d14/classjavolution_1_1lang_1_1MathLib.html#a6c237605180b786b4eddbeb45925ccff" target="_top" xlink:title=" ">
<polygon fill="white" stroke="black" points="800,-0.5 800,-30.5 934,-30.5 934,-0.5 800,-0.5"/>
<text text-anchor="start" x="808" y="-18.5" font-family="Helvetica,sans-Serif" font-size="10.00">javolution.lang.MathLib.</text>
<text text-anchor="middle" x="867" y="-7.5" font-family="Helvetica,sans-Serif" font-size="10.00">_ieee754_exp</text>
</a>
</g>
</g>
<!-- Node6&#45;&gt;Node7 -->
<g id="edge7" class="edge">
<title>Node6&#45;&gt;Node7</title>
<path fill="none" stroke="midnightblue" d="M764.06,-15.5C772.5,-15.5 781.11,-15.5 789.57,-15.5"/>
<polygon fill="midnightblue" stroke="midnightblue" points="789.79,-19 799.79,-15.5 789.79,-12 789.79,-19"/>
</g>
</g>
</svg>
