<?xml version="1.0" encoding="UTF-8" standalone="no"?>
<!DOCTYPE svg PUBLIC "-//W3C//DTD SVG 1.1//EN"
 "http://www.w3.org/Graphics/SVG/1.1/DTD/svg11.dtd">
<!-- Generated by graphviz version 2.43.0 (0)
 -->
<!-- Title: javolution.text.TypeFormat.parseByte Pages: 1 -->
<svg width="645pt" height="78pt"
 viewBox="0.00 0.00 645.00 77.50" xmlns="http://www.w3.org/2000/svg" xmlns:xlink="http://www.w3.org/1999/xlink">
<g id="graph0" class="graph" transform="scale(1 1) rotate(0) translate(4 73.5)">
<title>javolution.text.TypeFormat.parseByte</title>
<polygon fill="white" stroke="transparent" points="-4,4 -4,-73.5 641,-73.5 641,4 -4,4"/>
<!-- Node1 -->
<g id="node1" class="node">
<title>Node1</title>
<g id="a_node1"><a xlink:title=" ">
<polygon fill="#bfbfbf" stroke="black" points="0,-22.5 0,-41.5 200,-41.5 200,-22.5 0,-22.5"/>
<text text-anchor="middle" x="100" y="-29.5" font-family="Helvetica,sans-Serif" font-size="10.00">javolution.text.TypeFormat.parseByte</text>
</a>
</g>
</g>
<!-- Node2 -->
<g id="node2" class="node">
<title>Node2</title>
<g id="a_node2"><a xlink:href="../../d2/d86/classjavolution_1_1text_1_1TypeFormat.html#a1fd0b02a320162fafc1abece2b57b576" target="_top" xlink:title=" ">
<polygon fill="white" stroke="black" points="236,-22.5 236,-41.5 427,-41.5 427,-22.5 236,-22.5"/>
<text text-anchor="middle" x="331.5" y="-29.5" font-family="Helvetica,sans-Serif" font-size="10.00">javolution.text.TypeFormat.parseInt</text>
</a>
</g>
</g>
<!-- Node1&#45;&gt;Node2 -->
<g id="edge1" class="edge">
<title>Node1&#45;&gt;Node2</title>
<path fill="none" stroke="midnightblue" d="M200.33,-32C208.68,-32 217.15,-32 225.54,-32"/>
<polygon fill="midnightblue" stroke="midnightblue" points="225.73,-35.5 235.73,-32 225.73,-28.5 225.73,-35.5"/>
</g>
<!-- Node3 -->
<g id="node3" class="node">
<title>Node3</title>
<g id="a_node3"><a xlink:href="../../d0/dce/classjavolution_1_1text_1_1Cursor.html#a3c05d8bae9082071d73d9ff0c2caf791" target="_top" xlink:title=" ">
<polygon fill="white" stroke="black" points="480,-39 480,-69 620,-69 620,-39 480,-39"/>
<text text-anchor="start" x="488" y="-57" font-family="Helvetica,sans-Serif" font-size="10.00">javolution.text.Cursor.get</text>
<text text-anchor="middle" x="550" y="-46" font-family="Helvetica,sans-Serif" font-size="10.00">Index</text>
</a>
</g>
</g>
<!-- Node2&#45;&gt;Node3 -->
<g id="edge2" class="edge">
<title>Node2&#45;&gt;Node3</title>
<path fill="none" stroke="midnightblue" d="M426.2,-41.52C440.73,-43 455.62,-44.51 469.79,-45.95"/>
<polygon fill="midnightblue" stroke="midnightblue" points="469.66,-49.46 479.96,-46.98 470.37,-42.49 469.66,-49.46"/>
</g>
<!-- Node4 -->
<g id="node4" class="node">
<title>Node4</title>
<g id="a_node4"><a xlink:href="../../d0/dce/classjavolution_1_1text_1_1Cursor.html#a021df95865b1703e8e34c6935c4a93ef" target="_top" xlink:title=" ">
<polygon fill="white" stroke="black" points="463,-0.5 463,-19.5 637,-19.5 637,-0.5 463,-0.5"/>
<text text-anchor="middle" x="550" y="-7.5" font-family="Helvetica,sans-Serif" font-size="10.00">javolution.text.Cursor.increment</text>
</a>
</g>
</g>
<!-- Node2&#45;&gt;Node4 -->
<g id="edge3" class="edge">
<title>Node2&#45;&gt;Node4</title>
<path fill="none" stroke="midnightblue" d="M426.2,-22.48C434.91,-21.59 443.74,-20.7 452.47,-19.81"/>
<polygon fill="midnightblue" stroke="midnightblue" points="453.07,-23.27 462.66,-18.77 452.36,-16.3 453.07,-23.27"/>
</g>
</g>
</svg>
