<?xml version="1.0" encoding="UTF-8" standalone="no"?>
<!DOCTYPE svg PUBLIC "-//W3C//DTD SVG 1.1//EN"
 "http://www.w3.org/Graphics/SVG/1.1/DTD/svg11.dtd">
<!-- Generated by graphviz version 2.43.0 (0)
 -->
<!-- Title: javolution.text.TypeFormat.parseInt Pages: 1 -->
<svg width="866pt" height="282pt"
 viewBox="0.00 0.00 866.00 281.50" xmlns="http://www.w3.org/2000/svg" xmlns:xlink="http://www.w3.org/1999/xlink">
<g id="graph0" class="graph" transform="scale(1 1) rotate(0) translate(4 277.5)">
<title>javolution.text.TypeFormat.parseInt</title>
<polygon fill="white" stroke="transparent" points="-4,4 -4,-277.5 862,-277.5 862,4 -4,4"/>
<!-- Node1 -->
<g id="node1" class="node">
<title>Node1</title>
<g id="a_node1"><a xlink:title=" ">
<polygon fill="#bfbfbf" stroke="black" points="667,-178 667,-197 858,-197 858,-178 667,-178"/>
<text text-anchor="middle" x="762.5" y="-185" font-family="Helvetica,sans-Serif" font-size="10.00">javolution.text.TypeFormat.parseInt</text>
</a>
</g>
</g>
<!-- Node2 -->
<g id="node2" class="node">
<title>Node2</title>
<g id="a_node2"><a xlink:href="../../d7/dbf/classjavolution_1_1util_1_1Index_1_1Decimal.html#a844a840cb4a81824f58018799dcf22a1" target="_top" xlink:title=" ">
<polygon fill="white" stroke="black" points="437,-254 437,-273 625,-273 625,-254 437,-254"/>
<text text-anchor="middle" x="531" y="-261" font-family="Helvetica,sans-Serif" font-size="10.00">javolution.util.Index.Decimal.parse</text>
</a>
</g>
</g>
<!-- Node1&#45;&gt;Node2 -->
<g id="edge1" class="edge">
<title>Node1&#45;&gt;Node2</title>
<path fill="none" stroke="midnightblue" d="M733.77,-201.77C707.81,-214.61 667.64,-233.14 631,-244.5 618.96,-248.23 605.87,-251.37 593.26,-253.95"/>
<polygon fill="midnightblue" stroke="midnightblue" points="735.61,-204.77 742.98,-197.16 732.48,-198.51 735.61,-204.77"/>
</g>
<!-- Node3 -->
<g id="node3" class="node">
<title>Node3</title>
<g id="a_node3"><a xlink:href="../../d2/d86/classjavolution_1_1text_1_1TypeFormat.html#a11e453a31093562cadec86949647f1cd" target="_top" xlink:title=" ">
<polygon fill="white" stroke="black" points="431,-216 431,-235 631,-235 631,-216 431,-216"/>
<text text-anchor="middle" x="531" y="-223" font-family="Helvetica,sans-Serif" font-size="10.00">javolution.text.TypeFormat.parseByte</text>
</a>
</g>
</g>
<!-- Node1&#45;&gt;Node3 -->
<g id="edge2" class="edge">
<title>Node1&#45;&gt;Node3</title>
<path fill="none" stroke="midnightblue" d="M693.83,-198.7C660.72,-204.19 621.29,-210.72 589.64,-215.96"/>
<polygon fill="midnightblue" stroke="midnightblue" points="694.59,-202.13 703.88,-197.04 693.45,-195.22 694.59,-202.13"/>
</g>
<!-- Node5 -->
<g id="node5" class="node">
<title>Node5</title>
<g id="a_node5"><a xlink:href="../../d2/d86/classjavolution_1_1text_1_1TypeFormat.html#ae1932ba4db66231e86846ae3d18af312" target="_top" xlink:title=" ">
<polygon fill="white" stroke="black" points="435.5,-178 435.5,-197 626.5,-197 626.5,-178 435.5,-178"/>
<text text-anchor="middle" x="531" y="-185" font-family="Helvetica,sans-Serif" font-size="10.00">javolution.text.TypeFormat.parseInt</text>
</a>
</g>
</g>
<!-- Node1&#45;&gt;Node5 -->
<g id="edge4" class="edge">
<title>Node1&#45;&gt;Node5</title>
<path fill="none" stroke="midnightblue" d="M656.55,-187.5C646.64,-187.5 636.63,-187.5 626.82,-187.5"/>
<polygon fill="midnightblue" stroke="midnightblue" points="656.83,-191 666.83,-187.5 656.83,-184 656.83,-191"/>
</g>
<!-- Node6 -->
<g id="node6" class="node">
<title>Node6</title>
<g id="a_node6"><a xlink:href="../../d2/d86/classjavolution_1_1text_1_1TypeFormat.html#a51cfcfcc8505be7dca532d9ea13723af" target="_top" xlink:title=" ">
<polygon fill="white" stroke="black" points="442,-128.5 442,-158.5 620,-158.5 620,-128.5 442,-128.5"/>
<text text-anchor="start" x="450" y="-146.5" font-family="Helvetica,sans-Serif" font-size="10.00">javolution.text.TypeFormat.parse</text>
<text text-anchor="middle" x="531" y="-135.5" font-family="Helvetica,sans-Serif" font-size="10.00">Short</text>
</a>
</g>
</g>
<!-- Node1&#45;&gt;Node6 -->
<g id="edge5" class="edge">
<title>Node1&#45;&gt;Node6</title>
<path fill="none" stroke="midnightblue" d="M701.72,-176.04C673.89,-170.7 640.42,-164.29 610.58,-158.57"/>
<polygon fill="midnightblue" stroke="midnightblue" points="701.22,-179.51 711.7,-177.95 702.54,-172.63 701.22,-179.51"/>
</g>
<!-- Node8 -->
<g id="node8" class="node">
<title>Node8</title>
<g id="a_node8"><a xlink:href="../../d0/d36/classjavolution_1_1text_1_1CharArray.html#ad22599c07aa82434a6021f2a1cbb602e" target="_top" xlink:title=" ">
<polygon fill="white" stroke="black" points="449,-82 449,-101 613,-101 613,-82 449,-82"/>
<text text-anchor="middle" x="531" y="-89" font-family="Helvetica,sans-Serif" font-size="10.00">javolution.text.CharArray.toInt</text>
</a>
</g>
</g>
<!-- Node1&#45;&gt;Node8 -->
<g id="edge7" class="edge">
<title>Node1&#45;&gt;Node8</title>
<path fill="none" stroke="midnightblue" d="M736.81,-172.69C711.09,-157.72 669.28,-134.7 631,-119.5 612.41,-112.12 591.13,-105.83 573.08,-101.1"/>
<polygon fill="midnightblue" stroke="midnightblue" points="735.13,-175.76 745.53,-177.8 738.68,-169.72 735.13,-175.76"/>
</g>
<!-- Node4 -->
<g id="node4" class="node">
<title>Node4</title>
<g id="a_node4"><a xlink:href="../../d2/d86/classjavolution_1_1text_1_1TypeFormat.html#a5f5f38ed587546b6f7026c2704c9578b" target="_top" xlink:title=" ">
<polygon fill="white" stroke="black" points="195,-216 195,-235 395,-235 395,-216 195,-216"/>
<text text-anchor="middle" x="295" y="-223" font-family="Helvetica,sans-Serif" font-size="10.00">javolution.text.TypeFormat.parseByte</text>
</a>
</g>
</g>
<!-- Node3&#45;&gt;Node4 -->
<g id="edge3" class="edge">
<title>Node3&#45;&gt;Node4</title>
<path fill="none" stroke="midnightblue" d="M420.73,-225.5C412.15,-225.5 403.52,-225.5 395.02,-225.5"/>
<polygon fill="midnightblue" stroke="midnightblue" points="420.76,-229 430.76,-225.5 420.76,-222 420.76,-229"/>
</g>
<!-- Node7 -->
<g id="node7" class="node">
<title>Node7</title>
<g id="a_node7"><a xlink:href="../../d2/d86/classjavolution_1_1text_1_1TypeFormat.html#a6abb1aad0a6bbbc6d0b17b9e30c37a65" target="_top" xlink:title=" ">
<polygon fill="white" stroke="black" points="206,-147.5 206,-177.5 384,-177.5 384,-147.5 206,-147.5"/>
<text text-anchor="start" x="214" y="-165.5" font-family="Helvetica,sans-Serif" font-size="10.00">javolution.text.TypeFormat.parse</text>
<text text-anchor="middle" x="295" y="-154.5" font-family="Helvetica,sans-Serif" font-size="10.00">Short</text>
</a>
</g>
</g>
<!-- Node6&#45;&gt;Node7 -->
<g id="edge6" class="edge">
<title>Node6&#45;&gt;Node7</title>
<path fill="none" stroke="midnightblue" d="M431.58,-151.49C415.8,-152.77 399.57,-154.09 384.05,-155.35"/>
<polygon fill="midnightblue" stroke="midnightblue" points="432.18,-154.95 441.87,-150.66 431.62,-147.98 432.18,-154.95"/>
</g>
<!-- Node9 -->
<g id="node9" class="node">
<title>Node9</title>
<g id="a_node9"><a xlink:href="../../d3/dfa/classjavolution_1_1xml_1_1XMLReferenceResolver.html#a1e5daf32aa19cc5e41d3b87915441c38" target="_top" xlink:title=" ">
<polygon fill="white" stroke="black" points="214.5,-98.5 214.5,-128.5 375.5,-128.5 375.5,-98.5 214.5,-98.5"/>
<text text-anchor="start" x="222.5" y="-116.5" font-family="Helvetica,sans-Serif" font-size="10.00">javolution.xml.XMLReference</text>
<text text-anchor="middle" x="295" y="-105.5" font-family="Helvetica,sans-Serif" font-size="10.00">Resolver.createReference</text>
</a>
</g>
</g>
<!-- Node8&#45;&gt;Node9 -->
<g id="edge8" class="edge">
<title>Node8&#45;&gt;Node9</title>
<path fill="none" stroke="midnightblue" d="M438.73,-100.08C417.98,-102.03 396.09,-104.09 375.86,-105.99"/>
<polygon fill="midnightblue" stroke="midnightblue" points="439.19,-103.55 448.81,-99.13 438.53,-96.58 439.19,-103.55"/>
</g>
<!-- Node11 -->
<g id="node11" class="node">
<title>Node11</title>
<g id="a_node11"><a xlink:href="../../d9/d60/classjavolution_1_1xml_1_1XMLFormat_1_1InputElement.html#aa6dac0d0d70f3baf25b131d90fa84204" target="_top" xlink:title=" ">
<polygon fill="white" stroke="black" points="220.5,-49.5 220.5,-79.5 369.5,-79.5 369.5,-49.5 220.5,-49.5"/>
<text text-anchor="start" x="228.5" y="-67.5" font-family="Helvetica,sans-Serif" font-size="10.00">javolution.xml.XMLFormat.</text>
<text text-anchor="middle" x="295" y="-56.5" font-family="Helvetica,sans-Serif" font-size="10.00">InputElement.getAttribute</text>
</a>
</g>
</g>
<!-- Node8&#45;&gt;Node11 -->
<g id="edge10" class="edge">
<title>Node8&#45;&gt;Node11</title>
<path fill="none" stroke="midnightblue" d="M438.75,-80.97C415.83,-78.33 391.53,-75.52 369.6,-72.99"/>
<polygon fill="midnightblue" stroke="midnightblue" points="438.48,-84.46 448.81,-82.13 439.28,-77.51 438.48,-84.46"/>
</g>
<!-- Node12 -->
<g id="node12" class="node">
<title>Node12</title>
<g id="a_node12"><a xlink:href="../../d3/dfa/classjavolution_1_1xml_1_1XMLReferenceResolver.html#aeff32553c92b7b73a7c24f53398f581b" target="_top" xlink:title=" ">
<polygon fill="white" stroke="black" points="214.5,-0.5 214.5,-30.5 375.5,-30.5 375.5,-0.5 214.5,-0.5"/>
<text text-anchor="start" x="222.5" y="-18.5" font-family="Helvetica,sans-Serif" font-size="10.00">javolution.xml.XMLReference</text>
<text text-anchor="middle" x="295" y="-7.5" font-family="Helvetica,sans-Serif" font-size="10.00">Resolver.readReference</text>
</a>
</g>
</g>
<!-- Node8&#45;&gt;Node12 -->
<g id="edge11" class="edge">
<title>Node8&#45;&gt;Node12</title>
<path fill="none" stroke="midnightblue" d="M498.51,-78.03C471.4,-66.76 431.08,-50.77 395,-39.5 384.79,-36.31 373.87,-33.29 363.16,-30.53"/>
<polygon fill="midnightblue" stroke="midnightblue" points="497.28,-81.31 507.86,-81.95 499.99,-74.86 497.28,-81.31"/>
</g>
<!-- Node10 -->
<g id="node10" class="node">
<title>Node10</title>
<g id="a_node10"><a xlink:href="../../d9/d60/classjavolution_1_1xml_1_1XMLFormat_1_1InputElement.html#a668e6902759573d65bf949b0771eaaca" target="_top" xlink:title=" ">
<polygon fill="white" stroke="black" points="0,-98.5 0,-128.5 159,-128.5 159,-98.5 0,-98.5"/>
<text text-anchor="start" x="8" y="-116.5" font-family="Helvetica,sans-Serif" font-size="10.00">javolution.xml.XMLFormat.</text>
<text text-anchor="middle" x="79.5" y="-105.5" font-family="Helvetica,sans-Serif" font-size="10.00">InputElement.readInstanceOf</text>
</a>
</g>
</g>
<!-- Node9&#45;&gt;Node10 -->
<g id="edge9" class="edge">
<title>Node9&#45;&gt;Node10</title>
<path fill="none" stroke="midnightblue" d="M203.97,-113.5C189.07,-113.5 173.73,-113.5 159.14,-113.5"/>
<polygon fill="midnightblue" stroke="midnightblue" points="204.2,-117 214.2,-113.5 204.2,-110 204.2,-117"/>
</g>
<!-- Node13 -->
<g id="node13" class="node">
<title>Node13</title>
<g id="a_node13"><a xlink:href="../../d9/d60/classjavolution_1_1xml_1_1XMLFormat_1_1InputElement.html#ace8288707b8a3cb46bf483440533fd1e" target="_top" xlink:title=" ">
<polygon fill="white" stroke="black" points="1.5,-0.5 1.5,-30.5 157.5,-30.5 157.5,-0.5 1.5,-0.5"/>
<text text-anchor="start" x="9.5" y="-18.5" font-family="Helvetica,sans-Serif" font-size="10.00">javolution.xml.XMLFormat.</text>
<text text-anchor="middle" x="79.5" y="-7.5" font-family="Helvetica,sans-Serif" font-size="10.00">InputElement.readReference</text>
</a>
</g>
</g>
<!-- Node12&#45;&gt;Node13 -->
<g id="edge12" class="edge">
<title>Node12&#45;&gt;Node13</title>
<path fill="none" stroke="midnightblue" d="M204.14,-15.5C188.71,-15.5 172.79,-15.5 157.73,-15.5"/>
<polygon fill="midnightblue" stroke="midnightblue" points="204.2,-19 214.2,-15.5 204.2,-12 204.2,-19"/>
</g>
</g>
</svg>
