<?xml version="1.0" encoding="UTF-8" standalone="no"?>
<!DOCTYPE svg PUBLIC "-//W3C//DTD SVG 1.1//EN"
 "http://www.w3.org/Graphics/SVG/1.1/DTD/svg11.dtd">
<!-- Generated by graphviz version 2.43.0 (0)
 -->
<!-- Title: javolution.text.TypeFormat.parseByte Pages: 1 -->
<svg width="881pt" height="104pt"
 viewBox="0.00 0.00 881.00 104.00" xmlns="http://www.w3.org/2000/svg" xmlns:xlink="http://www.w3.org/1999/xlink">
<g id="graph0" class="graph" transform="scale(1 1) rotate(0) translate(4 100)">
<title>javolution.text.TypeFormat.parseByte</title>
<polygon fill="white" stroke="transparent" points="-4,4 -4,-100 877,-100 877,4 -4,4"/>
<!-- Node1 -->
<g id="node1" class="node">
<title>Node1</title>
<g id="a_node1"><a xlink:title=" ">
<polygon fill="#bfbfbf" stroke="black" points="0,-38.5 0,-57.5 200,-57.5 200,-38.5 0,-38.5"/>
<text text-anchor="middle" x="100" y="-45.5" font-family="Helvetica,sans-Serif" font-size="10.00">javolution.text.TypeFormat.parseByte</text>
</a>
</g>
</g>
<!-- Node2 -->
<g id="node2" class="node">
<title>Node2</title>
<g id="a_node2"><a xlink:href="../../d0/dce/classjavolution_1_1text_1_1Cursor.html#af9162752e17ac2bbefc3e0231e020736" target="_top" xlink:title=" ">
<polygon fill="white" stroke="black" points="260,-76.5 260,-95.5 412,-95.5 412,-76.5 260,-76.5"/>
<text text-anchor="middle" x="336" y="-83.5" font-family="Helvetica,sans-Serif" font-size="10.00">javolution.text.Cursor.atEnd</text>
</a>
</g>
</g>
<!-- Node1&#45;&gt;Node2 -->
<g id="edge1" class="edge">
<title>Node1&#45;&gt;Node2</title>
<path fill="none" stroke="midnightblue" d="M159.75,-57.54C192.01,-62.78 232.22,-69.31 265.98,-74.79"/>
<polygon fill="midnightblue" stroke="midnightblue" points="265.8,-78.31 276.23,-76.46 266.92,-71.4 265.8,-78.31"/>
</g>
<!-- Node3 -->
<g id="node3" class="node">
<title>Node3</title>
<g id="a_node3"><a xlink:href="../../d2/d86/classjavolution_1_1text_1_1TypeFormat.html#a11e453a31093562cadec86949647f1cd" target="_top" xlink:title=" ">
<polygon fill="white" stroke="black" points="236,-38.5 236,-57.5 436,-57.5 436,-38.5 236,-38.5"/>
<text text-anchor="middle" x="336" y="-45.5" font-family="Helvetica,sans-Serif" font-size="10.00">javolution.text.TypeFormat.parseByte</text>
</a>
</g>
</g>
<!-- Node1&#45;&gt;Node3 -->
<g id="edge2" class="edge">
<title>Node1&#45;&gt;Node3</title>
<path fill="none" stroke="midnightblue" d="M200.24,-48C208.74,-48 217.38,-48 225.95,-48"/>
<polygon fill="midnightblue" stroke="midnightblue" points="225.98,-51.5 235.98,-48 225.98,-44.5 225.98,-51.5"/>
</g>
<!-- Node7 -->
<g id="node7" class="node">
<title>Node7</title>
<g id="a_node7"><a xlink:href="../../d0/dce/classjavolution_1_1text_1_1Cursor.html#acab306e3d623427905f4dd191c4bf163" target="_top" xlink:title=" ">
<polygon fill="white" stroke="black" points="266,-0.5 266,-19.5 406,-19.5 406,-0.5 266,-0.5"/>
<text text-anchor="middle" x="336" y="-7.5" font-family="Helvetica,sans-Serif" font-size="10.00">javolution.text.Cursor.tail</text>
</a>
</g>
</g>
<!-- Node1&#45;&gt;Node7 -->
<g id="edge6" class="edge">
<title>Node1&#45;&gt;Node7</title>
<path fill="none" stroke="midnightblue" d="M159.75,-38.46C192.01,-33.22 232.22,-26.69 265.98,-21.21"/>
<polygon fill="midnightblue" stroke="midnightblue" points="266.92,-24.6 276.23,-19.54 265.8,-17.69 266.92,-24.6"/>
</g>
<!-- Node4 -->
<g id="node4" class="node">
<title>Node4</title>
<g id="a_node4"><a xlink:href="../../d2/d86/classjavolution_1_1text_1_1TypeFormat.html#a1fd0b02a320162fafc1abece2b57b576" target="_top" xlink:title=" ">
<polygon fill="white" stroke="black" points="472,-38.5 472,-57.5 663,-57.5 663,-38.5 472,-38.5"/>
<text text-anchor="middle" x="567.5" y="-45.5" font-family="Helvetica,sans-Serif" font-size="10.00">javolution.text.TypeFormat.parseInt</text>
</a>
</g>
</g>
<!-- Node3&#45;&gt;Node4 -->
<g id="edge3" class="edge">
<title>Node3&#45;&gt;Node4</title>
<path fill="none" stroke="midnightblue" d="M436.33,-48C444.68,-48 453.15,-48 461.54,-48"/>
<polygon fill="midnightblue" stroke="midnightblue" points="461.73,-51.5 471.73,-48 461.73,-44.5 461.73,-51.5"/>
</g>
<!-- Node5 -->
<g id="node5" class="node">
<title>Node5</title>
<g id="a_node5"><a xlink:href="../../d0/dce/classjavolution_1_1text_1_1Cursor.html#a3c05d8bae9082071d73d9ff0c2caf791" target="_top" xlink:title=" ">
<polygon fill="white" stroke="black" points="716,-55 716,-85 856,-85 856,-55 716,-55"/>
<text text-anchor="start" x="724" y="-73" font-family="Helvetica,sans-Serif" font-size="10.00">javolution.text.Cursor.get</text>
<text text-anchor="middle" x="786" y="-62" font-family="Helvetica,sans-Serif" font-size="10.00">Index</text>
</a>
</g>
</g>
<!-- Node4&#45;&gt;Node5 -->
<g id="edge4" class="edge">
<title>Node4&#45;&gt;Node5</title>
<path fill="none" stroke="midnightblue" d="M662.2,-57.52C676.73,-59 691.62,-60.51 705.79,-61.95"/>
<polygon fill="midnightblue" stroke="midnightblue" points="705.66,-65.46 715.96,-62.98 706.37,-58.49 705.66,-65.46"/>
</g>
<!-- Node6 -->
<g id="node6" class="node">
<title>Node6</title>
<g id="a_node6"><a xlink:href="../../d0/dce/classjavolution_1_1text_1_1Cursor.html#a021df95865b1703e8e34c6935c4a93ef" target="_top" xlink:title=" ">
<polygon fill="white" stroke="black" points="699,-16.5 699,-35.5 873,-35.5 873,-16.5 699,-16.5"/>
<text text-anchor="middle" x="786" y="-23.5" font-family="Helvetica,sans-Serif" font-size="10.00">javolution.text.Cursor.increment</text>
</a>
</g>
</g>
<!-- Node4&#45;&gt;Node6 -->
<g id="edge5" class="edge">
<title>Node4&#45;&gt;Node6</title>
<path fill="none" stroke="midnightblue" d="M662.2,-38.48C670.91,-37.59 679.74,-36.7 688.47,-35.81"/>
<polygon fill="midnightblue" stroke="midnightblue" points="689.07,-39.27 698.66,-34.77 688.36,-32.3 689.07,-39.27"/>
</g>
</g>
</svg>
