<?xml version="1.0" encoding="UTF-8" standalone="no"?>
<!DOCTYPE svg PUBLIC "-//W3C//DTD SVG 1.1//EN"
 "http://www.w3.org/Graphics/SVG/1.1/DTD/svg11.dtd">
<!-- Generated by graphviz version 2.43.0 (0)
 -->
<!-- Title: javolution.text.TypeFormat.parseByte Pages: 1 -->
<svg width="881pt" height="78pt"
 viewBox="0.00 0.00 881.00 77.50" xmlns="http://www.w3.org/2000/svg" xmlns:xlink="http://www.w3.org/1999/xlink">
<g id="graph0" class="graph" transform="scale(1 1) rotate(0) translate(4 73.5)">
<title>javolution.text.TypeFormat.parseByte</title>
<polygon fill="white" stroke="transparent" points="-4,4 -4,-73.5 877,-73.5 877,4 -4,4"/>
<!-- Node1 -->
<g id="node1" class="node">
<title>Node1</title>
<g id="a_node1"><a xlink:title=" ">
<polygon fill="#bfbfbf" stroke="black" points="0,-22.5 0,-41.5 200,-41.5 200,-22.5 0,-22.5"/>
<text text-anchor="middle" x="100" y="-29.5" font-family="Helvetica,sans-Serif" font-size="10.00">javolution.text.TypeFormat.parseByte</text>
</a>
</g>
</g>
<!-- Node2 -->
<g id="node2" class="node">
<title>Node2</title>
<g id="a_node2"><a xlink:href="../../d2/d86/classjavolution_1_1text_1_1TypeFormat.html#a11e453a31093562cadec86949647f1cd" target="_top" xlink:title=" ">
<polygon fill="white" stroke="black" points="236,-22.5 236,-41.5 436,-41.5 436,-22.5 236,-22.5"/>
<text text-anchor="middle" x="336" y="-29.5" font-family="Helvetica,sans-Serif" font-size="10.00">javolution.text.TypeFormat.parseByte</text>
</a>
</g>
</g>
<!-- Node1&#45;&gt;Node2 -->
<g id="edge1" class="edge">
<title>Node1&#45;&gt;Node2</title>
<path fill="none" stroke="midnightblue" d="M200.24,-32C208.74,-32 217.38,-32 225.95,-32"/>
<polygon fill="midnightblue" stroke="midnightblue" points="225.98,-35.5 235.98,-32 225.98,-28.5 225.98,-35.5"/>
</g>
<!-- Node3 -->
<g id="node3" class="node">
<title>Node3</title>
<g id="a_node3"><a xlink:href="../../d2/d86/classjavolution_1_1text_1_1TypeFormat.html#a1fd0b02a320162fafc1abece2b57b576" target="_top" xlink:title=" ">
<polygon fill="white" stroke="black" points="472,-22.5 472,-41.5 663,-41.5 663,-22.5 472,-22.5"/>
<text text-anchor="middle" x="567.5" y="-29.5" font-family="Helvetica,sans-Serif" font-size="10.00">javolution.text.TypeFormat.parseInt</text>
</a>
</g>
</g>
<!-- Node2&#45;&gt;Node3 -->
<g id="edge2" class="edge">
<title>Node2&#45;&gt;Node3</title>
<path fill="none" stroke="midnightblue" d="M436.33,-32C444.68,-32 453.15,-32 461.54,-32"/>
<polygon fill="midnightblue" stroke="midnightblue" points="461.73,-35.5 471.73,-32 461.73,-28.5 461.73,-35.5"/>
</g>
<!-- Node4 -->
<g id="node4" class="node">
<title>Node4</title>
<g id="a_node4"><a xlink:href="../../d0/dce/classjavolution_1_1text_1_1Cursor.html#a3c05d8bae9082071d73d9ff0c2caf791" target="_top" xlink:title=" ">
<polygon fill="white" stroke="black" points="716,-39 716,-69 856,-69 856,-39 716,-39"/>
<text text-anchor="start" x="724" y="-57" font-family="Helvetica,sans-Serif" font-size="10.00">javolution.text.Cursor.get</text>
<text text-anchor="middle" x="786" y="-46" font-family="Helvetica,sans-Serif" font-size="10.00">Index</text>
</a>
</g>
</g>
<!-- Node3&#45;&gt;Node4 -->
<g id="edge3" class="edge">
<title>Node3&#45;&gt;Node4</title>
<path fill="none" stroke="midnightblue" d="M662.2,-41.52C676.73,-43 691.62,-44.51 705.79,-45.95"/>
<polygon fill="midnightblue" stroke="midnightblue" points="705.66,-49.46 715.96,-46.98 706.37,-42.49 705.66,-49.46"/>
</g>
<!-- Node5 -->
<g id="node5" class="node">
<title>Node5</title>
<g id="a_node5"><a xlink:href="../../d0/dce/classjavolution_1_1text_1_1Cursor.html#a021df95865b1703e8e34c6935c4a93ef" target="_top" xlink:title=" ">
<polygon fill="white" stroke="black" points="699,-0.5 699,-19.5 873,-19.5 873,-0.5 699,-0.5"/>
<text text-anchor="middle" x="786" y="-7.5" font-family="Helvetica,sans-Serif" font-size="10.00">javolution.text.Cursor.increment</text>
</a>
</g>
</g>
<!-- Node3&#45;&gt;Node5 -->
<g id="edge4" class="edge">
<title>Node3&#45;&gt;Node5</title>
<path fill="none" stroke="midnightblue" d="M662.2,-22.48C670.91,-21.59 679.74,-20.7 688.47,-19.81"/>
<polygon fill="midnightblue" stroke="midnightblue" points="689.07,-23.27 698.66,-18.77 688.36,-16.3 689.07,-23.27"/>
</g>
</g>
</svg>
