<?xml version="1.0" encoding="UTF-8" standalone="no"?>
<!DOCTYPE svg PUBLIC "-//W3C//DTD SVG 1.1//EN"
 "http://www.w3.org/Graphics/SVG/1.1/DTD/svg11.dtd">
<!-- Generated by graphviz version 2.43.0 (0)
 -->
<!-- Title: javolution.text.TypeFormat.parseBoolean Pages: 1 -->
<svg width="610pt" height="116pt"
 viewBox="0.00 0.00 610.00 116.00" xmlns="http://www.w3.org/2000/svg" xmlns:xlink="http://www.w3.org/1999/xlink">
<g id="graph0" class="graph" transform="scale(1 1) rotate(0) translate(4 112)">
<title>javolution.text.TypeFormat.parseBoolean</title>
<polygon fill="white" stroke="transparent" points="-4,4 -4,-112 606,-112 606,4 -4,4"/>
<!-- Node1 -->
<g id="node1" class="node">
<title>Node1</title>
<g id="a_node1"><a xlink:title=" ">
<polygon fill="#bfbfbf" stroke="black" points="0,-39 0,-69 178,-69 178,-39 0,-39"/>
<text text-anchor="start" x="8" y="-57" font-family="Helvetica,sans-Serif" font-size="10.00">javolution.text.TypeFormat.parse</text>
<text text-anchor="middle" x="89" y="-46" font-family="Helvetica,sans-Serif" font-size="10.00">Boolean</text>
</a>
</g>
</g>
<!-- Node2 -->
<g id="node2" class="node">
<title>Node2</title>
<g id="a_node2"><a xlink:href="../../d0/dce/classjavolution_1_1text_1_1Cursor.html#af9162752e17ac2bbefc3e0231e020736" target="_top" xlink:title=" ">
<polygon fill="white" stroke="black" points="227,-88.5 227,-107.5 379,-107.5 379,-88.5 227,-88.5"/>
<text text-anchor="middle" x="303" y="-95.5" font-family="Helvetica,sans-Serif" font-size="10.00">javolution.text.Cursor.atEnd</text>
</a>
</g>
</g>
<!-- Node1&#45;&gt;Node2 -->
<g id="edge1" class="edge">
<title>Node1&#45;&gt;Node2</title>
<path fill="none" stroke="midnightblue" d="M162.37,-69.02C189.79,-74.71 220.57,-81.1 246.24,-86.43"/>
<polygon fill="midnightblue" stroke="midnightblue" points="245.66,-89.88 256.17,-88.49 247.09,-83.03 245.66,-89.88"/>
</g>
<!-- Node3 -->
<g id="node3" class="node">
<title>Node3</title>
<g id="a_node3"><a xlink:href="../../d2/d86/classjavolution_1_1text_1_1TypeFormat.html#af5a4115fe004637fe8cef7142f821d05" target="_top" xlink:title=" ">
<polygon fill="white" stroke="black" points="214,-39 214,-69 392,-69 392,-39 214,-39"/>
<text text-anchor="start" x="222" y="-57" font-family="Helvetica,sans-Serif" font-size="10.00">javolution.text.TypeFormat.parse</text>
<text text-anchor="middle" x="303" y="-46" font-family="Helvetica,sans-Serif" font-size="10.00">Boolean</text>
</a>
</g>
</g>
<!-- Node1&#45;&gt;Node3 -->
<g id="edge2" class="edge">
<title>Node1&#45;&gt;Node3</title>
<path fill="none" stroke="midnightblue" d="M178.07,-54C186.57,-54 195.23,-54 203.82,-54"/>
<polygon fill="midnightblue" stroke="midnightblue" points="203.87,-57.5 213.87,-54 203.87,-50.5 203.87,-57.5"/>
</g>
<!-- Node6 -->
<g id="node6" class="node">
<title>Node6</title>
<g id="a_node6"><a xlink:href="../../d0/dce/classjavolution_1_1text_1_1Cursor.html#acab306e3d623427905f4dd191c4bf163" target="_top" xlink:title=" ">
<polygon fill="white" stroke="black" points="233,-0.5 233,-19.5 373,-19.5 373,-0.5 233,-0.5"/>
<text text-anchor="middle" x="303" y="-7.5" font-family="Helvetica,sans-Serif" font-size="10.00">javolution.text.Cursor.tail</text>
</a>
</g>
</g>
<!-- Node1&#45;&gt;Node6 -->
<g id="edge5" class="edge">
<title>Node1&#45;&gt;Node6</title>
<path fill="none" stroke="midnightblue" d="M162.37,-38.98C189.79,-33.29 220.57,-26.9 246.24,-21.57"/>
<polygon fill="midnightblue" stroke="midnightblue" points="247.09,-24.97 256.17,-19.51 245.66,-18.12 247.09,-24.97"/>
</g>
<!-- Node4 -->
<g id="node4" class="node">
<title>Node4</title>
<g id="a_node4"><a xlink:href="../../d0/dce/classjavolution_1_1text_1_1Cursor.html#a3c05d8bae9082071d73d9ff0c2caf791" target="_top" xlink:title=" ">
<polygon fill="white" stroke="black" points="445,-61 445,-91 585,-91 585,-61 445,-61"/>
<text text-anchor="start" x="453" y="-79" font-family="Helvetica,sans-Serif" font-size="10.00">javolution.text.Cursor.get</text>
<text text-anchor="middle" x="515" y="-68" font-family="Helvetica,sans-Serif" font-size="10.00">Index</text>
</a>
</g>
</g>
<!-- Node3&#45;&gt;Node4 -->
<g id="edge3" class="edge">
<title>Node3&#45;&gt;Node4</title>
<path fill="none" stroke="midnightblue" d="M392.15,-63.23C406.33,-64.72 420.93,-66.25 434.88,-67.71"/>
<polygon fill="midnightblue" stroke="midnightblue" points="434.6,-71.2 444.91,-68.76 435.33,-64.24 434.6,-71.2"/>
</g>
<!-- Node5 -->
<g id="node5" class="node">
<title>Node5</title>
<g id="a_node5"><a xlink:href="../../d0/dce/classjavolution_1_1text_1_1Cursor.html#a021df95865b1703e8e34c6935c4a93ef" target="_top" xlink:title=" ">
<polygon fill="white" stroke="black" points="428,-22.5 428,-41.5 602,-41.5 602,-22.5 428,-22.5"/>
<text text-anchor="middle" x="515" y="-29.5" font-family="Helvetica,sans-Serif" font-size="10.00">javolution.text.Cursor.increment</text>
</a>
</g>
</g>
<!-- Node3&#45;&gt;Node5 -->
<g id="edge4" class="edge">
<title>Node3&#45;&gt;Node5</title>
<path fill="none" stroke="midnightblue" d="M392.15,-44.77C400.62,-43.88 409.24,-42.98 417.78,-42.08"/>
<polygon fill="midnightblue" stroke="midnightblue" points="418.18,-45.56 427.76,-41.03 417.45,-38.6 418.18,-45.56"/>
</g>
</g>
</svg>
