<?xml version="1.0" encoding="UTF-8" standalone="no"?>
<!DOCTYPE svg PUBLIC "-//W3C//DTD SVG 1.1//EN"
 "http://www.w3.org/Graphics/SVG/1.1/DTD/svg11.dtd">
<!-- Generated by graphviz version 2.43.0 (0)
 -->
<!-- Title: javolution.text.TypeFormat.parseFloat Pages: 1 -->
<!--zoomable 100 -->
<svg id="main" version="1.1" xmlns="http://www.w3.org/2000/svg" xmlns:xlink="http://www.w3.org/1999/xlink" xml:space="preserve" onload="init(evt)">
<style type="text/css"><![CDATA[
.edge:hover path { stroke: red; }
.edge:hover polygon { stroke: red; fill: red; }
]]></style>
<script type="text/javascript"><![CDATA[
var edges = document.getElementsByTagName('g');
if (edges && edges.length) {
  for (var i=0;i<edges.length;i++) {
    if (edges[i].id.substr(0,4)=='edge') {
      edges[i].setAttribute('class','edge');
    }
  }
}
]]></script>
        <defs>
                <circle id="rim" cx="0" cy="0" r="7"/>
                <circle id="rim2" cx="0" cy="0" r="3.5"/>
                <g id="zoomPlus">
                        <use xlink:href="#rim" fill="#404040">
                                <set attributeName="fill" to="#808080" begin="zoomplus.mouseover" end="zoomplus.mouseout"/>
                        </use>
                        <path d="M-4,0h8M0,-4v8" fill="none" stroke="white" stroke-width="1.5" pointer-events="none"/>
                </g>
                <g id="zoomMin">
                        <use xlink:href="#rim" fill="#404040">
                                <set attributeName="fill" to="#808080" begin="zoomminus.mouseover" end="zoomminus.mouseout"/>
                        </use>
                        <path d="M-4,0h8" fill="none" stroke="white" stroke-width="1.5" pointer-events="none"/>
                </g>
                <g id="dirArrow">
                        <path fill="none" stroke="white" stroke-width="1.5" d="M0,-3.0v7 M-2.5,-0.5L0,-3.0L2.5,-0.5"/>
                </g>
               <g id="resetDef">
                       <use xlink:href="#rim2" fill="#404040">
                               <set attributeName="fill" to="#808080" begin="reset.mouseover" end="reset.mouseout"/>
                       </use>
               </g>
        </defs>

<script type="text/javascript">
var viewWidth = 1156;
var viewHeight = 100;
var sectionId = 'dynsection-21';
</script>
<script xlink:href="../../svgpan.js"/>
<svg id="graph" class="graph">
<g id="viewport">
<title>javolution.text.TypeFormat.parseFloat</title>
<polygon fill="white" stroke="transparent" points="-4,4 -4,-95.5 1152,-95.5 1152,4 -4,4"/>
<!-- Node1 -->
<g id="node1" class="node">
<title>Node1</title>
<g id="a_node1"><a xlink:title=" ">
<polygon fill="#bfbfbf" stroke="black" points="0,-44.5 0,-74.5 178,-74.5 178,-44.5 0,-44.5"/>
<text text-anchor="start" x="8" y="-62.5" font-family="Helvetica,sans-Serif" font-size="10.00">javolution.text.TypeFormat.parse</text>
<text text-anchor="middle" x="89" y="-51.5" font-family="Helvetica,sans-Serif" font-size="10.00">Float</text>
</a>
</g>
</g>
<!-- Node2 -->
<g id="node2" class="node">
<title>Node2</title>
<g id="a_node2"><a xlink:href="../../d2/d86/classjavolution_1_1text_1_1TypeFormat.html#ab24656881d415e357f45b6900f43fff2" target="_top" xlink:title=" ">
<polygon fill="white" stroke="black" points="214,-44.5 214,-74.5 392,-74.5 392,-44.5 214,-44.5"/>
<text text-anchor="start" x="222" y="-62.5" font-family="Helvetica,sans-Serif" font-size="10.00">javolution.text.TypeFormat.parse</text>
<text text-anchor="middle" x="303" y="-51.5" font-family="Helvetica,sans-Serif" font-size="10.00">Double</text>
</a>
</g>
</g>
<!-- Node1&#45;&gt;Node2 -->
<g id="edge1" class="edge">
<title>Node1&#45;&gt;Node2</title>
<path fill="none" stroke="midnightblue" d="M178.07,-59.5C186.57,-59.5 195.23,-59.5 203.82,-59.5"/>
<polygon fill="midnightblue" stroke="midnightblue" points="203.87,-63 213.87,-59.5 203.87,-56 203.87,-63"/>
</g>
<!-- Node3 -->
<g id="node3" class="node">
<title>Node3</title>
<g id="a_node3"><a xlink:href="../../d2/d86/classjavolution_1_1text_1_1TypeFormat.html#a4b7437436351f42d7bc6af036ea21f2f" target="_top" xlink:title=" ">
<polygon fill="white" stroke="black" points="428,-72 428,-91 610,-91 610,-72 428,-72"/>
<text text-anchor="middle" x="519" y="-79" font-family="Helvetica,sans-Serif" font-size="10.00">javolution.text.TypeFormat.match</text>
</a>
</g>
</g>
<!-- Node2&#45;&gt;Node3 -->
<g id="edge2" class="edge">
<title>Node2&#45;&gt;Node3</title>
<path fill="none" stroke="midnightblue" d="M392.28,-68.58C400.72,-69.44 409.32,-70.33 417.86,-71.21"/>
<polygon fill="midnightblue" stroke="midnightblue" points="417.54,-74.69 427.85,-72.23 418.26,-67.73 417.54,-74.69"/>
</g>
<!-- Node4 -->
<g id="node4" class="node">
<title>Node4</title>
<g id="a_node4"><a xlink:href="../../d4/d14/classjavolution_1_1lang_1_1MathLib.html#a5f4e3f66673eead84cc1e6d0b17354b4" target="_top" xlink:title=" ">
<polygon fill="white" stroke="black" points="447,-22.5 447,-52.5 591,-52.5 591,-22.5 447,-22.5"/>
<text text-anchor="start" x="455" y="-40.5" font-family="Helvetica,sans-Serif" font-size="10.00">javolution.lang.MathLib.to</text>
<text text-anchor="middle" x="519" y="-29.5" font-family="Helvetica,sans-Serif" font-size="10.00">DoublePow10</text>
</a>
</g>
</g>
<!-- Node2&#45;&gt;Node4 -->
<g id="edge3" class="edge">
<title>Node2&#45;&gt;Node4</title>
<path fill="none" stroke="midnightblue" d="M392.28,-50.42C407.06,-48.91 422.33,-47.34 436.92,-45.84"/>
<polygon fill="midnightblue" stroke="midnightblue" points="437.3,-49.31 446.89,-44.81 436.59,-42.35 437.3,-49.31"/>
</g>
<!-- Node5 -->
<g id="node5" class="node">
<title>Node5</title>
<g id="a_node5"><a xlink:href="../../d4/d14/classjavolution_1_1lang_1_1MathLib.html#a0ec25ae04f72c11735c2ba9384e87274" target="_top" xlink:title=" ">
<polygon fill="white" stroke="black" points="828.5,-44.5 828.5,-74.5 975.5,-74.5 975.5,-44.5 828.5,-44.5"/>
<text text-anchor="start" x="836.5" y="-62.5" font-family="Helvetica,sans-Serif" font-size="10.00">javolution.lang.MathLib.bit</text>
<text text-anchor="middle" x="902" y="-51.5" font-family="Helvetica,sans-Serif" font-size="10.00">Length</text>
</a>
</g>
</g>
<!-- Node4&#45;&gt;Node5 -->
<g id="edge4" class="edge">
<title>Node4&#45;&gt;Node5</title>
<path fill="none" stroke="midnightblue" d="M591.22,-41.61C655.54,-45.33 750.24,-50.79 817.98,-54.71"/>
<polygon fill="midnightblue" stroke="midnightblue" points="818,-58.21 828.19,-55.3 818.41,-51.22 818,-58.21"/>
</g>
<!-- Node6 -->
<g id="node6" class="node">
<title>Node6</title>
<g id="a_node6"><a xlink:href="../../d4/d14/classjavolution_1_1lang_1_1MathLib.html#a0c8756381acc8208279b93aae059d01f" target="_top" xlink:title=" ">
<polygon fill="white" stroke="black" points="646,-0.5 646,-30.5 790,-30.5 790,-0.5 646,-0.5"/>
<text text-anchor="start" x="654" y="-18.5" font-family="Helvetica,sans-Serif" font-size="10.00">javolution.lang.MathLib.to</text>
<text text-anchor="middle" x="718" y="-7.5" font-family="Helvetica,sans-Serif" font-size="10.00">DoublePow2</text>
</a>
</g>
</g>
<!-- Node4&#45;&gt;Node6 -->
<g id="edge5" class="edge">
<title>Node4&#45;&gt;Node6</title>
<path fill="none" stroke="midnightblue" d="M591.12,-29.56C605.63,-27.94 621,-26.22 635.82,-24.57"/>
<polygon fill="midnightblue" stroke="midnightblue" points="636.43,-28.02 645.98,-23.43 635.66,-21.06 636.43,-28.02"/>
</g>
<!-- Node6&#45;&gt;Node5 -->
<g id="edge6" class="edge">
<title>Node6&#45;&gt;Node5</title>
<path fill="none" stroke="midnightblue" d="M781.13,-30.52C796.56,-34.25 813.23,-38.28 829.09,-42.12"/>
<polygon fill="midnightblue" stroke="midnightblue" points="828.3,-45.53 838.85,-44.47 829.95,-38.72 828.3,-45.53"/>
</g>
<!-- Node7 -->
<g id="node7" class="node">
<title>Node7</title>
<g id="a_node7"><a xlink:href="../../d4/d14/classjavolution_1_1lang_1_1MathLib.html#a8e7d997979031d789ff07ff1b015537b" target="_top" xlink:title=" ">
<polygon fill="white" stroke="black" points="826,-6 826,-25 978,-25 978,-6 826,-6"/>
<text text-anchor="middle" x="902" y="-13" font-family="Helvetica,sans-Serif" font-size="10.00">javolution.lang.MathLib.exp</text>
</a>
</g>
</g>
<!-- Node6&#45;&gt;Node7 -->
<g id="edge7" class="edge">
<title>Node6&#45;&gt;Node7</title>
<path fill="none" stroke="midnightblue" d="M790.15,-15.5C798.6,-15.5 807.3,-15.5 815.92,-15.5"/>
<polygon fill="midnightblue" stroke="midnightblue" points="816,-19 826,-15.5 816,-12 816,-19"/>
</g>
<!-- Node8 -->
<g id="node8" class="node">
<title>Node8</title>
<g id="a_node8"><a xlink:href="../../d4/d14/classjavolution_1_1lang_1_1MathLib.html#a6c237605180b786b4eddbeb45925ccff" target="_top" xlink:title=" ">
<polygon fill="white" stroke="black" points="1014,-0.5 1014,-30.5 1148,-30.5 1148,-0.5 1014,-0.5"/>
<text text-anchor="start" x="1022" y="-18.5" font-family="Helvetica,sans-Serif" font-size="10.00">javolution.lang.MathLib.</text>
<text text-anchor="middle" x="1081" y="-7.5" font-family="Helvetica,sans-Serif" font-size="10.00">_ieee754_exp</text>
</a>
</g>
</g>
<!-- Node7&#45;&gt;Node8 -->
<g id="edge8" class="edge">
<title>Node7&#45;&gt;Node8</title>
<path fill="none" stroke="midnightblue" d="M978.06,-15.5C986.5,-15.5 995.11,-15.5 1003.57,-15.5"/>
<polygon fill="midnightblue" stroke="midnightblue" points="1003.79,-19 1013.79,-15.5 1003.79,-12 1003.79,-19"/>
</g>
</g>
</svg>
        <g id="navigator" transform="translate(0 0)" fill="#404254">
                <rect fill="#f2f5e9" fill-opacity="0.5" stroke="#606060" stroke-width=".5" x="0" y="0" width="60" height="60"/>
                <use id="zoomplus" xlink:href="#zoomPlus" x="17" y="9" onmousedown="handleZoom(evt,'in')"/>
                <use id="zoomminus" xlink:href="#zoomMin" x="42" y="9" onmousedown="handleZoom(evt,'out')"/>
                <use id="reset" xlink:href="#resetDef" x="30" y="36" onmousedown="handleReset()"/>
                <g id="arrowUp" xlink:href="#dirArrow" transform="translate(30 24)" onmousedown="handlePan(0,-1)">
                  <use xlink:href="#rim" fill="#404040">
                        <set attributeName="fill" to="#808080" begin="arrowUp.mouseover" end="arrowUp.mouseout"/>
                  </use>
                  <path fill="none" stroke="white" stroke-width="1.5" d="M0,-3.0v7 M-2.5,-0.5L0,-3.0L2.5,-0.5"/>
                </g>
                <g id="arrowRight" xlink:href="#dirArrow" transform="rotate(90) translate(36 -43)" onmousedown="handlePan(1,0)">
                  <use xlink:href="#rim" fill="#404040">
                        <set attributeName="fill" to="#808080" begin="arrowRight.mouseover" end="arrowRight.mouseout"/>
                  </use>
                  <path fill="none" stroke="white" stroke-width="1.5" d="M0,-3.0v7 M-2.5,-0.5L0,-3.0L2.5,-0.5"/>
                </g>
                <g id="arrowDown" xlink:href="#dirArrow" transform="rotate(180) translate(-30 -48)" onmousedown="handlePan(0,1)">
                  <use xlink:href="#rim" fill="#404040">
                        <set attributeName="fill" to="#808080" begin="arrowDown.mouseover" end="arrowDown.mouseout"/>
                  </use>
                  <path fill="none" stroke="white" stroke-width="1.5" d="M0,-3.0v7 M-2.5,-0.5L0,-3.0L2.5,-0.5"/>
                </g>
                <g id="arrowLeft" xlink:href="#dirArrow" transform="rotate(270) translate(-36 17)" onmousedown="handlePan(-1,0)">
                  <use xlink:href="#rim" fill="#404040">
                        <set attributeName="fill" to="#808080" begin="arrowLeft.mouseover" end="arrowLeft.mouseout"/>
                  </use>
                  <path fill="none" stroke="white" stroke-width="1.5" d="M0,-3.0v7 M-2.5,-0.5L0,-3.0L2.5,-0.5"/>
                </g>
        </g>
        <svg viewBox="0 0 15 15" width="100%" height="30px" preserveAspectRatio="xMaxYMin meet">
         <g id="arrow_out" transform="scale(0.3 0.3)">
          <a xlink:href="classjavolution_1_1text_1_1TypeFormat_afed4354885fcf7b034984096aa96e6e9_cgraph_org.svg" target="_base">
           <rect id="button" ry="5" rx="5" y="6" x="6" height="38" width="38"
                fill="#f2f5e9" fill-opacity="0.5" stroke="#606060" stroke-width="1.0"/>
           <path id="arrow"
             d="M 11.500037,31.436501 C 11.940474,20.09759 22.043105,11.32322 32.158766,21.979434 L 37.068811,17.246167 C 37.068811,17.246167 37.088388,32 37.088388,32 L 22.160133,31.978069 C 22.160133,31.978069 26.997745,27.140456 26.997745,27.140456 C 18.528582,18.264221 13.291696,25.230495 11.500037,31.436501 z"
             style="fill:#404040;"/>
          </a>
         </g>
        </svg>
</svg>
