<?xml version="1.0" encoding="UTF-8" standalone="no"?>
<!DOCTYPE svg PUBLIC "-//W3C//DTD SVG 1.1//EN"
 "http://www.w3.org/Graphics/SVG/1.1/DTD/svg11.dtd">
<!-- Generated by graphviz version 2.43.0 (0)
 -->
<!-- Title: javolution.text.TypeFormat.parseShort Pages: 1 -->
<!--zoomable 116 -->
<svg id="main" version="1.1" xmlns="http://www.w3.org/2000/svg" xmlns:xlink="http://www.w3.org/1999/xlink" xml:space="preserve" onload="init(evt)">
<style type="text/css"><![CDATA[
.edge:hover path { stroke: red; }
.edge:hover polygon { stroke: red; fill: red; }
]]></style>
<script type="text/javascript"><![CDATA[
var edges = document.getElementsByTagName('g');
if (edges && edges.length) {
  for (var i=0;i<edges.length;i++) {
    if (edges[i].id.substr(0,4)=='edge') {
      edges[i].setAttribute('class','edge');
    }
  }
}
]]></script>
        <defs>
                <circle id="rim" cx="0" cy="0" r="7"/>
                <circle id="rim2" cx="0" cy="0" r="3.5"/>
                <g id="zoomPlus">
                        <use xlink:href="#rim" fill="#404040">
                                <set attributeName="fill" to="#808080" begin="zoomplus.mouseover" end="zoomplus.mouseout"/>
                        </use>
                        <path d="M-4,0h8M0,-4v8" fill="none" stroke="white" stroke-width="1.5" pointer-events="none"/>
                </g>
                <g id="zoomMin">
                        <use xlink:href="#rim" fill="#404040">
                                <set attributeName="fill" to="#808080" begin="zoomminus.mouseover" end="zoomminus.mouseout"/>
                        </use>
                        <path d="M-4,0h8" fill="none" stroke="white" stroke-width="1.5" pointer-events="none"/>
                </g>
                <g id="dirArrow">
                        <path fill="none" stroke="white" stroke-width="1.5" d="M0,-3.0v7 M-2.5,-0.5L0,-3.0L2.5,-0.5"/>
                </g>
               <g id="resetDef">
                       <use xlink:href="#rim2" fill="#404040">
                               <set attributeName="fill" to="#808080" begin="reset.mouseover" end="reset.mouseout"/>
                       </use>
               </g>
        </defs>

<script type="text/javascript">
var viewWidth = 837;
var viewHeight = 116;
var sectionId = 'dynsection-36';
</script>
<script xlink:href="../../svgpan.js"/>
<svg id="graph" class="graph">
<g id="viewport">
<title>javolution.text.TypeFormat.parseShort</title>
<polygon fill="white" stroke="transparent" points="-4,4 -4,-112 833,-112 833,4 -4,4"/>
<!-- Node1 -->
<g id="node1" class="node">
<title>Node1</title>
<g id="a_node1"><a xlink:title=" ">
<polygon fill="#bfbfbf" stroke="black" points="0,-39 0,-69 178,-69 178,-39 0,-39"/>
<text text-anchor="start" x="8" y="-57" font-family="Helvetica,sans-Serif" font-size="10.00">javolution.text.TypeFormat.parse</text>
<text text-anchor="middle" x="89" y="-46" font-family="Helvetica,sans-Serif" font-size="10.00">Short</text>
</a>
</g>
</g>
<!-- Node2 -->
<g id="node2" class="node">
<title>Node2</title>
<g id="a_node2"><a xlink:href="../../d0/dce/classjavolution_1_1text_1_1Cursor.html#af9162752e17ac2bbefc3e0231e020736" target="_top" xlink:title=" ">
<polygon fill="white" stroke="black" points="227,-88.5 227,-107.5 379,-107.5 379,-88.5 227,-88.5"/>
<text text-anchor="middle" x="303" y="-95.5" font-family="Helvetica,sans-Serif" font-size="10.00">javolution.text.Cursor.atEnd</text>
</a>
</g>
</g>
<!-- Node1&#45;&gt;Node2 -->
<g id="edge1" class="edge">
<title>Node1&#45;&gt;Node2</title>
<path fill="none" stroke="midnightblue" d="M162.37,-69.02C189.79,-74.71 220.57,-81.1 246.24,-86.43"/>
<polygon fill="midnightblue" stroke="midnightblue" points="245.66,-89.88 256.17,-88.49 247.09,-83.03 245.66,-89.88"/>
</g>
<!-- Node3 -->
<g id="node3" class="node">
<title>Node3</title>
<g id="a_node3"><a xlink:href="../../d2/d86/classjavolution_1_1text_1_1TypeFormat.html#a51cfcfcc8505be7dca532d9ea13723af" target="_top" xlink:title=" ">
<polygon fill="white" stroke="black" points="214,-39 214,-69 392,-69 392,-39 214,-39"/>
<text text-anchor="start" x="222" y="-57" font-family="Helvetica,sans-Serif" font-size="10.00">javolution.text.TypeFormat.parse</text>
<text text-anchor="middle" x="303" y="-46" font-family="Helvetica,sans-Serif" font-size="10.00">Short</text>
</a>
</g>
</g>
<!-- Node1&#45;&gt;Node3 -->
<g id="edge2" class="edge">
<title>Node1&#45;&gt;Node3</title>
<path fill="none" stroke="midnightblue" d="M178.07,-54C186.57,-54 195.23,-54 203.82,-54"/>
<polygon fill="midnightblue" stroke="midnightblue" points="203.87,-57.5 213.87,-54 203.87,-50.5 203.87,-57.5"/>
</g>
<!-- Node7 -->
<g id="node7" class="node">
<title>Node7</title>
<g id="a_node7"><a xlink:href="../../d0/dce/classjavolution_1_1text_1_1Cursor.html#acab306e3d623427905f4dd191c4bf163" target="_top" xlink:title=" ">
<polygon fill="white" stroke="black" points="233,-0.5 233,-19.5 373,-19.5 373,-0.5 233,-0.5"/>
<text text-anchor="middle" x="303" y="-7.5" font-family="Helvetica,sans-Serif" font-size="10.00">javolution.text.Cursor.tail</text>
</a>
</g>
</g>
<!-- Node1&#45;&gt;Node7 -->
<g id="edge6" class="edge">
<title>Node1&#45;&gt;Node7</title>
<path fill="none" stroke="midnightblue" d="M162.37,-38.98C189.79,-33.29 220.57,-26.9 246.24,-21.57"/>
<polygon fill="midnightblue" stroke="midnightblue" points="247.09,-24.97 256.17,-19.51 245.66,-18.12 247.09,-24.97"/>
</g>
<!-- Node4 -->
<g id="node4" class="node">
<title>Node4</title>
<g id="a_node4"><a xlink:href="../../d2/d86/classjavolution_1_1text_1_1TypeFormat.html#a1fd0b02a320162fafc1abece2b57b576" target="_top" xlink:title=" ">
<polygon fill="white" stroke="black" points="428,-44.5 428,-63.5 619,-63.5 619,-44.5 428,-44.5"/>
<text text-anchor="middle" x="523.5" y="-51.5" font-family="Helvetica,sans-Serif" font-size="10.00">javolution.text.TypeFormat.parseInt</text>
</a>
</g>
</g>
<!-- Node3&#45;&gt;Node4 -->
<g id="edge3" class="edge">
<title>Node3&#45;&gt;Node4</title>
<path fill="none" stroke="midnightblue" d="M392.24,-54C400.67,-54 409.27,-54 417.83,-54"/>
<polygon fill="midnightblue" stroke="midnightblue" points="417.86,-57.5 427.86,-54 417.86,-50.5 417.86,-57.5"/>
</g>
<!-- Node5 -->
<g id="node5" class="node">
<title>Node5</title>
<g id="a_node5"><a xlink:href="../../d0/dce/classjavolution_1_1text_1_1Cursor.html#a3c05d8bae9082071d73d9ff0c2caf791" target="_top" xlink:title=" ">
<polygon fill="white" stroke="black" points="672,-61 672,-91 812,-91 812,-61 672,-61"/>
<text text-anchor="start" x="680" y="-79" font-family="Helvetica,sans-Serif" font-size="10.00">javolution.text.Cursor.get</text>
<text text-anchor="middle" x="742" y="-68" font-family="Helvetica,sans-Serif" font-size="10.00">Index</text>
</a>
</g>
</g>
<!-- Node4&#45;&gt;Node5 -->
<g id="edge4" class="edge">
<title>Node4&#45;&gt;Node5</title>
<path fill="none" stroke="midnightblue" d="M618.2,-63.52C632.73,-65 647.62,-66.51 661.79,-67.95"/>
<polygon fill="midnightblue" stroke="midnightblue" points="661.66,-71.46 671.96,-68.98 662.37,-64.49 661.66,-71.46"/>
</g>
<!-- Node6 -->
<g id="node6" class="node">
<title>Node6</title>
<g id="a_node6"><a xlink:href="../../d0/dce/classjavolution_1_1text_1_1Cursor.html#a021df95865b1703e8e34c6935c4a93ef" target="_top" xlink:title=" ">
<polygon fill="white" stroke="black" points="655,-22.5 655,-41.5 829,-41.5 829,-22.5 655,-22.5"/>
<text text-anchor="middle" x="742" y="-29.5" font-family="Helvetica,sans-Serif" font-size="10.00">javolution.text.Cursor.increment</text>
</a>
</g>
</g>
<!-- Node4&#45;&gt;Node6 -->
<g id="edge5" class="edge">
<title>Node4&#45;&gt;Node6</title>
<path fill="none" stroke="midnightblue" d="M618.2,-44.48C626.91,-43.59 635.74,-42.7 644.47,-41.81"/>
<polygon fill="midnightblue" stroke="midnightblue" points="645.07,-45.27 654.66,-40.77 644.36,-38.3 645.07,-45.27"/>
</g>
</g>
</svg>
        <g id="navigator" transform="translate(0 0)" fill="#404254">
                <rect fill="#f2f5e9" fill-opacity="0.5" stroke="#606060" stroke-width=".5" x="0" y="0" width="60" height="60"/>
                <use id="zoomplus" xlink:href="#zoomPlus" x="17" y="9" onmousedown="handleZoom(evt,'in')"/>
                <use id="zoomminus" xlink:href="#zoomMin" x="42" y="9" onmousedown="handleZoom(evt,'out')"/>
                <use id="reset" xlink:href="#resetDef" x="30" y="36" onmousedown="handleReset()"/>
                <g id="arrowUp" xlink:href="#dirArrow" transform="translate(30 24)" onmousedown="handlePan(0,-1)">
                  <use xlink:href="#rim" fill="#404040">
                        <set attributeName="fill" to="#808080" begin="arrowUp.mouseover" end="arrowUp.mouseout"/>
                  </use>
                  <path fill="none" stroke="white" stroke-width="1.5" d="M0,-3.0v7 M-2.5,-0.5L0,-3.0L2.5,-0.5"/>
                </g>
                <g id="arrowRight" xlink:href="#dirArrow" transform="rotate(90) translate(36 -43)" onmousedown="handlePan(1,0)">
                  <use xlink:href="#rim" fill="#404040">
                        <set attributeName="fill" to="#808080" begin="arrowRight.mouseover" end="arrowRight.mouseout"/>
                  </use>
                  <path fill="none" stroke="white" stroke-width="1.5" d="M0,-3.0v7 M-2.5,-0.5L0,-3.0L2.5,-0.5"/>
                </g>
                <g id="arrowDown" xlink:href="#dirArrow" transform="rotate(180) translate(-30 -48)" onmousedown="handlePan(0,1)">
                  <use xlink:href="#rim" fill="#404040">
                        <set attributeName="fill" to="#808080" begin="arrowDown.mouseover" end="arrowDown.mouseout"/>
                  </use>
                  <path fill="none" stroke="white" stroke-width="1.5" d="M0,-3.0v7 M-2.5,-0.5L0,-3.0L2.5,-0.5"/>
                </g>
                <g id="arrowLeft" xlink:href="#dirArrow" transform="rotate(270) translate(-36 17)" onmousedown="handlePan(-1,0)">
                  <use xlink:href="#rim" fill="#404040">
                        <set attributeName="fill" to="#808080" begin="arrowLeft.mouseover" end="arrowLeft.mouseout"/>
                  </use>
                  <path fill="none" stroke="white" stroke-width="1.5" d="M0,-3.0v7 M-2.5,-0.5L0,-3.0L2.5,-0.5"/>
                </g>
        </g>
        <svg viewBox="0 0 15 15" width="100%" height="30px" preserveAspectRatio="xMaxYMin meet">
         <g id="arrow_out" transform="scale(0.3 0.3)">
          <a xlink:href="classjavolution_1_1text_1_1TypeFormat_a6abb1aad0a6bbbc6d0b17b9e30c37a65_cgraph_org.svg" target="_base">
           <rect id="button" ry="5" rx="5" y="6" x="6" height="38" width="38"
                fill="#f2f5e9" fill-opacity="0.5" stroke="#606060" stroke-width="1.0"/>
           <path id="arrow"
             d="M 11.500037,31.436501 C 11.940474,20.09759 22.043105,11.32322 32.158766,21.979434 L 37.068811,17.246167 C 37.068811,17.246167 37.088388,32 37.088388,32 L 22.160133,31.978069 C 22.160133,31.978069 26.997745,27.140456 26.997745,27.140456 C 18.528582,18.264221 13.291696,25.230495 11.500037,31.436501 z"
             style="fill:#404040;"/>
          </a>
         </g>
        </svg>
</svg>
