<?xml version="1.0" encoding="UTF-8" standalone="no"?>
<!DOCTYPE svg PUBLIC "-//W3C//DTD SVG 1.1//EN"
 "http://www.w3.org/Graphics/SVG/1.1/DTD/svg11.dtd">
<!-- Generated by graphviz version 2.43.0 (0)
 -->
<!-- Title: javolution.util.internal.table.SharedTableImpl&lt; E &gt; Pages: 1 -->
<!--zoomable 645 -->
<svg id="main" version="1.1" xmlns="http://www.w3.org/2000/svg" xmlns:xlink="http://www.w3.org/1999/xlink" xml:space="preserve" onload="init(evt)">
<style type="text/css"><![CDATA[
.edge:hover path { stroke: red; }
.edge:hover polygon { stroke: red; fill: red; }
]]></style>
<script type="text/javascript"><![CDATA[
var edges = document.getElementsByTagName('g');
if (edges && edges.length) {
  for (var i=0;i<edges.length;i++) {
    if (edges[i].id.substr(0,4)=='edge') {
      edges[i].setAttribute('class','edge');
    }
  }
}
]]></script>
        <defs>
                <circle id="rim" cx="0" cy="0" r="7"/>
                <circle id="rim2" cx="0" cy="0" r="3.5"/>
                <g id="zoomPlus">
                        <use xlink:href="#rim" fill="#404040">
                                <set attributeName="fill" to="#808080" begin="zoomplus.mouseover" end="zoomplus.mouseout"/>
                        </use>
                        <path d="M-4,0h8M0,-4v8" fill="none" stroke="white" stroke-width="1.5" pointer-events="none"/>
                </g>
                <g id="zoomMin">
                        <use xlink:href="#rim" fill="#404040">
                                <set attributeName="fill" to="#808080" begin="zoomminus.mouseover" end="zoomminus.mouseout"/>
                        </use>
                        <path d="M-4,0h8" fill="none" stroke="white" stroke-width="1.5" pointer-events="none"/>
                </g>
                <g id="dirArrow">
                        <path fill="none" stroke="white" stroke-width="1.5" d="M0,-3.0v7 M-2.5,-0.5L0,-3.0L2.5,-0.5"/>
                </g>
               <g id="resetDef">
                       <use xlink:href="#rim2" fill="#404040">
                               <set attributeName="fill" to="#808080" begin="reset.mouseover" end="reset.mouseout"/>
                       </use>
               </g>
        </defs>

<script type="text/javascript">
var viewWidth = 1284;
var viewHeight = 645;
var sectionId = 'dynsection-1';
</script>
<script xlink:href="../../svgpan.js"/>
<svg id="graph" class="graph">
<g id="viewport">
<title>javolution.util.internal.table.SharedTableImpl&lt; E &gt;</title>
<polygon fill="white" stroke="transparent" points="-4,4 -4,-641.44 1280,-641.44 1280,4 -4,4"/>
<!-- Node1 -->
<g id="node1" class="node">
<title>Node1</title>
<g id="a_node1"><a xlink:title=" ">
<polygon fill="#bfbfbf" stroke="black" points="1121,-287.44 1121,-317.44 1276,-317.44 1276,-287.44 1121,-287.44"/>
<text text-anchor="start" x="1129" y="-305.44" font-family="Helvetica,sans-Serif" font-size="10.00">javolution.util.internal.table.</text>
<text text-anchor="middle" x="1198.5" y="-294.44" font-family="Helvetica,sans-Serif" font-size="10.00">SharedTableImpl&lt; E &gt;</text>
</a>
</g>
</g>
<!-- Node2 -->
<g id="node2" class="node">
<title>Node2</title>
<g id="a_node2"><a xlink:href="../../d4/dd1/classjavolution_1_1util_1_1internal_1_1collection_1_1SharedCollectionImpl.html" target="_top" xlink:title=" ">
<polygon fill="white" stroke="black" points="875,-287.44 875,-317.44 1084,-317.44 1084,-287.44 875,-287.44"/>
<text text-anchor="start" x="883" y="-305.44" font-family="Helvetica,sans-Serif" font-size="10.00">javolution::util::internal</text>
<text text-anchor="middle" x="979.5" y="-294.44" font-family="Helvetica,sans-Serif" font-size="10.00">::collection::SharedCollectionImpl&lt; E &gt;</text>
</a>
</g>
</g>
<!-- Node2&#45;&gt;Node1 -->
<g id="edge1" class="edge">
<title>Node2&#45;&gt;Node1</title>
<path fill="none" stroke="midnightblue" d="M1094.34,-302.44C1103.28,-302.44 1112.18,-302.44 1120.78,-302.44"/>
<polygon fill="midnightblue" stroke="midnightblue" points="1094.23,-298.94 1084.23,-302.44 1094.23,-305.94 1094.23,-298.94"/>
</g>
<!-- Node3 -->
<g id="node3" class="node">
<title>Node3</title>
<g id="a_node3"><a xlink:href="../../d1/d40/classjavolution_1_1util_1_1internal_1_1collection_1_1CollectionView.html" target="_top" xlink:title=" ">
<polygon fill="white" stroke="black" points="637.5,-410.44 637.5,-440.44 814.5,-440.44 814.5,-410.44 637.5,-410.44"/>
<text text-anchor="start" x="645.5" y="-428.44" font-family="Helvetica,sans-Serif" font-size="10.00">javolution::util::internal</text>
<text text-anchor="middle" x="726" y="-417.44" font-family="Helvetica,sans-Serif" font-size="10.00">::collection::CollectionView&lt; E &gt;</text>
</a>
</g>
</g>
<!-- Node3&#45;&gt;Node2 -->
<g id="edge2" class="edge">
<title>Node3&#45;&gt;Node2</title>
<path fill="none" stroke="midnightblue" d="M767.1,-405.82C817.37,-381.24 902.41,-339.65 947.8,-317.45"/>
<polygon fill="midnightblue" stroke="midnightblue" points="765.28,-402.82 757.84,-410.35 768.36,-409.1 765.28,-402.82"/>
</g>
<!-- Node4 -->
<g id="node4" class="node">
<title>Node4</title>
<g id="a_node4"><a xlink:href="../../dc/d19/classjavolution_1_1util_1_1FastCollection.html" target="_top" xlink:title=" ">
<polygon fill="white" stroke="black" points="326,-453.94 326,-472.94 516,-472.94 516,-453.94 326,-453.94"/>
<text text-anchor="middle" x="421" y="-460.94" font-family="Helvetica,sans-Serif" font-size="10.00">javolution::util::FastCollection&lt; E &gt;</text>
</a>
</g>
</g>
<!-- Node4&#45;&gt;Node3 -->
<g id="edge3" class="edge">
<title>Node4&#45;&gt;Node3</title>
<path fill="none" stroke="midnightblue" d="M517.7,-452.74C549.9,-449.01 586.03,-444.69 619,-440.44 624.99,-439.66 631.17,-438.84 637.39,-438"/>
<polygon fill="midnightblue" stroke="midnightblue" points="516.92,-449.3 507.39,-453.92 517.72,-456.26 516.92,-449.3"/>
</g>
<!-- Node5 -->
<g id="node5" class="node">
<title>Node5</title>
<g id="a_node5"><a xlink:title=" ">
<polygon fill="white" stroke="#bfbfbf" points="31,-458.94 31,-477.94 174,-477.94 174,-458.94 31,-458.94"/>
<text text-anchor="middle" x="102.5" y="-465.94" font-family="Helvetica,sans-Serif" font-size="10.00">java::util::Collection&lt; E &gt;</text>
</a>
</g>
</g>
<!-- Node5&#45;&gt;Node4 -->
<g id="edge4" class="edge">
<title>Node5&#45;&gt;Node4</title>
<path fill="none" stroke="midnightblue" d="M184.31,-467.16C227.47,-466.48 280.83,-465.63 325.86,-464.92"/>
<polygon fill="midnightblue" stroke="midnightblue" points="184.08,-463.66 174.13,-467.32 184.19,-470.66 184.08,-463.66"/>
</g>
<!-- Node8 -->
<g id="node8" class="node">
<title>Node8</title>
<g id="a_node8"><a xlink:href="../../dd/d6c/interfacejavolution_1_1util_1_1service_1_1CollectionService.html" target="_top" xlink:title=" ">
<polygon fill="white" stroke="black" points="353,-492.44 353,-522.44 489,-522.44 489,-492.44 353,-492.44"/>
<text text-anchor="start" x="361" y="-510.44" font-family="Helvetica,sans-Serif" font-size="10.00">javolution::util::service</text>
<text text-anchor="middle" x="421" y="-499.44" font-family="Helvetica,sans-Serif" font-size="10.00">::CollectionService&lt; E &gt;</text>
</a>
</g>
</g>
<!-- Node5&#45;&gt;Node8 -->
<g id="edge8" class="edge">
<title>Node5&#45;&gt;Node8</title>
<path fill="none" stroke="midnightblue" d="M184.36,-478.4C236.54,-484.83 303.6,-493.09 352.83,-499.16"/>
<polygon fill="midnightblue" stroke="midnightblue" points="184.49,-474.89 174.13,-477.14 183.63,-481.84 184.49,-474.89"/>
</g>
<!-- Node6 -->
<g id="node6" class="node">
<title>Node6</title>
<g id="a_node6"><a xlink:title=" ">
<polygon fill="white" stroke="#bfbfbf" points="65.5,-380.94 65.5,-399.94 139.5,-399.94 139.5,-380.94 65.5,-380.94"/>
<text text-anchor="middle" x="102.5" y="-387.94" font-family="Helvetica,sans-Serif" font-size="10.00">Serializable</text>
</a>
</g>
</g>
<!-- Node6&#45;&gt;Node4 -->
<g id="edge5" class="edge">
<title>Node6&#45;&gt;Node4</title>
<path fill="none" stroke="midnightblue" d="M149.68,-392.63C192.52,-396.17 257.13,-405.39 308,-429.44 317.41,-433.89 316.61,-439.93 326,-444.44 334.11,-448.32 342.98,-451.41 351.93,-453.88"/>
<polygon fill="midnightblue" stroke="midnightblue" points="149.78,-389.13 139.54,-391.87 149.25,-396.11 149.78,-389.13"/>
</g>
<!-- Node6&#45;&gt;Node8 -->
<g id="edge10" class="edge">
<title>Node6&#45;&gt;Node8</title>
<path fill="none" stroke="midnightblue" d="M133.16,-404.18C175.37,-423.39 255.46,-458.59 326,-482.44 336.48,-485.98 347.75,-489.34 358.72,-492.39"/>
<polygon fill="midnightblue" stroke="midnightblue" points="134.56,-400.97 124.01,-399.99 131.65,-407.33 134.56,-400.97"/>
</g>
<!-- Node12 -->
<g id="node12" class="node">
<title>Node12</title>
<g id="a_node12"><a xlink:href="../../db/d38/classjavolution_1_1util_1_1internal_1_1collection_1_1ReadWriteLockImpl.html" target="_top" xlink:title=" ">
<polygon fill="white" stroke="black" points="637,-169.44 637,-199.44 815,-199.44 815,-169.44 637,-169.44"/>
<text text-anchor="start" x="645" y="-187.44" font-family="Helvetica,sans-Serif" font-size="10.00">javolution.util.internal.collection.</text>
<text text-anchor="middle" x="726" y="-176.44" font-family="Helvetica,sans-Serif" font-size="10.00">ReadWriteLockImpl</text>
</a>
</g>
</g>
<!-- Node6&#45;&gt;Node12 -->
<g id="edge16" class="edge">
<title>Node6&#45;&gt;Node12</title>
<path fill="none" stroke="midnightblue" d="M150.04,-395.26C227.56,-401.81 387.33,-408.99 516,-373.44 566.22,-359.56 579.08,-350.92 619,-317.44 661.76,-281.57 699.16,-226.17 715.8,-199.63"/>
<polygon fill="midnightblue" stroke="midnightblue" points="149.92,-391.73 139.65,-394.34 149.31,-398.71 149.92,-391.73"/>
</g>
<!-- Node16 -->
<g id="node16" class="node">
<title>Node16</title>
<g id="a_node16"><a xlink:href="../../d8/dd0/classjavolution_1_1util_1_1internal_1_1collection_1_1ReadWriteLockImpl_1_1WriteLock.html" target="_top" xlink:title=" ">
<polygon fill="white" stroke="black" points="332,-143.44 332,-173.44 510,-173.44 510,-143.44 332,-143.44"/>
<text text-anchor="start" x="340" y="-161.44" font-family="Helvetica,sans-Serif" font-size="10.00">javolution.util.internal.collection.</text>
<text text-anchor="middle" x="421" y="-150.44" font-family="Helvetica,sans-Serif" font-size="10.00">ReadWriteLockImpl.WriteLock</text>
</a>
</g>
</g>
<!-- Node6&#45;&gt;Node16 -->
<g id="edge22" class="edge">
<title>Node6&#45;&gt;Node16</title>
<path fill="none" stroke="midnightblue" d="M120.37,-373.36C141.42,-351.61 177.95,-312.4 205,-275.44 214.18,-262.89 210.85,-255.14 223,-245.44 254.07,-220.6 277.76,-243.27 308,-217.44 321.3,-206.07 312.32,-193.34 326,-182.44 330.35,-178.97 335.13,-176 340.18,-173.46"/>
<polygon fill="midnightblue" stroke="midnightblue" points="117.59,-371.2 113.11,-380.8 122.6,-376.09 117.59,-371.2"/>
</g>
<!-- Node18 -->
<g id="node18" class="node">
<title>Node18</title>
<g id="a_node18"><a xlink:href="../../d4/d2b/classjavolution_1_1util_1_1internal_1_1collection_1_1ReadWriteLockImpl_1_1ReadLock.html" target="_top" xlink:title=" ">
<polygon fill="white" stroke="black" points="332,-192.44 332,-222.44 510,-222.44 510,-192.44 332,-192.44"/>
<text text-anchor="start" x="340" y="-210.44" font-family="Helvetica,sans-Serif" font-size="10.00">javolution.util.internal.collection.</text>
<text text-anchor="middle" x="421" y="-199.44" font-family="Helvetica,sans-Serif" font-size="10.00">ReadWriteLockImpl.ReadLock</text>
</a>
</g>
</g>
<!-- Node6&#45;&gt;Node18 -->
<g id="edge26" class="edge">
<title>Node6&#45;&gt;Node18</title>
<path fill="none" stroke="midnightblue" d="M122.78,-374.22C159.93,-343.69 244.94,-277.16 326,-237.44 337.69,-231.71 350.72,-226.73 363.27,-222.58"/>
<polygon fill="midnightblue" stroke="midnightblue" points="120.27,-371.77 114.8,-380.84 124.73,-377.16 120.27,-371.77"/>
</g>
<!-- Node7 -->
<g id="node7" class="node">
<title>Node7</title>
<g id="a_node7"><a xlink:title=" ">
<polygon fill="white" stroke="#bfbfbf" points="56.5,-246.94 56.5,-265.94 148.5,-265.94 148.5,-246.94 56.5,-246.94"/>
<text text-anchor="middle" x="102.5" y="-253.94" font-family="Helvetica,sans-Serif" font-size="10.00">static final long</text>
</a>
</g>
</g>
<!-- Node7&#45;&gt;Node1 -->
<g id="edge34" class="edge">
<title>Node7&#45;&gt;Node1</title>
<path fill="none" stroke="#9a32cd" stroke-dasharray="5,2" d="M114.67,-238.31C143.48,-193.22 225.19,-75.58 326,-19.44 363.24,1.31 377.38,-0.44 420,-0.44 420,-0.44 420,-0.44 980.5,-0.44 1123.18,-0.44 1181.23,-225.5 1194.44,-287.04"/>
<polygon fill="#9a32cd" stroke="#9a32cd" points="111.7,-236.46 109.33,-246.78 117.62,-240.18 111.7,-236.46"/>
<text text-anchor="middle" x="726" y="-3.44" font-family="Helvetica,sans-Serif" font-size="10.00"> serialVersionUID</text>
</g>
<!-- Node7&#45;&gt;Node2 -->
<g id="edge28" class="edge">
<title>Node7&#45;&gt;Node2</title>
<path fill="none" stroke="#9a32cd" stroke-dasharray="5,2" d="M158.56,-262.03C178.81,-263.95 201.93,-265.98 223,-267.44 455.67,-283.52 729.18,-294.14 874.85,-299.13"/>
<polygon fill="#9a32cd" stroke="#9a32cd" points="158.86,-258.54 148.57,-261.07 158.19,-265.51 158.86,-258.54"/>
<text text-anchor="middle" x="576.5" y="-291.44" font-family="Helvetica,sans-Serif" font-size="10.00"> serialVersionUID</text>
</g>
<!-- Node7&#45;&gt;Node3 -->
<g id="edge13" class="edge">
<title>Node7&#45;&gt;Node3</title>
<path fill="none" stroke="#9a32cd" stroke-dasharray="5,2" d="M127.77,-271.21C151.34,-284.97 188.52,-305.16 223,-317.44 363.89,-367.58 535.68,-398.38 637.39,-413.66"/>
<polygon fill="#9a32cd" stroke="#9a32cd" points="129.53,-268.18 119.14,-266.1 125.96,-274.21 129.53,-268.18"/>
<text text-anchor="middle" x="421" y="-395.44" font-family="Helvetica,sans-Serif" font-size="10.00"> serialVersionUID</text>
</g>
<!-- Node7&#45;&gt;Node4 -->
<g id="edge6" class="edge">
<title>Node7&#45;&gt;Node4</title>
<path fill="none" stroke="#9a32cd" stroke-dasharray="5,2" d="M123.8,-272.27C147.14,-290.18 186.9,-319.8 223,-342.44 259.4,-365.25 280.56,-355.38 308,-388.44 324.7,-408.55 306.51,-427.01 326,-444.44 330.22,-448.21 334.98,-451.31 340.05,-453.86"/>
<polygon fill="#9a32cd" stroke="#9a32cd" points="125.75,-269.35 115.7,-266.01 121.47,-274.89 125.75,-269.35"/>
<text text-anchor="middle" x="265.5" y="-391.44" font-family="Helvetica,sans-Serif" font-size="10.00"> serialVersionUID</text>
</g>
<!-- Node7&#45;&gt;Node12 -->
<g id="edge19" class="edge">
<title>Node7&#45;&gt;Node12</title>
<path fill="none" stroke="#9a32cd" stroke-dasharray="5,2" d="M158.86,-256.9C254.07,-256.61 454.5,-251.17 619,-214.44 637.85,-210.23 658.33,-204.67 676.21,-199.48"/>
<polygon fill="#9a32cd" stroke="#9a32cd" points="158.59,-253.41 148.6,-256.92 158.6,-260.41 158.59,-253.41"/>
<text text-anchor="middle" x="421" y="-254.44" font-family="Helvetica,sans-Serif" font-size="10.00"> serialVersionUID</text>
</g>
<!-- Node7&#45;&gt;Node16 -->
<g id="edge23" class="edge">
<title>Node7&#45;&gt;Node16</title>
<path fill="none" stroke="#9a32cd" stroke-dasharray="5,2" d="M132.17,-242.57C156.06,-231.42 191.18,-215.94 223,-205.44 262.23,-192.49 306.95,-181.52 343.86,-173.45"/>
<polygon fill="#9a32cd" stroke="#9a32cd" points="130.53,-239.48 122.98,-246.91 133.52,-245.81 130.53,-239.48"/>
<text text-anchor="middle" x="265.5" y="-208.44" font-family="Helvetica,sans-Serif" font-size="10.00"> serialVersionUID</text>
</g>
<!-- Node7&#45;&gt;Node18 -->
<g id="edge27" class="edge">
<title>Node7&#45;&gt;Node18</title>
<path fill="none" stroke="#9a32cd" stroke-dasharray="5,2" d="M154.83,-244.7C175.88,-240.14 200.54,-235.15 223,-231.44 258.35,-225.59 297.49,-220.54 331.51,-216.59"/>
<polygon fill="#9a32cd" stroke="#9a32cd" points="153.84,-241.33 144.82,-246.89 155.33,-248.17 153.84,-241.33"/>
<text text-anchor="middle" x="265.5" y="-234.44" font-family="Helvetica,sans-Serif" font-size="10.00"> serialVersionUID</text>
</g>
<!-- Node8&#45;&gt;Node3 -->
<g id="edge7" class="edge">
<title>Node8&#45;&gt;Node3</title>
<path fill="none" stroke="midnightblue" d="M496.76,-489.92C533.68,-481 578.82,-469.67 619,-458.44 638.67,-452.93 660.23,-446.33 678.74,-440.48"/>
<polygon fill="midnightblue" stroke="midnightblue" points="495.48,-486.63 486.57,-492.37 497.11,-493.44 495.48,-486.63"/>
</g>
<!-- Node19 -->
<g id="node19" class="node">
<title>Node19</title>
<g id="a_node19"><a xlink:href="../../df/d88/interfacejavolution_1_1util_1_1service_1_1TableService.html" target="_top" xlink:title=" ">
<polygon fill="white" stroke="black" points="662,-536.44 662,-566.44 790,-566.44 790,-536.44 662,-536.44"/>
<text text-anchor="start" x="670" y="-554.44" font-family="Helvetica,sans-Serif" font-size="10.00">javolution::util::service</text>
<text text-anchor="middle" x="726" y="-543.44" font-family="Helvetica,sans-Serif" font-size="10.00">::TableService&lt; E &gt;</text>
</a>
</g>
</g>
<!-- Node8&#45;&gt;Node19 -->
<g id="edge30" class="edge">
<title>Node8&#45;&gt;Node19</title>
<path fill="none" stroke="midnightblue" d="M499.43,-518.68C549.78,-525.99 614.6,-535.4 661.82,-542.26"/>
<polygon fill="midnightblue" stroke="midnightblue" points="499.64,-515.17 489.25,-517.2 498.64,-522.1 499.64,-515.17"/>
</g>
<!-- Node9 -->
<g id="node9" class="node">
<title>Node9</title>
<g id="a_node9"><a xlink:href="../../dd/ded/interfacejavolution_1_1util_1_1function_1_1Splittable.html" target="_top" xlink:title=" ">
<polygon fill="white" stroke="black" points="0,-500.44 0,-530.44 205,-530.44 205,-500.44 0,-500.44"/>
<text text-anchor="start" x="8" y="-518.44" font-family="Helvetica,sans-Serif" font-size="10.00">javolution::util::function</text>
<text text-anchor="middle" x="102.5" y="-507.44" font-family="Helvetica,sans-Serif" font-size="10.00">::Splittable&lt; CollectionService&lt; E &gt; &gt;</text>
</a>
</g>
</g>
<!-- Node9&#45;&gt;Node8 -->
<g id="edge9" class="edge">
<title>Node9&#45;&gt;Node8</title>
<path fill="none" stroke="midnightblue" d="M215.39,-512.61C261.27,-511.45 312.85,-510.14 352.75,-509.13"/>
<polygon fill="midnightblue" stroke="midnightblue" points="215.29,-509.11 205.38,-512.86 215.47,-516.11 215.29,-509.11"/>
</g>
<!-- Node10 -->
<g id="node10" class="node">
<title>Node10</title>
<g id="a_node10"><a xlink:href="../../d5/d48/classCloneable.html" target="_top" xlink:title=" ">
<polygon fill="white" stroke="black" points="70,-549.94 70,-568.94 135,-568.94 135,-549.94 70,-549.94"/>
<text text-anchor="middle" x="102.5" y="-556.94" font-family="Helvetica,sans-Serif" font-size="10.00">Cloneable</text>
</a>
</g>
</g>
<!-- Node10&#45;&gt;Node8 -->
<g id="edge11" class="edge">
<title>Node10&#45;&gt;Node8</title>
<path fill="none" stroke="midnightblue" d="M145.04,-552.61C197.9,-543.92 289.91,-528.81 352.81,-518.47"/>
<polygon fill="midnightblue" stroke="midnightblue" points="144.3,-549.18 135,-554.26 145.44,-556.09 144.3,-549.18"/>
</g>
<!-- Node11 -->
<g id="node11" class="node">
<title>Node11</title>
<g id="a_node11"><a xlink:title=" ">
<polygon fill="white" stroke="#bfbfbf" points="356,-415.94 356,-434.94 486,-434.94 486,-415.94 356,-415.94"/>
<text text-anchor="middle" x="421" y="-422.94" font-family="Helvetica,sans-Serif" font-size="10.00">CollectionService&lt; E &gt;</text>
</a>
</g>
</g>
<!-- Node11&#45;&gt;Node3 -->
<g id="edge12" class="edge">
<title>Node11&#45;&gt;Node3</title>
<path fill="none" stroke="#9a32cd" stroke-dasharray="5,2" d="M496.28,-425.44C538.88,-425.44 592.6,-425.44 637.27,-425.44"/>
<polygon fill="#9a32cd" stroke="#9a32cd" points="496.26,-421.94 486.26,-425.44 496.26,-428.94 496.26,-421.94"/>
<text text-anchor="middle" x="576.5" y="-428.44" font-family="Helvetica,sans-Serif" font-size="10.00"> target</text>
</g>
<!-- Node12&#45;&gt;Node2 -->
<g id="edge14" class="edge">
<title>Node12&#45;&gt;Node2</title>
<path fill="none" stroke="#9a32cd" stroke-dasharray="5,2" d="M768.31,-203.82C818.12,-227.19 900.79,-265.97 946.19,-287.27"/>
<polygon fill="#9a32cd" stroke="#9a32cd" points="769.65,-200.58 759.11,-199.5 766.67,-206.92 769.65,-200.58"/>
<text text-anchor="middle" x="845" y="-246.44" font-family="Helvetica,sans-Serif" font-size="10.00"> lock</text>
</g>
<!-- Node13 -->
<g id="node13" class="node">
<title>Node13</title>
<g id="a_node13"><a xlink:title=" ">
<polygon fill="white" stroke="#bfbfbf" points="376,-28.94 376,-47.94 466,-47.94 466,-28.94 376,-28.94"/>
<text text-anchor="middle" x="421" y="-35.94" font-family="Helvetica,sans-Serif" font-size="10.00">ReadWriteLock</text>
</a>
</g>
</g>
<!-- Node13&#45;&gt;Node12 -->
<g id="edge15" class="edge">
<title>Node13&#45;&gt;Node12</title>
<path fill="none" stroke="midnightblue" d="M476.5,-43.03C517.75,-48.38 574.69,-59.86 619,-84.44 659.05,-106.64 695.45,-147.44 713.35,-169.43"/>
<polygon fill="midnightblue" stroke="midnightblue" points="476.71,-39.53 466.36,-41.8 475.87,-46.48 476.71,-39.53"/>
</g>
<!-- Node14 -->
<g id="node14" class="node">
<title>Node14</title>
<g id="a_node14"><a xlink:title=" ">
<polygon fill="white" stroke="#bfbfbf" points="406.5,-104.94 406.5,-123.94 435.5,-123.94 435.5,-104.94 406.5,-104.94"/>
<text text-anchor="middle" x="421" y="-111.94" font-family="Helvetica,sans-Serif" font-size="10.00">int</text>
</a>
</g>
</g>
<!-- Node14&#45;&gt;Node12 -->
<g id="edge17" class="edge">
<title>Node14&#45;&gt;Node12</title>
<path fill="none" stroke="#9a32cd" stroke-dasharray="5,2" d="M445.98,-116.01C483.43,-118.88 557.87,-126.23 619,-142.44 644.45,-149.18 672.06,-160.26 692.73,-169.34"/>
<polygon fill="#9a32cd" stroke="#9a32cd" points="445.82,-112.49 435.59,-115.26 445.32,-119.47 445.82,-112.49"/>
<text text-anchor="middle" x="576.5" y="-156.44" font-family="Helvetica,sans-Serif" font-size="10.00"> givenLocks</text>
<text text-anchor="middle" x="576.5" y="-145.44" font-family="Helvetica,sans-Serif" font-size="10.00">waitingWriters</text>
</g>
<!-- Node15 -->
<g id="node15" class="node">
<title>Node15</title>
<g id="a_node15"><a xlink:title=" ">
<polygon fill="white" stroke="#bfbfbf" points="372.5,-66.94 372.5,-85.94 469.5,-85.94 469.5,-66.94 372.5,-66.94"/>
<text text-anchor="middle" x="421" y="-73.94" font-family="Helvetica,sans-Serif" font-size="10.00">transient Thread</text>
</a>
</g>
</g>
<!-- Node15&#45;&gt;Node12 -->
<g id="edge18" class="edge">
<title>Node15&#45;&gt;Node12</title>
<path fill="none" stroke="#9a32cd" stroke-dasharray="5,2" d="M479.92,-80.2C520.16,-84.37 574.36,-93.11 619,-111.44 653.52,-125.6 688.11,-152.35 707.99,-169.24"/>
<polygon fill="#9a32cd" stroke="#9a32cd" points="480.04,-76.7 469.75,-79.22 479.36,-83.67 480.04,-76.7"/>
<text text-anchor="middle" x="576.5" y="-114.44" font-family="Helvetica,sans-Serif" font-size="10.00"> writerThread</text>
</g>
<!-- Node16&#45;&gt;Node12 -->
<g id="edge20" class="edge">
<title>Node16&#45;&gt;Node12</title>
<path fill="none" stroke="#9a32cd" stroke-dasharray="5,2" d="M520.49,-166.89C558.02,-170.11 600.51,-173.75 637,-176.88"/>
<polygon fill="#9a32cd" stroke="#9a32cd" points="520.31,-163.36 510.05,-165.99 519.71,-170.33 520.31,-163.36"/>
<text text-anchor="middle" x="576.5" y="-178.44" font-family="Helvetica,sans-Serif" font-size="10.00"> writeLock</text>
</g>
<!-- Node17 -->
<g id="node17" class="node">
<title>Node17</title>
<g id="a_node17"><a xlink:title=" ">
<polygon fill="white" stroke="#bfbfbf" points="83,-60.94 83,-79.94 122,-79.94 122,-60.94 83,-60.94"/>
<text text-anchor="middle" x="102.5" y="-67.94" font-family="Helvetica,sans-Serif" font-size="10.00">Lock</text>
</a>
</g>
</g>
<!-- Node17&#45;&gt;Node16 -->
<g id="edge21" class="edge">
<title>Node17&#45;&gt;Node16</title>
<path fill="none" stroke="midnightblue" d="M132.11,-76.04C172.18,-84.33 246.98,-101.4 308,-124.44 316.37,-127.59 317.63,-130.27 326,-133.44 335.63,-137.08 346.01,-140.41 356.24,-143.36"/>
<polygon fill="midnightblue" stroke="midnightblue" points="132.73,-72.6 122.23,-74.03 131.33,-79.46 132.73,-72.6"/>
</g>
<!-- Node17&#45;&gt;Node18 -->
<g id="edge25" class="edge">
<title>Node17&#45;&gt;Node18</title>
<path fill="none" stroke="midnightblue" d="M121.03,-86.85C143.14,-106.68 183.09,-139.68 223,-158.44 256.97,-174.4 296.77,-185.56 331.67,-193.15"/>
<polygon fill="midnightblue" stroke="midnightblue" points="123.22,-84.11 113.47,-79.96 118.5,-89.28 123.22,-84.11"/>
</g>
<!-- Node18&#45;&gt;Node12 -->
<g id="edge24" class="edge">
<title>Node18&#45;&gt;Node12</title>
<path fill="none" stroke="#9a32cd" stroke-dasharray="5,2" d="M520.49,-199.96C558.02,-197.11 600.51,-193.89 637,-191.12"/>
<polygon fill="#9a32cd" stroke="#9a32cd" points="519.75,-196.5 510.05,-200.75 520.28,-203.48 519.75,-196.5"/>
<text text-anchor="middle" x="576.5" y="-202.44" font-family="Helvetica,sans-Serif" font-size="10.00"> readLock</text>
</g>
<!-- Node19&#45;&gt;Node1 -->
<g id="edge29" class="edge">
<title>Node19&#45;&gt;Node1</title>
<path fill="none" stroke="midnightblue" d="M764.25,-531.72C855.37,-483.5 1087.99,-360.39 1169.09,-317.47"/>
<polygon fill="midnightblue" stroke="midnightblue" points="762.57,-528.65 755.37,-536.42 765.85,-534.84 762.57,-528.65"/>
</g>
<!-- Node20 -->
<g id="node20" class="node">
<title>Node20</title>
<g id="a_node20"><a xlink:title=" ">
<polygon fill="white" stroke="#bfbfbf" points="365.5,-617.94 365.5,-636.94 476.5,-636.94 476.5,-617.94 365.5,-617.94"/>
<text text-anchor="middle" x="421" y="-624.94" font-family="Helvetica,sans-Serif" font-size="10.00">java::util::List&lt; E &gt;</text>
</a>
</g>
</g>
<!-- Node20&#45;&gt;Node19 -->
<g id="edge31" class="edge">
<title>Node20&#45;&gt;Node19</title>
<path fill="none" stroke="midnightblue" d="M480.92,-615.8C492.56,-613.43 504.68,-610.9 516,-608.44 561.93,-598.44 573.64,-596.76 619,-584.44 638.9,-579.03 660.68,-572.37 679.3,-566.46"/>
<polygon fill="midnightblue" stroke="midnightblue" points="479.95,-612.43 470.85,-617.85 481.34,-619.29 479.95,-612.43"/>
</g>
<!-- Node21 -->
<g id="node21" class="node">
<title>Node21</title>
<g id="a_node21"><a xlink:title=" ">
<polygon fill="white" stroke="#bfbfbf" points="358.5,-579.94 358.5,-598.94 483.5,-598.94 483.5,-579.94 358.5,-579.94"/>
<text text-anchor="middle" x="421" y="-586.94" font-family="Helvetica,sans-Serif" font-size="10.00">java::util::Deque&lt; E &gt;</text>
</a>
</g>
</g>
<!-- Node21&#45;&gt;Node19 -->
<g id="edge32" class="edge">
<title>Node21&#45;&gt;Node19</title>
<path fill="none" stroke="midnightblue" d="M493.96,-580.84C531.28,-576.34 577.6,-570.69 619,-565.44 632.9,-563.67 647.83,-561.73 661.96,-559.87"/>
<polygon fill="midnightblue" stroke="midnightblue" points="493.2,-577.41 483.69,-582.08 494.03,-584.36 493.2,-577.41"/>
</g>
<!-- Node22 -->
<g id="node22" class="node">
<title>Node22</title>
<g id="a_node22"><a xlink:title=" ">
<polygon fill="white" stroke="#bfbfbf" points="375.5,-541.94 375.5,-560.94 466.5,-560.94 466.5,-541.94 375.5,-541.94"/>
<text text-anchor="middle" x="421" y="-548.94" font-family="Helvetica,sans-Serif" font-size="10.00">RandomAccess</text>
</a>
</g>
</g>
<!-- Node22&#45;&gt;Node19 -->
<g id="edge33" class="edge">
<title>Node22&#45;&gt;Node19</title>
<path fill="none" stroke="midnightblue" d="M476.76,-551.44C528.87,-551.44 607.21,-551.44 661.9,-551.44"/>
<polygon fill="midnightblue" stroke="midnightblue" points="476.71,-547.94 466.71,-551.44 476.71,-554.94 476.71,-547.94"/>
</g>
</g>
</svg>
        <g id="navigator" transform="translate(0 0)" fill="#404254">
                <rect fill="#f2f5e9" fill-opacity="0.5" stroke="#606060" stroke-width=".5" x="0" y="0" width="60" height="60"/>
                <use id="zoomplus" xlink:href="#zoomPlus" x="17" y="9" onmousedown="handleZoom(evt,'in')"/>
                <use id="zoomminus" xlink:href="#zoomMin" x="42" y="9" onmousedown="handleZoom(evt,'out')"/>
                <use id="reset" xlink:href="#resetDef" x="30" y="36" onmousedown="handleReset()"/>
                <g id="arrowUp" xlink:href="#dirArrow" transform="translate(30 24)" onmousedown="handlePan(0,-1)">
                  <use xlink:href="#rim" fill="#404040">
                        <set attributeName="fill" to="#808080" begin="arrowUp.mouseover" end="arrowUp.mouseout"/>
                  </use>
                  <path fill="none" stroke="white" stroke-width="1.5" d="M0,-3.0v7 M-2.5,-0.5L0,-3.0L2.5,-0.5"/>
                </g>
                <g id="arrowRight" xlink:href="#dirArrow" transform="rotate(90) translate(36 -43)" onmousedown="handlePan(1,0)">
                  <use xlink:href="#rim" fill="#404040">
                        <set attributeName="fill" to="#808080" begin="arrowRight.mouseover" end="arrowRight.mouseout"/>
                  </use>
                  <path fill="none" stroke="white" stroke-width="1.5" d="M0,-3.0v7 M-2.5,-0.5L0,-3.0L2.5,-0.5"/>
                </g>
                <g id="arrowDown" xlink:href="#dirArrow" transform="rotate(180) translate(-30 -48)" onmousedown="handlePan(0,1)">
                  <use xlink:href="#rim" fill="#404040">
                        <set attributeName="fill" to="#808080" begin="arrowDown.mouseover" end="arrowDown.mouseout"/>
                  </use>
                  <path fill="none" stroke="white" stroke-width="1.5" d="M0,-3.0v7 M-2.5,-0.5L0,-3.0L2.5,-0.5"/>
                </g>
                <g id="arrowLeft" xlink:href="#dirArrow" transform="rotate(270) translate(-36 17)" onmousedown="handlePan(-1,0)">
                  <use xlink:href="#rim" fill="#404040">
                        <set attributeName="fill" to="#808080" begin="arrowLeft.mouseover" end="arrowLeft.mouseout"/>
                  </use>
                  <path fill="none" stroke="white" stroke-width="1.5" d="M0,-3.0v7 M-2.5,-0.5L0,-3.0L2.5,-0.5"/>
                </g>
        </g>
        <svg viewBox="0 0 15 15" width="100%" height="30px" preserveAspectRatio="xMaxYMin meet">
         <g id="arrow_out" transform="scale(0.3 0.3)">
          <a xlink:href="classjavolution_1_1util_1_1internal_1_1table_1_1SharedTableImpl__coll__graph_org.svg" target="_base">
           <rect id="button" ry="5" rx="5" y="6" x="6" height="38" width="38"
                fill="#f2f5e9" fill-opacity="0.5" stroke="#606060" stroke-width="1.0"/>
           <path id="arrow"
             d="M 11.500037,31.436501 C 11.940474,20.09759 22.043105,11.32322 32.158766,21.979434 L 37.068811,17.246167 C 37.068811,17.246167 37.088388,32 37.088388,32 L 22.160133,31.978069 C 22.160133,31.978069 26.997745,27.140456 26.997745,27.140456 C 18.528582,18.264221 13.291696,25.230495 11.500037,31.436501 z"
             style="fill:#404040;"/>
          </a>
         </g>
        </svg>
</svg>
