<?xml version="1.0" encoding="UTF-8" standalone="no"?>
<!DOCTYPE svg PUBLIC "-//W3C//DTD SVG 1.1//EN"
 "http://www.w3.org/Graphics/SVG/1.1/DTD/svg11.dtd">
<!-- Generated by graphviz version 2.43.0 (0)
 -->
<!-- Title: javolution.util.internal.map.MapView&lt; K, V &gt;.EntrySet Pages: 1 -->
<!--zoomable 359 -->
<svg id="main" version="1.1" xmlns="http://www.w3.org/2000/svg" xmlns:xlink="http://www.w3.org/1999/xlink" xml:space="preserve" onload="init(evt)">
<style type="text/css"><![CDATA[
.edge:hover path { stroke: red; }
.edge:hover polygon { stroke: red; fill: red; }
]]></style>
<script type="text/javascript"><![CDATA[
var edges = document.getElementsByTagName('g');
if (edges && edges.length) {
  for (var i=0;i<edges.length;i++) {
    if (edges[i].id.substr(0,4)=='edge') {
      edges[i].setAttribute('class','edge');
    }
  }
}
]]></script>
        <defs>
                <circle id="rim" cx="0" cy="0" r="7"/>
                <circle id="rim2" cx="0" cy="0" r="3.5"/>
                <g id="zoomPlus">
                        <use xlink:href="#rim" fill="#404040">
                                <set attributeName="fill" to="#808080" begin="zoomplus.mouseover" end="zoomplus.mouseout"/>
                        </use>
                        <path d="M-4,0h8M0,-4v8" fill="none" stroke="white" stroke-width="1.5" pointer-events="none"/>
                </g>
                <g id="zoomMin">
                        <use xlink:href="#rim" fill="#404040">
                                <set attributeName="fill" to="#808080" begin="zoomminus.mouseover" end="zoomminus.mouseout"/>
                        </use>
                        <path d="M-4,0h8" fill="none" stroke="white" stroke-width="1.5" pointer-events="none"/>
                </g>
                <g id="dirArrow">
                        <path fill="none" stroke="white" stroke-width="1.5" d="M0,-3.0v7 M-2.5,-0.5L0,-3.0L2.5,-0.5"/>
                </g>
               <g id="resetDef">
                       <use xlink:href="#rim2" fill="#404040">
                               <set attributeName="fill" to="#808080" begin="reset.mouseover" end="reset.mouseout"/>
                       </use>
               </g>
        </defs>

<script type="text/javascript">
var viewWidth = 1221;
var viewHeight = 359;
var sectionId = 'dynsection-1';
</script>
<script xlink:href="../../svgpan.js"/>
<svg id="graph" class="graph">
<g id="viewport">
<title>javolution.util.internal.map.MapView&lt; K, V &gt;.EntrySet</title>
<polygon fill="white" stroke="transparent" points="-4,4 -4,-354.5 1217,-354.5 1217,4 -4,4"/>
<!-- Node1 -->
<g id="node1" class="node">
<title>Node1</title>
<g id="a_node1"><a xlink:title=" ">
<polygon fill="#bfbfbf" stroke="black" points="1061,-245.5 1061,-275.5 1213,-275.5 1213,-245.5 1061,-245.5"/>
<text text-anchor="start" x="1069" y="-263.5" font-family="Helvetica,sans-Serif" font-size="10.00">javolution.util.internal.map.</text>
<text text-anchor="middle" x="1137" y="-252.5" font-family="Helvetica,sans-Serif" font-size="10.00">MapView&lt; K, V &gt;.EntrySet</text>
</a>
</g>
</g>
<!-- Node2 -->
<g id="node2" class="node">
<title>Node2</title>
<g id="a_node2"><a xlink:href="../../db/dea/classjavolution_1_1util_1_1internal_1_1set_1_1SetView.html" target="_top" xlink:title=" ">
<polygon fill="white" stroke="black" points="851,-215.5 851,-245.5 1024,-245.5 1024,-215.5 851,-215.5"/>
<text text-anchor="start" x="859" y="-233.5" font-family="Helvetica,sans-Serif" font-size="10.00">javolution::util::internal</text>
<text text-anchor="middle" x="937.5" y="-222.5" font-family="Helvetica,sans-Serif" font-size="10.00">::set::SetView&lt; Entry&lt; K, V &gt; &gt;</text>
</a>
</g>
</g>
<!-- Node2&#45;&gt;Node1 -->
<g id="edge1" class="edge">
<title>Node2&#45;&gt;Node1</title>
<path fill="none" stroke="midnightblue" d="M1034.3,-245.05C1043.22,-246.41 1052.16,-247.77 1060.85,-249.08"/>
<polygon fill="midnightblue" stroke="midnightblue" points="1034.68,-241.57 1024.26,-243.53 1033.63,-248.49 1034.68,-241.57"/>
</g>
<!-- Node3 -->
<g id="node3" class="node">
<title>Node3</title>
<g id="a_node3"><a xlink:href="../../d1/d40/classjavolution_1_1util_1_1internal_1_1collection_1_1CollectionView.html" target="_top" xlink:title=" ">
<polygon fill="white" stroke="black" points="637,-190.5 637,-220.5 814,-220.5 814,-190.5 637,-190.5"/>
<text text-anchor="start" x="645" y="-208.5" font-family="Helvetica,sans-Serif" font-size="10.00">javolution::util::internal</text>
<text text-anchor="middle" x="725.5" y="-197.5" font-family="Helvetica,sans-Serif" font-size="10.00">::collection::CollectionView&lt; E &gt;</text>
</a>
</g>
</g>
<!-- Node3&#45;&gt;Node2 -->
<g id="edge2" class="edge">
<title>Node3&#45;&gt;Node2</title>
<path fill="none" stroke="midnightblue" d="M824.07,-217.12C832.99,-218.18 841.98,-219.25 850.79,-220.3"/>
<polygon fill="midnightblue" stroke="midnightblue" points="824.38,-213.63 814.04,-215.92 823.55,-220.58 824.38,-213.63"/>
</g>
<!-- Node4 -->
<g id="node4" class="node">
<title>Node4</title>
<g id="a_node4"><a xlink:href="../../dc/d19/classjavolution_1_1util_1_1FastCollection.html" target="_top" xlink:title=" ">
<polygon fill="white" stroke="black" points="326,-150 326,-169 516,-169 516,-150 326,-150"/>
<text text-anchor="middle" x="421" y="-157" font-family="Helvetica,sans-Serif" font-size="10.00">javolution::util::FastCollection&lt; E &gt;</text>
</a>
</g>
</g>
<!-- Node4&#45;&gt;Node3 -->
<g id="edge3" class="edge">
<title>Node4&#45;&gt;Node3</title>
<path fill="none" stroke="midnightblue" d="M494.73,-170.56C537.5,-177.06 591.85,-185.33 636.96,-192.19"/>
<polygon fill="midnightblue" stroke="midnightblue" points="495.09,-167.07 484.68,-169.03 494.04,-173.99 495.09,-167.07"/>
</g>
<!-- Node5 -->
<g id="node5" class="node">
<title>Node5</title>
<g id="a_node5"><a xlink:title=" ">
<polygon fill="white" stroke="#bfbfbf" points="31,-94 31,-113 174,-113 174,-94 31,-94"/>
<text text-anchor="middle" x="102.5" y="-101" font-family="Helvetica,sans-Serif" font-size="10.00">java::util::Collection&lt; E &gt;</text>
</a>
</g>
</g>
<!-- Node5&#45;&gt;Node4 -->
<g id="edge4" class="edge">
<title>Node5&#45;&gt;Node4</title>
<path fill="none" stroke="midnightblue" d="M167.4,-114.81C225.79,-125.14 311.18,-140.25 366.17,-149.98"/>
<polygon fill="midnightblue" stroke="midnightblue" points="168.01,-111.36 157.55,-113.06 166.79,-118.25 168.01,-111.36"/>
</g>
<!-- Node8 -->
<g id="node8" class="node">
<title>Node8</title>
<g id="a_node8"><a xlink:href="../../dd/d6c/interfacejavolution_1_1util_1_1service_1_1CollectionService.html" target="_top" xlink:title=" ">
<polygon fill="white" stroke="black" points="353,-75.5 353,-105.5 489,-105.5 489,-75.5 353,-75.5"/>
<text text-anchor="start" x="361" y="-93.5" font-family="Helvetica,sans-Serif" font-size="10.00">javolution::util::service</text>
<text text-anchor="middle" x="421" y="-82.5" font-family="Helvetica,sans-Serif" font-size="10.00">::CollectionService&lt; E &gt;</text>
</a>
</g>
</g>
<!-- Node5&#45;&gt;Node8 -->
<g id="edge8" class="edge">
<title>Node5&#45;&gt;Node8</title>
<path fill="none" stroke="midnightblue" d="M184.51,-100.1C197.39,-99.56 210.56,-99.01 223,-98.5 266.26,-96.72 314.87,-94.74 352.98,-93.2"/>
<polygon fill="midnightblue" stroke="midnightblue" points="184.12,-96.61 174.27,-100.52 184.41,-103.6 184.12,-96.61"/>
</g>
<!-- Node6 -->
<g id="node6" class="node">
<title>Node6</title>
<g id="a_node6"><a xlink:title=" ">
<polygon fill="white" stroke="#bfbfbf" points="65.5,-141 65.5,-160 139.5,-160 139.5,-141 65.5,-141"/>
<text text-anchor="middle" x="102.5" y="-148" font-family="Helvetica,sans-Serif" font-size="10.00">Serializable</text>
</a>
</g>
</g>
<!-- Node6&#45;&gt;Node4 -->
<g id="edge5" class="edge">
<title>Node6&#45;&gt;Node4</title>
<path fill="none" stroke="midnightblue" d="M150.08,-151.82C196.13,-153.13 267.9,-155.17 325.87,-156.82"/>
<polygon fill="midnightblue" stroke="midnightblue" points="149.9,-148.32 139.81,-151.53 149.7,-155.32 149.9,-148.32"/>
</g>
<!-- Node6&#45;&gt;Node8 -->
<g id="edge10" class="edge">
<title>Node6&#45;&gt;Node8</title>
<path fill="none" stroke="midnightblue" d="M149.7,-141.74C203.22,-131.59 291.86,-114.79 352.96,-103.21"/>
<polygon fill="midnightblue" stroke="midnightblue" points="148.98,-138.32 139.81,-143.62 150.28,-145.19 148.98,-138.32"/>
</g>
<!-- Node7 -->
<g id="node7" class="node">
<title>Node7</title>
<g id="a_node7"><a xlink:title=" ">
<polygon fill="white" stroke="#bfbfbf" points="56.5,-241 56.5,-260 148.5,-260 148.5,-241 56.5,-241"/>
<text text-anchor="middle" x="102.5" y="-248" font-family="Helvetica,sans-Serif" font-size="10.00">static final long</text>
</a>
</g>
</g>
<!-- Node7&#45;&gt;Node1 -->
<g id="edge18" class="edge">
<title>Node7&#45;&gt;Node1</title>
<path fill="none" stroke="#9a32cd" stroke-dasharray="5,2" d="M158.81,-259.5C221.84,-268.97 328.06,-282.5 420,-282.5 420,-282.5 420,-282.5 938.5,-282.5 979.04,-282.5 1023.97,-277.87 1060.72,-272.85"/>
<polygon fill="#9a32cd" stroke="#9a32cd" points="159.1,-256.01 148.69,-257.96 158.05,-262.93 159.1,-256.01"/>
<text text-anchor="middle" x="725.5" y="-285.5" font-family="Helvetica,sans-Serif" font-size="10.00"> serialVersionUID</text>
</g>
<!-- Node7&#45;&gt;Node2 -->
<g id="edge17" class="edge">
<title>Node7&#45;&gt;Node2</title>
<path fill="none" stroke="#9a32cd" stroke-dasharray="5,2" d="M131,-264.41C154.69,-275.57 190.16,-290.36 223,-296.5 481.19,-344.8 559.51,-362.55 814,-297.5 853.22,-287.48 893.4,-262.02 916.6,-245.53"/>
<polygon fill="#9a32cd" stroke="#9a32cd" points="132.44,-261.22 121.92,-260.03 129.41,-267.53 132.44,-261.22"/>
<text text-anchor="middle" x="576.5" y="-342.5" font-family="Helvetica,sans-Serif" font-size="10.00"> serialVersionUID</text>
</g>
<!-- Node7&#45;&gt;Node3 -->
<g id="edge13" class="edge">
<title>Node7&#45;&gt;Node3</title>
<path fill="none" stroke="#9a32cd" stroke-dasharray="5,2" d="M158.97,-239.34C203.82,-230.85 268.7,-219.76 326,-214.5 432.64,-204.72 555.97,-203.47 636.85,-204.02"/>
<polygon fill="#9a32cd" stroke="#9a32cd" points="158.03,-235.96 148.86,-241.28 159.34,-242.84 158.03,-235.96"/>
<text text-anchor="middle" x="421" y="-217.5" font-family="Helvetica,sans-Serif" font-size="10.00"> serialVersionUID</text>
</g>
<!-- Node7&#45;&gt;Node4 -->
<g id="edge6" class="edge">
<title>Node7&#45;&gt;Node4</title>
<path fill="none" stroke="#9a32cd" stroke-dasharray="5,2" d="M128.91,-235.85C152.55,-222.84 189.12,-204.28 223,-193.5 258.72,-182.14 299.36,-174.31 334.42,-169.06"/>
<polygon fill="#9a32cd" stroke="#9a32cd" points="126.94,-232.94 119.92,-240.87 130.36,-239.05 126.94,-232.94"/>
<text text-anchor="middle" x="265.5" y="-196.5" font-family="Helvetica,sans-Serif" font-size="10.00"> serialVersionUID</text>
</g>
<!-- Node8&#45;&gt;Node3 -->
<g id="edge7" class="edge">
<title>Node8&#45;&gt;Node3</title>
<path fill="none" stroke="midnightblue" d="M471.12,-109.17C530.71,-131.83 630.02,-169.58 684.94,-190.46"/>
<polygon fill="midnightblue" stroke="midnightblue" points="472.14,-105.82 461.55,-105.53 469.65,-112.36 472.14,-105.82"/>
</g>
<!-- Node12 -->
<g id="node12" class="node">
<title>Node12</title>
<g id="a_node12"><a xlink:href="../../d6/d3e/interfacejavolution_1_1util_1_1service_1_1SetService.html" target="_top" xlink:title=" ">
<polygon fill="white" stroke="black" points="661.5,-75.5 661.5,-105.5 789.5,-105.5 789.5,-75.5 661.5,-75.5"/>
<text text-anchor="start" x="669.5" y="-93.5" font-family="Helvetica,sans-Serif" font-size="10.00">javolution::util::service</text>
<text text-anchor="middle" x="725.5" y="-82.5" font-family="Helvetica,sans-Serif" font-size="10.00">::SetService&lt; E &gt;</text>
</a>
</g>
</g>
<!-- Node8&#45;&gt;Node12 -->
<g id="edge15" class="edge">
<title>Node8&#45;&gt;Node12</title>
<path fill="none" stroke="midnightblue" d="M499.31,-90.5C549.57,-90.5 614.28,-90.5 661.43,-90.5"/>
<polygon fill="midnightblue" stroke="midnightblue" points="499.13,-87 489.13,-90.5 499.13,-94 499.13,-87"/>
</g>
<!-- Node9 -->
<g id="node9" class="node">
<title>Node9</title>
<g id="a_node9"><a xlink:href="../../dd/ded/interfacejavolution_1_1util_1_1function_1_1Splittable.html" target="_top" xlink:title=" ">
<polygon fill="white" stroke="black" points="0,-0.5 0,-30.5 205,-30.5 205,-0.5 0,-0.5"/>
<text text-anchor="start" x="8" y="-18.5" font-family="Helvetica,sans-Serif" font-size="10.00">javolution::util::function</text>
<text text-anchor="middle" x="102.5" y="-7.5" font-family="Helvetica,sans-Serif" font-size="10.00">::Splittable&lt; CollectionService&lt; E &gt; &gt;</text>
</a>
</g>
</g>
<!-- Node9&#45;&gt;Node8 -->
<g id="edge9" class="edge">
<title>Node9&#45;&gt;Node8</title>
<path fill="none" stroke="midnightblue" d="M177.08,-32.94C231.42,-45.81 304.63,-63.16 356.43,-75.44"/>
<polygon fill="midnightblue" stroke="midnightblue" points="177.71,-29.49 167.17,-30.59 176.09,-36.3 177.71,-29.49"/>
</g>
<!-- Node10 -->
<g id="node10" class="node">
<title>Node10</title>
<g id="a_node10"><a xlink:href="../../d5/d48/classCloneable.html" target="_top" xlink:title=" ">
<polygon fill="white" stroke="black" points="70,-50 70,-69 135,-69 135,-50 70,-50"/>
<text text-anchor="middle" x="102.5" y="-57" font-family="Helvetica,sans-Serif" font-size="10.00">Cloneable</text>
</a>
</g>
</g>
<!-- Node10&#45;&gt;Node8 -->
<g id="edge11" class="edge">
<title>Node10&#45;&gt;Node8</title>
<path fill="none" stroke="midnightblue" d="M145.04,-63.57C197.9,-68.75 289.91,-77.76 352.81,-83.92"/>
<polygon fill="midnightblue" stroke="midnightblue" points="145.3,-60.08 135,-62.59 144.62,-67.04 145.3,-60.08"/>
</g>
<!-- Node11 -->
<g id="node11" class="node">
<title>Node11</title>
<g id="a_node11"><a xlink:title=" ">
<polygon fill="white" stroke="#bfbfbf" points="356,-235 356,-254 486,-254 486,-235 356,-235"/>
<text text-anchor="middle" x="421" y="-242" font-family="Helvetica,sans-Serif" font-size="10.00">CollectionService&lt; E &gt;</text>
</a>
</g>
</g>
<!-- Node11&#45;&gt;Node3 -->
<g id="edge12" class="edge">
<title>Node11&#45;&gt;Node3</title>
<path fill="none" stroke="#9a32cd" stroke-dasharray="5,2" d="M496.5,-235.15C533.37,-230.49 578.53,-224.75 619,-219.5 624.77,-218.75 630.72,-217.97 636.71,-217.19"/>
<polygon fill="#9a32cd" stroke="#9a32cd" points="495.82,-231.71 486.34,-236.43 496.7,-238.65 495.82,-231.71"/>
<text text-anchor="middle" x="576.5" y="-232.5" font-family="Helvetica,sans-Serif" font-size="10.00"> target</text>
</g>
<!-- Node12&#45;&gt;Node2 -->
<g id="edge14" class="edge">
<title>Node12&#45;&gt;Node2</title>
<path fill="none" stroke="midnightblue" d="M757.72,-111.31C800.5,-139.83 876.31,-190.38 913.97,-215.48"/>
<polygon fill="midnightblue" stroke="midnightblue" points="759.64,-108.38 749.37,-105.75 755.75,-114.21 759.64,-108.38"/>
</g>
<!-- Node13 -->
<g id="node13" class="node">
<title>Node13</title>
<g id="a_node13"><a xlink:title=" ">
<polygon fill="white" stroke="#bfbfbf" points="366,-37 366,-56 476,-56 476,-37 366,-37"/>
<text text-anchor="middle" x="421" y="-44" font-family="Helvetica,sans-Serif" font-size="10.00">java::util::Set&lt; E &gt;</text>
</a>
</g>
</g>
<!-- Node13&#45;&gt;Node12 -->
<g id="edge16" class="edge">
<title>Node13&#45;&gt;Node12</title>
<path fill="none" stroke="midnightblue" d="M486.13,-55.83C537.81,-63.35 610.09,-73.86 661.47,-81.33"/>
<polygon fill="midnightblue" stroke="midnightblue" points="486.48,-52.34 476.08,-54.37 485.47,-59.27 486.48,-52.34"/>
</g>
</g>
</svg>
        <g id="navigator" transform="translate(0 0)" fill="#404254">
                <rect fill="#f2f5e9" fill-opacity="0.5" stroke="#606060" stroke-width=".5" x="0" y="0" width="60" height="60"/>
                <use id="zoomplus" xlink:href="#zoomPlus" x="17" y="9" onmousedown="handleZoom(evt,'in')"/>
                <use id="zoomminus" xlink:href="#zoomMin" x="42" y="9" onmousedown="handleZoom(evt,'out')"/>
                <use id="reset" xlink:href="#resetDef" x="30" y="36" onmousedown="handleReset()"/>
                <g id="arrowUp" xlink:href="#dirArrow" transform="translate(30 24)" onmousedown="handlePan(0,-1)">
                  <use xlink:href="#rim" fill="#404040">
                        <set attributeName="fill" to="#808080" begin="arrowUp.mouseover" end="arrowUp.mouseout"/>
                  </use>
                  <path fill="none" stroke="white" stroke-width="1.5" d="M0,-3.0v7 M-2.5,-0.5L0,-3.0L2.5,-0.5"/>
                </g>
                <g id="arrowRight" xlink:href="#dirArrow" transform="rotate(90) translate(36 -43)" onmousedown="handlePan(1,0)">
                  <use xlink:href="#rim" fill="#404040">
                        <set attributeName="fill" to="#808080" begin="arrowRight.mouseover" end="arrowRight.mouseout"/>
                  </use>
                  <path fill="none" stroke="white" stroke-width="1.5" d="M0,-3.0v7 M-2.5,-0.5L0,-3.0L2.5,-0.5"/>
                </g>
                <g id="arrowDown" xlink:href="#dirArrow" transform="rotate(180) translate(-30 -48)" onmousedown="handlePan(0,1)">
                  <use xlink:href="#rim" fill="#404040">
                        <set attributeName="fill" to="#808080" begin="arrowDown.mouseover" end="arrowDown.mouseout"/>
                  </use>
                  <path fill="none" stroke="white" stroke-width="1.5" d="M0,-3.0v7 M-2.5,-0.5L0,-3.0L2.5,-0.5"/>
                </g>
                <g id="arrowLeft" xlink:href="#dirArrow" transform="rotate(270) translate(-36 17)" onmousedown="handlePan(-1,0)">
                  <use xlink:href="#rim" fill="#404040">
                        <set attributeName="fill" to="#808080" begin="arrowLeft.mouseover" end="arrowLeft.mouseout"/>
                  </use>
                  <path fill="none" stroke="white" stroke-width="1.5" d="M0,-3.0v7 M-2.5,-0.5L0,-3.0L2.5,-0.5"/>
                </g>
        </g>
        <svg viewBox="0 0 15 15" width="100%" height="30px" preserveAspectRatio="xMaxYMin meet">
         <g id="arrow_out" transform="scale(0.3 0.3)">
          <a xlink:href="classjavolution_1_1util_1_1internal_1_1map_1_1MapView_1_1EntrySet__coll__graph_org.svg" target="_base">
           <rect id="button" ry="5" rx="5" y="6" x="6" height="38" width="38"
                fill="#f2f5e9" fill-opacity="0.5" stroke="#606060" stroke-width="1.0"/>
           <path id="arrow"
             d="M 11.500037,31.436501 C 11.940474,20.09759 22.043105,11.32322 32.158766,21.979434 L 37.068811,17.246167 C 37.068811,17.246167 37.088388,32 37.088388,32 L 22.160133,31.978069 C 22.160133,31.978069 26.997745,27.140456 26.997745,27.140456 C 18.528582,18.264221 13.291696,25.230495 11.500037,31.436501 z"
             style="fill:#404040;"/>
          </a>
         </g>
        </svg>
</svg>
