<?xml version="1.0" encoding="UTF-8" standalone="no"?>
<!DOCTYPE svg PUBLIC "-//W3C//DTD SVG 1.1//EN"
 "http://www.w3.org/Graphics/SVG/1.1/DTD/svg11.dtd">
<!-- Generated by graphviz version 2.43.0 (0)
 -->
<!-- Title: javolution.util.FastSortedMap.service Pages: 1 -->
<svg width="494pt" height="509pt"
 viewBox="0.00 0.00 494.00 509.00" xmlns="http://www.w3.org/2000/svg" xmlns:xlink="http://www.w3.org/1999/xlink">
<g id="graph0" class="graph" transform="scale(1 1) rotate(0) translate(4 505)">
<title>javolution.util.FastSortedMap.service</title>
<polygon fill="white" stroke="transparent" points="-4,4 -4,-505 490,-505 490,4 -4,4"/>
<!-- Node1 -->
<g id="node1" class="node">
<title>Node1</title>
<g id="a_node1"><a xlink:title=" ">
<polygon fill="#bfbfbf" stroke="black" points="348,-235.5 348,-265.5 486,-265.5 486,-235.5 348,-235.5"/>
<text text-anchor="start" x="356" y="-253.5" font-family="Helvetica,sans-Serif" font-size="10.00">javolution.util.FastSorted</text>
<text text-anchor="middle" x="417" y="-242.5" font-family="Helvetica,sans-Serif" font-size="10.00">Map.service</text>
</a>
</g>
</g>
<!-- Node2 -->
<g id="node2" class="node">
<title>Node2</title>
<g id="a_node2"><a xlink:href="../../df/d9c/classjavolution_1_1util_1_1FastSortedMap.html#a717e1104ef6743c90412df1bf816070d" target="_top" xlink:title=" ">
<polygon fill="white" stroke="black" points="174,-470.5 174,-500.5 312,-500.5 312,-470.5 174,-470.5"/>
<text text-anchor="start" x="182" y="-488.5" font-family="Helvetica,sans-Serif" font-size="10.00">javolution.util.FastSorted</text>
<text text-anchor="middle" x="243" y="-477.5" font-family="Helvetica,sans-Serif" font-size="10.00">Map.atomic</text>
</a>
</g>
</g>
<!-- Node1&#45;&gt;Node2 -->
<g id="edge1" class="edge">
<title>Node1&#45;&gt;Node2</title>
<path fill="none" stroke="midnightblue" d="M410.29,-275.49C399.02,-319.3 369.84,-410.15 312,-461.5 308.16,-464.91 303.81,-467.84 299.2,-470.36"/>
<polygon fill="midnightblue" stroke="midnightblue" points="413.71,-276.22 412.72,-265.67 406.92,-274.54 413.71,-276.22"/>
</g>
<!-- Node3 -->
<g id="node3" class="node">
<title>Node3</title>
<g id="a_node3"><a xlink:href="../../df/d9c/classjavolution_1_1util_1_1FastSortedMap.html#ac8c23bd8de6ebb618ff418a7564ab152" target="_top" xlink:title=" ">
<polygon fill="white" stroke="black" points="174,-421.5 174,-451.5 312,-451.5 312,-421.5 174,-421.5"/>
<text text-anchor="start" x="182" y="-439.5" font-family="Helvetica,sans-Serif" font-size="10.00">javolution.util.FastSorted</text>
<text text-anchor="middle" x="243" y="-428.5" font-family="Helvetica,sans-Serif" font-size="10.00">Map.entrySet</text>
</a>
</g>
</g>
<!-- Node1&#45;&gt;Node3 -->
<g id="edge2" class="edge">
<title>Node1&#45;&gt;Node3</title>
<path fill="none" stroke="midnightblue" d="M406.24,-275.39C391.17,-310.74 358.98,-375.3 312,-412.5 307.68,-415.92 302.84,-418.87 297.78,-421.42"/>
<polygon fill="midnightblue" stroke="midnightblue" points="409.61,-276.41 410.2,-265.84 403.14,-273.73 409.61,-276.41"/>
</g>
<!-- Node4 -->
<g id="node4" class="node">
<title>Node4</title>
<g id="a_node4"><a xlink:href="../../df/d9c/classjavolution_1_1util_1_1FastSortedMap.html#a8156364dd8da44049ee9d43fcf9d330d" target="_top" xlink:title=" ">
<polygon fill="white" stroke="black" points="174,-372.5 174,-402.5 312,-402.5 312,-372.5 174,-372.5"/>
<text text-anchor="start" x="182" y="-390.5" font-family="Helvetica,sans-Serif" font-size="10.00">javolution.util.FastSorted</text>
<text text-anchor="middle" x="243" y="-379.5" font-family="Helvetica,sans-Serif" font-size="10.00">Map.FastSortedMap</text>
</a>
</g>
</g>
<!-- Node1&#45;&gt;Node4 -->
<g id="edge3" class="edge">
<title>Node1&#45;&gt;Node4</title>
<path fill="none" stroke="midnightblue" d="M397.88,-273.84C378.63,-297.42 346.29,-333.66 312,-357.5 303.74,-363.25 294.2,-368.27 284.92,-372.49"/>
<polygon fill="midnightblue" stroke="midnightblue" points="400.83,-275.77 404.36,-265.78 395.37,-271.38 400.83,-275.77"/>
</g>
<!-- Node5 -->
<g id="node5" class="node">
<title>Node5</title>
<g id="a_node5"><a xlink:href="../../df/d9c/classjavolution_1_1util_1_1FastSortedMap.html#adadcca3b63fdf544396dd818209b3c90" target="_top" xlink:title=" ">
<polygon fill="white" stroke="black" points="174,-284.5 174,-314.5 312,-314.5 312,-284.5 174,-284.5"/>
<text text-anchor="start" x="182" y="-302.5" font-family="Helvetica,sans-Serif" font-size="10.00">javolution.util.FastSorted</text>
<text text-anchor="middle" x="243" y="-291.5" font-family="Helvetica,sans-Serif" font-size="10.00">Map.firstKey</text>
</a>
</g>
</g>
<!-- Node1&#45;&gt;Node5 -->
<g id="edge4" class="edge">
<title>Node1&#45;&gt;Node5</title>
<path fill="none" stroke="midnightblue" d="M353.19,-268.39C334.69,-273.66 314.64,-279.38 296.83,-284.45"/>
<polygon fill="midnightblue" stroke="midnightblue" points="354.33,-271.71 362.99,-265.6 352.41,-264.98 354.33,-271.71"/>
</g>
<!-- Node6 -->
<g id="node6" class="node">
<title>Node6</title>
<g id="a_node6"><a xlink:href="../../df/d9c/classjavolution_1_1util_1_1FastSortedMap.html#a0cddca47296663bd43167c51af9742e2" target="_top" xlink:title=" ">
<polygon fill="white" stroke="black" points="0,-284.5 0,-314.5 138,-314.5 138,-284.5 0,-284.5"/>
<text text-anchor="start" x="8" y="-302.5" font-family="Helvetica,sans-Serif" font-size="10.00">javolution.util.FastSorted</text>
<text text-anchor="middle" x="69" y="-291.5" font-family="Helvetica,sans-Serif" font-size="10.00">Map.headMap</text>
</a>
</g>
</g>
<!-- Node1&#45;&gt;Node6 -->
<g id="edge6" class="edge">
<title>Node1&#45;&gt;Node6</title>
<path fill="none" stroke="midnightblue" d="M393.67,-272.75C374.04,-290.63 343.73,-314.37 312,-324.5 245.21,-345.84 163.29,-328.99 113.94,-314.51"/>
<polygon fill="midnightblue" stroke="midnightblue" points="396.25,-275.13 401.16,-265.74 391.46,-270.02 396.25,-275.13"/>
</g>
<!-- Node7 -->
<g id="node7" class="node">
<title>Node7</title>
<g id="a_node7"><a xlink:href="../../df/d9c/classjavolution_1_1util_1_1FastSortedMap.html#a95dd04f7c9899cfa2bd8bcd6b7bbc3d5" target="_top" xlink:title=" ">
<polygon fill="white" stroke="black" points="174,-98.5 174,-128.5 312,-128.5 312,-98.5 174,-98.5"/>
<text text-anchor="start" x="182" y="-116.5" font-family="Helvetica,sans-Serif" font-size="10.00">javolution.util.FastSorted</text>
<text text-anchor="middle" x="243" y="-105.5" font-family="Helvetica,sans-Serif" font-size="10.00">Map.keySet</text>
</a>
</g>
</g>
<!-- Node1&#45;&gt;Node7 -->
<g id="edge7" class="edge">
<title>Node1&#45;&gt;Node7</title>
<path fill="none" stroke="midnightblue" d="M399.7,-226.81C381.15,-201.47 348.63,-161.66 312,-137.5 306.88,-134.12 301.23,-131.16 295.44,-128.57"/>
<polygon fill="midnightblue" stroke="midnightblue" points="396.99,-229.04 405.67,-235.12 402.68,-224.96 396.99,-229.04"/>
</g>
<!-- Node9 -->
<g id="node9" class="node">
<title>Node9</title>
<g id="a_node9"><a xlink:href="../../df/d9c/classjavolution_1_1util_1_1FastSortedMap.html#a458a2400c48a6e146dc09089d3ef7c0f" target="_top" xlink:title=" ">
<polygon fill="white" stroke="black" points="174,-147.5 174,-177.5 312,-177.5 312,-147.5 174,-147.5"/>
<text text-anchor="start" x="182" y="-165.5" font-family="Helvetica,sans-Serif" font-size="10.00">javolution.util.FastSorted</text>
<text text-anchor="middle" x="243" y="-154.5" font-family="Helvetica,sans-Serif" font-size="10.00">Map.lastKey</text>
</a>
</g>
</g>
<!-- Node1&#45;&gt;Node9 -->
<g id="edge9" class="edge">
<title>Node1&#45;&gt;Node9</title>
<path fill="none" stroke="midnightblue" d="M381.52,-230.21C361.47,-218.68 335.59,-204.25 312,-192.5 301.72,-187.38 290.37,-182.19 279.93,-177.61"/>
<polygon fill="midnightblue" stroke="midnightblue" points="379.88,-233.3 390.29,-235.28 383.38,-227.24 379.88,-233.3"/>
</g>
<!-- Node10 -->
<g id="node10" class="node">
<title>Node10</title>
<g id="a_node10"><a xlink:href="../../df/d9c/classjavolution_1_1util_1_1FastSortedMap.html#a91db12992170c1e45cfe694928343366" target="_top" xlink:title=" ">
<polygon fill="white" stroke="black" points="0,-191.5 0,-221.5 138,-221.5 138,-191.5 0,-191.5"/>
<text text-anchor="start" x="8" y="-209.5" font-family="Helvetica,sans-Serif" font-size="10.00">javolution.util.FastSorted</text>
<text text-anchor="middle" x="69" y="-198.5" font-family="Helvetica,sans-Serif" font-size="10.00">Map.tailMap</text>
</a>
</g>
</g>
<!-- Node1&#45;&gt;Node10 -->
<g id="edge15" class="edge">
<title>Node1&#45;&gt;Node10</title>
<path fill="none" stroke="midnightblue" d="M347.84,-233.29C335.95,-230.71 323.66,-228.32 312,-226.5 253.68,-217.41 186.78,-212.28 138.11,-209.5"/>
<polygon fill="midnightblue" stroke="midnightblue" points="347.19,-236.73 357.71,-235.49 348.71,-229.9 347.19,-236.73"/>
</g>
<!-- Node11 -->
<g id="node11" class="node">
<title>Node11</title>
<g id="a_node11"><a xlink:href="../../df/d9c/classjavolution_1_1util_1_1FastSortedMap.html#a7c2d990a00776cd58cf375b5d950878b" target="_top" xlink:title=" ">
<polygon fill="white" stroke="black" points="174,-49.5 174,-79.5 312,-79.5 312,-49.5 174,-49.5"/>
<text text-anchor="start" x="182" y="-67.5" font-family="Helvetica,sans-Serif" font-size="10.00">javolution.util.FastSorted</text>
<text text-anchor="middle" x="243" y="-56.5" font-family="Helvetica,sans-Serif" font-size="10.00">Map.shared</text>
</a>
</g>
</g>
<!-- Node1&#45;&gt;Node11 -->
<g id="edge11" class="edge">
<title>Node1&#45;&gt;Node11</title>
<path fill="none" stroke="midnightblue" d="M406.24,-225.61C391.17,-190.26 358.98,-125.7 312,-88.5 307.68,-85.08 302.84,-82.13 297.78,-79.58"/>
<polygon fill="midnightblue" stroke="midnightblue" points="403.14,-227.27 410.2,-235.16 409.61,-224.59 403.14,-227.27"/>
</g>
<!-- Node12 -->
<g id="node12" class="node">
<title>Node12</title>
<g id="a_node12"><a xlink:href="../../df/d9c/classjavolution_1_1util_1_1FastSortedMap.html#a14b7526f43d94736731b8de2331ffb25" target="_top" xlink:title=" ">
<polygon fill="white" stroke="black" points="174,-235.5 174,-265.5 312,-265.5 312,-235.5 174,-235.5"/>
<text text-anchor="start" x="182" y="-253.5" font-family="Helvetica,sans-Serif" font-size="10.00">javolution.util.FastSorted</text>
<text text-anchor="middle" x="243" y="-242.5" font-family="Helvetica,sans-Serif" font-size="10.00">Map.subMap</text>
</a>
</g>
</g>
<!-- Node1&#45;&gt;Node12 -->
<g id="edge12" class="edge">
<title>Node1&#45;&gt;Node12</title>
<path fill="none" stroke="midnightblue" d="M337.36,-250.5C328.97,-250.5 320.49,-250.5 312.24,-250.5"/>
<polygon fill="midnightblue" stroke="midnightblue" points="337.53,-254 347.53,-250.5 337.53,-247 337.53,-254"/>
</g>
<!-- Node13 -->
<g id="node13" class="node">
<title>Node13</title>
<g id="a_node13"><a xlink:href="../../df/d9c/classjavolution_1_1util_1_1FastSortedMap.html#a841c3a305ea592d7aa6cc0643424a3b8" target="_top" xlink:title=" ">
<polygon fill="white" stroke="black" points="174,-0.5 174,-30.5 312,-30.5 312,-0.5 174,-0.5"/>
<text text-anchor="start" x="182" y="-18.5" font-family="Helvetica,sans-Serif" font-size="10.00">javolution.util.FastSorted</text>
<text text-anchor="middle" x="243" y="-7.5" font-family="Helvetica,sans-Serif" font-size="10.00">Map.unmodifiable</text>
</a>
</g>
</g>
<!-- Node1&#45;&gt;Node13 -->
<g id="edge16" class="edge">
<title>Node1&#45;&gt;Node13</title>
<path fill="none" stroke="midnightblue" d="M410.29,-225.51C399.02,-181.7 369.84,-90.85 312,-39.5 308.16,-36.09 303.81,-33.16 299.2,-30.64"/>
<polygon fill="midnightblue" stroke="midnightblue" points="406.92,-226.46 412.72,-235.33 413.71,-224.78 406.92,-226.46"/>
</g>
<!-- Node5&#45;&gt;Node6 -->
<g id="edge5" class="edge">
<title>Node5&#45;&gt;Node6</title>
<path fill="none" stroke="midnightblue" d="M163.36,-299.5C154.97,-299.5 146.49,-299.5 138.24,-299.5"/>
<polygon fill="midnightblue" stroke="midnightblue" points="163.53,-303 173.53,-299.5 163.53,-296 163.53,-303"/>
</g>
<!-- Node8 -->
<g id="node8" class="node">
<title>Node8</title>
<g id="a_node8"><a xlink:href="../../df/d9c/classjavolution_1_1util_1_1FastSortedMap.html#a2a402228afb53288cf43be73fe8b0282" target="_top" xlink:title=" ">
<polygon fill="white" stroke="black" points="0,-98.5 0,-128.5 138,-128.5 138,-98.5 0,-98.5"/>
<text text-anchor="start" x="8" y="-116.5" font-family="Helvetica,sans-Serif" font-size="10.00">javolution.util.FastSorted</text>
<text text-anchor="middle" x="69" y="-105.5" font-family="Helvetica,sans-Serif" font-size="10.00">Map.comparator</text>
</a>
</g>
</g>
<!-- Node7&#45;&gt;Node8 -->
<g id="edge8" class="edge">
<title>Node7&#45;&gt;Node8</title>
<path fill="none" stroke="midnightblue" d="M163.36,-113.5C154.97,-113.5 146.49,-113.5 138.24,-113.5"/>
<polygon fill="midnightblue" stroke="midnightblue" points="163.53,-117 173.53,-113.5 163.53,-110 163.53,-117"/>
</g>
<!-- Node9&#45;&gt;Node10 -->
<g id="edge10" class="edge">
<title>Node9&#45;&gt;Node10</title>
<path fill="none" stroke="midnightblue" d="M173.22,-180.09C158.49,-183.86 143.05,-187.81 128.74,-191.47"/>
<polygon fill="midnightblue" stroke="midnightblue" points="174.47,-183.39 183.29,-177.52 172.73,-176.61 174.47,-183.39"/>
</g>
<!-- Node12&#45;&gt;Node6 -->
<g id="edge13" class="edge">
<title>Node12&#45;&gt;Node6</title>
<path fill="none" stroke="midnightblue" d="M179.19,-268.39C160.69,-273.66 140.64,-279.38 122.83,-284.45"/>
<polygon fill="midnightblue" stroke="midnightblue" points="180.33,-271.71 188.99,-265.6 178.41,-264.98 180.33,-271.71"/>
</g>
<!-- Node12&#45;&gt;Node10 -->
<g id="edge14" class="edge">
<title>Node12&#45;&gt;Node10</title>
<path fill="none" stroke="midnightblue" d="M173.22,-232.91C158.49,-229.14 143.05,-225.19 128.74,-221.53"/>
<polygon fill="midnightblue" stroke="midnightblue" points="172.73,-236.39 183.29,-235.48 174.47,-229.61 172.73,-236.39"/>
</g>
</g>
</svg>
