<?xml version="1.0" encoding="UTF-8" standalone="no"?>
<!DOCTYPE svg PUBLIC "-//W3C//DTD SVG 1.1//EN"
 "http://www.w3.org/Graphics/SVG/1.1/DTD/svg11.dtd">
<!-- Generated by graphviz version 2.43.0 (0)
 -->
<!-- Title: javolution.util.service.BitSetService.nextSetBit Pages: 1 -->
<svg width="374pt" height="137pt"
 viewBox="0.00 0.00 374.00 137.00" xmlns="http://www.w3.org/2000/svg" xmlns:xlink="http://www.w3.org/1999/xlink">
<g id="graph0" class="graph" transform="scale(1 1) rotate(0) translate(4 133)">
<title>javolution.util.service.BitSetService.nextSetBit</title>
<polygon fill="white" stroke="transparent" points="-4,4 -4,-133 370,-133 370,4 -4,4"/>
<!-- Node1 -->
<g id="node1" class="node">
<title>Node1</title>
<g id="a_node1"><a xlink:title=" ">
<polygon fill="#bfbfbf" stroke="black" points="230,-49.5 230,-79.5 366,-79.5 366,-49.5 230,-49.5"/>
<text text-anchor="start" x="238" y="-67.5" font-family="Helvetica,sans-Serif" font-size="10.00">javolution.util.service.</text>
<text text-anchor="middle" x="298" y="-56.5" font-family="Helvetica,sans-Serif" font-size="10.00">BitSetService.nextSetBit</text>
</a>
</g>
</g>
<!-- Node2 -->
<g id="node2" class="node">
<title>Node2</title>
<g id="a_node2"><a xlink:href="../../df/d50/classjavolution_1_1util_1_1internal_1_1bitset_1_1BitSetIteratorImpl.html#aee80de835234d34a5b71f656c542e7e3" target="_top" xlink:title=" ">
<polygon fill="white" stroke="black" points="0,-98.5 0,-128.5 194,-128.5 194,-98.5 0,-98.5"/>
<text text-anchor="start" x="8" y="-116.5" font-family="Helvetica,sans-Serif" font-size="10.00">javolution.util.internal.bitset.</text>
<text text-anchor="middle" x="97" y="-105.5" font-family="Helvetica,sans-Serif" font-size="10.00">BitSetIteratorImpl.BitSetIteratorImpl</text>
</a>
</g>
</g>
<!-- Node1&#45;&gt;Node2 -->
<g id="edge1" class="edge">
<title>Node1&#45;&gt;Node2</title>
<path fill="none" stroke="midnightblue" d="M226.02,-81.98C204.09,-87.38 180.14,-93.28 158.94,-98.49"/>
<polygon fill="midnightblue" stroke="midnightblue" points="227.07,-85.32 235.94,-79.53 225.39,-78.53 227.07,-85.32"/>
</g>
<!-- Node3 -->
<g id="node3" class="node">
<title>Node3</title>
<g id="a_node3"><a xlink:href="../../df/d50/classjavolution_1_1util_1_1internal_1_1bitset_1_1BitSetIteratorImpl.html#ad96fcf02ec47a4707777f4a0bc16d750" target="_top" xlink:title=" ">
<polygon fill="white" stroke="black" points="18,-49.5 18,-79.5 176,-79.5 176,-49.5 18,-49.5"/>
<text text-anchor="start" x="26" y="-67.5" font-family="Helvetica,sans-Serif" font-size="10.00">javolution.util.internal.bitset.</text>
<text text-anchor="middle" x="97" y="-56.5" font-family="Helvetica,sans-Serif" font-size="10.00">BitSetIteratorImpl.next</text>
</a>
</g>
</g>
<!-- Node1&#45;&gt;Node3 -->
<g id="edge2" class="edge">
<title>Node1&#45;&gt;Node3</title>
<path fill="none" stroke="midnightblue" d="M219.64,-64.5C205.36,-64.5 190.45,-64.5 176.15,-64.5"/>
<polygon fill="midnightblue" stroke="midnightblue" points="219.91,-68 229.91,-64.5 219.91,-61 219.91,-68"/>
</g>
<!-- Node4 -->
<g id="node4" class="node">
<title>Node4</title>
<g id="a_node4"><a xlink:href="../../d9/dec/classjavolution_1_1util_1_1FastBitSet.html#a393c8bb8aea3358a4c1b5a0645e233d2" target="_top" xlink:title=" ">
<polygon fill="white" stroke="black" points="16.5,-0.5 16.5,-30.5 177.5,-30.5 177.5,-0.5 16.5,-0.5"/>
<text text-anchor="start" x="24.5" y="-18.5" font-family="Helvetica,sans-Serif" font-size="10.00">javolution.util.FastBitSet.next</text>
<text text-anchor="middle" x="97" y="-7.5" font-family="Helvetica,sans-Serif" font-size="10.00">SetBit</text>
</a>
</g>
</g>
<!-- Node1&#45;&gt;Node4 -->
<g id="edge3" class="edge">
<title>Node1&#45;&gt;Node4</title>
<path fill="none" stroke="midnightblue" d="M226.02,-47.02C204.09,-41.62 180.14,-35.72 158.94,-30.51"/>
<polygon fill="midnightblue" stroke="midnightblue" points="225.39,-50.47 235.94,-49.47 227.07,-43.68 225.39,-50.47"/>
</g>
</g>
</svg>
