<?xml version="1.0" encoding="UTF-8" standalone="no"?>
<!DOCTYPE svg PUBLIC "-//W3C//DTD SVG 1.1//EN"
 "http://www.w3.org/Graphics/SVG/1.1/DTD/svg11.dtd">
<!-- Generated by graphviz version 2.43.0 (0)
 -->
<!-- Title: javolution.util.service.BitSetService.clear Pages: 1 -->
<svg width="332pt" height="78pt"
 viewBox="0.00 0.00 332.00 77.50" xmlns="http://www.w3.org/2000/svg" xmlns:xlink="http://www.w3.org/1999/xlink">
<g id="graph0" class="graph" transform="scale(1 1) rotate(0) translate(4 73.5)">
<title>javolution.util.service.BitSetService.clear</title>
<polygon fill="white" stroke="transparent" points="-4,4 -4,-73.5 328,-73.5 328,4 -4,4"/>
<!-- Node1 -->
<g id="node1" class="node">
<title>Node1</title>
<g id="a_node1"><a xlink:title=" ">
<polygon fill="#bfbfbf" stroke="black" points="199,-22.5 199,-52.5 324,-52.5 324,-22.5 199,-22.5"/>
<text text-anchor="start" x="207" y="-40.5" font-family="Helvetica,sans-Serif" font-size="10.00">javolution.util.service.</text>
<text text-anchor="middle" x="261.5" y="-29.5" font-family="Helvetica,sans-Serif" font-size="10.00">BitSetService.clear</text>
</a>
</g>
</g>
<!-- Node2 -->
<g id="node2" class="node">
<title>Node2</title>
<g id="a_node2"><a xlink:href="../../d9/dec/classjavolution_1_1util_1_1FastBitSet.html#abcea24ac273cc8e333430d12754f8a07" target="_top" xlink:title=" ">
<polygon fill="white" stroke="black" points="0,-50 0,-69 163,-69 163,-50 0,-50"/>
<text text-anchor="middle" x="81.5" y="-57" font-family="Helvetica,sans-Serif" font-size="10.00">javolution.util.FastBitSet.clear</text>
</a>
</g>
</g>
<!-- Node1&#45;&gt;Node2 -->
<g id="edge1" class="edge">
<title>Node1&#45;&gt;Node2</title>
<path fill="none" stroke="midnightblue" d="M188.82,-46.36C179.17,-47.55 169.25,-48.78 159.52,-49.98"/>
<polygon fill="midnightblue" stroke="midnightblue" points="189.25,-49.83 198.74,-45.13 188.39,-42.89 189.25,-49.83"/>
</g>
<!-- Node3 -->
<g id="node3" class="node">
<title>Node3</title>
<g id="a_node3"><a xlink:href="../../df/d50/classjavolution_1_1util_1_1internal_1_1bitset_1_1BitSetIteratorImpl.html#a6ea1485e8607b3dbe8122837667072d8" target="_top" xlink:title=" ">
<polygon fill="white" stroke="black" points="2.5,-0.5 2.5,-30.5 160.5,-30.5 160.5,-0.5 2.5,-0.5"/>
<text text-anchor="start" x="10.5" y="-18.5" font-family="Helvetica,sans-Serif" font-size="10.00">javolution.util.internal.bitset.</text>
<text text-anchor="middle" x="81.5" y="-7.5" font-family="Helvetica,sans-Serif" font-size="10.00">BitSetIteratorImpl.remove</text>
</a>
</g>
</g>
<!-- Node1&#45;&gt;Node3 -->
<g id="edge2" class="edge">
<title>Node1&#45;&gt;Node3</title>
<path fill="none" stroke="midnightblue" d="M188.55,-28.61C179.4,-27.48 170,-26.32 160.77,-25.17"/>
<polygon fill="midnightblue" stroke="midnightblue" points="188.39,-32.11 198.74,-29.87 189.25,-25.17 188.39,-32.11"/>
</g>
</g>
</svg>
