<?xml version="1.0" encoding="UTF-8" standalone="no"?>
<!DOCTYPE svg PUBLIC "-//W3C//DTD SVG 1.1//EN"
 "http://www.w3.org/Graphics/SVG/1.1/DTD/svg11.dtd">
<!-- Generated by graphviz version 2.43.0 (0)
 -->
<!-- Title: javolution.xml.internal.stream.NamespacesImpl.push Pages: 1 -->
<!--zoomable 357 -->
<svg id="main" version="1.1" xmlns="http://www.w3.org/2000/svg" xmlns:xlink="http://www.w3.org/1999/xlink" xml:space="preserve" onload="init(evt)">
<style type="text/css"><![CDATA[
.edge:hover path { stroke: red; }
.edge:hover polygon { stroke: red; fill: red; }
]]></style>
<script type="text/javascript"><![CDATA[
var edges = document.getElementsByTagName('g');
if (edges && edges.length) {
  for (var i=0;i<edges.length;i++) {
    if (edges[i].id.substr(0,4)=='edge') {
      edges[i].setAttribute('class','edge');
    }
  }
}
]]></script>
        <defs>
                <circle id="rim" cx="0" cy="0" r="7"/>
                <circle id="rim2" cx="0" cy="0" r="3.5"/>
                <g id="zoomPlus">
                        <use xlink:href="#rim" fill="#404040">
                                <set attributeName="fill" to="#808080" begin="zoomplus.mouseover" end="zoomplus.mouseout"/>
                        </use>
                        <path d="M-4,0h8M0,-4v8" fill="none" stroke="white" stroke-width="1.5" pointer-events="none"/>
                </g>
                <g id="zoomMin">
                        <use xlink:href="#rim" fill="#404040">
                                <set attributeName="fill" to="#808080" begin="zoomminus.mouseover" end="zoomminus.mouseout"/>
                        </use>
                        <path d="M-4,0h8" fill="none" stroke="white" stroke-width="1.5" pointer-events="none"/>
                </g>
                <g id="dirArrow">
                        <path fill="none" stroke="white" stroke-width="1.5" d="M0,-3.0v7 M-2.5,-0.5L0,-3.0L2.5,-0.5"/>
                </g>
               <g id="resetDef">
                       <use xlink:href="#rim2" fill="#404040">
                               <set attributeName="fill" to="#808080" begin="reset.mouseover" end="reset.mouseout"/>
                       </use>
               </g>
        </defs>

<script type="text/javascript">
var viewWidth = 1146;
var viewHeight = 357;
var sectionId = 'dynsection-12';
</script>
<script xlink:href="../../svgpan.js"/>
<svg id="graph" class="graph">
<g id="viewport">
<title>javolution.xml.internal.stream.NamespacesImpl.push</title>
<polygon fill="white" stroke="transparent" points="-4,4 -4,-353 1142,-353 1142,4 -4,4"/>
<!-- Node1 -->
<g id="node1" class="node">
<title>Node1</title>
<g id="a_node1"><a xlink:title=" ">
<polygon fill="#bfbfbf" stroke="black" points="970,-97.5 970,-127.5 1138,-127.5 1138,-97.5 970,-97.5"/>
<text text-anchor="start" x="978" y="-115.5" font-family="Helvetica,sans-Serif" font-size="10.00">javolution.xml.internal.stream.</text>
<text text-anchor="middle" x="1054" y="-104.5" font-family="Helvetica,sans-Serif" font-size="10.00">NamespacesImpl.push</text>
</a>
</g>
</g>
<!-- Node2 -->
<g id="node2" class="node">
<title>Node2</title>
<g id="a_node2"><a xlink:href="../../d0/d65/classjavolution_1_1xml_1_1internal_1_1stream_1_1XMLStreamReaderImpl.html#a390337cd640ada29ab3aa42a584c8ed8" target="_top" xlink:title=" ">
<polygon fill="white" stroke="black" points="742.5,-171.5 742.5,-201.5 910.5,-201.5 910.5,-171.5 742.5,-171.5"/>
<text text-anchor="start" x="750.5" y="-189.5" font-family="Helvetica,sans-Serif" font-size="10.00">javolution.xml.internal.stream.</text>
<text text-anchor="middle" x="826.5" y="-178.5" font-family="Helvetica,sans-Serif" font-size="10.00">XMLStreamReaderImpl.next</text>
</a>
</g>
</g>
<!-- Node1&#45;&gt;Node2 -->
<g id="edge1" class="edge">
<title>Node1&#45;&gt;Node2</title>
<path fill="none" stroke="midnightblue" d="M997.17,-130.82C959.04,-143.33 909.14,-159.71 873.34,-171.46"/>
<polygon fill="midnightblue" stroke="midnightblue" points="998.68,-134.01 1007.09,-127.56 996.5,-127.36 998.68,-134.01"/>
</g>
<!-- Node14 -->
<g id="node14" class="node">
<title>Node14</title>
<g id="a_node14"><a xlink:href="../../d4/d15/classjavolution_1_1xml_1_1internal_1_1stream_1_1XMLStreamWriterImpl.html#a769e125d8d20ad3a91b29195cce848b8" target="_top" xlink:title=" ">
<polygon fill="white" stroke="black" points="719,-73.5 719,-103.5 934,-103.5 934,-73.5 719,-73.5"/>
<text text-anchor="start" x="727" y="-91.5" font-family="Helvetica,sans-Serif" font-size="10.00">javolution.xml.internal.stream.</text>
<text text-anchor="middle" x="826.5" y="-80.5" font-family="Helvetica,sans-Serif" font-size="10.00">XMLStreamWriterImpl.writeNewElement</text>
</a>
</g>
</g>
<!-- Node1&#45;&gt;Node14 -->
<g id="edge13" class="edge">
<title>Node1&#45;&gt;Node14</title>
<path fill="none" stroke="midnightblue" d="M960.04,-102.61C951.49,-101.7 942.79,-100.77 934.13,-99.85"/>
<polygon fill="midnightblue" stroke="midnightblue" points="959.68,-106.09 969.99,-103.67 960.42,-99.13 959.68,-106.09"/>
</g>
<!-- Node3 -->
<g id="node3" class="node">
<title>Node3</title>
<g id="a_node3"><a xlink:href="../../d0/d65/classjavolution_1_1xml_1_1internal_1_1stream_1_1XMLStreamReaderImpl.html#a72b51558d2acd9213ab216592156ca55" target="_top" xlink:title=" ">
<polygon fill="white" stroke="black" points="470.5,-318.5 470.5,-348.5 679.5,-348.5 679.5,-318.5 470.5,-318.5"/>
<text text-anchor="start" x="478.5" y="-336.5" font-family="Helvetica,sans-Serif" font-size="10.00">javolution.xml.internal.stream.</text>
<text text-anchor="middle" x="575" y="-325.5" font-family="Helvetica,sans-Serif" font-size="10.00">XMLStreamReaderImpl.getElementText</text>
</a>
</g>
</g>
<!-- Node2&#45;&gt;Node3 -->
<g id="edge2" class="edge">
<title>Node2&#45;&gt;Node3</title>
<path fill="none" stroke="midnightblue" d="M805.77,-209.36C780.29,-237.38 733.21,-284.22 683,-309.5 676.11,-312.97 668.73,-315.94 661.17,-318.48"/>
<polygon fill="midnightblue" stroke="midnightblue" points="808.6,-211.44 812.66,-201.66 803.39,-206.78 808.6,-211.44"/>
</g>
<!-- Node5 -->
<g id="node5" class="node">
<title>Node5</title>
<g id="a_node5"><a xlink:href="../../d9/d60/classjavolution_1_1xml_1_1XMLFormat_1_1InputElement.html#a1a9f1d9cc2954e37458f7e2eacbd4563" target="_top" xlink:title=" ">
<polygon fill="white" stroke="black" points="500.5,-269.5 500.5,-299.5 649.5,-299.5 649.5,-269.5 500.5,-269.5"/>
<text text-anchor="start" x="508.5" y="-287.5" font-family="Helvetica,sans-Serif" font-size="10.00">javolution.xml.XMLFormat.</text>
<text text-anchor="middle" x="575" y="-276.5" font-family="Helvetica,sans-Serif" font-size="10.00">InputElement.getNext</text>
</a>
</g>
</g>
<!-- Node2&#45;&gt;Node5 -->
<g id="edge4" class="edge">
<title>Node2&#45;&gt;Node5</title>
<path fill="none" stroke="midnightblue" d="M792.52,-206.75C764.34,-223.29 722.23,-246.19 683,-260.5 672.36,-264.38 660.88,-267.76 649.54,-270.65"/>
<polygon fill="midnightblue" stroke="midnightblue" points="794.35,-209.74 801.17,-201.63 790.78,-203.72 794.35,-209.74"/>
</g>
<!-- Node6 -->
<g id="node6" class="node">
<title>Node6</title>
<g id="a_node6"><a xlink:href="../../d0/d65/classjavolution_1_1xml_1_1internal_1_1stream_1_1XMLStreamReaderImpl.html#a22803c21708a1c61db9f45c43e0d3ecc" target="_top" xlink:title=" ">
<polygon fill="white" stroke="black" points="490,-220.5 490,-250.5 660,-250.5 660,-220.5 490,-220.5"/>
<text text-anchor="start" x="498" y="-238.5" font-family="Helvetica,sans-Serif" font-size="10.00">javolution.xml.internal.stream.</text>
<text text-anchor="middle" x="575" y="-227.5" font-family="Helvetica,sans-Serif" font-size="10.00">XMLStreamReaderImpl.nextTag</text>
</a>
</g>
</g>
<!-- Node2&#45;&gt;Node6 -->
<g id="edge5" class="edge">
<title>Node2&#45;&gt;Node6</title>
<path fill="none" stroke="midnightblue" d="M739.1,-203.47C710.91,-209 679.82,-215.11 652.41,-220.49"/>
<polygon fill="midnightblue" stroke="midnightblue" points="739.81,-206.9 748.95,-201.53 738.46,-200.03 739.81,-206.9"/>
</g>
<!-- Node8 -->
<g id="node8" class="node">
<title>Node8</title>
<g id="a_node8"><a xlink:href="../../d6/d79/classjavolution_1_1xml_1_1sax_1_1XMLReaderImpl.html#a7060e3d22c1cb128897bfc57a7e0cc64" target="_top" xlink:title=" ">
<polygon fill="white" stroke="black" points="492,-171.5 492,-201.5 658,-201.5 658,-171.5 492,-171.5"/>
<text text-anchor="start" x="500" y="-189.5" font-family="Helvetica,sans-Serif" font-size="10.00">javolution.xml.sax.XMLReader</text>
<text text-anchor="middle" x="575" y="-178.5" font-family="Helvetica,sans-Serif" font-size="10.00">Impl.parseAll</text>
</a>
</g>
</g>
<!-- Node2&#45;&gt;Node8 -->
<g id="edge7" class="edge">
<title>Node2&#45;&gt;Node8</title>
<path fill="none" stroke="midnightblue" d="M732.14,-186.5C707.88,-186.5 681.93,-186.5 658.29,-186.5"/>
<polygon fill="midnightblue" stroke="midnightblue" points="732.42,-190 742.42,-186.5 732.42,-183 732.42,-190"/>
</g>
<!-- Node12 -->
<g id="node12" class="node">
<title>Node12</title>
<g id="a_node12"><a xlink:href="../../d9/d60/classjavolution_1_1xml_1_1XMLFormat_1_1InputElement.html#ace8288707b8a3cb46bf483440533fd1e" target="_top" xlink:title=" ">
<polygon fill="white" stroke="black" points="497,-122.5 497,-152.5 653,-152.5 653,-122.5 497,-122.5"/>
<text text-anchor="start" x="505" y="-140.5" font-family="Helvetica,sans-Serif" font-size="10.00">javolution.xml.XMLFormat.</text>
<text text-anchor="middle" x="575" y="-129.5" font-family="Helvetica,sans-Serif" font-size="10.00">InputElement.readReference</text>
</a>
</g>
</g>
<!-- Node2&#45;&gt;Node12 -->
<g id="edge11" class="edge">
<title>Node2&#45;&gt;Node12</title>
<path fill="none" stroke="midnightblue" d="M739.1,-169.53C710.91,-164 679.82,-157.89 652.41,-152.51"/>
<polygon fill="midnightblue" stroke="midnightblue" points="738.46,-172.97 748.95,-171.47 739.81,-166.1 738.46,-172.97"/>
</g>
<!-- Node13 -->
<g id="node13" class="node">
<title>Node13</title>
<g id="a_node13"><a xlink:href="../../d0/d65/classjavolution_1_1xml_1_1internal_1_1stream_1_1XMLStreamReaderImpl.html#a5e11adbb1f420b45116c6412caf6ccf1" target="_top" xlink:title=" ">
<polygon fill="white" stroke="black" points="489,-73.5 489,-103.5 661,-103.5 661,-73.5 489,-73.5"/>
<text text-anchor="start" x="497" y="-91.5" font-family="Helvetica,sans-Serif" font-size="10.00">javolution.xml.internal.stream.</text>
<text text-anchor="middle" x="575" y="-80.5" font-family="Helvetica,sans-Serif" font-size="10.00">XMLStreamReaderImpl.setInput</text>
</a>
</g>
</g>
<!-- Node2&#45;&gt;Node13 -->
<g id="edge12" class="edge">
<title>Node2&#45;&gt;Node13</title>
<path fill="none" stroke="midnightblue" d="M791.94,-166.34C763.72,-150.12 721.86,-127.75 683,-113.5 672.79,-109.76 661.82,-106.44 650.94,-103.55"/>
<polygon fill="midnightblue" stroke="midnightblue" points="790.2,-169.37 800.61,-171.37 793.72,-163.32 790.2,-169.37"/>
</g>
<!-- Node4 -->
<g id="node4" class="node">
<title>Node4</title>
<g id="a_node4"><a xlink:href="../../d9/d60/classjavolution_1_1xml_1_1XMLFormat_1_1InputElement.html#a1858fc90a06227e089492a4f40fc77ac" target="_top" xlink:title=" ">
<polygon fill="white" stroke="black" points="244.5,-318.5 244.5,-348.5 393.5,-348.5 393.5,-318.5 244.5,-318.5"/>
<text text-anchor="start" x="252.5" y="-336.5" font-family="Helvetica,sans-Serif" font-size="10.00">javolution.xml.XMLFormat.</text>
<text text-anchor="middle" x="319" y="-325.5" font-family="Helvetica,sans-Serif" font-size="10.00">InputElement.getText</text>
</a>
</g>
</g>
<!-- Node3&#45;&gt;Node4 -->
<g id="edge3" class="edge">
<title>Node3&#45;&gt;Node4</title>
<path fill="none" stroke="midnightblue" d="M460.04,-333.5C437.56,-333.5 414.53,-333.5 393.81,-333.5"/>
<polygon fill="midnightblue" stroke="midnightblue" points="460.32,-337 470.32,-333.5 460.32,-330 460.32,-337"/>
</g>
<!-- Node7 -->
<g id="node7" class="node">
<title>Node7</title>
<g id="a_node7"><a xlink:href="../../d9/d60/classjavolution_1_1xml_1_1XMLFormat_1_1InputElement.html#af7d0a9ca04a7340a049b615e947c88ca" target="_top" xlink:title=" ">
<polygon fill="white" stroke="black" points="244.5,-220.5 244.5,-250.5 393.5,-250.5 393.5,-220.5 244.5,-220.5"/>
<text text-anchor="start" x="252.5" y="-238.5" font-family="Helvetica,sans-Serif" font-size="10.00">javolution.xml.XMLFormat.</text>
<text text-anchor="middle" x="319" y="-227.5" font-family="Helvetica,sans-Serif" font-size="10.00">InputElement.hasNext</text>
</a>
</g>
</g>
<!-- Node6&#45;&gt;Node7 -->
<g id="edge6" class="edge">
<title>Node6&#45;&gt;Node7</title>
<path fill="none" stroke="midnightblue" d="M479.46,-235.5C451.15,-235.5 420.53,-235.5 393.76,-235.5"/>
<polygon fill="midnightblue" stroke="midnightblue" points="479.77,-239 489.77,-235.5 479.77,-232 479.77,-239"/>
</g>
<!-- Node9 -->
<g id="node9" class="node">
<title>Node9</title>
<g id="a_node9"><a xlink:href="../../d6/d79/classjavolution_1_1xml_1_1sax_1_1XMLReaderImpl.html#af59c6a5e7282b94dea9be9452f9c945e" target="_top" xlink:title=" ">
<polygon fill="white" stroke="black" points="236,-171.5 236,-201.5 402,-201.5 402,-171.5 236,-171.5"/>
<text text-anchor="start" x="244" y="-189.5" font-family="Helvetica,sans-Serif" font-size="10.00">javolution.xml.sax.XMLReader</text>
<text text-anchor="middle" x="319" y="-178.5" font-family="Helvetica,sans-Serif" font-size="10.00">Impl.parse</text>
</a>
</g>
</g>
<!-- Node8&#45;&gt;Node9 -->
<g id="edge8" class="edge">
<title>Node8&#45;&gt;Node9</title>
<path fill="none" stroke="midnightblue" d="M481.66,-186.5C455.69,-186.5 427.61,-186.5 402.27,-186.5"/>
<polygon fill="midnightblue" stroke="midnightblue" points="481.88,-190 491.88,-186.5 481.88,-183 481.88,-190"/>
</g>
<!-- Node10 -->
<g id="node10" class="node">
<title>Node10</title>
<g id="a_node10"><a xlink:href="../../d5/de1/classjavolution_1_1xml_1_1sax_1_1SAX2ReaderImpl.html#ac88f97df2622809ba9f127e173f20f17" target="_top" xlink:title=" ">
<polygon fill="white" stroke="black" points="0,-195.5 0,-225.5 171,-225.5 171,-195.5 0,-195.5"/>
<text text-anchor="start" x="8" y="-213.5" font-family="Helvetica,sans-Serif" font-size="10.00">javolution.xml.sax.SAX2Reader</text>
<text text-anchor="middle" x="85.5" y="-202.5" font-family="Helvetica,sans-Serif" font-size="10.00">Impl.parse</text>
</a>
</g>
</g>
<!-- Node9&#45;&gt;Node10 -->
<g id="edge9" class="edge">
<title>Node9&#45;&gt;Node10</title>
<path fill="none" stroke="midnightblue" d="M225.57,-196.08C207.63,-197.94 188.92,-199.88 171.24,-201.71"/>
<polygon fill="midnightblue" stroke="midnightblue" points="226.14,-199.54 235.73,-195.03 225.42,-192.58 226.14,-199.54"/>
</g>
<!-- Node11 -->
<g id="node11" class="node">
<title>Node11</title>
<g id="a_node11"><a xlink:href="../../d6/d79/classjavolution_1_1xml_1_1sax_1_1XMLReaderImpl.html#a255e7cbc9ce8eced22fae7c8138b6cfb" target="_top" xlink:title=" ">
<polygon fill="white" stroke="black" points="2.5,-146.5 2.5,-176.5 168.5,-176.5 168.5,-146.5 2.5,-146.5"/>
<text text-anchor="start" x="10.5" y="-164.5" font-family="Helvetica,sans-Serif" font-size="10.00">javolution.xml.sax.XMLReader</text>
<text text-anchor="middle" x="85.5" y="-153.5" font-family="Helvetica,sans-Serif" font-size="10.00">Impl.parse</text>
</a>
</g>
</g>
<!-- Node9&#45;&gt;Node11 -->
<g id="edge10" class="edge">
<title>Node9&#45;&gt;Node11</title>
<path fill="none" stroke="midnightblue" d="M225.64,-176.53C206.76,-174.49 187,-172.35 168.51,-170.36"/>
<polygon fill="midnightblue" stroke="midnightblue" points="225.41,-180.02 235.73,-177.62 226.16,-173.06 225.41,-180.02"/>
</g>
<!-- Node15 -->
<g id="node15" class="node">
<title>Node15</title>
<g id="a_node15"><a xlink:href="../../d4/d15/classjavolution_1_1xml_1_1internal_1_1stream_1_1XMLStreamWriterImpl.html#a232fc285f8aefd00c5d216b6ea0e3b10" target="_top" xlink:title=" ">
<polygon fill="white" stroke="black" points="467,-24.5 467,-54.5 683,-54.5 683,-24.5 467,-24.5"/>
<text text-anchor="start" x="475" y="-42.5" font-family="Helvetica,sans-Serif" font-size="10.00">javolution.xml.internal.stream.</text>
<text text-anchor="middle" x="575" y="-31.5" font-family="Helvetica,sans-Serif" font-size="10.00">XMLStreamWriterImpl.writeStartElement</text>
</a>
</g>
</g>
<!-- Node14&#45;&gt;Node15 -->
<g id="edge14" class="edge">
<title>Node14&#45;&gt;Node15</title>
<path fill="none" stroke="midnightblue" d="M739.1,-71.53C710.91,-66 679.82,-59.89 652.41,-54.51"/>
<polygon fill="midnightblue" stroke="midnightblue" points="738.46,-74.97 748.95,-73.47 739.81,-68.1 738.46,-74.97"/>
</g>
<!-- Node16 -->
<g id="node16" class="node">
<title>Node16</title>
<g id="a_node16"><a xlink:href="../../da/db8/classjavolution_1_1xml_1_1XMLFormat_1_1OutputElement.html#a17a19e412ff5a75a0d217f5b5f826303" target="_top" xlink:title=" ">
<polygon fill="white" stroke="black" points="244.5,-49.5 244.5,-79.5 393.5,-79.5 393.5,-49.5 244.5,-49.5"/>
<text text-anchor="start" x="252.5" y="-67.5" font-family="Helvetica,sans-Serif" font-size="10.00">javolution.xml.XMLFormat.</text>
<text text-anchor="middle" x="319" y="-56.5" font-family="Helvetica,sans-Serif" font-size="10.00">OutputElement.add</text>
</a>
</g>
</g>
<!-- Node15&#45;&gt;Node16 -->
<g id="edge15" class="edge">
<title>Node15&#45;&gt;Node16</title>
<path fill="none" stroke="midnightblue" d="M456.5,-51.07C435.05,-53.18 413.23,-55.32 393.52,-57.26"/>
<polygon fill="midnightblue" stroke="midnightblue" points="457.04,-54.53 466.65,-50.07 456.35,-47.56 457.04,-54.53"/>
</g>
<!-- Node17 -->
<g id="node17" class="node">
<title>Node17</title>
<g id="a_node17"><a xlink:href="../../d4/d15/classjavolution_1_1xml_1_1internal_1_1stream_1_1XMLStreamWriterImpl.html#ad7df95a59e2be09031660f16d8429efa" target="_top" xlink:title=" ">
<polygon fill="white" stroke="black" points="207,-0.5 207,-30.5 431,-30.5 431,-0.5 207,-0.5"/>
<text text-anchor="start" x="215" y="-18.5" font-family="Helvetica,sans-Serif" font-size="10.00">javolution.xml.internal.stream.</text>
<text text-anchor="middle" x="319" y="-7.5" font-family="Helvetica,sans-Serif" font-size="10.00">XMLStreamWriterImpl.writeEmptyElement</text>
</a>
</g>
</g>
<!-- Node15&#45;&gt;Node17 -->
<g id="edge16" class="edge">
<title>Node15&#45;&gt;Node17</title>
<path fill="none" stroke="midnightblue" d="M456.66,-28.41C448.13,-27.61 439.53,-26.79 431.04,-25.99"/>
<polygon fill="midnightblue" stroke="midnightblue" points="456.36,-31.9 466.65,-29.36 457.02,-24.93 456.36,-31.9"/>
</g>
<!-- Node18 -->
<g id="node18" class="node">
<title>Node18</title>
<g id="a_node18"><a xlink:href="../../da/db8/classjavolution_1_1xml_1_1XMLFormat_1_1OutputElement.html#a9b282a5fadd8a8f86e0bbea54c71ca29" target="_top" xlink:title=" ">
<polygon fill="white" stroke="black" points="11,-0.5 11,-30.5 160,-30.5 160,-0.5 11,-0.5"/>
<text text-anchor="start" x="19" y="-18.5" font-family="Helvetica,sans-Serif" font-size="10.00">javolution.xml.XMLFormat.</text>
<text text-anchor="middle" x="85.5" y="-7.5" font-family="Helvetica,sans-Serif" font-size="10.00">OutputElement.add</text>
</a>
</g>
</g>
<!-- Node17&#45;&gt;Node18 -->
<g id="edge17" class="edge">
<title>Node17&#45;&gt;Node18</title>
<path fill="none" stroke="midnightblue" d="M196.93,-15.5C184.39,-15.5 171.93,-15.5 160.15,-15.5"/>
<polygon fill="midnightblue" stroke="midnightblue" points="197,-19 207,-15.5 197,-12 197,-19"/>
</g>
</g>
</svg>
        <g id="navigator" transform="translate(0 0)" fill="#404254">
                <rect fill="#f2f5e9" fill-opacity="0.5" stroke="#606060" stroke-width=".5" x="0" y="0" width="60" height="60"/>
                <use id="zoomplus" xlink:href="#zoomPlus" x="17" y="9" onmousedown="handleZoom(evt,'in')"/>
                <use id="zoomminus" xlink:href="#zoomMin" x="42" y="9" onmousedown="handleZoom(evt,'out')"/>
                <use id="reset" xlink:href="#resetDef" x="30" y="36" onmousedown="handleReset()"/>
                <g id="arrowUp" xlink:href="#dirArrow" transform="translate(30 24)" onmousedown="handlePan(0,-1)">
                  <use xlink:href="#rim" fill="#404040">
                        <set attributeName="fill" to="#808080" begin="arrowUp.mouseover" end="arrowUp.mouseout"/>
                  </use>
                  <path fill="none" stroke="white" stroke-width="1.5" d="M0,-3.0v7 M-2.5,-0.5L0,-3.0L2.5,-0.5"/>
                </g>
                <g id="arrowRight" xlink:href="#dirArrow" transform="rotate(90) translate(36 -43)" onmousedown="handlePan(1,0)">
                  <use xlink:href="#rim" fill="#404040">
                        <set attributeName="fill" to="#808080" begin="arrowRight.mouseover" end="arrowRight.mouseout"/>
                  </use>
                  <path fill="none" stroke="white" stroke-width="1.5" d="M0,-3.0v7 M-2.5,-0.5L0,-3.0L2.5,-0.5"/>
                </g>
                <g id="arrowDown" xlink:href="#dirArrow" transform="rotate(180) translate(-30 -48)" onmousedown="handlePan(0,1)">
                  <use xlink:href="#rim" fill="#404040">
                        <set attributeName="fill" to="#808080" begin="arrowDown.mouseover" end="arrowDown.mouseout"/>
                  </use>
                  <path fill="none" stroke="white" stroke-width="1.5" d="M0,-3.0v7 M-2.5,-0.5L0,-3.0L2.5,-0.5"/>
                </g>
                <g id="arrowLeft" xlink:href="#dirArrow" transform="rotate(270) translate(-36 17)" onmousedown="handlePan(-1,0)">
                  <use xlink:href="#rim" fill="#404040">
                        <set attributeName="fill" to="#808080" begin="arrowLeft.mouseover" end="arrowLeft.mouseout"/>
                  </use>
                  <path fill="none" stroke="white" stroke-width="1.5" d="M0,-3.0v7 M-2.5,-0.5L0,-3.0L2.5,-0.5"/>
                </g>
        </g>
        <svg viewBox="0 0 15 15" width="100%" height="30px" preserveAspectRatio="xMaxYMin meet">
         <g id="arrow_out" transform="scale(0.3 0.3)">
          <a xlink:href="classjavolution_1_1xml_1_1internal_1_1stream_1_1NamespacesImpl_ae1cf4d787f513f4e70688869f60aed22_icgraph_org.svg" target="_base">
           <rect id="button" ry="5" rx="5" y="6" x="6" height="38" width="38"
                fill="#f2f5e9" fill-opacity="0.5" stroke="#606060" stroke-width="1.0"/>
           <path id="arrow"
             d="M 11.500037,31.436501 C 11.940474,20.09759 22.043105,11.32322 32.158766,21.979434 L 37.068811,17.246167 C 37.068811,17.246167 37.088388,32 37.088388,32 L 22.160133,31.978069 C 22.160133,31.978069 26.997745,27.140456 26.997745,27.140456 C 18.528582,18.264221 13.291696,25.230495 11.500037,31.436501 z"
             style="fill:#404040;"/>
          </a>
         </g>
        </svg>
</svg>
