<?xml version="1.0" encoding="UTF-8" standalone="no"?>
<!DOCTYPE svg PUBLIC "-//W3C//DTD SVG 1.1//EN"
 "http://www.w3.org/Graphics/SVG/1.1/DTD/svg11.dtd">
<!-- Generated by graphviz version 2.43.0 (0)
 -->
<!-- Title: javolution.xml.internal.stream.NamespacesImpl.reset Pages: 1 -->
<svg width="1277pt" height="361pt"
 viewBox="0.00 0.00 1277.00 361.00" xmlns="http://www.w3.org/2000/svg" xmlns:xlink="http://www.w3.org/1999/xlink">
<g id="graph0" class="graph" transform="scale(1 1) rotate(0) translate(4 357)">
<title>javolution.xml.internal.stream.NamespacesImpl.reset</title>
<polygon fill="white" stroke="transparent" points="-4,4 -4,-357 1273,-357 1273,4 -4,4"/>
<!-- Node1 -->
<g id="node1" class="node">
<title>Node1</title>
<g id="a_node1"><a xlink:title=" ">
<polygon fill="#bfbfbf" stroke="black" points="1101,-200.5 1101,-230.5 1269,-230.5 1269,-200.5 1101,-200.5"/>
<text text-anchor="start" x="1109" y="-218.5" font-family="Helvetica,sans-Serif" font-size="10.00">javolution.xml.internal.stream.</text>
<text text-anchor="middle" x="1185" y="-207.5" font-family="Helvetica,sans-Serif" font-size="10.00">NamespacesImpl.reset</text>
</a>
</g>
</g>
<!-- Node2 -->
<g id="node2" class="node">
<title>Node2</title>
<g id="a_node2"><a xlink:href="../../d4/d15/classjavolution_1_1xml_1_1internal_1_1stream_1_1XMLStreamWriterImpl.html#aba48091580672ad8ff8565f38f7195b1" target="_top" xlink:title=" ">
<polygon fill="white" stroke="black" points="897,-273.5 897,-303.5 1065,-303.5 1065,-273.5 897,-273.5"/>
<text text-anchor="start" x="905" y="-291.5" font-family="Helvetica,sans-Serif" font-size="10.00">javolution.xml.internal.stream.</text>
<text text-anchor="middle" x="981" y="-280.5" font-family="Helvetica,sans-Serif" font-size="10.00">XMLStreamWriterImpl.reset</text>
</a>
</g>
</g>
<!-- Node1&#45;&gt;Node2 -->
<g id="edge1" class="edge">
<title>Node1&#45;&gt;Node2</title>
<path fill="none" stroke="midnightblue" d="M1132.47,-234.12C1098.78,-246.3 1055.34,-262 1023.8,-273.39"/>
<polygon fill="midnightblue" stroke="midnightblue" points="1133.93,-237.32 1142.15,-230.63 1131.55,-230.73 1133.93,-237.32"/>
</g>
<!-- Node5 -->
<g id="node5" class="node">
<title>Node5</title>
<g id="a_node5"><a xlink:href="../../d0/d65/classjavolution_1_1xml_1_1internal_1_1stream_1_1XMLStreamReaderImpl.html#a98505dd442c566beb5d5c144525ccdb7" target="_top" xlink:title=" ">
<polygon fill="white" stroke="black" points="897,-151.5 897,-181.5 1065,-181.5 1065,-151.5 897,-151.5"/>
<text text-anchor="start" x="905" y="-169.5" font-family="Helvetica,sans-Serif" font-size="10.00">javolution.xml.internal.stream.</text>
<text text-anchor="middle" x="981" y="-158.5" font-family="Helvetica,sans-Serif" font-size="10.00">XMLStreamReaderImpl.reset</text>
</a>
</g>
</g>
<!-- Node1&#45;&gt;Node5 -->
<g id="edge4" class="edge">
<title>Node1&#45;&gt;Node5</title>
<path fill="none" stroke="midnightblue" d="M1112.25,-198.1C1089.91,-192.68 1065.47,-186.75 1043.86,-181.51"/>
<polygon fill="midnightblue" stroke="midnightblue" points="1111.48,-201.51 1122.02,-200.47 1113.13,-194.71 1111.48,-201.51"/>
</g>
<!-- Node3 -->
<g id="node3" class="node">
<title>Node3</title>
<g id="a_node3"><a xlink:href="../../d4/d15/classjavolution_1_1xml_1_1internal_1_1stream_1_1XMLStreamWriterImpl.html#a07948be0cb30dec4561b8021e6efdecc" target="_top" xlink:title=" ">
<polygon fill="white" stroke="black" points="691,-273.5 691,-303.5 859,-303.5 859,-273.5 691,-273.5"/>
<text text-anchor="start" x="699" y="-291.5" font-family="Helvetica,sans-Serif" font-size="10.00">javolution.xml.internal.stream.</text>
<text text-anchor="middle" x="775" y="-280.5" font-family="Helvetica,sans-Serif" font-size="10.00">XMLStreamWriterImpl.close</text>
</a>
</g>
</g>
<!-- Node2&#45;&gt;Node3 -->
<g id="edge2" class="edge">
<title>Node2&#45;&gt;Node3</title>
<path fill="none" stroke="midnightblue" d="M886.45,-288.5C877.29,-288.5 868.04,-288.5 859,-288.5"/>
<polygon fill="midnightblue" stroke="midnightblue" points="886.73,-292 896.73,-288.5 886.73,-285 886.73,-292"/>
</g>
<!-- Node4 -->
<g id="node4" class="node">
<title>Node4</title>
<g id="a_node4"><a xlink:href="../../da/db8/classjavolution_1_1xml_1_1XMLFormat_1_1OutputElement.html#ab717c9067588f7443d846552fa7f86d8" target="_top" xlink:title=" ">
<polygon fill="white" stroke="black" points="700.5,-322.5 700.5,-352.5 849.5,-352.5 849.5,-322.5 700.5,-322.5"/>
<text text-anchor="start" x="708.5" y="-340.5" font-family="Helvetica,sans-Serif" font-size="10.00">javolution.xml.XMLFormat.</text>
<text text-anchor="middle" x="775" y="-329.5" font-family="Helvetica,sans-Serif" font-size="10.00">OutputElement.reset</text>
</a>
</g>
</g>
<!-- Node2&#45;&gt;Node4 -->
<g id="edge3" class="edge">
<title>Node2&#45;&gt;Node4</title>
<path fill="none" stroke="midnightblue" d="M907.54,-305.9C884.98,-311.32 860.3,-317.25 838.47,-322.49"/>
<polygon fill="midnightblue" stroke="midnightblue" points="908.5,-309.27 917.41,-303.53 906.87,-302.47 908.5,-309.27"/>
</g>
<!-- Node6 -->
<g id="node6" class="node">
<title>Node6</title>
<g id="a_node6"><a xlink:href="../../d0/d65/classjavolution_1_1xml_1_1internal_1_1stream_1_1XMLStreamReaderImpl.html#aac6d2e99d06abadc8f1cb1d7b3afa032" target="_top" xlink:title=" ">
<polygon fill="white" stroke="black" points="691,-126.5 691,-156.5 859,-156.5 859,-126.5 691,-126.5"/>
<text text-anchor="start" x="699" y="-144.5" font-family="Helvetica,sans-Serif" font-size="10.00">javolution.xml.internal.stream.</text>
<text text-anchor="middle" x="775" y="-133.5" font-family="Helvetica,sans-Serif" font-size="10.00">XMLStreamReaderImpl.close</text>
</a>
</g>
</g>
<!-- Node5&#45;&gt;Node6 -->
<g id="edge5" class="edge">
<title>Node5&#45;&gt;Node6</title>
<path fill="none" stroke="midnightblue" d="M886.74,-155.07C877.49,-153.94 868.14,-152.79 859,-151.67"/>
<polygon fill="midnightblue" stroke="midnightblue" points="886.38,-158.55 896.73,-156.3 887.23,-151.6 886.38,-158.55"/>
</g>
<!-- Node8 -->
<g id="node8" class="node">
<title>Node8</title>
<g id="a_node8"><a xlink:href="../../d6/d79/classjavolution_1_1xml_1_1sax_1_1XMLReaderImpl.html#af59c6a5e7282b94dea9be9452f9c945e" target="_top" xlink:title=" ">
<polygon fill="white" stroke="black" points="207,-117.5 207,-147.5 373,-147.5 373,-117.5 207,-117.5"/>
<text text-anchor="start" x="215" y="-135.5" font-family="Helvetica,sans-Serif" font-size="10.00">javolution.xml.sax.XMLReader</text>
<text text-anchor="middle" x="290" y="-124.5" font-family="Helvetica,sans-Serif" font-size="10.00">Impl.parse</text>
</a>
</g>
</g>
<!-- Node5&#45;&gt;Node8 -->
<g id="edge10" class="edge">
<title>Node5&#45;&gt;Node8</title>
<path fill="none" stroke="midnightblue" d="M943.61,-146.74C920.65,-135.42 889.96,-122.34 861,-116.5 690.2,-82.08 484.84,-102.55 373.16,-118.7"/>
<polygon fill="midnightblue" stroke="midnightblue" points="942.13,-149.92 952.64,-151.3 945.29,-143.67 942.13,-149.92"/>
</g>
<!-- Node11 -->
<g id="node11" class="node">
<title>Node11</title>
<g id="a_node11"><a xlink:href="../../d6/d79/classjavolution_1_1xml_1_1sax_1_1XMLReaderImpl.html#a403487b6864dff409805fba53a7607b3" target="_top" xlink:title=" ">
<polygon fill="white" stroke="black" points="692,-38.5 692,-68.5 858,-68.5 858,-38.5 692,-38.5"/>
<text text-anchor="start" x="700" y="-56.5" font-family="Helvetica,sans-Serif" font-size="10.00">javolution.xml.sax.XMLReader</text>
<text text-anchor="middle" x="775" y="-45.5" font-family="Helvetica,sans-Serif" font-size="10.00">Impl.reset</text>
</a>
</g>
</g>
<!-- Node5&#45;&gt;Node11 -->
<g id="edge11" class="edge">
<title>Node5&#45;&gt;Node11</title>
<path fill="none" stroke="midnightblue" d="M953.63,-144.98C930.35,-126.76 894.93,-100.91 861,-83.5 850,-77.86 837.7,-72.84 825.94,-68.6"/>
<polygon fill="midnightblue" stroke="midnightblue" points="951.62,-147.85 961.63,-151.31 955.96,-142.36 951.62,-147.85"/>
</g>
<!-- Node13 -->
<g id="node13" class="node">
<title>Node13</title>
<g id="a_node13"><a xlink:href="../../d9/d60/classjavolution_1_1xml_1_1XMLFormat_1_1InputElement.html#afbd858642dc848b2beab252ed35ee255" target="_top" xlink:title=" ">
<polygon fill="white" stroke="black" points="700.5,-224.5 700.5,-254.5 849.5,-254.5 849.5,-224.5 700.5,-224.5"/>
<text text-anchor="start" x="708.5" y="-242.5" font-family="Helvetica,sans-Serif" font-size="10.00">javolution.xml.XMLFormat.</text>
<text text-anchor="middle" x="775" y="-231.5" font-family="Helvetica,sans-Serif" font-size="10.00">InputElement.reset</text>
</a>
</g>
</g>
<!-- Node5&#45;&gt;Node13 -->
<g id="edge14" class="edge">
<title>Node5&#45;&gt;Node13</title>
<path fill="none" stroke="midnightblue" d="M937.04,-185.59C914.62,-195.2 886.59,-206.65 861,-215.5 852.01,-218.61 842.4,-221.62 832.98,-224.39"/>
<polygon fill="midnightblue" stroke="midnightblue" points="938.49,-188.78 946.29,-181.6 935.72,-182.35 938.49,-188.78"/>
</g>
<!-- Node14 -->
<g id="node14" class="node">
<title>Node14</title>
<g id="a_node14"><a xlink:href="../../d0/d65/classjavolution_1_1xml_1_1internal_1_1stream_1_1XMLStreamReaderImpl.html#a8c07fcbcd43edd5092dfbf69089b5234" target="_top" xlink:title=" ">
<polygon fill="white" stroke="black" points="689,-175.5 689,-205.5 861,-205.5 861,-175.5 689,-175.5"/>
<text text-anchor="start" x="697" y="-193.5" font-family="Helvetica,sans-Serif" font-size="10.00">javolution.xml.internal.stream.</text>
<text text-anchor="middle" x="775" y="-182.5" font-family="Helvetica,sans-Serif" font-size="10.00">XMLStreamReaderImpl.setInput</text>
</a>
</g>
</g>
<!-- Node5&#45;&gt;Node14 -->
<g id="edge15" class="edge">
<title>Node5&#45;&gt;Node14</title>
<path fill="none" stroke="midnightblue" d="M886.53,-177.5C878.13,-178.48 869.65,-179.48 861.32,-180.46"/>
<polygon fill="midnightblue" stroke="midnightblue" points="887.21,-180.94 896.73,-176.3 886.39,-173.99 887.21,-180.94"/>
</g>
<!-- Node7 -->
<g id="node7" class="node">
<title>Node7</title>
<g id="a_node7"><a xlink:href="../../d6/d79/classjavolution_1_1xml_1_1sax_1_1XMLReaderImpl.html#a7060e3d22c1cb128897bfc57a7e0cc64" target="_top" xlink:title=" ">
<polygon fill="white" stroke="black" points="448,-126.5 448,-156.5 614,-156.5 614,-126.5 448,-126.5"/>
<text text-anchor="start" x="456" y="-144.5" font-family="Helvetica,sans-Serif" font-size="10.00">javolution.xml.sax.XMLReader</text>
<text text-anchor="middle" x="531" y="-133.5" font-family="Helvetica,sans-Serif" font-size="10.00">Impl.parseAll</text>
</a>
</g>
</g>
<!-- Node6&#45;&gt;Node7 -->
<g id="edge6" class="edge">
<title>Node6&#45;&gt;Node7</title>
<path fill="none" stroke="midnightblue" d="M680.45,-141.5C658.61,-141.5 635.51,-141.5 614.21,-141.5"/>
<polygon fill="midnightblue" stroke="midnightblue" points="680.72,-145 690.72,-141.5 680.72,-138 680.72,-145"/>
</g>
<!-- Node7&#45;&gt;Node8 -->
<g id="edge7" class="edge">
<title>Node7&#45;&gt;Node8</title>
<path fill="none" stroke="midnightblue" d="M437.49,-138.02C416.37,-137.22 394.06,-136.38 373.4,-135.6"/>
<polygon fill="midnightblue" stroke="midnightblue" points="437.63,-141.52 447.75,-138.4 437.89,-134.53 437.63,-141.52"/>
</g>
<!-- Node9 -->
<g id="node9" class="node">
<title>Node9</title>
<g id="a_node9"><a xlink:href="../../d5/de1/classjavolution_1_1xml_1_1sax_1_1SAX2ReaderImpl.html#ac88f97df2622809ba9f127e173f20f17" target="_top" xlink:title=" ">
<polygon fill="white" stroke="black" points="0,-60.5 0,-90.5 171,-90.5 171,-60.5 0,-60.5"/>
<text text-anchor="start" x="8" y="-78.5" font-family="Helvetica,sans-Serif" font-size="10.00">javolution.xml.sax.SAX2Reader</text>
<text text-anchor="middle" x="85.5" y="-67.5" font-family="Helvetica,sans-Serif" font-size="10.00">Impl.parse</text>
</a>
</g>
</g>
<!-- Node8&#45;&gt;Node9 -->
<g id="edge8" class="edge">
<title>Node8&#45;&gt;Node9</title>
<path fill="none" stroke="midnightblue" d="M225.61,-114.66C198.09,-106.91 166.21,-97.94 139.92,-90.54"/>
<polygon fill="midnightblue" stroke="midnightblue" points="224.96,-118.11 235.53,-117.45 226.85,-111.37 224.96,-118.11"/>
</g>
<!-- Node10 -->
<g id="node10" class="node">
<title>Node10</title>
<g id="a_node10"><a xlink:href="../../d6/d79/classjavolution_1_1xml_1_1sax_1_1XMLReaderImpl.html#a255e7cbc9ce8eced22fae7c8138b6cfb" target="_top" xlink:title=" ">
<polygon fill="white" stroke="black" points="2.5,-117.5 2.5,-147.5 168.5,-147.5 168.5,-117.5 2.5,-117.5"/>
<text text-anchor="start" x="10.5" y="-135.5" font-family="Helvetica,sans-Serif" font-size="10.00">javolution.xml.sax.XMLReader</text>
<text text-anchor="middle" x="85.5" y="-124.5" font-family="Helvetica,sans-Serif" font-size="10.00">Impl.parse</text>
</a>
</g>
</g>
<!-- Node8&#45;&gt;Node10 -->
<g id="edge9" class="edge">
<title>Node8&#45;&gt;Node10</title>
<path fill="none" stroke="midnightblue" d="M196.81,-132.5C187.43,-132.5 177.95,-132.5 168.69,-132.5"/>
<polygon fill="midnightblue" stroke="midnightblue" points="196.93,-136 206.93,-132.5 196.93,-129 196.93,-136"/>
</g>
<!-- Node11&#45;&gt;Node9 -->
<g id="edge12" class="edge">
<title>Node11&#45;&gt;Node9</title>
<path fill="none" stroke="midnightblue" d="M681.51,-56.46C547.4,-60.75 300.88,-68.64 171.26,-72.79"/>
<polygon fill="midnightblue" stroke="midnightblue" points="681.87,-59.95 691.75,-56.13 681.65,-52.95 681.87,-59.95"/>
</g>
<!-- Node12 -->
<g id="node12" class="node">
<title>Node12</title>
<g id="a_node12"><a xlink:href="../../d5/de1/classjavolution_1_1xml_1_1sax_1_1SAX2ReaderImpl.html#a82e36d38783a2a0b02085719edfe4663" target="_top" xlink:title=" ">
<polygon fill="white" stroke="black" points="445.5,-0.5 445.5,-30.5 616.5,-30.5 616.5,-0.5 445.5,-0.5"/>
<text text-anchor="start" x="453.5" y="-18.5" font-family="Helvetica,sans-Serif" font-size="10.00">javolution.xml.sax.SAX2Reader</text>
<text text-anchor="middle" x="531" y="-7.5" font-family="Helvetica,sans-Serif" font-size="10.00">Impl.reset</text>
</a>
</g>
</g>
<!-- Node11&#45;&gt;Node12 -->
<g id="edge13" class="edge">
<title>Node11&#45;&gt;Node12</title>
<path fill="none" stroke="midnightblue" d="M681.67,-39C660.25,-35.64 637.57,-32.08 616.51,-28.77"/>
<polygon fill="midnightblue" stroke="midnightblue" points="681.31,-42.49 691.73,-40.58 682.4,-35.57 681.31,-42.49"/>
</g>
<!-- Node14&#45;&gt;Node8 -->
<g id="edge17" class="edge">
<title>Node14&#45;&gt;Node8</title>
<path fill="none" stroke="midnightblue" d="M712.96,-208.1C639.13,-226.36 511.95,-248.08 409,-215.5 366.73,-202.12 326.5,-167.57 305.7,-147.51"/>
<polygon fill="midnightblue" stroke="midnightblue" points="714.18,-211.4 723.01,-205.55 712.46,-204.61 714.18,-211.4"/>
</g>
<!-- Node15 -->
<g id="node15" class="node">
<title>Node15</title>
<g id="a_node15"><a xlink:href="../../d9/d23/classjavolution_1_1xml_1_1internal_1_1stream_1_1XMLInputFactoryImpl.html#a75b218c412defa9de11acde243414e73" target="_top" xlink:title=" ">
<polygon fill="white" stroke="black" points="409,-175.5 409,-205.5 653,-205.5 653,-175.5 409,-175.5"/>
<text text-anchor="start" x="417" y="-193.5" font-family="Helvetica,sans-Serif" font-size="10.00">javolution.xml.internal.stream.</text>
<text text-anchor="middle" x="531" y="-182.5" font-family="Helvetica,sans-Serif" font-size="10.00">XMLInputFactoryImpl.createXMLStreamReader</text>
</a>
</g>
</g>
<!-- Node14&#45;&gt;Node15 -->
<g id="edge16" class="edge">
<title>Node14&#45;&gt;Node15</title>
<path fill="none" stroke="midnightblue" d="M678.54,-190.5C670.15,-190.5 661.59,-190.5 653.02,-190.5"/>
<polygon fill="midnightblue" stroke="midnightblue" points="678.68,-194 688.68,-190.5 678.68,-187 678.68,-194"/>
</g>
<!-- Node16 -->
<g id="node16" class="node">
<title>Node16</title>
<g id="a_node16"><a xlink:href="../../d0/d65/classjavolution_1_1xml_1_1internal_1_1stream_1_1XMLStreamReaderImpl.html#aee8c1ea975e36aaa3d5f3ee31c15c02f" target="_top" xlink:title=" ">
<polygon fill="white" stroke="black" points="445,-263.5 445,-293.5 617,-293.5 617,-263.5 445,-263.5"/>
<text text-anchor="start" x="453" y="-281.5" font-family="Helvetica,sans-Serif" font-size="10.00">javolution.xml.internal.stream.</text>
<text text-anchor="middle" x="531" y="-270.5" font-family="Helvetica,sans-Serif" font-size="10.00">XMLStreamReaderImpl.setInput</text>
</a>
</g>
</g>
<!-- Node14&#45;&gt;Node16 -->
<g id="edge18" class="edge">
<title>Node14&#45;&gt;Node16</title>
<path fill="none" stroke="midnightblue" d="M701.15,-209.45C696.95,-211.3 692.87,-213.31 689,-215.5 670.1,-226.17 672.13,-238.24 653,-248.5 641.56,-254.64 628.83,-259.55 616.05,-263.47"/>
<polygon fill="midnightblue" stroke="midnightblue" points="702.52,-212.67 710.47,-205.67 699.89,-206.19 702.52,-212.67"/>
</g>
</g>
</svg>
