<?xml version="1.0" encoding="UTF-8" standalone="no"?>
<!DOCTYPE svg PUBLIC "-//W3C//DTD SVG 1.1//EN"
 "http://www.w3.org/Graphics/SVG/1.1/DTD/svg11.dtd">
<!-- Generated by graphviz version 2.43.0 (0)
 -->
<!-- Title: javolution.xml.internal.stream.NamespacesImpl.getNamespaceURI Pages: 1 -->
<svg width="454pt" height="50pt"
 viewBox="0.00 0.00 454.00 50.00" xmlns="http://www.w3.org/2000/svg" xmlns:xlink="http://www.w3.org/1999/xlink">
<g id="graph0" class="graph" transform="scale(1 1) rotate(0) translate(4 46)">
<title>javolution.xml.internal.stream.NamespacesImpl.getNamespaceURI</title>
<polygon fill="white" stroke="transparent" points="-4,4 -4,-46 450,-46 450,4 -4,4"/>
<!-- Node1 -->
<g id="node1" class="node">
<title>Node1</title>
<g id="a_node1"><a xlink:title=" ">
<polygon fill="#bfbfbf" stroke="black" points="0,-6 0,-36 195,-36 195,-6 0,-6"/>
<text text-anchor="start" x="8" y="-24" font-family="Helvetica,sans-Serif" font-size="10.00">javolution.xml.internal.stream.</text>
<text text-anchor="middle" x="97.5" y="-13" font-family="Helvetica,sans-Serif" font-size="10.00">NamespacesImpl.getNamespaceURI</text>
</a>
</g>
</g>
<!-- Node2 -->
<g id="node2" class="node">
<title>Node2</title>
<g id="a_node2"><a xlink:href="../../dc/daa/classjavolution_1_1xml_1_1internal_1_1stream_1_1NamespacesImpl.html#a944dd086746ac448be3b3745133aaf0f" target="_top" xlink:title=" ">
<polygon fill="white" stroke="black" points="231,-0.5 231,-41.5 446,-41.5 446,-0.5 231,-0.5"/>
<text text-anchor="start" x="239" y="-29.5" font-family="Helvetica,sans-Serif" font-size="10.00">javolution.xml.internal.stream.</text>
<text text-anchor="start" x="239" y="-18.5" font-family="Helvetica,sans-Serif" font-size="10.00">NamespacesImpl.getNamespaceURINull</text>
<text text-anchor="middle" x="338.5" y="-7.5" font-family="Helvetica,sans-Serif" font-size="10.00">Allowed</text>
</a>
</g>
</g>
<!-- Node1&#45;&gt;Node2 -->
<g id="edge1" class="edge">
<title>Node1&#45;&gt;Node2</title>
<path fill="none" stroke="midnightblue" d="M195.02,-21C203.5,-21 212.13,-21 220.74,-21"/>
<polygon fill="midnightblue" stroke="midnightblue" points="220.84,-24.5 230.84,-21 220.84,-17.5 220.84,-24.5"/>
</g>
</g>
</svg>
