<?xml version="1.0" encoding="UTF-8" standalone="no"?>
<!DOCTYPE svg PUBLIC "-//W3C//DTD SVG 1.1//EN"
 "http://www.w3.org/Graphics/SVG/1.1/DTD/svg11.dtd">
<!-- Generated by graphviz version 2.43.0 (0)
 -->
<!-- Title: javolution.util.internal.collection.ParallelCollectionImpl.perform Pages: 1 -->
<!--zoomable 269 -->
<svg id="main" version="1.1" xmlns="http://www.w3.org/2000/svg" xmlns:xlink="http://www.w3.org/1999/xlink" xml:space="preserve" onload="init(evt)">
<style type="text/css"><![CDATA[
.edge:hover path { stroke: red; }
.edge:hover polygon { stroke: red; fill: red; }
]]></style>
<script type="text/javascript"><![CDATA[
var edges = document.getElementsByTagName('g');
if (edges && edges.length) {
  for (var i=0;i<edges.length;i++) {
    if (edges[i].id.substr(0,4)=='edge') {
      edges[i].setAttribute('class','edge');
    }
  }
}
]]></script>
        <defs>
                <circle id="rim" cx="0" cy="0" r="7"/>
                <circle id="rim2" cx="0" cy="0" r="3.5"/>
                <g id="zoomPlus">
                        <use xlink:href="#rim" fill="#404040">
                                <set attributeName="fill" to="#808080" begin="zoomplus.mouseover" end="zoomplus.mouseout"/>
                        </use>
                        <path d="M-4,0h8M0,-4v8" fill="none" stroke="white" stroke-width="1.5" pointer-events="none"/>
                </g>
                <g id="zoomMin">
                        <use xlink:href="#rim" fill="#404040">
                                <set attributeName="fill" to="#808080" begin="zoomminus.mouseover" end="zoomminus.mouseout"/>
                        </use>
                        <path d="M-4,0h8" fill="none" stroke="white" stroke-width="1.5" pointer-events="none"/>
                </g>
                <g id="dirArrow">
                        <path fill="none" stroke="white" stroke-width="1.5" d="M0,-3.0v7 M-2.5,-0.5L0,-3.0L2.5,-0.5"/>
                </g>
               <g id="resetDef">
                       <use xlink:href="#rim2" fill="#404040">
                               <set attributeName="fill" to="#808080" begin="reset.mouseover" end="reset.mouseout"/>
                       </use>
               </g>
        </defs>

<script type="text/javascript">
var viewWidth = 808;
var viewHeight = 269;
var sectionId = 'dynsection-10';
</script>
<script xlink:href="../../svgpan.js"/>
<svg id="graph" class="graph">
<g id="viewport">
<title>javolution.util.internal.collection.ParallelCollectionImpl.perform</title>
<polygon fill="white" stroke="transparent" points="-4,4 -4,-265 804,-265 804,4 -4,4"/>
<!-- Node1 -->
<g id="node1" class="node">
<title>Node1</title>
<g id="a_node1"><a xlink:title=" ">
<polygon fill="#bfbfbf" stroke="black" points="0,-93.5 0,-123.5 178,-123.5 178,-93.5 0,-93.5"/>
<text text-anchor="start" x="8" y="-111.5" font-family="Helvetica,sans-Serif" font-size="10.00">javolution.util.internal.collection.</text>
<text text-anchor="middle" x="89" y="-100.5" font-family="Helvetica,sans-Serif" font-size="10.00">ParallelCollectionImpl.perform</text>
</a>
</g>
</g>
<!-- Node2 -->
<g id="node2" class="node">
<title>Node2</title>
<g id="a_node2"><a xlink:href="../../d7/dda/classjavolution_1_1context_1_1ConcurrentContext.html#a6c82acd0e5f68e38a7fce9d652e4d88c" target="_top" xlink:title=" ">
<polygon fill="white" stroke="black" points="411,-181.5 411,-211.5 572,-211.5 572,-181.5 411,-181.5"/>
<text text-anchor="start" x="419" y="-199.5" font-family="Helvetica,sans-Serif" font-size="10.00">javolution.context.Concurrent</text>
<text text-anchor="middle" x="491.5" y="-188.5" font-family="Helvetica,sans-Serif" font-size="10.00">Context.enter</text>
</a>
</g>
</g>
<!-- Node1&#45;&gt;Node2 -->
<g id="edge1" class="edge">
<title>Node1&#45;&gt;Node2</title>
<path fill="none" stroke="midnightblue" d="M104.73,-123.51C126.39,-144.39 169.14,-181.24 214,-195.5 274.19,-214.63 345.54,-214.36 400.68,-209.58"/>
<polygon fill="midnightblue" stroke="midnightblue" points="401.15,-213.05 410.78,-208.64 400.5,-206.08 401.15,-213.05"/>
</g>
<!-- Node6 -->
<g id="node6" class="node">
<title>Node6</title>
<g id="a_node6"><a xlink:href="../../d7/dda/classjavolution_1_1context_1_1ConcurrentContext.html#aaab0ebd8e0461f0bfec9361914b5dfbb" target="_top" xlink:title=" ">
<polygon fill="white" stroke="black" points="214,-137.5 214,-167.5 375,-167.5 375,-137.5 214,-137.5"/>
<text text-anchor="start" x="222" y="-155.5" font-family="Helvetica,sans-Serif" font-size="10.00">javolution.context.Concurrent</text>
<text text-anchor="middle" x="294.5" y="-144.5" font-family="Helvetica,sans-Serif" font-size="10.00">Context.execute</text>
</a>
</g>
</g>
<!-- Node1&#45;&gt;Node6 -->
<g id="edge5" class="edge">
<title>Node1&#45;&gt;Node6</title>
<path fill="none" stroke="midnightblue" d="M159.46,-123.52C177.05,-127.32 196.07,-131.43 214.1,-135.33"/>
<polygon fill="midnightblue" stroke="midnightblue" points="213.49,-138.78 224,-137.47 214.97,-131.94 213.49,-138.78"/>
</g>
<!-- Node7 -->
<g id="node7" class="node">
<title>Node7</title>
<g id="a_node7"><a xlink:href="../../d7/dda/classjavolution_1_1context_1_1ConcurrentContext.html#a3843d9f64f9b7f1dedf3cbd96fb49eae" target="_top" xlink:title=" ">
<polygon fill="white" stroke="black" points="411,-115.5 411,-145.5 572,-145.5 572,-115.5 411,-115.5"/>
<text text-anchor="start" x="419" y="-133.5" font-family="Helvetica,sans-Serif" font-size="10.00">javolution.context.Concurrent</text>
<text text-anchor="middle" x="491.5" y="-122.5" font-family="Helvetica,sans-Serif" font-size="10.00">Context.exit</text>
</a>
</g>
</g>
<!-- Node1&#45;&gt;Node7 -->
<g id="edge9" class="edge">
<title>Node1&#45;&gt;Node7</title>
<path fill="none" stroke="midnightblue" d="M178.39,-113.36C244.45,-116.98 334.42,-121.93 400.8,-125.57"/>
<polygon fill="midnightblue" stroke="midnightblue" points="400.65,-129.07 410.83,-126.12 401.04,-122.08 400.65,-129.07"/>
</g>
<!-- Node8 -->
<g id="node8" class="node">
<title>Node8</title>
<g id="a_node8"><a xlink:href="../../d7/dda/classjavolution_1_1context_1_1ConcurrentContext.html#a8fffeaa7a16995a50b451b63e1ea49a9" target="_top" xlink:title=" ">
<polygon fill="white" stroke="black" points="214,-49.5 214,-79.5 375,-79.5 375,-49.5 214,-49.5"/>
<text text-anchor="start" x="222" y="-67.5" font-family="Helvetica,sans-Serif" font-size="10.00">javolution.context.Concurrent</text>
<text text-anchor="middle" x="294.5" y="-56.5" font-family="Helvetica,sans-Serif" font-size="10.00">Context.getConcurrency</text>
</a>
</g>
</g>
<!-- Node1&#45;&gt;Node8 -->
<g id="edge10" class="edge">
<title>Node1&#45;&gt;Node8</title>
<path fill="none" stroke="midnightblue" d="M159.46,-93.48C177.05,-89.68 196.07,-85.57 214.1,-81.67"/>
<polygon fill="midnightblue" stroke="midnightblue" points="214.97,-85.06 224,-79.53 213.49,-78.22 214.97,-85.06"/>
</g>
<!-- Node9 -->
<g id="node9" class="node">
<title>Node9</title>
<g id="a_node9"><a xlink:href="../../dd/ded/interfacejavolution_1_1util_1_1function_1_1Splittable.html#a93c3783af0ac95206d2c3c14543f49e3" target="_top" xlink:title=" ">
<polygon fill="white" stroke="black" points="229.5,-0.5 229.5,-30.5 359.5,-30.5 359.5,-0.5 229.5,-0.5"/>
<text text-anchor="start" x="237.5" y="-18.5" font-family="Helvetica,sans-Serif" font-size="10.00">javolution.util.function.</text>
<text text-anchor="middle" x="294.5" y="-7.5" font-family="Helvetica,sans-Serif" font-size="10.00">Splittable.split</text>
</a>
</g>
</g>
<!-- Node1&#45;&gt;Node9 -->
<g id="edge11" class="edge">
<title>Node1&#45;&gt;Node9</title>
<path fill="none" stroke="midnightblue" d="M113.46,-93.43C137.85,-78.27 177.47,-54.96 214,-39.5 218.69,-37.51 223.6,-35.62 228.59,-33.83"/>
<polygon fill="midnightblue" stroke="midnightblue" points="229.9,-37.08 238.21,-30.51 227.62,-30.46 229.9,-37.08"/>
</g>
<!-- Node3 -->
<g id="node3" class="node">
<title>Node3</title>
<g id="a_node3"><a xlink:href="../../d3/d0f/classjavolution_1_1context_1_1AbstractContext.html#a39804b0188cf822819d88f43715deaba" target="_top" xlink:title=" ">
<polygon fill="white" stroke="black" points="629.5,-230.5 629.5,-260.5 778.5,-260.5 778.5,-230.5 629.5,-230.5"/>
<text text-anchor="start" x="637.5" y="-248.5" font-family="Helvetica,sans-Serif" font-size="10.00">javolution.context.Abstract</text>
<text text-anchor="middle" x="704" y="-237.5" font-family="Helvetica,sans-Serif" font-size="10.00">Context.current</text>
</a>
</g>
</g>
<!-- Node2&#45;&gt;Node3 -->
<g id="edge2" class="edge">
<title>Node2&#45;&gt;Node3</title>
<path fill="none" stroke="midnightblue" d="M557.09,-211.53C579.72,-216.8 605.31,-222.76 628.67,-228.2"/>
<polygon fill="midnightblue" stroke="midnightblue" points="628,-231.64 638.53,-230.49 629.59,-224.82 628,-231.64"/>
</g>
<!-- Node4 -->
<g id="node4" class="node">
<title>Node4</title>
<g id="a_node4"><a xlink:href="../../d3/d0f/classjavolution_1_1context_1_1AbstractContext.html#a38d71d74581d9168f8cf0ae5916bbc94" target="_top" xlink:title=" ">
<polygon fill="white" stroke="black" points="629.5,-181.5 629.5,-211.5 778.5,-211.5 778.5,-181.5 629.5,-181.5"/>
<text text-anchor="start" x="637.5" y="-199.5" font-family="Helvetica,sans-Serif" font-size="10.00">javolution.context.Abstract</text>
<text text-anchor="middle" x="704" y="-188.5" font-family="Helvetica,sans-Serif" font-size="10.00">Context.enterInner</text>
</a>
</g>
</g>
<!-- Node2&#45;&gt;Node4 -->
<g id="edge3" class="edge">
<title>Node2&#45;&gt;Node4</title>
<path fill="none" stroke="midnightblue" d="M572.08,-196.5C587.46,-196.5 603.61,-196.5 619.12,-196.5"/>
<polygon fill="midnightblue" stroke="midnightblue" points="619.2,-200 629.2,-196.5 619.2,-193 619.2,-200"/>
</g>
<!-- Node5 -->
<g id="node5" class="node">
<title>Node5</title>
<g id="a_node5"><a xlink:href="../../d8/d20/classjavolution_1_1osgi_1_1internal_1_1OSGiServices.html#af7dafc511ed3371f70e4d17c96629a24" target="_top" xlink:title=" ">
<polygon fill="white" stroke="black" points="608,-132.5 608,-162.5 800,-162.5 800,-132.5 608,-132.5"/>
<text text-anchor="start" x="616" y="-150.5" font-family="Helvetica,sans-Serif" font-size="10.00">javolution.osgi.internal.</text>
<text text-anchor="middle" x="704" y="-139.5" font-family="Helvetica,sans-Serif" font-size="10.00">OSGiServices.getConcurrentContext</text>
</a>
</g>
</g>
<!-- Node2&#45;&gt;Node5 -->
<g id="edge4" class="edge">
<title>Node2&#45;&gt;Node5</title>
<path fill="none" stroke="midnightblue" d="M557.09,-181.47C579.72,-176.2 605.31,-170.24 628.67,-164.8"/>
<polygon fill="midnightblue" stroke="midnightblue" points="629.59,-168.18 638.53,-162.51 628,-161.36 629.59,-168.18"/>
</g>
<!-- Node6&#45;&gt;Node2 -->
<g id="edge6" class="edge">
<title>Node6&#45;&gt;Node2</title>
<path fill="none" stroke="midnightblue" d="M362.06,-167.52C378.76,-171.29 396.8,-175.36 413.94,-179.22"/>
<polygon fill="midnightblue" stroke="midnightblue" points="413.38,-182.69 423.91,-181.47 414.92,-175.86 413.38,-182.69"/>
</g>
<!-- Node6&#45;&gt;Node6 -->
<g id="edge7" class="edge">
<title>Node6&#45;&gt;Node6</title>
<path fill="none" stroke="midnightblue" d="M260.34,-167.66C252.11,-177.06 263.49,-186 294.5,-186 313.4,-186 325,-182.68 329.33,-177.96"/>
<polygon fill="midnightblue" stroke="midnightblue" points="332.8,-177.41 328.66,-167.66 325.81,-177.87 332.8,-177.41"/>
</g>
<!-- Node6&#45;&gt;Node7 -->
<g id="edge8" class="edge">
<title>Node6&#45;&gt;Node7</title>
<path fill="none" stroke="midnightblue" d="M375.1,-143.52C383.57,-142.56 392.24,-141.59 400.82,-140.62"/>
<polygon fill="midnightblue" stroke="midnightblue" points="401.3,-144.09 410.84,-139.49 400.51,-137.13 401.3,-144.09"/>
</g>
</g>
</svg>
        <g id="navigator" transform="translate(0 0)" fill="#404254">
                <rect fill="#f2f5e9" fill-opacity="0.5" stroke="#606060" stroke-width=".5" x="0" y="0" width="60" height="60"/>
                <use id="zoomplus" xlink:href="#zoomPlus" x="17" y="9" onmousedown="handleZoom(evt,'in')"/>
                <use id="zoomminus" xlink:href="#zoomMin" x="42" y="9" onmousedown="handleZoom(evt,'out')"/>
                <use id="reset" xlink:href="#resetDef" x="30" y="36" onmousedown="handleReset()"/>
                <g id="arrowUp" xlink:href="#dirArrow" transform="translate(30 24)" onmousedown="handlePan(0,-1)">
                  <use xlink:href="#rim" fill="#404040">
                        <set attributeName="fill" to="#808080" begin="arrowUp.mouseover" end="arrowUp.mouseout"/>
                  </use>
                  <path fill="none" stroke="white" stroke-width="1.5" d="M0,-3.0v7 M-2.5,-0.5L0,-3.0L2.5,-0.5"/>
                </g>
                <g id="arrowRight" xlink:href="#dirArrow" transform="rotate(90) translate(36 -43)" onmousedown="handlePan(1,0)">
                  <use xlink:href="#rim" fill="#404040">
                        <set attributeName="fill" to="#808080" begin="arrowRight.mouseover" end="arrowRight.mouseout"/>
                  </use>
                  <path fill="none" stroke="white" stroke-width="1.5" d="M0,-3.0v7 M-2.5,-0.5L0,-3.0L2.5,-0.5"/>
                </g>
                <g id="arrowDown" xlink:href="#dirArrow" transform="rotate(180) translate(-30 -48)" onmousedown="handlePan(0,1)">
                  <use xlink:href="#rim" fill="#404040">
                        <set attributeName="fill" to="#808080" begin="arrowDown.mouseover" end="arrowDown.mouseout"/>
                  </use>
                  <path fill="none" stroke="white" stroke-width="1.5" d="M0,-3.0v7 M-2.5,-0.5L0,-3.0L2.5,-0.5"/>
                </g>
                <g id="arrowLeft" xlink:href="#dirArrow" transform="rotate(270) translate(-36 17)" onmousedown="handlePan(-1,0)">
                  <use xlink:href="#rim" fill="#404040">
                        <set attributeName="fill" to="#808080" begin="arrowLeft.mouseover" end="arrowLeft.mouseout"/>
                  </use>
                  <path fill="none" stroke="white" stroke-width="1.5" d="M0,-3.0v7 M-2.5,-0.5L0,-3.0L2.5,-0.5"/>
                </g>
        </g>
        <svg viewBox="0 0 15 15" width="100%" height="30px" preserveAspectRatio="xMaxYMin meet">
         <g id="arrow_out" transform="scale(0.3 0.3)">
          <a xlink:href="classjavolution_1_1util_1_1internal_1_1collection_1_1ParallelCollectionImpl_a636558771be4b7a3534c31106e601672_cgraph_org.svg" target="_base">
           <rect id="button" ry="5" rx="5" y="6" x="6" height="38" width="38"
                fill="#f2f5e9" fill-opacity="0.5" stroke="#606060" stroke-width="1.0"/>
           <path id="arrow"
             d="M 11.500037,31.436501 C 11.940474,20.09759 22.043105,11.32322 32.158766,21.979434 L 37.068811,17.246167 C 37.068811,17.246167 37.088388,32 37.088388,32 L 22.160133,31.978069 C 22.160133,31.978069 26.997745,27.140456 26.997745,27.140456 C 18.528582,18.264221 13.291696,25.230495 11.500037,31.436501 z"
             style="fill:#404040;"/>
          </a>
         </g>
        </svg>
</svg>
