<?xml version="1.0" encoding="UTF-8" standalone="no"?>
<!DOCTYPE svg PUBLIC "-//W3C//DTD SVG 1.1//EN"
 "http://www.w3.org/Graphics/SVG/1.1/DTD/svg11.dtd">
<!-- Generated by graphviz version 2.43.0 (0)
 -->
<!-- Title: javolution.xml.internal.stream.XMLStreamWriterImpl.writeCData Pages: 1 -->
<!--zoomable 553 -->
<svg id="main" version="1.1" xmlns="http://www.w3.org/2000/svg" xmlns:xlink="http://www.w3.org/1999/xlink" xml:space="preserve" onload="init(evt)">
<style type="text/css"><![CDATA[
.edge:hover path { stroke: red; }
.edge:hover polygon { stroke: red; fill: red; }
]]></style>
<script type="text/javascript"><![CDATA[
var edges = document.getElementsByTagName('g');
if (edges && edges.length) {
  for (var i=0;i<edges.length;i++) {
    if (edges[i].id.substr(0,4)=='edge') {
      edges[i].setAttribute('class','edge');
    }
  }
}
]]></script>
        <defs>
                <circle id="rim" cx="0" cy="0" r="7"/>
                <circle id="rim2" cx="0" cy="0" r="3.5"/>
                <g id="zoomPlus">
                        <use xlink:href="#rim" fill="#404040">
                                <set attributeName="fill" to="#808080" begin="zoomplus.mouseover" end="zoomplus.mouseout"/>
                        </use>
                        <path d="M-4,0h8M0,-4v8" fill="none" stroke="white" stroke-width="1.5" pointer-events="none"/>
                </g>
                <g id="zoomMin">
                        <use xlink:href="#rim" fill="#404040">
                                <set attributeName="fill" to="#808080" begin="zoomminus.mouseover" end="zoomminus.mouseout"/>
                        </use>
                        <path d="M-4,0h8" fill="none" stroke="white" stroke-width="1.5" pointer-events="none"/>
                </g>
                <g id="dirArrow">
                        <path fill="none" stroke="white" stroke-width="1.5" d="M0,-3.0v7 M-2.5,-0.5L0,-3.0L2.5,-0.5"/>
                </g>
               <g id="resetDef">
                       <use xlink:href="#rim2" fill="#404040">
                               <set attributeName="fill" to="#808080" begin="reset.mouseover" end="reset.mouseout"/>
                       </use>
               </g>
        </defs>

<script type="text/javascript">
var viewWidth = 1879;
var viewHeight = 553;
var sectionId = 'dynsection-40';
</script>
<script xlink:href="../../svgpan.js"/>
<svg id="graph" class="graph">
<g id="viewport">
<title>javolution.xml.internal.stream.XMLStreamWriterImpl.writeCData</title>
<polygon fill="white" stroke="transparent" points="-4,4 -4,-548.79 1875,-548.79 1875,4 -4,4"/>
<!-- Node1 -->
<g id="node1" class="node">
<title>Node1</title>
<g id="a_node1"><a xlink:title=" ">
<polygon fill="#bfbfbf" stroke="black" points="0,-93.29 0,-123.29 182,-123.29 182,-93.29 0,-93.29"/>
<text text-anchor="start" x="8" y="-111.29" font-family="Helvetica,sans-Serif" font-size="10.00">javolution.xml.internal.stream.</text>
<text text-anchor="middle" x="91" y="-100.29" font-family="Helvetica,sans-Serif" font-size="10.00">XMLStreamWriterImpl.writeCData</text>
</a>
</g>
</g>
<!-- Node2 -->
<g id="node2" class="node">
<title>Node2</title>
<g id="a_node2"><a xlink:href="../../d4/d15/classjavolution_1_1xml_1_1internal_1_1stream_1_1XMLStreamWriterImpl.html#a15e88dc4238fd15a3ffdc030975c02cd" target="_top" xlink:title=" ">
<polygon fill="white" stroke="black" points="218,-131.29 218,-161.29 413,-161.29 413,-131.29 218,-131.29"/>
<text text-anchor="start" x="226" y="-149.29" font-family="Helvetica,sans-Serif" font-size="10.00">javolution.xml.internal.stream.</text>
<text text-anchor="middle" x="315.5" y="-138.29" font-family="Helvetica,sans-Serif" font-size="10.00">XMLStreamWriterImpl.closeOpenTag</text>
</a>
</g>
</g>
<!-- Node1&#45;&gt;Node2 -->
<g id="edge1" class="edge">
<title>Node1&#45;&gt;Node2</title>
<path fill="none" stroke="midnightblue" d="M179.94,-123.31C191.9,-125.35 204.23,-127.45 216.35,-129.52"/>
<polygon fill="midnightblue" stroke="midnightblue" points="216.03,-133.02 226.47,-131.25 217.2,-126.12 216.03,-133.02"/>
</g>
<!-- Node23 -->
<g id="node23" class="node">
<title>Node23</title>
<g id="a_node23"><a xlink:href="../../d4/d15/classjavolution_1_1xml_1_1internal_1_1stream_1_1XMLStreamWriterImpl.html#a2e628fa8b39f7ce952896efb8e5f63b6" target="_top" xlink:title=" ">
<polygon fill="white" stroke="black" points="973.5,-87.29 973.5,-117.29 1173.5,-117.29 1173.5,-87.29 973.5,-87.29"/>
<text text-anchor="start" x="981.5" y="-105.29" font-family="Helvetica,sans-Serif" font-size="10.00">javolution.xml.internal.stream.</text>
<text text-anchor="middle" x="1073.5" y="-94.29" font-family="Helvetica,sans-Serif" font-size="10.00">XMLStreamWriterImpl.writeNoEscape</text>
</a>
</g>
</g>
<!-- Node1&#45;&gt;Node23 -->
<g id="edge35" class="edge">
<title>Node1&#45;&gt;Node23</title>
<path fill="none" stroke="midnightblue" d="M182.13,-107.12C300.84,-105.65 516.06,-103.19 700,-102.29 788.48,-101.85 888.78,-101.88 962.99,-102"/>
<polygon fill="midnightblue" stroke="midnightblue" points="963.28,-105.5 973.29,-102.02 963.29,-98.5 963.28,-105.5"/>
</g>
<!-- Node3 -->
<g id="node3" class="node">
<title>Node3</title>
<g id="a_node3"><a xlink:href="../../dc/daa/classjavolution_1_1xml_1_1internal_1_1stream_1_1NamespacesImpl.html#ae82cf6edcea5ac1d71d5b9005bb6a590" target="_top" xlink:title=" ">
<polygon fill="white" stroke="black" points="472.5,-478.29 472.5,-508.29 640.5,-508.29 640.5,-478.29 472.5,-478.29"/>
<text text-anchor="start" x="480.5" y="-496.29" font-family="Helvetica,sans-Serif" font-size="10.00">javolution.xml.internal.stream.</text>
<text text-anchor="middle" x="556.5" y="-485.29" font-family="Helvetica,sans-Serif" font-size="10.00">NamespacesImpl.pop</text>
</a>
</g>
</g>
<!-- Node2&#45;&gt;Node3 -->
<g id="edge2" class="edge">
<title>Node2&#45;&gt;Node3</title>
<path fill="none" stroke="midnightblue" d="M319.86,-161.31C330.85,-207.38 369.63,-348.76 449,-434.29 464.64,-451.14 486.22,-464.32 505.86,-473.91"/>
<polygon fill="midnightblue" stroke="midnightblue" points="504.48,-477.13 515.02,-478.2 507.44,-470.79 504.48,-477.13"/>
</g>
<!-- Node5 -->
<g id="node5" class="node">
<title>Node5</title>
<g id="a_node5"><a xlink:href="../../d4/d15/classjavolution_1_1xml_1_1internal_1_1stream_1_1XMLStreamWriterImpl.html#a6d805db8f2c051bd5eb34feb49a602a8" target="_top" xlink:title=" ">
<polygon fill="white" stroke="black" points="1225,-116.29 1225,-146.29 1393,-146.29 1393,-116.29 1225,-116.29"/>
<text text-anchor="start" x="1233" y="-134.29" font-family="Helvetica,sans-Serif" font-size="10.00">javolution.xml.internal.stream.</text>
<text text-anchor="middle" x="1309" y="-123.29" font-family="Helvetica,sans-Serif" font-size="10.00">XMLStreamWriterImpl.write</text>
</a>
</g>
</g>
<!-- Node2&#45;&gt;Node5 -->
<g id="edge4" class="edge">
<title>Node2&#45;&gt;Node5</title>
<path fill="none" stroke="midnightblue" d="M413.37,-144.82C604.29,-141.93 1026.88,-135.54 1214.78,-132.7"/>
<polygon fill="midnightblue" stroke="midnightblue" points="1214.97,-136.19 1224.92,-132.54 1214.86,-129.2 1214.97,-136.19"/>
</g>
<!-- Node10 -->
<g id="node10" class="node">
<title>Node10</title>
<g id="a_node10"><a xlink:href="../../d4/d15/classjavolution_1_1xml_1_1internal_1_1stream_1_1XMLStreamWriterImpl.html#ad23e09c1ba7cccfde9d9f05f3e2ec3d1" target="_top" xlink:title=" ">
<polygon fill="white" stroke="black" points="449,-394.29 449,-424.29 664,-424.29 664,-394.29 449,-394.29"/>
<text text-anchor="start" x="457" y="-412.29" font-family="Helvetica,sans-Serif" font-size="10.00">javolution.xml.internal.stream.</text>
<text text-anchor="middle" x="556.5" y="-401.29" font-family="Helvetica,sans-Serif" font-size="10.00">XMLStreamWriterImpl.writeNamespaces</text>
</a>
</g>
</g>
<!-- Node2&#45;&gt;Node10 -->
<g id="edge10" class="edge">
<title>Node2&#45;&gt;Node10</title>
<path fill="none" stroke="midnightblue" d="M330.38,-161.56C370.56,-205.78 487.12,-334.04 534.8,-386.51"/>
<polygon fill="midnightblue" stroke="midnightblue" points="532.26,-388.92 541.58,-393.97 537.44,-384.21 532.26,-388.92"/>
</g>
<!-- Node2&#45;&gt;Node23 -->
<g id="edge34" class="edge">
<title>Node2&#45;&gt;Node23</title>
<path fill="none" stroke="midnightblue" d="M413.05,-135.44C425.14,-134.27 437.35,-133.18 449,-132.29 628.85,-118.47 838.4,-109.94 963.01,-105.66"/>
<polygon fill="midnightblue" stroke="midnightblue" points="963.44,-109.15 973.31,-105.31 963.2,-102.15 963.44,-109.15"/>
</g>
<!-- Node4 -->
<g id="node4" class="node">
<title>Node4</title>
<g id="a_node4"><a xlink:href="../../dc/daa/classjavolution_1_1xml_1_1internal_1_1stream_1_1NamespacesImpl.html#acb0ae4ce1aed7a82764ba4576eda513a" target="_top" xlink:title=" ">
<polygon fill="white" stroke="black" points="700,-514.29 700,-544.29 930,-544.29 930,-514.29 700,-514.29"/>
<text text-anchor="start" x="708" y="-532.29" font-family="Helvetica,sans-Serif" font-size="10.00">javolution.xml.internal.stream.</text>
<text text-anchor="middle" x="815" y="-521.29" font-family="Helvetica,sans-Serif" font-size="10.00">NamespacesImpl.searchDefaultNamespace</text>
</a>
</g>
</g>
<!-- Node3&#45;&gt;Node4 -->
<g id="edge3" class="edge">
<title>Node3&#45;&gt;Node4</title>
<path fill="none" stroke="midnightblue" d="M640.78,-504.97C658.63,-507.48 677.82,-510.17 696.69,-512.82"/>
<polygon fill="midnightblue" stroke="midnightblue" points="696.43,-516.32 706.82,-514.24 697.41,-509.39 696.43,-516.32"/>
</g>
<!-- Node6 -->
<g id="node6" class="node">
<title>Node6</title>
<g id="a_node6"><a xlink:href="../../d4/d15/classjavolution_1_1xml_1_1internal_1_1stream_1_1XMLStreamWriterImpl.html#ac2145f0f924e9b642dd66dc6d5ee891e" target="_top" xlink:title=" ">
<polygon fill="white" stroke="black" points="1458,-141.29 1458,-171.29 1638,-171.29 1638,-141.29 1458,-141.29"/>
<text text-anchor="start" x="1466" y="-159.29" font-family="Helvetica,sans-Serif" font-size="10.00">javolution.xml.internal.stream.</text>
<text text-anchor="middle" x="1548" y="-148.29" font-family="Helvetica,sans-Serif" font-size="10.00">XMLStreamWriterImpl.flushBuffer</text>
</a>
</g>
</g>
<!-- Node5&#45;&gt;Node6 -->
<g id="edge5" class="edge">
<title>Node5&#45;&gt;Node6</title>
<path fill="none" stroke="midnightblue" d="M1393.22,-140.07C1410.89,-141.93 1429.71,-143.91 1447.9,-145.83"/>
<polygon fill="midnightblue" stroke="midnightblue" points="1447.62,-149.32 1457.94,-146.89 1448.36,-142.36 1447.62,-149.32"/>
</g>
<!-- Node7 -->
<g id="node7" class="node">
<title>Node7</title>
<g id="a_node7"><a xlink:href="../../d4/d15/classjavolution_1_1xml_1_1internal_1_1stream_1_1XMLStreamWriterImpl.html#a3d00494460e49d0dd3a57e250d4d707c" target="_top" xlink:title=" ">
<polygon fill="white" stroke="black" points="1462.5,-92.29 1462.5,-122.29 1633.5,-122.29 1633.5,-92.29 1462.5,-92.29"/>
<text text-anchor="start" x="1470.5" y="-110.29" font-family="Helvetica,sans-Serif" font-size="10.00">javolution.xml.internal.stream.</text>
<text text-anchor="middle" x="1548" y="-99.29" font-family="Helvetica,sans-Serif" font-size="10.00">XMLStreamWriterImpl.getChars</text>
</a>
</g>
</g>
<!-- Node5&#45;&gt;Node7 -->
<g id="edge6" class="edge">
<title>Node5&#45;&gt;Node7</title>
<path fill="none" stroke="midnightblue" d="M1393.22,-122.86C1412.31,-120.93 1432.73,-118.86 1452.26,-116.88"/>
<polygon fill="midnightblue" stroke="midnightblue" points="1452.78,-120.35 1462.37,-115.86 1452.07,-113.38 1452.78,-120.35"/>
</g>
<!-- Node8 -->
<g id="node8" class="node">
<title>Node8</title>
<g id="a_node8"><a xlink:href="../../d4/d15/classjavolution_1_1xml_1_1internal_1_1stream_1_1XMLStreamWriterImpl.html#ac48b39590b21a285753d9ecc463d95c1" target="_top" xlink:title=" ">
<polygon fill="white" stroke="black" points="1695,-13.29 1695,-43.29 1871,-43.29 1871,-13.29 1695,-13.29"/>
<text text-anchor="start" x="1703" y="-31.29" font-family="Helvetica,sans-Serif" font-size="10.00">javolution.xml.internal.stream.</text>
<text text-anchor="middle" x="1783" y="-20.29" font-family="Helvetica,sans-Serif" font-size="10.00">XMLStreamWriterImpl.isEscaped</text>
</a>
</g>
</g>
<!-- Node5&#45;&gt;Node8 -->
<g id="edge7" class="edge">
<title>Node5&#45;&gt;Node8</title>
<path fill="none" stroke="midnightblue" d="M1321.6,-115.91C1341.77,-90.62 1386.05,-41.15 1437,-22.29 1524.86,10.25 1634.13,0.79 1705.86,-11.49"/>
<polygon fill="midnightblue" stroke="midnightblue" points="1705.27,-14.94 1715.72,-13.24 1706.49,-8.05 1705.27,-14.94"/>
</g>
<!-- Node9 -->
<g id="node9" class="node">
<title>Node9</title>
<g id="a_node9"><a xlink:href="../../d4/d15/classjavolution_1_1xml_1_1internal_1_1stream_1_1XMLStreamWriterImpl.html#a79ed753f8bf18f2eeaf7d7e8f93d60f1" target="_top" xlink:title=" ">
<polygon fill="white" stroke="black" points="1437,-31.79 1437,-72.79 1659,-72.79 1659,-31.79 1437,-31.79"/>
<text text-anchor="start" x="1445" y="-60.79" font-family="Helvetica,sans-Serif" font-size="10.00">javolution.xml.internal.stream.</text>
<text text-anchor="start" x="1445" y="-49.79" font-family="Helvetica,sans-Serif" font-size="10.00">XMLStreamWriterImpl.writeDirectEscaped</text>
<text text-anchor="middle" x="1548" y="-38.79" font-family="Helvetica,sans-Serif" font-size="10.00">Characters</text>
</a>
</g>
</g>
<!-- Node5&#45;&gt;Node9 -->
<g id="edge8" class="edge">
<title>Node5&#45;&gt;Node9</title>
<path fill="none" stroke="midnightblue" d="M1347.21,-116.25C1372.36,-106.33 1406.44,-93.35 1437,-83.29 1444.79,-80.72 1452.93,-78.18 1461.11,-75.71"/>
<polygon fill="midnightblue" stroke="midnightblue" points="1462.11,-79.07 1470.7,-72.86 1460.12,-72.36 1462.11,-79.07"/>
</g>
<!-- Node9&#45;&gt;Node8 -->
<g id="edge9" class="edge">
<title>Node9&#45;&gt;Node8</title>
<path fill="none" stroke="midnightblue" d="M1659.02,-40.95C1667.66,-40.06 1676.34,-39.17 1684.89,-38.29"/>
<polygon fill="midnightblue" stroke="midnightblue" points="1685.25,-41.77 1694.84,-37.26 1684.53,-34.81 1685.25,-41.77"/>
</g>
<!-- Node11 -->
<g id="node11" class="node">
<title>Node11</title>
<g id="a_node11"><a xlink:href="../../d0/d36/classjavolution_1_1text_1_1CharArray.html#a63cd0fbe95d0342063ea7091dce0fa9c" target="_top" xlink:title=" ">
<polygon fill="white" stroke="black" points="1461.5,-372.79 1461.5,-391.79 1634.5,-391.79 1634.5,-372.79 1461.5,-372.79"/>
<text text-anchor="middle" x="1548" y="-379.79" font-family="Helvetica,sans-Serif" font-size="10.00">javolution.text.CharArray.equals</text>
</a>
</g>
</g>
<!-- Node10&#45;&gt;Node11 -->
<g id="edge11" class="edge">
<title>Node10&#45;&gt;Node11</title>
<path fill="none" stroke="midnightblue" d="M664.29,-415.13C824.64,-422.55 1136.98,-431.77 1401,-408.29 1432.4,-405.49 1467.17,-399.42 1494.9,-393.85"/>
<polygon fill="midnightblue" stroke="midnightblue" points="1495.68,-397.26 1504.78,-391.83 1494.28,-390.4 1495.68,-397.26"/>
</g>
<!-- Node12 -->
<g id="node12" class="node">
<title>Node12</title>
<g id="a_node12"><a xlink:href="../../dc/daa/classjavolution_1_1xml_1_1internal_1_1stream_1_1NamespacesImpl.html#a5a2f11c30da4ca635225ed1c0c5f2668" target="_top" xlink:title=" ">
<polygon fill="white" stroke="black" points="1225,-345.29 1225,-375.29 1393,-375.29 1393,-345.29 1225,-345.29"/>
<text text-anchor="start" x="1233" y="-363.29" font-family="Helvetica,sans-Serif" font-size="10.00">javolution.xml.internal.stream.</text>
<text text-anchor="middle" x="1309" y="-352.29" font-family="Helvetica,sans-Serif" font-size="10.00">NamespacesImpl.getPrefix</text>
</a>
</g>
</g>
<!-- Node10&#45;&gt;Node12 -->
<g id="edge12" class="edge">
<title>Node10&#45;&gt;Node12</title>
<path fill="none" stroke="midnightblue" d="M664.23,-402.32C811.49,-392.7 1074.62,-375.52 1214.53,-366.39"/>
<polygon fill="midnightblue" stroke="midnightblue" points="1215.04,-369.86 1224.79,-365.72 1214.59,-362.88 1215.04,-369.86"/>
</g>
<!-- Node13 -->
<g id="node13" class="node">
<title>Node13</title>
<g id="a_node13"><a xlink:href="../../d0/d36/classjavolution_1_1text_1_1CharArray.html#a1206e2076e25f1e66e1458328aa22baa" target="_top" xlink:title=" ">
<polygon fill="white" stroke="black" points="1697,-288.79 1697,-307.79 1869,-307.79 1869,-288.79 1697,-288.79"/>
<text text-anchor="middle" x="1783" y="-295.79" font-family="Helvetica,sans-Serif" font-size="10.00">javolution.text.CharArray.length</text>
</a>
</g>
</g>
<!-- Node10&#45;&gt;Node13 -->
<g id="edge14" class="edge">
<title>Node10&#45;&gt;Node13</title>
<path fill="none" stroke="midnightblue" d="M618.9,-424.3C715.01,-446.45 907.11,-485.29 1072.5,-485.29 1072.5,-485.29 1072.5,-485.29 1310,-485.29 1469.54,-485.29 1516.52,-473.07 1659,-401.29 1703.06,-379.09 1745.03,-338.3 1766.71,-315.28"/>
<polygon fill="midnightblue" stroke="midnightblue" points="1769.28,-317.65 1773.5,-307.93 1764.14,-312.9 1769.28,-317.65"/>
</g>
<!-- Node14 -->
<g id="node14" class="node">
<title>Node14</title>
<g id="a_node14"><a xlink:href="../../d4/d15/classjavolution_1_1xml_1_1internal_1_1stream_1_1XMLStreamWriterImpl.html#a67df1c83cc5a3ea172419ca10d1b2ca2" target="_top" xlink:title=" ">
<polygon fill="white" stroke="black" points="717.5,-257.79 717.5,-298.79 912.5,-298.79 912.5,-257.79 717.5,-257.79"/>
<text text-anchor="start" x="725.5" y="-286.79" font-family="Helvetica,sans-Serif" font-size="10.00">javolution.xml.internal.stream.</text>
<text text-anchor="start" x="725.5" y="-275.79" font-family="Helvetica,sans-Serif" font-size="10.00">XMLStreamWriterImpl.writeAttribute</text>
<text text-anchor="middle" x="815" y="-264.79" font-family="Helvetica,sans-Serif" font-size="10.00">OrNamespace</text>
</a>
</g>
</g>
<!-- Node10&#45;&gt;Node14 -->
<g id="edge15" class="edge">
<title>Node10&#45;&gt;Node14</title>
<path fill="none" stroke="midnightblue" d="M586.92,-394.26C630.25,-372.13 711.75,-330.51 764.41,-303.61"/>
<polygon fill="midnightblue" stroke="midnightblue" points="766.26,-306.6 773.57,-298.93 763.08,-300.36 766.26,-306.6"/>
</g>
<!-- Node12&#45;&gt;Node11 -->
<g id="edge13" class="edge">
<title>Node12&#45;&gt;Node11</title>
<path fill="none" stroke="midnightblue" d="M1393.22,-368.01C1411.96,-369.75 1432,-371.61 1451.21,-373.39"/>
<polygon fill="midnightblue" stroke="midnightblue" points="1450.89,-376.88 1461.17,-374.32 1451.53,-369.91 1450.89,-376.88"/>
</g>
<!-- Node14&#45;&gt;Node5 -->
<g id="edge29" class="edge">
<title>Node14&#45;&gt;Node5</title>
<path fill="none" stroke="midnightblue" d="M912.72,-262.43C1018.87,-244.91 1175.15,-218.7 1181,-215.29 1202.83,-202.56 1196.88,-186.57 1217,-171.29 1227.84,-163.05 1240.64,-156.09 1253.17,-150.41"/>
<polygon fill="midnightblue" stroke="midnightblue" points="1254.86,-153.49 1262.65,-146.31 1252.09,-147.06 1254.86,-153.49"/>
</g>
<!-- Node14&#45;&gt;Node11 -->
<g id="edge16" class="edge">
<title>Node14&#45;&gt;Node11</title>
<path fill="none" stroke="midnightblue" d="M849.53,-298.83C879.1,-315.94 923.9,-339.52 966,-352.29 1130.82,-402.28 1333.87,-398.98 1451.07,-391.21"/>
<polygon fill="midnightblue" stroke="midnightblue" points="1451.36,-394.69 1461.1,-390.52 1450.88,-387.71 1451.36,-394.69"/>
</g>
<!-- Node15 -->
<g id="node15" class="node">
<title>Node15</title>
<g id="a_node15"><a xlink:href="../../d4/d15/classjavolution_1_1xml_1_1internal_1_1stream_1_1XMLStreamWriterImpl.html#a18e6c7b2d132315d0566892c781a5c86" target="_top" xlink:title=" ">
<polygon fill="white" stroke="black" points="988,-312.29 988,-342.29 1159,-342.29 1159,-312.29 988,-312.29"/>
<text text-anchor="start" x="996" y="-330.29" font-family="Helvetica,sans-Serif" font-size="10.00">javolution.xml.internal.stream.</text>
<text text-anchor="middle" x="1073.5" y="-319.29" font-family="Helvetica,sans-Serif" font-size="10.00">XMLStreamWriterImpl.getPrefix</text>
</a>
</g>
</g>
<!-- Node14&#45;&gt;Node15 -->
<g id="edge17" class="edge">
<title>Node14&#45;&gt;Node15</title>
<path fill="none" stroke="midnightblue" d="M912.61,-296.74C935.99,-301.21 960.86,-305.96 983.86,-310.35"/>
<polygon fill="midnightblue" stroke="midnightblue" points="983.45,-313.84 993.93,-312.28 984.76,-306.96 983.45,-313.84"/>
</g>
<!-- Node16 -->
<g id="node16" class="node">
<title>Node16</title>
<g id="a_node16"><a xlink:href="../../d4/d15/classjavolution_1_1xml_1_1internal_1_1stream_1_1XMLStreamWriterImpl.html#af5e4a42b57208973be8a1136cc607d09" target="_top" xlink:title=" ">
<polygon fill="white" stroke="black" points="966,-263.29 966,-293.29 1181,-293.29 1181,-263.29 966,-263.29"/>
<text text-anchor="start" x="974" y="-281.29" font-family="Helvetica,sans-Serif" font-size="10.00">javolution.xml.internal.stream.</text>
<text text-anchor="middle" x="1073.5" y="-270.29" font-family="Helvetica,sans-Serif" font-size="10.00">XMLStreamWriterImpl.getRepairedPrefix</text>
</a>
</g>
</g>
<!-- Node14&#45;&gt;Node16 -->
<g id="edge19" class="edge">
<title>Node14&#45;&gt;Node16</title>
<path fill="none" stroke="midnightblue" d="M912.61,-278.29C926.55,-278.29 941.02,-278.29 955.31,-278.29"/>
<polygon fill="midnightblue" stroke="midnightblue" points="955.67,-281.79 965.67,-278.29 955.67,-274.79 955.67,-281.79"/>
</g>
<!-- Node22 -->
<g id="node22" class="node">
<title>Node22</title>
<g id="a_node22"><a xlink:href="../../d4/d15/classjavolution_1_1xml_1_1internal_1_1stream_1_1XMLStreamWriterImpl.html#ae9c868796ceee6d3d83d4937c18e9159" target="_top" xlink:title=" ">
<polygon fill="white" stroke="black" points="980,-175.29 980,-205.29 1167,-205.29 1167,-175.29 980,-175.29"/>
<text text-anchor="start" x="988" y="-193.29" font-family="Helvetica,sans-Serif" font-size="10.00">javolution.xml.internal.stream.</text>
<text text-anchor="middle" x="1073.5" y="-182.29" font-family="Helvetica,sans-Serif" font-size="10.00">XMLStreamWriterImpl.writeEscape</text>
</a>
</g>
</g>
<!-- Node14&#45;&gt;Node22 -->
<g id="edge30" class="edge">
<title>Node14&#45;&gt;Node22</title>
<path fill="none" stroke="midnightblue" d="M865.57,-257.76C894.6,-246.09 932.1,-231.59 966,-220.29 978.63,-216.08 992.24,-211.94 1005.35,-208.16"/>
<polygon fill="midnightblue" stroke="midnightblue" points="1006.61,-211.44 1015.27,-205.34 1004.69,-204.71 1006.61,-211.44"/>
</g>
<!-- Node14&#45;&gt;Node23 -->
<g id="edge32" class="edge">
<title>Node14&#45;&gt;Node23</title>
<path fill="none" stroke="midnightblue" d="M841.97,-257.64C871.43,-234.52 921.21,-196.36 966,-166.29 989.09,-150.79 1015.93,-134.67 1036.89,-122.48"/>
<polygon fill="midnightblue" stroke="midnightblue" points="1038.87,-125.38 1045.78,-117.35 1035.37,-119.32 1038.87,-125.38"/>
</g>
<!-- Node15&#45;&gt;Node12 -->
<g id="edge18" class="edge">
<title>Node15&#45;&gt;Node12</title>
<path fill="none" stroke="midnightblue" d="M1159.13,-339.25C1177.19,-341.8 1196.36,-344.51 1214.72,-347.1"/>
<polygon fill="midnightblue" stroke="midnightblue" points="1214.44,-350.6 1224.83,-348.53 1215.42,-343.67 1214.44,-350.6"/>
</g>
<!-- Node16&#45;&gt;Node11 -->
<g id="edge23" class="edge">
<title>Node16&#45;&gt;Node11</title>
<path fill="none" stroke="midnightblue" d="M1181.07,-272.1C1245.95,-271.35 1329.78,-275.83 1401,-297.29 1449.95,-312.04 1499.92,-346.1 1526.84,-366.35"/>
<polygon fill="midnightblue" stroke="midnightblue" points="1524.98,-369.33 1535.04,-372.63 1529.23,-363.77 1524.98,-369.33"/>
</g>
<!-- Node16&#45;&gt;Node12 -->
<g id="edge24" class="edge">
<title>Node16&#45;&gt;Node12</title>
<path fill="none" stroke="midnightblue" d="M1157.1,-293.31C1165.39,-296.1 1173.5,-299.39 1181,-303.29 1200,-313.15 1198.19,-325.07 1217,-335.29 1221.19,-337.56 1225.6,-339.64 1230.13,-341.54"/>
<polygon fill="midnightblue" stroke="midnightblue" points="1228.98,-344.85 1239.56,-345.2 1231.5,-338.32 1228.98,-344.85"/>
</g>
<!-- Node17 -->
<g id="node17" class="node">
<title>Node17</title>
<g id="a_node17"><a xlink:href="../../d2/d7a/classjavolution_1_1text_1_1TextBuilder.html#a5b6d5e22b7b33b3188569bbaf6112c95" target="_top" xlink:title=" ">
<polygon fill="white" stroke="black" points="1217,-180.79 1217,-199.79 1401,-199.79 1401,-180.79 1217,-180.79"/>
<text text-anchor="middle" x="1309" y="-187.79" font-family="Helvetica,sans-Serif" font-size="10.00">javolution.text.TextBuilder.append</text>
</a>
</g>
</g>
<!-- Node16&#45;&gt;Node17 -->
<g id="edge20" class="edge">
<title>Node16&#45;&gt;Node17</title>
<path fill="none" stroke="midnightblue" d="M1148,-263.23C1159.49,-259.3 1170.89,-254.4 1181,-248.29 1200.91,-236.26 1196.75,-221.73 1217,-210.29 1221.84,-207.55 1227.02,-205.19 1232.37,-203.15"/>
<polygon fill="midnightblue" stroke="midnightblue" points="1233.79,-206.36 1242.12,-199.82 1231.53,-199.74 1233.79,-206.36"/>
</g>
<!-- Node19 -->
<g id="node19" class="node">
<title>Node19</title>
<g id="a_node19"><a xlink:href="../../d2/d7a/classjavolution_1_1text_1_1TextBuilder.html#ac6109dc1dfca2e6b48450ae94a8cf59e" target="_top" xlink:title=" ">
<polygon fill="white" stroke="black" points="1223,-306.79 1223,-325.79 1395,-325.79 1395,-306.79 1223,-306.79"/>
<text text-anchor="middle" x="1309" y="-313.79" font-family="Helvetica,sans-Serif" font-size="10.00">javolution.text.TextBuilder.clear</text>
</a>
</g>
</g>
<!-- Node16&#45;&gt;Node19 -->
<g id="edge22" class="edge">
<title>Node16&#45;&gt;Node19</title>
<path fill="none" stroke="midnightblue" d="M1166.79,-293.31C1191.1,-297.26 1216.9,-301.46 1239.71,-305.17"/>
<polygon fill="midnightblue" stroke="midnightblue" points="1239.19,-308.63 1249.62,-306.79 1240.31,-301.72 1239.19,-308.63"/>
</g>
<!-- Node20 -->
<g id="node20" class="node">
<title>Node20</title>
<g id="a_node20"><a xlink:href="../../dc/daa/classjavolution_1_1xml_1_1internal_1_1stream_1_1NamespacesImpl.html#af0e399ec7eca3a967c953ca0901565d3" target="_top" xlink:title=" ">
<polygon fill="white" stroke="black" points="1225,-219.29 1225,-249.29 1393,-249.29 1393,-219.29 1225,-219.29"/>
<text text-anchor="start" x="1233" y="-237.29" font-family="Helvetica,sans-Serif" font-size="10.00">javolution.xml.internal.stream.</text>
<text text-anchor="middle" x="1309" y="-226.29" font-family="Helvetica,sans-Serif" font-size="10.00">NamespacesImpl.setPrefix</text>
</a>
</g>
</g>
<!-- Node16&#45;&gt;Node20 -->
<g id="edge25" class="edge">
<title>Node16&#45;&gt;Node20</title>
<path fill="none" stroke="midnightblue" d="M1154.2,-263.27C1174.85,-259.38 1197.22,-255.16 1218.33,-251.18"/>
<polygon fill="midnightblue" stroke="midnightblue" points="1219.08,-254.6 1228.26,-249.31 1217.78,-247.73 1219.08,-254.6"/>
</g>
<!-- Node18 -->
<g id="node18" class="node">
<title>Node18</title>
<g id="a_node18"><a xlink:href="../../d2/d7a/classjavolution_1_1text_1_1TextBuilder.html#a6d79c3b6adfe6c04f80f940904d181b4" target="_top" xlink:title=" ">
<polygon fill="white" stroke="black" points="1453.5,-190.29 1453.5,-220.29 1642.5,-220.29 1642.5,-190.29 1453.5,-190.29"/>
<text text-anchor="start" x="1461.5" y="-208.29" font-family="Helvetica,sans-Serif" font-size="10.00">javolution.text.TextBuilder.increase</text>
<text text-anchor="middle" x="1548" y="-197.29" font-family="Helvetica,sans-Serif" font-size="10.00">Capacity</text>
</a>
</g>
</g>
<!-- Node17&#45;&gt;Node18 -->
<g id="edge21" class="edge">
<title>Node17&#45;&gt;Node18</title>
<path fill="none" stroke="midnightblue" d="M1401.29,-196.06C1415.04,-196.93 1429.3,-197.84 1443.28,-198.72"/>
<polygon fill="midnightblue" stroke="midnightblue" points="1443.2,-202.22 1453.4,-199.36 1443.64,-195.24 1443.2,-202.22"/>
</g>
<!-- Node20&#45;&gt;Node13 -->
<g id="edge26" class="edge">
<title>Node20&#45;&gt;Node13</title>
<path fill="none" stroke="midnightblue" d="M1357.94,-249.33C1371.9,-253.92 1387.13,-259.12 1401,-264.29 1417.24,-270.34 1420.1,-275.42 1437,-279.29 1519.91,-298.25 1616.8,-302.04 1686.76,-301.64"/>
<polygon fill="midnightblue" stroke="midnightblue" points="1686.91,-305.14 1696.88,-301.55 1686.85,-298.14 1686.91,-305.14"/>
</g>
<!-- Node21 -->
<g id="node21" class="node">
<title>Node21</title>
<g id="a_node21"><a xlink:href="../../dc/daa/classjavolution_1_1xml_1_1internal_1_1stream_1_1NamespacesImpl.html#ad1e699fb6fe13f5d6a355f8a8eff25e8" target="_top" xlink:title=" ">
<polygon fill="white" stroke="black" points="1454,-239.29 1454,-269.29 1642,-269.29 1642,-239.29 1454,-239.29"/>
<text text-anchor="start" x="1462" y="-257.29" font-family="Helvetica,sans-Serif" font-size="10.00">javolution.xml.internal.stream.</text>
<text text-anchor="middle" x="1548" y="-246.29" font-family="Helvetica,sans-Serif" font-size="10.00">NamespacesImpl.resizePrefixStack</text>
</a>
</g>
</g>
<!-- Node20&#45;&gt;Node21 -->
<g id="edge27" class="edge">
<title>Node20&#45;&gt;Node21</title>
<path fill="none" stroke="midnightblue" d="M1393.22,-241.31C1409.46,-242.68 1426.67,-244.13 1443.47,-245.55"/>
<polygon fill="midnightblue" stroke="midnightblue" points="1443.61,-249.07 1453.87,-246.43 1444.2,-242.1 1443.61,-249.07"/>
</g>
<!-- Node21&#45;&gt;Node13 -->
<g id="edge28" class="edge">
<title>Node21&#45;&gt;Node13</title>
<path fill="none" stroke="midnightblue" d="M1628.53,-269.31C1658.94,-275.05 1693.1,-281.5 1721.46,-286.85"/>
<polygon fill="midnightblue" stroke="midnightblue" points="1721.15,-290.36 1731.63,-288.77 1722.45,-283.48 1721.15,-290.36"/>
</g>
<!-- Node22&#45;&gt;Node5 -->
<g id="edge31" class="edge">
<title>Node22&#45;&gt;Node5</title>
<path fill="none" stroke="midnightblue" d="M1134.03,-175.25C1165.86,-167.2 1205.24,-157.25 1238.48,-148.85"/>
<polygon fill="midnightblue" stroke="midnightblue" points="1239.74,-152.14 1248.58,-146.3 1238.03,-145.36 1239.74,-152.14"/>
</g>
<!-- Node23&#45;&gt;Node5 -->
<g id="edge33" class="edge">
<title>Node23&#45;&gt;Node5</title>
<path fill="none" stroke="midnightblue" d="M1173.53,-114.59C1187.09,-116.27 1200.99,-118 1214.46,-119.67"/>
<polygon fill="midnightblue" stroke="midnightblue" points="1214.31,-123.18 1224.66,-120.94 1215.17,-116.23 1214.31,-123.18"/>
</g>
</g>
</svg>
        <g id="navigator" transform="translate(0 0)" fill="#404254">
                <rect fill="#f2f5e9" fill-opacity="0.5" stroke="#606060" stroke-width=".5" x="0" y="0" width="60" height="60"/>
                <use id="zoomplus" xlink:href="#zoomPlus" x="17" y="9" onmousedown="handleZoom(evt,'in')"/>
                <use id="zoomminus" xlink:href="#zoomMin" x="42" y="9" onmousedown="handleZoom(evt,'out')"/>
                <use id="reset" xlink:href="#resetDef" x="30" y="36" onmousedown="handleReset()"/>
                <g id="arrowUp" xlink:href="#dirArrow" transform="translate(30 24)" onmousedown="handlePan(0,-1)">
                  <use xlink:href="#rim" fill="#404040">
                        <set attributeName="fill" to="#808080" begin="arrowUp.mouseover" end="arrowUp.mouseout"/>
                  </use>
                  <path fill="none" stroke="white" stroke-width="1.5" d="M0,-3.0v7 M-2.5,-0.5L0,-3.0L2.5,-0.5"/>
                </g>
                <g id="arrowRight" xlink:href="#dirArrow" transform="rotate(90) translate(36 -43)" onmousedown="handlePan(1,0)">
                  <use xlink:href="#rim" fill="#404040">
                        <set attributeName="fill" to="#808080" begin="arrowRight.mouseover" end="arrowRight.mouseout"/>
                  </use>
                  <path fill="none" stroke="white" stroke-width="1.5" d="M0,-3.0v7 M-2.5,-0.5L0,-3.0L2.5,-0.5"/>
                </g>
                <g id="arrowDown" xlink:href="#dirArrow" transform="rotate(180) translate(-30 -48)" onmousedown="handlePan(0,1)">
                  <use xlink:href="#rim" fill="#404040">
                        <set attributeName="fill" to="#808080" begin="arrowDown.mouseover" end="arrowDown.mouseout"/>
                  </use>
                  <path fill="none" stroke="white" stroke-width="1.5" d="M0,-3.0v7 M-2.5,-0.5L0,-3.0L2.5,-0.5"/>
                </g>
                <g id="arrowLeft" xlink:href="#dirArrow" transform="rotate(270) translate(-36 17)" onmousedown="handlePan(-1,0)">
                  <use xlink:href="#rim" fill="#404040">
                        <set attributeName="fill" to="#808080" begin="arrowLeft.mouseover" end="arrowLeft.mouseout"/>
                  </use>
                  <path fill="none" stroke="white" stroke-width="1.5" d="M0,-3.0v7 M-2.5,-0.5L0,-3.0L2.5,-0.5"/>
                </g>
        </g>
        <svg viewBox="0 0 15 15" width="100%" height="30px" preserveAspectRatio="xMaxYMin meet">
         <g id="arrow_out" transform="scale(0.3 0.3)">
          <a xlink:href="classjavolution_1_1xml_1_1internal_1_1stream_1_1XMLStreamWriterImpl_ac8ae3988c92c6f3f69903c556028ca07_cgraph_org.svg" target="_base">
           <rect id="button" ry="5" rx="5" y="6" x="6" height="38" width="38"
                fill="#f2f5e9" fill-opacity="0.5" stroke="#606060" stroke-width="1.0"/>
           <path id="arrow"
             d="M 11.500037,31.436501 C 11.940474,20.09759 22.043105,11.32322 32.158766,21.979434 L 37.068811,17.246167 C 37.068811,17.246167 37.088388,32 37.088388,32 L 22.160133,31.978069 C 22.160133,31.978069 26.997745,27.140456 26.997745,27.140456 C 18.528582,18.264221 13.291696,25.230495 11.500037,31.436501 z"
             style="fill:#404040;"/>
          </a>
         </g>
        </svg>
</svg>
