<?xml version="1.0" encoding="UTF-8" standalone="no"?>
<!DOCTYPE svg PUBLIC "-//W3C//DTD SVG 1.1//EN"
 "http://www.w3.org/Graphics/SVG/1.1/DTD/svg11.dtd">
<!-- Generated by graphviz version 2.43.0 (0)
 -->
<!-- Title: javolution.xml.internal.stream.XMLStreamWriterImpl.writeNoEscape Pages: 1 -->
<svg width="882pt" height="187pt"
 viewBox="0.00 0.00 882.00 186.50" xmlns="http://www.w3.org/2000/svg" xmlns:xlink="http://www.w3.org/1999/xlink">
<g id="graph0" class="graph" transform="scale(1 1) rotate(0) translate(4 182.5)">
<title>javolution.xml.internal.stream.XMLStreamWriterImpl.writeNoEscape</title>
<polygon fill="white" stroke="transparent" points="-4,4 -4,-182.5 878,-182.5 878,4 -4,4"/>
<!-- Node1 -->
<g id="node1" class="node">
<title>Node1</title>
<g id="a_node1"><a xlink:title=" ">
<polygon fill="#bfbfbf" stroke="black" points="0,-77 0,-107 200,-107 200,-77 0,-77"/>
<text text-anchor="start" x="8" y="-95" font-family="Helvetica,sans-Serif" font-size="10.00">javolution.xml.internal.stream.</text>
<text text-anchor="middle" x="100" y="-84" font-family="Helvetica,sans-Serif" font-size="10.00">XMLStreamWriterImpl.writeNoEscape</text>
</a>
</g>
</g>
<!-- Node2 -->
<g id="node2" class="node">
<title>Node2</title>
<g id="a_node2"><a xlink:href="../../d4/d15/classjavolution_1_1xml_1_1internal_1_1stream_1_1XMLStreamWriterImpl.html#a6d805db8f2c051bd5eb34feb49a602a8" target="_top" xlink:title=" ">
<polygon fill="white" stroke="black" points="236,-77 236,-107 404,-107 404,-77 236,-77"/>
<text text-anchor="start" x="244" y="-95" font-family="Helvetica,sans-Serif" font-size="10.00">javolution.xml.internal.stream.</text>
<text text-anchor="middle" x="320" y="-84" font-family="Helvetica,sans-Serif" font-size="10.00">XMLStreamWriterImpl.write</text>
</a>
</g>
</g>
<!-- Node1&#45;&gt;Node2 -->
<g id="edge1" class="edge">
<title>Node1&#45;&gt;Node2</title>
<path fill="none" stroke="midnightblue" d="M200.11,-92C208.59,-92 217.15,-92 225.58,-92"/>
<polygon fill="midnightblue" stroke="midnightblue" points="225.78,-95.5 235.78,-92 225.78,-88.5 225.78,-95.5"/>
</g>
<!-- Node3 -->
<g id="node3" class="node">
<title>Node3</title>
<g id="a_node3"><a xlink:href="../../d4/d15/classjavolution_1_1xml_1_1internal_1_1stream_1_1XMLStreamWriterImpl.html#ac2145f0f924e9b642dd66dc6d5ee891e" target="_top" xlink:title=" ">
<polygon fill="white" stroke="black" points="461,-148 461,-178 641,-178 641,-148 461,-148"/>
<text text-anchor="start" x="469" y="-166" font-family="Helvetica,sans-Serif" font-size="10.00">javolution.xml.internal.stream.</text>
<text text-anchor="middle" x="551" y="-155" font-family="Helvetica,sans-Serif" font-size="10.00">XMLStreamWriterImpl.flushBuffer</text>
</a>
</g>
</g>
<!-- Node2&#45;&gt;Node3 -->
<g id="edge2" class="edge">
<title>Node2&#45;&gt;Node3</title>
<path fill="none" stroke="midnightblue" d="M354.85,-107.06C378.39,-117.11 410.67,-130.07 440,-139 447.64,-141.33 455.65,-143.52 463.71,-145.57"/>
<polygon fill="midnightblue" stroke="midnightblue" points="463,-149 473.55,-147.99 464.68,-142.2 463,-149"/>
</g>
<!-- Node4 -->
<g id="node4" class="node">
<title>Node4</title>
<g id="a_node4"><a xlink:href="../../d4/d15/classjavolution_1_1xml_1_1internal_1_1stream_1_1XMLStreamWriterImpl.html#a3d00494460e49d0dd3a57e250d4d707c" target="_top" xlink:title=" ">
<polygon fill="white" stroke="black" points="465.5,-99 465.5,-129 636.5,-129 636.5,-99 465.5,-99"/>
<text text-anchor="start" x="473.5" y="-117" font-family="Helvetica,sans-Serif" font-size="10.00">javolution.xml.internal.stream.</text>
<text text-anchor="middle" x="551" y="-106" font-family="Helvetica,sans-Serif" font-size="10.00">XMLStreamWriterImpl.getChars</text>
</a>
</g>
</g>
<!-- Node2&#45;&gt;Node4 -->
<g id="edge3" class="edge">
<title>Node2&#45;&gt;Node4</title>
<path fill="none" stroke="midnightblue" d="M404.32,-100C420.74,-101.58 438.08,-103.25 454.85,-104.86"/>
<polygon fill="midnightblue" stroke="midnightblue" points="454.91,-108.38 465.2,-105.85 455.58,-101.41 454.91,-108.38"/>
</g>
<!-- Node5 -->
<g id="node5" class="node">
<title>Node5</title>
<g id="a_node5"><a xlink:href="../../d4/d15/classjavolution_1_1xml_1_1internal_1_1stream_1_1XMLStreamWriterImpl.html#ac48b39590b21a285753d9ecc463d95c1" target="_top" xlink:title=" ">
<polygon fill="white" stroke="black" points="698,-30 698,-60 874,-60 874,-30 698,-30"/>
<text text-anchor="start" x="706" y="-48" font-family="Helvetica,sans-Serif" font-size="10.00">javolution.xml.internal.stream.</text>
<text text-anchor="middle" x="786" y="-37" font-family="Helvetica,sans-Serif" font-size="10.00">XMLStreamWriterImpl.isEscaped</text>
</a>
</g>
</g>
<!-- Node2&#45;&gt;Node5 -->
<g id="edge4" class="edge">
<title>Node2&#45;&gt;Node5</title>
<path fill="none" stroke="midnightblue" d="M404.22,-83.57C483.79,-75.51 603.74,-63.36 687.69,-54.86"/>
<polygon fill="midnightblue" stroke="midnightblue" points="688.15,-58.33 697.75,-53.84 687.44,-51.36 688.15,-58.33"/>
</g>
<!-- Node6 -->
<g id="node6" class="node">
<title>Node6</title>
<g id="a_node6"><a xlink:href="../../d4/d15/classjavolution_1_1xml_1_1internal_1_1stream_1_1XMLStreamWriterImpl.html#a79ed753f8bf18f2eeaf7d7e8f93d60f1" target="_top" xlink:title=" ">
<polygon fill="white" stroke="black" points="440,-0.5 440,-41.5 662,-41.5 662,-0.5 440,-0.5"/>
<text text-anchor="start" x="448" y="-29.5" font-family="Helvetica,sans-Serif" font-size="10.00">javolution.xml.internal.stream.</text>
<text text-anchor="start" x="448" y="-18.5" font-family="Helvetica,sans-Serif" font-size="10.00">XMLStreamWriterImpl.writeDirectEscaped</text>
<text text-anchor="middle" x="551" y="-7.5" font-family="Helvetica,sans-Serif" font-size="10.00">Characters</text>
</a>
</g>
</g>
<!-- Node2&#45;&gt;Node6 -->
<g id="edge5" class="edge">
<title>Node2&#45;&gt;Node6</title>
<path fill="none" stroke="midnightblue" d="M369.57,-76.94C399.93,-67.53 439.67,-55.21 474.13,-44.52"/>
<polygon fill="midnightblue" stroke="midnightblue" points="475.18,-47.86 483.7,-41.56 473.11,-41.18 475.18,-47.86"/>
</g>
<!-- Node6&#45;&gt;Node5 -->
<g id="edge6" class="edge">
<title>Node6&#45;&gt;Node5</title>
<path fill="none" stroke="midnightblue" d="M662.02,-32.33C670.66,-33.22 679.34,-34.12 687.89,-35"/>
<polygon fill="midnightblue" stroke="midnightblue" points="687.53,-38.48 697.84,-36.02 688.25,-31.52 687.53,-38.48"/>
</g>
</g>
</svg>
