<?xml version="1.0" encoding="UTF-8" standalone="no"?>
<!DOCTYPE svg PUBLIC "-//W3C//DTD SVG 1.1//EN"
 "http://www.w3.org/Graphics/SVG/1.1/DTD/svg11.dtd">
<!-- Generated by graphviz version 2.43.0 (0)
 -->
<!-- Title: javolution.xml.internal.stream.XMLStreamWriterImpl.writeNewElement Pages: 1 -->
<svg width="1936pt" height="761pt"
 viewBox="0.00 0.00 1936.00 761.00" xmlns="http://www.w3.org/2000/svg" xmlns:xlink="http://www.w3.org/1999/xlink">
<g id="graph0" class="graph" transform="scale(1 1) rotate(0) translate(4 757)">
<title>javolution.xml.internal.stream.XMLStreamWriterImpl.writeNewElement</title>
<polygon fill="white" stroke="transparent" points="-4,4 -4,-757 1932,-757 1932,4 -4,4"/>
<!-- Node1 -->
<g id="node1" class="node">
<title>Node1</title>
<g id="a_node1"><a xlink:title=" ">
<polygon fill="#bfbfbf" stroke="black" points="0,-274.5 0,-304.5 215,-304.5 215,-274.5 0,-274.5"/>
<text text-anchor="start" x="8" y="-292.5" font-family="Helvetica,sans-Serif" font-size="10.00">javolution.xml.internal.stream.</text>
<text text-anchor="middle" x="107.5" y="-281.5" font-family="Helvetica,sans-Serif" font-size="10.00">XMLStreamWriterImpl.writeNewElement</text>
</a>
</g>
</g>
<!-- Node2 -->
<g id="node2" class="node">
<title>Node2</title>
<g id="a_node2"><a xlink:href="../../d2/d7a/classjavolution_1_1text_1_1TextBuilder.html#a5b6d5e22b7b33b3188569bbaf6112c95" target="_top" xlink:title=" ">
<polygon fill="white" stroke="black" points="1274,-728 1274,-747 1458,-747 1458,-728 1274,-728"/>
<text text-anchor="middle" x="1366" y="-735" font-family="Helvetica,sans-Serif" font-size="10.00">javolution.text.TextBuilder.append</text>
</a>
</g>
</g>
<!-- Node1&#45;&gt;Node2 -->
<g id="edge1" class="edge">
<title>Node1&#45;&gt;Node2</title>
<path fill="none" stroke="midnightblue" d="M109.11,-304.84C112.33,-362.89 132.03,-570.79 251,-668.5 375.11,-770.43 446.9,-727.5 607.5,-727.5 607.5,-727.5 607.5,-727.5 873,-727.5 1008.25,-727.5 1164.38,-731.32 1263.84,-734.24"/>
<polygon fill="midnightblue" stroke="midnightblue" points="1263.78,-737.74 1273.88,-734.54 1263.99,-730.75 1263.78,-737.74"/>
</g>
<!-- Node4 -->
<g id="node4" class="node">
<title>Node4</title>
<g id="a_node4"><a xlink:href="../../d2/d7a/classjavolution_1_1text_1_1TextBuilder.html#ac6109dc1dfca2e6b48450ae94a8cf59e" target="_top" xlink:title=" ">
<polygon fill="white" stroke="black" points="1280,-690 1280,-709 1452,-709 1452,-690 1280,-690"/>
<text text-anchor="middle" x="1366" y="-697" font-family="Helvetica,sans-Serif" font-size="10.00">javolution.text.TextBuilder.clear</text>
</a>
</g>
</g>
<!-- Node1&#45;&gt;Node4 -->
<g id="edge3" class="edge">
<title>Node1&#45;&gt;Node4</title>
<path fill="none" stroke="midnightblue" d="M109.78,-304.74C115.2,-358.8 141.34,-542.55 251,-625.5 378.37,-721.85 447.8,-670.5 607.5,-670.5 607.5,-670.5 607.5,-670.5 873,-670.5 1011.15,-670.5 1170.74,-682.04 1269.78,-690.56"/>
<polygon fill="midnightblue" stroke="midnightblue" points="1269.5,-694.04 1279.76,-691.42 1270.1,-687.07 1269.5,-694.04"/>
</g>
<!-- Node5 -->
<g id="node5" class="node">
<title>Node5</title>
<g id="a_node5"><a xlink:href="../../d4/d15/classjavolution_1_1xml_1_1internal_1_1stream_1_1XMLStreamWriterImpl.html#a15e88dc4238fd15a3ffdc030975c02cd" target="_top" xlink:title=" ">
<polygon fill="white" stroke="black" points="258,-274.5 258,-304.5 453,-304.5 453,-274.5 258,-274.5"/>
<text text-anchor="start" x="266" y="-292.5" font-family="Helvetica,sans-Serif" font-size="10.00">javolution.xml.internal.stream.</text>
<text text-anchor="middle" x="355.5" y="-281.5" font-family="Helvetica,sans-Serif" font-size="10.00">XMLStreamWriterImpl.closeOpenTag</text>
</a>
</g>
</g>
<!-- Node1&#45;&gt;Node5 -->
<g id="edge4" class="edge">
<title>Node1&#45;&gt;Node5</title>
<path fill="none" stroke="midnightblue" d="M215.33,-289.5C226.04,-289.5 236.91,-289.5 247.62,-289.5"/>
<polygon fill="midnightblue" stroke="midnightblue" points="247.83,-293 257.83,-289.5 247.83,-286 247.83,-293"/>
</g>
<!-- Node8 -->
<g id="node8" class="node">
<title>Node8</title>
<g id="a_node8"><a xlink:href="../../d4/d15/classjavolution_1_1xml_1_1internal_1_1stream_1_1XMLStreamWriterImpl.html#a6d805db8f2c051bd5eb34feb49a602a8" target="_top" xlink:title=" ">
<polygon fill="white" stroke="black" points="1282,-170.5 1282,-200.5 1450,-200.5 1450,-170.5 1282,-170.5"/>
<text text-anchor="start" x="1290" y="-188.5" font-family="Helvetica,sans-Serif" font-size="10.00">javolution.xml.internal.stream.</text>
<text text-anchor="middle" x="1366" y="-177.5" font-family="Helvetica,sans-Serif" font-size="10.00">XMLStreamWriterImpl.write</text>
</a>
</g>
</g>
<!-- Node1&#45;&gt;Node8 -->
<g id="edge45" class="edge">
<title>Node1&#45;&gt;Node8</title>
<path fill="none" stroke="midnightblue" d="M138.88,-274.44C215.47,-237.89 423.53,-147.5 607.5,-147.5 607.5,-147.5 607.5,-147.5 873,-147.5 1012.15,-147.5 1172.78,-162.8 1271.62,-173.98"/>
<polygon fill="midnightblue" stroke="midnightblue" points="1271.25,-177.46 1281.58,-175.12 1272.04,-170.5 1271.25,-177.46"/>
</g>
<!-- Node14 -->
<g id="node14" class="node">
<title>Node14</title>
<g id="a_node14"><a xlink:href="../../d0/d36/classjavolution_1_1text_1_1CharArray.html#a63cd0fbe95d0342063ea7091dce0fa9c" target="_top" xlink:title=" ">
<polygon fill="white" stroke="black" points="1518.5,-526 1518.5,-545 1691.5,-545 1691.5,-526 1518.5,-526"/>
<text text-anchor="middle" x="1605" y="-533" font-family="Helvetica,sans-Serif" font-size="10.00">javolution.text.CharArray.equals</text>
</a>
</g>
</g>
<!-- Node1&#45;&gt;Node14 -->
<g id="edge37" class="edge">
<title>Node1&#45;&gt;Node14</title>
<path fill="none" stroke="midnightblue" d="M122.32,-304.77C177.3,-363.76 388.2,-573.5 607.5,-573.5 607.5,-573.5 607.5,-573.5 1131.5,-573.5 1268.27,-573.5 1426.6,-557.48 1520.85,-546.25"/>
<polygon fill="midnightblue" stroke="midnightblue" points="1521.38,-549.71 1530.89,-545.04 1520.55,-542.76 1521.38,-549.71"/>
</g>
<!-- Node18 -->
<g id="node18" class="node">
<title>Node18</title>
<g id="a_node18"><a xlink:href="../../d4/d15/classjavolution_1_1xml_1_1internal_1_1stream_1_1XMLStreamWriterImpl.html#a18e6c7b2d132315d0566892c781a5c86" target="_top" xlink:title=" ">
<polygon fill="white" stroke="black" points="1045,-476.5 1045,-506.5 1216,-506.5 1216,-476.5 1045,-476.5"/>
<text text-anchor="start" x="1053" y="-494.5" font-family="Helvetica,sans-Serif" font-size="10.00">javolution.xml.internal.stream.</text>
<text text-anchor="middle" x="1130.5" y="-483.5" font-family="Helvetica,sans-Serif" font-size="10.00">XMLStreamWriterImpl.getPrefix</text>
</a>
</g>
</g>
<!-- Node1&#45;&gt;Node18 -->
<g id="edge38" class="edge">
<title>Node1&#45;&gt;Node18</title>
<path fill="none" stroke="midnightblue" d="M143.25,-304.52C210.16,-332.74 362.1,-393.57 496,-423.5 684.21,-465.57 909.89,-481.88 1034.71,-488"/>
<polygon fill="midnightblue" stroke="midnightblue" points="1034.84,-491.51 1045,-488.49 1035.18,-484.52 1034.84,-491.51"/>
</g>
<!-- Node19 -->
<g id="node19" class="node">
<title>Node19</title>
<g id="a_node19"><a xlink:href="../../d4/d15/classjavolution_1_1xml_1_1internal_1_1stream_1_1XMLStreamWriterImpl.html#af5e4a42b57208973be8a1136cc607d09" target="_top" xlink:title=" ">
<polygon fill="white" stroke="black" points="1023,-602.5 1023,-632.5 1238,-632.5 1238,-602.5 1023,-602.5"/>
<text text-anchor="start" x="1031" y="-620.5" font-family="Helvetica,sans-Serif" font-size="10.00">javolution.xml.internal.stream.</text>
<text text-anchor="middle" x="1130.5" y="-609.5" font-family="Helvetica,sans-Serif" font-size="10.00">XMLStreamWriterImpl.getRepairedPrefix</text>
</a>
</g>
</g>
<!-- Node1&#45;&gt;Node19 -->
<g id="edge39" class="edge">
<title>Node1&#45;&gt;Node19</title>
<path fill="none" stroke="midnightblue" d="M110.36,-304.79C117.44,-355.68 147.83,-519.99 251,-587.5 373.1,-667.4 803.04,-644.67 1012.74,-628.05"/>
<polygon fill="midnightblue" stroke="midnightblue" points="1013.17,-631.53 1022.86,-627.24 1012.62,-624.55 1013.17,-631.53"/>
</g>
<!-- Node23 -->
<g id="node23" class="node">
<title>Node23</title>
<g id="a_node23"><a xlink:href="../../d4/d15/classjavolution_1_1xml_1_1internal_1_1stream_1_1XMLStreamWriterImpl.html#a2e628fa8b39f7ce952896efb8e5f63b6" target="_top" xlink:title=" ">
<polygon fill="white" stroke="black" points="1030.5,-219.5 1030.5,-249.5 1230.5,-249.5 1230.5,-219.5 1030.5,-219.5"/>
<text text-anchor="start" x="1038.5" y="-237.5" font-family="Helvetica,sans-Serif" font-size="10.00">javolution.xml.internal.stream.</text>
<text text-anchor="middle" x="1130.5" y="-226.5" font-family="Helvetica,sans-Serif" font-size="10.00">XMLStreamWriterImpl.writeNoEscape</text>
</a>
</g>
</g>
<!-- Node1&#45;&gt;Node23 -->
<g id="edge46" class="edge">
<title>Node1&#45;&gt;Node23</title>
<path fill="none" stroke="midnightblue" d="M191.23,-274.46C210.78,-271.21 231.59,-268 251,-265.5 526.01,-230.05 853.19,-229.3 1019.94,-231.86"/>
<polygon fill="midnightblue" stroke="midnightblue" points="1020.15,-235.36 1030.2,-232.02 1020.26,-228.36 1020.15,-235.36"/>
</g>
<!-- Node24 -->
<g id="node24" class="node">
<title>Node24</title>
<g id="a_node24"><a xlink:href="../../d2/d7a/classjavolution_1_1text_1_1TextBuilder.html#a23b59400283fe96ea47f786a896da5b1" target="_top" xlink:title=" ">
<polygon fill="white" stroke="black" points="519,-72 519,-91 698,-91 698,-72 519,-72"/>
<text text-anchor="middle" x="608.5" y="-79" font-family="Helvetica,sans-Serif" font-size="10.00">javolution.text.TextBuilder.length</text>
</a>
</g>
</g>
<!-- Node1&#45;&gt;Node24 -->
<g id="edge40" class="edge">
<title>Node1&#45;&gt;Node24</title>
<path fill="none" stroke="midnightblue" d="M113.21,-274.35C126.77,-233.69 170.22,-122.31 251,-79.5 353.43,-25.22 496.79,-51.43 566.38,-69.41"/>
<polygon fill="midnightblue" stroke="midnightblue" points="565.53,-72.81 576.09,-72 567.33,-66.05 565.53,-72.81"/>
</g>
<!-- Node25 -->
<g id="node25" class="node">
<title>Node25</title>
<g id="a_node25"><a xlink:href="../../dc/daa/classjavolution_1_1xml_1_1internal_1_1stream_1_1NamespacesImpl.html#ae1cf4d787f513f4e70688869f60aed22" target="_top" xlink:title=" ">
<polygon fill="white" stroke="black" points="271.5,-0.5 271.5,-30.5 439.5,-30.5 439.5,-0.5 271.5,-0.5"/>
<text text-anchor="start" x="279.5" y="-18.5" font-family="Helvetica,sans-Serif" font-size="10.00">javolution.xml.internal.stream.</text>
<text text-anchor="middle" x="355.5" y="-7.5" font-family="Helvetica,sans-Serif" font-size="10.00">NamespacesImpl.push</text>
</a>
</g>
</g>
<!-- Node1&#45;&gt;Node25 -->
<g id="edge41" class="edge">
<title>Node1&#45;&gt;Node25</title>
<path fill="none" stroke="midnightblue" d="M112.97,-274.22C126.33,-231.28 170.14,-108.54 251,-45.5 256.3,-41.37 262.16,-37.8 268.3,-34.73"/>
<polygon fill="midnightblue" stroke="midnightblue" points="269.82,-37.88 277.49,-30.57 266.94,-31.5 269.82,-37.88"/>
</g>
<!-- Node27 -->
<g id="node27" class="node">
<title>Node27</title>
<g id="a_node27"><a xlink:href="../../d4/d15/classjavolution_1_1xml_1_1internal_1_1stream_1_1XMLStreamWriterImpl.html#afca6d9b006681301be8eae9c38a2cdd0" target="_top" xlink:title=" ">
<polygon fill="white" stroke="black" points="251,-88.5 251,-118.5 460,-118.5 460,-88.5 251,-88.5"/>
<text text-anchor="start" x="259" y="-106.5" font-family="Helvetica,sans-Serif" font-size="10.00">javolution.xml.internal.stream.</text>
<text text-anchor="middle" x="355.5" y="-95.5" font-family="Helvetica,sans-Serif" font-size="10.00">XMLStreamWriterImpl.resizeElemStack</text>
</a>
</g>
</g>
<!-- Node1&#45;&gt;Node27 -->
<g id="edge43" class="edge">
<title>Node1&#45;&gt;Node27</title>
<path fill="none" stroke="midnightblue" d="M118.25,-274.07C138.85,-242.74 189.95,-171.47 251,-133.5 258.08,-129.1 265.83,-125.32 273.8,-122.08"/>
<polygon fill="midnightblue" stroke="midnightblue" points="275.12,-125.32 283.24,-118.52 272.65,-118.77 275.12,-125.32"/>
</g>
<!-- Node3 -->
<g id="node3" class="node">
<title>Node3</title>
<g id="a_node3"><a xlink:href="../../d2/d7a/classjavolution_1_1text_1_1TextBuilder.html#a6d79c3b6adfe6c04f80f940904d181b4" target="_top" xlink:title=" ">
<polygon fill="white" stroke="black" points="1510.5,-722.5 1510.5,-752.5 1699.5,-752.5 1699.5,-722.5 1510.5,-722.5"/>
<text text-anchor="start" x="1518.5" y="-740.5" font-family="Helvetica,sans-Serif" font-size="10.00">javolution.text.TextBuilder.increase</text>
<text text-anchor="middle" x="1605" y="-729.5" font-family="Helvetica,sans-Serif" font-size="10.00">Capacity</text>
</a>
</g>
</g>
<!-- Node2&#45;&gt;Node3 -->
<g id="edge2" class="edge">
<title>Node2&#45;&gt;Node3</title>
<path fill="none" stroke="midnightblue" d="M1458.29,-737.5C1472.04,-737.5 1486.3,-737.5 1500.28,-737.5"/>
<polygon fill="midnightblue" stroke="midnightblue" points="1500.4,-741 1510.4,-737.5 1500.4,-734 1500.4,-741"/>
</g>
<!-- Node6 -->
<g id="node6" class="node">
<title>Node6</title>
<g id="a_node6"><a xlink:href="../../dc/daa/classjavolution_1_1xml_1_1internal_1_1stream_1_1NamespacesImpl.html#ae82cf6edcea5ac1d71d5b9005bb6a590" target="_top" xlink:title=" ">
<polygon fill="white" stroke="black" points="524.5,-252.5 524.5,-282.5 692.5,-282.5 692.5,-252.5 524.5,-252.5"/>
<text text-anchor="start" x="532.5" y="-270.5" font-family="Helvetica,sans-Serif" font-size="10.00">javolution.xml.internal.stream.</text>
<text text-anchor="middle" x="608.5" y="-259.5" font-family="Helvetica,sans-Serif" font-size="10.00">NamespacesImpl.pop</text>
</a>
</g>
</g>
<!-- Node5&#45;&gt;Node6 -->
<g id="edge5" class="edge">
<title>Node5&#45;&gt;Node6</title>
<path fill="none" stroke="midnightblue" d="M453.18,-281.03C473.27,-279.27 494.39,-277.41 514.35,-275.66"/>
<polygon fill="midnightblue" stroke="midnightblue" points="514.69,-279.15 524.35,-274.79 514.08,-272.17 514.69,-279.15"/>
</g>
<!-- Node5&#45;&gt;Node8 -->
<g id="edge7" class="edge">
<title>Node5&#45;&gt;Node8</title>
<path fill="none" stroke="midnightblue" d="M393.42,-274.49C421.15,-263.92 460.33,-250.46 496,-243.5 774.28,-189.24 1111.11,-183.35 1271.43,-184.08"/>
<polygon fill="midnightblue" stroke="midnightblue" points="1271.71,-187.58 1281.73,-184.14 1271.75,-180.58 1271.71,-187.58"/>
</g>
<!-- Node13 -->
<g id="node13" class="node">
<title>Node13</title>
<g id="a_node13"><a xlink:href="../../d4/d15/classjavolution_1_1xml_1_1internal_1_1stream_1_1XMLStreamWriterImpl.html#ad23e09c1ba7cccfde9d9f05f3e2ec3d1" target="_top" xlink:title=" ">
<polygon fill="white" stroke="black" points="501,-383.5 501,-413.5 716,-413.5 716,-383.5 501,-383.5"/>
<text text-anchor="start" x="509" y="-401.5" font-family="Helvetica,sans-Serif" font-size="10.00">javolution.xml.internal.stream.</text>
<text text-anchor="middle" x="608.5" y="-390.5" font-family="Helvetica,sans-Serif" font-size="10.00">XMLStreamWriterImpl.writeNamespaces</text>
</a>
</g>
</g>
<!-- Node5&#45;&gt;Node13 -->
<g id="edge13" class="edge">
<title>Node5&#45;&gt;Node13</title>
<path fill="none" stroke="midnightblue" d="M391.14,-304.54C436.02,-324.03 514.33,-358.04 563.41,-379.35"/>
<polygon fill="midnightblue" stroke="midnightblue" points="562.25,-382.66 572.82,-383.44 565.04,-376.24 562.25,-382.66"/>
</g>
<!-- Node5&#45;&gt;Node23 -->
<g id="edge36" class="edge">
<title>Node5&#45;&gt;Node23</title>
<path fill="none" stroke="midnightblue" d="M438.68,-304.51C561.04,-323.63 797.09,-347.99 987,-292.5 1005.22,-287.18 1005.85,-277.64 1023,-269.5 1036.29,-263.2 1051.01,-257.56 1065.16,-252.76"/>
<polygon fill="midnightblue" stroke="midnightblue" points="1066.44,-256.02 1074.84,-249.56 1064.25,-249.37 1066.44,-256.02"/>
</g>
<!-- Node7 -->
<g id="node7" class="node">
<title>Node7</title>
<g id="a_node7"><a xlink:href="../../dc/daa/classjavolution_1_1xml_1_1internal_1_1stream_1_1NamespacesImpl.html#acb0ae4ce1aed7a82764ba4576eda513a" target="_top" xlink:title=" ">
<polygon fill="white" stroke="black" points="757,-252.5 757,-282.5 987,-282.5 987,-252.5 757,-252.5"/>
<text text-anchor="start" x="765" y="-270.5" font-family="Helvetica,sans-Serif" font-size="10.00">javolution.xml.internal.stream.</text>
<text text-anchor="middle" x="872" y="-259.5" font-family="Helvetica,sans-Serif" font-size="10.00">NamespacesImpl.searchDefaultNamespace</text>
</a>
</g>
</g>
<!-- Node6&#45;&gt;Node7 -->
<g id="edge6" class="edge">
<title>Node6&#45;&gt;Node7</title>
<path fill="none" stroke="midnightblue" d="M692.6,-267.5C709.76,-267.5 728.19,-267.5 746.46,-267.5"/>
<polygon fill="midnightblue" stroke="midnightblue" points="746.58,-271 756.58,-267.5 746.58,-264 746.58,-271"/>
</g>
<!-- Node9 -->
<g id="node9" class="node">
<title>Node9</title>
<g id="a_node9"><a xlink:href="../../d4/d15/classjavolution_1_1xml_1_1internal_1_1stream_1_1XMLStreamWriterImpl.html#ac2145f0f924e9b642dd66dc6d5ee891e" target="_top" xlink:title=" ">
<polygon fill="white" stroke="black" points="1515,-126.5 1515,-156.5 1695,-156.5 1695,-126.5 1515,-126.5"/>
<text text-anchor="start" x="1523" y="-144.5" font-family="Helvetica,sans-Serif" font-size="10.00">javolution.xml.internal.stream.</text>
<text text-anchor="middle" x="1605" y="-133.5" font-family="Helvetica,sans-Serif" font-size="10.00">XMLStreamWriterImpl.flushBuffer</text>
</a>
</g>
</g>
<!-- Node8&#45;&gt;Node9 -->
<g id="edge8" class="edge">
<title>Node8&#45;&gt;Node9</title>
<path fill="none" stroke="midnightblue" d="M1447.9,-170.48C1468.85,-166.59 1491.55,-162.38 1512.99,-158.4"/>
<polygon fill="midnightblue" stroke="midnightblue" points="1513.87,-161.79 1523.06,-156.53 1512.59,-154.91 1513.87,-161.79"/>
</g>
<!-- Node10 -->
<g id="node10" class="node">
<title>Node10</title>
<g id="a_node10"><a xlink:href="../../d4/d15/classjavolution_1_1xml_1_1internal_1_1stream_1_1XMLStreamWriterImpl.html#a3d00494460e49d0dd3a57e250d4d707c" target="_top" xlink:title=" ">
<polygon fill="white" stroke="black" points="1519.5,-77.5 1519.5,-107.5 1690.5,-107.5 1690.5,-77.5 1519.5,-77.5"/>
<text text-anchor="start" x="1527.5" y="-95.5" font-family="Helvetica,sans-Serif" font-size="10.00">javolution.xml.internal.stream.</text>
<text text-anchor="middle" x="1605" y="-84.5" font-family="Helvetica,sans-Serif" font-size="10.00">XMLStreamWriterImpl.getChars</text>
</a>
</g>
</g>
<!-- Node8&#45;&gt;Node10 -->
<g id="edge9" class="edge">
<title>Node8&#45;&gt;Node10</title>
<path fill="none" stroke="midnightblue" d="M1390.44,-170.46C1415.27,-155.14 1456.05,-131.68 1494,-117.5 1501.02,-114.88 1508.39,-112.48 1515.86,-110.3"/>
<polygon fill="midnightblue" stroke="midnightblue" points="1517.02,-113.62 1525.71,-107.56 1515.14,-106.87 1517.02,-113.62"/>
</g>
<!-- Node11 -->
<g id="node11" class="node">
<title>Node11</title>
<g id="a_node11"><a xlink:href="../../d4/d15/classjavolution_1_1xml_1_1internal_1_1stream_1_1XMLStreamWriterImpl.html#ac48b39590b21a285753d9ecc463d95c1" target="_top" xlink:title=" ">
<polygon fill="white" stroke="black" points="1752,-195.5 1752,-225.5 1928,-225.5 1928,-195.5 1752,-195.5"/>
<text text-anchor="start" x="1760" y="-213.5" font-family="Helvetica,sans-Serif" font-size="10.00">javolution.xml.internal.stream.</text>
<text text-anchor="middle" x="1840" y="-202.5" font-family="Helvetica,sans-Serif" font-size="10.00">XMLStreamWriterImpl.isEscaped</text>
</a>
</g>
</g>
<!-- Node8&#45;&gt;Node11 -->
<g id="edge10" class="edge">
<title>Node8&#45;&gt;Node11</title>
<path fill="none" stroke="midnightblue" d="M1450.03,-189.9C1531.45,-194.21 1655.56,-200.78 1741.6,-205.34"/>
<polygon fill="midnightblue" stroke="midnightblue" points="1741.47,-208.84 1751.64,-205.87 1741.84,-201.85 1741.47,-208.84"/>
</g>
<!-- Node12 -->
<g id="node12" class="node">
<title>Node12</title>
<g id="a_node12"><a xlink:href="../../d4/d15/classjavolution_1_1xml_1_1internal_1_1stream_1_1XMLStreamWriterImpl.html#a79ed753f8bf18f2eeaf7d7e8f93d60f1" target="_top" xlink:title=" ">
<polygon fill="white" stroke="black" points="1494,-214 1494,-255 1716,-255 1716,-214 1494,-214"/>
<text text-anchor="start" x="1502" y="-243" font-family="Helvetica,sans-Serif" font-size="10.00">javolution.xml.internal.stream.</text>
<text text-anchor="start" x="1502" y="-232" font-family="Helvetica,sans-Serif" font-size="10.00">XMLStreamWriterImpl.writeDirectEscaped</text>
<text text-anchor="middle" x="1605" y="-221" font-family="Helvetica,sans-Serif" font-size="10.00">Characters</text>
</a>
</g>
</g>
<!-- Node8&#45;&gt;Node12 -->
<g id="edge11" class="edge">
<title>Node8&#45;&gt;Node12</title>
<path fill="none" stroke="midnightblue" d="M1439.72,-200.53C1457.13,-204.14 1476.11,-208.06 1494.78,-211.92"/>
<polygon fill="midnightblue" stroke="midnightblue" points="1494.3,-215.39 1504.8,-213.99 1495.72,-208.54 1494.3,-215.39"/>
</g>
<!-- Node12&#45;&gt;Node11 -->
<g id="edge12" class="edge">
<title>Node12&#45;&gt;Node11</title>
<path fill="none" stroke="midnightblue" d="M1716.02,-223.17C1724.66,-222.28 1733.34,-221.38 1741.89,-220.5"/>
<polygon fill="midnightblue" stroke="midnightblue" points="1742.25,-223.98 1751.84,-219.48 1741.53,-217.02 1742.25,-223.98"/>
</g>
<!-- Node13&#45;&gt;Node14 -->
<g id="edge14" class="edge">
<title>Node13&#45;&gt;Node14</title>
<path fill="none" stroke="midnightblue" d="M647.95,-413.57C677.5,-424.85 719.48,-440.21 757,-451.5 873.54,-486.57 902.43,-499.98 1023,-516.5 1192.61,-539.74 1392.54,-540.52 1508.14,-538.41"/>
<polygon fill="midnightblue" stroke="midnightblue" points="1508.45,-541.9 1518.38,-538.21 1508.31,-534.9 1508.45,-541.9"/>
</g>
<!-- Node15 -->
<g id="node15" class="node">
<title>Node15</title>
<g id="a_node15"><a xlink:href="../../dc/daa/classjavolution_1_1xml_1_1internal_1_1stream_1_1NamespacesImpl.html#a5a2f11c30da4ca635225ed1c0c5f2668" target="_top" xlink:title=" ">
<polygon fill="white" stroke="black" points="1282,-476.5 1282,-506.5 1450,-506.5 1450,-476.5 1282,-476.5"/>
<text text-anchor="start" x="1290" y="-494.5" font-family="Helvetica,sans-Serif" font-size="10.00">javolution.xml.internal.stream.</text>
<text text-anchor="middle" x="1366" y="-483.5" font-family="Helvetica,sans-Serif" font-size="10.00">NamespacesImpl.getPrefix</text>
</a>
</g>
</g>
<!-- Node13&#45;&gt;Node15 -->
<g id="edge15" class="edge">
<title>Node13&#45;&gt;Node15</title>
<path fill="none" stroke="midnightblue" d="M674.92,-413.56C700.42,-418.97 729.96,-424.67 757,-428.5 969.36,-458.59 1025.44,-438.88 1238,-467.5 1252.45,-469.45 1267.76,-471.95 1282.54,-474.61"/>
<polygon fill="midnightblue" stroke="midnightblue" points="1282.22,-478.1 1292.68,-476.46 1283.48,-471.22 1282.22,-478.1"/>
</g>
<!-- Node16 -->
<g id="node16" class="node">
<title>Node16</title>
<g id="a_node16"><a xlink:href="../../d0/d36/classjavolution_1_1text_1_1CharArray.html#a1206e2076e25f1e66e1458328aa22baa" target="_top" xlink:title=" ">
<polygon fill="white" stroke="black" points="1754,-602 1754,-621 1926,-621 1926,-602 1754,-602"/>
<text text-anchor="middle" x="1840" y="-609" font-family="Helvetica,sans-Serif" font-size="10.00">javolution.text.CharArray.length</text>
</a>
</g>
</g>
<!-- Node13&#45;&gt;Node16 -->
<g id="edge17" class="edge">
<title>Node13&#45;&gt;Node16</title>
<path fill="none" stroke="midnightblue" d="M683.02,-383.5C706.64,-378.69 732.92,-373.36 757,-368.5 859.19,-347.89 888.77,-357.41 987,-322.5 1004.05,-316.44 1005.44,-307.85 1023,-303.5 1115.75,-280.53 1144.54,-283.62 1238,-303.5 1465.49,-351.89 1516.32,-397.24 1716,-516.5 1755.82,-540.28 1797.62,-574.96 1820.79,-595.18"/>
<polygon fill="midnightblue" stroke="midnightblue" points="1818.63,-597.94 1828.44,-601.92 1823.25,-592.69 1818.63,-597.94"/>
</g>
<!-- Node17 -->
<g id="node17" class="node">
<title>Node17</title>
<g id="a_node17"><a xlink:href="../../d4/d15/classjavolution_1_1xml_1_1internal_1_1stream_1_1XMLStreamWriterImpl.html#a67df1c83cc5a3ea172419ca10d1b2ca2" target="_top" xlink:title=" ">
<polygon fill="white" stroke="black" points="774.5,-378 774.5,-419 969.5,-419 969.5,-378 774.5,-378"/>
<text text-anchor="start" x="782.5" y="-407" font-family="Helvetica,sans-Serif" font-size="10.00">javolution.xml.internal.stream.</text>
<text text-anchor="start" x="782.5" y="-396" font-family="Helvetica,sans-Serif" font-size="10.00">XMLStreamWriterImpl.writeAttribute</text>
<text text-anchor="middle" x="872" y="-385" font-family="Helvetica,sans-Serif" font-size="10.00">OrNamespace</text>
</a>
</g>
</g>
<!-- Node13&#45;&gt;Node17 -->
<g id="edge18" class="edge">
<title>Node13&#45;&gt;Node17</title>
<path fill="none" stroke="midnightblue" d="M716.24,-398.5C731.99,-398.5 748.23,-398.5 763.99,-398.5"/>
<polygon fill="midnightblue" stroke="midnightblue" points="764.27,-402 774.27,-398.5 764.27,-395 764.27,-402"/>
</g>
<!-- Node15&#45;&gt;Node14 -->
<g id="edge16" class="edge">
<title>Node15&#45;&gt;Node14</title>
<path fill="none" stroke="midnightblue" d="M1447.9,-506.52C1478.97,-512.29 1513.88,-518.77 1542.8,-524.14"/>
<polygon fill="midnightblue" stroke="midnightblue" points="1542.29,-527.6 1552.76,-525.99 1543.57,-520.72 1542.29,-527.6"/>
</g>
<!-- Node17&#45;&gt;Node8 -->
<g id="edge31" class="edge">
<title>Node17&#45;&gt;Node8</title>
<path fill="none" stroke="midnightblue" d="M969.81,-394.71C1062.22,-389.61 1193.73,-378.02 1238,-352.5 1295.93,-319.1 1336.09,-247.71 1354.17,-210.01"/>
<polygon fill="midnightblue" stroke="midnightblue" points="1357.43,-211.3 1358.49,-200.75 1351.09,-208.34 1357.43,-211.3"/>
</g>
<!-- Node17&#45;&gt;Node14 -->
<g id="edge19" class="edge">
<title>Node17&#45;&gt;Node14</title>
<path fill="none" stroke="midnightblue" d="M969.56,-400.53C1087.06,-405.13 1290.51,-419.95 1458,-467.5 1502.71,-480.19 1550.91,-505.07 1579.22,-520.96"/>
<polygon fill="midnightblue" stroke="midnightblue" points="1577.6,-524.06 1588.02,-525.97 1581.06,-517.98 1577.6,-524.06"/>
</g>
<!-- Node17&#45;&gt;Node18 -->
<g id="edge20" class="edge">
<title>Node17&#45;&gt;Node18</title>
<path fill="none" stroke="midnightblue" d="M929.61,-419.02C974.05,-435.14 1035.38,-457.38 1078.35,-472.96"/>
<polygon fill="midnightblue" stroke="midnightblue" points="1077.18,-476.25 1087.77,-476.37 1079.57,-469.67 1077.18,-476.25"/>
</g>
<!-- Node17&#45;&gt;Node19 -->
<g id="edge22" class="edge">
<title>Node17&#45;&gt;Node19</title>
<path fill="none" stroke="midnightblue" d="M897.13,-419.1C945.68,-460.56 1054.76,-553.68 1104.24,-595.93"/>
<polygon fill="midnightblue" stroke="midnightblue" points="1102.05,-598.66 1111.92,-602.49 1106.59,-593.34 1102.05,-598.66"/>
</g>
<!-- Node22 -->
<g id="node22" class="node">
<title>Node22</title>
<g id="a_node22"><a xlink:href="../../d4/d15/classjavolution_1_1xml_1_1internal_1_1stream_1_1XMLStreamWriterImpl.html#ae9c868796ceee6d3d83d4937c18e9159" target="_top" xlink:title=" ">
<polygon fill="white" stroke="black" points="1037,-312.5 1037,-342.5 1224,-342.5 1224,-312.5 1037,-312.5"/>
<text text-anchor="start" x="1045" y="-330.5" font-family="Helvetica,sans-Serif" font-size="10.00">javolution.xml.internal.stream.</text>
<text text-anchor="middle" x="1130.5" y="-319.5" font-family="Helvetica,sans-Serif" font-size="10.00">XMLStreamWriterImpl.writeEscape</text>
</a>
</g>
</g>
<!-- Node17&#45;&gt;Node22 -->
<g id="edge32" class="edge">
<title>Node17&#45;&gt;Node22</title>
<path fill="none" stroke="midnightblue" d="M947.19,-377.96C984.52,-367.63 1029.32,-355.23 1065.17,-345.31"/>
<polygon fill="midnightblue" stroke="midnightblue" points="1066.33,-348.62 1075.03,-342.58 1064.46,-341.87 1066.33,-348.62"/>
</g>
<!-- Node17&#45;&gt;Node23 -->
<g id="edge34" class="edge">
<title>Node17&#45;&gt;Node23</title>
<path fill="none" stroke="midnightblue" d="M905.23,-377.9C954.5,-346.39 1048.02,-286.6 1097.29,-255.1"/>
<polygon fill="midnightblue" stroke="midnightblue" points="1099.41,-257.89 1105.95,-249.56 1095.64,-251.99 1099.41,-257.89"/>
</g>
<!-- Node18&#45;&gt;Node15 -->
<g id="edge21" class="edge">
<title>Node18&#45;&gt;Node15</title>
<path fill="none" stroke="midnightblue" d="M1216.13,-491.5C1234.19,-491.5 1253.36,-491.5 1271.72,-491.5"/>
<polygon fill="midnightblue" stroke="midnightblue" points="1271.83,-495 1281.83,-491.5 1271.83,-488 1271.83,-495"/>
</g>
<!-- Node19&#45;&gt;Node2 -->
<g id="edge23" class="edge">
<title>Node19&#45;&gt;Node2</title>
<path fill="none" stroke="midnightblue" d="M1148.07,-632.78C1173.29,-655.16 1223.69,-696.56 1274,-718.5 1279.83,-721.04 1286.01,-723.25 1292.31,-725.17"/>
<polygon fill="midnightblue" stroke="midnightblue" points="1291.69,-728.63 1302.26,-727.95 1293.57,-721.89 1291.69,-728.63"/>
</g>
<!-- Node19&#45;&gt;Node4 -->
<g id="edge24" class="edge">
<title>Node19&#45;&gt;Node4</title>
<path fill="none" stroke="midnightblue" d="M1179.97,-632.53C1198.54,-638.98 1219.65,-647.19 1238,-656.5 1255.15,-665.2 1256.27,-673.07 1274,-680.5 1280.2,-683.1 1286.79,-685.36 1293.48,-687.31"/>
<polygon fill="midnightblue" stroke="midnightblue" points="1292.76,-690.74 1303.33,-689.97 1294.58,-683.98 1292.76,-690.74"/>
</g>
<!-- Node19&#45;&gt;Node14 -->
<g id="edge25" class="edge">
<title>Node19&#45;&gt;Node14</title>
<path fill="none" stroke="midnightblue" d="M1238.03,-614.44C1302.35,-610.94 1385.6,-603.45 1458,-587.5 1498.84,-578.5 1543.91,-561.26 1573.02,-549.1"/>
<polygon fill="midnightblue" stroke="midnightblue" points="1574.4,-552.32 1582.25,-545.2 1571.67,-545.87 1574.4,-552.32"/>
</g>
<!-- Node19&#45;&gt;Node15 -->
<g id="edge26" class="edge">
<title>Node19&#45;&gt;Node15</title>
<path fill="none" stroke="midnightblue" d="M1159.67,-602.3C1201.85,-579.54 1281.48,-536.57 1328.21,-511.35"/>
<polygon fill="midnightblue" stroke="midnightblue" points="1329.96,-514.39 1337.1,-506.56 1326.64,-508.23 1329.96,-514.39"/>
</g>
<!-- Node20 -->
<g id="node20" class="node">
<title>Node20</title>
<g id="a_node20"><a xlink:href="../../dc/daa/classjavolution_1_1xml_1_1internal_1_1stream_1_1NamespacesImpl.html#af0e399ec7eca3a967c953ca0901565d3" target="_top" xlink:title=" ">
<polygon fill="white" stroke="black" points="1282,-640.5 1282,-670.5 1450,-670.5 1450,-640.5 1282,-640.5"/>
<text text-anchor="start" x="1290" y="-658.5" font-family="Helvetica,sans-Serif" font-size="10.00">javolution.xml.internal.stream.</text>
<text text-anchor="middle" x="1366" y="-647.5" font-family="Helvetica,sans-Serif" font-size="10.00">NamespacesImpl.setPrefix</text>
</a>
</g>
</g>
<!-- Node19&#45;&gt;Node20 -->
<g id="edge27" class="edge">
<title>Node19&#45;&gt;Node20</title>
<path fill="none" stroke="midnightblue" d="M1223.79,-632.52C1239.47,-635.07 1255.77,-637.72 1271.49,-640.28"/>
<polygon fill="midnightblue" stroke="midnightblue" points="1271.29,-643.8 1281.72,-641.95 1272.41,-636.89 1271.29,-643.8"/>
</g>
<!-- Node20&#45;&gt;Node16 -->
<g id="edge28" class="edge">
<title>Node20&#45;&gt;Node16</title>
<path fill="none" stroke="midnightblue" d="M1437.61,-640.48C1455.91,-637.05 1475.63,-633.76 1494,-631.5 1578,-621.17 1674.18,-616.15 1743.61,-613.73"/>
<polygon fill="midnightblue" stroke="midnightblue" points="1743.78,-617.23 1753.66,-613.39 1743.54,-610.23 1743.78,-617.23"/>
</g>
<!-- Node21 -->
<g id="node21" class="node">
<title>Node21</title>
<g id="a_node21"><a xlink:href="../../dc/daa/classjavolution_1_1xml_1_1internal_1_1stream_1_1NamespacesImpl.html#ad1e699fb6fe13f5d6a355f8a8eff25e8" target="_top" xlink:title=" ">
<polygon fill="white" stroke="black" points="1511,-640.5 1511,-670.5 1699,-670.5 1699,-640.5 1511,-640.5"/>
<text text-anchor="start" x="1519" y="-658.5" font-family="Helvetica,sans-Serif" font-size="10.00">javolution.xml.internal.stream.</text>
<text text-anchor="middle" x="1605" y="-647.5" font-family="Helvetica,sans-Serif" font-size="10.00">NamespacesImpl.resizePrefixStack</text>
</a>
</g>
</g>
<!-- Node20&#45;&gt;Node21 -->
<g id="edge29" class="edge">
<title>Node20&#45;&gt;Node21</title>
<path fill="none" stroke="midnightblue" d="M1450.22,-655.5C1466.46,-655.5 1483.67,-655.5 1500.47,-655.5"/>
<polygon fill="midnightblue" stroke="midnightblue" points="1500.87,-659 1510.87,-655.5 1500.87,-652 1500.87,-659"/>
</g>
<!-- Node21&#45;&gt;Node16 -->
<g id="edge30" class="edge">
<title>Node21&#45;&gt;Node16</title>
<path fill="none" stroke="midnightblue" d="M1685.53,-640.48C1715.94,-634.74 1750.1,-628.29 1778.46,-622.93"/>
<polygon fill="midnightblue" stroke="midnightblue" points="1779.45,-626.31 1788.63,-621.01 1778.15,-619.43 1779.45,-626.31"/>
</g>
<!-- Node22&#45;&gt;Node8 -->
<g id="edge33" class="edge">
<title>Node22&#45;&gt;Node8</title>
<path fill="none" stroke="midnightblue" d="M1156.49,-312.3C1198.71,-286.63 1284.18,-234.65 1331.53,-205.85"/>
<polygon fill="midnightblue" stroke="midnightblue" points="1333.47,-208.77 1340.19,-200.59 1329.83,-202.79 1333.47,-208.77"/>
</g>
<!-- Node23&#45;&gt;Node8 -->
<g id="edge35" class="edge">
<title>Node23&#45;&gt;Node8</title>
<path fill="none" stroke="midnightblue" d="M1203.14,-219.47C1228.58,-214.13 1257.4,-208.08 1283.59,-202.58"/>
<polygon fill="midnightblue" stroke="midnightblue" points="1284.42,-205.99 1293.49,-200.51 1282.99,-199.13 1284.42,-205.99"/>
</g>
<!-- Node26 -->
<g id="node26" class="node">
<title>Node26</title>
<g id="a_node26"><a xlink:href="../../dc/daa/classjavolution_1_1xml_1_1internal_1_1stream_1_1NamespacesImpl.html#a8607aa95dd6c628095acf01e25a7698a" target="_top" xlink:title=" ">
<polygon fill="white" stroke="black" points="496,-0.5 496,-30.5 721,-30.5 721,-0.5 496,-0.5"/>
<text text-anchor="start" x="504" y="-18.5" font-family="Helvetica,sans-Serif" font-size="10.00">javolution.xml.internal.stream.</text>
<text text-anchor="middle" x="608.5" y="-7.5" font-family="Helvetica,sans-Serif" font-size="10.00">NamespacesImpl.resizeNamespacesCount</text>
</a>
</g>
</g>
<!-- Node25&#45;&gt;Node26 -->
<g id="edge42" class="edge">
<title>Node25&#45;&gt;Node26</title>
<path fill="none" stroke="midnightblue" d="M439.73,-15.5C454.48,-15.5 470.11,-15.5 485.67,-15.5"/>
<polygon fill="midnightblue" stroke="midnightblue" points="485.87,-19 495.87,-15.5 485.87,-12 485.87,-19"/>
</g>
<!-- Node27&#45;&gt;Node24 -->
<g id="edge44" class="edge">
<title>Node27&#45;&gt;Node24</title>
<path fill="none" stroke="midnightblue" d="M460.04,-94.42C475.99,-93.03 492.43,-91.59 508.29,-90.2"/>
<polygon fill="midnightblue" stroke="midnightblue" points="508.95,-93.65 518.61,-89.29 508.34,-86.68 508.95,-93.65"/>
</g>
</g>
</svg>
