<?xml version="1.0" encoding="UTF-8" standalone="no"?>
<!DOCTYPE svg PUBLIC "-//W3C//DTD SVG 1.1//EN"
 "http://www.w3.org/Graphics/SVG/1.1/DTD/svg11.dtd">
<!-- Generated by graphviz version 2.43.0 (0)
 -->
<!-- Title: javolution.xml.internal.stream.XMLStreamWriterImpl.writeNamespace Pages: 1 -->
<svg width="500pt" height="39pt"
 viewBox="0.00 0.00 500.00 39.00" xmlns="http://www.w3.org/2000/svg" xmlns:xlink="http://www.w3.org/1999/xlink">
<g id="graph0" class="graph" transform="scale(1 1) rotate(0) translate(4 35)">
<title>javolution.xml.internal.stream.XMLStreamWriterImpl.writeNamespace</title>
<polygon fill="white" stroke="transparent" points="-4,4 -4,-35 496,-35 496,4 -4,4"/>
<!-- Node1 -->
<g id="node1" class="node">
<title>Node1</title>
<g id="a_node1"><a xlink:title=" ">
<polygon fill="#bfbfbf" stroke="black" points="282,-0.5 282,-30.5 492,-30.5 492,-0.5 282,-0.5"/>
<text text-anchor="start" x="290" y="-18.5" font-family="Helvetica,sans-Serif" font-size="10.00">javolution.xml.internal.stream.</text>
<text text-anchor="middle" x="387" y="-7.5" font-family="Helvetica,sans-Serif" font-size="10.00">XMLStreamWriterImpl.writeNamespace</text>
</a>
</g>
</g>
<!-- Node2 -->
<g id="node2" class="node">
<title>Node2</title>
<g id="a_node2"><a xlink:href="../../d4/d15/classjavolution_1_1xml_1_1internal_1_1stream_1_1XMLStreamWriterImpl.html#ab5437d3036d980d6e810a5518fd23c6f" target="_top" xlink:title=" ">
<polygon fill="white" stroke="black" points="0,-0.5 0,-30.5 246,-30.5 246,-0.5 0,-0.5"/>
<text text-anchor="start" x="8" y="-18.5" font-family="Helvetica,sans-Serif" font-size="10.00">javolution.xml.internal.stream.</text>
<text text-anchor="middle" x="123" y="-7.5" font-family="Helvetica,sans-Serif" font-size="10.00">XMLStreamWriterImpl.writeDefaultNamespace</text>
</a>
</g>
</g>
<!-- Node1&#45;&gt;Node2 -->
<g id="edge1" class="edge">
<title>Node1&#45;&gt;Node2</title>
<path fill="none" stroke="midnightblue" d="M271.49,-15.5C263.07,-15.5 254.56,-15.5 246.1,-15.5"/>
<polygon fill="midnightblue" stroke="midnightblue" points="271.7,-19 281.7,-15.5 271.7,-12 271.7,-19"/>
</g>
</g>
</svg>
