<?xml version="1.0" encoding="UTF-8" standalone="no"?>
<!DOCTYPE svg PUBLIC "-//W3C//DTD SVG 1.1//EN"
 "http://www.w3.org/Graphics/SVG/1.1/DTD/svg11.dtd">
<!-- Generated by graphviz version 2.43.0 (0)
 -->
<!-- Title: javolution.xml.internal.stream.XMLStreamWriterImpl.writeEntityRef Pages: 1 -->
<!--zoomable 187 -->
<svg id="main" version="1.1" xmlns="http://www.w3.org/2000/svg" xmlns:xlink="http://www.w3.org/1999/xlink" xml:space="preserve" onload="init(evt)">
<style type="text/css"><![CDATA[
.edge:hover path { stroke: red; }
.edge:hover polygon { stroke: red; fill: red; }
]]></style>
<script type="text/javascript"><![CDATA[
var edges = document.getElementsByTagName('g');
if (edges && edges.length) {
  for (var i=0;i<edges.length;i++) {
    if (edges[i].id.substr(0,4)=='edge') {
      edges[i].setAttribute('class','edge');
    }
  }
}
]]></script>
        <defs>
                <circle id="rim" cx="0" cy="0" r="7"/>
                <circle id="rim2" cx="0" cy="0" r="3.5"/>
                <g id="zoomPlus">
                        <use xlink:href="#rim" fill="#404040">
                                <set attributeName="fill" to="#808080" begin="zoomplus.mouseover" end="zoomplus.mouseout"/>
                        </use>
                        <path d="M-4,0h8M0,-4v8" fill="none" stroke="white" stroke-width="1.5" pointer-events="none"/>
                </g>
                <g id="zoomMin">
                        <use xlink:href="#rim" fill="#404040">
                                <set attributeName="fill" to="#808080" begin="zoomminus.mouseover" end="zoomminus.mouseout"/>
                        </use>
                        <path d="M-4,0h8" fill="none" stroke="white" stroke-width="1.5" pointer-events="none"/>
                </g>
                <g id="dirArrow">
                        <path fill="none" stroke="white" stroke-width="1.5" d="M0,-3.0v7 M-2.5,-0.5L0,-3.0L2.5,-0.5"/>
                </g>
               <g id="resetDef">
                       <use xlink:href="#rim2" fill="#404040">
                               <set attributeName="fill" to="#808080" begin="reset.mouseover" end="reset.mouseout"/>
                       </use>
               </g>
        </defs>

<script type="text/javascript">
var viewWidth = 1115;
var viewHeight = 187;
var sectionId = 'dynsection-57';
</script>
<script xlink:href="../../svgpan.js"/>
<svg id="graph" class="graph">
<g id="viewport">
<title>javolution.xml.internal.stream.XMLStreamWriterImpl.writeEntityRef</title>
<polygon fill="white" stroke="transparent" points="-4,4 -4,-182.5 1111,-182.5 1111,4 -4,4"/>
<!-- Node1 -->
<g id="node1" class="node">
<title>Node1</title>
<g id="a_node1"><a xlink:title=" ">
<polygon fill="#bfbfbf" stroke="black" points="0,-77 0,-107 197,-107 197,-77 0,-77"/>
<text text-anchor="start" x="8" y="-95" font-family="Helvetica,sans-Serif" font-size="10.00">javolution.xml.internal.stream.</text>
<text text-anchor="middle" x="98.5" y="-84" font-family="Helvetica,sans-Serif" font-size="10.00">XMLStreamWriterImpl.writeEntityRef</text>
</a>
</g>
</g>
<!-- Node2 -->
<g id="node2" class="node">
<title>Node2</title>
<g id="a_node2"><a xlink:href="../../d4/d15/classjavolution_1_1xml_1_1internal_1_1stream_1_1XMLStreamWriterImpl.html#a6d805db8f2c051bd5eb34feb49a602a8" target="_top" xlink:title=" ">
<polygon fill="white" stroke="black" points="469,-77 469,-107 637,-107 637,-77 469,-77"/>
<text text-anchor="start" x="477" y="-95" font-family="Helvetica,sans-Serif" font-size="10.00">javolution.xml.internal.stream.</text>
<text text-anchor="middle" x="553" y="-84" font-family="Helvetica,sans-Serif" font-size="10.00">XMLStreamWriterImpl.write</text>
</a>
</g>
</g>
<!-- Node1&#45;&gt;Node2 -->
<g id="edge1" class="edge">
<title>Node1&#45;&gt;Node2</title>
<path fill="none" stroke="midnightblue" d="M197.2,-94.45C209.25,-94.68 221.41,-94.87 233,-95 321.88,-96 344.12,-96.12 433,-95 441.32,-94.9 449.96,-94.75 458.62,-94.58"/>
<polygon fill="midnightblue" stroke="midnightblue" points="458.86,-98.07 468.78,-94.37 458.71,-91.07 458.86,-98.07"/>
</g>
<!-- Node7 -->
<g id="node7" class="node">
<title>Node7</title>
<g id="a_node7"><a xlink:href="../../d4/d15/classjavolution_1_1xml_1_1internal_1_1stream_1_1XMLStreamWriterImpl.html#a2e628fa8b39f7ce952896efb8e5f63b6" target="_top" xlink:title=" ">
<polygon fill="white" stroke="black" points="233,-55 233,-85 433,-85 433,-55 233,-55"/>
<text text-anchor="start" x="241" y="-73" font-family="Helvetica,sans-Serif" font-size="10.00">javolution.xml.internal.stream.</text>
<text text-anchor="middle" x="333" y="-62" font-family="Helvetica,sans-Serif" font-size="10.00">XMLStreamWriterImpl.writeNoEscape</text>
</a>
</g>
</g>
<!-- Node1&#45;&gt;Node7 -->
<g id="edge7" class="edge">
<title>Node1&#45;&gt;Node7</title>
<path fill="none" stroke="midnightblue" d="M197.09,-82.77C205.58,-81.96 214.2,-81.15 222.77,-80.34"/>
<polygon fill="midnightblue" stroke="midnightblue" points="223.17,-83.81 232.79,-79.39 222.51,-76.84 223.17,-83.81"/>
</g>
<!-- Node3 -->
<g id="node3" class="node">
<title>Node3</title>
<g id="a_node3"><a xlink:href="../../d4/d15/classjavolution_1_1xml_1_1internal_1_1stream_1_1XMLStreamWriterImpl.html#ac2145f0f924e9b642dd66dc6d5ee891e" target="_top" xlink:title=" ">
<polygon fill="white" stroke="black" points="694,-148 694,-178 874,-178 874,-148 694,-148"/>
<text text-anchor="start" x="702" y="-166" font-family="Helvetica,sans-Serif" font-size="10.00">javolution.xml.internal.stream.</text>
<text text-anchor="middle" x="784" y="-155" font-family="Helvetica,sans-Serif" font-size="10.00">XMLStreamWriterImpl.flushBuffer</text>
</a>
</g>
</g>
<!-- Node2&#45;&gt;Node3 -->
<g id="edge2" class="edge">
<title>Node2&#45;&gt;Node3</title>
<path fill="none" stroke="midnightblue" d="M587.85,-107.06C611.39,-117.11 643.67,-130.07 673,-139 680.64,-141.33 688.65,-143.52 696.71,-145.57"/>
<polygon fill="midnightblue" stroke="midnightblue" points="696,-149 706.55,-147.99 697.68,-142.2 696,-149"/>
</g>
<!-- Node4 -->
<g id="node4" class="node">
<title>Node4</title>
<g id="a_node4"><a xlink:href="../../d4/d15/classjavolution_1_1xml_1_1internal_1_1stream_1_1XMLStreamWriterImpl.html#a3d00494460e49d0dd3a57e250d4d707c" target="_top" xlink:title=" ">
<polygon fill="white" stroke="black" points="698.5,-99 698.5,-129 869.5,-129 869.5,-99 698.5,-99"/>
<text text-anchor="start" x="706.5" y="-117" font-family="Helvetica,sans-Serif" font-size="10.00">javolution.xml.internal.stream.</text>
<text text-anchor="middle" x="784" y="-106" font-family="Helvetica,sans-Serif" font-size="10.00">XMLStreamWriterImpl.getChars</text>
</a>
</g>
</g>
<!-- Node2&#45;&gt;Node4 -->
<g id="edge3" class="edge">
<title>Node2&#45;&gt;Node4</title>
<path fill="none" stroke="midnightblue" d="M637.32,-100C653.74,-101.58 671.08,-103.25 687.85,-104.86"/>
<polygon fill="midnightblue" stroke="midnightblue" points="687.91,-108.38 698.2,-105.85 688.58,-101.41 687.91,-108.38"/>
</g>
<!-- Node5 -->
<g id="node5" class="node">
<title>Node5</title>
<g id="a_node5"><a xlink:href="../../d4/d15/classjavolution_1_1xml_1_1internal_1_1stream_1_1XMLStreamWriterImpl.html#ac48b39590b21a285753d9ecc463d95c1" target="_top" xlink:title=" ">
<polygon fill="white" stroke="black" points="931,-30 931,-60 1107,-60 1107,-30 931,-30"/>
<text text-anchor="start" x="939" y="-48" font-family="Helvetica,sans-Serif" font-size="10.00">javolution.xml.internal.stream.</text>
<text text-anchor="middle" x="1019" y="-37" font-family="Helvetica,sans-Serif" font-size="10.00">XMLStreamWriterImpl.isEscaped</text>
</a>
</g>
</g>
<!-- Node2&#45;&gt;Node5 -->
<g id="edge4" class="edge">
<title>Node2&#45;&gt;Node5</title>
<path fill="none" stroke="midnightblue" d="M637.22,-83.57C716.79,-75.51 836.74,-63.36 920.69,-54.86"/>
<polygon fill="midnightblue" stroke="midnightblue" points="921.15,-58.33 930.75,-53.84 920.44,-51.36 921.15,-58.33"/>
</g>
<!-- Node6 -->
<g id="node6" class="node">
<title>Node6</title>
<g id="a_node6"><a xlink:href="../../d4/d15/classjavolution_1_1xml_1_1internal_1_1stream_1_1XMLStreamWriterImpl.html#a79ed753f8bf18f2eeaf7d7e8f93d60f1" target="_top" xlink:title=" ">
<polygon fill="white" stroke="black" points="673,-0.5 673,-41.5 895,-41.5 895,-0.5 673,-0.5"/>
<text text-anchor="start" x="681" y="-29.5" font-family="Helvetica,sans-Serif" font-size="10.00">javolution.xml.internal.stream.</text>
<text text-anchor="start" x="681" y="-18.5" font-family="Helvetica,sans-Serif" font-size="10.00">XMLStreamWriterImpl.writeDirectEscaped</text>
<text text-anchor="middle" x="784" y="-7.5" font-family="Helvetica,sans-Serif" font-size="10.00">Characters</text>
</a>
</g>
</g>
<!-- Node2&#45;&gt;Node6 -->
<g id="edge5" class="edge">
<title>Node2&#45;&gt;Node6</title>
<path fill="none" stroke="midnightblue" d="M602.57,-76.94C632.93,-67.53 672.67,-55.21 707.13,-44.52"/>
<polygon fill="midnightblue" stroke="midnightblue" points="708.18,-47.86 716.7,-41.56 706.11,-41.18 708.18,-47.86"/>
</g>
<!-- Node6&#45;&gt;Node5 -->
<g id="edge6" class="edge">
<title>Node6&#45;&gt;Node5</title>
<path fill="none" stroke="midnightblue" d="M895.02,-32.33C903.66,-33.22 912.34,-34.12 920.89,-35"/>
<polygon fill="midnightblue" stroke="midnightblue" points="920.53,-38.48 930.84,-36.02 921.25,-31.52 920.53,-38.48"/>
</g>
<!-- Node7&#45;&gt;Node2 -->
<g id="edge8" class="edge">
<title>Node7&#45;&gt;Node2</title>
<path fill="none" stroke="midnightblue" d="M433.11,-80C441.59,-80.86 450.15,-81.72 458.58,-82.57"/>
<polygon fill="midnightblue" stroke="midnightblue" points="458.48,-86.08 468.78,-83.6 459.18,-79.12 458.48,-86.08"/>
</g>
</g>
</svg>
        <g id="navigator" transform="translate(0 0)" fill="#404254">
                <rect fill="#f2f5e9" fill-opacity="0.5" stroke="#606060" stroke-width=".5" x="0" y="0" width="60" height="60"/>
                <use id="zoomplus" xlink:href="#zoomPlus" x="17" y="9" onmousedown="handleZoom(evt,'in')"/>
                <use id="zoomminus" xlink:href="#zoomMin" x="42" y="9" onmousedown="handleZoom(evt,'out')"/>
                <use id="reset" xlink:href="#resetDef" x="30" y="36" onmousedown="handleReset()"/>
                <g id="arrowUp" xlink:href="#dirArrow" transform="translate(30 24)" onmousedown="handlePan(0,-1)">
                  <use xlink:href="#rim" fill="#404040">
                        <set attributeName="fill" to="#808080" begin="arrowUp.mouseover" end="arrowUp.mouseout"/>
                  </use>
                  <path fill="none" stroke="white" stroke-width="1.5" d="M0,-3.0v7 M-2.5,-0.5L0,-3.0L2.5,-0.5"/>
                </g>
                <g id="arrowRight" xlink:href="#dirArrow" transform="rotate(90) translate(36 -43)" onmousedown="handlePan(1,0)">
                  <use xlink:href="#rim" fill="#404040">
                        <set attributeName="fill" to="#808080" begin="arrowRight.mouseover" end="arrowRight.mouseout"/>
                  </use>
                  <path fill="none" stroke="white" stroke-width="1.5" d="M0,-3.0v7 M-2.5,-0.5L0,-3.0L2.5,-0.5"/>
                </g>
                <g id="arrowDown" xlink:href="#dirArrow" transform="rotate(180) translate(-30 -48)" onmousedown="handlePan(0,1)">
                  <use xlink:href="#rim" fill="#404040">
                        <set attributeName="fill" to="#808080" begin="arrowDown.mouseover" end="arrowDown.mouseout"/>
                  </use>
                  <path fill="none" stroke="white" stroke-width="1.5" d="M0,-3.0v7 M-2.5,-0.5L0,-3.0L2.5,-0.5"/>
                </g>
                <g id="arrowLeft" xlink:href="#dirArrow" transform="rotate(270) translate(-36 17)" onmousedown="handlePan(-1,0)">
                  <use xlink:href="#rim" fill="#404040">
                        <set attributeName="fill" to="#808080" begin="arrowLeft.mouseover" end="arrowLeft.mouseout"/>
                  </use>
                  <path fill="none" stroke="white" stroke-width="1.5" d="M0,-3.0v7 M-2.5,-0.5L0,-3.0L2.5,-0.5"/>
                </g>
        </g>
        <svg viewBox="0 0 15 15" width="100%" height="30px" preserveAspectRatio="xMaxYMin meet">
         <g id="arrow_out" transform="scale(0.3 0.3)">
          <a xlink:href="classjavolution_1_1xml_1_1internal_1_1stream_1_1XMLStreamWriterImpl_a5e98f5c970cf2b70eb54093ed84321c2_cgraph_org.svg" target="_base">
           <rect id="button" ry="5" rx="5" y="6" x="6" height="38" width="38"
                fill="#f2f5e9" fill-opacity="0.5" stroke="#606060" stroke-width="1.0"/>
           <path id="arrow"
             d="M 11.500037,31.436501 C 11.940474,20.09759 22.043105,11.32322 32.158766,21.979434 L 37.068811,17.246167 C 37.068811,17.246167 37.088388,32 37.088388,32 L 22.160133,31.978069 C 22.160133,31.978069 26.997745,27.140456 26.997745,27.140456 C 18.528582,18.264221 13.291696,25.230495 11.500037,31.436501 z"
             style="fill:#404040;"/>
          </a>
         </g>
        </svg>
</svg>
