<?xml version="1.0" encoding="UTF-8" standalone="no"?>
<!DOCTYPE svg PUBLIC "-//W3C//DTD SVG 1.1//EN"
 "http://www.w3.org/Graphics/SVG/1.1/DTD/svg11.dtd">
<!-- Generated by graphviz version 2.43.0 (0)
 -->
<!-- Title: javolution.xml.internal.stream.XMLStreamWriterImpl.getRepairedPrefix Pages: 1 -->
<!--zoomable 230 -->
<svg id="main" version="1.1" xmlns="http://www.w3.org/2000/svg" xmlns:xlink="http://www.w3.org/1999/xlink" xml:space="preserve" onload="init(evt)">
<style type="text/css"><![CDATA[
.edge:hover path { stroke: red; }
.edge:hover polygon { stroke: red; fill: red; }
]]></style>
<script type="text/javascript"><![CDATA[
var edges = document.getElementsByTagName('g');
if (edges && edges.length) {
  for (var i=0;i<edges.length;i++) {
    if (edges[i].id.substr(0,4)=='edge') {
      edges[i].setAttribute('class','edge');
    }
  }
}
]]></script>
        <defs>
                <circle id="rim" cx="0" cy="0" r="7"/>
                <circle id="rim2" cx="0" cy="0" r="3.5"/>
                <g id="zoomPlus">
                        <use xlink:href="#rim" fill="#404040">
                                <set attributeName="fill" to="#808080" begin="zoomplus.mouseover" end="zoomplus.mouseout"/>
                        </use>
                        <path d="M-4,0h8M0,-4v8" fill="none" stroke="white" stroke-width="1.5" pointer-events="none"/>
                </g>
                <g id="zoomMin">
                        <use xlink:href="#rim" fill="#404040">
                                <set attributeName="fill" to="#808080" begin="zoomminus.mouseover" end="zoomminus.mouseout"/>
                        </use>
                        <path d="M-4,0h8" fill="none" stroke="white" stroke-width="1.5" pointer-events="none"/>
                </g>
                <g id="dirArrow">
                        <path fill="none" stroke="white" stroke-width="1.5" d="M0,-3.0v7 M-2.5,-0.5L0,-3.0L2.5,-0.5"/>
                </g>
               <g id="resetDef">
                       <use xlink:href="#rim2" fill="#404040">
                               <set attributeName="fill" to="#808080" begin="reset.mouseover" end="reset.mouseout"/>
                       </use>
               </g>
        </defs>

<script type="text/javascript">
var viewWidth = 876;
var viewHeight = 230;
var sectionId = 'dynsection-12';
</script>
<script xlink:href="../../svgpan.js"/>
<svg id="graph" class="graph">
<g id="viewport">
<title>javolution.xml.internal.stream.XMLStreamWriterImpl.getRepairedPrefix</title>
<polygon fill="white" stroke="transparent" points="-4,4 -4,-226 872,-226 872,4 -4,4"/>
<!-- Node1 -->
<g id="node1" class="node">
<title>Node1</title>
<g id="a_node1"><a xlink:title=" ">
<polygon fill="#bfbfbf" stroke="black" points="0,-115.5 0,-145.5 215,-145.5 215,-115.5 0,-115.5"/>
<text text-anchor="start" x="8" y="-133.5" font-family="Helvetica,sans-Serif" font-size="10.00">javolution.xml.internal.stream.</text>
<text text-anchor="middle" x="107.5" y="-122.5" font-family="Helvetica,sans-Serif" font-size="10.00">XMLStreamWriterImpl.getRepairedPrefix</text>
</a>
</g>
</g>
<!-- Node2 -->
<g id="node2" class="node">
<title>Node2</title>
<g id="a_node2"><a xlink:href="../../d2/d7a/classjavolution_1_1text_1_1TextBuilder.html#a5b6d5e22b7b33b3188569bbaf6112c95" target="_top" xlink:title=" ">
<polygon fill="white" stroke="black" points="251,-197 251,-216 435,-216 435,-197 251,-197"/>
<text text-anchor="middle" x="343" y="-204" font-family="Helvetica,sans-Serif" font-size="10.00">javolution.text.TextBuilder.append</text>
</a>
</g>
</g>
<!-- Node1&#45;&gt;Node2 -->
<g id="edge1" class="edge">
<title>Node1&#45;&gt;Node2</title>
<path fill="none" stroke="midnightblue" d="M141.31,-145.53C169.83,-158.13 212.48,-175.87 251,-187.5 259.85,-190.17 269.3,-192.6 278.63,-194.76"/>
<polygon fill="midnightblue" stroke="midnightblue" points="278.15,-198.24 288.68,-196.99 279.67,-191.4 278.15,-198.24"/>
</g>
<!-- Node4 -->
<g id="node4" class="node">
<title>Node4</title>
<g id="a_node4"><a xlink:href="../../d2/d7a/classjavolution_1_1text_1_1TextBuilder.html#ac6109dc1dfca2e6b48450ae94a8cf59e" target="_top" xlink:title=" ">
<polygon fill="white" stroke="black" points="257,-159 257,-178 429,-178 429,-159 257,-159"/>
<text text-anchor="middle" x="343" y="-166" font-family="Helvetica,sans-Serif" font-size="10.00">javolution.text.TextBuilder.clear</text>
</a>
</g>
</g>
<!-- Node1&#45;&gt;Node4 -->
<g id="edge3" class="edge">
<title>Node1&#45;&gt;Node4</title>
<path fill="none" stroke="midnightblue" d="M200.79,-145.52C225.1,-149.48 250.9,-153.68 273.71,-157.39"/>
<polygon fill="midnightblue" stroke="midnightblue" points="273.19,-160.85 283.62,-159 274.31,-153.94 273.19,-160.85"/>
</g>
<!-- Node5 -->
<g id="node5" class="node">
<title>Node5</title>
<g id="a_node5"><a xlink:href="../../d0/d36/classjavolution_1_1text_1_1CharArray.html#a63cd0fbe95d0342063ea7091dce0fa9c" target="_top" xlink:title=" ">
<polygon fill="white" stroke="black" points="479,-105 479,-124 652,-124 652,-105 479,-105"/>
<text text-anchor="middle" x="565.5" y="-112" font-family="Helvetica,sans-Serif" font-size="10.00">javolution.text.CharArray.equals</text>
</a>
</g>
</g>
<!-- Node1&#45;&gt;Node5 -->
<g id="edge4" class="edge">
<title>Node1&#45;&gt;Node5</title>
<path fill="none" stroke="midnightblue" d="M215.12,-126.76C291.8,-124.07 394.32,-120.47 468.45,-117.87"/>
<polygon fill="midnightblue" stroke="midnightblue" points="468.85,-121.36 478.72,-117.51 468.6,-114.36 468.85,-121.36"/>
</g>
<!-- Node6 -->
<g id="node6" class="node">
<title>Node6</title>
<g id="a_node6"><a xlink:href="../../dc/daa/classjavolution_1_1xml_1_1internal_1_1stream_1_1NamespacesImpl.html#a5a2f11c30da4ca635225ed1c0c5f2668" target="_top" xlink:title=" ">
<polygon fill="white" stroke="black" points="259,-71.5 259,-101.5 427,-101.5 427,-71.5 259,-71.5"/>
<text text-anchor="start" x="267" y="-89.5" font-family="Helvetica,sans-Serif" font-size="10.00">javolution.xml.internal.stream.</text>
<text text-anchor="middle" x="343" y="-78.5" font-family="Helvetica,sans-Serif" font-size="10.00">NamespacesImpl.getPrefix</text>
</a>
</g>
</g>
<!-- Node1&#45;&gt;Node6 -->
<g id="edge5" class="edge">
<title>Node1&#45;&gt;Node6</title>
<path fill="none" stroke="midnightblue" d="M188.2,-115.48C208.85,-111.59 231.22,-107.38 252.33,-103.4"/>
<polygon fill="midnightblue" stroke="midnightblue" points="253.08,-106.82 262.26,-101.53 251.78,-99.94 253.08,-106.82"/>
</g>
<!-- Node7 -->
<g id="node7" class="node">
<title>Node7</title>
<g id="a_node7"><a xlink:href="../../dc/daa/classjavolution_1_1xml_1_1internal_1_1stream_1_1NamespacesImpl.html#af0e399ec7eca3a967c953ca0901565d3" target="_top" xlink:title=" ">
<polygon fill="white" stroke="black" points="259,-22.5 259,-52.5 427,-52.5 427,-22.5 259,-22.5"/>
<text text-anchor="start" x="267" y="-40.5" font-family="Helvetica,sans-Serif" font-size="10.00">javolution.xml.internal.stream.</text>
<text text-anchor="middle" x="343" y="-29.5" font-family="Helvetica,sans-Serif" font-size="10.00">NamespacesImpl.setPrefix</text>
</a>
</g>
</g>
<!-- Node1&#45;&gt;Node7 -->
<g id="edge7" class="edge">
<title>Node1&#45;&gt;Node7</title>
<path fill="none" stroke="midnightblue" d="M136.25,-115.44C164.51,-100.55 209.9,-77.81 251,-62.5 257.65,-60.02 264.65,-57.67 271.7,-55.46"/>
<polygon fill="midnightblue" stroke="midnightblue" points="272.75,-58.8 281.31,-52.56 270.73,-52.1 272.75,-58.8"/>
</g>
<!-- Node3 -->
<g id="node3" class="node">
<title>Node3</title>
<g id="a_node3"><a xlink:href="../../d2/d7a/classjavolution_1_1text_1_1TextBuilder.html#a6d79c3b6adfe6c04f80f940904d181b4" target="_top" xlink:title=" ">
<polygon fill="white" stroke="black" points="471,-191.5 471,-221.5 660,-221.5 660,-191.5 471,-191.5"/>
<text text-anchor="start" x="479" y="-209.5" font-family="Helvetica,sans-Serif" font-size="10.00">javolution.text.TextBuilder.increase</text>
<text text-anchor="middle" x="565.5" y="-198.5" font-family="Helvetica,sans-Serif" font-size="10.00">Capacity</text>
</a>
</g>
</g>
<!-- Node2&#45;&gt;Node3 -->
<g id="edge2" class="edge">
<title>Node2&#45;&gt;Node3</title>
<path fill="none" stroke="midnightblue" d="M435.28,-206.5C443.62,-206.5 452.1,-206.5 460.54,-206.5"/>
<polygon fill="midnightblue" stroke="midnightblue" points="460.8,-210 470.8,-206.5 460.8,-203 460.8,-210"/>
</g>
<!-- Node6&#45;&gt;Node5 -->
<g id="edge6" class="edge">
<title>Node6&#45;&gt;Node5</title>
<path fill="none" stroke="midnightblue" d="M427.05,-97.05C444.19,-99.22 462.27,-101.52 479.49,-103.7"/>
<polygon fill="midnightblue" stroke="midnightblue" points="479.15,-107.19 489.51,-104.98 480.03,-100.25 479.15,-107.19"/>
</g>
<!-- Node8 -->
<g id="node8" class="node">
<title>Node8</title>
<g id="a_node8"><a xlink:href="../../d0/d36/classjavolution_1_1text_1_1CharArray.html#a1206e2076e25f1e66e1458328aa22baa" target="_top" xlink:title=" ">
<polygon fill="white" stroke="black" points="696,-28 696,-47 868,-47 868,-28 696,-28"/>
<text text-anchor="middle" x="782" y="-35" font-family="Helvetica,sans-Serif" font-size="10.00">javolution.text.CharArray.length</text>
</a>
</g>
</g>
<!-- Node7&#45;&gt;Node8 -->
<g id="edge8" class="edge">
<title>Node7&#45;&gt;Node8</title>
<path fill="none" stroke="midnightblue" d="M427,-39C441.66,-39.21 456.78,-39.39 471,-39.5 555,-40.16 576,-40.19 660,-39.5 668.31,-39.43 676.93,-39.34 685.58,-39.22"/>
<polygon fill="midnightblue" stroke="midnightblue" points="685.77,-42.72 695.73,-39.09 685.68,-35.72 685.77,-42.72"/>
</g>
<!-- Node9 -->
<g id="node9" class="node">
<title>Node9</title>
<g id="a_node9"><a xlink:href="../../dc/daa/classjavolution_1_1xml_1_1internal_1_1stream_1_1NamespacesImpl.html#ad1e699fb6fe13f5d6a355f8a8eff25e8" target="_top" xlink:title=" ">
<polygon fill="white" stroke="black" points="471.5,-0.5 471.5,-30.5 659.5,-30.5 659.5,-0.5 471.5,-0.5"/>
<text text-anchor="start" x="479.5" y="-18.5" font-family="Helvetica,sans-Serif" font-size="10.00">javolution.xml.internal.stream.</text>
<text text-anchor="middle" x="565.5" y="-7.5" font-family="Helvetica,sans-Serif" font-size="10.00">NamespacesImpl.resizePrefixStack</text>
</a>
</g>
</g>
<!-- Node7&#45;&gt;Node9 -->
<g id="edge9" class="edge">
<title>Node7&#45;&gt;Node9</title>
<path fill="none" stroke="midnightblue" d="M427.05,-29.21C438.19,-28.1 449.73,-26.95 461.16,-25.81"/>
<polygon fill="midnightblue" stroke="midnightblue" points="461.57,-29.29 471.18,-24.81 460.88,-22.32 461.57,-29.29"/>
</g>
<!-- Node9&#45;&gt;Node8 -->
<g id="edge10" class="edge">
<title>Node9&#45;&gt;Node8</title>
<path fill="none" stroke="midnightblue" d="M659.65,-25.05C668.26,-25.94 677,-26.83 685.63,-27.72"/>
<polygon fill="midnightblue" stroke="midnightblue" points="685.4,-31.21 695.71,-28.75 686.11,-24.25 685.4,-31.21"/>
</g>
</g>
</svg>
        <g id="navigator" transform="translate(0 0)" fill="#404254">
                <rect fill="#f2f5e9" fill-opacity="0.5" stroke="#606060" stroke-width=".5" x="0" y="0" width="60" height="60"/>
                <use id="zoomplus" xlink:href="#zoomPlus" x="17" y="9" onmousedown="handleZoom(evt,'in')"/>
                <use id="zoomminus" xlink:href="#zoomMin" x="42" y="9" onmousedown="handleZoom(evt,'out')"/>
                <use id="reset" xlink:href="#resetDef" x="30" y="36" onmousedown="handleReset()"/>
                <g id="arrowUp" xlink:href="#dirArrow" transform="translate(30 24)" onmousedown="handlePan(0,-1)">
                  <use xlink:href="#rim" fill="#404040">
                        <set attributeName="fill" to="#808080" begin="arrowUp.mouseover" end="arrowUp.mouseout"/>
                  </use>
                  <path fill="none" stroke="white" stroke-width="1.5" d="M0,-3.0v7 M-2.5,-0.5L0,-3.0L2.5,-0.5"/>
                </g>
                <g id="arrowRight" xlink:href="#dirArrow" transform="rotate(90) translate(36 -43)" onmousedown="handlePan(1,0)">
                  <use xlink:href="#rim" fill="#404040">
                        <set attributeName="fill" to="#808080" begin="arrowRight.mouseover" end="arrowRight.mouseout"/>
                  </use>
                  <path fill="none" stroke="white" stroke-width="1.5" d="M0,-3.0v7 M-2.5,-0.5L0,-3.0L2.5,-0.5"/>
                </g>
                <g id="arrowDown" xlink:href="#dirArrow" transform="rotate(180) translate(-30 -48)" onmousedown="handlePan(0,1)">
                  <use xlink:href="#rim" fill="#404040">
                        <set attributeName="fill" to="#808080" begin="arrowDown.mouseover" end="arrowDown.mouseout"/>
                  </use>
                  <path fill="none" stroke="white" stroke-width="1.5" d="M0,-3.0v7 M-2.5,-0.5L0,-3.0L2.5,-0.5"/>
                </g>
                <g id="arrowLeft" xlink:href="#dirArrow" transform="rotate(270) translate(-36 17)" onmousedown="handlePan(-1,0)">
                  <use xlink:href="#rim" fill="#404040">
                        <set attributeName="fill" to="#808080" begin="arrowLeft.mouseover" end="arrowLeft.mouseout"/>
                  </use>
                  <path fill="none" stroke="white" stroke-width="1.5" d="M0,-3.0v7 M-2.5,-0.5L0,-3.0L2.5,-0.5"/>
                </g>
        </g>
        <svg viewBox="0 0 15 15" width="100%" height="30px" preserveAspectRatio="xMaxYMin meet">
         <g id="arrow_out" transform="scale(0.3 0.3)">
          <a xlink:href="classjavolution_1_1xml_1_1internal_1_1stream_1_1XMLStreamWriterImpl_af5e4a42b57208973be8a1136cc607d09_cgraph_org.svg" target="_base">
           <rect id="button" ry="5" rx="5" y="6" x="6" height="38" width="38"
                fill="#f2f5e9" fill-opacity="0.5" stroke="#606060" stroke-width="1.0"/>
           <path id="arrow"
             d="M 11.500037,31.436501 C 11.940474,20.09759 22.043105,11.32322 32.158766,21.979434 L 37.068811,17.246167 C 37.068811,17.246167 37.088388,32 37.088388,32 L 22.160133,31.978069 C 22.160133,31.978069 26.997745,27.140456 26.997745,27.140456 C 18.528582,18.264221 13.291696,25.230495 11.500037,31.436501 z"
             style="fill:#404040;"/>
          </a>
         </g>
        </svg>
</svg>
