<?xml version="1.0" encoding="UTF-8" standalone="no"?>
<!DOCTYPE svg PUBLIC "-//W3C//DTD SVG 1.1//EN"
 "http://www.w3.org/Graphics/SVG/1.1/DTD/svg11.dtd">
<!-- Generated by graphviz version 2.43.0 (0)
 -->
<!-- Title: javolution.xml.internal.stream.XMLStreamWriterImpl.writeDirectEscapedCharacters Pages: 1 -->
<svg width="2367pt" height="663pt"
 viewBox="0.00 0.00 2367.00 662.72" xmlns="http://www.w3.org/2000/svg" xmlns:xlink="http://www.w3.org/1999/xlink">
<g id="graph0" class="graph" transform="scale(1 1) rotate(0) translate(4 658.72)">
<title>javolution.xml.internal.stream.XMLStreamWriterImpl.writeDirectEscapedCharacters</title>
<polygon fill="white" stroke="transparent" points="-4,4 -4,-658.72 2363,-658.72 2363,4 -4,4"/>
<!-- Node1 -->
<g id="node1" class="node">
<title>Node1</title>
<g id="a_node1"><a xlink:title=" ">
<polygon fill="#bfbfbf" stroke="black" points="2137,-259.72 2137,-300.72 2359,-300.72 2359,-259.72 2137,-259.72"/>
<text text-anchor="start" x="2145" y="-288.72" font-family="Helvetica,sans-Serif" font-size="10.00">javolution.xml.internal.stream.</text>
<text text-anchor="start" x="2145" y="-277.72" font-family="Helvetica,sans-Serif" font-size="10.00">XMLStreamWriterImpl.writeDirectEscaped</text>
<text text-anchor="middle" x="2248" y="-266.72" font-family="Helvetica,sans-Serif" font-size="10.00">Characters</text>
</a>
</g>
</g>
<!-- Node2 -->
<g id="node2" class="node">
<title>Node2</title>
<g id="a_node2"><a xlink:href="../../d4/d15/classjavolution_1_1xml_1_1internal_1_1stream_1_1XMLStreamWriterImpl.html#a6d805db8f2c051bd5eb34feb49a602a8" target="_top" xlink:title=" ">
<polygon fill="white" stroke="black" points="1933,-265.22 1933,-295.22 2101,-295.22 2101,-265.22 1933,-265.22"/>
<text text-anchor="start" x="1941" y="-283.22" font-family="Helvetica,sans-Serif" font-size="10.00">javolution.xml.internal.stream.</text>
<text text-anchor="middle" x="2017" y="-272.22" font-family="Helvetica,sans-Serif" font-size="10.00">XMLStreamWriterImpl.write</text>
</a>
</g>
</g>
<!-- Node1&#45;&gt;Node2 -->
<g id="edge1" class="edge">
<title>Node1&#45;&gt;Node2</title>
<path fill="none" stroke="midnightblue" d="M2126.71,-280.22C2118.06,-280.22 2109.46,-280.22 2101.11,-280.22"/>
<polygon fill="midnightblue" stroke="midnightblue" points="2126.86,-283.72 2136.86,-280.22 2126.86,-276.72 2126.86,-283.72"/>
</g>
<!-- Node3 -->
<g id="node3" class="node">
<title>Node3</title>
<g id="a_node3"><a xlink:href="../../d4/d15/classjavolution_1_1xml_1_1internal_1_1stream_1_1XMLStreamWriterImpl.html#a15e88dc4238fd15a3ffdc030975c02cd" target="_top" xlink:title=" ">
<polygon fill="white" stroke="black" points="953,-369.22 953,-399.22 1148,-399.22 1148,-369.22 953,-369.22"/>
<text text-anchor="start" x="961" y="-387.22" font-family="Helvetica,sans-Serif" font-size="10.00">javolution.xml.internal.stream.</text>
<text text-anchor="middle" x="1050.5" y="-376.22" font-family="Helvetica,sans-Serif" font-size="10.00">XMLStreamWriterImpl.closeOpenTag</text>
</a>
</g>
</g>
<!-- Node2&#45;&gt;Node3 -->
<g id="edge2" class="edge">
<title>Node2&#45;&gt;Node3</title>
<path fill="none" stroke="midnightblue" d="M1968.65,-298.94C1901.42,-324.64 1773.9,-370.18 1661,-392.22 1452.73,-432.88 1394.98,-436.04 1184,-413.22 1158.6,-410.47 1130.93,-404.84 1107.47,-399.27"/>
<polygon fill="midnightblue" stroke="midnightblue" points="1970.05,-302.15 1978.13,-295.3 1967.54,-295.62 1970.05,-302.15"/>
</g>
<!-- Node11 -->
<g id="node11" class="node">
<title>Node11</title>
<g id="a_node11"><a xlink:href="../../d4/d15/classjavolution_1_1xml_1_1internal_1_1stream_1_1XMLStreamWriterImpl.html#a50637e984a54b1d3c98caaf5fe7adae5" target="_top" xlink:title=" ">
<polygon fill="white" stroke="black" points="704,-210.22 704,-240.22 915,-240.22 915,-210.22 704,-210.22"/>
<text text-anchor="start" x="712" y="-228.22" font-family="Helvetica,sans-Serif" font-size="10.00">javolution.xml.internal.stream.</text>
<text text-anchor="middle" x="809.5" y="-217.22" font-family="Helvetica,sans-Serif" font-size="10.00">XMLStreamWriterImpl.writeEndElement</text>
</a>
</g>
</g>
<!-- Node2&#45;&gt;Node11 -->
<g id="edge25" class="edge">
<title>Node2&#45;&gt;Node11</title>
<path fill="none" stroke="midnightblue" d="M2006.56,-255.83C1990.36,-217.5 1953.47,-143.76 1897,-107.22 1807.49,-49.31 1767.18,-73.81 1661,-64.22 1560.96,-55.18 1534.65,-51.58 1435,-64.22 1211.46,-92.57 953.44,-175.85 853.3,-210.17"/>
<polygon fill="midnightblue" stroke="midnightblue" points="2003.37,-257.28 2010.4,-265.21 2009.84,-254.63 2003.37,-257.28"/>
</g>
<!-- Node14 -->
<g id="node14" class="node">
<title>Node14</title>
<g id="a_node14"><a xlink:href="../../d4/d15/classjavolution_1_1xml_1_1internal_1_1stream_1_1XMLStreamWriterImpl.html#a769e125d8d20ad3a91b29195cce848b8" target="_top" xlink:title=" ">
<polygon fill="white" stroke="black" points="702,-129.22 702,-159.22 917,-159.22 917,-129.22 702,-129.22"/>
<text text-anchor="start" x="710" y="-147.22" font-family="Helvetica,sans-Serif" font-size="10.00">javolution.xml.internal.stream.</text>
<text text-anchor="middle" x="809.5" y="-136.22" font-family="Helvetica,sans-Serif" font-size="10.00">XMLStreamWriterImpl.writeNewElement</text>
</a>
</g>
</g>
<!-- Node2&#45;&gt;Node14 -->
<g id="edge30" class="edge">
<title>Node2&#45;&gt;Node14</title>
<path fill="none" stroke="midnightblue" d="M2010.05,-255.26C1997.66,-209.1 1964.42,-110.78 1897,-63.22 1768.99,27.08 1705.66,-7.22 1549,-7.22 1549,-7.22 1549,-7.22 1290.5,-7.22 1114.36,-7.22 915.34,-93.58 840.81,-129.17"/>
<polygon fill="midnightblue" stroke="midnightblue" points="2006.69,-256.24 2012.58,-265.05 2013.47,-254.49 2006.69,-256.24"/>
</g>
<!-- Node18 -->
<g id="node18" class="node">
<title>Node18</title>
<g id="a_node18"><a xlink:href="../../d4/d15/classjavolution_1_1xml_1_1internal_1_1stream_1_1XMLStreamWriterImpl.html#a9861d38c69526f8ed569ceb73cdb44ad" target="_top" xlink:title=" ">
<polygon fill="white" stroke="black" points="707,-412.72 707,-453.72 912,-453.72 912,-412.72 707,-412.72"/>
<text text-anchor="start" x="715" y="-441.72" font-family="Helvetica,sans-Serif" font-size="10.00">javolution.xml.internal.stream.</text>
<text text-anchor="start" x="715" y="-430.72" font-family="Helvetica,sans-Serif" font-size="10.00">XMLStreamWriterImpl.writeProcessing</text>
<text text-anchor="middle" x="809.5" y="-419.72" font-family="Helvetica,sans-Serif" font-size="10.00">Instruction</text>
</a>
</g>
</g>
<!-- Node2&#45;&gt;Node18 -->
<g id="edge42" class="edge">
<title>Node2&#45;&gt;Node18</title>
<path fill="none" stroke="midnightblue" d="M2011.12,-305.32C2000.2,-354.13 1968.88,-461.52 1897,-512.22 1714.55,-640.91 1621.78,-563.52 1399,-578.22 1300.1,-584.74 1043.79,-617.97 953,-578.22 931.39,-568.76 933.36,-556.21 917,-539.22 888.05,-509.16 853.68,-475.27 831.98,-454.08"/>
<polygon fill="midnightblue" stroke="midnightblue" points="2014.59,-305.8 2013.26,-295.29 2007.75,-304.34 2014.59,-305.8"/>
</g>
<!-- Node19 -->
<g id="node19" class="node">
<title>Node19</title>
<g id="a_node19"><a xlink:href="../../d4/d15/classjavolution_1_1xml_1_1internal_1_1stream_1_1XMLStreamWriterImpl.html#a67df1c83cc5a3ea172419ca10d1b2ca2" target="_top" xlink:title=" ">
<polygon fill="white" stroke="black" points="1450.5,-488.72 1450.5,-529.72 1645.5,-529.72 1645.5,-488.72 1450.5,-488.72"/>
<text text-anchor="start" x="1458.5" y="-517.72" font-family="Helvetica,sans-Serif" font-size="10.00">javolution.xml.internal.stream.</text>
<text text-anchor="start" x="1458.5" y="-506.72" font-family="Helvetica,sans-Serif" font-size="10.00">XMLStreamWriterImpl.writeAttribute</text>
<text text-anchor="middle" x="1548" y="-495.72" font-family="Helvetica,sans-Serif" font-size="10.00">OrNamespace</text>
</a>
</g>
</g>
<!-- Node2&#45;&gt;Node19 -->
<g id="edge20" class="edge">
<title>Node2&#45;&gt;Node19</title>
<path fill="none" stroke="midnightblue" d="M2008.79,-305.03C1994.94,-347.77 1960.23,-434.54 1897,-474.22 1822.16,-521.18 1719.98,-526.07 1645.71,-521.53"/>
<polygon fill="midnightblue" stroke="midnightblue" points="2012.16,-305.99 2011.8,-295.4 2005.48,-303.9 2012.16,-305.99"/>
</g>
<!-- Node23 -->
<g id="node23" class="node">
<title>Node23</title>
<g id="a_node23"><a xlink:href="../../d4/d15/classjavolution_1_1xml_1_1internal_1_1stream_1_1XMLStreamWriterImpl.html#a5e98f5c970cf2b70eb54093ed84321c2" target="_top" xlink:title=" ">
<polygon fill="white" stroke="black" points="1449.5,-123.22 1449.5,-153.22 1646.5,-153.22 1646.5,-123.22 1449.5,-123.22"/>
<text text-anchor="start" x="1457.5" y="-141.22" font-family="Helvetica,sans-Serif" font-size="10.00">javolution.xml.internal.stream.</text>
<text text-anchor="middle" x="1548" y="-130.22" font-family="Helvetica,sans-Serif" font-size="10.00">XMLStreamWriterImpl.writeEntityRef</text>
</a>
</g>
</g>
<!-- Node2&#45;&gt;Node23 -->
<g id="edge26" class="edge">
<title>Node2&#45;&gt;Node23</title>
<path fill="none" stroke="midnightblue" d="M1960.65,-261.93C1891,-239.1 1767.59,-199.29 1661,-168.22 1643.51,-163.12 1624.39,-157.88 1606.98,-153.23"/>
<polygon fill="midnightblue" stroke="midnightblue" points="1959.93,-265.38 1970.52,-265.17 1962.11,-258.72 1959.93,-265.38"/>
</g>
<!-- Node24 -->
<g id="node24" class="node">
<title>Node24</title>
<g id="a_node24"><a xlink:href="../../d4/d15/classjavolution_1_1xml_1_1internal_1_1stream_1_1XMLStreamWriterImpl.html#ae9c868796ceee6d3d83d4937c18e9159" target="_top" xlink:title=" ">
<polygon fill="white" stroke="black" points="1703.5,-624.22 1703.5,-654.22 1890.5,-654.22 1890.5,-624.22 1703.5,-624.22"/>
<text text-anchor="start" x="1711.5" y="-642.22" font-family="Helvetica,sans-Serif" font-size="10.00">javolution.xml.internal.stream.</text>
<text text-anchor="middle" x="1797" y="-631.22" font-family="Helvetica,sans-Serif" font-size="10.00">XMLStreamWriterImpl.writeEscape</text>
</a>
</g>
</g>
<!-- Node2&#45;&gt;Node24 -->
<g id="edge27" class="edge">
<title>Node2&#45;&gt;Node24</title>
<path fill="none" stroke="midnightblue" d="M2014.3,-305.89C2008.84,-367.41 1986.4,-524.42 1897,-609.22 1890.48,-615.4 1882.74,-620.31 1874.49,-624.21"/>
<polygon fill="midnightblue" stroke="midnightblue" points="2017.82,-305.8 2015.14,-295.55 2010.84,-305.24 2017.82,-305.8"/>
</g>
<!-- Node25 -->
<g id="node25" class="node">
<title>Node25</title>
<g id="a_node25"><a xlink:href="../../d4/d15/classjavolution_1_1xml_1_1internal_1_1stream_1_1XMLStreamWriterImpl.html#a2e628fa8b39f7ce952896efb8e5f63b6" target="_top" xlink:title=" ">
<polygon fill="white" stroke="black" points="1697,-265.22 1697,-295.22 1897,-295.22 1897,-265.22 1697,-265.22"/>
<text text-anchor="start" x="1705" y="-283.22" font-family="Helvetica,sans-Serif" font-size="10.00">javolution.xml.internal.stream.</text>
<text text-anchor="middle" x="1797" y="-272.22" font-family="Helvetica,sans-Serif" font-size="10.00">XMLStreamWriterImpl.writeNoEscape</text>
</a>
</g>
</g>
<!-- Node2&#45;&gt;Node25 -->
<g id="edge31" class="edge">
<title>Node2&#45;&gt;Node25</title>
<path fill="none" stroke="midnightblue" d="M1922.75,-280.22C1914.31,-280.22 1905.75,-280.22 1897.26,-280.22"/>
<polygon fill="midnightblue" stroke="midnightblue" points="1922.96,-283.72 1932.96,-280.22 1922.96,-276.72 1922.96,-283.72"/>
</g>
<!-- Node27 -->
<g id="node27" class="node">
<title>Node27</title>
<g id="a_node27"><a xlink:href="../../d4/d15/classjavolution_1_1xml_1_1internal_1_1stream_1_1XMLStreamWriterImpl.html#ab88eb507f3cc35bd1644a79a7710f62c" target="_top" xlink:title=" ">
<polygon fill="white" stroke="black" points="1435,-74.22 1435,-104.22 1661,-104.22 1661,-74.22 1435,-74.22"/>
<text text-anchor="start" x="1443" y="-92.22" font-family="Helvetica,sans-Serif" font-size="10.00">javolution.xml.internal.stream.</text>
<text text-anchor="middle" x="1548" y="-81.22" font-family="Helvetica,sans-Serif" font-size="10.00">XMLStreamWriterImpl.writeStartDocument</text>
</a>
</g>
</g>
<!-- Node2&#45;&gt;Node27 -->
<g id="edge43" class="edge">
<title>Node2&#45;&gt;Node27</title>
<path fill="none" stroke="midnightblue" d="M1996.21,-257.28C1974.3,-233.32 1936.79,-196.34 1897,-175.22 1823.61,-136.27 1732.13,-114.56 1661.38,-102.69"/>
<polygon fill="midnightblue" stroke="midnightblue" points="1993.74,-259.76 2003.02,-264.86 1998.94,-255.09 1993.74,-259.76"/>
</g>
<!-- Node4 -->
<g id="node4" class="node">
<title>Node4</title>
<g id="a_node4"><a xlink:href="../../d4/d15/classjavolution_1_1xml_1_1internal_1_1stream_1_1XMLStreamWriterImpl.html#ac8ae3988c92c6f3f69903c556028ca07" target="_top" xlink:title=" ">
<polygon fill="white" stroke="black" points="718.5,-325.22 718.5,-355.22 900.5,-355.22 900.5,-325.22 718.5,-325.22"/>
<text text-anchor="start" x="726.5" y="-343.22" font-family="Helvetica,sans-Serif" font-size="10.00">javolution.xml.internal.stream.</text>
<text text-anchor="middle" x="809.5" y="-332.22" font-family="Helvetica,sans-Serif" font-size="10.00">XMLStreamWriterImpl.writeCData</text>
</a>
</g>
</g>
<!-- Node3&#45;&gt;Node4 -->
<g id="edge3" class="edge">
<title>Node3&#45;&gt;Node4</title>
<path fill="none" stroke="midnightblue" d="M958.05,-367.38C936.35,-363.39 913.35,-359.15 892.12,-355.25"/>
<polygon fill="midnightblue" stroke="midnightblue" points="957.45,-370.83 967.92,-369.2 958.72,-363.95 957.45,-370.83"/>
</g>
<!-- Node5 -->
<g id="node5" class="node">
<title>Node5</title>
<g id="a_node5"><a xlink:href="../../d4/d15/classjavolution_1_1xml_1_1internal_1_1stream_1_1XMLStreamWriterImpl.html#a387bcbaf7b6a82a54b720ecd6e68be97" target="_top" xlink:title=" ">
<polygon fill="white" stroke="black" points="707,-548.22 707,-578.22 912,-578.22 912,-548.22 707,-548.22"/>
<text text-anchor="start" x="715" y="-566.22" font-family="Helvetica,sans-Serif" font-size="10.00">javolution.xml.internal.stream.</text>
<text text-anchor="middle" x="809.5" y="-555.22" font-family="Helvetica,sans-Serif" font-size="10.00">XMLStreamWriterImpl.writeCharacters</text>
</a>
</g>
</g>
<!-- Node3&#45;&gt;Node5 -->
<g id="edge4" class="edge">
<title>Node3&#45;&gt;Node5</title>
<path fill="none" stroke="midnightblue" d="M1020.87,-405.66C971.93,-442.31 873.38,-516.13 830.83,-548"/>
<polygon fill="midnightblue" stroke="midnightblue" points="1023.22,-408.28 1029.12,-399.48 1019.02,-402.67 1023.22,-408.28"/>
</g>
<!-- Node8 -->
<g id="node8" class="node">
<title>Node8</title>
<g id="a_node8"><a xlink:href="../../d4/d15/classjavolution_1_1xml_1_1internal_1_1stream_1_1XMLStreamWriterImpl.html#af72110ccb8a8d5cde0a02de05c774894" target="_top" xlink:title=" ">
<polygon fill="white" stroke="black" points="709.5,-265.22 709.5,-295.22 909.5,-295.22 909.5,-265.22 709.5,-265.22"/>
<text text-anchor="start" x="717.5" y="-283.22" font-family="Helvetica,sans-Serif" font-size="10.00">javolution.xml.internal.stream.</text>
<text text-anchor="middle" x="809.5" y="-272.22" font-family="Helvetica,sans-Serif" font-size="10.00">XMLStreamWriterImpl.writeComment</text>
</a>
</g>
</g>
<!-- Node3&#45;&gt;Node8 -->
<g id="edge7" class="edge">
<title>Node3&#45;&gt;Node8</title>
<path fill="none" stroke="midnightblue" d="M1013.82,-364.08C987.54,-349.7 950.66,-330.45 917,-316.22 898.75,-308.5 878.23,-301.25 860.11,-295.3"/>
<polygon fill="midnightblue" stroke="midnightblue" points="1012.21,-367.19 1022.66,-368.95 1015.59,-361.06 1012.21,-367.19"/>
</g>
<!-- Node9 -->
<g id="node9" class="node">
<title>Node9</title>
<g id="a_node9"><a xlink:href="../../d4/d15/classjavolution_1_1xml_1_1internal_1_1stream_1_1XMLStreamWriterImpl.html#a6deac2ddcf734695a6385a0036d57f08" target="_top" xlink:title=" ">
<polygon fill="white" stroke="black" points="445,-318.22 445,-348.22 666,-348.22 666,-318.22 445,-318.22"/>
<text text-anchor="start" x="453" y="-336.22" font-family="Helvetica,sans-Serif" font-size="10.00">javolution.xml.internal.stream.</text>
<text text-anchor="middle" x="555.5" y="-325.22" font-family="Helvetica,sans-Serif" font-size="10.00">XMLStreamWriterImpl.writeEndDocument</text>
</a>
</g>
</g>
<!-- Node3&#45;&gt;Node9 -->
<g id="edge8" class="edge">
<title>Node3&#45;&gt;Node9</title>
<path fill="none" stroke="midnightblue" d="M942.85,-382.85C873.88,-380.86 782.31,-376.17 702,-365.22 672.91,-361.25 641.02,-354.51 614.52,-348.24"/>
<polygon fill="midnightblue" stroke="midnightblue" points="942.77,-386.35 952.86,-383.12 942.96,-379.35 942.77,-386.35"/>
</g>
<!-- Node3&#45;&gt;Node11 -->
<g id="edge10" class="edge">
<title>Node3&#45;&gt;Node11</title>
<path fill="none" stroke="midnightblue" d="M1031.81,-361.3C1008.51,-332.64 964.84,-283.98 917,-256.22 905.76,-249.7 893.04,-244.46 880.4,-240.28"/>
<polygon fill="midnightblue" stroke="midnightblue" points="1029.12,-363.54 1038.1,-369.16 1034.59,-359.17 1029.12,-363.54"/>
</g>
<!-- Node3&#45;&gt;Node14 -->
<g id="edge14" class="edge">
<title>Node3&#45;&gt;Node14</title>
<path fill="none" stroke="midnightblue" d="M1036.72,-359.95C1015.83,-322.13 971.25,-248.58 917,-201.22 896.62,-183.43 869.74,-169.09 848.08,-159.25"/>
<polygon fill="midnightblue" stroke="midnightblue" points="1033.89,-362.07 1041.74,-369.19 1040.04,-358.73 1033.89,-362.07"/>
</g>
<!-- Node3&#45;&gt;Node18 -->
<g id="edge19" class="edge">
<title>Node3&#45;&gt;Node18</title>
<path fill="none" stroke="midnightblue" d="M966.31,-401.28C948.31,-404.97 929.1,-408.9 910.54,-412.71"/>
<polygon fill="midnightblue" stroke="midnightblue" points="967.07,-404.69 976.17,-399.25 965.67,-397.83 967.07,-404.69"/>
</g>
<!-- Node6 -->
<g id="node6" class="node">
<title>Node6</title>
<g id="a_node6"><a xlink:href="../../da/db8/classjavolution_1_1xml_1_1XMLFormat_1_1OutputElement.html#a46a488ec2405f049a0d34d6ec535435e" target="_top" xlink:title=" ">
<polygon fill="white" stroke="black" points="481,-572.22 481,-602.22 630,-602.22 630,-572.22 481,-572.22"/>
<text text-anchor="start" x="489" y="-590.22" font-family="Helvetica,sans-Serif" font-size="10.00">javolution.xml.XMLFormat.</text>
<text text-anchor="middle" x="555.5" y="-579.22" font-family="Helvetica,sans-Serif" font-size="10.00">OutputElement.addText</text>
</a>
</g>
</g>
<!-- Node5&#45;&gt;Node6 -->
<g id="edge5" class="edge">
<title>Node5&#45;&gt;Node6</title>
<path fill="none" stroke="midnightblue" d="M696.49,-573.89C674.09,-576.02 651.09,-578.21 630.37,-580.18"/>
<polygon fill="midnightblue" stroke="midnightblue" points="697.11,-577.34 706.73,-572.91 696.44,-570.38 697.11,-577.34"/>
</g>
<!-- Node7 -->
<g id="node7" class="node">
<title>Node7</title>
<g id="a_node7"><a xlink:href="../../d4/d15/classjavolution_1_1xml_1_1internal_1_1stream_1_1XMLStreamWriterImpl.html#adec4f48ecc6fad7eb4d814518c8dd64b" target="_top" xlink:title=" ">
<polygon fill="white" stroke="black" points="453,-523.22 453,-553.22 658,-553.22 658,-523.22 453,-523.22"/>
<text text-anchor="start" x="461" y="-541.22" font-family="Helvetica,sans-Serif" font-size="10.00">javolution.xml.internal.stream.</text>
<text text-anchor="middle" x="555.5" y="-530.22" font-family="Helvetica,sans-Serif" font-size="10.00">XMLStreamWriterImpl.writeCharacters</text>
</a>
</g>
</g>
<!-- Node5&#45;&gt;Node7 -->
<g id="edge6" class="edge">
<title>Node5&#45;&gt;Node7</title>
<path fill="none" stroke="midnightblue" d="M696.55,-552.11C683.8,-550.85 670.85,-549.56 658.24,-548.31"/>
<polygon fill="midnightblue" stroke="midnightblue" points="696.43,-555.62 706.73,-553.12 697.12,-548.65 696.43,-555.62"/>
</g>
<!-- Node10 -->
<g id="node10" class="node">
<title>Node10</title>
<g id="a_node10"><a xlink:href="../../d4/d15/classjavolution_1_1xml_1_1internal_1_1stream_1_1XMLStreamWriterImpl.html#a07948be0cb30dec4561b8021e6efdecc" target="_top" xlink:title=" ">
<polygon fill="white" stroke="black" points="213,-318.22 213,-348.22 381,-348.22 381,-318.22 213,-318.22"/>
<text text-anchor="start" x="221" y="-336.22" font-family="Helvetica,sans-Serif" font-size="10.00">javolution.xml.internal.stream.</text>
<text text-anchor="middle" x="297" y="-325.22" font-family="Helvetica,sans-Serif" font-size="10.00">XMLStreamWriterImpl.close</text>
</a>
</g>
</g>
<!-- Node9&#45;&gt;Node10 -->
<g id="edge9" class="edge">
<title>Node9&#45;&gt;Node10</title>
<path fill="none" stroke="midnightblue" d="M434.91,-333.22C416.74,-333.22 398.33,-333.22 381.16,-333.22"/>
<polygon fill="midnightblue" stroke="midnightblue" points="434.98,-336.72 444.98,-333.22 434.98,-329.72 434.98,-336.72"/>
</g>
<!-- Node11&#45;&gt;Node9 -->
<g id="edge12" class="edge">
<title>Node11&#45;&gt;Node9</title>
<path fill="none" stroke="midnightblue" d="M738.99,-243.23C726.52,-247.09 713.76,-251.45 702,-256.22 657.9,-274.09 609.62,-301.29 581.25,-318.12"/>
<polygon fill="midnightblue" stroke="midnightblue" points="740.33,-246.48 748.9,-240.25 738.31,-239.78 740.33,-246.48"/>
</g>
<!-- Node12 -->
<g id="node12" class="node">
<title>Node12</title>
<g id="a_node12"><a xlink:href="../../da/db8/classjavolution_1_1xml_1_1XMLFormat_1_1OutputElement.html#a9b282a5fadd8a8f86e0bbea54c71ca29" target="_top" xlink:title=" ">
<polygon fill="white" stroke="black" points="0,-200.22 0,-230.22 149,-230.22 149,-200.22 0,-200.22"/>
<text text-anchor="start" x="8" y="-218.22" font-family="Helvetica,sans-Serif" font-size="10.00">javolution.xml.XMLFormat.</text>
<text text-anchor="middle" x="74.5" y="-207.22" font-family="Helvetica,sans-Serif" font-size="10.00">OutputElement.add</text>
</a>
</g>
</g>
<!-- Node11&#45;&gt;Node12 -->
<g id="edge11" class="edge">
<title>Node11&#45;&gt;Node12</title>
<path fill="none" stroke="midnightblue" d="M693.61,-224.49C568.5,-223.56 362.52,-221.65 185,-218.22 173.4,-218 161.11,-217.71 149.12,-217.4"/>
<polygon fill="midnightblue" stroke="midnightblue" points="693.94,-227.99 703.96,-224.56 693.99,-220.99 693.94,-227.99"/>
</g>
<!-- Node13 -->
<g id="node13" class="node">
<title>Node13</title>
<g id="a_node13"><a xlink:href="../../da/db8/classjavolution_1_1xml_1_1XMLFormat_1_1OutputElement.html#a266298b4028ab69270f28f648ed1a087" target="_top" xlink:title=" ">
<polygon fill="white" stroke="black" points="472,-178.22 472,-208.22 639,-208.22 639,-178.22 472,-178.22"/>
<text text-anchor="start" x="480" y="-196.22" font-family="Helvetica,sans-Serif" font-size="10.00">javolution.xml.XMLFormat.</text>
<text text-anchor="middle" x="555.5" y="-185.22" font-family="Helvetica,sans-Serif" font-size="10.00">OutputElement.writeReference</text>
</a>
</g>
</g>
<!-- Node11&#45;&gt;Node13 -->
<g id="edge13" class="edge">
<title>Node11&#45;&gt;Node13</title>
<path fill="none" stroke="midnightblue" d="M693.69,-210.64C675.37,-208.32 656.74,-205.95 639.36,-203.74"/>
<polygon fill="midnightblue" stroke="midnightblue" points="693.46,-214.14 703.82,-211.93 694.34,-207.2 693.46,-214.14"/>
</g>
<!-- Node15 -->
<g id="node15" class="node">
<title>Node15</title>
<g id="a_node15"><a xlink:href="../../d4/d15/classjavolution_1_1xml_1_1internal_1_1stream_1_1XMLStreamWriterImpl.html#a232fc285f8aefd00c5d216b6ea0e3b10" target="_top" xlink:title=" ">
<polygon fill="white" stroke="black" points="447.5,-129.22 447.5,-159.22 663.5,-159.22 663.5,-129.22 447.5,-129.22"/>
<text text-anchor="start" x="455.5" y="-147.22" font-family="Helvetica,sans-Serif" font-size="10.00">javolution.xml.internal.stream.</text>
<text text-anchor="middle" x="555.5" y="-136.22" font-family="Helvetica,sans-Serif" font-size="10.00">XMLStreamWriterImpl.writeStartElement</text>
</a>
</g>
</g>
<!-- Node14&#45;&gt;Node15 -->
<g id="edge15" class="edge">
<title>Node14&#45;&gt;Node15</title>
<path fill="none" stroke="midnightblue" d="M691.89,-144.22C682.54,-144.22 673.12,-144.22 663.83,-144.22"/>
<polygon fill="midnightblue" stroke="midnightblue" points="691.99,-147.72 701.99,-144.22 691.99,-140.72 691.99,-147.72"/>
</g>
<!-- Node16 -->
<g id="node16" class="node">
<title>Node16</title>
<g id="a_node16"><a xlink:href="../../da/db8/classjavolution_1_1xml_1_1XMLFormat_1_1OutputElement.html#a17a19e412ff5a75a0d217f5b5f826303" target="_top" xlink:title=" ">
<polygon fill="white" stroke="black" points="222.5,-129.22 222.5,-159.22 371.5,-159.22 371.5,-129.22 222.5,-129.22"/>
<text text-anchor="start" x="230.5" y="-147.22" font-family="Helvetica,sans-Serif" font-size="10.00">javolution.xml.XMLFormat.</text>
<text text-anchor="middle" x="297" y="-136.22" font-family="Helvetica,sans-Serif" font-size="10.00">OutputElement.add</text>
</a>
</g>
</g>
<!-- Node15&#45;&gt;Node16 -->
<g id="edge16" class="edge">
<title>Node15&#45;&gt;Node16</title>
<path fill="none" stroke="midnightblue" d="M437.04,-144.22C414.82,-144.22 392.16,-144.22 371.77,-144.22"/>
<polygon fill="midnightblue" stroke="midnightblue" points="437.21,-147.72 447.21,-144.22 437.21,-140.72 437.21,-147.72"/>
</g>
<!-- Node17 -->
<g id="node17" class="node">
<title>Node17</title>
<g id="a_node17"><a xlink:href="../../d4/d15/classjavolution_1_1xml_1_1internal_1_1stream_1_1XMLStreamWriterImpl.html#ad7df95a59e2be09031660f16d8429efa" target="_top" xlink:title=" ">
<polygon fill="white" stroke="black" points="185,-178.22 185,-208.22 409,-208.22 409,-178.22 185,-178.22"/>
<text text-anchor="start" x="193" y="-196.22" font-family="Helvetica,sans-Serif" font-size="10.00">javolution.xml.internal.stream.</text>
<text text-anchor="middle" x="297" y="-185.22" font-family="Helvetica,sans-Serif" font-size="10.00">XMLStreamWriterImpl.writeEmptyElement</text>
</a>
</g>
</g>
<!-- Node15&#45;&gt;Node17 -->
<g id="edge17" class="edge">
<title>Node15&#45;&gt;Node17</title>
<path fill="none" stroke="midnightblue" d="M465.68,-161.19C436.69,-166.72 404.73,-172.83 376.55,-178.21"/>
<polygon fill="midnightblue" stroke="midnightblue" points="466.63,-164.57 475.8,-159.25 465.32,-157.69 466.63,-164.57"/>
</g>
<!-- Node17&#45;&gt;Node12 -->
<g id="edge18" class="edge">
<title>Node17&#45;&gt;Node12</title>
<path fill="none" stroke="midnightblue" d="M174.59,-205.33C165.94,-206.2 157.38,-207.05 149.13,-207.87"/>
<polygon fill="midnightblue" stroke="midnightblue" points="175.18,-208.79 184.78,-204.32 174.48,-201.83 175.18,-208.79"/>
</g>
<!-- Node20 -->
<g id="node20" class="node">
<title>Node20</title>
<g id="a_node20"><a xlink:href="../../d4/d15/classjavolution_1_1xml_1_1internal_1_1stream_1_1XMLStreamWriterImpl.html#a51cc6d919b457ac828fc8f150a76fbf9" target="_top" xlink:title=" ">
<polygon fill="white" stroke="black" points="1194,-538.22 1194,-568.22 1389,-568.22 1389,-538.22 1194,-538.22"/>
<text text-anchor="start" x="1202" y="-556.22" font-family="Helvetica,sans-Serif" font-size="10.00">javolution.xml.internal.stream.</text>
<text text-anchor="middle" x="1291.5" y="-545.22" font-family="Helvetica,sans-Serif" font-size="10.00">XMLStreamWriterImpl.writeAttribute</text>
</a>
</g>
</g>
<!-- Node19&#45;&gt;Node20 -->
<g id="edge21" class="edge">
<title>Node19&#45;&gt;Node20</title>
<path fill="none" stroke="midnightblue" d="M1440.5,-527.63C1420.14,-531.15 1399.06,-534.8 1379.4,-538.2"/>
<polygon fill="midnightblue" stroke="midnightblue" points="1441.16,-531.07 1450.42,-525.92 1439.97,-524.17 1441.16,-531.07"/>
</g>
<!-- Node22 -->
<g id="node22" class="node">
<title>Node22</title>
<g id="a_node22"><a xlink:href="../../d4/d15/classjavolution_1_1xml_1_1internal_1_1stream_1_1XMLStreamWriterImpl.html#ad23e09c1ba7cccfde9d9f05f3e2ec3d1" target="_top" xlink:title=" ">
<polygon fill="white" stroke="black" points="1184,-489.22 1184,-519.22 1399,-519.22 1399,-489.22 1184,-489.22"/>
<text text-anchor="start" x="1192" y="-507.22" font-family="Helvetica,sans-Serif" font-size="10.00">javolution.xml.internal.stream.</text>
<text text-anchor="middle" x="1291.5" y="-496.22" font-family="Helvetica,sans-Serif" font-size="10.00">XMLStreamWriterImpl.writeNamespaces</text>
</a>
</g>
</g>
<!-- Node19&#45;&gt;Node22 -->
<g id="edge23" class="edge">
<title>Node19&#45;&gt;Node22</title>
<path fill="none" stroke="midnightblue" d="M1440.14,-507.12C1426.61,-506.85 1412.75,-506.58 1399.22,-506.32"/>
<polygon fill="midnightblue" stroke="midnightblue" points="1440.35,-510.63 1450.42,-507.32 1440.49,-503.63 1440.35,-510.63"/>
</g>
<!-- Node21 -->
<g id="node21" class="node">
<title>Node21</title>
<g id="a_node21"><a xlink:href="../../da/db8/classjavolution_1_1xml_1_1XMLFormat_1_1OutputElement.html#a34b48333aacabf430bfcf408bc599cfa" target="_top" xlink:title=" ">
<polygon fill="white" stroke="black" points="975,-538.22 975,-568.22 1126,-568.22 1126,-538.22 975,-538.22"/>
<text text-anchor="start" x="983" y="-556.22" font-family="Helvetica,sans-Serif" font-size="10.00">javolution.xml.XMLFormat.</text>
<text text-anchor="middle" x="1050.5" y="-545.22" font-family="Helvetica,sans-Serif" font-size="10.00">OutputElement.setAttribute</text>
</a>
</g>
</g>
<!-- Node20&#45;&gt;Node21 -->
<g id="edge22" class="edge">
<title>Node20&#45;&gt;Node21</title>
<path fill="none" stroke="midnightblue" d="M1183.88,-553.22C1164.46,-553.22 1144.58,-553.22 1126.32,-553.22"/>
<polygon fill="midnightblue" stroke="midnightblue" points="1183.98,-556.72 1193.98,-553.22 1183.98,-549.72 1183.98,-556.72"/>
</g>
<!-- Node22&#45;&gt;Node3 -->
<g id="edge24" class="edge">
<title>Node22&#45;&gt;Node3</title>
<path fill="none" stroke="midnightblue" d="M1214.85,-486.19C1204.29,-482.73 1193.73,-478.75 1184,-474.22 1139.88,-453.68 1094.16,-419.17 1069.65,-399.38"/>
<polygon fill="midnightblue" stroke="midnightblue" points="1213.94,-489.57 1224.53,-489.22 1216.03,-482.89 1213.94,-489.57"/>
</g>
<!-- Node24&#45;&gt;Node5 -->
<g id="edge29" class="edge">
<title>Node24&#45;&gt;Node5</title>
<path fill="none" stroke="midnightblue" d="M1693.09,-645.36C1533.25,-652.76 1216.31,-658.88 953,-611.22 915.37,-604.41 874.14,-589.67 845.76,-578.31"/>
<polygon fill="midnightblue" stroke="midnightblue" points="1693.56,-648.84 1703.39,-644.87 1693.23,-641.85 1693.56,-648.84"/>
</g>
<!-- Node24&#45;&gt;Node19 -->
<g id="edge28" class="edge">
<title>Node24&#45;&gt;Node19</title>
<path fill="none" stroke="midnightblue" d="M1758.13,-619.29C1712.1,-595.06 1634.81,-554.38 1588.18,-529.84"/>
<polygon fill="midnightblue" stroke="midnightblue" points="1756.7,-622.49 1767.18,-624.05 1759.96,-616.3 1756.7,-622.49"/>
</g>
<!-- Node25&#45;&gt;Node3 -->
<g id="edge32" class="edge">
<title>Node25&#45;&gt;Node3</title>
<path fill="none" stroke="midnightblue" d="M1769.12,-301.67C1743.15,-320.99 1701.85,-348.16 1661,-360.22 1485.93,-411.92 1270.29,-404.88 1148.08,-394.76"/>
<polygon fill="midnightblue" stroke="midnightblue" points="1771.46,-304.29 1777.31,-295.45 1767.23,-298.71 1771.46,-304.29"/>
</g>
<!-- Node25&#45;&gt;Node4 -->
<g id="edge34" class="edge">
<title>Node25&#45;&gt;Node4</title>
<path fill="none" stroke="midnightblue" d="M1752.84,-299.21C1726.8,-309.67 1692.64,-321.62 1661,-327.22 1387.62,-375.6 1057.09,-359.93 900.78,-348.2"/>
<polygon fill="midnightblue" stroke="midnightblue" points="1754.48,-302.33 1762.41,-295.3 1751.83,-295.85 1754.48,-302.33"/>
</g>
<!-- Node25&#45;&gt;Node8 -->
<g id="edge35" class="edge">
<title>Node25&#45;&gt;Node8</title>
<path fill="none" stroke="midnightblue" d="M1686.64,-278.46C1677.97,-278.36 1669.34,-278.28 1661,-278.22 1389.13,-276.21 1068.37,-278.12 909.69,-279.36"/>
<polygon fill="midnightblue" stroke="midnightblue" points="1686.8,-281.96 1696.84,-278.58 1686.88,-274.96 1686.8,-281.96"/>
</g>
<!-- Node25&#45;&gt;Node11 -->
<g id="edge37" class="edge">
<title>Node25&#45;&gt;Node11</title>
<path fill="none" stroke="midnightblue" d="M1686.94,-274.13C1495.94,-263.47 1103.37,-241.56 915.37,-231.07"/>
<polygon fill="midnightblue" stroke="midnightblue" points="1686.81,-277.63 1696.99,-274.69 1687.2,-270.64 1686.81,-277.63"/>
</g>
<!-- Node25&#45;&gt;Node14 -->
<g id="edge39" class="edge">
<title>Node25&#45;&gt;Node14</title>
<path fill="none" stroke="midnightblue" d="M1704.68,-263.41C1690.09,-260.89 1675.14,-258.41 1661,-256.22 1394.05,-214.94 1078.44,-175.93 917.13,-156.7"/>
<polygon fill="midnightblue" stroke="midnightblue" points="1704.26,-266.89 1714.72,-265.16 1705.47,-259.99 1704.26,-266.89"/>
</g>
<!-- Node25&#45;&gt;Node18 -->
<g id="edge40" class="edge">
<title>Node25&#45;&gt;Node18</title>
<path fill="none" stroke="midnightblue" d="M1731.17,-299.28C1718.86,-304.95 1706.79,-312.15 1697,-321.22 1671.04,-345.26 1690.57,-372.79 1661,-392.22 1540.62,-471.31 1110.67,-453.75 912.22,-440.85"/>
<polygon fill="midnightblue" stroke="midnightblue" points="1732.79,-302.39 1740.6,-295.23 1730.03,-295.96 1732.79,-302.39"/>
</g>
<!-- Node25&#45;&gt;Node19 -->
<g id="edge33" class="edge">
<title>Node25&#45;&gt;Node19</title>
<path fill="none" stroke="midnightblue" d="M1778.77,-304.03C1754.71,-336.31 1708.61,-394.67 1661,-436.22 1637.92,-456.36 1608.86,-475.14 1586.13,-488.61"/>
<polygon fill="midnightblue" stroke="midnightblue" points="1781.83,-305.78 1784.96,-295.65 1776.2,-301.62 1781.83,-305.78"/>
</g>
<!-- Node25&#45;&gt;Node23 -->
<g id="edge38" class="edge">
<title>Node25&#45;&gt;Node23</title>
<path fill="none" stroke="midnightblue" d="M1768.22,-258.88C1748.15,-243.26 1720.54,-221.36 1697,-201.22 1680.51,-187.11 1680.03,-178.66 1661,-168.22 1649.88,-162.12 1637.45,-157.2 1625.03,-153.26"/>
<polygon fill="midnightblue" stroke="midnightblue" points="1766.28,-261.8 1776.33,-265.17 1770.57,-256.27 1766.28,-261.8"/>
</g>
<!-- Node26 -->
<g id="node26" class="node">
<title>Node26</title>
<g id="a_node26"><a xlink:href="../../d4/d15/classjavolution_1_1xml_1_1internal_1_1stream_1_1XMLStreamWriterImpl.html#ad87a897cca3af438d1a69dbb9fdc1344" target="_top" xlink:title=" ">
<polygon fill="white" stroke="black" points="1461.5,-287.22 1461.5,-317.22 1634.5,-317.22 1634.5,-287.22 1461.5,-287.22"/>
<text text-anchor="start" x="1469.5" y="-305.22" font-family="Helvetica,sans-Serif" font-size="10.00">javolution.xml.internal.stream.</text>
<text text-anchor="middle" x="1548" y="-294.22" font-family="Helvetica,sans-Serif" font-size="10.00">XMLStreamWriterImpl.writeDTD</text>
</a>
</g>
</g>
<!-- Node25&#45;&gt;Node26 -->
<g id="edge36" class="edge">
<title>Node25&#45;&gt;Node26</title>
<path fill="none" stroke="midnightblue" d="M1686.72,-289.95C1669.24,-291.51 1651.37,-293.1 1634.54,-294.6"/>
<polygon fill="midnightblue" stroke="midnightblue" points="1687.31,-293.41 1696.96,-289.04 1686.69,-286.44 1687.31,-293.41"/>
</g>
<!-- Node25&#45;&gt;Node27 -->
<g id="edge41" class="edge">
<title>Node25&#45;&gt;Node27</title>
<path fill="none" stroke="midnightblue" d="M1783.32,-255.95C1762.8,-219.19 1718.71,-149.91 1661,-114.22 1654.73,-110.34 1647.93,-107.06 1640.89,-104.29"/>
<polygon fill="midnightblue" stroke="midnightblue" points="1780.39,-257.88 1788.25,-264.98 1786.53,-254.52 1780.39,-257.88"/>
</g>
</g>
</svg>
