<?xml version="1.0" encoding="UTF-8" standalone="no"?>
<!DOCTYPE svg PUBLIC "-//W3C//DTD SVG 1.1//EN"
 "http://www.w3.org/Graphics/SVG/1.1/DTD/svg11.dtd">
<!-- Generated by graphviz version 2.43.0 (0)
 -->
<!-- Title: javolution.xml.internal.stream.XMLStreamWriterImpl.getRepairedPrefix Pages: 1 -->
<!--zoomable 335 -->
<svg id="main" version="1.1" xmlns="http://www.w3.org/2000/svg" xmlns:xlink="http://www.w3.org/1999/xlink" xml:space="preserve" onload="init(evt)">
<style type="text/css"><![CDATA[
.edge:hover path { stroke: red; }
.edge:hover polygon { stroke: red; fill: red; }
]]></style>
<script type="text/javascript"><![CDATA[
var edges = document.getElementsByTagName('g');
if (edges && edges.length) {
  for (var i=0;i<edges.length;i++) {
    if (edges[i].id.substr(0,4)=='edge') {
      edges[i].setAttribute('class','edge');
    }
  }
}
]]></script>
        <defs>
                <circle id="rim" cx="0" cy="0" r="7"/>
                <circle id="rim2" cx="0" cy="0" r="3.5"/>
                <g id="zoomPlus">
                        <use xlink:href="#rim" fill="#404040">
                                <set attributeName="fill" to="#808080" begin="zoomplus.mouseover" end="zoomplus.mouseout"/>
                        </use>
                        <path d="M-4,0h8M0,-4v8" fill="none" stroke="white" stroke-width="1.5" pointer-events="none"/>
                </g>
                <g id="zoomMin">
                        <use xlink:href="#rim" fill="#404040">
                                <set attributeName="fill" to="#808080" begin="zoomminus.mouseover" end="zoomminus.mouseout"/>
                        </use>
                        <path d="M-4,0h8" fill="none" stroke="white" stroke-width="1.5" pointer-events="none"/>
                </g>
                <g id="dirArrow">
                        <path fill="none" stroke="white" stroke-width="1.5" d="M0,-3.0v7 M-2.5,-0.5L0,-3.0L2.5,-0.5"/>
                </g>
               <g id="resetDef">
                       <use xlink:href="#rim2" fill="#404040">
                               <set attributeName="fill" to="#808080" begin="reset.mouseover" end="reset.mouseout"/>
                       </use>
               </g>
        </defs>

<script type="text/javascript">
var viewWidth = 1889;
var viewHeight = 335;
var sectionId = 'dynsection-13';
</script>
<script xlink:href="../../svgpan.js"/>
<svg id="graph" class="graph">
<g id="viewport">
<title>javolution.xml.internal.stream.XMLStreamWriterImpl.getRepairedPrefix</title>
<polygon fill="white" stroke="transparent" points="-4,4 -4,-331 1885,-331 1885,4 -4,4"/>
<!-- Node1 -->
<g id="node1" class="node">
<title>Node1</title>
<g id="a_node1"><a xlink:title=" ">
<polygon fill="#bfbfbf" stroke="black" points="1666,-82.5 1666,-112.5 1881,-112.5 1881,-82.5 1666,-82.5"/>
<text text-anchor="start" x="1674" y="-100.5" font-family="Helvetica,sans-Serif" font-size="10.00">javolution.xml.internal.stream.</text>
<text text-anchor="middle" x="1773.5" y="-89.5" font-family="Helvetica,sans-Serif" font-size="10.00">XMLStreamWriterImpl.getRepairedPrefix</text>
</a>
</g>
</g>
<!-- Node2 -->
<g id="node2" class="node">
<title>Node2</title>
<g id="a_node2"><a xlink:href="../../d4/d15/classjavolution_1_1xml_1_1internal_1_1stream_1_1XMLStreamWriterImpl.html#a67df1c83cc5a3ea172419ca10d1b2ca2" target="_top" xlink:title=" ">
<polygon fill="white" stroke="black" points="1435,-127 1435,-168 1630,-168 1630,-127 1435,-127"/>
<text text-anchor="start" x="1443" y="-156" font-family="Helvetica,sans-Serif" font-size="10.00">javolution.xml.internal.stream.</text>
<text text-anchor="start" x="1443" y="-145" font-family="Helvetica,sans-Serif" font-size="10.00">XMLStreamWriterImpl.writeAttribute</text>
<text text-anchor="middle" x="1532.5" y="-134" font-family="Helvetica,sans-Serif" font-size="10.00">OrNamespace</text>
</a>
</g>
</g>
<!-- Node1&#45;&gt;Node2 -->
<g id="edge1" class="edge">
<title>Node1&#45;&gt;Node2</title>
<path fill="none" stroke="midnightblue" d="M1690.77,-114.6C1671.33,-118.66 1650.4,-123.04 1630.36,-127.24"/>
<polygon fill="midnightblue" stroke="midnightblue" points="1691.72,-117.98 1700.79,-112.5 1690.29,-111.12 1691.72,-117.98"/>
</g>
<!-- Node17 -->
<g id="node17" class="node">
<title>Node17</title>
<g id="a_node17"><a xlink:href="../../d4/d15/classjavolution_1_1xml_1_1internal_1_1stream_1_1XMLStreamWriterImpl.html#a769e125d8d20ad3a91b29195cce848b8" target="_top" xlink:title=" ">
<polygon fill="white" stroke="black" points="702,-0.5 702,-30.5 917,-30.5 917,-0.5 702,-0.5"/>
<text text-anchor="start" x="710" y="-18.5" font-family="Helvetica,sans-Serif" font-size="10.00">javolution.xml.internal.stream.</text>
<text text-anchor="middle" x="809.5" y="-7.5" font-family="Helvetica,sans-Serif" font-size="10.00">XMLStreamWriterImpl.writeNewElement</text>
</a>
</g>
</g>
<!-- Node1&#45;&gt;Node17 -->
<g id="edge23" class="edge">
<title>Node1&#45;&gt;Node17</title>
<path fill="none" stroke="midnightblue" d="M1655.66,-87.54C1467.22,-71.48 1099.01,-40.09 917.24,-24.6"/>
<polygon fill="midnightblue" stroke="midnightblue" points="1655.61,-91.05 1665.87,-88.41 1656.21,-84.07 1655.61,-91.05"/>
</g>
<!-- Node3 -->
<g id="node3" class="node">
<title>Node3</title>
<g id="a_node3"><a xlink:href="../../d4/d15/classjavolution_1_1xml_1_1internal_1_1stream_1_1XMLStreamWriterImpl.html#a51cc6d919b457ac828fc8f150a76fbf9" target="_top" xlink:title=" ">
<polygon fill="white" stroke="black" points="1194,-181.5 1194,-211.5 1389,-211.5 1389,-181.5 1194,-181.5"/>
<text text-anchor="start" x="1202" y="-199.5" font-family="Helvetica,sans-Serif" font-size="10.00">javolution.xml.internal.stream.</text>
<text text-anchor="middle" x="1291.5" y="-188.5" font-family="Helvetica,sans-Serif" font-size="10.00">XMLStreamWriterImpl.writeAttribute</text>
</a>
</g>
</g>
<!-- Node2&#45;&gt;Node3 -->
<g id="edge2" class="edge">
<title>Node2&#45;&gt;Node3</title>
<path fill="none" stroke="midnightblue" d="M1424.92,-169.35C1404.96,-173.44 1384.52,-177.63 1365.85,-181.46"/>
<polygon fill="midnightblue" stroke="midnightblue" points="1425.89,-172.73 1434.98,-167.29 1424.48,-165.87 1425.89,-172.73"/>
</g>
<!-- Node5 -->
<g id="node5" class="node">
<title>Node5</title>
<g id="a_node5"><a xlink:href="../../d4/d15/classjavolution_1_1xml_1_1internal_1_1stream_1_1XMLStreamWriterImpl.html#ad23e09c1ba7cccfde9d9f05f3e2ec3d1" target="_top" xlink:title=" ">
<polygon fill="white" stroke="black" points="1184,-132.5 1184,-162.5 1399,-162.5 1399,-132.5 1184,-132.5"/>
<text text-anchor="start" x="1192" y="-150.5" font-family="Helvetica,sans-Serif" font-size="10.00">javolution.xml.internal.stream.</text>
<text text-anchor="middle" x="1291.5" y="-139.5" font-family="Helvetica,sans-Serif" font-size="10.00">XMLStreamWriterImpl.writeNamespaces</text>
</a>
</g>
</g>
<!-- Node2&#45;&gt;Node5 -->
<g id="edge4" class="edge">
<title>Node2&#45;&gt;Node5</title>
<path fill="none" stroke="midnightblue" d="M1424.97,-147.5C1416.4,-147.5 1407.74,-147.5 1399.16,-147.5"/>
<polygon fill="midnightblue" stroke="midnightblue" points="1424.98,-151 1434.98,-147.5 1424.98,-144 1424.98,-151"/>
</g>
<!-- Node4 -->
<g id="node4" class="node">
<title>Node4</title>
<g id="a_node4"><a xlink:href="../../da/db8/classjavolution_1_1xml_1_1XMLFormat_1_1OutputElement.html#a34b48333aacabf430bfcf408bc599cfa" target="_top" xlink:title=" ">
<polygon fill="white" stroke="black" points="975,-181.5 975,-211.5 1126,-211.5 1126,-181.5 975,-181.5"/>
<text text-anchor="start" x="983" y="-199.5" font-family="Helvetica,sans-Serif" font-size="10.00">javolution.xml.XMLFormat.</text>
<text text-anchor="middle" x="1050.5" y="-188.5" font-family="Helvetica,sans-Serif" font-size="10.00">OutputElement.setAttribute</text>
</a>
</g>
</g>
<!-- Node3&#45;&gt;Node4 -->
<g id="edge3" class="edge">
<title>Node3&#45;&gt;Node4</title>
<path fill="none" stroke="midnightblue" d="M1183.88,-196.5C1164.46,-196.5 1144.58,-196.5 1126.32,-196.5"/>
<polygon fill="midnightblue" stroke="midnightblue" points="1183.98,-200 1193.98,-196.5 1183.98,-193 1183.98,-200"/>
</g>
<!-- Node6 -->
<g id="node6" class="node">
<title>Node6</title>
<g id="a_node6"><a xlink:href="../../d4/d15/classjavolution_1_1xml_1_1internal_1_1stream_1_1XMLStreamWriterImpl.html#a15e88dc4238fd15a3ffdc030975c02cd" target="_top" xlink:title=" ">
<polygon fill="white" stroke="black" points="953,-132.5 953,-162.5 1148,-162.5 1148,-132.5 953,-132.5"/>
<text text-anchor="start" x="961" y="-150.5" font-family="Helvetica,sans-Serif" font-size="10.00">javolution.xml.internal.stream.</text>
<text text-anchor="middle" x="1050.5" y="-139.5" font-family="Helvetica,sans-Serif" font-size="10.00">XMLStreamWriterImpl.closeOpenTag</text>
</a>
</g>
</g>
<!-- Node5&#45;&gt;Node6 -->
<g id="edge5" class="edge">
<title>Node5&#45;&gt;Node6</title>
<path fill="none" stroke="midnightblue" d="M1173.82,-147.5C1165.19,-147.5 1156.53,-147.5 1148.04,-147.5"/>
<polygon fill="midnightblue" stroke="midnightblue" points="1173.93,-151 1183.93,-147.5 1173.93,-144 1173.93,-151"/>
</g>
<!-- Node7 -->
<g id="node7" class="node">
<title>Node7</title>
<g id="a_node7"><a xlink:href="../../d4/d15/classjavolution_1_1xml_1_1internal_1_1stream_1_1XMLStreamWriterImpl.html#ac8ae3988c92c6f3f69903c556028ca07" target="_top" xlink:title=" ">
<polygon fill="white" stroke="black" points="718.5,-296.5 718.5,-326.5 900.5,-326.5 900.5,-296.5 718.5,-296.5"/>
<text text-anchor="start" x="726.5" y="-314.5" font-family="Helvetica,sans-Serif" font-size="10.00">javolution.xml.internal.stream.</text>
<text text-anchor="middle" x="809.5" y="-303.5" font-family="Helvetica,sans-Serif" font-size="10.00">XMLStreamWriterImpl.writeCData</text>
</a>
</g>
</g>
<!-- Node6&#45;&gt;Node7 -->
<g id="edge6" class="edge">
<title>Node6&#45;&gt;Node7</title>
<path fill="none" stroke="midnightblue" d="M957.72,-168.44C956.08,-169.72 954.5,-171.07 953,-172.5 914.2,-209.41 956.39,-251.21 917,-287.5 912.12,-292 906.59,-295.71 900.67,-298.77"/>
<polygon fill="midnightblue" stroke="midnightblue" points="960,-171.13 966.36,-162.66 956.1,-165.31 960,-171.13"/>
</g>
<!-- Node8 -->
<g id="node8" class="node">
<title>Node8</title>
<g id="a_node8"><a xlink:href="../../d4/d15/classjavolution_1_1xml_1_1internal_1_1stream_1_1XMLStreamWriterImpl.html#a387bcbaf7b6a82a54b720ecd6e68be97" target="_top" xlink:title=" ">
<polygon fill="white" stroke="black" points="707,-247.5 707,-277.5 912,-277.5 912,-247.5 707,-247.5"/>
<text text-anchor="start" x="715" y="-265.5" font-family="Helvetica,sans-Serif" font-size="10.00">javolution.xml.internal.stream.</text>
<text text-anchor="middle" x="809.5" y="-254.5" font-family="Helvetica,sans-Serif" font-size="10.00">XMLStreamWriterImpl.writeCharacters</text>
</a>
</g>
</g>
<!-- Node6&#45;&gt;Node8 -->
<g id="edge7" class="edge">
<title>Node6&#45;&gt;Node8</title>
<path fill="none" stroke="midnightblue" d="M960.23,-167.49C957.72,-169.04 955.3,-170.7 953,-172.5 926.65,-193.05 943.67,-218.37 917,-238.5 912.46,-241.93 907.52,-244.88 902.34,-247.42"/>
<polygon fill="midnightblue" stroke="midnightblue" points="961.97,-170.53 969.07,-162.67 958.62,-164.38 961.97,-170.53"/>
</g>
<!-- Node11 -->
<g id="node11" class="node">
<title>Node11</title>
<g id="a_node11"><a xlink:href="../../d4/d15/classjavolution_1_1xml_1_1internal_1_1stream_1_1XMLStreamWriterImpl.html#af72110ccb8a8d5cde0a02de05c774894" target="_top" xlink:title=" ">
<polygon fill="white" stroke="black" points="709.5,-198.5 709.5,-228.5 909.5,-228.5 909.5,-198.5 709.5,-198.5"/>
<text text-anchor="start" x="717.5" y="-216.5" font-family="Helvetica,sans-Serif" font-size="10.00">javolution.xml.internal.stream.</text>
<text text-anchor="middle" x="809.5" y="-205.5" font-family="Helvetica,sans-Serif" font-size="10.00">XMLStreamWriterImpl.writeComment</text>
</a>
</g>
</g>
<!-- Node6&#45;&gt;Node11 -->
<g id="edge10" class="edge">
<title>Node6&#45;&gt;Node11</title>
<path fill="none" stroke="midnightblue" d="M980.09,-165.1C970.96,-167.52 961.75,-170.03 953,-172.5 936.9,-177.04 933.05,-178.79 917,-183.5 900.04,-188.48 881.52,-193.75 864.75,-198.47"/>
<polygon fill="midnightblue" stroke="midnightblue" points="981.16,-168.44 989.94,-162.5 979.37,-161.67 981.16,-168.44"/>
</g>
<!-- Node12 -->
<g id="node12" class="node">
<title>Node12</title>
<g id="a_node12"><a xlink:href="../../d4/d15/classjavolution_1_1xml_1_1internal_1_1stream_1_1XMLStreamWriterImpl.html#a6deac2ddcf734695a6385a0036d57f08" target="_top" xlink:title=" ">
<polygon fill="white" stroke="black" points="445,-154.5 445,-184.5 666,-184.5 666,-154.5 445,-154.5"/>
<text text-anchor="start" x="453" y="-172.5" font-family="Helvetica,sans-Serif" font-size="10.00">javolution.xml.internal.stream.</text>
<text text-anchor="middle" x="555.5" y="-161.5" font-family="Helvetica,sans-Serif" font-size="10.00">XMLStreamWriterImpl.writeEndDocument</text>
</a>
</g>
</g>
<!-- Node6&#45;&gt;Node12 -->
<g id="edge11" class="edge">
<title>Node6&#45;&gt;Node12</title>
<path fill="none" stroke="midnightblue" d="M942.66,-152.27C860.9,-155.92 748.54,-160.93 666.1,-164.61"/>
<polygon fill="midnightblue" stroke="midnightblue" points="943.15,-155.75 952.98,-151.81 942.83,-148.76 943.15,-155.75"/>
</g>
<!-- Node14 -->
<g id="node14" class="node">
<title>Node14</title>
<g id="a_node14"><a xlink:href="../../d4/d15/classjavolution_1_1xml_1_1internal_1_1stream_1_1XMLStreamWriterImpl.html#a50637e984a54b1d3c98caaf5fe7adae5" target="_top" xlink:title=" ">
<polygon fill="white" stroke="black" points="704,-110.5 704,-140.5 915,-140.5 915,-110.5 704,-110.5"/>
<text text-anchor="start" x="712" y="-128.5" font-family="Helvetica,sans-Serif" font-size="10.00">javolution.xml.internal.stream.</text>
<text text-anchor="middle" x="809.5" y="-117.5" font-family="Helvetica,sans-Serif" font-size="10.00">XMLStreamWriterImpl.writeEndElement</text>
</a>
</g>
</g>
<!-- Node6&#45;&gt;Node14 -->
<g id="edge13" class="edge">
<title>Node6&#45;&gt;Node14</title>
<path fill="none" stroke="midnightblue" d="M943.01,-137.7C933.77,-136.85 924.42,-135.99 915.2,-135.14"/>
<polygon fill="midnightblue" stroke="midnightblue" points="942.7,-141.18 952.98,-138.62 943.34,-134.21 942.7,-141.18"/>
</g>
<!-- Node6&#45;&gt;Node17 -->
<g id="edge17" class="edge">
<title>Node6&#45;&gt;Node17</title>
<path fill="none" stroke="midnightblue" d="M1027.85,-124.73C1003.27,-100.25 960.86,-61.95 917,-40.5 909.07,-36.62 900.5,-33.32 891.8,-30.53"/>
<polygon fill="midnightblue" stroke="midnightblue" points="1025.66,-127.5 1035.18,-132.16 1030.64,-122.59 1025.66,-127.5"/>
</g>
<!-- Node21 -->
<g id="node21" class="node">
<title>Node21</title>
<g id="a_node21"><a xlink:href="../../d4/d15/classjavolution_1_1xml_1_1internal_1_1stream_1_1XMLStreamWriterImpl.html#a9861d38c69526f8ed569ceb73cdb44ad" target="_top" xlink:title=" ">
<polygon fill="white" stroke="black" points="707,-50 707,-91 912,-91 912,-50 707,-50"/>
<text text-anchor="start" x="715" y="-79" font-family="Helvetica,sans-Serif" font-size="10.00">javolution.xml.internal.stream.</text>
<text text-anchor="start" x="715" y="-68" font-family="Helvetica,sans-Serif" font-size="10.00">XMLStreamWriterImpl.writeProcessing</text>
<text text-anchor="middle" x="809.5" y="-57" font-family="Helvetica,sans-Serif" font-size="10.00">Instruction</text>
</a>
</g>
</g>
<!-- Node6&#45;&gt;Node21 -->
<g id="edge22" class="edge">
<title>Node6&#45;&gt;Node21</title>
<path fill="none" stroke="midnightblue" d="M999.62,-128.92C974.9,-119.94 944.52,-109.25 917,-100.5 906.93,-97.3 896.27,-94.09 885.74,-91.02"/>
<polygon fill="midnightblue" stroke="midnightblue" points="998.55,-132.26 1009.14,-132.4 1000.95,-125.68 998.55,-132.26"/>
</g>
<!-- Node9 -->
<g id="node9" class="node">
<title>Node9</title>
<g id="a_node9"><a xlink:href="../../da/db8/classjavolution_1_1xml_1_1XMLFormat_1_1OutputElement.html#a46a488ec2405f049a0d34d6ec535435e" target="_top" xlink:title=" ">
<polygon fill="white" stroke="black" points="481,-274.5 481,-304.5 630,-304.5 630,-274.5 481,-274.5"/>
<text text-anchor="start" x="489" y="-292.5" font-family="Helvetica,sans-Serif" font-size="10.00">javolution.xml.XMLFormat.</text>
<text text-anchor="middle" x="555.5" y="-281.5" font-family="Helvetica,sans-Serif" font-size="10.00">OutputElement.addText</text>
</a>
</g>
</g>
<!-- Node8&#45;&gt;Node9 -->
<g id="edge8" class="edge">
<title>Node8&#45;&gt;Node9</title>
<path fill="none" stroke="midnightblue" d="M696.49,-274.5C674.09,-276.9 651.09,-279.37 630.37,-281.59"/>
<polygon fill="midnightblue" stroke="midnightblue" points="697.16,-277.95 706.73,-273.4 696.41,-270.99 697.16,-277.95"/>
</g>
<!-- Node10 -->
<g id="node10" class="node">
<title>Node10</title>
<g id="a_node10"><a xlink:href="../../d4/d15/classjavolution_1_1xml_1_1internal_1_1stream_1_1XMLStreamWriterImpl.html#adec4f48ecc6fad7eb4d814518c8dd64b" target="_top" xlink:title=" ">
<polygon fill="white" stroke="black" points="453,-225.5 453,-255.5 658,-255.5 658,-225.5 453,-225.5"/>
<text text-anchor="start" x="461" y="-243.5" font-family="Helvetica,sans-Serif" font-size="10.00">javolution.xml.internal.stream.</text>
<text text-anchor="middle" x="555.5" y="-232.5" font-family="Helvetica,sans-Serif" font-size="10.00">XMLStreamWriterImpl.writeCharacters</text>
</a>
</g>
</g>
<!-- Node8&#45;&gt;Node10 -->
<g id="edge9" class="edge">
<title>Node8&#45;&gt;Node10</title>
<path fill="none" stroke="midnightblue" d="M696.55,-252.73C683.8,-251.61 670.85,-250.48 658.24,-249.38"/>
<polygon fill="midnightblue" stroke="midnightblue" points="696.46,-256.23 706.73,-253.62 697.07,-249.26 696.46,-256.23"/>
</g>
<!-- Node13 -->
<g id="node13" class="node">
<title>Node13</title>
<g id="a_node13"><a xlink:href="../../d4/d15/classjavolution_1_1xml_1_1internal_1_1stream_1_1XMLStreamWriterImpl.html#a07948be0cb30dec4561b8021e6efdecc" target="_top" xlink:title=" ">
<polygon fill="white" stroke="black" points="213,-154.5 213,-184.5 381,-184.5 381,-154.5 213,-154.5"/>
<text text-anchor="start" x="221" y="-172.5" font-family="Helvetica,sans-Serif" font-size="10.00">javolution.xml.internal.stream.</text>
<text text-anchor="middle" x="297" y="-161.5" font-family="Helvetica,sans-Serif" font-size="10.00">XMLStreamWriterImpl.close</text>
</a>
</g>
</g>
<!-- Node12&#45;&gt;Node13 -->
<g id="edge12" class="edge">
<title>Node12&#45;&gt;Node13</title>
<path fill="none" stroke="midnightblue" d="M434.91,-169.5C416.74,-169.5 398.33,-169.5 381.16,-169.5"/>
<polygon fill="midnightblue" stroke="midnightblue" points="434.98,-173 444.98,-169.5 434.98,-166 434.98,-173"/>
</g>
<!-- Node14&#45;&gt;Node12 -->
<g id="edge15" class="edge">
<title>Node14&#45;&gt;Node12</title>
<path fill="none" stroke="midnightblue" d="M712.39,-142.28C689.42,-146.29 665.04,-150.55 642.56,-154.47"/>
<polygon fill="midnightblue" stroke="midnightblue" points="713.23,-145.69 722.48,-140.52 712.03,-138.79 713.23,-145.69"/>
</g>
<!-- Node15 -->
<g id="node15" class="node">
<title>Node15</title>
<g id="a_node15"><a xlink:href="../../da/db8/classjavolution_1_1xml_1_1XMLFormat_1_1OutputElement.html#a9b282a5fadd8a8f86e0bbea54c71ca29" target="_top" xlink:title=" ">
<polygon fill="white" stroke="black" points="0,-55.5 0,-85.5 149,-85.5 149,-55.5 0,-55.5"/>
<text text-anchor="start" x="8" y="-73.5" font-family="Helvetica,sans-Serif" font-size="10.00">javolution.xml.XMLFormat.</text>
<text text-anchor="middle" x="74.5" y="-62.5" font-family="Helvetica,sans-Serif" font-size="10.00">OutputElement.add</text>
</a>
</g>
</g>
<!-- Node14&#45;&gt;Node15 -->
<g id="edge14" class="edge">
<title>Node14&#45;&gt;Node15</title>
<path fill="none" stroke="midnightblue" d="M693.92,-127.08C568.36,-127.26 361.33,-122.95 185,-97.5 166.01,-94.76 145.51,-90.16 127.44,-85.53"/>
<polygon fill="midnightblue" stroke="midnightblue" points="693.94,-130.58 703.94,-127.06 693.93,-123.58 693.94,-130.58"/>
</g>
<!-- Node16 -->
<g id="node16" class="node">
<title>Node16</title>
<g id="a_node16"><a xlink:href="../../da/db8/classjavolution_1_1xml_1_1XMLFormat_1_1OutputElement.html#a266298b4028ab69270f28f648ed1a087" target="_top" xlink:title=" ">
<polygon fill="white" stroke="black" points="472,-66.5 472,-96.5 639,-96.5 639,-66.5 472,-66.5"/>
<text text-anchor="start" x="480" y="-84.5" font-family="Helvetica,sans-Serif" font-size="10.00">javolution.xml.XMLFormat.</text>
<text text-anchor="middle" x="555.5" y="-73.5" font-family="Helvetica,sans-Serif" font-size="10.00">OutputElement.writeReference</text>
</a>
</g>
</g>
<!-- Node14&#45;&gt;Node16 -->
<g id="edge16" class="edge">
<title>Node14&#45;&gt;Node16</title>
<path fill="none" stroke="midnightblue" d="M712.58,-108.75C688.39,-104.53 662.63,-100.03 639.15,-95.93"/>
<polygon fill="midnightblue" stroke="midnightblue" points="712.03,-112.21 722.48,-110.48 713.23,-105.31 712.03,-112.21"/>
</g>
<!-- Node18 -->
<g id="node18" class="node">
<title>Node18</title>
<g id="a_node18"><a xlink:href="../../d4/d15/classjavolution_1_1xml_1_1internal_1_1stream_1_1XMLStreamWriterImpl.html#a232fc285f8aefd00c5d216b6ea0e3b10" target="_top" xlink:title=" ">
<polygon fill="white" stroke="black" points="447.5,-9.5 447.5,-39.5 663.5,-39.5 663.5,-9.5 447.5,-9.5"/>
<text text-anchor="start" x="455.5" y="-27.5" font-family="Helvetica,sans-Serif" font-size="10.00">javolution.xml.internal.stream.</text>
<text text-anchor="middle" x="555.5" y="-16.5" font-family="Helvetica,sans-Serif" font-size="10.00">XMLStreamWriterImpl.writeStartElement</text>
</a>
</g>
</g>
<!-- Node17&#45;&gt;Node18 -->
<g id="edge18" class="edge">
<title>Node17&#45;&gt;Node18</title>
<path fill="none" stroke="midnightblue" d="M691.89,-19.66C682.54,-20 673.12,-20.34 663.83,-20.67"/>
<polygon fill="midnightblue" stroke="midnightblue" points="692.13,-23.16 701.99,-19.3 691.88,-16.16 692.13,-23.16"/>
</g>
<!-- Node19 -->
<g id="node19" class="node">
<title>Node19</title>
<g id="a_node19"><a xlink:href="../../da/db8/classjavolution_1_1xml_1_1XMLFormat_1_1OutputElement.html#a17a19e412ff5a75a0d217f5b5f826303" target="_top" xlink:title=" ">
<polygon fill="white" stroke="black" points="222.5,-58.5 222.5,-88.5 371.5,-88.5 371.5,-58.5 222.5,-58.5"/>
<text text-anchor="start" x="230.5" y="-76.5" font-family="Helvetica,sans-Serif" font-size="10.00">javolution.xml.XMLFormat.</text>
<text text-anchor="middle" x="297" y="-65.5" font-family="Helvetica,sans-Serif" font-size="10.00">OutputElement.add</text>
</a>
</g>
</g>
<!-- Node18&#45;&gt;Node19 -->
<g id="edge19" class="edge">
<title>Node18&#45;&gt;Node19</title>
<path fill="none" stroke="midnightblue" d="M465.95,-41.42C435.23,-47.28 401.13,-53.8 371.73,-59.41"/>
<polygon fill="midnightblue" stroke="midnightblue" points="466.63,-44.85 475.8,-39.53 465.32,-37.97 466.63,-44.85"/>
</g>
<!-- Node20 -->
<g id="node20" class="node">
<title>Node20</title>
<g id="a_node20"><a xlink:href="../../d4/d15/classjavolution_1_1xml_1_1internal_1_1stream_1_1XMLStreamWriterImpl.html#ad7df95a59e2be09031660f16d8429efa" target="_top" xlink:title=" ">
<polygon fill="white" stroke="black" points="185,-9.5 185,-39.5 409,-39.5 409,-9.5 185,-9.5"/>
<text text-anchor="start" x="193" y="-27.5" font-family="Helvetica,sans-Serif" font-size="10.00">javolution.xml.internal.stream.</text>
<text text-anchor="middle" x="297" y="-16.5" font-family="Helvetica,sans-Serif" font-size="10.00">XMLStreamWriterImpl.writeEmptyElement</text>
</a>
</g>
</g>
<!-- Node18&#45;&gt;Node20 -->
<g id="edge20" class="edge">
<title>Node18&#45;&gt;Node20</title>
<path fill="none" stroke="midnightblue" d="M437.2,-24.5C427.95,-24.5 418.62,-24.5 409.4,-24.5"/>
<polygon fill="midnightblue" stroke="midnightblue" points="437.21,-28 447.21,-24.5 437.21,-21 437.21,-28"/>
</g>
<!-- Node20&#45;&gt;Node15 -->
<g id="edge21" class="edge">
<title>Node20&#45;&gt;Node15</title>
<path fill="none" stroke="midnightblue" d="M213.9,-41.63C192.09,-46.18 168.71,-51.05 147.49,-55.48"/>
<polygon fill="midnightblue" stroke="midnightblue" points="214.73,-45.03 223.8,-39.56 213.3,-38.18 214.73,-45.03"/>
</g>
</g>
</svg>
        <g id="navigator" transform="translate(0 0)" fill="#404254">
                <rect fill="#f2f5e9" fill-opacity="0.5" stroke="#606060" stroke-width=".5" x="0" y="0" width="60" height="60"/>
                <use id="zoomplus" xlink:href="#zoomPlus" x="17" y="9" onmousedown="handleZoom(evt,'in')"/>
                <use id="zoomminus" xlink:href="#zoomMin" x="42" y="9" onmousedown="handleZoom(evt,'out')"/>
                <use id="reset" xlink:href="#resetDef" x="30" y="36" onmousedown="handleReset()"/>
                <g id="arrowUp" xlink:href="#dirArrow" transform="translate(30 24)" onmousedown="handlePan(0,-1)">
                  <use xlink:href="#rim" fill="#404040">
                        <set attributeName="fill" to="#808080" begin="arrowUp.mouseover" end="arrowUp.mouseout"/>
                  </use>
                  <path fill="none" stroke="white" stroke-width="1.5" d="M0,-3.0v7 M-2.5,-0.5L0,-3.0L2.5,-0.5"/>
                </g>
                <g id="arrowRight" xlink:href="#dirArrow" transform="rotate(90) translate(36 -43)" onmousedown="handlePan(1,0)">
                  <use xlink:href="#rim" fill="#404040">
                        <set attributeName="fill" to="#808080" begin="arrowRight.mouseover" end="arrowRight.mouseout"/>
                  </use>
                  <path fill="none" stroke="white" stroke-width="1.5" d="M0,-3.0v7 M-2.5,-0.5L0,-3.0L2.5,-0.5"/>
                </g>
                <g id="arrowDown" xlink:href="#dirArrow" transform="rotate(180) translate(-30 -48)" onmousedown="handlePan(0,1)">
                  <use xlink:href="#rim" fill="#404040">
                        <set attributeName="fill" to="#808080" begin="arrowDown.mouseover" end="arrowDown.mouseout"/>
                  </use>
                  <path fill="none" stroke="white" stroke-width="1.5" d="M0,-3.0v7 M-2.5,-0.5L0,-3.0L2.5,-0.5"/>
                </g>
                <g id="arrowLeft" xlink:href="#dirArrow" transform="rotate(270) translate(-36 17)" onmousedown="handlePan(-1,0)">
                  <use xlink:href="#rim" fill="#404040">
                        <set attributeName="fill" to="#808080" begin="arrowLeft.mouseover" end="arrowLeft.mouseout"/>
                  </use>
                  <path fill="none" stroke="white" stroke-width="1.5" d="M0,-3.0v7 M-2.5,-0.5L0,-3.0L2.5,-0.5"/>
                </g>
        </g>
        <svg viewBox="0 0 15 15" width="100%" height="30px" preserveAspectRatio="xMaxYMin meet">
         <g id="arrow_out" transform="scale(0.3 0.3)">
          <a xlink:href="classjavolution_1_1xml_1_1internal_1_1stream_1_1XMLStreamWriterImpl_af5e4a42b57208973be8a1136cc607d09_icgraph_org.svg" target="_base">
           <rect id="button" ry="5" rx="5" y="6" x="6" height="38" width="38"
                fill="#f2f5e9" fill-opacity="0.5" stroke="#606060" stroke-width="1.0"/>
           <path id="arrow"
             d="M 11.500037,31.436501 C 11.940474,20.09759 22.043105,11.32322 32.158766,21.979434 L 37.068811,17.246167 C 37.068811,17.246167 37.088388,32 37.088388,32 L 22.160133,31.978069 C 22.160133,31.978069 26.997745,27.140456 26.997745,27.140456 C 18.528582,18.264221 13.291696,25.230495 11.500037,31.436501 z"
             style="fill:#404040;"/>
          </a>
         </g>
        </svg>
</svg>
