<?xml version="1.0" encoding="UTF-8" standalone="no"?>
<!DOCTYPE svg PUBLIC "-//W3C//DTD SVG 1.1//EN"
 "http://www.w3.org/Graphics/SVG/1.1/DTD/svg11.dtd">
<!-- Generated by graphviz version 2.43.0 (0)
 -->
<!-- Title: javolution.xml.internal.stream.XMLStreamWriterImpl.writeCharacters Pages: 1 -->
<svg width="454pt" height="88pt"
 viewBox="0.00 0.00 454.00 88.00" xmlns="http://www.w3.org/2000/svg" xmlns:xlink="http://www.w3.org/1999/xlink">
<g id="graph0" class="graph" transform="scale(1 1) rotate(0) translate(4 84)">
<title>javolution.xml.internal.stream.XMLStreamWriterImpl.writeCharacters</title>
<polygon fill="white" stroke="transparent" points="-4,4 -4,-84 450,-84 450,4 -4,4"/>
<!-- Node1 -->
<g id="node1" class="node">
<title>Node1</title>
<g id="a_node1"><a xlink:title=" ">
<polygon fill="#bfbfbf" stroke="black" points="241,-24.5 241,-54.5 446,-54.5 446,-24.5 241,-24.5"/>
<text text-anchor="start" x="249" y="-42.5" font-family="Helvetica,sans-Serif" font-size="10.00">javolution.xml.internal.stream.</text>
<text text-anchor="middle" x="343.5" y="-31.5" font-family="Helvetica,sans-Serif" font-size="10.00">XMLStreamWriterImpl.writeCharacters</text>
</a>
</g>
</g>
<!-- Node2 -->
<g id="node2" class="node">
<title>Node2</title>
<g id="a_node2"><a xlink:href="../../da/db8/classjavolution_1_1xml_1_1XMLFormat_1_1OutputElement.html#a46a488ec2405f049a0d34d6ec535435e" target="_top" xlink:title=" ">
<polygon fill="white" stroke="black" points="28,-49.5 28,-79.5 177,-79.5 177,-49.5 28,-49.5"/>
<text text-anchor="start" x="36" y="-67.5" font-family="Helvetica,sans-Serif" font-size="10.00">javolution.xml.XMLFormat.</text>
<text text-anchor="middle" x="102.5" y="-56.5" font-family="Helvetica,sans-Serif" font-size="10.00">OutputElement.addText</text>
</a>
</g>
</g>
<!-- Node1&#45;&gt;Node2 -->
<g id="edge1" class="edge">
<title>Node1&#45;&gt;Node2</title>
<path fill="none" stroke="midnightblue" d="M230.74,-51.19C212.59,-53.09 194.19,-55.01 177.24,-56.79"/>
<polygon fill="midnightblue" stroke="midnightblue" points="231.21,-54.66 240.8,-50.14 230.49,-47.7 231.21,-54.66"/>
</g>
<!-- Node3 -->
<g id="node3" class="node">
<title>Node3</title>
<g id="a_node3"><a xlink:href="../../d4/d15/classjavolution_1_1xml_1_1internal_1_1stream_1_1XMLStreamWriterImpl.html#adec4f48ecc6fad7eb4d814518c8dd64b" target="_top" xlink:title=" ">
<polygon fill="white" stroke="black" points="0,-0.5 0,-30.5 205,-30.5 205,-0.5 0,-0.5"/>
<text text-anchor="start" x="8" y="-18.5" font-family="Helvetica,sans-Serif" font-size="10.00">javolution.xml.internal.stream.</text>
<text text-anchor="middle" x="102.5" y="-7.5" font-family="Helvetica,sans-Serif" font-size="10.00">XMLStreamWriterImpl.writeCharacters</text>
</a>
</g>
</g>
<!-- Node1&#45;&gt;Node3 -->
<g id="edge2" class="edge">
<title>Node1&#45;&gt;Node3</title>
<path fill="none" stroke="midnightblue" d="M230.78,-28.28C222.22,-27.42 213.6,-26.56 205.11,-25.7"/>
<polygon fill="midnightblue" stroke="midnightblue" points="230.5,-31.77 240.8,-29.29 231.2,-24.81 230.5,-31.77"/>
</g>
</g>
</svg>
