<?xml version="1.0" encoding="UTF-8" standalone="no"?>
<!DOCTYPE svg PUBLIC "-//W3C//DTD SVG 1.1//EN"
 "http://www.w3.org/Graphics/SVG/1.1/DTD/svg11.dtd">
<!-- Generated by graphviz version 2.43.0 (0)
 -->
<!-- Title: javolution.xml.internal.stream.XMLStreamWriterImpl.writeEndDocument Pages: 1 -->
<svg width="2165pt" height="576pt"
 viewBox="0.00 0.00 2165.00 576.33" xmlns="http://www.w3.org/2000/svg" xmlns:xlink="http://www.w3.org/1999/xlink">
<g id="graph0" class="graph" transform="scale(1 1) rotate(0) translate(4 572.33)">
<title>javolution.xml.internal.stream.XMLStreamWriterImpl.writeEndDocument</title>
<polygon fill="white" stroke="transparent" points="-4,4 -4,-572.33 2161,-572.33 2161,4 -4,4"/>
<!-- Node1 -->
<g id="node1" class="node">
<title>Node1</title>
<g id="a_node1"><a xlink:title=" ">
<polygon fill="#bfbfbf" stroke="black" points="0,-435.83 0,-465.83 221,-465.83 221,-435.83 0,-435.83"/>
<text text-anchor="start" x="8" y="-453.83" font-family="Helvetica,sans-Serif" font-size="10.00">javolution.xml.internal.stream.</text>
<text text-anchor="middle" x="110.5" y="-442.83" font-family="Helvetica,sans-Serif" font-size="10.00">XMLStreamWriterImpl.writeEndDocument</text>
</a>
</g>
</g>
<!-- Node2 -->
<g id="node2" class="node">
<title>Node2</title>
<g id="a_node2"><a xlink:href="../../d4/d15/classjavolution_1_1xml_1_1internal_1_1stream_1_1XMLStreamWriterImpl.html#a15e88dc4238fd15a3ffdc030975c02cd" target="_top" xlink:title=" ">
<polygon fill="white" stroke="black" points="504,-369.83 504,-399.83 699,-399.83 699,-369.83 504,-369.83"/>
<text text-anchor="start" x="512" y="-387.83" font-family="Helvetica,sans-Serif" font-size="10.00">javolution.xml.internal.stream.</text>
<text text-anchor="middle" x="601.5" y="-376.83" font-family="Helvetica,sans-Serif" font-size="10.00">XMLStreamWriterImpl.closeOpenTag</text>
</a>
</g>
</g>
<!-- Node1&#45;&gt;Node2 -->
<g id="edge1" class="edge">
<title>Node1&#45;&gt;Node2</title>
<path fill="none" stroke="midnightblue" d="M194.48,-435.81C214.89,-432.33 236.71,-428.78 257,-425.83 336,-414.33 425.57,-403.72 493.44,-396.18"/>
<polygon fill="midnightblue" stroke="midnightblue" points="494.16,-399.62 503.71,-395.04 493.39,-392.66 494.16,-399.62"/>
</g>
<!-- Node24 -->
<g id="node24" class="node">
<title>Node24</title>
<g id="a_node24"><a xlink:href="../../d4/d15/classjavolution_1_1xml_1_1internal_1_1stream_1_1XMLStreamWriterImpl.html#ab1a333e0084c3f1684a73d15feb6a203" target="_top" xlink:title=" ">
<polygon fill="white" stroke="black" points="517.5,-537.83 517.5,-567.83 685.5,-567.83 685.5,-537.83 517.5,-537.83"/>
<text text-anchor="start" x="525.5" y="-555.83" font-family="Helvetica,sans-Serif" font-size="10.00">javolution.xml.internal.stream.</text>
<text text-anchor="middle" x="601.5" y="-544.83" font-family="Helvetica,sans-Serif" font-size="10.00">XMLStreamWriterImpl.flush</text>
</a>
</g>
</g>
<!-- Node1&#45;&gt;Node24 -->
<g id="edge35" class="edge">
<title>Node1&#45;&gt;Node24</title>
<path fill="none" stroke="midnightblue" d="M183.65,-465.88C272.98,-484.51 424.77,-516.17 518.45,-535.71"/>
<polygon fill="midnightblue" stroke="midnightblue" points="517.95,-539.18 528.45,-537.8 519.37,-532.33 517.95,-539.18"/>
</g>
<!-- Node25 -->
<g id="node25" class="node">
<title>Node25</title>
<g id="a_node25"><a xlink:href="../../d4/d15/classjavolution_1_1xml_1_1internal_1_1stream_1_1XMLStreamWriterImpl.html#a50637e984a54b1d3c98caaf5fe7adae5" target="_top" xlink:title=" ">
<polygon fill="white" stroke="black" points="257,-435.83 257,-465.83 468,-465.83 468,-435.83 257,-435.83"/>
<text text-anchor="start" x="265" y="-453.83" font-family="Helvetica,sans-Serif" font-size="10.00">javolution.xml.internal.stream.</text>
<text text-anchor="middle" x="362.5" y="-442.83" font-family="Helvetica,sans-Serif" font-size="10.00">XMLStreamWriterImpl.writeEndElement</text>
</a>
</g>
</g>
<!-- Node1&#45;&gt;Node25 -->
<g id="edge37" class="edge">
<title>Node1&#45;&gt;Node25</title>
<path fill="none" stroke="midnightblue" d="M221.15,-450.83C229.55,-450.83 238.04,-450.83 246.46,-450.83"/>
<polygon fill="midnightblue" stroke="midnightblue" points="246.7,-454.33 256.7,-450.83 246.7,-447.33 246.7,-454.33"/>
</g>
<!-- Node3 -->
<g id="node3" class="node">
<title>Node3</title>
<g id="a_node3"><a xlink:href="../../dc/daa/classjavolution_1_1xml_1_1internal_1_1stream_1_1NamespacesImpl.html#ae82cf6edcea5ac1d71d5b9005bb6a590" target="_top" xlink:title=" ">
<polygon fill="white" stroke="black" points="758.5,-411.83 758.5,-441.83 926.5,-441.83 926.5,-411.83 758.5,-411.83"/>
<text text-anchor="start" x="766.5" y="-429.83" font-family="Helvetica,sans-Serif" font-size="10.00">javolution.xml.internal.stream.</text>
<text text-anchor="middle" x="842.5" y="-418.83" font-family="Helvetica,sans-Serif" font-size="10.00">NamespacesImpl.pop</text>
</a>
</g>
</g>
<!-- Node2&#45;&gt;Node3 -->
<g id="edge2" class="edge">
<title>Node2&#45;&gt;Node3</title>
<path fill="none" stroke="midnightblue" d="M688.11,-399.87C707.7,-403.32 728.62,-406.99 748.51,-410.49"/>
<polygon fill="midnightblue" stroke="midnightblue" points="748.03,-413.96 758.49,-412.24 749.25,-407.06 748.03,-413.96"/>
</g>
<!-- Node5 -->
<g id="node5" class="node">
<title>Node5</title>
<g id="a_node5"><a xlink:href="../../d4/d15/classjavolution_1_1xml_1_1internal_1_1stream_1_1XMLStreamWriterImpl.html#a6d805db8f2c051bd5eb34feb49a602a8" target="_top" xlink:title=" ">
<polygon fill="white" stroke="black" points="1511,-373.83 1511,-403.83 1679,-403.83 1679,-373.83 1511,-373.83"/>
<text text-anchor="start" x="1519" y="-391.83" font-family="Helvetica,sans-Serif" font-size="10.00">javolution.xml.internal.stream.</text>
<text text-anchor="middle" x="1595" y="-380.83" font-family="Helvetica,sans-Serif" font-size="10.00">XMLStreamWriterImpl.write</text>
</a>
</g>
</g>
<!-- Node2&#45;&gt;Node5 -->
<g id="edge4" class="edge">
<title>Node2&#45;&gt;Node5</title>
<path fill="none" stroke="midnightblue" d="M699.05,-374.87C859.09,-360.06 1189.26,-336.75 1467,-363.83 1484.39,-365.52 1502.93,-368.49 1520.31,-371.81"/>
<polygon fill="midnightblue" stroke="midnightblue" points="1519.91,-375.3 1530.4,-373.79 1521.27,-368.43 1519.91,-375.3"/>
</g>
<!-- Node10 -->
<g id="node10" class="node">
<title>Node10</title>
<g id="a_node10"><a xlink:href="../../d4/d15/classjavolution_1_1xml_1_1internal_1_1stream_1_1XMLStreamWriterImpl.html#ad23e09c1ba7cccfde9d9f05f3e2ec3d1" target="_top" xlink:title=" ">
<polygon fill="white" stroke="black" points="735,-203.83 735,-233.83 950,-233.83 950,-203.83 735,-203.83"/>
<text text-anchor="start" x="743" y="-221.83" font-family="Helvetica,sans-Serif" font-size="10.00">javolution.xml.internal.stream.</text>
<text text-anchor="middle" x="842.5" y="-210.83" font-family="Helvetica,sans-Serif" font-size="10.00">XMLStreamWriterImpl.writeNamespaces</text>
</a>
</g>
</g>
<!-- Node2&#45;&gt;Node10 -->
<g id="edge10" class="edge">
<title>Node2&#45;&gt;Node10</title>
<path fill="none" stroke="midnightblue" d="M624.13,-369.8C666.95,-340.06 762.58,-273.64 811.47,-239.69"/>
<polygon fill="midnightblue" stroke="midnightblue" points="813.53,-242.52 819.75,-233.94 809.54,-236.77 813.53,-242.52"/>
</g>
<!-- Node23 -->
<g id="node23" class="node">
<title>Node23</title>
<g id="a_node23"><a xlink:href="../../d4/d15/classjavolution_1_1xml_1_1internal_1_1stream_1_1XMLStreamWriterImpl.html#a2e628fa8b39f7ce952896efb8e5f63b6" target="_top" xlink:title=" ">
<polygon fill="white" stroke="black" points="1259.5,-373.83 1259.5,-403.83 1459.5,-403.83 1459.5,-373.83 1259.5,-373.83"/>
<text text-anchor="start" x="1267.5" y="-391.83" font-family="Helvetica,sans-Serif" font-size="10.00">javolution.xml.internal.stream.</text>
<text text-anchor="middle" x="1359.5" y="-380.83" font-family="Helvetica,sans-Serif" font-size="10.00">XMLStreamWriterImpl.writeNoEscape</text>
</a>
</g>
</g>
<!-- Node2&#45;&gt;Node23 -->
<g id="edge34" class="edge">
<title>Node2&#45;&gt;Node23</title>
<path fill="none" stroke="midnightblue" d="M699.02,-385.34C839.98,-386.08 1101.42,-387.47 1249.25,-388.25"/>
<polygon fill="midnightblue" stroke="midnightblue" points="1249.24,-391.75 1259.26,-388.3 1249.28,-384.75 1249.24,-391.75"/>
</g>
<!-- Node4 -->
<g id="node4" class="node">
<title>Node4</title>
<g id="a_node4"><a xlink:href="../../dc/daa/classjavolution_1_1xml_1_1internal_1_1stream_1_1NamespacesImpl.html#acb0ae4ce1aed7a82764ba4576eda513a" target="_top" xlink:title=" ">
<polygon fill="white" stroke="black" points="986,-411.83 986,-441.83 1216,-441.83 1216,-411.83 986,-411.83"/>
<text text-anchor="start" x="994" y="-429.83" font-family="Helvetica,sans-Serif" font-size="10.00">javolution.xml.internal.stream.</text>
<text text-anchor="middle" x="1101" y="-418.83" font-family="Helvetica,sans-Serif" font-size="10.00">NamespacesImpl.searchDefaultNamespace</text>
</a>
</g>
</g>
<!-- Node3&#45;&gt;Node4 -->
<g id="edge3" class="edge">
<title>Node3&#45;&gt;Node4</title>
<path fill="none" stroke="midnightblue" d="M926.78,-426.83C942.41,-426.83 959.05,-426.83 975.61,-426.83"/>
<polygon fill="midnightblue" stroke="midnightblue" points="975.9,-430.33 985.9,-426.83 975.9,-423.33 975.9,-430.33"/>
</g>
<!-- Node6 -->
<g id="node6" class="node">
<title>Node6</title>
<g id="a_node6"><a xlink:href="../../d4/d15/classjavolution_1_1xml_1_1internal_1_1stream_1_1XMLStreamWriterImpl.html#ac2145f0f924e9b642dd66dc6d5ee891e" target="_top" xlink:title=" ">
<polygon fill="white" stroke="black" points="1744,-502.83 1744,-532.83 1924,-532.83 1924,-502.83 1744,-502.83"/>
<text text-anchor="start" x="1752" y="-520.83" font-family="Helvetica,sans-Serif" font-size="10.00">javolution.xml.internal.stream.</text>
<text text-anchor="middle" x="1834" y="-509.83" font-family="Helvetica,sans-Serif" font-size="10.00">XMLStreamWriterImpl.flushBuffer</text>
</a>
</g>
</g>
<!-- Node5&#45;&gt;Node6 -->
<g id="edge5" class="edge">
<title>Node5&#45;&gt;Node6</title>
<path fill="none" stroke="midnightblue" d="M1623.65,-403.88C1666.35,-427.12 1748.38,-471.77 1796.09,-497.74"/>
<polygon fill="midnightblue" stroke="midnightblue" points="1794.7,-500.97 1805.16,-502.67 1798.05,-494.82 1794.7,-500.97"/>
</g>
<!-- Node7 -->
<g id="node7" class="node">
<title>Node7</title>
<g id="a_node7"><a xlink:href="../../d4/d15/classjavolution_1_1xml_1_1internal_1_1stream_1_1XMLStreamWriterImpl.html#a3d00494460e49d0dd3a57e250d4d707c" target="_top" xlink:title=" ">
<polygon fill="white" stroke="black" points="1748.5,-375.83 1748.5,-405.83 1919.5,-405.83 1919.5,-375.83 1748.5,-375.83"/>
<text text-anchor="start" x="1756.5" y="-393.83" font-family="Helvetica,sans-Serif" font-size="10.00">javolution.xml.internal.stream.</text>
<text text-anchor="middle" x="1834" y="-382.83" font-family="Helvetica,sans-Serif" font-size="10.00">XMLStreamWriterImpl.getChars</text>
</a>
</g>
</g>
<!-- Node5&#45;&gt;Node7 -->
<g id="edge6" class="edge">
<title>Node5&#45;&gt;Node7</title>
<path fill="none" stroke="midnightblue" d="M1679.22,-389.53C1698.31,-389.69 1718.73,-389.86 1738.26,-390.03"/>
<polygon fill="midnightblue" stroke="midnightblue" points="1738.34,-393.53 1748.37,-390.11 1738.4,-386.53 1738.34,-393.53"/>
</g>
<!-- Node8 -->
<g id="node8" class="node">
<title>Node8</title>
<g id="a_node8"><a xlink:href="../../d4/d15/classjavolution_1_1xml_1_1internal_1_1stream_1_1XMLStreamWriterImpl.html#ac48b39590b21a285753d9ecc463d95c1" target="_top" xlink:title=" ">
<polygon fill="white" stroke="black" points="1981,-369.83 1981,-399.83 2157,-399.83 2157,-369.83 1981,-369.83"/>
<text text-anchor="start" x="1989" y="-387.83" font-family="Helvetica,sans-Serif" font-size="10.00">javolution.xml.internal.stream.</text>
<text text-anchor="middle" x="2069" y="-376.83" font-family="Helvetica,sans-Serif" font-size="10.00">XMLStreamWriterImpl.isEscaped</text>
</a>
</g>
</g>
<!-- Node5&#45;&gt;Node8 -->
<g id="edge7" class="edge">
<title>Node5&#45;&gt;Node8</title>
<path fill="none" stroke="midnightblue" d="M1656.66,-403.84C1677.54,-408.32 1701.17,-412.62 1723,-414.83 1821.16,-424.77 1847.04,-426.6 1945,-414.83 1965.91,-412.31 1988.4,-407.48 2008.35,-402.41"/>
<polygon fill="midnightblue" stroke="midnightblue" points="2009.44,-405.75 2018.23,-399.84 2007.67,-398.98 2009.44,-405.75"/>
</g>
<!-- Node9 -->
<g id="node9" class="node">
<title>Node9</title>
<g id="a_node9"><a xlink:href="../../d4/d15/classjavolution_1_1xml_1_1internal_1_1stream_1_1XMLStreamWriterImpl.html#a79ed753f8bf18f2eeaf7d7e8f93d60f1" target="_top" xlink:title=" ">
<polygon fill="white" stroke="black" points="1723,-315.33 1723,-356.33 1945,-356.33 1945,-315.33 1723,-315.33"/>
<text text-anchor="start" x="1731" y="-344.33" font-family="Helvetica,sans-Serif" font-size="10.00">javolution.xml.internal.stream.</text>
<text text-anchor="start" x="1731" y="-333.33" font-family="Helvetica,sans-Serif" font-size="10.00">XMLStreamWriterImpl.writeDirectEscaped</text>
<text text-anchor="middle" x="1834" y="-322.33" font-family="Helvetica,sans-Serif" font-size="10.00">Characters</text>
</a>
</g>
</g>
<!-- Node5&#45;&gt;Node9 -->
<g id="edge8" class="edge">
<title>Node5&#45;&gt;Node9</title>
<path fill="none" stroke="midnightblue" d="M1663.28,-373.78C1684.48,-369.04 1708.38,-363.7 1731.41,-358.55"/>
<polygon fill="midnightblue" stroke="midnightblue" points="1732.22,-361.95 1741.22,-356.35 1730.69,-355.12 1732.22,-361.95"/>
</g>
<!-- Node9&#45;&gt;Node8 -->
<g id="edge9" class="edge">
<title>Node9&#45;&gt;Node8</title>
<path fill="none" stroke="midnightblue" d="M1932.8,-356.4C1950.71,-360.16 1969.22,-364.05 1986.58,-367.71"/>
<polygon fill="midnightblue" stroke="midnightblue" points="1986.15,-371.19 1996.66,-369.82 1987.59,-364.34 1986.15,-371.19"/>
</g>
<!-- Node11 -->
<g id="node11" class="node">
<title>Node11</title>
<g id="a_node11"><a xlink:href="../../d0/d36/classjavolution_1_1text_1_1CharArray.html#a63cd0fbe95d0342063ea7091dce0fa9c" target="_top" xlink:title=" ">
<polygon fill="white" stroke="black" points="1747.5,-47.33 1747.5,-66.33 1920.5,-66.33 1920.5,-47.33 1747.5,-47.33"/>
<text text-anchor="middle" x="1834" y="-54.33" font-family="Helvetica,sans-Serif" font-size="10.00">javolution.text.CharArray.equals</text>
</a>
</g>
</g>
<!-- Node10&#45;&gt;Node11 -->
<g id="edge11" class="edge">
<title>Node10&#45;&gt;Node11</title>
<path fill="none" stroke="midnightblue" d="M856.64,-203.47C879.84,-177.51 930.83,-125.38 986,-100.83 1272.3,26.61 1375.44,8.92 1687,-24.83 1721.96,-28.61 1760.82,-37.36 1789.66,-44.75"/>
<polygon fill="midnightblue" stroke="midnightblue" points="1788.86,-48.16 1799.42,-47.3 1790.62,-41.39 1788.86,-48.16"/>
</g>
<!-- Node12 -->
<g id="node12" class="node">
<title>Node12</title>
<g id="a_node12"><a xlink:href="../../dc/daa/classjavolution_1_1xml_1_1internal_1_1stream_1_1NamespacesImpl.html#a5a2f11c30da4ca635225ed1c0c5f2668" target="_top" xlink:title=" ">
<polygon fill="white" stroke="black" points="1511,-63.83 1511,-93.83 1679,-93.83 1679,-63.83 1511,-63.83"/>
<text text-anchor="start" x="1519" y="-81.83" font-family="Helvetica,sans-Serif" font-size="10.00">javolution.xml.internal.stream.</text>
<text text-anchor="middle" x="1595" y="-70.83" font-family="Helvetica,sans-Serif" font-size="10.00">NamespacesImpl.getPrefix</text>
</a>
</g>
</g>
<!-- Node10&#45;&gt;Node12 -->
<g id="edge12" class="edge">
<title>Node10&#45;&gt;Node12</title>
<path fill="none" stroke="midnightblue" d="M882.47,-203.78C954.28,-176.84 1112.88,-120.91 1252,-96.83 1335.17,-82.43 1431.27,-78.47 1500.38,-77.79"/>
<polygon fill="midnightblue" stroke="midnightblue" points="1500.83,-81.29 1510.8,-77.71 1500.78,-74.29 1500.83,-81.29"/>
</g>
<!-- Node13 -->
<g id="node13" class="node">
<title>Node13</title>
<g id="a_node13"><a xlink:href="../../d0/d36/classjavolution_1_1text_1_1CharArray.html#a1206e2076e25f1e66e1458328aa22baa" target="_top" xlink:title=" ">
<polygon fill="white" stroke="black" points="1983,-233.33 1983,-252.33 2155,-252.33 2155,-233.33 1983,-233.33"/>
<text text-anchor="middle" x="2069" y="-240.33" font-family="Helvetica,sans-Serif" font-size="10.00">javolution.text.CharArray.length</text>
</a>
</g>
</g>
<!-- Node10&#45;&gt;Node13 -->
<g id="edge14" class="edge">
<title>Node10&#45;&gt;Node13</title>
<path fill="none" stroke="midnightblue" d="M950.29,-213.96C1102.97,-208.38 1375.33,-203.92 1467,-237.83 1486.27,-244.96 1483.62,-259.99 1503,-266.83 1688.26,-332.17 1749.47,-285.73 1945,-266.83 1969.7,-264.44 1996.8,-259.42 2019.26,-254.58"/>
<polygon fill="midnightblue" stroke="midnightblue" points="2020.22,-257.95 2029.23,-252.38 2018.71,-251.12 2020.22,-257.95"/>
</g>
<!-- Node14 -->
<g id="node14" class="node">
<title>Node14</title>
<g id="a_node14"><a xlink:href="../../d4/d15/classjavolution_1_1xml_1_1internal_1_1stream_1_1XMLStreamWriterImpl.html#a67df1c83cc5a3ea172419ca10d1b2ca2" target="_top" xlink:title=" ">
<polygon fill="white" stroke="black" points="1003.5,-247.33 1003.5,-288.33 1198.5,-288.33 1198.5,-247.33 1003.5,-247.33"/>
<text text-anchor="start" x="1011.5" y="-276.33" font-family="Helvetica,sans-Serif" font-size="10.00">javolution.xml.internal.stream.</text>
<text text-anchor="start" x="1011.5" y="-265.33" font-family="Helvetica,sans-Serif" font-size="10.00">XMLStreamWriterImpl.writeAttribute</text>
<text text-anchor="middle" x="1101" y="-254.33" font-family="Helvetica,sans-Serif" font-size="10.00">OrNamespace</text>
</a>
</g>
</g>
<!-- Node10&#45;&gt;Node14 -->
<g id="edge15" class="edge">
<title>Node10&#45;&gt;Node14</title>
<path fill="none" stroke="midnightblue" d="M922.2,-233.86C944.62,-238.15 969.43,-242.88 993.22,-247.43"/>
<polygon fill="midnightblue" stroke="midnightblue" points="992.87,-250.93 1003.35,-249.36 994.18,-244.05 992.87,-250.93"/>
</g>
<!-- Node12&#45;&gt;Node11 -->
<g id="edge13" class="edge">
<title>Node12&#45;&gt;Node11</title>
<path fill="none" stroke="midnightblue" d="M1679.22,-71.1C1697.96,-69.36 1718,-67.5 1737.21,-65.72"/>
<polygon fill="midnightblue" stroke="midnightblue" points="1737.53,-69.2 1747.17,-64.8 1736.89,-62.23 1737.53,-69.2"/>
</g>
<!-- Node14&#45;&gt;Node5 -->
<g id="edge29" class="edge">
<title>Node14&#45;&gt;Node5</title>
<path fill="none" stroke="midnightblue" d="M1198.89,-281.67C1289.59,-295.15 1418.23,-315.76 1467,-330.83 1498.62,-340.6 1532.65,-356.45 1557.51,-369.11"/>
<polygon fill="midnightblue" stroke="midnightblue" points="1556.08,-372.31 1566.57,-373.79 1559.29,-366.09 1556.08,-372.31"/>
</g>
<!-- Node14&#45;&gt;Node11 -->
<g id="edge16" class="edge">
<title>Node14&#45;&gt;Node11</title>
<path fill="none" stroke="midnightblue" d="M1113.54,-247.19C1135.34,-210.32 1186.35,-133.57 1252,-96.83 1422.26,-1.55 1665.98,-27.18 1775.66,-45.58"/>
<polygon fill="midnightblue" stroke="midnightblue" points="1775.08,-49.03 1785.53,-47.28 1776.27,-42.14 1775.08,-49.03"/>
</g>
<!-- Node15 -->
<g id="node15" class="node">
<title>Node15</title>
<g id="a_node15"><a xlink:href="../../d4/d15/classjavolution_1_1xml_1_1internal_1_1stream_1_1XMLStreamWriterImpl.html#a18e6c7b2d132315d0566892c781a5c86" target="_top" xlink:title=" ">
<polygon fill="white" stroke="black" points="1274,-106.83 1274,-136.83 1445,-136.83 1445,-106.83 1274,-106.83"/>
<text text-anchor="start" x="1282" y="-124.83" font-family="Helvetica,sans-Serif" font-size="10.00">javolution.xml.internal.stream.</text>
<text text-anchor="middle" x="1359.5" y="-113.83" font-family="Helvetica,sans-Serif" font-size="10.00">XMLStreamWriterImpl.getPrefix</text>
</a>
</g>
</g>
<!-- Node14&#45;&gt;Node15 -->
<g id="edge17" class="edge">
<title>Node14&#45;&gt;Node15</title>
<path fill="none" stroke="midnightblue" d="M1122.35,-246.92C1149.49,-220.24 1200.16,-174.48 1252,-148.83 1258.58,-145.57 1265.59,-142.68 1272.76,-140.13"/>
<polygon fill="midnightblue" stroke="midnightblue" points="1274.21,-143.33 1282.59,-136.84 1272,-136.69 1274.21,-143.33"/>
</g>
<!-- Node16 -->
<g id="node16" class="node">
<title>Node16</title>
<g id="a_node16"><a xlink:href="../../d4/d15/classjavolution_1_1xml_1_1internal_1_1stream_1_1XMLStreamWriterImpl.html#af5e4a42b57208973be8a1136cc607d09" target="_top" xlink:title=" ">
<polygon fill="white" stroke="black" points="1252,-158.83 1252,-188.83 1467,-188.83 1467,-158.83 1252,-158.83"/>
<text text-anchor="start" x="1260" y="-176.83" font-family="Helvetica,sans-Serif" font-size="10.00">javolution.xml.internal.stream.</text>
<text text-anchor="middle" x="1359.5" y="-165.83" font-family="Helvetica,sans-Serif" font-size="10.00">XMLStreamWriterImpl.getRepairedPrefix</text>
</a>
</g>
</g>
<!-- Node14&#45;&gt;Node16 -->
<g id="edge19" class="edge">
<title>Node14&#45;&gt;Node16</title>
<path fill="none" stroke="midnightblue" d="M1157.97,-247.32C1202.65,-230.94 1264.7,-208.2 1307.9,-192.37"/>
<polygon fill="midnightblue" stroke="midnightblue" points="1309.18,-195.63 1317.36,-188.9 1306.77,-189.06 1309.18,-195.63"/>
</g>
<!-- Node22 -->
<g id="node22" class="node">
<title>Node22</title>
<g id="a_node22"><a xlink:href="../../d4/d15/classjavolution_1_1xml_1_1internal_1_1stream_1_1XMLStreamWriterImpl.html#ae9c868796ceee6d3d83d4937c18e9159" target="_top" xlink:title=" ">
<polygon fill="white" stroke="black" points="1266,-247.83 1266,-277.83 1453,-277.83 1453,-247.83 1266,-247.83"/>
<text text-anchor="start" x="1274" y="-265.83" font-family="Helvetica,sans-Serif" font-size="10.00">javolution.xml.internal.stream.</text>
<text text-anchor="middle" x="1359.5" y="-254.83" font-family="Helvetica,sans-Serif" font-size="10.00">XMLStreamWriterImpl.writeEscape</text>
</a>
</g>
</g>
<!-- Node14&#45;&gt;Node22 -->
<g id="edge30" class="edge">
<title>Node14&#45;&gt;Node22</title>
<path fill="none" stroke="midnightblue" d="M1198.61,-265.94C1217.26,-265.58 1236.88,-265.2 1255.72,-264.83"/>
<polygon fill="midnightblue" stroke="midnightblue" points="1255.87,-268.33 1265.8,-264.63 1255.73,-261.33 1255.87,-268.33"/>
</g>
<!-- Node14&#45;&gt;Node23 -->
<g id="edge32" class="edge">
<title>Node14&#45;&gt;Node23</title>
<path fill="none" stroke="midnightblue" d="M1145.51,-288.35C1193.52,-311 1270.19,-347.17 1317.27,-369.38"/>
<polygon fill="midnightblue" stroke="midnightblue" points="1316.02,-372.66 1326.55,-373.76 1319,-366.33 1316.02,-372.66"/>
</g>
<!-- Node15&#45;&gt;Node12 -->
<g id="edge18" class="edge">
<title>Node15&#45;&gt;Node12</title>
<path fill="none" stroke="midnightblue" d="M1442.17,-106.79C1461.63,-103.2 1482.53,-99.36 1502.4,-95.7"/>
<polygon fill="midnightblue" stroke="midnightblue" points="1503.18,-99.11 1512.38,-93.86 1501.91,-92.23 1503.18,-99.11"/>
</g>
<!-- Node16&#45;&gt;Node11 -->
<g id="edge23" class="edge">
<title>Node16&#45;&gt;Node11</title>
<path fill="none" stroke="midnightblue" d="M1426.8,-158.77C1450.79,-153.36 1478.1,-147.26 1503,-141.83 1584.67,-124 1606.15,-124.08 1687,-102.83 1724.36,-93.01 1766.37,-79.51 1795.7,-69.67"/>
<polygon fill="midnightblue" stroke="midnightblue" points="1797.16,-72.87 1805.51,-66.36 1794.92,-66.24 1797.16,-72.87"/>
</g>
<!-- Node16&#45;&gt;Node12 -->
<g id="edge24" class="edge">
<title>Node16&#45;&gt;Node12</title>
<path fill="none" stroke="midnightblue" d="M1438.13,-158.76C1448.19,-155.28 1458.08,-151.03 1467,-145.83 1486.82,-134.27 1483.55,-120.99 1503,-108.83 1509.82,-104.56 1517.31,-100.84 1524.97,-97.61"/>
<polygon fill="midnightblue" stroke="midnightblue" points="1526.35,-100.82 1534.37,-93.9 1523.78,-94.31 1526.35,-100.82"/>
</g>
<!-- Node17 -->
<g id="node17" class="node">
<title>Node17</title>
<g id="a_node17"><a xlink:href="../../d2/d7a/classjavolution_1_1text_1_1TextBuilder.html#a5b6d5e22b7b33b3188569bbaf6112c95" target="_top" xlink:title=" ">
<polygon fill="white" stroke="black" points="1503,-189.33 1503,-208.33 1687,-208.33 1687,-189.33 1503,-189.33"/>
<text text-anchor="middle" x="1595" y="-196.33" font-family="Helvetica,sans-Serif" font-size="10.00">javolution.text.TextBuilder.append</text>
</a>
</g>
</g>
<!-- Node16&#45;&gt;Node17 -->
<g id="edge20" class="edge">
<title>Node16&#45;&gt;Node17</title>
<path fill="none" stroke="midnightblue" d="M1467,-185.23C1476.36,-186.23 1485.82,-187.24 1495.11,-188.24"/>
<polygon fill="midnightblue" stroke="midnightblue" points="1494.81,-191.73 1505.13,-189.31 1495.56,-184.77 1494.81,-191.73"/>
</g>
<!-- Node19 -->
<g id="node19" class="node">
<title>Node19</title>
<g id="a_node19"><a xlink:href="../../d2/d7a/classjavolution_1_1text_1_1TextBuilder.html#ac6109dc1dfca2e6b48450ae94a8cf59e" target="_top" xlink:title=" ">
<polygon fill="white" stroke="black" points="1509,-151.33 1509,-170.33 1681,-170.33 1681,-151.33 1509,-151.33"/>
<text text-anchor="middle" x="1595" y="-158.33" font-family="Helvetica,sans-Serif" font-size="10.00">javolution.text.TextBuilder.clear</text>
</a>
</g>
</g>
<!-- Node16&#45;&gt;Node19 -->
<g id="edge22" class="edge">
<title>Node16&#45;&gt;Node19</title>
<path fill="none" stroke="midnightblue" d="M1467,-167.9C1477.67,-167.3 1488.44,-166.7 1498.98,-166.12"/>
<polygon fill="midnightblue" stroke="midnightblue" points="1499.2,-169.61 1508.99,-165.56 1498.81,-162.62 1499.2,-169.61"/>
</g>
<!-- Node20 -->
<g id="node20" class="node">
<title>Node20</title>
<g id="a_node20"><a xlink:href="../../dc/daa/classjavolution_1_1xml_1_1internal_1_1stream_1_1NamespacesImpl.html#af0e399ec7eca3a967c953ca0901565d3" target="_top" xlink:title=" ">
<polygon fill="white" stroke="black" points="1511,-227.83 1511,-257.83 1679,-257.83 1679,-227.83 1511,-227.83"/>
<text text-anchor="start" x="1519" y="-245.83" font-family="Helvetica,sans-Serif" font-size="10.00">javolution.xml.internal.stream.</text>
<text text-anchor="middle" x="1595" y="-234.83" font-family="Helvetica,sans-Serif" font-size="10.00">NamespacesImpl.setPrefix</text>
</a>
</g>
</g>
<!-- Node16&#45;&gt;Node20 -->
<g id="edge25" class="edge">
<title>Node16&#45;&gt;Node20</title>
<path fill="none" stroke="midnightblue" d="M1414.61,-188.86C1431.46,-193.73 1450.06,-199.31 1467,-204.83 1483.17,-210.1 1486.79,-212.68 1503,-217.83 1510.66,-220.26 1518.73,-222.68 1526.76,-225"/>
<polygon fill="midnightblue" stroke="midnightblue" points="1525.94,-228.4 1536.52,-227.77 1527.86,-221.67 1525.94,-228.4"/>
</g>
<!-- Node18 -->
<g id="node18" class="node">
<title>Node18</title>
<g id="a_node18"><a xlink:href="../../d2/d7a/classjavolution_1_1text_1_1TextBuilder.html#a6d79c3b6adfe6c04f80f940904d181b4" target="_top" xlink:title=" ">
<polygon fill="white" stroke="black" points="1739.5,-139.83 1739.5,-169.83 1928.5,-169.83 1928.5,-139.83 1739.5,-139.83"/>
<text text-anchor="start" x="1747.5" y="-157.83" font-family="Helvetica,sans-Serif" font-size="10.00">javolution.text.TextBuilder.increase</text>
<text text-anchor="middle" x="1834" y="-146.83" font-family="Helvetica,sans-Serif" font-size="10.00">Capacity</text>
</a>
</g>
</g>
<!-- Node17&#45;&gt;Node18 -->
<g id="edge21" class="edge">
<title>Node17&#45;&gt;Node18</title>
<path fill="none" stroke="midnightblue" d="M1647.43,-189.28C1675.06,-184.15 1709.96,-177.67 1742.01,-171.72"/>
<polygon fill="midnightblue" stroke="midnightblue" points="1742.66,-175.16 1751.85,-169.89 1741.38,-168.28 1742.66,-175.16"/>
</g>
<!-- Node20&#45;&gt;Node13 -->
<g id="edge26" class="edge">
<title>Node20&#45;&gt;Node13</title>
<path fill="none" stroke="midnightblue" d="M1659.6,-227.79C1679.75,-223.71 1702.2,-219.86 1723,-217.83 1821.2,-208.25 1846.83,-207.95 1945,-217.83 1970.5,-220.39 1998.52,-225.88 2021.38,-231.06"/>
<polygon fill="midnightblue" stroke="midnightblue" points="2020.62,-234.47 2031.16,-233.33 2022.21,-227.66 2020.62,-234.47"/>
</g>
<!-- Node21 -->
<g id="node21" class="node">
<title>Node21</title>
<g id="a_node21"><a xlink:href="../../dc/daa/classjavolution_1_1xml_1_1internal_1_1stream_1_1NamespacesImpl.html#ad1e699fb6fe13f5d6a355f8a8eff25e8" target="_top" xlink:title=" ">
<polygon fill="white" stroke="black" points="1740,-227.83 1740,-257.83 1928,-257.83 1928,-227.83 1740,-227.83"/>
<text text-anchor="start" x="1748" y="-245.83" font-family="Helvetica,sans-Serif" font-size="10.00">javolution.xml.internal.stream.</text>
<text text-anchor="middle" x="1834" y="-234.83" font-family="Helvetica,sans-Serif" font-size="10.00">NamespacesImpl.resizePrefixStack</text>
</a>
</g>
</g>
<!-- Node20&#45;&gt;Node21 -->
<g id="edge27" class="edge">
<title>Node20&#45;&gt;Node21</title>
<path fill="none" stroke="midnightblue" d="M1679.22,-242.83C1695.46,-242.83 1712.67,-242.83 1729.47,-242.83"/>
<polygon fill="midnightblue" stroke="midnightblue" points="1729.87,-246.33 1739.87,-242.83 1729.87,-239.33 1729.87,-246.33"/>
</g>
<!-- Node21&#45;&gt;Node13 -->
<g id="edge28" class="edge">
<title>Node21&#45;&gt;Node13</title>
<path fill="none" stroke="midnightblue" d="M1928.09,-242.83C1942.82,-242.83 1958.07,-242.83 1972.84,-242.83"/>
<polygon fill="midnightblue" stroke="midnightblue" points="1972.98,-246.33 1982.98,-242.83 1972.98,-239.33 1972.98,-246.33"/>
</g>
<!-- Node22&#45;&gt;Node5 -->
<g id="edge31" class="edge">
<title>Node22&#45;&gt;Node5</title>
<path fill="none" stroke="midnightblue" d="M1428.39,-277.85C1441.54,-281.89 1454.96,-286.85 1467,-292.83 1506.59,-312.49 1546.28,-345.05 1570.49,-366.72"/>
<polygon fill="midnightblue" stroke="midnightblue" points="1568.33,-369.49 1578.09,-373.62 1573.04,-364.3 1568.33,-369.49"/>
</g>
<!-- Node23&#45;&gt;Node5 -->
<g id="edge33" class="edge">
<title>Node23&#45;&gt;Node5</title>
<path fill="none" stroke="midnightblue" d="M1459.53,-388.83C1473.09,-388.83 1486.99,-388.83 1500.46,-388.83"/>
<polygon fill="midnightblue" stroke="midnightblue" points="1500.66,-392.33 1510.66,-388.83 1500.66,-385.33 1500.66,-392.33"/>
</g>
<!-- Node24&#45;&gt;Node6 -->
<g id="edge36" class="edge">
<title>Node24&#45;&gt;Node6</title>
<path fill="none" stroke="midnightblue" d="M685.68,-552.02C784.48,-551.13 954.25,-549.83 1100,-549.83 1100,-549.83 1100,-549.83 1360.5,-549.83 1489.61,-549.83 1638.11,-537.79 1733.63,-528.48"/>
<polygon fill="midnightblue" stroke="midnightblue" points="1734.25,-531.93 1743.86,-527.47 1733.56,-524.97 1734.25,-531.93"/>
</g>
<!-- Node25&#45;&gt;Node2 -->
<g id="edge38" class="edge">
<title>Node25&#45;&gt;Node2</title>
<path fill="none" stroke="midnightblue" d="M417.58,-435.77C452.94,-425.92 499.31,-413.01 536.51,-402.65"/>
<polygon fill="midnightblue" stroke="midnightblue" points="537.55,-405.99 546.25,-399.94 535.67,-399.25 537.55,-405.99"/>
</g>
<!-- Node25&#45;&gt;Node3 -->
<g id="edge39" class="edge">
<title>Node25&#45;&gt;Node3</title>
<path fill="none" stroke="midnightblue" d="M468.1,-445.58C551.63,-441.38 667.6,-435.56 748.05,-431.52"/>
<polygon fill="midnightblue" stroke="midnightblue" points="748.36,-435.01 758.17,-431.01 748.01,-428.02 748.36,-435.01"/>
</g>
<!-- Node25&#45;&gt;Node5 -->
<g id="edge40" class="edge">
<title>Node25&#45;&gt;Node5</title>
<path fill="none" stroke="midnightblue" d="M417.74,-465.88C433.91,-470.36 451.67,-475.29 468,-479.83 484,-484.27 487.62,-487.12 504,-489.83 652.23,-514.3 691.26,-508.83 841.5,-508.83 841.5,-508.83 841.5,-508.83 1102,-508.83 1270.68,-508.83 1462.87,-441.43 1548.58,-407.65"/>
<polygon fill="midnightblue" stroke="midnightblue" points="1550.01,-410.85 1558.01,-403.9 1547.43,-404.35 1550.01,-410.85"/>
</g>
<!-- Node25&#45;&gt;Node23 -->
<g id="edge41" class="edge">
<title>Node25&#45;&gt;Node23</title>
<path fill="none" stroke="midnightblue" d="M468.28,-464.59C630.55,-482.84 951.54,-506.67 1216,-450.83 1254.66,-442.67 1295.72,-423.55 1323.78,-408.69"/>
<polygon fill="midnightblue" stroke="midnightblue" points="1325.64,-411.66 1332.78,-403.83 1322.32,-405.5 1325.64,-411.66"/>
</g>
</g>
</svg>
