<?xml version="1.0" encoding="UTF-8" standalone="no"?>
<!DOCTYPE svg PUBLIC "-//W3C//DTD SVG 1.1//EN"
 "http://www.w3.org/Graphics/SVG/1.1/DTD/svg11.dtd">
<!-- Generated by graphviz version 2.43.0 (0)
 -->
<!-- Title: javolution.util.internal.map.sorted.SubSortedMapImpl.keyComparator Pages: 1 -->
<svg width="417pt" height="39pt"
 viewBox="0.00 0.00 417.00 39.00" xmlns="http://www.w3.org/2000/svg" xmlns:xlink="http://www.w3.org/1999/xlink">
<g id="graph0" class="graph" transform="scale(1 1) rotate(0) translate(4 35)">
<title>javolution.util.internal.map.sorted.SubSortedMapImpl.keyComparator</title>
<polygon fill="white" stroke="transparent" points="-4,4 -4,-35 413,-35 413,4 -4,4"/>
<!-- Node1 -->
<g id="node1" class="node">
<title>Node1</title>
<g id="a_node1"><a xlink:title=" ">
<polygon fill="#bfbfbf" stroke="black" points="0,-0.5 0,-30.5 187,-30.5 187,-0.5 0,-0.5"/>
<text text-anchor="start" x="8" y="-18.5" font-family="Helvetica,sans-Serif" font-size="10.00">javolution.util.internal.map.sorted.</text>
<text text-anchor="middle" x="93.5" y="-7.5" font-family="Helvetica,sans-Serif" font-size="10.00">SubSortedMapImpl.keyComparator</text>
</a>
</g>
</g>
<!-- Node2 -->
<g id="node2" class="node">
<title>Node2</title>
<g id="a_node2"><a xlink:href="../../d1/d0a/classjavolution_1_1util_1_1internal_1_1map_1_1sorted_1_1SortedMapView.html#a32c8649a5e0d78ad129ba67966674cfe" target="_top" xlink:title=" ">
<polygon fill="white" stroke="black" points="223,-0.5 223,-30.5 409,-30.5 409,-0.5 223,-0.5"/>
<text text-anchor="start" x="231" y="-18.5" font-family="Helvetica,sans-Serif" font-size="10.00">javolution.util.internal.map.sorted.</text>
<text text-anchor="middle" x="316" y="-7.5" font-family="Helvetica,sans-Serif" font-size="10.00">SortedMapView.target</text>
</a>
</g>
</g>
<!-- Node1&#45;&gt;Node2 -->
<g id="edge1" class="edge">
<title>Node1&#45;&gt;Node2</title>
<path fill="none" stroke="midnightblue" d="M187.05,-15.5C195.43,-15.5 203.95,-15.5 212.41,-15.5"/>
<polygon fill="midnightblue" stroke="midnightblue" points="212.68,-19 222.68,-15.5 212.68,-12 212.68,-19"/>
</g>
</g>
</svg>
