<?xml version="1.0" encoding="UTF-8" standalone="no"?>
<!DOCTYPE svg PUBLIC "-//W3C//DTD SVG 1.1//EN"
 "http://www.w3.org/Graphics/SVG/1.1/DTD/svg11.dtd">
<!-- Generated by graphviz version 2.43.0 (0)
 -->
<!-- Title: javolution.util.internal.map.sorted.SubSortedMapImpl.put Pages: 1 -->
<svg width="639pt" height="110pt"
 viewBox="0.00 0.00 639.00 110.00" xmlns="http://www.w3.org/2000/svg" xmlns:xlink="http://www.w3.org/1999/xlink">
<g id="graph0" class="graph" transform="scale(1 1) rotate(0) translate(4 106)">
<title>javolution.util.internal.map.sorted.SubSortedMapImpl.put</title>
<polygon fill="white" stroke="transparent" points="-4,4 -4,-106 635,-106 635,4 -4,4"/>
<!-- Node1 -->
<g id="node1" class="node">
<title>Node1</title>
<g id="a_node1"><a xlink:title=" ">
<polygon fill="#bfbfbf" stroke="black" points="0,-22.5 0,-52.5 186,-52.5 186,-22.5 0,-22.5"/>
<text text-anchor="start" x="8" y="-40.5" font-family="Helvetica,sans-Serif" font-size="10.00">javolution.util.internal.map.sorted.</text>
<text text-anchor="middle" x="93" y="-29.5" font-family="Helvetica,sans-Serif" font-size="10.00">SubSortedMapImpl.put</text>
</a>
</g>
</g>
<!-- Node2 -->
<g id="node2" class="node">
<title>Node2</title>
<g id="a_node2"><a xlink:href="../../de/d72/interfacejavolution_1_1util_1_1function_1_1Equality.html#a6c7f635db3cd5ac3036ae54da9eb27e9" target="_top" xlink:title=" ">
<polygon fill="white" stroke="black" points="250.5,-71.5 250.5,-101.5 380.5,-101.5 380.5,-71.5 250.5,-71.5"/>
<text text-anchor="start" x="258.5" y="-89.5" font-family="Helvetica,sans-Serif" font-size="10.00">javolution.util.function.</text>
<text text-anchor="middle" x="315.5" y="-78.5" font-family="Helvetica,sans-Serif" font-size="10.00">Equality.compare</text>
</a>
</g>
</g>
<!-- Node1&#45;&gt;Node2 -->
<g id="edge1" class="edge">
<title>Node1&#45;&gt;Node2</title>
<path fill="none" stroke="midnightblue" d="M161.66,-52.53C186.58,-58.07 214.93,-64.37 240.39,-70.03"/>
<polygon fill="midnightblue" stroke="midnightblue" points="239.85,-73.5 250.37,-72.25 241.36,-66.66 239.85,-73.5"/>
</g>
<!-- Node3 -->
<g id="node3" class="node">
<title>Node3</title>
<g id="a_node3"><a xlink:href="../../d3/d09/classjavolution_1_1util_1_1internal_1_1map_1_1sorted_1_1SubSortedMapImpl.html#a567842d8cc01de069bdaa3fcb3122630" target="_top" xlink:title=" ">
<polygon fill="white" stroke="black" points="222,-22.5 222,-52.5 409,-52.5 409,-22.5 222,-22.5"/>
<text text-anchor="start" x="230" y="-40.5" font-family="Helvetica,sans-Serif" font-size="10.00">javolution.util.internal.map.sorted.</text>
<text text-anchor="middle" x="315.5" y="-29.5" font-family="Helvetica,sans-Serif" font-size="10.00">SubSortedMapImpl.keyComparator</text>
</a>
</g>
</g>
<!-- Node1&#45;&gt;Node3 -->
<g id="edge2" class="edge">
<title>Node1&#45;&gt;Node3</title>
<path fill="none" stroke="midnightblue" d="M186.23,-37.5C194.72,-37.5 203.34,-37.5 211.91,-37.5"/>
<polygon fill="midnightblue" stroke="midnightblue" points="211.93,-41 221.93,-37.5 211.93,-34 211.93,-41"/>
</g>
<!-- Node4 -->
<g id="node4" class="node">
<title>Node4</title>
<g id="a_node4"><a xlink:href="../../d1/d0a/classjavolution_1_1util_1_1internal_1_1map_1_1sorted_1_1SortedMapView.html#a32c8649a5e0d78ad129ba67966674cfe" target="_top" xlink:title=" ">
<polygon fill="white" stroke="black" points="445,-0.5 445,-30.5 631,-30.5 631,-0.5 445,-0.5"/>
<text text-anchor="start" x="453" y="-18.5" font-family="Helvetica,sans-Serif" font-size="10.00">javolution.util.internal.map.sorted.</text>
<text text-anchor="middle" x="538" y="-7.5" font-family="Helvetica,sans-Serif" font-size="10.00">SortedMapView.target</text>
</a>
</g>
</g>
<!-- Node1&#45;&gt;Node4 -->
<g id="edge4" class="edge">
<title>Node1&#45;&gt;Node4</title>
<path fill="none" stroke="midnightblue" d="M161.1,-22.5C180.63,-18.79 202.08,-15.35 222,-13.5 292.8,-6.92 372.93,-7.54 434.65,-9.74"/>
<polygon fill="midnightblue" stroke="midnightblue" points="434.66,-13.25 444.79,-10.12 434.93,-6.25 434.66,-13.25"/>
</g>
<!-- Node3&#45;&gt;Node4 -->
<g id="edge3" class="edge">
<title>Node3&#45;&gt;Node4</title>
<path fill="none" stroke="midnightblue" d="M409.05,-28.27C417.52,-27.42 426.14,-26.56 434.69,-25.71"/>
<polygon fill="midnightblue" stroke="midnightblue" points="435.08,-29.19 444.68,-24.71 434.39,-22.22 435.08,-29.19"/>
</g>
</g>
</svg>
