<?xml version="1.0" encoding="UTF-8" standalone="no"?>
<!DOCTYPE svg PUBLIC "-//W3C//DTD SVG 1.1//EN"
 "http://www.w3.org/Graphics/SVG/1.1/DTD/svg11.dtd">
<!-- Generated by graphviz version 2.43.0 (0)
 -->
<!-- Title: javolution.util.function.Reducers.SumReducer Pages: 1 -->
<svg width="242pt" height="117pt"
 viewBox="0.00 0.00 242.00 117.00" xmlns="http://www.w3.org/2000/svg" xmlns:xlink="http://www.w3.org/1999/xlink">
<g id="graph0" class="graph" transform="scale(1 1) rotate(0) translate(4 113)">
<title>javolution.util.function.Reducers.SumReducer</title>
<polygon fill="white" stroke="transparent" points="-4,4 -4,-113 238,-113 238,4 -4,4"/>
<!-- Node1 -->
<g id="node1" class="node">
<title>Node1</title>
<g id="a_node1"><a xlink:title=" ">
<polygon fill="#bfbfbf" stroke="black" points="63,-0.5 63,-30.5 193,-30.5 193,-0.5 63,-0.5"/>
<text text-anchor="start" x="71" y="-18.5" font-family="Helvetica,sans-Serif" font-size="10.00">javolution.util.function.</text>
<text text-anchor="middle" x="128" y="-7.5" font-family="Helvetica,sans-Serif" font-size="10.00">Reducers.SumReducer</text>
</a>
</g>
</g>
<!-- Node2 -->
<g id="node2" class="node">
<title>Node2</title>
<g id="a_node2"><a xlink:href="../../d4/dae/interfacejavolution_1_1util_1_1function_1_1Reducer.html" target="_top" xlink:title=" ">
<polygon fill="white" stroke="black" points="0,-78.5 0,-108.5 130,-108.5 130,-78.5 0,-78.5"/>
<text text-anchor="start" x="8" y="-96.5" font-family="Helvetica,sans-Serif" font-size="10.00">javolution.util.function.</text>
<text text-anchor="middle" x="65" y="-85.5" font-family="Helvetica,sans-Serif" font-size="10.00">Reducer&lt; Integer &gt;</text>
</a>
</g>
</g>
<!-- Node2&#45;&gt;Node1 -->
<g id="edge1" class="edge">
<title>Node2&#45;&gt;Node1</title>
<path fill="none" stroke="midnightblue" d="M83.4,-70.31C93.99,-57.53 106.98,-41.86 116.2,-30.73"/>
<polygon fill="midnightblue" stroke="midnightblue" points="80.54,-68.27 76.85,-78.2 85.93,-72.74 80.54,-68.27"/>
</g>
<!-- Node3 -->
<g id="node3" class="node">
<title>Node3</title>
<g id="a_node3"><a xlink:title=" ">
<polygon fill="white" stroke="#bfbfbf" points="148,-84 148,-103 234,-103 234,-84 148,-84"/>
<text text-anchor="middle" x="191" y="-91" font-family="Helvetica,sans-Serif" font-size="10.00">AtomicInteger</text>
</a>
</g>
</g>
<!-- Node3&#45;&gt;Node1 -->
<g id="edge2" class="edge">
<title>Node3&#45;&gt;Node1</title>
<path fill="none" stroke="#9a32cd" stroke-dasharray="5,2" d="M177.12,-75.75C165.87,-62.19 150.21,-43.3 139.62,-30.52"/>
<polygon fill="#9a32cd" stroke="#9a32cd" points="174.7,-78.32 183.77,-83.78 180.09,-73.85 174.7,-78.32"/>
<text text-anchor="middle" x="175.5" y="-52" font-family="Helvetica,sans-Serif" font-size="10.00"> sum</text>
</g>
</g>
</svg>
