<?xml version="1.0" encoding="UTF-8" standalone="no"?>
<!DOCTYPE svg PUBLIC "-//W3C//DTD SVG 1.1//EN"
 "http://www.w3.org/Graphics/SVG/1.1/DTD/svg11.dtd">
<!-- Generated by graphviz version 2.43.0 (0)
 -->
<!-- Title: javolution.xml.internal.stream.XMLOutputFactoryImpl.recycle Pages: 1 -->
<svg width="584pt" height="88pt"
 viewBox="0.00 0.00 584.00 88.00" xmlns="http://www.w3.org/2000/svg" xmlns:xlink="http://www.w3.org/1999/xlink">
<g id="graph0" class="graph" transform="scale(1 1) rotate(0) translate(4 84)">
<title>javolution.xml.internal.stream.XMLOutputFactoryImpl.recycle</title>
<polygon fill="white" stroke="transparent" points="-4,4 -4,-84 580,-84 580,4 -4,4"/>
<!-- Node1 -->
<g id="node1" class="node">
<title>Node1</title>
<g id="a_node1"><a xlink:title=" ">
<polygon fill="#bfbfbf" stroke="black" points="408,-24.5 408,-54.5 576,-54.5 576,-24.5 408,-24.5"/>
<text text-anchor="start" x="416" y="-42.5" font-family="Helvetica,sans-Serif" font-size="10.00">javolution.xml.internal.stream.</text>
<text text-anchor="middle" x="492" y="-31.5" font-family="Helvetica,sans-Serif" font-size="10.00">XMLOutputFactoryImpl.recycle</text>
</a>
</g>
</g>
<!-- Node2 -->
<g id="node2" class="node">
<title>Node2</title>
<g id="a_node2"><a xlink:href="../../d4/d15/classjavolution_1_1xml_1_1internal_1_1stream_1_1XMLStreamWriterImpl.html#aba48091580672ad8ff8565f38f7195b1" target="_top" xlink:title=" ">
<polygon fill="white" stroke="black" points="204,-24.5 204,-54.5 372,-54.5 372,-24.5 204,-24.5"/>
<text text-anchor="start" x="212" y="-42.5" font-family="Helvetica,sans-Serif" font-size="10.00">javolution.xml.internal.stream.</text>
<text text-anchor="middle" x="288" y="-31.5" font-family="Helvetica,sans-Serif" font-size="10.00">XMLStreamWriterImpl.reset</text>
</a>
</g>
</g>
<!-- Node1&#45;&gt;Node2 -->
<g id="edge1" class="edge">
<title>Node1&#45;&gt;Node2</title>
<path fill="none" stroke="midnightblue" d="M397.89,-39.5C389.27,-39.5 380.56,-39.5 372.04,-39.5"/>
<polygon fill="midnightblue" stroke="midnightblue" points="397.96,-43 407.96,-39.5 397.96,-36 397.96,-43"/>
</g>
<!-- Node3 -->
<g id="node3" class="node">
<title>Node3</title>
<g id="a_node3"><a xlink:href="../../d4/d15/classjavolution_1_1xml_1_1internal_1_1stream_1_1XMLStreamWriterImpl.html#a07948be0cb30dec4561b8021e6efdecc" target="_top" xlink:title=" ">
<polygon fill="white" stroke="black" points="0,-49.5 0,-79.5 168,-79.5 168,-49.5 0,-49.5"/>
<text text-anchor="start" x="8" y="-67.5" font-family="Helvetica,sans-Serif" font-size="10.00">javolution.xml.internal.stream.</text>
<text text-anchor="middle" x="84" y="-56.5" font-family="Helvetica,sans-Serif" font-size="10.00">XMLStreamWriterImpl.close</text>
</a>
</g>
</g>
<!-- Node2&#45;&gt;Node3 -->
<g id="edge2" class="edge">
<title>Node2&#45;&gt;Node3</title>
<path fill="none" stroke="midnightblue" d="M193.89,-51.02C185.27,-52.09 176.56,-53.17 168.04,-54.22"/>
<polygon fill="midnightblue" stroke="midnightblue" points="194.47,-54.48 203.96,-49.78 193.61,-47.53 194.47,-54.48"/>
</g>
<!-- Node4 -->
<g id="node4" class="node">
<title>Node4</title>
<g id="a_node4"><a xlink:href="../../da/db8/classjavolution_1_1xml_1_1XMLFormat_1_1OutputElement.html#ab717c9067588f7443d846552fa7f86d8" target="_top" xlink:title=" ">
<polygon fill="white" stroke="black" points="9.5,-0.5 9.5,-30.5 158.5,-30.5 158.5,-0.5 9.5,-0.5"/>
<text text-anchor="start" x="17.5" y="-18.5" font-family="Helvetica,sans-Serif" font-size="10.00">javolution.xml.XMLFormat.</text>
<text text-anchor="middle" x="84" y="-7.5" font-family="Helvetica,sans-Serif" font-size="10.00">OutputElement.reset</text>
</a>
</g>
</g>
<!-- Node2&#45;&gt;Node4 -->
<g id="edge3" class="edge">
<title>Node2&#45;&gt;Node4</title>
<path fill="none" stroke="midnightblue" d="M193.69,-28.41C181.94,-27.02 170.05,-25.6 158.66,-24.25"/>
<polygon fill="midnightblue" stroke="midnightblue" points="193.62,-31.93 203.96,-29.63 194.45,-24.98 193.62,-31.93"/>
</g>
</g>
</svg>
