<?xml version="1.0" encoding="UTF-8" standalone="no"?>
<!DOCTYPE svg PUBLIC "-//W3C//DTD SVG 1.1//EN"
 "http://www.w3.org/Graphics/SVG/1.1/DTD/svg11.dtd">
<!-- Generated by graphviz version 2.43.0 (0)
 -->
<!-- Title: javolution.xml.internal.stream.XMLOutputFactoryImpl.createXMLStreamWriter Pages: 1 -->
<svg width="1045pt" height="345pt"
 viewBox="0.00 0.00 1045.00 344.50" xmlns="http://www.w3.org/2000/svg" xmlns:xlink="http://www.w3.org/1999/xlink">
<g id="graph0" class="graph" transform="scale(1 1) rotate(0) translate(4 340.5)">
<title>javolution.xml.internal.stream.XMLOutputFactoryImpl.createXMLStreamWriter</title>
<polygon fill="white" stroke="transparent" points="-4,4 -4,-340.5 1041,-340.5 1041,4 -4,4"/>
<!-- Node1 -->
<g id="node1" class="node">
<title>Node1</title>
<g id="a_node1"><a xlink:title=" ">
<polygon fill="#bfbfbf" stroke="black" points="0,-103.5 0,-133.5 248,-133.5 248,-103.5 0,-103.5"/>
<text text-anchor="start" x="8" y="-121.5" font-family="Helvetica,sans-Serif" font-size="10.00">javolution.xml.internal.stream.</text>
<text text-anchor="middle" x="124" y="-110.5" font-family="Helvetica,sans-Serif" font-size="10.00">XMLOutputFactoryImpl.createXMLStreamWriter</text>
</a>
</g>
</g>
<!-- Node2 -->
<g id="node2" class="node">
<title>Node2</title>
<g id="a_node2"><a xlink:href="../../d4/d78/classjavolution_1_1xml_1_1internal_1_1stream_1_1XMLOutputFactoryImpl.html#af013660b0cffd90c3c242f7354a9936e" target="_top" xlink:title=" ">
<polygon fill="white" stroke="black" points="284,-103.5 284,-133.5 532,-133.5 532,-103.5 284,-103.5"/>
<text text-anchor="start" x="292" y="-121.5" font-family="Helvetica,sans-Serif" font-size="10.00">javolution.xml.internal.stream.</text>
<text text-anchor="middle" x="408" y="-110.5" font-family="Helvetica,sans-Serif" font-size="10.00">XMLOutputFactoryImpl.createXMLStreamWriter</text>
</a>
</g>
</g>
<!-- Node1&#45;&gt;Node2 -->
<g id="edge1" class="edge">
<title>Node1&#45;&gt;Node2</title>
<path fill="none" stroke="midnightblue" d="M248.28,-118.5C256.6,-118.5 265.01,-118.5 273.38,-118.5"/>
<polygon fill="midnightblue" stroke="midnightblue" points="273.57,-122 283.57,-118.5 273.57,-115 273.57,-122"/>
</g>
<!-- Node3 -->
<g id="node3" class="node">
<title>Node3</title>
<g id="a_node3"><a xlink:href="../../d4/d78/classjavolution_1_1xml_1_1internal_1_1stream_1_1XMLOutputFactoryImpl.html#a095b7ff54bd887596f672232fa900e5e" target="_top" xlink:title=" ">
<polygon fill="white" stroke="black" points="568,-147.5 568,-177.5 749,-177.5 749,-147.5 568,-147.5"/>
<text text-anchor="start" x="576" y="-165.5" font-family="Helvetica,sans-Serif" font-size="10.00">javolution.xml.internal.stream.</text>
<text text-anchor="middle" x="658.5" y="-154.5" font-family="Helvetica,sans-Serif" font-size="10.00">XMLOutputFactoryImpl.newWriter</text>
</a>
</g>
</g>
<!-- Node1&#45;&gt;Node3 -->
<g id="edge11" class="edge">
<title>Node1&#45;&gt;Node3</title>
<path fill="none" stroke="midnightblue" d="M209.78,-133.52C233.71,-137.3 259.82,-140.99 284,-143.5 376.37,-153.08 482.1,-157.89 557.44,-160.26"/>
<polygon fill="midnightblue" stroke="midnightblue" points="557.77,-163.78 567.87,-160.58 557.98,-156.78 557.77,-163.78"/>
</g>
<!-- Node10 -->
<g id="node10" class="node">
<title>Node10</title>
<g id="a_node10"><a xlink:href="../../d4/d15/classjavolution_1_1xml_1_1internal_1_1stream_1_1XMLStreamWriterImpl.html#a450b0b4b8da94620952fd8e14609346d" target="_top" xlink:title=" ">
<polygon fill="white" stroke="black" points="570.5,-59.5 570.5,-89.5 746.5,-89.5 746.5,-59.5 570.5,-59.5"/>
<text text-anchor="start" x="578.5" y="-77.5" font-family="Helvetica,sans-Serif" font-size="10.00">javolution.xml.internal.stream.</text>
<text text-anchor="middle" x="658.5" y="-66.5" font-family="Helvetica,sans-Serif" font-size="10.00">XMLStreamWriterImpl.setOutput</text>
</a>
</g>
</g>
<!-- Node1&#45;&gt;Node10 -->
<g id="edge12" class="edge">
<title>Node1&#45;&gt;Node10</title>
<path fill="none" stroke="midnightblue" d="M209.78,-103.48C233.71,-99.7 259.82,-96.01 284,-93.5 377.29,-83.82 484.22,-79.01 559.7,-76.66"/>
<polygon fill="midnightblue" stroke="midnightblue" points="560.25,-80.15 570.13,-76.35 560.03,-73.15 560.25,-80.15"/>
</g>
<!-- Node2&#45;&gt;Node3 -->
<g id="edge2" class="edge">
<title>Node2&#45;&gt;Node3</title>
<path fill="none" stroke="midnightblue" d="M493.82,-133.52C515.99,-137.44 540.03,-141.7 562.68,-145.71"/>
<polygon fill="midnightblue" stroke="midnightblue" points="562.18,-149.18 572.64,-147.47 563.4,-142.28 562.18,-149.18"/>
</g>
<!-- Node2&#45;&gt;Node10 -->
<g id="edge9" class="edge">
<title>Node2&#45;&gt;Node10</title>
<path fill="none" stroke="midnightblue" d="M493.82,-103.48C515.99,-99.56 540.03,-95.3 562.68,-91.29"/>
<polygon fill="midnightblue" stroke="midnightblue" points="563.4,-94.72 572.64,-89.53 562.18,-87.82 563.4,-94.72"/>
</g>
<!-- Node4 -->
<g id="node4" class="node">
<title>Node4</title>
<g id="a_node4"><a xlink:href="../../d4/d15/classjavolution_1_1xml_1_1internal_1_1stream_1_1XMLStreamWriterImpl.html#a30840a3c9d170117018a3c70846800db" target="_top" xlink:title=" ">
<polygon fill="white" stroke="black" points="799,-295 799,-336 1023,-336 1023,-295 799,-295"/>
<text text-anchor="start" x="807" y="-324" font-family="Helvetica,sans-Serif" font-size="10.00">javolution.xml.internal.stream.</text>
<text text-anchor="start" x="807" y="-313" font-family="Helvetica,sans-Serif" font-size="10.00">XMLStreamWriterImpl.setAutomaticEmpty</text>
<text text-anchor="middle" x="911" y="-302" font-family="Helvetica,sans-Serif" font-size="10.00">Elements</text>
</a>
</g>
</g>
<!-- Node3&#45;&gt;Node4 -->
<g id="edge3" class="edge">
<title>Node3&#45;&gt;Node4</title>
<path fill="none" stroke="midnightblue" d="M670.42,-177.63C690.19,-203.84 734.55,-257.58 785,-285.5 788.52,-287.45 792.17,-289.27 795.91,-290.98"/>
<polygon fill="midnightblue" stroke="midnightblue" points="794.79,-294.31 805.36,-294.98 797.52,-287.86 794.79,-294.31"/>
</g>
<!-- Node5 -->
<g id="node5" class="node">
<title>Node5</title>
<g id="a_node5"><a xlink:href="../../d4/d15/classjavolution_1_1xml_1_1internal_1_1stream_1_1XMLStreamWriterImpl.html#ae91ff5d648f62882fa00f9cbfc202715" target="_top" xlink:title=" ">
<polygon fill="white" stroke="black" points="812,-245.5 812,-275.5 1010,-275.5 1010,-245.5 812,-245.5"/>
<text text-anchor="start" x="820" y="-263.5" font-family="Helvetica,sans-Serif" font-size="10.00">javolution.xml.internal.stream.</text>
<text text-anchor="middle" x="911" y="-252.5" font-family="Helvetica,sans-Serif" font-size="10.00">XMLStreamWriterImpl.setIndentation</text>
</a>
</g>
</g>
<!-- Node3&#45;&gt;Node5 -->
<g id="edge4" class="edge">
<title>Node3&#45;&gt;Node5</title>
<path fill="none" stroke="midnightblue" d="M680.13,-177.7C704.12,-194.63 745.49,-221.57 785,-236.5 790.97,-238.76 797.18,-240.81 803.51,-242.67"/>
<polygon fill="midnightblue" stroke="midnightblue" points="802.95,-246.15 813.52,-245.45 804.82,-239.41 802.95,-246.15"/>
</g>
<!-- Node6 -->
<g id="node6" class="node">
<title>Node6</title>
<g id="a_node6"><a xlink:href="../../d4/d15/classjavolution_1_1xml_1_1internal_1_1stream_1_1XMLStreamWriterImpl.html#aa463a492e6ce161d9ea92943efd68703" target="_top" xlink:title=" ">
<polygon fill="white" stroke="black" points="806,-196.5 806,-226.5 1016,-226.5 1016,-196.5 806,-196.5"/>
<text text-anchor="start" x="814" y="-214.5" font-family="Helvetica,sans-Serif" font-size="10.00">javolution.xml.internal.stream.</text>
<text text-anchor="middle" x="911" y="-203.5" font-family="Helvetica,sans-Serif" font-size="10.00">XMLStreamWriterImpl.setLineSeparator</text>
</a>
</g>
</g>
<!-- Node3&#45;&gt;Node6 -->
<g id="edge5" class="edge">
<title>Node3&#45;&gt;Node6</title>
<path fill="none" stroke="midnightblue" d="M734.47,-177.52C751.11,-180.83 768.65,-184.3 785,-187.5 796.69,-189.79 809,-192.17 821.15,-194.52"/>
<polygon fill="midnightblue" stroke="midnightblue" points="820.82,-198.02 831.3,-196.48 822.14,-191.15 820.82,-198.02"/>
</g>
<!-- Node7 -->
<g id="node7" class="node">
<title>Node7</title>
<g id="a_node7"><a xlink:href="../../d4/d15/classjavolution_1_1xml_1_1internal_1_1stream_1_1XMLStreamWriterImpl.html#ae92a2a1233e38d7399cbf30f3159ef4d" target="_top" xlink:title=" ">
<polygon fill="white" stroke="black" points="788.5,-147.5 788.5,-177.5 1033.5,-177.5 1033.5,-147.5 788.5,-147.5"/>
<text text-anchor="start" x="796.5" y="-165.5" font-family="Helvetica,sans-Serif" font-size="10.00">javolution.xml.internal.stream.</text>
<text text-anchor="middle" x="911" y="-154.5" font-family="Helvetica,sans-Serif" font-size="10.00">XMLStreamWriterImpl.setNoEmptyElementTag</text>
</a>
</g>
</g>
<!-- Node3&#45;&gt;Node7 -->
<g id="edge6" class="edge">
<title>Node3&#45;&gt;Node7</title>
<path fill="none" stroke="midnightblue" d="M749.23,-162.5C758.61,-162.5 768.27,-162.5 777.99,-162.5"/>
<polygon fill="midnightblue" stroke="midnightblue" points="778.14,-166 788.14,-162.5 778.14,-159 778.14,-166"/>
</g>
<!-- Node8 -->
<g id="node8" class="node">
<title>Node8</title>
<g id="a_node8"><a xlink:href="../../d4/d15/classjavolution_1_1xml_1_1internal_1_1stream_1_1XMLStreamWriterImpl.html#a5dfff1f37b8cbf5b37f9c648275b60bb" target="_top" xlink:title=" ">
<polygon fill="white" stroke="black" points="785,-98.5 785,-128.5 1037,-128.5 1037,-98.5 785,-98.5"/>
<text text-anchor="start" x="793" y="-116.5" font-family="Helvetica,sans-Serif" font-size="10.00">javolution.xml.internal.stream.</text>
<text text-anchor="middle" x="911" y="-105.5" font-family="Helvetica,sans-Serif" font-size="10.00">XMLStreamWriterImpl.setRepairingNamespaces</text>
</a>
</g>
</g>
<!-- Node3&#45;&gt;Node8 -->
<g id="edge7" class="edge">
<title>Node3&#45;&gt;Node8</title>
<path fill="none" stroke="midnightblue" d="M736.36,-147.47C763.89,-142.08 795.11,-135.97 823.41,-130.44"/>
<polygon fill="midnightblue" stroke="midnightblue" points="824.14,-133.86 833.28,-128.51 822.8,-126.99 824.14,-133.86"/>
</g>
<!-- Node9 -->
<g id="node9" class="node">
<title>Node9</title>
<g id="a_node9"><a xlink:href="../../d4/d15/classjavolution_1_1xml_1_1internal_1_1stream_1_1XMLStreamWriterImpl.html#a783d853bfc39b57f53ee47b962176336" target="_top" xlink:title=" ">
<polygon fill="white" stroke="black" points="802.5,-49.5 802.5,-79.5 1019.5,-79.5 1019.5,-49.5 802.5,-49.5"/>
<text text-anchor="start" x="810.5" y="-67.5" font-family="Helvetica,sans-Serif" font-size="10.00">javolution.xml.internal.stream.</text>
<text text-anchor="middle" x="911" y="-56.5" font-family="Helvetica,sans-Serif" font-size="10.00">XMLStreamWriterImpl.setRepairingPrefix</text>
</a>
</g>
</g>
<!-- Node3&#45;&gt;Node9 -->
<g id="edge8" class="edge">
<title>Node3&#45;&gt;Node9</title>
<path fill="none" stroke="midnightblue" d="M680.13,-147.3C704.12,-130.37 745.49,-103.43 785,-88.5 790.97,-86.24 797.18,-84.19 803.51,-82.33"/>
<polygon fill="midnightblue" stroke="midnightblue" points="804.82,-85.59 813.52,-79.55 802.95,-78.85 804.82,-85.59"/>
</g>
<!-- Node11 -->
<g id="node11" class="node">
<title>Node11</title>
<g id="a_node11"><a xlink:href="../../d0/dd6/classjavolution_1_1io_1_1UTF8StreamWriter.html#abd49e902f73735ba63b775d7c019684c" target="_top" xlink:title=" ">
<polygon fill="white" stroke="black" points="840.5,-0.5 840.5,-30.5 981.5,-30.5 981.5,-0.5 840.5,-0.5"/>
<text text-anchor="start" x="848.5" y="-18.5" font-family="Helvetica,sans-Serif" font-size="10.00">javolution.io.UTF8Stream</text>
<text text-anchor="middle" x="911" y="-7.5" font-family="Helvetica,sans-Serif" font-size="10.00">Writer.setOutput</text>
</a>
</g>
</g>
<!-- Node10&#45;&gt;Node11 -->
<g id="edge10" class="edge">
<title>Node10&#45;&gt;Node11</title>
<path fill="none" stroke="midnightblue" d="M709.64,-59.5C732.51,-52.92 760.01,-45.37 785,-39.5 799.65,-36.06 815.34,-32.75 830.5,-29.75"/>
<polygon fill="midnightblue" stroke="midnightblue" points="831.22,-33.17 840.36,-27.82 829.87,-26.3 831.22,-33.17"/>
</g>
</g>
</svg>
