<?xml version="1.0" encoding="UTF-8" standalone="no"?>
<!DOCTYPE svg PUBLIC "-//W3C//DTD SVG 1.1//EN"
 "http://www.w3.org/Graphics/SVG/1.1/DTD/svg11.dtd">
<!-- Generated by graphviz version 2.43.0 (0)
 -->
<!-- Title: javolution.util.internal.table.TableView.offer Pages: 1 -->
<svg width="1118pt" height="132pt"
 viewBox="0.00 0.00 1118.00 132.00" xmlns="http://www.w3.org/2000/svg" xmlns:xlink="http://www.w3.org/1999/xlink">
<g id="graph0" class="graph" transform="scale(1 1) rotate(0) translate(4 128)">
<title>javolution.util.internal.table.TableView.offer</title>
<polygon fill="white" stroke="transparent" points="-4,4 -4,-128 1114,-128 1114,4 -4,4"/>
<!-- Node1 -->
<g id="node1" class="node">
<title>Node1</title>
<g id="a_node1"><a xlink:title=" ">
<polygon fill="#bfbfbf" stroke="black" points="0,-44.5 0,-74.5 155,-74.5 155,-44.5 0,-44.5"/>
<text text-anchor="start" x="8" y="-62.5" font-family="Helvetica,sans-Serif" font-size="10.00">javolution.util.internal.table.</text>
<text text-anchor="middle" x="77.5" y="-51.5" font-family="Helvetica,sans-Serif" font-size="10.00">TableView.offer</text>
</a>
</g>
</g>
<!-- Node2 -->
<g id="node2" class="node">
<title>Node2</title>
<g id="a_node2"><a xlink:href="../../d8/d86/classjavolution_1_1util_1_1internal_1_1table_1_1TableView.html#a8b85bf183feb4483ceb067ca988b1241" target="_top" xlink:title=" ">
<polygon fill="white" stroke="black" points="191,-44.5 191,-74.5 346,-74.5 346,-44.5 191,-44.5"/>
<text text-anchor="start" x="199" y="-62.5" font-family="Helvetica,sans-Serif" font-size="10.00">javolution.util.internal.table.</text>
<text text-anchor="middle" x="268.5" y="-51.5" font-family="Helvetica,sans-Serif" font-size="10.00">TableView.offerLast</text>
</a>
</g>
</g>
<!-- Node1&#45;&gt;Node2 -->
<g id="edge1" class="edge">
<title>Node1&#45;&gt;Node2</title>
<path fill="none" stroke="midnightblue" d="M155.1,-59.5C163.56,-59.5 172.22,-59.5 180.79,-59.5"/>
<polygon fill="midnightblue" stroke="midnightblue" points="180.79,-63 190.79,-59.5 180.79,-56 180.79,-63"/>
</g>
<!-- Node3 -->
<g id="node3" class="node">
<title>Node3</title>
<g id="a_node3"><a xlink:href="../../d8/d86/classjavolution_1_1util_1_1internal_1_1table_1_1TableView.html#ab3d0b5ac5c0b886c51c1c93abcd2da42" target="_top" xlink:title=" ">
<polygon fill="white" stroke="black" points="382,-44.5 382,-74.5 537,-74.5 537,-44.5 382,-44.5"/>
<text text-anchor="start" x="390" y="-62.5" font-family="Helvetica,sans-Serif" font-size="10.00">javolution.util.internal.table.</text>
<text text-anchor="middle" x="459.5" y="-51.5" font-family="Helvetica,sans-Serif" font-size="10.00">TableView.addLast</text>
</a>
</g>
</g>
<!-- Node2&#45;&gt;Node3 -->
<g id="edge2" class="edge">
<title>Node2&#45;&gt;Node3</title>
<path fill="none" stroke="midnightblue" d="M346.1,-59.5C354.56,-59.5 363.22,-59.5 371.79,-59.5"/>
<polygon fill="midnightblue" stroke="midnightblue" points="371.79,-63 381.79,-59.5 371.79,-56 371.79,-63"/>
</g>
<!-- Node4 -->
<g id="node4" class="node">
<title>Node4</title>
<g id="a_node4"><a xlink:href="../../d8/d86/classjavolution_1_1util_1_1internal_1_1table_1_1TableView.html#a1b3e5e7fba77e785c230712c013a6aa3" target="_top" xlink:title=" ">
<polygon fill="white" stroke="black" points="573,-93.5 573,-123.5 728,-123.5 728,-93.5 573,-93.5"/>
<text text-anchor="start" x="581" y="-111.5" font-family="Helvetica,sans-Serif" font-size="10.00">javolution.util.internal.table.</text>
<text text-anchor="middle" x="650.5" y="-100.5" font-family="Helvetica,sans-Serif" font-size="10.00">TableView.add</text>
</a>
</g>
</g>
<!-- Node3&#45;&gt;Node4 -->
<g id="edge3" class="edge">
<title>Node3&#45;&gt;Node4</title>
<path fill="none" stroke="midnightblue" d="M518.49,-74.53C538.54,-79.73 561.17,-85.6 581.92,-90.98"/>
<polygon fill="midnightblue" stroke="midnightblue" points="581.06,-94.37 591.62,-93.49 582.82,-87.6 581.06,-94.37"/>
</g>
<!-- Node5 -->
<g id="node5" class="node">
<title>Node5</title>
<g id="a_node5"><a xlink:href="../../d8/d86/classjavolution_1_1util_1_1internal_1_1table_1_1TableView.html#a69e7425b9e4c16f94a60ffdce48ef118" target="_top" xlink:title=" ">
<polygon fill="white" stroke="black" points="573,-44.5 573,-74.5 728,-74.5 728,-44.5 573,-44.5"/>
<text text-anchor="start" x="581" y="-62.5" font-family="Helvetica,sans-Serif" font-size="10.00">javolution.util.internal.table.</text>
<text text-anchor="middle" x="650.5" y="-51.5" font-family="Helvetica,sans-Serif" font-size="10.00">TableView.element</text>
</a>
</g>
</g>
<!-- Node3&#45;&gt;Node5 -->
<g id="edge4" class="edge">
<title>Node3&#45;&gt;Node5</title>
<path fill="none" stroke="midnightblue" d="M537.1,-59.5C545.56,-59.5 554.22,-59.5 562.79,-59.5"/>
<polygon fill="midnightblue" stroke="midnightblue" points="562.79,-63 572.79,-59.5 562.79,-56 562.79,-63"/>
</g>
<!-- Node8 -->
<g id="node8" class="node">
<title>Node8</title>
<g id="a_node8"><a xlink:href="../../d8/d86/classjavolution_1_1util_1_1internal_1_1table_1_1TableView.html#a0879bdae86718d45952dc02671673e57" target="_top" xlink:title=" ">
<polygon fill="white" stroke="black" points="955,-0.5 955,-30.5 1110,-30.5 1110,-0.5 955,-0.5"/>
<text text-anchor="start" x="963" y="-18.5" font-family="Helvetica,sans-Serif" font-size="10.00">javolution.util.internal.table.</text>
<text text-anchor="middle" x="1032.5" y="-7.5" font-family="Helvetica,sans-Serif" font-size="10.00">TableView.size</text>
</a>
</g>
</g>
<!-- Node3&#45;&gt;Node8 -->
<g id="edge8" class="edge">
<title>Node3&#45;&gt;Node8</title>
<path fill="none" stroke="midnightblue" d="M518.83,-44.48C536.15,-40.58 555.24,-36.82 573,-34.5 701.68,-17.67 852.24,-14.57 944.73,-14.53"/>
<polygon fill="midnightblue" stroke="midnightblue" points="944.88,-18.03 954.89,-14.54 944.89,-11.03 944.88,-18.03"/>
</g>
<!-- Node6 -->
<g id="node6" class="node">
<title>Node6</title>
<g id="a_node6"><a xlink:href="../../d8/d86/classjavolution_1_1util_1_1internal_1_1table_1_1TableView.html#a771eeb8439c2be68d63ad450e50eeca4" target="_top" xlink:title=" ">
<polygon fill="white" stroke="black" points="764,-44.5 764,-74.5 919,-74.5 919,-44.5 764,-44.5"/>
<text text-anchor="start" x="772" y="-62.5" font-family="Helvetica,sans-Serif" font-size="10.00">javolution.util.internal.table.</text>
<text text-anchor="middle" x="841.5" y="-51.5" font-family="Helvetica,sans-Serif" font-size="10.00">TableView.getFirst</text>
</a>
</g>
</g>
<!-- Node5&#45;&gt;Node6 -->
<g id="edge5" class="edge">
<title>Node5&#45;&gt;Node6</title>
<path fill="none" stroke="midnightblue" d="M728.1,-59.5C736.56,-59.5 745.22,-59.5 753.79,-59.5"/>
<polygon fill="midnightblue" stroke="midnightblue" points="753.79,-63 763.79,-59.5 753.79,-56 753.79,-63"/>
</g>
<!-- Node7 -->
<g id="node7" class="node">
<title>Node7</title>
<g id="a_node7"><a xlink:href="../../d8/d86/classjavolution_1_1util_1_1internal_1_1table_1_1TableView.html#a40823a9bd3a29acd5896306e62a335d0" target="_top" xlink:title=" ">
<polygon fill="white" stroke="black" points="955,-49.5 955,-79.5 1110,-79.5 1110,-49.5 955,-49.5"/>
<text text-anchor="start" x="963" y="-67.5" font-family="Helvetica,sans-Serif" font-size="10.00">javolution.util.internal.table.</text>
<text text-anchor="middle" x="1032.5" y="-56.5" font-family="Helvetica,sans-Serif" font-size="10.00">TableView.emptyError</text>
</a>
</g>
</g>
<!-- Node6&#45;&gt;Node7 -->
<g id="edge6" class="edge">
<title>Node6&#45;&gt;Node7</title>
<path fill="none" stroke="midnightblue" d="M919.1,-61.53C927.56,-61.75 936.22,-61.98 944.79,-62.21"/>
<polygon fill="midnightblue" stroke="midnightblue" points="944.7,-65.7 954.79,-62.47 944.89,-58.71 944.7,-65.7"/>
</g>
<!-- Node6&#45;&gt;Node8 -->
<g id="edge7" class="edge">
<title>Node6&#45;&gt;Node8</title>
<path fill="none" stroke="midnightblue" d="M907.01,-44.48C923.04,-40.75 940.36,-36.72 956.83,-32.88"/>
<polygon fill="midnightblue" stroke="midnightblue" points="958.01,-36.2 966.96,-30.53 956.42,-29.38 958.01,-36.2"/>
</g>
</g>
</svg>
