<?xml version="1.0" encoding="UTF-8" standalone="no"?>
<!DOCTYPE svg PUBLIC "-//W3C//DTD SVG 1.1//EN"
 "http://www.w3.org/Graphics/SVG/1.1/DTD/svg11.dtd">
<!-- Generated by graphviz version 2.43.0 (0)
 -->
<!-- Title: javolution.util.internal.table.TableView.indexError Pages: 1 -->
<svg width="575pt" height="382pt"
 viewBox="0.00 0.00 575.00 382.00" xmlns="http://www.w3.org/2000/svg" xmlns:xlink="http://www.w3.org/1999/xlink">
<g id="graph0" class="graph" transform="scale(1 1) rotate(0) translate(4 378)">
<title>javolution.util.internal.table.TableView.indexError</title>
<polygon fill="white" stroke="transparent" points="-4,4 -4,-378 571,-378 571,4 -4,4"/>
<!-- Node1 -->
<g id="node1" class="node">
<title>Node1</title>
<g id="a_node1"><a xlink:title=" ">
<polygon fill="#bfbfbf" stroke="black" points="412,-171.5 412,-201.5 567,-201.5 567,-171.5 412,-171.5"/>
<text text-anchor="start" x="420" y="-189.5" font-family="Helvetica,sans-Serif" font-size="10.00">javolution.util.internal.table.</text>
<text text-anchor="middle" x="489.5" y="-178.5" font-family="Helvetica,sans-Serif" font-size="10.00">TableView.indexError</text>
</a>
</g>
</g>
<!-- Node2 -->
<g id="node2" class="node">
<title>Node2</title>
<g id="a_node2"><a xlink:href="../../d4/d5c/classjavolution_1_1util_1_1internal_1_1table_1_1SubTableImpl.html#af5825dfcd5d2af5abc6aaaf73f73addc" target="_top" xlink:title=" ">
<polygon fill="white" stroke="black" points="221,-343.5 221,-373.5 376,-373.5 376,-343.5 221,-343.5"/>
<text text-anchor="start" x="229" y="-361.5" font-family="Helvetica,sans-Serif" font-size="10.00">javolution.util.internal.table.</text>
<text text-anchor="middle" x="298.5" y="-350.5" font-family="Helvetica,sans-Serif" font-size="10.00">SubTableImpl.add</text>
</a>
</g>
</g>
<!-- Node1&#45;&gt;Node2 -->
<g id="edge1" class="edge">
<title>Node1&#45;&gt;Node2</title>
<path fill="none" stroke="midnightblue" d="M476.47,-210.44C458.82,-243.17 422.87,-301.57 376,-334.5 371.1,-337.94 365.69,-340.9 360.08,-343.45"/>
<polygon fill="midnightblue" stroke="midnightblue" points="479.59,-212.02 481.15,-201.54 473.4,-208.76 479.59,-212.02"/>
</g>
<!-- Node3 -->
<g id="node3" class="node">
<title>Node3</title>
<g id="a_node3"><a xlink:href="../../d9/d7a/classjavolution_1_1util_1_1internal_1_1table_1_1FastTableImpl.html#ae3172f9ea652c78e78d265d080dcd321" target="_top" xlink:title=" ">
<polygon fill="white" stroke="black" points="221,-294.5 221,-324.5 376,-324.5 376,-294.5 221,-294.5"/>
<text text-anchor="start" x="229" y="-312.5" font-family="Helvetica,sans-Serif" font-size="10.00">javolution.util.internal.table.</text>
<text text-anchor="middle" x="298.5" y="-301.5" font-family="Helvetica,sans-Serif" font-size="10.00">FastTableImpl.add</text>
</a>
</g>
</g>
<!-- Node1&#45;&gt;Node3 -->
<g id="edge2" class="edge">
<title>Node1&#45;&gt;Node3</title>
<path fill="none" stroke="midnightblue" d="M468.25,-209.16C447.2,-231.46 412.3,-265.06 376,-285.5 370.06,-288.85 363.59,-291.79 357.01,-294.37"/>
<polygon fill="midnightblue" stroke="midnightblue" points="470.86,-211.49 475.1,-201.78 465.73,-206.73 470.86,-211.49"/>
</g>
<!-- Node4 -->
<g id="node4" class="node">
<title>Node4</title>
<g id="a_node4"><a xlink:href="../../d4/d5c/classjavolution_1_1util_1_1internal_1_1table_1_1SubTableImpl.html#a00fb913521645bf8cfa498639b74a274" target="_top" xlink:title=" ">
<polygon fill="white" stroke="black" points="221,-245.5 221,-275.5 376,-275.5 376,-245.5 221,-245.5"/>
<text text-anchor="start" x="229" y="-263.5" font-family="Helvetica,sans-Serif" font-size="10.00">javolution.util.internal.table.</text>
<text text-anchor="middle" x="298.5" y="-252.5" font-family="Helvetica,sans-Serif" font-size="10.00">SubTableImpl.get</text>
</a>
</g>
</g>
<!-- Node1&#45;&gt;Node4 -->
<g id="edge3" class="edge">
<title>Node1&#45;&gt;Node4</title>
<path fill="none" stroke="midnightblue" d="M447.58,-206.04C426.45,-215.78 400.1,-227.4 376,-236.5 367.8,-239.6 359,-242.63 350.39,-245.43"/>
<polygon fill="midnightblue" stroke="midnightblue" points="449.31,-209.1 456.9,-201.71 446.36,-202.75 449.31,-209.1"/>
</g>
<!-- Node5 -->
<g id="node5" class="node">
<title>Node5</title>
<g id="a_node5"><a xlink:href="../../d9/d7a/classjavolution_1_1util_1_1internal_1_1table_1_1FastTableImpl.html#ab397ac3d612a6ebffff1b9a858474f9a" target="_top" xlink:title=" ">
<polygon fill="white" stroke="black" points="221,-196.5 221,-226.5 376,-226.5 376,-196.5 221,-196.5"/>
<text text-anchor="start" x="229" y="-214.5" font-family="Helvetica,sans-Serif" font-size="10.00">javolution.util.internal.table.</text>
<text text-anchor="middle" x="298.5" y="-203.5" font-family="Helvetica,sans-Serif" font-size="10.00">FastTableImpl.get</text>
</a>
</g>
</g>
<!-- Node1&#45;&gt;Node5 -->
<g id="edge4" class="edge">
<title>Node1&#45;&gt;Node5</title>
<path fill="none" stroke="midnightblue" d="M401.9,-197.96C393.33,-199.09 384.67,-200.23 376.21,-201.35"/>
<polygon fill="midnightblue" stroke="midnightblue" points="402.44,-201.41 411.9,-196.63 401.53,-194.47 402.44,-201.41"/>
</g>
<!-- Node6 -->
<g id="node6" class="node">
<title>Node6</title>
<g id="a_node6"><a xlink:href="../../d4/d5c/classjavolution_1_1util_1_1internal_1_1table_1_1SubTableImpl.html#abab02bfe12a71c7b6ad722eda106e9d7" target="_top" xlink:title=" ">
<polygon fill="white" stroke="black" points="221,-147.5 221,-177.5 376,-177.5 376,-147.5 221,-147.5"/>
<text text-anchor="start" x="229" y="-165.5" font-family="Helvetica,sans-Serif" font-size="10.00">javolution.util.internal.table.</text>
<text text-anchor="middle" x="298.5" y="-154.5" font-family="Helvetica,sans-Serif" font-size="10.00">SubTableImpl.remove</text>
</a>
</g>
</g>
<!-- Node1&#45;&gt;Node6 -->
<g id="edge5" class="edge">
<title>Node1&#45;&gt;Node6</title>
<path fill="none" stroke="midnightblue" d="M401.9,-175.5C393.33,-174.41 384.67,-173.32 376.21,-172.24"/>
<polygon fill="midnightblue" stroke="midnightblue" points="401.54,-178.99 411.9,-176.77 402.42,-172.04 401.54,-178.99"/>
</g>
<!-- Node7 -->
<g id="node7" class="node">
<title>Node7</title>
<g id="a_node7"><a xlink:href="../../d9/d7a/classjavolution_1_1util_1_1internal_1_1table_1_1FastTableImpl.html#a6ca79dd7969c936ae1dbdc778f00a4d2" target="_top" xlink:title=" ">
<polygon fill="white" stroke="black" points="221,-98.5 221,-128.5 376,-128.5 376,-98.5 221,-98.5"/>
<text text-anchor="start" x="229" y="-116.5" font-family="Helvetica,sans-Serif" font-size="10.00">javolution.util.internal.table.</text>
<text text-anchor="middle" x="298.5" y="-105.5" font-family="Helvetica,sans-Serif" font-size="10.00">FastTableImpl.remove</text>
</a>
</g>
</g>
<!-- Node1&#45;&gt;Node7 -->
<g id="edge6" class="edge">
<title>Node1&#45;&gt;Node7</title>
<path fill="none" stroke="midnightblue" d="M446.09,-167.36C425.16,-158.19 399.44,-147.31 376,-138.5 366.98,-135.11 357.26,-131.73 347.88,-128.6"/>
<polygon fill="midnightblue" stroke="midnightblue" points="444.77,-170.61 455.34,-171.45 447.6,-164.21 444.77,-170.61"/>
</g>
<!-- Node9 -->
<g id="node9" class="node">
<title>Node9</title>
<g id="a_node9"><a xlink:href="../../d4/d5c/classjavolution_1_1util_1_1internal_1_1table_1_1SubTableImpl.html#a9ce404b3941bf4d1ce2f91e4afb20856" target="_top" xlink:title=" ">
<polygon fill="white" stroke="black" points="221,-49.5 221,-79.5 376,-79.5 376,-49.5 221,-49.5"/>
<text text-anchor="start" x="229" y="-67.5" font-family="Helvetica,sans-Serif" font-size="10.00">javolution.util.internal.table.</text>
<text text-anchor="middle" x="298.5" y="-56.5" font-family="Helvetica,sans-Serif" font-size="10.00">SubTableImpl.set</text>
</a>
</g>
</g>
<!-- Node1&#45;&gt;Node9 -->
<g id="edge8" class="edge">
<title>Node1&#45;&gt;Node9</title>
<path fill="none" stroke="midnightblue" d="M467.48,-163.76C446.26,-142 411.61,-109.59 376,-89.5 369.31,-85.72 361.96,-82.42 354.55,-79.55"/>
<polygon fill="midnightblue" stroke="midnightblue" points="465.22,-166.46 474.67,-171.25 470.27,-161.62 465.22,-166.46"/>
</g>
<!-- Node10 -->
<g id="node10" class="node">
<title>Node10</title>
<g id="a_node10"><a xlink:href="../../d9/d7a/classjavolution_1_1util_1_1internal_1_1table_1_1FastTableImpl.html#a97c8a1a0a296c16b45dd3a73fe28fa01" target="_top" xlink:title=" ">
<polygon fill="white" stroke="black" points="221,-0.5 221,-30.5 376,-30.5 376,-0.5 221,-0.5"/>
<text text-anchor="start" x="229" y="-18.5" font-family="Helvetica,sans-Serif" font-size="10.00">javolution.util.internal.table.</text>
<text text-anchor="middle" x="298.5" y="-7.5" font-family="Helvetica,sans-Serif" font-size="10.00">FastTableImpl.set</text>
</a>
</g>
</g>
<!-- Node1&#45;&gt;Node10 -->
<g id="edge9" class="edge">
<title>Node1&#45;&gt;Node10</title>
<path fill="none" stroke="midnightblue" d="M475.83,-162.05C457.85,-129.7 421.95,-72.96 376,-40.5 370.52,-36.63 364.41,-33.33 358.09,-30.53"/>
<polygon fill="midnightblue" stroke="midnightblue" points="472.98,-164.14 480.82,-171.26 479.13,-160.8 472.98,-164.14"/>
</g>
<!-- Node8 -->
<g id="node8" class="node">
<title>Node8</title>
<g id="a_node8"><a xlink:href="../../d1/d45/classjavolution_1_1util_1_1internal_1_1table_1_1FastTableImpl_1_1IteratorImpl.html#ac261c2ec25c2710db6331700f7b2cf6a" target="_top" xlink:title=" ">
<polygon fill="white" stroke="black" points="0,-98.5 0,-128.5 185,-128.5 185,-98.5 0,-98.5"/>
<text text-anchor="start" x="8" y="-116.5" font-family="Helvetica,sans-Serif" font-size="10.00">javolution.util.internal.table.</text>
<text text-anchor="middle" x="92.5" y="-105.5" font-family="Helvetica,sans-Serif" font-size="10.00">FastTableImpl.IteratorImpl.remove</text>
</a>
</g>
</g>
<!-- Node7&#45;&gt;Node8 -->
<g id="edge7" class="edge">
<title>Node7&#45;&gt;Node8</title>
<path fill="none" stroke="midnightblue" d="M210.76,-113.5C202.32,-113.5 193.75,-113.5 185.27,-113.5"/>
<polygon fill="midnightblue" stroke="midnightblue" points="210.96,-117 220.96,-113.5 210.96,-110 210.96,-117"/>
</g>
</g>
</svg>
