<?xml version="1.0" encoding="UTF-8" standalone="no"?>
<!DOCTYPE svg PUBLIC "-//W3C//DTD SVG 1.1//EN"
 "http://www.w3.org/Graphics/SVG/1.1/DTD/svg11.dtd">
<!-- Generated by graphviz version 2.43.0 (0)
 -->
<!-- Title: javolution.util.internal.table.TableView.getFirst Pages: 1 -->
<!--zoomable 861 -->
<svg id="main" version="1.1" xmlns="http://www.w3.org/2000/svg" xmlns:xlink="http://www.w3.org/1999/xlink" xml:space="preserve" onload="init(evt)">
<style type="text/css"><![CDATA[
.edge:hover path { stroke: red; }
.edge:hover polygon { stroke: red; fill: red; }
]]></style>
<script type="text/javascript"><![CDATA[
var edges = document.getElementsByTagName('g');
if (edges && edges.length) {
  for (var i=0;i<edges.length;i++) {
    if (edges[i].id.substr(0,4)=='edge') {
      edges[i].setAttribute('class','edge');
    }
  }
}
]]></script>
        <defs>
                <circle id="rim" cx="0" cy="0" r="7"/>
                <circle id="rim2" cx="0" cy="0" r="3.5"/>
                <g id="zoomPlus">
                        <use xlink:href="#rim" fill="#404040">
                                <set attributeName="fill" to="#808080" begin="zoomplus.mouseover" end="zoomplus.mouseout"/>
                        </use>
                        <path d="M-4,0h8M0,-4v8" fill="none" stroke="white" stroke-width="1.5" pointer-events="none"/>
                </g>
                <g id="zoomMin">
                        <use xlink:href="#rim" fill="#404040">
                                <set attributeName="fill" to="#808080" begin="zoomminus.mouseover" end="zoomminus.mouseout"/>
                        </use>
                        <path d="M-4,0h8" fill="none" stroke="white" stroke-width="1.5" pointer-events="none"/>
                </g>
                <g id="dirArrow">
                        <path fill="none" stroke="white" stroke-width="1.5" d="M0,-3.0v7 M-2.5,-0.5L0,-3.0L2.5,-0.5"/>
                </g>
               <g id="resetDef">
                       <use xlink:href="#rim2" fill="#404040">
                               <set attributeName="fill" to="#808080" begin="reset.mouseover" end="reset.mouseout"/>
                       </use>
               </g>
        </defs>

<script type="text/javascript">
var viewWidth = 986;
var viewHeight = 861;
var sectionId = 'dynsection-25';
</script>
<script xlink:href="../../svgpan.js"/>
<svg id="graph" class="graph">
<g id="viewport">
<title>javolution.util.internal.table.TableView.getFirst</title>
<polygon fill="white" stroke="transparent" points="-4,4 -4,-857 982,-857 982,4 -4,4"/>
<!-- Node1 -->
<g id="node1" class="node">
<title>Node1</title>
<g id="a_node1"><a xlink:title=" ">
<polygon fill="#bfbfbf" stroke="black" points="823,-211.5 823,-241.5 978,-241.5 978,-211.5 823,-211.5"/>
<text text-anchor="start" x="831" y="-229.5" font-family="Helvetica,sans-Serif" font-size="10.00">javolution.util.internal.table.</text>
<text text-anchor="middle" x="900.5" y="-218.5" font-family="Helvetica,sans-Serif" font-size="10.00">TableView.getFirst</text>
</a>
</g>
</g>
<!-- Node2 -->
<g id="node2" class="node">
<title>Node2</title>
<g id="a_node2"><a xlink:href="../../d8/d86/classjavolution_1_1util_1_1internal_1_1table_1_1TableView.html#a69e7425b9e4c16f94a60ffdce48ef118" target="_top" xlink:title=" ">
<polygon fill="white" stroke="black" points="632,-422.5 632,-452.5 787,-452.5 787,-422.5 632,-422.5"/>
<text text-anchor="start" x="640" y="-440.5" font-family="Helvetica,sans-Serif" font-size="10.00">javolution.util.internal.table.</text>
<text text-anchor="middle" x="709.5" y="-429.5" font-family="Helvetica,sans-Serif" font-size="10.00">TableView.element</text>
</a>
</g>
</g>
<!-- Node1&#45;&gt;Node2 -->
<g id="edge1" class="edge">
<title>Node1&#45;&gt;Node2</title>
<path fill="none" stroke="midnightblue" d="M879.21,-249.15C840.41,-292.46 756.67,-385.96 723.97,-422.46"/>
<polygon fill="midnightblue" stroke="midnightblue" points="881.84,-251.46 885.91,-241.67 876.63,-246.79 881.84,-251.46"/>
</g>
<!-- Node24 -->
<g id="node24" class="node">
<title>Node24</title>
<g id="a_node24"><a xlink:href="../../d8/d86/classjavolution_1_1util_1_1internal_1_1table_1_1TableView.html#a7a0650bc6874dcc76eaed07688b08f45" target="_top" xlink:title=" ">
<polygon fill="white" stroke="black" points="632,-187.5 632,-217.5 787,-217.5 787,-187.5 632,-187.5"/>
<text text-anchor="start" x="640" y="-205.5" font-family="Helvetica,sans-Serif" font-size="10.00">javolution.util.internal.table.</text>
<text text-anchor="middle" x="709.5" y="-194.5" font-family="Helvetica,sans-Serif" font-size="10.00">TableView.peekFirst</text>
</a>
</g>
</g>
<!-- Node1&#45;&gt;Node24 -->
<g id="edge24" class="edge">
<title>Node1&#45;&gt;Node24</title>
<path fill="none" stroke="midnightblue" d="M812.9,-215.5C804.33,-214.41 795.67,-213.32 787.21,-212.24"/>
<polygon fill="midnightblue" stroke="midnightblue" points="812.54,-218.99 822.9,-216.77 813.42,-212.04 812.54,-218.99"/>
</g>
<!-- Node3 -->
<g id="node3" class="node">
<title>Node3</title>
<g id="a_node3"><a xlink:href="../../df/d83/classjavolution_1_1util_1_1internal_1_1table_1_1ReversedTableImpl.html#a3f79429b1ca15412e4e2b3cfa93cb98a" target="_top" xlink:title=" ">
<polygon fill="white" stroke="black" points="411.5,-773.5 411.5,-803.5 566.5,-803.5 566.5,-773.5 411.5,-773.5"/>
<text text-anchor="start" x="419.5" y="-791.5" font-family="Helvetica,sans-Serif" font-size="10.00">javolution.util.internal.table.</text>
<text text-anchor="middle" x="489" y="-780.5" font-family="Helvetica,sans-Serif" font-size="10.00">ReversedTableImpl.add</text>
</a>
</g>
</g>
<!-- Node2&#45;&gt;Node3 -->
<g id="edge2" class="edge">
<title>Node2&#45;&gt;Node3</title>
<path fill="none" stroke="midnightblue" d="M707.64,-462.84C704.13,-524.23 686.31,-681.85 596,-763.5 587.65,-771.04 577.46,-776.43 566.73,-780.26"/>
<polygon fill="midnightblue" stroke="midnightblue" points="711.15,-462.7 708.14,-452.54 704.16,-462.35 711.15,-462.7"/>
</g>
<!-- Node4 -->
<g id="node4" class="node">
<title>Node4</title>
<g id="a_node4"><a xlink:href="../../d4/d6c/classjavolution_1_1util_1_1internal_1_1table_1_1sorted_1_1FastSortedTableImpl.html#a15f42c89b6bc298a77cbf535e2171755" target="_top" xlink:title=" ">
<polygon fill="white" stroke="black" points="394.5,-713 394.5,-754 583.5,-754 583.5,-713 394.5,-713"/>
<text text-anchor="start" x="402.5" y="-742" font-family="Helvetica,sans-Serif" font-size="10.00">javolution.util.internal.table.sorted.</text>
<text text-anchor="start" x="402.5" y="-731" font-family="Helvetica,sans-Serif" font-size="10.00">FastSortedTableImpl&lt; Entry&lt; K,</text>
<text text-anchor="middle" x="489" y="-720" font-family="Helvetica,sans-Serif" font-size="10.00"> V &gt; &gt;::add</text>
</a>
</g>
</g>
<!-- Node2&#45;&gt;Node4 -->
<g id="edge3" class="edge">
<title>Node2&#45;&gt;Node4</title>
<path fill="none" stroke="midnightblue" d="M705.13,-462.97C696.75,-515.86 670.05,-638.13 596,-703.5 591.99,-707.04 587.58,-710.17 582.92,-712.93"/>
<polygon fill="midnightblue" stroke="midnightblue" points="708.63,-463.18 706.65,-452.78 701.71,-462.15 708.63,-463.18"/>
</g>
<!-- Node5 -->
<g id="node5" class="node">
<title>Node5</title>
<g id="a_node5"><a xlink:href="../../d4/d5c/classjavolution_1_1util_1_1internal_1_1table_1_1SubTableImpl.html#a0f04e8b2e310230fb29f48e1f1dba876" target="_top" xlink:title=" ">
<polygon fill="white" stroke="black" points="411.5,-663.5 411.5,-693.5 566.5,-693.5 566.5,-663.5 411.5,-663.5"/>
<text text-anchor="start" x="419.5" y="-681.5" font-family="Helvetica,sans-Serif" font-size="10.00">javolution.util.internal.table.</text>
<text text-anchor="middle" x="489" y="-670.5" font-family="Helvetica,sans-Serif" font-size="10.00">SubTableImpl.add</text>
</a>
</g>
</g>
<!-- Node2&#45;&gt;Node5 -->
<g id="edge4" class="edge">
<title>Node2&#45;&gt;Node5</title>
<path fill="none" stroke="midnightblue" d="M702.86,-462.66C691.26,-508.37 660.21,-604.92 596,-654.5 587.34,-661.19 577.16,-666.08 566.6,-669.64"/>
<polygon fill="midnightblue" stroke="midnightblue" points="706.32,-463.24 705.29,-452.69 699.52,-461.58 706.32,-463.24"/>
</g>
<!-- Node6 -->
<g id="node6" class="node">
<title>Node6</title>
<g id="a_node6"><a xlink:href="../../d9/d7a/classjavolution_1_1util_1_1internal_1_1table_1_1FastTableImpl.html#a3ef1cbcb3342302359defd9104eebec3" target="_top" xlink:title=" ">
<polygon fill="white" stroke="black" points="191,-490.5 191,-520.5 346,-520.5 346,-490.5 191,-490.5"/>
<text text-anchor="start" x="199" y="-508.5" font-family="Helvetica,sans-Serif" font-size="10.00">javolution.util.internal.table.</text>
<text text-anchor="middle" x="268.5" y="-497.5" font-family="Helvetica,sans-Serif" font-size="10.00">FastTableImpl.add</text>
</a>
</g>
</g>
<!-- Node2&#45;&gt;Node6 -->
<g id="edge5" class="edge">
<title>Node2&#45;&gt;Node6</title>
<path fill="none" stroke="midnightblue" d="M696.03,-461.66C678.49,-492.65 643.31,-544.98 596,-566.5 509.42,-605.87 474.19,-589.89 382,-566.5 347.11,-557.65 311.33,-535.57 289.75,-520.55"/>
<polygon fill="midnightblue" stroke="midnightblue" points="699.16,-463.23 700.9,-452.78 693.02,-459.86 699.16,-463.23"/>
</g>
<!-- Node7 -->
<g id="node7" class="node">
<title>Node7</title>
<g id="a_node7"><a xlink:href="../../d8/d86/classjavolution_1_1util_1_1internal_1_1table_1_1TableView.html#a7fb8c91dad5adf2ab9424d729baba96a" target="_top" xlink:title=" ">
<polygon fill="white" stroke="black" points="411.5,-614.5 411.5,-644.5 566.5,-644.5 566.5,-614.5 411.5,-614.5"/>
<text text-anchor="start" x="419.5" y="-632.5" font-family="Helvetica,sans-Serif" font-size="10.00">javolution.util.internal.table.</text>
<text text-anchor="middle" x="489" y="-621.5" font-family="Helvetica,sans-Serif" font-size="10.00">TableView.addFirst</text>
</a>
</g>
</g>
<!-- Node2&#45;&gt;Node7 -->
<g id="edge6" class="edge">
<title>Node2&#45;&gt;Node7</title>
<path fill="none" stroke="midnightblue" d="M698.18,-461.81C681.79,-497.43 646.44,-563.5 596,-599.5 587.2,-605.78 577.13,-610.74 566.76,-614.67"/>
<polygon fill="midnightblue" stroke="midnightblue" points="701.4,-463.17 702.29,-452.61 695.01,-460.31 701.4,-463.17"/>
</g>
<!-- Node10 -->
<g id="node10" class="node">
<title>Node10</title>
<g id="a_node10"><a xlink:href="../../d9/d7a/classjavolution_1_1util_1_1internal_1_1table_1_1FastTableImpl.html#a1f1d147e35953446eb1d0341800e0f77" target="_top" xlink:title=" ">
<polygon fill="white" stroke="black" points="411.5,-526.5 411.5,-556.5 566.5,-556.5 566.5,-526.5 411.5,-526.5"/>
<text text-anchor="start" x="419.5" y="-544.5" font-family="Helvetica,sans-Serif" font-size="10.00">javolution.util.internal.table.</text>
<text text-anchor="middle" x="489" y="-533.5" font-family="Helvetica,sans-Serif" font-size="10.00">FastTableImpl.addFirst</text>
</a>
</g>
</g>
<!-- Node2&#45;&gt;Node10 -->
<g id="edge9" class="edge">
<title>Node2&#45;&gt;Node10</title>
<path fill="none" stroke="midnightblue" d="M684.19,-459.15C662.52,-477.34 629.18,-502.67 596,-517.5 586.78,-521.62 576.79,-525.07 566.75,-527.94"/>
<polygon fill="midnightblue" stroke="midnightblue" points="686.57,-461.73 691.9,-452.57 682.02,-456.4 686.57,-461.73"/>
</g>
<!-- Node11 -->
<g id="node11" class="node">
<title>Node11</title>
<g id="a_node11"><a xlink:href="../../dc/d36/classjavolution_1_1util_1_1internal_1_1table_1_1sorted_1_1SortedTableView.html#a7e35945b09424fbed6bb68637926e1cd" target="_top" xlink:title=" ">
<polygon fill="white" stroke="black" points="394.5,-477.5 394.5,-507.5 583.5,-507.5 583.5,-477.5 394.5,-477.5"/>
<text text-anchor="start" x="402.5" y="-495.5" font-family="Helvetica,sans-Serif" font-size="10.00">javolution.util.internal.table.sorted.</text>
<text text-anchor="middle" x="489" y="-484.5" font-family="Helvetica,sans-Serif" font-size="10.00">SortedTableView.addIfAbsent</text>
</a>
</g>
</g>
<!-- Node2&#45;&gt;Node11 -->
<g id="edge10" class="edge">
<title>Node2&#45;&gt;Node11</title>
<path fill="none" stroke="midnightblue" d="M643.35,-455.22C627.85,-459.34 611.36,-463.64 596,-467.5 582.8,-470.82 568.64,-474.25 555.1,-477.46"/>
<polygon fill="midnightblue" stroke="midnightblue" points="644.61,-458.5 653.36,-452.54 642.8,-451.74 644.61,-458.5"/>
</g>
<!-- Node12 -->
<g id="node12" class="node">
<title>Node12</title>
<g id="a_node12"><a xlink:href="../../d4/d6c/classjavolution_1_1util_1_1internal_1_1table_1_1sorted_1_1FastSortedTableImpl.html#a897c9e082cb6e8c4cce52806cb76080d" target="_top" xlink:title=" ">
<polygon fill="white" stroke="black" points="394.5,-417 394.5,-458 583.5,-458 583.5,-417 394.5,-417"/>
<text text-anchor="start" x="402.5" y="-446" font-family="Helvetica,sans-Serif" font-size="10.00">javolution.util.internal.table.sorted.</text>
<text text-anchor="start" x="402.5" y="-435" font-family="Helvetica,sans-Serif" font-size="10.00">FastSortedTableImpl&lt; Entry&lt; K,</text>
<text text-anchor="middle" x="489" y="-424" font-family="Helvetica,sans-Serif" font-size="10.00"> V &gt; &gt;::addIfAbsent</text>
</a>
</g>
</g>
<!-- Node2&#45;&gt;Node12 -->
<g id="edge11" class="edge">
<title>Node2&#45;&gt;Node12</title>
<path fill="none" stroke="midnightblue" d="M621.48,-437.5C609.1,-437.5 596.32,-437.5 583.82,-437.5"/>
<polygon fill="midnightblue" stroke="midnightblue" points="621.77,-441 631.77,-437.5 621.77,-434 621.77,-441"/>
</g>
<!-- Node13 -->
<g id="node13" class="node">
<title>Node13</title>
<g id="a_node13"><a xlink:href="../../d8/d86/classjavolution_1_1util_1_1internal_1_1table_1_1TableView.html#ab3d0b5ac5c0b886c51c1c93abcd2da42" target="_top" xlink:title=" ">
<polygon fill="white" stroke="black" points="411.5,-318.5 411.5,-348.5 566.5,-348.5 566.5,-318.5 411.5,-318.5"/>
<text text-anchor="start" x="419.5" y="-336.5" font-family="Helvetica,sans-Serif" font-size="10.00">javolution.util.internal.table.</text>
<text text-anchor="middle" x="489" y="-325.5" font-family="Helvetica,sans-Serif" font-size="10.00">TableView.addLast</text>
</a>
</g>
</g>
<!-- Node2&#45;&gt;Node13 -->
<g id="edge12" class="edge">
<title>Node2&#45;&gt;Node13</title>
<path fill="none" stroke="midnightblue" d="M683.73,-415.89C662,-398.01 628.82,-373.23 596,-358.5 586.77,-354.36 576.77,-350.85 566.72,-347.9"/>
<polygon fill="midnightblue" stroke="midnightblue" points="681.56,-418.64 691.47,-422.37 686.05,-413.27 681.56,-418.64"/>
</g>
<!-- Node16 -->
<g id="node16" class="node">
<title>Node16</title>
<g id="a_node16"><a xlink:href="../../d9/d7a/classjavolution_1_1util_1_1internal_1_1table_1_1FastTableImpl.html#aaba641e6bd1d2d0cfb35e58043ff8495" target="_top" xlink:title=" ">
<polygon fill="white" stroke="black" points="411.5,-367.5 411.5,-397.5 566.5,-397.5 566.5,-367.5 411.5,-367.5"/>
<text text-anchor="start" x="419.5" y="-385.5" font-family="Helvetica,sans-Serif" font-size="10.00">javolution.util.internal.table.</text>
<text text-anchor="middle" x="489" y="-374.5" font-family="Helvetica,sans-Serif" font-size="10.00">FastTableImpl.addLast</text>
</a>
</g>
</g>
<!-- Node2&#45;&gt;Node16 -->
<g id="edge15" class="edge">
<title>Node2&#45;&gt;Node16</title>
<path fill="none" stroke="midnightblue" d="M643.35,-419.78C627.85,-415.66 611.36,-411.36 596,-407.5 582.8,-404.18 568.64,-400.75 555.1,-397.54"/>
<polygon fill="midnightblue" stroke="midnightblue" points="642.8,-423.26 653.36,-422.46 644.61,-416.5 642.8,-423.26"/>
</g>
<!-- Node18 -->
<g id="node18" class="node">
<title>Node18</title>
<g id="a_node18"><a xlink:href="../../d4/d6c/classjavolution_1_1util_1_1internal_1_1table_1_1sorted_1_1FastSortedTableImpl.html#aee2baac6fd0e3944be5ca76b813ede48" target="_top" xlink:title=" ">
<polygon fill="white" stroke="black" points="394.5,-258 394.5,-299 583.5,-299 583.5,-258 394.5,-258"/>
<text text-anchor="start" x="402.5" y="-287" font-family="Helvetica,sans-Serif" font-size="10.00">javolution.util.internal.table.sorted.</text>
<text text-anchor="start" x="402.5" y="-276" font-family="Helvetica,sans-Serif" font-size="10.00">FastSortedTableImpl&lt; Entry&lt; K,</text>
<text text-anchor="middle" x="489" y="-265" font-family="Helvetica,sans-Serif" font-size="10.00"> V &gt; &gt;::indexOf</text>
</a>
</g>
</g>
<!-- Node2&#45;&gt;Node18 -->
<g id="edge18" class="edge">
<title>Node2&#45;&gt;Node18</title>
<path fill="none" stroke="midnightblue" d="M693.79,-413.75C674.72,-384.91 638.78,-336.75 596,-309.5 589.77,-305.53 583.02,-302.06 576.05,-299.02"/>
<polygon fill="midnightblue" stroke="midnightblue" points="691.01,-415.89 699.38,-422.39 696.88,-412.09 691.01,-415.89"/>
</g>
<!-- Node19 -->
<g id="node19" class="node">
<title>Node19</title>
<g id="a_node19"><a xlink:href="../../d3/dad/classjavolution_1_1util_1_1internal_1_1table_1_1sorted_1_1UnmodifiableSortedTableImpl.html#a55b0760474b6c7f093ea54eb13acc1d9" target="_top" xlink:title=" ">
<polygon fill="white" stroke="black" points="382,-208.5 382,-238.5 596,-238.5 596,-208.5 382,-208.5"/>
<text text-anchor="start" x="390" y="-226.5" font-family="Helvetica,sans-Serif" font-size="10.00">javolution.util.internal.table.sorted.</text>
<text text-anchor="middle" x="489" y="-215.5" font-family="Helvetica,sans-Serif" font-size="10.00">UnmodifiableSortedTableImpl.positionOf</text>
</a>
</g>
</g>
<!-- Node2&#45;&gt;Node19 -->
<g id="edge19" class="edge">
<title>Node2&#45;&gt;Node19</title>
<path fill="none" stroke="midnightblue" d="M700.88,-412.75C686.98,-371.89 653.5,-290.67 596,-248.5 590.74,-244.64 584.97,-241.37 578.93,-238.6"/>
<polygon fill="midnightblue" stroke="midnightblue" points="697.62,-414.04 704.07,-422.45 704.27,-411.85 697.62,-414.04"/>
</g>
<!-- Node20 -->
<g id="node20" class="node">
<title>Node20</title>
<g id="a_node20"><a xlink:href="../../d4/d6c/classjavolution_1_1util_1_1internal_1_1table_1_1sorted_1_1FastSortedTableImpl.html#a20e097ff018e1e258ae918b83754a4ec" target="_top" xlink:title=" ">
<polygon fill="white" stroke="black" points="394.5,-148 394.5,-189 583.5,-189 583.5,-148 394.5,-148"/>
<text text-anchor="start" x="402.5" y="-177" font-family="Helvetica,sans-Serif" font-size="10.00">javolution.util.internal.table.sorted.</text>
<text text-anchor="start" x="402.5" y="-166" font-family="Helvetica,sans-Serif" font-size="10.00">FastSortedTableImpl&lt; Entry&lt; K,</text>
<text text-anchor="middle" x="489" y="-155" font-family="Helvetica,sans-Serif" font-size="10.00"> V &gt; &gt;::positionOf</text>
</a>
</g>
</g>
<!-- Node2&#45;&gt;Node20 -->
<g id="edge20" class="edge">
<title>Node2&#45;&gt;Node20</title>
<path fill="none" stroke="midnightblue" d="M703.81,-412.24C693.43,-363.45 663.8,-255.99 596,-198.5 591.84,-194.97 587.3,-191.86 582.5,-189.11"/>
<polygon fill="midnightblue" stroke="midnightblue" points="700.43,-413.15 705.85,-422.26 707.29,-411.76 700.43,-413.15"/>
</g>
<!-- Node21 -->
<g id="node21" class="node">
<title>Node21</title>
<g id="a_node21"><a xlink:href="../../df/d83/classjavolution_1_1util_1_1internal_1_1table_1_1ReversedTableImpl.html#a801f9ccb6c96ed1f3bb51ba218cadeec" target="_top" xlink:title=" ">
<polygon fill="white" stroke="black" points="411.5,-98.5 411.5,-128.5 566.5,-128.5 566.5,-98.5 411.5,-98.5"/>
<text text-anchor="start" x="419.5" y="-116.5" font-family="Helvetica,sans-Serif" font-size="10.00">javolution.util.internal.table.</text>
<text text-anchor="middle" x="489" y="-105.5" font-family="Helvetica,sans-Serif" font-size="10.00">ReversedTableImpl.set</text>
</a>
</g>
</g>
<!-- Node2&#45;&gt;Node21 -->
<g id="edge21" class="edge">
<title>Node2&#45;&gt;Node21</title>
<path fill="none" stroke="midnightblue" d="M699.5,-412.64C673.78,-341.74 601.47,-143.31 596,-138.5 587.55,-131.07 577.3,-125.75 566.55,-121.95"/>
<polygon fill="midnightblue" stroke="midnightblue" points="696.24,-413.93 702.94,-422.14 702.82,-411.54 696.24,-413.93"/>
</g>
<!-- Node22 -->
<g id="node22" class="node">
<title>Node22</title>
<g id="a_node22"><a xlink:href="../../d4/d5c/classjavolution_1_1util_1_1internal_1_1table_1_1SubTableImpl.html#a9ce404b3941bf4d1ce2f91e4afb20856" target="_top" xlink:title=" ">
<polygon fill="white" stroke="black" points="411.5,-49.5 411.5,-79.5 566.5,-79.5 566.5,-49.5 411.5,-49.5"/>
<text text-anchor="start" x="419.5" y="-67.5" font-family="Helvetica,sans-Serif" font-size="10.00">javolution.util.internal.table.</text>
<text text-anchor="middle" x="489" y="-56.5" font-family="Helvetica,sans-Serif" font-size="10.00">SubTableImpl.set</text>
</a>
</g>
</g>
<!-- Node2&#45;&gt;Node22 -->
<g id="edge22" class="edge">
<title>Node2&#45;&gt;Node22</title>
<path fill="none" stroke="midnightblue" d="M698.7,-412.8C683.36,-373.66 653.24,-294.81 632,-226.5 613.18,-165.97 641.54,-132.59 596,-88.5 587.8,-80.56 577.55,-75.03 566.69,-71.22"/>
<polygon fill="midnightblue" stroke="midnightblue" points="695.52,-414.29 702.44,-422.31 702.04,-411.72 695.52,-414.29"/>
</g>
<!-- Node23 -->
<g id="node23" class="node">
<title>Node23</title>
<g id="a_node23"><a xlink:href="../../d9/d7a/classjavolution_1_1util_1_1internal_1_1table_1_1FastTableImpl.html#a97c8a1a0a296c16b45dd3a73fe28fa01" target="_top" xlink:title=" ">
<polygon fill="white" stroke="black" points="411.5,-822.5 411.5,-852.5 566.5,-852.5 566.5,-822.5 411.5,-822.5"/>
<text text-anchor="start" x="419.5" y="-840.5" font-family="Helvetica,sans-Serif" font-size="10.00">javolution.util.internal.table.</text>
<text text-anchor="middle" x="489" y="-829.5" font-family="Helvetica,sans-Serif" font-size="10.00">FastTableImpl.set</text>
</a>
</g>
</g>
<!-- Node2&#45;&gt;Node23 -->
<g id="edge23" class="edge">
<title>Node2&#45;&gt;Node23</title>
<path fill="none" stroke="midnightblue" d="M709.04,-462.99C709.01,-530.84 699.06,-717.23 596,-813.5 587.73,-821.23 577.51,-826.65 566.71,-830.43"/>
<polygon fill="midnightblue" stroke="midnightblue" points="712.54,-462.77 708.97,-452.8 705.54,-462.82 712.54,-462.77"/>
</g>
<!-- Node8 -->
<g id="node8" class="node">
<title>Node8</title>
<g id="a_node8"><a xlink:href="../../d8/d86/classjavolution_1_1util_1_1internal_1_1table_1_1TableView.html#a466a95b48ad60c8e715a53ae948597d6" target="_top" xlink:title=" ">
<polygon fill="white" stroke="black" points="191,-589.5 191,-619.5 346,-619.5 346,-589.5 191,-589.5"/>
<text text-anchor="start" x="199" y="-607.5" font-family="Helvetica,sans-Serif" font-size="10.00">javolution.util.internal.table.</text>
<text text-anchor="middle" x="268.5" y="-596.5" font-family="Helvetica,sans-Serif" font-size="10.00">TableView.offerFirst</text>
</a>
</g>
</g>
<!-- Node7&#45;&gt;Node8 -->
<g id="edge7" class="edge">
<title>Node7&#45;&gt;Node8</title>
<path fill="none" stroke="midnightblue" d="M401.24,-619.57C383,-617.49 363.88,-615.3 346.04,-613.26"/>
<polygon fill="midnightblue" stroke="midnightblue" points="400.94,-623.06 411.27,-620.72 401.74,-616.11 400.94,-623.06"/>
</g>
<!-- Node9 -->
<g id="node9" class="node">
<title>Node9</title>
<g id="a_node9"><a xlink:href="../../d8/d86/classjavolution_1_1util_1_1internal_1_1table_1_1TableView.html#a294d792793a610014b482b0f5091f10a" target="_top" xlink:title=" ">
<polygon fill="white" stroke="black" points="191,-638.5 191,-668.5 346,-668.5 346,-638.5 191,-638.5"/>
<text text-anchor="start" x="199" y="-656.5" font-family="Helvetica,sans-Serif" font-size="10.00">javolution.util.internal.table.</text>
<text text-anchor="middle" x="268.5" y="-645.5" font-family="Helvetica,sans-Serif" font-size="10.00">TableView.push</text>
</a>
</g>
</g>
<!-- Node7&#45;&gt;Node9 -->
<g id="edge8" class="edge">
<title>Node7&#45;&gt;Node9</title>
<path fill="none" stroke="midnightblue" d="M401.24,-639.03C383,-641.03 363.88,-643.13 346.04,-645.09"/>
<polygon fill="midnightblue" stroke="midnightblue" points="401.71,-642.5 411.27,-637.93 400.95,-635.54 401.71,-642.5"/>
</g>
<!-- Node14 -->
<g id="node14" class="node">
<title>Node14</title>
<g id="a_node14"><a xlink:href="../../d8/d86/classjavolution_1_1util_1_1internal_1_1table_1_1TableView.html#a8b85bf183feb4483ceb067ca988b1241" target="_top" xlink:title=" ">
<polygon fill="white" stroke="black" points="191,-318.5 191,-348.5 346,-348.5 346,-318.5 191,-318.5"/>
<text text-anchor="start" x="199" y="-336.5" font-family="Helvetica,sans-Serif" font-size="10.00">javolution.util.internal.table.</text>
<text text-anchor="middle" x="268.5" y="-325.5" font-family="Helvetica,sans-Serif" font-size="10.00">TableView.offerLast</text>
</a>
</g>
</g>
<!-- Node13&#45;&gt;Node14 -->
<g id="edge13" class="edge">
<title>Node13&#45;&gt;Node14</title>
<path fill="none" stroke="midnightblue" d="M401.24,-333.5C383,-333.5 363.88,-333.5 346.04,-333.5"/>
<polygon fill="midnightblue" stroke="midnightblue" points="401.27,-337 411.27,-333.5 401.27,-330 401.27,-337"/>
</g>
<!-- Node15 -->
<g id="node15" class="node">
<title>Node15</title>
<g id="a_node15"><a xlink:href="../../d8/d86/classjavolution_1_1util_1_1internal_1_1table_1_1TableView.html#adad56174ae447605044d82ef3f664547" target="_top" xlink:title=" ">
<polygon fill="white" stroke="black" points="0,-318.5 0,-348.5 155,-348.5 155,-318.5 0,-318.5"/>
<text text-anchor="start" x="8" y="-336.5" font-family="Helvetica,sans-Serif" font-size="10.00">javolution.util.internal.table.</text>
<text text-anchor="middle" x="77.5" y="-325.5" font-family="Helvetica,sans-Serif" font-size="10.00">TableView.offer</text>
</a>
</g>
</g>
<!-- Node14&#45;&gt;Node15 -->
<g id="edge14" class="edge">
<title>Node14&#45;&gt;Node15</title>
<path fill="none" stroke="midnightblue" d="M180.9,-333.5C172.33,-333.5 163.67,-333.5 155.21,-333.5"/>
<polygon fill="midnightblue" stroke="midnightblue" points="180.9,-337 190.9,-333.5 180.9,-330 180.9,-337"/>
</g>
<!-- Node16&#45;&gt;Node6 -->
<g id="edge16" class="edge">
<title>Node16&#45;&gt;Node6</title>
<path fill="none" stroke="midnightblue" d="M401.46,-399.15C394.73,-401.57 388.16,-404.34 382,-407.5 340.52,-428.79 301.75,-468.59 282.39,-490.35"/>
<polygon fill="midnightblue" stroke="midnightblue" points="403.02,-402.32 411.41,-395.84 400.81,-395.67 403.02,-402.32"/>
</g>
<!-- Node17 -->
<g id="node17" class="node">
<title>Node17</title>
<g id="a_node17"><a xlink:href="../../d9/d7a/classjavolution_1_1util_1_1internal_1_1table_1_1FastTableImpl.html#ac6df68538a497b1a3dc01cee2c1f4f66" target="_top" xlink:title=" ">
<polygon fill="white" stroke="black" points="191,-367.5 191,-397.5 346,-397.5 346,-367.5 191,-367.5"/>
<text text-anchor="start" x="199" y="-385.5" font-family="Helvetica,sans-Serif" font-size="10.00">javolution.util.internal.table.</text>
<text text-anchor="middle" x="268.5" y="-374.5" font-family="Helvetica,sans-Serif" font-size="10.00">FastTableImpl.readObject</text>
</a>
</g>
</g>
<!-- Node16&#45;&gt;Node17 -->
<g id="edge17" class="edge">
<title>Node16&#45;&gt;Node17</title>
<path fill="none" stroke="midnightblue" d="M401.24,-382.5C383,-382.5 363.88,-382.5 346.04,-382.5"/>
<polygon fill="midnightblue" stroke="midnightblue" points="401.27,-386 411.27,-382.5 401.27,-379 401.27,-386"/>
</g>
<!-- Node25 -->
<g id="node25" class="node">
<title>Node25</title>
<g id="a_node25"><a xlink:href="../../d8/d86/classjavolution_1_1util_1_1internal_1_1table_1_1TableView.html#aa5a3ee5cdf7818e3b4e786fc38234b71" target="_top" xlink:title=" ">
<polygon fill="white" stroke="black" points="411.5,-0.5 411.5,-30.5 566.5,-30.5 566.5,-0.5 411.5,-0.5"/>
<text text-anchor="start" x="419.5" y="-18.5" font-family="Helvetica,sans-Serif" font-size="10.00">javolution.util.internal.table.</text>
<text text-anchor="middle" x="489" y="-7.5" font-family="Helvetica,sans-Serif" font-size="10.00">TableView.peek</text>
</a>
</g>
</g>
<!-- Node24&#45;&gt;Node25 -->
<g id="edge25" class="edge">
<title>Node24&#45;&gt;Node25</title>
<path fill="none" stroke="midnightblue" d="M698.46,-177.69C682.44,-141.4 647.55,-74.36 596,-39.5 587.17,-33.53 577.07,-29.02 566.7,-25.63"/>
<polygon fill="midnightblue" stroke="midnightblue" points="695.32,-179.25 702.48,-187.06 701.75,-176.49 695.32,-179.25"/>
</g>
</g>
</svg>
        <g id="navigator" transform="translate(0 0)" fill="#404254">
                <rect fill="#f2f5e9" fill-opacity="0.5" stroke="#606060" stroke-width=".5" x="0" y="0" width="60" height="60"/>
                <use id="zoomplus" xlink:href="#zoomPlus" x="17" y="9" onmousedown="handleZoom(evt,'in')"/>
                <use id="zoomminus" xlink:href="#zoomMin" x="42" y="9" onmousedown="handleZoom(evt,'out')"/>
                <use id="reset" xlink:href="#resetDef" x="30" y="36" onmousedown="handleReset()"/>
                <g id="arrowUp" xlink:href="#dirArrow" transform="translate(30 24)" onmousedown="handlePan(0,-1)">
                  <use xlink:href="#rim" fill="#404040">
                        <set attributeName="fill" to="#808080" begin="arrowUp.mouseover" end="arrowUp.mouseout"/>
                  </use>
                  <path fill="none" stroke="white" stroke-width="1.5" d="M0,-3.0v7 M-2.5,-0.5L0,-3.0L2.5,-0.5"/>
                </g>
                <g id="arrowRight" xlink:href="#dirArrow" transform="rotate(90) translate(36 -43)" onmousedown="handlePan(1,0)">
                  <use xlink:href="#rim" fill="#404040">
                        <set attributeName="fill" to="#808080" begin="arrowRight.mouseover" end="arrowRight.mouseout"/>
                  </use>
                  <path fill="none" stroke="white" stroke-width="1.5" d="M0,-3.0v7 M-2.5,-0.5L0,-3.0L2.5,-0.5"/>
                </g>
                <g id="arrowDown" xlink:href="#dirArrow" transform="rotate(180) translate(-30 -48)" onmousedown="handlePan(0,1)">
                  <use xlink:href="#rim" fill="#404040">
                        <set attributeName="fill" to="#808080" begin="arrowDown.mouseover" end="arrowDown.mouseout"/>
                  </use>
                  <path fill="none" stroke="white" stroke-width="1.5" d="M0,-3.0v7 M-2.5,-0.5L0,-3.0L2.5,-0.5"/>
                </g>
                <g id="arrowLeft" xlink:href="#dirArrow" transform="rotate(270) translate(-36 17)" onmousedown="handlePan(-1,0)">
                  <use xlink:href="#rim" fill="#404040">
                        <set attributeName="fill" to="#808080" begin="arrowLeft.mouseover" end="arrowLeft.mouseout"/>
                  </use>
                  <path fill="none" stroke="white" stroke-width="1.5" d="M0,-3.0v7 M-2.5,-0.5L0,-3.0L2.5,-0.5"/>
                </g>
        </g>
        <svg viewBox="0 0 15 15" width="100%" height="30px" preserveAspectRatio="xMaxYMin meet">
         <g id="arrow_out" transform="scale(0.3 0.3)">
          <a xlink:href="classjavolution_1_1util_1_1internal_1_1table_1_1TableView_a771eeb8439c2be68d63ad450e50eeca4_icgraph_org.svg" target="_base">
           <rect id="button" ry="5" rx="5" y="6" x="6" height="38" width="38"
                fill="#f2f5e9" fill-opacity="0.5" stroke="#606060" stroke-width="1.0"/>
           <path id="arrow"
             d="M 11.500037,31.436501 C 11.940474,20.09759 22.043105,11.32322 32.158766,21.979434 L 37.068811,17.246167 C 37.068811,17.246167 37.088388,32 37.088388,32 L 22.160133,31.978069 C 22.160133,31.978069 26.997745,27.140456 26.997745,27.140456 C 18.528582,18.264221 13.291696,25.230495 11.500037,31.436501 z"
             style="fill:#404040;"/>
          </a>
         </g>
        </svg>
</svg>
