<?xml version="1.0" encoding="UTF-8" standalone="no"?>
<!DOCTYPE svg PUBLIC "-//W3C//DTD SVG 1.1//EN"
 "http://www.w3.org/Graphics/SVG/1.1/DTD/svg11.dtd">
<!-- Generated by graphviz version 2.43.0 (0)
 -->
<!-- Title: javolution.util.internal.table.TableView.target Pages: 1 -->
<svg width="601pt" height="1074pt"
 viewBox="0.00 0.00 601.00 1073.96" xmlns="http://www.w3.org/2000/svg" xmlns:xlink="http://www.w3.org/1999/xlink">
<g id="graph0" class="graph" transform="scale(1 1) rotate(0) translate(4 1069.96)">
<title>javolution.util.internal.table.TableView.target</title>
<polygon fill="white" stroke="transparent" points="-4,4 -4,-1069.96 597,-1069.96 597,4 -4,4"/>
<!-- Node1 -->
<g id="node1" class="node">
<title>Node1</title>
<g id="a_node1"><a xlink:title=" ">
<polygon fill="#bfbfbf" stroke="black" points="438,-551 438,-581 593,-581 593,-551 438,-551"/>
<text text-anchor="start" x="446" y="-569" font-family="Helvetica,sans-Serif" font-size="10.00">javolution.util.internal.table.</text>
<text text-anchor="middle" x="515.5" y="-558" font-family="Helvetica,sans-Serif" font-size="10.00">TableView.target</text>
</a>
</g>
</g>
<!-- Node2 -->
<g id="node2" class="node">
<title>Node2</title>
<g id="a_node2"><a xlink:href="../../df/d83/classjavolution_1_1util_1_1internal_1_1table_1_1ReversedTableImpl.html#a3f79429b1ca15412e4e2b3cfa93cb98a" target="_top" xlink:title=" ">
<polygon fill="white" stroke="black" points="7,-1034 7,-1064 162,-1064 162,-1034 7,-1034"/>
<text text-anchor="start" x="15" y="-1052" font-family="Helvetica,sans-Serif" font-size="10.00">javolution.util.internal.table.</text>
<text text-anchor="middle" x="84.5" y="-1041" font-family="Helvetica,sans-Serif" font-size="10.00">ReversedTableImpl.add</text>
</a>
</g>
</g>
<!-- Node1&#45;&gt;Node2 -->
<g id="edge1" class="edge">
<title>Node1&#45;&gt;Node2</title>
<path fill="none" stroke="midnightblue" d="M511.81,-591.63C502.2,-677.87 466.7,-955.25 402,-1012 336.91,-1069.09 233.12,-1070.21 162.27,-1062.45"/>
<polygon fill="midnightblue" stroke="midnightblue" points="515.32,-591.75 512.92,-581.43 508.36,-590.99 515.32,-591.75"/>
</g>
<!-- Node3 -->
<g id="node3" class="node">
<title>Node3</title>
<g id="a_node3"><a xlink:href="../../d4/d5c/classjavolution_1_1util_1_1internal_1_1table_1_1SubTableImpl.html#a0f04e8b2e310230fb29f48e1f1dba876" target="_top" xlink:title=" ">
<polygon fill="white" stroke="black" points="226,-747 226,-777 381,-777 381,-747 226,-747"/>
<text text-anchor="start" x="234" y="-765" font-family="Helvetica,sans-Serif" font-size="10.00">javolution.util.internal.table.</text>
<text text-anchor="middle" x="303.5" y="-754" font-family="Helvetica,sans-Serif" font-size="10.00">SubTableImpl.add</text>
</a>
</g>
</g>
<!-- Node1&#45;&gt;Node3 -->
<g id="edge2" class="edge">
<title>Node1&#45;&gt;Node3</title>
<path fill="none" stroke="midnightblue" d="M505.14,-590.68C489.6,-628.22 454.88,-699.26 402,-737 395.74,-741.47 388.75,-745.14 381.47,-748.15"/>
<polygon fill="midnightblue" stroke="midnightblue" points="508.53,-591.62 509.01,-581.04 502.04,-589.02 508.53,-591.62"/>
</g>
<!-- Node4 -->
<g id="node4" class="node">
<title>Node4</title>
<g id="a_node4"><a xlink:href="../../df/d83/classjavolution_1_1util_1_1internal_1_1table_1_1ReversedTableImpl.html#a0ba104bd7603a83b9c3599024497bdad" target="_top" xlink:title=" ">
<polygon fill="white" stroke="black" points="226,-698 226,-728 381,-728 381,-698 226,-698"/>
<text text-anchor="start" x="234" y="-716" font-family="Helvetica,sans-Serif" font-size="10.00">javolution.util.internal.table.</text>
<text text-anchor="middle" x="303.5" y="-705" font-family="Helvetica,sans-Serif" font-size="10.00">ReversedTableImpl.clear</text>
</a>
</g>
</g>
<!-- Node1&#45;&gt;Node4 -->
<g id="edge3" class="edge">
<title>Node1&#45;&gt;Node4</title>
<path fill="none" stroke="midnightblue" d="M499.06,-589.73C479.71,-617.52 443.96,-662.94 402,-688 395.47,-691.9 388.35,-695.19 381.02,-697.98"/>
<polygon fill="midnightblue" stroke="midnightblue" points="502.01,-591.61 504.75,-581.37 496.22,-587.67 502.01,-591.61"/>
</g>
<!-- Node5 -->
<g id="node5" class="node">
<title>Node5</title>
<g id="a_node5"><a xlink:href="../../d4/d5c/classjavolution_1_1util_1_1internal_1_1table_1_1SubTableImpl.html#a20836bb4ad9406a34316253cd23565cf" target="_top" xlink:title=" ">
<polygon fill="white" stroke="black" points="226,-649 226,-679 381,-679 381,-649 226,-649"/>
<text text-anchor="start" x="234" y="-667" font-family="Helvetica,sans-Serif" font-size="10.00">javolution.util.internal.table.</text>
<text text-anchor="middle" x="303.5" y="-656" font-family="Helvetica,sans-Serif" font-size="10.00">SubTableImpl.clear</text>
</a>
</g>
</g>
<!-- Node1&#45;&gt;Node5 -->
<g id="edge4" class="edge">
<title>Node1&#45;&gt;Node5</title>
<path fill="none" stroke="midnightblue" d="M487.13,-587.4C465.2,-603.62 433.06,-625.38 402,-639 393.36,-642.79 384.02,-646.09 374.67,-648.95"/>
<polygon fill="midnightblue" stroke="midnightblue" points="489.4,-590.07 495.3,-581.27 485.2,-584.47 489.4,-590.07"/>
</g>
<!-- Node6 -->
<g id="node6" class="node">
<title>Node6</title>
<g id="a_node6"><a xlink:href="../../df/d83/classjavolution_1_1util_1_1internal_1_1table_1_1ReversedTableImpl.html#a53ffaba9250ed99cb2fc076ed2284ed7" target="_top" xlink:title=" ">
<polygon fill="white" stroke="black" points="219,-600 219,-630 388,-630 388,-600 219,-600"/>
<text text-anchor="start" x="227" y="-618" font-family="Helvetica,sans-Serif" font-size="10.00">javolution.util.internal.table.</text>
<text text-anchor="middle" x="303.5" y="-607" font-family="Helvetica,sans-Serif" font-size="10.00">ReversedTableImpl.comparator</text>
</a>
</g>
</g>
<!-- Node1&#45;&gt;Node6 -->
<g id="edge5" class="edge">
<title>Node1&#45;&gt;Node6</title>
<path fill="none" stroke="midnightblue" d="M440.22,-583.33C416.91,-588.77 391.38,-594.73 368.81,-599.99"/>
<polygon fill="midnightblue" stroke="midnightblue" points="441.12,-586.72 450.07,-581.03 439.53,-579.9 441.12,-586.72"/>
</g>
<!-- Node7 -->
<g id="node7" class="node">
<title>Node7</title>
<g id="a_node7"><a xlink:href="../../df/d33/classjavolution_1_1util_1_1internal_1_1table_1_1UnmodifiableTableImpl.html#a31dd75e8bf37c824407716bdbe135ab4" target="_top" xlink:title=" ">
<polygon fill="white" stroke="black" points="209.5,-551 209.5,-581 397.5,-581 397.5,-551 209.5,-551"/>
<text text-anchor="start" x="217.5" y="-569" font-family="Helvetica,sans-Serif" font-size="10.00">javolution.util.internal.table.</text>
<text text-anchor="middle" x="303.5" y="-558" font-family="Helvetica,sans-Serif" font-size="10.00">UnmodifiableTableImpl.comparator</text>
</a>
</g>
</g>
<!-- Node1&#45;&gt;Node7 -->
<g id="edge6" class="edge">
<title>Node1&#45;&gt;Node7</title>
<path fill="none" stroke="midnightblue" d="M427.63,-566C417.78,-566 407.71,-566 397.78,-566"/>
<polygon fill="midnightblue" stroke="midnightblue" points="427.79,-569.5 437.79,-566 427.79,-562.5 427.79,-569.5"/>
</g>
<!-- Node8 -->
<g id="node8" class="node">
<title>Node8</title>
<g id="a_node8"><a xlink:href="../../d4/d5c/classjavolution_1_1util_1_1internal_1_1table_1_1SubTableImpl.html#a7b928ff7c7ecd6a733138688d86962bc" target="_top" xlink:title=" ">
<polygon fill="white" stroke="black" points="226,-502 226,-532 381,-532 381,-502 226,-502"/>
<text text-anchor="start" x="234" y="-520" font-family="Helvetica,sans-Serif" font-size="10.00">javolution.util.internal.table.</text>
<text text-anchor="middle" x="303.5" y="-509" font-family="Helvetica,sans-Serif" font-size="10.00">SubTableImpl.comparator</text>
</a>
</g>
</g>
<!-- Node1&#45;&gt;Node8 -->
<g id="edge7" class="edge">
<title>Node1&#45;&gt;Node8</title>
<path fill="none" stroke="midnightblue" d="M440.22,-548.67C416.91,-543.23 391.38,-537.27 368.81,-532.01"/>
<polygon fill="midnightblue" stroke="midnightblue" points="439.53,-552.1 450.07,-550.97 441.12,-545.28 439.53,-552.1"/>
</g>
<!-- Node9 -->
<g id="node9" class="node">
<title>Node9</title>
<g id="a_node9"><a xlink:href="../../df/d83/classjavolution_1_1util_1_1internal_1_1table_1_1ReversedTableImpl.html#a807cec38833ecf4217c11f59b4495cff" target="_top" xlink:title=" ">
<polygon fill="white" stroke="black" points="7,-985 7,-1015 162,-1015 162,-985 7,-985"/>
<text text-anchor="start" x="15" y="-1003" font-family="Helvetica,sans-Serif" font-size="10.00">javolution.util.internal.table.</text>
<text text-anchor="middle" x="84.5" y="-992" font-family="Helvetica,sans-Serif" font-size="10.00">ReversedTableImpl.get</text>
</a>
</g>
</g>
<!-- Node1&#45;&gt;Node9 -->
<g id="edge8" class="edge">
<title>Node1&#45;&gt;Node9</title>
<path fill="none" stroke="midnightblue" d="M511.29,-591.36C500.46,-672.58 462.52,-923.86 402,-974 333.01,-1031.16 224.08,-1026.23 153.71,-1015"/>
<polygon fill="midnightblue" stroke="midnightblue" points="514.81,-591.44 512.64,-581.07 507.87,-590.53 514.81,-591.44"/>
</g>
<!-- Node10 -->
<g id="node10" class="node">
<title>Node10</title>
<g id="a_node10"><a xlink:href="../../df/d33/classjavolution_1_1util_1_1internal_1_1table_1_1UnmodifiableTableImpl.html#a5176d2fa9b97250c38af2d2b14a3c7e8" target="_top" xlink:title=" ">
<polygon fill="white" stroke="black" points="226,-453 226,-483 381,-483 381,-453 226,-453"/>
<text text-anchor="start" x="234" y="-471" font-family="Helvetica,sans-Serif" font-size="10.00">javolution.util.internal.table.</text>
<text text-anchor="middle" x="303.5" y="-460" font-family="Helvetica,sans-Serif" font-size="10.00">UnmodifiableTableImpl.get</text>
</a>
</g>
</g>
<!-- Node1&#45;&gt;Node10 -->
<g id="edge9" class="edge">
<title>Node1&#45;&gt;Node10</title>
<path fill="none" stroke="midnightblue" d="M487.61,-544.5C465.71,-527.97 433.4,-505.71 402,-492 394.25,-488.62 385.94,-485.66 377.56,-483.08"/>
<polygon fill="midnightblue" stroke="midnightblue" points="485.69,-547.44 495.75,-550.75 489.95,-541.88 485.69,-547.44"/>
</g>
<!-- Node11 -->
<g id="node11" class="node">
<title>Node11</title>
<g id="a_node11"><a xlink:href="../../d4/d5c/classjavolution_1_1util_1_1internal_1_1table_1_1SubTableImpl.html#a00fb913521645bf8cfa498639b74a274" target="_top" xlink:title=" ">
<polygon fill="white" stroke="black" points="226,-404 226,-434 381,-434 381,-404 226,-404"/>
<text text-anchor="start" x="234" y="-422" font-family="Helvetica,sans-Serif" font-size="10.00">javolution.util.internal.table.</text>
<text text-anchor="middle" x="303.5" y="-411" font-family="Helvetica,sans-Serif" font-size="10.00">SubTableImpl.get</text>
</a>
</g>
</g>
<!-- Node1&#45;&gt;Node11 -->
<g id="edge10" class="edge">
<title>Node1&#45;&gt;Node11</title>
<path fill="none" stroke="midnightblue" d="M499.45,-542.45C480.26,-514.41 444.44,-468.19 402,-443 395.48,-439.13 388.36,-435.88 381.03,-433.16"/>
<polygon fill="midnightblue" stroke="midnightblue" points="496.61,-544.51 505.08,-550.87 502.43,-540.61 496.61,-544.51"/>
</g>
<!-- Node12 -->
<g id="node12" class="node">
<title>Node12</title>
<g id="a_node12"><a xlink:href="../../df/d83/classjavolution_1_1util_1_1internal_1_1table_1_1ReversedTableImpl.html#a08012bc3483373ec6f1b1ec5d2f05754" target="_top" xlink:title=" ">
<polygon fill="white" stroke="black" points="7,-936 7,-966 162,-966 162,-936 7,-936"/>
<text text-anchor="start" x="15" y="-954" font-family="Helvetica,sans-Serif" font-size="10.00">javolution.util.internal.table.</text>
<text text-anchor="middle" x="84.5" y="-943" font-family="Helvetica,sans-Serif" font-size="10.00">ReversedTableImpl.indexOf</text>
</a>
</g>
</g>
<!-- Node1&#45;&gt;Node12 -->
<g id="edge11" class="edge">
<title>Node1&#45;&gt;Node12</title>
<path fill="none" stroke="midnightblue" d="M511.06,-591.19C499.81,-669.57 461.34,-906.52 402,-951 365.56,-978.31 243.63,-970.26 162.19,-961.18"/>
<polygon fill="midnightblue" stroke="midnightblue" points="514.54,-591.61 512.47,-581.22 507.61,-590.63 514.54,-591.61"/>
</g>
<!-- Node13 -->
<g id="node13" class="node">
<title>Node13</title>
<g id="a_node13"><a xlink:href="../../df/d33/classjavolution_1_1util_1_1internal_1_1table_1_1UnmodifiableTableImpl.html#af073a64b0bc6ad4db9f6d1170642161a" target="_top" xlink:title=" ">
<polygon fill="white" stroke="black" points="218.5,-355 218.5,-385 388.5,-385 388.5,-355 218.5,-355"/>
<text text-anchor="start" x="226.5" y="-373" font-family="Helvetica,sans-Serif" font-size="10.00">javolution.util.internal.table.</text>
<text text-anchor="middle" x="303.5" y="-362" font-family="Helvetica,sans-Serif" font-size="10.00">UnmodifiableTableImpl.indexOf</text>
</a>
</g>
</g>
<!-- Node1&#45;&gt;Node13 -->
<g id="edge12" class="edge">
<title>Node1&#45;&gt;Node13</title>
<path fill="none" stroke="midnightblue" d="M505.22,-541.11C489.8,-503.28 455.22,-431.71 402,-394 397.16,-390.57 391.89,-387.63 386.39,-385.11"/>
<polygon fill="midnightblue" stroke="midnightblue" points="502.13,-542.82 509.06,-550.83 508.64,-540.25 502.13,-542.82"/>
</g>
<!-- Node14 -->
<g id="node14" class="node">
<title>Node14</title>
<g id="a_node14"><a xlink:href="../../df/d83/classjavolution_1_1util_1_1internal_1_1table_1_1ReversedTableImpl.html#a14b3649903f024d9b8f9a473a398aa9a" target="_top" xlink:title=" ">
<polygon fill="white" stroke="black" points="0,-887 0,-917 169,-917 169,-887 0,-887"/>
<text text-anchor="start" x="8" y="-905" font-family="Helvetica,sans-Serif" font-size="10.00">javolution.util.internal.table.</text>
<text text-anchor="middle" x="84.5" y="-894" font-family="Helvetica,sans-Serif" font-size="10.00">ReversedTableImpl.lastIndexOf</text>
</a>
</g>
</g>
<!-- Node1&#45;&gt;Node14 -->
<g id="edge13" class="edge">
<title>Node1&#45;&gt;Node14</title>
<path fill="none" stroke="midnightblue" d="M512.62,-591.24C506.97,-647.67 484.97,-784.27 402,-851 367.03,-879.12 250.54,-892.05 169.1,-897.77"/>
<polygon fill="midnightblue" stroke="midnightblue" points="516.12,-591.35 513.55,-581.07 509.15,-590.71 516.12,-591.35"/>
</g>
<!-- Node15 -->
<g id="node15" class="node">
<title>Node15</title>
<g id="a_node15"><a xlink:href="../../df/d33/classjavolution_1_1util_1_1internal_1_1table_1_1UnmodifiableTableImpl.html#aedccf221a14337ac806e61793abf99ec" target="_top" xlink:title=" ">
<polygon fill="white" stroke="black" points="209.5,-306 209.5,-336 397.5,-336 397.5,-306 209.5,-306"/>
<text text-anchor="start" x="217.5" y="-324" font-family="Helvetica,sans-Serif" font-size="10.00">javolution.util.internal.table.</text>
<text text-anchor="middle" x="303.5" y="-313" font-family="Helvetica,sans-Serif" font-size="10.00">UnmodifiableTableImpl.lastIndexOf</text>
</a>
</g>
</g>
<!-- Node1&#45;&gt;Node15 -->
<g id="edge14" class="edge">
<title>Node1&#45;&gt;Node15</title>
<path fill="none" stroke="midnightblue" d="M509.07,-541.13C497.67,-495.04 466.77,-396.38 402,-345 397.63,-341.53 392.83,-338.56 387.77,-336.01"/>
<polygon fill="midnightblue" stroke="midnightblue" points="505.67,-541.97 511.39,-550.9 512.49,-540.36 505.67,-541.97"/>
</g>
<!-- Node16 -->
<g id="node16" class="node">
<title>Node16</title>
<g id="a_node16"><a xlink:href="../../df/d83/classjavolution_1_1util_1_1internal_1_1table_1_1ReversedTableImpl.html#a3b62167a303568b28f72f0e159260f1c" target="_top" xlink:title=" ">
<polygon fill="white" stroke="black" points="7,-838 7,-868 162,-868 162,-838 7,-838"/>
<text text-anchor="start" x="15" y="-856" font-family="Helvetica,sans-Serif" font-size="10.00">javolution.util.internal.table.</text>
<text text-anchor="middle" x="84.5" y="-845" font-family="Helvetica,sans-Serif" font-size="10.00">ReversedTableImpl.remove</text>
</a>
</g>
</g>
<!-- Node1&#45;&gt;Node16 -->
<g id="edge15" class="edge">
<title>Node1&#45;&gt;Node16</title>
<path fill="none" stroke="midnightblue" d="M511.57,-591.36C504.03,-643.84 478.83,-764.11 402,-820 365.03,-846.89 243.58,-852.81 162.34,-853.63"/>
<polygon fill="midnightblue" stroke="midnightblue" points="515.07,-591.61 512.92,-581.24 508.13,-590.69 515.07,-591.61"/>
</g>
<!-- Node17 -->
<g id="node17" class="node">
<title>Node17</title>
<g id="a_node17"><a xlink:href="../../d4/d5c/classjavolution_1_1util_1_1internal_1_1table_1_1SubTableImpl.html#abab02bfe12a71c7b6ad722eda106e9d7" target="_top" xlink:title=" ">
<polygon fill="white" stroke="black" points="226,-257 226,-287 381,-287 381,-257 226,-257"/>
<text text-anchor="start" x="234" y="-275" font-family="Helvetica,sans-Serif" font-size="10.00">javolution.util.internal.table.</text>
<text text-anchor="middle" x="303.5" y="-264" font-family="Helvetica,sans-Serif" font-size="10.00">SubTableImpl.remove</text>
</a>
</g>
</g>
<!-- Node1&#45;&gt;Node17 -->
<g id="edge16" class="edge">
<title>Node1&#45;&gt;Node17</title>
<path fill="none" stroke="midnightblue" d="M511.53,-540.67C503.85,-487 478.29,-361.4 402,-296 395.91,-290.78 388.86,-286.66 381.4,-283.42"/>
<polygon fill="midnightblue" stroke="midnightblue" points="508.08,-541.25 512.88,-550.7 515.02,-540.32 508.08,-541.25"/>
</g>
<!-- Node18 -->
<g id="node18" class="node">
<title>Node18</title>
<g id="a_node18"><a xlink:href="../../df/d83/classjavolution_1_1util_1_1internal_1_1table_1_1ReversedTableImpl.html#a801f9ccb6c96ed1f3bb51ba218cadeec" target="_top" xlink:title=" ">
<polygon fill="white" stroke="black" points="7,-789 7,-819 162,-819 162,-789 7,-789"/>
<text text-anchor="start" x="15" y="-807" font-family="Helvetica,sans-Serif" font-size="10.00">javolution.util.internal.table.</text>
<text text-anchor="middle" x="84.5" y="-796" font-family="Helvetica,sans-Serif" font-size="10.00">ReversedTableImpl.set</text>
</a>
</g>
</g>
<!-- Node1&#45;&gt;Node18 -->
<g id="edge17" class="edge">
<title>Node1&#45;&gt;Node18</title>
<path fill="none" stroke="midnightblue" d="M510.01,-591.22C500.08,-638.75 471.36,-740.81 402,-786 329.26,-833.39 225.98,-829.21 157.43,-819.02"/>
<polygon fill="midnightblue" stroke="midnightblue" points="513.5,-591.65 512,-581.17 506.63,-590.3 513.5,-591.65"/>
</g>
<!-- Node19 -->
<g id="node19" class="node">
<title>Node19</title>
<g id="a_node19"><a xlink:href="../../d4/d5c/classjavolution_1_1util_1_1internal_1_1table_1_1SubTableImpl.html#a9ce404b3941bf4d1ce2f91e4afb20856" target="_top" xlink:title=" ">
<polygon fill="white" stroke="black" points="226,-208 226,-238 381,-238 381,-208 226,-208"/>
<text text-anchor="start" x="234" y="-226" font-family="Helvetica,sans-Serif" font-size="10.00">javolution.util.internal.table.</text>
<text text-anchor="middle" x="303.5" y="-215" font-family="Helvetica,sans-Serif" font-size="10.00">SubTableImpl.set</text>
</a>
</g>
</g>
<!-- Node1&#45;&gt;Node19 -->
<g id="edge18" class="edge">
<title>Node1&#45;&gt;Node19</title>
<path fill="none" stroke="midnightblue" d="M513.38,-540.83C509.28,-480.55 490.26,-327.03 402,-247 395.93,-241.5 388.8,-237.2 381.21,-233.87"/>
<polygon fill="midnightblue" stroke="midnightblue" points="509.89,-541.18 513.98,-550.96 516.88,-540.77 509.89,-541.18"/>
</g>
<!-- Node20 -->
<g id="node20" class="node">
<title>Node20</title>
<g id="a_node20"><a xlink:href="../../df/d83/classjavolution_1_1util_1_1internal_1_1table_1_1ReversedTableImpl.html#a101db1ceb8096f9d2a86f9425ecd8753" target="_top" xlink:title=" ">
<polygon fill="white" stroke="black" points="226,-911 226,-941 381,-941 381,-911 226,-911"/>
<text text-anchor="start" x="234" y="-929" font-family="Helvetica,sans-Serif" font-size="10.00">javolution.util.internal.table.</text>
<text text-anchor="middle" x="303.5" y="-918" font-family="Helvetica,sans-Serif" font-size="10.00">ReversedTableImpl.size</text>
</a>
</g>
</g>
<!-- Node1&#45;&gt;Node20 -->
<g id="edge19" class="edge">
<title>Node1&#45;&gt;Node20</title>
<path fill="none" stroke="midnightblue" d="M513.36,-591.69C509.23,-653.26 490.13,-810.48 402,-896 395.65,-902.17 388.05,-907.07 379.95,-910.97"/>
<polygon fill="midnightblue" stroke="midnightblue" points="516.88,-591.53 513.97,-581.34 509.89,-591.12 516.88,-591.53"/>
</g>
<!-- Node21 -->
<g id="node21" class="node">
<title>Node21</title>
<g id="a_node21"><a xlink:href="../../df/d33/classjavolution_1_1util_1_1internal_1_1table_1_1UnmodifiableTableImpl.html#a5a15d1be1827b2a5a4e785ea4ce44d01" target="_top" xlink:title=" ">
<polygon fill="white" stroke="black" points="226,-159 226,-189 381,-189 381,-159 226,-159"/>
<text text-anchor="start" x="234" y="-177" font-family="Helvetica,sans-Serif" font-size="10.00">javolution.util.internal.table.</text>
<text text-anchor="middle" x="303.5" y="-166" font-family="Helvetica,sans-Serif" font-size="10.00">UnmodifiableTableImpl.size</text>
</a>
</g>
</g>
<!-- Node1&#45;&gt;Node21 -->
<g id="edge26" class="edge">
<title>Node1&#45;&gt;Node21</title>
<path fill="none" stroke="midnightblue" d="M514.75,-540.68C513.95,-474.12 502.21,-292.82 402,-198 396.05,-192.37 389,-188 381.45,-184.61"/>
<polygon fill="midnightblue" stroke="midnightblue" points="511.25,-540.71 514.79,-550.7 518.25,-540.68 511.25,-540.71"/>
</g>
<!-- Node22 -->
<g id="node22" class="node">
<title>Node22</title>
<g id="a_node22"><a xlink:href="../../d4/d5c/classjavolution_1_1util_1_1internal_1_1table_1_1SubTableImpl.html#a148ddfa7b1c129aa393383c976588634" target="_top" xlink:title=" ">
<polygon fill="white" stroke="black" points="226,-110 226,-140 381,-140 381,-110 226,-110"/>
<text text-anchor="start" x="234" y="-128" font-family="Helvetica,sans-Serif" font-size="10.00">javolution.util.internal.table.</text>
<text text-anchor="middle" x="303.5" y="-117" font-family="Helvetica,sans-Serif" font-size="10.00">SubTableImpl.SubTableImpl</text>
</a>
</g>
</g>
<!-- Node1&#45;&gt;Node22 -->
<g id="edge27" class="edge">
<title>Node1&#45;&gt;Node22</title>
<path fill="none" stroke="midnightblue" d="M511.03,-540.47C499.41,-458.66 459.34,-205.09 402,-149 396.02,-143.15 388.85,-138.65 381.16,-135.2"/>
<polygon fill="midnightblue" stroke="midnightblue" points="507.63,-541.42 512.48,-550.83 514.56,-540.45 507.63,-541.42"/>
</g>
<!-- Node23 -->
<g id="node23" class="node">
<title>Node23</title>
<g id="a_node23"><a xlink:href="../../d8/d86/classjavolution_1_1util_1_1internal_1_1table_1_1TableView.html#a9be9dbe19e60340cd5b9aa3e81c5e73a" target="_top" xlink:title=" ">
<polygon fill="white" stroke="black" points="226,-61 226,-91 381,-91 381,-61 226,-61"/>
<text text-anchor="start" x="234" y="-79" font-family="Helvetica,sans-Serif" font-size="10.00">javolution.util.internal.table.</text>
<text text-anchor="middle" x="303.5" y="-68" font-family="Helvetica,sans-Serif" font-size="10.00">TableView.TableView</text>
</a>
</g>
</g>
<!-- Node1&#45;&gt;Node23 -->
<g id="edge28" class="edge">
<title>Node1&#45;&gt;Node23</title>
<path fill="none" stroke="midnightblue" d="M511.8,-540.4C501.99,-452.33 465.49,-163.77 402,-100 396.1,-94.07 388.98,-89.52 381.31,-86.04"/>
<polygon fill="midnightblue" stroke="midnightblue" points="508.34,-541 512.91,-550.56 515.3,-540.24 508.34,-541"/>
</g>
<!-- Node24 -->
<g id="node24" class="node">
<title>Node24</title>
<g id="a_node24"><a xlink:href="../../df/d33/classjavolution_1_1util_1_1internal_1_1table_1_1UnmodifiableTableImpl.html#a020dc3734f01f340773c1e5df0981464" target="_top" xlink:title=" ">
<polygon fill="white" stroke="black" points="205,-0.5 205,-41.5 402,-41.5 402,-0.5 205,-0.5"/>
<text text-anchor="start" x="213" y="-29.5" font-family="Helvetica,sans-Serif" font-size="10.00">javolution.util.internal.table.</text>
<text text-anchor="start" x="213" y="-18.5" font-family="Helvetica,sans-Serif" font-size="10.00">UnmodifiableTableImpl.Unmodifiable</text>
<text text-anchor="middle" x="303.5" y="-7.5" font-family="Helvetica,sans-Serif" font-size="10.00">TableImpl</text>
</a>
</g>
</g>
<!-- Node1&#45;&gt;Node24 -->
<g id="edge29" class="edge">
<title>Node1&#45;&gt;Node24</title>
<path fill="none" stroke="midnightblue" d="M512.31,-540.66C503.75,-447.35 469.65,-124.54 402,-51 398.76,-47.48 395.12,-44.37 391.2,-41.62"/>
<polygon fill="midnightblue" stroke="midnightblue" points="508.84,-541.22 513.23,-550.87 515.82,-540.6 508.84,-541.22"/>
</g>
<!-- Node20&#45;&gt;Node2 -->
<g id="edge20" class="edge">
<title>Node20&#45;&gt;Node2</title>
<path fill="none" stroke="midnightblue" d="M278.44,-948.06C252.98,-970.35 210.78,-1004.35 169,-1025 162.24,-1028.34 154.93,-1031.29 147.55,-1033.88"/>
<polygon fill="midnightblue" stroke="midnightblue" points="280.94,-950.53 286.1,-941.27 276.3,-945.29 280.94,-950.53"/>
</g>
<!-- Node20&#45;&gt;Node9 -->
<g id="edge21" class="edge">
<title>Node20&#45;&gt;Node9</title>
<path fill="none" stroke="midnightblue" d="M255.4,-944.67C229.98,-954.48 197.96,-966.43 169,-976 159.69,-979.08 149.73,-982.14 140.04,-984.99"/>
<polygon fill="midnightblue" stroke="midnightblue" points="256.75,-947.9 264.8,-941.02 254.21,-941.38 256.75,-947.9"/>
</g>
<!-- Node20&#45;&gt;Node12 -->
<g id="edge22" class="edge">
<title>Node20&#45;&gt;Node12</title>
<path fill="none" stroke="midnightblue" d="M215.66,-936C197.93,-938.05 179.39,-940.18 162.05,-942.18"/>
<polygon fill="midnightblue" stroke="midnightblue" points="216.46,-939.44 225.99,-934.81 215.66,-932.48 216.46,-939.44"/>
</g>
<!-- Node20&#45;&gt;Node14 -->
<g id="edge23" class="edge">
<title>Node20&#45;&gt;Node14</title>
<path fill="none" stroke="midnightblue" d="M215.94,-916.43C200.49,-914.72 184.43,-912.94 169.06,-911.24"/>
<polygon fill="midnightblue" stroke="midnightblue" points="215.67,-919.92 225.99,-917.54 216.44,-912.96 215.67,-919.92"/>
</g>
<!-- Node20&#45;&gt;Node16 -->
<g id="edge24" class="edge">
<title>Node20&#45;&gt;Node16</title>
<path fill="none" stroke="midnightblue" d="M252.75,-907.39C227.74,-898.21 196.88,-887.18 169,-878 158.79,-874.64 147.83,-871.22 137.31,-868.03"/>
<polygon fill="midnightblue" stroke="midnightblue" points="251.79,-910.76 262.39,-910.94 254.21,-904.2 251.79,-910.76"/>
</g>
<!-- Node20&#45;&gt;Node18 -->
<g id="edge25" class="edge">
<title>Node20&#45;&gt;Node18</title>
<path fill="none" stroke="midnightblue" d="M278.4,-904.17C252.91,-882.12 210.68,-848.47 169,-828 162.23,-824.68 154.92,-821.73 147.54,-819.15"/>
<polygon fill="midnightblue" stroke="midnightblue" points="276.24,-906.93 286.07,-910.89 280.86,-901.67 276.24,-906.93"/>
</g>
</g>
</svg>
