<?xml version="1.0" encoding="UTF-8" standalone="no"?>
<!DOCTYPE svg PUBLIC "-//W3C//DTD SVG 1.1//EN"
 "http://www.w3.org/Graphics/SVG/1.1/DTD/svg11.dtd">
<!-- Generated by graphviz version 2.43.0 (0)
 -->
<!-- Title: javolution.util.internal.table.TableView.element Pages: 1 -->
<!--zoomable 812 -->
<svg id="main" version="1.1" xmlns="http://www.w3.org/2000/svg" xmlns:xlink="http://www.w3.org/1999/xlink" xml:space="preserve" onload="init(evt)">
<style type="text/css"><![CDATA[
.edge:hover path { stroke: red; }
.edge:hover polygon { stroke: red; fill: red; }
]]></style>
<script type="text/javascript"><![CDATA[
var edges = document.getElementsByTagName('g');
if (edges && edges.length) {
  for (var i=0;i<edges.length;i++) {
    if (edges[i].id.substr(0,4)=='edge') {
      edges[i].setAttribute('class','edge');
    }
  }
}
]]></script>
        <defs>
                <circle id="rim" cx="0" cy="0" r="7"/>
                <circle id="rim2" cx="0" cy="0" r="3.5"/>
                <g id="zoomPlus">
                        <use xlink:href="#rim" fill="#404040">
                                <set attributeName="fill" to="#808080" begin="zoomplus.mouseover" end="zoomplus.mouseout"/>
                        </use>
                        <path d="M-4,0h8M0,-4v8" fill="none" stroke="white" stroke-width="1.5" pointer-events="none"/>
                </g>
                <g id="zoomMin">
                        <use xlink:href="#rim" fill="#404040">
                                <set attributeName="fill" to="#808080" begin="zoomminus.mouseover" end="zoomminus.mouseout"/>
                        </use>
                        <path d="M-4,0h8" fill="none" stroke="white" stroke-width="1.5" pointer-events="none"/>
                </g>
                <g id="dirArrow">
                        <path fill="none" stroke="white" stroke-width="1.5" d="M0,-3.0v7 M-2.5,-0.5L0,-3.0L2.5,-0.5"/>
                </g>
               <g id="resetDef">
                       <use xlink:href="#rim2" fill="#404040">
                               <set attributeName="fill" to="#808080" begin="reset.mouseover" end="reset.mouseout"/>
                       </use>
               </g>
        </defs>

<script type="text/javascript">
var viewWidth = 795;
var viewHeight = 812;
var sectionId = 'dynsection-18';
</script>
<script xlink:href="../../svgpan.js"/>
<svg id="graph" class="graph">
<g id="viewport">
<title>javolution.util.internal.table.TableView.element</title>
<polygon fill="white" stroke="transparent" points="-4,4 -4,-808 791,-808 791,4 -4,4"/>
<!-- Node1 -->
<g id="node1" class="node">
<title>Node1</title>
<g id="a_node1"><a xlink:title=" ">
<polygon fill="#bfbfbf" stroke="black" points="632,-394.5 632,-424.5 787,-424.5 787,-394.5 632,-394.5"/>
<text text-anchor="start" x="640" y="-412.5" font-family="Helvetica,sans-Serif" font-size="10.00">javolution.util.internal.table.</text>
<text text-anchor="middle" x="709.5" y="-401.5" font-family="Helvetica,sans-Serif" font-size="10.00">TableView.element</text>
</a>
</g>
</g>
<!-- Node2 -->
<g id="node2" class="node">
<title>Node2</title>
<g id="a_node2"><a xlink:href="../../df/d83/classjavolution_1_1util_1_1internal_1_1table_1_1ReversedTableImpl.html#a3f79429b1ca15412e4e2b3cfa93cb98a" target="_top" xlink:title=" ">
<polygon fill="white" stroke="black" points="411.5,-773.5 411.5,-803.5 566.5,-803.5 566.5,-773.5 411.5,-773.5"/>
<text text-anchor="start" x="419.5" y="-791.5" font-family="Helvetica,sans-Serif" font-size="10.00">javolution.util.internal.table.</text>
<text text-anchor="middle" x="489" y="-780.5" font-family="Helvetica,sans-Serif" font-size="10.00">ReversedTableImpl.add</text>
</a>
</g>
</g>
<!-- Node1&#45;&gt;Node2 -->
<g id="edge1" class="edge">
<title>Node1&#45;&gt;Node2</title>
<path fill="none" stroke="midnightblue" d="M708.44,-434.78C706.86,-499.67 693.25,-673.38 596,-763.5 587.68,-771.21 577.44,-776.68 566.63,-780.54"/>
<polygon fill="midnightblue" stroke="midnightblue" points="711.95,-434.7 708.61,-424.64 704.95,-434.58 711.95,-434.7"/>
</g>
<!-- Node3 -->
<g id="node3" class="node">
<title>Node3</title>
<g id="a_node3"><a xlink:href="../../d4/d6c/classjavolution_1_1util_1_1internal_1_1table_1_1sorted_1_1FastSortedTableImpl.html#a15f42c89b6bc298a77cbf535e2171755" target="_top" xlink:title=" ">
<polygon fill="white" stroke="black" points="394.5,-713 394.5,-754 583.5,-754 583.5,-713 394.5,-713"/>
<text text-anchor="start" x="402.5" y="-742" font-family="Helvetica,sans-Serif" font-size="10.00">javolution.util.internal.table.sorted.</text>
<text text-anchor="start" x="402.5" y="-731" font-family="Helvetica,sans-Serif" font-size="10.00">FastSortedTableImpl&lt; Entry&lt; K,</text>
<text text-anchor="middle" x="489" y="-720" font-family="Helvetica,sans-Serif" font-size="10.00"> V &gt; &gt;::add</text>
</a>
</g>
</g>
<!-- Node1&#45;&gt;Node3 -->
<g id="edge2" class="edge">
<title>Node1&#45;&gt;Node3</title>
<path fill="none" stroke="midnightblue" d="M706.3,-434.83C700,-491.58 676.74,-629.7 596,-703.5 592.19,-706.98 588,-710.07 583.56,-712.79"/>
<polygon fill="midnightblue" stroke="midnightblue" points="709.81,-434.91 707.35,-424.61 702.85,-434.2 709.81,-434.91"/>
</g>
<!-- Node4 -->
<g id="node4" class="node">
<title>Node4</title>
<g id="a_node4"><a xlink:href="../../d4/d5c/classjavolution_1_1util_1_1internal_1_1table_1_1SubTableImpl.html#a0f04e8b2e310230fb29f48e1f1dba876" target="_top" xlink:title=" ">
<polygon fill="white" stroke="black" points="411.5,-663.5 411.5,-693.5 566.5,-693.5 566.5,-663.5 411.5,-663.5"/>
<text text-anchor="start" x="419.5" y="-681.5" font-family="Helvetica,sans-Serif" font-size="10.00">javolution.util.internal.table.</text>
<text text-anchor="middle" x="489" y="-670.5" font-family="Helvetica,sans-Serif" font-size="10.00">SubTableImpl.add</text>
</a>
</g>
</g>
<!-- Node1&#45;&gt;Node4 -->
<g id="edge3" class="edge">
<title>Node1&#45;&gt;Node4</title>
<path fill="none" stroke="midnightblue" d="M704.48,-434.67C695.11,-484.74 666.95,-596.95 596,-654.5 587.43,-661.45 577.24,-666.48 566.62,-670.1"/>
<polygon fill="midnightblue" stroke="midnightblue" points="707.95,-435.16 706.25,-424.7 701.06,-433.93 707.95,-435.16"/>
</g>
<!-- Node5 -->
<g id="node5" class="node">
<title>Node5</title>
<g id="a_node5"><a xlink:href="../../d9/d7a/classjavolution_1_1util_1_1internal_1_1table_1_1FastTableImpl.html#a3ef1cbcb3342302359defd9104eebec3" target="_top" xlink:title=" ">
<polygon fill="white" stroke="black" points="191,-490.5 191,-520.5 346,-520.5 346,-490.5 191,-490.5"/>
<text text-anchor="start" x="199" y="-508.5" font-family="Helvetica,sans-Serif" font-size="10.00">javolution.util.internal.table.</text>
<text text-anchor="middle" x="268.5" y="-497.5" font-family="Helvetica,sans-Serif" font-size="10.00">FastTableImpl.add</text>
</a>
</g>
</g>
<!-- Node1&#45;&gt;Node5 -->
<g id="edge4" class="edge">
<title>Node1&#45;&gt;Node5</title>
<path fill="none" stroke="midnightblue" d="M699.43,-434.07C684.38,-470.76 650.39,-538.56 596,-566.5 511.4,-609.96 474.19,-589.89 382,-566.5 347.11,-557.65 311.33,-535.57 289.75,-520.55"/>
<polygon fill="midnightblue" stroke="midnightblue" points="702.75,-435.19 703.17,-424.6 696.24,-432.61 702.75,-435.19"/>
</g>
<!-- Node6 -->
<g id="node6" class="node">
<title>Node6</title>
<g id="a_node6"><a xlink:href="../../d8/d86/classjavolution_1_1util_1_1internal_1_1table_1_1TableView.html#a7fb8c91dad5adf2ab9424d729baba96a" target="_top" xlink:title=" ">
<polygon fill="white" stroke="black" points="411.5,-614.5 411.5,-644.5 566.5,-644.5 566.5,-614.5 411.5,-614.5"/>
<text text-anchor="start" x="419.5" y="-632.5" font-family="Helvetica,sans-Serif" font-size="10.00">javolution.util.internal.table.</text>
<text text-anchor="middle" x="489" y="-621.5" font-family="Helvetica,sans-Serif" font-size="10.00">TableView.addFirst</text>
</a>
</g>
</g>
<!-- Node1&#45;&gt;Node6 -->
<g id="edge5" class="edge">
<title>Node1&#45;&gt;Node6</title>
<path fill="none" stroke="midnightblue" d="M700.6,-434.41C686.39,-475.17 652.59,-555.94 596,-599.5 587.29,-606.21 577.14,-611.42 566.64,-615.46"/>
<polygon fill="midnightblue" stroke="midnightblue" points="703.99,-435.32 703.87,-424.72 697.36,-433.08 703.99,-435.32"/>
</g>
<!-- Node9 -->
<g id="node9" class="node">
<title>Node9</title>
<g id="a_node9"><a xlink:href="../../d9/d7a/classjavolution_1_1util_1_1internal_1_1table_1_1FastTableImpl.html#a1f1d147e35953446eb1d0341800e0f77" target="_top" xlink:title=" ">
<polygon fill="white" stroke="black" points="411.5,-526.5 411.5,-556.5 566.5,-556.5 566.5,-526.5 411.5,-526.5"/>
<text text-anchor="start" x="419.5" y="-544.5" font-family="Helvetica,sans-Serif" font-size="10.00">javolution.util.internal.table.</text>
<text text-anchor="middle" x="489" y="-533.5" font-family="Helvetica,sans-Serif" font-size="10.00">FastTableImpl.addFirst</text>
</a>
</g>
</g>
<!-- Node1&#45;&gt;Node9 -->
<g id="edge8" class="edge">
<title>Node1&#45;&gt;Node9</title>
<path fill="none" stroke="midnightblue" d="M690.64,-432.61C670.37,-457.19 635.02,-495.39 596,-516.5 586.85,-521.45 576.74,-525.43 566.51,-528.62"/>
<polygon fill="midnightblue" stroke="midnightblue" points="693.6,-434.51 697.16,-424.53 688.15,-430.11 693.6,-434.51"/>
</g>
<!-- Node10 -->
<g id="node10" class="node">
<title>Node10</title>
<g id="a_node10"><a xlink:href="../../dc/d36/classjavolution_1_1util_1_1internal_1_1table_1_1sorted_1_1SortedTableView.html#a7e35945b09424fbed6bb68637926e1cd" target="_top" xlink:title=" ">
<polygon fill="white" stroke="black" points="394.5,-477.5 394.5,-507.5 583.5,-507.5 583.5,-477.5 394.5,-477.5"/>
<text text-anchor="start" x="402.5" y="-495.5" font-family="Helvetica,sans-Serif" font-size="10.00">javolution.util.internal.table.sorted.</text>
<text text-anchor="middle" x="489" y="-484.5" font-family="Helvetica,sans-Serif" font-size="10.00">SortedTableView.addIfAbsent</text>
</a>
</g>
</g>
<!-- Node1&#45;&gt;Node10 -->
<g id="edge9" class="edge">
<title>Node1&#45;&gt;Node10</title>
<path fill="none" stroke="midnightblue" d="M674.53,-429.79C652.71,-442.11 623.42,-457.37 596,-467.5 585.89,-471.23 575.03,-474.54 564.25,-477.44"/>
<polygon fill="midnightblue" stroke="midnightblue" points="676.46,-432.72 683.4,-424.71 672.98,-426.64 676.46,-432.72"/>
</g>
<!-- Node11 -->
<g id="node11" class="node">
<title>Node11</title>
<g id="a_node11"><a xlink:href="../../d4/d6c/classjavolution_1_1util_1_1internal_1_1table_1_1sorted_1_1FastSortedTableImpl.html#a897c9e082cb6e8c4cce52806cb76080d" target="_top" xlink:title=" ">
<polygon fill="white" stroke="black" points="394.5,-417 394.5,-458 583.5,-458 583.5,-417 394.5,-417"/>
<text text-anchor="start" x="402.5" y="-446" font-family="Helvetica,sans-Serif" font-size="10.00">javolution.util.internal.table.sorted.</text>
<text text-anchor="start" x="402.5" y="-435" font-family="Helvetica,sans-Serif" font-size="10.00">FastSortedTableImpl&lt; Entry&lt; K,</text>
<text text-anchor="middle" x="489" y="-424" font-family="Helvetica,sans-Serif" font-size="10.00"> V &gt; &gt;::addIfAbsent</text>
</a>
</g>
</g>
<!-- Node1&#45;&gt;Node11 -->
<g id="edge10" class="edge">
<title>Node1&#45;&gt;Node11</title>
<path fill="none" stroke="midnightblue" d="M621.85,-420.6C609.36,-422.2 596.45,-423.86 583.82,-425.48"/>
<polygon fill="midnightblue" stroke="midnightblue" points="622.3,-424.08 631.77,-419.33 621.41,-417.13 622.3,-424.08"/>
</g>
<!-- Node12 -->
<g id="node12" class="node">
<title>Node12</title>
<g id="a_node12"><a xlink:href="../../d8/d86/classjavolution_1_1util_1_1internal_1_1table_1_1TableView.html#ab3d0b5ac5c0b886c51c1c93abcd2da42" target="_top" xlink:title=" ">
<polygon fill="white" stroke="black" points="411.5,-318.5 411.5,-348.5 566.5,-348.5 566.5,-318.5 411.5,-318.5"/>
<text text-anchor="start" x="419.5" y="-336.5" font-family="Helvetica,sans-Serif" font-size="10.00">javolution.util.internal.table.</text>
<text text-anchor="middle" x="489" y="-325.5" font-family="Helvetica,sans-Serif" font-size="10.00">TableView.addLast</text>
</a>
</g>
</g>
<!-- Node1&#45;&gt;Node12 -->
<g id="edge11" class="edge">
<title>Node1&#45;&gt;Node12</title>
<path fill="none" stroke="midnightblue" d="M670.95,-389.72C649.46,-379.02 621.73,-366.25 596,-357.5 586.26,-354.19 575.87,-351.2 565.54,-348.55"/>
<polygon fill="midnightblue" stroke="midnightblue" points="669.55,-392.94 680.05,-394.31 672.7,-386.69 669.55,-392.94"/>
</g>
<!-- Node15 -->
<g id="node15" class="node">
<title>Node15</title>
<g id="a_node15"><a xlink:href="../../d9/d7a/classjavolution_1_1util_1_1internal_1_1table_1_1FastTableImpl.html#aaba641e6bd1d2d0cfb35e58043ff8495" target="_top" xlink:title=" ">
<polygon fill="white" stroke="black" points="411.5,-367.5 411.5,-397.5 566.5,-397.5 566.5,-367.5 411.5,-367.5"/>
<text text-anchor="start" x="419.5" y="-385.5" font-family="Helvetica,sans-Serif" font-size="10.00">javolution.util.internal.table.</text>
<text text-anchor="middle" x="489" y="-374.5" font-family="Helvetica,sans-Serif" font-size="10.00">FastTableImpl.addLast</text>
</a>
</g>
</g>
<!-- Node1&#45;&gt;Node15 -->
<g id="edge14" class="edge">
<title>Node1&#45;&gt;Node15</title>
<path fill="none" stroke="midnightblue" d="M621.74,-398.78C603.5,-396.52 584.38,-394.16 566.54,-391.96"/>
<polygon fill="midnightblue" stroke="midnightblue" points="621.42,-402.27 631.77,-400.02 622.28,-395.32 621.42,-402.27"/>
</g>
<!-- Node17 -->
<g id="node17" class="node">
<title>Node17</title>
<g id="a_node17"><a xlink:href="../../d4/d6c/classjavolution_1_1util_1_1internal_1_1table_1_1sorted_1_1FastSortedTableImpl.html#aee2baac6fd0e3944be5ca76b813ede48" target="_top" xlink:title=" ">
<polygon fill="white" stroke="black" points="394.5,-258 394.5,-299 583.5,-299 583.5,-258 394.5,-258"/>
<text text-anchor="start" x="402.5" y="-287" font-family="Helvetica,sans-Serif" font-size="10.00">javolution.util.internal.table.sorted.</text>
<text text-anchor="start" x="402.5" y="-276" font-family="Helvetica,sans-Serif" font-size="10.00">FastSortedTableImpl&lt; Entry&lt; K,</text>
<text text-anchor="middle" x="489" y="-265" font-family="Helvetica,sans-Serif" font-size="10.00"> V &gt; &gt;::indexOf</text>
</a>
</g>
</g>
<!-- Node1&#45;&gt;Node17 -->
<g id="edge17" class="edge">
<title>Node1&#45;&gt;Node17</title>
<path fill="none" stroke="midnightblue" d="M689.16,-386.91C668.36,-363.98 633.22,-329.01 596,-308.5 589.63,-304.99 582.82,-301.86 575.84,-299.08"/>
<polygon fill="midnightblue" stroke="midnightblue" points="686.64,-389.34 695.9,-394.48 691.87,-384.68 686.64,-389.34"/>
</g>
<!-- Node18 -->
<g id="node18" class="node">
<title>Node18</title>
<g id="a_node18"><a xlink:href="../../d3/dad/classjavolution_1_1util_1_1internal_1_1table_1_1sorted_1_1UnmodifiableSortedTableImpl.html#a55b0760474b6c7f093ea54eb13acc1d9" target="_top" xlink:title=" ">
<polygon fill="white" stroke="black" points="382,-208.5 382,-238.5 596,-238.5 596,-208.5 382,-208.5"/>
<text text-anchor="start" x="390" y="-226.5" font-family="Helvetica,sans-Serif" font-size="10.00">javolution.util.internal.table.sorted.</text>
<text text-anchor="middle" x="489" y="-215.5" font-family="Helvetica,sans-Serif" font-size="10.00">UnmodifiableSortedTableImpl.positionOf</text>
</a>
</g>
</g>
<!-- Node1&#45;&gt;Node18 -->
<g id="edge18" class="edge">
<title>Node1&#45;&gt;Node18</title>
<path fill="none" stroke="midnightblue" d="M698.34,-385.06C682.16,-349.28 647.06,-283.16 596,-248.5 590.29,-244.62 584.05,-241.35 577.56,-238.57"/>
<polygon fill="midnightblue" stroke="midnightblue" points="695.17,-386.54 702.4,-394.29 701.57,-383.73 695.17,-386.54"/>
</g>
<!-- Node19 -->
<g id="node19" class="node">
<title>Node19</title>
<g id="a_node19"><a xlink:href="../../d4/d6c/classjavolution_1_1util_1_1internal_1_1table_1_1sorted_1_1FastSortedTableImpl.html#a20e097ff018e1e258ae918b83754a4ec" target="_top" xlink:title=" ">
<polygon fill="white" stroke="black" points="394.5,-148 394.5,-189 583.5,-189 583.5,-148 394.5,-148"/>
<text text-anchor="start" x="402.5" y="-177" font-family="Helvetica,sans-Serif" font-size="10.00">javolution.util.internal.table.sorted.</text>
<text text-anchor="start" x="402.5" y="-166" font-family="Helvetica,sans-Serif" font-size="10.00">FastSortedTableImpl&lt; Entry&lt; K,</text>
<text text-anchor="middle" x="489" y="-155" font-family="Helvetica,sans-Serif" font-size="10.00"> V &gt; &gt;::positionOf</text>
</a>
</g>
</g>
<!-- Node1&#45;&gt;Node19 -->
<g id="edge19" class="edge">
<title>Node1&#45;&gt;Node19</title>
<path fill="none" stroke="midnightblue" d="M702.22,-384.7C689.72,-340.49 657.49,-248.06 596,-198.5 591.61,-194.96 586.82,-191.84 581.79,-189.08"/>
<polygon fill="midnightblue" stroke="midnightblue" points="698.84,-385.63 704.85,-394.36 705.6,-383.79 698.84,-385.63"/>
</g>
<!-- Node20 -->
<g id="node20" class="node">
<title>Node20</title>
<g id="a_node20"><a xlink:href="../../df/d83/classjavolution_1_1util_1_1internal_1_1table_1_1ReversedTableImpl.html#a801f9ccb6c96ed1f3bb51ba218cadeec" target="_top" xlink:title=" ">
<polygon fill="white" stroke="black" points="411.5,-98.5 411.5,-128.5 566.5,-128.5 566.5,-98.5 411.5,-98.5"/>
<text text-anchor="start" x="419.5" y="-116.5" font-family="Helvetica,sans-Serif" font-size="10.00">javolution.util.internal.table.</text>
<text text-anchor="middle" x="489" y="-105.5" font-family="Helvetica,sans-Serif" font-size="10.00">ReversedTableImpl.set</text>
</a>
</g>
</g>
<!-- Node1&#45;&gt;Node20 -->
<g id="edge20" class="edge">
<title>Node1&#45;&gt;Node20</title>
<path fill="none" stroke="midnightblue" d="M705.67,-384.4C698.21,-330.64 672.98,-203.93 596,-138.5 587.5,-131.28 577.29,-126.05 566.6,-122.29"/>
<polygon fill="midnightblue" stroke="midnightblue" points="702.21,-384.97 706.96,-394.43 709.15,-384.07 702.21,-384.97"/>
</g>
<!-- Node21 -->
<g id="node21" class="node">
<title>Node21</title>
<g id="a_node21"><a xlink:href="../../d4/d5c/classjavolution_1_1util_1_1internal_1_1table_1_1SubTableImpl.html#a9ce404b3941bf4d1ce2f91e4afb20856" target="_top" xlink:title=" ">
<polygon fill="white" stroke="black" points="411.5,-49.5 411.5,-79.5 566.5,-79.5 566.5,-49.5 411.5,-49.5"/>
<text text-anchor="start" x="419.5" y="-67.5" font-family="Helvetica,sans-Serif" font-size="10.00">javolution.util.internal.table.</text>
<text text-anchor="middle" x="489" y="-56.5" font-family="Helvetica,sans-Serif" font-size="10.00">SubTableImpl.set</text>
</a>
</g>
</g>
<!-- Node1&#45;&gt;Node21 -->
<g id="edge21" class="edge">
<title>Node1&#45;&gt;Node21</title>
<path fill="none" stroke="midnightblue" d="M707.53,-384.07C703.76,-323.18 685.42,-168.23 596,-88.5 587.62,-81.03 577.41,-75.73 566.67,-72.01"/>
<polygon fill="midnightblue" stroke="midnightblue" points="704.05,-384.5 708.08,-394.3 711.04,-384.13 704.05,-384.5"/>
</g>
<!-- Node22 -->
<g id="node22" class="node">
<title>Node22</title>
<g id="a_node22"><a xlink:href="../../d9/d7a/classjavolution_1_1util_1_1internal_1_1table_1_1FastTableImpl.html#a97c8a1a0a296c16b45dd3a73fe28fa01" target="_top" xlink:title=" ">
<polygon fill="white" stroke="black" points="411.5,-0.5 411.5,-30.5 566.5,-30.5 566.5,-0.5 411.5,-0.5"/>
<text text-anchor="start" x="419.5" y="-18.5" font-family="Helvetica,sans-Serif" font-size="10.00">javolution.util.internal.table.</text>
<text text-anchor="middle" x="489" y="-7.5" font-family="Helvetica,sans-Serif" font-size="10.00">FastTableImpl.set</text>
</a>
</g>
</g>
<!-- Node1&#45;&gt;Node22 -->
<g id="edge22" class="edge">
<title>Node1&#45;&gt;Node22</title>
<path fill="none" stroke="midnightblue" d="M708.9,-384.4C708.51,-317.61 697.76,-134.14 596,-39.5 587.71,-31.79 577.48,-26.38 566.68,-22.6"/>
<polygon fill="midnightblue" stroke="midnightblue" points="705.4,-384.43 708.88,-394.44 712.4,-384.45 705.4,-384.43"/>
</g>
<!-- Node7 -->
<g id="node7" class="node">
<title>Node7</title>
<g id="a_node7"><a xlink:href="../../d8/d86/classjavolution_1_1util_1_1internal_1_1table_1_1TableView.html#a466a95b48ad60c8e715a53ae948597d6" target="_top" xlink:title=" ">
<polygon fill="white" stroke="black" points="191,-589.5 191,-619.5 346,-619.5 346,-589.5 191,-589.5"/>
<text text-anchor="start" x="199" y="-607.5" font-family="Helvetica,sans-Serif" font-size="10.00">javolution.util.internal.table.</text>
<text text-anchor="middle" x="268.5" y="-596.5" font-family="Helvetica,sans-Serif" font-size="10.00">TableView.offerFirst</text>
</a>
</g>
</g>
<!-- Node6&#45;&gt;Node7 -->
<g id="edge6" class="edge">
<title>Node6&#45;&gt;Node7</title>
<path fill="none" stroke="midnightblue" d="M401.24,-619.57C383,-617.49 363.88,-615.3 346.04,-613.26"/>
<polygon fill="midnightblue" stroke="midnightblue" points="400.94,-623.06 411.27,-620.72 401.74,-616.11 400.94,-623.06"/>
</g>
<!-- Node8 -->
<g id="node8" class="node">
<title>Node8</title>
<g id="a_node8"><a xlink:href="../../d8/d86/classjavolution_1_1util_1_1internal_1_1table_1_1TableView.html#a294d792793a610014b482b0f5091f10a" target="_top" xlink:title=" ">
<polygon fill="white" stroke="black" points="191,-638.5 191,-668.5 346,-668.5 346,-638.5 191,-638.5"/>
<text text-anchor="start" x="199" y="-656.5" font-family="Helvetica,sans-Serif" font-size="10.00">javolution.util.internal.table.</text>
<text text-anchor="middle" x="268.5" y="-645.5" font-family="Helvetica,sans-Serif" font-size="10.00">TableView.push</text>
</a>
</g>
</g>
<!-- Node6&#45;&gt;Node8 -->
<g id="edge7" class="edge">
<title>Node6&#45;&gt;Node8</title>
<path fill="none" stroke="midnightblue" d="M401.24,-639.03C383,-641.03 363.88,-643.13 346.04,-645.09"/>
<polygon fill="midnightblue" stroke="midnightblue" points="401.71,-642.5 411.27,-637.93 400.95,-635.54 401.71,-642.5"/>
</g>
<!-- Node13 -->
<g id="node13" class="node">
<title>Node13</title>
<g id="a_node13"><a xlink:href="../../d8/d86/classjavolution_1_1util_1_1internal_1_1table_1_1TableView.html#a8b85bf183feb4483ceb067ca988b1241" target="_top" xlink:title=" ">
<polygon fill="white" stroke="black" points="191,-318.5 191,-348.5 346,-348.5 346,-318.5 191,-318.5"/>
<text text-anchor="start" x="199" y="-336.5" font-family="Helvetica,sans-Serif" font-size="10.00">javolution.util.internal.table.</text>
<text text-anchor="middle" x="268.5" y="-325.5" font-family="Helvetica,sans-Serif" font-size="10.00">TableView.offerLast</text>
</a>
</g>
</g>
<!-- Node12&#45;&gt;Node13 -->
<g id="edge12" class="edge">
<title>Node12&#45;&gt;Node13</title>
<path fill="none" stroke="midnightblue" d="M401.24,-333.5C383,-333.5 363.88,-333.5 346.04,-333.5"/>
<polygon fill="midnightblue" stroke="midnightblue" points="401.27,-337 411.27,-333.5 401.27,-330 401.27,-337"/>
</g>
<!-- Node14 -->
<g id="node14" class="node">
<title>Node14</title>
<g id="a_node14"><a xlink:href="../../d8/d86/classjavolution_1_1util_1_1internal_1_1table_1_1TableView.html#adad56174ae447605044d82ef3f664547" target="_top" xlink:title=" ">
<polygon fill="white" stroke="black" points="0,-318.5 0,-348.5 155,-348.5 155,-318.5 0,-318.5"/>
<text text-anchor="start" x="8" y="-336.5" font-family="Helvetica,sans-Serif" font-size="10.00">javolution.util.internal.table.</text>
<text text-anchor="middle" x="77.5" y="-325.5" font-family="Helvetica,sans-Serif" font-size="10.00">TableView.offer</text>
</a>
</g>
</g>
<!-- Node13&#45;&gt;Node14 -->
<g id="edge13" class="edge">
<title>Node13&#45;&gt;Node14</title>
<path fill="none" stroke="midnightblue" d="M180.9,-333.5C172.33,-333.5 163.67,-333.5 155.21,-333.5"/>
<polygon fill="midnightblue" stroke="midnightblue" points="180.9,-337 190.9,-333.5 180.9,-330 180.9,-337"/>
</g>
<!-- Node15&#45;&gt;Node5 -->
<g id="edge15" class="edge">
<title>Node15&#45;&gt;Node5</title>
<path fill="none" stroke="midnightblue" d="M401.46,-399.15C394.73,-401.57 388.16,-404.34 382,-407.5 340.52,-428.79 301.75,-468.59 282.39,-490.35"/>
<polygon fill="midnightblue" stroke="midnightblue" points="403.02,-402.32 411.41,-395.84 400.81,-395.67 403.02,-402.32"/>
</g>
<!-- Node16 -->
<g id="node16" class="node">
<title>Node16</title>
<g id="a_node16"><a xlink:href="../../d9/d7a/classjavolution_1_1util_1_1internal_1_1table_1_1FastTableImpl.html#ac6df68538a497b1a3dc01cee2c1f4f66" target="_top" xlink:title=" ">
<polygon fill="white" stroke="black" points="191,-367.5 191,-397.5 346,-397.5 346,-367.5 191,-367.5"/>
<text text-anchor="start" x="199" y="-385.5" font-family="Helvetica,sans-Serif" font-size="10.00">javolution.util.internal.table.</text>
<text text-anchor="middle" x="268.5" y="-374.5" font-family="Helvetica,sans-Serif" font-size="10.00">FastTableImpl.readObject</text>
</a>
</g>
</g>
<!-- Node15&#45;&gt;Node16 -->
<g id="edge16" class="edge">
<title>Node15&#45;&gt;Node16</title>
<path fill="none" stroke="midnightblue" d="M401.24,-382.5C383,-382.5 363.88,-382.5 346.04,-382.5"/>
<polygon fill="midnightblue" stroke="midnightblue" points="401.27,-386 411.27,-382.5 401.27,-379 401.27,-386"/>
</g>
</g>
</svg>
        <g id="navigator" transform="translate(0 0)" fill="#404254">
                <rect fill="#f2f5e9" fill-opacity="0.5" stroke="#606060" stroke-width=".5" x="0" y="0" width="60" height="60"/>
                <use id="zoomplus" xlink:href="#zoomPlus" x="17" y="9" onmousedown="handleZoom(evt,'in')"/>
                <use id="zoomminus" xlink:href="#zoomMin" x="42" y="9" onmousedown="handleZoom(evt,'out')"/>
                <use id="reset" xlink:href="#resetDef" x="30" y="36" onmousedown="handleReset()"/>
                <g id="arrowUp" xlink:href="#dirArrow" transform="translate(30 24)" onmousedown="handlePan(0,-1)">
                  <use xlink:href="#rim" fill="#404040">
                        <set attributeName="fill" to="#808080" begin="arrowUp.mouseover" end="arrowUp.mouseout"/>
                  </use>
                  <path fill="none" stroke="white" stroke-width="1.5" d="M0,-3.0v7 M-2.5,-0.5L0,-3.0L2.5,-0.5"/>
                </g>
                <g id="arrowRight" xlink:href="#dirArrow" transform="rotate(90) translate(36 -43)" onmousedown="handlePan(1,0)">
                  <use xlink:href="#rim" fill="#404040">
                        <set attributeName="fill" to="#808080" begin="arrowRight.mouseover" end="arrowRight.mouseout"/>
                  </use>
                  <path fill="none" stroke="white" stroke-width="1.5" d="M0,-3.0v7 M-2.5,-0.5L0,-3.0L2.5,-0.5"/>
                </g>
                <g id="arrowDown" xlink:href="#dirArrow" transform="rotate(180) translate(-30 -48)" onmousedown="handlePan(0,1)">
                  <use xlink:href="#rim" fill="#404040">
                        <set attributeName="fill" to="#808080" begin="arrowDown.mouseover" end="arrowDown.mouseout"/>
                  </use>
                  <path fill="none" stroke="white" stroke-width="1.5" d="M0,-3.0v7 M-2.5,-0.5L0,-3.0L2.5,-0.5"/>
                </g>
                <g id="arrowLeft" xlink:href="#dirArrow" transform="rotate(270) translate(-36 17)" onmousedown="handlePan(-1,0)">
                  <use xlink:href="#rim" fill="#404040">
                        <set attributeName="fill" to="#808080" begin="arrowLeft.mouseover" end="arrowLeft.mouseout"/>
                  </use>
                  <path fill="none" stroke="white" stroke-width="1.5" d="M0,-3.0v7 M-2.5,-0.5L0,-3.0L2.5,-0.5"/>
                </g>
        </g>
        <svg viewBox="0 0 15 15" width="100%" height="30px" preserveAspectRatio="xMaxYMin meet">
         <g id="arrow_out" transform="scale(0.3 0.3)">
          <a xlink:href="classjavolution_1_1util_1_1internal_1_1table_1_1TableView_a69e7425b9e4c16f94a60ffdce48ef118_icgraph_org.svg" target="_base">
           <rect id="button" ry="5" rx="5" y="6" x="6" height="38" width="38"
                fill="#f2f5e9" fill-opacity="0.5" stroke="#606060" stroke-width="1.0"/>
           <path id="arrow"
             d="M 11.500037,31.436501 C 11.940474,20.09759 22.043105,11.32322 32.158766,21.979434 L 37.068811,17.246167 C 37.068811,17.246167 37.088388,32 37.088388,32 L 22.160133,31.978069 C 22.160133,31.978069 26.997745,27.140456 26.997745,27.140456 C 18.528582,18.264221 13.291696,25.230495 11.500037,31.436501 z"
             style="fill:#404040;"/>
          </a>
         </g>
        </svg>
</svg>
