<?xml version="1.0" encoding="UTF-8" standalone="no"?>
<!DOCTYPE svg PUBLIC "-//W3C//DTD SVG 1.1//EN"
 "http://www.w3.org/Graphics/SVG/1.1/DTD/svg11.dtd">
<!-- Generated by graphviz version 2.43.0 (0)
 -->
<!-- Title: javolution.io.CharSequenceReader Pages: 1 -->
<svg width="211pt" height="106pt"
 viewBox="0.00 0.00 210.50 106.00" xmlns="http://www.w3.org/2000/svg" xmlns:xlink="http://www.w3.org/1999/xlink">
<g id="graph0" class="graph" transform="scale(1 1) rotate(0) translate(4 102)">
<title>javolution.io.CharSequenceReader</title>
<polygon fill="white" stroke="transparent" points="-4,4 -4,-102 206.5,-102 206.5,4 -4,4"/>
<!-- Node1 -->
<g id="node1" class="node">
<title>Node1</title>
<g id="a_node1"><a xlink:title=" ">
<polygon fill="#bfbfbf" stroke="black" points="8.5,-0.5 8.5,-30.5 158.5,-30.5 158.5,-0.5 8.5,-0.5"/>
<text text-anchor="start" x="16.5" y="-18.5" font-family="Helvetica,sans-Serif" font-size="10.00">javolution.io.CharSequence</text>
<text text-anchor="middle" x="83.5" y="-7.5" font-family="Helvetica,sans-Serif" font-size="10.00">Reader</text>
</a>
</g>
</g>
<!-- Node2 -->
<g id="node2" class="node">
<title>Node2</title>
<g id="a_node2"><a xlink:title=" ">
<polygon fill="white" stroke="#bfbfbf" points="0,-78.5 0,-97.5 51,-97.5 51,-78.5 0,-78.5"/>
<text text-anchor="middle" x="25.5" y="-85.5" font-family="Helvetica,sans-Serif" font-size="10.00">Reader</text>
</a>
</g>
</g>
<!-- Node2&#45;&gt;Node1 -->
<g id="edge1" class="edge">
<title>Node2&#45;&gt;Node1</title>
<path fill="none" stroke="midnightblue" d="M39.16,-70.39C49.13,-58.28 62.48,-42.05 71.92,-30.58"/>
<polygon fill="midnightblue" stroke="midnightblue" points="36.26,-68.41 32.61,-78.36 41.67,-72.86 36.26,-68.41"/>
</g>
<!-- Node3 -->
<g id="node3" class="node">
<title>Node3</title>
<g id="a_node3"><a xlink:title=" ">
<polygon fill="white" stroke="#bfbfbf" points="69,-78.5 69,-97.5 98,-97.5 98,-78.5 69,-78.5"/>
<text text-anchor="middle" x="83.5" y="-85.5" font-family="Helvetica,sans-Serif" font-size="10.00">int</text>
</a>
</g>
</g>
<!-- Node3&#45;&gt;Node1 -->
<g id="edge2" class="edge">
<title>Node3&#45;&gt;Node1</title>
<path fill="none" stroke="#9a32cd" stroke-dasharray="5,2" d="M83.5,-68.24C83.5,-56.41 83.5,-41.38 83.5,-30.58"/>
<polygon fill="#9a32cd" stroke="#9a32cd" points="80,-68.36 83.5,-78.36 87,-68.36 80,-68.36"/>
<text text-anchor="middle" x="101.5" y="-52" font-family="Helvetica,sans-Serif" font-size="10.00"> _index</text>
</g>
<!-- Node4 -->
<g id="node4" class="node">
<title>Node4</title>
<g id="a_node4"><a xlink:title=" ">
<polygon fill="white" stroke="#bfbfbf" points="116.5,-78.5 116.5,-97.5 202.5,-97.5 202.5,-78.5 116.5,-78.5"/>
<text text-anchor="middle" x="159.5" y="-85.5" font-family="Helvetica,sans-Serif" font-size="10.00">CharSequence</text>
</a>
</g>
</g>
<!-- Node4&#45;&gt;Node1 -->
<g id="edge3" class="edge">
<title>Node4&#45;&gt;Node1</title>
<path fill="none" stroke="#9a32cd" stroke-dasharray="5,2" d="M145,-70.78C138.61,-63.87 130.88,-55.84 123.5,-49 116.67,-42.67 108.79,-36.13 101.84,-30.58"/>
<polygon fill="#9a32cd" stroke="#9a32cd" points="142.48,-73.2 151.8,-78.24 147.65,-68.49 142.48,-73.2"/>
<text text-anchor="middle" x="150.5" y="-52" font-family="Helvetica,sans-Serif" font-size="10.00"> _input</text>
</g>
</g>
</svg>
