<?xml version="1.0" encoding="UTF-8" standalone="no"?>
<!DOCTYPE svg PUBLIC "-//W3C//DTD SVG 1.1//EN"
 "http://www.w3.org/Graphics/SVG/1.1/DTD/svg11.dtd">
<!-- Generated by graphviz version 2.43.0 (0)
 -->
<!-- Title: javolution.util.FastTable.add Pages: 1 -->
<svg width="562pt" height="137pt"
 viewBox="0.00 0.00 562.00 137.00" xmlns="http://www.w3.org/2000/svg" xmlns:xlink="http://www.w3.org/1999/xlink">
<g id="graph0" class="graph" transform="scale(1 1) rotate(0) translate(4 133)">
<title>javolution.util.FastTable.add</title>
<polygon fill="white" stroke="transparent" points="-4,4 -4,-133 558,-133 558,4 -4,4"/>
<!-- Node1 -->
<g id="node1" class="node">
<title>Node1</title>
<g id="a_node1"><a xlink:title=" ">
<polygon fill="#bfbfbf" stroke="black" points="401,-55 401,-74 554,-74 554,-55 401,-55"/>
<text text-anchor="middle" x="477.5" y="-62" font-family="Helvetica,sans-Serif" font-size="10.00">javolution.util.FastTable.add</text>
</a>
</g>
</g>
<!-- Node2 -->
<g id="node2" class="node">
<title>Node2</title>
<g id="a_node2"><a xlink:href="../../d3/dfa/classjavolution_1_1xml_1_1XMLReferenceResolver.html#a1e5daf32aa19cc5e41d3b87915441c38" target="_top" xlink:title=" ">
<polygon fill="white" stroke="black" points="199.5,-98.5 199.5,-128.5 360.5,-128.5 360.5,-98.5 199.5,-98.5"/>
<text text-anchor="start" x="207.5" y="-116.5" font-family="Helvetica,sans-Serif" font-size="10.00">javolution.xml.XMLReference</text>
<text text-anchor="middle" x="280" y="-105.5" font-family="Helvetica,sans-Serif" font-size="10.00">Resolver.createReference</text>
</a>
</g>
</g>
<!-- Node1&#45;&gt;Node2 -->
<g id="edge1" class="edge">
<title>Node1&#45;&gt;Node2</title>
<path fill="none" stroke="midnightblue" d="M428.57,-76.51C402.15,-83.14 369.11,-91.42 340.99,-98.46"/>
<polygon fill="midnightblue" stroke="midnightblue" points="429.49,-79.89 438.34,-74.06 427.79,-73.1 429.49,-79.89"/>
</g>
<!-- Node4 -->
<g id="node4" class="node">
<title>Node4</title>
<g id="a_node4"><a xlink:href="../../dc/daa/classjavolution_1_1xml_1_1internal_1_1stream_1_1NamespacesImpl.html#a101585447d7341bd003f2f696931a232" target="_top" xlink:title=" ">
<polygon fill="white" stroke="black" points="196,-49.5 196,-79.5 364,-79.5 364,-49.5 196,-49.5"/>
<text text-anchor="start" x="204" y="-67.5" font-family="Helvetica,sans-Serif" font-size="10.00">javolution.xml.internal.stream.</text>
<text text-anchor="middle" x="280" y="-56.5" font-family="Helvetica,sans-Serif" font-size="10.00">NamespacesImpl.getPrefixes</text>
</a>
</g>
</g>
<!-- Node1&#45;&gt;Node4 -->
<g id="edge3" class="edge">
<title>Node1&#45;&gt;Node4</title>
<path fill="none" stroke="midnightblue" d="M390.67,-64.5C381.87,-64.5 372.94,-64.5 364.18,-64.5"/>
<polygon fill="midnightblue" stroke="midnightblue" points="390.91,-68 400.91,-64.5 390.91,-61 390.91,-68"/>
</g>
<!-- Node5 -->
<g id="node5" class="node">
<title>Node5</title>
<g id="a_node5"><a xlink:href="../../de/d3a/classjavolution_1_1test_1_1Perfometer.html#a79430ba4172d29e5d53ee83ff424e6a9" target="_top" xlink:title=" ">
<polygon fill="white" stroke="black" points="195,-0.5 195,-30.5 365,-30.5 365,-0.5 195,-0.5"/>
<text text-anchor="start" x="203" y="-18.5" font-family="Helvetica,sans-Serif" font-size="10.00">javolution.test.Perfometer.print</text>
<text text-anchor="middle" x="280" y="-7.5" font-family="Helvetica,sans-Serif" font-size="10.00">Details</text>
</a>
</g>
</g>
<!-- Node1&#45;&gt;Node5 -->
<g id="edge4" class="edge">
<title>Node1&#45;&gt;Node5</title>
<path fill="none" stroke="midnightblue" d="M428.57,-52.49C402.15,-45.86 369.11,-37.58 340.99,-30.54"/>
<polygon fill="midnightblue" stroke="midnightblue" points="427.79,-55.9 438.34,-54.94 429.49,-49.11 427.79,-55.9"/>
</g>
<!-- Node3 -->
<g id="node3" class="node">
<title>Node3</title>
<g id="a_node3"><a xlink:href="../../d9/d60/classjavolution_1_1xml_1_1XMLFormat_1_1InputElement.html#a668e6902759573d65bf949b0771eaaca" target="_top" xlink:title=" ">
<polygon fill="white" stroke="black" points="0,-98.5 0,-128.5 159,-128.5 159,-98.5 0,-98.5"/>
<text text-anchor="start" x="8" y="-116.5" font-family="Helvetica,sans-Serif" font-size="10.00">javolution.xml.XMLFormat.</text>
<text text-anchor="middle" x="79.5" y="-105.5" font-family="Helvetica,sans-Serif" font-size="10.00">InputElement.readInstanceOf</text>
</a>
</g>
</g>
<!-- Node2&#45;&gt;Node3 -->
<g id="edge2" class="edge">
<title>Node2&#45;&gt;Node3</title>
<path fill="none" stroke="midnightblue" d="M189.38,-113.5C179.29,-113.5 169.07,-113.5 159.14,-113.5"/>
<polygon fill="midnightblue" stroke="midnightblue" points="189.41,-117 199.41,-113.5 189.41,-110 189.41,-117"/>
</g>
</g>
</svg>
