<?xml version="1.0" encoding="UTF-8" standalone="no"?>
<!DOCTYPE svg PUBLIC "-//W3C//DTD SVG 1.1//EN"
 "http://www.w3.org/Graphics/SVG/1.1/DTD/svg11.dtd">
<!-- Generated by graphviz version 2.43.0 (0)
 -->
<!-- Title: javolution.util.FastTable.element Pages: 1 -->
<svg width="431pt" height="493pt"
 viewBox="0.00 0.00 431.00 493.00" xmlns="http://www.w3.org/2000/svg" xmlns:xlink="http://www.w3.org/1999/xlink">
<g id="graph0" class="graph" transform="scale(1 1) rotate(0) translate(4 489)">
<title>javolution.util.FastTable.element</title>
<polygon fill="white" stroke="transparent" points="-4,4 -4,-489 427,-489 427,4 -4,4"/>
<!-- Node1 -->
<g id="node1" class="node">
<title>Node1</title>
<g id="a_node1"><a xlink:title=" ">
<polygon fill="#bfbfbf" stroke="black" points="247,-232.5 247,-251.5 423,-251.5 423,-232.5 247,-232.5"/>
<text text-anchor="middle" x="335" y="-239.5" font-family="Helvetica,sans-Serif" font-size="10.00">javolution.util.FastTable.element</text>
</a>
</g>
</g>
<!-- Node2 -->
<g id="node2" class="node">
<title>Node2</title>
<g id="a_node2"><a xlink:href="../../da/dd1/classjavolution_1_1util_1_1FastTable.html#a80b1f77ad324b3eec9f074c2b5c0e969" target="_top" xlink:title=" ">
<polygon fill="white" stroke="black" points="0,-443.5 0,-484.5 211,-484.5 211,-443.5 0,-443.5"/>
<text text-anchor="start" x="8" y="-472.5" font-family="Helvetica,sans-Serif" font-size="10.00">javolution.util.FastTable</text>
<text text-anchor="start" x="8" y="-461.5" font-family="Helvetica,sans-Serif" font-size="10.00">&lt; javolution::xml::internal</text>
<text text-anchor="middle" x="105.5" y="-450.5" font-family="Helvetica,sans-Serif" font-size="10.00">::stream::XMLStreamReaderImpl &gt;::add</text>
</a>
</g>
</g>
<!-- Node1&#45;&gt;Node2 -->
<g id="edge1" class="edge">
<title>Node1&#45;&gt;Node2</title>
<path fill="none" stroke="midnightblue" d="M327.06,-261.29C312.11,-300.07 273.1,-387.74 211,-434 206.23,-437.55 201.06,-440.68 195.64,-443.45"/>
<polygon fill="midnightblue" stroke="midnightblue" points="330.42,-262.31 330.64,-251.72 323.86,-259.86 330.42,-262.31"/>
</g>
<!-- Node3 -->
<g id="node3" class="node">
<title>Node3</title>
<g id="a_node3"><a xlink:href="../../da/dd1/classjavolution_1_1util_1_1FastTable.html#a5daf7a32600ac7c30eb9d1d605d6496f" target="_top" xlink:title=" ">
<polygon fill="white" stroke="black" points="17.5,-372 17.5,-424 193.5,-424 193.5,-372 17.5,-372"/>
<text text-anchor="start" x="25.5" y="-412" font-family="Helvetica,sans-Serif" font-size="10.00">javolution.util.FastTable</text>
<text text-anchor="start" x="25.5" y="-401" font-family="Helvetica,sans-Serif" font-size="10.00">&lt; javolution::xml::internal</text>
<text text-anchor="start" x="25.5" y="-390" font-family="Helvetica,sans-Serif" font-size="10.00">::stream::XMLStreamReaderImpl</text>
<text text-anchor="middle" x="105.5" y="-379" font-family="Helvetica,sans-Serif" font-size="10.00"> &gt;::addFirst</text>
</a>
</g>
</g>
<!-- Node1&#45;&gt;Node3 -->
<g id="edge2" class="edge">
<title>Node1&#45;&gt;Node3</title>
<path fill="none" stroke="midnightblue" d="M320.58,-259.56C299.79,-285.64 257.34,-334.58 211,-363 205.54,-366.35 199.71,-369.42 193.72,-372.24"/>
<polygon fill="midnightblue" stroke="midnightblue" points="323.36,-261.69 326.78,-251.66 317.85,-257.37 323.36,-261.69"/>
</g>
<!-- Node4 -->
<g id="node4" class="node">
<title>Node4</title>
<g id="a_node4"><a xlink:href="../../d8/d64/classjavolution_1_1util_1_1FastSortedTable.html#aa2c260389244838a40caef5da00badfe" target="_top" xlink:title=" ">
<polygon fill="white" stroke="black" points="36.5,-323 36.5,-353 174.5,-353 174.5,-323 36.5,-323"/>
<text text-anchor="start" x="44.5" y="-341" font-family="Helvetica,sans-Serif" font-size="10.00">javolution.util.FastSorted</text>
<text text-anchor="middle" x="105.5" y="-330" font-family="Helvetica,sans-Serif" font-size="10.00">Table.addIfAbsent</text>
</a>
</g>
</g>
<!-- Node1&#45;&gt;Node4 -->
<g id="edge3" class="edge">
<title>Node1&#45;&gt;Node4</title>
<path fill="none" stroke="midnightblue" d="M312.39,-257.4C288.61,-273.68 248.73,-299.03 211,-314 199.49,-318.56 186.91,-322.38 174.59,-325.52"/>
<polygon fill="midnightblue" stroke="midnightblue" points="314.47,-260.23 320.68,-251.65 310.47,-254.48 314.47,-260.23"/>
</g>
<!-- Node5 -->
<g id="node5" class="node">
<title>Node5</title>
<g id="a_node5"><a xlink:href="../../da/dd1/classjavolution_1_1util_1_1FastTable.html#a26f36c70e744b226afe61d0d12789677" target="_top" xlink:title=" ">
<polygon fill="white" stroke="black" points="17.5,-252 17.5,-304 193.5,-304 193.5,-252 17.5,-252"/>
<text text-anchor="start" x="25.5" y="-292" font-family="Helvetica,sans-Serif" font-size="10.00">javolution.util.FastTable</text>
<text text-anchor="start" x="25.5" y="-281" font-family="Helvetica,sans-Serif" font-size="10.00">&lt; javolution::xml::internal</text>
<text text-anchor="start" x="25.5" y="-270" font-family="Helvetica,sans-Serif" font-size="10.00">::stream::XMLStreamReaderImpl</text>
<text text-anchor="middle" x="105.5" y="-259" font-family="Helvetica,sans-Serif" font-size="10.00"> &gt;::addLast</text>
</a>
</g>
</g>
<!-- Node1&#45;&gt;Node5 -->
<g id="edge4" class="edge">
<title>Node1&#45;&gt;Node5</title>
<path fill="none" stroke="midnightblue" d="M263.96,-253.08C241.83,-256.58 217.1,-260.5 193.91,-264.17"/>
<polygon fill="midnightblue" stroke="midnightblue" points="264.6,-256.53 273.93,-251.51 263.51,-249.61 264.6,-256.53"/>
</g>
<!-- Node6 -->
<g id="node6" class="node">
<title>Node6</title>
<g id="a_node6"><a xlink:href="../../da/dd1/classjavolution_1_1util_1_1FastTable.html#a419e1c0d1921fccf4c4110c7d63ba00b" target="_top" xlink:title=" ">
<polygon fill="white" stroke="black" points="17.5,-181 17.5,-233 193.5,-233 193.5,-181 17.5,-181"/>
<text text-anchor="start" x="25.5" y="-221" font-family="Helvetica,sans-Serif" font-size="10.00">javolution.util.FastTable</text>
<text text-anchor="start" x="25.5" y="-210" font-family="Helvetica,sans-Serif" font-size="10.00">&lt; javolution::xml::internal</text>
<text text-anchor="start" x="25.5" y="-199" font-family="Helvetica,sans-Serif" font-size="10.00">::stream::XMLStreamReaderImpl</text>
<text text-anchor="middle" x="105.5" y="-188" font-family="Helvetica,sans-Serif" font-size="10.00"> &gt;::indexOf</text>
</a>
</g>
</g>
<!-- Node1&#45;&gt;Node6 -->
<g id="edge5" class="edge">
<title>Node1&#45;&gt;Node6</title>
<path fill="none" stroke="midnightblue" d="M262,-230.92C240.25,-227.58 216.14,-223.87 193.53,-220.39"/>
<polygon fill="midnightblue" stroke="midnightblue" points="261.72,-234.42 272.14,-232.48 262.78,-227.5 261.72,-234.42"/>
</g>
<!-- Node7 -->
<g id="node7" class="node">
<title>Node7</title>
<g id="a_node7"><a xlink:href="../../da/dd1/classjavolution_1_1util_1_1FastTable.html#a40eaf8e14db279b52f30105c1e983566" target="_top" xlink:title=" ">
<polygon fill="white" stroke="black" points="17.5,-110 17.5,-162 193.5,-162 193.5,-110 17.5,-110"/>
<text text-anchor="start" x="25.5" y="-150" font-family="Helvetica,sans-Serif" font-size="10.00">javolution.util.FastTable</text>
<text text-anchor="start" x="25.5" y="-139" font-family="Helvetica,sans-Serif" font-size="10.00">&lt; javolution::xml::internal</text>
<text text-anchor="start" x="25.5" y="-128" font-family="Helvetica,sans-Serif" font-size="10.00">::stream::XMLStreamReaderImpl</text>
<text text-anchor="middle" x="105.5" y="-117" font-family="Helvetica,sans-Serif" font-size="10.00"> &gt;::lastIndexOf</text>
</a>
</g>
</g>
<!-- Node1&#45;&gt;Node7 -->
<g id="edge6" class="edge">
<title>Node1&#45;&gt;Node7</title>
<path fill="none" stroke="midnightblue" d="M310.82,-227.08C286.59,-211.89 247.13,-188.33 211,-172 203.31,-168.52 195.17,-165.18 186.97,-162.02"/>
<polygon fill="midnightblue" stroke="midnightblue" points="309,-230.07 319.32,-232.45 312.74,-224.15 309,-230.07"/>
</g>
<!-- Node8 -->
<g id="node8" class="node">
<title>Node8</title>
<g id="a_node8"><a xlink:href="../../d8/d64/classjavolution_1_1util_1_1FastSortedTable.html#aeaaf0fe69a3aaa1b09c26fe53e42f4b5" target="_top" xlink:title=" ">
<polygon fill="white" stroke="black" points="36.5,-61 36.5,-91 174.5,-91 174.5,-61 36.5,-61"/>
<text text-anchor="start" x="44.5" y="-79" font-family="Helvetica,sans-Serif" font-size="10.00">javolution.util.FastSorted</text>
<text text-anchor="middle" x="105.5" y="-68" font-family="Helvetica,sans-Serif" font-size="10.00">Table.positionOf</text>
</a>
</g>
</g>
<!-- Node1&#45;&gt;Node8 -->
<g id="edge7" class="edge">
<title>Node1&#45;&gt;Node8</title>
<path fill="none" stroke="midnightblue" d="M323.27,-223.54C304.55,-193.05 262.91,-132.41 211,-101 199.99,-94.34 187.32,-89.45 174.69,-85.86"/>
<polygon fill="midnightblue" stroke="midnightblue" points="320.38,-225.53 328.53,-232.31 326.39,-221.93 320.38,-225.53"/>
</g>
<!-- Node9 -->
<g id="node9" class="node">
<title>Node9</title>
<g id="a_node9"><a xlink:href="../../da/dd1/classjavolution_1_1util_1_1FastTable.html#af201d8d11a0c1116d3d521eb39abb17d" target="_top" xlink:title=" ">
<polygon fill="white" stroke="black" points="1.5,-0.5 1.5,-41.5 209.5,-41.5 209.5,-0.5 1.5,-0.5"/>
<text text-anchor="start" x="9.5" y="-29.5" font-family="Helvetica,sans-Serif" font-size="10.00">javolution.util.FastTable</text>
<text text-anchor="start" x="9.5" y="-18.5" font-family="Helvetica,sans-Serif" font-size="10.00">&lt; javolution::xml::internal</text>
<text text-anchor="middle" x="105.5" y="-7.5" font-family="Helvetica,sans-Serif" font-size="10.00">::stream::XMLStreamReaderImpl &gt;::set</text>
</a>
</g>
</g>
<!-- Node1&#45;&gt;Node9 -->
<g id="edge8" class="edge">
<title>Node1&#45;&gt;Node9</title>
<path fill="none" stroke="midnightblue" d="M326.97,-222.96C311.85,-184.66 272.55,-98.05 211,-52 205.7,-48.03 199.89,-44.57 193.82,-41.55"/>
<polygon fill="midnightblue" stroke="midnightblue" points="323.74,-224.32 330.59,-232.4 330.28,-221.81 323.74,-224.32"/>
</g>
</g>
</svg>
