<?xml version="1.0" encoding="UTF-8" standalone="no"?>
<!DOCTYPE svg PUBLIC "-//W3C//DTD SVG 1.1//EN"
 "http://www.w3.org/Graphics/SVG/1.1/DTD/svg11.dtd">
<!-- Generated by graphviz version 2.43.0 (0)
 -->
<!-- Title: javolution.xml.XMLContext.searchFormat Pages: 1 -->
<svg width="795pt" height="88pt"
 viewBox="0.00 0.00 795.00 88.00" xmlns="http://www.w3.org/2000/svg" xmlns:xlink="http://www.w3.org/1999/xlink">
<g id="graph0" class="graph" transform="scale(1 1) rotate(0) translate(4 84)">
<title>javolution.xml.XMLContext.searchFormat</title>
<polygon fill="white" stroke="transparent" points="-4,4 -4,-84 791,-84 791,4 -4,4"/>
<!-- Node1 -->
<g id="node1" class="node">
<title>Node1</title>
<g id="a_node1"><a xlink:title=" ">
<polygon fill="#bfbfbf" stroke="black" points="602,-24.5 602,-54.5 787,-54.5 787,-24.5 602,-24.5"/>
<text text-anchor="start" x="610" y="-42.5" font-family="Helvetica,sans-Serif" font-size="10.00">javolution.xml.XMLContext.search</text>
<text text-anchor="middle" x="694.5" y="-31.5" font-family="Helvetica,sans-Serif" font-size="10.00">Format</text>
</a>
</g>
</g>
<!-- Node2 -->
<g id="node2" class="node">
<title>Node2</title>
<g id="a_node2"><a xlink:href="../../d8/db0/classjavolution_1_1xml_1_1XMLContext.html#a1754743cdfc47aac71b7d3983afcf72f" target="_top" xlink:title=" ">
<polygon fill="white" stroke="black" points="398,-24.5 398,-54.5 566,-54.5 566,-24.5 398,-24.5"/>
<text text-anchor="start" x="406" y="-42.5" font-family="Helvetica,sans-Serif" font-size="10.00">javolution.xml.XMLContext.get</text>
<text text-anchor="middle" x="482" y="-31.5" font-family="Helvetica,sans-Serif" font-size="10.00">Format</text>
</a>
</g>
</g>
<!-- Node1&#45;&gt;Node2 -->
<g id="edge1" class="edge">
<title>Node1&#45;&gt;Node2</title>
<path fill="none" stroke="midnightblue" d="M591.74,-39.5C583.16,-39.5 574.55,-39.5 566.14,-39.5"/>
<polygon fill="midnightblue" stroke="midnightblue" points="591.78,-43 601.78,-39.5 591.78,-36 591.78,-43"/>
</g>
<!-- Node3 -->
<g id="node3" class="node">
<title>Node3</title>
<g id="a_node3"><a xlink:href="../../d2/d42/classjavolution_1_1xml_1_1XMLBinding.html#a8843f118e1a12fe863fd46acb01d3cb2" target="_top" xlink:title=" ">
<polygon fill="white" stroke="black" points="195,-24.5 195,-54.5 362,-54.5 362,-24.5 195,-24.5"/>
<text text-anchor="start" x="203" y="-42.5" font-family="Helvetica,sans-Serif" font-size="10.00">javolution.xml.XMLBinding.get</text>
<text text-anchor="middle" x="278.5" y="-31.5" font-family="Helvetica,sans-Serif" font-size="10.00">Format</text>
</a>
</g>
</g>
<!-- Node2&#45;&gt;Node3 -->
<g id="edge2" class="edge">
<title>Node2&#45;&gt;Node3</title>
<path fill="none" stroke="midnightblue" d="M387.84,-39.5C379.25,-39.5 370.59,-39.5 362.11,-39.5"/>
<polygon fill="midnightblue" stroke="midnightblue" points="387.88,-43 397.88,-39.5 387.88,-36 387.88,-43"/>
</g>
<!-- Node4 -->
<g id="node4" class="node">
<title>Node4</title>
<g id="a_node4"><a xlink:href="../../da/db8/classjavolution_1_1xml_1_1XMLFormat_1_1OutputElement.html#ae2128576fe73131fd0dfc2084d7e6e88" target="_top" xlink:title=" ">
<polygon fill="white" stroke="black" points="5,-49.5 5,-79.5 154,-79.5 154,-49.5 5,-49.5"/>
<text text-anchor="start" x="13" y="-67.5" font-family="Helvetica,sans-Serif" font-size="10.00">javolution.xml.XMLFormat.</text>
<text text-anchor="middle" x="79.5" y="-56.5" font-family="Helvetica,sans-Serif" font-size="10.00">OutputElement.add</text>
</a>
</g>
</g>
<!-- Node3&#45;&gt;Node4 -->
<g id="edge3" class="edge">
<title>Node3&#45;&gt;Node4</title>
<path fill="none" stroke="midnightblue" d="M184.64,-51.28C174.43,-52.58 164.14,-53.89 154.21,-55.15"/>
<polygon fill="midnightblue" stroke="midnightblue" points="185.33,-54.72 194.81,-49.99 184.45,-47.78 185.33,-54.72"/>
</g>
<!-- Node5 -->
<g id="node5" class="node">
<title>Node5</title>
<g id="a_node5"><a xlink:href="../../d9/d60/classjavolution_1_1xml_1_1XMLFormat_1_1InputElement.html#a668e6902759573d65bf949b0771eaaca" target="_top" xlink:title=" ">
<polygon fill="white" stroke="black" points="0,-0.5 0,-30.5 159,-30.5 159,-0.5 0,-0.5"/>
<text text-anchor="start" x="8" y="-18.5" font-family="Helvetica,sans-Serif" font-size="10.00">javolution.xml.XMLFormat.</text>
<text text-anchor="middle" x="79.5" y="-7.5" font-family="Helvetica,sans-Serif" font-size="10.00">InputElement.readInstanceOf</text>
</a>
</g>
</g>
<!-- Node3&#45;&gt;Node5 -->
<g id="edge4" class="edge">
<title>Node3&#45;&gt;Node5</title>
<path fill="none" stroke="midnightblue" d="M184.8,-28.21C176.24,-27.16 167.62,-26.11 159.2,-25.09"/>
<polygon fill="midnightblue" stroke="midnightblue" points="184.46,-31.69 194.81,-29.43 185.31,-24.74 184.46,-31.69"/>
</g>
</g>
</svg>
