<?xml version="1.0" encoding="UTF-8" standalone="no"?>
<!DOCTYPE svg PUBLIC "-//W3C//DTD SVG 1.1//EN"
 "http://www.w3.org/Graphics/SVG/1.1/DTD/svg11.dtd">
<!-- Generated by graphviz version 2.43.0 (0)
 -->
<!-- Title: javolution.util.internal.map.sorted.SortedMapView.EntrySortedSet.last Pages: 1 -->
<svg width="419pt" height="88pt"
 viewBox="0.00 0.00 419.00 88.00" xmlns="http://www.w3.org/2000/svg" xmlns:xlink="http://www.w3.org/1999/xlink">
<g id="graph0" class="graph" transform="scale(1 1) rotate(0) translate(4 84)">
<title>javolution.util.internal.map.sorted.SortedMapView.EntrySortedSet.last</title>
<polygon fill="white" stroke="transparent" points="-4,4 -4,-84 415,-84 415,4 -4,4"/>
<!-- Node1 -->
<g id="node1" class="node">
<title>Node1</title>
<g id="a_node1"><a xlink:title=" ">
<polygon fill="#bfbfbf" stroke="black" points="0,-24.5 0,-54.5 189,-54.5 189,-24.5 0,-24.5"/>
<text text-anchor="start" x="8" y="-42.5" font-family="Helvetica,sans-Serif" font-size="10.00">javolution.util.internal.map.sorted.</text>
<text text-anchor="middle" x="94.5" y="-31.5" font-family="Helvetica,sans-Serif" font-size="10.00">SortedMapView.EntrySortedSet.last</text>
</a>
</g>
</g>
<!-- Node2 -->
<g id="node2" class="node">
<title>Node2</title>
<g id="a_node2"><a xlink:href="../../d0/d83/classjavolution_1_1util_1_1internal_1_1map_1_1MapView.html#a9396958e9a4c642ec38b587479c181b3" target="_top" xlink:title=" ">
<polygon fill="white" stroke="black" points="242,-49.5 242,-79.5 394,-79.5 394,-49.5 242,-49.5"/>
<text text-anchor="start" x="250" y="-67.5" font-family="Helvetica,sans-Serif" font-size="10.00">javolution.util.internal.map.</text>
<text text-anchor="middle" x="318" y="-56.5" font-family="Helvetica,sans-Serif" font-size="10.00">MapView.get</text>
</a>
</g>
</g>
<!-- Node1&#45;&gt;Node2 -->
<g id="edge1" class="edge">
<title>Node1&#45;&gt;Node2</title>
<path fill="none" stroke="midnightblue" d="M189.11,-50.07C203.27,-51.66 217.81,-53.3 231.78,-54.88"/>
<polygon fill="midnightblue" stroke="midnightblue" points="231.5,-58.37 241.83,-56.02 232.29,-51.42 231.5,-58.37"/>
</g>
<!-- Node3 -->
<g id="node3" class="node">
<title>Node3</title>
<g id="a_node3"><a xlink:href="../../d1/d0a/classjavolution_1_1util_1_1internal_1_1map_1_1sorted_1_1SortedMapView.html#a339a90aa86d4ec0b0e22cf68a97678d8" target="_top" xlink:title=" ">
<polygon fill="white" stroke="black" points="225,-0.5 225,-30.5 411,-30.5 411,-0.5 225,-0.5"/>
<text text-anchor="start" x="233" y="-18.5" font-family="Helvetica,sans-Serif" font-size="10.00">javolution.util.internal.map.sorted.</text>
<text text-anchor="middle" x="318" y="-7.5" font-family="Helvetica,sans-Serif" font-size="10.00">SortedMapView.lastKey</text>
</a>
</g>
</g>
<!-- Node1&#45;&gt;Node3 -->
<g id="edge2" class="edge">
<title>Node1&#45;&gt;Node3</title>
<path fill="none" stroke="midnightblue" d="M189.11,-29.36C197.6,-28.44 206.23,-27.5 214.78,-26.58"/>
<polygon fill="midnightblue" stroke="midnightblue" points="215.22,-30.05 224.78,-25.49 214.46,-23.09 215.22,-30.05"/>
</g>
</g>
</svg>
