<?xml version="1.0" encoding="UTF-8" standalone="no"?>
<!DOCTYPE svg PUBLIC "-//W3C//DTD SVG 1.1//EN"
 "http://www.w3.org/Graphics/SVG/1.1/DTD/svg11.dtd">
<!-- Generated by graphviz version 2.43.0 (0)
 -->
<!-- Title: javolution.io.Union Pages: 1 -->
<svg width="1069pt" height="839pt"
 viewBox="0.00 0.00 1069.00 838.88" xmlns="http://www.w3.org/2000/svg" xmlns:xlink="http://www.w3.org/1999/xlink">
<g id="graph0" class="graph" transform="scale(1 1) rotate(0) translate(4 834.88)">
<title>javolution.io.Union</title>
<polygon fill="white" stroke="transparent" points="-4,4 -4,-834.88 1065,-834.88 1065,4 -4,4"/>
<!-- Node1 -->
<g id="node1" class="node">
<title>Node1</title>
<g id="a_node1"><a xlink:title=" ">
<polygon fill="#bfbfbf" stroke="black" points="952,-396.38 952,-415.38 1061,-415.38 1061,-396.38 952,-396.38"/>
<text text-anchor="middle" x="1006.5" y="-403.38" font-family="Helvetica,sans-Serif" font-size="10.00">javolution.io.Union</text>
</a>
</g>
</g>
<!-- Node2 -->
<g id="node2" class="node">
<title>Node2</title>
<g id="a_node2"><a xlink:href="../../d7/d99/classjavolution_1_1io_1_1Struct.html" target="_top" xlink:title=" ">
<polygon fill="white" stroke="black" points="806,-396.38 806,-415.38 915,-415.38 915,-396.38 806,-396.38"/>
<text text-anchor="middle" x="860.5" y="-403.38" font-family="Helvetica,sans-Serif" font-size="10.00">javolution.io.Struct</text>
</a>
</g>
</g>
<!-- Node2&#45;&gt;Node1 -->
<g id="edge1" class="edge">
<title>Node2&#45;&gt;Node1</title>
<path fill="none" stroke="midnightblue" d="M925.38,-405.88C934.21,-405.88 943.21,-405.88 951.83,-405.88"/>
<polygon fill="midnightblue" stroke="midnightblue" points="925.12,-402.38 915.12,-405.88 925.12,-409.38 925.12,-402.38"/>
</g>
<!-- Node2&#45;&gt;Node2 -->
<g id="edge20" class="edge">
<title>Node2&#45;&gt;Node2</title>
<path fill="none" stroke="#9a32cd" stroke-dasharray="5,2" d="M847.24,-425.65C848.28,-430.38 852.7,-433.88 860.5,-433.88 873.3,-433.88 877,-424.45 871.6,-415.64"/>
<polygon fill="#9a32cd" stroke="#9a32cd" points="850.71,-426.15 849.4,-415.64 843.87,-424.67 850.71,-426.15"/>
<text text-anchor="middle" x="860.5" y="-436.88" font-family="Helvetica,sans-Serif" font-size="10.00"> _outer</text>
</g>
<!-- Node3 -->
<g id="node3" class="node">
<title>Node3</title>
<g id="a_node3"><a xlink:title=" ">
<polygon fill="white" stroke="#bfbfbf" points="482,-789.38 482,-830.38 652,-830.38 652,-789.38 482,-789.38"/>
<text text-anchor="start" x="490" y="-818.38" font-family="Helvetica,sans-Serif" font-size="10.00">static final Class</text>
<text text-anchor="start" x="490" y="-807.38" font-family="Helvetica,sans-Serif" font-size="10.00">&lt;? extends javolution.io.Struct.</text>
<text text-anchor="middle" x="567" y="-796.38" font-family="Helvetica,sans-Serif" font-size="10.00">Signed64[]&gt;</text>
</a>
</g>
</g>
<!-- Node3&#45;&gt;Node2 -->
<g id="edge2" class="edge">
<title>Node3&#45;&gt;Node2</title>
<path fill="none" stroke="#9a32cd" stroke-dasharray="5,2" d="M662.27,-817.03C705.93,-815.14 755.25,-804.79 788,-772.88 841.23,-721.01 856.44,-468.27 859.06,-415.54"/>
<polygon fill="#9a32cd" stroke="#9a32cd" points="662.08,-813.53 652.18,-817.32 662.28,-820.53 662.08,-813.53"/>
<text text-anchor="middle" x="729" y="-818.88" font-family="Helvetica,sans-Serif" font-size="10.00"> SIGNED_64</text>
</g>
<!-- Node4 -->
<g id="node4" class="node">
<title>Node4</title>
<g id="a_node4"><a xlink:title=" ">
<polygon fill="white" stroke="#bfbfbf" points="482,-729.38 482,-770.38 652,-770.38 652,-729.38 482,-729.38"/>
<text text-anchor="start" x="490" y="-758.38" font-family="Helvetica,sans-Serif" font-size="10.00">static final Class</text>
<text text-anchor="start" x="490" y="-747.38" font-family="Helvetica,sans-Serif" font-size="10.00">&lt;? extends javolution.io.Struct.</text>
<text text-anchor="middle" x="567" y="-736.38" font-family="Helvetica,sans-Serif" font-size="10.00">Unsigned8[]&gt;</text>
</a>
</g>
</g>
<!-- Node4&#45;&gt;Node2 -->
<g id="edge3" class="edge">
<title>Node4&#45;&gt;Node2</title>
<path fill="none" stroke="#9a32cd" stroke-dasharray="5,2" d="M662.13,-758.92C705.51,-757.9 754.64,-748.65 788,-717.88 834.26,-675.21 854.63,-463.81 858.71,-415.66"/>
<polygon fill="#9a32cd" stroke="#9a32cd" points="662.08,-755.42 652.11,-759.01 662.14,-762.42 662.08,-755.42"/>
<text text-anchor="middle" x="729" y="-760.88" font-family="Helvetica,sans-Serif" font-size="10.00"> UNSIGNED_8</text>
</g>
<!-- Node5 -->
<g id="node5" class="node">
<title>Node5</title>
<g id="a_node5"><a xlink:title=" ">
<polygon fill="white" stroke="#bfbfbf" points="533,-691.38 533,-710.38 601,-710.38 601,-691.38 533,-691.38"/>
<text text-anchor="middle" x="567" y="-698.38" font-family="Helvetica,sans-Serif" font-size="10.00">ByteBuffer</text>
</a>
</g>
</g>
<!-- Node5&#45;&gt;Node2 -->
<g id="edge4" class="edge">
<title>Node5&#45;&gt;Node2</title>
<path fill="none" stroke="#9a32cd" stroke-dasharray="5,2" d="M611.01,-705.05C660.1,-707.32 739.83,-703.04 788,-658.88 862.02,-591.02 861.62,-452.95 860.05,-415.46"/>
<polygon fill="#9a32cd" stroke="#9a32cd" points="611.2,-701.56 601.02,-704.48 610.8,-708.55 611.2,-701.56"/>
<text text-anchor="middle" x="729" y="-705.88" font-family="Helvetica,sans-Serif" font-size="10.00"> _byteBuffer</text>
</g>
<!-- Node6 -->
<g id="node6" class="node">
<title>Node6</title>
<g id="a_node6"><a xlink:title=" ">
<polygon fill="white" stroke="#bfbfbf" points="482,-631.38 482,-672.38 652,-672.38 652,-631.38 482,-631.38"/>
<text text-anchor="start" x="490" y="-660.38" font-family="Helvetica,sans-Serif" font-size="10.00">static final Class</text>
<text text-anchor="start" x="490" y="-649.38" font-family="Helvetica,sans-Serif" font-size="10.00">&lt;? extends javolution.io.Struct.</text>
<text text-anchor="middle" x="567" y="-638.38" font-family="Helvetica,sans-Serif" font-size="10.00">Float64[]&gt;</text>
</a>
</g>
</g>
<!-- Node6&#45;&gt;Node2 -->
<g id="edge5" class="edge">
<title>Node6&#45;&gt;Node2</title>
<path fill="none" stroke="#9a32cd" stroke-dasharray="5,2" d="M662.13,-645.93C705.02,-638.77 753.74,-623.78 788,-592.88 842.98,-543.3 855.97,-446.77 858.78,-415.74"/>
<polygon fill="#9a32cd" stroke="#9a32cd" points="661.57,-642.48 652.22,-647.47 662.64,-649.39 661.57,-642.48"/>
<text text-anchor="middle" x="729" y="-646.88" font-family="Helvetica,sans-Serif" font-size="10.00"> FLOAT_64</text>
</g>
<!-- Node7 -->
<g id="node7" class="node">
<title>Node7</title>
<g id="a_node7"><a xlink:title=" ">
<polygon fill="white" stroke="#bfbfbf" points="482,-571.38 482,-612.38 652,-612.38 652,-571.38 482,-571.38"/>
<text text-anchor="start" x="490" y="-600.38" font-family="Helvetica,sans-Serif" font-size="10.00">static final Class</text>
<text text-anchor="start" x="490" y="-589.38" font-family="Helvetica,sans-Serif" font-size="10.00">&lt;? extends javolution.io.Struct.</text>
<text text-anchor="middle" x="567" y="-578.38" font-family="Helvetica,sans-Serif" font-size="10.00">Unsigned32[]&gt;</text>
</a>
</g>
</g>
<!-- Node7&#45;&gt;Node2 -->
<g id="edge6" class="edge">
<title>Node7&#45;&gt;Node2</title>
<path fill="none" stroke="#9a32cd" stroke-dasharray="5,2" d="M662.08,-580.56C704.02,-571.71 751.98,-555.95 788,-527.88 827.31,-497.25 849.24,-438.49 856.63,-415.47"/>
<polygon fill="#9a32cd" stroke="#9a32cd" points="661.24,-577.16 652.12,-582.56 662.61,-584.03 661.24,-577.16"/>
<text text-anchor="middle" x="729" y="-580.88" font-family="Helvetica,sans-Serif" font-size="10.00"> UNSIGNED_32</text>
</g>
<!-- Node8 -->
<g id="node8" class="node">
<title>Node8</title>
<g id="a_node8"><a xlink:title=" ">
<polygon fill="white" stroke="#bfbfbf" points="482,-511.38 482,-552.38 652,-552.38 652,-511.38 482,-511.38"/>
<text text-anchor="start" x="490" y="-540.38" font-family="Helvetica,sans-Serif" font-size="10.00">static final Class</text>
<text text-anchor="start" x="490" y="-529.38" font-family="Helvetica,sans-Serif" font-size="10.00">&lt;? extends javolution.io.Struct.</text>
<text text-anchor="middle" x="567" y="-518.38" font-family="Helvetica,sans-Serif" font-size="10.00">Float32[]&gt;</text>
</a>
</g>
</g>
<!-- Node8&#45;&gt;Node2 -->
<g id="edge7" class="edge">
<title>Node8&#45;&gt;Node2</title>
<path fill="none" stroke="#9a32cd" stroke-dasharray="5,2" d="M662.11,-515.93C702.54,-506.57 749.29,-492.24 788,-470.88 814.44,-456.29 839.05,-430.09 851.33,-415.81"/>
<polygon fill="#9a32cd" stroke="#9a32cd" points="661.23,-512.54 652.25,-518.15 662.77,-519.37 661.23,-512.54"/>
<text text-anchor="middle" x="729" y="-515.88" font-family="Helvetica,sans-Serif" font-size="10.00"> FLOAT_32</text>
</g>
<!-- Node9 -->
<g id="node9" class="node">
<title>Node9</title>
<g id="a_node9"><a xlink:title=" ">
<polygon fill="white" stroke="#bfbfbf" points="482,-451.38 482,-492.38 652,-492.38 652,-451.38 482,-451.38"/>
<text text-anchor="start" x="490" y="-480.38" font-family="Helvetica,sans-Serif" font-size="10.00">static final Class</text>
<text text-anchor="start" x="490" y="-469.38" font-family="Helvetica,sans-Serif" font-size="10.00">&lt;? extends javolution.io.Struct.</text>
<text text-anchor="middle" x="567" y="-458.38" font-family="Helvetica,sans-Serif" font-size="10.00">Signed8[]&gt;</text>
</a>
</g>
</g>
<!-- Node9&#45;&gt;Node2 -->
<g id="edge8" class="edge">
<title>Node9&#45;&gt;Node2</title>
<path fill="none" stroke="#9a32cd" stroke-dasharray="5,2" d="M662.15,-458.36C701.39,-451.79 747.24,-442.91 788,-431.88 804.45,-427.43 822.47,-420.86 836.31,-415.44"/>
<polygon fill="#9a32cd" stroke="#9a32cd" points="661.35,-454.94 652.05,-460.02 662.49,-461.85 661.35,-454.94"/>
<text text-anchor="middle" x="729" y="-458.88" font-family="Helvetica,sans-Serif" font-size="10.00"> SIGNED_8</text>
</g>
<!-- Node10 -->
<g id="node10" class="node">
<title>Node10</title>
<g id="a_node10"><a xlink:title=" ">
<polygon fill="white" stroke="#bfbfbf" points="548,-413.38 548,-432.38 586,-432.38 586,-413.38 548,-413.38"/>
<text text-anchor="middle" x="567" y="-420.38" font-family="Helvetica,sans-Serif" font-size="10.00">char</text>
</a>
</g>
</g>
<!-- Node10&#45;&gt;Node2 -->
<g id="edge9" class="edge">
<title>Node10&#45;&gt;Node2</title>
<path fill="none" stroke="#9a32cd" stroke-dasharray="5,2" d="M596.3,-421.23C644.66,-418.41 743.99,-412.62 805.84,-409.01"/>
<polygon fill="#9a32cd" stroke="#9a32cd" points="596.01,-417.74 586.23,-421.82 596.42,-424.73 596.01,-417.74"/>
<text text-anchor="middle" x="729" y="-419.88" font-family="Helvetica,sans-Serif" font-size="10.00"> HEXA</text>
</g>
<!-- Node11 -->
<g id="node11" class="node">
<title>Node11</title>
<g id="a_node11"><a xlink:href="../../da/d02/classjavolution_1_1context_1_1LocalContext.html" target="_top" xlink:title=" ">
<polygon fill="white" stroke="black" points="500,-363.88 500,-393.88 634,-393.88 634,-363.88 500,-363.88"/>
<text text-anchor="start" x="508" y="-381.88" font-family="Helvetica,sans-Serif" font-size="10.00">javolution.context.Local</text>
<text text-anchor="middle" x="567" y="-370.88" font-family="Helvetica,sans-Serif" font-size="10.00">Context</text>
</a>
</g>
</g>
<!-- Node11&#45;&gt;Node2 -->
<g id="edge10" class="edge">
<title>Node11&#45;&gt;Node2</title>
<path fill="none" stroke="#9a32cd" stroke-dasharray="5,2" d="M644.32,-382.93C686.71,-385.55 740.37,-389.49 788,-394.88 793.74,-395.53 799.73,-396.3 805.68,-397.13"/>
<polygon fill="#9a32cd" stroke="#9a32cd" points="644.26,-379.42 634.07,-382.3 643.84,-386.4 644.26,-379.42"/>
<text text-anchor="middle" x="729" y="-397.88" font-family="Helvetica,sans-Serif" font-size="10.00"> MAXIMUM_ALIGNMENT</text>
</g>
<!-- Node12 -->
<g id="node12" class="node">
<title>Node12</title>
<g id="a_node12"><a xlink:href="../../d3/d0f/classjavolution_1_1context_1_1AbstractContext.html" target="_top" xlink:title=" ">
<polygon fill="white" stroke="black" points="296,-363.88 296,-393.88 445,-393.88 445,-363.88 296,-363.88"/>
<text text-anchor="start" x="304" y="-381.88" font-family="Helvetica,sans-Serif" font-size="10.00">javolution.context.Abstract</text>
<text text-anchor="middle" x="370.5" y="-370.88" font-family="Helvetica,sans-Serif" font-size="10.00">Context</text>
</a>
</g>
</g>
<!-- Node12&#45;&gt;Node11 -->
<g id="edge11" class="edge">
<title>Node12&#45;&gt;Node11</title>
<path fill="none" stroke="midnightblue" d="M455.24,-378.88C470.11,-378.88 485.41,-378.88 499.72,-378.88"/>
<polygon fill="midnightblue" stroke="midnightblue" points="455.03,-375.38 445.03,-378.88 455.03,-382.38 455.03,-375.38"/>
</g>
<!-- Node12&#45;&gt;Node12 -->
<g id="edge13" class="edge">
<title>Node12&#45;&gt;Node12</title>
<path fill="none" stroke="#9a32cd" stroke-dasharray="5,2" d="M354.15,-404.34C356.18,-409.06 361.63,-412.38 370.5,-412.38 385.05,-412.38 390.4,-403.44 386.53,-394.04"/>
<polygon fill="#9a32cd" stroke="#9a32cd" points="357.66,-404.14 354.47,-394.04 350.66,-403.93 357.66,-404.14"/>
<text text-anchor="middle" x="370.5" y="-415.38" font-family="Helvetica,sans-Serif" font-size="10.00"> outer</text>
</g>
<!-- Node13 -->
<g id="node13" class="node">
<title>Node13</title>
<g id="a_node13"><a xlink:title=" ">
<polygon fill="white" stroke="#bfbfbf" points="0,-363.88 0,-393.88 209,-393.88 209,-363.88 0,-363.88"/>
<text text-anchor="start" x="8" y="-381.88" font-family="Helvetica,sans-Serif" font-size="10.00">static final ThreadLocal</text>
<text text-anchor="middle" x="104.5" y="-370.88" font-family="Helvetica,sans-Serif" font-size="10.00">&lt; javolution.context.AbstractContext &gt;</text>
</a>
</g>
</g>
<!-- Node13&#45;&gt;Node12 -->
<g id="edge12" class="edge">
<title>Node13&#45;&gt;Node12</title>
<path fill="none" stroke="#9a32cd" stroke-dasharray="5,2" d="M219.36,-378.88C245.32,-378.88 272.23,-378.88 295.98,-378.88"/>
<polygon fill="#9a32cd" stroke="#9a32cd" points="219.08,-375.38 209.08,-378.88 219.08,-382.38 219.08,-375.38"/>
<text text-anchor="middle" x="252.5" y="-381.88" font-family="Helvetica,sans-Serif" font-size="10.00"> CURRENT</text>
</g>
<!-- Node14 -->
<g id="node14" class="node">
<title>Node14</title>
<g id="a_node14"><a xlink:title=" ">
<polygon fill="white" stroke="#bfbfbf" points="482,-303.38 482,-344.38 652,-344.38 652,-303.38 482,-303.38"/>
<text text-anchor="start" x="490" y="-332.38" font-family="Helvetica,sans-Serif" font-size="10.00">static final Class</text>
<text text-anchor="start" x="490" y="-321.38" font-family="Helvetica,sans-Serif" font-size="10.00">&lt;? extends javolution.io.Struct.</text>
<text text-anchor="middle" x="567" y="-310.38" font-family="Helvetica,sans-Serif" font-size="10.00">Signed16[]&gt;</text>
</a>
</g>
</g>
<!-- Node14&#45;&gt;Node2 -->
<g id="edge14" class="edge">
<title>Node14&#45;&gt;Node2</title>
<path fill="none" stroke="#9a32cd" stroke-dasharray="5,2" d="M661.92,-337.21C701.51,-344.33 747.68,-354.63 788,-368.88 808.29,-376.05 830.05,-387.99 844.16,-396.36"/>
<polygon fill="#9a32cd" stroke="#9a32cd" points="662.45,-333.75 652,-335.47 661.24,-340.65 662.45,-333.75"/>
<text text-anchor="middle" x="729" y="-371.88" font-family="Helvetica,sans-Serif" font-size="10.00"> SIGNED_16</text>
</g>
<!-- Node15 -->
<g id="node15" class="node">
<title>Node15</title>
<g id="a_node15"><a xlink:title=" ">
<polygon fill="white" stroke="#bfbfbf" points="482,-243.38 482,-284.38 652,-284.38 652,-243.38 482,-243.38"/>
<text text-anchor="start" x="490" y="-272.38" font-family="Helvetica,sans-Serif" font-size="10.00">static final Class</text>
<text text-anchor="start" x="490" y="-261.38" font-family="Helvetica,sans-Serif" font-size="10.00">&lt;? extends javolution.io.Struct.</text>
<text text-anchor="middle" x="567" y="-250.38" font-family="Helvetica,sans-Serif" font-size="10.00">Signed32[]&gt;</text>
</a>
</g>
</g>
<!-- Node15&#45;&gt;Node2 -->
<g id="edge15" class="edge">
<title>Node15&#45;&gt;Node2</title>
<path fill="none" stroke="#9a32cd" stroke-dasharray="5,2" d="M662.09,-276.96C703.04,-285.72 750.19,-300.18 788,-323.88 818.41,-342.94 843.06,-378.88 853.76,-396.14"/>
<polygon fill="#9a32cd" stroke="#9a32cd" points="662.59,-273.49 652.09,-274.9 661.18,-280.34 662.59,-273.49"/>
<text text-anchor="middle" x="729" y="-326.88" font-family="Helvetica,sans-Serif" font-size="10.00"> SIGNED_32</text>
</g>
<!-- Node16 -->
<g id="node16" class="node">
<title>Node16</title>
<g id="a_node16"><a xlink:title=" ">
<polygon fill="white" stroke="#bfbfbf" points="482,-183.38 482,-224.38 652,-224.38 652,-183.38 482,-183.38"/>
<text text-anchor="start" x="490" y="-212.38" font-family="Helvetica,sans-Serif" font-size="10.00">static final Class</text>
<text text-anchor="start" x="490" y="-201.38" font-family="Helvetica,sans-Serif" font-size="10.00">&lt;? extends javolution.io.Struct.</text>
<text text-anchor="middle" x="567" y="-190.38" font-family="Helvetica,sans-Serif" font-size="10.00">Unsigned16[]&gt;</text>
</a>
</g>
</g>
<!-- Node16&#45;&gt;Node2 -->
<g id="edge16" class="edge">
<title>Node16&#45;&gt;Node2</title>
<path fill="none" stroke="#9a32cd" stroke-dasharray="5,2" d="M662.22,-221.62C712.6,-232.63 768.24,-247.73 788,-263.88 832.24,-300.04 851.68,-370.57 857.51,-396.24"/>
<polygon fill="#9a32cd" stroke="#9a32cd" points="662.74,-218.15 652.23,-219.47 661.27,-225 662.74,-218.15"/>
<text text-anchor="middle" x="729" y="-266.88" font-family="Helvetica,sans-Serif" font-size="10.00"> UNSIGNED_16</text>
</g>
<!-- Node17 -->
<g id="node17" class="node">
<title>Node17</title>
<g id="a_node17"><a xlink:title=" ">
<polygon fill="white" stroke="#bfbfbf" points="552.5,-145.38 552.5,-164.38 581.5,-164.38 581.5,-145.38 552.5,-145.38"/>
<text text-anchor="middle" x="567" y="-152.38" font-family="Helvetica,sans-Serif" font-size="10.00">int</text>
</a>
</g>
</g>
<!-- Node17&#45;&gt;Node2 -->
<g id="edge17" class="edge">
<title>Node17&#45;&gt;Node2</title>
<path fill="none" stroke="#9a32cd" stroke-dasharray="5,2" d="M591.78,-151.29C642.21,-144.21 757.77,-131.03 788,-153.88 828.54,-184.52 852.79,-353.74 858.3,-396.21"/>
<polygon fill="#9a32cd" stroke="#9a32cd" points="591.19,-147.84 581.79,-152.73 592.19,-154.76 591.19,-147.84"/>
<text text-anchor="middle" x="729" y="-211.88" font-family="Helvetica,sans-Serif" font-size="10.00"> _bitsUsed</text>
<text text-anchor="middle" x="729" y="-200.88" font-family="Helvetica,sans-Serif" font-size="10.00">_index</text>
<text text-anchor="middle" x="729" y="-189.88" font-family="Helvetica,sans-Serif" font-size="10.00">_length</text>
<text text-anchor="middle" x="729" y="-178.88" font-family="Helvetica,sans-Serif" font-size="10.00">_wordSize</text>
<text text-anchor="middle" x="729" y="-167.88" font-family="Helvetica,sans-Serif" font-size="10.00">_outerOffset</text>
<text text-anchor="middle" x="729" y="-156.88" font-family="Helvetica,sans-Serif" font-size="10.00">_alignment</text>
</g>
<!-- Node18 -->
<g id="node18" class="node">
<title>Node18</title>
<g id="a_node18"><a xlink:title=" ">
<polygon fill="white" stroke="#bfbfbf" points="544,-107.38 544,-126.38 590,-126.38 590,-107.38 544,-107.38"/>
<text text-anchor="middle" x="567" y="-114.38" font-family="Helvetica,sans-Serif" font-size="10.00">byte[]</text>
</a>
</g>
</g>
<!-- Node18&#45;&gt;Node2 -->
<g id="edge18" class="edge">
<title>Node18&#45;&gt;Node2</title>
<path fill="none" stroke="#9a32cd" stroke-dasharray="5,2" d="M600.24,-107.41C647.14,-95.77 734.43,-82.48 788,-125.88 831.86,-161.41 853.85,-350.78 858.54,-396.12"/>
<polygon fill="#9a32cd" stroke="#9a32cd" points="599.11,-104.08 590.32,-110 600.88,-110.86 599.11,-104.08"/>
<text text-anchor="middle" x="729" y="-128.88" font-family="Helvetica,sans-Serif" font-size="10.00"> _bytes</text>
</g>
<!-- Node19 -->
<g id="node19" class="node">
<title>Node19</title>
<g id="a_node19"><a xlink:title=" ">
<polygon fill="white" stroke="#bfbfbf" points="482,-47.38 482,-88.38 652,-88.38 652,-47.38 482,-47.38"/>
<text text-anchor="start" x="490" y="-76.38" font-family="Helvetica,sans-Serif" font-size="10.00">static final Class</text>
<text text-anchor="start" x="490" y="-65.38" font-family="Helvetica,sans-Serif" font-size="10.00">&lt;? extends javolution.io.Struct.</text>
<text text-anchor="middle" x="567" y="-54.38" font-family="Helvetica,sans-Serif" font-size="10.00">Bool[]&gt;</text>
</a>
</g>
</g>
<!-- Node19&#45;&gt;Node2 -->
<g id="edge19" class="edge">
<title>Node19&#45;&gt;Node2</title>
<path fill="none" stroke="#9a32cd" stroke-dasharray="5,2" d="M662.42,-49.48C705.37,-46.63 754.06,-51.9 788,-80.88 837.98,-123.55 855.59,-347.05 858.9,-396.28"/>
<polygon fill="#9a32cd" stroke="#9a32cd" points="661.89,-46.02 652.21,-50.32 662.46,-52.99 661.89,-46.02"/>
<text text-anchor="middle" x="729" y="-83.88" font-family="Helvetica,sans-Serif" font-size="10.00"> BOOL</text>
</g>
<!-- Node20 -->
<g id="node20" class="node">
<title>Node20</title>
<g id="a_node20"><a xlink:title=" ">
<polygon fill="white" stroke="#bfbfbf" points="539,-9.38 539,-28.38 595,-28.38 595,-9.38 539,-9.38"/>
<text text-anchor="middle" x="567" y="-16.38" font-family="Helvetica,sans-Serif" font-size="10.00">boolean</text>
</a>
</g>
</g>
<!-- Node20&#45;&gt;Node2 -->
<g id="edge21" class="edge">
<title>Node20&#45;&gt;Node2</title>
<path fill="none" stroke="#9a32cd" stroke-dasharray="5,2" d="M605.33,-9.04C653.75,1.26 737.92,10.44 788,-33.88 844.51,-83.9 857.16,-343.21 859.18,-396.36"/>
<polygon fill="#9a32cd" stroke="#9a32cd" points="604.27,-5.7 595.28,-11.31 605.8,-12.53 604.27,-5.7"/>
<text text-anchor="middle" x="729" y="-36.88" font-family="Helvetica,sans-Serif" font-size="10.00"> _resetIndex</text>
</g>
</g>
</svg>
