<?xml version="1.0" encoding="UTF-8" standalone="no"?>
<!DOCTYPE svg PUBLIC "-//W3C//DTD SVG 1.1//EN"
 "http://www.w3.org/Graphics/SVG/1.1/DTD/svg11.dtd">
<!-- Generated by graphviz version 2.43.0 (0)
 -->
<!-- Title: javolution.util.internal.collection.ReadWriteLockImpl.ReadLock.lockInterruptibly Pages: 1 -->
<!--zoomable 1428 -->
<svg id="main" version="1.1" xmlns="http://www.w3.org/2000/svg" xmlns:xlink="http://www.w3.org/1999/xlink" xml:space="preserve" onload="init(evt)">
<style type="text/css"><![CDATA[
.edge:hover path { stroke: red; }
.edge:hover polygon { stroke: red; fill: red; }
]]></style>
<script type="text/javascript"><![CDATA[
var edges = document.getElementsByTagName('g');
if (edges && edges.length) {
  for (var i=0;i<edges.length;i++) {
    if (edges[i].id.substr(0,4)=='edge') {
      edges[i].setAttribute('class','edge');
    }
  }
}
]]></script>
        <defs>
                <circle id="rim" cx="0" cy="0" r="7"/>
                <circle id="rim2" cx="0" cy="0" r="3.5"/>
                <g id="zoomPlus">
                        <use xlink:href="#rim" fill="#404040">
                                <set attributeName="fill" to="#808080" begin="zoomplus.mouseover" end="zoomplus.mouseout"/>
                        </use>
                        <path d="M-4,0h8M0,-4v8" fill="none" stroke="white" stroke-width="1.5" pointer-events="none"/>
                </g>
                <g id="zoomMin">
                        <use xlink:href="#rim" fill="#404040">
                                <set attributeName="fill" to="#808080" begin="zoomminus.mouseover" end="zoomminus.mouseout"/>
                        </use>
                        <path d="M-4,0h8" fill="none" stroke="white" stroke-width="1.5" pointer-events="none"/>
                </g>
                <g id="dirArrow">
                        <path fill="none" stroke="white" stroke-width="1.5" d="M0,-3.0v7 M-2.5,-0.5L0,-3.0L2.5,-0.5"/>
                </g>
               <g id="resetDef">
                       <use xlink:href="#rim2" fill="#404040">
                               <set attributeName="fill" to="#808080" begin="reset.mouseover" end="reset.mouseout"/>
                       </use>
               </g>
        </defs>

<script type="text/javascript">
var viewWidth = 1361;
var viewHeight = 1428;
var sectionId = 'dynsection-4';
</script>
<script xlink:href="../../svgpan.js"/>
<svg id="graph" class="graph">
<g id="viewport">
<title>javolution.util.internal.collection.ReadWriteLockImpl.ReadLock.lockInterruptibly</title>
<polygon fill="white" stroke="transparent" points="-4,4 -4,-1424 1357,-1424 1357,4 -4,4"/>
<!-- Node1 -->
<g id="node1" class="node">
<title>Node1</title>
<g id="a_node1"><a xlink:title=" ">
<polygon fill="#bfbfbf" stroke="black" points="1108,-710.5 1108,-740.5 1353,-740.5 1353,-710.5 1108,-710.5"/>
<text text-anchor="start" x="1116" y="-728.5" font-family="Helvetica,sans-Serif" font-size="10.00">javolution.util.internal.collection.</text>
<text text-anchor="middle" x="1230.5" y="-717.5" font-family="Helvetica,sans-Serif" font-size="10.00">ReadWriteLockImpl.ReadLock.lockInterruptibly</text>
</a>
</g>
</g>
<!-- Node2 -->
<g id="node2" class="node">
<title>Node2</title>
<g id="a_node2"><a xlink:href="../../d4/d2b/classjavolution_1_1util_1_1internal_1_1collection_1_1ReadWriteLockImpl_1_1ReadLock.html#a36e93d109ab51a1f3e12da5fb08bb588" target="_top" xlink:title=" ">
<polygon fill="white" stroke="black" points="887,-710.5 887,-740.5 1072,-740.5 1072,-710.5 887,-710.5"/>
<text text-anchor="start" x="895" y="-728.5" font-family="Helvetica,sans-Serif" font-size="10.00">javolution.util.internal.collection.</text>
<text text-anchor="middle" x="979.5" y="-717.5" font-family="Helvetica,sans-Serif" font-size="10.00">ReadWriteLockImpl.ReadLock.lock</text>
</a>
</g>
</g>
<!-- Node1&#45;&gt;Node2 -->
<g id="edge1" class="edge">
<title>Node1&#45;&gt;Node2</title>
<path fill="none" stroke="midnightblue" d="M1097.82,-725.5C1089.22,-725.5 1080.67,-725.5 1072.33,-725.5"/>
<polygon fill="midnightblue" stroke="midnightblue" points="1097.92,-729 1107.92,-725.5 1097.92,-722 1097.92,-729"/>
</g>
<!-- Node3 -->
<g id="node3" class="node">
<title>Node3</title>
<g id="a_node3"><a xlink:href="../../d4/dd1/classjavolution_1_1util_1_1internal_1_1collection_1_1SharedCollectionImpl.html#a34ff9f136c42d7f70856c6efcb8d6096" target="_top" xlink:title=" ">
<polygon fill="white" stroke="black" points="641,-1389.5 641,-1419.5 819,-1419.5 819,-1389.5 641,-1389.5"/>
<text text-anchor="start" x="649" y="-1407.5" font-family="Helvetica,sans-Serif" font-size="10.00">javolution.util.internal.collection.</text>
<text text-anchor="middle" x="730" y="-1396.5" font-family="Helvetica,sans-Serif" font-size="10.00">SharedCollectionImpl.clone</text>
</a>
</g>
</g>
<!-- Node2&#45;&gt;Node3 -->
<g id="edge2" class="edge">
<title>Node2&#45;&gt;Node3</title>
<path fill="none" stroke="midnightblue" d="M977.24,-750.65C971.26,-859.53 942.14,-1288.89 851,-1380.5 842.16,-1389.39 831.02,-1395.45 819.11,-1399.52"/>
<polygon fill="midnightblue" stroke="midnightblue" points="980.74,-750.77 977.77,-740.59 973.75,-750.39 980.74,-750.77"/>
</g>
<!-- Node4 -->
<g id="node4" class="node">
<title>Node4</title>
<g id="a_node4"><a xlink:href="../../d4/dd1/classjavolution_1_1util_1_1internal_1_1collection_1_1SharedCollectionImpl.html#a4e1be6e56dc8776a168c733587bf5f95" target="_top" xlink:title=" ">
<polygon fill="white" stroke="black" points="641,-1340.5 641,-1370.5 819,-1370.5 819,-1340.5 641,-1340.5"/>
<text text-anchor="start" x="649" y="-1358.5" font-family="Helvetica,sans-Serif" font-size="10.00">javolution.util.internal.collection.</text>
<text text-anchor="middle" x="730" y="-1347.5" font-family="Helvetica,sans-Serif" font-size="10.00">SharedCollectionImpl.contains</text>
</a>
</g>
</g>
<!-- Node2&#45;&gt;Node4 -->
<g id="edge3" class="edge">
<title>Node2&#45;&gt;Node4</title>
<path fill="none" stroke="midnightblue" d="M976.81,-750.74C969.31,-854.64 935.68,-1247.66 851,-1331.5 842.17,-1340.24 831.11,-1346.25 819.29,-1350.3"/>
<polygon fill="midnightblue" stroke="midnightblue" points="980.31,-750.79 977.52,-740.57 973.33,-750.3 980.31,-750.79"/>
</g>
<!-- Node5 -->
<g id="node5" class="node">
<title>Node5</title>
<g id="a_node5"><a xlink:href="../../d4/dd1/classjavolution_1_1util_1_1internal_1_1collection_1_1SharedCollectionImpl.html#aee47afd7c45d3eb0d2878f7b87525a10" target="_top" xlink:title=" ">
<polygon fill="white" stroke="black" points="641,-1291.5 641,-1321.5 819,-1321.5 819,-1291.5 641,-1291.5"/>
<text text-anchor="start" x="649" y="-1309.5" font-family="Helvetica,sans-Serif" font-size="10.00">javolution.util.internal.collection.</text>
<text text-anchor="middle" x="730" y="-1298.5" font-family="Helvetica,sans-Serif" font-size="10.00">SharedCollectionImpl.containsAll</text>
</a>
</g>
</g>
<!-- Node2&#45;&gt;Node5 -->
<g id="edge4" class="edge">
<title>Node2&#45;&gt;Node5</title>
<path fill="none" stroke="midnightblue" d="M976.29,-750.91C967.17,-849.68 929.23,-1206.4 851,-1282.5 842.09,-1291.17 830.99,-1297.13 819.16,-1301.16"/>
<polygon fill="midnightblue" stroke="midnightblue" points="979.8,-750.94 977.21,-740.67 972.83,-750.31 979.8,-750.94"/>
</g>
<!-- Node6 -->
<g id="node6" class="node">
<title>Node6</title>
<g id="a_node6"><a xlink:href="../../d5/db2/classjavolution_1_1util_1_1internal_1_1map_1_1SharedMapImpl.html#ad68ab454e90ce457bd083e54a2fc3e26" target="_top" xlink:title=" ">
<polygon fill="white" stroke="black" points="652.5,-1242.5 652.5,-1272.5 807.5,-1272.5 807.5,-1242.5 652.5,-1242.5"/>
<text text-anchor="start" x="660.5" y="-1260.5" font-family="Helvetica,sans-Serif" font-size="10.00">javolution.util.internal.map.</text>
<text text-anchor="middle" x="730" y="-1249.5" font-family="Helvetica,sans-Serif" font-size="10.00">SharedMapImpl.containsKey</text>
</a>
</g>
</g>
<!-- Node2&#45;&gt;Node6 -->
<g id="edge5" class="edge">
<title>Node2&#45;&gt;Node6</title>
<path fill="none" stroke="midnightblue" d="M975.71,-750.76C964.91,-843.73 922.89,-1165.02 851,-1233.5 839.16,-1244.78 823.58,-1251.45 807.59,-1255.26"/>
<polygon fill="midnightblue" stroke="midnightblue" points="979.21,-750.92 976.87,-740.59 972.26,-750.12 979.21,-750.92"/>
</g>
<!-- Node7 -->
<g id="node7" class="node">
<title>Node7</title>
<g id="a_node7"><a xlink:href="../../d5/db2/classjavolution_1_1util_1_1internal_1_1map_1_1SharedMapImpl.html#a440c5976ecbcd97ec6fb62a0eaf35c24" target="_top" xlink:title=" ">
<polygon fill="white" stroke="black" points="648,-1193.5 648,-1223.5 812,-1223.5 812,-1193.5 648,-1193.5"/>
<text text-anchor="start" x="656" y="-1211.5" font-family="Helvetica,sans-Serif" font-size="10.00">javolution.util.internal.map.</text>
<text text-anchor="middle" x="730" y="-1200.5" font-family="Helvetica,sans-Serif" font-size="10.00">SharedMapImpl.containsValue</text>
</a>
</g>
</g>
<!-- Node2&#45;&gt;Node7 -->
<g id="edge6" class="edge">
<title>Node2&#45;&gt;Node7</title>
<path fill="none" stroke="midnightblue" d="M974.97,-750.86C962.33,-838.07 916.52,-1123.63 851,-1184.5 840.18,-1194.55 826.39,-1200.91 812.04,-1204.85"/>
<polygon fill="midnightblue" stroke="midnightblue" points="978.46,-751.19 976.41,-740.79 971.53,-750.19 978.46,-751.19"/>
</g>
<!-- Node8 -->
<g id="node8" class="node">
<title>Node8</title>
<g id="a_node8"><a xlink:href="../../d4/dd1/classjavolution_1_1util_1_1internal_1_1collection_1_1SharedCollectionImpl.html#a64425587a59a95333919c68122dd8d7b" target="_top" xlink:title=" ">
<polygon fill="white" stroke="black" points="641,-1144.5 641,-1174.5 819,-1174.5 819,-1144.5 641,-1144.5"/>
<text text-anchor="start" x="649" y="-1162.5" font-family="Helvetica,sans-Serif" font-size="10.00">javolution.util.internal.collection.</text>
<text text-anchor="middle" x="730" y="-1151.5" font-family="Helvetica,sans-Serif" font-size="10.00">SharedCollectionImpl.equals</text>
</a>
</g>
</g>
<!-- Node2&#45;&gt;Node8 -->
<g id="edge7" class="edge">
<title>Node2&#45;&gt;Node8</title>
<path fill="none" stroke="midnightblue" d="M978.89,-751.03C978.52,-823.34 966.91,-1031.07 851,-1135.5 841.92,-1143.68 830.87,-1149.39 819.19,-1153.34"/>
<polygon fill="midnightblue" stroke="midnightblue" points="982.39,-750.61 978.87,-740.62 975.39,-750.63 982.39,-750.61"/>
</g>
<!-- Node9 -->
<g id="node9" class="node">
<title>Node9</title>
<g id="a_node9"><a xlink:href="../../df/d5f/classjavolution_1_1util_1_1internal_1_1set_1_1sorted_1_1SharedSortedSetImpl.html#a8d6a35061c33320aa9d19d047e355c75" target="_top" xlink:title=" ">
<polygon fill="white" stroke="black" points="640.5,-1095.5 640.5,-1125.5 819.5,-1125.5 819.5,-1095.5 640.5,-1095.5"/>
<text text-anchor="start" x="648.5" y="-1113.5" font-family="Helvetica,sans-Serif" font-size="10.00">javolution.util.internal.set.sorted.</text>
<text text-anchor="middle" x="730" y="-1102.5" font-family="Helvetica,sans-Serif" font-size="10.00">SharedSortedSetImpl.first</text>
</a>
</g>
</g>
<!-- Node2&#45;&gt;Node9 -->
<g id="edge8" class="edge">
<title>Node2&#45;&gt;Node9</title>
<path fill="none" stroke="midnightblue" d="M977.65,-751.09C973.98,-817.57 954.49,-996.76 851,-1086.5 841.93,-1094.36 831.02,-1099.93 819.52,-1103.82"/>
<polygon fill="midnightblue" stroke="midnightblue" points="981.17,-750.88 978.14,-740.73 974.17,-750.55 981.17,-750.88"/>
</g>
<!-- Node10 -->
<g id="node10" class="node">
<title>Node10</title>
<g id="a_node10"><a xlink:href="../../d2/dcd/classjavolution_1_1util_1_1internal_1_1map_1_1sorted_1_1SharedSortedMapImpl.html#a016d36e8398445a26fe84b74e4cca92d" target="_top" xlink:title=" ">
<polygon fill="white" stroke="black" points="637,-1046.5 637,-1076.5 823,-1076.5 823,-1046.5 637,-1046.5"/>
<text text-anchor="start" x="645" y="-1064.5" font-family="Helvetica,sans-Serif" font-size="10.00">javolution.util.internal.map.sorted.</text>
<text text-anchor="middle" x="730" y="-1053.5" font-family="Helvetica,sans-Serif" font-size="10.00">SharedSortedMapImpl.firstKey</text>
</a>
</g>
</g>
<!-- Node2&#45;&gt;Node10 -->
<g id="edge9" class="edge">
<title>Node2&#45;&gt;Node10</title>
<path fill="none" stroke="midnightblue" d="M976.08,-750.89C968.94,-810.9 942.33,-962.1 851,-1037.5 842.81,-1044.26 833.24,-1049.3 823.14,-1053.03"/>
<polygon fill="midnightblue" stroke="midnightblue" points="979.58,-751.11 977.2,-740.78 972.62,-750.34 979.58,-751.11"/>
</g>
<!-- Node11 -->
<g id="node11" class="node">
<title>Node11</title>
<g id="a_node11"><a xlink:href="../../d9/d51/classjavolution_1_1util_1_1internal_1_1table_1_1SharedTableImpl.html#a4a42f5f08d996c7b779221c05f9fcedf" target="_top" xlink:title=" ">
<polygon fill="white" stroke="black" points="652.5,-997.5 652.5,-1027.5 807.5,-1027.5 807.5,-997.5 652.5,-997.5"/>
<text text-anchor="start" x="660.5" y="-1015.5" font-family="Helvetica,sans-Serif" font-size="10.00">javolution.util.internal.table.</text>
<text text-anchor="middle" x="730" y="-1004.5" font-family="Helvetica,sans-Serif" font-size="10.00">SharedTableImpl.get</text>
</a>
</g>
</g>
<!-- Node2&#45;&gt;Node11 -->
<g id="edge10" class="edge">
<title>Node2&#45;&gt;Node11</title>
<path fill="none" stroke="midnightblue" d="M974.05,-750.52C963.24,-803.48 930.42,-927.07 851,-988.5 838.48,-998.18 823.08,-1004.26 807.55,-1008.02"/>
<polygon fill="midnightblue" stroke="midnightblue" points="977.5,-751.11 975.98,-740.63 970.63,-749.77 977.5,-751.11"/>
</g>
<!-- Node12 -->
<g id="node12" class="node">
<title>Node12</title>
<g id="a_node12"><a xlink:href="../../d5/db2/classjavolution_1_1util_1_1internal_1_1map_1_1SharedMapImpl.html#a58f06403a891d9119fdfbe11a7571fae" target="_top" xlink:title=" ">
<polygon fill="white" stroke="black" points="654,-948.5 654,-978.5 806,-978.5 806,-948.5 654,-948.5"/>
<text text-anchor="start" x="662" y="-966.5" font-family="Helvetica,sans-Serif" font-size="10.00">javolution.util.internal.map.</text>
<text text-anchor="middle" x="730" y="-955.5" font-family="Helvetica,sans-Serif" font-size="10.00">SharedMapImpl.get</text>
</a>
</g>
</g>
<!-- Node2&#45;&gt;Node12 -->
<g id="edge11" class="edge">
<title>Node2&#45;&gt;Node12</title>
<path fill="none" stroke="midnightblue" d="M971.19,-750.25C956.45,-795.58 918.65,-891.67 851,-939.5 837.9,-948.76 822.09,-954.65 806.31,-958.34"/>
<polygon fill="midnightblue" stroke="midnightblue" points="974.56,-751.22 974.22,-740.63 967.88,-749.11 974.56,-751.22"/>
</g>
<!-- Node13 -->
<g id="node13" class="node">
<title>Node13</title>
<g id="a_node13"><a xlink:href="../../d9/d51/classjavolution_1_1util_1_1internal_1_1table_1_1SharedTableImpl.html#a13fb18680b98a7c40db4e2c0048efae5" target="_top" xlink:title=" ">
<polygon fill="white" stroke="black" points="652.5,-899.5 652.5,-929.5 807.5,-929.5 807.5,-899.5 652.5,-899.5"/>
<text text-anchor="start" x="660.5" y="-917.5" font-family="Helvetica,sans-Serif" font-size="10.00">javolution.util.internal.table.</text>
<text text-anchor="middle" x="730" y="-906.5" font-family="Helvetica,sans-Serif" font-size="10.00">SharedTableImpl.getFirst</text>
</a>
</g>
</g>
<!-- Node2&#45;&gt;Node13 -->
<g id="edge12" class="edge">
<title>Node2&#45;&gt;Node13</title>
<path fill="none" stroke="midnightblue" d="M965.66,-750.09C945.9,-785.44 904.64,-850.12 851,-884.5 837.98,-892.84 822.79,-898.87 807.69,-903.21"/>
<polygon fill="midnightblue" stroke="midnightblue" points="968.93,-751.4 970.66,-740.95 962.79,-748.05 968.93,-751.4"/>
</g>
<!-- Node20 -->
<g id="node20" class="node">
<title>Node20</title>
<g id="a_node20"><a xlink:href="../../d9/d51/classjavolution_1_1util_1_1internal_1_1table_1_1SharedTableImpl.html#a4d1cd587a9c2b9e577e33be8f1786917" target="_top" xlink:title=" ">
<polygon fill="white" stroke="black" points="209,-861.5 209,-891.5 364,-891.5 364,-861.5 209,-861.5"/>
<text text-anchor="start" x="217" y="-879.5" font-family="Helvetica,sans-Serif" font-size="10.00">javolution.util.internal.table.</text>
<text text-anchor="middle" x="286.5" y="-868.5" font-family="Helvetica,sans-Serif" font-size="10.00">SharedTableImpl.indexOf</text>
</a>
</g>
</g>
<!-- Node2&#45;&gt;Node20 -->
<g id="edge25" class="edge">
<title>Node2&#45;&gt;Node20</title>
<path fill="none" stroke="midnightblue" d="M959.52,-748.3C936.72,-773.87 895.89,-814.15 851,-832.5 687.73,-899.24 475.93,-893.95 364.24,-884.88"/>
<polygon fill="midnightblue" stroke="midnightblue" points="962.34,-750.4 966.27,-740.56 957.06,-745.8 962.34,-750.4"/>
</g>
<!-- Node21 -->
<g id="node21" class="node">
<title>Node21</title>
<g id="a_node21"><a xlink:href="../../d9/d51/classjavolution_1_1util_1_1internal_1_1table_1_1SharedTableImpl.html#a043bd3a56b2526c0eaa590f1747adf9d" target="_top" xlink:title=" ">
<polygon fill="white" stroke="black" points="208,-812.5 208,-842.5 365,-842.5 365,-812.5 208,-812.5"/>
<text text-anchor="start" x="216" y="-830.5" font-family="Helvetica,sans-Serif" font-size="10.00">javolution.util.internal.table.</text>
<text text-anchor="middle" x="286.5" y="-819.5" font-family="Helvetica,sans-Serif" font-size="10.00">SharedTableImpl.lastIndexOf</text>
</a>
</g>
</g>
<!-- Node2&#45;&gt;Node21 -->
<g id="edge31" class="edge">
<title>Node2&#45;&gt;Node21</title>
<path fill="none" stroke="midnightblue" d="M950.97,-746.72C926.29,-764.42 888.32,-788.45 851,-799.5 683.35,-849.12 475.53,-843.16 365.07,-835"/>
<polygon fill="midnightblue" stroke="midnightblue" points="953.12,-749.49 959.13,-740.76 948.99,-743.84 953.12,-749.49"/>
</g>
<!-- Node22 -->
<g id="node22" class="node">
<title>Node22</title>
<g id="a_node22"><a xlink:href="../../d0/d57/classjavolution_1_1util_1_1internal_1_1table_1_1sorted_1_1SharedSortedTableImpl.html#adc393984944a2f467bc35008720331fa" target="_top" xlink:title=" ">
<polygon fill="white" stroke="black" points="192,-763.5 192,-793.5 381,-793.5 381,-763.5 192,-763.5"/>
<text text-anchor="start" x="200" y="-781.5" font-family="Helvetica,sans-Serif" font-size="10.00">javolution.util.internal.table.sorted.</text>
<text text-anchor="middle" x="286.5" y="-770.5" font-family="Helvetica,sans-Serif" font-size="10.00">SharedSortedTableImpl.positionOf</text>
</a>
</g>
</g>
<!-- Node2&#45;&gt;Node22 -->
<g id="edge37" class="edge">
<title>Node2&#45;&gt;Node22</title>
<path fill="none" stroke="midnightblue" d="M939.92,-744.95C915.19,-756.31 882.02,-769.55 851,-775.5 688.15,-806.74 493.91,-797.93 381.25,-788.4"/>
<polygon fill="midnightblue" stroke="midnightblue" points="941.73,-747.96 949.29,-740.54 938.75,-741.62 941.73,-747.96"/>
</g>
<!-- Node24 -->
<g id="node24" class="node">
<title>Node24</title>
<g id="a_node24"><a xlink:href="../../d9/d51/classjavolution_1_1util_1_1internal_1_1table_1_1SharedTableImpl.html#a288f2f182dea23115d4319820673aa1f" target="_top" xlink:title=" ">
<polygon fill="white" stroke="black" points="652.5,-735.5 652.5,-765.5 807.5,-765.5 807.5,-735.5 652.5,-735.5"/>
<text text-anchor="start" x="660.5" y="-753.5" font-family="Helvetica,sans-Serif" font-size="10.00">javolution.util.internal.table.</text>
<text text-anchor="middle" x="730" y="-742.5" font-family="Helvetica,sans-Serif" font-size="10.00">SharedTableImpl.getLast</text>
</a>
</g>
</g>
<!-- Node2&#45;&gt;Node24 -->
<g id="edge23" class="edge">
<title>Node2&#45;&gt;Node24</title>
<path fill="none" stroke="midnightblue" d="M876.55,-735.8C853.52,-738.12 829.45,-740.56 807.67,-742.76"/>
<polygon fill="midnightblue" stroke="midnightblue" points="877.09,-739.26 886.69,-734.77 876.39,-732.3 877.09,-739.26"/>
</g>
<!-- Node25 -->
<g id="node25" class="node">
<title>Node25</title>
<g id="a_node25"><a xlink:href="../../d4/dd1/classjavolution_1_1util_1_1internal_1_1collection_1_1SharedCollectionImpl.html#a26fdab8a575e687c12216c440170a546" target="_top" xlink:title=" ">
<polygon fill="white" stroke="black" points="641,-686.5 641,-716.5 819,-716.5 819,-686.5 641,-686.5"/>
<text text-anchor="start" x="649" y="-704.5" font-family="Helvetica,sans-Serif" font-size="10.00">javolution.util.internal.collection.</text>
<text text-anchor="middle" x="730" y="-693.5" font-family="Helvetica,sans-Serif" font-size="10.00">SharedCollectionImpl.hashCode</text>
</a>
</g>
</g>
<!-- Node2&#45;&gt;Node25 -->
<g id="edge24" class="edge">
<title>Node2&#45;&gt;Node25</title>
<path fill="none" stroke="midnightblue" d="M876.54,-715.61C857.57,-713.77 837.89,-711.87 819.37,-710.07"/>
<polygon fill="midnightblue" stroke="midnightblue" points="876.4,-719.12 886.69,-716.6 877.08,-712.15 876.4,-719.12"/>
</g>
<!-- Node26 -->
<g id="node26" class="node">
<title>Node26</title>
<g id="a_node26"><a xlink:href="../../d5/db2/classjavolution_1_1util_1_1internal_1_1map_1_1SharedMapImpl.html#ab4a66a5ae558fa14ec92f59a4c3e3cc5" target="_top" xlink:title=" ">
<polygon fill="white" stroke="black" points="654,-637.5 654,-667.5 806,-667.5 806,-637.5 654,-637.5"/>
<text text-anchor="start" x="662" y="-655.5" font-family="Helvetica,sans-Serif" font-size="10.00">javolution.util.internal.map.</text>
<text text-anchor="middle" x="730" y="-644.5" font-family="Helvetica,sans-Serif" font-size="10.00">SharedMapImpl.isEmpty</text>
</a>
</g>
</g>
<!-- Node2&#45;&gt;Node26 -->
<g id="edge26" class="edge">
<title>Node2&#45;&gt;Node26</title>
<path fill="none" stroke="midnightblue" d="M933.73,-706.7C909.54,-697.04 878.97,-685.63 851,-677.5 836.59,-673.31 821.02,-669.54 806.02,-666.26"/>
<polygon fill="midnightblue" stroke="midnightblue" points="932.42,-709.95 943,-710.44 935.04,-703.46 932.42,-709.95"/>
</g>
<!-- Node27 -->
<g id="node27" class="node">
<title>Node27</title>
<g id="a_node27"><a xlink:href="../../d4/dd1/classjavolution_1_1util_1_1internal_1_1collection_1_1SharedCollectionImpl.html#a8149e064b7d8effcfe1b65868b7f4c99" target="_top" xlink:title=" ">
<polygon fill="white" stroke="black" points="641,-588.5 641,-618.5 819,-618.5 819,-588.5 641,-588.5"/>
<text text-anchor="start" x="649" y="-606.5" font-family="Helvetica,sans-Serif" font-size="10.00">javolution.util.internal.collection.</text>
<text text-anchor="middle" x="730" y="-595.5" font-family="Helvetica,sans-Serif" font-size="10.00">SharedCollectionImpl.isEmpty</text>
</a>
</g>
</g>
<!-- Node2&#45;&gt;Node27 -->
<g id="edge27" class="edge">
<title>Node2&#45;&gt;Node27</title>
<path fill="none" stroke="midnightblue" d="M956.01,-703.32C932.02,-680.96 891.92,-647.16 851,-628.5 841.03,-623.95 830.21,-620.22 819.3,-617.17"/>
<polygon fill="midnightblue" stroke="midnightblue" points="953.84,-706.08 963.5,-710.42 958.66,-701 953.84,-706.08"/>
</g>
<!-- Node28 -->
<g id="node28" class="node">
<title>Node28</title>
<g id="a_node28"><a xlink:href="../../df/d63/classjavolution_1_1util_1_1internal_1_1collection_1_1SharedCollectionImpl_1_1IteratorImpl.html#ae419b0f0d8e47606424c5629ddfd8271" target="_top" xlink:title=" ">
<polygon fill="white" stroke="black" points="609,-539.5 609,-569.5 851,-569.5 851,-539.5 609,-539.5"/>
<text text-anchor="start" x="617" y="-557.5" font-family="Helvetica,sans-Serif" font-size="10.00">javolution.util.internal.collection.</text>
<text text-anchor="middle" x="730" y="-546.5" font-family="Helvetica,sans-Serif" font-size="10.00">SharedCollectionImpl.IteratorImpl.IteratorImpl</text>
</a>
</g>
</g>
<!-- Node2&#45;&gt;Node28 -->
<g id="edge28" class="edge">
<title>Node2&#45;&gt;Node28</title>
<path fill="none" stroke="midnightblue" d="M964.69,-701.65C944.26,-668.67 902.78,-609.78 851,-579.5 844.39,-575.63 837.26,-572.36 829.9,-569.59"/>
<polygon fill="midnightblue" stroke="midnightblue" points="961.71,-703.49 969.88,-710.22 967.69,-699.86 961.71,-703.49"/>
</g>
<!-- Node29 -->
<g id="node29" class="node">
<title>Node29</title>
<g id="a_node29"><a xlink:href="../../da/dc4/classjavolution_1_1util_1_1internal_1_1map_1_1SharedMapImpl_1_1IteratorImpl.html#a6051e49505e4375e0e80b0050a737fe7" target="_top" xlink:title=" ">
<polygon fill="white" stroke="black" points="622.5,-490.5 622.5,-520.5 837.5,-520.5 837.5,-490.5 622.5,-490.5"/>
<text text-anchor="start" x="630.5" y="-508.5" font-family="Helvetica,sans-Serif" font-size="10.00">javolution.util.internal.map.</text>
<text text-anchor="middle" x="730" y="-497.5" font-family="Helvetica,sans-Serif" font-size="10.00">SharedMapImpl.IteratorImpl.IteratorImpl</text>
</a>
</g>
</g>
<!-- Node2&#45;&gt;Node29 -->
<g id="edge29" class="edge">
<title>Node2&#45;&gt;Node29</title>
<path fill="none" stroke="midnightblue" d="M969.71,-700.91C953.33,-658.84 913.98,-573.45 851,-530.5 845.37,-526.66 839.28,-523.39 832.92,-520.61"/>
<polygon fill="midnightblue" stroke="midnightblue" points="966.48,-702.27 973.29,-710.39 973.03,-699.79 966.48,-702.27"/>
</g>
<!-- Node30 -->
<g id="node30" class="node">
<title>Node30</title>
<g id="a_node30"><a xlink:href="../../df/d5f/classjavolution_1_1util_1_1internal_1_1set_1_1sorted_1_1SharedSortedSetImpl.html#a9f177392019377a65fa9ef807fc5de72" target="_top" xlink:title=" ">
<polygon fill="white" stroke="black" points="640.5,-441.5 640.5,-471.5 819.5,-471.5 819.5,-441.5 640.5,-441.5"/>
<text text-anchor="start" x="648.5" y="-459.5" font-family="Helvetica,sans-Serif" font-size="10.00">javolution.util.internal.set.sorted.</text>
<text text-anchor="middle" x="730" y="-448.5" font-family="Helvetica,sans-Serif" font-size="10.00">SharedSortedSetImpl.last</text>
</a>
</g>
</g>
<!-- Node2&#45;&gt;Node30 -->
<g id="edge30" class="edge">
<title>Node2&#45;&gt;Node30</title>
<path fill="none" stroke="midnightblue" d="M972.93,-700.25C960.47,-650.06 925.41,-537.76 851,-481.5 841.75,-474.51 831,-469.36 819.8,-465.58"/>
<polygon fill="midnightblue" stroke="midnightblue" points="969.59,-701.33 975.31,-710.25 976.4,-699.71 969.59,-701.33"/>
</g>
<!-- Node31 -->
<g id="node31" class="node">
<title>Node31</title>
<g id="a_node31"><a xlink:href="../../d2/dcd/classjavolution_1_1util_1_1internal_1_1map_1_1sorted_1_1SharedSortedMapImpl.html#a17ffb9322a96738703ef43562e8aeaa4" target="_top" xlink:title=" ">
<polygon fill="white" stroke="black" points="637,-392.5 637,-422.5 823,-422.5 823,-392.5 637,-392.5"/>
<text text-anchor="start" x="645" y="-410.5" font-family="Helvetica,sans-Serif" font-size="10.00">javolution.util.internal.map.sorted.</text>
<text text-anchor="middle" x="730" y="-399.5" font-family="Helvetica,sans-Serif" font-size="10.00">SharedSortedMapImpl.lastKey</text>
</a>
</g>
</g>
<!-- Node2&#45;&gt;Node31 -->
<g id="edge32" class="edge">
<title>Node2&#45;&gt;Node31</title>
<path fill="none" stroke="midnightblue" d="M975.36,-700.52C966.78,-643.42 937.52,-502.88 851,-432.5 842.75,-425.79 833.14,-420.74 823.02,-416.97"/>
<polygon fill="midnightblue" stroke="midnightblue" points="971.9,-701.07 976.77,-710.48 978.83,-700.09 971.9,-701.07"/>
</g>
<!-- Node32 -->
<g id="node32" class="node">
<title>Node32</title>
<g id="a_node32"><a xlink:href="../../d9/d51/classjavolution_1_1util_1_1internal_1_1table_1_1SharedTableImpl.html#a9c79284fe06c571d1b0b19ae2722666b" target="_top" xlink:title=" ">
<polygon fill="white" stroke="black" points="652.5,-343.5 652.5,-373.5 807.5,-373.5 807.5,-343.5 652.5,-343.5"/>
<text text-anchor="start" x="660.5" y="-361.5" font-family="Helvetica,sans-Serif" font-size="10.00">javolution.util.internal.table.</text>
<text text-anchor="middle" x="730" y="-350.5" font-family="Helvetica,sans-Serif" font-size="10.00">SharedTableImpl.peekFirst</text>
</a>
</g>
</g>
<!-- Node2&#45;&gt;Node32 -->
<g id="edge33" class="edge">
<title>Node2&#45;&gt;Node32</title>
<path fill="none" stroke="midnightblue" d="M977.14,-700.27C972.27,-636.34 950.16,-467.07 851,-382.5 838.8,-372.09 823.35,-365.73 807.64,-361.94"/>
<polygon fill="midnightblue" stroke="midnightblue" points="973.65,-700.53 977.83,-710.27 980.64,-700.06 973.65,-700.53"/>
</g>
<!-- Node34 -->
<g id="node34" class="node">
<title>Node34</title>
<g id="a_node34"><a xlink:href="../../d9/d51/classjavolution_1_1util_1_1internal_1_1table_1_1SharedTableImpl.html#aa6fa809be6451505766b5846d58fe046" target="_top" xlink:title=" ">
<polygon fill="white" stroke="black" points="652.5,-294.5 652.5,-324.5 807.5,-324.5 807.5,-294.5 652.5,-294.5"/>
<text text-anchor="start" x="660.5" y="-312.5" font-family="Helvetica,sans-Serif" font-size="10.00">javolution.util.internal.table.</text>
<text text-anchor="middle" x="730" y="-301.5" font-family="Helvetica,sans-Serif" font-size="10.00">SharedTableImpl.peekLast</text>
</a>
</g>
</g>
<!-- Node2&#45;&gt;Node34 -->
<g id="edge35" class="edge">
<title>Node2&#45;&gt;Node34</title>
<path fill="none" stroke="midnightblue" d="M978.47,-700.11C976.93,-630.05 962.42,-432.59 851,-333.5 838.93,-322.77 823.46,-316.3 807.66,-312.5"/>
<polygon fill="midnightblue" stroke="midnightblue" points="974.98,-700.28 978.62,-710.23 981.97,-700.18 974.98,-700.28"/>
</g>
<!-- Node35 -->
<g id="node35" class="node">
<title>Node35</title>
<g id="a_node35"><a xlink:href="../../d4/dd1/classjavolution_1_1util_1_1internal_1_1collection_1_1SharedCollectionImpl.html#ac35d7720d8d4f7fadb284ef126a59ce1" target="_top" xlink:title=" ">
<polygon fill="white" stroke="black" points="641,-245.5 641,-275.5 819,-275.5 819,-245.5 641,-245.5"/>
<text text-anchor="start" x="649" y="-263.5" font-family="Helvetica,sans-Serif" font-size="10.00">javolution.util.internal.collection.</text>
<text text-anchor="middle" x="730" y="-252.5" font-family="Helvetica,sans-Serif" font-size="10.00">SharedCollectionImpl.perform</text>
</a>
</g>
</g>
<!-- Node2&#45;&gt;Node35 -->
<g id="edge36" class="edge">
<title>Node2&#45;&gt;Node35</title>
<path fill="none" stroke="midnightblue" d="M974.69,-700.3C961.38,-615.52 914.24,-342.63 851,-284.5 841.93,-276.16 830.81,-270.37 819.03,-266.4"/>
<polygon fill="midnightblue" stroke="midnightblue" points="971.26,-700.99 976.25,-710.34 978.17,-699.92 971.26,-700.99"/>
</g>
<!-- Node36 -->
<g id="node36" class="node">
<title>Node36</title>
<g id="a_node36"><a xlink:href="../../d5/db2/classjavolution_1_1util_1_1internal_1_1map_1_1SharedMapImpl.html#a3383ed9192cae2288eaa77510b1230db" target="_top" xlink:title=" ">
<polygon fill="white" stroke="black" points="654,-196.5 654,-226.5 806,-226.5 806,-196.5 654,-196.5"/>
<text text-anchor="start" x="662" y="-214.5" font-family="Helvetica,sans-Serif" font-size="10.00">javolution.util.internal.map.</text>
<text text-anchor="middle" x="730" y="-203.5" font-family="Helvetica,sans-Serif" font-size="10.00">SharedMapImpl.size</text>
</a>
</g>
</g>
<!-- Node2&#45;&gt;Node36 -->
<g id="edge38" class="edge">
<title>Node2&#45;&gt;Node36</title>
<path fill="none" stroke="midnightblue" d="M975.46,-700.23C964,-609.37 920.55,-301.18 851,-235.5 838.8,-223.98 822.7,-217.28 806.27,-213.53"/>
<polygon fill="midnightblue" stroke="midnightblue" points="971.99,-700.71 976.69,-710.2 978.94,-699.85 971.99,-700.71"/>
</g>
<!-- Node37 -->
<g id="node37" class="node">
<title>Node37</title>
<g id="a_node37"><a xlink:href="../../d4/dd1/classjavolution_1_1util_1_1internal_1_1collection_1_1SharedCollectionImpl.html#af1a08ec486c50a2265ea58818f61a1c0" target="_top" xlink:title=" ">
<polygon fill="white" stroke="black" points="641,-147.5 641,-177.5 819,-177.5 819,-147.5 641,-147.5"/>
<text text-anchor="start" x="649" y="-165.5" font-family="Helvetica,sans-Serif" font-size="10.00">javolution.util.internal.collection.</text>
<text text-anchor="middle" x="730" y="-154.5" font-family="Helvetica,sans-Serif" font-size="10.00">SharedCollectionImpl.size</text>
</a>
</g>
</g>
<!-- Node2&#45;&gt;Node37 -->
<g id="edge39" class="edge">
<title>Node2&#45;&gt;Node37</title>
<path fill="none" stroke="midnightblue" d="M976.1,-700.28C966.4,-603.79 926.93,-259.82 851,-186.5 842.06,-177.87 830.94,-171.92 819.1,-167.9"/>
<polygon fill="midnightblue" stroke="midnightblue" points="972.62,-700.69 977.09,-710.3 979.59,-700 972.62,-700.69"/>
</g>
<!-- Node38 -->
<g id="node38" class="node">
<title>Node38</title>
<g id="a_node38"><a xlink:href="../../d5/db2/classjavolution_1_1util_1_1internal_1_1map_1_1SharedMapImpl.html#a6c646a34f81f4cffbcc65c2c5e3592aa" target="_top" xlink:title=" ">
<polygon fill="white" stroke="black" points="654,-98.5 654,-128.5 806,-128.5 806,-98.5 654,-98.5"/>
<text text-anchor="start" x="662" y="-116.5" font-family="Helvetica,sans-Serif" font-size="10.00">javolution.util.internal.map.</text>
<text text-anchor="middle" x="730" y="-105.5" font-family="Helvetica,sans-Serif" font-size="10.00">SharedMapImpl.split</text>
</a>
</g>
</g>
<!-- Node2&#45;&gt;Node38 -->
<g id="edge40" class="edge">
<title>Node2&#45;&gt;Node38</title>
<path fill="none" stroke="midnightblue" d="M976.64,-700.34C968.58,-598.5 933.34,-218.53 851,-137.5 838.96,-125.65 822.83,-118.85 806.3,-115.1"/>
<polygon fill="midnightblue" stroke="midnightblue" points="973.15,-700.63 977.41,-710.33 980.13,-700.09 973.15,-700.63"/>
</g>
<!-- Node39 -->
<g id="node39" class="node">
<title>Node39</title>
<g id="a_node39"><a xlink:href="../../d4/dd1/classjavolution_1_1util_1_1internal_1_1collection_1_1SharedCollectionImpl.html#a3b260b05df7cc4cbe57021b305a3cf6d" target="_top" xlink:title=" ">
<polygon fill="white" stroke="black" points="641,-49.5 641,-79.5 819,-79.5 819,-49.5 641,-49.5"/>
<text text-anchor="start" x="649" y="-67.5" font-family="Helvetica,sans-Serif" font-size="10.00">javolution.util.internal.collection.</text>
<text text-anchor="middle" x="730" y="-56.5" font-family="Helvetica,sans-Serif" font-size="10.00">SharedCollectionImpl.split</text>
</a>
</g>
</g>
<!-- Node2&#45;&gt;Node39 -->
<g id="edge41" class="edge">
<title>Node2&#45;&gt;Node39</title>
<path fill="none" stroke="midnightblue" d="M977.07,-700.01C970.5,-592.46 939.68,-177.17 851,-88.5 842.14,-79.64 830.98,-73.58 819.07,-69.52"/>
<polygon fill="midnightblue" stroke="midnightblue" points="973.59,-700.47 977.68,-710.25 980.58,-700.06 973.59,-700.47"/>
</g>
<!-- Node40 -->
<g id="node40" class="node">
<title>Node40</title>
<g id="a_node40"><a xlink:href="../../d4/dd1/classjavolution_1_1util_1_1internal_1_1collection_1_1SharedCollectionImpl.html#a85227e70bac4654a785afd840768cb90" target="_top" xlink:title=" ">
<polygon fill="white" stroke="black" points="641,-0.5 641,-30.5 819,-30.5 819,-0.5 641,-0.5"/>
<text text-anchor="start" x="649" y="-18.5" font-family="Helvetica,sans-Serif" font-size="10.00">javolution.util.internal.collection.</text>
<text text-anchor="middle" x="730" y="-7.5" font-family="Helvetica,sans-Serif" font-size="10.00">SharedCollectionImpl.toArray</text>
</a>
</g>
</g>
<!-- Node2&#45;&gt;Node40 -->
<g id="edge42" class="edge">
<title>Node2&#45;&gt;Node40</title>
<path fill="none" stroke="midnightblue" d="M977.47,-700.25C972.39,-588.05 946.19,-136 851,-39.5 842.2,-30.58 831.08,-24.49 819.18,-20.41"/>
<polygon fill="midnightblue" stroke="midnightblue" points="973.98,-700.46 977.91,-710.3 980.97,-700.16 973.98,-700.46"/>
</g>
<!-- Node14 -->
<g id="node14" class="node">
<title>Node14</title>
<g id="a_node14"><a xlink:href="../../d9/d51/classjavolution_1_1util_1_1internal_1_1table_1_1SharedTableImpl.html#abe20c2174575175096f8169f434cf2df" target="_top" xlink:title=" ">
<polygon fill="white" stroke="black" points="418,-910.5 418,-940.5 573,-940.5 573,-910.5 418,-910.5"/>
<text text-anchor="start" x="426" y="-928.5" font-family="Helvetica,sans-Serif" font-size="10.00">javolution.util.internal.table.</text>
<text text-anchor="middle" x="495.5" y="-917.5" font-family="Helvetica,sans-Serif" font-size="10.00">SharedTableImpl.element</text>
</a>
</g>
</g>
<!-- Node13&#45;&gt;Node14 -->
<g id="edge13" class="edge">
<title>Node13&#45;&gt;Node14</title>
<path fill="none" stroke="midnightblue" d="M641.97,-918.62C619.38,-919.69 595.21,-920.83 573.19,-921.87"/>
<polygon fill="midnightblue" stroke="midnightblue" points="642.4,-922.1 652.23,-918.13 642.07,-915.11 642.4,-922.1"/>
</g>
<!-- Node15 -->
<g id="node15" class="node">
<title>Node15</title>
<g id="a_node15"><a xlink:href="../../d9/d51/classjavolution_1_1util_1_1internal_1_1table_1_1SharedTableImpl.html#a512779038359b08a7ee003b7d44371a4" target="_top" xlink:title=" ">
<polygon fill="white" stroke="black" points="209,-910.5 209,-940.5 364,-940.5 364,-910.5 209,-910.5"/>
<text text-anchor="start" x="217" y="-928.5" font-family="Helvetica,sans-Serif" font-size="10.00">javolution.util.internal.table.</text>
<text text-anchor="middle" x="286.5" y="-917.5" font-family="Helvetica,sans-Serif" font-size="10.00">SharedTableImpl.add</text>
</a>
</g>
</g>
<!-- Node14&#45;&gt;Node15 -->
<g id="edge14" class="edge">
<title>Node14&#45;&gt;Node15</title>
<path fill="none" stroke="midnightblue" d="M407.36,-925.5C393.01,-925.5 378.23,-925.5 364.16,-925.5"/>
<polygon fill="midnightblue" stroke="midnightblue" points="407.72,-929 417.72,-925.5 407.71,-922 407.72,-929"/>
</g>
<!-- Node16 -->
<g id="node16" class="node">
<title>Node16</title>
<g id="a_node16"><a xlink:href="../../d9/d51/classjavolution_1_1util_1_1internal_1_1table_1_1SharedTableImpl.html#aa710658937ff7bbe8ec3ed2343786c5f" target="_top" xlink:title=" ">
<polygon fill="white" stroke="black" points="209,-1106.5 209,-1136.5 364,-1136.5 364,-1106.5 209,-1106.5"/>
<text text-anchor="start" x="217" y="-1124.5" font-family="Helvetica,sans-Serif" font-size="10.00">javolution.util.internal.table.</text>
<text text-anchor="middle" x="286.5" y="-1113.5" font-family="Helvetica,sans-Serif" font-size="10.00">SharedTableImpl.addFirst</text>
</a>
</g>
</g>
<!-- Node14&#45;&gt;Node16 -->
<g id="edge15" class="edge">
<title>Node14&#45;&gt;Node16</title>
<path fill="none" stroke="midnightblue" d="M485.19,-950.34C469.72,-988.11 435.08,-1059.59 382,-1097.5 376.49,-1101.43 370.39,-1104.73 364.03,-1107.48"/>
<polygon fill="midnightblue" stroke="midnightblue" points="488.6,-951.22 489.04,-940.64 482.1,-948.64 488.6,-951.22"/>
</g>
<!-- Node18 -->
<g id="node18" class="node">
<title>Node18</title>
<g id="a_node18"><a xlink:href="../../d0/d57/classjavolution_1_1util_1_1internal_1_1table_1_1sorted_1_1SharedSortedTableImpl.html#a3cbc222359090ababc11250d607d5a0c" target="_top" xlink:title=" ">
<polygon fill="white" stroke="black" points="191,-1057.5 191,-1087.5 382,-1087.5 382,-1057.5 191,-1057.5"/>
<text text-anchor="start" x="199" y="-1075.5" font-family="Helvetica,sans-Serif" font-size="10.00">javolution.util.internal.table.sorted.</text>
<text text-anchor="middle" x="286.5" y="-1064.5" font-family="Helvetica,sans-Serif" font-size="10.00">SharedSortedTableImpl.addIfAbsent</text>
</a>
</g>
</g>
<!-- Node14&#45;&gt;Node18 -->
<g id="edge17" class="edge">
<title>Node14&#45;&gt;Node18</title>
<path fill="none" stroke="midnightblue" d="M479.42,-948.99C460.2,-976.99 424.35,-1023.15 382,-1048.5 376.34,-1051.89 370.2,-1054.8 363.88,-1057.31"/>
<polygon fill="midnightblue" stroke="midnightblue" points="482.39,-950.85 485.06,-940.59 476.58,-946.94 482.39,-950.85"/>
</g>
<!-- Node19 -->
<g id="node19" class="node">
<title>Node19</title>
<g id="a_node19"><a xlink:href="../../d9/d51/classjavolution_1_1util_1_1internal_1_1table_1_1SharedTableImpl.html#a5f4fdf561f83878e105b14d019111613" target="_top" xlink:title=" ">
<polygon fill="white" stroke="black" points="209,-1008.5 209,-1038.5 364,-1038.5 364,-1008.5 209,-1008.5"/>
<text text-anchor="start" x="217" y="-1026.5" font-family="Helvetica,sans-Serif" font-size="10.00">javolution.util.internal.table.</text>
<text text-anchor="middle" x="286.5" y="-1015.5" font-family="Helvetica,sans-Serif" font-size="10.00">SharedTableImpl.addLast</text>
</a>
</g>
</g>
<!-- Node14&#45;&gt;Node19 -->
<g id="edge18" class="edge">
<title>Node14&#45;&gt;Node19</title>
<path fill="none" stroke="midnightblue" d="M467.58,-946.93C445.67,-963.43 413.35,-985.68 382,-999.5 374.33,-1002.88 366.1,-1005.85 357.8,-1008.44"/>
<polygon fill="midnightblue" stroke="midnightblue" points="469.91,-949.56 475.73,-940.7 465.66,-944 469.91,-949.56"/>
</g>
<!-- Node14&#45;&gt;Node20 -->
<g id="edge19" class="edge">
<title>Node14&#45;&gt;Node20</title>
<path fill="none" stroke="midnightblue" d="M420.98,-908.1C398.08,-902.68 373.04,-896.75 350.89,-891.51"/>
<polygon fill="midnightblue" stroke="midnightblue" points="420.45,-911.57 430.99,-910.47 422.06,-904.76 420.45,-911.57"/>
</g>
<!-- Node14&#45;&gt;Node21 -->
<g id="edge20" class="edge">
<title>Node14&#45;&gt;Node21</title>
<path fill="none" stroke="midnightblue" d="M467.1,-904.16C445.15,-887.98 413.01,-866.24 382,-852.5 373.47,-848.72 364.24,-845.41 355.01,-842.54"/>
<polygon fill="midnightblue" stroke="midnightblue" points="465.17,-907.09 475.27,-910.29 469.37,-901.49 465.17,-907.09"/>
</g>
<!-- Node14&#45;&gt;Node22 -->
<g id="edge21" class="edge">
<title>Node14&#45;&gt;Node22</title>
<path fill="none" stroke="midnightblue" d="M479.02,-901.83C459.65,-874.09 423.86,-828.72 382,-803.5 375.6,-799.65 368.62,-796.38 361.43,-793.61"/>
<polygon fill="midnightblue" stroke="midnightblue" points="476.19,-903.89 484.72,-910.17 481.97,-899.94 476.19,-903.89"/>
</g>
<!-- Node23 -->
<g id="node23" class="node">
<title>Node23</title>
<g id="a_node23"><a xlink:href="../../d9/d51/classjavolution_1_1util_1_1internal_1_1table_1_1SharedTableImpl.html#a86f10240f085e9345c10452e0ed00271" target="_top" xlink:title=" ">
<polygon fill="white" stroke="black" points="209,-959.5 209,-989.5 364,-989.5 364,-959.5 209,-959.5"/>
<text text-anchor="start" x="217" y="-977.5" font-family="Helvetica,sans-Serif" font-size="10.00">javolution.util.internal.table.</text>
<text text-anchor="middle" x="286.5" y="-966.5" font-family="Helvetica,sans-Serif" font-size="10.00">SharedTableImpl.set</text>
</a>
</g>
</g>
<!-- Node14&#45;&gt;Node23 -->
<g id="edge22" class="edge">
<title>Node14&#45;&gt;Node23</title>
<path fill="none" stroke="midnightblue" d="M420.98,-942.9C398.08,-948.32 373.04,-954.25 350.89,-959.49"/>
<polygon fill="midnightblue" stroke="midnightblue" points="422.06,-946.24 430.99,-940.53 420.45,-939.43 422.06,-946.24"/>
</g>
<!-- Node17 -->
<g id="node17" class="node">
<title>Node17</title>
<g id="a_node17"><a xlink:href="../../d9/d51/classjavolution_1_1util_1_1internal_1_1table_1_1SharedTableImpl.html#a2bb3ddb996ab58a3e3c3cee818eed29f" target="_top" xlink:title=" ">
<polygon fill="white" stroke="black" points="0,-1106.5 0,-1136.5 155,-1136.5 155,-1106.5 0,-1106.5"/>
<text text-anchor="start" x="8" y="-1124.5" font-family="Helvetica,sans-Serif" font-size="10.00">javolution.util.internal.table.</text>
<text text-anchor="middle" x="77.5" y="-1113.5" font-family="Helvetica,sans-Serif" font-size="10.00">SharedTableImpl.push</text>
</a>
</g>
</g>
<!-- Node16&#45;&gt;Node17 -->
<g id="edge16" class="edge">
<title>Node16&#45;&gt;Node17</title>
<path fill="none" stroke="midnightblue" d="M198.36,-1121.5C184.01,-1121.5 169.23,-1121.5 155.16,-1121.5"/>
<polygon fill="midnightblue" stroke="midnightblue" points="198.72,-1125 208.72,-1121.5 198.71,-1118 198.72,-1125"/>
</g>
<!-- Node33 -->
<g id="node33" class="node">
<title>Node33</title>
<g id="a_node33"><a xlink:href="../../d9/d51/classjavolution_1_1util_1_1internal_1_1table_1_1SharedTableImpl.html#afca5a97b6cab861b4b3de04c36c9f1bf" target="_top" xlink:title=" ">
<polygon fill="white" stroke="black" points="418,-343.5 418,-373.5 573,-373.5 573,-343.5 418,-343.5"/>
<text text-anchor="start" x="426" y="-361.5" font-family="Helvetica,sans-Serif" font-size="10.00">javolution.util.internal.table.</text>
<text text-anchor="middle" x="495.5" y="-350.5" font-family="Helvetica,sans-Serif" font-size="10.00">SharedTableImpl.peek</text>
</a>
</g>
</g>
<!-- Node32&#45;&gt;Node33 -->
<g id="edge34" class="edge">
<title>Node32&#45;&gt;Node33</title>
<path fill="none" stroke="midnightblue" d="M641.97,-358.5C619.38,-358.5 595.21,-358.5 573.19,-358.5"/>
<polygon fill="midnightblue" stroke="midnightblue" points="642.23,-362 652.23,-358.5 642.23,-355 642.23,-362"/>
</g>
</g>
</svg>
        <g id="navigator" transform="translate(0 0)" fill="#404254">
                <rect fill="#f2f5e9" fill-opacity="0.5" stroke="#606060" stroke-width=".5" x="0" y="0" width="60" height="60"/>
                <use id="zoomplus" xlink:href="#zoomPlus" x="17" y="9" onmousedown="handleZoom(evt,'in')"/>
                <use id="zoomminus" xlink:href="#zoomMin" x="42" y="9" onmousedown="handleZoom(evt,'out')"/>
                <use id="reset" xlink:href="#resetDef" x="30" y="36" onmousedown="handleReset()"/>
                <g id="arrowUp" xlink:href="#dirArrow" transform="translate(30 24)" onmousedown="handlePan(0,-1)">
                  <use xlink:href="#rim" fill="#404040">
                        <set attributeName="fill" to="#808080" begin="arrowUp.mouseover" end="arrowUp.mouseout"/>
                  </use>
                  <path fill="none" stroke="white" stroke-width="1.5" d="M0,-3.0v7 M-2.5,-0.5L0,-3.0L2.5,-0.5"/>
                </g>
                <g id="arrowRight" xlink:href="#dirArrow" transform="rotate(90) translate(36 -43)" onmousedown="handlePan(1,0)">
                  <use xlink:href="#rim" fill="#404040">
                        <set attributeName="fill" to="#808080" begin="arrowRight.mouseover" end="arrowRight.mouseout"/>
                  </use>
                  <path fill="none" stroke="white" stroke-width="1.5" d="M0,-3.0v7 M-2.5,-0.5L0,-3.0L2.5,-0.5"/>
                </g>
                <g id="arrowDown" xlink:href="#dirArrow" transform="rotate(180) translate(-30 -48)" onmousedown="handlePan(0,1)">
                  <use xlink:href="#rim" fill="#404040">
                        <set attributeName="fill" to="#808080" begin="arrowDown.mouseover" end="arrowDown.mouseout"/>
                  </use>
                  <path fill="none" stroke="white" stroke-width="1.5" d="M0,-3.0v7 M-2.5,-0.5L0,-3.0L2.5,-0.5"/>
                </g>
                <g id="arrowLeft" xlink:href="#dirArrow" transform="rotate(270) translate(-36 17)" onmousedown="handlePan(-1,0)">
                  <use xlink:href="#rim" fill="#404040">
                        <set attributeName="fill" to="#808080" begin="arrowLeft.mouseover" end="arrowLeft.mouseout"/>
                  </use>
                  <path fill="none" stroke="white" stroke-width="1.5" d="M0,-3.0v7 M-2.5,-0.5L0,-3.0L2.5,-0.5"/>
                </g>
        </g>
        <svg viewBox="0 0 15 15" width="100%" height="30px" preserveAspectRatio="xMaxYMin meet">
         <g id="arrow_out" transform="scale(0.3 0.3)">
          <a xlink:href="classjavolution_1_1util_1_1internal_1_1collection_1_1ReadWriteLockImpl_1_1ReadLock_ab0f1ccdff1bb66a07d0f6bfd1d54170f_icgraph_org.svg" target="_base">
           <rect id="button" ry="5" rx="5" y="6" x="6" height="38" width="38"
                fill="#f2f5e9" fill-opacity="0.5" stroke="#606060" stroke-width="1.0"/>
           <path id="arrow"
             d="M 11.500037,31.436501 C 11.940474,20.09759 22.043105,11.32322 32.158766,21.979434 L 37.068811,17.246167 C 37.068811,17.246167 37.088388,32 37.088388,32 L 22.160133,31.978069 C 22.160133,31.978069 26.997745,27.140456 26.997745,27.140456 C 18.528582,18.264221 13.291696,25.230495 11.500037,31.436501 z"
             style="fill:#404040;"/>
          </a>
         </g>
        </svg>
</svg>
