<?xml version="1.0" encoding="UTF-8" standalone="no"?>
<!DOCTYPE svg PUBLIC "-//W3C//DTD SVG 1.1//EN"
 "http://www.w3.org/Graphics/SVG/1.1/DTD/svg11.dtd">
<!-- Generated by graphviz version 2.43.0 (0)
 -->
<!-- Title: javolution.util.internal.table.AtomicTableImpl.lastIndexOf Pages: 1 -->
<svg width="739pt" height="61pt"
 viewBox="0.00 0.00 739.00 61.00" xmlns="http://www.w3.org/2000/svg" xmlns:xlink="http://www.w3.org/1999/xlink">
<g id="graph0" class="graph" transform="scale(1 1) rotate(0) translate(4 57)">
<title>javolution.util.internal.table.AtomicTableImpl.lastIndexOf</title>
<polygon fill="white" stroke="transparent" points="-4,4 -4,-57 735,-57 735,4 -4,4"/>
<!-- Node1 -->
<g id="node1" class="node">
<title>Node1</title>
<g id="a_node1"><a xlink:title=" ">
<polygon fill="#bfbfbf" stroke="black" points="0,-0.5 0,-30.5 158,-30.5 158,-0.5 0,-0.5"/>
<text text-anchor="start" x="8" y="-18.5" font-family="Helvetica,sans-Serif" font-size="10.00">javolution.util.internal.table.</text>
<text text-anchor="middle" x="79" y="-7.5" font-family="Helvetica,sans-Serif" font-size="10.00">AtomicTableImpl.lastIndexOf</text>
</a>
</g>
</g>
<!-- Node2 -->
<g id="node2" class="node">
<title>Node2</title>
<g id="a_node2"><a xlink:href="../../db/da7/classjavolution_1_1util_1_1internal_1_1table_1_1AtomicTableImpl.html#ac740c7de0c77ad273e1f6f4434375eb4" target="_top" xlink:title=" ">
<polygon fill="white" stroke="black" points="194,-22.5 194,-52.5 349,-52.5 349,-22.5 194,-22.5"/>
<text text-anchor="start" x="202" y="-40.5" font-family="Helvetica,sans-Serif" font-size="10.00">javolution.util.internal.table.</text>
<text text-anchor="middle" x="271.5" y="-29.5" font-family="Helvetica,sans-Serif" font-size="10.00">AtomicTableImpl.element</text>
</a>
</g>
</g>
<!-- Node1&#45;&gt;Node2 -->
<g id="edge1" class="edge">
<title>Node1&#45;&gt;Node2</title>
<path fill="none" stroke="midnightblue" d="M158.03,-24.51C166.53,-25.49 175.21,-26.5 183.8,-27.49"/>
<polygon fill="midnightblue" stroke="midnightblue" points="183.48,-30.97 193.82,-28.64 184.29,-24.02 183.48,-30.97"/>
</g>
<!-- Node4 -->
<g id="node4" class="node">
<title>Node4</title>
<g id="a_node4"><a xlink:href="../../db/da7/classjavolution_1_1util_1_1internal_1_1table_1_1AtomicTableImpl.html#af7a0dd8a4ae428ee194160884adaf113" target="_top" xlink:title=" ">
<polygon fill="white" stroke="black" points="576,-0.5 576,-30.5 731,-30.5 731,-0.5 576,-0.5"/>
<text text-anchor="start" x="584" y="-18.5" font-family="Helvetica,sans-Serif" font-size="10.00">javolution.util.internal.table.</text>
<text text-anchor="middle" x="653.5" y="-7.5" font-family="Helvetica,sans-Serif" font-size="10.00">AtomicTableImpl.targetView</text>
</a>
</g>
</g>
<!-- Node1&#45;&gt;Node4 -->
<g id="edge4" class="edge">
<title>Node1&#45;&gt;Node4</title>
<path fill="none" stroke="midnightblue" d="M158.18,-13.17C170.18,-12.89 182.42,-12.65 194,-12.5 347.76,-10.48 386.24,-10.45 540,-12.5 548.35,-12.61 557.06,-12.77 565.76,-12.96"/>
<polygon fill="midnightblue" stroke="midnightblue" points="565.88,-16.46 575.95,-13.18 566.03,-9.46 565.88,-16.46"/>
</g>
<!-- Node3 -->
<g id="node3" class="node">
<title>Node3</title>
<g id="a_node3"><a xlink:href="../../db/da7/classjavolution_1_1util_1_1internal_1_1table_1_1AtomicTableImpl.html#a24b432a2126374c2c20364cdb0f44273" target="_top" xlink:title=" ">
<polygon fill="white" stroke="black" points="385,-22.5 385,-52.5 540,-52.5 540,-22.5 385,-22.5"/>
<text text-anchor="start" x="393" y="-40.5" font-family="Helvetica,sans-Serif" font-size="10.00">javolution.util.internal.table.</text>
<text text-anchor="middle" x="462.5" y="-29.5" font-family="Helvetica,sans-Serif" font-size="10.00">AtomicTableImpl.getFirst</text>
</a>
</g>
</g>
<!-- Node2&#45;&gt;Node3 -->
<g id="edge2" class="edge">
<title>Node2&#45;&gt;Node3</title>
<path fill="none" stroke="midnightblue" d="M349.1,-37.5C357.56,-37.5 366.22,-37.5 374.79,-37.5"/>
<polygon fill="midnightblue" stroke="midnightblue" points="374.79,-41 384.79,-37.5 374.79,-34 374.79,-41"/>
</g>
<!-- Node3&#45;&gt;Node4 -->
<g id="edge3" class="edge">
<title>Node3&#45;&gt;Node4</title>
<path fill="none" stroke="midnightblue" d="M540.1,-28.58C548.56,-27.6 557.22,-26.59 565.79,-25.59"/>
<polygon fill="midnightblue" stroke="midnightblue" points="566.26,-29.06 575.79,-24.43 565.45,-22.11 566.26,-29.06"/>
</g>
</g>
</svg>
