<?xml version="1.0" encoding="UTF-8" standalone="no"?>
<!DOCTYPE svg PUBLIC "-//W3C//DTD SVG 1.1//EN"
 "http://www.w3.org/Graphics/SVG/1.1/DTD/svg11.dtd">
<!-- Generated by graphviz version 2.43.0 (0)
 -->
<!-- Title: javolution.util.internal.table.AtomicTableImpl.removeFirstOccurrence Pages: 1 -->
<svg width="468pt" height="137pt"
 viewBox="0.00 0.00 468.00 137.00" xmlns="http://www.w3.org/2000/svg" xmlns:xlink="http://www.w3.org/1999/xlink">
<g id="graph0" class="graph" transform="scale(1 1) rotate(0) translate(4 133)">
<title>javolution.util.internal.table.AtomicTableImpl.removeFirstOccurrence</title>
<polygon fill="white" stroke="transparent" points="-4,4 -4,-133 464,-133 464,4 -4,4"/>
<!-- Node1 -->
<g id="node1" class="node">
<title>Node1</title>
<g id="a_node1"><a xlink:title=" ">
<polygon fill="#bfbfbf" stroke="black" points="0,-49.5 0,-79.5 215,-79.5 215,-49.5 0,-49.5"/>
<text text-anchor="start" x="8" y="-67.5" font-family="Helvetica,sans-Serif" font-size="10.00">javolution.util.internal.table.</text>
<text text-anchor="middle" x="107.5" y="-56.5" font-family="Helvetica,sans-Serif" font-size="10.00">AtomicTableImpl.removeFirstOccurrence</text>
</a>
</g>
</g>
<!-- Node2 -->
<g id="node2" class="node">
<title>Node2</title>
<g id="a_node2"><a xlink:href="../../d3/d15/classjavolution_1_1util_1_1internal_1_1collection_1_1AtomicCollectionImpl.html#a601550e0737dd6b11b86be2d9877c82f" target="_top" xlink:title=" ">
<polygon fill="white" stroke="black" points="265,-98.5 265,-128.5 446,-128.5 446,-98.5 265,-98.5"/>
<text text-anchor="start" x="273" y="-116.5" font-family="Helvetica,sans-Serif" font-size="10.00">javolution.util.internal.collection.</text>
<text text-anchor="middle" x="355.5" y="-105.5" font-family="Helvetica,sans-Serif" font-size="10.00">AtomicCollectionImpl.cloneTarget</text>
</a>
</g>
</g>
<!-- Node1&#45;&gt;Node2 -->
<g id="edge1" class="edge">
<title>Node1&#45;&gt;Node2</title>
<path fill="none" stroke="midnightblue" d="M183.98,-79.53C210.9,-84.9 241.41,-90.97 269.1,-96.49"/>
<polygon fill="midnightblue" stroke="midnightblue" points="268.67,-99.97 279.16,-98.49 270.04,-93.11 268.67,-99.97"/>
</g>
<!-- Node3 -->
<g id="node3" class="node">
<title>Node3</title>
<g id="a_node3"><a xlink:href="../../db/da7/classjavolution_1_1util_1_1internal_1_1table_1_1AtomicTableImpl.html#a57dda55de27c473fc46c62e2c6420e2e" target="_top" xlink:title=" ">
<polygon fill="white" stroke="black" points="278,-49.5 278,-79.5 433,-79.5 433,-49.5 278,-49.5"/>
<text text-anchor="start" x="286" y="-67.5" font-family="Helvetica,sans-Serif" font-size="10.00">javolution.util.internal.table.</text>
<text text-anchor="middle" x="355.5" y="-56.5" font-family="Helvetica,sans-Serif" font-size="10.00">AtomicTableImpl.target</text>
</a>
</g>
</g>
<!-- Node1&#45;&gt;Node3 -->
<g id="edge2" class="edge">
<title>Node1&#45;&gt;Node3</title>
<path fill="none" stroke="midnightblue" d="M215.33,-64.5C232.72,-64.5 250.56,-64.5 267.41,-64.5"/>
<polygon fill="midnightblue" stroke="midnightblue" points="267.76,-68 277.76,-64.5 267.76,-61 267.76,-68"/>
</g>
<!-- Node4 -->
<g id="node4" class="node">
<title>Node4</title>
<g id="a_node4"><a xlink:href="../../d3/d15/classjavolution_1_1util_1_1internal_1_1collection_1_1AtomicCollectionImpl.html#aeb7c1191fea46f9623291a9ba2db3994" target="_top" xlink:title=" ">
<polygon fill="white" stroke="black" points="251,-0.5 251,-30.5 460,-30.5 460,-0.5 251,-0.5"/>
<text text-anchor="start" x="259" y="-18.5" font-family="Helvetica,sans-Serif" font-size="10.00">javolution.util.internal.collection.</text>
<text text-anchor="middle" x="355.5" y="-7.5" font-family="Helvetica,sans-Serif" font-size="10.00">AtomicCollectionImpl.updateInProgress</text>
</a>
</g>
</g>
<!-- Node1&#45;&gt;Node4 -->
<g id="edge3" class="edge">
<title>Node1&#45;&gt;Node4</title>
<path fill="none" stroke="midnightblue" d="M183.98,-49.47C210.9,-44.1 241.41,-38.03 269.1,-32.51"/>
<polygon fill="midnightblue" stroke="midnightblue" points="270.04,-35.89 279.16,-30.51 268.67,-29.03 270.04,-35.89"/>
</g>
</g>
</svg>
