<?xml version="1.0" encoding="UTF-8" standalone="no"?>
<!DOCTYPE svg PUBLIC "-//W3C//DTD SVG 1.1//EN"
 "http://www.w3.org/Graphics/SVG/1.1/DTD/svg11.dtd">
<!-- Generated by graphviz version 2.43.0 (0)
 -->
<!-- Title: javolution.util.internal.table.AtomicTableImpl.AtomicTableImpl Pages: 1 -->
<svg width="382pt" height="39pt"
 viewBox="0.00 0.00 382.00 39.00" xmlns="http://www.w3.org/2000/svg" xmlns:xlink="http://www.w3.org/1999/xlink">
<g id="graph0" class="graph" transform="scale(1 1) rotate(0) translate(4 35)">
<title>javolution.util.internal.table.AtomicTableImpl.AtomicTableImpl</title>
<polygon fill="white" stroke="transparent" points="-4,4 -4,-35 378,-35 378,4 -4,4"/>
<!-- Node1 -->
<g id="node1" class="node">
<title>Node1</title>
<g id="a_node1"><a xlink:title=" ">
<polygon fill="#bfbfbf" stroke="black" points="0,-0.5 0,-30.5 183,-30.5 183,-0.5 0,-0.5"/>
<text text-anchor="start" x="8" y="-18.5" font-family="Helvetica,sans-Serif" font-size="10.00">javolution.util.internal.table.</text>
<text text-anchor="middle" x="91.5" y="-7.5" font-family="Helvetica,sans-Serif" font-size="10.00">AtomicTableImpl.AtomicTableImpl</text>
</a>
</g>
</g>
<!-- Node2 -->
<g id="node2" class="node">
<title>Node2</title>
<g id="a_node2"><a xlink:href="../../db/da7/classjavolution_1_1util_1_1internal_1_1table_1_1AtomicTableImpl.html#a57dda55de27c473fc46c62e2c6420e2e" target="_top" xlink:title=" ">
<polygon fill="white" stroke="black" points="219,-0.5 219,-30.5 374,-30.5 374,-0.5 219,-0.5"/>
<text text-anchor="start" x="227" y="-18.5" font-family="Helvetica,sans-Serif" font-size="10.00">javolution.util.internal.table.</text>
<text text-anchor="middle" x="296.5" y="-7.5" font-family="Helvetica,sans-Serif" font-size="10.00">AtomicTableImpl.target</text>
</a>
</g>
</g>
<!-- Node1&#45;&gt;Node2 -->
<g id="edge1" class="edge">
<title>Node1&#45;&gt;Node2</title>
<path fill="none" stroke="midnightblue" d="M183.02,-15.5C191.51,-15.5 200.11,-15.5 208.57,-15.5"/>
<polygon fill="midnightblue" stroke="midnightblue" points="208.8,-19 218.8,-15.5 208.8,-12 208.8,-19"/>
</g>
</g>
</svg>
