<?xml version="1.0" encoding="UTF-8" standalone="no"?>
<!DOCTYPE svg PUBLIC "-//W3C//DTD SVG 1.1//EN"
 "http://www.w3.org/Graphics/SVG/1.1/DTD/svg11.dtd">
<!-- Generated by graphviz version 2.43.0 (0)
 -->
<!-- Title: javolution.util.internal.table.AtomicTableImpl.removeLastOccurrence Pages: 1 -->
<svg width="467pt" height="137pt"
 viewBox="0.00 0.00 467.00 137.00" xmlns="http://www.w3.org/2000/svg" xmlns:xlink="http://www.w3.org/1999/xlink">
<g id="graph0" class="graph" transform="scale(1 1) rotate(0) translate(4 133)">
<title>javolution.util.internal.table.AtomicTableImpl.removeLastOccurrence</title>
<polygon fill="white" stroke="transparent" points="-4,4 -4,-133 463,-133 463,4 -4,4"/>
<!-- Node1 -->
<g id="node1" class="node">
<title>Node1</title>
<g id="a_node1"><a xlink:title=" ">
<polygon fill="#bfbfbf" stroke="black" points="0,-49.5 0,-79.5 214,-79.5 214,-49.5 0,-49.5"/>
<text text-anchor="start" x="8" y="-67.5" font-family="Helvetica,sans-Serif" font-size="10.00">javolution.util.internal.table.</text>
<text text-anchor="middle" x="107" y="-56.5" font-family="Helvetica,sans-Serif" font-size="10.00">AtomicTableImpl.removeLastOccurrence</text>
</a>
</g>
</g>
<!-- Node2 -->
<g id="node2" class="node">
<title>Node2</title>
<g id="a_node2"><a xlink:href="../../d3/d15/classjavolution_1_1util_1_1internal_1_1collection_1_1AtomicCollectionImpl.html#a601550e0737dd6b11b86be2d9877c82f" target="_top" xlink:title=" ">
<polygon fill="white" stroke="black" points="264,-98.5 264,-128.5 445,-128.5 445,-98.5 264,-98.5"/>
<text text-anchor="start" x="272" y="-116.5" font-family="Helvetica,sans-Serif" font-size="10.00">javolution.util.internal.collection.</text>
<text text-anchor="middle" x="354.5" y="-105.5" font-family="Helvetica,sans-Serif" font-size="10.00">AtomicCollectionImpl.cloneTarget</text>
</a>
</g>
</g>
<!-- Node1&#45;&gt;Node2 -->
<g id="edge1" class="edge">
<title>Node1&#45;&gt;Node2</title>
<path fill="none" stroke="midnightblue" d="M183.33,-79.53C210.19,-84.9 240.64,-90.97 268.27,-96.49"/>
<polygon fill="midnightblue" stroke="midnightblue" points="267.82,-99.97 278.32,-98.49 269.19,-93.1 267.82,-99.97"/>
</g>
<!-- Node3 -->
<g id="node3" class="node">
<title>Node3</title>
<g id="a_node3"><a xlink:href="../../db/da7/classjavolution_1_1util_1_1internal_1_1table_1_1AtomicTableImpl.html#a57dda55de27c473fc46c62e2c6420e2e" target="_top" xlink:title=" ">
<polygon fill="white" stroke="black" points="277,-49.5 277,-79.5 432,-79.5 432,-49.5 277,-49.5"/>
<text text-anchor="start" x="285" y="-67.5" font-family="Helvetica,sans-Serif" font-size="10.00">javolution.util.internal.table.</text>
<text text-anchor="middle" x="354.5" y="-56.5" font-family="Helvetica,sans-Serif" font-size="10.00">AtomicTableImpl.target</text>
</a>
</g>
</g>
<!-- Node1&#45;&gt;Node3 -->
<g id="edge2" class="edge">
<title>Node1&#45;&gt;Node3</title>
<path fill="none" stroke="midnightblue" d="M214.25,-64.5C231.64,-64.5 249.47,-64.5 266.33,-64.5"/>
<polygon fill="midnightblue" stroke="midnightblue" points="266.68,-68 276.68,-64.5 266.68,-61 266.68,-68"/>
</g>
<!-- Node4 -->
<g id="node4" class="node">
<title>Node4</title>
<g id="a_node4"><a xlink:href="../../d3/d15/classjavolution_1_1util_1_1internal_1_1collection_1_1AtomicCollectionImpl.html#aeb7c1191fea46f9623291a9ba2db3994" target="_top" xlink:title=" ">
<polygon fill="white" stroke="black" points="250,-0.5 250,-30.5 459,-30.5 459,-0.5 250,-0.5"/>
<text text-anchor="start" x="258" y="-18.5" font-family="Helvetica,sans-Serif" font-size="10.00">javolution.util.internal.collection.</text>
<text text-anchor="middle" x="354.5" y="-7.5" font-family="Helvetica,sans-Serif" font-size="10.00">AtomicCollectionImpl.updateInProgress</text>
</a>
</g>
</g>
<!-- Node1&#45;&gt;Node4 -->
<g id="edge3" class="edge">
<title>Node1&#45;&gt;Node4</title>
<path fill="none" stroke="midnightblue" d="M183.33,-49.47C210.19,-44.1 240.64,-38.03 268.27,-32.51"/>
<polygon fill="midnightblue" stroke="midnightblue" points="269.19,-35.9 278.32,-30.51 267.82,-29.03 269.19,-35.9"/>
</g>
</g>
</svg>
