<?xml version="1.0" encoding="UTF-8" standalone="no"?>
<!DOCTYPE svg PUBLIC "-//W3C//DTD SVG 1.1//EN"
 "http://www.w3.org/Graphics/SVG/1.1/DTD/svg11.dtd">
<!-- Generated by graphviz version 2.43.0 (0)
 -->
<!-- Title: javolution.util.function.Equality&lt; T &gt; Pages: 1 -->
<!--zoomable 350 -->
<svg id="main" version="1.1" xmlns="http://www.w3.org/2000/svg" xmlns:xlink="http://www.w3.org/1999/xlink" xml:space="preserve" onload="init(evt)">
<style type="text/css"><![CDATA[
.edge:hover path { stroke: red; }
.edge:hover polygon { stroke: red; fill: red; }
]]></style>
<script type="text/javascript"><![CDATA[
var edges = document.getElementsByTagName('g');
if (edges && edges.length) {
  for (var i=0;i<edges.length;i++) {
    if (edges[i].id.substr(0,4)=='edge') {
      edges[i].setAttribute('class','edge');
    }
  }
}
]]></script>
        <defs>
                <circle id="rim" cx="0" cy="0" r="7"/>
                <circle id="rim2" cx="0" cy="0" r="3.5"/>
                <g id="zoomPlus">
                        <use xlink:href="#rim" fill="#404040">
                                <set attributeName="fill" to="#808080" begin="zoomplus.mouseover" end="zoomplus.mouseout"/>
                        </use>
                        <path d="M-4,0h8M0,-4v8" fill="none" stroke="white" stroke-width="1.5" pointer-events="none"/>
                </g>
                <g id="zoomMin">
                        <use xlink:href="#rim" fill="#404040">
                                <set attributeName="fill" to="#808080" begin="zoomminus.mouseover" end="zoomminus.mouseout"/>
                        </use>
                        <path d="M-4,0h8" fill="none" stroke="white" stroke-width="1.5" pointer-events="none"/>
                </g>
                <g id="dirArrow">
                        <path fill="none" stroke="white" stroke-width="1.5" d="M0,-3.0v7 M-2.5,-0.5L0,-3.0L2.5,-0.5"/>
                </g>
               <g id="resetDef">
                       <use xlink:href="#rim2" fill="#404040">
                               <set attributeName="fill" to="#808080" begin="reset.mouseover" end="reset.mouseout"/>
                       </use>
               </g>
        </defs>

<script type="text/javascript">
var viewWidth = 781;
var viewHeight = 350;
var sectionId = 'dynsection-0';
</script>
<script xlink:href="../../svgpan.js"/>
<svg id="graph" class="graph">
<g id="viewport">
<title>javolution.util.function.Equality&lt; T &gt;</title>
<polygon fill="white" stroke="transparent" points="-4,4 -4,-346 777,-346 777,4 -4,4"/>
<!-- Node1 -->
<g id="node1" class="node">
<title>Node1</title>
<g id="a_node1"><a xlink:title=" ">
<polygon fill="#bfbfbf" stroke="black" points="188,-156 188,-186 318,-186 318,-156 188,-156"/>
<text text-anchor="start" x="196" y="-174" font-family="Helvetica,sans-Serif" font-size="10.00">javolution.util.function.</text>
<text text-anchor="middle" x="253" y="-163" font-family="Helvetica,sans-Serif" font-size="10.00">Equality&lt; T &gt;</text>
</a>
</g>
</g>
<!-- Node3 -->
<g id="node3" class="node">
<title>Node3</title>
<g id="a_node3"><a xlink:href="../../d9/d55/classjavolution_1_1util_1_1internal_1_1comparator_1_1IdentityComparatorImpl.html" target="_top" xlink:title=" ">
<polygon fill="white" stroke="black" points="362.5,-300.5 362.5,-341.5 542.5,-341.5 542.5,-300.5 362.5,-300.5"/>
<text text-anchor="start" x="370.5" y="-329.5" font-family="Helvetica,sans-Serif" font-size="10.00">javolution::util::internal</text>
<text text-anchor="start" x="370.5" y="-318.5" font-family="Helvetica,sans-Serif" font-size="10.00">::comparator::IdentityComparator</text>
<text text-anchor="middle" x="452.5" y="-307.5" font-family="Helvetica,sans-Serif" font-size="10.00">Impl&lt; E &gt;</text>
</a>
</g>
</g>
<!-- Node1&#45;&gt;Node3 -->
<g id="edge2" class="edge">
<title>Node1&#45;&gt;Node3</title>
<path fill="none" stroke="midnightblue" d="M268.1,-195.19C285.13,-222.34 316.24,-265.86 354,-291 359.31,-294.53 365.05,-297.67 371,-300.44"/>
<polygon fill="midnightblue" stroke="midnightblue" points="270.88,-193.03 262.68,-186.33 264.91,-196.69 270.88,-193.03"/>
</g>
<!-- Node4 -->
<g id="node4" class="node">
<title>Node4</title>
<g id="a_node4"><a xlink:href="../../df/d01/classjavolution_1_1util_1_1internal_1_1comparator_1_1LexicalCaseInsensitiveComparatorImpl.html" target="_top" xlink:title=" ">
<polygon fill="white" stroke="black" points="354,-240.5 354,-281.5 551,-281.5 551,-240.5 354,-240.5"/>
<text text-anchor="start" x="362" y="-269.5" font-family="Helvetica,sans-Serif" font-size="10.00">javolution::util::internal</text>
<text text-anchor="start" x="362" y="-258.5" font-family="Helvetica,sans-Serif" font-size="10.00">::comparator::LexicalCaseInsensitive</text>
<text text-anchor="middle" x="452.5" y="-247.5" font-family="Helvetica,sans-Serif" font-size="10.00">ComparatorImpl&lt; CharSequence &gt;</text>
</a>
</g>
</g>
<!-- Node1&#45;&gt;Node4 -->
<g id="edge3" class="edge">
<title>Node1&#45;&gt;Node4</title>
<path fill="none" stroke="midnightblue" d="M284.18,-191.74C303.5,-204.34 329.47,-220.06 354,-231 361.6,-234.39 369.7,-237.55 377.85,-240.44"/>
<polygon fill="midnightblue" stroke="midnightblue" points="286.07,-188.79 275.8,-186.2 282.21,-194.63 286.07,-188.79"/>
</g>
<!-- Node5 -->
<g id="node5" class="node">
<title>Node5</title>
<g id="a_node5"><a xlink:href="../../d6/d49/classjavolution_1_1util_1_1internal_1_1comparator_1_1LexicalComparatorImpl.html" target="_top" xlink:title=" ">
<polygon fill="white" stroke="black" points="364,-180.5 364,-221.5 541,-221.5 541,-180.5 364,-180.5"/>
<text text-anchor="start" x="372" y="-209.5" font-family="Helvetica,sans-Serif" font-size="10.00">javolution::util::internal</text>
<text text-anchor="start" x="372" y="-198.5" font-family="Helvetica,sans-Serif" font-size="10.00">::comparator::LexicalComparator</text>
<text text-anchor="middle" x="452.5" y="-187.5" font-family="Helvetica,sans-Serif" font-size="10.00">Impl&lt; CharSequence &gt;</text>
</a>
</g>
</g>
<!-- Node1&#45;&gt;Node5 -->
<g id="edge4" class="edge">
<title>Node1&#45;&gt;Node5</title>
<path fill="none" stroke="midnightblue" d="M328.16,-182.26C339.74,-184.02 351.8,-185.86 363.65,-187.66"/>
<polygon fill="midnightblue" stroke="midnightblue" points="328.53,-178.78 318.12,-180.74 327.48,-185.7 328.53,-178.78"/>
</g>
<!-- Node7 -->
<g id="node7" class="node">
<title>Node7</title>
<g id="a_node7"><a xlink:href="../../db/d53/classjavolution_1_1util_1_1internal_1_1comparator_1_1StandardComparatorImpl.html" target="_top" xlink:title=" ">
<polygon fill="white" stroke="black" points="359.5,-120.5 359.5,-161.5 545.5,-161.5 545.5,-120.5 359.5,-120.5"/>
<text text-anchor="start" x="367.5" y="-149.5" font-family="Helvetica,sans-Serif" font-size="10.00">javolution::util::internal</text>
<text text-anchor="start" x="367.5" y="-138.5" font-family="Helvetica,sans-Serif" font-size="10.00">::comparator::StandardComparator</text>
<text text-anchor="middle" x="452.5" y="-127.5" font-family="Helvetica,sans-Serif" font-size="10.00">Impl&lt; E &gt;</text>
</a>
</g>
</g>
<!-- Node1&#45;&gt;Node7 -->
<g id="edge6" class="edge">
<title>Node1&#45;&gt;Node7</title>
<path fill="none" stroke="midnightblue" d="M328.17,-159.73C338.35,-158.19 348.91,-156.58 359.36,-155"/>
<polygon fill="midnightblue" stroke="midnightblue" points="327.48,-156.3 318.12,-161.26 328.53,-163.22 327.48,-156.3"/>
</g>
<!-- Node8 -->
<g id="node8" class="node">
<title>Node8</title>
<g id="a_node8"><a xlink:href="../../d1/d08/classjavolution_1_1util_1_1internal_1_1comparator_1_1WrapperComparatorImpl.html" target="_top" xlink:title=" ">
<polygon fill="white" stroke="black" points="360.5,-60.5 360.5,-101.5 544.5,-101.5 544.5,-60.5 360.5,-60.5"/>
<text text-anchor="start" x="368.5" y="-89.5" font-family="Helvetica,sans-Serif" font-size="10.00">javolution::util::internal</text>
<text text-anchor="start" x="368.5" y="-78.5" font-family="Helvetica,sans-Serif" font-size="10.00">::comparator::WrapperComparator</text>
<text text-anchor="middle" x="452.5" y="-67.5" font-family="Helvetica,sans-Serif" font-size="10.00">Impl&lt; E &gt;</text>
</a>
</g>
</g>
<!-- Node1&#45;&gt;Node8 -->
<g id="edge7" class="edge">
<title>Node1&#45;&gt;Node8</title>
<path fill="none" stroke="midnightblue" d="M284.18,-150.26C303.5,-137.66 329.47,-121.94 354,-111 361.6,-107.61 369.7,-104.45 377.85,-101.56"/>
<polygon fill="midnightblue" stroke="midnightblue" points="282.21,-147.37 275.8,-155.8 286.07,-153.21 282.21,-147.37"/>
</g>
<!-- Node9 -->
<g id="node9" class="node">
<title>Node9</title>
<g id="a_node9"><a xlink:href="../../d1/db0/classjavolution_1_1util_1_1internal_1_1map_1_1MapView_1_1EntryComparator.html" target="_top" xlink:title=" ">
<polygon fill="white" stroke="black" points="376,-0.5 376,-41.5 529,-41.5 529,-0.5 376,-0.5"/>
<text text-anchor="start" x="384" y="-29.5" font-family="Helvetica,sans-Serif" font-size="10.00">javolution::util::internal</text>
<text text-anchor="start" x="384" y="-18.5" font-family="Helvetica,sans-Serif" font-size="10.00">::map::MapView&lt; Entry&lt; K,</text>
<text text-anchor="middle" x="452.5" y="-7.5" font-family="Helvetica,sans-Serif" font-size="10.00"> V &gt; &gt;::EntryComparator</text>
</a>
</g>
</g>
<!-- Node1&#45;&gt;Node9 -->
<g id="edge8" class="edge">
<title>Node1&#45;&gt;Node9</title>
<path fill="none" stroke="midnightblue" d="M268.1,-146.81C285.13,-119.66 316.24,-76.14 354,-51 360.71,-46.53 368.11,-42.71 375.75,-39.44"/>
<polygon fill="midnightblue" stroke="midnightblue" points="264.91,-145.31 262.68,-155.67 270.88,-148.97 264.91,-145.31"/>
</g>
<!-- Node2 -->
<g id="node2" class="node">
<title>Node2</title>
<g id="a_node2"><a xlink:title=" ">
<polygon fill="white" stroke="#bfbfbf" points="0,-161.5 0,-180.5 152,-180.5 152,-161.5 0,-161.5"/>
<text text-anchor="middle" x="76" y="-168.5" font-family="Helvetica,sans-Serif" font-size="10.00">java::util::Comparator&lt; T &gt;</text>
</a>
</g>
</g>
<!-- Node2&#45;&gt;Node1 -->
<g id="edge1" class="edge">
<title>Node2&#45;&gt;Node1</title>
<path fill="none" stroke="midnightblue" d="M162.29,-171C170.89,-171 179.51,-171 187.83,-171"/>
<polygon fill="midnightblue" stroke="midnightblue" points="162.23,-167.5 152.23,-171 162.23,-174.5 162.23,-167.5"/>
</g>
<!-- Node6 -->
<g id="node6" class="node">
<title>Node6</title>
<g id="a_node6"><a xlink:href="../../de/d18/classjavolution_1_1util_1_1internal_1_1comparator_1_1LexicalFastComparatorImpl.html" target="_top" xlink:title=" ">
<polygon fill="white" stroke="black" points="587,-186 587,-216 773,-216 773,-186 587,-186"/>
<text text-anchor="start" x="595" y="-204" font-family="Helvetica,sans-Serif" font-size="10.00">javolution.util.internal.comparator.</text>
<text text-anchor="middle" x="680" y="-193" font-family="Helvetica,sans-Serif" font-size="10.00">LexicalFastComparatorImpl</text>
</a>
</g>
</g>
<!-- Node5&#45;&gt;Node6 -->
<g id="edge5" class="edge">
<title>Node5&#45;&gt;Node6</title>
<path fill="none" stroke="midnightblue" d="M551.27,-201C563.03,-201 575.01,-201 586.69,-201"/>
<polygon fill="midnightblue" stroke="midnightblue" points="551.01,-197.5 541.01,-201 551.01,-204.5 551.01,-197.5"/>
</g>
</g>
</svg>
        <g id="navigator" transform="translate(0 0)" fill="#404254">
                <rect fill="#f2f5e9" fill-opacity="0.5" stroke="#606060" stroke-width=".5" x="0" y="0" width="60" height="60"/>
                <use id="zoomplus" xlink:href="#zoomPlus" x="17" y="9" onmousedown="handleZoom(evt,'in')"/>
                <use id="zoomminus" xlink:href="#zoomMin" x="42" y="9" onmousedown="handleZoom(evt,'out')"/>
                <use id="reset" xlink:href="#resetDef" x="30" y="36" onmousedown="handleReset()"/>
                <g id="arrowUp" xlink:href="#dirArrow" transform="translate(30 24)" onmousedown="handlePan(0,-1)">
                  <use xlink:href="#rim" fill="#404040">
                        <set attributeName="fill" to="#808080" begin="arrowUp.mouseover" end="arrowUp.mouseout"/>
                  </use>
                  <path fill="none" stroke="white" stroke-width="1.5" d="M0,-3.0v7 M-2.5,-0.5L0,-3.0L2.5,-0.5"/>
                </g>
                <g id="arrowRight" xlink:href="#dirArrow" transform="rotate(90) translate(36 -43)" onmousedown="handlePan(1,0)">
                  <use xlink:href="#rim" fill="#404040">
                        <set attributeName="fill" to="#808080" begin="arrowRight.mouseover" end="arrowRight.mouseout"/>
                  </use>
                  <path fill="none" stroke="white" stroke-width="1.5" d="M0,-3.0v7 M-2.5,-0.5L0,-3.0L2.5,-0.5"/>
                </g>
                <g id="arrowDown" xlink:href="#dirArrow" transform="rotate(180) translate(-30 -48)" onmousedown="handlePan(0,1)">
                  <use xlink:href="#rim" fill="#404040">
                        <set attributeName="fill" to="#808080" begin="arrowDown.mouseover" end="arrowDown.mouseout"/>
                  </use>
                  <path fill="none" stroke="white" stroke-width="1.5" d="M0,-3.0v7 M-2.5,-0.5L0,-3.0L2.5,-0.5"/>
                </g>
                <g id="arrowLeft" xlink:href="#dirArrow" transform="rotate(270) translate(-36 17)" onmousedown="handlePan(-1,0)">
                  <use xlink:href="#rim" fill="#404040">
                        <set attributeName="fill" to="#808080" begin="arrowLeft.mouseover" end="arrowLeft.mouseout"/>
                  </use>
                  <path fill="none" stroke="white" stroke-width="1.5" d="M0,-3.0v7 M-2.5,-0.5L0,-3.0L2.5,-0.5"/>
                </g>
        </g>
        <svg viewBox="0 0 15 15" width="100%" height="30px" preserveAspectRatio="xMaxYMin meet">
         <g id="arrow_out" transform="scale(0.3 0.3)">
          <a xlink:href="interfacejavolution_1_1util_1_1function_1_1Equality__inherit__graph_org.svg" target="_base">
           <rect id="button" ry="5" rx="5" y="6" x="6" height="38" width="38"
                fill="#f2f5e9" fill-opacity="0.5" stroke="#606060" stroke-width="1.0"/>
           <path id="arrow"
             d="M 11.500037,31.436501 C 11.940474,20.09759 22.043105,11.32322 32.158766,21.979434 L 37.068811,17.246167 C 37.068811,17.246167 37.088388,32 37.088388,32 L 22.160133,31.978069 C 22.160133,31.978069 26.997745,27.140456 26.997745,27.140456 C 18.528582,18.264221 13.291696,25.230495 11.500037,31.436501 z"
             style="fill:#404040;"/>
          </a>
         </g>
        </svg>
</svg>
