<?xml version="1.0" encoding="UTF-8" standalone="no"?>
<!DOCTYPE svg PUBLIC "-//W3C//DTD SVG 1.1//EN"
 "http://www.w3.org/Graphics/SVG/1.1/DTD/svg11.dtd">
<!-- Generated by graphviz version 2.43.0 (0)
 -->
<!-- Title: javolution.util.internal.map.MapView&lt; K, V &gt;.KeySet Pages: 1 -->
<!--zoomable 272 -->
<svg id="main" version="1.1" xmlns="http://www.w3.org/2000/svg" xmlns:xlink="http://www.w3.org/1999/xlink" xml:space="preserve" onload="init(evt)">
<style type="text/css"><![CDATA[
.edge:hover path { stroke: red; }
.edge:hover polygon { stroke: red; fill: red; }
]]></style>
<script type="text/javascript"><![CDATA[
var edges = document.getElementsByTagName('g');
if (edges && edges.length) {
  for (var i=0;i<edges.length;i++) {
    if (edges[i].id.substr(0,4)=='edge') {
      edges[i].setAttribute('class','edge');
    }
  }
}
]]></script>
        <defs>
                <circle id="rim" cx="0" cy="0" r="7"/>
                <circle id="rim2" cx="0" cy="0" r="3.5"/>
                <g id="zoomPlus">
                        <use xlink:href="#rim" fill="#404040">
                                <set attributeName="fill" to="#808080" begin="zoomplus.mouseover" end="zoomplus.mouseout"/>
                        </use>
                        <path d="M-4,0h8M0,-4v8" fill="none" stroke="white" stroke-width="1.5" pointer-events="none"/>
                </g>
                <g id="zoomMin">
                        <use xlink:href="#rim" fill="#404040">
                                <set attributeName="fill" to="#808080" begin="zoomminus.mouseover" end="zoomminus.mouseout"/>
                        </use>
                        <path d="M-4,0h8" fill="none" stroke="white" stroke-width="1.5" pointer-events="none"/>
                </g>
                <g id="dirArrow">
                        <path fill="none" stroke="white" stroke-width="1.5" d="M0,-3.0v7 M-2.5,-0.5L0,-3.0L2.5,-0.5"/>
                </g>
               <g id="resetDef">
                       <use xlink:href="#rim2" fill="#404040">
                               <set attributeName="fill" to="#808080" begin="reset.mouseover" end="reset.mouseout"/>
                       </use>
               </g>
        </defs>

<script type="text/javascript">
var viewWidth = 1208;
var viewHeight = 272;
var sectionId = 'dynsection-1';
</script>
<script xlink:href="../../svgpan.js"/>
<svg id="graph" class="graph">
<g id="viewport">
<title>javolution.util.internal.map.MapView&lt; K, V &gt;.KeySet</title>
<polygon fill="white" stroke="transparent" points="-4,4 -4,-267.5 1204,-267.5 1204,4 -4,4"/>
<!-- Node1 -->
<g id="node1" class="node">
<title>Node1</title>
<g id="a_node1"><a xlink:title=" ">
<polygon fill="#bfbfbf" stroke="black" points="1048,-0.5 1048,-30.5 1200,-30.5 1200,-0.5 1048,-0.5"/>
<text text-anchor="start" x="1056" y="-18.5" font-family="Helvetica,sans-Serif" font-size="10.00">javolution.util.internal.map.</text>
<text text-anchor="middle" x="1124" y="-7.5" font-family="Helvetica,sans-Serif" font-size="10.00">MapView&lt; K, V &gt;.KeySet</text>
</a>
</g>
</g>
<!-- Node2 -->
<g id="node2" class="node">
<title>Node2</title>
<g id="a_node2"><a xlink:href="../../d0/d88/classjavolution_1_1util_1_1internal_1_1set_1_1MappedSetImpl.html" target="_top" xlink:title=" ">
<polygon fill="white" stroke="black" points="854,-40 854,-81 1011,-81 1011,-40 854,-40"/>
<text text-anchor="start" x="862" y="-69" font-family="Helvetica,sans-Serif" font-size="10.00">javolution::util::internal</text>
<text text-anchor="start" x="862" y="-58" font-family="Helvetica,sans-Serif" font-size="10.00">::set::MappedSetImpl&lt; Entry</text>
<text text-anchor="middle" x="932.5" y="-47" font-family="Helvetica,sans-Serif" font-size="10.00">&lt; K, V &gt;, K &gt;</text>
</a>
</g>
</g>
<!-- Node2&#45;&gt;Node1 -->
<g id="edge1" class="edge">
<title>Node2&#45;&gt;Node1</title>
<path fill="none" stroke="midnightblue" d="M1021.03,-39.71C1034.06,-36.62 1047.27,-33.48 1059.67,-30.54"/>
<polygon fill="midnightblue" stroke="midnightblue" points="1020.04,-36.35 1011.12,-42.07 1021.66,-43.16 1020.04,-36.35"/>
</g>
<!-- Node3 -->
<g id="node3" class="node">
<title>Node3</title>
<g id="a_node3"><a xlink:href="../../d0/de8/classjavolution_1_1util_1_1internal_1_1collection_1_1MappedCollectionImpl.html" target="_top" xlink:title=" ">
<polygon fill="white" stroke="black" points="548,-73 548,-114 733,-114 733,-73 548,-73"/>
<text text-anchor="start" x="556" y="-102" font-family="Helvetica,sans-Serif" font-size="10.00">javolution::util::internal</text>
<text text-anchor="start" x="556" y="-91" font-family="Helvetica,sans-Serif" font-size="10.00">::collection::MappedCollectionImpl</text>
<text text-anchor="middle" x="640.5" y="-80" font-family="Helvetica,sans-Serif" font-size="10.00">&lt; E, R &gt;</text>
</a>
</g>
</g>
<!-- Node3&#45;&gt;Node2 -->
<g id="edge2" class="edge">
<title>Node3&#45;&gt;Node2</title>
<path fill="none" stroke="midnightblue" d="M743.39,-81.91C779.72,-77.77 820.02,-73.19 853.98,-69.32"/>
<polygon fill="midnightblue" stroke="midnightblue" points="742.8,-78.45 733.26,-83.06 743.59,-85.41 742.8,-78.45"/>
</g>
<!-- Node4 -->
<g id="node4" class="node">
<title>Node4</title>
<g id="a_node4"><a xlink:href="../../d1/d40/classjavolution_1_1util_1_1internal_1_1collection_1_1CollectionView.html" target="_top" xlink:title=" ">
<polygon fill="white" stroke="black" points="245.5,-74.5 245.5,-104.5 423.5,-104.5 423.5,-74.5 245.5,-74.5"/>
<text text-anchor="start" x="253.5" y="-92.5" font-family="Helvetica,sans-Serif" font-size="10.00">javolution.util.internal.collection.</text>
<text text-anchor="middle" x="334.5" y="-81.5" font-family="Helvetica,sans-Serif" font-size="10.00">CollectionView&lt; R &gt;</text>
</a>
</g>
</g>
<!-- Node4&#45;&gt;Node3 -->
<g id="edge3" class="edge">
<title>Node4&#45;&gt;Node3</title>
<path fill="none" stroke="midnightblue" d="M434.01,-90.8C470.57,-91.28 511.85,-91.82 547.77,-92.29"/>
<polygon fill="midnightblue" stroke="midnightblue" points="433.88,-87.29 423.84,-90.66 433.79,-94.29 433.88,-87.29"/>
</g>
<!-- Node5 -->
<g id="node5" class="node">
<title>Node5</title>
<g id="a_node5"><a xlink:href="../../df/db6/interfacejavolution_1_1util_1_1function_1_1Function.html" target="_top" xlink:title=" ">
<polygon fill="white" stroke="black" points="242,-123.5 242,-153.5 427,-153.5 427,-123.5 242,-123.5"/>
<text text-anchor="start" x="250" y="-141.5" font-family="Helvetica,sans-Serif" font-size="10.00">javolution.util.function.</text>
<text text-anchor="middle" x="334.5" y="-130.5" font-family="Helvetica,sans-Serif" font-size="10.00">Function&lt;? super E, ? extends R &gt;</text>
</a>
</g>
</g>
<!-- Node5&#45;&gt;Node3 -->
<g id="edge4" class="edge">
<title>Node5&#45;&gt;Node3</title>
<path fill="none" stroke="#9a32cd" stroke-dasharray="5,2" d="M437.1,-123.46C472.89,-118.16 512.88,-112.24 547.8,-107.07"/>
<polygon fill="#9a32cd" stroke="#9a32cd" points="436.5,-120.01 427.12,-124.94 437.53,-126.94 436.5,-120.01"/>
<text text-anchor="middle" x="487.5" y="-124.5" font-family="Helvetica,sans-Serif" font-size="10.00"> function</text>
</g>
<!-- Node6 -->
<g id="node6" class="node">
<title>Node6</title>
<g id="a_node6"><a xlink:title=" ">
<polygon fill="white" stroke="#bfbfbf" points="288.5,-29 288.5,-48 380.5,-48 380.5,-29 288.5,-29"/>
<text text-anchor="middle" x="334.5" y="-36" font-family="Helvetica,sans-Serif" font-size="10.00">static final long</text>
</a>
</g>
</g>
<!-- Node6&#45;&gt;Node1 -->
<g id="edge14" class="edge">
<title>Node6&#45;&gt;Node1</title>
<path fill="none" stroke="#9a32cd" stroke-dasharray="5,2" d="M391.03,-36.88C529.52,-32.83 890.31,-22.3 1047.72,-17.7"/>
<polygon fill="#9a32cd" stroke="#9a32cd" points="390.56,-33.39 380.67,-37.18 390.77,-40.39 390.56,-33.39"/>
<text text-anchor="middle" x="793.5" y="-29.5" font-family="Helvetica,sans-Serif" font-size="10.00"> serialVersionUID</text>
</g>
<!-- Node6&#45;&gt;Node2 -->
<g id="edge13" class="edge">
<title>Node6&#45;&gt;Node2</title>
<path fill="none" stroke="#9a32cd" stroke-dasharray="5,2" d="M390.9,-40.36C467.71,-42.96 610.91,-47.89 733,-52.5 772.81,-54 817.1,-55.78 853.73,-57.27"/>
<polygon fill="#9a32cd" stroke="#9a32cd" points="390.62,-36.85 380.51,-40.01 390.39,-43.85 390.62,-36.85"/>
<text text-anchor="middle" x="640.5" y="-55.5" font-family="Helvetica,sans-Serif" font-size="10.00"> serialVersionUID</text>
</g>
<!-- Node6&#45;&gt;Node3 -->
<g id="edge5" class="edge">
<title>Node6&#45;&gt;Node3</title>
<path fill="none" stroke="#9a32cd" stroke-dasharray="5,2" d="M390.57,-48.46C434.35,-56.38 496.56,-67.64 547.83,-76.91"/>
<polygon fill="#9a32cd" stroke="#9a32cd" points="391.15,-45.01 380.68,-46.67 389.9,-51.9 391.15,-45.01"/>
<text text-anchor="middle" x="487.5" y="-76.5" font-family="Helvetica,sans-Serif" font-size="10.00"> serialVersionUID</text>
</g>
<!-- Node7 -->
<g id="node7" class="node">
<title>Node7</title>
<g id="a_node7"><a xlink:href="../../d6/d3e/interfacejavolution_1_1util_1_1service_1_1SetService.html" target="_top" xlink:title=" ">
<polygon fill="white" stroke="black" points="576.5,-172.5 576.5,-202.5 704.5,-202.5 704.5,-172.5 576.5,-172.5"/>
<text text-anchor="start" x="584.5" y="-190.5" font-family="Helvetica,sans-Serif" font-size="10.00">javolution::util::service</text>
<text text-anchor="middle" x="640.5" y="-179.5" font-family="Helvetica,sans-Serif" font-size="10.00">::SetService&lt; R &gt;</text>
</a>
</g>
</g>
<!-- Node7&#45;&gt;Node2 -->
<g id="edge6" class="edge">
<title>Node7&#45;&gt;Node2</title>
<path fill="none" stroke="midnightblue" d="M685.15,-168.39C738.75,-144.91 829.32,-105.25 884.44,-81.11"/>
<polygon fill="midnightblue" stroke="midnightblue" points="683.66,-165.22 675.91,-172.43 686.47,-171.63 683.66,-165.22"/>
</g>
<!-- Node8 -->
<g id="node8" class="node">
<title>Node8</title>
<g id="a_node8"><a xlink:href="../../dd/d6c/interfacejavolution_1_1util_1_1service_1_1CollectionService.html" target="_top" xlink:title=" ">
<polygon fill="white" stroke="black" points="266.5,-172.5 266.5,-202.5 402.5,-202.5 402.5,-172.5 266.5,-172.5"/>
<text text-anchor="start" x="274.5" y="-190.5" font-family="Helvetica,sans-Serif" font-size="10.00">javolution::util::service</text>
<text text-anchor="middle" x="334.5" y="-179.5" font-family="Helvetica,sans-Serif" font-size="10.00">::CollectionService&lt; E &gt;</text>
</a>
</g>
</g>
<!-- Node8&#45;&gt;Node7 -->
<g id="edge7" class="edge">
<title>Node8&#45;&gt;Node7</title>
<path fill="none" stroke="midnightblue" d="M412.85,-187.5C463.53,-187.5 528.96,-187.5 576.47,-187.5"/>
<polygon fill="midnightblue" stroke="midnightblue" points="412.59,-184 402.59,-187.5 412.59,-191 412.59,-184"/>
</g>
<!-- Node9 -->
<g id="node9" class="node">
<title>Node9</title>
<g id="a_node9"><a xlink:title=" ">
<polygon fill="white" stroke="#bfbfbf" points="31,-244 31,-263 174,-263 174,-244 31,-244"/>
<text text-anchor="middle" x="102.5" y="-251" font-family="Helvetica,sans-Serif" font-size="10.00">java::util::Collection&lt; E &gt;</text>
</a>
</g>
</g>
<!-- Node9&#45;&gt;Node8 -->
<g id="edge8" class="edge">
<title>Node9&#45;&gt;Node8</title>
<path fill="none" stroke="midnightblue" d="M182.45,-241.56C190.17,-239.55 197.81,-237.21 205,-234.5 222.9,-227.75 224.39,-219.98 242,-212.5 250.79,-208.77 260.3,-205.44 269.74,-202.53"/>
<polygon fill="midnightblue" stroke="midnightblue" points="181.54,-238.18 172.65,-243.94 183.19,-244.99 181.54,-238.18"/>
</g>
<!-- Node10 -->
<g id="node10" class="node">
<title>Node10</title>
<g id="a_node10"><a xlink:href="../../dd/ded/interfacejavolution_1_1util_1_1function_1_1Splittable.html" target="_top" xlink:title=" ">
<polygon fill="white" stroke="black" points="0,-194.5 0,-224.5 205,-224.5 205,-194.5 0,-194.5"/>
<text text-anchor="start" x="8" y="-212.5" font-family="Helvetica,sans-Serif" font-size="10.00">javolution::util::function</text>
<text text-anchor="middle" x="102.5" y="-201.5" font-family="Helvetica,sans-Serif" font-size="10.00">::Splittable&lt; CollectionService&lt; E &gt; &gt;</text>
</a>
</g>
</g>
<!-- Node10&#45;&gt;Node8 -->
<g id="edge9" class="edge">
<title>Node10&#45;&gt;Node8</title>
<path fill="none" stroke="midnightblue" d="M215.27,-198.81C232.68,-197.14 250.18,-195.47 266.18,-193.94"/>
<polygon fill="midnightblue" stroke="midnightblue" points="214.67,-195.35 205.05,-199.79 215.34,-202.32 214.67,-195.35"/>
</g>
<!-- Node11 -->
<g id="node11" class="node">
<title>Node11</title>
<g id="a_node11"><a xlink:title=" ">
<polygon fill="white" stroke="#bfbfbf" points="65.5,-156 65.5,-175 139.5,-175 139.5,-156 65.5,-156"/>
<text text-anchor="middle" x="102.5" y="-163" font-family="Helvetica,sans-Serif" font-size="10.00">Serializable</text>
</a>
</g>
</g>
<!-- Node11&#45;&gt;Node8 -->
<g id="edge10" class="edge">
<title>Node11&#45;&gt;Node8</title>
<path fill="none" stroke="midnightblue" d="M150.06,-169.95C183.38,-173.14 228.76,-177.48 266.04,-181.05"/>
<polygon fill="midnightblue" stroke="midnightblue" points="149.98,-166.43 139.69,-168.96 149.31,-173.4 149.98,-166.43"/>
</g>
<!-- Node12 -->
<g id="node12" class="node">
<title>Node12</title>
<g id="a_node12"><a xlink:href="../../d5/d48/classCloneable.html" target="_top" xlink:title=" ">
<polygon fill="white" stroke="black" points="70,-118 70,-137 135,-137 135,-118 70,-118"/>
<text text-anchor="middle" x="102.5" y="-125" font-family="Helvetica,sans-Serif" font-size="10.00">Cloneable</text>
</a>
</g>
</g>
<!-- Node12&#45;&gt;Node8 -->
<g id="edge11" class="edge">
<title>Node12&#45;&gt;Node8</title>
<path fill="none" stroke="midnightblue" d="M144.96,-133.11C163.56,-136.18 185.62,-140.58 205,-146.5 222.13,-151.74 225.09,-156.57 242,-162.5 252.1,-166.04 262.97,-169.4 273.57,-172.43"/>
<polygon fill="midnightblue" stroke="midnightblue" points="145.45,-129.65 135.03,-131.55 144.36,-136.56 145.45,-129.65"/>
</g>
<!-- Node13 -->
<g id="node13" class="node">
<title>Node13</title>
<g id="a_node13"><a xlink:title=" ">
<polygon fill="white" stroke="#bfbfbf" points="279.5,-222 279.5,-241 389.5,-241 389.5,-222 279.5,-222"/>
<text text-anchor="middle" x="334.5" y="-229" font-family="Helvetica,sans-Serif" font-size="10.00">java::util::Set&lt; E &gt;</text>
</a>
</g>
</g>
<!-- Node13&#45;&gt;Node7 -->
<g id="edge12" class="edge">
<title>Node13&#45;&gt;Node7</title>
<path fill="none" stroke="midnightblue" d="M399.97,-222.17C451.99,-214.64 524.78,-204.1 576.43,-196.63"/>
<polygon fill="midnightblue" stroke="midnightblue" points="399.24,-218.74 389.85,-223.63 400.25,-225.67 399.24,-218.74"/>
</g>
</g>
</svg>
        <g id="navigator" transform="translate(0 0)" fill="#404254">
                <rect fill="#f2f5e9" fill-opacity="0.5" stroke="#606060" stroke-width=".5" x="0" y="0" width="60" height="60"/>
                <use id="zoomplus" xlink:href="#zoomPlus" x="17" y="9" onmousedown="handleZoom(evt,'in')"/>
                <use id="zoomminus" xlink:href="#zoomMin" x="42" y="9" onmousedown="handleZoom(evt,'out')"/>
                <use id="reset" xlink:href="#resetDef" x="30" y="36" onmousedown="handleReset()"/>
                <g id="arrowUp" xlink:href="#dirArrow" transform="translate(30 24)" onmousedown="handlePan(0,-1)">
                  <use xlink:href="#rim" fill="#404040">
                        <set attributeName="fill" to="#808080" begin="arrowUp.mouseover" end="arrowUp.mouseout"/>
                  </use>
                  <path fill="none" stroke="white" stroke-width="1.5" d="M0,-3.0v7 M-2.5,-0.5L0,-3.0L2.5,-0.5"/>
                </g>
                <g id="arrowRight" xlink:href="#dirArrow" transform="rotate(90) translate(36 -43)" onmousedown="handlePan(1,0)">
                  <use xlink:href="#rim" fill="#404040">
                        <set attributeName="fill" to="#808080" begin="arrowRight.mouseover" end="arrowRight.mouseout"/>
                  </use>
                  <path fill="none" stroke="white" stroke-width="1.5" d="M0,-3.0v7 M-2.5,-0.5L0,-3.0L2.5,-0.5"/>
                </g>
                <g id="arrowDown" xlink:href="#dirArrow" transform="rotate(180) translate(-30 -48)" onmousedown="handlePan(0,1)">
                  <use xlink:href="#rim" fill="#404040">
                        <set attributeName="fill" to="#808080" begin="arrowDown.mouseover" end="arrowDown.mouseout"/>
                  </use>
                  <path fill="none" stroke="white" stroke-width="1.5" d="M0,-3.0v7 M-2.5,-0.5L0,-3.0L2.5,-0.5"/>
                </g>
                <g id="arrowLeft" xlink:href="#dirArrow" transform="rotate(270) translate(-36 17)" onmousedown="handlePan(-1,0)">
                  <use xlink:href="#rim" fill="#404040">
                        <set attributeName="fill" to="#808080" begin="arrowLeft.mouseover" end="arrowLeft.mouseout"/>
                  </use>
                  <path fill="none" stroke="white" stroke-width="1.5" d="M0,-3.0v7 M-2.5,-0.5L0,-3.0L2.5,-0.5"/>
                </g>
        </g>
        <svg viewBox="0 0 15 15" width="100%" height="30px" preserveAspectRatio="xMaxYMin meet">
         <g id="arrow_out" transform="scale(0.3 0.3)">
          <a xlink:href="classjavolution_1_1util_1_1internal_1_1map_1_1MapView_1_1KeySet__coll__graph_org.svg" target="_base">
           <rect id="button" ry="5" rx="5" y="6" x="6" height="38" width="38"
                fill="#f2f5e9" fill-opacity="0.5" stroke="#606060" stroke-width="1.0"/>
           <path id="arrow"
             d="M 11.500037,31.436501 C 11.940474,20.09759 22.043105,11.32322 32.158766,21.979434 L 37.068811,17.246167 C 37.068811,17.246167 37.088388,32 37.088388,32 L 22.160133,31.978069 C 22.160133,31.978069 26.997745,27.140456 26.997745,27.140456 C 18.528582,18.264221 13.291696,25.230495 11.500037,31.436501 z"
             style="fill:#404040;"/>
          </a>
         </g>
        </svg>
</svg>
