<?xml version="1.0" encoding="UTF-8" standalone="no"?>
<!DOCTYPE svg PUBLIC "-//W3C//DTD SVG 1.1//EN"
 "http://www.w3.org/Graphics/SVG/1.1/DTD/svg11.dtd">
<!-- Generated by graphviz version 2.43.0 (0)
 -->
<!-- Title: javolution.util.internal.table.QuickSort.sort Pages: 1 -->
<svg width="736pt" height="61pt"
 viewBox="0.00 0.00 736.00 61.00" xmlns="http://www.w3.org/2000/svg" xmlns:xlink="http://www.w3.org/1999/xlink">
<g id="graph0" class="graph" transform="scale(1 1) rotate(0) translate(4 57)">
<title>javolution.util.internal.table.QuickSort.sort</title>
<polygon fill="white" stroke="transparent" points="-4,4 -4,-57 732,-57 732,4 -4,4"/>
<!-- Node1 -->
<g id="node1" class="node">
<title>Node1</title>
<g id="a_node1"><a xlink:title=" ">
<polygon fill="#bfbfbf" stroke="black" points="0,-22.5 0,-52.5 155,-52.5 155,-22.5 0,-22.5"/>
<text text-anchor="start" x="8" y="-40.5" font-family="Helvetica,sans-Serif" font-size="10.00">javolution.util.internal.table.</text>
<text text-anchor="middle" x="77.5" y="-29.5" font-family="Helvetica,sans-Serif" font-size="10.00">QuickSort.sort</text>
</a>
</g>
</g>
<!-- Node2 -->
<g id="node2" class="node">
<title>Node2</title>
<g id="a_node2"><a xlink:href="../../d3/dc2/classjavolution_1_1util_1_1internal_1_1table_1_1QuickSort.html#a479ebd7030dcc2d10d981f1debad86c9" target="_top" xlink:title=" ">
<polygon fill="white" stroke="black" points="573,-22.5 573,-52.5 728,-52.5 728,-22.5 573,-22.5"/>
<text text-anchor="start" x="581" y="-40.5" font-family="Helvetica,sans-Serif" font-size="10.00">javolution.util.internal.table.</text>
<text text-anchor="middle" x="650.5" y="-29.5" font-family="Helvetica,sans-Serif" font-size="10.00">QuickSort.partition</text>
</a>
</g>
</g>
<!-- Node1&#45;&gt;Node2 -->
<g id="edge1" class="edge">
<title>Node1&#45;&gt;Node2</title>
<path fill="none" stroke="midnightblue" d="M155.05,-39.04C167.08,-39.23 179.38,-39.4 191,-39.5 344.77,-40.87 383.23,-40.87 537,-39.5 545.35,-39.43 554.06,-39.32 562.76,-39.2"/>
<polygon fill="midnightblue" stroke="midnightblue" points="563,-42.69 572.95,-39.04 562.9,-35.69 563,-42.69"/>
</g>
<!-- Node3 -->
<g id="node3" class="node">
<title>Node3</title>
<g id="a_node3"><a xlink:href="../../d3/dc2/classjavolution_1_1util_1_1internal_1_1table_1_1QuickSort.html#ab637f7b7342bbf75d4c881fd687304ce" target="_top" xlink:title=" ">
<polygon fill="white" stroke="black" points="191,-0.5 191,-30.5 346,-30.5 346,-0.5 191,-0.5"/>
<text text-anchor="start" x="199" y="-18.5" font-family="Helvetica,sans-Serif" font-size="10.00">javolution.util.internal.table.</text>
<text text-anchor="middle" x="268.5" y="-7.5" font-family="Helvetica,sans-Serif" font-size="10.00">QuickSort.sort</text>
</a>
</g>
</g>
<!-- Node1&#45;&gt;Node3 -->
<g id="edge2" class="edge">
<title>Node1&#45;&gt;Node3</title>
<path fill="none" stroke="midnightblue" d="M155.1,-28.58C163.56,-27.6 172.22,-26.59 180.79,-25.59"/>
<polygon fill="midnightblue" stroke="midnightblue" points="181.26,-29.06 190.79,-24.43 180.45,-22.11 181.26,-29.06"/>
</g>
<!-- Node4 -->
<g id="node4" class="node">
<title>Node4</title>
<g id="a_node4"><a xlink:href="../../d3/dc2/classjavolution_1_1util_1_1internal_1_1table_1_1QuickSort.html#ad21b226dc01f6113b96a5cd81176b2be" target="_top" xlink:title=" ">
<polygon fill="white" stroke="black" points="382,-0.5 382,-30.5 537,-30.5 537,-0.5 382,-0.5"/>
<text text-anchor="start" x="390" y="-18.5" font-family="Helvetica,sans-Serif" font-size="10.00">javolution.util.internal.table.</text>
<text text-anchor="middle" x="459.5" y="-7.5" font-family="Helvetica,sans-Serif" font-size="10.00">QuickSort.quicksort</text>
</a>
</g>
</g>
<!-- Node3&#45;&gt;Node4 -->
<g id="edge3" class="edge">
<title>Node3&#45;&gt;Node4</title>
<path fill="none" stroke="midnightblue" d="M346.1,-15.5C354.56,-15.5 363.22,-15.5 371.79,-15.5"/>
<polygon fill="midnightblue" stroke="midnightblue" points="371.79,-19 381.79,-15.5 371.79,-12 371.79,-19"/>
</g>
<!-- Node4&#45;&gt;Node2 -->
<g id="edge4" class="edge">
<title>Node4&#45;&gt;Node2</title>
<path fill="none" stroke="midnightblue" d="M537.1,-24.42C545.56,-25.4 554.22,-26.41 562.79,-27.41"/>
<polygon fill="midnightblue" stroke="midnightblue" points="562.45,-30.89 572.79,-28.57 563.26,-23.94 562.45,-30.89"/>
</g>
</g>
</svg>
