<?xml version="1.0" encoding="UTF-8" standalone="no"?>
<!DOCTYPE svg PUBLIC "-//W3C//DTD SVG 1.1//EN"
 "http://www.w3.org/Graphics/SVG/1.1/DTD/svg11.dtd">
<!-- Generated by graphviz version 2.43.0 (0)
 -->
<!-- Title: javolution.util.function.Reducer&lt; E &gt; Pages: 1 -->
<svg width="340pt" height="88pt"
 viewBox="0.00 0.00 340.00 88.00" xmlns="http://www.w3.org/2000/svg" xmlns:xlink="http://www.w3.org/1999/xlink">
<g id="graph0" class="graph" transform="scale(1 1) rotate(0) translate(4 84)">
<title>javolution.util.function.Reducer&lt; E &gt;</title>
<polygon fill="white" stroke="transparent" points="-4,4 -4,-84 336,-84 336,4 -4,4"/>
<!-- Node1 -->
<g id="node1" class="node">
<title>Node1</title>
<g id="a_node1"><a xlink:title=" ">
<polygon fill="#bfbfbf" stroke="black" points="202,-24.5 202,-54.5 332,-54.5 332,-24.5 202,-24.5"/>
<text text-anchor="start" x="210" y="-42.5" font-family="Helvetica,sans-Serif" font-size="10.00">javolution.util.function.</text>
<text text-anchor="middle" x="267" y="-31.5" font-family="Helvetica,sans-Serif" font-size="10.00">Reducer&lt; E &gt;</text>
</a>
</g>
</g>
<!-- Node2 -->
<g id="node2" class="node">
<title>Node2</title>
<g id="a_node2"><a xlink:href="../../d4/d5a/interfacejavolution_1_1util_1_1function_1_1Consumer.html" target="_top" xlink:title=" ">
<polygon fill="white" stroke="black" points="0,-49.5 0,-79.5 166,-79.5 166,-49.5 0,-49.5"/>
<text text-anchor="start" x="8" y="-67.5" font-family="Helvetica,sans-Serif" font-size="10.00">javolution.util.function.</text>
<text text-anchor="middle" x="83" y="-56.5" font-family="Helvetica,sans-Serif" font-size="10.00">Consumer&lt; Collection&lt; E &gt; &gt;</text>
</a>
</g>
</g>
<!-- Node2&#45;&gt;Node1 -->
<g id="edge1" class="edge">
<title>Node2&#45;&gt;Node1</title>
<path fill="none" stroke="midnightblue" d="M176.34,-51.82C184.97,-50.63 193.59,-49.45 201.88,-48.31"/>
<polygon fill="midnightblue" stroke="midnightblue" points="175.64,-48.38 166.21,-53.21 176.6,-55.31 175.64,-48.38"/>
</g>
<!-- Node3 -->
<g id="node3" class="node">
<title>Node3</title>
<g id="a_node3"><a xlink:href="../../d6/dd3/interfacejavolution_1_1util_1_1function_1_1Supplier.html" target="_top" xlink:title=" ">
<polygon fill="white" stroke="black" points="18,-0.5 18,-30.5 148,-30.5 148,-0.5 18,-0.5"/>
<text text-anchor="start" x="26" y="-18.5" font-family="Helvetica,sans-Serif" font-size="10.00">javolution.util.function.</text>
<text text-anchor="middle" x="83" y="-7.5" font-family="Helvetica,sans-Serif" font-size="10.00">Supplier&lt; E &gt;</text>
</a>
</g>
</g>
<!-- Node3&#45;&gt;Node1 -->
<g id="edge2" class="edge">
<title>Node3&#45;&gt;Node1</title>
<path fill="none" stroke="midnightblue" d="M158.09,-25.27C172.58,-27.18 187.66,-29.17 201.8,-31.03"/>
<polygon fill="midnightblue" stroke="midnightblue" points="158.54,-21.8 148.17,-23.96 157.62,-28.74 158.54,-21.8"/>
</g>
</g>
</svg>
