<?xml version="1.0" encoding="UTF-8" standalone="no"?>
<!DOCTYPE svg PUBLIC "-//W3C//DTD SVG 1.1//EN"
 "http://www.w3.org/Graphics/SVG/1.1/DTD/svg11.dtd">
<!-- Generated by graphviz version 2.43.0 (0)
 -->
<!-- Title: javolution.util.internal.comparator.LexicalCaseInsensitiveComparatorImpl Pages: 1 -->
<svg width="256pt" height="162pt"
 viewBox="0.00 0.00 255.50 162.00" xmlns="http://www.w3.org/2000/svg" xmlns:xlink="http://www.w3.org/1999/xlink">
<g id="graph0" class="graph" transform="scale(1 1) rotate(0) translate(4 158)">
<title>javolution.util.internal.comparator.LexicalCaseInsensitiveComparatorImpl</title>
<polygon fill="white" stroke="transparent" points="-4,4 -4,-158 251.5,-158 251.5,4 -4,4"/>
<!-- Node1 -->
<g id="node1" class="node">
<title>Node1</title>
<g id="a_node1"><a xlink:title=" ">
<polygon fill="#bfbfbf" stroke="black" points="39.5,-0.5 39.5,-30.5 247.5,-30.5 247.5,-0.5 39.5,-0.5"/>
<text text-anchor="start" x="47.5" y="-18.5" font-family="Helvetica,sans-Serif" font-size="10.00">javolution.util.internal.comparator.</text>
<text text-anchor="middle" x="143.5" y="-7.5" font-family="Helvetica,sans-Serif" font-size="10.00">LexicalCaseInsensitiveComparatorImpl</text>
</a>
</g>
</g>
<!-- Node2 -->
<g id="node2" class="node">
<title>Node2</title>
<g id="a_node2"><a xlink:href="../../de/d72/interfacejavolution_1_1util_1_1function_1_1Equality.html" target="_top" xlink:title=" ">
<polygon fill="white" stroke="black" points="0,-67.5 0,-97.5 155,-97.5 155,-67.5 0,-67.5"/>
<text text-anchor="start" x="8" y="-85.5" font-family="Helvetica,sans-Serif" font-size="10.00">javolution::util::function</text>
<text text-anchor="middle" x="77.5" y="-74.5" font-family="Helvetica,sans-Serif" font-size="10.00">::Equality&lt; CharSequence &gt;</text>
</a>
</g>
</g>
<!-- Node2&#45;&gt;Node1 -->
<g id="edge1" class="edge">
<title>Node2&#45;&gt;Node1</title>
<path fill="none" stroke="midnightblue" d="M99.01,-60.31C108.91,-50.56 120.39,-39.26 129.21,-30.58"/>
<polygon fill="midnightblue" stroke="midnightblue" points="96.49,-57.89 91.82,-67.4 101.4,-62.87 96.49,-57.89"/>
</g>
<!-- Node3 -->
<g id="node3" class="node">
<title>Node3</title>
<g id="a_node3"><a xlink:title=" ">
<polygon fill="white" stroke="#bfbfbf" points="1.5,-134.5 1.5,-153.5 153.5,-153.5 153.5,-134.5 1.5,-134.5"/>
<text text-anchor="middle" x="77.5" y="-141.5" font-family="Helvetica,sans-Serif" font-size="10.00">java::util::Comparator&lt; T &gt;</text>
</a>
</g>
</g>
<!-- Node3&#45;&gt;Node2 -->
<g id="edge2" class="edge">
<title>Node3&#45;&gt;Node2</title>
<path fill="none" stroke="midnightblue" d="M77.5,-124.23C77.5,-115.59 77.5,-105.5 77.5,-97.52"/>
<polygon fill="midnightblue" stroke="midnightblue" points="74,-124.48 77.5,-134.48 81,-124.48 74,-124.48"/>
</g>
<!-- Node4 -->
<g id="node4" class="node">
<title>Node4</title>
<g id="a_node4"><a xlink:title=" ">
<polygon fill="white" stroke="#bfbfbf" points="173.5,-73 173.5,-92 247.5,-92 247.5,-73 173.5,-73"/>
<text text-anchor="middle" x="210.5" y="-80" font-family="Helvetica,sans-Serif" font-size="10.00">Serializable</text>
</a>
</g>
</g>
<!-- Node4&#45;&gt;Node1 -->
<g id="edge3" class="edge">
<title>Node4&#45;&gt;Node1</title>
<path fill="none" stroke="midnightblue" d="M194.13,-65.62C183.09,-54.91 168.65,-40.9 158.02,-30.59"/>
<polygon fill="midnightblue" stroke="midnightblue" points="191.85,-68.28 201.46,-72.73 196.72,-63.26 191.85,-68.28"/>
</g>
</g>
</svg>
