<?xml version="1.0" encoding="UTF-8" standalone="no"?>
<!DOCTYPE svg PUBLIC "-//W3C//DTD SVG 1.1//EN"
 "http://www.w3.org/Graphics/SVG/1.1/DTD/svg11.dtd">
<!-- Generated by graphviz version 2.43.0 (0)
 -->
<!-- Title: javolution.util.internal.map.UnmodifiableMapImpl&lt; K, V &gt;.IteratorImpl Pages: 1 -->
<svg width="244pt" height="128pt"
 viewBox="0.00 0.00 243.50 128.00" xmlns="http://www.w3.org/2000/svg" xmlns:xlink="http://www.w3.org/1999/xlink">
<g id="graph0" class="graph" transform="scale(1 1) rotate(0) translate(4 124)">
<title>javolution.util.internal.map.UnmodifiableMapImpl&lt; K, V &gt;.IteratorImpl</title>
<polygon fill="white" stroke="transparent" points="-4,4 -4,-124 239.5,-124 239.5,4 -4,4"/>
<!-- Node1 -->
<g id="node1" class="node">
<title>Node1</title>
<g id="a_node1"><a xlink:title=" ">
<polygon fill="#bfbfbf" stroke="black" points="39,-0.5 39,-41.5 194,-41.5 194,-0.5 39,-0.5"/>
<text text-anchor="start" x="47" y="-29.5" font-family="Helvetica,sans-Serif" font-size="10.00">javolution.util.internal.map.</text>
<text text-anchor="start" x="47" y="-18.5" font-family="Helvetica,sans-Serif" font-size="10.00">UnmodifiableMapImpl&lt; K, V</text>
<text text-anchor="middle" x="116.5" y="-7.5" font-family="Helvetica,sans-Serif" font-size="10.00"> &gt;.IteratorImpl</text>
</a>
</g>
</g>
<!-- Node2 -->
<g id="node2" class="node">
<title>Node2</title>
<g id="a_node2"><a xlink:title=" ">
<polygon fill="white" stroke="#bfbfbf" points="0,-89.5 0,-119.5 107,-119.5 107,-89.5 0,-89.5"/>
<text text-anchor="start" x="8" y="-107.5" font-family="Helvetica,sans-Serif" font-size="10.00">java::util::Iterator</text>
<text text-anchor="middle" x="53.5" y="-96.5" font-family="Helvetica,sans-Serif" font-size="10.00">&lt; Entry&lt; K, V &gt; &gt;</text>
</a>
</g>
</g>
<!-- Node2&#45;&gt;Node1 -->
<g id="edge1" class="edge">
<title>Node2&#45;&gt;Node1</title>
<path fill="none" stroke="midnightblue" d="M70.7,-81.24C80.31,-68.82 92.16,-53.48 101.4,-41.53"/>
<polygon fill="midnightblue" stroke="midnightblue" points="67.82,-79.25 64.47,-89.3 73.36,-83.53 67.82,-79.25"/>
</g>
<!-- Node3 -->
<g id="node3" class="node">
<title>Node3</title>
<g id="a_node3"><a xlink:title=" ">
<polygon fill="white" stroke="#bfbfbf" points="125.5,-89.5 125.5,-119.5 235.5,-119.5 235.5,-89.5 125.5,-89.5"/>
<text text-anchor="start" x="133.5" y="-107.5" font-family="Helvetica,sans-Serif" font-size="10.00">Iterator&lt; Entry&lt; K,</text>
<text text-anchor="middle" x="180.5" y="-96.5" font-family="Helvetica,sans-Serif" font-size="10.00"> V &gt; &gt;</text>
</a>
</g>
</g>
<!-- Node3&#45;&gt;Node1 -->
<g id="edge2" class="edge">
<title>Node3&#45;&gt;Node1</title>
<path fill="none" stroke="#9a32cd" stroke-dasharray="5,2" d="M163.02,-81.24C153.27,-68.82 141.22,-53.48 131.83,-41.53"/>
<polygon fill="#9a32cd" stroke="#9a32cd" points="160.42,-83.6 169.35,-89.3 165.93,-79.28 160.42,-83.6"/>
<text text-anchor="middle" x="188" y="-63" font-family="Helvetica,sans-Serif" font-size="10.00"> targetIterator</text>
</g>
</g>
</svg>
