<?xml version="1.0" encoding="UTF-8" standalone="no"?>
<!DOCTYPE svg PUBLIC "-//W3C//DTD SVG 1.1//EN"
 "http://www.w3.org/Graphics/SVG/1.1/DTD/svg11.dtd">
<!-- Generated by graphviz version 2.43.0 (0)
 -->
<!-- Title: javolution.util.internal.set.sorted.SharedSortedSetImpl.SharedSortedSetImpl Pages: 1 -->
<svg width="448pt" height="39pt"
 viewBox="0.00 0.00 448.00 39.00" xmlns="http://www.w3.org/2000/svg" xmlns:xlink="http://www.w3.org/1999/xlink">
<g id="graph0" class="graph" transform="scale(1 1) rotate(0) translate(4 35)">
<title>javolution.util.internal.set.sorted.SharedSortedSetImpl.SharedSortedSetImpl</title>
<polygon fill="white" stroke="transparent" points="-4,4 -4,-35 444,-35 444,4 -4,4"/>
<!-- Node1 -->
<g id="node1" class="node">
<title>Node1</title>
<g id="a_node1"><a xlink:title=" ">
<polygon fill="#bfbfbf" stroke="black" points="0,-0.5 0,-30.5 225,-30.5 225,-0.5 0,-0.5"/>
<text text-anchor="start" x="8" y="-18.5" font-family="Helvetica,sans-Serif" font-size="10.00">javolution.util.internal.set.sorted.</text>
<text text-anchor="middle" x="112.5" y="-7.5" font-family="Helvetica,sans-Serif" font-size="10.00">SharedSortedSetImpl.SharedSortedSetImpl</text>
</a>
</g>
</g>
<!-- Node2 -->
<g id="node2" class="node">
<title>Node2</title>
<g id="a_node2"><a xlink:href="../../df/d5f/classjavolution_1_1util_1_1internal_1_1set_1_1sorted_1_1SharedSortedSetImpl.html#a66acec298619223f8eb3d60ed594a094" target="_top" xlink:title=" ">
<polygon fill="white" stroke="black" points="261,-0.5 261,-30.5 440,-30.5 440,-0.5 261,-0.5"/>
<text text-anchor="start" x="269" y="-18.5" font-family="Helvetica,sans-Serif" font-size="10.00">javolution.util.internal.set.sorted.</text>
<text text-anchor="middle" x="350.5" y="-7.5" font-family="Helvetica,sans-Serif" font-size="10.00">SharedSortedSetImpl.target</text>
</a>
</g>
</g>
<!-- Node1&#45;&gt;Node2 -->
<g id="edge1" class="edge">
<title>Node1&#45;&gt;Node2</title>
<path fill="none" stroke="midnightblue" d="M225.28,-15.5C233.75,-15.5 242.26,-15.5 250.64,-15.5"/>
<polygon fill="midnightblue" stroke="midnightblue" points="250.79,-19 260.79,-15.5 250.79,-12 250.79,-19"/>
</g>
</g>
</svg>
