<?xml version="1.0" encoding="UTF-8" standalone="no"?>
<!DOCTYPE svg PUBLIC "-//W3C//DTD SVG 1.1//EN"
 "http://www.w3.org/Graphics/SVG/1.1/DTD/svg11.dtd">
<!-- Generated by graphviz version 2.43.0 (0)
 -->
<!-- Title: javolution.xml.XMLFormat.InputElement.getAttribute Pages: 1 -->
<svg width="1314pt" height="100pt"
 viewBox="0.00 0.00 1314.00 99.50" xmlns="http://www.w3.org/2000/svg" xmlns:xlink="http://www.w3.org/1999/xlink">
<g id="graph0" class="graph" transform="scale(1 1) rotate(0) translate(4 95.5)">
<title>javolution.xml.XMLFormat.InputElement.getAttribute</title>
<polygon fill="white" stroke="transparent" points="-4,4 -4,-95.5 1310,-95.5 1310,4 -4,4"/>
<!-- Node1 -->
<g id="node1" class="node">
<title>Node1</title>
<g id="a_node1"><a xlink:title=" ">
<polygon fill="#bfbfbf" stroke="black" points="0,-44.5 0,-74.5 149,-74.5 149,-44.5 0,-44.5"/>
<text text-anchor="start" x="8" y="-62.5" font-family="Helvetica,sans-Serif" font-size="10.00">javolution.xml.XMLFormat.</text>
<text text-anchor="middle" x="74.5" y="-51.5" font-family="Helvetica,sans-Serif" font-size="10.00">InputElement.getAttribute</text>
</a>
</g>
</g>
<!-- Node2 -->
<g id="node2" class="node">
<title>Node2</title>
<g id="a_node2"><a xlink:href="../../d0/d36/classjavolution_1_1text_1_1CharArray.html#ad06c5b9db5efd84e5b6bd83c56a7a7b4" target="_top" xlink:title=" ">
<polygon fill="white" stroke="black" points="185,-44.5 185,-74.5 336,-74.5 336,-44.5 185,-44.5"/>
<text text-anchor="start" x="193" y="-62.5" font-family="Helvetica,sans-Serif" font-size="10.00">javolution.text.CharArray.to</text>
<text text-anchor="middle" x="260.5" y="-51.5" font-family="Helvetica,sans-Serif" font-size="10.00">Double</text>
</a>
</g>
</g>
<!-- Node1&#45;&gt;Node2 -->
<g id="edge1" class="edge">
<title>Node1&#45;&gt;Node2</title>
<path fill="none" stroke="midnightblue" d="M149.01,-59.5C157.5,-59.5 166.21,-59.5 174.84,-59.5"/>
<polygon fill="midnightblue" stroke="midnightblue" points="174.9,-63 184.9,-59.5 174.9,-56 174.9,-63"/>
</g>
<!-- Node3 -->
<g id="node3" class="node">
<title>Node3</title>
<g id="a_node3"><a xlink:href="../../d2/d86/classjavolution_1_1text_1_1TypeFormat.html#ab24656881d415e357f45b6900f43fff2" target="_top" xlink:title=" ">
<polygon fill="white" stroke="black" points="372,-44.5 372,-74.5 550,-74.5 550,-44.5 372,-44.5"/>
<text text-anchor="start" x="380" y="-62.5" font-family="Helvetica,sans-Serif" font-size="10.00">javolution.text.TypeFormat.parse</text>
<text text-anchor="middle" x="461" y="-51.5" font-family="Helvetica,sans-Serif" font-size="10.00">Double</text>
</a>
</g>
</g>
<!-- Node2&#45;&gt;Node3 -->
<g id="edge2" class="edge">
<title>Node2&#45;&gt;Node3</title>
<path fill="none" stroke="midnightblue" d="M336.26,-59.5C344.63,-59.5 353.26,-59.5 361.87,-59.5"/>
<polygon fill="midnightblue" stroke="midnightblue" points="361.95,-63 371.95,-59.5 361.95,-56 361.95,-63"/>
</g>
<!-- Node4 -->
<g id="node4" class="node">
<title>Node4</title>
<g id="a_node4"><a xlink:href="../../d2/d86/classjavolution_1_1text_1_1TypeFormat.html#a4b7437436351f42d7bc6af036ea21f2f" target="_top" xlink:title=" ">
<polygon fill="white" stroke="black" points="586,-72 586,-91 768,-91 768,-72 586,-72"/>
<text text-anchor="middle" x="677" y="-79" font-family="Helvetica,sans-Serif" font-size="10.00">javolution.text.TypeFormat.match</text>
</a>
</g>
</g>
<!-- Node3&#45;&gt;Node4 -->
<g id="edge3" class="edge">
<title>Node3&#45;&gt;Node4</title>
<path fill="none" stroke="midnightblue" d="M550.28,-68.58C558.72,-69.44 567.32,-70.33 575.86,-71.21"/>
<polygon fill="midnightblue" stroke="midnightblue" points="575.54,-74.69 585.85,-72.23 576.26,-67.73 575.54,-74.69"/>
</g>
<!-- Node5 -->
<g id="node5" class="node">
<title>Node5</title>
<g id="a_node5"><a xlink:href="../../d4/d14/classjavolution_1_1lang_1_1MathLib.html#a5f4e3f66673eead84cc1e6d0b17354b4" target="_top" xlink:title=" ">
<polygon fill="white" stroke="black" points="605,-22.5 605,-52.5 749,-52.5 749,-22.5 605,-22.5"/>
<text text-anchor="start" x="613" y="-40.5" font-family="Helvetica,sans-Serif" font-size="10.00">javolution.lang.MathLib.to</text>
<text text-anchor="middle" x="677" y="-29.5" font-family="Helvetica,sans-Serif" font-size="10.00">DoublePow10</text>
</a>
</g>
</g>
<!-- Node3&#45;&gt;Node5 -->
<g id="edge4" class="edge">
<title>Node3&#45;&gt;Node5</title>
<path fill="none" stroke="midnightblue" d="M550.28,-50.42C565.06,-48.91 580.33,-47.34 594.92,-45.84"/>
<polygon fill="midnightblue" stroke="midnightblue" points="595.3,-49.31 604.89,-44.81 594.59,-42.35 595.3,-49.31"/>
</g>
<!-- Node6 -->
<g id="node6" class="node">
<title>Node6</title>
<g id="a_node6"><a xlink:href="../../d4/d14/classjavolution_1_1lang_1_1MathLib.html#a0ec25ae04f72c11735c2ba9384e87274" target="_top" xlink:title=" ">
<polygon fill="white" stroke="black" points="986.5,-44.5 986.5,-74.5 1133.5,-74.5 1133.5,-44.5 986.5,-44.5"/>
<text text-anchor="start" x="994.5" y="-62.5" font-family="Helvetica,sans-Serif" font-size="10.00">javolution.lang.MathLib.bit</text>
<text text-anchor="middle" x="1060" y="-51.5" font-family="Helvetica,sans-Serif" font-size="10.00">Length</text>
</a>
</g>
</g>
<!-- Node5&#45;&gt;Node6 -->
<g id="edge5" class="edge">
<title>Node5&#45;&gt;Node6</title>
<path fill="none" stroke="midnightblue" d="M749.22,-41.61C813.54,-45.33 908.24,-50.79 975.98,-54.71"/>
<polygon fill="midnightblue" stroke="midnightblue" points="976,-58.21 986.19,-55.3 976.41,-51.22 976,-58.21"/>
</g>
<!-- Node7 -->
<g id="node7" class="node">
<title>Node7</title>
<g id="a_node7"><a xlink:href="../../d4/d14/classjavolution_1_1lang_1_1MathLib.html#a0c8756381acc8208279b93aae059d01f" target="_top" xlink:title=" ">
<polygon fill="white" stroke="black" points="804,-0.5 804,-30.5 948,-30.5 948,-0.5 804,-0.5"/>
<text text-anchor="start" x="812" y="-18.5" font-family="Helvetica,sans-Serif" font-size="10.00">javolution.lang.MathLib.to</text>
<text text-anchor="middle" x="876" y="-7.5" font-family="Helvetica,sans-Serif" font-size="10.00">DoublePow2</text>
</a>
</g>
</g>
<!-- Node5&#45;&gt;Node7 -->
<g id="edge6" class="edge">
<title>Node5&#45;&gt;Node7</title>
<path fill="none" stroke="midnightblue" d="M749.12,-29.56C763.63,-27.94 779,-26.22 793.82,-24.57"/>
<polygon fill="midnightblue" stroke="midnightblue" points="794.43,-28.02 803.98,-23.43 793.66,-21.06 794.43,-28.02"/>
</g>
<!-- Node7&#45;&gt;Node6 -->
<g id="edge7" class="edge">
<title>Node7&#45;&gt;Node6</title>
<path fill="none" stroke="midnightblue" d="M939.13,-30.52C954.56,-34.25 971.23,-38.28 987.09,-42.12"/>
<polygon fill="midnightblue" stroke="midnightblue" points="986.3,-45.53 996.85,-44.47 987.95,-38.72 986.3,-45.53"/>
</g>
<!-- Node8 -->
<g id="node8" class="node">
<title>Node8</title>
<g id="a_node8"><a xlink:href="../../d4/d14/classjavolution_1_1lang_1_1MathLib.html#a8e7d997979031d789ff07ff1b015537b" target="_top" xlink:title=" ">
<polygon fill="white" stroke="black" points="984,-6 984,-25 1136,-25 1136,-6 984,-6"/>
<text text-anchor="middle" x="1060" y="-13" font-family="Helvetica,sans-Serif" font-size="10.00">javolution.lang.MathLib.exp</text>
</a>
</g>
</g>
<!-- Node7&#45;&gt;Node8 -->
<g id="edge8" class="edge">
<title>Node7&#45;&gt;Node8</title>
<path fill="none" stroke="midnightblue" d="M948.15,-15.5C956.6,-15.5 965.3,-15.5 973.92,-15.5"/>
<polygon fill="midnightblue" stroke="midnightblue" points="974,-19 984,-15.5 974,-12 974,-19"/>
</g>
<!-- Node9 -->
<g id="node9" class="node">
<title>Node9</title>
<g id="a_node9"><a xlink:href="../../d4/d14/classjavolution_1_1lang_1_1MathLib.html#a6c237605180b786b4eddbeb45925ccff" target="_top" xlink:title=" ">
<polygon fill="white" stroke="black" points="1172,-0.5 1172,-30.5 1306,-30.5 1306,-0.5 1172,-0.5"/>
<text text-anchor="start" x="1180" y="-18.5" font-family="Helvetica,sans-Serif" font-size="10.00">javolution.lang.MathLib.</text>
<text text-anchor="middle" x="1239" y="-7.5" font-family="Helvetica,sans-Serif" font-size="10.00">_ieee754_exp</text>
</a>
</g>
</g>
<!-- Node8&#45;&gt;Node9 -->
<g id="edge9" class="edge">
<title>Node8&#45;&gt;Node9</title>
<path fill="none" stroke="midnightblue" d="M1136.06,-15.5C1144.5,-15.5 1153.11,-15.5 1161.57,-15.5"/>
<polygon fill="midnightblue" stroke="midnightblue" points="1161.79,-19 1171.79,-15.5 1161.79,-12 1161.79,-19"/>
</g>
</g>
</svg>
