<?xml version="1.0" encoding="UTF-8" standalone="no"?>
<!DOCTYPE svg PUBLIC "-//W3C//DTD SVG 1.1//EN"
 "http://www.w3.org/Graphics/SVG/1.1/DTD/svg11.dtd">
<!-- Generated by graphviz version 2.43.0 (0)
 -->
<!-- Title: javolution.xml.XMLFormat.InputElement.getAttribute Pages: 1 -->
<svg width="787pt" height="128pt"
 viewBox="0.00 0.00 787.00 127.50" xmlns="http://www.w3.org/2000/svg" xmlns:xlink="http://www.w3.org/1999/xlink">
<g id="graph0" class="graph" transform="scale(1 1) rotate(0) translate(4 123.5)">
<title>javolution.xml.XMLFormat.InputElement.getAttribute</title>
<polygon fill="white" stroke="transparent" points="-4,4 -4,-123.5 783,-123.5 783,4 -4,4"/>
<!-- Node1 -->
<g id="node1" class="node">
<title>Node1</title>
<g id="a_node1"><a xlink:title=" ">
<polygon fill="#bfbfbf" stroke="black" points="0,-17 0,-47 149,-47 149,-17 0,-17"/>
<text text-anchor="start" x="8" y="-35" font-family="Helvetica,sans-Serif" font-size="10.00">javolution.xml.XMLFormat.</text>
<text text-anchor="middle" x="74.5" y="-24" font-family="Helvetica,sans-Serif" font-size="10.00">InputElement.getAttribute</text>
</a>
</g>
</g>
<!-- Node2 -->
<g id="node2" class="node">
<title>Node2</title>
<g id="a_node2"><a xlink:href="../../de/d60/classjavolution_1_1text_1_1TextContext.html#aa84f4f13ceb88b9aadd66a8caec6b333" target="_top" xlink:title=" ">
<polygon fill="white" stroke="black" points="189,-39 189,-69 357,-69 357,-39 189,-39"/>
<text text-anchor="start" x="197" y="-57" font-family="Helvetica,sans-Serif" font-size="10.00">javolution.text.TextContext.get</text>
<text text-anchor="middle" x="273" y="-46" font-family="Helvetica,sans-Serif" font-size="10.00">Format</text>
</a>
</g>
</g>
<!-- Node1&#45;&gt;Node2 -->
<g id="edge1" class="edge">
<title>Node1&#45;&gt;Node2</title>
<path fill="none" stroke="midnightblue" d="M149.23,-40.25C158.95,-41.34 169.01,-42.47 179,-43.59"/>
<polygon fill="midnightblue" stroke="midnightblue" points="178.62,-47.07 188.95,-44.7 179.4,-40.11 178.62,-47.07"/>
</g>
<!-- Node7 -->
<g id="node7" class="node">
<title>Node7</title>
<g id="a_node7"><a xlink:href="../../d3/d4f/classjavolution_1_1text_1_1TextFormat.html#a70ff8a25dd16e9304fc6852bc6203e28" target="_top" xlink:title=" ">
<polygon fill="white" stroke="black" points="185,-0.5 185,-19.5 361,-19.5 361,-0.5 185,-0.5"/>
<text text-anchor="middle" x="273" y="-7.5" font-family="Helvetica,sans-Serif" font-size="10.00">javolution.text.TextFormat.parse</text>
</a>
</g>
</g>
<!-- Node1&#45;&gt;Node7 -->
<g id="edge6" class="edge">
<title>Node1&#45;&gt;Node7</title>
<path fill="none" stroke="midnightblue" d="M149.23,-23.75C158.27,-22.73 167.6,-21.69 176.89,-20.65"/>
<polygon fill="midnightblue" stroke="midnightblue" points="177.4,-24.11 186.95,-19.52 176.62,-17.16 177.4,-24.11"/>
</g>
<!-- Node3 -->
<g id="node3" class="node">
<title>Node3</title>
<g id="a_node3"><a xlink:href="../../de/d60/classjavolution_1_1text_1_1TextContext.html#aca9706d5c011b67755b1e162a5858d61" target="_top" xlink:title=" ">
<polygon fill="white" stroke="black" points="397,-64 397,-94 584,-94 584,-64 397,-64"/>
<text text-anchor="start" x="405" y="-82" font-family="Helvetica,sans-Serif" font-size="10.00">javolution.text.TextContext.current</text>
<text text-anchor="middle" x="490.5" y="-71" font-family="Helvetica,sans-Serif" font-size="10.00">TextContext</text>
</a>
</g>
</g>
<!-- Node2&#45;&gt;Node3 -->
<g id="edge2" class="edge">
<title>Node2&#45;&gt;Node3</title>
<path fill="none" stroke="midnightblue" d="M357.01,-63.63C366.79,-64.76 376.86,-65.93 386.87,-67.09"/>
<polygon fill="midnightblue" stroke="midnightblue" points="386.51,-70.58 396.85,-68.25 387.32,-63.62 386.51,-70.58"/>
</g>
<!-- Node6 -->
<g id="node6" class="node">
<title>Node6</title>
<g id="a_node6"><a xlink:href="../../de/d60/classjavolution_1_1text_1_1TextContext.html#aa42396fe47eb1c99f793a6c5339c5fe6" target="_top" xlink:title=" ">
<polygon fill="white" stroke="black" points="398,-15 398,-45 583,-45 583,-15 398,-15"/>
<text text-anchor="start" x="406" y="-33" font-family="Helvetica,sans-Serif" font-size="10.00">javolution.text.TextContext.search</text>
<text text-anchor="middle" x="490.5" y="-22" font-family="Helvetica,sans-Serif" font-size="10.00">Format</text>
</a>
</g>
</g>
<!-- Node2&#45;&gt;Node6 -->
<g id="edge5" class="edge">
<title>Node2&#45;&gt;Node6</title>
<path fill="none" stroke="midnightblue" d="M357.01,-44.76C367.06,-43.64 377.41,-42.48 387.69,-41.34"/>
<polygon fill="midnightblue" stroke="midnightblue" points="388.38,-44.78 397.93,-40.2 387.61,-37.83 388.38,-44.78"/>
</g>
<!-- Node4 -->
<g id="node4" class="node">
<title>Node4</title>
<g id="a_node4"><a xlink:href="../../d3/d0f/classjavolution_1_1context_1_1AbstractContext.html#a39804b0188cf822819d88f43715deaba" target="_top" xlink:title=" ">
<polygon fill="white" stroke="black" points="625,-89 625,-119 774,-119 774,-89 625,-89"/>
<text text-anchor="start" x="633" y="-107" font-family="Helvetica,sans-Serif" font-size="10.00">javolution.context.Abstract</text>
<text text-anchor="middle" x="699.5" y="-96" font-family="Helvetica,sans-Serif" font-size="10.00">Context.current</text>
</a>
</g>
</g>
<!-- Node3&#45;&gt;Node4 -->
<g id="edge3" class="edge">
<title>Node3&#45;&gt;Node4</title>
<path fill="none" stroke="midnightblue" d="M584.1,-90.18C594.36,-91.42 604.75,-92.68 614.89,-93.9"/>
<polygon fill="midnightblue" stroke="midnightblue" points="614.57,-97.39 624.92,-95.11 615.41,-90.44 614.57,-97.39"/>
</g>
<!-- Node5 -->
<g id="node5" class="node">
<title>Node5</title>
<g id="a_node5"><a xlink:href="../../d8/d20/classjavolution_1_1osgi_1_1internal_1_1OSGiServices.html#a31df875a20f78682380317e651cdaf47" target="_top" xlink:title=" ">
<polygon fill="white" stroke="black" points="620,-40 620,-70 779,-70 779,-40 620,-40"/>
<text text-anchor="start" x="628" y="-58" font-family="Helvetica,sans-Serif" font-size="10.00">javolution.osgi.internal.</text>
<text text-anchor="middle" x="699.5" y="-47" font-family="Helvetica,sans-Serif" font-size="10.00">OSGiServices.getTextContext</text>
</a>
</g>
</g>
<!-- Node3&#45;&gt;Node5 -->
<g id="edge4" class="edge">
<title>Node3&#45;&gt;Node5</title>
<path fill="none" stroke="midnightblue" d="M584.1,-68.26C592.69,-67.27 601.38,-66.26 609.93,-65.27"/>
<polygon fill="midnightblue" stroke="midnightblue" points="610.36,-68.74 619.89,-64.11 609.55,-61.79 610.36,-68.74"/>
</g>
</g>
</svg>
