<?xml version="1.0" encoding="UTF-8" standalone="no"?>
<!DOCTYPE svg PUBLIC "-//W3C//DTD SVG 1.1//EN"
 "http://www.w3.org/Graphics/SVG/1.1/DTD/svg11.dtd">
<!-- Generated by graphviz version 2.43.0 (0)
 -->
<!-- Title: javolution.xml.XMLFormat.InputElement.get Pages: 1 -->
<!--zoomable 412 -->
<svg id="main" version="1.1" xmlns="http://www.w3.org/2000/svg" xmlns:xlink="http://www.w3.org/1999/xlink" xml:space="preserve" onload="init(evt)">
<style type="text/css"><![CDATA[
.edge:hover path { stroke: red; }
.edge:hover polygon { stroke: red; fill: red; }
]]></style>
<script type="text/javascript"><![CDATA[
var edges = document.getElementsByTagName('g');
if (edges && edges.length) {
  for (var i=0;i<edges.length;i++) {
    if (edges[i].id.substr(0,4)=='edge') {
      edges[i].setAttribute('class','edge');
    }
  }
}
]]></script>
        <defs>
                <circle id="rim" cx="0" cy="0" r="7"/>
                <circle id="rim2" cx="0" cy="0" r="3.5"/>
                <g id="zoomPlus">
                        <use xlink:href="#rim" fill="#404040">
                                <set attributeName="fill" to="#808080" begin="zoomplus.mouseover" end="zoomplus.mouseout"/>
                        </use>
                        <path d="M-4,0h8M0,-4v8" fill="none" stroke="white" stroke-width="1.5" pointer-events="none"/>
                </g>
                <g id="zoomMin">
                        <use xlink:href="#rim" fill="#404040">
                                <set attributeName="fill" to="#808080" begin="zoomminus.mouseover" end="zoomminus.mouseout"/>
                        </use>
                        <path d="M-4,0h8" fill="none" stroke="white" stroke-width="1.5" pointer-events="none"/>
                </g>
                <g id="dirArrow">
                        <path fill="none" stroke="white" stroke-width="1.5" d="M0,-3.0v7 M-2.5,-0.5L0,-3.0L2.5,-0.5"/>
                </g>
               <g id="resetDef">
                       <use xlink:href="#rim2" fill="#404040">
                               <set attributeName="fill" to="#808080" begin="reset.mouseover" end="reset.mouseout"/>
                       </use>
               </g>
        </defs>

<script type="text/javascript">
var viewWidth = 1310;
var viewHeight = 412;
var sectionId = 'dynsection-1';
</script>
<script xlink:href="../../svgpan.js"/>
<svg id="graph" class="graph">
<g id="viewport">
<title>javolution.xml.XMLFormat.InputElement.get</title>
<polygon fill="white" stroke="transparent" points="-4,4 -4,-408.23 1306,-408.23 1306,4 -4,4"/>
<!-- Node1 -->
<g id="node1" class="node">
<title>Node1</title>
<g id="a_node1"><a xlink:title=" ">
<polygon fill="#bfbfbf" stroke="black" points="0,-224 0,-254 149,-254 149,-224 0,-224"/>
<text text-anchor="start" x="8" y="-242" font-family="Helvetica,sans-Serif" font-size="10.00">javolution.xml.XMLFormat.</text>
<text text-anchor="middle" x="74.5" y="-231" font-family="Helvetica,sans-Serif" font-size="10.00">InputElement.get</text>
</a>
</g>
</g>
<!-- Node2 -->
<g id="node2" class="node">
<title>Node2</title>
<g id="a_node2"><a xlink:href="../../d0/d36/classjavolution_1_1text_1_1CharArray.html#a63cd0fbe95d0342063ea7091dce0fa9c" target="_top" xlink:title=" ">
<polygon fill="white" stroke="black" points="210,-298.5 210,-317.5 383,-317.5 383,-298.5 210,-298.5"/>
<text text-anchor="middle" x="296.5" y="-305.5" font-family="Helvetica,sans-Serif" font-size="10.00">javolution.text.CharArray.equals</text>
</a>
</g>
</g>
<!-- Node1&#45;&gt;Node2 -->
<g id="edge1" class="edge">
<title>Node1&#45;&gt;Node2</title>
<path fill="none" stroke="midnightblue" d="M103.08,-254.01C124.76,-265.21 156.04,-280.06 185,-289 194.28,-291.86 204.13,-294.33 213.99,-296.45"/>
<polygon fill="midnightblue" stroke="midnightblue" points="213.33,-299.89 223.83,-298.45 214.73,-293.03 213.33,-299.89"/>
</g>
<!-- Node3 -->
<g id="node3" class="node">
<title>Node3</title>
<g id="a_node3"><a xlink:href="../../d0/d65/classjavolution_1_1xml_1_1internal_1_1stream_1_1XMLStreamReaderImpl.html#a058331c362bc6403282b1e954c7dd0a7" target="_top" xlink:title=" ">
<polygon fill="white" stroke="black" points="195,-249 195,-279 398,-279 398,-249 195,-249"/>
<text text-anchor="start" x="203" y="-267" font-family="Helvetica,sans-Serif" font-size="10.00">javolution.xml.internal.stream.</text>
<text text-anchor="middle" x="296.5" y="-256" font-family="Helvetica,sans-Serif" font-size="10.00">XMLStreamReaderImpl.getLocalName</text>
</a>
</g>
</g>
<!-- Node1&#45;&gt;Node3 -->
<g id="edge2" class="edge">
<title>Node1&#45;&gt;Node3</title>
<path fill="none" stroke="midnightblue" d="M149.06,-247.36C160.58,-248.67 172.69,-250.04 184.82,-251.42"/>
<polygon fill="midnightblue" stroke="midnightblue" points="184.67,-254.93 195,-252.58 185.46,-247.97 184.67,-254.93"/>
</g>
<!-- Node11 -->
<g id="node11" class="node">
<title>Node11</title>
<g id="a_node11"><a xlink:href="../../d0/d65/classjavolution_1_1xml_1_1internal_1_1stream_1_1XMLStreamReaderImpl.html#a45062be133de9488e3a0e6f4962d46d1" target="_top" xlink:title=" ">
<polygon fill="white" stroke="black" points="185,-200 185,-230 408,-230 408,-200 185,-200"/>
<text text-anchor="start" x="193" y="-218" font-family="Helvetica,sans-Serif" font-size="10.00">javolution.xml.internal.stream.</text>
<text text-anchor="middle" x="296.5" y="-207" font-family="Helvetica,sans-Serif" font-size="10.00">XMLStreamReaderImpl.getNamespaceURI</text>
</a>
</g>
</g>
<!-- Node1&#45;&gt;Node11 -->
<g id="edge12" class="edge">
<title>Node1&#45;&gt;Node11</title>
<path fill="none" stroke="midnightblue" d="M149.06,-230.97C157.32,-230.07 165.89,-229.14 174.55,-228.19"/>
<polygon fill="midnightblue" stroke="midnightblue" points="175.19,-231.65 184.75,-227.08 174.43,-224.69 175.19,-231.65"/>
</g>
<!-- Node14 -->
<g id="node14" class="node">
<title>Node14</title>
<g id="a_node14"><a xlink:href="../../d2/d42/classjavolution_1_1xml_1_1XMLBinding.html#a87e4b98a155e7f7d9b299bc0d30b1431" target="_top" xlink:title=" ">
<polygon fill="white" stroke="black" points="210,-83 210,-113 383,-113 383,-83 210,-83"/>
<text text-anchor="start" x="218" y="-101" font-family="Helvetica,sans-Serif" font-size="10.00">javolution.xml.XMLBinding.read</text>
<text text-anchor="middle" x="296.5" y="-90" font-family="Helvetica,sans-Serif" font-size="10.00">Class</text>
</a>
</g>
</g>
<!-- Node1&#45;&gt;Node14 -->
<g id="edge16" class="edge">
<title>Node1&#45;&gt;Node14</title>
<path fill="none" stroke="midnightblue" d="M99.04,-223.91C138.64,-198.53 218.6,-147.29 263.34,-118.61"/>
<polygon fill="midnightblue" stroke="midnightblue" points="265.26,-121.54 271.79,-113.19 261.49,-115.64 265.26,-121.54"/>
</g>
<!-- Node4 -->
<g id="node4" class="node">
<title>Node4</title>
<g id="a_node4"><a xlink:href="../../d0/d65/classjavolution_1_1xml_1_1internal_1_1stream_1_1XMLStreamReaderImpl.html#a7ec904380dc9205eec886c5136dc97f9" target="_top" xlink:title=" ">
<polygon fill="white" stroke="black" points="447.5,-205 447.5,-235 635.5,-235 635.5,-205 447.5,-205"/>
<text text-anchor="start" x="455.5" y="-223" font-family="Helvetica,sans-Serif" font-size="10.00">javolution.xml.internal.stream.</text>
<text text-anchor="middle" x="541.5" y="-212" font-family="Helvetica,sans-Serif" font-size="10.00">XMLStreamReaderImpl.illegalState</text>
</a>
</g>
</g>
<!-- Node3&#45;&gt;Node4 -->
<g id="edge3" class="edge">
<title>Node3&#45;&gt;Node4</title>
<path fill="none" stroke="midnightblue" d="M380.45,-248.98C402.03,-245.07 425.42,-240.84 447.48,-236.84"/>
<polygon fill="midnightblue" stroke="midnightblue" points="448.3,-240.25 457.51,-235.03 447.05,-233.36 448.3,-240.25"/>
</g>
<!-- Node5 -->
<g id="node5" class="node">
<title>Node5</title>
<g id="a_node5"><a xlink:href="../../d0/d36/classjavolution_1_1text_1_1CharArray.html#a1206e2076e25f1e66e1458328aa22baa" target="_top" xlink:title=" ">
<polygon fill="white" stroke="black" points="926,-363.5 926,-382.5 1098,-382.5 1098,-363.5 926,-363.5"/>
<text text-anchor="middle" x="1012" y="-370.5" font-family="Helvetica,sans-Serif" font-size="10.00">javolution.text.CharArray.length</text>
</a>
</g>
</g>
<!-- Node3&#45;&gt;Node5 -->
<g id="edge4" class="edge">
<title>Node3&#45;&gt;Node5</title>
<path fill="none" stroke="midnightblue" d="M387.87,-279.07C394.92,-281.84 401.73,-285.12 408,-289 429.49,-302.29 422.42,-319.86 444,-333 608.11,-432.95 850.6,-403.99 957.3,-384.4"/>
<polygon fill="midnightblue" stroke="midnightblue" points="958.01,-387.83 967.19,-382.54 956.71,-380.95 958.01,-387.83"/>
</g>
<!-- Node6 -->
<g id="node6" class="node">
<title>Node6</title>
<g id="a_node6"><a xlink:href="../../d0/d65/classjavolution_1_1xml_1_1internal_1_1stream_1_1XMLStreamReaderImpl.html#a81c3892a30b16f53265572c589d012ad" target="_top" xlink:title=" ">
<polygon fill="white" stroke="black" points="456.5,-293 456.5,-323 626.5,-323 626.5,-293 456.5,-293"/>
<text text-anchor="start" x="464.5" y="-311" font-family="Helvetica,sans-Serif" font-size="10.00">javolution.xml.internal.stream.</text>
<text text-anchor="middle" x="541.5" y="-300" font-family="Helvetica,sans-Serif" font-size="10.00">XMLStreamReaderImpl.newSeq</text>
</a>
</g>
</g>
<!-- Node3&#45;&gt;Node6 -->
<g id="edge5" class="edge">
<title>Node3&#45;&gt;Node6</title>
<path fill="none" stroke="midnightblue" d="M380.45,-279.02C402.03,-282.93 425.42,-287.16 447.48,-291.16"/>
<polygon fill="midnightblue" stroke="midnightblue" points="447.05,-294.64 457.51,-292.97 448.3,-287.75 447.05,-294.64"/>
</g>
<!-- Node10 -->
<g id="node10" class="node">
<title>Node10</title>
<g id="a_node10"><a xlink:href="../../d0/d36/classjavolution_1_1text_1_1CharArray.html#ad3531ca73d67202979d1b5586eab2521" target="_top" xlink:title=" ">
<polygon fill="white" stroke="black" points="927.5,-257.5 927.5,-276.5 1096.5,-276.5 1096.5,-257.5 927.5,-257.5"/>
<text text-anchor="middle" x="1012" y="-264.5" font-family="Helvetica,sans-Serif" font-size="10.00">javolution.text.CharArray.offset</text>
</a>
</g>
</g>
<!-- Node3&#45;&gt;Node10 -->
<g id="edge11" class="edge">
<title>Node3&#45;&gt;Node10</title>
<path fill="none" stroke="midnightblue" d="M398.21,-264.42C536.36,-265 782.77,-266.04 917.19,-266.61"/>
<polygon fill="midnightblue" stroke="midnightblue" points="917.45,-270.11 927.47,-266.65 917.48,-263.11 917.45,-270.11"/>
</g>
<!-- Node7 -->
<g id="node7" class="node">
<title>Node7</title>
<g id="a_node7"><a xlink:href="../../d0/d65/classjavolution_1_1xml_1_1internal_1_1stream_1_1XMLStreamReaderImpl.html#a05200d081c5258b99e11444bde03030c" target="_top" xlink:title=" ">
<polygon fill="white" stroke="black" points="694.5,-342 694.5,-372 870.5,-372 870.5,-342 694.5,-342"/>
<text text-anchor="start" x="702.5" y="-360" font-family="Helvetica,sans-Serif" font-size="10.00">javolution.xml.internal.stream.</text>
<text text-anchor="middle" x="782.5" y="-349" font-family="Helvetica,sans-Serif" font-size="10.00">XMLStreamReaderImpl.newSeq2</text>
</a>
</g>
</g>
<!-- Node6&#45;&gt;Node7 -->
<g id="edge6" class="edge">
<title>Node6&#45;&gt;Node7</title>
<path fill="none" stroke="midnightblue" d="M615.83,-323.03C641.87,-328.37 671.36,-334.42 698.18,-339.92"/>
<polygon fill="midnightblue" stroke="midnightblue" points="697.81,-343.41 708.31,-341.99 699.21,-336.56 697.81,-343.41"/>
</g>
<!-- Node8 -->
<g id="node8" class="node">
<title>Node8</title>
<g id="a_node8"><a xlink:href="../../d0/d36/classjavolution_1_1text_1_1CharArray.html#a4dba39b3010d6baa467b8ec3fdc561c4" target="_top" xlink:title=" ">
<polygon fill="white" stroke="black" points="704.5,-293 704.5,-323 860.5,-323 860.5,-293 704.5,-293"/>
<text text-anchor="start" x="712.5" y="-311" font-family="Helvetica,sans-Serif" font-size="10.00">javolution.text.CharArray.set</text>
<text text-anchor="middle" x="782.5" y="-300" font-family="Helvetica,sans-Serif" font-size="10.00">Array</text>
</a>
</g>
</g>
<!-- Node6&#45;&gt;Node8 -->
<g id="edge7" class="edge">
<title>Node6&#45;&gt;Node8</title>
<path fill="none" stroke="midnightblue" d="M626.76,-308C648.67,-308 672.32,-308 694.37,-308"/>
<polygon fill="midnightblue" stroke="midnightblue" points="694.38,-311.5 704.38,-308 694.38,-304.5 694.38,-311.5"/>
</g>
<!-- Node8&#45;&gt;Node5 -->
<g id="edge9" class="edge">
<title>Node8&#45;&gt;Node5</title>
<path fill="none" stroke="midnightblue" d="M851.62,-323.04C864.43,-326.14 877.66,-329.52 890,-333 918.69,-341.09 950.71,-351.75 974.59,-360.03"/>
<polygon fill="midnightblue" stroke="midnightblue" points="973.7,-363.42 984.3,-363.42 976.01,-356.82 973.7,-363.42"/>
</g>
<!-- Node9 -->
<g id="node9" class="node">
<title>Node9</title>
<g id="a_node9"><a xlink:href="../../d0/d36/classjavolution_1_1text_1_1CharArray.html#a1b743b96fd62cbec154a6ca6c5df9d03" target="_top" xlink:title=" ">
<polygon fill="white" stroke="black" points="928.5,-298.5 928.5,-317.5 1095.5,-317.5 1095.5,-298.5 928.5,-298.5"/>
<text text-anchor="middle" x="1012" y="-305.5" font-family="Helvetica,sans-Serif" font-size="10.00">javolution.text.CharArray.array</text>
</a>
</g>
</g>
<!-- Node8&#45;&gt;Node9 -->
<g id="edge8" class="edge">
<title>Node8&#45;&gt;Node9</title>
<path fill="none" stroke="midnightblue" d="M860.52,-308C878.99,-308 898.9,-308 918,-308"/>
<polygon fill="midnightblue" stroke="midnightblue" points="918.21,-311.5 928.21,-308 918.21,-304.5 918.21,-311.5"/>
</g>
<!-- Node8&#45;&gt;Node10 -->
<g id="edge10" class="edge">
<title>Node8&#45;&gt;Node10</title>
<path fill="none" stroke="midnightblue" d="M860.52,-294.12C888.98,-288.99 920.88,-283.24 947.96,-278.36"/>
<polygon fill="midnightblue" stroke="midnightblue" points="948.86,-281.75 958.08,-276.54 947.62,-274.87 948.86,-281.75"/>
</g>
<!-- Node11&#45;&gt;Node4 -->
<g id="edge15" class="edge">
<title>Node11&#45;&gt;Node4</title>
<path fill="none" stroke="midnightblue" d="M408.33,-217.28C417.89,-217.48 427.54,-217.68 437.04,-217.87"/>
<polygon fill="midnightblue" stroke="midnightblue" points="437.21,-221.38 447.28,-218.08 437.35,-214.38 437.21,-221.38"/>
</g>
<!-- Node12 -->
<g id="node12" class="node">
<title>Node12</title>
<g id="a_node12"><a xlink:href="../../dc/daa/classjavolution_1_1xml_1_1internal_1_1stream_1_1NamespacesImpl.html#a3416e6b495b44c9137a3213a570f4fb7" target="_top" xlink:title=" ">
<polygon fill="white" stroke="black" points="444,-156 444,-186 639,-186 639,-156 444,-156"/>
<text text-anchor="start" x="452" y="-174" font-family="Helvetica,sans-Serif" font-size="10.00">javolution.xml.internal.stream.</text>
<text text-anchor="middle" x="541.5" y="-163" font-family="Helvetica,sans-Serif" font-size="10.00">NamespacesImpl.getNamespaceURI</text>
</a>
</g>
</g>
<!-- Node11&#45;&gt;Node12 -->
<g id="edge13" class="edge">
<title>Node11&#45;&gt;Node12</title>
<path fill="none" stroke="midnightblue" d="M380.45,-199.98C402.03,-196.07 425.42,-191.84 447.48,-187.84"/>
<polygon fill="midnightblue" stroke="midnightblue" points="448.3,-191.25 457.51,-186.03 447.05,-184.36 448.3,-191.25"/>
</g>
<!-- Node13 -->
<g id="node13" class="node">
<title>Node13</title>
<g id="a_node13"><a xlink:href="../../dc/daa/classjavolution_1_1xml_1_1internal_1_1stream_1_1NamespacesImpl.html#a944dd086746ac448be3b3745133aaf0f" target="_top" xlink:title=" ">
<polygon fill="white" stroke="black" points="675,-150.5 675,-191.5 890,-191.5 890,-150.5 675,-150.5"/>
<text text-anchor="start" x="683" y="-179.5" font-family="Helvetica,sans-Serif" font-size="10.00">javolution.xml.internal.stream.</text>
<text text-anchor="start" x="683" y="-168.5" font-family="Helvetica,sans-Serif" font-size="10.00">NamespacesImpl.getNamespaceURINull</text>
<text text-anchor="middle" x="782.5" y="-157.5" font-family="Helvetica,sans-Serif" font-size="10.00">Allowed</text>
</a>
</g>
</g>
<!-- Node12&#45;&gt;Node13 -->
<g id="edge14" class="edge">
<title>Node12&#45;&gt;Node13</title>
<path fill="none" stroke="midnightblue" d="M639.02,-171C647.5,-171 656.13,-171 664.74,-171"/>
<polygon fill="midnightblue" stroke="midnightblue" points="664.84,-174.5 674.84,-171 664.84,-167.5 664.84,-174.5"/>
</g>
<!-- Node15 -->
<g id="node15" class="node">
<title>Node15</title>
<g id="a_node15"><a xlink:href="../../d0/dc4/classjavolution_1_1xml_1_1QName.html#ad22b79fa18cd3590c652b98b79ac977b" target="_top" xlink:title=" ">
<polygon fill="white" stroke="black" points="468.5,-107 468.5,-137 614.5,-137 614.5,-107 468.5,-107"/>
<text text-anchor="start" x="476.5" y="-125" font-family="Helvetica,sans-Serif" font-size="10.00">javolution.xml.QName.get</text>
<text text-anchor="middle" x="541.5" y="-114" font-family="Helvetica,sans-Serif" font-size="10.00">LocalName</text>
</a>
</g>
</g>
<!-- Node14&#45;&gt;Node15 -->
<g id="edge17" class="edge">
<title>Node14&#45;&gt;Node15</title>
<path fill="none" stroke="midnightblue" d="M383.17,-106.46C407.56,-108.87 434.07,-111.49 458.25,-113.88"/>
<polygon fill="midnightblue" stroke="midnightblue" points="458.16,-117.39 468.46,-114.88 458.85,-110.42 458.16,-117.39"/>
</g>
<!-- Node16 -->
<g id="node16" class="node">
<title>Node16</title>
<g id="a_node16"><a xlink:href="../../d0/dc4/classjavolution_1_1xml_1_1QName.html#a9ec5828eccdd7619e9d69b33d1b4ab99" target="_top" xlink:title=" ">
<polygon fill="white" stroke="black" points="468.5,-58 468.5,-88 614.5,-88 614.5,-58 468.5,-58"/>
<text text-anchor="start" x="476.5" y="-76" font-family="Helvetica,sans-Serif" font-size="10.00">javolution.xml.QName.get</text>
<text text-anchor="middle" x="541.5" y="-65" font-family="Helvetica,sans-Serif" font-size="10.00">NamespaceURI</text>
</a>
</g>
</g>
<!-- Node14&#45;&gt;Node16 -->
<g id="edge18" class="edge">
<title>Node14&#45;&gt;Node16</title>
<path fill="none" stroke="midnightblue" d="M383.17,-89.19C407.56,-86.68 434.07,-83.95 458.25,-81.46"/>
<polygon fill="midnightblue" stroke="midnightblue" points="458.87,-84.92 468.46,-80.41 458.15,-77.95 458.87,-84.92"/>
</g>
<!-- Node17 -->
<g id="node17" class="node">
<title>Node17</title>
<g id="a_node17"><a xlink:href="../../d0/dc4/classjavolution_1_1xml_1_1QName.html#a41d330e516b0c040456ab7730ce54394" target="_top" xlink:title=" ">
<polygon fill="white" stroke="black" points="457.5,-19.5 457.5,-38.5 625.5,-38.5 625.5,-19.5 457.5,-19.5"/>
<text text-anchor="middle" x="541.5" y="-26.5" font-family="Helvetica,sans-Serif" font-size="10.00">javolution.xml.QName.valueOf</text>
</a>
</g>
</g>
<!-- Node14&#45;&gt;Node17 -->
<g id="edge19" class="edge">
<title>Node14&#45;&gt;Node17</title>
<path fill="none" stroke="midnightblue" d="M338.15,-82.96C367.33,-72.52 407.75,-58.78 444,-49 455.18,-45.98 467.19,-43.16 478.82,-40.65"/>
<polygon fill="midnightblue" stroke="midnightblue" points="479.84,-44.01 488.9,-38.52 478.39,-37.16 479.84,-44.01"/>
</g>
<!-- Node18 -->
<g id="node18" class="node">
<title>Node18</title>
<g id="a_node18"><a xlink:href="../../d0/dc4/classjavolution_1_1xml_1_1QName.html#aad0b37db47b51c65188feffbb0a3491c" target="_top" xlink:title=" ">
<polygon fill="white" stroke="black" points="702,-58 702,-88 863,-88 863,-58 702,-58"/>
<text text-anchor="start" x="710" y="-76" font-family="Helvetica,sans-Serif" font-size="10.00">javolution.xml.QName.create</text>
<text text-anchor="middle" x="782.5" y="-65" font-family="Helvetica,sans-Serif" font-size="10.00">NoNamespace</text>
</a>
</g>
</g>
<!-- Node17&#45;&gt;Node18 -->
<g id="edge20" class="edge">
<title>Node17&#45;&gt;Node18</title>
<path fill="none" stroke="midnightblue" d="M594.36,-38.55C622.85,-43.79 658.99,-50.45 691.9,-56.5"/>
<polygon fill="midnightblue" stroke="midnightblue" points="691.53,-59.99 702,-58.36 692.8,-53.11 691.53,-59.99"/>
</g>
<!-- Node19 -->
<g id="node19" class="node">
<title>Node19</title>
<g id="a_node19"><a xlink:href="../../d0/dc4/classjavolution_1_1xml_1_1QName.html#a74290325df829082764dafc52ed44a1f" target="_top" xlink:title=" ">
<polygon fill="white" stroke="black" points="928.5,-19.5 928.5,-38.5 1095.5,-38.5 1095.5,-19.5 928.5,-19.5"/>
<text text-anchor="middle" x="1012" y="-26.5" font-family="Helvetica,sans-Serif" font-size="10.00">javolution.xml.QName.QName</text>
</a>
</g>
</g>
<!-- Node17&#45;&gt;Node19 -->
<g id="edge23" class="edge">
<title>Node17&#45;&gt;Node19</title>
<path fill="none" stroke="midnightblue" d="M625.72,-29C707.71,-29 832.74,-29 917.97,-29"/>
<polygon fill="midnightblue" stroke="midnightblue" points="918.16,-32.5 928.16,-29 918.16,-25.5 918.16,-32.5"/>
</g>
<!-- Node20 -->
<g id="node20" class="node">
<title>Node20</title>
<g id="a_node20"><a xlink:href="../../d0/dc4/classjavolution_1_1xml_1_1QName.html#ad25f28efea4ffc493cac269fffba93b0" target="_top" xlink:title=" ">
<polygon fill="white" stroke="black" points="1134,-0.5 1134,-19.5 1302,-19.5 1302,-0.5 1134,-0.5"/>
<text text-anchor="middle" x="1218" y="-7.5" font-family="Helvetica,sans-Serif" font-size="10.00">javolution.xml.QName.toString</text>
</a>
</g>
</g>
<!-- Node17&#45;&gt;Node20 -->
<g id="edge24" class="edge">
<title>Node17&#45;&gt;Node20</title>
<path fill="none" stroke="midnightblue" d="M625.87,-23.68C703.52,-19 822.54,-12.56 926,-10 992.11,-8.36 1066.69,-8.4 1123.79,-8.83"/>
<polygon fill="midnightblue" stroke="midnightblue" points="1123.86,-12.33 1133.89,-8.91 1123.91,-5.33 1123.86,-12.33"/>
</g>
<!-- Node18&#45;&gt;Node19 -->
<g id="edge21" class="edge">
<title>Node18&#45;&gt;Node19</title>
<path fill="none" stroke="midnightblue" d="M861.16,-57.98C890.85,-52.24 924.2,-45.79 951.89,-40.43"/>
<polygon fill="midnightblue" stroke="midnightblue" points="952.66,-43.85 961.82,-38.51 951.33,-36.98 952.66,-43.85"/>
</g>
<!-- Node19&#45;&gt;Node20 -->
<g id="edge22" class="edge">
<title>Node19&#45;&gt;Node20</title>
<path fill="none" stroke="midnightblue" d="M1095.68,-21.3C1104.93,-20.44 1114.39,-19.56 1123.76,-18.68"/>
<polygon fill="midnightblue" stroke="midnightblue" points="1124.24,-22.15 1133.87,-17.74 1123.59,-15.19 1124.24,-22.15"/>
</g>
</g>
</svg>
        <g id="navigator" transform="translate(0 0)" fill="#404254">
                <rect fill="#f2f5e9" fill-opacity="0.5" stroke="#606060" stroke-width=".5" x="0" y="0" width="60" height="60"/>
                <use id="zoomplus" xlink:href="#zoomPlus" x="17" y="9" onmousedown="handleZoom(evt,'in')"/>
                <use id="zoomminus" xlink:href="#zoomMin" x="42" y="9" onmousedown="handleZoom(evt,'out')"/>
                <use id="reset" xlink:href="#resetDef" x="30" y="36" onmousedown="handleReset()"/>
                <g id="arrowUp" xlink:href="#dirArrow" transform="translate(30 24)" onmousedown="handlePan(0,-1)">
                  <use xlink:href="#rim" fill="#404040">
                        <set attributeName="fill" to="#808080" begin="arrowUp.mouseover" end="arrowUp.mouseout"/>
                  </use>
                  <path fill="none" stroke="white" stroke-width="1.5" d="M0,-3.0v7 M-2.5,-0.5L0,-3.0L2.5,-0.5"/>
                </g>
                <g id="arrowRight" xlink:href="#dirArrow" transform="rotate(90) translate(36 -43)" onmousedown="handlePan(1,0)">
                  <use xlink:href="#rim" fill="#404040">
                        <set attributeName="fill" to="#808080" begin="arrowRight.mouseover" end="arrowRight.mouseout"/>
                  </use>
                  <path fill="none" stroke="white" stroke-width="1.5" d="M0,-3.0v7 M-2.5,-0.5L0,-3.0L2.5,-0.5"/>
                </g>
                <g id="arrowDown" xlink:href="#dirArrow" transform="rotate(180) translate(-30 -48)" onmousedown="handlePan(0,1)">
                  <use xlink:href="#rim" fill="#404040">
                        <set attributeName="fill" to="#808080" begin="arrowDown.mouseover" end="arrowDown.mouseout"/>
                  </use>
                  <path fill="none" stroke="white" stroke-width="1.5" d="M0,-3.0v7 M-2.5,-0.5L0,-3.0L2.5,-0.5"/>
                </g>
                <g id="arrowLeft" xlink:href="#dirArrow" transform="rotate(270) translate(-36 17)" onmousedown="handlePan(-1,0)">
                  <use xlink:href="#rim" fill="#404040">
                        <set attributeName="fill" to="#808080" begin="arrowLeft.mouseover" end="arrowLeft.mouseout"/>
                  </use>
                  <path fill="none" stroke="white" stroke-width="1.5" d="M0,-3.0v7 M-2.5,-0.5L0,-3.0L2.5,-0.5"/>
                </g>
        </g>
        <svg viewBox="0 0 15 15" width="100%" height="30px" preserveAspectRatio="xMaxYMin meet">
         <g id="arrow_out" transform="scale(0.3 0.3)">
          <a xlink:href="classjavolution_1_1xml_1_1XMLFormat_1_1InputElement_a74ac2ec832b43bb5ec3937289a4da74b_cgraph_org.svg" target="_base">
           <rect id="button" ry="5" rx="5" y="6" x="6" height="38" width="38"
                fill="#f2f5e9" fill-opacity="0.5" stroke="#606060" stroke-width="1.0"/>
           <path id="arrow"
             d="M 11.500037,31.436501 C 11.940474,20.09759 22.043105,11.32322 32.158766,21.979434 L 37.068811,17.246167 C 37.068811,17.246167 37.088388,32 37.088388,32 L 22.160133,31.978069 C 22.160133,31.978069 26.997745,27.140456 26.997745,27.140456 C 18.528582,18.264221 13.291696,25.230495 11.500037,31.436501 z"
             style="fill:#404040;"/>
          </a>
         </g>
        </svg>
</svg>
