<?xml version="1.0" encoding="UTF-8" standalone="no"?>
<!DOCTYPE svg PUBLIC "-//W3C//DTD SVG 1.1//EN"
 "http://www.w3.org/Graphics/SVG/1.1/DTD/svg11.dtd">
<!-- Generated by graphviz version 2.43.0 (0)
 -->
<!-- Title: javolution.xml.XMLFormat.InputElement.getAttribute Pages: 1 -->
<svg width="814pt" height="78pt"
 viewBox="0.00 0.00 814.00 77.50" xmlns="http://www.w3.org/2000/svg" xmlns:xlink="http://www.w3.org/1999/xlink">
<g id="graph0" class="graph" transform="scale(1 1) rotate(0) translate(4 73.5)">
<title>javolution.xml.XMLFormat.InputElement.getAttribute</title>
<polygon fill="white" stroke="transparent" points="-4,4 -4,-73.5 810,-73.5 810,4 -4,4"/>
<!-- Node1 -->
<g id="node1" class="node">
<title>Node1</title>
<g id="a_node1"><a xlink:title=" ">
<polygon fill="#bfbfbf" stroke="black" points="0,-17 0,-47 149,-47 149,-17 0,-17"/>
<text text-anchor="start" x="8" y="-35" font-family="Helvetica,sans-Serif" font-size="10.00">javolution.xml.XMLFormat.</text>
<text text-anchor="middle" x="74.5" y="-24" font-family="Helvetica,sans-Serif" font-size="10.00">InputElement.getAttribute</text>
</a>
</g>
</g>
<!-- Node2 -->
<g id="node2" class="node">
<title>Node2</title>
<g id="a_node2"><a xlink:href="../../d0/d36/classjavolution_1_1text_1_1CharArray.html#a6f9f2c6cf476ed5258a3111dccd17104" target="_top" xlink:title=" ">
<polygon fill="white" stroke="black" points="185,-22.5 185,-41.5 359,-41.5 359,-22.5 185,-22.5"/>
<text text-anchor="middle" x="272" y="-29.5" font-family="Helvetica,sans-Serif" font-size="10.00">javolution.text.CharArray.toLong</text>
</a>
</g>
</g>
<!-- Node1&#45;&gt;Node2 -->
<g id="edge1" class="edge">
<title>Node1&#45;&gt;Node2</title>
<path fill="none" stroke="midnightblue" d="M149.13,-32C157.53,-32 166.19,-32 174.83,-32"/>
<polygon fill="midnightblue" stroke="midnightblue" points="174.95,-35.5 184.95,-32 174.95,-28.5 174.95,-35.5"/>
</g>
<!-- Node3 -->
<g id="node3" class="node">
<title>Node3</title>
<g id="a_node3"><a xlink:href="../../d2/d86/classjavolution_1_1text_1_1TypeFormat.html#a2201e6d72dd856dd825759e93acce822" target="_top" xlink:title=" ">
<polygon fill="white" stroke="black" points="395,-22.5 395,-41.5 596,-41.5 596,-22.5 395,-22.5"/>
<text text-anchor="middle" x="495.5" y="-29.5" font-family="Helvetica,sans-Serif" font-size="10.00">javolution.text.TypeFormat.parseLong</text>
</a>
</g>
</g>
<!-- Node2&#45;&gt;Node3 -->
<g id="edge2" class="edge">
<title>Node2&#45;&gt;Node3</title>
<path fill="none" stroke="midnightblue" d="M359.27,-32C367.65,-32 376.23,-32 384.8,-32"/>
<polygon fill="midnightblue" stroke="midnightblue" points="384.85,-35.5 394.85,-32 384.85,-28.5 384.85,-35.5"/>
</g>
<!-- Node4 -->
<g id="node4" class="node">
<title>Node4</title>
<g id="a_node4"><a xlink:href="../../d0/dce/classjavolution_1_1text_1_1Cursor.html#a3c05d8bae9082071d73d9ff0c2caf791" target="_top" xlink:title=" ">
<polygon fill="white" stroke="black" points="649,-39 649,-69 789,-69 789,-39 649,-39"/>
<text text-anchor="start" x="657" y="-57" font-family="Helvetica,sans-Serif" font-size="10.00">javolution.text.Cursor.get</text>
<text text-anchor="middle" x="719" y="-46" font-family="Helvetica,sans-Serif" font-size="10.00">Index</text>
</a>
</g>
</g>
<!-- Node3&#45;&gt;Node4 -->
<g id="edge3" class="edge">
<title>Node3&#45;&gt;Node4</title>
<path fill="none" stroke="midnightblue" d="M592.36,-41.52C607.75,-43.05 623.53,-44.62 638.49,-46.1"/>
<polygon fill="midnightblue" stroke="midnightblue" points="638.4,-49.61 648.69,-47.12 639.09,-42.64 638.4,-49.61"/>
</g>
<!-- Node5 -->
<g id="node5" class="node">
<title>Node5</title>
<g id="a_node5"><a xlink:href="../../d0/dce/classjavolution_1_1text_1_1Cursor.html#a021df95865b1703e8e34c6935c4a93ef" target="_top" xlink:title=" ">
<polygon fill="white" stroke="black" points="632,-0.5 632,-19.5 806,-19.5 806,-0.5 632,-0.5"/>
<text text-anchor="middle" x="719" y="-7.5" font-family="Helvetica,sans-Serif" font-size="10.00">javolution.text.Cursor.increment</text>
</a>
</g>
</g>
<!-- Node3&#45;&gt;Node5 -->
<g id="edge4" class="edge">
<title>Node3&#45;&gt;Node5</title>
<path fill="none" stroke="midnightblue" d="M592.36,-22.48C602.08,-21.51 611.96,-20.53 621.68,-19.57"/>
<polygon fill="midnightblue" stroke="midnightblue" points="622.14,-23.04 631.75,-18.57 621.45,-16.07 622.14,-23.04"/>
</g>
</g>
</svg>
