<?xml version="1.0" encoding="UTF-8" standalone="no"?>
<!DOCTYPE svg PUBLIC "-//W3C//DTD SVG 1.1//EN"
 "http://www.w3.org/Graphics/SVG/1.1/DTD/svg11.dtd">
<!-- Generated by graphviz version 2.43.0 (0)
 -->
<!-- Title: javolution.xml.XMLFormat.InputElement.get Pages: 1 -->
<!--zoomable 260 -->
<svg id="main" version="1.1" xmlns="http://www.w3.org/2000/svg" xmlns:xlink="http://www.w3.org/1999/xlink" xml:space="preserve" onload="init(evt)">
<style type="text/css"><![CDATA[
.edge:hover path { stroke: red; }
.edge:hover polygon { stroke: red; fill: red; }
]]></style>
<script type="text/javascript"><![CDATA[
var edges = document.getElementsByTagName('g');
if (edges && edges.length) {
  for (var i=0;i<edges.length;i++) {
    if (edges[i].id.substr(0,4)=='edge') {
      edges[i].setAttribute('class','edge');
    }
  }
}
]]></script>
        <defs>
                <circle id="rim" cx="0" cy="0" r="7"/>
                <circle id="rim2" cx="0" cy="0" r="3.5"/>
                <g id="zoomPlus">
                        <use xlink:href="#rim" fill="#404040">
                                <set attributeName="fill" to="#808080" begin="zoomplus.mouseover" end="zoomplus.mouseout"/>
                        </use>
                        <path d="M-4,0h8M0,-4v8" fill="none" stroke="white" stroke-width="1.5" pointer-events="none"/>
                </g>
                <g id="zoomMin">
                        <use xlink:href="#rim" fill="#404040">
                                <set attributeName="fill" to="#808080" begin="zoomminus.mouseover" end="zoomminus.mouseout"/>
                        </use>
                        <path d="M-4,0h8" fill="none" stroke="white" stroke-width="1.5" pointer-events="none"/>
                </g>
                <g id="dirArrow">
                        <path fill="none" stroke="white" stroke-width="1.5" d="M0,-3.0v7 M-2.5,-0.5L0,-3.0L2.5,-0.5"/>
                </g>
               <g id="resetDef">
                       <use xlink:href="#rim2" fill="#404040">
                               <set attributeName="fill" to="#808080" begin="reset.mouseover" end="reset.mouseout"/>
                       </use>
               </g>
        </defs>

<script type="text/javascript">
var viewWidth = 1106;
var viewHeight = 260;
var sectionId = 'dynsection-2';
</script>
<script xlink:href="../../svgpan.js"/>
<svg id="graph" class="graph">
<g id="viewport">
<title>javolution.xml.XMLFormat.InputElement.get</title>
<polygon fill="white" stroke="transparent" points="-4,4 -4,-256.15 1102,-256.15 1102,4 -4,4"/>
<!-- Node1 -->
<g id="node1" class="node">
<title>Node1</title>
<g id="a_node1"><a xlink:title=" ">
<polygon fill="#bfbfbf" stroke="black" points="0,-101 0,-131 149,-131 149,-101 0,-101"/>
<text text-anchor="start" x="8" y="-119" font-family="Helvetica,sans-Serif" font-size="10.00">javolution.xml.XMLFormat.</text>
<text text-anchor="middle" x="74.5" y="-108" font-family="Helvetica,sans-Serif" font-size="10.00">InputElement.get</text>
</a>
</g>
</g>
<!-- Node2 -->
<g id="node2" class="node">
<title>Node2</title>
<g id="a_node2"><a xlink:href="../../d0/d36/classjavolution_1_1text_1_1CharArray.html#a63cd0fbe95d0342063ea7091dce0fa9c" target="_top" xlink:title=" ">
<polygon fill="white" stroke="black" points="210,-150.5 210,-169.5 383,-169.5 383,-150.5 210,-150.5"/>
<text text-anchor="middle" x="296.5" y="-157.5" font-family="Helvetica,sans-Serif" font-size="10.00">javolution.text.CharArray.equals</text>
</a>
</g>
</g>
<!-- Node1&#45;&gt;Node2 -->
<g id="edge1" class="edge">
<title>Node1&#45;&gt;Node2</title>
<path fill="none" stroke="midnightblue" d="M142.3,-131.05C156.38,-134.11 171.16,-137.23 185,-140 199.68,-142.94 215.49,-145.91 230.44,-148.63"/>
<polygon fill="midnightblue" stroke="midnightblue" points="230.16,-152.14 240.62,-150.48 231.41,-145.25 230.16,-152.14"/>
</g>
<!-- Node3 -->
<g id="node3" class="node">
<title>Node3</title>
<g id="a_node3"><a xlink:href="../../d0/d65/classjavolution_1_1xml_1_1internal_1_1stream_1_1XMLStreamReaderImpl.html#a058331c362bc6403282b1e954c7dd0a7" target="_top" xlink:title=" ">
<polygon fill="white" stroke="black" points="195,-101 195,-131 398,-131 398,-101 195,-101"/>
<text text-anchor="start" x="203" y="-119" font-family="Helvetica,sans-Serif" font-size="10.00">javolution.xml.internal.stream.</text>
<text text-anchor="middle" x="296.5" y="-108" font-family="Helvetica,sans-Serif" font-size="10.00">XMLStreamReaderImpl.getLocalName</text>
</a>
</g>
</g>
<!-- Node1&#45;&gt;Node3 -->
<g id="edge2" class="edge">
<title>Node1&#45;&gt;Node3</title>
<path fill="none" stroke="midnightblue" d="M149.06,-116C160.58,-116 172.69,-116 184.82,-116"/>
<polygon fill="midnightblue" stroke="midnightblue" points="185,-119.5 195,-116 185,-112.5 185,-119.5"/>
</g>
<!-- Node11 -->
<g id="node11" class="node">
<title>Node11</title>
<g id="a_node11"><a xlink:href="../../d0/d65/classjavolution_1_1xml_1_1internal_1_1stream_1_1XMLStreamReaderImpl.html#a45062be133de9488e3a0e6f4962d46d1" target="_top" xlink:title=" ">
<polygon fill="white" stroke="black" points="185,-52 185,-82 408,-82 408,-52 185,-52"/>
<text text-anchor="start" x="193" y="-70" font-family="Helvetica,sans-Serif" font-size="10.00">javolution.xml.internal.stream.</text>
<text text-anchor="middle" x="296.5" y="-59" font-family="Helvetica,sans-Serif" font-size="10.00">XMLStreamReaderImpl.getNamespaceURI</text>
</a>
</g>
</g>
<!-- Node1&#45;&gt;Node11 -->
<g id="edge12" class="edge">
<title>Node1&#45;&gt;Node11</title>
<path fill="none" stroke="midnightblue" d="M140.9,-100.95C155.42,-97.64 170.73,-94.18 185,-91 194.95,-88.78 205.4,-86.48 215.75,-84.22"/>
<polygon fill="midnightblue" stroke="midnightblue" points="216.6,-87.61 225.62,-82.06 215.11,-80.77 216.6,-87.61"/>
</g>
<!-- Node4 -->
<g id="node4" class="node">
<title>Node4</title>
<g id="a_node4"><a xlink:href="../../d0/d65/classjavolution_1_1xml_1_1internal_1_1stream_1_1XMLStreamReaderImpl.html#a7ec904380dc9205eec886c5136dc97f9" target="_top" xlink:title=" ">
<polygon fill="white" stroke="black" points="447.5,-55 447.5,-85 635.5,-85 635.5,-55 447.5,-55"/>
<text text-anchor="start" x="455.5" y="-73" font-family="Helvetica,sans-Serif" font-size="10.00">javolution.xml.internal.stream.</text>
<text text-anchor="middle" x="541.5" y="-62" font-family="Helvetica,sans-Serif" font-size="10.00">XMLStreamReaderImpl.illegalState</text>
</a>
</g>
</g>
<!-- Node3&#45;&gt;Node4 -->
<g id="edge3" class="edge">
<title>Node3&#45;&gt;Node4</title>
<path fill="none" stroke="midnightblue" d="M377.07,-100.94C400.79,-96.45 426.94,-91.5 451.24,-86.9"/>
<polygon fill="midnightblue" stroke="midnightblue" points="451.99,-90.32 461.17,-85.02 450.69,-83.44 451.99,-90.32"/>
</g>
<!-- Node5 -->
<g id="node5" class="node">
<title>Node5</title>
<g id="a_node5"><a xlink:href="../../d0/d36/classjavolution_1_1text_1_1CharArray.html#a1206e2076e25f1e66e1458328aa22baa" target="_top" xlink:title=" ">
<polygon fill="white" stroke="black" points="926,-213.5 926,-232.5 1098,-232.5 1098,-213.5 926,-213.5"/>
<text text-anchor="middle" x="1012" y="-220.5" font-family="Helvetica,sans-Serif" font-size="10.00">javolution.text.CharArray.length</text>
</a>
</g>
</g>
<!-- Node3&#45;&gt;Node5 -->
<g id="edge4" class="edge">
<title>Node3&#45;&gt;Node5</title>
<path fill="none" stroke="midnightblue" d="M387.16,-131.09C394.44,-133.86 401.49,-137.13 408,-141 428.84,-153.39 423.1,-169.71 444,-182 608.2,-278.59 847.14,-252.83 954.75,-234.31"/>
<polygon fill="midnightblue" stroke="midnightblue" points="955.51,-237.73 964.75,-232.55 954.3,-230.84 955.51,-237.73"/>
</g>
<!-- Node6 -->
<g id="node6" class="node">
<title>Node6</title>
<g id="a_node6"><a xlink:href="../../d0/d65/classjavolution_1_1xml_1_1internal_1_1stream_1_1XMLStreamReaderImpl.html#a81c3892a30b16f53265572c589d012ad" target="_top" xlink:title=" ">
<polygon fill="white" stroke="black" points="456.5,-143 456.5,-173 626.5,-173 626.5,-143 456.5,-143"/>
<text text-anchor="start" x="464.5" y="-161" font-family="Helvetica,sans-Serif" font-size="10.00">javolution.xml.internal.stream.</text>
<text text-anchor="middle" x="541.5" y="-150" font-family="Helvetica,sans-Serif" font-size="10.00">XMLStreamReaderImpl.newSeq</text>
</a>
</g>
</g>
<!-- Node3&#45;&gt;Node6 -->
<g id="edge5" class="edge">
<title>Node3&#45;&gt;Node6</title>
<path fill="none" stroke="midnightblue" d="M384.54,-131.04C404.55,-134.5 425.93,-138.2 446.23,-141.71"/>
<polygon fill="midnightblue" stroke="midnightblue" points="445.65,-145.16 456.1,-143.41 446.84,-138.26 445.65,-145.16"/>
</g>
<!-- Node10 -->
<g id="node10" class="node">
<title>Node10</title>
<g id="a_node10"><a xlink:href="../../d0/d36/classjavolution_1_1text_1_1CharArray.html#ad3531ca73d67202979d1b5586eab2521" target="_top" xlink:title=" ">
<polygon fill="white" stroke="black" points="927.5,-107.5 927.5,-126.5 1096.5,-126.5 1096.5,-107.5 927.5,-107.5"/>
<text text-anchor="middle" x="1012" y="-114.5" font-family="Helvetica,sans-Serif" font-size="10.00">javolution.text.CharArray.offset</text>
</a>
</g>
</g>
<!-- Node3&#45;&gt;Node10 -->
<g id="edge11" class="edge">
<title>Node3&#45;&gt;Node10</title>
<path fill="none" stroke="midnightblue" d="M398.21,-116.14C536.36,-116.33 782.77,-116.68 917.19,-116.87"/>
<polygon fill="midnightblue" stroke="midnightblue" points="917.46,-120.37 927.47,-116.88 917.47,-113.37 917.46,-120.37"/>
</g>
<!-- Node7 -->
<g id="node7" class="node">
<title>Node7</title>
<g id="a_node7"><a xlink:href="../../d0/d65/classjavolution_1_1xml_1_1internal_1_1stream_1_1XMLStreamReaderImpl.html#a05200d081c5258b99e11444bde03030c" target="_top" xlink:title=" ">
<polygon fill="white" stroke="black" points="694.5,-192 694.5,-222 870.5,-222 870.5,-192 694.5,-192"/>
<text text-anchor="start" x="702.5" y="-210" font-family="Helvetica,sans-Serif" font-size="10.00">javolution.xml.internal.stream.</text>
<text text-anchor="middle" x="782.5" y="-199" font-family="Helvetica,sans-Serif" font-size="10.00">XMLStreamReaderImpl.newSeq2</text>
</a>
</g>
</g>
<!-- Node6&#45;&gt;Node7 -->
<g id="edge6" class="edge">
<title>Node6&#45;&gt;Node7</title>
<path fill="none" stroke="midnightblue" d="M615.83,-173.03C641.87,-178.37 671.36,-184.42 698.18,-189.92"/>
<polygon fill="midnightblue" stroke="midnightblue" points="697.81,-193.41 708.31,-191.99 699.21,-186.56 697.81,-193.41"/>
</g>
<!-- Node8 -->
<g id="node8" class="node">
<title>Node8</title>
<g id="a_node8"><a xlink:href="../../d0/d36/classjavolution_1_1text_1_1CharArray.html#a4dba39b3010d6baa467b8ec3fdc561c4" target="_top" xlink:title=" ">
<polygon fill="white" stroke="black" points="704.5,-143 704.5,-173 860.5,-173 860.5,-143 704.5,-143"/>
<text text-anchor="start" x="712.5" y="-161" font-family="Helvetica,sans-Serif" font-size="10.00">javolution.text.CharArray.set</text>
<text text-anchor="middle" x="782.5" y="-150" font-family="Helvetica,sans-Serif" font-size="10.00">Array</text>
</a>
</g>
</g>
<!-- Node6&#45;&gt;Node8 -->
<g id="edge7" class="edge">
<title>Node6&#45;&gt;Node8</title>
<path fill="none" stroke="midnightblue" d="M626.76,-158C648.67,-158 672.32,-158 694.37,-158"/>
<polygon fill="midnightblue" stroke="midnightblue" points="694.38,-161.5 704.38,-158 694.38,-154.5 694.38,-161.5"/>
</g>
<!-- Node8&#45;&gt;Node5 -->
<g id="edge9" class="edge">
<title>Node8&#45;&gt;Node5</title>
<path fill="none" stroke="midnightblue" d="M855.08,-173.04C866.8,-175.82 878.78,-178.84 890,-182 919.15,-190.2 951.61,-201.31 975.57,-209.9"/>
<polygon fill="midnightblue" stroke="midnightblue" points="974.69,-213.3 985.28,-213.41 977.07,-206.72 974.69,-213.3"/>
</g>
<!-- Node9 -->
<g id="node9" class="node">
<title>Node9</title>
<g id="a_node9"><a xlink:href="../../d0/d36/classjavolution_1_1text_1_1CharArray.html#a1b743b96fd62cbec154a6ca6c5df9d03" target="_top" xlink:title=" ">
<polygon fill="white" stroke="black" points="928.5,-148.5 928.5,-167.5 1095.5,-167.5 1095.5,-148.5 928.5,-148.5"/>
<text text-anchor="middle" x="1012" y="-155.5" font-family="Helvetica,sans-Serif" font-size="10.00">javolution.text.CharArray.array</text>
</a>
</g>
</g>
<!-- Node8&#45;&gt;Node9 -->
<g id="edge8" class="edge">
<title>Node8&#45;&gt;Node9</title>
<path fill="none" stroke="midnightblue" d="M860.52,-158C878.99,-158 898.9,-158 918,-158"/>
<polygon fill="midnightblue" stroke="midnightblue" points="918.21,-161.5 928.21,-158 918.21,-154.5 918.21,-161.5"/>
</g>
<!-- Node8&#45;&gt;Node10 -->
<g id="edge10" class="edge">
<title>Node8&#45;&gt;Node10</title>
<path fill="none" stroke="midnightblue" d="M860.52,-144.12C888.98,-138.99 920.88,-133.24 947.96,-128.36"/>
<polygon fill="midnightblue" stroke="midnightblue" points="948.86,-131.75 958.08,-126.54 947.62,-124.87 948.86,-131.75"/>
</g>
<!-- Node11&#45;&gt;Node4 -->
<g id="edge15" class="edge">
<title>Node11&#45;&gt;Node4</title>
<path fill="none" stroke="midnightblue" d="M408.33,-68.37C417.89,-68.49 427.54,-68.61 437.04,-68.72"/>
<polygon fill="midnightblue" stroke="midnightblue" points="437.23,-72.23 447.28,-68.85 437.32,-65.23 437.23,-72.23"/>
</g>
<!-- Node12 -->
<g id="node12" class="node">
<title>Node12</title>
<g id="a_node12"><a xlink:href="../../dc/daa/classjavolution_1_1xml_1_1internal_1_1stream_1_1NamespacesImpl.html#a3416e6b495b44c9137a3213a570f4fb7" target="_top" xlink:title=" ">
<polygon fill="white" stroke="black" points="444,-6 444,-36 639,-36 639,-6 444,-6"/>
<text text-anchor="start" x="452" y="-24" font-family="Helvetica,sans-Serif" font-size="10.00">javolution.xml.internal.stream.</text>
<text text-anchor="middle" x="541.5" y="-13" font-family="Helvetica,sans-Serif" font-size="10.00">NamespacesImpl.getNamespaceURI</text>
</a>
</g>
</g>
<!-- Node11&#45;&gt;Node12 -->
<g id="edge13" class="edge">
<title>Node11&#45;&gt;Node12</title>
<path fill="none" stroke="midnightblue" d="M377.07,-51.94C400.79,-47.45 426.94,-42.5 451.24,-37.9"/>
<polygon fill="midnightblue" stroke="midnightblue" points="451.99,-41.32 461.17,-36.02 450.69,-34.44 451.99,-41.32"/>
</g>
<!-- Node13 -->
<g id="node13" class="node">
<title>Node13</title>
<g id="a_node13"><a xlink:href="../../dc/daa/classjavolution_1_1xml_1_1internal_1_1stream_1_1NamespacesImpl.html#a944dd086746ac448be3b3745133aaf0f" target="_top" xlink:title=" ">
<polygon fill="white" stroke="black" points="675,-0.5 675,-41.5 890,-41.5 890,-0.5 675,-0.5"/>
<text text-anchor="start" x="683" y="-29.5" font-family="Helvetica,sans-Serif" font-size="10.00">javolution.xml.internal.stream.</text>
<text text-anchor="start" x="683" y="-18.5" font-family="Helvetica,sans-Serif" font-size="10.00">NamespacesImpl.getNamespaceURINull</text>
<text text-anchor="middle" x="782.5" y="-7.5" font-family="Helvetica,sans-Serif" font-size="10.00">Allowed</text>
</a>
</g>
</g>
<!-- Node12&#45;&gt;Node13 -->
<g id="edge14" class="edge">
<title>Node12&#45;&gt;Node13</title>
<path fill="none" stroke="midnightblue" d="M639.02,-21C647.5,-21 656.13,-21 664.74,-21"/>
<polygon fill="midnightblue" stroke="midnightblue" points="664.84,-24.5 674.84,-21 664.84,-17.5 664.84,-24.5"/>
</g>
</g>
</svg>
        <g id="navigator" transform="translate(0 0)" fill="#404254">
                <rect fill="#f2f5e9" fill-opacity="0.5" stroke="#606060" stroke-width=".5" x="0" y="0" width="60" height="60"/>
                <use id="zoomplus" xlink:href="#zoomPlus" x="17" y="9" onmousedown="handleZoom(evt,'in')"/>
                <use id="zoomminus" xlink:href="#zoomMin" x="42" y="9" onmousedown="handleZoom(evt,'out')"/>
                <use id="reset" xlink:href="#resetDef" x="30" y="36" onmousedown="handleReset()"/>
                <g id="arrowUp" xlink:href="#dirArrow" transform="translate(30 24)" onmousedown="handlePan(0,-1)">
                  <use xlink:href="#rim" fill="#404040">
                        <set attributeName="fill" to="#808080" begin="arrowUp.mouseover" end="arrowUp.mouseout"/>
                  </use>
                  <path fill="none" stroke="white" stroke-width="1.5" d="M0,-3.0v7 M-2.5,-0.5L0,-3.0L2.5,-0.5"/>
                </g>
                <g id="arrowRight" xlink:href="#dirArrow" transform="rotate(90) translate(36 -43)" onmousedown="handlePan(1,0)">
                  <use xlink:href="#rim" fill="#404040">
                        <set attributeName="fill" to="#808080" begin="arrowRight.mouseover" end="arrowRight.mouseout"/>
                  </use>
                  <path fill="none" stroke="white" stroke-width="1.5" d="M0,-3.0v7 M-2.5,-0.5L0,-3.0L2.5,-0.5"/>
                </g>
                <g id="arrowDown" xlink:href="#dirArrow" transform="rotate(180) translate(-30 -48)" onmousedown="handlePan(0,1)">
                  <use xlink:href="#rim" fill="#404040">
                        <set attributeName="fill" to="#808080" begin="arrowDown.mouseover" end="arrowDown.mouseout"/>
                  </use>
                  <path fill="none" stroke="white" stroke-width="1.5" d="M0,-3.0v7 M-2.5,-0.5L0,-3.0L2.5,-0.5"/>
                </g>
                <g id="arrowLeft" xlink:href="#dirArrow" transform="rotate(270) translate(-36 17)" onmousedown="handlePan(-1,0)">
                  <use xlink:href="#rim" fill="#404040">
                        <set attributeName="fill" to="#808080" begin="arrowLeft.mouseover" end="arrowLeft.mouseout"/>
                  </use>
                  <path fill="none" stroke="white" stroke-width="1.5" d="M0,-3.0v7 M-2.5,-0.5L0,-3.0L2.5,-0.5"/>
                </g>
        </g>
        <svg viewBox="0 0 15 15" width="100%" height="30px" preserveAspectRatio="xMaxYMin meet">
         <g id="arrow_out" transform="scale(0.3 0.3)">
          <a xlink:href="classjavolution_1_1xml_1_1XMLFormat_1_1InputElement_ab1595ddb86de0fab4fc8108696f8b7d5_cgraph_org.svg" target="_base">
           <rect id="button" ry="5" rx="5" y="6" x="6" height="38" width="38"
                fill="#f2f5e9" fill-opacity="0.5" stroke="#606060" stroke-width="1.0"/>
           <path id="arrow"
             d="M 11.500037,31.436501 C 11.940474,20.09759 22.043105,11.32322 32.158766,21.979434 L 37.068811,17.246167 C 37.068811,17.246167 37.088388,32 37.088388,32 L 22.160133,31.978069 C 22.160133,31.978069 26.997745,27.140456 26.997745,27.140456 C 18.528582,18.264221 13.291696,25.230495 11.500037,31.436501 z"
             style="fill:#404040;"/>
          </a>
         </g>
        </svg>
</svg>
