<?xml version="1.0" encoding="UTF-8" standalone="no"?>
<!DOCTYPE svg PUBLIC "-//W3C//DTD SVG 1.1//EN"
 "http://www.w3.org/Graphics/SVG/1.1/DTD/svg11.dtd">
<!-- Generated by graphviz version 2.43.0 (0)
 -->
<!-- Title: javolution.util.service.CollectionService&lt; E &gt; Pages: 1 -->
<svg width="379pt" height="154pt"
 viewBox="0.00 0.00 379.00 154.00" xmlns="http://www.w3.org/2000/svg" xmlns:xlink="http://www.w3.org/1999/xlink">
<g id="graph0" class="graph" transform="scale(1 1) rotate(0) translate(4 150)">
<title>javolution.util.service.CollectionService&lt; E &gt;</title>
<polygon fill="white" stroke="transparent" points="-4,4 -4,-150 375,-150 375,4 -4,4"/>
<!-- Node1 -->
<g id="node1" class="node">
<title>Node1</title>
<g id="a_node1"><a xlink:title=" ">
<polygon fill="#bfbfbf" stroke="black" points="241,-55 241,-85 371,-85 371,-55 241,-55"/>
<text text-anchor="start" x="249" y="-73" font-family="Helvetica,sans-Serif" font-size="10.00">javolution.util.service.</text>
<text text-anchor="middle" x="306" y="-62" font-family="Helvetica,sans-Serif" font-size="10.00">CollectionService&lt; E &gt;</text>
</a>
</g>
</g>
<!-- Node2 -->
<g id="node2" class="node">
<title>Node2</title>
<g id="a_node2"><a xlink:title=" ">
<polygon fill="white" stroke="#bfbfbf" points="31,-126.5 31,-145.5 174,-145.5 174,-126.5 31,-126.5"/>
<text text-anchor="middle" x="102.5" y="-133.5" font-family="Helvetica,sans-Serif" font-size="10.00">java::util::Collection&lt; E &gt;</text>
</a>
</g>
</g>
<!-- Node2&#45;&gt;Node1 -->
<g id="edge1" class="edge">
<title>Node2&#45;&gt;Node1</title>
<path fill="none" stroke="midnightblue" d="M177.96,-124.32C187.16,-122.22 196.35,-119.79 205,-117 230.56,-108.75 258.07,-95.47 277.75,-85.12"/>
<polygon fill="midnightblue" stroke="midnightblue" points="177.04,-120.94 168.01,-126.48 178.52,-127.78 177.04,-120.94"/>
</g>
<!-- Node3 -->
<g id="node3" class="node">
<title>Node3</title>
<g id="a_node3"><a xlink:href="../../dd/ded/interfacejavolution_1_1util_1_1function_1_1Splittable.html" target="_top" xlink:title=" ">
<polygon fill="white" stroke="black" points="0,-77 0,-107 205,-107 205,-77 0,-77"/>
<text text-anchor="start" x="8" y="-95" font-family="Helvetica,sans-Serif" font-size="10.00">javolution::util::function</text>
<text text-anchor="middle" x="102.5" y="-84" font-family="Helvetica,sans-Serif" font-size="10.00">::Splittable&lt; CollectionService&lt; E &gt; &gt;</text>
</a>
</g>
</g>
<!-- Node3&#45;&gt;Node1 -->
<g id="edge2" class="edge">
<title>Node3&#45;&gt;Node1</title>
<path fill="none" stroke="midnightblue" d="M215.35,-79.79C224.02,-78.84 232.58,-77.91 240.77,-77.01"/>
<polygon fill="midnightblue" stroke="midnightblue" points="214.7,-76.34 205.14,-80.9 215.46,-83.3 214.7,-76.34"/>
</g>
<!-- Node4 -->
<g id="node4" class="node">
<title>Node4</title>
<g id="a_node4"><a xlink:title=" ">
<polygon fill="white" stroke="#bfbfbf" points="65.5,-38.5 65.5,-57.5 139.5,-57.5 139.5,-38.5 65.5,-38.5"/>
<text text-anchor="middle" x="102.5" y="-45.5" font-family="Helvetica,sans-Serif" font-size="10.00">Serializable</text>
</a>
</g>
</g>
<!-- Node4&#45;&gt;Node1 -->
<g id="edge3" class="edge">
<title>Node4&#45;&gt;Node1</title>
<path fill="none" stroke="midnightblue" d="M149.49,-53.02C176.51,-55.97 211.09,-59.75 240.78,-62.99"/>
<polygon fill="midnightblue" stroke="midnightblue" points="149.84,-49.54 139.52,-51.93 149.09,-56.5 149.84,-49.54"/>
</g>
<!-- Node5 -->
<g id="node5" class="node">
<title>Node5</title>
<g id="a_node5"><a xlink:href="../../d5/d48/classCloneable.html" target="_top" xlink:title=" ">
<polygon fill="white" stroke="black" points="70,-0.5 70,-19.5 135,-19.5 135,-0.5 70,-0.5"/>
<text text-anchor="middle" x="102.5" y="-7.5" font-family="Helvetica,sans-Serif" font-size="10.00">Cloneable</text>
</a>
</g>
</g>
<!-- Node5&#45;&gt;Node1 -->
<g id="edge4" class="edge">
<title>Node5&#45;&gt;Node1</title>
<path fill="none" stroke="midnightblue" d="M145.33,-15.86C163.82,-18.95 185.71,-23.3 205,-29 228.39,-35.91 253.82,-46.37 273.17,-55"/>
<polygon fill="midnightblue" stroke="midnightblue" points="145.87,-12.4 135.44,-14.27 144.76,-19.31 145.87,-12.4"/>
</g>
</g>
</svg>
