<?xml version="1.0" encoding="UTF-8" standalone="no"?>
<!DOCTYPE svg PUBLIC "-//W3C//DTD SVG 1.1//EN"
 "http://www.w3.org/Graphics/SVG/1.1/DTD/svg11.dtd">
<!-- Generated by graphviz version 2.43.0 (0)
 -->
<!-- Title: javolution.io.UTF8ByteBufferWriter Pages: 1 -->
<svg width="254pt" height="106pt"
 viewBox="0.00 0.00 253.50 106.00" xmlns="http://www.w3.org/2000/svg" xmlns:xlink="http://www.w3.org/1999/xlink">
<g id="graph0" class="graph" transform="scale(1 1) rotate(0) translate(4 102)">
<title>javolution.io.UTF8ByteBufferWriter</title>
<polygon fill="white" stroke="transparent" points="-4,4 -4,-102 249.5,-102 249.5,4 -4,4"/>
<!-- Node1 -->
<g id="node1" class="node">
<title>Node1</title>
<g id="a_node1"><a xlink:title=" ">
<polygon fill="#bfbfbf" stroke="black" points="20.5,-0.5 20.5,-30.5 178.5,-30.5 178.5,-0.5 20.5,-0.5"/>
<text text-anchor="start" x="28.5" y="-18.5" font-family="Helvetica,sans-Serif" font-size="10.00">javolution.io.UTF8ByteBuffer</text>
<text text-anchor="middle" x="99.5" y="-7.5" font-family="Helvetica,sans-Serif" font-size="10.00">Writer</text>
</a>
</g>
</g>
<!-- Node2 -->
<g id="node2" class="node">
<title>Node2</title>
<g id="a_node2"><a xlink:title=" ">
<polygon fill="white" stroke="#bfbfbf" points="0,-78.5 0,-97.5 47,-97.5 47,-78.5 0,-78.5"/>
<text text-anchor="middle" x="23.5" y="-85.5" font-family="Helvetica,sans-Serif" font-size="10.00">Writer</text>
</a>
</g>
</g>
<!-- Node2&#45;&gt;Node1 -->
<g id="edge1" class="edge">
<title>Node2&#45;&gt;Node1</title>
<path fill="none" stroke="midnightblue" d="M40.27,-71.44C53.43,-59.23 71.59,-42.39 84.33,-30.58"/>
<polygon fill="midnightblue" stroke="midnightblue" points="37.77,-68.99 32.82,-78.36 42.53,-74.12 37.77,-68.99"/>
</g>
<!-- Node3 -->
<g id="node3" class="node">
<title>Node3</title>
<g id="a_node3"><a xlink:title=" ">
<polygon fill="white" stroke="#bfbfbf" points="65.5,-78.5 65.5,-97.5 133.5,-97.5 133.5,-78.5 65.5,-78.5"/>
<text text-anchor="middle" x="99.5" y="-85.5" font-family="Helvetica,sans-Serif" font-size="10.00">ByteBuffer</text>
</a>
</g>
</g>
<!-- Node3&#45;&gt;Node1 -->
<g id="edge2" class="edge">
<title>Node3&#45;&gt;Node1</title>
<path fill="none" stroke="#9a32cd" stroke-dasharray="5,2" d="M99.5,-68.24C99.5,-56.41 99.5,-41.38 99.5,-30.58"/>
<polygon fill="#9a32cd" stroke="#9a32cd" points="96,-68.36 99.5,-78.36 103,-68.36 96,-68.36"/>
<text text-anchor="middle" x="129.5" y="-52" font-family="Helvetica,sans-Serif" font-size="10.00"> _byteBuffer</text>
</g>
<!-- Node4 -->
<g id="node4" class="node">
<title>Node4</title>
<g id="a_node4"><a xlink:title=" ">
<polygon fill="white" stroke="#bfbfbf" points="163.5,-78.5 163.5,-97.5 201.5,-97.5 201.5,-78.5 163.5,-78.5"/>
<text text-anchor="middle" x="182.5" y="-85.5" font-family="Helvetica,sans-Serif" font-size="10.00">char</text>
</a>
</g>
</g>
<!-- Node4&#45;&gt;Node1 -->
<g id="edge3" class="edge">
<title>Node4&#45;&gt;Node1</title>
<path fill="none" stroke="#9a32cd" stroke-dasharray="5,2" d="M174.7,-68.96C171.1,-62.11 166.32,-54.62 160.5,-49 152.9,-41.67 143.32,-35.53 134.02,-30.64"/>
<polygon fill="#9a32cd" stroke="#9a32cd" points="171.65,-70.71 179.11,-78.24 177.97,-67.7 171.65,-70.71"/>
<text text-anchor="middle" x="207" y="-52" font-family="Helvetica,sans-Serif" font-size="10.00"> _highSurrogate</text>
</g>
</g>
</svg>
