<?xml version="1.0" encoding="UTF-8" standalone="no"?>
<!DOCTYPE svg PUBLIC "-//W3C//DTD SVG 1.1//EN"
 "http://www.w3.org/Graphics/SVG/1.1/DTD/svg11.dtd">
<!-- Generated by graphviz version 2.43.0 (0)
 -->
<!-- Title: javolution.context.AbstractContext Pages: 1 -->
<svg width="234pt" height="117pt"
 viewBox="0.00 0.00 234.00 117.00" xmlns="http://www.w3.org/2000/svg" xmlns:xlink="http://www.w3.org/1999/xlink">
<g id="graph0" class="graph" transform="scale(1 1) rotate(0) translate(4 113)">
<title>javolution.context.AbstractContext</title>
<polygon fill="white" stroke="transparent" points="-4,4 -4,-113 230,-113 230,4 -4,4"/>
<!-- Node1 -->
<g id="node1" class="node">
<title>Node1</title>
<g id="a_node1"><a xlink:title=" ">
<polygon fill="#bfbfbf" stroke="black" points="30,-0.5 30,-30.5 179,-30.5 179,-0.5 30,-0.5"/>
<text text-anchor="start" x="38" y="-18.5" font-family="Helvetica,sans-Serif" font-size="10.00">javolution.context.Abstract</text>
<text text-anchor="middle" x="104.5" y="-7.5" font-family="Helvetica,sans-Serif" font-size="10.00">Context</text>
</a>
</g>
</g>
<!-- Node1&#45;&gt;Node1 -->
<g id="edge2" class="edge">
<title>Node1&#45;&gt;Node1</title>
<path fill="none" stroke="#9a32cd" stroke-dasharray="5,2" d="M189.19,-20.35C194.08,-19.19 197,-17.57 197,-15.5 197,-12.27 189.88,-10.14 179.26,-9.11"/>
<polygon fill="#9a32cd" stroke="#9a32cd" points="188.61,-16.9 179.26,-21.89 189.68,-23.82 188.61,-16.9"/>
<text text-anchor="middle" x="211.5" y="-13" font-family="Helvetica,sans-Serif" font-size="10.00"> outer</text>
</g>
<!-- Node2 -->
<g id="node2" class="node">
<title>Node2</title>
<g id="a_node2"><a xlink:title=" ">
<polygon fill="white" stroke="#bfbfbf" points="0,-78.5 0,-108.5 209,-108.5 209,-78.5 0,-78.5"/>
<text text-anchor="start" x="8" y="-96.5" font-family="Helvetica,sans-Serif" font-size="10.00">static final ThreadLocal</text>
<text text-anchor="middle" x="104.5" y="-85.5" font-family="Helvetica,sans-Serif" font-size="10.00">&lt; javolution.context.AbstractContext &gt;</text>
</a>
</g>
</g>
<!-- Node2&#45;&gt;Node1 -->
<g id="edge1" class="edge">
<title>Node2&#45;&gt;Node1</title>
<path fill="none" stroke="#9a32cd" stroke-dasharray="5,2" d="M104.5,-68.09C104.5,-55.76 104.5,-41.22 104.5,-30.73"/>
<polygon fill="#9a32cd" stroke="#9a32cd" points="101,-68.2 104.5,-78.2 108,-68.21 101,-68.2"/>
<text text-anchor="middle" x="130" y="-52" font-family="Helvetica,sans-Serif" font-size="10.00"> CURRENT</text>
</g>
</g>
</svg>
