<?xml version="1.0" encoding="UTF-8" standalone="no"?>
<!DOCTYPE svg PUBLIC "-//W3C//DTD SVG 1.1//EN"
 "http://www.w3.org/Graphics/SVG/1.1/DTD/svg11.dtd">
<!-- Generated by graphviz version 2.43.0 (0)
 -->
<!-- Title: javolution.text.internal.TextContextImpl Pages: 1 -->
<!--zoomable 161 -->
<svg id="main" version="1.1" xmlns="http://www.w3.org/2000/svg" xmlns:xlink="http://www.w3.org/1999/xlink" xml:space="preserve" onload="init(evt)">
<style type="text/css"><![CDATA[
.edge:hover path { stroke: red; }
.edge:hover polygon { stroke: red; fill: red; }
]]></style>
<script type="text/javascript"><![CDATA[
var edges = document.getElementsByTagName('g');
if (edges && edges.length) {
  for (var i=0;i<edges.length;i++) {
    if (edges[i].id.substr(0,4)=='edge') {
      edges[i].setAttribute('class','edge');
    }
  }
}
]]></script>
        <defs>
                <circle id="rim" cx="0" cy="0" r="7"/>
                <circle id="rim2" cx="0" cy="0" r="3.5"/>
                <g id="zoomPlus">
                        <use xlink:href="#rim" fill="#404040">
                                <set attributeName="fill" to="#808080" begin="zoomplus.mouseover" end="zoomplus.mouseout"/>
                        </use>
                        <path d="M-4,0h8M0,-4v8" fill="none" stroke="white" stroke-width="1.5" pointer-events="none"/>
                </g>
                <g id="zoomMin">
                        <use xlink:href="#rim" fill="#404040">
                                <set attributeName="fill" to="#808080" begin="zoomminus.mouseover" end="zoomminus.mouseout"/>
                        </use>
                        <path d="M-4,0h8" fill="none" stroke="white" stroke-width="1.5" pointer-events="none"/>
                </g>
                <g id="dirArrow">
                        <path fill="none" stroke="white" stroke-width="1.5" d="M0,-3.0v7 M-2.5,-0.5L0,-3.0L2.5,-0.5"/>
                </g>
               <g id="resetDef">
                       <use xlink:href="#rim2" fill="#404040">
                               <set attributeName="fill" to="#808080" begin="reset.mouseover" end="reset.mouseout"/>
                       </use>
               </g>
        </defs>

<script type="text/javascript">
var viewWidth = 1090;
var viewHeight = 161;
var sectionId = 'dynsection-1';
</script>
<script xlink:href="../../svgpan.js"/>
<svg id="graph" class="graph">
<g id="viewport">
<title>javolution.text.internal.TextContextImpl</title>
<polygon fill="white" stroke="transparent" points="-4,4 -4,-156.5 1086,-156.5 1086,4 -4,4"/>
<!-- Node1 -->
<g id="node1" class="node">
<title>Node1</title>
<g id="a_node1"><a xlink:title=" ">
<polygon fill="#bfbfbf" stroke="black" points="951,-44 951,-74 1082,-74 1082,-44 951,-44"/>
<text text-anchor="start" x="959" y="-62" font-family="Helvetica,sans-Serif" font-size="10.00">javolution.text.internal.</text>
<text text-anchor="middle" x="1016.5" y="-51" font-family="Helvetica,sans-Serif" font-size="10.00">TextContextImpl</text>
</a>
</g>
</g>
<!-- Node2 -->
<g id="node2" class="node">
<title>Node2</title>
<g id="a_node2"><a xlink:href="../../de/d60/classjavolution_1_1text_1_1TextContext.html" target="_top" xlink:title=" ">
<polygon fill="white" stroke="black" points="671,-98.5 671,-117.5 820,-117.5 820,-98.5 671,-98.5"/>
<text text-anchor="middle" x="745.5" y="-105.5" font-family="Helvetica,sans-Serif" font-size="10.00">javolution.text.TextContext</text>
</a>
</g>
</g>
<!-- Node2&#45;&gt;Node1 -->
<g id="edge1" class="edge">
<title>Node2&#45;&gt;Node1</title>
<path fill="none" stroke="midnightblue" d="M830.4,-100.95C862.69,-97.37 899.77,-92.22 933,-85 946.06,-82.16 960.01,-78.15 972.65,-74.13"/>
<polygon fill="midnightblue" stroke="midnightblue" points="829.66,-97.51 820.09,-102.05 830.41,-104.47 829.66,-97.51"/>
</g>
<!-- Node3 -->
<g id="node3" class="node">
<title>Node3</title>
<g id="a_node3"><a xlink:href="../../d0/d4f/classjavolution_1_1context_1_1FormatContext.html" target="_top" xlink:title=" ">
<polygon fill="white" stroke="black" points="482,-93 482,-123 625,-123 625,-93 482,-93"/>
<text text-anchor="start" x="490" y="-111" font-family="Helvetica,sans-Serif" font-size="10.00">javolution.context.Format</text>
<text text-anchor="middle" x="553.5" y="-100" font-family="Helvetica,sans-Serif" font-size="10.00">Context</text>
</a>
</g>
</g>
<!-- Node3&#45;&gt;Node2 -->
<g id="edge2" class="edge">
<title>Node3&#45;&gt;Node2</title>
<path fill="none" stroke="midnightblue" d="M635.47,-108C647.21,-108 659.25,-108 670.83,-108"/>
<polygon fill="midnightblue" stroke="midnightblue" points="635.25,-104.5 625.25,-108 635.25,-111.5 635.25,-104.5"/>
</g>
<!-- Node4 -->
<g id="node4" class="node">
<title>Node4</title>
<g id="a_node4"><a xlink:href="../../d3/d0f/classjavolution_1_1context_1_1AbstractContext.html" target="_top" xlink:title=" ">
<polygon fill="white" stroke="black" points="296,-93 296,-123 445,-123 445,-93 296,-93"/>
<text text-anchor="start" x="304" y="-111" font-family="Helvetica,sans-Serif" font-size="10.00">javolution.context.Abstract</text>
<text text-anchor="middle" x="370.5" y="-100" font-family="Helvetica,sans-Serif" font-size="10.00">Context</text>
</a>
</g>
</g>
<!-- Node4&#45;&gt;Node3 -->
<g id="edge3" class="edge">
<title>Node4&#45;&gt;Node3</title>
<path fill="none" stroke="midnightblue" d="M455.15,-108C464.09,-108 473.11,-108 481.87,-108"/>
<polygon fill="midnightblue" stroke="midnightblue" points="455.12,-104.5 445.12,-108 455.12,-111.5 455.12,-104.5"/>
</g>
<!-- Node4&#45;&gt;Node4 -->
<g id="edge5" class="edge">
<title>Node4&#45;&gt;Node4</title>
<path fill="none" stroke="#9a32cd" stroke-dasharray="5,2" d="M354.15,-133.46C356.18,-138.18 361.63,-141.5 370.5,-141.5 385.05,-141.5 390.4,-132.56 386.53,-123.16"/>
<polygon fill="#9a32cd" stroke="#9a32cd" points="357.66,-133.26 354.47,-123.16 350.66,-133.05 357.66,-133.26"/>
<text text-anchor="middle" x="370.5" y="-144.5" font-family="Helvetica,sans-Serif" font-size="10.00"> outer</text>
</g>
<!-- Node5 -->
<g id="node5" class="node">
<title>Node5</title>
<g id="a_node5"><a xlink:title=" ">
<polygon fill="white" stroke="#bfbfbf" points="0,-93 0,-123 209,-123 209,-93 0,-93"/>
<text text-anchor="start" x="8" y="-111" font-family="Helvetica,sans-Serif" font-size="10.00">static final ThreadLocal</text>
<text text-anchor="middle" x="104.5" y="-100" font-family="Helvetica,sans-Serif" font-size="10.00">&lt; javolution.context.AbstractContext &gt;</text>
</a>
</g>
</g>
<!-- Node5&#45;&gt;Node4 -->
<g id="edge4" class="edge">
<title>Node5&#45;&gt;Node4</title>
<path fill="none" stroke="#9a32cd" stroke-dasharray="5,2" d="M219.36,-108C245.32,-108 272.23,-108 295.98,-108"/>
<polygon fill="#9a32cd" stroke="#9a32cd" points="219.08,-104.5 209.08,-108 219.08,-111.5 219.08,-104.5"/>
<text text-anchor="middle" x="252.5" y="-111" font-family="Helvetica,sans-Serif" font-size="10.00"> CURRENT</text>
</g>
<!-- Node6 -->
<g id="node6" class="node">
<title>Node6</title>
<g id="a_node6"><a xlink:href="../../dd/d46/classjavolution_1_1util_1_1FastMap.html" target="_top" xlink:title=" ">
<polygon fill="white" stroke="black" points="667.5,-38.5 667.5,-79.5 823.5,-79.5 823.5,-38.5 667.5,-38.5"/>
<text text-anchor="start" x="675.5" y="-67.5" font-family="Helvetica,sans-Serif" font-size="10.00">javolution.util.FastMap</text>
<text text-anchor="start" x="675.5" y="-56.5" font-family="Helvetica,sans-Serif" font-size="10.00">&lt; Class&lt;?&gt;, javolution.text.</text>
<text text-anchor="middle" x="745.5" y="-45.5" font-family="Helvetica,sans-Serif" font-size="10.00">TextFormat&lt;?&gt; &gt;</text>
</a>
</g>
</g>
<!-- Node6&#45;&gt;Node1 -->
<g id="edge6" class="edge">
<title>Node6&#45;&gt;Node1</title>
<path fill="none" stroke="#9a32cd" stroke-dasharray="5,2" d="M833.64,-59C871.7,-59 915.57,-59 950.68,-59"/>
<polygon fill="#9a32cd" stroke="#9a32cd" points="833.58,-55.5 823.58,-59 833.58,-62.5 833.58,-55.5"/>
<text text-anchor="middle" x="890" y="-73" font-family="Helvetica,sans-Serif" font-size="10.00"> localFormats</text>
<text text-anchor="middle" x="890" y="-62" font-family="Helvetica,sans-Serif" font-size="10.00">defaultFormats</text>
</g>
<!-- Node7 -->
<g id="node7" class="node">
<title>Node7</title>
<g id="a_node7"><a xlink:href="../../d3/d4f/classjavolution_1_1text_1_1TextFormat.html" target="_top" xlink:title=" ">
<polygon fill="white" stroke="black" points="662,-0.5 662,-19.5 829,-19.5 829,-0.5 662,-0.5"/>
<text text-anchor="middle" x="745.5" y="-7.5" font-family="Helvetica,sans-Serif" font-size="10.00">javolution.text.TextFormat&lt;?&gt;</text>
</a>
</g>
</g>
<!-- Node7&#45;&gt;Node1 -->
<g id="edge7" class="edge">
<title>Node7&#45;&gt;Node1</title>
<path fill="none" stroke="#9a32cd" stroke-dasharray="5,2" d="M808.64,-21.32C851.19,-29.07 907.5,-39.33 950.62,-47.18"/>
<polygon fill="#9a32cd" stroke="#9a32cd" points="809.15,-17.85 798.68,-19.51 807.9,-24.74 809.15,-17.85"/>
<text text-anchor="middle" x="890" y="-47" font-family="Helvetica,sans-Serif" font-size="10.00"> OBJECT_FORMAT</text>
</g>
</g>
</svg>
        <g id="navigator" transform="translate(0 0)" fill="#404254">
                <rect fill="#f2f5e9" fill-opacity="0.5" stroke="#606060" stroke-width=".5" x="0" y="0" width="60" height="60"/>
                <use id="zoomplus" xlink:href="#zoomPlus" x="17" y="9" onmousedown="handleZoom(evt,'in')"/>
                <use id="zoomminus" xlink:href="#zoomMin" x="42" y="9" onmousedown="handleZoom(evt,'out')"/>
                <use id="reset" xlink:href="#resetDef" x="30" y="36" onmousedown="handleReset()"/>
                <g id="arrowUp" xlink:href="#dirArrow" transform="translate(30 24)" onmousedown="handlePan(0,-1)">
                  <use xlink:href="#rim" fill="#404040">
                        <set attributeName="fill" to="#808080" begin="arrowUp.mouseover" end="arrowUp.mouseout"/>
                  </use>
                  <path fill="none" stroke="white" stroke-width="1.5" d="M0,-3.0v7 M-2.5,-0.5L0,-3.0L2.5,-0.5"/>
                </g>
                <g id="arrowRight" xlink:href="#dirArrow" transform="rotate(90) translate(36 -43)" onmousedown="handlePan(1,0)">
                  <use xlink:href="#rim" fill="#404040">
                        <set attributeName="fill" to="#808080" begin="arrowRight.mouseover" end="arrowRight.mouseout"/>
                  </use>
                  <path fill="none" stroke="white" stroke-width="1.5" d="M0,-3.0v7 M-2.5,-0.5L0,-3.0L2.5,-0.5"/>
                </g>
                <g id="arrowDown" xlink:href="#dirArrow" transform="rotate(180) translate(-30 -48)" onmousedown="handlePan(0,1)">
                  <use xlink:href="#rim" fill="#404040">
                        <set attributeName="fill" to="#808080" begin="arrowDown.mouseover" end="arrowDown.mouseout"/>
                  </use>
                  <path fill="none" stroke="white" stroke-width="1.5" d="M0,-3.0v7 M-2.5,-0.5L0,-3.0L2.5,-0.5"/>
                </g>
                <g id="arrowLeft" xlink:href="#dirArrow" transform="rotate(270) translate(-36 17)" onmousedown="handlePan(-1,0)">
                  <use xlink:href="#rim" fill="#404040">
                        <set attributeName="fill" to="#808080" begin="arrowLeft.mouseover" end="arrowLeft.mouseout"/>
                  </use>
                  <path fill="none" stroke="white" stroke-width="1.5" d="M0,-3.0v7 M-2.5,-0.5L0,-3.0L2.5,-0.5"/>
                </g>
        </g>
        <svg viewBox="0 0 15 15" width="100%" height="30px" preserveAspectRatio="xMaxYMin meet">
         <g id="arrow_out" transform="scale(0.3 0.3)">
          <a xlink:href="classjavolution_1_1text_1_1internal_1_1TextContextImpl__coll__graph_org.svg" target="_base">
           <rect id="button" ry="5" rx="5" y="6" x="6" height="38" width="38"
                fill="#f2f5e9" fill-opacity="0.5" stroke="#606060" stroke-width="1.0"/>
           <path id="arrow"
             d="M 11.500037,31.436501 C 11.940474,20.09759 22.043105,11.32322 32.158766,21.979434 L 37.068811,17.246167 C 37.068811,17.246167 37.088388,32 37.088388,32 L 22.160133,31.978069 C 22.160133,31.978069 26.997745,27.140456 26.997745,27.140456 C 18.528582,18.264221 13.291696,25.230495 11.500037,31.436501 z"
             style="fill:#404040;"/>
          </a>
         </g>
        </svg>
</svg>
