<?xml version="1.0" encoding="UTF-8" standalone="no"?>
<!DOCTYPE svg PUBLIC "-//W3C//DTD SVG 1.1//EN"
 "http://www.w3.org/Graphics/SVG/1.1/DTD/svg11.dtd">
<!-- Generated by graphviz version 2.43.0 (0)
 -->
<!-- Title: javolution.util.FastCollection.toString Pages: 1 -->
<svg width="798pt" height="112pt"
 viewBox="0.00 0.00 798.00 112.00" xmlns="http://www.w3.org/2000/svg" xmlns:xlink="http://www.w3.org/1999/xlink">
<g id="graph0" class="graph" transform="scale(1 1) rotate(0) translate(4 108)">
<title>javolution.util.FastCollection.toString</title>
<polygon fill="white" stroke="transparent" points="-4,4 -4,-108 794,-108 794,4 -4,4"/>
<!-- Node1 -->
<g id="node1" class="node">
<title>Node1</title>
<g id="a_node1"><a xlink:title=" ">
<polygon fill="#bfbfbf" stroke="black" points="0,-24.5 0,-54.5 168,-54.5 168,-24.5 0,-24.5"/>
<text text-anchor="start" x="8" y="-42.5" font-family="Helvetica,sans-Serif" font-size="10.00">javolution.util.FastCollection.to</text>
<text text-anchor="middle" x="84" y="-31.5" font-family="Helvetica,sans-Serif" font-size="10.00">String</text>
</a>
</g>
</g>
<!-- Node2 -->
<g id="node2" class="node">
<title>Node2</title>
<g id="a_node2"><a xlink:href="../../de/d60/classjavolution_1_1text_1_1TextContext.html#aa84f4f13ceb88b9aadd66a8caec6b333" target="_top" xlink:title=" ">
<polygon fill="white" stroke="black" points="204,-24.5 204,-54.5 372,-54.5 372,-24.5 204,-24.5"/>
<text text-anchor="start" x="212" y="-42.5" font-family="Helvetica,sans-Serif" font-size="10.00">javolution.text.TextContext.get</text>
<text text-anchor="middle" x="288" y="-31.5" font-family="Helvetica,sans-Serif" font-size="10.00">Format</text>
</a>
</g>
</g>
<!-- Node1&#45;&gt;Node2 -->
<g id="edge1" class="edge">
<title>Node1&#45;&gt;Node2</title>
<path fill="none" stroke="midnightblue" d="M168.04,-39.5C176.56,-39.5 185.26,-39.5 193.89,-39.5"/>
<polygon fill="midnightblue" stroke="midnightblue" points="193.96,-43 203.96,-39.5 193.96,-36 193.96,-43"/>
</g>
<!-- Node3 -->
<g id="node3" class="node">
<title>Node3</title>
<g id="a_node3"><a xlink:href="../../de/d60/classjavolution_1_1text_1_1TextContext.html#aca9706d5c011b67755b1e162a5858d61" target="_top" xlink:title=" ">
<polygon fill="white" stroke="black" points="408,-49.5 408,-79.5 595,-79.5 595,-49.5 408,-49.5"/>
<text text-anchor="start" x="416" y="-67.5" font-family="Helvetica,sans-Serif" font-size="10.00">javolution.text.TextContext.current</text>
<text text-anchor="middle" x="501.5" y="-56.5" font-family="Helvetica,sans-Serif" font-size="10.00">TextContext</text>
</a>
</g>
</g>
<!-- Node2&#45;&gt;Node3 -->
<g id="edge2" class="edge">
<title>Node2&#45;&gt;Node3</title>
<path fill="none" stroke="midnightblue" d="M372.29,-49.34C380.68,-50.34 389.27,-51.35 397.83,-52.36"/>
<polygon fill="midnightblue" stroke="midnightblue" points="397.51,-55.85 407.86,-53.55 398.34,-48.9 397.51,-55.85"/>
</g>
<!-- Node6 -->
<g id="node6" class="node">
<title>Node6</title>
<g id="a_node6"><a xlink:href="../../de/d60/classjavolution_1_1text_1_1TextContext.html#aa42396fe47eb1c99f793a6c5339c5fe6" target="_top" xlink:title=" ">
<polygon fill="white" stroke="black" points="409,-0.5 409,-30.5 594,-30.5 594,-0.5 409,-0.5"/>
<text text-anchor="start" x="417" y="-18.5" font-family="Helvetica,sans-Serif" font-size="10.00">javolution.text.TextContext.search</text>
<text text-anchor="middle" x="501.5" y="-7.5" font-family="Helvetica,sans-Serif" font-size="10.00">Format</text>
</a>
</g>
</g>
<!-- Node2&#45;&gt;Node6 -->
<g id="edge5" class="edge">
<title>Node2&#45;&gt;Node6</title>
<path fill="none" stroke="midnightblue" d="M372.29,-30.05C381.02,-29.06 389.97,-28.04 398.88,-27.03"/>
<polygon fill="midnightblue" stroke="midnightblue" points="399.37,-30.5 408.91,-25.89 398.58,-23.54 399.37,-30.5"/>
</g>
<!-- Node4 -->
<g id="node4" class="node">
<title>Node4</title>
<g id="a_node4"><a xlink:href="../../d3/d0f/classjavolution_1_1context_1_1AbstractContext.html#a39804b0188cf822819d88f43715deaba" target="_top" xlink:title=" ">
<polygon fill="white" stroke="black" points="636,-73.5 636,-103.5 785,-103.5 785,-73.5 636,-73.5"/>
<text text-anchor="start" x="644" y="-91.5" font-family="Helvetica,sans-Serif" font-size="10.00">javolution.context.Abstract</text>
<text text-anchor="middle" x="710.5" y="-80.5" font-family="Helvetica,sans-Serif" font-size="10.00">Context.current</text>
</a>
</g>
</g>
<!-- Node3&#45;&gt;Node4 -->
<g id="edge3" class="edge">
<title>Node3&#45;&gt;Node4</title>
<path fill="none" stroke="midnightblue" d="M595.1,-75.24C605.36,-76.43 615.75,-77.63 625.89,-78.81"/>
<polygon fill="midnightblue" stroke="midnightblue" points="625.58,-82.29 635.92,-79.97 626.39,-75.34 625.58,-82.29"/>
</g>
<!-- Node5 -->
<g id="node5" class="node">
<title>Node5</title>
<g id="a_node5"><a xlink:href="../../d8/d20/classjavolution_1_1osgi_1_1internal_1_1OSGiServices.html#a31df875a20f78682380317e651cdaf47" target="_top" xlink:title=" ">
<polygon fill="white" stroke="black" points="631,-24.5 631,-54.5 790,-54.5 790,-24.5 631,-24.5"/>
<text text-anchor="start" x="639" y="-42.5" font-family="Helvetica,sans-Serif" font-size="10.00">javolution.osgi.internal.</text>
<text text-anchor="middle" x="710.5" y="-31.5" font-family="Helvetica,sans-Serif" font-size="10.00">OSGiServices.getTextContext</text>
</a>
</g>
</g>
<!-- Node3&#45;&gt;Node5 -->
<g id="edge4" class="edge">
<title>Node3&#45;&gt;Node5</title>
<path fill="none" stroke="midnightblue" d="M595.1,-53.32C603.69,-52.28 612.38,-51.23 620.93,-50.2"/>
<polygon fill="midnightblue" stroke="midnightblue" points="621.38,-53.67 630.89,-48.99 620.54,-46.72 621.38,-53.67"/>
</g>
</g>
</svg>
