<?xml version="1.0" encoding="UTF-8" standalone="no"?>
<!DOCTYPE svg PUBLIC "-//W3C//DTD SVG 1.1//EN"
 "http://www.w3.org/Graphics/SVG/1.1/DTD/svg11.dtd">
<!-- Generated by graphviz version 2.43.0 (0)
 -->
<!-- Title: javolution.util.internal.set.sorted.SortedSetView&lt; E &gt; Pages: 1 -->
<svg width="1269pt" height="159pt"
 viewBox="0.00 0.00 1269.00 159.00" xmlns="http://www.w3.org/2000/svg" xmlns:xlink="http://www.w3.org/1999/xlink">
<g id="graph0" class="graph" transform="scale(1 1) rotate(0) translate(4 155)">
<title>javolution.util.internal.set.sorted.SortedSetView&lt; E &gt;</title>
<polygon fill="white" stroke="transparent" points="-4,4 -4,-155 1265,-155 1265,4 -4,4"/>
<!-- Node1 -->
<g id="node1" class="node">
<title>Node1</title>
<g id="a_node1"><a xlink:title=" ">
<polygon fill="#bfbfbf" stroke="black" points="850,-41 850,-71 1029,-71 1029,-41 850,-41"/>
<text text-anchor="start" x="858" y="-59" font-family="Helvetica,sans-Serif" font-size="10.00">javolution.util.internal.set.sorted.</text>
<text text-anchor="middle" x="939.5" y="-48" font-family="Helvetica,sans-Serif" font-size="10.00">SortedSetView&lt; E &gt;</text>
</a>
</g>
</g>
<!-- Node14 -->
<g id="node14" class="node">
<title>Node14</title>
<g id="a_node14"><a xlink:href="../../d6/de2/classjavolution_1_1util_1_1internal_1_1set_1_1sorted_1_1SubSortedSetImpl.html" target="_top" xlink:title=" ">
<polygon fill="white" stroke="black" points="1065,-41 1065,-71 1261,-71 1261,-41 1065,-41"/>
<text text-anchor="start" x="1073" y="-59" font-family="Helvetica,sans-Serif" font-size="10.00">javolution::util::internal</text>
<text text-anchor="middle" x="1163" y="-48" font-family="Helvetica,sans-Serif" font-size="10.00">::set::sorted::SubSortedSetImpl&lt; E &gt;</text>
</a>
</g>
</g>
<!-- Node1&#45;&gt;Node14 -->
<g id="edge17" class="edge">
<title>Node1&#45;&gt;Node14</title>
<path fill="none" stroke="midnightblue" d="M1039.51,-56C1047.92,-56 1056.42,-56 1064.81,-56"/>
<polygon fill="midnightblue" stroke="midnightblue" points="1039.32,-52.5 1029.32,-56 1039.32,-59.5 1039.32,-52.5"/>
</g>
<!-- Node2 -->
<g id="node2" class="node">
<title>Node2</title>
<g id="a_node2"><a xlink:href="../../db/dea/classjavolution_1_1util_1_1internal_1_1set_1_1SetView.html" target="_top" xlink:title=" ">
<polygon fill="white" stroke="black" points="681.5,-66 681.5,-96 812.5,-96 812.5,-66 681.5,-66"/>
<text text-anchor="start" x="689.5" y="-84" font-family="Helvetica,sans-Serif" font-size="10.00">javolution::util::internal</text>
<text text-anchor="middle" x="747" y="-73" font-family="Helvetica,sans-Serif" font-size="10.00">::set::SetView&lt; E &gt;</text>
</a>
</g>
</g>
<!-- Node2&#45;&gt;Node1 -->
<g id="edge1" class="edge">
<title>Node2&#45;&gt;Node1</title>
<path fill="none" stroke="midnightblue" d="M822.73,-71.19C831.66,-70.02 840.85,-68.81 849.96,-67.62"/>
<polygon fill="midnightblue" stroke="midnightblue" points="822.22,-67.73 812.76,-72.5 823.13,-74.67 822.22,-67.73"/>
</g>
<!-- Node3 -->
<g id="node3" class="node">
<title>Node3</title>
<g id="a_node3"><a xlink:href="../../d1/d40/classjavolution_1_1util_1_1internal_1_1collection_1_1CollectionView.html" target="_top" xlink:title=" ">
<polygon fill="white" stroke="black" points="467,-88 467,-118 644,-118 644,-88 467,-88"/>
<text text-anchor="start" x="475" y="-106" font-family="Helvetica,sans-Serif" font-size="10.00">javolution::util::internal</text>
<text text-anchor="middle" x="555.5" y="-95" font-family="Helvetica,sans-Serif" font-size="10.00">::collection::CollectionView&lt; E &gt;</text>
</a>
</g>
</g>
<!-- Node3&#45;&gt;Node2 -->
<g id="edge2" class="edge">
<title>Node3&#45;&gt;Node2</title>
<path fill="none" stroke="midnightblue" d="M654.1,-91.67C663.38,-90.59 672.63,-89.52 681.47,-88.49"/>
<polygon fill="midnightblue" stroke="midnightblue" points="653.57,-88.21 644.04,-92.84 654.38,-95.16 653.57,-88.21"/>
</g>
<!-- Node4 -->
<g id="node4" class="node">
<title>Node4</title>
<g id="a_node4"><a xlink:href="../../dc/d19/classjavolution_1_1util_1_1FastCollection.html" target="_top" xlink:title=" ">
<polygon fill="white" stroke="black" points="241,-112.5 241,-131.5 431,-131.5 431,-112.5 241,-112.5"/>
<text text-anchor="middle" x="336" y="-119.5" font-family="Helvetica,sans-Serif" font-size="10.00">javolution::util::FastCollection&lt; E &gt;</text>
</a>
</g>
</g>
<!-- Node4&#45;&gt;Node3 -->
<g id="edge3" class="edge">
<title>Node4&#45;&gt;Node3</title>
<path fill="none" stroke="midnightblue" d="M441.15,-112.9C449.72,-112.15 458.32,-111.4 466.74,-110.67"/>
<polygon fill="midnightblue" stroke="midnightblue" points="440.79,-109.42 431.13,-113.78 441.4,-116.39 440.79,-109.42"/>
</g>
<!-- Node5 -->
<g id="node5" class="node">
<title>Node5</title>
<g id="a_node5"><a xlink:title=" ">
<polygon fill="white" stroke="#bfbfbf" points="31,-131.5 31,-150.5 174,-150.5 174,-131.5 31,-131.5"/>
<text text-anchor="middle" x="102.5" y="-138.5" font-family="Helvetica,sans-Serif" font-size="10.00">java::util::Collection&lt; E &gt;</text>
</a>
</g>
</g>
<!-- Node5&#45;&gt;Node4 -->
<g id="edge4" class="edge">
<title>Node5&#45;&gt;Node4</title>
<path fill="none" stroke="midnightblue" d="M184.22,-134.37C202.5,-132.88 222.06,-131.27 240.83,-129.73"/>
<polygon fill="midnightblue" stroke="midnightblue" points="183.9,-130.89 174.22,-135.2 184.47,-137.87 183.9,-130.89"/>
</g>
<!-- Node7 -->
<g id="node7" class="node">
<title>Node7</title>
<g id="a_node7"><a xlink:href="../../dd/d6c/interfacejavolution_1_1util_1_1service_1_1CollectionService.html" target="_top" xlink:title=" ">
<polygon fill="white" stroke="black" points="268,-63 268,-93 404,-93 404,-63 268,-63"/>
<text text-anchor="start" x="276" y="-81" font-family="Helvetica,sans-Serif" font-size="10.00">javolution::util::service</text>
<text text-anchor="middle" x="336" y="-70" font-family="Helvetica,sans-Serif" font-size="10.00">::CollectionService&lt; E &gt;</text>
</a>
</g>
</g>
<!-- Node5&#45;&gt;Node7 -->
<g id="edge7" class="edge">
<title>Node5&#45;&gt;Node7</title>
<path fill="none" stroke="midnightblue" d="M180.24,-129.19C188.69,-127.14 197.09,-124.76 205,-122 222.08,-116.05 224.15,-109.59 241,-103 250.44,-99.31 260.61,-95.98 270.66,-93.03"/>
<polygon fill="midnightblue" stroke="midnightblue" points="179.29,-125.82 170.32,-131.46 180.84,-132.64 179.29,-125.82"/>
</g>
<!-- Node6 -->
<g id="node6" class="node">
<title>Node6</title>
<g id="a_node6"><a xlink:title=" ">
<polygon fill="white" stroke="#bfbfbf" points="65.5,-93.5 65.5,-112.5 139.5,-112.5 139.5,-93.5 65.5,-93.5"/>
<text text-anchor="middle" x="102.5" y="-100.5" font-family="Helvetica,sans-Serif" font-size="10.00">Serializable</text>
</a>
</g>
</g>
<!-- Node6&#45;&gt;Node4 -->
<g id="edge5" class="edge">
<title>Node6&#45;&gt;Node4</title>
<path fill="none" stroke="midnightblue" d="M149.66,-106.79C175.8,-108.93 209.47,-111.7 240.92,-114.28"/>
<polygon fill="midnightblue" stroke="midnightblue" points="149.92,-103.3 139.67,-105.97 149.35,-110.28 149.92,-103.3"/>
</g>
<!-- Node6&#45;&gt;Node7 -->
<g id="edge9" class="edge">
<title>Node6&#45;&gt;Node7</title>
<path fill="none" stroke="midnightblue" d="M149.74,-98.01C183.57,-94.35 229.98,-89.34 267.89,-85.25"/>
<polygon fill="midnightblue" stroke="midnightblue" points="149.24,-94.54 139.67,-99.09 149.99,-101.5 149.24,-94.54"/>
</g>
<!-- Node7&#45;&gt;Node3 -->
<g id="edge6" class="edge">
<title>Node7&#45;&gt;Node3</title>
<path fill="none" stroke="midnightblue" d="M414.44,-86.9C431.42,-88.85 449.51,-90.93 466.85,-92.93"/>
<polygon fill="midnightblue" stroke="midnightblue" points="414.37,-83.37 404.03,-85.7 413.57,-90.32 414.37,-83.37"/>
</g>
<!-- Node10 -->
<g id="node10" class="node">
<title>Node10</title>
<g id="a_node10"><a xlink:href="../../d6/d3e/interfacejavolution_1_1util_1_1service_1_1SetService.html" target="_top" xlink:title=" ">
<polygon fill="white" stroke="black" points="491.5,-39 491.5,-69 619.5,-69 619.5,-39 491.5,-39"/>
<text text-anchor="start" x="499.5" y="-57" font-family="Helvetica,sans-Serif" font-size="10.00">javolution::util::service</text>
<text text-anchor="middle" x="555.5" y="-46" font-family="Helvetica,sans-Serif" font-size="10.00">::SetService&lt; E &gt;</text>
</a>
</g>
</g>
<!-- Node7&#45;&gt;Node10 -->
<g id="edge12" class="edge">
<title>Node7&#45;&gt;Node10</title>
<path fill="none" stroke="midnightblue" d="M413.98,-69.51C439.33,-66.71 467.21,-63.63 491.4,-60.96"/>
<polygon fill="midnightblue" stroke="midnightblue" points="413.59,-66.03 404.03,-70.6 414.36,-72.99 413.59,-66.03"/>
</g>
<!-- Node8 -->
<g id="node8" class="node">
<title>Node8</title>
<g id="a_node8"><a xlink:href="../../dd/ded/interfacejavolution_1_1util_1_1function_1_1Splittable.html" target="_top" xlink:title=" ">
<polygon fill="white" stroke="black" points="0,-44 0,-74 205,-74 205,-44 0,-44"/>
<text text-anchor="start" x="8" y="-62" font-family="Helvetica,sans-Serif" font-size="10.00">javolution::util::function</text>
<text text-anchor="middle" x="102.5" y="-51" font-family="Helvetica,sans-Serif" font-size="10.00">::Splittable&lt; CollectionService&lt; E &gt; &gt;</text>
</a>
</g>
</g>
<!-- Node8&#45;&gt;Node7 -->
<g id="edge8" class="edge">
<title>Node8&#45;&gt;Node7</title>
<path fill="none" stroke="midnightblue" d="M215.04,-68.15C233.09,-69.64 251.28,-71.13 267.84,-72.49"/>
<polygon fill="midnightblue" stroke="midnightblue" points="215.29,-64.66 205.04,-67.33 214.72,-71.64 215.29,-64.66"/>
</g>
<!-- Node9 -->
<g id="node9" class="node">
<title>Node9</title>
<g id="a_node9"><a xlink:href="../../d5/d48/classCloneable.html" target="_top" xlink:title=" ">
<polygon fill="white" stroke="black" points="70,-5.5 70,-24.5 135,-24.5 135,-5.5 70,-5.5"/>
<text text-anchor="middle" x="102.5" y="-12.5" font-family="Helvetica,sans-Serif" font-size="10.00">Cloneable</text>
</a>
</g>
</g>
<!-- Node9&#45;&gt;Node7 -->
<g id="edge10" class="edge">
<title>Node9&#45;&gt;Node7</title>
<path fill="none" stroke="midnightblue" d="M145.19,-19.92C163.83,-22.85 185.86,-27.33 205,-34 222.08,-39.95 224.15,-46.41 241,-53 250.44,-56.69 260.61,-60.02 270.66,-62.97"/>
<polygon fill="midnightblue" stroke="midnightblue" points="145.63,-16.44 135.23,-18.45 144.61,-23.37 145.63,-16.44"/>
</g>
<!-- Node10&#45;&gt;Node2 -->
<g id="edge11" class="edge">
<title>Node10&#45;&gt;Node2</title>
<path fill="none" stroke="midnightblue" d="M629.5,-64.4C646.54,-66.83 664.58,-69.4 681.23,-71.77"/>
<polygon fill="midnightblue" stroke="midnightblue" points="629.99,-60.94 619.6,-62.99 629.01,-67.87 629.99,-60.94"/>
</g>
<!-- Node12 -->
<g id="node12" class="node">
<title>Node12</title>
<g id="a_node12"><a xlink:href="../../de/da6/interfacejavolution_1_1util_1_1service_1_1SortedSetService.html" target="_top" xlink:title=" ">
<polygon fill="white" stroke="black" points="680,-17 680,-47 814,-47 814,-17 680,-17"/>
<text text-anchor="start" x="688" y="-35" font-family="Helvetica,sans-Serif" font-size="10.00">javolution::util::service</text>
<text text-anchor="middle" x="747" y="-24" font-family="Helvetica,sans-Serif" font-size="10.00">::SortedSetService&lt; E &gt;</text>
</a>
</g>
</g>
<!-- Node10&#45;&gt;Node12 -->
<g id="edge15" class="edge">
<title>Node10&#45;&gt;Node12</title>
<path fill="none" stroke="midnightblue" d="M629.75,-45.5C646.28,-43.58 663.72,-41.55 679.93,-39.67"/>
<polygon fill="midnightblue" stroke="midnightblue" points="629.13,-42.04 619.6,-46.67 629.94,-49 629.13,-42.04"/>
</g>
<!-- Node11 -->
<g id="node11" class="node">
<title>Node11</title>
<g id="a_node11"><a xlink:title=" ">
<polygon fill="white" stroke="#bfbfbf" points="281,-24.5 281,-43.5 391,-43.5 391,-24.5 281,-24.5"/>
<text text-anchor="middle" x="336" y="-31.5" font-family="Helvetica,sans-Serif" font-size="10.00">java::util::Set&lt; E &gt;</text>
</a>
</g>
</g>
<!-- Node11&#45;&gt;Node10 -->
<g id="edge13" class="edge">
<title>Node11&#45;&gt;Node10</title>
<path fill="none" stroke="midnightblue" d="M401.29,-39.91C429.77,-42.53 463.15,-45.6 491.47,-48.2"/>
<polygon fill="midnightblue" stroke="midnightblue" points="401.32,-36.4 391.04,-38.97 400.68,-43.37 401.32,-36.4"/>
</g>
<!-- Node12&#45;&gt;Node1 -->
<g id="edge14" class="edge">
<title>Node12&#45;&gt;Node1</title>
<path fill="none" stroke="midnightblue" d="M824.2,-41.6C832.59,-42.66 841.18,-43.74 849.71,-44.81"/>
<polygon fill="midnightblue" stroke="midnightblue" points="824.45,-38.1 814.09,-40.33 823.58,-45.05 824.45,-38.1"/>
</g>
<!-- Node13 -->
<g id="node13" class="node">
<title>Node13</title>
<g id="a_node13"><a xlink:title=" ">
<polygon fill="white" stroke="#bfbfbf" points="485,-0.5 485,-19.5 626,-19.5 626,-0.5 485,-0.5"/>
<text text-anchor="middle" x="555.5" y="-7.5" font-family="Helvetica,sans-Serif" font-size="10.00">java::util::SortedSet&lt; E &gt;</text>
</a>
</g>
</g>
<!-- Node13&#45;&gt;Node12 -->
<g id="edge16" class="edge">
<title>Node13&#45;&gt;Node12</title>
<path fill="none" stroke="midnightblue" d="M636.22,-19.26C650.75,-20.94 665.77,-22.69 679.86,-24.32"/>
<polygon fill="midnightblue" stroke="midnightblue" points="636.59,-15.77 626.26,-18.1 635.79,-22.73 636.59,-15.77"/>
</g>
</g>
</svg>
