<?xml version="1.0" encoding="UTF-8" standalone="no"?>
<!DOCTYPE svg PUBLIC "-//W3C//DTD SVG 1.1//EN"
 "http://www.w3.org/Graphics/SVG/1.1/DTD/svg11.dtd">
<!-- Generated by graphviz version 2.43.0 (0)
 -->
<!-- Title: javolution.context.SecurityContext.isGranted Pages: 1 -->
<svg width="557pt" height="100pt"
 viewBox="0.00 0.00 557.00 99.50" xmlns="http://www.w3.org/2000/svg" xmlns:xlink="http://www.w3.org/1999/xlink">
<g id="graph0" class="graph" transform="scale(1 1) rotate(0) translate(4 95.5)">
<title>javolution.context.SecurityContext.isGranted</title>
<polygon fill="white" stroke="transparent" points="-4,4 -4,-95.5 553,-95.5 553,4 -4,4"/>
<!-- Node1 -->
<g id="node1" class="node">
<title>Node1</title>
<g id="a_node1"><a xlink:title=" ">
<polygon fill="#bfbfbf" stroke="black" points="401,-33 401,-63 549,-63 549,-33 401,-33"/>
<text text-anchor="start" x="409" y="-51" font-family="Helvetica,sans-Serif" font-size="10.00">javolution.context.Security</text>
<text text-anchor="middle" x="475" y="-40" font-family="Helvetica,sans-Serif" font-size="10.00">Context.isGranted</text>
</a>
</g>
</g>
<!-- Node2 -->
<g id="node2" class="node">
<title>Node2</title>
<g id="a_node2"><a xlink:href="../../db/d18/classjavolution_1_1context_1_1SecurityContext.html#a7941a09c10221d648e8d84c88bbe45bd" target="_top" xlink:title=" ">
<polygon fill="white" stroke="black" points="217,-33 217,-63 365,-63 365,-33 217,-33"/>
<text text-anchor="start" x="225" y="-51" font-family="Helvetica,sans-Serif" font-size="10.00">javolution.context.Security</text>
<text text-anchor="middle" x="291" y="-40" font-family="Helvetica,sans-Serif" font-size="10.00">Context.check</text>
</a>
</g>
</g>
<!-- Node1&#45;&gt;Node2 -->
<g id="edge1" class="edge">
<title>Node1&#45;&gt;Node2</title>
<path fill="none" stroke="midnightblue" d="M390.48,-48C382.01,-48 373.44,-48 365.09,-48"/>
<polygon fill="midnightblue" stroke="midnightblue" points="390.76,-51.5 400.76,-48 390.76,-44.5 390.76,-51.5"/>
</g>
<!-- Node3 -->
<g id="node3" class="node">
<title>Node3</title>
<g id="a_node3"><a xlink:href="../../d3/d0f/classjavolution_1_1context_1_1AbstractContext.html#a303f8f9cfb829a874b9b0485d8055258" target="_top" xlink:title=" ">
<polygon fill="white" stroke="black" points="16,-61 16,-91 165,-91 165,-61 16,-61"/>
<text text-anchor="start" x="24" y="-79" font-family="Helvetica,sans-Serif" font-size="10.00">javolution.context.Abstract</text>
<text text-anchor="middle" x="90.5" y="-68" font-family="Helvetica,sans-Serif" font-size="10.00">Context.enter</text>
</a>
</g>
</g>
<!-- Node2&#45;&gt;Node3 -->
<g id="edge2" class="edge">
<title>Node2&#45;&gt;Node3</title>
<path fill="none" stroke="midnightblue" d="M206.91,-59.72C193.03,-61.68 178.7,-63.7 165.08,-65.62"/>
<polygon fill="midnightblue" stroke="midnightblue" points="207.52,-63.17 216.93,-58.31 206.54,-56.24 207.52,-63.17"/>
</g>
<!-- Node4 -->
<g id="node4" class="node">
<title>Node4</title>
<g id="a_node4"><a xlink:href="../../d5/dc7/classjavolution_1_1lang_1_1Configurable.html#a0c40780b7302380c396d6cde82a52183" target="_top" xlink:title=" ">
<polygon fill="white" stroke="black" points="0,-0.5 0,-41.5 181,-41.5 181,-0.5 0,-0.5"/>
<text text-anchor="start" x="8" y="-29.5" font-family="Helvetica,sans-Serif" font-size="10.00">javolution.lang.Configurable</text>
<text text-anchor="start" x="8" y="-18.5" font-family="Helvetica,sans-Serif" font-size="10.00">&lt; javolution::context::LogContext</text>
<text text-anchor="middle" x="90.5" y="-7.5" font-family="Helvetica,sans-Serif" font-size="10.00">::Level &gt;::reconfigure</text>
</a>
</g>
</g>
<!-- Node2&#45;&gt;Node4 -->
<g id="edge3" class="edge">
<title>Node2&#45;&gt;Node4</title>
<path fill="none" stroke="midnightblue" d="M206.75,-36.68C198.33,-35.53 189.75,-34.36 181.27,-33.21"/>
<polygon fill="midnightblue" stroke="midnightblue" points="206.55,-40.18 216.93,-38.06 207.49,-33.25 206.55,-40.18"/>
</g>
</g>
</svg>
