<?xml version="1.0" encoding="UTF-8" standalone="no"?>
<!DOCTYPE svg PUBLIC "-//W3C//DTD SVG 1.1//EN"
 "http://www.w3.org/Graphics/SVG/1.1/DTD/svg11.dtd">
<!-- Generated by graphviz version 2.43.0 (0)
 -->
<!-- Title: javolution.context.FormatContext Pages: 1 -->
<svg width="234pt" height="185pt"
 viewBox="0.00 0.00 234.00 185.00" xmlns="http://www.w3.org/2000/svg" xmlns:xlink="http://www.w3.org/1999/xlink">
<g id="graph0" class="graph" transform="scale(1 1) rotate(0) translate(4 181)">
<title>javolution.context.FormatContext</title>
<polygon fill="white" stroke="transparent" points="-4,4 -4,-181 230,-181 230,4 -4,4"/>
<!-- Node1 -->
<g id="node1" class="node">
<title>Node1</title>
<g id="a_node1"><a xlink:title=" ">
<polygon fill="#bfbfbf" stroke="black" points="33,-0.5 33,-30.5 176,-30.5 176,-0.5 33,-0.5"/>
<text text-anchor="start" x="41" y="-18.5" font-family="Helvetica,sans-Serif" font-size="10.00">javolution.context.Format</text>
<text text-anchor="middle" x="104.5" y="-7.5" font-family="Helvetica,sans-Serif" font-size="10.00">Context</text>
</a>
</g>
</g>
<!-- Node2 -->
<g id="node2" class="node">
<title>Node2</title>
<g id="a_node2"><a xlink:href="../../d3/d0f/classjavolution_1_1context_1_1AbstractContext.html" target="_top" xlink:title=" ">
<polygon fill="white" stroke="black" points="30,-68.5 30,-98.5 179,-98.5 179,-68.5 30,-68.5"/>
<text text-anchor="start" x="38" y="-86.5" font-family="Helvetica,sans-Serif" font-size="10.00">javolution.context.Abstract</text>
<text text-anchor="middle" x="104.5" y="-75.5" font-family="Helvetica,sans-Serif" font-size="10.00">Context</text>
</a>
</g>
</g>
<!-- Node2&#45;&gt;Node1 -->
<g id="edge1" class="edge">
<title>Node2&#45;&gt;Node1</title>
<path fill="none" stroke="midnightblue" d="M104.5,-58.03C104.5,-48.86 104.5,-38.74 104.5,-30.79"/>
<polygon fill="midnightblue" stroke="midnightblue" points="101,-58.18 104.5,-68.18 108,-58.18 101,-58.18"/>
</g>
<!-- Node2&#45;&gt;Node2 -->
<g id="edge3" class="edge">
<title>Node2&#45;&gt;Node2</title>
<path fill="none" stroke="#9a32cd" stroke-dasharray="5,2" d="M189.19,-87.84C194.08,-86.8 197,-85.35 197,-83.5 197,-80.61 189.88,-78.7 179.26,-77.78"/>
<polygon fill="#9a32cd" stroke="#9a32cd" points="188.69,-84.38 179.26,-89.22 189.65,-91.31 188.69,-84.38"/>
<text text-anchor="middle" x="211.5" y="-81" font-family="Helvetica,sans-Serif" font-size="10.00"> outer</text>
</g>
<!-- Node3 -->
<g id="node3" class="node">
<title>Node3</title>
<g id="a_node3"><a xlink:title=" ">
<polygon fill="white" stroke="#bfbfbf" points="0,-146.5 0,-176.5 209,-176.5 209,-146.5 0,-146.5"/>
<text text-anchor="start" x="8" y="-164.5" font-family="Helvetica,sans-Serif" font-size="10.00">static final ThreadLocal</text>
<text text-anchor="middle" x="104.5" y="-153.5" font-family="Helvetica,sans-Serif" font-size="10.00">&lt; javolution.context.AbstractContext &gt;</text>
</a>
</g>
</g>
<!-- Node3&#45;&gt;Node2 -->
<g id="edge2" class="edge">
<title>Node3&#45;&gt;Node2</title>
<path fill="none" stroke="#9a32cd" stroke-dasharray="5,2" d="M104.5,-136.09C104.5,-123.76 104.5,-109.22 104.5,-98.73"/>
<polygon fill="#9a32cd" stroke="#9a32cd" points="101,-136.2 104.5,-146.2 108,-136.21 101,-136.2"/>
<text text-anchor="middle" x="130" y="-120" font-family="Helvetica,sans-Serif" font-size="10.00"> CURRENT</text>
</g>
</g>
</svg>
