<?xml version="1.0" encoding="UTF-8" standalone="no"?>
<!DOCTYPE svg PUBLIC "-//W3C//DTD SVG 1.1//EN"
 "http://www.w3.org/Graphics/SVG/1.1/DTD/svg11.dtd">
<!-- Generated by graphviz version 2.43.0 (0)
 -->
<!-- Title: javolution.util.internal.map.sorted.SharedSortedMapImpl&lt; K, V &gt; Pages: 1 -->
<svg width="927pt" height="214pt"
 viewBox="0.00 0.00 927.00 214.00" xmlns="http://www.w3.org/2000/svg" xmlns:xlink="http://www.w3.org/1999/xlink">
<g id="graph0" class="graph" transform="scale(1 1) rotate(0) translate(4 210)">
<title>javolution.util.internal.map.sorted.SharedSortedMapImpl&lt; K, V &gt;</title>
<polygon fill="white" stroke="transparent" points="-4,4 -4,-210 923,-210 923,4 -4,4"/>
<!-- Node1 -->
<g id="node1" class="node">
<title>Node1</title>
<g id="a_node1"><a xlink:title=" ">
<polygon fill="#bfbfbf" stroke="black" points="733,-106 733,-136 919,-136 919,-106 733,-106"/>
<text text-anchor="start" x="741" y="-124" font-family="Helvetica,sans-Serif" font-size="10.00">javolution.util.internal.map.sorted.</text>
<text text-anchor="middle" x="826" y="-113" font-family="Helvetica,sans-Serif" font-size="10.00">SharedSortedMapImpl&lt; K, V &gt;</text>
</a>
</g>
</g>
<!-- Node2 -->
<g id="node2" class="node">
<title>Node2</title>
<g id="a_node2"><a xlink:href="../../d5/db2/classjavolution_1_1util_1_1internal_1_1map_1_1SharedMapImpl.html" target="_top" xlink:title=" ">
<polygon fill="white" stroke="black" points="528,-84 528,-114 697,-114 697,-84 528,-84"/>
<text text-anchor="start" x="536" y="-102" font-family="Helvetica,sans-Serif" font-size="10.00">javolution::util::internal</text>
<text text-anchor="middle" x="612.5" y="-91" font-family="Helvetica,sans-Serif" font-size="10.00">::map::SharedMapImpl&lt; K, V &gt;</text>
</a>
</g>
</g>
<!-- Node2&#45;&gt;Node1 -->
<g id="edge1" class="edge">
<title>Node2&#45;&gt;Node1</title>
<path fill="none" stroke="midnightblue" d="M707.1,-108.74C715.69,-109.63 724.38,-110.53 732.95,-111.43"/>
<polygon fill="midnightblue" stroke="midnightblue" points="707.4,-105.25 697.09,-107.69 706.67,-112.21 707.4,-105.25"/>
</g>
<!-- Node3 -->
<g id="node3" class="node">
<title>Node3</title>
<g id="a_node3"><a xlink:href="../../d0/d83/classjavolution_1_1util_1_1internal_1_1map_1_1MapView.html" target="_top" xlink:title=" ">
<polygon fill="white" stroke="black" points="347,-82 347,-112 484,-112 484,-82 347,-82"/>
<text text-anchor="start" x="355" y="-100" font-family="Helvetica,sans-Serif" font-size="10.00">javolution::util::internal</text>
<text text-anchor="middle" x="415.5" y="-89" font-family="Helvetica,sans-Serif" font-size="10.00">::map::MapView&lt; K, V &gt;</text>
</a>
</g>
</g>
<!-- Node3&#45;&gt;Node2 -->
<g id="edge2" class="edge">
<title>Node3&#45;&gt;Node2</title>
<path fill="none" stroke="midnightblue" d="M494.19,-97.8C505.24,-97.91 516.65,-98.03 527.81,-98.14"/>
<polygon fill="midnightblue" stroke="midnightblue" points="494.19,-94.3 484.15,-97.69 494.12,-101.3 494.19,-94.3"/>
</g>
<!-- Node4 -->
<g id="node4" class="node">
<title>Node4</title>
<g id="a_node4"><a xlink:href="../../d7/d30/interfacejavolution_1_1util_1_1service_1_1MapService.html" target="_top" xlink:title=" ">
<polygon fill="white" stroke="black" points="175,-82 175,-112 303,-112 303,-82 175,-82"/>
<text text-anchor="start" x="183" y="-100" font-family="Helvetica,sans-Serif" font-size="10.00">javolution::util::service</text>
<text text-anchor="middle" x="239" y="-89" font-family="Helvetica,sans-Serif" font-size="10.00">::MapService&lt; K, V &gt;</text>
</a>
</g>
</g>
<!-- Node4&#45;&gt;Node3 -->
<g id="edge3" class="edge">
<title>Node4&#45;&gt;Node3</title>
<path fill="none" stroke="midnightblue" d="M313.55,-97C324.63,-97 336,-97 346.94,-97"/>
<polygon fill="midnightblue" stroke="midnightblue" points="313.49,-93.5 303.49,-97 313.49,-100.5 313.49,-93.5"/>
</g>
<!-- Node10 -->
<g id="node10" class="node">
<title>Node10</title>
<g id="a_node10"><a xlink:href="../../de/dc6/interfacejavolution_1_1util_1_1service_1_1SortedMapService.html" target="_top" xlink:title=" ">
<polygon fill="white" stroke="black" points="339,-131 339,-161 492,-161 492,-131 339,-131"/>
<text text-anchor="start" x="347" y="-149" font-family="Helvetica,sans-Serif" font-size="10.00">javolution::util::service</text>
<text text-anchor="middle" x="415.5" y="-138" font-family="Helvetica,sans-Serif" font-size="10.00">::SortedMapService&lt; K, V &gt;</text>
</a>
</g>
</g>
<!-- Node4&#45;&gt;Node10 -->
<g id="edge10" class="edge">
<title>Node4&#45;&gt;Node10</title>
<path fill="none" stroke="midnightblue" d="M303.47,-114.82C322.31,-120.11 342.75,-125.85 360.9,-130.95"/>
<polygon fill="midnightblue" stroke="midnightblue" points="304.35,-111.44 293.78,-112.1 302.46,-118.17 304.35,-111.44"/>
</g>
<!-- Node5 -->
<g id="node5" class="node">
<title>Node5</title>
<g id="a_node5"><a xlink:title=" ">
<polygon fill="white" stroke="#bfbfbf" points="5.5,-186.5 5.5,-205.5 133.5,-205.5 133.5,-186.5 5.5,-186.5"/>
<text text-anchor="middle" x="69.5" y="-193.5" font-family="Helvetica,sans-Serif" font-size="10.00">java::util::Map&lt; K, V &gt;</text>
</a>
</g>
</g>
<!-- Node5&#45;&gt;Node4 -->
<g id="edge4" class="edge">
<title>Node5&#45;&gt;Node4</title>
<path fill="none" stroke="midnightblue" d="M130.58,-182.22C133.53,-180.66 136.36,-178.93 139,-177 162.59,-159.77 152.37,-140.47 175,-122 179.65,-118.21 184.95,-114.93 190.45,-112.12"/>
<polygon fill="midnightblue" stroke="midnightblue" points="129.09,-179.05 121.44,-186.38 132,-185.42 129.09,-179.05"/>
</g>
<!-- Node6 -->
<g id="node6" class="node">
<title>Node6</title>
<g id="a_node6"><a xlink:title=" ">
<polygon fill="white" stroke="#bfbfbf" points="0,-137 0,-167 139,-167 139,-137 0,-137"/>
<text text-anchor="start" x="8" y="-155" font-family="Helvetica,sans-Serif" font-size="10.00">java::util::concurrent</text>
<text text-anchor="middle" x="69.5" y="-144" font-family="Helvetica,sans-Serif" font-size="10.00">::ConcurrentMap&lt; K, V &gt;</text>
</a>
</g>
</g>
<!-- Node6&#45;&gt;Node4 -->
<g id="edge5" class="edge">
<title>Node6&#45;&gt;Node4</title>
<path fill="none" stroke="midnightblue" d="M125.93,-133.8C147.45,-126.73 171.8,-118.74 192.29,-112.01"/>
<polygon fill="midnightblue" stroke="midnightblue" points="124.68,-130.53 116.27,-136.97 126.86,-137.18 124.68,-130.53"/>
</g>
<!-- Node7 -->
<g id="node7" class="node">
<title>Node7</title>
<g id="a_node7"><a xlink:href="../../dd/ded/interfacejavolution_1_1util_1_1function_1_1Splittable.html" target="_top" xlink:title=" ">
<polygon fill="white" stroke="black" points="1,-76.5 1,-117.5 138,-117.5 138,-76.5 1,-76.5"/>
<text text-anchor="start" x="9" y="-105.5" font-family="Helvetica,sans-Serif" font-size="10.00">javolution::util::function</text>
<text text-anchor="start" x="9" y="-94.5" font-family="Helvetica,sans-Serif" font-size="10.00">::Splittable&lt; MapService</text>
<text text-anchor="middle" x="69.5" y="-83.5" font-family="Helvetica,sans-Serif" font-size="10.00">&lt; K, V &gt; &gt;</text>
</a>
</g>
</g>
<!-- Node7&#45;&gt;Node4 -->
<g id="edge6" class="edge">
<title>Node7&#45;&gt;Node4</title>
<path fill="none" stroke="midnightblue" d="M148.21,-97C157.18,-97 166.24,-97 174.98,-97"/>
<polygon fill="midnightblue" stroke="midnightblue" points="148.15,-93.5 138.15,-97 148.15,-100.5 148.15,-93.5"/>
</g>
<!-- Node8 -->
<g id="node8" class="node">
<title>Node8</title>
<g id="a_node8"><a xlink:title=" ">
<polygon fill="white" stroke="#bfbfbf" points="32.5,-38.5 32.5,-57.5 106.5,-57.5 106.5,-38.5 32.5,-38.5"/>
<text text-anchor="middle" x="69.5" y="-45.5" font-family="Helvetica,sans-Serif" font-size="10.00">Serializable</text>
</a>
</g>
</g>
<!-- Node8&#45;&gt;Node4 -->
<g id="edge7" class="edge">
<title>Node8&#45;&gt;Node4</title>
<path fill="none" stroke="midnightblue" d="M115.24,-60.25C123.17,-62.46 131.33,-64.78 139,-67 155.39,-71.75 173.24,-77.11 189.22,-81.97"/>
<polygon fill="midnightblue" stroke="midnightblue" points="115.97,-56.81 105.39,-57.51 114.09,-63.56 115.97,-56.81"/>
</g>
<!-- Node9 -->
<g id="node9" class="node">
<title>Node9</title>
<g id="a_node9"><a xlink:href="../../d5/d48/classCloneable.html" target="_top" xlink:title=" ">
<polygon fill="white" stroke="black" points="37,-0.5 37,-19.5 102,-19.5 102,-0.5 37,-0.5"/>
<text text-anchor="middle" x="69.5" y="-7.5" font-family="Helvetica,sans-Serif" font-size="10.00">Cloneable</text>
</a>
</g>
</g>
<!-- Node9&#45;&gt;Node4 -->
<g id="edge8" class="edge">
<title>Node9&#45;&gt;Node4</title>
<path fill="none" stroke="midnightblue" d="M111.99,-19.13C121.1,-21.78 130.54,-25.06 139,-29 169.43,-43.18 200.74,-66.42 219.79,-81.72"/>
<polygon fill="midnightblue" stroke="midnightblue" points="112.88,-15.74 102.31,-16.49 111.04,-22.5 112.88,-15.74"/>
</g>
<!-- Node10&#45;&gt;Node1 -->
<g id="edge9" class="edge">
<title>Node10&#45;&gt;Node1</title>
<path fill="none" stroke="midnightblue" d="M502.55,-140.73C570.01,-136.61 663.7,-130.87 732.71,-126.65"/>
<polygon fill="midnightblue" stroke="midnightblue" points="502.15,-137.25 492.38,-141.36 502.57,-144.24 502.15,-137.25"/>
</g>
<!-- Node11 -->
<g id="node11" class="node">
<title>Node11</title>
<g id="a_node11"><a xlink:title=" ">
<polygon fill="white" stroke="#bfbfbf" points="180,-131 180,-161 298,-161 298,-131 180,-131"/>
<text text-anchor="start" x="188" y="-149" font-family="Helvetica,sans-Serif" font-size="10.00">java::util::SortedMap</text>
<text text-anchor="middle" x="239" y="-138" font-family="Helvetica,sans-Serif" font-size="10.00">&lt; K, V &gt;</text>
</a>
</g>
</g>
<!-- Node11&#45;&gt;Node10 -->
<g id="edge11" class="edge">
<title>Node11&#45;&gt;Node10</title>
<path fill="none" stroke="midnightblue" d="M308.4,-146C318.42,-146 328.8,-146 338.95,-146"/>
<polygon fill="midnightblue" stroke="midnightblue" points="308.11,-142.5 298.11,-146 308.11,-149.5 308.11,-142.5"/>
</g>
</g>
</svg>
