<?xml version="1.0" encoding="UTF-8" standalone="no"?>
<!DOCTYPE svg PUBLIC "-//W3C//DTD SVG 1.1//EN"
 "http://www.w3.org/Graphics/SVG/1.1/DTD/svg11.dtd">
<!-- Generated by graphviz version 2.43.0 (0)
 -->
<!-- Title: javolution.util.internal.bitset.BitSetIteratorImpl.next Pages: 1 -->
<svg width="357pt" height="78pt"
 viewBox="0.00 0.00 357.00 77.50" xmlns="http://www.w3.org/2000/svg" xmlns:xlink="http://www.w3.org/1999/xlink">
<g id="graph0" class="graph" transform="scale(1 1) rotate(0) translate(4 73.5)">
<title>javolution.util.internal.bitset.BitSetIteratorImpl.next</title>
<polygon fill="white" stroke="transparent" points="-4,4 -4,-73.5 353,-73.5 353,4 -4,4"/>
<!-- Node1 -->
<g id="node1" class="node">
<title>Node1</title>
<g id="a_node1"><a xlink:title=" ">
<polygon fill="#bfbfbf" stroke="black" points="0,-17 0,-47 158,-47 158,-17 0,-17"/>
<text text-anchor="start" x="8" y="-35" font-family="Helvetica,sans-Serif" font-size="10.00">javolution.util.internal.bitset.</text>
<text text-anchor="middle" x="79" y="-24" font-family="Helvetica,sans-Serif" font-size="10.00">BitSetIteratorImpl.next</text>
</a>
</g>
</g>
<!-- Node2 -->
<g id="node2" class="node">
<title>Node2</title>
<g id="a_node2"><a xlink:href="../../d7/d3d/interfacejavolution_1_1util_1_1service_1_1BitSetService.html#a8d7a31df6375ceef385a5803817d5f29" target="_top" xlink:title=" ">
<polygon fill="white" stroke="black" points="203.5,-39 203.5,-69 339.5,-69 339.5,-39 203.5,-39"/>
<text text-anchor="start" x="211.5" y="-57" font-family="Helvetica,sans-Serif" font-size="10.00">javolution.util.service.</text>
<text text-anchor="middle" x="271.5" y="-46" font-family="Helvetica,sans-Serif" font-size="10.00">BitSetService.nextSetBit</text>
</a>
</g>
</g>
<!-- Node1&#45;&gt;Node2 -->
<g id="edge1" class="edge">
<title>Node1&#45;&gt;Node2</title>
<path fill="none" stroke="midnightblue" d="M158.03,-41.01C169.64,-42.35 181.59,-43.73 193.18,-45.07"/>
<polygon fill="midnightblue" stroke="midnightblue" points="192.92,-48.56 203.25,-46.23 193.72,-41.61 192.92,-48.56"/>
</g>
<!-- Node3 -->
<g id="node3" class="node">
<title>Node3</title>
<g id="a_node3"><a xlink:href="../../d4/d60/classjavolution_1_1util_1_1Index.html#a09a525f7665195aa138b5519ccd13447" target="_top" xlink:title=" ">
<polygon fill="white" stroke="black" points="194,-0.5 194,-19.5 349,-19.5 349,-0.5 194,-0.5"/>
<text text-anchor="middle" x="271.5" y="-7.5" font-family="Helvetica,sans-Serif" font-size="10.00">javolution.util.Index.valueOf</text>
</a>
</g>
</g>
<!-- Node1&#45;&gt;Node3 -->
<g id="edge2" class="edge">
<title>Node1&#45;&gt;Node3</title>
<path fill="none" stroke="midnightblue" d="M158.03,-22.99C166.53,-22.01 175.21,-21 183.8,-20.01"/>
<polygon fill="midnightblue" stroke="midnightblue" points="184.29,-23.48 193.82,-18.86 183.48,-16.53 184.29,-23.48"/>
</g>
</g>
</svg>
