<?xml version="1.0" encoding="UTF-8" standalone="no"?>
<!DOCTYPE svg PUBLIC "-//W3C//DTD SVG 1.1//EN"
 "http://www.w3.org/Graphics/SVG/1.1/DTD/svg11.dtd">
<!-- Generated by graphviz version 2.43.0 (0)
 -->
<!-- Title: javolution.lang.Initializer.loadClass Pages: 1 -->
<svg width="831pt" height="103pt"
 viewBox="0.00 0.00 831.00 102.50" xmlns="http://www.w3.org/2000/svg" xmlns:xlink="http://www.w3.org/1999/xlink">
<g id="graph0" class="graph" transform="scale(1 1) rotate(0) translate(4 98.5)">
<title>javolution.lang.Initializer.loadClass</title>
<polygon fill="white" stroke="transparent" points="-4,4 -4,-98.5 827,-98.5 827,4 -4,4"/>
<!-- Node1 -->
<g id="node1" class="node">
<title>Node1</title>
<g id="a_node1"><a xlink:title=" ">
<polygon fill="#bfbfbf" stroke="black" points="0,-17 0,-47 161,-47 161,-17 0,-17"/>
<text text-anchor="start" x="8" y="-35" font-family="Helvetica,sans-Serif" font-size="10.00">javolution.lang.Initializer.load</text>
<text text-anchor="middle" x="80.5" y="-24" font-family="Helvetica,sans-Serif" font-size="10.00">Class</text>
</a>
</g>
</g>
<!-- Node2 -->
<g id="node2" class="node">
<title>Node2</title>
<g id="a_node2"><a xlink:href="../../db/de8/classjavolution_1_1context_1_1LogContext.html#af5f74866879390693180e6f5edec892b" target="_top" xlink:title=" ">
<polygon fill="white" stroke="black" points="197,-22.5 197,-41.5 394,-41.5 394,-22.5 197,-22.5"/>
<text text-anchor="middle" x="295.5" y="-29.5" font-family="Helvetica,sans-Serif" font-size="10.00">javolution.context.LogContext.debug</text>
</a>
</g>
</g>
<!-- Node1&#45;&gt;Node2 -->
<g id="edge1" class="edge">
<title>Node1&#45;&gt;Node2</title>
<path fill="none" stroke="midnightblue" d="M161.12,-32C169.52,-32 178.17,-32 186.83,-32"/>
<polygon fill="midnightblue" stroke="midnightblue" points="186.98,-35.5 196.98,-32 186.98,-28.5 186.98,-35.5"/>
</g>
<!-- Node3 -->
<g id="node3" class="node">
<title>Node3</title>
<g id="a_node3"><a xlink:href="../../db/de8/classjavolution_1_1context_1_1LogContext.html#a3ad63f63b01950647a13c980c14c111a" target="_top" xlink:title=" ">
<polygon fill="white" stroke="black" points="430,-39 430,-69 631,-69 631,-39 430,-39"/>
<text text-anchor="start" x="438" y="-57" font-family="Helvetica,sans-Serif" font-size="10.00">javolution.context.LogContext.current</text>
<text text-anchor="middle" x="530.5" y="-46" font-family="Helvetica,sans-Serif" font-size="10.00">LogContext</text>
</a>
</g>
</g>
<!-- Node2&#45;&gt;Node3 -->
<g id="edge2" class="edge">
<title>Node2&#45;&gt;Node3</title>
<path fill="none" stroke="midnightblue" d="M394.3,-41.23C402.62,-42.02 411.08,-42.82 419.48,-43.61"/>
<polygon fill="midnightblue" stroke="midnightblue" points="419.42,-47.12 429.71,-44.58 420.08,-40.15 419.42,-47.12"/>
</g>
<!-- Node6 -->
<g id="node6" class="node">
<title>Node6</title>
<g id="a_node6"><a xlink:href="../../db/de8/classjavolution_1_1context_1_1LogContext.html#a1f213be4946618a105225786df8210b1" target="_top" xlink:title=" ">
<polygon fill="white" stroke="black" points="439.5,-0.5 439.5,-19.5 621.5,-19.5 621.5,-0.5 439.5,-0.5"/>
<text text-anchor="middle" x="530.5" y="-7.5" font-family="Helvetica,sans-Serif" font-size="10.00">javolution.context.LogContext.log</text>
</a>
</g>
</g>
<!-- Node2&#45;&gt;Node6 -->
<g id="edge5" class="edge">
<title>Node2&#45;&gt;Node6</title>
<path fill="none" stroke="midnightblue" d="M394.3,-22.77C405.86,-21.67 417.67,-20.56 429.26,-19.46"/>
<polygon fill="midnightblue" stroke="midnightblue" points="429.75,-22.93 439.38,-18.51 429.09,-15.96 429.75,-22.93"/>
</g>
<!-- Node4 -->
<g id="node4" class="node">
<title>Node4</title>
<g id="a_node4"><a xlink:href="../../d3/d0f/classjavolution_1_1context_1_1AbstractContext.html#a39804b0188cf822819d88f43715deaba" target="_top" xlink:title=" ">
<polygon fill="white" stroke="black" points="670.5,-64 670.5,-94 819.5,-94 819.5,-64 670.5,-64"/>
<text text-anchor="start" x="678.5" y="-82" font-family="Helvetica,sans-Serif" font-size="10.00">javolution.context.Abstract</text>
<text text-anchor="middle" x="745" y="-71" font-family="Helvetica,sans-Serif" font-size="10.00">Context.current</text>
</a>
</g>
</g>
<!-- Node3&#45;&gt;Node4 -->
<g id="edge3" class="edge">
<title>Node3&#45;&gt;Node4</title>
<path fill="none" stroke="midnightblue" d="M631.22,-65.73C640.88,-66.87 650.61,-68.01 660.1,-69.13"/>
<polygon fill="midnightblue" stroke="midnightblue" points="659.93,-72.63 670.28,-70.33 660.75,-65.68 659.93,-72.63"/>
</g>
<!-- Node5 -->
<g id="node5" class="node">
<title>Node5</title>
<g id="a_node5"><a xlink:href="../../d8/d20/classjavolution_1_1osgi_1_1internal_1_1OSGiServices.html#a2a13065b92db2d08ab44d0005a3421a4" target="_top" xlink:title=" ">
<polygon fill="white" stroke="black" points="667,-15 667,-45 823,-45 823,-15 667,-15"/>
<text text-anchor="start" x="675" y="-33" font-family="Helvetica,sans-Serif" font-size="10.00">javolution.osgi.internal.</text>
<text text-anchor="middle" x="745" y="-22" font-family="Helvetica,sans-Serif" font-size="10.00">OSGiServices.getLogContext</text>
</a>
</g>
</g>
<!-- Node3&#45;&gt;Node5 -->
<g id="edge4" class="edge">
<title>Node3&#45;&gt;Node5</title>
<path fill="none" stroke="midnightblue" d="M631.22,-42.74C639.73,-41.78 648.29,-40.81 656.69,-39.86"/>
<polygon fill="midnightblue" stroke="midnightblue" points="657.3,-43.31 666.85,-38.71 656.52,-36.36 657.3,-43.31"/>
</g>
</g>
</svg>
