<?xml version="1.0" encoding="UTF-8" standalone="no"?>
<!DOCTYPE svg PUBLIC "-//W3C//DTD SVG 1.1//EN"
 "http://www.w3.org/Graphics/SVG/1.1/DTD/svg11.dtd">
<!-- Generated by graphviz version 2.43.0 (0)
 -->
<!-- Title: javolution.lang.Initializer.loadClass Pages: 1 -->
<svg width="546pt" height="50pt"
 viewBox="0.00 0.00 546.00 50.00" xmlns="http://www.w3.org/2000/svg" xmlns:xlink="http://www.w3.org/1999/xlink">
<g id="graph0" class="graph" transform="scale(1 1) rotate(0) translate(4 46)">
<title>javolution.lang.Initializer.loadClass</title>
<polygon fill="white" stroke="transparent" points="-4,4 -4,-46 542,-46 542,4 -4,4"/>
<!-- Node1 -->
<g id="node1" class="node">
<title>Node1</title>
<g id="a_node1"><a xlink:title=" ">
<polygon fill="#bfbfbf" stroke="black" points="377,-6 377,-36 538,-36 538,-6 377,-6"/>
<text text-anchor="start" x="385" y="-24" font-family="Helvetica,sans-Serif" font-size="10.00">javolution.lang.Initializer.load</text>
<text text-anchor="middle" x="457.5" y="-13" font-family="Helvetica,sans-Serif" font-size="10.00">Class</text>
</a>
</g>
</g>
<!-- Node2 -->
<g id="node2" class="node">
<title>Node2</title>
<g id="a_node2"><a xlink:href="../../d8/d20/classjavolution_1_1osgi_1_1internal_1_1OSGiServices.html#acb73fa260ca4cdc4056c3b16d69694b6" target="_top" xlink:title=" ">
<polygon fill="white" stroke="black" points="170,-0.5 170,-41.5 341,-41.5 341,-0.5 170,-0.5"/>
<text text-anchor="start" x="178" y="-29.5" font-family="Helvetica,sans-Serif" font-size="10.00">javolution.osgi.internal.</text>
<text text-anchor="start" x="178" y="-18.5" font-family="Helvetica,sans-Serif" font-size="10.00">OSGiServices.initializeRealtime</text>
<text text-anchor="middle" x="255.5" y="-7.5" font-family="Helvetica,sans-Serif" font-size="10.00">Classes</text>
</a>
</g>
</g>
<!-- Node1&#45;&gt;Node2 -->
<g id="edge1" class="edge">
<title>Node1&#45;&gt;Node2</title>
<path fill="none" stroke="midnightblue" d="M366.88,-21C358.3,-21 349.62,-21 341.1,-21"/>
<polygon fill="midnightblue" stroke="midnightblue" points="366.88,-24.5 376.88,-21 366.88,-17.5 366.88,-24.5"/>
</g>
<!-- Node3 -->
<g id="node3" class="node">
<title>Node3</title>
<g id="a_node3"><a xlink:href="../../d2/d94/classjavolution_1_1osgi_1_1internal_1_1JavolutionActivator.html#a073a569fac72d21f478798745b026435" target="_top" xlink:title=" ">
<polygon fill="white" stroke="black" points="0,-6 0,-36 134,-36 134,-6 0,-6"/>
<text text-anchor="start" x="8" y="-24" font-family="Helvetica,sans-Serif" font-size="10.00">javolution.osgi.internal.</text>
<text text-anchor="middle" x="67" y="-13" font-family="Helvetica,sans-Serif" font-size="10.00">JavolutionActivator.start</text>
</a>
</g>
</g>
<!-- Node2&#45;&gt;Node3 -->
<g id="edge2" class="edge">
<title>Node2&#45;&gt;Node3</title>
<path fill="none" stroke="midnightblue" d="M159.79,-21C151.1,-21 142.42,-21 134.06,-21"/>
<polygon fill="midnightblue" stroke="midnightblue" points="159.98,-24.5 169.98,-21 159.98,-17.5 159.98,-24.5"/>
</g>
</g>
</svg>
