<?xml version="1.0" encoding="UTF-8" standalone="no"?>
<!DOCTYPE svg PUBLIC "-//W3C//DTD SVG 1.1//EN"
 "http://www.w3.org/Graphics/SVG/1.1/DTD/svg11.dtd">
<!-- Generated by graphviz version 2.43.0 (0)
 -->
<!-- Title: javolution.text.TypeFormat Pages: 1 -->
<svg width="214pt" height="95pt"
 viewBox="0.00 0.00 214.00 95.00" xmlns="http://www.w3.org/2000/svg" xmlns:xlink="http://www.w3.org/1999/xlink">
<g id="graph0" class="graph" transform="scale(1 1) rotate(0) translate(4 91)">
<title>javolution.text.TypeFormat</title>
<polygon fill="white" stroke="transparent" points="-4,4 -4,-91 210,-91 210,4 -4,4"/>
<!-- Node1 -->
<g id="node1" class="node">
<title>Node1</title>
<g id="a_node1"><a xlink:title=" ">
<polygon fill="#bfbfbf" stroke="black" points="0,-0.5 0,-19.5 148,-19.5 148,-0.5 0,-0.5"/>
<text text-anchor="middle" x="74" y="-7.5" font-family="Helvetica,sans-Serif" font-size="10.00">javolution.text.TypeFormat</text>
</a>
</g>
</g>
<!-- Node2 -->
<g id="node2" class="node">
<title>Node2</title>
<g id="a_node2"><a xlink:title=" ">
<polygon fill="white" stroke="#bfbfbf" points="7.5,-67.5 7.5,-86.5 36.5,-86.5 36.5,-67.5 7.5,-67.5"/>
<text text-anchor="middle" x="22" y="-74.5" font-family="Helvetica,sans-Serif" font-size="10.00">int</text>
</a>
</g>
</g>
<!-- Node2&#45;&gt;Node1 -->
<g id="edge1" class="edge">
<title>Node2&#45;&gt;Node1</title>
<path fill="none" stroke="#9a32cd" stroke-dasharray="5,2" d="M18.79,-57.35C18.59,-50.81 19.48,-43.68 23,-38 28.17,-29.66 36.86,-23.74 45.61,-19.62"/>
<polygon fill="#9a32cd" stroke="#9a32cd" points="15.33,-57.9 19.91,-67.45 22.29,-57.13 15.33,-57.9"/>
<text text-anchor="middle" x="64" y="-41" font-family="Helvetica,sans-Serif" font-size="10.00"> INT_MAX_DIV10</text>
</g>
<!-- Node3 -->
<g id="node3" class="node">
<title>Node3</title>
<g id="a_node3"><a xlink:title=" ">
<polygon fill="white" stroke="#bfbfbf" points="81,-67.5 81,-86.5 173,-86.5 173,-67.5 81,-67.5"/>
<text text-anchor="middle" x="127" y="-74.5" font-family="Helvetica,sans-Serif" font-size="10.00">static final long</text>
</a>
</g>
</g>
<!-- Node3&#45;&gt;Node1 -->
<g id="edge2" class="edge">
<title>Node3&#45;&gt;Node1</title>
<path fill="none" stroke="#9a32cd" stroke-dasharray="5,2" d="M118.36,-58.34C114.69,-51.65 110.08,-44.16 105,-38 99.37,-31.17 91.92,-24.62 85.74,-19.69"/>
<polygon fill="#9a32cd" stroke="#9a32cd" points="115.31,-60.06 123.01,-67.34 121.53,-56.85 115.31,-60.06"/>
<text text-anchor="middle" x="159" y="-41" font-family="Helvetica,sans-Serif" font-size="10.00"> LONG_MAX_DIV10</text>
</g>
</g>
</svg>
