<?xml version="1.0" encoding="UTF-8" standalone="no"?>
<!DOCTYPE svg PUBLIC "-//W3C//DTD SVG 1.1//EN"
 "http://www.w3.org/Graphics/SVG/1.1/DTD/svg11.dtd">
<!-- Generated by graphviz version 2.43.0 (0)
 -->
<!-- Title: javolution.xml.XMLBinding Pages: 1 -->
<svg width="1063pt" height="397pt"
 viewBox="0.00 0.00 1063.00 396.50" xmlns="http://www.w3.org/2000/svg" xmlns:xlink="http://www.w3.org/1999/xlink">
<g id="graph0" class="graph" transform="scale(1 1) rotate(0) translate(4 392.5)">
<title>javolution.xml.XMLBinding</title>
<polygon fill="white" stroke="transparent" points="-4,4 -4,-392.5 1059,-392.5 1059,4 -4,4"/>
<!-- Node1 -->
<g id="node1" class="node">
<title>Node1</title>
<g id="a_node1"><a xlink:title=" ">
<polygon fill="#bfbfbf" stroke="black" points="907,-110 907,-129 1055,-129 1055,-110 907,-110"/>
<text text-anchor="middle" x="981" y="-117" font-family="Helvetica,sans-Serif" font-size="10.00">javolution.xml.XMLBinding</text>
</a>
</g>
</g>
<!-- Node1&#45;&gt;Node1 -->
<g id="edge3" class="edge">
<title>Node1&#45;&gt;Node1</title>
<path fill="none" stroke="#9a32cd" stroke-dasharray="5,2" d="M956.82,-138.53C958.14,-143.63 966.2,-147.5 981,-147.5 1004.11,-147.5 1010.78,-138.07 1001.04,-129.26"/>
<polygon fill="#9a32cd" stroke="#9a32cd" points="960.08,-139.81 960.96,-129.26 953.69,-136.96 960.08,-139.81"/>
<text text-anchor="middle" x="981" y="-150.5" font-family="Helvetica,sans-Serif" font-size="10.00"> DEFAULT</text>
</g>
<!-- Node2 -->
<g id="node2" class="node">
<title>Node2</title>
<g id="a_node2"><a xlink:href="../../d7/d2f/interfacejavolution_1_1xml_1_1XMLSerializable.html" target="_top" xlink:title=" ">
<polygon fill="white" stroke="black" points="260.5,-107 260.5,-126 428.5,-126 428.5,-107 260.5,-107"/>
<text text-anchor="middle" x="344.5" y="-114" font-family="Helvetica,sans-Serif" font-size="10.00">javolution.xml.XMLSerializable</text>
</a>
</g>
</g>
<!-- Node2&#45;&gt;Node1 -->
<g id="edge1" class="edge">
<title>Node2&#45;&gt;Node1</title>
<path fill="none" stroke="midnightblue" d="M438.89,-116.94C566.12,-117.54 791.29,-118.61 906.95,-119.15"/>
<polygon fill="midnightblue" stroke="midnightblue" points="438.79,-113.44 428.78,-116.89 438.76,-120.44 438.79,-113.44"/>
</g>
<!-- Node4 -->
<g id="node4" class="node">
<title>Node4</title>
<g id="a_node4"><a xlink:href="../../d0/dc4/classjavolution_1_1xml_1_1QName.html" target="_top" xlink:title=" ">
<polygon fill="white" stroke="black" points="630,-223 630,-242 757,-242 757,-223 630,-223"/>
<text text-anchor="middle" x="693.5" y="-230" font-family="Helvetica,sans-Serif" font-size="10.00">javolution.xml.QName</text>
</a>
</g>
</g>
<!-- Node2&#45;&gt;Node4 -->
<g id="edge5" class="edge">
<title>Node2&#45;&gt;Node4</title>
<path fill="none" stroke="midnightblue" d="M401.4,-128.21C411.92,-130.53 422.81,-133.02 433,-135.5 496.06,-150.84 513.32,-150.48 574,-173.5 611.6,-187.77 653.17,-210.1 675.71,-222.8"/>
<polygon fill="midnightblue" stroke="midnightblue" points="401.98,-124.75 391.46,-126.03 400.49,-131.59 401.98,-124.75"/>
</g>
<!-- Node3 -->
<g id="node3" class="node">
<title>Node3</title>
<g id="a_node3"><a xlink:title=" ">
<polygon fill="white" stroke="#bfbfbf" points="47,-101 47,-120 121,-120 121,-101 47,-101"/>
<text text-anchor="middle" x="84" y="-108" font-family="Helvetica,sans-Serif" font-size="10.00">Serializable</text>
</a>
</g>
</g>
<!-- Node3&#45;&gt;Node2 -->
<g id="edge2" class="edge">
<title>Node3&#45;&gt;Node2</title>
<path fill="none" stroke="midnightblue" d="M131.37,-111.58C167.18,-112.41 217.66,-113.58 260.4,-114.57"/>
<polygon fill="midnightblue" stroke="midnightblue" points="131.29,-108.07 121.22,-111.34 131.13,-115.07 131.29,-108.07"/>
</g>
<!-- Node4&#45;&gt;Node1 -->
<g id="edge4" class="edge">
<title>Node4&#45;&gt;Node1</title>
<path fill="none" stroke="#9a32cd" stroke-dasharray="5,2" d="M728.34,-219.11C786.67,-196.02 904.78,-149.27 955.72,-129.11"/>
<polygon fill="#9a32cd" stroke="#9a32cd" points="726.85,-215.93 718.84,-222.87 729.43,-222.44 726.85,-215.93"/>
<text text-anchor="middle" x="851" y="-185.5" font-family="Helvetica,sans-Serif" font-size="10.00"> _classAttribute</text>
</g>
<!-- Node5 -->
<g id="node5" class="node">
<title>Node5</title>
<g id="a_node5"><a xlink:href="../../d1/de3/interfacejavolution_1_1lang_1_1Immutable.html" target="_top" xlink:title=" ">
<polygon fill="white" stroke="black" points="268.5,-319.5 268.5,-349.5 420.5,-349.5 420.5,-319.5 268.5,-319.5"/>
<text text-anchor="start" x="276.5" y="-337.5" font-family="Helvetica,sans-Serif" font-size="10.00">javolution::lang::Immutable</text>
<text text-anchor="middle" x="344.5" y="-326.5" font-family="Helvetica,sans-Serif" font-size="10.00">&lt; QName &gt;</text>
</a>
</g>
</g>
<!-- Node5&#45;&gt;Node4 -->
<g id="edge6" class="edge">
<title>Node5&#45;&gt;Node4</title>
<path fill="none" stroke="midnightblue" d="M430.69,-331.7C474.52,-328.18 528.22,-320.61 574,-304.5 616.46,-289.56 660.12,-258.03 680.57,-242.12"/>
<polygon fill="midnightblue" stroke="midnightblue" points="430.34,-328.22 420.63,-332.45 430.86,-335.2 430.34,-328.22"/>
</g>
<!-- Node6 -->
<g id="node6" class="node">
<title>Node6</title>
<g id="a_node6"><a xlink:title=" ">
<polygon fill="white" stroke="#bfbfbf" points="41,-269 41,-288 127,-288 127,-269 41,-269"/>
<text text-anchor="middle" x="84" y="-276" font-family="Helvetica,sans-Serif" font-size="10.00">CharSequence</text>
</a>
</g>
</g>
<!-- Node6&#45;&gt;Node4 -->
<g id="edge7" class="edge">
<title>Node6&#45;&gt;Node4</title>
<path fill="none" stroke="midnightblue" d="M137.47,-282.92C227.51,-289.36 416.94,-297.88 574,-271.5 608.6,-265.69 646.86,-251.61 670.3,-242.06"/>
<polygon fill="midnightblue" stroke="midnightblue" points="137.48,-279.41 127.25,-282.17 136.97,-286.39 137.48,-279.41"/>
</g>
<!-- Node10 -->
<g id="node10" class="node">
<title>Node10</title>
<g id="a_node10"><a xlink:href="../../d0/d36/classjavolution_1_1text_1_1CharArray.html" target="_top" xlink:title=" ">
<polygon fill="white" stroke="black" points="274.5,-243 274.5,-262 414.5,-262 414.5,-243 274.5,-243"/>
<text text-anchor="middle" x="344.5" y="-250" font-family="Helvetica,sans-Serif" font-size="10.00">javolution.text.CharArray</text>
</a>
</g>
</g>
<!-- Node6&#45;&gt;Node10 -->
<g id="edge12" class="edge">
<title>Node6&#45;&gt;Node10</title>
<path fill="none" stroke="midnightblue" d="M137.06,-273.26C176.56,-269.29 231.23,-263.79 274.39,-259.45"/>
<polygon fill="midnightblue" stroke="midnightblue" points="136.71,-269.78 127.11,-274.26 137.41,-276.75 136.71,-269.78"/>
</g>
<!-- Node7 -->
<g id="node7" class="node">
<title>Node7</title>
<g id="a_node7"><a xlink:title=" ">
<polygon fill="white" stroke="#bfbfbf" points="322,-205 322,-224 367,-224 367,-205 322,-205"/>
<text text-anchor="middle" x="344.5" y="-212" font-family="Helvetica,sans-Serif" font-size="10.00">String</text>
</a>
</g>
</g>
<!-- Node7&#45;&gt;Node4 -->
<g id="edge8" class="edge">
<title>Node7&#45;&gt;Node4</title>
<path fill="none" stroke="#9a32cd" stroke-dasharray="5,2" d="M377.4,-213.79C421.61,-213.05 503.98,-212.62 574,-217.5 592.2,-218.77 611.9,-220.94 629.9,-223.24"/>
<polygon fill="#9a32cd" stroke="#9a32cd" points="377.21,-210.29 367.27,-213.97 377.33,-217.29 377.21,-210.29"/>
<text text-anchor="middle" x="512.5" y="-220.5" font-family="Helvetica,sans-Serif" font-size="10.00"> _toString</text>
</g>
<!-- Node8 -->
<g id="node8" class="node">
<title>Node8</title>
<g id="a_node8"><a xlink:href="../../dd/d46/classjavolution_1_1util_1_1FastMap.html" target="_top" xlink:title=" ">
<polygon fill="white" stroke="black" points="256,-145 256,-186 433,-186 433,-145 256,-145"/>
<text text-anchor="start" x="264" y="-174" font-family="Helvetica,sans-Serif" font-size="10.00">javolution.util.FastMap</text>
<text text-anchor="start" x="264" y="-163" font-family="Helvetica,sans-Serif" font-size="10.00">&lt; CharSequence, javolution.xml.</text>
<text text-anchor="middle" x="344.5" y="-152" font-family="Helvetica,sans-Serif" font-size="10.00">QName &gt;</text>
</a>
</g>
</g>
<!-- Node8&#45;&gt;Node4 -->
<g id="edge9" class="edge">
<title>Node8&#45;&gt;Node4</title>
<path fill="none" stroke="#9a32cd" stroke-dasharray="5,2" d="M443.04,-175.93C483.76,-181.12 531.41,-188.28 574,-197.5 605.45,-204.31 640.73,-215.15 664.55,-222.97"/>
<polygon fill="#9a32cd" stroke="#9a32cd" points="443.47,-172.46 433.11,-174.69 442.6,-179.4 443.47,-172.46"/>
<text text-anchor="middle" x="512.5" y="-200.5" font-family="Helvetica,sans-Serif" font-size="10.00"> FULL_NAME_TO_QNAME</text>
</g>
<!-- Node9 -->
<g id="node9" class="node">
<title>Node9</title>
<g id="a_node9"><a xlink:title=" ">
<polygon fill="white" stroke="#bfbfbf" points="298.5,-369 298.5,-388 390.5,-388 390.5,-369 298.5,-369"/>
<text text-anchor="middle" x="344.5" y="-376" font-family="Helvetica,sans-Serif" font-size="10.00">static final long</text>
</a>
</g>
</g>
<!-- Node9&#45;&gt;Node1 -->
<g id="edge16" class="edge">
<title>Node9&#45;&gt;Node1</title>
<path fill="none" stroke="#9a32cd" stroke-dasharray="5,2" d="M400.87,-381.37C447.8,-382.33 516.44,-380.24 574,-364.5 726.85,-322.7 759.58,-288.93 889,-197.5 920.44,-175.29 953.96,-144.45 970.14,-129.05"/>
<polygon fill="#9a32cd" stroke="#9a32cd" points="400.7,-377.87 390.61,-381.11 400.52,-384.86 400.7,-377.87"/>
<text text-anchor="middle" x="693.5" y="-361.5" font-family="Helvetica,sans-Serif" font-size="10.00"> serialVersionUID</text>
</g>
<!-- Node9&#45;&gt;Node4 -->
<g id="edge10" class="edge">
<title>Node9&#45;&gt;Node4</title>
<path fill="none" stroke="#9a32cd" stroke-dasharray="5,2" d="M400.49,-367.51C411.32,-365.08 422.56,-362.37 433,-359.5 441.13,-357.27 442.84,-355.61 451,-353.5 504.84,-339.56 523.63,-354.08 574,-330.5 621.63,-308.2 666.13,-262.19 684.11,-242.16"/>
<polygon fill="#9a32cd" stroke="#9a32cd" points="399.71,-364.1 390.69,-369.66 401.21,-370.93 399.71,-364.1"/>
<text text-anchor="middle" x="512.5" y="-356.5" font-family="Helvetica,sans-Serif" font-size="10.00"> serialVersionUID</text>
</g>
<!-- Node10&#45;&gt;Node4 -->
<g id="edge11" class="edge">
<title>Node10&#45;&gt;Node4</title>
<path fill="none" stroke="#9a32cd" stroke-dasharray="5,2" d="M425.05,-247.91C487.26,-244.33 572.55,-239.41 629.94,-236.11"/>
<polygon fill="#9a32cd" stroke="#9a32cd" points="424.67,-244.43 414.89,-248.5 425.07,-251.42 424.67,-244.43"/>
<text text-anchor="middle" x="512.5" y="-259.5" font-family="Helvetica,sans-Serif" font-size="10.00"> _localName</text>
<text text-anchor="middle" x="512.5" y="-248.5" font-family="Helvetica,sans-Serif" font-size="10.00">_namespaceURI</text>
</g>
<!-- Node11 -->
<g id="node11" class="node">
<title>Node11</title>
<g id="a_node11"><a xlink:href="../../db/d26/classComparable.html" target="_top" xlink:title=" ">
<polygon fill="white" stroke="black" points="0,-139 0,-158 168,-158 168,-139 0,-139"/>
<text text-anchor="middle" x="84" y="-146" font-family="Helvetica,sans-Serif" font-size="10.00">Comparable&lt; CharSequence &gt;</text>
</a>
</g>
</g>
<!-- Node11&#45;&gt;Node10 -->
<g id="edge13" class="edge">
<title>Node11&#45;&gt;Node10</title>
<path fill="none" stroke="midnightblue" d="M177.99,-149.43C199.76,-153.72 221.41,-161.86 238,-176.5 257.92,-194.08 236.37,-215.6 256,-233.5 261.28,-238.32 267.49,-242.02 274.13,-244.85"/>
<polygon fill="midnightblue" stroke="midnightblue" points="178.45,-145.95 168,-147.71 177.26,-152.85 178.45,-145.95"/>
</g>
<!-- Node12 -->
<g id="node12" class="node">
<title>Node12</title>
<g id="a_node12"><a xlink:title=" ">
<polygon fill="white" stroke="#bfbfbf" points="65,-219 65,-238 103,-238 103,-219 65,-219"/>
<text text-anchor="middle" x="84" y="-226" font-family="Helvetica,sans-Serif" font-size="10.00">char</text>
</a>
</g>
</g>
<!-- Node12&#45;&gt;Node10 -->
<g id="edge14" class="edge">
<title>Node12&#45;&gt;Node10</title>
<path fill="none" stroke="#9a32cd" stroke-dasharray="5,2" d="M113.48,-226.89C144.28,-225.57 194.79,-224.61 238,-229.5 246.14,-230.42 248,-231.74 256,-233.5 270.12,-236.6 285.53,-239.96 299.43,-242.97"/>
<polygon fill="#9a32cd" stroke="#9a32cd" points="113.27,-223.4 103.44,-227.37 113.6,-230.39 113.27,-223.4"/>
<text text-anchor="middle" x="212" y="-243.5" font-family="Helvetica,sans-Serif" font-size="10.00"> NO_CHAR</text>
<text text-anchor="middle" x="212" y="-232.5" font-family="Helvetica,sans-Serif" font-size="10.00">_array</text>
</g>
<!-- Node13 -->
<g id="node13" class="node">
<title>Node13</title>
<g id="a_node13"><a xlink:title=" ">
<polygon fill="white" stroke="#bfbfbf" points="69.5,-177 69.5,-196 98.5,-196 98.5,-177 69.5,-177"/>
<text text-anchor="middle" x="84" y="-184" font-family="Helvetica,sans-Serif" font-size="10.00">int</text>
</a>
</g>
</g>
<!-- Node13&#45;&gt;Node10 -->
<g id="edge15" class="edge">
<title>Node13&#45;&gt;Node10</title>
<path fill="none" stroke="#9a32cd" stroke-dasharray="5,2" d="M108.9,-181.95C141.08,-177.19 198.82,-173.59 238,-199.5 252.26,-208.93 242.38,-223.17 256,-233.5 261.45,-237.63 267.61,-240.91 274.08,-243.49"/>
<polygon fill="#9a32cd" stroke="#9a32cd" points="107.95,-178.56 98.65,-183.64 109.09,-185.47 107.95,-178.56"/>
<text text-anchor="middle" x="212" y="-213.5" font-family="Helvetica,sans-Serif" font-size="10.00"> _offset</text>
<text text-anchor="middle" x="212" y="-202.5" font-family="Helvetica,sans-Serif" font-size="10.00">_length</text>
</g>
<!-- Node14 -->
<g id="node14" class="node">
<title>Node14</title>
<g id="a_node14"><a xlink:href="../../dd/d46/classjavolution_1_1util_1_1FastMap.html" target="_top" xlink:title=" ">
<polygon fill="white" stroke="black" points="623,-50 623,-91 764,-91 764,-50 623,-50"/>
<text text-anchor="start" x="631" y="-79" font-family="Helvetica,sans-Serif" font-size="10.00">javolution.util.FastMap</text>
<text text-anchor="start" x="631" y="-68" font-family="Helvetica,sans-Serif" font-size="10.00">&lt; javolution.xml.QName,</text>
<text text-anchor="middle" x="693.5" y="-57" font-family="Helvetica,sans-Serif" font-size="10.00"> Class&lt;?&gt; &gt;</text>
</a>
</g>
</g>
<!-- Node14&#45;&gt;Node1 -->
<g id="edge17" class="edge">
<title>Node14&#45;&gt;Node1</title>
<path fill="none" stroke="#9a32cd" stroke-dasharray="5,2" d="M774.45,-77.72C809.76,-81.59 851.64,-87.1 889,-94.5 909.41,-98.54 931.97,-104.73 949.52,-109.93"/>
<polygon fill="#9a32cd" stroke="#9a32cd" points="774.52,-74.21 764.2,-76.62 773.77,-81.17 774.52,-74.21"/>
<text text-anchor="middle" x="851" y="-97.5" font-family="Helvetica,sans-Serif" font-size="10.00"> _aliasToClass</text>
</g>
<!-- Node15 -->
<g id="node15" class="node">
<title>Node15</title>
<g id="a_node15"><a xlink:href="../../dd/d46/classjavolution_1_1util_1_1FastMap.html" target="_top" xlink:title=" ">
<polygon fill="white" stroke="black" points="592,-0.5 592,-30.5 795,-30.5 795,-0.5 592,-0.5"/>
<text text-anchor="start" x="600" y="-18.5" font-family="Helvetica,sans-Serif" font-size="10.00">javolution.util.FastMap</text>
<text text-anchor="middle" x="693.5" y="-7.5" font-family="Helvetica,sans-Serif" font-size="10.00">&lt; Class&lt;?&gt;, javolution.xml.QName &gt;</text>
</a>
</g>
</g>
<!-- Node15&#45;&gt;Node1 -->
<g id="edge18" class="edge">
<title>Node15&#45;&gt;Node1</title>
<path fill="none" stroke="#9a32cd" stroke-dasharray="5,2" d="M780.07,-32.97C814.62,-41.4 854.42,-52.9 889,-67.5 917.5,-79.53 948.28,-98.51 965.74,-109.91"/>
<polygon fill="#9a32cd" stroke="#9a32cd" points="780.54,-29.48 770,-30.56 778.91,-36.29 780.54,-29.48"/>
<text text-anchor="middle" x="851" y="-70.5" font-family="Helvetica,sans-Serif" font-size="10.00"> _classToAlias</text>
</g>
</g>
</svg>
