<?xml version="1.0" encoding="UTF-8" standalone="no"?>
<!DOCTYPE svg PUBLIC "-//W3C//DTD SVG 1.1//EN"
 "http://www.w3.org/Graphics/SVG/1.1/DTD/svg11.dtd">
<!-- Generated by graphviz version 2.43.0 (0)
 -->
<!-- Title: javolution.util.internal.collection.UnmodifiableCollectionImpl&lt; E &gt; Pages: 1 -->
<svg width="1040pt" height="307pt"
 viewBox="0.00 0.00 1040.00 306.50" xmlns="http://www.w3.org/2000/svg" xmlns:xlink="http://www.w3.org/1999/xlink">
<g id="graph0" class="graph" transform="scale(1 1) rotate(0) translate(4 302.5)">
<title>javolution.util.internal.collection.UnmodifiableCollectionImpl&lt; E &gt;</title>
<polygon fill="white" stroke="transparent" points="-4,4 -4,-302.5 1036,-302.5 1036,4 -4,4"/>
<!-- Node1 -->
<g id="node1" class="node">
<title>Node1</title>
<g id="a_node1"><a xlink:title=" ">
<polygon fill="#bfbfbf" stroke="black" points="851,-241.5 851,-271.5 1032,-271.5 1032,-241.5 851,-241.5"/>
<text text-anchor="start" x="859" y="-259.5" font-family="Helvetica,sans-Serif" font-size="10.00">javolution.util.internal.collection.</text>
<text text-anchor="middle" x="941.5" y="-248.5" font-family="Helvetica,sans-Serif" font-size="10.00">UnmodifiableCollectionImpl&lt; E &gt;</text>
</a>
</g>
</g>
<!-- Node2 -->
<g id="node2" class="node">
<title>Node2</title>
<g id="a_node2"><a xlink:href="../../d1/d40/classjavolution_1_1util_1_1internal_1_1collection_1_1CollectionView.html" target="_top" xlink:title=" ">
<polygon fill="white" stroke="black" points="637,-203.5 637,-233.5 814,-233.5 814,-203.5 637,-203.5"/>
<text text-anchor="start" x="645" y="-221.5" font-family="Helvetica,sans-Serif" font-size="10.00">javolution::util::internal</text>
<text text-anchor="middle" x="725.5" y="-210.5" font-family="Helvetica,sans-Serif" font-size="10.00">::collection::CollectionView&lt; E &gt;</text>
</a>
</g>
</g>
<!-- Node2&#45;&gt;Node1 -->
<g id="edge1" class="edge">
<title>Node2&#45;&gt;Node1</title>
<path fill="none" stroke="midnightblue" d="M821.16,-235.31C832.71,-237.36 844.45,-239.44 855.84,-241.47"/>
<polygon fill="midnightblue" stroke="midnightblue" points="821.54,-231.82 811.08,-233.52 820.31,-238.71 821.54,-231.82"/>
</g>
<!-- Node3 -->
<g id="node3" class="node">
<title>Node3</title>
<g id="a_node3"><a xlink:href="../../dc/d19/classjavolution_1_1util_1_1FastCollection.html" target="_top" xlink:title=" ">
<polygon fill="white" stroke="black" points="326,-156 326,-175 516,-175 516,-156 326,-156"/>
<text text-anchor="middle" x="421" y="-163" font-family="Helvetica,sans-Serif" font-size="10.00">javolution::util::FastCollection&lt; E &gt;</text>
</a>
</g>
</g>
<!-- Node3&#45;&gt;Node2 -->
<g id="edge2" class="edge">
<title>Node3&#45;&gt;Node2</title>
<path fill="none" stroke="midnightblue" d="M486.52,-176.8C530.92,-184.58 590.39,-195 638.77,-203.48"/>
<polygon fill="midnightblue" stroke="midnightblue" points="486.88,-173.31 476.43,-175.04 485.68,-180.21 486.88,-173.31"/>
</g>
<!-- Node4 -->
<g id="node4" class="node">
<title>Node4</title>
<g id="a_node4"><a xlink:title=" ">
<polygon fill="white" stroke="#bfbfbf" points="31,-94 31,-113 174,-113 174,-94 31,-94"/>
<text text-anchor="middle" x="102.5" y="-101" font-family="Helvetica,sans-Serif" font-size="10.00">java::util::Collection&lt; E &gt;</text>
</a>
</g>
</g>
<!-- Node4&#45;&gt;Node3 -->
<g id="edge3" class="edge">
<title>Node4&#45;&gt;Node3</title>
<path fill="none" stroke="midnightblue" d="M162.38,-115.03C222.65,-126.84 315.23,-144.98 371.45,-155.99"/>
<polygon fill="midnightblue" stroke="midnightblue" points="162.75,-111.54 152.26,-113.05 161.4,-118.41 162.75,-111.54"/>
</g>
<!-- Node7 -->
<g id="node7" class="node">
<title>Node7</title>
<g id="a_node7"><a xlink:href="../../dd/d6c/interfacejavolution_1_1util_1_1service_1_1CollectionService.html" target="_top" xlink:title=" ">
<polygon fill="white" stroke="black" points="353,-69.5 353,-99.5 489,-99.5 489,-69.5 353,-69.5"/>
<text text-anchor="start" x="361" y="-87.5" font-family="Helvetica,sans-Serif" font-size="10.00">javolution::util::service</text>
<text text-anchor="middle" x="421" y="-76.5" font-family="Helvetica,sans-Serif" font-size="10.00">::CollectionService&lt; E &gt;</text>
</a>
</g>
</g>
<!-- Node4&#45;&gt;Node7 -->
<g id="edge7" class="edge">
<title>Node4&#45;&gt;Node7</title>
<path fill="none" stroke="midnightblue" d="M184.36,-98.65C236.54,-95.51 303.6,-91.49 352.83,-88.53"/>
<polygon fill="midnightblue" stroke="midnightblue" points="183.91,-95.17 174.13,-99.26 184.33,-102.15 183.91,-95.17"/>
</g>
<!-- Node5 -->
<g id="node5" class="node">
<title>Node5</title>
<g id="a_node5"><a xlink:title=" ">
<polygon fill="white" stroke="#bfbfbf" points="65.5,-141 65.5,-160 139.5,-160 139.5,-141 65.5,-141"/>
<text text-anchor="middle" x="102.5" y="-148" font-family="Helvetica,sans-Serif" font-size="10.00">Serializable</text>
</a>
</g>
</g>
<!-- Node5&#45;&gt;Node3 -->
<g id="edge4" class="edge">
<title>Node5&#45;&gt;Node3</title>
<path fill="none" stroke="midnightblue" d="M150.08,-152.71C196.13,-154.89 267.9,-158.29 325.87,-161.04"/>
<polygon fill="midnightblue" stroke="midnightblue" points="149.96,-149.2 139.81,-152.22 149.63,-156.19 149.96,-149.2"/>
</g>
<!-- Node5&#45;&gt;Node7 -->
<g id="edge9" class="edge">
<title>Node5&#45;&gt;Node7</title>
<path fill="none" stroke="midnightblue" d="M149.53,-141.16C190.99,-132.73 253.6,-119.91 308,-108.5 322.5,-105.46 338.04,-102.15 352.8,-99"/>
<polygon fill="midnightblue" stroke="midnightblue" points="148.82,-137.74 139.72,-143.16 150.22,-144.59 148.82,-137.74"/>
</g>
<!-- Node6 -->
<g id="node6" class="node">
<title>Node6</title>
<g id="a_node6"><a xlink:title=" ">
<polygon fill="white" stroke="#bfbfbf" points="56.5,-209 56.5,-228 148.5,-228 148.5,-209 56.5,-209"/>
<text text-anchor="middle" x="102.5" y="-216" font-family="Helvetica,sans-Serif" font-size="10.00">static final long</text>
</a>
</g>
</g>
<!-- Node6&#45;&gt;Node1 -->
<g id="edge13" class="edge">
<title>Node6&#45;&gt;Node1</title>
<path fill="none" stroke="#9a32cd" stroke-dasharray="5,2" d="M140.42,-231.23C184.1,-245.56 259.33,-267.95 326,-276.5 511.41,-300.27 730.72,-282.16 850.78,-268.34"/>
<polygon fill="#9a32cd" stroke="#9a32cd" points="141.4,-227.86 130.8,-228.04 139.19,-234.51 141.4,-227.86"/>
<text text-anchor="middle" x="576.5" y="-290.5" font-family="Helvetica,sans-Serif" font-size="10.00"> serialVersionUID</text>
</g>
<!-- Node6&#45;&gt;Node2 -->
<g id="edge12" class="edge">
<title>Node6&#45;&gt;Node2</title>
<path fill="none" stroke="#9a32cd" stroke-dasharray="5,2" d="M158.69,-218.5C266.69,-218.5 506.74,-218.5 636.75,-218.5"/>
<polygon fill="#9a32cd" stroke="#9a32cd" points="158.66,-215 148.66,-218.5 158.66,-222 158.66,-215"/>
<text text-anchor="middle" x="421" y="-221.5" font-family="Helvetica,sans-Serif" font-size="10.00"> serialVersionUID</text>
</g>
<!-- Node6&#45;&gt;Node3 -->
<g id="edge5" class="edge">
<title>Node6&#45;&gt;Node3</title>
<path fill="none" stroke="#9a32cd" stroke-dasharray="5,2" d="M155.63,-206.83C176.52,-202.35 200.84,-197.39 223,-193.5 262.98,-186.48 307.76,-180.01 344.51,-175.06"/>
<polygon fill="#9a32cd" stroke="#9a32cd" points="154.71,-203.44 145.68,-208.98 156.19,-210.28 154.71,-203.44"/>
<text text-anchor="middle" x="265.5" y="-196.5" font-family="Helvetica,sans-Serif" font-size="10.00"> serialVersionUID</text>
</g>
<!-- Node7&#45;&gt;Node2 -->
<g id="edge6" class="edge">
<title>Node7&#45;&gt;Node2</title>
<path fill="none" stroke="midnightblue" d="M465.43,-103.74C526.19,-130.65 635.3,-178.99 690.51,-203.44"/>
<polygon fill="midnightblue" stroke="midnightblue" points="466.67,-100.46 456.11,-99.61 463.84,-106.86 466.67,-100.46"/>
</g>
<!-- Node8 -->
<g id="node8" class="node">
<title>Node8</title>
<g id="a_node8"><a xlink:href="../../dd/ded/interfacejavolution_1_1util_1_1function_1_1Splittable.html" target="_top" xlink:title=" ">
<polygon fill="white" stroke="black" points="0,-0.5 0,-30.5 205,-30.5 205,-0.5 0,-0.5"/>
<text text-anchor="start" x="8" y="-18.5" font-family="Helvetica,sans-Serif" font-size="10.00">javolution::util::function</text>
<text text-anchor="middle" x="102.5" y="-7.5" font-family="Helvetica,sans-Serif" font-size="10.00">::Splittable&lt; CollectionService&lt; E &gt; &gt;</text>
</a>
</g>
</g>
<!-- Node8&#45;&gt;Node7 -->
<g id="edge8" class="edge">
<title>Node8&#45;&gt;Node7</title>
<path fill="none" stroke="midnightblue" d="M182.51,-32.72C234.99,-44.17 303.15,-59.03 352.98,-69.89"/>
<polygon fill="midnightblue" stroke="midnightblue" points="183.08,-29.27 172.57,-30.56 181.59,-36.11 183.08,-29.27"/>
</g>
<!-- Node9 -->
<g id="node9" class="node">
<title>Node9</title>
<g id="a_node9"><a xlink:href="../../d5/d48/classCloneable.html" target="_top" xlink:title=" ">
<polygon fill="white" stroke="black" points="70,-50 70,-69 135,-69 135,-50 70,-50"/>
<text text-anchor="middle" x="102.5" y="-57" font-family="Helvetica,sans-Serif" font-size="10.00">Cloneable</text>
</a>
</g>
</g>
<!-- Node9&#45;&gt;Node7 -->
<g id="edge10" class="edge">
<title>Node9&#45;&gt;Node7</title>
<path fill="none" stroke="midnightblue" d="M145.04,-62.78C197.9,-66.96 289.91,-74.22 352.81,-79.19"/>
<polygon fill="midnightblue" stroke="midnightblue" points="145.25,-59.29 135,-61.99 144.7,-66.27 145.25,-59.29"/>
</g>
<!-- Node10 -->
<g id="node10" class="node">
<title>Node10</title>
<g id="a_node10"><a xlink:title=" ">
<polygon fill="white" stroke="#bfbfbf" points="356,-248 356,-267 486,-267 486,-248 356,-248"/>
<text text-anchor="middle" x="421" y="-255" font-family="Helvetica,sans-Serif" font-size="10.00">CollectionService&lt; E &gt;</text>
</a>
</g>
</g>
<!-- Node10&#45;&gt;Node2 -->
<g id="edge11" class="edge">
<title>Node10&#45;&gt;Node2</title>
<path fill="none" stroke="#9a32cd" stroke-dasharray="5,2" d="M496.5,-248.15C533.37,-243.49 578.53,-237.75 619,-232.5 624.77,-231.75 630.72,-230.97 636.71,-230.19"/>
<polygon fill="#9a32cd" stroke="#9a32cd" points="495.82,-244.71 486.34,-249.43 496.7,-251.65 495.82,-244.71"/>
<text text-anchor="middle" x="576.5" y="-245.5" font-family="Helvetica,sans-Serif" font-size="10.00"> target</text>
</g>
</g>
</svg>
