<?xml version="1.0" encoding="UTF-8" standalone="no"?>
<!DOCTYPE svg PUBLIC "-//W3C//DTD SVG 1.1//EN"
 "http://www.w3.org/Graphics/SVG/1.1/DTD/svg11.dtd">
<!-- Generated by graphviz version 2.43.0 (0)
 -->
<!-- Title: javolution.util.Index Pages: 1 -->
<svg width="614pt" height="241pt"
 viewBox="0.00 0.00 614.00 241.00" xmlns="http://www.w3.org/2000/svg" xmlns:xlink="http://www.w3.org/1999/xlink">
<g id="graph0" class="graph" transform="scale(1 1) rotate(0) translate(4 237)">
<title>javolution.util.Index</title>
<polygon fill="white" stroke="transparent" points="-4,4 -4,-237 610,-237 610,4 -4,4"/>
<!-- Node1 -->
<g id="node1" class="node">
<title>Node1</title>
<g id="a_node1"><a xlink:title=" ">
<polygon fill="#bfbfbf" stroke="black" points="492,-106.5 492,-125.5 606,-125.5 606,-106.5 492,-106.5"/>
<text text-anchor="middle" x="549" y="-113.5" font-family="Helvetica,sans-Serif" font-size="10.00">javolution.util.Index</text>
</a>
</g>
</g>
<!-- Node1&#45;&gt;Node1 -->
<g id="edge6" class="edge">
<title>Node1&#45;&gt;Node1</title>
<path fill="none" stroke="#9a32cd" stroke-dasharray="5,2" d="M527.52,-135.4C528.95,-140.31 536.11,-144 549,-144 569.62,-144 575.58,-134.57 566.88,-125.76"/>
<polygon fill="#9a32cd" stroke="#9a32cd" points="530.9,-136.35 531.12,-125.76 524.34,-133.9 530.9,-136.35"/>
<text text-anchor="middle" x="549" y="-158" font-family="Helvetica,sans-Serif" font-size="10.00"> INSTANCES</text>
<text text-anchor="middle" x="549" y="-147" font-family="Helvetica,sans-Serif" font-size="10.00">ZERO</text>
</g>
<!-- Node2 -->
<g id="node2" class="node">
<title>Node2</title>
<g id="a_node2"><a xlink:href="../../d5/d41/classNumber.html" target="_top" xlink:title=" ">
<polygon fill="white" stroke="black" points="266,-213.5 266,-232.5 322,-232.5 322,-213.5 266,-213.5"/>
<text text-anchor="middle" x="294" y="-220.5" font-family="Helvetica,sans-Serif" font-size="10.00">Number</text>
</a>
</g>
</g>
<!-- Node2&#45;&gt;Node1 -->
<g id="edge1" class="edge">
<title>Node2&#45;&gt;Node1</title>
<path fill="none" stroke="midnightblue" d="M332.32,-214.59C344.71,-211.56 358.53,-207.91 371,-204 417.71,-189.37 430.43,-187.32 474,-165 496.76,-153.34 521.12,-136.2 535.43,-125.59"/>
<polygon fill="midnightblue" stroke="midnightblue" points="331.21,-211.26 322.3,-216.99 332.84,-218.07 331.21,-211.26"/>
</g>
<!-- Node3 -->
<g id="node3" class="node">
<title>Node3</title>
<g id="a_node3"><a xlink:href="../../db/d26/classComparable.html" target="_top" xlink:title=" ">
<polygon fill="white" stroke="black" points="231.5,-175.5 231.5,-194.5 356.5,-194.5 356.5,-175.5 231.5,-175.5"/>
<text text-anchor="middle" x="294" y="-182.5" font-family="Helvetica,sans-Serif" font-size="10.00">Comparable&lt; Index &gt;</text>
</a>
</g>
</g>
<!-- Node3&#45;&gt;Node1 -->
<g id="edge2" class="edge">
<title>Node3&#45;&gt;Node1</title>
<path fill="none" stroke="midnightblue" d="M348.06,-173.2C383.85,-164.94 432.01,-153.23 474,-141 489.88,-136.37 507.43,-130.48 521.46,-125.58"/>
<polygon fill="midnightblue" stroke="midnightblue" points="347.28,-169.79 338.31,-175.44 348.84,-176.61 347.28,-169.79"/>
</g>
<!-- Node4 -->
<g id="node4" class="node">
<title>Node4</title>
<g id="a_node4"><a xlink:href="../../d0/dc3/interfacejavolution_1_1lang_1_1ValueType.html" target="_top" xlink:title=" ">
<polygon fill="white" stroke="black" points="220,-126 220,-156 368,-156 368,-126 220,-126"/>
<text text-anchor="start" x="228" y="-144" font-family="Helvetica,sans-Serif" font-size="10.00">javolution::lang::ValueType</text>
<text text-anchor="middle" x="294" y="-133" font-family="Helvetica,sans-Serif" font-size="10.00">&lt; Index &gt;</text>
</a>
</g>
</g>
<!-- Node4&#45;&gt;Node1 -->
<g id="edge3" class="edge">
<title>Node4&#45;&gt;Node1</title>
<path fill="none" stroke="midnightblue" d="M378.51,-132.75C415.72,-129.07 458.56,-124.84 491.87,-121.55"/>
<polygon fill="midnightblue" stroke="midnightblue" points="377.79,-129.3 368.18,-133.77 378.47,-136.27 377.79,-129.3"/>
</g>
<!-- Node5 -->
<g id="node5" class="node">
<title>Node5</title>
<g id="a_node5"><a xlink:href="../../d1/de3/interfacejavolution_1_1lang_1_1Immutable.html" target="_top" xlink:title=" ">
<polygon fill="white" stroke="black" points="0,-131.5 0,-150.5 180,-150.5 180,-131.5 0,-131.5"/>
<text text-anchor="middle" x="90" y="-138.5" font-family="Helvetica,sans-Serif" font-size="10.00">javolution::lang::Immutable&lt; T &gt;</text>
</a>
</g>
</g>
<!-- Node5&#45;&gt;Node4 -->
<g id="edge4" class="edge">
<title>Node5&#45;&gt;Node4</title>
<path fill="none" stroke="midnightblue" d="M190.44,-141C200.31,-141 210.19,-141 219.72,-141"/>
<polygon fill="midnightblue" stroke="midnightblue" points="190.19,-137.5 180.19,-141 190.19,-144.5 190.19,-137.5"/>
</g>
<!-- Node6 -->
<g id="node6" class="node">
<title>Node6</title>
<g id="a_node6"><a xlink:href="../../d5/dc7/classjavolution_1_1lang_1_1Configurable.html" target="_top" xlink:title=" ">
<polygon fill="white" stroke="black" points="217,-77 217,-107 371,-107 371,-77 217,-77"/>
<text text-anchor="start" x="225" y="-95" font-family="Helvetica,sans-Serif" font-size="10.00">javolution.lang.Configurable</text>
<text text-anchor="middle" x="294" y="-84" font-family="Helvetica,sans-Serif" font-size="10.00">&lt; Integer &gt;</text>
</a>
</g>
</g>
<!-- Node6&#45;&gt;Node1 -->
<g id="edge5" class="edge">
<title>Node6&#45;&gt;Node1</title>
<path fill="none" stroke="#9a32cd" stroke-dasharray="5,2" d="M381.56,-96.97C410.95,-99.01 443.94,-101.68 474,-105 479.81,-105.64 485.86,-106.4 491.9,-107.21"/>
<polygon fill="#9a32cd" stroke="#9a32cd" points="381.54,-93.46 371.33,-96.28 381.07,-100.45 381.54,-93.46"/>
<text text-anchor="middle" x="431.5" y="-108" font-family="Helvetica,sans-Serif" font-size="10.00"> UNIQUE</text>
</g>
<!-- Node7 -->
<g id="node7" class="node">
<title>Node7</title>
<g id="a_node7"><a xlink:title=" ">
<polygon fill="white" stroke="#bfbfbf" points="279.5,-38.5 279.5,-57.5 308.5,-57.5 308.5,-38.5 279.5,-38.5"/>
<text text-anchor="middle" x="294" y="-45.5" font-family="Helvetica,sans-Serif" font-size="10.00">int</text>
</a>
</g>
</g>
<!-- Node7&#45;&gt;Node1 -->
<g id="edge7" class="edge">
<title>Node7&#45;&gt;Node1</title>
<path fill="none" stroke="#9a32cd" stroke-dasharray="5,2" d="M318.84,-50.91C353.56,-55.54 419.79,-65.86 474,-83 493.58,-89.19 514.9,-99.06 529.6,-106.39"/>
<polygon fill="#9a32cd" stroke="#9a32cd" points="319.1,-47.42 308.73,-49.61 318.2,-54.36 319.1,-47.42"/>
<text text-anchor="middle" x="431.5" y="-86" font-family="Helvetica,sans-Serif" font-size="10.00"> value</text>
</g>
<!-- Node8 -->
<g id="node8" class="node">
<title>Node8</title>
<g id="a_node8"><a xlink:title=" ">
<polygon fill="white" stroke="#bfbfbf" points="248,-0.5 248,-19.5 340,-19.5 340,-0.5 248,-0.5"/>
<text text-anchor="middle" x="294" y="-7.5" font-family="Helvetica,sans-Serif" font-size="10.00">static final long</text>
</a>
</g>
</g>
<!-- Node8&#45;&gt;Node1 -->
<g id="edge8" class="edge">
<title>Node8&#45;&gt;Node1</title>
<path fill="none" stroke="#9a32cd" stroke-dasharray="5,2" d="M350.28,-14.1C387.02,-18.62 435.42,-28.1 474,-48 502.53,-62.72 528.28,-91.41 540.5,-106.38"/>
<polygon fill="#9a32cd" stroke="#9a32cd" points="350.58,-10.61 340.25,-12.95 349.78,-17.57 350.58,-10.61"/>
<text text-anchor="middle" x="431.5" y="-51" font-family="Helvetica,sans-Serif" font-size="10.00"> serialVersionUID</text>
</g>
</g>
</svg>
